ply
format ascii 1.0
comment VCGLIB generated
comment TextureFile Dungeons_2_Texture_01_A.png
element vertex 264
property float x
property float y
property float z
property float nx
property float ny
property float nz
property uchar red
property uchar green
property uchar blue
property uchar alpha
property float texture_u
property float texture_v
element face 188
property list uchar int vertex_indices
end_header
-250 13.82288 41.2522 -0.4082483 -0.4082483 0.8164966 192 192 192 255 0.376101 0.848937
250 13.82288 41.2522 0.6666667 -0.3333333 0.6666667 192 192 192 255 0.376101 0.89775
-250 109.3134 67.08521 -0.4364358 0.8728716 0.2182179 192 192 192 255 0.403259 0.833653
250 109.3134 67.08521 0.3333333 0.6666667 0.6666667 192 192 192 255 0.403259 0.913034
-250 109.3134 -67.08521 -0.4082483 0.4082483 -0.8164966 192 192 192 255 0.403259 0.913034
250 109.3134 -67.08521 0.6666667 0.6666667 -0.3333333 192 192 192 255 0.403259 0.833653
-250 13.82288 -41.25269 -0.00179836 -0.00179836 -0.9999968 192 192 192 255 0.376101 0.89775
250 13.82288 -41.25269 0.4082483 -0.8164966 -0.4082483 192 192 192 255 0.376101 0.848937
-250 32.97708 41.2522 -0.7244468 -0.2854488 0.627452 192 192 192 255 0.11412 0.598642
250 32.97708 41.2522 0.7282618 -0.3306346 0.6002629 192 192 192 255 0.114119 0.662987
250 32.97708 -41.25269 0.7362484 -0.186328 -0.6505537 192 192 192 255 0.114119 0.598642
-250 32.97708 -41.25269 -0.002700815 -0.0006835159 -0.9999961 192 192 192 255 0.11412 0.662987
-250 36.66122 -45.55054 -0.7147093 -0.4593703 -0.527418 192 192 192 255 0.116993 0.666338
250 36.66122 -45.55054 0.7147598 -0.4572385 -0.5291989 192 192 192 255 0.116993 0.59529
250 36.66122 45.55005 0.7102053 -0.3590144 0.6055717 192 192 192 255 0.116993 0.666338
-250 36.66122 45.55005 -0.000967693 -0.4097942 0.9121775 192 192 192 255 0.116993 0.59529
-250 84.60297 -67.08521 -0.4012752 -0.2192291 -0.8893351 192 192 192 255 0.38864 0.913034
250 84.60297 -67.08521 0.5213686 -0.1388412 -0.8419607 192 192 192 255 0.38864 0.833653
250 84.60297 67.08521 0.000892652 -0.0001240593 0.9999996 192 192 192 255 0.38864 0.913034
-250 84.60297 67.08521 -0.7141079 -0.09753694 0.6932074 192 192 192 255 0.38864 0.833653
-52.74707 13.82288 41.2522 -0.6903952 -0.645371 0.3268801 192 192 192 255 0.147729 0.553896
-52.74707 13.82288 -41.25269 -0.7960852 -0.3764961 -0.4738133 192 192 192 255 0.083384 0.553896
-52.74707 32.97708 -41.25269 -0.6067212 -0.3038425 -0.7345538 192 192 192 255 0.090571 0.662987
-55.01855 38.86606 -45.55054 -0.3770582 -0.4890079 -0.7865738 192 192 192 255 0.095164 0.666339
-52.74707 84.60297 -67.08521 -0.6213459 -0.1160891 -0.7748888 192 192 192 255 0.130834 0.683133
-52.74707 109.3134 -67.08521 -0.5911961 0.7266223 -0.3500105 192 192 192 255 0.150105 0.683133
-54.85254 109.3134 67.08521 -0.8279256 0.3480314 0.4397878 192 192 192 255 0.150105 0.578495
-52.74707 84.60297 67.08521 -0.5259899 -0.1945168 0.827948 192 192 192 255 0.130834 0.578495
-52.74707 36.66122 45.55005 -0.0009280329 -0.409903 0.9121287 192 192 192 255 0.360275 0.814992
-52.74707 28.69156 41.2522 -0.5971123 -0.1690089 0.7841511 192 192 192 255 0.112449 0.553896
52.23242 32.97708 -41.25269 0.6158241 -0.3836084 -0.6881899 192 192 192 255 0.376101 0.931848
52.23242 13.82288 -41.25269 0.7035397 -0.4091357 -0.5810679 192 192 192 255 0.387434 0.931848
52.23242 13.82288 41.2522 0.7005804 -0.5791 0.4169298 192 192 192 255 0.147729 0.707933
52.23242 32.97708 41.2522 0.6189257 -0.2333384 0.7499895 192 192 192 255 0.120843 0.707933
52.23242 38.57346 45.55005 0.6093085 -0.4635681 0.6433101 192 192 192 255 0.125208 0.707933
52.23242 84.60297 67.08521 0.0008678079 -0.0002811711 0.9999996 192 192 192 255 0.38864 0.931848
52.23242 109.3134 67.08521 0.7289528 0.5220902 0.4427751 192 192 192 255 0.403259 0.931848
52.23242 109.3134 -67.08521 0.7349271 0.569285 -0.3685061 192 192 192 255 0.150105 0.578495
53.62988 87.8075 -67.08521 0.4517152 -0.09976636 -0.8865665 192 192 192 255 0.372999 0.931021
52.23242 36.66122 -45.55054 0.6037263 -0.4529988 -0.6559775 192 192 192 255 0.403259 0.931848
-48.07715 28.29852 59.60522 -0.6116132 -0.5210982 0.5953034 192 192 192 255 0.117596 0.668109
-48.07715 24.37076 54.37378 -0.6147983 -0.2766093 0.7385868 192 192 192 255 0.113516 0.668109
47.56348 24.37076 54.37378 0.6201985 -0.4051105 0.6717435 192 192 192 255 0.113516 0.593519
47.56348 28.29852 59.60522 0.6147341 -0.4612109 0.6398332 192 192 192 255 0.117596 0.593519
-48.07715 124.3616 -88.64673 -0.2142086 0.9650989 -0.1506614 192 192 192 255 0.105465 0.645104
-48.07715 130.0275 88.64673 -0.5789969 0.4981475 0.6454546 192 192 192 255 0.284614 0.661524
47.56348 120.0834 88.64673 0.2338156 0.9423808 0.2392669 192 192 192 255 0.28458 0.661527
47.56348 130.0275 -88.64673 0.7400329 0.3862427 -0.5506068 192 192 192 255 0.284585 0.661491
-48.07715 24.37076 -54.37427 -0.6105676 -0.4388603 -0.6592487 192 192 192 255 0.117596 0.668109
-48.07715 28.29852 -59.6062 -0.5853884 -0.5203394 -0.6217454 192 192 192 255 0.113516 0.668109
47.56348 28.29852 -59.6062 0.6053025 -0.5332376 -0.5909878 192 192 192 255 0.113516 0.593519
47.56348 24.37076 -54.37427 0.6233325 -0.2970359 -0.7233438 192 192 192 255 0.117596 0.593519
-48.07715 0 53.28931 -0.6958083 -0.5866967 0.414292 192 192 192 255 0.078262 0.672374
-48.07715 0 -53.28979 -0.6972781 -0.4274035 -0.5754384 192 192 192 255 0.078262 0.589254
47.56348 0 -53.28979 0.696182 -0.5864108 -0.4140688 192 192 192 255 0.152851 0.589254
47.56348 0 53.28931 0.6973014 -0.4273782 0.5754292 192 192 192 255 0.152851 0.672374
-48.07715 89.55792 -88.64673 -0.5193108 -0.1206999 -0.8460189 192 192 192 255 0.284617 0.661502
47.56348 87.29767 -88.64673 0.621138 -0.2055849 -0.7562556 192 192 192 255 0.284586 0.661503
-48.07715 85.87054 88.64673 -0.6114392 -0.222941 0.7592362 192 192 192 255 0.284614 0.661537
47.56348 89.55792 88.64673 0.6248893 -0.1418537 0.7677181 192 192 192 255 0.28458 0.661536
7.193359 130.0275 88.64673 0.2320088 0.9430723 0.2382993 192 192 192 255 0.284594 0.661524
47.56348 130.0275 49.24438 0.233039 0.942974 0.2376824 192 192 192 255 0.16626 0.669219
-48.07715 130.0275 -52.00024 -0.2130353 0.9655959 -0.149133 192 192 192 255 0.105465 0.616524
-22.19727 130.0275 -88.64673 -0.2105739 0.9658868 -0.1507364 192 192 192 255 0.125648 0.645104
-117.0752 109.3134 67.08521 0.6985634 0.6387519 0.3224983 192 192 192 255 0.118575 0.645762
-107.2725 101.5735 61.04565 -0.001606124 0.9715399 0.2368705 192 192 192 255 0.119978 0.620576
-109.4131 82.49481 61.04565 0.0008222986 -0.2748755 0.9614795 192 192 192 255 0.105099 0.620576
-117.4219 84.60297 67.08521 0.5581319 -0.1773301 0.8105819 192 192 192 255 0.38864 0.853256
-99.78711 109.3134 28.7522 0 0.972853 0.231424 192 192 192 255 0.126014 0.645762
-106.3008 51.01508 51.99731 -6.155312e-09 -0.3927944 0.9196263 192 192 192 255 0.368767 0.846677
-204.5625 109.3134 -67.08521 0.1461471 0.6612344 -0.7358057 192 192 192 255 0.360275 0.904813
-150.1494 109.3134 -67.08521 -0.2958559 0.8164703 -0.4958282 192 192 192 255 0.421458 0.872619
-163.5723 109.3134 -58.91724 0 0.7386784 -0.6740581 192 192 192 255 0.112623 0.61483
-170.7812 101.7928 -67.08521 0 0.7323697 -0.6809072 192 192 192 255 0.364725 0.884826
-152.6416 84.60297 -67.08521 0.03552463 -0.1978272 -0.979593 192 192 192 255 0.374895 0.874094
-90.83301 84.60297 -67.08521 -0.05530684 -0.2210087 -0.9737024 192 192 192 255 0.374895 0.837525
-116.5283 91.11627 -67.08521 0 -0.2052398 -0.9787117 192 192 192 255 0.371041 0.852728
-113.332 78.81445 -64.48511 1.061754e-05 -0.2078833 -0.9781536 192 192 192 255 0.37832 0.850836
-213.2607 36.66122 -45.55054 0.05254186 -0.6123981 -0.7888016 192 192 192 255 0.11388 0.624762
-166.7471 36.66122 -45.55054 -0.05081176 -0.5887253 -0.8067346 192 192 192 255 0.116069 0.65713
-192.043 32.97708 -41.25269 7.668862e-06 -0.1983907 -0.980123 192 192 192 255 0.376101 0.897406
-188.8721 41.66132 -47.79614 2.571393e-05 -0.6004134 -0.7996898 192 192 192 255 0.400301 0.895529
92.21973 109.3134 -67.08521 0.193665 0.8580953 -0.4755695 192 192 192 255 0.120595 0.655925
156.6162 109.3134 -67.08521 -0.1740418 0.8769659 -0.4479289 192 192 192 255 0.120595 0.605703
123.6553 109.3134 -54.16431 0 0.8860656 -0.4635599 192 192 192 255 0.110518 0.631409
122.3457 102.4967 -67.08521 0 0.8831438 -0.4691024 192 192 192 255 0.120595 0.63243
172.4434 109.3134 -67.08521 0.3612511 0.8337051 -0.4176522 192 192 192 255 0.120149 0.644605
207.8096 109.3134 -67.08521 -0.2014734 0.9020182 -0.3818004 192 192 192 255 0.360275 0.839801
185.8701 109.3134 -55.30688 0 0.9155157 -0.4022822 192 192 192 255 0.414489 0.852782
184.3896 104.0634 -67.08521 0 0.90927 -0.4162069 192 192 192 255 0.363381 0.853657
116.3613 109.3134 67.08521 0.1340338 0.7810103 0.6099656 192 192 192 255 0.403259 0.893906
184.625 109.3134 67.08521 -0.2795565 0.8502358 0.4460351 192 192 192 255 0.342077 0.853518
166.9668 109.3134 55.93677 0 0.8225586 0.5686803 192 192 192 255 0.348672 0.863966
161.2705 101.5754 67.08521 0 0.1920545 0.9813843 192 192 192 255 0.398681 0.867336
-103.2158 84.60297 67.08521 -0.6199586 -0.2700432 0.7367008 192 192 192 255 0.106743 0.615866
-100.625 109.3134 67.08521 -0.7503822 0.6609352 -0.009560073 192 192 192 255 0.126014 0.615866
-48.07715 24.37076 54.37378 -0.6147983 -0.2766093 0.7385868 192 192 192 255 0.284615 0.661547
-48.07715 0 53.28931 -0.6958083 -0.5866967 0.414292 192 192 192 255 0.284615 0.661554
47.56348 0 53.28931 0.6973014 -0.4273782 0.5754292 192 192 192 255 0.284583 0.661554
47.56348 24.37076 54.37378 0.6201985 -0.4051105 0.6717435 192 192 192 255 0.284582 0.661547
250 32.97708 -41.25269 0.7362484 -0.186328 -0.6505537 192 192 192 255 0.387433 0.848937
250 32.97708 41.2522 0.7282618 -0.3306346 0.6002629 192 192 192 255 0.387433 0.89775
-48.07715 0 -53.28979 -0.6972781 -0.4274035 -0.5754384 192 192 192 255 0.284617 0.661533
-48.07715 24.37076 -54.37427 -0.6105676 -0.4388603 -0.6592487 192 192 192 255 0.284617 0.661526
47.56348 24.37076 -54.37427 0.6233325 -0.2970359 -0.7233438 192 192 192 255 0.284585 0.661526
47.56348 0 -53.28979 0.696182 -0.5864108 -0.4140688 192 192 192 255 0.284586 0.661533
-250 32.97708 41.2522 -0.7244468 -0.2854488 0.627452 192 192 192 255 0.387433 0.848937
-250 32.97708 -41.25269 -0.002700815 -0.0006835159 -0.9999961 192 192 192 255 0.387433 0.89775
-48.07715 28.29852 -59.6062 -0.5853884 -0.5203394 -0.6217454 192 192 192 255 0.284617 0.661524
47.56348 28.29852 -59.6062 0.6053025 -0.5332376 -0.5909878 192 192 192 255 0.284586 0.661524
250 36.66122 45.55005 0.7102053 -0.3590144 0.6055717 192 192 192 255 0.360275 0.900293
250 36.66122 -45.55054 0.7147598 -0.4572385 -0.5291989 192 192 192 255 0.360275 0.846394
-48.07715 28.29852 59.60522 -0.6116132 -0.5210982 0.5953034 192 192 192 255 0.284615 0.661547
47.56348 28.29852 59.60522 0.6147341 -0.4612109 0.6398332 192 192 192 255 0.284582 0.661547
-250 36.66122 -45.55054 -0.7147093 -0.4593703 -0.527418 192 192 192 255 0.360275 0.900293
-250 36.66122 45.55005 -0.000967693 -0.4097942 0.9121775 192 192 192 255 0.360275 0.846394
-48.07715 124.3616 -88.64673 -0.2142086 0.9650989 -0.1506614 192 192 192 255 0.284617 0.661493
-22.19727 130.0275 -88.64673 -0.2105739 0.9658868 -0.1507364 192 192 192 255 0.284608 0.661491
-250 13.82288 -41.25269 -0.00179836 -0.00179836 -0.9999968 192 192 192 255 0.083384 0.707732
-250 13.82288 41.2522 -0.4082483 -0.4082483 0.8164966 192 192 192 255 0.147729 0.707732
-250 32.97708 -41.25269 -0.002700815 -0.0006835159 -0.9999961 192 192 192 255 0.376101 0.931695
-250 13.82288 -41.25269 -0.00179836 -0.00179836 -0.9999968 192 192 192 255 0.387434 0.931695
-250 36.66122 -45.55054 -0.7147093 -0.4593703 -0.527418 192 192 192 255 0.11388 0.653414
-192.043 32.97708 -41.25269 7.668862e-06 -0.1983907 -0.980123 192 192 192 255 0.117232 0.608214
-250 32.97708 -41.25269 -0.002700815 -0.0006835159 -0.9999961 192 192 192 255 0.117232 0.653414
-250 84.60297 -67.08521 -0.4012752 -0.2192291 -0.8893351 192 192 192 255 0.374895 0.931695
-250 109.3134 -67.08521 -0.4082483 0.4082483 -0.8164966 192 192 192 255 0.360275 0.931695
-250 36.66122 45.55005 -0.000967693 -0.4097942 0.9121775 192 192 192 255 0.360275 0.931695
-250 32.97708 41.2522 -0.7244468 -0.2854488 0.627452 192 192 192 255 0.115791 0.707732
-52.74707 36.66122 45.55005 -0.0009280329 -0.409903 0.9121287 192 192 192 255 0.118664 0.553896
-250 36.66122 45.55005 -0.000967693 -0.4097942 0.9121775 192 192 192 255 0.118664 0.707732
-250 13.82288 41.2522 -0.4082483 -0.4082483 0.8164966 192 192 192 255 0.376101 0.931695
-52.74707 13.82288 41.2522 -0.6903952 -0.645371 0.3268801 192 192 192 255 0.376101 0.814992
-52.74707 28.69156 41.2522 -0.5971123 -0.1690089 0.7841511 192 192 192 255 0.384898 0.814992
-250 32.97708 41.2522 -0.7244468 -0.2854488 0.627452 192 192 192 255 0.387433 0.931695
250 32.97708 -41.25269 0.7362484 -0.186328 -0.6505537 192 192 192 255 0.376101 0.814839
250 13.82288 -41.25269 0.4082483 -0.8164966 -0.4082483 192 192 192 255 0.387434 0.814839
52.23242 13.82288 -41.25269 0.7035397 -0.4091357 -0.5810679 192 192 192 255 0.083384 0.707933
250 13.82288 -41.25269 0.4082483 -0.8164966 -0.4082483 192 192 192 255 0.083384 0.553696
250 13.82288 41.2522 0.6666667 -0.3333333 0.6666667 192 192 192 255 0.147729 0.553696
52.23242 13.82288 41.2522 0.7005804 -0.5791 0.4169298 192 192 192 255 0.105905 0.707933
250 13.82288 41.2522 0.6666667 -0.3333333 0.6666667 192 192 192 255 0.105905 0.553696
250 32.97708 41.2522 0.7282618 -0.3306346 0.6002629 192 192 192 255 0.120843 0.553696
250 36.66122 45.55005 0.7102053 -0.3590144 0.6055717 192 192 192 255 0.123716 0.553696
52.23242 38.57346 45.55005 0.6093085 -0.4635681 0.6433101 192 192 192 255 0.361406 0.931848
250 36.66122 45.55005 0.7102053 -0.3590144 0.6055717 192 192 192 255 0.360275 0.814839
250 84.60297 67.08521 0.000892652 -0.0001240593 0.9999996 192 192 192 255 0.38864 0.814839
250 109.3134 67.08521 0.3333333 0.6666667 0.6666667 192 192 192 255 0.342077 0.814839
250 84.60297 -67.08521 0.5213686 -0.1388412 -0.8419607 192 192 192 255 0.374895 0.814839
250 109.3134 -67.08521 0.6666667 0.6666667 -0.3333333 192 192 192 255 0.360275 0.814839
250 36.66122 -45.55054 0.7147598 -0.4572385 -0.5291989 192 192 192 255 0.403259 0.814839
52.23242 32.97708 -41.25269 0.6158241 -0.3836084 -0.6881899 192 192 192 255 0.117232 0.707933
52.23242 36.66122 -45.55054 0.6037263 -0.4529988 -0.6559775 192 192 192 255 0.11388 0.707933
250 36.66122 -45.55054 0.7147598 -0.4572385 -0.5291989 192 192 192 255 0.11388 0.553696
250 32.97708 -41.25269 0.7362484 -0.186328 -0.6505537 192 192 192 255 0.117232 0.553696
-52.74707 36.66122 45.55005 -0.0009280329 -0.409903 0.9121287 192 192 192 255 0.093444 0.59529
-52.74707 28.69156 41.2522 -0.5971123 -0.1690089 0.7841511 192 192 192 255 0.087229 0.598642
-48.07715 24.37076 54.37378 -0.6147983 -0.2766093 0.7385868 192 192 192 255 0.083859 0.588409
-48.07715 28.29852 59.60522 -0.6116132 -0.5210982 0.5953034 192 192 192 255 0.086922 0.584329
52.23242 32.97708 41.2522 0.6189257 -0.2333384 0.7499895 192 192 192 255 0.090571 0.662986
52.23242 38.57346 45.55005 0.6093085 -0.4635681 0.6433101 192 192 192 255 0.094936 0.666338
47.56348 28.29852 59.60522 0.6147341 -0.4612109 0.6398332 192 192 192 255 0.086922 0.677299
47.56348 24.37076 54.37378 0.6201985 -0.4051105 0.6717435 192 192 192 255 0.083859 0.67322
-48.07715 130.0275 88.64673 -0.5789969 0.4981475 0.6454546 192 192 192 255 0.16626 0.561679
-48.07715 130.0275 -52.00024 -0.2130353 0.9655959 -0.149133 192 192 192 255 0.16626 0.671368
-48.07715 124.3616 -88.64673 -0.2142086 0.9650989 -0.1506614 192 192 192 255 0.161841 0.699949
52.23242 109.3134 67.08521 0.7289528 0.5220902 0.4427751 192 192 192 255 0.150105 0.683133
47.56348 130.0275 -88.64673 0.7400329 0.3862427 -0.5506068 192 192 192 255 0.16626 0.561679
47.56348 120.0834 88.64673 0.2338156 0.9423808 0.2392669 192 192 192 255 0.158505 0.699949
-48.07715 28.29852 -59.6062 -0.5853884 -0.5203394 -0.6217454 192 192 192 255 0.086922 0.6773
-48.07715 24.37076 -54.37427 -0.6105676 -0.4388603 -0.6592487 192 192 192 255 0.083859 0.67322
52.23242 36.66122 -45.55054 0.6037263 -0.4529988 -0.6559775 192 192 192 255 0.093445 0.59529
52.23242 32.97708 -41.25269 0.6158241 -0.3836084 -0.6881899 192 192 192 255 0.090571 0.598641
47.56348 24.37076 -54.37427 0.6233325 -0.2970359 -0.7233438 192 192 192 255 0.083859 0.588408
47.56348 28.29852 -59.6062 0.6053025 -0.5332376 -0.5909878 192 192 192 255 0.086922 0.584328
-52.74707 13.82288 41.2522 -0.6903952 -0.645371 0.3268801 192 192 192 255 0.075633 0.598642
-52.74707 13.82288 -41.25269 -0.7960852 -0.3764961 -0.4738133 192 192 192 255 0.075633 0.662987
-48.07715 0 -53.28979 -0.6972781 -0.4274035 -0.5754384 192 192 192 255 0.064853 0.672374
-48.07715 0 53.28931 -0.6958083 -0.5866967 0.414292 192 192 192 255 0.064853 0.589254
52.23242 13.82288 -41.25269 0.7035397 -0.4091357 -0.5810679 192 192 192 255 0.075633 0.598641
52.23242 13.82288 41.2522 0.7005804 -0.5791 0.4169298 192 192 192 255 0.075633 0.662986
47.56348 0 53.28931 0.6973014 -0.4273782 0.5754292 192 192 192 255 0.064853 0.672374
47.56348 0 -53.28979 0.696182 -0.5864108 -0.4140688 192 192 192 255 0.064853 0.589254
-48.07715 89.55792 -88.64673 -0.5193108 -0.1206999 -0.8460189 192 192 192 255 0.134698 0.699949
53.62988 87.8075 -67.08521 0.4517152 -0.09976636 -0.8865665 192 192 192 255 0.133333 0.578495
47.56348 87.29767 -88.64673 0.621138 -0.2055849 -0.7562556 192 192 192 255 0.132936 0.561679
-48.07715 85.87054 88.64673 -0.6114392 -0.222941 0.7592362 192 192 192 255 0.131822 0.561679
52.23242 84.60297 67.08521 0.0008678079 -0.0002811711 0.9999996 192 192 192 255 0.130834 0.683133
47.56348 89.55792 88.64673 0.6248893 -0.1418537 0.7677181 192 192 192 255 0.134698 0.699949
47.56348 130.0275 49.24438 0.233039 0.942974 0.2376824 192 192 192 255 0.130921 0.615072
7.193359 130.0275 88.64673 0.2320088 0.9430723 0.2382993 192 192 192 255 0.100191 0.646556
47.56348 120.0834 88.64673 0.2338156 0.9423808 0.2392669 192 192 192 255 0.100191 0.615072
-48.07715 130.0275 -52.00024 -0.2130353 0.9655959 -0.149133 192 192 192 255 0.284616 0.661498
47.56348 130.0275 49.24438 0.233039 0.942974 0.2376824 192 192 192 255 0.284581 0.661516
-107.2725 101.5735 61.04565 -0.001606124 0.9715399 0.2368705 192 192 192 255 0.112538 0.641052
-99.78711 109.3134 28.7522 0 0.972853 0.231424 192 192 192 255 0.118575 0.615866
-250 84.60297 67.08521 -0.7141079 -0.09753694 0.6932074 192 192 192 255 0.38864 0.931695
-117.0752 109.3134 67.08521 0.6985634 0.6387519 0.3224983 192 192 192 255 0.403259 0.853051
-250 109.3134 67.08521 -0.4364358 0.8728716 0.2182179 192 192 192 255 0.403259 0.931695
-117.4219 84.60297 67.08521 0.5581319 -0.1773301 0.8105819 192 192 192 255 0.115146 0.629332
-106.3008 51.01508 51.99731 -6.155312e-09 -0.3927944 0.9196263 192 192 192 255 0.142639 0.631675
-109.4131 82.49481 61.04565 0.0008222986 -0.2748755 0.9614795 192 192 192 255 0.118197 0.635024
-117.0752 109.3134 67.08521 0.6985634 0.6387519 0.3224983 192 192 192 255 0.096466 0.634076
-107.2725 101.5735 61.04565 -0.001606124 0.9715399 0.2368705 192 192 192 255 0.104114 0.640108
-103.2158 84.60297 67.08521 -0.6199586 -0.2700432 0.7367008 192 192 192 255 0.117722 0.640107
-170.7812 101.7928 -67.08521 0 0.7323697 -0.6809072 192 192 192 255 0.118489 0.620453
-204.5625 109.3134 -67.08521 0.1461471 0.6612344 -0.7358057 192 192 192 255 0.112623 0.646798
-250 109.3134 67.08521 -0.4364358 0.8728716 0.2182179 192 192 192 255 0.342077 0.931695
-117.0752 109.3134 67.08521 0.6985634 0.6387519 0.3224983 192 192 192 255 0.342077 0.853051
-99.78711 109.3134 28.7522 0 0.972853 0.231424 192 192 192 255 0.364756 0.842823
-163.5723 109.3134 -58.91724 0 0.7386784 -0.6740581 192 192 192 255 0.416625 0.880561
-52.74707 109.3134 -67.08521 -0.5911961 0.7266223 -0.3500105 192 192 192 255 0.421458 0.814992
-204.5625 109.3134 -67.08521 0.1461471 0.6612344 -0.7358057 192 192 192 255 0.421458 0.904813
-250 109.3134 -67.08521 -0.4082483 0.4082483 -0.8164966 192 192 192 255 0.421458 0.931695
-150.1494 109.3134 -67.08521 -0.2958559 0.8164703 -0.4958282 192 192 192 255 0.118741 0.622769
-170.7812 101.7928 -67.08521 0 0.7323697 -0.6809072 192 192 192 255 0.118741 0.638859
-163.5723 109.3134 -58.91724 0 0.7386784 -0.6740581 192 192 192 255 0.112371 0.633237
-116.5283 91.11627 -67.08521 0 -0.2052398 -0.9787117 192 192 192 255 0.110633 0.627312
-113.332 78.81445 -64.48511 1.061754e-05 -0.2078833 -0.9781536 192 192 192 255 0.119888 0.623763
-152.6416 84.60297 -67.08521 0.03552463 -0.1978272 -0.979593 192 192 192 255 0.118828 0.654733
-52.74707 109.3134 -67.08521 -0.5911961 0.7266223 -0.3500105 192 192 192 255 0.360275 0.814992
-52.74707 84.60297 -67.08521 -0.6213459 -0.1160891 -0.7748888 192 192 192 255 0.374895 0.814992
-150.1494 109.3134 -67.08521 -0.2958559 0.8164703 -0.4958282 192 192 192 255 0.360275 0.87262
-90.83301 84.60297 -67.08521 -0.05530684 -0.2210087 -0.9737024 192 192 192 255 0.113441 0.606831
-55.01855 38.86606 -45.55054 -0.3770582 -0.4890079 -0.7865738 192 192 192 255 0.401955 0.816336
-213.2607 36.66122 -45.55054 0.05254186 -0.6123981 -0.7888016 192 192 192 255 0.116069 0.693406
-188.8721 41.66132 -47.79614 2.571393e-05 -0.6004134 -0.7996898 192 192 192 255 0.11217 0.674386
-192.043 32.97708 -41.25269 7.668862e-06 -0.1983907 -0.980123 192 192 192 255 0.118943 0.676858
-55.01855 38.86606 -45.55054 -0.3770582 -0.4890079 -0.7865738 192 192 192 255 0.114349 0.569994
-52.74707 32.97708 -41.25269 -0.6067212 -0.3038425 -0.7345538 192 192 192 255 0.118943 0.568222
-166.7471 36.66122 -45.55054 -0.05081176 -0.5887253 -0.8067346 192 192 192 255 0.403259 0.88244
-52.74707 32.97708 -41.25269 -0.6067212 -0.3038425 -0.7345538 192 192 192 255 0.376101 0.814992
-52.74707 13.82288 -41.25269 -0.7960852 -0.3764961 -0.4738133 192 192 192 255 0.387434 0.814992
-213.2607 36.66122 -45.55054 0.05254186 -0.6123981 -0.7888016 192 192 192 255 0.403259 0.909959
-250 36.66122 -45.55054 -0.7147093 -0.4593703 -0.527418 192 192 192 255 0.403259 0.931695
184.3896 104.0634 -67.08521 0 0.90927 -0.4162069 192 192 192 255 0.120149 0.635288
185.8701 109.3134 -55.30688 0 0.9155157 -0.4022822 192 192 192 255 0.110963 0.634133
207.8096 109.3134 -67.08521 -0.2014734 0.9020182 -0.3818004 192 192 192 255 0.120149 0.617023
161.2705 101.5754 67.08521 0 0.1920545 0.9813843 192 192 192 255 0.111209 0.622409
166.9668 109.3134 55.93677 0 0.8225586 0.5686803 192 192 192 255 0.119904 0.617966
116.3613 109.3134 67.08521 0.1340338 0.7810103 0.6099656 192 192 192 255 0.111209 0.657433
250 109.3134 67.08521 0.3333333 0.6666667 0.6666667 192 192 192 255 0.403259 0.814839
184.625 109.3134 67.08521 -0.2795565 0.8502358 0.4460351 192 192 192 255 0.403259 0.853518
184.625 109.3134 67.08521 -0.2795565 0.8502358 0.4460351 192 192 192 255 0.111209 0.604195
250 109.3134 -67.08521 0.6666667 0.6666667 -0.3333333 192 192 192 255 0.421458 0.814839
207.8096 109.3134 -67.08521 -0.2014734 0.9020182 -0.3818004 192 192 192 255 0.421458 0.839801
123.6553 109.3134 -54.16431 0 0.8860656 -0.4635599 192 192 192 255 0.413813 0.889591
52.23242 109.3134 67.08521 0.7289528 0.5220902 0.4427751 192 192 192 255 0.342077 0.931848
116.3613 109.3134 67.08521 0.1340338 0.7810103 0.6099656 192 192 192 255 0.342077 0.893906
172.4434 109.3134 -67.08521 0.3612511 0.8337051 -0.4176522 192 192 192 255 0.421458 0.860725
156.6162 109.3134 -67.08521 -0.1740418 0.8769659 -0.4479289 192 192 192 255 0.421458 0.870089
52.23242 109.3134 -67.08521 0.7349271 0.569285 -0.3685061 192 192 192 255 0.421458 0.931848
92.21973 109.3134 -67.08521 0.193665 0.8580953 -0.4755695 192 192 192 255 0.421458 0.90819
122.3457 102.4967 -67.08521 0 0.8831438 -0.4691024 192 192 192 255 0.364308 0.890365
156.6162 109.3134 -67.08521 -0.1740418 0.8769659 -0.4479289 192 192 192 255 0.360275 0.870089
172.4434 109.3134 -67.08521 0.3612511 0.8337051 -0.4176522 192 192 192 255 0.360275 0.860725
52.23242 109.3134 -67.08521 0.7349271 0.569285 -0.3685061 192 192 192 255 0.360275 0.931848
92.21973 109.3134 -67.08521 0.193665 0.8580953 -0.4755695 192 192 192 255 0.360275 0.90819
-52.74707 84.60297 67.08521 -0.5259899 -0.1945168 0.827948 192 192 192 255 0.38864 0.814992
-103.2158 84.60297 67.08521 -0.6199586 -0.2700432 0.7367008 192 192 192 255 0.38864 0.844851
-100.625 109.3134 67.08521 -0.7503822 0.6609352 -0.009560073 192 192 192 255 0.403259 0.843318
-54.85254 109.3134 67.08521 -0.8279256 0.3480314 0.4397878 192 192 192 255 0.403259 0.816237
-100.625 109.3134 67.08521 -0.7503822 0.6609352 -0.009560073 192 192 192 255 0.342077 0.843319
-54.85254 109.3134 67.08521 -0.8279256 0.3480314 0.4397878 192 192 192 255 0.342077 0.816237
3 40 41 42 
3 40 42 43 
3 44 62 63 
3 48 49 50 
3 48 50 51 
3 52 53 54 
3 52 54 55 
3 9 10 13 
3 9 13 14 
3 11 8 15 
3 11 15 12 
3 96 97 98 
3 96 98 99 
3 1 7 100 
3 1 100 101 
3 102 103 104 
3 102 104 105 
3 6 0 106 
3 6 106 107 
3 108 56 57 
3 108 57 109 
3 110 111 17 
3 110 17 18 
3 58 112 113 
3 58 113 59 
3 114 115 19 
3 114 19 16 
3 56 116 117 
3 56 117 47 
3 56 47 57 
3 18 17 5 
3 18 5 3 
3 45 58 59 
3 45 59 46 
3 45 46 60 
3 16 19 2 
3 16 2 4 
3 118 21 20 
3 118 20 119 
3 120 80 121 
3 122 78 123 
3 122 123 124 
3 125 74 77 
3 125 77 81 
3 126 70 73 
3 126 73 125 
3 95 68 65 
3 65 66 94 
3 65 94 95 
3 127 28 69 
3 128 29 129 
3 128 129 130 
3 131 132 133 
3 131 133 134 
3 31 30 135 
3 31 135 136 
3 32 137 138 
3 32 138 139 
3 33 140 141 
3 33 141 142 
3 34 33 142 
3 34 142 143 
3 35 144 145 
3 35 145 146 
3 36 35 93 
3 36 93 90 
3 88 92 91 
3 88 91 147 
3 148 89 87 
3 148 87 149 
3 39 38 148 
3 39 148 150 
3 151 152 153 
3 151 153 154 
3 155 156 157 
3 155 157 158 
3 159 160 161 
3 159 161 162 
3 25 26 163 
3 25 163 164 
3 25 164 165 
3 166 37 167 
3 166 167 61 
3 166 61 168 
3 22 23 169 
3 22 169 170 
3 171 172 173 
3 171 173 174 
3 175 176 177 
3 175 177 178 
3 179 180 181 
3 179 181 182 
3 156 175 178 
3 156 178 157 
3 180 159 162 
3 180 162 181 
3 176 22 170 
3 176 170 177 
3 172 179 182 
3 172 182 173 
3 23 24 183 
3 23 183 169 
3 184 171 174 
3 184 174 185 
3 27 155 158 
3 27 158 186 
3 160 187 188 
3 160 188 161 
3 24 25 165 
3 24 165 183 
3 37 184 185 
3 37 185 167 
3 26 27 186 
3 26 186 163 
3 187 166 168 
3 187 168 188 
3 189 190 191 
3 117 192 45 
3 117 45 60 
3 117 60 193 
3 117 193 47 
3 194 195 64 
3 196 67 197 
3 196 197 198 
3 199 200 201 
3 202 199 201 
3 202 201 203 
3 200 204 201 
3 127 69 67 
3 127 67 196 
3 72 205 206 
3 207 208 209 
3 207 209 210 
3 210 209 211 
3 210 211 71 
3 207 210 212 
3 207 212 213 
3 214 215 216 
3 125 73 76 
3 125 76 74 
3 217 218 219 
3 76 220 221 
3 76 221 75 
3 76 73 222 
3 76 222 220 
3 223 218 217 
3 224 77 75 
3 224 75 221 
3 225 226 227 
3 227 79 228 
3 227 228 229 
3 81 77 224 
3 81 224 230 
3 227 226 79 
3 121 80 231 
3 121 231 232 
3 125 81 233 
3 125 233 234 
3 85 84 83 
3 82 84 85 
3 235 236 237 
3 86 236 235 
3 238 239 240 
3 93 146 241 
3 93 241 242 
3 93 35 146 
3 243 239 238 
3 88 147 244 
3 88 244 245 
3 246 247 248 
3 246 248 92 
3 246 92 88 
3 246 88 249 
3 246 249 250 
3 251 247 246 
3 251 246 252 
3 89 253 254 
3 89 254 255 
3 38 256 257 
3 38 257 253 
3 38 253 89 
3 38 89 148 
3 69 28 258 
3 69 258 259 
3 260 259 258 
3 260 258 261 
3 211 209 262 
3 211 262 263 
