ply
format ascii 1.0
comment VCGLIB generated
comment TextureFile Dungeons_2_Texture_01_A.png
element vertex 307
property float x
property float y
property float z
property float nx
property float ny
property float nz
property uchar red
property uchar green
property uchar blue
property uchar alpha
property float texture_u
property float texture_v
element face 266
property list uchar int vertex_indices
end_header
-38.40674 0 38.40686 -0.6666667 -0.3333333 0.6666667 192 192 192 255 0.41431 0.662146
38.40698 0 38.40686 0.001002039 -0.0006680259 0.9999993 192 192 192 255 0.349189 0.662146
-40.5708 314.799 40.57056 -0.5644614 0.4963136 0.6595879 192 192 192 255 0.41442 0.667307
40.57031 328.4171 40.57056 0.9999995 0.0004428257 0.0008856512 192 192 192 255 0.349189 0.67062
-40.5708 328.4171 -40.57068 -0.0002312301 0.8666429 -0.498929 192 192 192 255 0.479432 0.67062
40.57031 324.3688 -40.57068 0.3092642 0.9249315 -0.2210371 192 192 192 255 0.414311 0.669289
-38.40674 0 -38.40686 -0.5773503 -0.5773503 -0.5773503 192 192 192 255 0.357338 0.648168
38.40698 0 -38.40686 0.0002975762 -0.0002975762 -0.9999999 192 192 192 255 0.42246 0.648168
-38.40674 52.75854 38.40686 -0.306701 0.7300559 0.6106987 192 192 192 255 0.41431 0.629025
38.40698 52.75854 38.40686 0.351623 0.8119889 0.4658705 192 192 192 255 0.479541 0.629025
38.40698 46.09015 -38.40686 0.02340862 0.04087169 -0.9988902 192 192 192 255 0.41442 0.6286
-38.40674 52.75854 -38.40686 -0.7159184 0.4677988 -0.5182905 192 192 192 255 0.349299 0.629025
-29.55127 54.87659 -29.55139 -0.6054901 0.7292536 -0.318702 192 192 192 255 0.349299 0.629279
29.55127 54.87659 -29.55139 0.3710281 0.7371822 -0.5647129 192 192 192 255 0.41442 0.629279
29.55127 54.87671 29.55151 0.01006254 0.9570525 0.2897402 192 192 192 255 0.479541 0.629279
-29.55127 54.87671 29.55151 -0.00666946 0.956123 0.2928897 192 192 192 255 0.41431 0.629279
-29.55127 67.66718 -29.55139 -0.6658621 0.6684317 -0.3314012 192 192 192 255 0.349299 0.617805
29.55127 70.62122 -29.55139 0.5217647 0.5976289 -0.6087703 192 192 192 255 0.41442 0.616848
29.55127 70.62134 29.55151 0.4424273 0.6755623 0.5898082 192 192 192 255 0.479541 0.616848
-29.55127 70.62134 29.55151 -0.5655425 0.7402424 0.3635972 192 192 192 255 0.41431 0.616848
-22.31738 73.78082 -22.31702 -0.3030778 0.9421692 -0.1430421 192 192 192 255 0.349299 0.580514
22.31689 73.78082 -22.31702 0.4424272 0.6755632 -0.5898072 192 192 192 255 0.41442 0.580514
22.31689 73.78088 22.3175 0.5898055 0.6755606 0.4424335 192 192 192 255 0.479542 0.580514
-22.31738 73.78088 22.3175 -0.4206458 0.5505862 0.7210493 192 192 192 255 0.41431 0.580514
-40.5708 299.4359 -40.57068 -0.001095398 -0.001295553 -0.9999986 192 192 192 255 0.479432 0.651564
40.57031 299.4359 -40.57068 0.4854023 -0.7858059 -0.3832672 192 192 192 255 0.414311 0.651564
40.57031 299.4359 40.57056 0.9999979 -0.00123807 0.001650662 192 192 192 255 0.349189 0.651564
-40.5708 302.5243 40.57043 -0.4546583 -0.8466527 0.2765229 192 192 192 255 0.363569 0.905135
33.53271 296.6919 33.53271 0.4266219 -0.6906471 0.5839524 192 192 192 255 0.34919 0.649297
33.53271 296.6919 -33.53271 0.5839553 -0.6906495 -0.426614 192 192 192 255 0.414311 0.649297
-33.53271 296.6919 -33.53271 -0.426612 -0.6906533 -0.5839522 192 192 192 255 0.479432 0.649297
-33.53271 296.6919 33.53271 -0.4530171 -0.852479 0.2608736 192 192 192 255 0.41442 0.649297
33.53271 285.7017 33.53271 0.5896838 -0.6758823 0.4421042 192 192 192 255 0.34919 0.640217
33.53271 285.7018 -33.53271 0.4421015 -0.6758807 -0.5896878 192 192 192 255 0.414311 0.640217
-33.53271 285.7018 -33.53271 -0.5896831 -0.6758789 -0.4421103 192 192 192 255 0.479432 0.640217
-33.53271 285.7017 33.53271 -0.4421021 -0.6758829 0.5896846 192 192 192 255 0.41442 0.640217
26.07764 282.4531 26.07788 0.4421021 -0.6758829 0.5896846 192 192 192 255 0.349189 0.637533
26.07764 282.4531 -26.07788 0.5896831 -0.6758789 -0.4421103 192 192 192 255 0.414311 0.637533
-26.07764 282.4531 -26.07788 -0.4421015 -0.6758807 -0.5896878 192 192 192 255 0.479432 0.637533
-26.07764 282.4531 26.07788 -0.5896838 -0.6758823 0.4421042 192 192 192 255 0.414421 0.637533
26.07764 261.1161 26.07788 0.5592394 0.749504 0.3542528 192 192 192 255 0.349189 0.619906
26.07764 261.1162 -26.07788 0.3261141 0.9225871 -0.2061131 192 192 192 255 0.414311 0.619906
-26.07764 261.1162 -26.07788 -0.5592389 0.7495016 -0.3542586 192 192 192 255 0.479432 0.619906
-26.07764 261.1161 26.07788 -0.3542558 0.7495034 0.5592383 192 192 192 255 0.414421 0.619906
22.31689 99.13202 22.3175 0.3810408 -0.8768588 0.2931323 192 192 192 255 0.479542 0.570376
22.31689 99.13196 -22.31702 0.5775191 -0.7066914 -0.4087283 192 192 192 255 0.41442 0.570376
-22.31738 99.13196 -22.31702 -0.4087314 -0.7066894 -0.5775195 192 192 192 255 0.349299 0.570376
-22.31738 99.13202 22.3175 -0.577521 -0.7066881 0.4087315 192 192 192 255 0.41431 0.570376
34.62207 256.2588 -34.62231 0.3320097 0.9201782 -0.2074648 192 192 192 255 0.414311 0.617196
34.62207 259.4144 34.62231 0.3542553 0.7495037 0.5592384 192 192 192 255 0.34919 0.6185
-34.62207 259.4144 34.62231 -0.5592396 0.7495039 0.3542526 192 192 192 255 0.41442 0.6185
-34.62207 259.4144 -34.62231 -0.3049154 0.6451128 -0.7006112 192 192 192 255 0.349299 0.6185
34.28833 108.2944 34.28833 0.3847036 -0.8750957 0.2936164 192 192 192 255 0.34919 0.627308
34.28833 103.1965 -34.28833 0.5845295 -0.6282649 -0.5134282 192 192 192 255 0.414311 0.625657
-34.28833 103.1965 -34.28833 -0.7113624 -0.6083959 -0.3518777 192 192 192 255 0.479432 0.625657
-34.28833 103.1965 34.28833 -0.3027837 -0.5235111 0.7964033 192 192 192 255 0.41442 0.625657
31.61377 238.6061 -31.61377 0.6978588 0.5149565 -0.4978082 192 192 192 255 0.414311 0.602389
31.61377 231.8075 31.61377 0.7133024 0.0119391 0.7007548 192 192 192 255 0.347162 0.872669
-31.61377 238.606 31.61377 -0.5008188 0.3958961 0.7697057 192 192 192 255 0.41442 0.602389
-31.61377 238.6061 -31.61377 -0.7357969 0.2382741 -0.6338994 192 192 192 255 0.479432 0.602389
34.62207 243.8859 -34.62231 0.3688141 -0.7388949 -0.5639241 192 192 192 255 0.414311 0.605671
34.62207 243.8859 34.62231 0.703271 -0.6360866 0.317496 192 192 192 255 0.34919 0.605671
-34.62207 243.8859 34.62231 -0.3688221 -0.7388916 0.5639234 192 192 192 255 0.41442 0.605671
-34.62207 243.8859 -34.62231 -0.5639291 -0.7388933 -0.3688096 192 192 192 255 0.349299 0.605671
34.28833 118.0052 34.28833 0.3275585 0.7806965 0.5321828 192 192 192 255 0.34919 0.635252
34.28833 118.0052 -34.28833 0.5743404 0.714421 -0.3996696 192 192 192 255 0.414311 0.635252
-34.28833 118.0052 -34.28833 -0.3996786 0.7144163 -0.57434 192 192 192 255 0.479432 0.635252
-34.28833 111.6373 34.28833 -0.6847331 0.6803263 0.2613364 192 192 192 255 0.41442 0.633189
31.61377 126.2583 -31.61377 0.5380007 -0.5814607 -0.610294 192 192 192 255 0.401397 0.876412
31.61377 122.6788 31.61377 0.7036039 -0.0002607196 0.7105924 192 192 192 255 0.34919 0.637432
-31.61377 122.6788 31.61377 -0.6930298 -0.4626699 0.552853 192 192 192 255 0.41442 0.637432
-31.61377 122.6788 -31.61377 -0.5896816 -0.4266216 -0.6857622 192 192 192 255 0.479432 0.637432
28.30396 119.8898 28.30408 0.8413736 -0.2046254 0.500219 192 192 192 255 0.349189 0.636473
28.30396 119.8899 -28.30396 0.5363129 -0.5819029 -0.6113571 192 192 192 255 0.414311 0.636473
-28.30444 119.8899 -28.30396 -0.7578159 0.2705541 -0.5937303 192 192 192 255 0.479432 0.636473
-28.30444 119.8898 28.30408 -0.6814198 0.6829526 0.2631406 192 192 192 255 0.41442 0.636473
28.30396 242.4006 28.30408 0.8837039 0.3633277 0.2950601 192 192 192 255 0.349189 0.604444
28.30396 242.4006 -28.30396 0.4388928 -0.717333 -0.5411159 192 192 192 255 0.414311 0.604444
-28.30444 242.4006 -28.30396 -0.5222219 -0.4088726 -0.7484033 192 192 192 255 0.349299 0.604444
-28.30444 242.4006 28.30408 -0.7484288 -0.4088922 0.52217 192 192 192 255 0.41442 0.604444
15.75562 103.1965 34.28833 0.2375854 -0.8710713 0.4298698 192 192 192 255 0.461943 0.625657
34.28833 103.1965 10.04773 0.4791727 -0.8590495 0.1800763 192 192 192 255 0.372209 0.625657
-22.28125 118.0052 34.28821 -0.3673932 0.7019554 0.6101484 192 192 192 255 0.425823 0.635252
-34.28833 118.0052 2.753052 -0.757467 0.6400826 0.1286006 192 192 192 255 0.384474 0.635252
31.61377 122.6788 -20.01501 0.8395 -0.5208873 -0.1546491 192 192 192 255 0.402365 0.637432
18.4187 122.6788 -31.61377 0.133938 -0.5050334 -0.8526441 192 192 192 255 0.427901 0.637432
-30.396 158.949 -30.396 -0.7023765 -0.2865157 -0.6515951 192 192 192 255 0.479432 0.535095
-30.396 140.3121 -30.396 -0.5926763 0.4663646 -0.6566879 192 192 192 255 0.349299 0.51935
-25.29224 146.6175 -30.396 -0.6859567 0.001426122 -0.727641 192 192 192 255 0.473965 0.524677
-30.396 147.4091 -25.24146 -0.7315172 0.0007427512 -0.6818226 192 192 192 255 0.35206 0.525545
-30.396 188.4379 30.396 -0.721692 0.183651 0.6674076 192 192 192 255 0.390248 0.817496
-30.396 220.2686 30.396 -0.7059757 -0.2232227 0.6721385 192 192 192 255 0.390248 0.929191
-30.396 205.8248 25.56226 -0.7315459 -0.0001741795 0.6817922 192 192 192 255 0.373286 0.878508
-25.80347 206.1053 30.396 -0.04472033 -2.527771e-05 0.9989995 192 192 192 255 0.390248 0.879492
23.67285 238.606 31.61377 0.3041105 0.3666356 0.8792583 192 192 192 255 0.369086 0.868201
31.61377 238.606 7.525391 0.9420562 0.3230377 0.09042541 192 192 192 255 0.43499 0.872712
34.62207 259.4144 -18.32507 0.3559651 0.9176897 -0.1764498 192 192 192 255 0.398984 0.6185
24.59277 259.4144 -34.62231 0.285069 0.926748 -0.2446913 192 192 192 255 0.423743 0.6185
-40.5708 299.4359 22.4502 -0.5511895 -0.8228511 0.1382255 192 192 192 255 0.399877 0.651564
-30.19873 299.4359 40.57056 -0.2501925 -0.8509579 0.4618165 192 192 192 255 0.422745 0.651564
40.57031 319.8108 -40.57056 0.3866143 -0.393066 -0.8342832 192 192 192 255 0.393685 0.845809
40.57031 304.1168 -40.57068 0.4541906 0.3019894 -0.8381607 192 192 192 255 0.393685 0.900879
33.77759 313.7314 -40.57068 0.023046 3.737163e-07 -0.9997344 192 192 192 255 0.419762 0.660964
40.57031 313.0493 -37.24622 0.9989363 3.588876e-07 -0.04611221 192 192 192 255 0.412977 0.660574
30.39575 216.3981 -30.396 0.8091016 -0.2259626 -0.5424901 192 192 192 255 0.390817 0.921207
30.39575 189.1176 -30.396 0.7973421 0.1859837 -0.5741566 192 192 192 255 0.390817 0.82548
30.39575 204.5053 -25.23767 0.9993449 -5.15804e-06 -0.03618942 192 192 192 255 0.408785 0.573581
26.84399 203.9942 -30.396 0.8154467 -0.0001951569 -0.5788321 192 192 192 255 0.416213 0.573413
9.976318 52.75854 38.40686 0.196833 0.7401539 0.6429844 192 192 192 255 0.373292 0.629025
30.76367 52.75854 38.40686 -0.2598338 0.7874529 0.5589314 192 192 192 255 0.37237 0.836871
22.81104 53.82739 33.05029 -2.54689e-05 0.9058217 0.423659 192 192 192 255 0.360358 0.629089
21.59863 49.61981 38.40686 0 0.03610102 0.9993482 192 192 192 255 0.363439 0.628467
-38.40674 33.37842 38.40686 -0.807565 0.3604339 0.4668256 192 192 192 255 0.389047 0.85106
-38.40674 46.07935 38.40686 -0.7173476 -0.3213657 0.618172 192 192 192 255 0.389047 0.895627
-38.40674 38.42517 34.25757 -0.8205194 0 0.5716187 192 192 192 255 0.374487 0.868769
-35.35156 39.74164 38.40686 -0.01735744 0 0.9998494 192 192 192 255 0.413015 0.635184
38.40698 52.75854 -28.2074 0.5445662 0.7055128 -0.4535409 192 192 192 255 0.423067 0.629025
32.83203 53.8927 -32.83215 0.389302 0.7116447 -0.5848126 192 192 192 255 0.41442 0.629161
23.05518 52.75861 -38.40686 0.2928771 0.6895723 -0.6623541 192 192 192 255 0.401405 0.629025
-23.81055 70.62122 -29.55139 -0.1726647 0.825587 -0.5372084 192 192 192 255 0.355624 0.616848
-26.54639 71.93359 -26.54639 -0.4906431 0.8427221 -0.2215602 192 192 192 255 0.349299 0.581711
-29.55127 70.62128 -16.83838 -0.6068838 0.7911848 -0.07562172 192 192 192 255 0.465424 0.616848
-38.40674 32.16602 -38.40686 -0.8435377 -0.3327635 -0.4215596 192 192 192 255 0.349299 0.640314
-38.40674 14.70813 -38.40686 -0.8195698 0.4146183 -0.3954706 192 192 192 255 0.479432 0.652163
-34.48242 22.34167 -38.40686 -0.04112286 0 -0.9991541 192 192 192 255 0.352626 0.646982
-38.40674 22.17072 -30.3158 -0.9066727 0 -0.4218349 192 192 192 255 0.476002 0.646728
-28.34912 328.4172 40.57056 -0.4967424 0.7709925 0.3985193 192 192 192 255 0.422362 0.87562
-40.5708 328.4171 13.9895 -0.02961 0.9994765 0.0130382 192 192 192 255 0.319702 0.875629
40.57031 328.4171 -22.95801 0.3012651 0.9301367 -0.2099646 192 192 192 255 0.400175 0.67062
28.12305 328.4171 -40.5708 0.01796419 0.9997548 -0.01294755 192 192 192 255 0.424301 0.67062
-20.30566 328.4172 40.57056 0.4091757 0.6752673 0.6136687 192 192 192 255 0.420463 0.67062
8.068848 328.4172 40.57056 -0.1719117 0.8224224 0.5422803 192 192 192 255 0.443236 0.67062
-11.39136 328.4172 34.33105 -8.635221e-09 0.8151156 0.5792983 192 192 192 255 0.423388 0.67062
-13.18408 323.9077 40.57056 -1.378831e-08 0.8017934 0.5976014 192 192 192 255 0.37082 0.898138
-40.5708 324.1583 33.46643 -0.5003698 0.7705691 0.3947825 192 192 192 255 0.381795 0.847073
-38.40674 52.75854 -38.40686 -0.7159184 0.4677988 -0.5182905 192 192 192 255 0.479432 0.629025
-29.55127 54.87659 -29.55139 -0.6054901 0.7292536 -0.318702 192 192 192 255 0.479432 0.629279
38.40698 0 38.40686 0.001002039 -0.0006680259 0.9999993 192 192 192 255 0.479541 0.662146
38.40698 0 -38.40686 0.0002975762 -0.0002975762 -0.9999999 192 192 192 255 0.41442 0.662146
38.40698 52.75854 -28.2074 0.5445662 0.7055128 -0.4535409 192 192 192 255 0.423067 0.626337
38.40698 52.75854 38.40686 0.351623 0.8119889 0.4658705 192 192 192 255 0.479541 0.626337
-38.40674 52.75854 -38.40686 -0.7159184 0.4677988 -0.5182905 192 192 192 255 0.349299 0.626337
23.05518 52.75861 -38.40686 0.2928771 0.6895723 -0.6623541 192 192 192 255 0.401405 0.626337
-38.40674 0 -38.40686 -0.5773503 -0.5773503 -0.5773503 192 192 192 255 0.479432 0.662146
29.55127 54.87659 -29.55139 0.3710281 0.7371822 -0.5647129 192 192 192 255 0.41442 0.627049
-29.55127 54.87659 -29.55139 -0.6054901 0.7292536 -0.318702 192 192 192 255 0.349299 0.627049
29.55127 54.87671 29.55151 0.01006254 0.9570525 0.2897402 192 192 192 255 0.479541 0.627049
-29.55127 54.87671 29.55151 -0.00666946 0.956123 0.2928897 192 192 192 255 0.41431 0.627049
29.55127 54.87671 29.55151 0.01006254 0.9570525 0.2897402 192 192 192 255 0.349189 0.627049
29.55127 70.62134 29.55151 0.4424273 0.6755623 0.5898082 192 192 192 255 0.349189 0.616848
-29.55127 54.87659 -29.55139 -0.6054901 0.7292536 -0.318702 192 192 192 255 0.479432 0.627049
-29.55127 67.66718 -29.55139 -0.6658621 0.6684317 -0.3314012 192 192 192 255 0.479432 0.617805
29.55127 70.62122 -29.55139 0.5217647 0.5976289 -0.6087703 192 192 192 255 0.41442 0.582562
-23.81055 70.62122 -29.55139 -0.1726647 0.825587 -0.5372084 192 192 192 255 0.355624 0.582562
29.55127 70.62134 29.55151 0.4424273 0.6755623 0.5898082 192 192 192 255 0.479541 0.582562
-29.55127 70.62134 29.55151 -0.5655425 0.7402424 0.3635972 192 192 192 255 0.41431 0.582562
29.55127 70.62134 29.55151 0.4424273 0.6755623 0.5898082 192 192 192 255 0.349189 0.582562
22.31689 73.78088 22.3175 0.5898055 0.6755606 0.4424335 192 192 192 255 0.34919 0.580514
-22.31738 73.78082 -22.31702 -0.3030778 0.9421692 -0.1430421 192 192 192 255 0.479432 0.580514
-29.55127 70.62128 -16.83838 -0.6068838 0.7911848 -0.07562172 192 192 192 255 0.465424 0.582562
33.53271 296.6919 33.53271 0.4266219 -0.6906471 0.5839524 192 192 192 255 0.479542 0.649297
40.57031 299.4359 40.57056 0.9999979 -0.00123807 0.001650662 192 192 192 255 0.479542 0.651564
-33.53271 296.6919 -33.53271 -0.426612 -0.6906533 -0.5839522 192 192 192 255 0.349299 0.649297
-40.5708 299.4359 -40.57068 -0.001095398 -0.001295553 -0.9999986 192 192 192 255 0.349299 0.651564
-33.53271 285.7018 -33.53271 -0.5896831 -0.6758789 -0.4421103 192 192 192 255 0.349299 0.640217
33.53271 285.7017 33.53271 0.5896838 -0.6758823 0.4421042 192 192 192 255 0.479542 0.640217
-26.07764 282.4531 -26.07788 -0.4421015 -0.6758807 -0.5896878 192 192 192 255 0.349299 0.637533
26.07764 282.4531 26.07788 0.4421021 -0.6758829 0.5896846 192 192 192 255 0.479541 0.637533
-26.07764 261.1162 -26.07788 -0.5592389 0.7495016 -0.3542586 192 192 192 255 0.349299 0.619906
26.07764 261.1161 26.07788 0.5592394 0.749504 0.3542528 192 192 192 255 0.479541 0.619906
-28.30444 119.8899 -28.30396 -0.7578159 0.2705541 -0.5937303 192 192 192 255 0.349299 0.636473
-31.61377 122.6788 -31.61377 -0.5896816 -0.4266216 -0.6857622 192 192 192 255 0.349299 0.637432
28.30396 119.8898 28.30408 0.8413736 -0.2046254 0.500219 192 192 192 255 0.479541 0.636473
31.61377 122.6788 31.61377 0.7036039 -0.0002607196 0.7105924 192 192 192 255 0.479542 0.637432
22.31689 73.78088 22.3175 0.5898055 0.6755606 0.4424335 192 192 192 255 0.479542 0.586801
22.31689 73.78082 -22.31702 0.4424272 0.6755632 -0.5898072 192 192 192 255 0.41442 0.586801
-22.31738 73.78082 -22.31702 -0.3030778 0.9421692 -0.1430421 192 192 192 255 0.349299 0.586801
-22.31738 73.78082 -22.31702 -0.3030778 0.9421692 -0.1430421 192 192 192 255 0.479432 0.586801
-22.31738 73.78088 22.3175 -0.4206458 0.5505862 0.7210493 192 192 192 255 0.41431 0.586801
-22.31738 99.13196 -22.31702 -0.4087314 -0.7066894 -0.5775195 192 192 192 255 0.479432 0.570376
22.31689 73.78088 22.3175 0.5898055 0.6755606 0.4424335 192 192 192 255 0.34919 0.586801
22.31689 99.13202 22.3175 0.3810408 -0.8768588 0.2931323 192 192 192 255 0.34919 0.570376
34.62207 259.4144 34.62231 0.3542553 0.7495037 0.5592384 192 192 192 255 0.479542 0.6185
-34.62207 259.4144 -34.62231 -0.3049154 0.6451128 -0.7006112 192 192 192 255 0.479432 0.6185
22.31689 99.13202 22.3175 0.3810408 -0.8768588 0.2931323 192 192 192 255 0.349189 0.623024
22.31689 99.13196 -22.31702 0.5775191 -0.7066914 -0.4087283 192 192 192 255 0.414311 0.623024
-22.31738 99.13196 -22.31702 -0.4087314 -0.7066894 -0.5775195 192 192 192 255 0.479432 0.623024
-22.31738 99.13196 -22.31702 -0.4087314 -0.7066894 -0.5775195 192 192 192 255 0.349299 0.623024
-22.31738 99.13202 22.3175 -0.577521 -0.7066881 0.4087315 192 192 192 255 0.414421 0.623024
-34.28833 103.1965 -34.28833 -0.7113624 -0.6083959 -0.3518777 192 192 192 255 0.349299 0.625657
22.31689 99.13202 22.3175 0.3810408 -0.8768588 0.2931323 192 192 192 255 0.479541 0.623024
28.30396 242.4006 28.30408 0.8837039 0.3633277 0.2950601 192 192 192 255 0.479541 0.604444
34.62207 243.8859 34.62231 0.703271 -0.6360866 0.317496 192 192 192 255 0.479542 0.605671
-34.62207 243.8859 -34.62231 -0.5639291 -0.7388933 -0.3688096 192 192 192 255 0.479432 0.605671
-28.30444 242.4006 -28.30396 -0.5222219 -0.4088726 -0.7484033 192 192 192 255 0.479432 0.604444
-34.28833 118.0052 -34.28833 -0.3996786 0.7144163 -0.57434 192 192 192 255 0.349299 0.635252
34.28833 108.2944 34.28833 0.3847036 -0.8750957 0.2936164 192 192 192 255 0.479542 0.627308
34.28833 118.0052 34.28833 0.3275585 0.7806965 0.5321828 192 192 192 255 0.479542 0.635252
-31.61377 122.6788 -31.61377 -0.5896816 -0.4266216 -0.6857622 192 192 192 255 0.349299 0.504454
-31.61377 122.6788 31.61377 -0.6930298 -0.4626699 0.552853 192 192 192 255 0.41442 0.504454
28.30396 242.4006 28.30408 0.8837039 0.3633277 0.2950601 192 192 192 255 0.368419 0.905299
-31.61377 238.6061 -31.61377 -0.7357969 0.2382741 -0.6338994 192 192 192 255 0.349299 0.602389
28.30396 242.4006 28.30408 0.8837039 0.3633277 0.2950601 192 192 192 255 0.372765 0.888886
31.61377 231.8075 31.61377 0.7133024 0.0119391 0.7007548 192 192 192 255 0.405768 0.868213
15.75562 103.1965 34.28833 0.2375854 -0.8710713 0.4298698 192 192 192 255 0.349251 0.915874
22.31689 99.13202 22.3175 0.3810408 -0.8768588 0.2931323 192 192 192 255 0.372275 0.873868
34.28833 108.2944 34.28833 0.3847036 -0.8750957 0.2936164 192 192 192 255 0.414283 0.915874
34.28833 103.1965 10.04773 0.4791727 -0.8590495 0.1800763 192 192 192 255 0.414283 0.830813
-34.28833 111.6373 34.28833 -0.6847331 0.6803263 0.2613364 192 192 192 255 0.371268 0.894411
-22.28125 118.0052 34.28821 -0.3673932 0.7019554 0.6101484 192 192 192 255 0.371268 0.852276
-28.30444 119.8898 28.30408 -0.6814198 0.6829526 0.2631406 192 192 192 255 0.392266 0.873414
-28.30444 119.8898 28.30408 -0.6814198 0.6829526 0.2631406 192 192 192 255 0.400538 0.841809
-34.28833 118.0052 2.753052 -0.757467 0.6400826 0.1286006 192 192 192 255 0.376327 0.928391
-34.28833 111.6373 34.28833 -0.6847331 0.6803263 0.2613364 192 192 192 255 0.376303 0.815499
31.61377 122.6788 -20.01501 0.8395 -0.5208873 -0.1546491 192 192 192 255 0.358804 0.876404
28.30396 119.8899 -28.30396 0.5363129 -0.5819029 -0.6113571 192 192 192 255 0.383715 0.858479
28.30396 119.8899 -28.30396 0.5363129 -0.5819029 -0.6113571 192 192 192 255 0.394581 0.864882
18.4187 122.6788 -31.61377 0.133938 -0.5050334 -0.8526441 192 192 192 255 0.376054 0.895796
31.61377 126.2583 -31.61377 0.5380007 -0.5814607 -0.610294 192 192 192 255 0.376056 0.847818
-30.396 147.4091 -25.24146 -0.7315172 0.0007427512 -0.6818226 192 192 192 255 0.372813 0.86089
-25.29224 146.6175 -30.396 -0.6859567 0.001426122 -0.727641 192 192 192 255 0.390722 0.863669
-30.396 140.3121 -30.396 -0.5926763 0.4663646 -0.6566879 192 192 192 255 0.372813 0.885797
23.67285 238.606 31.61377 0.3041105 0.3666356 0.8792583 192 192 192 255 0.471363 0.602389
-25.80347 206.1053 30.396 -0.04472033 -2.527771e-05 0.9989995 192 192 192 255 0.41934 0.574933
31.61377 122.6788 31.61377 0.7036039 -0.0002607196 0.7105924 192 192 192 255 0.479542 0.504454
31.61377 231.8075 31.61377 0.7133024 0.0119391 0.7007548 192 192 192 255 0.479542 0.599518
31.61377 122.6788 31.61377 0.7036039 -0.0002607196 0.7105924 192 192 192 255 0.34919 0.504454
31.61377 231.8075 31.61377 0.7133024 0.0119391 0.7007548 192 192 192 255 0.34919 0.599518
31.61377 238.606 7.525391 0.9420562 0.3230377 0.09042541 192 192 192 255 0.373999 0.602389
26.07764 261.1162 -26.07788 0.3261141 0.9225871 -0.2061131 192 192 192 255 0.369381 0.871956
34.62207 259.4144 -18.32507 0.3559651 0.9176897 -0.1764498 192 192 192 255 0.399364 0.84475
34.62207 256.2588 -34.62231 0.3320097 0.9201782 -0.2074648 192 192 192 255 0.399364 0.901937
24.59277 259.4144 -34.62231 0.285069 0.926748 -0.2446913 192 192 192 255 0.36417 0.901937
-40.5708 299.4359 22.4502 -0.5511895 -0.8228511 0.1382255 192 192 192 255 0.363569 0.841551
-33.53271 296.6919 33.53271 -0.4530171 -0.852479 0.2608736 192 192 192 255 0.388266 0.88044
-30.19873 299.4359 40.57056 -0.2501925 -0.8509579 0.4618165 192 192 192 255 0.399965 0.905136
33.77759 313.7314 -40.57068 0.023046 3.737163e-07 -0.9997344 192 192 192 255 0.369849 0.867142
40.57031 313.0493 -37.24622 0.9989363 3.588876e-07 -0.04611221 192 192 192 255 0.393685 0.869534
-30.396 158.949 -30.396 -0.7023765 -0.2865157 -0.6515951 192 192 192 255 0.372723 0.894979
-25.29224 146.6175 -30.396 -0.6859567 0.001426122 -0.727641 192 192 192 255 0.372723 0.851708
-30.396 147.4091 -25.24146 -0.7315172 0.0007427512 -0.6818226 192 192 192 255 0.390811 0.854485
26.84399 203.9942 -30.396 0.8154467 -0.0001951569 -0.5788321 192 192 192 255 0.390817 0.877683
30.39575 204.5053 -25.23767 0.9993449 -5.15804e-06 -0.03618942 192 192 192 255 0.372717 0.879476
9.976318 52.75854 38.40686 0.196833 0.7401539 0.6429844 192 192 192 255 0.37237 0.909816
21.59863 49.61981 38.40686 0 0.03610102 0.9993482 192 192 192 255 0.37237 0.869033
22.81104 53.82739 33.05029 -2.54689e-05 0.9058217 0.423659 192 192 192 255 0.391165 0.864778
29.55127 54.87671 29.55151 0.01006254 0.9570525 0.2897402 192 192 192 255 0.349189 0.629279
30.76367 52.75854 38.40686 -0.2598338 0.7874529 0.5589314 192 192 192 255 0.355669 0.629025
38.40698 52.75854 38.40686 0.351623 0.8119889 0.4658705 192 192 192 255 0.349189 0.629025
-35.35156 39.74164 38.40686 -0.01735744 0 0.9998494 192 192 192 255 0.389047 0.873389
32.83203 53.8927 -32.83215 0.389302 0.7116447 -0.5848126 192 192 192 255 0.3801 0.865972
38.40698 52.75854 -28.2074 0.5445662 0.7055128 -0.4535409 192 192 192 255 0.363872 0.846408
38.40698 46.09015 -38.40686 0.02340862 0.04087169 -0.9988902 192 192 192 255 0.399662 0.846408
23.05518 52.75861 -38.40686 0.2928771 0.6895723 -0.6623541 192 192 192 255 0.399662 0.90028
-29.55127 67.66718 -29.55139 -0.6658621 0.6684317 -0.3314012 192 192 192 255 0.349299 0.582562
-29.55127 67.66718 -29.55139 -0.6658621 0.6684317 -0.3314012 192 192 192 255 0.479432 0.582562
-26.54639 71.93359 -26.54639 -0.4906431 0.8427221 -0.2215602 192 192 192 255 0.479432 0.581711
-38.40674 22.17072 -30.3158 -0.9066727 0 -0.4218349 192 192 192 255 0.395964 0.8689
-34.48242 22.34167 -38.40686 -0.04112286 0 -0.9991541 192 192 192 255 0.367571 0.869499
-38.40674 14.70813 -38.40686 -0.8195698 0.4146183 -0.3954706 192 192 192 255 0.367571 0.842713
-38.40674 32.16602 -38.40686 -0.8435377 -0.3327635 -0.4215596 192 192 192 255 0.367571 0.903974
-30.396 220.2686 30.396 -0.7059757 -0.2232227 0.6721385 192 192 192 255 0.41442 0.586898
-30.396 188.4379 30.396 -0.721692 0.183651 0.6674076 192 192 192 255 0.41442 0.560007
31.61377 122.6788 -20.01501 0.8395 -0.5208873 -0.1546491 192 192 192 255 0.402365 0.504454
31.61377 126.2583 -31.61377 0.5380007 -0.5814607 -0.610294 192 192 192 255 0.414311 0.505966
30.39575 189.1176 -30.396 0.7973421 0.1859837 -0.5741566 192 192 192 255 0.414311 0.560581
30.39575 216.3981 -30.396 0.8091016 -0.2259626 -0.5424901 192 192 192 255 0.414311 0.583628
18.4187 122.6788 -31.61377 0.133938 -0.5050334 -0.8526441 192 192 192 255 0.427901 0.504454
-31.61377 122.6788 -31.61377 -0.5896816 -0.4266216 -0.6857622 192 192 192 255 0.479432 0.504454
-30.396 140.3121 -30.396 -0.5926763 0.4663646 -0.6566879 192 192 192 255 0.479432 0.51935
-30.396 205.8248 25.56226 -0.7315459 -0.0001741795 0.6817922 192 192 192 255 0.411831 0.5749
-30.396 158.949 -30.396 -0.7023765 -0.2865157 -0.6515951 192 192 192 255 0.349299 0.535095
40.57031 304.1168 -40.57068 0.4541906 0.3019894 -0.8381607 192 192 192 255 0.414311 0.654642
40.57031 319.8108 -40.57056 0.3866143 -0.393066 -0.8342832 192 192 192 255 0.414311 0.664961
-38.40674 0 -38.40686 -0.5773503 -0.5773503 -0.5773503 192 192 192 255 0.349299 0.662146
-38.40674 14.70813 -38.40686 -0.8195698 0.4146183 -0.3954706 192 192 192 255 0.349299 0.652163
-38.40674 38.42517 34.25757 -0.8205194 0 0.5716187 192 192 192 255 0.417828 0.636065
-38.40674 52.75854 -38.40686 -0.7159184 0.4677988 -0.5182905 192 192 192 255 0.479432 0.626337
-38.40674 32.16602 -38.40686 -0.8435377 -0.3327635 -0.4215596 192 192 192 255 0.479432 0.640314
-38.40674 33.37842 38.40686 -0.807565 0.3604339 0.4668256 192 192 192 255 0.41431 0.639491
-38.40674 46.07935 38.40686 -0.7173476 -0.3213657 0.618172 192 192 192 255 0.41431 0.63087
-38.40674 52.75854 38.40686 -0.306701 0.7300559 0.6106987 192 192 192 255 0.41431 0.626337
38.40698 52.75854 38.40686 0.351623 0.8119889 0.4658705 192 192 192 255 0.349189 0.626337
30.76367 52.75854 38.40686 -0.2598338 0.7874529 0.5589314 192 192 192 255 0.355669 0.626337
9.976318 52.75854 38.40686 0.196833 0.7401539 0.6429844 192 192 192 255 0.373292 0.626337
40.57031 328.4171 -22.95801 0.3012651 0.9301367 -0.2099646 192 192 192 255 0.426251 0.67062
40.57031 328.4171 40.57056 0.9999995 0.0004428257 0.0008856512 192 192 192 255 0.469321 0.67062
28.12305 328.4171 -40.5708 0.01796419 0.9997548 -0.01294755 192 192 192 255 0.359928 0.904245
40.57031 328.4171 -22.95801 0.3012651 0.9301367 -0.2099646 192 192 192 255 0.403606 0.842442
40.57031 324.3688 -40.57068 0.3092642 0.9249315 -0.2210371 192 192 192 255 0.403606 0.904245
8.068848 328.4172 40.57056 -0.1719117 0.8224224 0.5422803 192 192 192 255 0.37082 0.82356
-11.39136 328.4172 34.33105 -8.635221e-09 0.8151156 0.5792983 192 192 192 255 0.392714 0.891846
-13.18408 323.9077 40.57056 -1.378831e-08 0.8017934 0.5976014 192 192 192 255 0.436364 0.669138
40.57031 328.4171 40.57056 0.9999995 0.0004428257 0.0008856512 192 192 192 255 0.479542 0.67062
8.068848 328.4172 40.57056 -0.1719117 0.8224224 0.5422803 192 192 192 255 0.453457 0.67062
-40.5708 302.5243 40.57043 -0.4546583 -0.8466527 0.2765229 192 192 192 255 0.41442 0.652579
-40.5708 328.4171 13.9895 -0.02961 0.9994765 0.0130382 192 192 192 255 0.438962 0.67062
-28.34912 328.4172 40.57056 -0.4967424 0.7709925 0.3985193 192 192 192 255 0.414008 0.67062
-20.30566 328.4172 40.57056 0.4091757 0.6752673 0.6136687 192 192 192 255 0.37082 0.923127
-40.5708 328.4171 13.9895 -0.02961 0.9994765 0.0130382 192 192 192 255 0.38433 0.67062
-40.5708 328.4171 -40.57068 -0.0002312301 0.8666429 -0.498929 192 192 192 255 0.349299 0.67062
-20.30566 328.4172 40.57056 0.4091757 0.6752673 0.6136687 192 192 192 255 0.430684 0.67062
-28.34912 328.4172 40.57056 -0.4967424 0.7709925 0.3985193 192 192 192 255 0.424229 0.67062
-40.5708 314.799 40.57056 -0.5644614 0.4963136 0.6595879 192 192 192 255 0.381941 0.846778
-28.34912 328.4172 40.57056 -0.4967424 0.7709925 0.3985193 192 192 192 255 0.381921 0.910987
-40.5708 324.1583 33.46643 -0.5003698 0.7705691 0.3947825 192 192 192 255 0.359997 0.871214
-40.5708 324.1583 33.46643 -0.5003698 0.7705691 0.3947825 192 192 192 255 0.403292 0.669843
3 8 108 110 
3 8 110 15 
3 134 126 127 
3 12 13 117 
3 12 117 118 
3 12 118 11 
3 6 7 1 
3 6 1 0 
3 9 116 117 
3 9 117 13 
3 9 13 14 
3 135 8 15 
3 135 15 136 
3 115 1 111 
3 137 138 10 
3 137 10 139 
3 137 139 140 
3 141 142 10 
3 141 10 124 
3 141 124 122 
3 143 0 125 
3 143 125 123 
3 16 119 17 
3 16 17 144 
3 16 144 145 
3 146 144 17 
3 146 17 18 
3 147 148 149 
3 147 149 19 
3 150 147 19 
3 150 19 121 
3 150 121 151 
3 20 21 152 
3 20 152 153 
3 154 152 21 
3 154 21 22 
3 155 156 157 
3 155 157 23 
3 158 159 155 
3 158 155 23 
3 24 25 29 
3 24 29 30 
3 28 29 25 
3 28 25 26 
3 31 160 161 
3 31 161 99 
3 162 31 98 
3 162 98 163 
3 4 102 24 
3 26 103 3 
3 32 33 29 
3 32 29 28 
3 30 29 33 
3 30 33 34 
3 164 35 31 
3 164 31 162 
3 35 165 160 
3 35 160 31 
3 36 37 33 
3 36 33 32 
3 34 33 37 
3 34 37 38 
3 166 39 35 
3 166 35 164 
3 39 167 165 
3 39 165 35 
3 40 41 37 
3 40 37 36 
3 38 37 41 
3 38 41 42 
3 168 43 39 
3 168 39 166 
3 43 169 167 
3 43 167 39 
3 72 73 84 
3 72 84 69 
3 71 85 73 
3 71 73 74 
3 170 75 70 
3 170 70 171 
3 75 172 173 
3 75 173 70 
3 174 175 45 
3 174 45 44 
3 46 45 175 
3 46 175 176 
3 177 178 47 
3 177 47 179 
3 178 180 181 
3 178 181 47 
3 49 96 41 
3 49 41 40 
3 50 182 169 
3 50 169 43 
3 51 50 43 
3 51 43 168 
3 42 41 97 
3 42 97 183 
3 184 185 53 
3 184 53 81 
3 54 53 185 
3 54 185 186 
3 187 188 55 
3 187 55 189 
3 188 190 80 
3 188 80 55 
3 76 77 60 
3 76 60 61 
3 79 191 192 
3 79 192 62 
3 78 79 62 
3 78 62 63 
3 193 60 77 
3 193 77 194 
3 61 60 48 
3 61 48 96 
3 61 96 49 
3 62 192 182 
3 62 182 50 
3 63 62 50 
3 63 50 51 
3 183 97 48 
3 183 48 60 
3 183 60 193 
3 52 81 53 
3 52 53 65 
3 52 65 64 
3 66 65 53 
3 66 53 54 
3 189 55 67 
3 189 67 83 
3 189 83 195 
3 55 80 196 
3 55 196 197 
3 55 197 82 
3 55 82 67 
3 198 199 89 
3 198 89 87 
3 59 107 88 
3 59 88 86 
3 64 65 73 
3 64 73 72 
3 74 73 65 
3 74 65 66 
3 195 83 75 
3 195 75 170 
3 75 82 197 
3 75 197 172 
3 57 95 200 
3 194 77 56 
3 194 56 59 
3 201 58 79 
3 201 79 78 
3 202 94 203 
3 204 205 206 
3 205 207 206 
3 208 209 210 
3 211 212 213 
3 214 215 68 
3 216 217 218 
3 219 220 221 
3 90 93 92 
3 58 222 191 
3 58 191 79 
3 223 224 225 
3 226 106 227 
3 76 228 56 
3 76 56 77 
3 229 230 231 
3 232 229 231 
3 233 234 27 
3 234 235 27 
3 101 236 237 
3 237 236 100 
3 92 93 91 
3 238 239 240 
3 241 242 105 
3 104 242 241 
3 243 244 245 
3 245 244 109 
3 246 110 247 
3 246 247 248 
3 15 110 246 
3 249 114 112 
3 113 114 249 
3 250 251 252 
3 253 250 252 
3 120 153 254 
3 255 159 256 
3 257 258 259 
3 260 258 257 
3 223 225 222 
3 223 222 58 
3 223 58 261 
3 199 224 223 
3 199 223 262 
3 226 263 264 
3 226 264 265 
3 226 265 106 
3 227 106 266 
3 227 266 56 
3 227 56 228 
3 59 56 266 
3 59 266 107 
3 88 264 267 
3 88 267 268 
3 88 268 269 
3 88 107 265 
3 88 265 264 
3 89 270 201 
3 89 201 271 
3 89 199 262 
3 89 262 270 
3 201 270 261 
3 201 261 58 
3 26 25 272 
3 26 272 103 
3 3 103 273 
3 3 273 5 
3 3 5 128 
3 4 129 5 
3 4 5 273 
3 4 273 102 
3 24 102 272 
3 24 272 25 
3 124 138 274 
3 124 274 275 
3 124 10 138 
3 125 276 277 
3 125 277 278 
3 125 0 279 
3 125 279 276 
3 277 276 280 
3 277 280 281 
3 111 1 282 
3 111 282 283 
3 115 111 284 
3 115 284 281 
3 115 281 280 
3 0 1 115 
3 0 115 279 
3 20 153 120 
3 256 159 158 
3 285 132 131 
3 285 131 286 
3 287 288 289 
3 290 291 133 
3 292 161 293 
3 292 293 294 
3 295 99 161 
3 295 161 292 
3 296 297 130 
3 296 130 132 
3 296 129 4 
3 296 132 285 
3 296 285 129 
3 133 291 298 
3 163 98 299 
3 163 299 300 
3 295 292 301 
3 295 301 302 
3 295 302 2 
3 303 304 305 
3 299 98 295 
3 299 295 2 
3 299 2 306 
