ply
format ascii 1.0
comment VCGLIB generated
comment TextureFile Dungeons_2_Texture_01_A.png
element vertex 135
property float x
property float y
property float z
property float nx
property float ny
property float nz
property uchar red
property uchar green
property uchar blue
property uchar alpha
property float texture_u
property float texture_v
element face 126
property list uchar int vertex_indices
end_header
-115.4219 -29.71149 -47.82278 -0.8117654 -0.4602287 -0.3594809 192 192 192 255 0.043353 0.889777
-47.80219 408.7481 -115.4243 -0.4964198 0.02532667 -0.8677131 192 192 192 255 0.077143 0.783903
43.26115 425.7037 104.4617 0.2007409 0.569386 0.7971843 192 192 192 255 0.104389 0.96341
43.17642 425.9451 -104.3205 0.1243929 0.5461042 -0.8284302 192 192 192 255 0.11453 0.776836
47.81337 -28.41571 115.4266 0.3286914 -0.4938184 0.80505 192 192 192 255 0.138221 0.889781
-115.426 408.7365 -47.81102 -0.8992698 0.04936684 -0.4345997 192 192 192 255 0.049355 0.783907
-84.13998 425.7061 63.61466 -0.7833222 0.2443558 0.5715737 192 192 192 255 0.052036 0.963411
115.5131 368.5448 7.575863 0.9998398 0.01455349 -0.01041902 192 192 192 255 0.087672 0.938455
91.27692 422.6351 -45.94 0.8311032 0.2909216 -0.4739538 192 192 192 255 0.109663 0.960682
-115.426 372.8217 47.80161 -0.8340371 0.03762722 0.5504238 192 192 192 255 0.108137 0.941519
95.79678 393.6553 -54.63612 0.8196157 0.3536105 -0.4507656 192 192 192 255 0.113237 0.948773
109.8453 417.1441 7.373464 0.9611215 0.2550269 -0.1058623 192 192 192 255 0.087755 0.958426
-115.5102 408.5637 24.64803 -0.9998583 0.0145517 0.008468002 192 192 192 255 0.098628 0.956211
109.9553 377.7544 -39.2867 0.9565935 0.2252475 -0.1849121 192 192 192 255 0.106929 0.942239
-104.294 425.9699 26.66262 -0.8666369 0.4453432 0.2249663 192 192 192 255 0.099458 0.963363
-47.78219 -28.3349 115.4266 -0.3058755 -0.05130351 0.9506882 192 192 192 255 0.066976 0.77683
115.4272 -29.85016 -47.79454 0.892344 -0.3329895 -0.304697 192 192 192 255 0.11044 0.822706
-47.79513 408.7464 115.4219 -0.2238118 0.04886225 0.9734068 192 192 192 255 0.066971 0.956442
115.4978 408.6238 12.3605 0.9870667 0.1146475 -0.1120503 192 192 192 255 0.085706 0.954924
-73.21158 412.5437 78.49103 -0.7788898 0.2482011 0.5759574 192 192 192 255 0.120754 0.957838
102.1618 434.3027 -26.94974 0.9268979 0.2635186 -0.2672421 192 192 192 255 0.10186 0.965477
-43.29292 425.6992 104.4594 -0.250403 0.5723255 0.7808597 192 192 192 255 0.068821 0.963408
104.4517 425.7271 43.24997 0.7185112 0.5511172 0.4242775 192 192 192 255 0.129534 0.96342
-43.1423 427.7868 -104.2287 -0.4241472 0.5459388 -0.7225302 192 192 192 255 0.079058 0.776079
-104.2123 426.1343 -43.16995 -0.7458763 0.5724577 -0.3405302 192 192 192 255 0.070762 0.963442
115.4272 371.8924 -47.81102 0.9460019 0.02382464 -0.3232844 192 192 192 255 0.110432 0.93983
-115.5131 -28.51874 46.57544 -0.8864414 -0.2041078 0.4154055 192 192 192 255 0.070756 0.917233
47.81573 408.7215 -115.4313 0.1744322 0.01930865 -0.9844799 192 192 192 255 0.116436 0.783914
-48.22052 -29.8504 -115.1395 -0.2475472 -0.1848126 -0.9510861 192 192 192 255 0.076972 0.964138
47.81337 -28.41956 -115.4313 0.4578241 -0.06614917 -0.8865785 192 192 192 255 0.116435 0.96355
-104.7541 392.3226 41.28481 -0.7711094 0.3125429 0.5547137 192 192 192 255 0.105462 0.949534
86.21398 391.3825 -77.14719 0.7143322 0.01613295 -0.6996208 192 192 192 255 0.122487 0.947839
76.58647 422.6351 -73.94646 0.7401542 0.3642438 -0.5652417 192 192 192 255 0.128259 0.778196
115.4307 -29.85059 47.77101 0.806205 -0.3525451 0.4751268 192 192 192 255 0.13821 0.850474
115.4272 408.6127 47.81573 0.9446885 0.01763316 0.3274947 192 192 192 255 0.071136 0.95492
47.86338 408.6937 115.4313 0.3863198 0.01916259 0.9221659 192 192 192 255 0.04335 0.954953
-73.38103 383.1235 89.96661 -0.7122617 0.008500206 0.7018626 192 192 192 255 0.056457 0.945913
38.63879 428.4688 -93.32938 0.3317098 0.7285922 -0.599268 192 192 192 255 0.106658 0.90848
-38.59166 428.4689 -93.2473 -0.189676 0.7497267 -0.6339817 192 192 192 255 0.074922 0.90847
68.53117 428.4688 -66.15341 0.6248892 0.6433829 -0.4422352 192 192 192 255 0.118934 0.897303
81.67488 428.4688 -41.09566 0.6425017 0.6422932 -0.4179127 192 192 192 255 0.124327 0.887002
91.41369 428.4689 -24.10484 0.5672285 0.7913024 -0.2282375 192 192 192 255 0.128324 0.880017
93.46257 428.4688 38.7037 0.5026436 0.7804864 0.3717395 192 192 192 255 0.129146 0.854206
38.71457 428.4688 93.47058 0.2135739 0.7128903 0.6679623 192 192 192 255 0.106631 0.831717
-38.72641 428.4689 93.46852 -0.3211579 0.7127194 0.6236094 192 192 192 255 0.074807 0.831742
-75.27277 428.4688 56.92428 -0.5863025 0.7010248 0.4059724 192 192 192 255 0.059801 0.846771
-93.30489 428.4688 23.86281 -0.6834071 0.7166311 0.1392646 192 192 192 255 0.052401 0.860363
-93.23171 428.4688 -38.61723 -0.602949 0.7369803 -0.3054709 192 192 192 255 0.052451 0.886038
37.4365 443.8843 -90.41718 0.1787341 0.9837341 0.01793101 192 192 192 255 0.087618 0.849649
-37.38592 443.8844 -90.33766 -0.09835345 0.9902343 -0.09880685 192 192 192 255 0.087618 0.880396
66.39683 438.088 -64.08855 0.1798529 0.9835178 0.01859338 192 192 192 255 0.089999 0.837749
79.13072 443.8843 -39.8121 -0.1506399 0.9848099 0.08635414 192 192 192 255 0.093952 0.848136
88.56588 443.8844 -23.35105 -0.1501136 0.9848475 0.08684027 192 192 192 255 0.093952 0.8549
90.55087 443.8843 37.49913 0.106784 0.9886281 0.1058853 192 192 192 255 0.093952 0.879905
37.50991 443.8843 90.55839 0.106246 0.9886041 0.106648 192 192 192 255 0.093952 0.901709
-37.51647 443.8844 90.55639 -0.0004180445 0.9999988 0.00150202 192 192 192 255 0.093952 0.878014
-72.92332 443.8843 55.15159 -0.04531098 0.9977514 -0.04938734 192 192 192 255 0.093952 0.892564
-90.3932 438.1425 23.12097 -0.1082031 0.9870864 -0.1181213 192 192 192 255 0.091593 0.864369
-90.3223 443.8843 -37.41095 -0.0989372 0.9902503 -0.0980605 192 192 192 255 0.093952 0.889243
-4.162858 443.8844 -1.583055 0.03855029 0.9992156 -0.009060648 192 192 192 255 0.089041 0.870791
33.44828 443.8843 -55.47511 0.09938898 0.9936509 0.0527239 192 192 192 255 0.104513 0.892926
60.07272 439.3663 -23.48117 0.03928316 0.9984205 -0.04016603 192 192 192 255 0.115444 0.87977
36.79125 448.7317 45.94925 0.02163602 0.9987281 -0.04554164 192 192 192 255 0.105855 0.851246
-45.5657 443.8843 30.73848 -0.01537054 0.9997345 -0.01716991 192 192 192 255 0.072017 0.857522
-39.09677 448.7318 -39.6251 0.0187172 0.9997171 0.0146739 192 192 192 255 0.074697 0.886435
47.81337 -28.41571 115.4266 0.3286914 -0.4938184 0.80505 192 192 192 255 0.043352 0.77533
115.4307 -29.85059 47.77101 0.806205 -0.3525451 0.4751268 192 192 192 255 0.071154 0.77474
115.4272 -29.85016 -47.79454 0.892344 -0.3329895 -0.304697 192 192 192 255 0.110425 0.77474
47.86338 408.6937 115.4313 0.3863198 0.01916259 0.9221659 192 192 192 255 0.10628 0.95642
-115.4219 -29.71149 -47.82278 -0.8117654 -0.4602287 -0.3594809 192 192 192 255 0.049356 0.964081
-115.426 408.7365 -47.81102 -0.8992698 0.04936684 -0.4345997 192 192 192 255 0.068852 0.956293
-115.4219 -29.71149 -47.82278 -0.8117654 -0.4602287 -0.3594809 192 192 192 255 0.068778 0.77612
-47.78219 -28.3349 115.4266 -0.3058755 -0.05130351 0.9506882 192 192 192 255 0.110443 0.917559
47.81337 -28.41571 115.4266 0.3286914 -0.4938184 0.80505 192 192 192 255 0.10626 0.776797
-115.5131 -28.51874 46.57544 -0.8864414 -0.2041078 0.4154055 192 192 192 255 0.10757 0.776595
-47.78219 -28.3349 115.4266 -0.3058755 -0.05130351 0.9506882 192 192 192 255 0.135863 0.77666
-73.38103 383.1235 89.96661 -0.7122617 0.008500206 0.7018626 192 192 192 255 0.125465 0.945746
104.4517 425.7271 43.24997 0.7185112 0.5511172 0.4242775 192 192 192 255 0.073012 0.961953
-43.1423 427.7868 -104.2287 -0.4241472 0.5459388 -0.7225302 192 192 192 255 0.045671 0.96413
47.81337 -28.41956 -115.4313 0.4578241 -0.06614917 -0.8865785 192 192 192 255 0.13822 0.775328
86.21398 391.3825 -77.14719 0.7143322 0.01613295 -0.6996208 192 192 192 255 0.132215 0.791039
-84.13998 425.7061 63.61466 -0.7833222 0.2443558 0.5715737 192 192 192 255 0.114643 0.963249
76.58647 422.6351 -73.94646 0.7401542 0.3642438 -0.5652417 192 192 192 255 0.121172 0.960682
47.81573 408.7215 -115.4313 0.1744322 0.01930865 -0.9844799 192 192 192 255 0.13822 0.954965
-47.79513 408.7464 115.4219 -0.2238118 0.04886225 0.9734068 192 192 192 255 0.13593 0.956271
-104.7541 392.3226 41.28481 -0.7711094 0.3125429 0.5547137 192 192 192 255 0.092942 0.867231
-104.294 425.9699 26.66262 -0.8666369 0.4453432 0.2249663 192 192 192 255 0.092946 0.881059
-115.5102 408.5637 24.64803 -0.9998583 0.0145517 0.008468002 192 192 192 255 0.088433 0.873845
-115.426 372.8217 47.80161 -0.8340371 0.03762722 0.5504238 192 192 192 255 0.088665 0.859159
-48.22052 -29.8504 -115.1395 -0.2475472 -0.1848126 -0.9510861 192 192 192 255 0.043319 0.850689
-47.80219 408.7481 -115.4243 -0.4964198 0.02532667 -0.8677131 192 192 192 255 0.078601 0.960346
-48.22052 -29.8504 -115.1395 -0.2475472 -0.1848126 -0.9510861 192 192 192 255 0.07616 0.780127
-115.4219 -29.71149 -47.82278 -0.8117654 -0.4602287 -0.3594809 192 192 192 255 0.103821 0.779792
47.81337 -28.41956 -115.4313 0.4578241 -0.06614917 -0.8865785 192 192 192 255 0.071139 0.8227
-43.1423 427.7868 -104.2287 -0.4241472 0.5459388 -0.7225302 192 192 192 255 0.073055 0.912984
43.17642 425.9451 -104.3205 0.1243929 0.5461042 -0.8284302 192 192 192 255 0.108527 0.912995
76.58647 422.6351 -73.94646 0.7401542 0.3642438 -0.5652417 192 192 192 255 0.122246 0.900503
91.27692 422.6351 -45.94 0.8311032 0.2909216 -0.4739538 192 192 192 255 0.128274 0.888989
102.1618 434.3027 -26.94974 0.9268979 0.2635186 -0.2672421 192 192 192 255 0.132741 0.881182
104.4517 425.7271 43.24997 0.7185112 0.5511172 0.4242775 192 192 192 255 0.13366 0.852334
43.26115 425.7037 104.4617 0.2007409 0.569386 0.7971843 192 192 192 255 0.108496 0.827199
-43.29292 425.6992 104.4594 -0.250403 0.5723255 0.7808597 192 192 192 255 0.072928 0.827227
-84.13998 425.7061 63.61466 -0.7833222 0.2443558 0.5715737 192 192 192 255 0.056155 0.844025
-104.294 425.9699 26.66262 -0.8666369 0.4453432 0.2249663 192 192 192 255 0.047885 0.859216
-104.2123 426.1343 -43.16995 -0.7458763 0.5724577 -0.3405302 192 192 192 255 0.04794 0.887913
-38.59166 428.4689 -93.2473 -0.189676 0.7497267 -0.6339817 192 192 192 255 0.093952 0.880892
38.63879 428.4688 -93.32938 0.3317098 0.7285922 -0.599268 192 192 192 255 0.093952 0.849155
68.53117 428.4688 -66.15341 0.6248892 0.6433829 -0.4422352 192 192 192 255 0.093952 0.836872
68.53117 428.4688 -66.15341 0.6248892 0.6433829 -0.4422352 192 192 192 255 0.087618 0.837311
66.39683 438.088 -64.08855 0.1798529 0.9835178 0.01859338 192 192 192 255 0.09157 0.83816
81.67488 428.4688 -41.09566 0.6425017 0.6422932 -0.4179127 192 192 192 255 0.087618 0.847608
91.41369 428.4689 -24.10484 0.5672285 0.7913024 -0.2282375 192 192 192 255 0.087618 0.85459
93.46257 428.4688 38.7037 0.5026436 0.7804864 0.3717395 192 192 192 255 0.087618 0.8804
38.71457 428.4688 93.47058 0.2135739 0.7128903 0.6679623 192 192 192 255 0.087618 0.902906
38.71457 428.4688 93.47058 0.2135739 0.7128903 0.6679623 192 192 192 255 0.087618 0.846688
37.50991 443.8843 90.55839 0.106246 0.9886041 0.106648 192 192 192 255 0.093952 0.847183
-38.72641 428.4689 93.46852 -0.3211579 0.7127194 0.6236094 192 192 192 255 0.087618 0.878511
-75.27277 428.4688 56.92428 -0.5863025 0.7010248 0.4059724 192 192 192 255 0.087618 0.893529
-75.27277 428.4688 56.92428 -0.5863025 0.7010248 0.4059724 192 192 192 255 0.087618 0.850478
-72.92332 443.8843 55.15159 -0.04531098 0.9977514 -0.04938734 192 192 192 255 0.093952 0.851206
-93.30489 428.4688 23.86281 -0.6834071 0.7166311 0.1392646 192 192 192 255 0.087618 0.864064
-93.23171 428.4688 -38.61723 -0.602949 0.7369803 -0.3054709 192 192 192 255 0.087618 0.889739
-93.23171 428.4688 -38.61723 -0.602949 0.7369803 -0.3054709 192 192 192 255 0.093952 0.903346
-90.3223 443.8843 -37.41095 -0.0989372 0.9902503 -0.0980605 192 192 192 255 0.087618 0.90215
66.39683 438.088 -64.08855 0.1798529 0.9835178 0.01859338 192 192 192 255 0.118056 0.896455
37.4365 443.8843 -90.41718 0.1787341 0.9837341 0.01793101 192 192 192 255 0.106163 0.907283
79.13072 443.8843 -39.8121 -0.1506399 0.9848099 0.08635414 192 192 192 255 0.123281 0.886475
88.56588 443.8844 -23.35105 -0.1501136 0.9848475 0.08684027 192 192 192 255 0.127153 0.879707
90.55087 443.8843 37.49913 0.106784 0.9886281 0.1058853 192 192 192 255 0.12795 0.854702
37.50991 443.8843 90.55839 0.106246 0.9886041 0.106648 192 192 192 255 0.106136 0.832914
-37.51647 443.8844 90.55639 -0.0004180445 0.9999988 0.00150202 192 192 192 255 0.075305 0.832939
-72.92332 443.8843 55.15159 -0.04531098 0.9977514 -0.04938734 192 192 192 255 0.060767 0.847499
-90.3932 438.1425 23.12097 -0.1082031 0.9870864 -0.1181213 192 192 192 255 0.053598 0.860667
-90.3223 443.8843 -37.41095 -0.0989372 0.9902503 -0.0980605 192 192 192 255 0.053646 0.885541
-37.38592 443.8844 -90.33766 -0.09835345 0.9902343 -0.09880685 192 192 192 255 0.075416 0.907274
3 0 33 4 
3 0 16 33 
3 0 4 26 
3 35 65 66 
3 1 23 3 
3 23 1 5 
3 34 67 7 
3 22 2 68 
3 2 17 68 
3 3 27 1 
3 1 69 5 
3 15 17 36 
3 70 71 12 
3 26 4 72 
3 15 73 68 
3 74 75 76 
3 12 71 74 
3 11 20 77 
3 34 77 35 
3 8 10 31 
3 20 11 13 
3 78 70 24 
3 70 14 24 
3 21 6 17 
3 17 2 21 
3 12 74 9 
3 29 28 27 
3 67 79 31 
3 29 27 80 
3 32 27 3 
3 11 7 13 
3 34 11 77 
3 76 9 74 
3 81 14 30 
3 82 31 83 
3 8 31 82 
3 76 84 19 
3 7 67 25 
3 12 14 70 
3 8 20 10 
3 85 86 87 
3 9 76 19 
3 9 19 30 
3 85 87 88 
3 84 81 19 
3 20 13 10 
3 25 31 10 
3 67 31 25 
3 19 81 30 
3 0 89 16 
3 90 91 92 
3 10 13 25 
3 93 16 89 
3 18 11 34 
3 34 35 66 
3 18 34 7 
3 13 7 25 
3 34 66 67 
3 15 68 17 
3 27 28 1 
3 18 7 11 
3 94 38 37 
3 94 37 95 
3 95 37 39 
3 95 39 96 
3 96 39 40 
3 96 40 97 
3 97 40 41 
3 97 41 98 
3 98 41 42 
3 98 42 99 
3 99 42 43 
3 99 43 100 
3 100 43 44 
3 100 44 101 
3 101 44 45 
3 101 45 102 
3 102 45 46 
3 102 46 103 
3 103 46 47 
3 103 47 104 
3 104 47 38 
3 104 38 94 
3 105 49 48 
3 105 48 106 
3 106 48 50 
3 106 50 107 
3 108 109 51 
3 108 51 110 
3 110 51 52 
3 110 52 111 
3 111 52 53 
3 111 53 112 
3 112 53 54 
3 112 54 113 
3 114 115 55 
3 114 55 116 
3 116 55 56 
3 116 56 117 
3 118 119 57 
3 118 57 120 
3 120 57 58 
3 120 58 121 
3 122 123 49 
3 122 49 105 
3 64 59 60 
3 59 61 60 
3 62 59 63 
3 63 59 64 
3 59 62 61 
3 60 124 125 
3 61 126 124 
3 61 124 60 
3 61 127 126 
3 62 128 127 
3 62 127 61 
3 62 129 128 
3 130 129 62 
3 130 62 63 
3 131 130 63 
3 132 131 63 
3 133 132 63 
3 133 63 64 
3 134 133 64 
3 134 64 60 
3 134 60 125 
