ply
format ascii 1.0
comment VCGLIB generated
comment TextureFile Dungeons_2_Texture_01_A.png
element vertex 226
property float x
property float y
property float z
property float nx
property float ny
property float nz
property uchar red
property uchar green
property uchar blue
property uchar alpha
property float texture_u
property float texture_v
element face 224
property list uchar int vertex_indices
end_header
125.5665 434.7556 -30.54131 0.4457517 -0.006530962 -0.8951328 192 192 192 255 0.147701 0.872014
87.10324 500 -30.54131 0.1478198 0.4972246 -0.8549368 192 192 192 255 0.130857 0.843443
-7e-06 500 -30.54131 -3.927019e-05 3.152546e-05 -1 192 192 192 255 0.092715 0.843443
105.2671 433.3109 -39.00127 0.0002909052 -4.538811e-06 -1 192 192 192 255 0.138811 0.872646
79.41821 488.8457 -39.00078 4.097732e-05 5.417594e-05 -1 192 192 192 255 0.127492 0.848327
-3.1e-05 488.8457 -39.00078 -0.0002327457 0.000140643 -1 192 192 192 255 0.092715 0.848327
87.10324 369.5113 -30.54131 0.0003824915 -0.6040473 -0.7969484 192 192 192 255 0.130857 0.900584
-3.1e-05 369.5113 -30.54131 -0.00177485 -0.6042762 -0.796773 192 192 192 255 0.12206 0.843443
79.41821 380.6656 -39.00078 0.0001729341 -0.02948317 -0.9995653 192 192 192 255 0.127492 0.8957
-3.1e-05 380.6656 -39.00078 -8.8439e-05 -0.01701571 -0.9998553 192 192 192 255 0.092715 0.8957
125.5665 434.7556 30.54131 0.429696 -0.0254228 0.9026157 192 192 192 255 0.147701 0.872013
87.10324 500 30.54131 0.1362257 0.4861656 0.8631834 192 192 192 255 0.130857 0.900584
-7e-06 500 30.54131 -5.827312e-05 5.058646e-05 1 192 192 192 255 0.092715 0.900584
103.1968 428.5693 39.00127 0.0003050008 -1.925934e-05 1 192 192 192 255 0.137905 0.869304
79.41821 488.8457 39.00078 0.0002848469 0.0003860008 0.9999999 192 192 192 255 0.127492 0.8957
-3.1e-05 488.8457 39.00078 -0.46658 0.2819438 0.8383382 192 192 192 255 0.092715 0.8957
87.10324 369.5113 30.54131 0.1539917 -0.5032637 0.8503013 192 192 192 255 0.130857 0.843443
-3.1e-05 369.5113 30.54131 -0.8944277 -0.2702411 0.3563271 192 192 192 255 0.118355 0.843443
79.41821 380.6656 39.00078 0.0003246037 -0.0004243394 0.9999999 192 192 192 255 0.127492 0.848327
-3.1e-05 380.6656 39.00078 -0.3299218 -0.3987285 0.8556677 192 192 192 255 0.092715 0.848327
374.4335 434.7556 30.54131 -0.4429487 0.008819988 0.8965036 192 192 192 255 0.092715 0.872013
412.8968 500 30.54131 -0.1522915 0.5015891 0.851596 192 192 192 255 0.109558 0.900584
500 500 30.54131 2.602479e-05 3.388788e-05 1 192 192 192 255 0.147701 0.900584
395.0461 436.7372 39.00127 -0.000292674 6.208228e-06 1 192 192 192 255 0.101741 0.872881
420.5818 488.8457 39.00078 -0.0002988768 0.0003918789 0.9999999 192 192 192 255 0.112923 0.8957
500 488.8457 39.00078 0.4665797 0.2819435 0.8383384 192 192 192 255 0.147701 0.8957
412.8968 369.5113 30.54131 -0.1461616 -0.4956205 0.8561525 192 192 192 255 0.109558 0.843443
500 369.5113 30.54131 0.8944272 -0.270241 0.3563282 192 192 192 255 0.12206 0.843443
420.5818 380.6656 39.00078 -0.0002859876 -0.0003793297 0.9999999 192 192 192 255 0.112923 0.848327
500 380.6656 39.00078 0.3299217 -0.3987283 0.8556678 192 192 192 255 0.147701 0.848327
374.4335 434.7556 -30.54131 -0.438998 0.01379068 -0.8983822 192 192 192 255 0.092714 0.872013
412.8968 500 -30.54131 -0.1528072 0.5020961 -0.8512048 192 192 192 255 0.109558 0.843443
500 500 -30.54131 3.900974e-05 2.086081e-05 -1 192 192 192 255 0.147701 0.843443
395.5261 437.9252 -39.00127 -0.0002956722 9.90004e-06 -1 192 192 192 255 0.101951 0.870626
420.5818 488.8457 -39.00078 -0.0003056879 0.0004004421 -0.9999999 192 192 192 255 0.112923 0.848327
500 488.8457 -39.00078 0.4665797 0.2819435 -0.8383384 192 192 192 255 0.147701 0.848327
412.8968 369.5113 -30.54131 -0.1432067 -0.4927809 -0.8582883 192 192 192 255 0.109558 0.900585
500 369.5113 -30.54131 0.8944272 -0.270241 -0.3563282 192 192 192 255 0.118355 0.843443
420.5818 380.6656 -39.00078 -0.00028516 -0.000380509 -0.9999999 192 192 192 255 0.112923 0.8957
500 380.6656 -39.00078 0.3299217 -0.3987283 -0.8556678 192 192 192 255 0.147701 0.8957
449.1537 250 -30.54131 -0.005688386 -7.255087e-06 -0.9999838 192 192 192 255 0.207418 0.872013
449.1537 250 30.54131 -0.005411951 -1.453316e-05 0.9999854 192 192 192 255 0.207418 0.872013
50.84624 250 -30.54131 6.704269e-05 -2.958251e-05 -1 192 192 192 255 0.032997 0.872013
50.84624 250 30.54131 7.176817e-05 -1.479069e-05 1 192 192 192 255 0.032997 0.872013
368.1437 363.7631 -30.54131 -2.447125e-05 -0.006847125 -0.9999766 192 192 192 255 0.171943 0.822196
368.1437 363.7631 30.54131 -1.084439e-05 -0.02221706 0.9997532 192 192 192 255 0.171943 0.921831
131.8563 363.7631 -30.54131 1.102451e-05 -0.02009558 -0.9997981 192 192 192 255 0.068472 0.822196
131.8563 363.7631 30.54131 2.451929e-05 -0.006584216 0.9999784 192 192 192 255 0.068472 0.921831
355.6627 500 30.54131 -4.014466e-05 0.0003408278 1 192 192 192 255 0.166478 0.98149
144.3372 500 30.54131 8.072074e-05 0.0002574507 1 192 192 192 255 0.073937 0.98149
144.3372 500 -30.54131 0.05768607 0.03471404 -0.9977311 192 192 192 255 0.073937 0.762537
355.6627 500 -30.54131 -8.072068e-05 0.000363619 -0.9999999 192 192 192 255 0.133582 0.825743
319.2217 434.7556 -30.54131 -9.80507e-06 2.771526e-05 -1 192 192 192 255 0.15052 0.791108
180.7782 434.7556 -30.54131 0.003638142 0.002043398 -0.9999913 192 192 192 255 0.089895 0.791108
319.6185 434.7556 30.54131 -2.069966e-05 0.01312346 0.9999139 192 192 192 255 0.150694 0.952919
180.7782 434.7556 30.54131 1.20772e-05 0.005824659 0.9999831 192 192 192 255 0.089895 0.952919
332.7939 500 20.87391 -0.1654333 0.5294184 0.8320746 192 192 192 255 0.156464 0.730485
167.206 500 20.87391 0.08198595 0.9084814 0.4098048 192 192 192 255 0.083952 0.730485
192.5157 454.7556 20.87391 0.0002534498 0.4348137 0.9005204 192 192 192 255 0.095035 0.712694
307.4842 454.7556 20.87391 -0.0001358379 0.4349889 0.9004359 192 192 192 255 0.14538 0.712694
332.7939 500 -20.87391 -0.08198595 0.9084814 -0.4098048 192 192 192 255 0.129349 0.835758
167.206 500 -20.87391 0.3797524 0.2138452 -0.9000325 192 192 192 255 0.129349 0.90827
307.4842 454.7556 -20.87391 -0.1571252 0.1777527 -0.9714503 192 192 192 255 0.14538 0.551658
192.5157 454.7556 -20.87391 0.3792893 0.2126503 -0.9005107 192 192 192 255 0.095035 0.551658
1.7e-05 0 30.54131 -0.3333333 -0.6666667 0.6666667 192 192 192 255 0.133582 0.891357
1.7e-05 0 -30.54131 -0.8164966 -0.4082483 -0.4082483 192 192 192 255 0.106833 0.891357
50.84624 0 -30.54131 0.2770244 -0.6257918 -0.729138 192 192 192 255 0.106833 0.869091
50.84624 0 30.54131 0.1878468 -0.8486832 0.4944194 192 192 192 255 0.133582 0.869091
449.1537 0 -30.54131 -0.1821268 -0.0008147699 -0.9832748 192 192 192 255 0.106833 0.874935
449.1537 0 30.54131 -0.1821269 -0.0003710916 0.983275 192 192 192 255 0.133582 0.874935
500 0 -30.54131 2.74657e-05 -5.49314e-05 -1 192 192 192 255 0.106833 0.85267
500 0 30.54131 5.472459e-05 -2.73623e-05 1 192 192 192 255 0.133582 0.85267
64.24625 245.7165 -18.64131 0.3349576 -0.06903135 -0.9397011 192 192 192 255 0.038865 0.87389
64.24625 245.7165 18.64131 0.3128908 -0.1380627 0.939701 192 192 192 255 0.038865 0.870138
138.7645 350.3631 -18.64131 0.0002090358 -0.6636693 -0.7480261 192 192 192 255 0.071497 0.828064
138.7645 350.3631 18.64131 0.0001739973 -0.6634881 0.7481868 192 192 192 255 0.071497 0.915963
361.2355 350.3631 18.64131 -0.0001931401 -0.663696 0.7480025 192 192 192 255 0.168918 0.915963
435.7538 245.7165 18.64131 -0.6636019 -0.0001027748 0.7480859 192 192 192 255 0.20155 0.870138
361.2355 350.3631 -18.64131 -0.0001797872 -0.6634702 -0.7482027 192 192 192 255 0.168918 0.828064
435.7538 245.7164 -18.64131 -0.6636828 -0.0001584527 -0.7480141 192 192 192 255 0.20155 0.87389
64.24625 0 18.64131 0.3221822 -0.7278024 0.6053944 192 192 192 255 0.038865 0.762537
64.24625 0 -18.64131 0.1610912 -0.7278024 -0.6665984 192 192 192 255 0.112045 0.863223
435.7538 0 -18.64131 -0.6639444 -0.000442232 -0.7477819 192 192 192 255 0.20155 0.98149
435.7538 0 18.64131 -0.6638563 -0.0004873479 0.74786 192 192 192 255 0.128371 0.880804
88.34624 238.0126 -18.6413 0.6775075 -0.1396273 -0.7221411 192 192 192 255 0.128371 0.661622
88.34624 238.0126 18.64131 0.6328734 -0.2792546 0.7221413 192 192 192 255 0.112045 0.661622
151.1889 326.2631 -18.64131 0.403273 -0.5347035 -0.7426056 192 192 192 255 0.128371 0.696325
151.1889 326.2631 18.6413 0.2016364 -0.6386546 0.7426055 192 192 192 255 0.112045 0.696325
348.8111 326.2631 18.64129 -0.2335951 -0.4531099 0.860305 192 192 192 255 0.128371 0.696325
411.6537 238.0126 18.64131 -0.7483727 -0.2392279 0.6186342 192 192 192 255 0.128371 0.661622
348.8111 326.2631 -18.64132 -0.3502106 -0.6793119 -0.6448938 192 192 192 255 0.112044 0.696325
411.6537 238.0125 -18.64131 -0.5106087 -0.1632233 -0.8441783 192 192 192 255 0.112044 0.661622
88.34624 0 18.64131 0.6666666 -0.3333334 0.6666667 192 192 192 255 0.112045 0.568026
88.34624 0 -18.64131 0.4082483 -0.8164966 -0.4082483 192 192 192 255 0.128371 0.568026
411.6537 0 -18.64131 -0.6666667 -0.3333333 -0.6666667 192 192 192 255 0.112044 0.568026
411.6537 0 18.64131 -0.4082483 -0.8164966 0.4082483 192 192 192 255 0.128371 0.568026
449.1537 225.9849 30.54131 -0.3682965 -0.02305533 0.9294225 192 192 192 255 0.207418 0.861497
449.1537 123.7278 30.54131 -0.2096727 0.007117015 0.9777457 192 192 192 255 0.207418 0.816718
464.6839 155.7929 30.54131 -0.1105981 0 0.9938653 192 192 192 255 0.214219 0.83076
441.8695 164.0235 24.0725 -0.5522611 0 0.8336713 192 192 192 255 0.204228 0.834364
156.2029 363.7631 30.54131 0.01399723 -0.1851868 0.9826037 192 192 192 255 0.079133 0.921831
275.0555 363.7631 30.54131 -0.00455269 -0.1505184 0.9885967 192 192 192 255 0.13118 0.921831
200.9568 377.4749 30.54131 1.19437e-07 -0.05957672 0.9982237 192 192 192 255 0.098731 0.927836
200.1834 356.0832 23.72107 0 -0.5477853 0.836619 192 192 192 255 0.098393 0.918468
449.1537 56.3525 -30.54131 -0.2202213 0.009076861 -0.9754078 192 192 192 255 0.207418 0.956813
449.1537 224.668 -30.54131 -0.3313292 -0.005152905 -0.9435011 192 192 192 255 0.207418 0.883107
441.838 88.19556 -24.04444 -0.4494397 0 -0.8933107 192 192 192 255 0.204215 0.942868
459.4063 87.20226 -30.54131 -0.1110123 0 -0.9938191 192 192 192 255 0.211908 0.943304
342.7726 363.7631 -30.54131 -0.0123989 -0.1865992 -0.9823579 192 192 192 255 0.160833 0.822196
214.6765 363.7631 -30.54131 0.006039864 -0.1879511 -0.9821599 192 192 192 255 0.104739 0.822196
287.3492 376.5602 -30.54128 0 -0.04877494 -0.9988098 192 192 192 255 0.136563 0.816592
291.9963 355.1676 -22.90796 0 -0.5498703 -0.83525 192 192 192 255 0.138598 0.82596
149.6814 490.4318 -30.54131 0.07611501 0.02968822 -0.996657 192 192 192 255 0.076278 0.766727
172.8026 449.0352 -30.54131 0.07863604 0.05944235 -0.9951296 192 192 192 255 0.086402 0.784855
174.9197 470.0149 -24.70292 0.3062646 0.1711973 -0.9364259 192 192 192 255 0.08733 0.545658
148.7792 467.065 -30.54128 0.03687865 0.02059785 -0.9991075 192 192 192 255 0.075882 0.776959
270.1024 434.7557 30.54131 -0.007764484 0.1257177 0.9920357 192 192 192 255 0.129011 0.952919
199.7213 434.7556 30.54131 0.007600088 0.1614808 0.9868466 192 192 192 255 0.09819 0.952919
263.9274 446.4955 24.86663 -7.433832e-08 0.3795469 0.9251725 192 192 192 255 0.126307 0.709445
250.3444 425.3673 30.54128 -3.299579e-08 0.03970785 0.9992114 192 192 192 255 0.120359 0.948808
62.80717 380.6656 -39.00078 -0.01400735 -0.1228955 -0.9923208 192 192 192 255 0.120218 0.8957
22.74377 380.6656 -39.00078 0.01193543 -0.1121175 -0.9936233 192 192 192 255 0.102674 0.8957
39.4655 372.6798 -32.94434 0 -0.5016368 -0.8650783 192 192 192 255 0.109997 0.899197
47.27113 391.5661 -39.00078 1.637096e-09 -0.05206538 -0.9986437 192 192 192 255 0.113415 0.890926
-7e-06 500 -30.54131 -3.927019e-05 3.152546e-05 -1 192 192 192 255 0.12206 0.900584
-3.1e-05 488.8457 -39.00078 -0.0002327457 0.000140643 -1 192 192 192 255 0.118355 0.8957
-3.1e-05 380.6656 -39.00078 -8.8439e-05 -0.01701571 -0.9998553 192 192 192 255 0.118355 0.848327
-3.1e-05 369.5113 -30.54131 -0.00177485 -0.6042762 -0.796773 192 192 192 255 0.092715 0.900584
-3.1e-05 380.6656 39.00078 -0.3299218 -0.3987285 0.8556677 192 192 192 255 0.12206 0.848327
-3.1e-05 488.8457 39.00078 -0.46658 0.2819438 0.8383382 192 192 192 255 0.12206 0.8957
-7e-06 500 30.54131 -5.827312e-05 5.058646e-05 1 192 192 192 255 0.118355 0.900584
-3.1e-05 369.5113 30.54131 -0.8944277 -0.2702411 0.3563271 192 192 192 255 0.092715 0.843443
500 500 30.54131 2.602479e-05 3.388788e-05 1 192 192 192 255 0.12206 0.900584
500 488.8457 39.00078 0.4665797 0.2819435 0.8383384 192 192 192 255 0.118355 0.8957
500 380.6656 39.00078 0.3299217 -0.3987283 0.8556678 192 192 192 255 0.118355 0.848327
500 369.5113 30.54131 0.8944272 -0.270241 0.3563282 192 192 192 255 0.147701 0.843443
500 380.6656 -39.00078 0.3299217 -0.3987283 -0.8556678 192 192 192 255 0.12206 0.848327
500 488.8457 -39.00078 0.4665797 0.2819435 -0.8383384 192 192 192 255 0.12206 0.8957
500 500 -30.54131 3.900974e-05 2.086081e-05 -1 192 192 192 255 0.118355 0.900584
500 369.5113 -30.54131 0.8944272 -0.270241 -0.3563282 192 192 192 255 0.147701 0.900585
-7e-06 500 -30.54131 -3.927019e-05 3.152546e-05 -1 192 192 192 255 0.010731 0.762537
-7e-06 500 30.54131 -5.827312e-05 5.058646e-05 1 192 192 192 255 0.010731 0.98149
151.1889 326.2631 18.6413 0.2016364 -0.6386546 0.7426055 192 192 192 255 0.128371 0.671032
151.1889 326.2631 -18.64131 0.403273 -0.5347035 -0.7426056 192 192 192 255 0.112044 0.671032
348.8111 326.2631 -18.64132 -0.3502106 -0.6793119 -0.6448938 192 192 192 255 0.112044 0.59332
348.8111 326.2631 18.64129 -0.2335951 -0.4531099 0.860305 192 192 192 255 0.128371 0.59332
500 500 -30.54131 3.900974e-05 2.086081e-05 -1 192 192 192 255 0.229684 0.762537
500 500 30.54131 2.602479e-05 3.388788e-05 1 192 192 192 255 0.229684 0.98149
167.206 500 20.87391 0.08198595 0.9084814 0.4098048 192 192 192 255 0.111067 0.90827
332.7939 500 20.87391 -0.1654333 0.5294184 0.8320746 192 192 192 255 0.111067 0.835758
167.206 500 -20.87391 0.3797524 0.2138452 -0.9000325 192 192 192 255 0.083952 0.533866
332.7939 500 -20.87391 -0.08198595 0.9084814 -0.4098048 192 192 192 255 0.156464 0.533866
-7e-06 500 30.54131 -5.827312e-05 5.058646e-05 1 192 192 192 255 0.106833 0.98149
144.3372 500 30.54131 8.072074e-05 0.0002574507 1 192 192 192 255 0.106833 0.918284
144.3372 500 -30.54131 0.05768607 0.03471404 -0.9977311 192 192 192 255 0.133582 0.918284
-7e-06 500 -30.54131 -3.927019e-05 3.152546e-05 -1 192 192 192 255 0.133582 0.98149
355.6627 500 30.54131 -4.014466e-05 0.0003408278 1 192 192 192 255 0.106833 0.825743
500 500 30.54131 2.602479e-05 3.388788e-05 1 192 192 192 255 0.106833 0.762537
500 500 -30.54131 3.900974e-05 2.086081e-05 -1 192 192 192 255 0.133582 0.762537
355.6627 500 -30.54131 -8.072068e-05 0.000363619 -0.9999999 192 192 192 255 0.166478 0.762537
144.3372 500 30.54131 8.072074e-05 0.0002574507 1 192 192 192 255 0.073937 0.730485
180.7782 434.7556 30.54131 1.20772e-05 0.005824659 0.9999831 192 192 192 255 0.089895 0.704829
319.6185 434.7556 30.54131 -2.069966e-05 0.01312346 0.9999139 192 192 192 255 0.150694 0.704829
270.1024 434.7557 30.54131 -0.007764484 0.1257177 0.9920357 192 192 192 255 0.129011 0.704829
199.7213 434.7556 30.54131 0.007600088 0.1614808 0.9868466 192 192 192 255 0.09819 0.704829
355.6627 500 30.54131 -4.014466e-05 0.0003408278 1 192 192 192 255 0.166478 0.730485
355.6627 500 -30.54131 -8.072068e-05 0.000363619 -0.9999999 192 192 192 255 0.166478 0.533866
319.2217 434.7556 -30.54131 -9.80507e-06 2.771526e-05 -1 192 192 192 255 0.15052 0.559523
180.7782 434.7556 -30.54131 0.003638142 0.002043398 -0.9999913 192 192 192 255 0.089895 0.559523
172.8026 449.0352 -30.54131 0.07863604 0.05944235 -0.9951296 192 192 192 255 0.086402 0.553908
149.6814 490.4318 -30.54131 0.07611501 0.02968822 -0.996657 192 192 192 255 0.076278 0.537629
144.3372 500 -30.54131 0.05768607 0.03471404 -0.9977311 192 192 192 255 0.073937 0.533866
-7e-06 500 30.54131 -5.827312e-05 5.058646e-05 1 192 192 192 255 0.133582 0.98149
-7e-06 500 -30.54131 -3.927019e-05 3.152546e-05 -1 192 192 192 255 0.106833 0.98149
1.7e-05 0 -30.54131 -0.8164966 -0.4082483 -0.4082483 192 192 192 255 0.106833 0.762537
1.7e-05 0 30.54131 -0.3333333 -0.6666667 0.6666667 192 192 192 255 0.133582 0.762537
50.84624 0 -30.54131 0.2770244 -0.6257918 -0.729138 192 192 192 255 0.032997 0.98149
1.7e-05 0 -30.54131 -0.8164966 -0.4082483 -0.4082483 192 192 192 255 0.010731 0.98149
1.7e-05 0 30.54131 -0.3333333 -0.6666667 0.6666667 192 192 192 255 0.010731 0.762537
50.84624 0 30.54131 0.1878468 -0.8486832 0.4944194 192 192 192 255 0.032997 0.762537
500 0 -30.54131 2.74657e-05 -5.49314e-05 -1 192 192 192 255 0.229684 0.98149
449.1537 0 -30.54131 -0.1821268 -0.0008147699 -0.9832748 192 192 192 255 0.207418 0.98149
500 500 -30.54131 3.900974e-05 2.086081e-05 -1 192 192 192 255 0.133582 0.98149
500 500 30.54131 2.602479e-05 3.388788e-05 1 192 192 192 255 0.106833 0.98149
500 0 30.54131 5.472459e-05 -2.73623e-05 1 192 192 192 255 0.106833 0.762537
500 0 -30.54131 2.74657e-05 -5.49314e-05 -1 192 192 192 255 0.133582 0.762537
500 0 30.54131 5.472459e-05 -2.73623e-05 1 192 192 192 255 0.229684 0.762537
449.1537 0 30.54131 -0.1821269 -0.0003710916 0.983275 192 192 192 255 0.207418 0.762537
64.24625 0 18.64131 0.3221822 -0.7278024 0.6053944 192 192 192 255 0.128371 0.863223
64.24625 0 -18.64131 0.1610912 -0.7278024 -0.6665984 192 192 192 255 0.038865 0.98149
435.7538 0 -18.64131 -0.6639444 -0.000442232 -0.7477819 192 192 192 255 0.112045 0.880804
435.7538 0 18.64131 -0.6638563 -0.0004873479 0.74786 192 192 192 255 0.20155 0.762537
64.24625 245.7165 -18.64131 0.3349576 -0.06903135 -0.9397011 192 192 192 255 0.038865 0.63386
138.7645 350.3631 -18.64131 0.0002090358 -0.6636693 -0.7480261 192 192 192 255 0.071497 0.592709
151.1889 326.2631 -18.64131 0.403273 -0.5347035 -0.7426056 192 192 192 255 0.076938 0.602186
88.34624 238.0126 -18.6413 0.6775075 -0.1396273 -0.7221411 192 192 192 255 0.049419 0.63689
138.7645 350.3631 18.64131 0.0001739973 -0.6634881 0.7481868 192 192 192 255 0.071497 0.671642
64.24625 245.7165 18.64131 0.3128908 -0.1380627 0.939701 192 192 192 255 0.038865 0.630491
88.34624 238.0126 18.64131 0.6328734 -0.2792546 0.7221413 192 192 192 255 0.049419 0.627462
151.1889 326.2631 18.6413 0.2016364 -0.6386546 0.7426055 192 192 192 255 0.076938 0.662165
435.7538 245.7165 18.64131 -0.6636019 -0.0001027748 0.7480859 192 192 192 255 0.20155 0.630491
361.2355 350.3631 18.64131 -0.0001931401 -0.663696 0.7480025 192 192 192 255 0.168918 0.671642
348.8111 326.2631 18.64129 -0.2335951 -0.4531099 0.860305 192 192 192 255 0.163478 0.662165
411.6537 238.0126 18.64131 -0.7483727 -0.2392279 0.6186342 192 192 192 255 0.190997 0.627462
361.2355 350.3631 -18.64131 -0.0001797872 -0.6634702 -0.7482027 192 192 192 255 0.168918 0.592709
435.7538 245.7164 -18.64131 -0.6636828 -0.0001584527 -0.7480141 192 192 192 255 0.20155 0.63386
411.6537 238.0125 -18.64131 -0.5106087 -0.1632233 -0.8441783 192 192 192 255 0.190997 0.63689
348.8111 326.2631 -18.64132 -0.3502106 -0.6793119 -0.6448938 192 192 192 255 0.163478 0.602186
64.24625 0 18.64131 0.3221822 -0.7278024 0.6053944 192 192 192 255 0.038865 0.533866
88.34624 0 18.64131 0.6666666 -0.3333334 0.6666667 192 192 192 255 0.049419 0.533866
64.24625 0 18.64131 0.3221822 -0.7278024 0.6053944 192 192 192 255 0.128371 0.624282
64.24625 0 -18.64131 0.1610912 -0.7278024 -0.6665984 192 192 192 255 0.112045 0.624282
88.34624 0 -18.64131 0.4082483 -0.8164966 -0.4082483 192 192 192 255 0.112045 0.614805
88.34624 0 18.64131 0.6666666 -0.3333334 0.6666667 192 192 192 255 0.128371 0.614805
64.24625 0 -18.64131 0.1610912 -0.7278024 -0.6665984 192 192 192 255 0.038865 0.730485
88.34624 0 -18.64131 0.4082483 -0.8164966 -0.4082483 192 192 192 255 0.049419 0.730485
435.7538 0 -18.64131 -0.6639444 -0.000442232 -0.7477819 192 192 192 255 0.20155 0.730485
411.6537 0 -18.64131 -0.6666667 -0.3333333 -0.6666667 192 192 192 255 0.190997 0.730485
435.7538 0 -18.64131 -0.6639444 -0.000442232 -0.7477819 192 192 192 255 0.112045 0.640069
435.7538 0 18.64131 -0.6638563 -0.0004873479 0.74786 192 192 192 255 0.128371 0.640069
411.6537 0 18.64131 -0.4082483 -0.8164966 0.4082483 192 192 192 255 0.128371 0.649546
411.6537 0 -18.64131 -0.6666667 -0.3333333 -0.6666667 192 192 192 255 0.112045 0.649546
435.7538 0 18.64131 -0.6638563 -0.0004873479 0.74786 192 192 192 255 0.20155 0.533866
411.6537 0 18.64131 -0.4082483 -0.8164966 0.4082483 192 192 192 255 0.190997 0.533866
174.9197 470.0149 -24.70292 0.3062646 0.1711973 -0.9364259 192 192 192 255 0.08733 0.775668
263.9274 446.4955 24.86663 -7.433832e-08 0.3795469 0.9251725 192 192 192 255 0.126307 0.95806
3 4 3 8 
3 5 4 9 
3 9 4 121 
3 121 4 123 
3 8 120 4 
3 4 120 123 
3 0 3 4 
3 0 4 1 
3 1 4 5 
3 1 5 2 
3 7 124 125 
3 7 125 126 
3 0 6 8 
3 0 8 3 
3 9 121 127 
3 121 122 127 
3 127 122 6 
3 122 120 6 
3 6 120 8 
3 14 18 13 
3 15 19 18 
3 15 18 14 
3 10 11 14 
3 10 14 13 
3 11 12 15 
3 11 15 14 
3 17 128 129 
3 17 129 130 
3 10 13 18 
3 10 18 16 
3 16 18 19 
3 16 19 131 
3 24 23 28 
3 25 24 28 
3 25 28 29 
3 20 23 24 
3 20 24 21 
3 21 24 25 
3 21 25 22 
3 27 132 133 
3 27 133 134 
3 20 26 28 
3 20 28 23 
3 26 135 29 
3 26 29 28 
3 34 38 33 
3 35 39 38 
3 35 38 34 
3 30 31 34 
3 30 34 33 
3 31 32 35 
3 31 35 34 
3 37 136 137 
3 37 137 138 
3 30 33 38 
3 30 38 36 
3 36 38 39 
3 36 39 139 
3 64 65 66 
3 64 66 67 
3 69 68 70 
3 69 70 71 
3 85 84 86 
3 85 86 87 
3 46 140 53 
3 141 55 49 
3 89 88 90 
3 89 90 91 
3 142 143 144 
3 142 144 145 
3 44 52 146 
3 147 45 41 
3 40 44 146 
3 46 42 140 
3 141 43 47 
3 53 140 113 
3 113 140 115 
3 115 140 112 
3 140 50 112 
3 141 47 55 
3 147 54 45 
3 56 57 58 
3 56 58 59 
3 148 149 60 
3 148 60 61 
3 150 151 62 
3 150 62 63 
3 152 153 154 
3 152 154 155 
3 147 48 54 
3 51 156 157 
3 51 157 158 
3 146 52 159 
3 45 54 101 
3 47 100 55 
3 100 102 55 
3 54 116 101 
3 116 119 101 
3 101 119 102 
3 119 117 102 
3 117 55 102 
3 44 108 52 
3 46 53 109 
3 108 110 52 
3 52 110 53 
3 110 109 53 
3 160 161 58 
3 160 58 57 
3 162 59 163 
3 161 164 58 
3 163 59 118 
3 59 58 118 
3 164 118 58 
3 162 165 56 
3 162 56 59 
3 156 51 60 
3 156 60 149 
3 154 153 148 
3 154 148 61 
3 166 167 62 
3 166 62 151 
3 167 168 63 
3 167 63 62 
3 168 169 63 
3 169 114 63 
3 63 114 150 
3 114 170 150 
3 170 171 150 
3 172 173 174 
3 172 174 175 
3 140 42 176 
3 140 176 177 
3 84 85 92 
3 84 92 93 
3 43 141 178 
3 43 178 179 
3 89 91 94 
3 89 94 95 
3 146 180 40 
3 40 180 105 
3 105 180 107 
3 107 180 104 
3 180 181 104 
3 182 183 184 
3 182 184 185 
3 147 41 186 
3 41 96 186 
3 96 98 186 
3 98 97 186 
3 97 187 186 
3 42 46 74 
3 42 74 72 
3 47 43 73 
3 47 73 75 
3 41 45 76 
3 41 76 77 
3 44 40 79 
3 44 79 78 
3 46 109 74 
3 44 78 108 
3 108 78 111 
3 78 74 111 
3 109 111 74 
3 45 101 76 
3 47 75 100 
3 100 75 103 
3 75 76 103 
3 101 103 76 
3 43 179 80 
3 43 80 73 
3 67 66 81 
3 67 81 188 
3 176 42 72 
3 176 72 189 
3 40 105 79 
3 79 105 82 
3 105 106 82 
3 106 104 82 
3 104 181 82 
3 68 69 83 
3 68 83 190 
3 41 77 96 
3 187 97 191 
3 96 77 99 
3 77 191 99 
3 97 99 191 
3 192 193 194 
3 192 194 195 
3 196 197 198 
3 196 198 199 
3 200 201 202 
3 200 202 203 
3 204 205 206 
3 204 206 207 
3 193 204 207 
3 193 207 194 
3 201 196 199 
3 201 199 202 
3 197 208 209 
3 197 209 198 
3 210 211 212 
3 210 212 213 
3 214 192 195 
3 214 195 215 
3 205 216 217 
3 205 217 206 
3 218 219 220 
3 218 220 221 
3 222 200 203 
3 222 203 223 
3 99 98 96 
3 97 98 99 
3 103 102 100 
3 101 102 103 
3 105 107 106 
3 106 107 104 
3 110 111 109 
3 108 111 110 
3 112 224 115 
3 115 224 113 
3 119 225 117 
3 116 225 119 
3 122 123 120 
3 121 123 122 
