ply
format ascii 1.0
comment VCGLIB generated
comment TextureFile Dungeons_2_Texture_01_A.png
element vertex 342
property float x
property float y
property float z
property float nx
property float ny
property float nz
property uchar red
property uchar green
property uchar blue
property uchar alpha
property float texture_u
property float texture_v
element face 500
property list uchar int vertex_indices
end_header
53.66113 -0.083633 0.307617 -0.005949683 0.7102376 -0.7039369 192 192 192 255 0.061184 0.733912
166.5977 -3.256988 67.37695 0.00260486 0.9992847 -0.03772658 192 192 192 255 0.104574 0.708101
38.12793 -3.83047 462.7119 0.07151081 0.9947588 -0.07308263 192 192 192 255 0.055216 0.555962
143.1299 -0.04094 357.1318 0.01435285 0.9997653 -0.0162269 192 192 192 255 0.07134 0.826337
463.4883 -3.803944 463.1152 -0.0906475 0.9930481 -0.07508996 192 192 192 255 0.21654 0.778055
158.0068 -3.085712 96.48633 0.1072693 0.9902947 -0.08837319 192 192 192 255 0.078117 0.945078
464.0186 -3.743392 256.7725 -0.07443863 0.9971681 0.01071361 192 192 192 255 0.218843 0.635215
481.8135 -0.004959 17.62598 0.01649922 0.9989958 -0.04165687 192 192 192 255 0.224888 0.981003
0.142578 -0.86506 167.4717 -0.7564629 0.6336647 0.1619661 192 192 192 255 0.005456 0.912739
437.0645 -3.815598 201.502 0.07007839 0.9975352 0.003536894 192 192 192 255 0.208487 0.656485
383.4346 -1.932974 73.5166 -0.007901241 0.9924121 -0.1227021 192 192 192 255 0.180814 0.955542
189.7051 -0.862995 484.123 0.0418915 0.9895782 0.1377686 192 192 192 255 0.091814 0.768485
126.3096 -0.087042 84.30273 0.03796525 0.994433 -0.09829424 192 192 192 255 0.063677 0.950628
0.837891 -0.110834 113.1846 -0.6526256 0.7542356 -0.07217135 192 192 192 255 0.005773 0.937471
22.03613 -0.107376 499.4307 -0.07025385 0.7166836 0.6938509 192 192 192 255 0.01543 0.761511
143.1963 -0.041557 143.1553 0.01500932 0.9997721 0.01518398 192 192 192 255 0.07137 0.923817
10.97754 -0.031608 69.5166 -0.1181263 0.9907134 0.06732976 192 192 192 255 0.010392 0.957364
15.27832 -0.064619 212.2432 -0.1285775 0.9915752 -0.01569921 192 192 192 255 0.012351 0.892343
143.0449 -0.038312 195.1328 0.1209794 0.9893124 0.08139522 192 192 192 255 0.071301 0.900138
190.8545 -0.415117 89.67383 -0.2191342 0.970706 -0.09853915 192 192 192 255 0.093081 0.948181
-0.022461 -1.291586 471.4541 -0.9496707 0.3090219 0.05129509 192 192 192 255 0.040559 0.552598
172.875 -3.837241 177.334 0.04989885 0.9980673 0.03703948 192 192 192 255 0.084891 0.908246
6.837891 -0.018395 177.2578 -0.3223677 0.9452153 0.05144997 192 192 192 255 0.008506 0.908281
294.4258 -3.829693 242.8125 -0.01266709 0.9997811 -0.01665571 192 192 192 255 0.153686 0.640588
231.8193 -0.204383 145.0088 0.01292553 0.9963588 0.08427384 192 192 192 255 0.111744 0.922973
-0.000977 -18.3798 215.249 -0.999865 -0.01337905 0.00954237 192 192 192 255 0.040567 0.651195
247.417 -4.45557 193.6924 -0.02035109 0.9997501 -0.009257656 192 192 192 255 0.135625 0.659491
355.4062 -0.039982 94.11523 -0.006098812 0.9982367 -0.05904594 192 192 192 255 0.168045 0.946158
8.525391 -0.645266 230.5625 -0.3519503 0.9354997 0.03116463 192 192 192 255 0.009275 0.883997
414.8545 -0.039779 84.39941 0.05582906 0.996404 -0.06373554 192 192 192 255 0.195128 0.950584
267.333 -0.101322 371.8096 0.02270417 0.9953535 -0.0935741 192 192 192 255 0.127922 0.819651
365.0166 -0.001545 17.0918 -0.02510758 0.99702 0.07294391 192 192 192 255 0.17168 0.981247
146.791 -2.590966 250.2559 -0.05450536 0.9981423 -0.02722405 192 192 192 255 0.073008 0.875026
136.0986 -1.767062 235.9072 0.03603921 0.9992124 0.01660379 192 192 192 255 0.068137 0.881563
307.7734 -5.714168 0.823242 0.04627922 0.70018 -0.7124649 192 192 192 255 0.158814 0.733714
4.146484 -1.799739 42.53125 -0.5498119 0.8336332 -0.05256061 192 192 192 255 0.042161 0.717663
0.299805 -5.472309 197.5098 -0.8389616 0.5432138 0.03259088 192 192 192 255 0.040683 0.658022
493.4688 -0.004486 400.8438 0.1845902 0.9766228 -0.1101558 192 192 192 255 0.230198 0.806424
386.4287 -0.043091 207.293 -0.0008082789 0.9999996 -0.0004949732 192 192 192 255 0.182178 0.894598
481.5225 -0.065674 307.4541 0.05346091 0.9978678 -0.03744265 192 192 192 255 0.224756 0.848969
92.90625 -9.322755 500.002 0.01614241 0.06575063 0.9977055 192 192 192 255 0.076262 0.541612
1.043945 -22.79078 4.3125 -0.698313 -0.7149457 0.03480799 192 192 192 255 0.040969 0.732371
323.2734 -9.584805 500.002 -0.006432308 0.1324912 0.9911633 192 192 192 255 0.164769 0.541612
170.6963 -7.852721 499.999 0.009425675 0.2586083 0.9659363 192 192 192 255 0.106149 0.541613
143.7949 -0.052099 295.1328 0.06216406 0.9980136 -0.01022734 192 192 192 255 0.071643 0.854582
449.709 -0.059558 0.202148 0.03903798 0.7113758 -0.7017268 192 192 192 255 0.210263 0.988941
496.2236 -22.90051 495.334 0.01296965 -0.9998792 0.008564263 192 192 192 255 0.231216 0.543408
136.127 -0.042032 400.7744 0.02533895 0.9982352 0.05370729 192 192 192 255 0.06815 0.806455
321.623 -0.042711 113.459 0.004427614 0.9998605 -0.01610547 192 192 192 255 0.152655 0.937346
284.1885 -6.395465 499.9932 -0.04785335 0.4322399 0.9004881 192 192 192 255 0.149753 0.541615
499.9424 -0.096889 216.2939 0.7063568 0.7051474 0.06186495 192 192 192 255 0.232645 0.650793
266.9004 -0.213577 83.37695 -0.007293556 0.9941208 -0.1080315 192 192 192 255 0.127725 0.95105
4.361328 -1.809177 483.2402 -0.2228807 0.9619159 0.1582466 192 192 192 255 0.007378 0.768887
249.0605 -3.832206 283.375 0.0008275652 0.999984 -0.005599102 192 192 192 255 0.136256 0.624978
188.3457 -3.832067 59.76758 0.001545879 0.9996033 -0.02812367 192 192 192 255 0.11293 0.71103
252.5752 -22.7874 499.79 -0.02753688 -0.6595609 0.7511466 192 192 192 255 0.137607 0.541693
129.4541 -0.044759 286.4365 0.01846847 0.9996708 -0.0178104 192 192 192 255 0.06511 0.858543
18.45215 -0.007894 254.7607 0.09069622 0.9958762 -0.002197286 192 192 192 255 0.013797 0.872974
0.016602 -6.971703 44.8252 -0.9631981 0.2677753 -0.02336455 192 192 192 255 0.040574 0.71678
290.4482 -5.489022 209.1641 0.03447684 0.9964668 0.07658555 192 192 192 255 0.152158 0.653537
337.5625 -2.983049 2.428711 -0.08932878 0.9531431 -0.2890304 192 192 192 255 0.170259 0.733096
1.174805 -2.816379 222.2822 -0.7607543 0.6436263 0.0836551 192 192 192 255 0.041019 0.648488
132.1006 -3.669218 64.38477 0.01734438 0.9960408 -0.08718879 192 192 192 255 0.09132 0.709253
500.002 -22.7388 234.9258 0.7777574 -0.6282929 0.01848105 192 192 192 255 0.232668 0.643623
279.5293 -0.041703 132.5791 -0.0044533 0.9992915 0.03737113 192 192 192 255 0.133479 0.928635
233.4561 -2.062284 472.0703 -0.02353658 0.997229 -0.07057172 192 192 192 255 0.111745 0.773976
265.9521 -2.745178 335.0537 -9.992232e-05 0.9994956 -0.03176012 192 192 192 255 0.127293 0.836395
117.0381 -0.041085 266.6895 0.01998228 0.999756 -0.009418314 192 192 192 255 0.059453 0.867539
251.0889 -8.414111 499.3525 -0.07454789 0.4620212 0.8837302 192 192 192 255 0.137036 0.541862
403.0439 -0.008239 210.8506 0.07061182 0.9973727 0.01617744 192 192 192 255 0.189748 0.892977
206.167 -5.654974 499.2881 0.06619441 0.6390543 0.7663081 192 192 192 255 0.119777 0.541887
146.6348 -2.113678 88.20312 0.09849268 0.9903643 -0.09735352 192 192 192 255 0.072937 0.948851
0.000977 -7.543717 268.4785 -0.9866474 0.1619872 -0.01694846 192 192 192 255 0.040568 0.63071
273.876 -3.828298 216.9688 -0.05607558 0.9983518 0.01221841 192 192 192 255 0.14579 0.650533
400.2686 -0.940018 244.7754 0.08765811 0.99585 -0.02447365 192 192 192 255 0.188483 0.877523
163.8984 -0.037372 481.5684 0.02407918 0.9993649 -0.02626902 192 192 192 255 0.080057 0.769649
36.09961 -3.751606 107.5166 0.05656191 0.9983832 -0.005645313 192 192 192 255 0.054437 0.692654
308.4902 -0.035448 84.26172 0.04568635 0.9876799 -0.1496703 192 192 192 255 0.146672 0.950647
1.822266 -0.727751 54.48535 -0.6801963 0.7327778 -0.01922318 192 192 192 255 0.006221 0.964212
18.65625 -0.123897 307.7617 0.08977491 0.99595 -0.004913648 192 192 192 255 0.01389 0.848828
124.626 -1.414681 423.4609 0.02168975 0.9928197 0.1176373 192 192 192 255 0.06291 0.79612
307.7881 -3.832168 205.9014 -0.02422639 0.9996727 0.008228795 192 192 192 255 0.15882 0.654792
220.3818 -3.247896 73.57227 -0.01665709 0.9952587 -0.09582622 192 192 192 255 0.106533 0.955516
229.6992 -0.087937 89.72461 -0.01145208 0.996161 -0.08678758 192 192 192 255 0.110778 0.948158
468.7334 -1.421272 2.871094 0.04636247 0.8210834 -0.5689224 192 192 192 255 0.220655 0.732926
354.6064 -3.614045 435.2666 0.002629535 0.9907326 0.1358021 192 192 192 255 0.176807 0.566524
219.2412 -0.041224 357.3242 0.0139928 0.9981226 -0.05962827 192 192 192 255 0.106013 0.82625
0.78418 -22.81417 322.0391 -0.6084873 -0.7935627 -0.001214894 192 192 192 255 0.040869 0.610098
161.8428 -3.211037 82.85254 0.03543812 0.9993619 -0.004466553 192 192 192 255 0.079865 0.951289
290.1846 -2.202981 160.7363 0.0007111104 0.9928266 0.1195614 192 192 192 255 0.138333 0.915808
0.854492 -0.068377 319.7939 -0.6508999 0.7590039 -0.01556805 192 192 192 255 0.040896 0.610962
304.8271 -8.690948 0.00293 0.01387043 0.1118893 -0.9936239 192 192 192 255 0.157682 0.734029
336.6904 -1.840117 497.9453 -0.09598006 0.7755423 0.6239567 192 192 192 255 0.169924 0.542403
407.9072 -4.096778 418.6963 0.1330532 0.9906335 -0.03069251 192 192 192 255 0.191963 0.798291
311.3438 -5.715976 498.7021 0.04213236 0.5343602 0.8442062 192 192 192 255 0.160186 0.542112
158.2188 -3.830467 447.3086 0.00271281 0.9999117 -0.01300769 192 192 192 255 0.101355 0.56189
297.2988 -1.450819 379.1172 -0.02587647 0.9934047 -0.1117033 192 192 192 255 0.141574 0.816322
262.6318 -1.33765 364.3047 0.02274504 0.9901436 -0.1381968 192 192 192 255 0.125781 0.82307
336.7539 -3.812351 36.95801 -0.006125369 0.9968632 0.07890742 192 192 192 255 0.169948 0.719808
36.01172 -3.482666 34.71191 0.08113988 0.9931986 0.0835041 192 192 192 255 0.021797 0.97322
0.817383 -0.141643 473.7842 -0.6719496 0.7002466 0.2411193 192 192 192 255 0.005763 0.773195
113.5938 -0.048217 218.9648 0.02629769 0.9996122 0.009170119 192 192 192 255 0.057884 0.889281
171.7129 -3.907431 94.27832 -0.007104136 0.9977501 -0.06666532 192 192 192 255 0.084361 0.946083
307.5244 -0.351051 146.2227 -0.007371977 0.9964622 0.083718 192 192 192 255 0.146232 0.92242
437.8262 -3.829214 62.51074 0.01782809 0.9996551 -0.01928282 192 192 192 255 0.20878 0.709974
401.1797 -0.492318 402.5762 0.1930492 0.9795307 0.05702347 192 192 192 255 0.188898 0.805635
18.95605 -0.120916 65.82129 0.1010375 0.9947062 0.01873703 192 192 192 255 0.014027 0.959047
189.4766 -3.89685 72.74805 -0.0410956 0.9978828 0.05040884 192 192 192 255 0.092454 0.955892
127.2529 0.004599 484.6465 -0.001415743 0.999067 0.04316365 192 192 192 255 0.063363 0.768246
189.4795 -3.795139 436.4678 -0.002370972 0.9970677 0.07648797 192 192 192 255 0.092455 0.790195
422.6318 -3.817196 437.2461 0.01080938 0.9999399 -0.001854666 192 192 192 255 0.202942 0.565763
297.9297 -2.622757 497.4102 -0.0007674408 0.8086327 0.5883135 192 192 192 255 0.141117 0.762432
326.8477 -3.828168 327.0127 -0.04877181 0.9977339 -0.04635073 192 192 192 255 0.155035 0.840059
1.016602 -0.812627 306.8496 -0.6086484 0.7926622 -0.03512536 192 192 192 255 0.040958 0.615944
30.10254 -5.480239 0.379883 -0.01999436 0.09830691 -0.9949553 192 192 192 255 0.052133 0.733884
366.9502 -0.128376 0.130859 -0.03306176 0.7181889 -0.6950624 192 192 192 255 0.172561 0.988973
499.4141 -8.403863 292.5625 0.8730609 0.4875897 0.004567091 192 192 192 255 0.232442 0.621442
499.9189 -0.109346 34.94043 0.7069924 0.7069702 -0.01884032 192 192 192 255 0.232636 0.720584
-0.004883 -19.47324 236.1406 -0.9973776 -0.07185839 -0.008617375 192 192 192 255 0.040566 0.643155
145.9639 -3.815913 437.1123 0.02796648 0.9988407 0.03917985 192 192 192 255 0.072631 0.789901
213.1797 -3.829962 201.4912 0.009203951 0.9999514 -0.003554443 192 192 192 255 0.122471 0.656489
144.709 -22.82323 499.8447 -0.001759048 -0.6910042 0.7228486 192 192 192 255 0.096165 0.541672
231.1426 -3.832041 233.9697 0.03485731 0.9993832 0.004286286 192 192 192 255 0.129372 0.643991
243.8877 -2.092557 154.4561 0.01215917 0.9933774 0.1142523 192 192 192 255 0.117242 0.918669
18.80664 -0.071196 360.8516 0.1036537 0.9946128 -0.001132565 192 192 192 255 0.013959 0.824643
414.8438 -0.040676 170.8271 0.09027089 0.9954239 0.03134535 192 192 192 255 0.195123 0.911211
61.58789 -3.829313 62.46191 -0.01628883 0.9997574 -0.01482827 192 192 192 255 0.064229 0.709993
56.41504 -22.79429 0.142578 -0.00126354 -0.6948927 -0.7191123 192 192 192 255 0.062242 0.733976
283.458 -0.003411 482.2158 -0.005136626 0.9998607 -0.01588169 192 192 192 255 0.134525 0.769354
499.8896 -22.78397 499.7715 0.5816589 -0.5723671 0.5779869 192 192 192 255 0.232625 0.5417
475.7686 -22.83047 499.9248 -0.001024178 -0.6987792 0.7153367 192 192 192 255 0.223358 0.541641
160.6621 -0.042442 119.0752 0.01686379 0.9984758 -0.0525522 192 192 192 255 0.079327 0.934787
1.871094 -3.087426 1.410156 -0.5936858 0.5658385 -0.5721573 192 192 192 255 0.006243 0.988391
243.4414 -3.830912 214.4951 -0.003961942 0.9999915 0.001155666 192 192 192 255 0.134098 0.651485
0.774414 -22.82857 142.7832 -0.6160884 -0.7876704 0.003230487 192 192 192 255 0.040865 0.679082
464.3652 -3.67429 37.08203 -0.08102813 0.9943575 0.06846564 192 192 192 255 0.21694 0.97214
250.0742 -22.94379 497.7549 -0.0002814865 -0.99955 0.02999519 192 192 192 255 0.136646 0.542477
343.499 -0.135221 415.96 0.003441285 0.9960122 0.08915097 192 192 192 255 0.162621 0.799537
342.6846 -0.003546 490.6182 -0.02948399 0.9943693 0.1017868 192 192 192 255 0.161506 0.765526
491.5244 -0.565125 327.9688 0.2667055 0.961915 -0.05989716 192 192 192 255 0.229411 0.607816
75.69629 -0.181172 499.3916 0.01177078 0.7242862 0.6893989 192 192 192 255 0.039876 0.761529
387.5449 -0.585226 415.6953 0.03843569 0.9958057 0.08302833 192 192 192 255 0.182687 0.799658
5.649414 -22.90052 5.360352 -0.009411718 -0.9993255 -0.03549732 192 192 192 255 0.042738 0.731968
108.6934 -1.524801 496.9746 0.003977811 0.797122 0.6038052 192 192 192 255 0.054908 0.76263
262.3066 -2.503288 70.23438 -0.007040482 0.9896637 -0.1432347 192 192 192 255 0.125633 0.957037
6.097656 -0.350639 265.1865 -0.3457707 0.9376625 -0.03509507 192 192 192 255 0.008169 0.868224
200.1914 -22.80378 0.131836 -0.0009232719 -0.7001997 -0.7139465 192 192 192 255 0.117481 0.73398
100.7314 -22.82004 0.136719 6.238228e-05 -0.7000524 -0.7140915 192 192 192 255 0.079268 0.733978
395.7588 -0.043001 98.43066 -0.009342229 0.9996151 -0.02612395 192 192 192 255 0.186429 0.944192
412.085 -1.86926 187.1738 0.3635691 0.9248371 0.1117763 192 192 192 255 0.193866 0.903764
-0.03418 -21.08613 458.2061 -0.8372459 -0.5467954 0.005845898 192 192 192 255 0.040554 0.557696
275.0156 0.006499 17.25 0.03600813 0.9987952 0.03334049 192 192 192 255 0.130678 0.981175
436.502 -3.728049 339.4512 0.08912791 0.9960202 9.787326e-05 192 192 192 255 0.20499 0.834392
220.7334 -0.045462 375.8848 0.00672299 0.9999661 -0.004763424 192 192 192 255 0.106693 0.817794
21.29199 -0.162574 19.26758 -0.02596878 0.999657 0.003388616 192 192 192 255 0.015091 0.980256
326.4258 -2.483177 79.37891 0.006985753 0.9979289 -0.06394621 192 192 192 255 0.154843 0.952871
430.2227 -2.574903 177.957 0.1416625 0.9897288 0.01920105 192 192 192 255 0.202129 0.907963
499.5869 -4.870979 271.4834 0.8121032 0.5827236 0.03036009 192 192 192 255 0.232509 0.629554
326.9678 -3.825782 173.0166 -0.05121021 0.9975656 0.04733269 192 192 192 255 0.15509 0.910213
164.8857 -3.221035 497.083 0.1285402 0.8661561 0.4829608 192 192 192 255 0.103916 0.542735
211 -1.443804 417.5918 -0.06716949 0.9790635 0.1921534 192 192 192 255 0.102259 0.798794
373.9863 -0.04017 237.2568 0.008500361 0.999963 0.001355081 192 192 192 255 0.17651 0.880948
156.0215 -1.620461 235.79 0.06105265 0.9980929 0.009122835 192 192 192 255 0.077213 0.881616
291.1895 -2.162259 1.355469 0.07269706 0.8022756 -0.5925108 192 192 192 255 0.152442 0.733509
377.5957 -22.78839 499.7939 -0.0004703088 -0.7003295 0.7138196 192 192 192 255 0.18564 0.541692
266.4238 -4.960647 210.5059 -0.01657586 0.9998276 0.008377432 192 192 192 255 0.142927 0.65302
278.5889 -2.529427 340.167 -0.04301818 0.9986855 0.02787144 192 192 192 255 0.13305 0.834066
1.037109 -4.629478 81.1084 -0.8108572 0.5847725 0.02349 192 192 192 255 0.040966 0.702817
62.07422 -3.82976 437.2666 -0.02056198 0.9995648 0.02115254 192 192 192 255 0.034414 0.789831
490.2324 -2.037026 281.541 0.2446652 0.9690687 0.03232261 192 192 192 255 0.228724 0.860774
499.8906 -0.102025 499.8086 0.5762118 0.5791711 0.5766636 192 192 192 255 0.232625 0.541686
18.33691 -0.01213 482.0918 -0.02013713 0.9997903 0.003721988 192 192 192 255 0.013745 0.76941
232.4072 -2.432664 484.2734 -0.2375812 0.9667113 0.09499722 192 192 192 255 0.111268 0.768416
499.9062 -0.10411 402.4883 0.6509681 0.6854441 -0.326201 192 192 192 255 0.232631 0.579139
380.0645 -0.046091 276.2646 9.012615e-05 1 5.243345e-05 192 192 192 255 0.179279 0.863177
258.8037 -3.84078 251.1729 -0.05708569 0.9960718 -0.06769235 192 192 192 255 0.14 0.63737
304.1201 -2.146665 21.53027 0.05744769 0.9954285 -0.07630146 192 192 192 255 0.143937 0.979225
336.54 -2.617136 69.52051 -0.01037429 0.9943414 -0.1057237 192 192 192 255 0.169866 0.707276
415.4326 -4.065311 234.0195 0.03533152 0.9990901 0.02389071 192 192 192 255 0.195391 0.882423
499.5527 -3.252713 0.783203 0.5945896 0.5386263 -0.5969464 192 192 192 255 0.232495 0.733729
499.8525 -22.79021 0.125 0.5840058 -0.560006 -0.5876483 192 192 192 255 0.232611 0.733982
423.3594 -1.385835 269.4795 0.1116868 0.9935459 -0.01981342 192 192 192 255 0.199003 0.866268
499.9971 -6.769811 398.5898 0.9625153 0.2581738 -0.08312991 192 192 192 255 0.232666 0.580639
426.5664 -2.574704 226.8428 0.02447636 0.9995777 0.01566483 192 192 192 255 0.200464 0.885692
356.6807 -0.041917 357.0088 -0.01716906 0.9997775 -0.01225332 192 192 192 255 0.168626 0.826393
272.3613 -3.830817 173.6621 0.006854814 0.9970211 0.07682446 192 192 192 255 0.145209 0.667199
194.9092 -0.042116 114.7305 -0.02595169 0.9993405 -0.0253971 192 192 192 255 0.094929 0.936766
305.6943 -1.896247 359.1123 -0.05921821 0.9981056 -0.01668416 192 192 192 255 0.145398 0.825435
-0.004883 -21.66654 57.58496 -0.9479573 -0.3183961 -0.0009877958 192 192 192 255 0.040566 0.71187
415.1367 -4.317632 410.7051 0.03908875 0.9982775 0.04375125 192 192 192 255 0.195257 0.801931
204.1123 -3.822103 172.834 0.004680098 0.9978819 0.06488346 192 192 192 255 0.118987 0.667518
4.97168 -22.90052 495.2715 -0.03051566 -0.9995254 -0.004213501 192 192 192 255 0.042478 0.543432
28.16699 -2.075449 354.5059 0.195376 0.9807274 -0.001437664 192 192 192 255 0.018223 0.827534
277.7051 -4.246042 240.8838 -0.02118433 0.9986743 -0.04691476 192 192 192 255 0.147262 0.64133
185.4814 -2.488741 93.87988 -0.2146779 0.9752181 -0.0535071 192 192 192 255 0.090634 0.946265
177.1494 -1.794071 425.4502 -0.07286622 0.9853421 0.1542448 192 192 192 255 0.086838 0.795214
498.5684 -22.92657 290.5781 0.6590601 -0.7499188 -0.05711088 192 192 192 255 0.232117 0.622206
83.13086 -0.256404 415.4443 -0.06458437 0.9961474 0.05932366 192 192 192 255 0.044006 0.799772
268.5078 0.049524 1.759766 0.2061734 0.8366203 -0.5075027 192 192 192 255 0.127714 0.988231
408.7568 -0.071086 367.9746 0.05426848 0.9982436 0.02376253 192 192 192 255 0.19235 0.821398
301.1006 -0.047517 389.4971 -0.006784496 0.9994255 -0.03320564 192 192 192 255 0.143306 0.811593
170.7354 -3.630674 329.5879 0.04955906 0.9975844 -0.04867486 192 192 192 255 0.083916 0.838885
496.0645 -3.408313 235.7461 0.7025029 0.6990493 0.1334907 192 192 192 255 0.231155 0.643307
223.6709 -6.585618 495.2637 0.08245544 0.8217219 0.5638921 192 192 192 255 0.126502 0.543435
18.88477 -0.084552 137.0225 0.1046261 0.994417 -0.01372228 192 192 192 255 0.013994 0.926611
499.9209 -3.200716 343.5518 0.8376071 0.5446976 -0.04145879 192 192 192 255 0.232637 0.601819
498.2939 -0.917369 365.2373 0.5886056 0.8083767 0.008404595 192 192 192 255 0.232396 0.822645
300.7461 -4.326717 173.7002 -0.005613231 0.9979054 0.06444722 192 192 192 255 0.156114 0.667184
496.0322 -22.90054 3.879883 0.00927799 -0.9998828 -0.01218508 192 192 192 255 0.231143 0.732537
463.9092 -22.76415 0.078125 0.0006449252 -0.6950601 -0.7189514 192 192 192 255 0.218801 0.734
337.5859 -0.284011 354.3936 -0.01032987 0.9976271 -0.06806919 192 192 192 255 0.159927 0.827585
1.335938 -7.437974 228.6768 -0.9315223 0.3511592 0.09462304 192 192 192 255 0.041081 0.646027
0.321289 -22.78203 499.8018 -0.6077151 -0.5218874 0.5985951 192 192 192 255 0.040691 0.541689
292.5312 -3.831948 198.2119 -0.01138852 0.9994779 0.03023695 192 192 192 255 0.152958 0.657751
356.8057 -0.041416 142.5635 -0.01537198 0.9997606 0.01557428 192 192 192 255 0.168683 0.924087
3.966797 -4.157405 497.5801 -0.5688588 0.5659423 0.5967486 192 192 192 255 0.007198 0.762354
150.5098 -1.293831 401.918 0.02298866 0.9254867 0.3780819 192 192 192 255 0.074702 0.805934
273.165 -4.16322 348.5303 -0.01078854 0.9999385 0.00254409 192 192 192 255 0.130579 0.830256
131.8281 -1.661816 218.1318 0.03550334 0.99899 0.02754177 192 192 192 255 0.066191 0.88966
163.5146 -4.529758 430.4502 -0.02023037 0.9981852 0.05671967 192 192 192 255 0.080626 0.792936
246.8193 -5.549748 245.248 0.03531088 0.998917 -0.03029698 192 192 192 255 0.135395 0.63965
282.0898 -4.633543 195.125 -0.04531684 0.9987084 -0.02297788 192 192 192 255 0.148946 0.658939
149.7197 -1.118405 499.4102 0.03229072 0.6982166 0.715158 192 192 192 255 0.09809 0.54184
9.222656 -0.011362 51.56641 -0.07383871 0.9968581 -0.02866706 192 192 192 255 0.009593 0.965541
219.3789 -3.82662 437.3848 -0.007791759 0.9971033 0.07565892 192 192 192 255 0.124853 0.565709
432.3174 -2.95186 384.9385 0.0936166 0.9952963 0.02492486 192 192 192 255 0.203084 0.81367
415.8486 -0.089801 328.8311 0.08855446 0.9960711 0.0006948876 192 192 192 255 0.195581 0.83923
478.1064 -0.254258 480.3125 -0.02968203 0.9990568 -0.03169445 192 192 192 255 0.2232 0.770221
0.212891 -22.70414 0.084961 -0.6615229 -0.524394 -0.5360956 192 192 192 255 0.040649 0.733998
441.3203 -3.839601 435.2812 -0.001816976 0.9999982 -0.0005595236 192 192 192 255 0.210123 0.566519
477.9121 -2.530894 266.6592 -0.02161286 0.9996535 -0.01502905 192 192 192 255 0.223111 0.867553
26.40137 -0.514337 1.478516 -0.05080553 0.7727226 -0.6327074 192 192 192 255 0.050711 0.733461
63.74219 -3.664849 181.3682 -0.09590257 0.9953907 -0.0004519068 192 192 192 255 0.035174 0.906409
405.2236 -1.713685 393.3955 0.3243169 0.9399654 0.106224 192 192 192 255 0.190741 0.809817
230.0127 -2.198515 339.4346 0.0155563 0.9937137 -0.1108652 192 192 192 255 0.110921 0.8344
-0.004883 -5.86525 169.4092 -0.9798822 0.1635613 0.1143621 192 192 192 255 0.040566 0.668836
480.6523 -0.18449 240.9092 0.008116798 0.9977491 0.06656497 192 192 192 255 0.224359 0.879284
376.0137 -0.08524 499.291 -0.0001471243 0.7235221 0.6903012 192 192 192 255 0.17669 0.761575
138.8516 -0.871477 220.4873 -0.04040103 0.998897 -0.02393098 192 192 192 255 0.069391 0.888587
254.8467 -0.99849 488.3047 -0.04994239 0.9612505 0.2711147 192 192 192 255 0.12149 0.76658
499.9385 -22.81231 297.2236 0.7534709 -0.6546144 -0.06133142 192 192 192 255 0.232644 0.619648
499.9287 -22.82374 14.68457 0.7175233 -0.6965191 -0.004656908 192 192 192 255 0.23264 0.728379
403.2246 -0.041749 275.9971 0.03219244 0.9993862 -0.01382105 192 192 192 255 0.18983 0.863299
0.042969 -8.423532 67.37793 -0.9966809 0.07991927 0.0154963 192 192 192 255 0.040584 0.708101
218.3906 -0.062166 415.5078 -0.03780706 0.9935233 0.1071546 192 192 192 255 0.105626 0.799743
272.2793 -3.797039 0.00293 0.1288922 0.4893059 -0.8625349 192 192 192 255 0.145177 0.734029
82.97363 -0.283693 84.81348 -0.06416184 0.9961445 -0.05982893 192 192 192 255 0.043935 0.950395
9.080078 -2.266537 103.0625 0.04083543 0.996392 -0.07440171 192 192 192 255 0.009528 0.942082
174.2764 -0.042503 399.9453 -0.02021949 0.9982985 0.05469202 192 192 192 255 0.085529 0.806833
198.5586 -22.73963 499.8857 0.007212211 -0.6502777 0.7596624 192 192 192 255 0.116854 0.541657
453.9814 -6.975819 0.010742 0.04075857 0.0641557 -0.9971072 192 192 192 255 0.214987 0.734026
436.4736 -3.768462 115.4736 0.0856243 0.9963275 -0.0001289858 192 192 192 255 0.204977 0.936428
38.12793 -3.83047 462.7119 0.07151081 0.9947588 -0.07308263 192 192 192 255 0.022761 0.778239
326.8477 -3.828168 327.0127 -0.04877181 0.9977339 -0.04635073 192 192 192 255 0.166142 0.608184
463.4883 -3.803944 463.1152 -0.0906475 0.9930481 -0.07508996 192 192 192 255 0.218639 0.555807
63.74219 -3.664849 181.3682 -0.09590257 0.9953907 -0.0004519068 192 192 192 255 0.065057 0.664234
204.1123 -3.822103 172.834 0.004680098 0.9978819 0.06488346 192 192 192 255 0.099121 0.910296
22.03613 -0.107376 499.4307 -0.07025385 0.7166836 0.6938509 192 192 192 255 0.049034 0.541832
464.3652 -3.67429 37.08203 -0.08102813 0.9943575 0.06846564 192 192 192 255 0.218976 0.71976
464.0186 -3.743392 256.7725 -0.07443863 0.9971681 0.01071361 192 192 192 255 0.216782 0.872057
481.5225 -0.065674 307.4541 0.05346091 0.9978678 -0.03744265 192 192 192 255 0.225568 0.615711
36.09961 -3.751606 107.5166 0.05656191 0.9983832 -0.005645313 192 192 192 255 0.021837 0.940053
0.142578 -0.86506 167.4717 -0.7564629 0.6336647 0.1619661 192 192 192 255 0.040622 0.669581
0.837891 -0.110834 113.1846 -0.6526256 0.7542356 -0.07217135 192 192 192 255 0.040889 0.690473
336.7539 -3.812351 36.95801 -0.006125369 0.9968632 0.07890742 192 192 192 255 0.158804 0.972197
336.54 -2.617136 69.52051 -0.01037429 0.9943414 -0.1057237 192 192 192 255 0.159451 0.957362
437.8262 -3.829214 62.51074 0.01782809 0.9996551 -0.01928282 192 192 192 255 0.205593 0.960556
233.4561 -2.062284 472.0703 -0.02353658 0.997229 -0.07057172 192 192 192 255 0.130261 0.552361
132.1006 -3.669218 64.38477 0.01734438 0.9960408 -0.08718879 192 192 192 255 0.066315 0.959702
61.58789 -3.829313 62.46191 -0.01628883 0.9997574 -0.01482827 192 192 192 255 0.034192 0.960578
170.7354 -3.630674 329.5879 0.04955906 0.9975844 -0.04867486 192 192 192 255 0.106164 0.607193
62.07422 -3.82976 437.2666 -0.02056198 0.9995648 0.02115254 192 192 192 255 0.064416 0.565755
491.5244 -0.565125 327.9688 0.2667055 0.961915 -0.05989716 192 192 192 255 0.229312 0.839623
53.66113 -0.083633 0.307617 -0.005949683 0.7102376 -0.7039369 192 192 192 255 0.029837 0.988893
1.037109 -4.629478 81.1084 -0.8108572 0.5847725 0.02349 192 192 192 255 0.005863 0.952083
326.9678 -3.825782 173.0166 -0.05121021 0.9975656 0.04733269 192 192 192 255 0.166188 0.667447
1.822266 -0.727751 54.48535 -0.6801963 0.7327778 -0.01922318 192 192 192 255 0.041268 0.713063
219.3789 -3.82662 437.3848 -0.007791759 0.9971033 0.07565892 192 192 192 255 0.106076 0.789777
8.525391 -0.645266 230.5625 -0.3519503 0.9354997 0.03116463 192 192 192 255 0.043843 0.645302
0.854492 -0.068377 319.7939 -0.6508999 0.7590039 -0.01556805 192 192 192 255 0.00578 0.843347
1.871094 -3.087426 1.410156 -0.5936858 0.5658385 -0.5721573 192 192 192 255 0.041286 0.733488
232.4072 -2.432664 484.2734 -0.2375812 0.9667113 0.09499722 192 192 192 255 0.129858 0.547665
354.6064 -3.614045 435.2666 0.002629535 0.9907326 0.1358021 192 192 192 255 0.167681 0.790742
366.9502 -0.128376 0.130859 -0.03306176 0.7181889 -0.6950624 192 192 192 255 0.18155 0.73398
4.146484 -1.799739 42.53125 -0.5498119 0.8336332 -0.05256061 192 192 192 255 0.00728 0.969658
15.27832 -0.064619 212.2432 -0.1285775 0.9915752 -0.01569921 192 192 192 255 0.046437 0.652352
493.4688 -0.004486 400.8438 0.1845902 0.9766228 -0.1101558 192 192 192 255 0.230158 0.579771
499.9062 -0.10411 402.4883 0.6509681 0.6854441 -0.326201 192 192 192 255 0.233131 0.805675
189.4795 -3.795139 436.4678 -0.002370972 0.9970677 0.07648797 192 192 192 255 0.113365 0.566062
6.097656 -0.350639 265.1865 -0.3457707 0.9376625 -0.03509507 192 192 192 255 0.04291 0.631977
272.2793 -3.797039 0.00293 0.1288922 0.4893059 -0.8625349 192 192 192 255 0.129432 0.989032
291.1895 -2.162259 1.355469 0.07269706 0.8022756 -0.5925108 192 192 192 255 0.138047 0.988416
220.3818 -3.247896 73.57227 -0.01665709 0.9952587 -0.09582622 192 192 192 255 0.125238 0.705717
145.9639 -3.815913 437.1123 0.02796648 0.9988407 0.03917985 192 192 192 255 0.096647 0.565814
188.3457 -3.832067 59.76758 0.001545879 0.9996033 -0.02812367 192 192 192 255 0.091939 0.961805
468.7334 -1.421272 2.871094 0.04636247 0.8210834 -0.5689224 192 192 192 255 0.21893 0.987725
342.6846 -0.003546 490.6182 -0.02948399 0.9943693 0.1017868 192 192 192 255 0.172227 0.545223
254.8467 -0.99849 488.3047 -0.04994239 0.9612505 0.2711147 192 192 192 255 0.138479 0.546113
272.3613 -3.830817 173.6621 0.006854814 0.9970211 0.07682446 192 192 192 255 0.130213 0.909919
300.7461 -4.326717 173.7002 -0.005613231 0.9979054 0.06444722 192 192 192 255 0.143144 0.909902
161.8428 -3.211037 82.85254 0.03543812 0.9993619 -0.004466553 192 192 192 255 0.102747 0.702146
189.4766 -3.89685 72.74805 -0.0410956 0.9978828 0.05040884 192 192 192 255 0.113364 0.706034
499.9209 -3.200716 343.5518 0.8376071 0.5446976 -0.04145879 192 192 192 255 0.233137 0.832524
499.9424 -0.096889 216.2939 0.7063568 0.7051474 0.06186495 192 192 192 255 0.233147 0.890498
407.9072 -4.096778 418.6963 0.1330532 0.9906335 -0.03069251 192 192 192 255 0.197285 0.572901
415.1367 -4.317632 410.7051 0.03908875 0.9982775 0.04375125 192 192 192 255 0.200063 0.575976
304.1201 -2.146665 21.53027 0.05744769 0.9954285 -0.07630146 192 192 192 255 0.15741 0.725745
3.966797 -4.157405 497.5801 -0.5688588 0.5659423 0.5967486 192 192 192 255 0.042091 0.542544
6.837891 -0.018395 177.2578 -0.3223677 0.9452153 0.05144997 192 192 192 255 0.043195 0.665815
490.2324 -2.037026 281.541 0.2446652 0.9690687 0.03232261 192 192 192 255 0.228915 0.625683
432.3174 -2.95186 384.9385 0.0936166 0.9952963 0.02492486 192 192 192 255 0.206664 0.585892
108.6934 -1.524801 496.9746 0.003977811 0.797122 0.6038052 192 192 192 255 0.082327 0.542777
149.7197 -1.118405 499.4102 0.03229072 0.6982166 0.715158 192 192 192 255 0.073598 0.761521
436.502 -3.728049 339.4512 0.08912791 0.9960202 9.787326e-05 192 192 192 255 0.208271 0.603397
437.0645 -3.815598 201.502 0.07007839 0.9975352 0.003536894 192 192 192 255 0.205246 0.897236
496.0645 -3.408313 235.7461 0.7025029 0.6990493 0.1334907 192 192 192 255 0.231381 0.881636
163.5146 -4.529758 430.4502 -0.02023037 0.9981852 0.05671967 192 192 192 255 0.10339 0.568378
499.5527 -3.252713 0.783203 0.5945896 0.5386263 -0.5969464 192 192 192 255 0.23297 0.988676
297.9297 -2.622757 497.4102 -0.0007674408 0.8086327 0.5883135 192 192 192 255 0.155032 0.542609
26.40137 -0.514337 1.478516 -0.05080553 0.7727226 -0.6327074 192 192 192 255 0.017419 0.98836
171.7129 -3.907431 94.27832 -0.007104136 0.9977501 -0.06666532 192 192 192 255 0.106539 0.697749
164.8857 -3.221035 497.083 0.1285402 0.8661561 0.4829608 192 192 192 255 0.080507 0.762581
-0.022461 -1.291586 471.4541 -0.9496707 0.3090219 0.05129509 192 192 192 255 0.005381 0.774256
158.0068 -3.085712 96.48633 0.1072693 0.9902947 -0.08837319 192 192 192 255 0.101274 0.696899
337.5625 -2.983049 2.428711 -0.08932878 0.9531431 -0.2890304 192 192 192 255 0.159173 0.987927
422.6318 -3.817196 437.2461 0.01080938 0.9999399 -0.001854666 192 192 192 255 0.198671 0.78984
265.9521 -2.745178 335.0537 -9.992232e-05 0.9994956 -0.03176012 192 192 192 255 0.142746 0.60509
189.7051 -0.862995 484.123 0.0418915 0.9895782 0.1377686 192 192 192 255 0.113452 0.547723
499.9189 -0.109346 34.94043 0.7069924 0.7069702 -0.01884032 192 192 192 255 0.233137 0.973116
172.875 -3.837241 177.334 0.04989885 0.9980673 0.03703948 192 192 192 255 0.106986 0.665786
449.709 -0.059558 0.202148 0.03903798 0.7113758 -0.7017268 192 192 192 255 0.213345 0.733953
75.69629 -0.181172 499.3916 0.01177078 0.7242862 0.6893989 192 192 192 255 0.06965 0.541847
436.4736 -3.768462 115.4736 0.0856243 0.9963275 -0.0001289858 192 192 192 255 0.20826 0.689592
430.2227 -2.574903 177.957 0.1416625 0.9897288 0.01920105 192 192 192 255 0.205859 0.665546
1.016602 -0.812627 306.8496 -0.6086484 0.7926622 -0.03512536 192 192 192 255 0.005854 0.849244
36.01172 -3.482666 34.71191 0.08113988 0.9931986 0.0835041 192 192 192 255 0.054403 0.720672
376.0137 -0.08524 499.291 -0.0001471243 0.7235221 0.6903012 192 192 192 255 0.185032 0.541885
498.2939 -0.917369 365.2373 0.5886056 0.8083767 0.008404595 192 192 192 255 0.232012 0.593474
336.6904 -1.840117 497.9453 -0.09598006 0.7755423 0.6239567 192 192 192 255 0.158775 0.762188
1.174805 -2.816379 222.2822 -0.7607543 0.6436263 0.0836551 192 192 192 255 0.005926 0.88777
426.5664 -2.574704 226.8428 0.02447636 0.9995777 0.01566483 192 192 192 255 0.204454 0.646733
499.8906 -0.102025 499.8086 0.5762118 0.5791711 0.5766636 192 192 192 255 0.233124 0.761339
3 200 244 137 
3 20 72 118 
3 142 208 191 
3 208 46 191 
3 150 20 118 
3 208 196 46 
3 0 147 127 
3 185 190 26 
3 236 7 135 
3 104 54 177 
3 156 251 29 
3 214 184 161 
3 76 2 126 
3 99 151 154 
3 246 232 197 
3 98 126 54 
3 227 4 128 
3 124 171 252 
3 252 65 4 
3 232 168 197 
3 252 171 65 
3 227 128 138 
3 110 85 224 
3 77 83 64 
3 148 214 125 
3 158 112 214 
3 81 23 253 
3 44 197 3 
3 30 153 244 
3 64 83 186 
3 67 101 197 
3 201 44 3 
3 201 86 234 
3 182 170 129 
3 6 229 254 
3 110 95 254 
3 184 214 112 
3 37 39 227 
3 171 124 100 
3 108 14 140 
3 95 2 254 
3 255 126 2 
3 24 15 256 
3 257 121 40 
3 49 55 42 
3 54 126 62 
3 98 54 104 
3 258 9 6 
3 236 135 259 
3 240 182 129 
3 116 260 139 
3 115 31 7 
3 91 250 146 
3 24 131 15 
3 194 102 186 
3 199 184 105 
3 117 50 63 
3 99 154 106 
3 223 16 106 
3 235 167 188 
3 171 100 52 
3 13 8 22 
3 261 192 252 
3 262 263 235 
3 4 65 128 
3 258 98 104 
3 31 176 264 
3 97 153 30 
3 43 222 121 
3 201 3 86 
3 86 3 248 
3 187 166 217 
3 183 178 181 
3 29 125 156 
3 178 183 69 
3 38 214 161 
3 265 10 266 
3 148 27 214 
3 203 267 70 
3 65 171 75 
3 268 269 246 
3 101 246 197 
3 268 246 12 
3 202 157 63 
3 202 63 50 
3 3 47 248 
3 120 270 122 
3 53 270 253 
3 263 167 235 
3 21 15 18 
3 80 168 119 
3 95 271 2 
3 175 220 53 
3 53 122 270 
3 223 78 16 
3 261 204 57 
3 118 25 134 
3 61 36 25 
3 153 86 248 
3 186 131 24 
3 102 131 186 
3 77 51 83 
3 168 80 197 
3 3 197 47 
3 248 219 195 
3 248 47 216 
3 153 248 244 
3 112 210 184 
3 200 30 244 
3 0 245 146 
3 12 101 15 
3 12 246 101 
3 162 44 201 
3 173 170 182 
3 272 39 37 
3 205 182 240 
3 82 107 19 
3 154 132 223 
3 273 154 198 
3 38 161 69 
3 183 156 149 
3 201 234 66 
3 212 20 150 
3 108 140 143 
3 57 204 17 
3 17 28 57 
3 142 146 208 
3 157 196 63 
3 218 238 21 
3 21 162 201 
3 152 181 226 
3 48 64 214 
3 261 99 106 
3 16 274 247 
3 20 90 72 
3 275 81 253 
3 243 188 167 
3 275 207 213 
3 160 248 195 
3 64 186 24 
3 214 64 103 
3 89 103 64 
3 188 41 134 
3 58 41 188 
3 276 35 58 
3 45 115 7 
3 174 184 242 
3 65 172 239 
3 275 213 81 
3 93 105 141 
3 27 48 214 
3 77 64 48 
3 110 224 95 
3 160 109 277 
3 26 190 120 
3 120 190 270 
3 84 179 250 
3 278 61 211 
3 92 94 42 
3 29 266 10 
3 29 10 148 
3 29 148 125 
3 73 165 193 
3 261 57 79 
3 124 279 100 
3 57 145 79 
3 280 114 228 
3 252 192 124 
3 125 214 38 
3 125 38 69 
3 236 259 230 
3 189 233 93 
3 113 72 90 
3 281 267 203 
3 75 171 108 
3 70 43 249 
3 12 15 131 
3 67 197 56 
3 242 184 199 
3 184 137 105 
3 137 244 282 
3 283 250 91 
3 163 34 245 
3 265 155 27 
3 223 132 284 
3 179 117 241 
3 79 279 124 
3 285 36 61 
3 204 22 17 
3 123 256 89 
3 207 185 221 
3 19 186 83 
3 286 173 182 
3 287 37 227 
3 233 105 93 
3 224 288 95 
3 179 241 180 
3 184 210 137 
3 278 211 289 
3 24 256 123 
3 290 151 291 
3 32 56 44 
3 66 234 217 
3 54 1 292 
3 95 293 271 
3 205 116 139 
3 230 259 39 
3 225 233 189 
3 222 40 121 
3 49 68 55 
3 208 241 63 
3 231 0 114 
3 13 22 204 
3 220 122 53 
3 133 122 220 
3 280 228 41 
3 169 230 39 
3 72 211 118 
3 88 71 5 
3 150 191 212 
3 181 74 242 
3 178 74 181 
3 69 161 74 
3 161 184 174 
3 294 144 265 
3 196 240 46 
3 116 240 196 
3 295 45 7 
3 296 94 92 
3 223 284 78 
3 281 203 297 
3 298 299 89 
3 209 180 208 
3 146 209 208 
3 1 300 301 
3 234 97 217 
3 234 86 97 
3 46 240 129 
3 18 101 218 
3 112 166 210 
3 226 242 199 
3 21 18 218 
3 302 272 206 
3 138 128 111 
3 159 222 43 
3 208 63 196 
3 214 103 158 
3 7 236 303 
3 304 229 305 
3 123 89 64 
3 187 217 96 
3 107 102 194 
3 19 107 194 
3 144 83 51 
3 149 69 183 
3 213 207 73 
3 221 185 165 
3 165 185 133 
3 105 137 141 
3 74 161 242 
3 161 174 242 
3 23 175 53 
3 193 165 220 
3 193 220 175 
3 188 276 58 
3 52 215 14 
3 60 34 306 
3 23 193 175 
3 88 268 71 
3 20 212 307 
3 133 26 122 
3 136 164 55 
3 228 127 41 
3 33 67 56 
3 308 262 235 
3 244 277 282 
3 244 160 277 
3 221 165 73 
3 15 101 18 
3 75 11 65 
3 265 27 148 
3 157 202 309 
3 55 70 249 
3 203 70 55 
3 211 25 118 
3 310 305 229 
3 311 40 222 
3 108 143 312 
3 6 9 313 
3 181 314 183 
3 282 141 137 
3 75 108 312 
3 81 59 23 
3 315 230 169 
3 101 67 33 
3 78 274 16 
3 216 119 219 
3 316 293 95 
3 162 33 32 
3 21 238 162 
3 117 63 241 
3 144 82 83 
3 294 82 144 
3 243 276 188 
3 295 7 317 
3 291 151 176 
3 296 318 94 
3 97 86 153 
3 303 236 315 
3 217 30 96 
3 103 89 299 
3 309 260 116 
3 46 164 136 
3 319 132 154 
3 301 300 320 
3 245 34 91 
3 191 46 136 
3 191 134 142 
3 160 195 109 
3 318 49 94 
3 75 321 11 
3 297 203 68 
3 47 197 80 
3 288 316 95 
3 109 195 219 
3 151 99 264 
3 10 265 148 
3 157 116 196 
3 52 100 322 
3 155 48 27 
3 54 62 1 
3 257 212 121 
3 273 319 154 
3 199 105 233 
3 300 323 320 
3 108 171 14 
3 14 171 52 
3 324 176 31 
3 141 282 325 
3 253 270 326 
3 114 0 127 
3 13 261 247 
3 238 33 162 
3 318 297 49 
3 261 106 247 
3 226 199 225 
3 152 226 225 
3 82 19 83 
3 113 211 72 
3 28 145 57 
3 210 166 187 
3 327 159 70 
3 317 7 328 
3 280 231 114 
3 181 242 226 
3 210 200 137 
3 118 87 150 
3 250 209 146 
3 245 91 146 
3 156 125 149 
3 43 121 249 
3 190 329 270 
3 15 21 256 
3 70 159 43 
3 125 69 149 
3 114 127 228 
3 46 129 130 
3 42 55 164 
3 42 164 130 
3 46 130 164 
3 238 218 33 
3 150 87 191 
3 118 134 87 
3 7 264 135 
3 191 121 212 
3 217 97 30 
3 330 250 283 
3 250 330 84 
3 215 52 322 
3 248 216 219 
3 254 229 110 
3 40 331 257 
3 311 331 40 
3 41 142 134 
3 41 127 142 
3 138 237 227 
3 147 142 127 
3 9 332 333 
3 89 256 298 
3 33 56 32 
3 290 198 151 
3 198 154 151 
3 185 26 133 
3 313 229 6 
3 145 334 79 
3 79 334 279 
3 147 146 142 
3 4 39 259 
3 35 280 58 
3 58 280 41 
3 211 61 25 
3 69 74 178 
3 71 12 131 
3 5 71 131 
3 110 229 304 
3 155 77 48 
3 210 187 200 
3 25 188 134 
3 235 188 25 
3 157 309 116 
3 258 332 9 
3 75 312 321 
3 203 55 68 
3 64 24 123 
3 247 274 13 
3 80 216 47 
3 0 146 147 
3 152 314 181 
3 98 335 126 
3 126 335 76 
3 60 91 34 
3 191 136 121 
3 136 249 121 
3 249 136 55 
3 336 42 130 
3 77 144 51 
3 144 77 155 
3 265 144 155 
3 218 101 33 
3 205 337 182 
3 111 128 239 
3 162 32 44 
3 250 179 180 
3 207 221 73 
3 106 16 247 
3 19 194 186 
3 138 338 237 
3 92 42 336 
3 261 79 192 
3 1 301 292 
3 165 133 220 
3 198 290 273 
3 213 59 81 
3 124 192 79 
3 236 230 315 
3 56 197 44 
3 200 187 96 
3 116 205 240 
3 204 261 13 
3 119 216 80 
3 229 313 310 
3 154 223 106 
3 23 53 253 
3 167 276 243 
3 337 286 182 
3 17 339 28 
3 34 163 306 
3 113 289 211 
3 60 283 91 
3 115 324 31 
3 65 239 128 
3 59 213 73 
3 1 62 300 
3 96 30 200 
3 272 37 206 
3 26 120 122 
3 225 199 233 
3 333 340 9 
3 264 7 31 
3 287 227 341 
3 59 73 193 
3 255 2 271 
3 269 232 246 
3 170 130 129 
3 170 336 130 
3 341 227 237 
3 102 5 131 
3 94 49 42 
3 166 66 217 
3 71 268 12 
3 134 191 87 
3 100 279 322 
3 297 68 49 
3 328 7 303 
3 235 25 36 
3 59 193 23 
3 112 66 166 
3 299 158 103 
3 36 308 235 
3 4 227 39 
3 248 160 244 
3 208 180 241 
3 250 180 209 
3 267 327 70 
3 307 212 257 
3 308 36 285 
3 141 325 93 
3 151 264 176 
3 251 266 29 
3 258 104 332 
