ply
format ascii 1.0
comment VCGLIB generated
comment TextureFile Dungeons_2_Texture_01_A.png
element vertex 62
property float x
property float y
property float z
property float nx
property float ny
property float nz
property uchar red
property uchar green
property uchar blue
property uchar alpha
property float texture_u
property float texture_v
element face 120
property list uchar int vertex_indices
end_header
3.05e-05 125.1085 -218.7554 -0.3333333 0.6666667 0.6666667 192 192 192 255 0.056854 0.751219
3.05e-05 125.1085 -250.0061 -0.3333333 0.6666667 -0.6666667 192 192 192 255 0.045422 0.751219
3.05e-05 109.4699 -218.7554 -0.557086 0.3713908 0.7427814 192 192 192 255 0.059715 0.751219
3.05e-05 109.4699 -187.5046 -0.0004390261 0.9999998 0.000439026 192 192 192 255 0.071147 0.751219
3.05e-05 93.83138 -187.5046 -0.1021953 0.0003391362 0.9947643 192 192 192 255 0.074008 0.751219
3.05e-05 93.83138 -156.2538 -0.9999833 0.004092277 0.004092277 192 192 192 255 0.085439 0.751219
3.05e-05 78.19282 -156.2538 -0.9999931 0.003321243 0.001660622 192 192 192 255 0.0883 0.751219
3.05e-05 78.19282 -125.0031 -0.9999582 0.004092177 0.008184356 192 192 192 255 0.099732 0.751219
3.05e-05 62.55425 -125.0031 -0.9999986 0.001179886 0.001179886 192 192 192 255 0.102593 0.751219
3.05e-05 62.55425 -93.75229 -0.5105461 0.8598478 0.002089331 192 192 192 255 0.114024 0.751219
3.05e-05 46.91568 -93.75229 -0.1429047 0.0003374219 0.9897364 192 192 192 255 0.116885 0.751219
3.05e-05 46.91568 -62.50152 -0.9999833 0.004092279 0.004092279 192 192 192 255 0.128317 0.751219
3.05e-05 31.27712 -62.50152 -0.9999983 0.0008303152 0.00166063 192 192 192 255 0.131178 0.751219
3.05e-05 31.27712 -31.25075 -0.2118966 0.001735343 0.9772906 192 192 192 255 0.14261 0.751219
3.05e-05 15.63856 -31.25075 -0.5798661 0.8147117 0.0004814726 192 192 192 255 0.14547 0.751219
3.05e-05 15.63856 2e-06 -0.9999973 0.001660629 0.001660629 192 192 192 255 0.156902 0.751219
3.05e-05 -22.90001 2e-06 -0.6018661 -0.0004080219 0.798597 192 192 192 255 0.163952 0.751219
250 125.1085 -218.7554 0.333334 0.666666 0.666667 192 192 192 255 0.056854 0.985778
250 125.1085 -250.0061 0.3333336 0.6666651 -0.6666682 192 192 192 255 0.045422 0.985778
250 109.4699 -218.7554 0.4285713 0.8571436 0.2857125 192 192 192 255 0.059715 0.985778
250 109.4699 -187.5046 0.2182177 0.8728723 0.4364345 192 192 192 255 0.071147 0.985778
250 93.83138 -187.5046 0.1022791 0.0001695677 0.9947557 192 192 192 255 0.074008 0.985778
250 93.83138 -156.2538 0.9999328 0.008199756 0.008191956 192 192 192 255 0.085439 0.985778
250 78.19282 -156.2538 0.9999983 0.001660631 0.0008303153 192 192 192 255 0.0883 0.985778
250 78.19282 -125.0031 0.999958 0.00819996 0.004099987 192 192 192 255 0.099732 0.985778
250 62.55425 -125.0031 0.9999931 0.001175373 0.0035402 192 192 192 255 0.102593 0.985778
250 62.55425 -93.75229 0.9999583 0.00816874 0.004094128 192 192 192 255 0.114024 0.985778
250 46.91568 -93.75229 0.1429048 0.0001671017 0.9897364 192 192 192 255 0.116885 0.985778
250 46.91569 -62.50153 0.9999332 0.008168537 0.008174381 192 192 192 255 0.128317 0.985778
250 31.27712 -62.50153 0.4717365 0.8817396 0.0003883525 192 192 192 255 0.131178 0.985778
250 31.27712 -31.25076 0.999958 0.00819996 0.004094127 192 192 192 255 0.14261 0.985778
250 15.63856 -31.25076 0.9999942 0.000825561 0.003316549 192 192 192 255 0.14547 0.985778
250 15.63856 0 0.999989 0.003314896 0.003319276 192 192 192 255 0.156902 0.985778
250 -22.90001 0 0.9999991 -0.001364854 7.368562e-05 192 192 192 255 0.163952 0.985778
250 102.2085 -250.0061 0.9999934 -0.001256761 -0.003415802 192 192 192 255 0.049612 0.985778
3.05e-05 102.2085 -250.0061 -0.9999934 -0.002492244 -0.002640615 192 192 192 255 0.049612 0.751219
47.88828 62.55425 -125.0031 0 0.9814581 0.1916767 192 192 192 255 0.102593 0.79615
208.1456 109.4699 -187.5046 -0.04632474 0.8260384 0.5617068 192 192 192 255 0.071147 0.946509
182.6947 78.19282 -125.0031 -0.04491419 0.9705902 0.2365107 192 192 192 255 0.099732 0.92263
88.7101 62.55425 -93.75229 -0.004801576 0.9921648 0.124844 192 192 192 255 0.114024 0.83445
221.4169 31.27712 -31.25076 -0.05762469 0.8905135 0.4512928 192 192 192 255 0.14261 0.958961
100.1486 15.63856 0 -0.01366194 0.7720116 0.6354616 192 192 192 255 0.156902 0.845182
145.6456 109.4699 -187.5046 0.005096103 0.9947082 0.1026136 192 192 192 255 0.071147 0.887869
184.7182 109.4699 -195.3173 0 0.9889184 0.14846 192 192 192 255 0.068289 0.924529
190.7809 105.5603 -187.5046 0 0.1518854 0.9883981 192 192 192 255 0.071862 0.930217
62.2787 78.19282 -125.0031 0.02553671 0.3161364 0.94837 192 192 192 255 0.099732 0.809651
26.21008 62.55425 -93.75229 0.02015438 0.9918031 0.1261766 192 192 192 255 0.114024 0.77581
72.40815 78.19282 -132.8157 0 0.895514 0.4450333 192 192 192 255 0.096874 0.819155
74.25075 74.28317 -125.0031 0 0.5949825 0.8037387 192 192 192 255 0.100447 0.820884
38.18216 62.55425 -101.565 0 0.9922689 0.1241065 192 192 192 255 0.111166 0.787043
48.09869 58.64461 -93.75229 0 0.1518853 0.9883982 192 192 192 255 0.11474 0.796347
130.925 78.19282 -125.0031 0.02618113 0.8260863 0.5629352 192 192 192 255 0.099732 0.874058
99.0005 78.19282 -125.0031 -0.0346176 0.8788446 0.4758507 192 192 192 255 0.099732 0.844105
172.6655 78.19282 -132.8157 0 0.8953747 0.4453135 192 192 192 255 0.096874 0.91322
161.637 74.28317 -125.0031 0 0.8929467 0.4501625 192 192 192 255 0.100447 0.902873
143.8763 31.27712 -31.25076 0.00423426 0.8943238 0.4474004 192 192 192 255 0.14261 0.886209
206.3762 31.27712 -39.06345 0 0.9850058 0.1725214 192 192 192 255 0.139752 0.944849
206.3763 27.36748 -31.25076 9.01905e-09 0.5729154 0.8196145 192 192 192 255 0.143325 0.944849
37.64853 15.63856 0 0.1440076 0.6110387 0.7783916 192 192 192 255 0.156902 0.786542
48.10205 15.63856 -7.812691 0 0.8619954 0.5069161 192 192 192 255 0.154044 0.79635
47.74073 6.003915 0 0.02668927 0.2647213 0.9639556 192 192 192 255 0.158665 0.796011
63.12215 5.365522 0 -0.01169302 0.2544177 0.9670238 192 192 192 255 0.158782 0.810443
3 2 19 17 
3 2 17 0 
3 43 42 44 
3 6 23 22 
3 6 22 5 
3 53 51 54 
3 49 50 39 
3 12 29 28 
3 12 28 11 
3 56 57 40 
3 59 61 41 
3 17 18 1 
3 17 1 0 
3 22 21 4 
3 22 4 5 
3 28 27 10 
3 28 10 11 
3 1 18 34 
3 1 34 35 
3 33 16 35 
3 33 35 34 
3 26 27 25 
3 28 29 27 
3 30 31 29 
3 32 33 31 
3 34 18 17 
3 34 17 19 
3 19 20 21 
3 19 21 34 
3 22 23 21 
3 25 23 24 
3 15 14 16 
3 8 35 16 
3 8 16 10 
3 12 16 14 
3 13 12 14 
3 11 10 12 
3 9 8 10 
3 7 6 8 
3 35 8 6 
3 5 4 6 
3 35 4 3 
3 35 3 2 
3 1 35 2 
3 1 2 0 
3 33 27 29 
3 23 34 21 
3 33 29 31 
3 25 34 23 
3 33 34 25 
3 33 25 27 
3 12 10 16 
3 35 6 4 
3 48 47 45 
3 19 2 3 
3 19 3 43 
3 42 43 3 
3 21 44 4 
3 4 44 42 
3 4 42 3 
3 37 44 21 
3 37 21 20 
3 20 19 43 
3 20 43 37 
3 45 47 6 
3 45 6 7 
3 7 8 36 
3 7 36 45 
3 48 45 36 
3 36 8 9 
3 36 9 49 
3 46 49 9 
3 10 50 46 
3 10 46 9 
3 10 27 50 
3 39 50 27 
3 39 27 26 
3 26 25 36 
3 26 36 39 
3 49 39 36 
3 53 23 6 
3 53 6 47 
3 51 53 47 
3 51 47 52 
3 36 25 54 
3 36 54 51 
3 36 51 52 
3 36 52 48 
3 38 54 25 
3 38 25 24 
3 24 23 53 
3 24 53 38 
3 29 12 13 
3 29 13 55 
3 55 56 29 
3 13 14 31 
3 13 31 57 
3 57 55 13 
3 40 57 31 
3 40 31 30 
3 30 29 56 
3 30 56 40 
3 58 59 14 
3 58 14 15 
3 16 60 58 
3 16 58 15 
3 16 33 32 
3 16 32 41 
3 16 41 61 
3 32 31 14 
3 32 14 41 
3 14 59 41 
3 53 54 38 
3 43 44 37 
3 52 47 48 
3 49 46 50 
3 56 55 57 
3 59 58 60 
3 59 60 61 
3 16 61 60 
