ply
format ascii 1.0
comment VCGLIB generated
comment TextureFile Dungeons_2_Texture_01_A.png
element vertex 281
property float x
property float y
property float z
property float nx
property float ny
property float nz
property uchar red
property uchar green
property uchar blue
property uchar alpha
property float texture_u
property float texture_v
element face 230
property list uchar int vertex_indices
end_header
-54.43596 25.66148 54.43594 -0.2672613 0.8017837 0.5345225 192 192 192 255 0.073682 0.842871
54.43595 25.66148 54.43594 0.5345225 0.8017837 0.2672613 192 192 192 255 0.073682 0.79467
54.43595 25.66148 -54.43597 0.2672613 0.8017837 -0.5345225 192 192 192 255 0.121883 0.79467
-54.43596 25.66148 -54.43597 -0.5345225 0.8017837 -0.2672613 192 192 192 255 0.121883 0.842871
61.8509 0 61.85085 0.5773503 -0.5773503 0.5773503 192 192 192 255 0.048955 0.857776
-61.85092 0 61.85085 -0.3333333 -0.6666667 0.6666667 192 192 192 255 0.048955 0.912542
61.8509 25.66148 61.85085 0.4850713 0.7276069 0.4850713 192 192 192 255 0.060316 0.857776
-61.85092 25.66148 61.85085 -0.5345225 0.8017837 0.2672613 192 192 192 255 0.060316 0.912542
61.8509 25.66148 -61.85093 0.3015113 0.904534 -0.3015113 192 192 192 255 0.22232 0.791387
61.8509 0 -61.85093 0.5773503 -0.5773503 -0.5773503 192 192 192 255 0.210959 0.791387
-61.85092 0 -61.85093 -0.8164966 -0.4082483 -0.4082483 192 192 192 255 0.208883 0.846154
-61.85092 25.66148 -61.85093 -0.2672613 0.8017837 -0.5345225 192 192 192 255 0.197522 0.846154
54.43595 474.2739 -54.43597 0.2672613 -0.8017837 -0.5345225 192 192 192 255 0.066031 0.850787
54.43595 474.2739 54.43594 0.5345225 -0.8017837 0.2672613 192 192 192 255 0.066031 0.898988
-54.43596 474.2739 54.43594 -0.2672613 -0.8017837 0.5345225 192 192 192 255 0.01783 0.898988
-54.43596 474.2739 -54.43597 -0.5345225 -0.8017837 -0.2672613 192 192 192 255 0.01783 0.850787
61.8509 500 -61.85093 0.8164966 0.4082483 -0.4082483 192 192 192 255 0.068323 0.791387
61.8509 474.2739 -61.85093 0.2672613 -0.8017837 -0.5345225 192 192 192 255 0.056933 0.791387
61.8509 500 61.85088 0.3333333 0.6666667 0.6666667 192 192 192 255 0.068323 0.846154
61.8509 474.2739 61.85088 0.5345225 -0.8017837 0.2672613 192 192 192 255 0.056933 0.846154
-61.85092 474.2739 61.85088 -0.4850713 -0.7276069 0.4850713 192 192 192 255 0.043467 0.846154
-61.85092 500 61.85088 -0.5773503 0.5773503 0.5773503 192 192 192 255 0.054857 0.846154
-61.85092 474.2739 -61.85093 -0.3015113 -0.904534 -0.3015113 192 192 192 255 0.030001 0.846154
-61.85092 500 -61.85093 -0.5773503 0.5773503 -0.5773503 192 192 192 255 0.04139 0.846154
54.43595 460.8025 54.43594 0.5021127 -0.6978537 0.5107671 192 192 192 255 0.113602 0.951392
41.73713 451.8231 54.43594 0.3429727 -0.007870573 0.9393125 192 192 192 255 0.10798 0.947416
54.43595 451.8231 41.73711 0.7072096 -0.02174483 0.7066694 192 192 192 255 0.020169 0.947416
54.43595 39.13288 54.43594 0.5021125 0.697854 0.5107669 192 192 192 255 0.113602 0.764707
54.43595 48.1123 41.73711 0.7071652 0.01606211 0.706866 192 192 192 255 0.020169 0.768682
41.73713 48.1123 54.43594 0.1576429 0.04468122 0.9864848 192 192 192 255 0.10798 0.768682
54.43595 39.13288 -54.43597 0.5107673 0.6978538 -0.5021123 192 192 192 255 0.062748 0.764707
41.73713 48.1123 -54.43597 0.002554798 0.003590761 -0.9999903 192 192 192 255 0.209557 0.947416
54.43595 48.1123 -41.73716 0.5127407 0.6980999 -0.4997535 192 192 192 255 0.057126 0.768682
54.43595 460.8025 -54.43597 0.5107676 -0.6978535 -0.5021126 192 192 192 255 0.215179 0.764707
54.43595 451.8231 -41.73716 0.5080439 -0.70182 -0.4993397 192 192 192 255 0.057126 0.947416
41.73713 451.8231 -54.43597 0.002090904 -0.002920758 -0.9999936 192 192 192 255 0.209557 0.768682
-54.43596 39.13288 54.43594 -0.5107673 0.6978541 0.502112 192 192 192 255 0.065402 0.764707
-41.73713 48.1123 54.43594 -0.003117162 0.004381233 0.9999856 192 192 192 255 0.071024 0.768682
-54.43596 48.1123 41.73711 -0.5127406 0.6981002 0.4997531 192 192 192 255 0.158769 0.768682
-54.43596 460.8025 54.43594 -0.5107675 -0.6978539 0.5021122 192 192 192 255 0.065402 0.951392
-54.43596 451.8231 41.73711 -0.5080438 -0.7018203 0.4993393 192 192 192 255 0.158769 0.947416
-41.73713 451.8231 54.43594 -0.001827279 -0.002552516 0.9999951 192 192 192 255 0.071024 0.947416
-54.43596 39.13288 -54.43597 -0.5021121 0.6978539 -0.5107674 192 192 192 255 0.11619 0.764707
-54.43596 48.1123 -41.73716 -0.7071612 0.01725471 -0.7068418 192 192 192 255 0.121812 0.768682
-41.73713 48.1123 -54.43597 -0.1383515 0.01238376 -0.9903058 192 192 192 255 0.172601 0.947416
-54.43596 460.8025 -54.43597 -0.5021123 -0.6978536 -0.5107676 192 192 192 255 0.11619 0.951392
-41.73713 451.8231 -54.43597 -0.1390809 -0.01359916 -0.9901876 192 192 192 255 0.172601 0.768682
-54.43596 451.8231 -41.73716 -0.7072097 -0.02124511 -0.7066846 192 192 192 255 0.121812 0.947416
-30.37087 280.3356 -54.43597 -0.6468689 -0.3789572 -0.6617795 192 192 192 255 0.042325 0.84298
0.000135 249.9677 -54.43597 0.1803388 -0.5643364 -0.8056068 192 192 192 255 0.055771 0.856425
30.3711 280.3356 -54.43597 0.6492923 -0.1615626 -0.7431804 192 192 192 255 0.069217 0.84298
30.3711 474.2739 -54.43598 0.69385 -0.005691924 -0.7200971 192 192 192 255 0.069217 0.757118
-30.37087 474.2739 -54.43598 -0.7720318 -4.372019e-08 -0.6355839 192 192 192 255 0.042325 0.757118
-24.26643 282.8644 -61.85092 -0.001806424 -0.0004718748 -0.9999983 192 192 192 255 0.284709 0.84186
0.000135 258.6003 -61.85092 -0.0005060891 -0.001343668 -0.999999 192 192 192 255 0.295453 0.852603
21.12295 284.9953 -61.85092 0.001477452 -0.0008008317 -0.9999986 192 192 192 255 0.304804 0.840917
24.2666 474.2739 -61.85093 0.3740883 -0.003068826 -0.927388 192 192 192 255 0.306196 0.757118
-24.26643 474.2739 -61.85093 -0.4268584 -5.742151e-08 -0.9043185 192 192 192 255 0.284709 0.757118
30.37087 280.3356 54.43591 0.5897844 -0.3397976 0.7325926 192 192 192 255 0.098239 0.770563
-0.000127 249.9677 54.43591 -0.2580054 -0.6153974 0.7447948 192 192 192 255 0.084793 0.757118
-30.3711 280.3356 54.43591 -0.6902844 -0.1862709 0.69915 192 192 192 255 0.071347 0.770563
-30.3711 474.2739 54.43592 -0.6421804 -0.01817248 0.7663381 192 192 192 255 0.071347 0.856425
30.37087 474.2739 54.43592 0.771554 -0.01041503 0.6360787 192 192 192 255 0.098239 0.856425
24.26643 282.8644 61.85086 0.001858938 -0.0004065857 0.9999982 192 192 192 255 0.335218 0.771682
-3.14827 260.689 61.85086 0.0003220317 -0.001446808 0.9999989 192 192 192 255 0.323081 0.761865
-24.26659 282.8644 61.85086 -0.001709053 -0.001020351 0.999998 192 192 192 255 0.313731 0.771682
-24.26659 474.2739 61.85087 -0.3416687 -0.009668618 0.9397708 192 192 192 255 0.313731 0.856425
24.26643 474.2739 61.85087 0.4265296 -0.005757677 0.9044553 192 192 192 255 0.335218 0.856425
54.43594 280.3356 -30.3709 0.683297 -0.3755092 -0.6261774 192 192 192 255 0.127262 0.770563
54.43594 249.9677 0.0001 0.7413001 -0.6367376 0.2122247 192 192 192 255 0.113815 0.757118
54.43594 280.3356 30.37107 0.7140831 -0.1819636 0.6759989 192 192 192 255 0.100369 0.770563
54.43596 474.2739 30.37107 0.71296 -0.01037985 0.7011278 192 192 192 255 0.100369 0.856425
54.43596 474.2739 -30.3709 0.7860069 0.003057266 -0.6182102 192 192 192 255 0.127262 0.856425
61.85089 282.8644 -24.26646 0.9999986 -0.0004471821 -0.001671074 192 192 192 255 0.36424 0.771682
61.85089 258.6003 0.0001 0.999999 -0.001388538 -0.0004627998 192 192 192 255 0.353497 0.76094
61.85089 282.8644 24.26656 0.9999985 -0.0009159251 0.001519381 192 192 192 255 0.342753 0.771682
61.8509 474.2739 24.26656 0.9254621 -0.005607961 0.3787988 192 192 192 255 0.342753 0.856425
61.8509 474.2739 -20.46381 0.9449886 0.001617589 -0.3270993 192 192 192 255 0.362557 0.856425
-54.43593 280.3356 30.37084 -0.7444305 -0.332986 0.578743 192 192 192 255 0.156283 0.770563
-54.43593 249.9677 -0.000162 -0.7920832 -0.5807722 -0.1879041 192 192 192 255 0.142837 0.757118
-54.43593 280.3356 -30.37113 -0.7154498 -0.1767488 -0.6759375 192 192 192 255 0.129391 0.770563
-54.43595 474.2739 -30.37113 -0.7633062 0.005145051 -0.6460164 192 192 192 255 0.129391 0.856425
-54.43595 474.2739 30.37084 -0.6895899 -0.007143029 0.724165 192 192 192 255 0.156283 0.856425
-62.22177 284.1011 21.69683 -0.9999399 -0.009125417 -0.006079125 192 192 192 255 0.392125 0.77223
-61.85088 260.3568 0.753106 -0.9999222 -0.01008973 -0.00734096 192 192 192 255 0.382852 0.761718
-61.85088 282.8644 -24.26662 -0.9999089 -0.009656741 -0.009431591 192 192 192 255 0.371775 0.771682
-61.85089 474.2739 -20.83764 -0.9389638 0.002739728 -0.3440049 192 192 192 255 0.373293 0.856425
-61.85089 474.2739 24.2664 -0.9191273 -0.003885789 0.3939416 192 192 192 255 0.393262 0.856425
-30.37087 219.5997 54.43591 -0.771833 0.001185573 0.6358243 192 192 192 255 0.149298 0.943637
0.000135 249.9677 54.43591 0.2122249 0.6367383 0.7412995 192 192 192 255 0.162744 0.957082
30.3711 219.5997 54.43591 0.725357 0.1894782 0.6617818 192 192 192 255 0.176191 0.943637
30.3711 25.6615 54.43592 0.7720285 4.475098e-08 0.635588 192 192 192 255 0.176191 0.857776
-30.37087 25.6615 54.43592 -0.7720318 4.331794e-08 0.6355839 192 192 192 255 0.149298 0.857776
-24.26643 217.071 61.85086 -0.06103277 0.0002549758 0.9981357 192 192 192 255 0.391682 0.942518
0.000135 241.3351 61.85086 -0.0004628003 0.00138854 0.999999 192 192 192 255 0.402426 0.95326
24.2666 217.071 61.85086 0.0001691597 9.922205e-05 1 192 192 192 255 0.413169 0.942518
24.2666 25.66149 61.85087 9.782796e-05 1.035264e-07 1 192 192 192 255 0.413169 0.857776
-24.26643 25.66149 61.85087 -0.134479 7.000164e-08 0.9909165 192 192 192 255 0.391682 0.857776
54.43594 219.5997 30.37084 0.7350541 0.3473891 0.5822512 192 192 192 255 0.12033 0.943637
54.43594 249.9677 -0.000162 0.7847262 0.5824321 -0.2120795 192 192 192 255 0.133776 0.957082
54.43594 219.5997 -30.37113 0.6356952 0.0003669574 -0.7719401 192 192 192 255 0.147222 0.943637
54.43596 25.6615 -30.37113 0.6355879 3.653097e-08 -0.7720285 192 192 192 255 0.147222 0.857776
54.43596 25.6615 30.37084 0.635584 5.001208e-08 0.7720317 192 192 192 255 0.12033 0.857776
61.85089 217.071 24.2664 1 4.860681e-05 0.0001939185 192 192 192 255 0.362714 0.942518
61.85089 237.6423 -1.745828 0.9999988 0.001527052 0.000393382 192 192 192 255 0.37423 0.951625
61.85089 217.071 -24.26662 0.9997554 8.609288e-05 -0.02211986 192 192 192 255 0.384201 0.942518
61.8509 25.66149 -24.26662 0.9909165 4.437282e-08 -0.1344788 192 192 192 255 0.384201 0.857776
61.8509 25.66149 24.2664 1 5.822676e-08 4.285763e-05 192 192 192 255 0.362714 0.857776
-54.43593 219.5997 -30.3709 -0.6617791 0.3789575 -0.6468691 192 192 192 255 0.091361 0.943637
-54.43593 249.9677 0.0001 -0.7412996 0.6367383 0.2122249 192 192 192 255 0.104807 0.957082
-54.43593 219.5997 30.37107 -0.6617818 0.1894782 0.725357 192 192 192 255 0.118253 0.943637
-54.43595 25.6615 30.37107 -0.635588 5.10429e-08 0.7720284 192 192 192 255 0.118253 0.857776
-54.43595 25.6615 -30.3709 -0.635584 5.001208e-08 -0.7720317 192 192 192 255 0.091361 0.857776
-61.85088 217.071 -24.26646 -0.9999983 0.0004620635 -0.001768864 192 192 192 255 0.333745 0.942518
-61.85088 241.3351 0.0001 -0.999999 0.00138854 -0.0004628004 192 192 192 255 0.344489 0.95326
-61.85088 217.071 24.26656 -0.9999983 0.000924907 0.00157879 192 192 192 255 0.355232 0.942518
-61.85089 25.66149 24.26656 -0.9043196 6.127891e-08 0.426856 192 192 192 255 0.355232 0.857776
-61.85089 25.66149 -24.26646 -0.9043186 6.070903e-08 -0.4268583 192 192 192 255 0.333745 0.857776
30.37087 219.5997 -54.43597 0.6468692 0.3789575 -0.661779 192 192 192 255 0.089285 0.87122
-0.000127 249.9677 -54.43597 -0.1746729 0.5523748 -0.8150898 192 192 192 255 0.075839 0.857776
-30.3711 219.5997 -54.43597 -0.6449854 0.1564558 -0.7480077 192 192 192 255 0.062393 0.87122
-30.3711 25.6615 -54.43598 -0.6922674 0.005799884 -0.7216178 192 192 192 255 0.062393 0.957082
30.37087 25.6615 -54.43598 0.7720318 4.37202e-08 -0.6355839 192 192 192 255 0.089285 0.957082
24.26643 217.071 -61.85092 0.00177244 0.0004629979 -0.9999983 192 192 192 255 0.326264 0.87234
-0.000127 241.3351 -61.85092 0.0005025334 0.001305977 -0.999999 192 192 192 255 0.31552 0.861597
-21.06414 213.9671 -61.85092 -0.001436302 0.0007611384 -0.9999987 192 192 192 255 0.306194 0.873714
-24.26659 25.66149 -61.85093 -0.3730702 0.003125651 -0.9277979 192 192 192 255 0.304777 0.957082
24.26643 25.66149 -61.85093 0.4268584 5.750976e-08 -0.9043185 192 192 192 255 0.326264 0.957082
-24.26643 199.5209 61.85086 -0.1911354 -0.01771201 0.9814039 192 192 192 255 0.391682 0.934748
-24.26643 133.6603 61.85086 -0.1922878 0.005015778 0.9813257 192 192 192 255 0.391682 0.90559
-29.11756 177.1232 55.95827 -0.6640885 5.128679e-08 0.7476541 192 192 192 255 0.149853 0.924832
-15.41629 174.3627 61.85085 -0.03029233 5.895576e-08 0.9995411 192 192 192 255 0.3956 0.92361
61.8509 110.8498 -24.26662 0.9821686 0.005359211 -0.187926 192 192 192 255 0.384201 0.895491
61.85089 180.5524 -24.26662 0.9602332 -0.01351053 -0.2788723 192 192 192 255 0.384201 0.92635
56.36986 146.574 -28.779 0.7439005 7.824489e-08 -0.6682905 192 192 192 255 0.146517 0.911307
61.85089 147.1657 -16.13693 0.9947041 1.108361e-07 -0.10278 192 192 192 255 0.380601 0.911569
54.43595 377.3047 30.37107 0.7127036 -0.003409429 0.7014571 192 192 192 255 0.100369 0.813494
61.8509 377.2885 21.39518 0.9253179 0.001924401 0.3791874 192 192 192 255 0.344025 0.813487
61.8509 445.0234 -21.08803 0.9378441 0.00264657 -0.3470468 192 192 192 255 0.362833 0.843475
54.43595 377.3047 -30.3709 0.729836 0.006873416 -0.6835877 192 192 192 255 0.127262 0.813494
-54.43594 377.3047 -30.37113 -0.7393239 0.005828038 -0.6733248 192 192 192 255 0.129391 0.813494
-61.85089 373.0766 -22.41591 -0.9253881 0.004240573 -0.3789973 192 192 192 255 0.372595 0.811622
-61.85089 381.631 22.39611 -0.9239973 -0.002395228 0.3823917 192 192 192 255 0.392434 0.815409
-54.43594 377.3047 30.37084 -0.7227531 -0.003059109 0.6910995 192 192 192 255 0.156283 0.813494
-41.73713 181.0043 -54.43597 -0.08215488 0.0009133737 -0.9966192 192 192 192 255 0.172601 0.888581
-41.73713 330.9295 -54.43597 -0.1717274 -0.003038943 -0.9851398 192 192 192 255 0.172601 0.822205
-48.30801 295.7652 -47.86506 -0.6489559 0 -0.7608261 192 192 192 255 0.119099 0.878325
-33.65343 296.6118 -54.43597 -0.07278004 0 -0.997348 192 192 192 255 0.17618 0.837398
41.73713 83.93655 54.43594 0.04393443 0.001343571 0.9990335 192 192 192 255 0.10798 0.784543
41.73713 305.4615 54.43594 0.08996604 -0.001696727 0.9959434 192 192 192 255 0.10798 0.882618
50.62721 130.9785 45.54584 0.6130267 -1.05119e-08 0.7900622 192 192 192 255 0.018483 0.805369
35.64684 128.8958 54.43594 0.09580755 -1.725892e-08 0.9953999 192 192 192 255 0.105284 0.804447
-30.3711 377.3047 54.43591 -0.6659228 -0.009055641 0.7459658 192 192 192 255 0.071347 0.813494
-20.84413 450.2991 61.85086 -0.3707622 4.330297e-05 0.9287279 192 192 192 255 0.315247 0.84581
22.31231 330.1429 61.85086 0.4275478 0.001992128 0.9039906 192 192 192 255 0.334353 0.792614
28.41676 328.8785 54.43591 0.7744081 0.0176213 0.632441 192 192 192 255 0.097374 0.792054
61.8509 25.66148 61.85085 0.4850713 0.7276069 0.4850713 192 192 192 255 0.22232 0.846154
61.8509 0 61.85085 0.5773503 -0.5773503 0.5773503 192 192 192 255 0.210959 0.846154
61.8509 0 -61.85093 0.5773503 -0.5773503 -0.5773503 192 192 192 255 0.208883 0.791387
61.8509 25.66148 -61.85093 0.3015113 0.904534 -0.3015113 192 192 192 255 0.197522 0.791387
-61.85092 0 -61.85093 -0.8164966 -0.4082483 -0.4082483 192 192 192 255 0.184084 0.846154
-61.85092 0 61.85085 -0.3333333 -0.6666667 0.6666667 192 192 192 255 0.184084 0.791387
-61.85092 25.66148 61.85085 -0.5345225 0.8017837 0.2672613 192 192 192 255 0.195446 0.791387
-61.85092 25.66148 -61.85093 -0.2672613 0.8017837 -0.5345225 192 192 192 255 0.195446 0.846154
61.8509 0 -61.85093 0.5773503 -0.5773503 -0.5773503 192 192 192 255 0.127242 0.791387
61.8509 0 61.85085 0.5773503 -0.5773503 0.5773503 192 192 192 255 0.182008 0.791387
-61.85092 0 61.85085 -0.3333333 -0.6666667 0.6666667 192 192 192 255 0.182008 0.846154
-61.85092 0 -61.85093 -0.8164966 -0.4082483 -0.4082483 192 192 192 255 0.127242 0.846154
-61.85092 25.66148 61.85085 -0.5345225 0.8017837 0.2672613 192 192 192 255 0.070399 0.846154
61.8509 25.66148 61.85085 0.4850713 0.7276069 0.4850713 192 192 192 255 0.070399 0.791387
61.8509 25.66148 -61.85093 0.3015113 0.904534 -0.3015113 192 192 192 255 0.125165 0.791387
-61.85092 25.66148 -61.85093 -0.2672613 0.8017837 -0.5345225 192 192 192 255 0.125165 0.846154
61.8509 474.2739 61.85088 0.5345225 -0.8017837 0.2672613 192 192 192 255 0.043467 0.791387
61.8509 500 61.85088 0.3333333 0.6666667 0.6666667 192 192 192 255 0.054857 0.791387
-61.85092 474.2739 61.85088 -0.4850713 -0.7276069 0.4850713 192 192 192 255 0.030001 0.791387
-61.85092 500 61.85088 -0.5773503 0.5773503 0.5773503 192 192 192 255 0.04139 0.791387
61.8509 474.2739 -61.85093 0.2672613 -0.8017837 -0.5345225 192 192 192 255 0.027924 0.791387
-61.85092 474.2739 -61.85093 -0.3015113 -0.904534 -0.3015113 192 192 192 255 0.027924 0.846154
-61.85092 500 -61.85093 -0.5773503 0.5773503 -0.5773503 192 192 192 255 0.016535 0.846154
61.8509 500 -61.85093 0.8164966 0.4082483 -0.4082483 192 192 192 255 0.016535 0.791387
61.8509 474.2739 -61.85093 0.2672613 -0.8017837 -0.5345225 192 192 192 255 0.069313 0.847504
61.8509 474.2739 61.85088 0.5345225 -0.8017837 0.2672613 192 192 192 255 0.069313 0.902271
-61.85092 474.2739 61.85088 -0.4850713 -0.7276069 0.4850713 192 192 192 255 0.014547 0.902271
-61.85092 474.2739 -61.85093 -0.3015113 -0.904534 -0.3015113 192 192 192 255 0.014547 0.847504
61.8509 500 61.85088 0.3333333 0.6666667 0.6666667 192 192 192 255 0.071997 0.847504
61.8509 500 -61.85093 0.8164966 0.4082483 -0.4082483 192 192 192 255 0.126764 0.847504
-61.85092 500 -61.85093 -0.5773503 0.5773503 -0.5773503 192 192 192 255 0.126764 0.902271
-61.85092 500 61.85088 -0.5773503 0.5773503 0.5773503 192 192 192 255 0.071997 0.902271
-54.43596 460.8025 54.43594 -0.5107675 -0.6978539 0.5021122 192 192 192 255 0.164391 0.951392
-54.43596 460.8025 -54.43597 -0.5021123 -0.6978536 -0.5107676 192 192 192 255 0.166979 0.764707
54.43595 460.8025 -54.43597 0.5107676 -0.6978535 -0.5021126 192 192 192 255 0.062748 0.951392
54.43595 460.8025 54.43594 0.5021127 -0.6978537 0.5107671 192 192 192 255 0.014547 0.951392
-54.43596 25.66148 54.43594 -0.2672613 0.8017837 0.5345225 192 192 192 255 0.065402 0.758742
54.43595 25.66148 54.43594 0.5345225 0.8017837 0.2672613 192 192 192 255 0.113602 0.758742
54.43595 39.13288 54.43594 0.5021125 0.697854 0.5107669 192 192 192 255 0.014547 0.764707
54.43595 25.66148 54.43594 0.5345225 0.8017837 0.2672613 192 192 192 255 0.014547 0.758742
54.43595 25.66148 -54.43597 0.2672613 0.8017837 -0.5345225 192 192 192 255 0.062748 0.758742
-54.43596 39.13288 54.43594 -0.5107673 0.6978541 0.502112 192 192 192 255 0.164391 0.764707
-54.43596 25.66148 -54.43597 -0.5345225 0.8017837 -0.2672613 192 192 192 255 0.11619 0.758742
-54.43596 25.66148 54.43594 -0.2672613 0.8017837 0.5345225 192 192 192 255 0.164391 0.758742
-54.43596 39.13288 -54.43597 -0.5021121 0.6978539 -0.5107674 192 192 192 255 0.166979 0.951392
54.43595 39.13288 -54.43597 0.5107673 0.6978538 -0.5021123 192 192 192 255 0.215179 0.951392
54.43595 25.66148 -54.43597 0.2672613 0.8017837 -0.5345225 192 192 192 255 0.215179 0.957356
-54.43596 25.66148 -54.43597 -0.5345225 0.8017837 -0.2672613 192 192 192 255 0.166979 0.957356
41.73713 451.8231 54.43594 0.3429727 -0.007870573 0.9393125 192 192 192 255 0.014547 0.947416
41.73713 48.1123 54.43594 0.1576429 0.04468122 0.9864848 192 192 192 255 0.014547 0.768682
41.73713 83.93655 54.43594 0.04393443 0.001343571 0.9990335 192 192 192 255 0.014547 0.784543
41.73713 305.4615 54.43594 0.08996604 -0.001696727 0.9959434 192 192 192 255 0.014547 0.882618
41.73713 48.1123 -54.43597 0.002554798 0.003590761 -0.9999903 192 192 192 255 0.062748 0.768682
41.73713 451.8231 -54.43597 0.002090904 -0.002920758 -0.9999936 192 192 192 255 0.062748 0.947416
-41.73713 48.1123 54.43594 -0.003117162 0.004381233 0.9999856 192 192 192 255 0.164391 0.768682
-41.73713 451.8231 54.43594 -0.001827279 -0.002552516 0.9999951 192 192 192 255 0.164391 0.947416
-41.73713 48.1123 -54.43597 -0.1383515 0.01238376 -0.9903058 192 192 192 255 0.11619 0.768682
-41.73713 181.0043 -54.43597 -0.08215488 0.0009133737 -0.9966192 192 192 192 255 0.11619 0.827517
-41.73713 451.8231 -54.43597 -0.1390809 -0.01359916 -0.9901876 192 192 192 255 0.11619 0.947416
-41.73713 330.9295 -54.43597 -0.1717274 -0.003038943 -0.9851398 192 192 192 255 0.11619 0.893893
-54.43596 39.13288 54.43594 -0.5107673 0.6978541 0.502112 192 192 192 255 0.129382 0.847504
-41.73713 48.1123 54.43594 -0.003117162 0.004381233 0.9999856 192 192 192 255 0.135004 0.847504
-54.43596 48.1123 41.73711 -0.5127406 0.6981002 0.4997531 192 192 192 255 0.129382 0.853127
-54.43596 474.2739 54.43594 -0.2672613 -0.8017837 0.5345225 192 192 192 255 0.065402 0.957356
54.43595 474.2739 54.43594 0.5345225 -0.8017837 0.2672613 192 192 192 255 0.113602 0.957356
-54.43596 474.2739 -54.43597 -0.5345225 -0.8017837 -0.2672613 192 192 192 255 0.11619 0.957356
-54.43596 474.2739 54.43594 -0.2672613 -0.8017837 0.5345225 192 192 192 255 0.164391 0.957356
54.43595 474.2739 -54.43597 0.2672613 -0.8017837 -0.5345225 192 192 192 255 0.215179 0.758742
-54.43596 474.2739 -54.43597 -0.5345225 -0.8017837 -0.2672613 192 192 192 255 0.166979 0.758742
54.43595 474.2739 54.43594 0.5345225 -0.8017837 0.2672613 192 192 192 255 0.014547 0.957356
54.43595 474.2739 -54.43597 0.2672613 -0.8017837 -0.5345225 192 192 192 255 0.062748 0.957356
-24.26643 282.8644 -61.85092 -0.001806424 -0.0004718748 -0.9999983 192 192 192 255 0.045028 0.84186
0.000135 258.6003 -61.85092 -0.0005060891 -0.001343668 -0.999999 192 192 192 255 0.055771 0.852603
21.12295 284.9953 -61.85092 0.001477452 -0.0008008317 -0.9999986 192 192 192 255 0.065123 0.840917
24.2666 474.2739 -61.85093 0.3740883 -0.003068826 -0.927388 192 192 192 255 0.066515 0.757118
-24.26643 474.2739 -61.85093 -0.4268584 -5.742151e-08 -0.9043185 192 192 192 255 0.045028 0.757118
24.26643 282.8644 61.85086 0.001858938 -0.0004065857 0.9999982 192 192 192 255 0.095537 0.771682
-3.14827 260.689 61.85086 0.0003220317 -0.001446808 0.9999989 192 192 192 255 0.0834 0.761865
-24.26659 282.8644 61.85086 -0.001709053 -0.001020351 0.999998 192 192 192 255 0.07405 0.771682
-20.84413 450.2991 61.85086 -0.3707622 4.330297e-05 0.9287279 192 192 192 255 0.075565 0.84581
-24.26659 474.2739 61.85087 -0.3416687 -0.009668618 0.9397708 192 192 192 255 0.07405 0.856425
24.26643 474.2739 61.85087 0.4265296 -0.005757677 0.9044553 192 192 192 255 0.095537 0.856425
22.31231 330.1429 61.85086 0.4275478 0.001992128 0.9039906 192 192 192 255 0.094672 0.792614
61.85089 282.8644 -24.26646 0.9999986 -0.0004471821 -0.001671074 192 192 192 255 0.124559 0.771682
61.85089 258.6003 0.0001 0.999999 -0.001388538 -0.0004627998 192 192 192 255 0.113815 0.76094
61.85089 282.8644 24.26656 0.9999985 -0.0009159251 0.001519381 192 192 192 255 0.103072 0.771682
61.8509 377.2885 21.39518 0.9253179 0.001924401 0.3791874 192 192 192 255 0.104343 0.813487
61.8509 474.2739 24.26656 0.9254621 -0.005607961 0.3787988 192 192 192 255 0.103072 0.856425
61.8509 474.2739 -20.46381 0.9449886 0.001617589 -0.3270993 192 192 192 255 0.122875 0.856425
61.8509 445.0234 -21.08803 0.9378441 0.00264657 -0.3470468 192 192 192 255 0.123152 0.843475
-62.22177 284.1011 21.69683 -0.9999399 -0.009125417 -0.006079125 192 192 192 255 0.152443 0.77223
-61.85088 260.3568 0.753106 -0.9999222 -0.01008973 -0.00734096 192 192 192 255 0.143171 0.761718
-61.85088 282.8644 -24.26662 -0.9999089 -0.009656741 -0.009431591 192 192 192 255 0.132094 0.771682
-61.85089 373.0766 -22.41591 -0.9253881 0.004240573 -0.3789973 192 192 192 255 0.132913 0.811622
-61.85089 474.2739 -20.83764 -0.9389638 0.002739728 -0.3440049 192 192 192 255 0.133612 0.856425
-61.85089 474.2739 24.2664 -0.9191273 -0.003885789 0.3939416 192 192 192 255 0.153581 0.856425
-61.85089 381.631 22.39611 -0.9239973 -0.002395228 0.3823917 192 192 192 255 0.152753 0.815409
-24.26643 217.071 61.85086 -0.06103277 0.0002549758 0.9981357 192 192 192 255 0.152001 0.942518
0.000135 241.3351 61.85086 -0.0004628003 0.00138854 0.999999 192 192 192 255 0.162744 0.95326
24.2666 217.071 61.85086 0.0001691597 9.922205e-05 1 192 192 192 255 0.173488 0.942518
24.2666 25.66149 61.85087 9.782796e-05 1.035264e-07 1 192 192 192 255 0.173488 0.857776
-24.26643 25.66149 61.85087 -0.134479 7.000164e-08 0.9909165 192 192 192 255 0.152001 0.857776
-24.26643 133.6603 61.85086 -0.1922878 0.005015778 0.9813257 192 192 192 255 0.152001 0.90559
-24.26643 199.5209 61.85086 -0.1911354 -0.01771201 0.9814039 192 192 192 255 0.152001 0.934748
61.85089 217.071 24.2664 1 4.860681e-05 0.0001939185 192 192 192 255 0.123032 0.942518
61.85089 237.6423 -1.745828 0.9999988 0.001527052 0.000393382 192 192 192 255 0.134549 0.951625
61.85089 217.071 -24.26662 0.9997554 8.609288e-05 -0.02211986 192 192 192 255 0.144519 0.942518
61.8509 25.66149 -24.26662 0.9909165 4.437282e-08 -0.1344788 192 192 192 255 0.144519 0.857776
61.8509 110.8498 -24.26662 0.9821686 0.005359211 -0.187926 192 192 192 255 0.144519 0.895491
61.85089 180.5524 -24.26662 0.9602332 -0.01351053 -0.2788723 192 192 192 255 0.144519 0.92635
61.8509 25.66149 24.2664 1 5.822676e-08 4.285763e-05 192 192 192 255 0.123032 0.857776
-61.85088 217.071 -24.26646 -0.9999983 0.0004620635 -0.001768864 192 192 192 255 0.094064 0.942518
-61.85088 241.3351 0.0001 -0.999999 0.00138854 -0.0004628004 192 192 192 255 0.104807 0.95326
-61.85088 217.071 24.26656 -0.9999983 0.000924907 0.00157879 192 192 192 255 0.115551 0.942518
-61.85089 25.66149 24.26656 -0.9043196 6.127891e-08 0.426856 192 192 192 255 0.115551 0.857776
-61.85089 25.66149 -24.26646 -0.9043186 6.070903e-08 -0.4268583 192 192 192 255 0.094064 0.857776
24.26643 217.071 -61.85092 0.00177244 0.0004629979 -0.9999983 192 192 192 255 0.086582 0.87234
-0.000127 241.3351 -61.85092 0.0005025334 0.001305977 -0.999999 192 192 192 255 0.075839 0.861597
-21.06414 213.9671 -61.85092 -0.001436302 0.0007611384 -0.9999987 192 192 192 255 0.066513 0.873714
-24.26659 25.66149 -61.85093 -0.3730702 0.003125651 -0.9277979 192 192 192 255 0.065095 0.957082
24.26643 25.66149 -61.85093 0.4268584 5.750976e-08 -0.9043185 192 192 192 255 0.086582 0.957082
-15.41629 174.3627 61.85085 -0.03029233 5.895576e-08 0.9995411 192 192 192 255 0.155919 0.92361
61.85089 147.1657 -16.13693 0.9947041 1.108361e-07 -0.10278 192 192 192 255 0.14092 0.911569
-48.30801 295.7652 -47.86506 -0.6489559 0 -0.7608261 192 192 192 255 0.169692 0.837773
35.64684 128.8958 54.43594 0.09580755 -1.725892e-08 0.9953999 192 192 192 255 0.014547 0.804447
3 5 4 6 
3 5 6 7 
3 156 157 9 
3 156 9 8 
3 158 10 11 
3 158 11 159 
3 160 161 162 
3 160 162 163 
3 164 165 166 
3 164 166 167 
3 1 0 168 
3 1 168 169 
3 169 170 2 
3 169 2 1 
3 3 2 170 
3 3 170 171 
3 171 168 0 
3 171 0 3 
3 16 18 19 
3 16 19 17 
3 20 172 173 
3 20 173 21 
3 174 175 23 
3 174 23 22 
3 176 177 178 
3 176 178 179 
3 180 181 13 
3 180 13 12 
3 14 13 181 
3 14 181 182 
3 182 183 15 
3 182 15 14 
3 12 15 183 
3 12 183 180 
3 184 185 186 
3 184 186 187 
3 26 28 32 
3 26 32 34 
3 29 148 37 
3 37 148 41 
3 148 151 41 
3 151 149 41 
3 149 25 41 
3 38 40 47 
3 38 47 43 
3 44 144 31 
3 31 144 35 
3 144 147 35 
3 147 145 35 
3 145 46 35 
3 24 39 41 
3 24 41 25 
3 188 45 47 
3 188 47 40 
3 189 33 35 
3 189 35 46 
3 190 191 26 
3 190 26 34 
3 27 36 192 
3 27 192 193 
3 30 194 195 
3 30 195 196 
3 197 42 198 
3 197 198 199 
3 200 201 202 
3 200 202 203 
3 26 204 28 
3 205 28 206 
3 206 28 150 
3 28 204 150 
3 204 207 150 
3 32 208 209 
3 32 209 34 
3 38 210 211 
3 38 211 40 
3 212 43 213 
3 214 215 47 
3 215 146 47 
3 47 146 43 
3 43 146 213 
3 191 204 26 
3 194 28 205 
3 30 208 32 
3 190 34 209 
3 216 217 218 
3 188 40 211 
3 42 43 212 
3 45 214 47 
3 219 39 24 
3 219 24 220 
3 221 45 188 
3 221 188 222 
3 223 33 189 
3 223 189 224 
3 225 191 190 
3 225 190 226 
3 30 32 28 
3 30 28 194 
3 27 29 37 
3 27 37 36 
3 197 38 43 
3 197 43 42 
3 200 44 31 
3 200 31 201 
3 53 55 54 
3 53 57 56 
3 53 56 55 
3 48 227 228 
3 48 228 49 
3 49 228 229 
3 49 229 50 
3 50 229 230 
3 50 230 51 
3 52 231 227 
3 52 227 48 
3 63 65 64 
3 154 67 66 
3 154 66 153 
3 58 232 233 
3 58 233 59 
3 59 233 234 
3 59 234 60 
3 152 235 236 
3 152 236 61 
3 62 237 238 
3 62 238 155 
3 73 75 74 
3 138 77 76 
3 138 76 137 
3 68 239 240 
3 68 240 69 
3 69 240 241 
3 69 241 70 
3 136 242 243 
3 136 243 71 
3 72 244 245 
3 72 245 139 
3 83 85 84 
3 142 87 86 
3 142 86 141 
3 78 246 247 
3 78 247 79 
3 79 247 248 
3 79 248 80 
3 140 249 250 
3 140 250 81 
3 82 251 252 
3 82 252 143 
3 93 95 94 
3 93 128 95 
3 97 96 129 
3 128 131 95 
3 95 131 96 
3 131 129 96 
3 88 253 254 
3 88 254 89 
3 89 254 255 
3 89 255 90 
3 90 255 256 
3 90 256 91 
3 257 258 92 
3 253 88 259 
3 259 88 130 
3 88 92 130 
3 92 258 130 
3 103 105 104 
3 103 107 105 
3 105 107 133 
3 133 107 135 
3 135 107 132 
3 107 106 132 
3 98 260 261 
3 98 261 99 
3 99 261 262 
3 99 262 100 
3 263 101 264 
3 262 265 100 
3 265 134 100 
3 100 134 101 
3 134 264 101 
3 102 266 260 
3 102 260 98 
3 113 115 114 
3 113 117 116 
3 113 116 115 
3 108 267 268 
3 108 268 109 
3 109 268 269 
3 109 269 110 
3 110 269 270 
3 110 270 111 
3 112 271 267 
3 112 267 108 
3 123 125 124 
3 123 127 126 
3 123 126 125 
3 118 272 273 
3 118 273 119 
3 119 273 274 
3 119 274 120 
3 120 274 275 
3 120 275 121 
3 122 276 272 
3 122 272 118 
3 259 130 277 
3 277 130 258 
3 265 278 134 
3 134 278 264 
3 70 241 242 
3 70 242 136 
3 73 138 137 
3 73 137 75 
3 139 245 239 
3 139 239 68 
3 80 248 249 
3 80 249 140 
3 83 142 141 
3 83 141 85 
3 143 252 246 
3 143 246 78 
3 145 147 279 
3 279 147 144 
3 207 280 150 
3 150 280 206 
3 60 234 235 
3 60 235 152 
3 63 154 153 
3 63 153 65 
3 155 238 232 
3 155 232 58 
