ply
format ascii 1.0
comment VCGLIB generated
comment TextureFile Dungeons_2_Texture_01_A.png
element vertex 338
property float x
property float y
property float z
property float nx
property float ny
property float nz
property uchar red
property uchar green
property uchar blue
property uchar alpha
property float texture_u
property float texture_v
element face 500
property list uchar int vertex_indices
end_header
0.004883 -17.36536 195.9785 -0.999308 0.03628481 -0.008180168 192 192 192 255 0.040569 0.658611
1.724609 -1.303245 -0.011719 -0.3247766 0.3103044 -0.893438 192 192 192 255 0.04123 0.734035
461.5312 3.776551 461.3906 -0.03405857 0.9990131 -0.02851364 192 192 192 255 0.215649 0.778841
499.8516 -1.669018 0.188477 0.541496 0.6203496 -0.567405 192 192 192 255 0.23261 0.733958
187.0381 3.768605 481.1836 -0.01158965 0.9984604 0.05424578 192 192 192 255 0.090599 0.769824
219.957 -0.752909 0.844727 -0.03357895 0.7701973 -0.6369212 192 192 192 255 0.125075 0.733705
107.9443 3.809584 4.682617 0.02623269 0.9220601 -0.3861568 192 192 192 255 0.08204 0.732228
4.743164 3.781971 4.552734 -0.250867 0.908727 -0.3335879 192 192 192 255 0.04239 0.732278
129.8311 -1.093378 -0.001953 0.05817196 0.4436081 -0.8943309 192 192 192 255 0.090448 0.734031
459.9004 3.733795 210.7744 -0.198896 0.978811 0.04867767 192 192 192 255 0.214905 0.893012
358.0527 -0.275638 217.2256 0.02088298 0.999641 0.01678468 192 192 192 255 0.178131 0.650434
4.726563 3.795476 98.00977 -0.3512208 0.93497 0.04975011 192 192 192 255 0.042383 0.696313
474.0527 2.335423 235.7861 -0.2553928 0.9664782 0.02635117 192 192 192 255 0.222698 0.643291
271.2217 2.989488 457.3926 0.01755477 0.9604995 -0.2777277 192 192 192 255 0.144771 0.558009
490.958 3.545587 251.1855 0.3555371 0.9325069 0.06343812 192 192 192 255 0.229054 0.874602
21.90918 3.194888 219.1875 -0.1364344 0.9897521 -0.04214704 192 192 192 255 0.048985 0.649679
135.0342 -0.276886 383.3086 -0.03000368 0.9995025 0.009721124 192 192 192 255 0.092447 0.58652
451.5391 -0.456719 229.0791 -0.09519701 0.994919 0.03276886 192 192 192 255 0.214049 0.645873
0.154297 -0.248026 499.8398 -0.645882 0.4095202 0.6443056 192 192 192 255 0.040627 0.541674
119.4336 -2.761318 139.623 0.02279721 0.9997394 -0.001198985 192 192 192 255 0.086454 0.680298
114.9717 3.767263 17.66699 0.02156975 0.9994109 -0.02669518 192 192 192 255 0.057768 0.980985
280.8701 3.803922 4.367188 -0.06771537 0.8906997 -0.4495206 192 192 192 255 0.133346 0.987044
499.9629 -7.034558 267.7568 0.9774503 0.211046 0.007103983 192 192 192 255 0.232653 0.630988
201.9727 -3.047087 0.006836 -0.003099087 0.1369537 -0.9905726 192 192 192 255 0.118165 0.734028
148.7998 -0.281273 106.8682 0.004306444 0.9997271 0.02296211 192 192 192 255 0.097736 0.692904
24.94043 3.774051 372.8613 0.05464219 0.9981536 -0.02652579 192 192 192 255 0.016753 0.819172
24.58105 3.689078 334.4434 0.08308472 0.9964818 0.01100258 192 192 192 255 0.016589 0.836673
397.8369 -1.380072 265.7334 0.07127684 0.994132 0.08137097 192 192 192 255 0.193416 0.631767
83.23145 -0.27533 120.0498 0.01022597 0.9999431 0.00303628 192 192 192 255 0.072545 0.687831
121.2881 -0.277489 368.6533 -0.002381193 0.9997936 0.02017931 192 192 192 255 0.087166 0.592159
0.09668 0.016156 269.4277 -0.9236097 0.3823449 -0.02752542 192 192 192 255 0.040605 0.630345
2.15918 -2.025686 189.3271 -0.7458563 0.6648732 0.04052154 192 192 192 255 0.041397 0.661171
137.0674 -1.787309 136.3447 -0.02891997 0.9991356 0.02986288 192 192 192 255 0.093229 0.68156
220.9736 3.195995 39.03711 -0.02588841 0.9839303 0.1766664 192 192 192 255 0.106059 0.971249
499.999 -3.162215 13.55859 0.8230437 0.5632987 -0.07275783 192 192 192 255 0.232667 0.728813
138.7549 2.891287 485.2715 0.05039841 0.9562536 0.2881649 192 192 192 255 0.093877 0.547281
40.08398 3.763536 382.29 0.1803776 0.9815255 -0.06380937 192 192 192 255 0.023652 0.814876
116.4434 -2.179272 393.2939 0.02929455 0.9995615 -0.004324953 192 192 192 255 0.085305 0.582677
13.75 3.765639 135.7568 -0.1882775 0.9808475 0.0498974 192 192 192 255 0.04585 0.681786
279.6729 -0.275258 441.4912 0.001647717 0.9999738 -0.007050758 192 192 192 255 0.148018 0.564129
348.1064 3.495723 41.25586 0.002054109 0.9774614 0.2111043 192 192 192 255 0.163976 0.970239
88.55664 0.112853 499.8008 0.04825577 0.4653429 0.8838141 192 192 192 255 0.074591 0.541689
390.8457 -1.383651 278.0723 0.07598605 0.9970452 -0.01127588 192 192 192 255 0.19073 0.627018
111.4893 -0.275496 193.6436 0.006634275 0.9999618 -0.00569973 192 192 192 255 0.083402 0.659509
271.7109 2.251483 4.588867 -0.08285522 0.9105412 -0.4050307 192 192 192 255 0.144959 0.732265
460.085 3.771257 355.3389 -0.1832348 0.9824864 -0.03384611 192 192 192 255 0.217332 0.597283
494.7295 -22.90052 4.979492 0.09872752 -0.9946969 0.0288275 192 192 192 255 0.230642 0.732114
40.89258 0.627625 348.0693 0.07456411 0.9969903 0.02122726 192 192 192 255 0.056278 0.600081
150.5225 -0.27598 164.7979 -0.01325332 0.9998168 -0.01381357 192 192 192 255 0.098398 0.67061
79.10449 3.445317 496.8809 0.008850522 0.906863 0.4213327 192 192 192 255 0.041428 0.762673
96.98438 2.201073 495.2324 0.092402 0.6532212 0.7515078 192 192 192 255 0.077829 0.543447
172.4541 1.731142 31.7998 0.08461448 0.9935613 0.07534108 192 192 192 255 0.106824 0.721793
424.3467 -0.277127 252.0039 -0.004449579 0.9998792 0.01489066 192 192 192 255 0.203601 0.63705
278.9307 3.048368 41.50098 -0.01069084 0.971736 0.235828 192 192 192 255 0.147732 0.718059
49.81543 -0.044455 371.8955 0.1167101 0.9926759 -0.03119849 192 192 192 255 0.059706 0.590912
50.08105 -0.14498 322.2656 0.1534685 0.9880552 -0.01394057 192 192 192 255 0.059809 0.610011
3.762695 -22.90052 5.267578 -0.01749697 -0.9998003 -0.009661419 192 192 192 255 0.042013 0.732003
27.79199 3.767456 241.2344 -0.003547023 0.9999811 -0.005020698 192 192 192 255 0.018052 0.879136
448.751 -0.28462 271.4824 -0.126845 0.9918887 -0.008200996 192 192 192 255 0.212977 0.629554
199.9551 1.396055 494.999 -0.1033709 0.9003448 0.4227217 192 192 192 255 0.11739 0.543537
3.188477 3.458585 270.5205 -0.4351072 0.8992944 -0.04417479 192 192 192 255 0.041792 0.629924
173.3779 -0.290402 57.38477 0.01633193 0.9998621 -0.003011477 192 192 192 255 0.107179 0.711947
5.181641 0.940306 110.6016 -0.7729111 0.6020551 0.2003451 192 192 192 255 0.042558 0.691467
453.3945 3.773915 12.3418 0.01397933 0.9950827 -0.09805626 192 192 192 255 0.211942 0.983411
122.4189 1.950798 3.849609 0.04964289 0.9402482 -0.3368516 192 192 192 255 0.061161 0.987279
257.6943 3.77141 17.10059 -0.02170916 0.9966096 -0.07936022 192 192 192 255 0.139573 0.72745
340.374 -0.275883 441.3945 0.01202357 0.9992511 0.03677879 192 192 192 255 0.171339 0.564166
495.2422 3.777245 38.67383 0.3376968 0.9404078 -0.03992674 192 192 192 255 0.230839 0.719147
215.999 3.630639 496.6318 -0.03888778 0.9030924 0.427682 192 192 192 255 0.123554 0.542909
499.6045 0.329888 209.4453 0.7944157 0.6069108 0.02372789 192 192 192 255 0.232515 0.653428
0.126953 0.095783 1.827148 -0.763409 0.4907636 -0.4199497 192 192 192 255 0.040616 0.733327
391.3867 -1.311 296.8408 0.03478077 0.9992179 -0.01881277 192 192 192 255 0.190938 0.619795
3.879883 -2.399415 207.4053 -0.557993 0.8289561 -0.03841385 192 192 192 255 0.042058 0.654213
146.3525 3.773886 478.4463 0.001740129 0.9983278 0.05778075 192 192 192 255 0.072064 0.771071
282.5664 3.775604 462.5605 0.06504309 0.9879967 -0.1401142 192 192 192 255 0.134118 0.778308
346.9395 0.254483 463.6016 -0.05272689 0.9807796 -0.1878596 192 192 192 255 0.173861 0.55562
474.043 3.036304 266.5977 -0.03746453 0.998412 0.04207238 192 192 192 255 0.221348 0.867581
132.0039 -2.017863 498.0088 0.06433399 0.7389276 0.6707065 192 192 192 255 0.091283 0.542379
445.5254 2.55336 4.849609 -0.02255888 0.8969767 -0.4415019 192 192 192 255 0.211738 0.732164
417.2822 -0.432802 277.9629 -0.2432499 0.9511332 -0.1901978 192 192 192 255 0.200887 0.62706
373.4082 -1.239364 245.2959 -0.1125951 0.9927289 -0.04256385 192 192 192 255 0.184031 0.639632
52.03027 -0.275957 170.2354 0.05976379 0.9982125 -0.0003536591 192 192 192 255 0.060557 0.668518
52.11719 -0.276811 51.60156 0.05000303 0.996321 0.0696 192 192 192 255 0.060591 0.714172
409.665 -0.656791 295.8438 -0.03600001 0.9985884 -0.03905421 192 192 192 255 0.197961 0.620179
22.8877 3.771734 198.4746 -0.00537969 0.9993114 0.03671309 192 192 192 255 0.049361 0.65765
497.9941 -4.563854 286.8779 0.9059473 0.4223372 -0.02984687 192 192 192 255 0.231897 0.62363
103.6123 -0.279178 381.7773 0.0334405 0.9993188 0.01561433 192 192 192 255 0.080375 0.587109
477.084 1.724506 5.852539 0.117169 0.9246013 -0.3624692 192 192 192 255 0.223863 0.731778
414.2773 -2.209004 277.083 -0.2058587 0.9753243 -0.0797796 192 192 192 255 0.199733 0.627399
0.274414 -2.309478 145.25 -0.8115517 0.5841787 -0.01091274 192 192 192 255 0.040673 0.678133
331.2402 3.776258 473.5605 0.01498024 0.9891176 -0.1463626 192 192 192 255 0.156292 0.773297
39.95801 3.775967 461.248 0.04455786 0.9980824 -0.04296668 192 192 192 255 0.023594 0.778906
144.6123 -0.619227 149.0449 -0.1726184 0.9848602 0.01591276 192 192 192 255 0.096127 0.676673
291.6035 1.044577 455.4277 0.05853268 0.9679031 -0.2444126 192 192 192 255 0.152601 0.558766
128.9512 -0.49022 167.4766 -0.03561718 0.9986777 -0.03707117 192 192 192 255 0.09011 0.66958
242.0059 -0.275413 57.4834 -0.002540015 0.9999565 0.008979396 192 192 192 255 0.133546 0.711909
373.1084 -0.275531 308.5293 0.01287971 0.999907 -0.004504148 192 192 192 255 0.183915 0.615297
161.793 3.490602 41.25 0.1418097 0.9718747 0.1880149 192 192 192 255 0.079098 0.970241
0.18457 -7.367882 207.2568 -0.9577366 0.285954 -0.03115978 192 192 192 255 0.040638 0.654271
450.2627 0.036636 49.66797 -0.1389165 0.9787005 0.1511542 192 192 192 255 0.213558 0.714916
327.9541 -0.325794 454.5137 0.02645421 0.9974383 -0.06646118 192 192 192 255 0.166567 0.559117
3.518555 1.853045 232.625 -0.4768868 0.8744303 -0.08916612 192 192 192 255 0.041919 0.644508
448.3018 -0.276772 358.2627 -0.1557504 0.9875709 -0.02110951 192 192 192 255 0.212805 0.596158
-0.000977 -12.20536 118.0176 -0.9849596 0.171934 0.01712707 192 192 192 255 0.040567 0.688613
500.0088 -21.07997 329.626 0.9850361 -0.1722826 -0.004760584 192 192 192 255 0.232671 0.607179
493.5977 -1.75535 4.555664 0.04044667 0.9866241 -0.1579142 192 192 192 255 0.230207 0.732277
457.832 3.173568 455.877 -0.2932433 0.9531929 0.07370038 192 192 192 255 0.216466 0.558593
454.8955 1.181867 289.5566 -0.1632825 0.9865737 0.00335748 192 192 192 255 0.215338 0.622599
188.2754 2.981546 487.8174 -0.04607755 0.9741827 0.2210087 192 192 192 255 0.091163 0.766802
391.9961 3.681245 459.5596 -0.008069105 0.9816946 -0.1902907 192 192 192 255 0.183971 0.779675
444.1934 -0.87037 254.3174 -0.02549783 0.999637 -0.008706984 192 192 192 255 0.211226 0.63616
151.8711 -2.752076 3.6875 0.02154624 0.7839481 -0.6204525 192 192 192 255 0.098916 0.732611
266 3.771975 33.89355 -0.01437449 0.9968588 0.07788417 192 192 192 255 0.126571 0.973593
32.19043 3.607494 306.8555 0.08349885 0.9964258 0.01278948 192 192 192 255 0.052935 0.615941
429.1016 1.908895 4.818359 0.06445985 0.8199322 -0.56882 192 192 192 255 0.205428 0.732176
129.6543 2.248033 3.949219 0.0620555 0.9197911 -0.3874706 192 192 192 255 0.090381 0.732511
196.6787 2.381728 29.56836 -0.09058066 0.9906248 0.102263 192 192 192 255 0.094991 0.975563
349.3174 -0.275459 255.3857 0.0142306 0.9998899 -0.004213149 192 192 192 255 0.174775 0.635749
371.8193 -1.463182 223.7988 0.02669434 0.998719 0.04298542 192 192 192 255 0.18342 0.647905
389.9814 -0.132804 449.8047 -0.01244644 0.9838229 -0.1787106 192 192 192 255 0.190398 0.56093
3.399414 -22.90052 496.2461 -0.01415127 -0.9997697 0.01612904 192 192 192 255 0.041873 0.543057
214.3779 0.044785 499.8809 -0.04531214 0.4000332 0.9153798 192 192 192 255 0.122931 0.541658
450.915 3.782887 494.4229 0.0009265985 0.9979573 0.06387896 192 192 192 255 0.210812 0.763793
375.9336 -0.341606 244.5635 -0.23084 0.9650654 -0.1239428 192 192 192 255 0.185001 0.639914
499.79 -22.80644 499.9238 0.5799075 -0.5722209 0.5798885 192 192 192 255 0.232587 0.541642
0.152344 -22.75583 499.9033 -0.5790535 -0.5681546 0.5847199 192 192 192 255 0.040626 0.54165
416.6562 3.806536 4.709961 0.03711033 0.9146735 -0.4024864 192 192 192 255 0.200647 0.732218
490.998 -22.90051 491.9209 0.004095888 -0.9999822 0.004345644 192 192 192 255 0.229209 0.544722
499.2549 -22.80633 177.6758 0.5611966 -0.8276826 6.519772e-05 192 192 192 255 0.232381 0.665654
471.8818 2.33953 286.0381 -0.02529505 0.9994895 -0.01951917 192 192 192 255 0.221864 0.623953
495.0371 3.780395 495.0488 0.2596915 0.9642112 0.05345252 192 192 192 255 0.230913 0.763508
164.3916 0.255363 49.11035 0.0618389 0.9849678 0.1612899 192 192 192 255 0.103727 0.715131
9.59082 3.687128 236.6162 -0.142141 0.9884494 -0.05257193 192 192 192 255 0.00976 0.88124
211.6504 -0.27767 49.58984 -0.04309481 0.98666 0.1569872 192 192 192 255 0.121883 0.714947
49.95117 -0.079639 93.83984 0.2296641 0.97327 4.54239e-05 192 192 192 255 0.059759 0.697917
452.9238 -0.46153 314.2197 -0.1597307 0.9871474 0.005123985 192 192 192 255 0.214581 0.613107
143.3633 -7.857533 0.00293 0.05775011 0.17574 -0.9827413 192 192 192 255 0.095648 0.734029
477.7266 3.7663 237.6807 -0.1681346 0.9857505 0.005175651 192 192 192 255 0.223026 0.880755
141.3555 -1.417246 145.6104 -0.07791144 0.9956034 -0.0519971 192 192 192 255 0.094876 0.677994
56.07715 -0.275171 365.5674 0.01726169 0.9998506 -0.0009058211 192 192 192 255 0.062112 0.593347
104.4346 -0.276769 158.6172 0.06529886 0.9977531 -0.01499821 192 192 192 255 0.080691 0.672989
381.5488 -0.275603 209.5908 -0.00783366 0.9996396 0.02567801 192 192 192 255 0.187158 0.653372
45.18164 1.79564 325.9492 0.2128895 0.9769854 0.01332875 192 192 192 255 0.057926 0.608594
489.6602 -3.923382 0.980469 -0.02908288 0.593876 -0.8040308 192 192 192 255 0.228695 0.733653
146.8799 -2.814844 498.6299 -0.1002632 0.8987443 0.4268558 192 192 192 255 0.096999 0.54214
366.9844 3.771207 459.9434 -0.0748807 0.9548098 -0.2876302 192 192 192 255 0.172576 0.7795
180.5713 -1.390037 499.8096 -0.01365776 0.62528 0.780281 192 192 192 255 0.109943 0.541686
17.16309 3.211966 165.2529 -0.22247 0.9729562 -0.06215692 192 192 192 255 0.01321 0.91375
345.1582 -1.466969 450.9072 -0.00622236 0.9998767 -0.01441988 192 192 192 255 0.173177 0.560505
499.7227 0.199851 37.73633 0.8715755 0.4890486 -0.03446307 192 192 192 255 0.232561 0.719508
296.332 0.128293 49.44043 -0.00180393 0.977622 0.2103617 192 192 192 255 0.154418 0.715004
0.020508 -2.738822 155.6377 -0.8119155 0.5835987 0.01434458 192 192 192 255 0.040575 0.674135
399.4004 -0.275503 327.1904 -0.0004967886 0.9999586 -0.009081459 192 192 192 255 0.194017 0.608116
377.6611 -0.264706 257.4746 0.03190922 0.9990655 -0.02915311 192 192 192 255 0.185665 0.634945
492.3496 0.051905 273.5605 0.3560336 0.9341424 0.0248608 192 192 192 255 0.229728 0.628754
11.94922 2.031786 173.5596 -0.2873887 0.9578132 0.001244325 192 192 192 255 0.045158 0.667239
202.001 -22.81104 0.197266 -4.635238e-05 -0.715744 -0.6983628 192 192 192 255 0.118176 0.733955
500.0029 -1.786753 219.5479 0.9710717 0.2366071 0.03220131 192 192 192 255 0.232668 0.649541
427.25 -0.291303 269.708 -0.04427298 0.9990191 -0.0008778904 192 192 192 255 0.204717 0.630237
32.10059 3.756805 286.3242 0.09145079 0.9956428 0.01822378 192 192 192 255 0.020015 0.858595
128.2246 -0.276963 413.9355 -0.01602619 0.9996858 -0.01927473 192 192 192 255 0.089831 0.574733
49.51074 0.102533 278.3008 0.1851372 0.9824122 0.02430483 192 192 192 255 0.059589 0.62693
40.11621 3.749267 43.7207 0.1069004 0.9937097 0.03336812 192 192 192 255 0.023667 0.969116
111.4082 3.63693 492.8916 0.02989886 0.9335862 0.3571034 192 192 192 255 0.08337 0.544348
499.6533 0.305828 498.3135 0.8950225 0.4156501 0.1617709 192 192 192 255 0.232534 0.542262
498.5605 -4.577941 252.2188 0.6349091 0.7701852 0.06087138 192 192 192 255 0.232114 0.636968
293.5352 3.767347 475.6826 0.02404401 0.9981105 -0.05654528 192 192 192 255 0.139115 0.77233
499.6592 0.301902 313.2334 0.9262055 0.3728322 -0.05603194 192 192 192 255 0.232536 0.613487
471.9541 2.685521 300.7012 -0.05837192 0.9980993 -0.0197648 192 192 192 255 0.221892 0.61831
4.734375 3.778412 495.3301 -0.2758649 0.9211228 0.2746475 192 192 192 255 0.007548 0.763379
195.5869 -0.794436 0.566406 -0.08407863 0.6258163 -0.7754255 192 192 192 255 0.115712 0.733813
291.0664 -0.003152 0.09082 -0.005241948 0.4155495 -0.9095555 192 192 192 255 0.152395 0.733995
206.0977 3.762298 21.81934 -0.06446514 0.9950604 -0.0754927 192 192 192 255 0.099282 0.979093
271.4062 -0.112323 449.9697 0.01252154 0.9801238 -0.1979914 192 192 192 255 0.144842 0.560866
6.761719 1.74758 124.6465 -0.5799879 0.8137472 -0.03780909 192 192 192 255 0.043165 0.686062
415.8408 -1.059794 -0.045898 0.02279343 0.3868596 -0.9218569 192 192 192 255 0.200333 0.734048
363.2627 1.095318 455.9707 -0.1040932 0.934445 -0.3405542 192 192 192 255 0.180133 0.558557
448.1934 -0.278043 51.79688 -0.05595479 0.996888 0.05552972 192 192 192 255 0.212763 0.714097
491.3516 3.774534 321.7051 0.02278726 0.9995524 -0.01938684 192 192 192 255 0.229234 0.842476
459.71 0.539648 251.4824 -0.1202204 0.9926647 -0.01280263 192 192 192 255 0.217188 0.637251
314.4131 1.449257 464.6426 0.01760637 0.9836979 -0.1789651 192 192 192 255 0.161365 0.555219
49.61133 0.081355 49.58887 0.1607375 0.9718007 0.1725306 192 192 192 255 0.059628 0.714947
27.1582 -22.81136 0.134766 -0.0005649254 -0.7034719 -0.7107229 192 192 192 255 0.051002 0.733979
0.110352 -22.74683 0.201172 -0.5827354 -0.5712562 -0.5780016 192 192 192 255 0.04061 0.733953
397.46 -0.276244 241.0654 -0.01300526 0.9998853 0.007768678 192 192 192 255 0.193271 0.64126
9.725586 3.772372 265.708 -0.06686616 0.9974712 -0.02408783 192 192 192 255 0.009822 0.867987
160.7471 -1.062328 499.1826 -0.0343695 0.7205321 0.6925694 192 192 192 255 0.102326 0.541927
166.9795 -1.415246 4.208008 -0.01756696 0.867601 -0.4969507 192 192 192 255 0.104721 0.732411
154.5576 3.310579 17.47949 0.03184674 0.9787828 -0.2024102 192 192 192 255 0.075802 0.98107
500.0039 -21.02024 8.455078 0.8325957 -0.5536938 0.01441112 192 192 192 255 0.232669 0.730777
135.9492 -0.314986 126.248 -0.01280001 0.9930758 0.1167763 192 192 192 255 0.092799 0.685446
496.7676 3.575759 177.4053 0.4215779 0.9067893 0.002299199 192 192 192 255 0.231425 0.665759
490.9854 3.664696 223.8135 0.1611118 0.9869315 -0.003044174 192 192 192 255 0.229067 0.887072
236.9082 0.674584 46.49414 0.00347929 0.9621056 0.2726551 192 192 192 255 0.131587 0.716138
132.4326 -5.434638 499.9912 0.01102334 0.234896 0.971958 192 192 192 255 0.091448 0.541616
358.8555 -0.27536 272.1592 0.001842796 0.9999765 -0.006616306 192 192 192 255 0.178439 0.629294
393.5107 3.641041 496.707 -6.933289e-05 0.8985022 0.4389691 192 192 192 255 0.191754 0.54288
496.8623 3.349792 496.8174 0.5183192 0.8537586 0.04941051 192 192 192 255 0.231744 0.762702
435.7236 -0.275534 320.5977 0.05846782 0.9982855 0.002777144 192 192 192 255 0.207972 0.610653
0.389648 -1.758542 226.9131 -0.8861359 0.4575627 -0.07348165 192 192 192 255 0.040717 0.646706
497.7441 1.592075 227.0332 0.6480106 0.7605303 0.04093841 192 192 192 255 0.231801 0.64666
110.4326 -0.27643 416.5957 0.01132384 0.9997362 -0.01998428 192 192 192 255 0.082996 0.57371
0.117188 0.030446 99.67676 -0.8788623 0.4666219 0.09932262 192 192 192 255 0.040612 0.695671
461.5166 3.777143 39.35059 -0.04337234 0.9982008 0.04140194 192 192 192 255 0.215642 0.971107
451.4521 -0.70327 341.4102 -0.1978688 0.9790874 -0.047286 192 192 192 255 0.214015 0.602644
470.9014 -1.415534 0.052734 0.03878935 0.5002853 -0.8649913 192 192 192 255 0.221488 0.73401
447.377 -0.275235 138.7412 -0.06312962 0.9979198 -0.01306446 192 192 192 255 0.21245 0.680638
449.7949 -0.167349 132.8428 -0.2062469 0.9784958 -0.002883288 192 192 192 255 0.213378 0.682908
488.5 3.774055 23.79688 0.1892086 0.9725664 -0.1353318 192 192 192 255 0.227935 0.978192
231.4805 2.977303 10.56055 0.01611896 0.9616433 -0.273829 192 192 192 255 0.129502 0.729966
102.2695 -22.8103 0.216797 0.0006524372 -0.7068405 -0.7073727 192 192 192 255 0.079859 0.733947
18.60449 2.305382 153.084 -0.214066 0.9754764 0.05120195 192 192 192 255 0.013867 0.919294
118.4443 -0.276043 104.2383 -0.002369024 0.9997378 0.02277809 192 192 192 255 0.086074 0.693916
397.9746 -20.22343 -0.000977 -0.00256486 -0.1353655 -0.9907925 192 192 192 255 0.193469 0.734031
499.7334 -22.78197 0.189453 0.5806431 -0.6015701 -0.5486047 192 192 192 255 0.232565 0.733958
3.65625 2.431578 261.4287 -0.4108268 0.9110016 -0.0360207 192 192 192 255 0.041972 0.633423
500.0371 -20.92909 173.7734 0.9809979 -0.1940181 0.0003514644 192 192 192 255 0.232682 0.667156
499.3936 -22.78717 61.4043 0.5906895 -0.8068988 -0.0006097809 192 192 192 255 0.232434 0.7104
492.1484 1.855747 290.4102 0.2483156 0.9659016 -0.0733035 192 192 192 255 0.229651 0.62227
0.072266 -22.82645 485.5195 -0.71631 -0.6977802 0.001709651 192 192 192 255 0.040595 0.547185
499.2773 -22.76074 296.6885 0.5590541 -0.8291312 0.0001819103 192 192 192 255 0.23239 0.619854
400.0283 -3.04883 274.6641 0.1396902 0.9892775 0.04262343 192 192 192 255 0.194258 0.62833
28.77637 3.773354 158.0889 -0.03990331 0.9992 -0.002670295 192 192 192 255 0.0185 0.917014
184.6289 1.464914 29.78223 -0.01703301 0.9988806 0.04413172 192 192 192 255 0.111502 0.722569
132.9248 -0.293601 51.44434 -0.0005786879 0.9938568 0.1106719 192 192 192 255 0.091637 0.714233
444.3857 -1.710104 322.8379 0.02977753 0.9995563 -0.0007995456 192 192 192 255 0.2113 0.609791
470.0771 3.760175 335.5693 -0.07759818 0.9964212 -0.03351706 192 192 192 255 0.221171 0.604891
174.2822 -0.277822 123.9482 -0.02224853 0.9997476 0.003105341 192 192 192 255 0.107527 0.686331
50.09766 -0.1132 449.9971 0.1401455 0.9822232 -0.1248875 192 192 192 255 0.059815 0.560855
447.624 -0.189534 449.667 -0.1145595 0.9851015 -0.1282625 192 192 192 255 0.212544 0.560983
40.10059 3.726184 275.1885 0.1993117 0.977934 0.06261028 192 192 192 255 0.023659 0.863668
355.0957 1.568994 464.1416 -0.1909124 0.955752 -0.2238095 192 192 192 255 0.176995 0.555412
499.1201 0.104089 499.8262 0.5229161 0.3637816 0.7708579 192 192 192 255 0.232329 0.541679
486.9473 -7.63083 0.009766 0.01245835 0.08581383 -0.9962333 192 192 192 255 0.227652 0.734027
449.5625 -0.265227 290.8037 -0.127391 0.9917011 0.01733329 192 192 192 255 0.213289 0.622119
486.6611 1.150038 266.6816 0.09321777 0.9902003 0.103989 192 192 192 255 0.227097 0.867543
44.60059 3.462358 41.43066 0.06121692 0.9891953 0.1332112 192 192 192 255 0.057703 0.718086
387.4541 -1.416131 227.6484 -0.1613918 0.9847024 0.06567962 192 192 192 255 0.189427 0.646423
103.7002 -1.21211 124.2002 0.04872844 0.9983768 0.02948475 192 192 192 255 0.080409 0.686234
184.7646 1.158976 17.31836 -0.08140106 0.9934119 -0.0806643 192 192 192 255 0.111554 0.727366
474.0977 3.774604 205.4648 -0.002503887 0.999945 0.01018175 192 192 192 255 0.221373 0.895431
385.3193 -0.269135 282.1826 0.09762181 0.9951952 -0.007519054 192 192 192 255 0.188607 0.625436
349.5742 3.649271 476.334 -0.02232466 0.9951564 -0.0957359 192 192 192 255 0.164645 0.772033
159.1953 -1.553245 122.6455 -0.05299339 0.9974395 0.04802268 192 192 192 255 0.10173 0.686832
352.0996 -22.70473 0.920898 0.002606225 -0.830576 -0.5568992 192 192 192 255 0.175844 0.733676
293.8643 3.779964 494.3613 -0.004436377 0.9714126 0.2373562 192 192 192 255 0.139265 0.763821
183.1504 -0.965421 49.00977 0.01528113 0.9993225 0.03348163 192 192 192 255 0.110934 0.71517
496.6279 3.380613 310.1738 0.4348167 0.8921854 -0.1222281 192 192 192 255 0.231372 0.614664
136.8955 3.766528 19.7959 0.0388556 0.9945511 -0.09673931 192 192 192 255 0.067756 0.980015
497.8574 -1.935048 271.0371 0.7193553 0.6909162 0.07185316 192 192 192 255 0.231844 0.629726
461.1523 0.434419 228.6475 -0.1512619 0.9826618 0.1072184 192 192 192 255 0.217742 0.646039
462.4033 2.706311 338.2744 -0.2247331 0.9721979 -0.06577403 192 192 192 255 0.218223 0.60385
461.5166 3.777143 39.35059 -0.04337234 0.9982008 0.04140194 192 192 192 255 0.217882 0.718887
348.1064 3.495723 41.25586 0.002054109 0.9774614 0.2111043 192 192 192 255 0.17431 0.718154
40.11621 3.749267 43.7207 0.1069004 0.9937097 0.03336812 192 192 192 255 0.05598 0.717205
40.10059 3.726184 275.1885 0.1993117 0.977934 0.06261028 192 192 192 255 0.055974 0.628128
161.793 3.490602 41.25 0.1418097 0.9718747 0.1880149 192 192 192 255 0.102728 0.718156
459.9004 3.733795 210.7744 -0.198896 0.978811 0.04867767 192 192 192 255 0.217261 0.652917
460.085 3.771257 355.3389 -0.1832348 0.9824864 -0.03384611 192 192 192 255 0.21499 0.827154
391.9961 3.681245 459.5596 -0.008069105 0.9816946 -0.1902907 192 192 192 255 0.191172 0.557175
461.5312 3.776551 461.3906 -0.03405857 0.9990131 -0.02851364 192 192 192 255 0.217888 0.556471
24.58105 3.689078 334.4434 0.08308472 0.9964818 0.01100258 192 192 192 255 0.050011 0.605325
24.94043 3.774051 372.8613 0.05464219 0.9981536 -0.02652579 192 192 192 255 0.05015 0.59054
22.8877 3.771734 198.4746 -0.00537969 0.9993114 0.03671309 192 192 192 255 0.015818 0.898615
11.94922 2.031786 173.5596 -0.2873887 0.9578132 0.001244325 192 192 192 255 0.010835 0.909966
474.043 3.036304 266.5977 -0.03746453 0.998412 0.04207238 192 192 192 255 0.222695 0.631434
280.8701 3.803922 4.367188 -0.06771537 0.8906997 -0.4495206 192 192 192 255 0.148478 0.73235
257.6943 3.77141 17.10059 -0.02170916 0.9966096 -0.07936022 192 192 192 255 0.122787 0.981243
416.6562 3.806536 4.709961 0.03711033 0.9146735 -0.4024864 192 192 192 255 0.195205 0.986887
477.084 1.724506 5.852539 0.117169 0.9246013 -0.3624692 192 192 192 255 0.222734 0.986367
445.5254 2.55336 4.849609 -0.02255888 0.8969767 -0.4415019 192 192 192 255 0.208357 0.986824
314.4131 1.449257 464.6426 0.01760637 0.9836979 -0.1789651 192 192 192 255 0.148627 0.777359
138.7549 2.891287 485.2715 0.05039841 0.9562536 0.2881649 192 192 192 255 0.068603 0.767962
40.08398 3.763536 382.29 0.1803776 0.9815255 -0.06380937 192 192 192 255 0.055968 0.586912
39.95801 3.775967 461.248 0.04455786 0.9980824 -0.04296668 192 192 192 255 0.055919 0.556526
278.9307 3.048368 41.50098 -0.01069084 0.971736 0.235828 192 192 192 255 0.132462 0.970127
206.0977 3.762298 21.81934 -0.06446514 0.9950604 -0.0754927 192 192 192 255 0.11975 0.725634
111.4082 3.63693 492.8916 0.02989886 0.9335862 0.3571034 192 192 192 255 0.056145 0.76449
184.7646 1.158976 17.31836 -0.08140106 0.9934119 -0.0806643 192 192 192 255 0.089563 0.981144
184.6289 1.464914 29.78223 -0.01703301 0.9988806 0.04413172 192 192 192 255 0.089501 0.975466
429.1016 1.908895 4.818359 0.06445985 0.8199322 -0.56882 192 192 192 255 0.200875 0.986838
96.98438 2.201073 495.2324 0.092402 0.6532212 0.7515078 192 192 192 255 0.049574 0.763424
196.6787 2.381728 29.56836 -0.09058066 0.9906248 0.102263 192 192 192 255 0.116131 0.722651
188.2754 2.981546 487.8174 -0.04607755 0.9741827 0.2210087 192 192 192 255 0.112903 0.546301
3.65625 2.431578 261.4287 -0.4108268 0.9110016 -0.0360207 192 192 192 255 0.007057 0.869936
3.188477 3.458585 270.5205 -0.4351072 0.8992944 -0.04417479 192 192 192 255 0.006844 0.865794
492.1484 1.855747 290.4102 0.2483156 0.9659016 -0.0733035 192 192 192 255 0.229597 0.856733
471.8818 2.33953 286.0381 -0.02529505 0.9994895 -0.01951917 192 192 192 255 0.220364 0.858725
496.6279 3.380613 310.1738 0.4348167 0.8921854 -0.1222281 192 192 192 255 0.231637 0.84773
488.5 3.774055 23.79688 0.1892086 0.9725664 -0.1353318 192 192 192 255 0.228249 0.724873
122.4189 1.950798 3.849609 0.04964289 0.9402482 -0.3368516 192 192 192 255 0.087601 0.732549
271.7109 2.251483 4.588867 -0.08285522 0.9105412 -0.4050307 192 192 192 255 0.129173 0.986943
266 3.771975 33.89355 -0.01437449 0.9968588 0.07788417 192 192 192 255 0.142765 0.720987
220.9736 3.195995 39.03711 -0.02588841 0.9839303 0.1766664 192 192 192 255 0.125465 0.719007
474.0527 2.335423 235.7861 -0.2553928 0.9664782 0.02635117 192 192 192 255 0.221353 0.881618
271.2217 2.989488 457.3926 0.01755477 0.9604995 -0.2777277 192 192 192 255 0.12895 0.780662
471.9541 2.685521 300.7012 -0.05837192 0.9980993 -0.0197648 192 192 192 255 0.220397 0.852045
363.2627 1.095318 455.9707 -0.1040932 0.934445 -0.3405542 192 192 192 255 0.170881 0.78131
490.958 3.545587 251.1855 0.3555371 0.9325069 0.06343812 192 192 192 255 0.229193 0.637365
495.0371 3.780395 495.0488 0.2596915 0.9642112 0.05345252 192 192 192 255 0.23076 0.543518
231.4805 2.977303 10.56055 0.01611896 0.9616433 -0.273829 192 192 192 255 0.110845 0.984222
349.5742 3.649271 476.334 -0.02232466 0.9951564 -0.0957359 192 192 192 255 0.174874 0.55072
331.2402 3.776258 473.5605 0.01498024 0.9891176 -0.1463626 192 192 192 255 0.16783 0.551787
486.6611 1.150038 266.6816 0.09321777 0.9902003 0.103989 192 192 192 255 0.227542 0.631402
291.6035 1.044577 455.4277 0.05853268 0.9679031 -0.2444126 192 192 192 255 0.138235 0.781557
470.0771 3.760175 335.5693 -0.07759818 0.9964212 -0.03351706 192 192 192 255 0.219542 0.83616
79.10449 3.445317 496.8809 0.008850522 0.906863 0.4213327 192 192 192 255 0.070959 0.542813
4.734375 3.778412 495.3301 -0.2758649 0.9211228 0.2746475 192 192 192 255 0.042386 0.54341
462.4033 2.706311 338.2744 -0.2247331 0.9721979 -0.06577403 192 192 192 255 0.216046 0.834928
21.90918 3.194888 219.1875 -0.1364344 0.9897521 -0.04214704 192 192 192 255 0.015372 0.889179
129.6543 2.248033 3.949219 0.0620555 0.9197911 -0.3874706 192 192 192 255 0.064457 0.987234
4.743164 3.781971 4.552734 -0.250867 0.908727 -0.3335879 192 192 192 255 0.007552 0.986959
4.726563 3.795476 98.00977 -0.3512208 0.93497 0.04975011 192 192 192 255 0.007544 0.944384
13.75 3.765639 135.7568 -0.1882775 0.9808475 0.0498974 192 192 192 255 0.011655 0.927187
5.181641 0.940306 110.6016 -0.7729111 0.6020551 0.2003451 192 192 192 255 0.007752 0.938647
293.8643 3.779964 494.3613 -0.004436377 0.9714126 0.2373562 192 192 192 255 0.15347 0.543783
496.8623 3.349792 496.8174 0.5183192 0.8537586 0.04941051 192 192 192 255 0.231462 0.542837
3.518555 1.853045 232.625 -0.4768868 0.8744303 -0.08916612 192 192 192 255 0.006994 0.883058
32.19043 3.607494 306.8555 0.08349885 0.9964258 0.01278948 192 192 192 255 0.020056 0.849241
45.18164 1.79564 325.9492 0.2128895 0.9769854 0.01332875 192 192 192 255 0.025974 0.840543
32.10059 3.756805 286.3242 0.09145079 0.9956428 0.01822378 192 192 192 255 0.0529 0.623843
154.5576 3.310579 17.47949 0.03184674 0.9787828 -0.2024102 192 192 192 255 0.099948 0.727304
172.4541 1.731142 31.7998 0.08461448 0.9935613 0.07534108 192 192 192 255 0.083955 0.974546
457.832 3.173568 455.877 -0.2932433 0.9531929 0.07370038 192 192 192 255 0.213963 0.781353
6.761719 1.74758 124.6465 -0.5799879 0.8137472 -0.03780909 192 192 192 255 0.008471 0.932249
18.60449 2.305382 153.084 -0.214066 0.9754764 0.05120195 192 192 192 255 0.047715 0.675118
497.7441 1.592075 227.0332 0.6480106 0.7605303 0.04093841 192 192 192 255 0.232146 0.885605
454.8955 1.181867 289.5566 -0.1632825 0.9865737 0.00335748 192 192 192 255 0.212625 0.857122
215.999 3.630639 496.6318 -0.03888778 0.9030924 0.427682 192 192 192 255 0.103793 0.762786
496.7676 3.575759 177.4053 0.4215779 0.9067893 0.002299199 192 192 192 255 0.231701 0.908214
490.9854 3.664696 223.8135 0.1611118 0.9869315 -0.003044174 192 192 192 255 0.229204 0.647899
136.8955 3.766528 19.7959 0.0388556 0.9945511 -0.09673931 192 192 192 255 0.093163 0.726412
393.5107 3.641041 496.707 -6.933289e-05 0.8985022 0.4389691 192 192 192 255 0.184661 0.762752
199.9551 1.396055 494.999 -0.1033709 0.9003448 0.4227217 192 192 192 255 0.096484 0.76353
355.0957 1.568994 464.1416 -0.1909124 0.955752 -0.2238095 192 192 192 255 0.16716 0.777588
495.2422 3.777245 38.67383 0.3376968 0.9404078 -0.03992674 192 192 192 255 0.231006 0.971415
44.60059 3.462358 41.43066 0.06121692 0.9891953 0.1332112 192 192 192 255 0.025709 0.970159
107.9443 3.809584 4.682617 0.02623269 0.9220601 -0.3861568 192 192 192 255 0.054567 0.9869
3 74 91 73 
3 23 213 136 
3 46 128 127 
3 171 175 213 
3 195 29 39 
3 157 104 216 
3 164 124 104 
3 18 30 0 
3 56 46 127 
3 18 0 219 
3 242 245 122 
3 178 2 130 
3 63 40 203 
3 167 164 104 
3 25 185 169 
3 29 16 39 
3 162 222 230 
3 150 252 253 
3 173 228 13 
3 161 254 255 
3 150 99 252 
3 102 106 45 
3 1 8 136 
3 248 20 97 
3 256 236 181 
3 240 203 9 
3 208 203 240 
3 0 183 219 
3 202 70 183 
3 202 11 70 
3 159 57 185 
3 206 29 10 
3 99 207 257 
3 157 189 34 
3 2 178 258 
3 14 76 235 
3 194 41 125 
3 91 169 49 
3 77 163 50 
3 28 82 81 
3 21 112 40 
3 121 232 196 
3 10 29 117 
3 36 169 91 
3 86 29 139 
3 159 185 26 
3 109 122 2 
3 229 259 260 
3 229 102 119 
3 74 245 166 
3 43 81 29 
3 74 73 4 
3 91 49 73 
3 102 39 66 
3 100 93 180 
3 103 183 0 
3 174 103 89 
3 151 103 0 
3 47 261 262 
3 172 116 33 
3 155 31 84 
3 61 212 24 
3 61 82 212 
3 135 204 251 
3 95 227 206 
3 95 61 227 
3 43 140 81 
3 125 232 121 
3 219 56 120 
3 121 68 59 
3 192 137 14 
3 14 137 76 
3 222 147 263 
3 211 264 147 
3 35 144 186 
3 201 228 39 
3 86 139 228 
3 16 160 39 
3 205 233 213 
3 29 37 16 
3 39 160 201 
3 201 86 228 
3 149 67 191 
3 67 149 34 
3 198 152 39 
3 41 18 125 
3 83 152 198 
3 123 42 184 
3 195 39 96 
3 167 218 247 
3 206 52 110 
3 212 238 19 
3 32 212 19 
3 250 17 179 
3 12 250 179 
3 265 179 129 
3 171 266 126 
3 22 104 157 
3 11 202 62 
3 165 22 157 
3 141 206 10 
3 5 209 65 
3 21 267 112 
3 267 33 112 
3 230 222 159 
3 154 85 249 
3 24 32 243 
3 242 90 245 
3 26 185 25 
3 234 52 158 
3 52 27 221 
3 4 73 108 
3 114 175 126 
3 268 21 40 
3 175 205 213 
3 205 114 78 
3 87 105 143 
3 269 270 63 
3 239 187 223 
3 243 92 48 
3 206 48 29 
3 184 237 123 
3 229 119 259 
3 119 176 259 
3 107 135 168 
3 117 29 195 
3 174 62 103 
3 141 118 237 
3 118 195 80 
3 101 30 215 
3 30 98 0 
3 32 19 138 
3 84 31 72 
3 24 190 32 
3 90 166 245 
3 90 271 166 
3 233 3 214 
3 58 110 234 
3 3 34 189 
3 3 143 105 
3 73 272 108 
3 233 214 213 
3 54 273 274 
3 54 47 262 
3 148 100 75 
3 8 111 136 
3 84 72 15 
3 222 57 159 
3 38 89 151 
3 204 45 251 
3 226 135 251 
3 204 102 45 
3 100 173 93 
3 63 268 40 
3 53 150 253 
3 112 275 40 
3 5 239 276 
3 73 49 277 
3 52 221 158 
3 79 88 83 
3 44 5 65 
3 116 278 279 
3 280 268 63 
3 270 280 63 
3 103 202 183 
3 176 148 231 
3 214 46 244 
3 19 43 94 
3 77 144 35 
3 42 153 241 
3 23 171 213 
3 248 64 20 
3 49 281 277 
3 206 141 52 
3 187 170 23 
3 187 23 136 
3 135 225 204 
3 39 173 100 
3 31 0 98 
3 54 55 142 
3 139 54 228 
3 109 242 122 
3 183 56 219 
3 246 133 223 
3 282 223 133 
3 146 59 283 
3 168 135 226 
3 186 146 283 
3 78 87 205 
3 30 60 215 
3 185 284 285 
3 100 180 75 
3 138 19 94 
3 118 117 195 
3 186 144 194 
3 286 235 287 
3 72 199 101 
3 234 225 135 
3 107 234 135 
3 243 32 138 
3 206 227 48 
3 227 243 48 
3 288 286 178 
3 143 3 233 
3 150 95 177 
3 133 246 95 
3 208 63 203 
3 34 87 289 
3 8 1 6 
3 115 8 290 
3 8 6 290 
3 237 118 80 
3 21 291 267 
3 99 177 207 
3 99 150 177 
3 5 276 209 
3 25 169 36 
3 182 1 136 
3 263 147 264 
3 292 293 193 
3 83 71 152 
3 5 171 23 
3 240 9 294 
3 204 225 102 
3 46 217 128 
3 188 248 97 
3 213 244 156 
3 295 91 74 
3 241 195 96 
3 286 296 178 
3 167 154 218 
3 114 205 175 
3 231 148 75 
3 297 145 109 
3 131 246 51 
3 158 79 83 
3 234 158 83 
3 158 88 79 
3 143 205 87 
3 179 58 129 
3 37 201 160 
3 172 278 116 
3 17 58 179 
3 249 165 298 
3 165 249 22 
3 252 99 257 
3 164 247 299 
3 72 101 15 
3 170 187 239 
3 181 82 224 
3 82 134 81 
3 267 300 172 
3 267 172 33 
3 231 75 301 
3 29 81 139 
3 107 58 234 
3 24 212 190 
3 212 32 190 
3 136 156 210 
3 136 213 156 
3 73 277 272 
3 105 87 34 
3 39 228 173 
3 75 180 302 
3 216 104 128 
3 27 42 71 
3 42 241 71 
3 158 221 88 
3 69 149 191 
3 154 303 218 
3 5 170 239 
3 293 282 133 
3 304 166 271 
3 94 43 29 
3 29 48 94 
3 95 246 61 
3 52 234 110 
3 178 296 305 
3 105 34 3 
3 182 136 210 
3 44 171 5 
3 243 138 92 
3 62 202 103 
3 238 28 140 
3 211 147 222 
3 254 181 236 
3 229 260 106 
3 283 35 186 
3 109 145 242 
3 30 18 60 
3 18 306 307 
3 305 308 258 
3 178 305 258 
3 210 156 56 
3 175 171 126 
3 28 81 140 
3 269 63 208 
3 184 42 27 
3 292 193 53 
3 146 121 59 
3 27 71 221 
3 1 7 6 
3 70 11 7 
3 133 95 150 
3 113 261 47 
3 222 263 309 
3 222 309 57 
3 310 64 248 
3 141 10 118 
3 182 210 56 
3 311 312 313 
3 313 312 314 
3 286 287 296 
3 120 124 125 
3 56 127 120 
3 208 240 192 
3 315 121 196 
3 121 315 68 
3 123 153 42 
3 154 298 303 
3 298 154 249 
3 127 220 124 
3 54 142 47 
3 104 124 220 
3 235 76 287 
3 31 151 0 
3 83 88 71 
3 130 122 197 
3 2 122 130 
3 232 316 196 
3 262 273 54 
3 22 249 85 
3 85 104 22 
3 309 317 132 
3 44 266 171 
3 61 24 227 
3 24 243 227 
3 30 199 98 
3 82 181 134 
3 111 187 136 
3 189 157 216 
3 217 216 128 
3 127 128 220 
3 304 74 166 
3 159 318 319 
3 142 55 320 
3 55 161 320 
3 89 103 151 
3 19 238 140 
3 141 237 184 
3 187 111 321 
3 38 174 89 
3 41 50 306 
3 18 41 306 
3 102 66 119 
3 119 66 148 
3 200 298 165 
3 67 34 289 
3 213 214 244 
3 57 309 132 
3 187 321 223 
3 279 188 322 
3 1 182 183 
3 149 69 157 
3 256 131 51 
3 2 258 323 
3 131 61 246 
3 255 320 161 
3 313 314 324 
3 161 55 139 
3 152 71 96 
3 96 39 152 
3 38 151 325 
3 123 80 153 
3 46 214 189 
3 74 4 245 
3 234 83 198 
3 205 143 233 
3 35 163 77 
3 212 28 238 
3 326 192 14 
3 48 92 138 
3 81 161 139 
3 181 254 134 
3 37 86 201 
3 164 167 247 
3 144 77 194 
3 13 93 173 
3 304 295 74 
3 164 232 124 
3 154 167 85 
3 85 167 104 
3 287 327 296 
3 18 307 60 
3 185 285 169 
3 4 108 328 
3 170 5 23 
3 257 17 250 
3 151 31 155 
3 177 95 206 
3 207 177 206 
3 257 206 17 
3 225 234 198 
3 131 181 224 
3 256 181 131 
3 199 72 98 
3 57 132 185 
3 132 284 185 
3 58 107 129 
3 146 186 194 
3 133 193 293 
3 69 200 157 
3 52 141 184 
3 200 165 157 
3 288 178 130 
3 329 208 192 
3 69 191 330 
3 137 294 76 
3 12 179 265 
3 111 331 321 
3 111 115 331 
3 188 97 322 
3 146 194 121 
3 153 195 241 
3 80 195 153 
3 122 245 332 
3 332 197 122 
3 225 198 102 
3 198 39 102 
3 72 31 98 
3 77 41 194 
3 311 313 222 
3 328 108 333 
3 17 206 110 
3 1 70 7 
3 13 228 274 
3 115 111 8 
3 224 82 61 
3 16 37 160 
3 316 232 164 
3 12 257 250 
3 71 241 96 
3 207 206 257 
3 212 82 28 
3 19 140 43 
3 161 134 254 
3 81 134 161 
3 245 4 328 
3 145 297 334 
3 142 113 47 
3 164 299 316 
3 222 313 211 
3 237 80 123 
3 219 120 125 
3 39 100 66 
3 53 193 150 
3 138 94 48 
3 132 317 284 
3 216 217 189 
3 335 208 329 
3 69 330 200 
3 88 221 71 
3 17 110 58 
3 149 157 34 
3 3 189 214 
3 51 246 223 
3 66 100 148 
3 70 1 183 
3 139 55 54 
3 77 50 41 
3 131 224 61 
3 228 54 274 
3 119 148 176 
3 102 229 106 
3 242 145 334 
3 232 125 124 
3 120 127 124 
3 336 311 162 
3 162 311 222 
3 20 336 97 
3 311 336 20 
3 10 117 118 
3 183 182 56 
3 52 184 27 
3 64 337 20 
3 337 311 20 
3 193 133 150 
3 121 194 125 
3 192 240 137 
3 240 294 137 
3 101 199 30 
3 75 302 301 
3 29 86 37 
3 56 244 46 
3 156 244 56 
3 325 151 155 
3 159 26 318 
3 125 18 219 
3 46 189 217 
3 104 220 128 
