ply
format ascii 1.0
comment VCGLIB generated
comment TextureFile Dungeons_2_Texture_01_A.png
element vertex 361
property float x
property float y
property float z
property float nx
property float ny
property float nz
property uchar red
property uchar green
property uchar blue
property uchar alpha
property float texture_u
property float texture_v
element face 486
property list uchar int vertex_indices
end_header
-18.80048 15.26601 -5.488447 -0.00279978 0.005424707 -0.9999814 192 192 192 255 0.198888 0.776905
-18.80048 13.44066 5.569909 0.00270438 0.004594523 0.9999858 192 192 192 255 0.213358 0.586054
-38.13099 56.28939 -5.488447 -0.4415338 -0.09079679 -0.8926387 192 192 192 255 0.195742 0.625104
-38.11863 26.2206 -5.488447 -0.3571628 0.1515028 -0.9216733 192 192 192 255 0.195753 0.597701
-38.10513 25.91637 5.569909 -0.4909577 0.1540536 0.8574544 192 192 192 255 0.18368 0.785295
-38.30079 54.74277 5.56987 -0.3862094 -0.1640964 0.9076975 192 192 192 255 0.183525 0.808004
-11.80487 25.95003 5.569909 -0.01163559 0.003021692 0.9999278 192 192 192 255 0.219734 0.597454
-11.55042 26.24995 -5.488447 -0.006129289 0.001777234 -0.9999797 192 192 192 255 0.204354 0.785558
-45.35034 65.21776 5.569851 0.1119827 -0.268093 0.9568626 192 192 192 255 0.177972 0.816257
-52.37386 56.45873 5.56987 0.1442824 -0.03121929 0.989044 192 192 192 255 0.172439 0.809356
-52.25985 56.39575 -5.488447 0.4346487 -0.1825681 -0.8819011 192 192 192 255 0.182866 0.625201
-45.35034 66.49642 -5.488447 -0.1003027 -0.2073979 -0.973101 192 192 192 255 0.189162 0.634663
-25.70366 26.06327 -5.488447 0.5821025 0.1763647 -0.7937583 192 192 192 255 0.193449 0.785411
-26.0202 56.37288 -5.488447 0.422654 -0.1731825 -0.8895906 192 192 192 255 0.1932 0.809289
-25.9367 56.34258 5.56987 0.5422406 -0.1030046 0.8338856 192 192 192 255 0.206855 0.625152
-25.73591 26.66418 5.569909 0.3521202 0.09368078 0.9312547 192 192 192 255 0.207038 0.598105
-11.99243 56.59473 -5.488447 -0.009943167 -0.001913575 -0.9999487 192 192 192 255 0.204251 0.809463
-11.98668 56.60836 5.56987 -0.009656051 -0.003883237 0.9999459 192 192 192 255 0.219568 0.625394
-0.012207 75.34485 -13.74911 0.994896 -0.03413514 -0.09495689 192 192 192 255 0.213689 0.824235
-0.010498 86.80939 -13.74911 0.02166728 0.9997644 -0.00128524 192 192 192 255 0.213691 0.833266
-18.80048 67.29797 5.569851 0.002940299 -0.005805937 0.9999788 192 192 192 255 0.213358 0.635136
-18.80048 67.29797 -5.488447 -0.002901359 -0.005639066 -0.9999799 192 192 192 255 0.198888 0.817895
-0.012207 86.80939 13.74911 0.9993013 0.03399205 0.01554157 192 192 192 255 0.213689 0.833266
-0.010498 75.34485 13.74911 0.9941667 -0.03437439 0.1022301 192 192 192 255 0.213691 0.824235
-64.70805 56.57585 5.56987 -0.01416479 -0.005763455 0.9998831 192 192 192 255 0.162722 0.809448
-71.90027 67.29797 5.569851 0.1070649 -0.1952285 0.9748964 192 192 192 255 0.157056 0.817895
-71.90027 67.29797 -5.488447 -0.09829462 -0.1945996 -0.9759453 192 192 192 255 0.164966 0.635136
-64.78124 56.60042 -5.488447 -0.4489083 -0.08330756 -0.889686 192 192 192 255 0.171454 0.625387
-52.23016 24.85956 -5.488447 0.4904139 0.1527663 -0.8579957 192 192 192 255 0.182893 0.59646
-52.20131 25.89305 5.569909 0.71408 0.04764435 0.698441 192 192 192 255 0.172575 0.785277
-78.73299 56.42331 5.56987 0.3395576 -0.1057894 0.9346172 192 192 192 255 0.151673 0.809328
-78.76539 56.53451 -5.488447 0.4918272 -0.1509662 -0.8575053 192 192 192 255 0.15871 0.625327
-65.10548 26.25201 -5.488447 -0.4290917 0.1546132 -0.8899298 192 192 192 255 0.171159 0.59773
-64.73607 27.29714 5.569909 -0.5017564 0.1308791 0.8550504 192 192 192 255 0.1627 0.786383
-45.35034 15.46214 -5.488447 -0.007289486 0.1785396 -0.9839057 192 192 192 255 0.189162 0.587634
-45.35034 15.72891 5.569909 0.001724793 0.1528239 0.9882519 192 192 192 255 0.177972 0.776832
-250 86.80939 13.74911 -0.9988757 0.03352219 0.03352219 192 192 192 255 0.016749 0.833266
-250 75.34485 13.74911 -0.9992455 -0.01734948 0.03474916 192 192 192 255 0.016749 0.824235
-91.4147 56.35748 5.56987 -0.4379178 -0.1863192 0.879496 192 192 192 255 0.141682 0.809277
-98.45013 66.70667 5.569851 0.1095017 -0.2043676 0.9727504 192 192 192 255 0.13614 0.817895
-98.45013 67.01015 -5.488447 -0.1099233 -0.2023013 -0.9731347 192 192 192 255 0.14077 0.635136
-91.44475 56.29048 -5.488447 -0.4521962 -0.09906421 -0.8864 192 192 192 255 0.147155 0.625105
-78.79355 25.85212 -5.488447 0.4356126 0.1438429 -0.8885668 192 192 192 255 0.158684 0.597365
-79.11278 26.15092 5.569909 0.4968139 0.2198158 0.8395576 192 192 192 255 0.151374 0.78548
-250 86.80939 -13.74911 -0.9992953 0.03357416 -0.01678708 192 192 192 255 0.00879 0.85085
-105.5454 56.2637 5.56987 0.4533321 -0.08755767 0.8870308 192 192 192 255 0.13055 0.809203
-105.3488 56.38717 -5.488447 0.3456579 -0.0268963 -0.937975 192 192 192 255 0.134843 0.625189
-91.62289 25.98792 -5.488447 -0.5684867 0.181762 -0.8023625 192 192 192 255 0.146992 0.597489
-91.2804 25.94274 5.569909 -0.3460173 0.1561076 0.92515 192 192 192 255 0.141788 0.785316
-71.90027 15.17432 -5.488447 -0.002294066 0.1403195 -0.9901037 192 192 192 255 0.164966 0.587634
-71.90027 15.17432 5.569909 -0.005068311 0.1402817 0.9900987 192 192 192 255 0.157056 0.776832
-250 75.34485 -13.74911 -0.9985217 -0.01705535 -0.05160895 192 192 192 255 0.016749 0.824235
-117.9296 56.50979 5.56987 -0.4187961 -0.1714062 0.8917565 192 192 192 255 0.120794 0.809397
-125 67.29797 5.569851 0.0006615545 -0.001291122 0.999999 192 192 192 255 0.115224 0.817895
-125 67.29797 -5.488447 -0.0007002461 -0.0006392049 -0.9999996 192 192 192 255 0.116574 0.635136
-118.202 56.63171 -5.488447 -0.01034835 -0.001982183 -0.9999445 192 192 192 255 0.12277 0.625416
-105.7006 26.18303 -5.488447 0.6582065 0.05082361 -0.75112 192 192 192 255 0.134163 0.597667
-105.5744 26.22625 5.569909 0.4251314 0.1775888 0.8875391 192 192 192 255 0.130527 0.785539
-132.1331 56.3478 5.56987 0.3442723 -0.1115118 0.9322241 192 192 192 255 0.109604 0.809269
-132.2452 56.42375 -5.488447 0.4887947 -0.1607957 -0.8574524 192 192 192 255 0.109972 0.625226
-118.0097 26.22731 -5.488447 -0.5341671 0.1984147 -0.8217647 192 192 192 255 0.122945 0.597707
-117.8411 26.20238 5.569909 -0.5081958 0.1419897 0.8494563 192 192 192 255 0.120864 0.78552
-98.45013 15.46214 -5.488447 -0.0003176095 0.1496095 -0.9887452 192 192 192 255 0.14077 0.587634
-98.45013 15.72891 5.569909 0.003966085 0.1524794 0.9882987 192 192 192 255 0.13614 0.776832
-151.5499 66.86623 -5.488447 -0.1021392 -0.2037805 -0.973674 192 192 192 255 0.092379 0.635136
-144.7065 56.61137 -5.488447 -0.3430773 -0.108191 -0.9330556 192 192 192 255 0.098615 0.625397
-144.4877 56.25604 5.56987 -0.4927562 -0.1554304 0.8561733 192 192 192 255 0.099871 0.809196
-151.5499 66.70667 5.569851 0.09838805 -0.2087439 0.9730086 192 192 192 255 0.094308 0.817895
-131.8268 25.94561 -5.488447 0.4512015 0.1332029 -0.8824252 192 192 192 255 0.110353 0.59745
-132.0421 25.85596 5.569909 0.5237164 0.2091591 0.8258169 192 192 192 255 0.109676 0.785247
-158.5526 56.52436 -5.488447 0.4226866 -0.18173 -0.8878684 192 192 192 255 0.085997 0.625318
-158.5312 56.64478 5.56987 0.4515022 -0.09188419 0.8875264 192 192 192 255 0.088808 0.809503
-144.6675 25.65195 5.569909 -0.4265245 0.1433844 0.8930386 192 192 192 255 0.09973 0.785087
-144.3302 25.90056 -5.488447 -0.4819807 0.2193137 -0.8482901 192 192 192 255 0.098958 0.597409
-125 15.17432 -5.488447 2.586596e-07 0.0006062249 -0.9999998 192 192 192 255 0.116574 0.587634
-125 15.17432 5.569909 -2.242572e-06 0.0006039147 0.9999998 192 192 192 255 0.115224 0.776832
-178.0997 67.29797 -5.488447 -0.1041057 -0.2011512 -0.9740124 192 192 192 255 0.068183 0.635136
-171.1364 56.32168 -5.488447 -0.452499 -0.08669982 -0.8875403 192 192 192 255 0.074529 0.625133
-171.1666 56.31351 5.56987 -0.430438 -0.1669942 0.8870378 192 192 192 255 0.078854 0.809242
-178.0997 68.06827 5.569851 0.1010456 -0.1888156 0.9768001 192 192 192 255 0.073392 0.818502
-158.6725 24.28666 5.569909 0.3859182 0.1655744 0.9075529 192 192 192 255 0.088697 0.784011
-158.6563 26.05696 -5.488447 0.4921213 0.1403245 -0.8591424 192 192 192 255 0.085902 0.597552
-185.1135 56.35295 -5.488447 0.02574429 -0.01032797 -0.9996153 192 192 192 255 0.061791 0.625162
-185.1595 56.35292 5.56987 0.432916 -0.06550921 0.8990508 192 192 192 255 0.06783 0.809273
-171.1844 23.9162 5.569909 -0.4593344 0.1449017 0.8763649 192 192 192 255 0.07884 0.783719
-170.9855 24.14197 -5.488447 -0.3719941 0.1689471 -0.9127307 192 192 192 255 0.074666 0.595806
-151.5499 15.60606 -5.488447 0.003741579 0.1456849 -0.989324 192 192 192 255 0.092379 0.587634
-151.5499 15.72891 5.569909 -0.007438107 0.1468549 0.9891301 192 192 192 255 0.094308 0.776832
-204.6497 66.86623 -5.488447 -0.1214325 -0.2425036 -0.9625207 192 192 192 255 0.043987 0.635136
-197.5775 56.34717 -5.488447 -0.3802603 -0.0369101 -0.9241427 192 192 192 255 0.050432 0.625156
-196.936 57.075 5.56987 -0.3962552 -0.1814899 0.900024 192 192 192 255 0.058553 0.809842
-204.6497 66.70667 5.569851 0.1128509 -0.2114407 0.970854 192 192 192 255 0.052476 0.817895
-185.2815 25.97723 5.569909 0.3429709 0.04272621 0.9383739 192 192 192 255 0.067734 0.785343
-185.0819 27.72877 -5.488447 0.509667 0.1442262 -0.8481971 192 192 192 255 0.061819 0.599075
-211.7208 56.64591 -5.488447 0.3633635 -0.1563494 -0.9184345 192 192 192 255 0.037542 0.625429
-211.4409 56.51484 5.56987 0.4637927 -0.09453456 0.8808857 192 192 192 255 0.047126 0.8094
-197.7782 25.93979 5.569909 -0.02816435 0.008153439 0.9995701 192 192 192 255 0.057889 0.785313
-197.433 26.2625 -5.488447 -0.4228137 0.1793494 -0.8882918 192 192 192 255 0.050563 0.597739
-178.0997 15.46317 -5.488447 0.02364158 0.1425199 -0.9895096 192 192 192 255 0.068183 0.587897
-178.0997 15.17432 5.569909 0.0009648467 0.01100307 0.999939 192 192 192 255 0.073392 0.776832
-231.1995 67.29797 -5.488447 -0.002885066 -0.005252206 -0.9999821 192 192 192 255 0.019791 0.635136
-224.1492 57.0187 -5.488447 -0.5287707 -0.09449794 -0.8434879 192 192 192 255 0.026216 0.625768
-224.1292 56.34563 5.56987 -0.4230629 -0.1539918 0.892919 192 192 192 255 0.03713 0.809267
-231.1995 67.29797 5.569851 0.002895013 -0.00546009 0.9999809 192 192 192 255 0.03156 0.817895
-211.7583 26.1048 5.569909 0.364953 0.1414604 0.9202164 192 192 192 255 0.046876 0.785444
-211.5807 25.85728 -5.488447 0.5089458 0.1584821 -0.8460837 192 192 192 255 0.03767 0.59737
-238.3321 56.32535 -5.488447 0.009254178 -0.003734787 -0.9999502 192 192 192 255 0.01329 0.625136
-238.3143 56.30789 5.56987 0.009885999 -0.001859792 0.9999494 192 192 192 255 0.025955 0.809237
-224.3162 25.95185 5.569909 -0.5475011 0.1754713 0.8182008 192 192 192 255 0.036982 0.785323
-224.0486 26.11191 -5.488447 -0.3849525 0.1744817 -0.9062935 192 192 192 255 0.026307 0.597602
-204.6497 15.60606 -5.488447 -1.541264e-06 0.154697 -0.987962 192 192 192 255 0.043987 0.587634
-204.6497 14.09583 5.569909 -2.752508e-05 0.003437422 0.9999941 192 192 192 255 0.052476 0.775517
-238 26.2665 5.569909 0.008531722 0.003672616 0.9999568 192 192 192 255 0.026202 0.785571
-238.022 26.19135 -5.488447 0.01182769 0.003706681 -0.9999232 192 192 192 255 0.013573 0.597674
-231.1995 15.17432 -5.488447 0.0001608478 0.003697926 -0.9999931 192 192 192 255 0.019791 0.587634
-231.1995 15.17432 5.569909 8.771246e-05 0.002181726 0.9999976 192 192 192 255 0.03156 0.776832
0 1.5e-05 8.725494 0.6666365 -0.3333745 0.6666763 192 192 192 255 0.213699 0.764878
-0.000366 9.40028 5.569812 0.002334909 0.001030762 0.9999968 192 192 192 255 0.213699 0.772284
0 0 -8.644012 0.3333309 -0.6666932 -0.6666414 192 192 192 255 0.213699 0.764878
0.002136 9.399178 -5.488447 0.001176849 0.001046528 -0.9999988 192 192 192 255 0.2137 0.772283
0.208984 75.21707 -8.644012 0.9972665 -0.01584147 -0.07217015 192 192 192 255 0.213863 0.824134
0.206055 71.45815 -5.485396 0.003210305 -0.0008921987 -0.9999945 192 192 192 255 0.213861 0.821173
-0.017517 71.51744 5.569851 0.001557211 -0.001433437 0.9999978 192 192 192 255 0.213685 0.821219
-0.017761 75.33035 8.725372 0.9993362 -0.01647572 0.03249219 192 192 192 255 0.213685 0.824223
-250 71.47132 5.569851 -0.00232228 -0.0007118108 0.9999971 192 192 192 255 0.016749 0.821183
-250 75.33035 8.725372 -0.9993182 -0.03298344 0.01658696 192 192 192 255 0.016749 0.824223
-250 75.21707 -8.644012 -0.9993264 -0.03249486 -0.01705469 192 192 192 255 0.016749 0.824134
-250 71.28687 -5.48592 -0.002400252 -0.0001597505 -0.9999971 192 192 192 255 0.016749 0.821038
-250 1.5e-05 8.725494 -0.6666674 -0.6666655 0.3333343 192 192 192 255 0.016749 0.764878
-250 9.400194 5.569929 -0.002057024 0.0004535124 0.9999978 192 192 192 255 0.016749 0.772284
-250 0 -8.644012 -0.5773501 -0.5773512 -0.5773496 192 192 192 255 0.016749 0.764878
-250 9.40018 -5.488447 -0.001179552 0.0005249677 -0.9999992 192 192 192 255 0.016749 0.772284
-250 72.65675 -8.641058 -0.7675447 -0.3535091 -0.5347022 192 192 192 255 0.016749 0.822117
-250 72.82304 8.725372 -0.5139744 -0.4728405 0.715718 192 192 192 255 0.016749 0.822248
-0.017579 72.85739 8.725372 0.918852 -0.2116141 0.3330624 192 192 192 255 0.213685 0.822275
0.206802 72.78432 -8.640446 0.7721366 -0.355719 -0.5265634 192 192 192 255 0.213862 0.822218
-250 7.784548 8.725494 -0.5056243 0.4500693 0.7360583 192 192 192 255 0.016749 0.771011
-250 7.784534 -8.644012 -0.7607555 0.3385868 -0.5537238 192 192 192 255 0.016749 0.771011
0.001769 7.783703 -8.644012 0.9198568 0.2046099 -0.3346614 192 192 192 255 0.2137 0.77101
-0.000303 7.784619 8.725343 0.7607365 0.3385025 0.5538015 192 192 192 255 0.213699 0.771011
-15.25224 27.28192 0.040731 -0.939831 0.2629866 -0.2180729 192 192 192 255 0.216592 0.598668
-18.63738 21.87279 0.040731 -0.002511202 0.9995487 0.02993388 192 192 192 255 0.213507 0.593739
-22.24384 27.02738 0.040731 0.9381519 0.2610503 0.2274286 192 192 192 255 0.21022 0.598436
-22.21398 55.34621 0.040711 0.959035 -0.2832873 -0.0005989976 192 192 192 255 0.210247 0.624244
-18.80048 60.52282 0.040702 -0.01262526 -0.9999052 -0.005492242 192 192 192 255 0.213358 0.628962
-15.59342 55.50217 0.040711 -0.9587814 -0.2841016 -0.004954336 192 192 192 255 0.216281 0.624386
-41.86436 27.07688 0.040731 -0.9612923 0.2337291 -0.1459037 192 192 192 255 0.192339 0.598481
-42.21226 55.3859 0.040711 -0.9537377 -0.3000677 -0.01853982 192 192 192 255 0.192022 0.62428
-45.35035 60.52282 0.040702 -0.03082511 -0.9969575 -0.07159359 192 192 192 255 0.189162 0.628962
-48.87988 55.15219 0.040711 0.9513018 -0.3080804 -0.01055472 192 192 192 255 0.185946 0.624067
-48.7054 27.28387 0.040731 0.8540254 0.01473312 0.5200227 192 192 192 255 0.186105 0.59867
-45.25945 22.16398 0.040731 -0.01461721 0.9996853 -0.02038753 192 192 192 255 0.189245 0.594004
-68.5578 28.83274 0.040731 -0.9702972 0.2016284 -0.1336769 192 192 192 255 0.168012 0.600081
-68.62606 55.12881 0.040711 -0.959416 -0.2819363 0.005738297 192 192 192 255 0.16795 0.624046
-71.90026 60.52282 0.040702 0.02078303 -0.9997576 0.007262039 192 192 192 255 0.164966 0.628962
-75.06217 55.45846 0.040711 0.9278462 -0.287646 0.2374053 192 192 192 255 0.162085 0.624346
-75.37785 26.99516 0.040731 0.9519503 0.2624369 0.157853 192 192 192 255 0.161797 0.598407
-71.94263 21.99658 0.040731 -0.02622315 0.9996506 -0.003331632 192 192 192 255 0.164928 0.593851
-95.19501 26.92828 0.040731 -0.9534166 0.2518585 0.166024 192 192 192 255 0.143737 0.598346
-94.96762 55.34491 0.040711 -0.9523403 -0.3044612 0.01874365 192 192 192 255 0.143944 0.624243
-98.45013 61.56276 0.040702 0.002669248 -0.9999741 -0.006691977 192 192 192 255 0.14077 0.62991
-101.5983 55.35821 0.040711 0.8331233 -0.01372011 -0.5529172 192 192 192 255 0.137901 0.624255
-101.8425 27.20301 0.040731 0.8314365 -0.003285315 -0.5556101 192 192 192 255 0.137679 0.598596
-98.57659 22.07229 0.040731 0.01207825 0.9999269 -0.0006202647 192 192 192 255 0.140655 0.59392
-121.7881 27.20802 0.040731 -0.9692292 0.2106285 -0.1273989 192 192 192 255 0.119502 0.598601
-121.779 55.46193 0.040711 -0.9587855 -0.2838613 0.01237492 192 192 192 255 0.11951 0.62435
-125 60.52282 0.040702 -0.007341797 -0.9999731 -3.586833e-05 192 192 192 255 0.116574 0.628962
-128.5401 55.17456 0.040711 0.9267542 -0.3017341 0.2237925 192 192 192 255 0.113348 0.624088
-128.383 26.96277 0.040731 0.962552 0.2286527 0.1456417 192 192 192 255 0.113491 0.598377
-125 20.69874 0.040731 -0.002014069 0.999884 0.01509959 192 192 192 255 0.116574 0.592669
-147.9926 27.19406 0.040731 -0.9560087 0.2515264 -0.150937 192 192 192 255 0.09562 0.598588
-148.2162 55.15873 0.040711 -0.9283903 -0.292796 -0.2288274 192 192 192 255 0.095417 0.624073
-151.5499 60.23639 0.040702 -0.008299043 -0.9999649 -0.001166523 192 192 192 255 0.092379 0.628701
-155.0996 55.35754 0.040711 0.9539728 -0.2998922 0.0008206887 192 192 192 255 0.089144 0.624254
-154.9219 28.57817 0.040731 0.9631863 0.22163 0.1521589 192 192 192 255 0.089306 0.599849
-151.6378 22.72587 0.040731 -0.01277654 0.9996026 0.02512703 192 192 192 255 0.092298 0.594516
-174.9564 27.77566 0.040731 -0.9600974 0.2377276 -0.1473044 192 192 192 255 0.071047 0.599118
-174.5278 55.40098 0.040711 -0.9601505 -0.2794781 0.001738779 192 192 192 255 0.071438 0.624294
-178.0997 60.52282 0.040702 -0.006023504 -0.9999156 0.01151388 192 192 192 255 0.068183 0.628962
-181.2627 55.46984 0.040711 0.9615756 -0.2744496 0.007059718 192 192 192 255 0.0653 0.624357
-181.3162 27.34289 0.040731 0.8294343 0.01193732 0.5584767 192 192 192 255 0.065251 0.598724
-178.2844 22.97456 0.040731 0.1257158 0.991059 0.04469458 192 192 192 255 0.068014 0.594743
-201.273 26.9352 0.040731 -0.9567453 0.1841667 -0.2252137 192 192 192 255 0.047064 0.598352
-201.3332 55.57687 0.040711 -0.8481972 -0.02491922 -0.5290942 192 192 192 255 0.047009 0.624454
-204.6496 60.52282 0.040702 0.03479284 -0.9990333 0.02687208 192 192 192 255 0.043987 0.628962
-208.1424 55.55696 0.040711 0.955049 -0.2963274 -0.008461302 192 192 192 255 0.040803 0.624436
-208.217 26.94003 0.040731 0.965505 0.2222308 0.1356969 192 192 192 255 0.040736 0.598356
-204.6496 21.94947 0.040731 -0.003825699 0.9994799 0.03201887 192 192 192 255 0.043987 0.593808
-227.7692 27.2194 0.040731 -0.9595065 0.2388028 -0.1494008 192 192 192 255 0.022917 0.598611
-227.9005 53.66941 0.040711 -0.9652917 -0.2604211 -0.01982276 192 192 192 255 0.022797 0.622716
-231.1995 60.52282 0.040702 0.005199217 -0.9999775 0.004256885 192 192 192 255 0.019791 0.628962
-234.4809 55.52873 0.040711 0.9593613 -0.2821759 -0.00166749 192 192 192 255 0.0168 0.62441
-234.4579 27.02509 0.040731 0.9617689 0.2361005 0.1387702 192 192 192 255 0.016821 0.598434
-231.3978 24.01669 0.040731 0.04169742 0.9991149 -0.005542178 192 192 192 255 0.01961 0.595692
-132.669 50.29594 -5.488447 0.4619829 -0.005929093 -0.886869 192 192 192 255 0.109585 0.619642
-132.5698 49.67255 5.569879 0.4638064 -0.007191595 0.8859075 192 192 192 255 0.10926 0.80401
-144.0736 38.45162 5.569892 -0.4672849 0.001967118 0.8841046 192 192 192 255 0.100198 0.79517
-144.0516 39.19324 -5.488447 -0.4644736 -0.003086758 -0.8855816 192 192 192 255 0.099212 0.609523
-128.5245 52.36774 0.040713 0.9735773 -0.01336408 -0.2279664 192 192 192 255 0.113362 0.62153
-148.067 36.50643 0.040724 -0.9755397 0.0005857897 0.2198228 192 192 192 255 0.095553 0.607075
-55.00372 44.32151 5.569886 0.253452 0.001432028 0.9673469 192 192 192 255 0.170367 0.799795
-50.76105 40.15789 3.169984 0.6450869 0.003644564 0.7641006 192 192 192 255 0.184231 0.610402
-188.4828 34.16883 5.569898 0.267955 -0.001075568 0.9634308 192 192 192 255 0.065212 0.791796
-183.5865 34.68529 3.251969 0.5392929 -0.002160218 0.8421155 192 192 192 255 0.063182 0.605415
-79.54819 34.56689 -5.488447 0.4604284 0.006689522 -0.8876717 192 192 192 255 0.158692 0.606041
-79.88954 34.39162 5.569898 0.4474736 0.005359391 0.8942811 192 192 192 255 0.151455 0.791972
-90.74242 46.71161 -5.488447 -0.3014264 -0.002087401 -0.9534872 192 192 192 255 0.147099 0.615642
-90.48273 44.62205 5.569885 -0.5889329 -0.006807551 0.8081532 192 192 192 255 0.141723 0.800031
-75.32321 31.92206 0.040727 0.9751666 0.01334973 -0.22107 192 192 192 255 0.161847 0.602897
-95.0245 48.23749 0.040716 -0.9745484 -0.008236217 -0.2240259 192 192 192 255 0.143892 0.617766
-108.7901 39.0792 -5.488447 0.204771 -0.002384943 -0.978807 192 192 192 255 0.127994 0.795665
-103.7295 39.45018 -2.877047 0.7101716 -0.007252219 -0.7039913 192 192 192 255 0.135959 0.609757
-197.469 33.75771 -5.488447 -0.4380662 0.07633163 -0.8956962 192 192 192 255 0.058133 0.791472
-194.4984 49.86198 -5.488447 -0.2211098 -0.001061919 -0.9752483 192 192 192 255 0.060473 0.804159
-198.7471 46.72393 -3.700264 -0.5775139 -0.002762193 -0.8163761 192 192 192 255 0.049366 0.616386
-28.86005 86.80939 13.74912 -0.1427171 0.8725013 0.4673043 192 192 192 255 0.190963 0.833266
-97.93118 86.80939 13.74911 0.06254127 0.7256106 0.6852575 192 192 192 255 0.136549 0.833266
-44.47833 86.80939 8.824371 -1.229814e-09 0.9961346 0.08784025 192 192 192 255 0.178659 0.833266
-52.77312 82.86465 13.74911 -8.727675e-09 0.7782493 0.6279555 192 192 192 255 0.172124 0.830159
-201.6433 86.80939 13.74911 -0.1311101 0.3997068 0.9072181 192 192 192 255 0.054844 0.833266
-232.1386 86.80939 13.74911 0.2144879 0.7175174 0.6626943 192 192 192 255 0.03082 0.833266
-222.7404 86.80939 10.64084 0 0.5615407 0.8274491 192 192 192 255 0.032546 0.829595
-216.1687 81.93932 13.74911 0 0.5278605 0.8493311 192 192 192 255 0.043401 0.82943
-121.6444 86.80939 -13.74911 -0.005498849 0.9955639 -0.09392761 192 192 192 255 0.117867 0.833266
-201.372 86.80939 -13.74911 0.09071871 0.5251547 -0.8461576 192 192 192 255 0.051167 0.85085
-173.3248 86.80939 -10.70128 0 0.5079493 -0.861387 192 192 192 255 0.07561 0.848194
-171.6158 81.55575 -13.74911 0 0.4991302 -0.866527 192 192 192 255 0.0785 0.829128
-250 86.80939 -13.74911 -0.9992953 0.03357416 -0.01678708 192 192 192 255 0.016749 0.833266
-201.372 86.80939 -13.74911 0.09071871 0.5251547 -0.8461576 192 192 192 255 0.055058 0.833266
-11.98668 56.60836 5.56987 -0.009656051 -0.003883237 0.9999459 192 192 192 255 0.204256 0.809474
-18.80048 67.29797 5.569851 0.002940299 -0.005805937 0.9999788 192 192 192 255 0.198888 0.817895
-25.73591 26.66418 5.569909 0.3521202 0.09368078 0.9312547 192 192 192 255 0.193424 0.785884
-25.9367 56.34258 5.56987 0.5422406 -0.1030046 0.8338856 192 192 192 255 0.193266 0.809265
-38.11863 26.2206 -5.488447 -0.3571628 0.1515028 -0.9216733 192 192 192 255 0.183669 0.785535
-38.13099 56.28939 -5.488447 -0.4415338 -0.09079679 -0.8926387 192 192 192 255 0.183659 0.809223
-52.25985 56.39575 -5.488447 0.4346487 -0.1825681 -0.8819011 192 192 192 255 0.172528 0.809307
-52.23016 24.85956 -5.488447 0.4904139 0.1527663 -0.8579957 192 192 192 255 0.172552 0.784462
-65.10548 26.25201 -5.488447 -0.4290917 0.1546132 -0.8899298 192 192 192 255 0.162409 0.785559
-64.78124 56.60042 -5.488447 -0.4489083 -0.08330756 -0.889686 192 192 192 255 0.162664 0.809468
-78.76539 56.53451 -5.488447 0.4918272 -0.1509662 -0.8575053 192 192 192 255 0.151647 0.809416
-79.54819 34.56689 -5.488447 0.4604284 0.006689522 -0.8876717 192 192 192 255 0.151632 0.792744
-90.74242 46.71161 -5.488447 -0.3014264 -0.002087401 -0.9534872 192 192 192 255 0.141611 0.801043
-91.44475 56.29048 -5.488447 -0.4521962 -0.09906421 -0.8864 192 192 192 255 0.141659 0.809224
-118.202 56.63171 -5.488447 -0.01034835 -0.001982183 -0.9999445 192 192 192 255 0.120579 0.809492
-105.7006 26.18303 -5.488447 0.6582065 0.05082361 -0.75112 192 192 192 255 0.130428 0.785505
-118.0097 26.22731 -5.488447 -0.5341671 0.1984147 -0.8217647 192 192 192 255 0.120731 0.78554
-132.2452 56.42375 -5.488447 0.4887947 -0.1607957 -0.8574524 192 192 192 255 0.109516 0.809329
-132.669 50.29594 -5.488447 0.4619829 -0.005929093 -0.886869 192 192 192 255 0.109182 0.804501
-144.0516 39.19324 -5.488447 -0.4644736 -0.003086758 -0.8855816 192 192 192 255 0.100215 0.795754
-144.7065 56.61137 -5.488447 -0.3430773 -0.108191 -0.9330556 192 192 192 255 0.099699 0.809476
-158.5526 56.52436 -5.488447 0.4226866 -0.18173 -0.8878684 192 192 192 255 0.088791 0.809408
-158.6563 26.05696 -5.488447 0.4921213 0.1403245 -0.8591424 192 192 192 255 0.088709 0.785406
-170.9855 24.14197 -5.488447 -0.3719941 0.1689471 -0.9127307 192 192 192 255 0.078996 0.783897
-171.1364 56.32168 -5.488447 -0.452499 -0.08669982 -0.8875403 192 192 192 255 0.078878 0.809248
-185.1135 56.35295 -5.488447 0.02574429 -0.01032797 -0.9996153 192 192 192 255 0.067866 0.809273
-197.5775 56.34717 -5.488447 -0.3802603 -0.0369101 -0.9241427 192 192 192 255 0.058047 0.809268
-211.7208 56.64591 -5.488447 0.3633635 -0.1563494 -0.9184345 192 192 192 255 0.046905 0.809504
-211.5807 25.85728 -5.488447 0.5089458 0.1584821 -0.8460837 192 192 192 255 0.047016 0.785248
-224.0486 26.11191 -5.488447 -0.3849525 0.1744817 -0.9062935 192 192 192 255 0.037193 0.785449
-224.1492 57.0187 -5.488447 -0.5287707 -0.09449794 -0.8434879 192 192 192 255 0.037114 0.809798
-45.35034 66.49642 -5.488447 -0.1003027 -0.2073979 -0.973101 192 192 192 255 0.177972 0.817486
-71.90027 67.29797 -5.488447 -0.09829462 -0.1945996 -0.9759453 192 192 192 255 0.157056 0.817895
-98.45013 67.01015 -5.488447 -0.1099233 -0.2023013 -0.9731347 192 192 192 255 0.13614 0.817895
-105.3488 56.38717 -5.488447 0.3456579 -0.0268963 -0.937975 192 192 192 255 0.130705 0.8093
-125 67.29797 -5.488447 -0.0007002461 -0.0006392049 -0.9999996 192 192 192 255 0.115224 0.817895
-151.5499 66.86623 -5.488447 -0.1021392 -0.2037805 -0.973674 192 192 192 255 0.094308 0.817895
-178.0997 67.29797 -5.488447 -0.1041057 -0.2011512 -0.9740124 192 192 192 255 0.073392 0.817895
-204.6497 66.86623 -5.488447 -0.1214325 -0.2425036 -0.9625207 192 192 192 255 0.052476 0.817895
-231.1995 67.29797 -5.488447 -0.002885066 -0.005252206 -0.9999821 192 192 192 255 0.03156 0.817895
-18.80048 13.44066 5.569909 0.00270438 0.004594523 0.9999858 192 192 192 255 0.198888 0.775467
-231.1995 15.17432 -5.488447 0.0001608478 0.003697926 -0.9999931 192 192 192 255 0.03156 0.776832
-204.6497 15.60606 -5.488447 -1.541264e-06 0.154697 -0.987962 192 192 192 255 0.052476 0.776832
-197.433 26.2625 -5.488447 -0.4228137 0.1793494 -0.8882918 192 192 192 255 0.058161 0.785568
-185.0819 27.72877 -5.488447 0.509667 0.1442262 -0.8481971 192 192 192 255 0.067891 0.786723
-178.0997 15.46317 -5.488447 0.02364158 0.1425199 -0.9895096 192 192 192 255 0.073392 0.77706
-151.5499 15.60606 -5.488447 0.003741579 0.1456849 -0.989324 192 192 192 255 0.094308 0.776832
-144.3302 25.90056 -5.488447 -0.4819807 0.2193137 -0.8482901 192 192 192 255 0.099995 0.785283
-131.8268 25.94561 -5.488447 0.4512015 0.1332029 -0.8824252 192 192 192 255 0.109846 0.785318
-125 15.17432 -5.488447 2.586596e-07 0.0006062249 -0.9999998 192 192 192 255 0.115224 0.776832
-98.45013 15.46214 -5.488447 -0.0003176095 0.1496095 -0.9887452 192 192 192 255 0.13614 0.776832
-91.62289 25.98792 -5.488447 -0.5684867 0.181762 -0.8023625 192 192 192 255 0.141518 0.785351
-78.79355 25.85212 -5.488447 0.4356126 0.1438429 -0.8885668 192 192 192 255 0.151625 0.785244
-71.90027 15.17432 -5.488447 -0.002294066 0.1403195 -0.9901037 192 192 192 255 0.157056 0.776832
-45.35034 15.46214 -5.488447 -0.007289486 0.1785396 -0.9839057 192 192 192 255 0.177972 0.776832
-11.80487 25.95003 5.569909 -0.01163559 0.003021692 0.9999278 192 192 192 255 0.204399 0.785322
-238.022 26.19135 -5.488447 0.01182769 0.003706681 -0.9999232 192 192 192 255 0.026185 0.785512
-238.3321 56.32535 -5.488447 0.009254178 -0.003734787 -0.9999502 192 192 192 255 0.025941 0.809251
-18.80048 15.26601 -5.488447 -0.00279978 0.005424707 -0.9999814 192 192 192 255 0.213358 0.587718
-11.55042 26.24995 -5.488447 -0.006129289 0.001777234 -0.9999797 192 192 192 255 0.219682 0.597728
-25.70366 26.06327 -5.488447 0.5821025 0.1763647 -0.7937583 192 192 192 255 0.207067 0.597557
-26.0202 56.37288 -5.488447 0.422654 -0.1731825 -0.8895906 192 192 192 255 0.206779 0.62518
-18.80048 67.29797 -5.488447 -0.002901359 -0.005639066 -0.9999799 192 192 192 255 0.213358 0.635136
-11.99243 56.59473 -5.488447 -0.009943167 -0.001913575 -0.9999487 192 192 192 255 0.219563 0.625382
-38.10513 25.91637 5.569909 -0.4909577 0.1540536 0.8574544 192 192 192 255 0.195765 0.597424
-38.30079 54.74277 5.56987 -0.3862094 -0.1640964 0.9076975 192 192 192 255 0.195587 0.623694
-45.35034 65.21776 5.569851 0.1119827 -0.268093 0.9568626 192 192 192 255 0.189162 0.63324
-52.37386 56.45873 5.56987 0.1442824 -0.03121929 0.989044 192 192 192 255 0.182762 0.625258
-52.20131 25.89305 5.569909 0.71408 0.04764435 0.698441 192 192 192 255 0.182919 0.597402
-45.35034 15.72891 5.569909 0.001724793 0.1528239 0.9882519 192 192 192 255 0.189162 0.587634
-64.73607 27.29714 5.569909 -0.5017564 0.1308791 0.8550504 192 192 192 255 0.171495 0.598682
-64.70805 56.57585 5.56987 -0.01416479 -0.005763455 0.9998831 192 192 192 255 0.171521 0.625365
-71.90027 67.29797 5.569851 0.1070649 -0.1952285 0.9748964 192 192 192 255 0.164966 0.635136
-78.73299 56.42331 5.56987 0.3395576 -0.1057894 0.9346172 192 192 192 255 0.158739 0.625226
-79.88954 34.39162 5.569898 0.4474736 0.005359391 0.8942811 192 192 192 255 0.158488 0.605147
-79.11278 26.15092 5.569909 0.4968139 0.2198158 0.8395576 192 192 192 255 0.158393 0.597637
-71.90027 15.17432 5.569909 -0.005068311 0.1402817 0.9900987 192 192 192 255 0.164966 0.587634
-90.48273 44.62205 5.569885 -0.5889329 -0.006807551 0.8081532 192 192 192 255 0.147229 0.614471
-91.4147 56.35748 5.56987 -0.4379178 -0.1863192 0.879496 192 192 192 255 0.147182 0.625166
-98.45013 66.70667 5.569851 0.1095017 -0.2043676 0.9727504 192 192 192 255 0.14077 0.635136
-105.5454 56.2637 5.56987 0.4533321 -0.08755767 0.8870308 192 192 192 255 0.134304 0.62508
-105.5744 26.22625 5.569909 0.4251314 0.1775888 0.8875391 192 192 192 255 0.134278 0.597706
-98.45013 15.72891 5.569909 0.003966085 0.1524794 0.9882987 192 192 192 255 0.14077 0.587634
-91.2804 25.94274 5.569909 -0.3460173 0.1561076 0.92515 192 192 192 255 0.147304 0.597448
-117.8411 26.20238 5.569909 -0.5081958 0.1419897 0.8494563 192 192 192 255 0.123099 0.597684
-117.9296 56.50979 5.56987 -0.4187961 -0.1714062 0.8917565 192 192 192 255 0.123018 0.625305
-125 67.29797 5.569851 0.0006615545 -0.001291122 0.999999 192 192 192 255 0.116574 0.635136
-132.1331 56.3478 5.56987 0.3442723 -0.1115118 0.9322241 192 192 192 255 0.110074 0.625157
-132.5698 49.67255 5.569879 0.4638064 -0.007191595 0.8859075 192 192 192 255 0.109676 0.619074
-132.0421 25.85596 5.569909 0.5237164 0.2091591 0.8258169 192 192 192 255 0.110157 0.597369
-125 15.17432 5.569909 -2.242572e-06 0.0006039147 0.9999998 192 192 192 255 0.116574 0.587634
-144.6675 25.65195 5.569909 -0.4265245 0.1433844 0.8930386 192 192 192 255 0.098651 0.597183
-144.0736 38.45162 5.569892 -0.4672849 0.001967118 0.8841046 192 192 192 255 0.099192 0.608847
-144.4877 56.25604 5.56987 -0.4927562 -0.1554304 0.8561733 192 192 192 255 0.098815 0.625073
-151.5499 66.70667 5.569851 0.09838805 -0.2087439 0.9730086 192 192 192 255 0.092379 0.635136
-158.5312 56.64478 5.56987 0.4515022 -0.09188419 0.8875264 192 192 192 255 0.086016 0.625428
-158.6725 24.28666 5.569909 0.3859182 0.1655744 0.9075529 192 192 192 255 0.085887 0.595938
-151.5499 15.72891 5.569909 -0.007438107 0.1468549 0.9891301 192 192 192 255 0.092379 0.587634
-171.1844 23.9162 5.569909 -0.4593344 0.1449017 0.8763649 192 192 192 255 0.074485 0.595601
-171.1666 56.31351 5.56987 -0.430438 -0.1669942 0.8870378 192 192 192 255 0.074501 0.625126
-178.0997 68.06827 5.569851 0.1010456 -0.1888156 0.9768001 192 192 192 255 0.068183 0.635838
-185.1595 56.35292 5.56987 0.432916 -0.06550921 0.8990508 192 192 192 255 0.061749 0.625162
-185.2815 25.97723 5.569909 0.3429709 0.04272621 0.9383739 192 192 192 255 0.061638 0.597479
-178.0997 15.17432 5.569909 0.0009648467 0.01100307 0.999939 192 192 192 255 0.068183 0.587634
-197.7782 25.93979 5.569909 -0.02816435 0.008153439 0.9995701 192 192 192 255 0.050249 0.597445
-196.936 57.075 5.56987 -0.3962552 -0.1814899 0.900024 192 192 192 255 0.051016 0.62582
-204.6497 66.70667 5.569851 0.1128509 -0.2114407 0.970854 192 192 192 255 0.043987 0.635136
-211.4409 56.51484 5.56987 0.4637927 -0.09453456 0.8808857 192 192 192 255 0.037797 0.625309
-211.7583 26.1048 5.569909 0.364953 0.1414604 0.9202164 192 192 192 255 0.037508 0.597595
-204.6497 14.09583 5.569909 -2.752508e-05 0.003437422 0.9999941 192 192 192 255 0.043987 0.586112
-224.3162 25.95185 5.569909 -0.5475011 0.1754713 0.8182008 192 192 192 255 0.026064 0.597456
-224.1292 56.34563 5.56987 -0.4230629 -0.1539918 0.892919 192 192 192 255 0.026234 0.625155
-231.1995 67.29797 5.569851 0.002895013 -0.00546009 0.9999809 192 192 192 255 0.019791 0.635136
-238.3143 56.30789 5.56987 0.009885999 -0.001859792 0.9999494 192 192 192 255 0.013307 0.625121
-238 26.2665 5.569909 0.008531722 0.003672616 0.9999568 192 192 192 255 0.013593 0.597743
-231.1995 15.17432 5.569909 8.771246e-05 0.002181726 0.9999976 192 192 192 255 0.019791 0.587634
-55.00372 44.32151 5.569886 0.253452 0.001432028 0.9673469 192 192 192 255 0.180365 0.614197
-188.4828 34.16883 5.569898 0.267955 -0.001075568 0.9634308 192 192 192 255 0.05872 0.604944
-108.7901 39.0792 -5.488447 0.204771 -0.002384943 -0.978807 192 192 192 255 0.133337 0.609396
-194.4984 49.86198 -5.488447 -0.2211098 -0.001061919 -0.9752483 192 192 192 255 0.051338 0.619237
-197.469 33.75771 -5.488447 -0.4380662 0.07633163 -0.8956962 192 192 192 255 0.050531 0.60457
-222.7404 86.80939 10.64084 0 0.5615407 0.8274491 192 192 192 255 0.038224 0.833266
-173.3248 86.80939 -10.70128 0 0.5079493 -0.861387 192 192 192 255 0.077154 0.833266
-250 86.80939 13.74911 -0.9988757 0.03352219 0.03352219 192 192 192 255 0.00879 0.826887
-232.1386 86.80939 13.74911 0.2144879 0.7175174 0.6626943 192 192 192 255 0.024356 0.826887
-44.47833 86.80939 8.824371 -1.229814e-09 0.9961346 0.08784025 192 192 192 255 0.187894 0.831178
-0.010498 86.80939 -13.74911 0.02166728 0.9997644 -0.00128524 192 192 192 255 0.226646 0.85085
-121.6444 86.80939 -13.74911 -0.005498849 0.9955639 -0.09392761 192 192 192 255 0.120647 0.85085
-97.93118 86.80939 13.74911 0.06254127 0.7256106 0.6852575 192 192 192 255 0.141312 0.826887
-201.6433 86.80939 13.74911 -0.1311101 0.3997068 0.9072181 192 192 192 255 0.050931 0.826887
-0.012207 86.80939 13.74911 0.9993013 0.03399205 0.01554157 192 192 192 255 0.226644 0.826887
-28.86005 86.80939 13.74912 -0.1427171 0.8725013 0.4673043 192 192 192 255 0.201505 0.826887
3 141 1 6 
3 141 6 140 
3 2 3 146 
3 2 146 147 
3 148 149 10 
3 148 10 11 
3 142 143 14 
3 142 14 15 
3 147 148 11 
3 147 11 2 
3 145 140 6 
3 145 6 17 
3 20 14 143 
3 20 143 144 
3 17 20 144 
3 17 144 145 
3 142 15 1 
3 142 1 141 
3 153 154 26 
3 153 26 27 
3 28 10 149 
3 28 149 150 
3 154 155 31 
3 154 31 26 
3 151 146 3 
3 151 3 34 
3 27 32 152 
3 27 152 153 
3 28 150 151 
3 28 151 34 
3 23 22 215 
3 23 215 218 
3 23 218 216 
3 23 216 219 
3 23 219 222 
3 23 222 37 
3 36 37 222 
3 36 222 220 
3 159 160 40 
3 159 40 41 
3 42 204 208 
3 42 208 156 
3 221 225 224 
3 221 224 44 
3 125 123 23 
3 125 23 37 
3 160 161 46 
3 160 46 40 
3 157 152 32 
3 157 32 49 
3 41 206 209 
3 41 209 159 
3 42 156 157 
3 42 157 49 
3 227 228 51 
3 51 228 226 
3 51 226 18 
3 18 226 223 
3 18 223 19 
3 165 166 54 
3 165 54 55 
3 56 211 162 
3 166 167 59 
3 166 59 54 
3 163 158 47 
3 163 47 62 
3 55 60 164 
3 55 164 165 
3 56 162 163 
3 56 163 62 
3 64 65 171 
3 64 171 172 
3 68 194 198 
3 68 198 168 
3 70 64 172 
3 70 172 173 
3 169 164 60 
3 169 60 74 
3 170 199 197 
3 170 197 73 
3 68 168 169 
3 68 169 74 
3 76 77 177 
3 76 177 178 
3 173 174 81 
3 173 81 70 
3 82 76 178 
3 82 178 179 
3 175 170 73 
3 175 73 86 
3 176 177 77 
3 176 77 85 
3 81 174 175 
3 81 175 86 
3 88 89 183 
3 88 183 184 
3 179 180 93 
3 179 93 82 
3 94 88 184 
3 94 184 185 
3 181 176 85 
3 181 85 98 
3 214 183 89 
3 93 180 181 
3 93 181 98 
3 100 101 189 
3 100 189 190 
3 185 186 105 
3 185 105 94 
3 106 100 190 
3 106 190 191 
3 187 182 97 
3 187 97 110 
3 188 189 101 
3 188 101 109 
3 105 186 187 
3 105 187 110 
3 191 192 113 
3 191 113 106 
3 193 188 109 
3 193 109 114 
3 113 192 193 
3 113 193 114 
3 107 103 124 
3 229 122 230 
3 102 108 104 
3 102 104 95 
3 90 96 202 
3 90 202 83 
3 78 84 80 
3 78 80 71 
3 66 196 195 
3 66 195 58 
3 52 61 57 
3 52 57 45 
3 38 207 205 
3 38 205 30 
3 24 200 9 
3 5 4 231 
3 5 231 232 
3 103 102 95 
3 103 95 91 
3 91 90 83 
3 91 83 79 
3 79 78 71 
3 79 71 67 
3 67 66 58 
3 67 58 53 
3 53 52 45 
3 53 45 39 
3 39 38 30 
3 39 30 25 
3 25 24 9 
3 25 9 8 
3 230 8 5 
3 230 5 232 
3 13 12 233 
3 13 233 234 
3 235 236 237 
3 235 237 238 
3 239 240 241 
3 239 241 242 
3 243 210 244 
3 243 244 245 
3 246 247 248 
3 246 248 249 
3 250 251 252 
3 250 252 253 
3 254 213 255 
3 256 257 258 
3 256 258 259 
3 21 13 234 
3 21 234 260 
3 260 235 238 
3 260 238 261 
3 261 239 242 
3 261 242 262 
3 262 263 243 
3 262 243 264 
3 264 246 249 
3 264 249 265 
3 265 250 253 
3 265 253 266 
3 266 254 255 
3 266 255 267 
3 268 267 256 
3 268 256 259 
3 269 231 4 
3 269 4 35 
3 35 29 33 
3 35 33 50 
3 50 43 48 
3 50 48 63 
3 63 57 61 
3 63 61 75 
3 75 69 72 
3 75 72 87 
3 87 80 84 
3 87 84 99 
3 99 92 96 
3 99 96 111 
3 115 111 104 
3 115 104 108 
3 270 258 257 
3 270 257 271 
3 271 272 273 
3 271 273 274 
3 274 252 251 
3 274 251 275 
3 275 276 277 
3 275 277 278 
3 278 245 244 
3 278 244 279 
3 279 280 281 
3 279 281 282 
3 282 237 236 
3 282 236 283 
3 0 283 233 
3 0 233 12 
3 67 53 124 
3 67 124 79 
3 122 124 53 
3 91 79 124 
3 91 124 103 
3 122 53 39 
3 122 39 25 
3 122 25 8 
3 122 8 230 
3 123 22 23 
3 125 37 36 
3 134 135 120 
3 134 120 123 
3 133 134 123 
3 133 123 125 
3 117 119 121 
3 117 121 122 
3 120 18 19 
3 120 19 22 
3 120 22 123 
3 18 120 126 
3 18 126 51 
3 126 227 51 
3 118 116 128 
3 118 128 130 
3 36 227 126 
3 36 126 125 
3 129 124 127 
3 129 127 131 
3 117 122 229 
3 117 229 284 
3 285 131 127 
3 285 127 286 
3 16 21 121 
3 262 264 121 
3 262 121 261 
3 286 127 268 
3 265 266 127 
3 265 127 264 
3 127 266 267 
3 127 267 268 
3 284 269 117 
3 63 75 117 
3 63 117 50 
3 112 129 115 
3 87 99 129 
3 87 129 75 
3 129 99 111 
3 16 121 119 
3 16 119 7 
3 285 270 131 
3 275 278 131 
3 275 131 274 
3 7 119 0 
3 279 282 119 
3 279 119 278 
3 119 282 283 
3 119 283 0 
3 129 111 115 
3 129 117 75 
3 35 50 117 
3 35 117 269 
3 119 131 278 
3 271 274 131 
3 271 131 270 
3 127 121 264 
3 260 261 121 
3 260 121 21 
3 124 129 112 
3 124 112 107 
3 116 139 136 
3 116 136 128 
3 138 139 116 
3 138 116 118 
3 120 135 132 
3 120 132 126 
3 132 133 125 
3 132 125 126 
3 128 136 137 
3 128 137 130 
3 137 138 118 
3 137 118 130 
3 124 133 132 
3 124 132 127 
3 122 134 133 
3 122 133 124 
3 121 135 134 
3 121 134 122 
3 132 135 121 
3 132 121 127 
3 137 136 129 
3 137 129 131 
3 119 138 137 
3 119 137 131 
3 117 139 138 
3 117 138 119 
3 136 139 117 
3 136 117 129 
3 287 141 140 
3 287 140 288 
3 289 142 141 
3 289 141 287 
3 289 290 143 
3 289 143 142 
3 144 143 290 
3 144 290 291 
3 145 144 291 
3 145 291 292 
3 292 288 140 
3 292 140 145 
3 147 146 293 
3 147 293 294 
3 294 295 148 
3 294 148 147 
3 295 296 149 
3 295 149 148 
3 150 149 296 
3 150 296 201 
3 151 150 297 
3 151 297 298 
3 293 146 151 
3 293 151 298 
3 153 152 299 
3 153 299 300 
3 300 301 154 
3 300 154 153 
3 301 302 155 
3 301 155 154 
3 156 208 303 
3 156 303 304 
3 157 156 304 
3 157 304 305 
3 299 152 157 
3 299 157 305 
3 159 209 306 
3 159 306 307 
3 307 308 160 
3 307 160 159 
3 308 309 161 
3 308 161 160 
3 162 161 309 
3 162 309 310 
3 163 162 310 
3 163 310 311 
3 312 158 163 
3 312 163 311 
3 165 164 313 
3 165 313 314 
3 314 315 166 
3 314 166 165 
3 315 316 167 
3 315 167 166 
3 168 198 317 
3 168 317 318 
3 169 168 318 
3 169 318 319 
3 313 164 169 
3 313 169 319 
3 320 321 199 
3 320 199 170 
3 172 171 322 
3 172 322 323 
3 173 172 323 
3 173 323 324 
3 324 325 174 
3 324 174 173 
3 175 174 325 
3 175 325 326 
3 320 170 175 
3 320 175 326 
3 327 328 177 
3 327 177 176 
3 178 177 328 
3 178 328 329 
3 179 178 329 
3 179 329 330 
3 330 203 180 
3 330 180 179 
3 181 180 331 
3 181 331 332 
3 327 176 181 
3 327 181 332 
3 333 334 183 
3 333 183 182 
3 184 183 334 
3 184 334 335 
3 185 184 335 
3 185 335 336 
3 336 337 186 
3 336 186 185 
3 187 186 337 
3 187 337 338 
3 333 182 187 
3 333 187 338 
3 339 340 189 
3 339 189 188 
3 190 189 340 
3 190 340 341 
3 191 190 341 
3 191 341 342 
3 342 343 192 
3 342 192 191 
3 193 192 343 
3 193 343 344 
3 339 188 193 
3 339 193 344 
3 198 194 59 
3 198 59 167 
3 197 199 171 
3 197 171 65 
3 195 196 72 
3 195 72 69 
3 248 247 277 
3 248 277 276 
3 317 198 167 
3 317 167 316 
3 199 321 322 
3 199 322 171 
3 345 201 296 
3 24 33 29 
3 24 29 200 
3 297 201 345 
3 150 201 297 
3 330 346 203 
3 202 96 92 
3 203 346 331 
3 180 203 331 
3 208 204 31 
3 208 31 155 
3 209 206 47 
3 209 47 158 
3 205 207 48 
3 205 48 43 
3 241 240 281 
3 241 281 280 
3 303 208 155 
3 303 155 302 
3 306 209 158 
3 306 158 312 
3 211 347 46 
3 56 347 211 
3 263 210 243 
3 161 211 46 
3 162 211 161 
3 348 214 89 
3 254 273 272 
3 254 272 212 
3 254 212 213 
3 349 214 348 
3 182 183 214 
3 182 214 349 
3 182 349 97 
3 216 218 217 
3 217 218 215 
3 350 222 219 
3 220 222 350 
3 223 226 351 
3 351 226 228 
3 221 44 352 
3 221 352 353 
3 354 355 356 
3 357 225 221 
3 357 221 358 
3 354 356 225 
3 354 225 357 
3 359 355 354 
3 359 354 360 
