ply
format ascii 1.0
comment VCGLIB generated
comment TextureFile Dungeons_2_Texture_01_A.png
element vertex 238
property float x
property float y
property float z
property float nx
property float ny
property float nz
property uchar red
property uchar green
property uchar blue
property uchar alpha
property float texture_u
property float texture_v
element face 258
property list uchar int vertex_indices
end_header
0.091797 -22.81326 499.8252 -0.05338287 -0.9985741 0.0002639951 192 192 192 255 0.206365 0.529106
468.3545 3.874037 16.92383 0.06771781 0.9773844 -0.2003345 192 192 192 255 0.19739 0.540861
353.6729 3.952598 17.72949 -0.01339193 0.9850082 -0.1719871 192 192 192 255 0.166512 0.980956
153.7812 3.219644 335.3223 0.2613052 0.9290156 0.2620107 192 192 192 255 0.078464 0.658358
263.3486 3.841911 226.2207 0.171945 0.953068 0.2491915 192 192 192 255 0.119215 0.617433
262.7412 3.877764 17.40625 -0.1487346 0.9879943 -0.04177655 192 192 192 255 0.125087 0.981103
364.0332 0.640685 9.50293 -0.02806445 0.9544604 -0.2970147 192 192 192 255 0.200162 0.579826
18.72363 0.014976 7.255859 -0.01512304 0.9806181 -0.1953447 192 192 192 255 0.201001 0.708804
81.07812 0.175112 261.4971 -0.03212846 0.9932801 -0.1111865 192 192 192 255 0.106039 0.685514
0.170898 -0.031204 0.133789 -0.3370104 0.6288944 -0.7006539 192 192 192 255 0.203661 0.715733
284.4678 3.931837 135.1953 0.01863638 0.9997563 -0.01182969 192 192 192 255 0.134985 0.927443
274.8516 3.928679 78.90918 0.02060439 0.9997006 0.01319945 192 192 192 255 0.130604 0.953085
102.6846 3.308176 14.8291 0.01951407 0.9697749 -0.2432197 192 192 192 255 0.109069 0.650652
338.4375 -7.678682 0.007813 -0.0002596154 0.02107906 -0.9997778 192 192 192 255 0.220092 0.589387
299.4561 3.928939 138.2432 -0.001834594 0.9999905 -0.003953869 192 192 192 255 0.141813 0.926055
150.2285 0.197682 145.7295 -0.1787223 0.9712703 0.1571386 192 192 192 255 0.149279 0.659685
73.42383 -14.81813 0.006836 0.001644733 0.007208478 -0.9999727 192 192 192 255 0.222758 0.688372
282.123 -0.035773 6.818359 0.03997065 0.9667043 -0.2527551 192 192 192 255 0.201164 0.610421
3.998047 -22.90054 4.009766 -0.0002052542 -1 -0.0001515553 192 192 192 255 0.038627 0.535106
0.007813 -5.830832 382.0908 -0.9395182 0.3423301 0.01075919 192 192 192 255 0.212708 0.573081
0 0 500 -0.5218534 0.8398318 0.1495042 192 192 192 255 0.214886 0.529041
20.44043 0.31623 14.02441 -0.1125045 0.9920668 0.05609166 192 192 192 255 0.198473 0.708162
276.2178 3.924837 101.2871 0.03088639 0.9994113 -0.0149368 192 192 192 255 0.131226 0.942891
0.010742 -16.617 369.8047 -0.9999099 0.01336622 -0.001241883 192 192 192 255 0.20868 0.57767
3.496094 -4.473513 399.7666 -0.6908062 0.7196347 -0.07009192 192 192 192 255 0.054393 0.714491
326.96 -4.179763 3.033203 -0.002945064 0.9331424 -0.359495 192 192 192 255 0.218785 0.593673
110.6074 3.931777 23.91895 -0.001681138 0.9988407 -0.04810926 192 192 192 255 0.05578 0.978137
2.951172 -2.308364 310.2412 -0.4054331 0.9129242 0.04683416 192 192 192 255 0.087832 0.714695
135.2646 3.923894 17.11621 -0.001917703 0.9990844 -0.04274159 192 192 192 255 0.197318 0.665274
55.84473 3.930759 279.8818 0.01082126 0.9994709 -0.03067101 192 192 192 255 0.030832 0.861529
178.1143 -22.77407 0.164063 -0.0004141068 -0.2848754 -0.9585645 192 192 192 255 0.103662 0.53367
-0.061523 -21.54826 414.1045 -0.9999037 0.013611 -0.002713319 192 192 192 255 0.206838 0.561124
109.6572 -5.561208 0.470703 0.00147917 0.1760322 -0.9843833 192 192 192 255 0.219301 0.674839
105.8643 3.931432 285.7979 -0.006628592 0.9999188 -0.01089164 192 192 192 255 0.053619 0.858834
235.5986 3.953056 223.4297 -0.02237067 0.999174 0.03392591 192 192 192 255 0.120257 0.627798
27.80469 3.338305 14.90918 -0.02720753 0.9919701 -0.123512 192 192 192 255 0.198142 0.705412
130.584 3.334241 261.3125 -0.01209916 0.9501646 -0.3115138 192 192 192 255 0.106108 0.667022
15.5957 3.590377 469.7969 0.00640241 0.9993705 0.03489368 192 192 192 255 0.012496 0.775011
150.0137 0.236912 137.3945 -0.1143143 0.9890267 0.09358654 192 192 192 255 0.152393 0.659765
0.426758 -0.080472 415.6719 -0.9370124 0.3459653 -0.04812332 192 192 192 255 0.048453 0.715638
500 0 0 0.02403923 0.4763654 -0.8789188 192 192 192 255 0.217224 0.529041
18.08984 3.920532 327.8535 -0.1477414 0.988973 0.01024131 192 192 192 255 0.081254 0.70904
105.1973 0.123179 100.4414 -0.1890203 0.9665447 0.1733859 192 192 192 255 0.166195 0.676505
60.53516 -0.026386 255.1367 0.00299567 0.9979483 -0.06395414 192 192 192 255 0.108414 0.693187
481.5713 0.500975 11.31055 0.09784371 0.9949579 -0.0220312 192 192 192 255 0.199487 0.535924
250 -1.452883 250 0.6716217 0.3100062 0.6729193 192 192 192 255 0.110333 0.622419
8.069336 0.057813 257.8096 -0.1871684 0.9806399 -0.05756138 192 192 192 255 0.107416 0.712783
255.8135 0.032821 237.3555 -0.2005891 0.9793336 0.02588075 192 192 192 255 0.115056 0.620248
124.5654 0.029918 7.782227 -0.02510536 0.9728939 -0.2298853 192 192 192 255 0.200804 0.66927
361.8555 -0.126702 0.061523 -0.01845928 0.9116138 -0.4106332 192 192 192 255 0.203688 0.58064
151.6357 3.932736 108.2109 -0.01860392 0.9997003 0.0159119 192 192 192 255 0.163293 0.659159
17.64648 3.932773 32.86816 -0.04017287 0.9991491 -0.009333664 192 192 192 255 0.191434 0.709206
285.9287 -0.071545 211.4814 0.559979 0.6202709 0.5492609 192 192 192 255 0.115933 0.665274
200 -6.910279 300 0.6890377 0.2274848 0.6880972 192 192 192 255 0.011444 0.552306
5.979492 -0.014956 245.4355 -0.1561551 0.9850332 0.07297529 192 192 192 255 0.112038 0.713564
324.9727 3.932948 28.42578 -0.002606066 0.9998797 -0.01529245 192 192 192 255 0.153437 0.976084
15.41309 3.558359 410.0898 -0.2730918 0.9617239 -0.02253799 192 192 192 255 0.012413 0.802212
72.875 1.302522 279.0693 0.02899105 0.9892077 -0.1436236 192 192 192 255 0.03859 0.8619
255.6875 0.105208 11.38184 -0.2660755 0.9634647 -0.03065199 192 192 192 255 0.19946 0.620295
120.8955 -0.123111 0.112305 -0.03028514 0.8351612 -0.5491707 192 192 192 255 0.203669 0.670641
15.23242 3.48386 238.7061 -0.03066367 0.9983671 0.04819756 192 192 192 255 0.114551 0.710108
122.4531 3.929041 237.8408 -0.001938985 0.9998208 0.01883174 192 192 192 255 0.114875 0.67006
250.6309 0.017068 1.179688 0.001773625 0.999971 -0.00741009 192 192 192 255 0.20327 0.622184
243.9033 0.154163 11.33496 0.05293247 0.9812669 -0.1852389 192 192 192 255 0.199477 0.624696
22.98047 3.933306 394.9492 -0.02505008 0.9996828 -0.002607887 192 192 192 255 0.01586 0.809109
1.28418 -8.38913 375.4658 -0.6108642 0.7861674 -0.09373245 192 192 192 255 0.06347 0.715318
239.3242 2.797698 229.208 0.3938446 0.9187526 0.02793086 192 192 192 255 0.118099 0.626407
111.3574 3.938113 272.0527 -0.02973227 0.9961065 -0.0829936 192 192 192 255 0.056122 0.865096
0.107422 -22.79827 0.058594 -0.9680342 -0.1646678 -0.189194 192 192 192 255 0.206371 0.715775
116.1621 0.318591 121.8379 0.1089741 0.990547 -0.08331459 192 192 192 255 0.158203 0.672409
78.91406 3.626367 91.44238 0.3439973 0.8731323 -0.3454069 192 192 192 255 0.169556 0.686322
225.5566 3.835204 237.8604 0.03863024 0.9991583 0.0137978 192 192 192 255 0.114867 0.631549
167.3154 -0.096878 170.6914 0.1701721 0.9692578 -0.17771 192 192 192 255 0.139956 0.653303
414.3867 3.679894 72.95703 0.2453511 0.9388743 0.2414911 192 192 192 255 0.176461 0.561019
262.627 3.89856 162.6074 -0.1653223 0.9862395 0.000474722 192 192 192 255 0.125035 0.914955
96.64062 0.565196 9.375 0.04488881 0.9629853 -0.2657901 192 192 192 255 0.200209 0.679701
77.7666 -0.082002 0.126953 0.02740289 0.4894364 -0.8716083 192 192 192 255 0.203664 0.68675
301.9482 1.758696 87.02734 -0.01704033 0.9996323 -0.02109269 192 192 192 255 0.143577 0.947939
131.2002 3.934419 146.4766 0.05471047 0.9969453 -0.05573902 192 192 192 255 0.149 0.666792
174.7139 3.8734 161.6338 -0.02941786 0.9992566 0.02491948 192 192 192 255 0.084985 0.915399
495.2969 -22.90052 4.053711 0.001401132 -0.999999 0.0001395963 192 192 192 255 0.222133 0.535122
26.37695 3.869778 373.3467 -0.04049643 0.9991782 0.001701871 192 192 192 255 0.017407 0.81895
223.7832 3.932179 263.6357 0.2483305 0.9434966 0.2194223 192 192 192 255 0.10524 0.632211
236.7988 0.005825 255.1865 0.0306448 0.9837571 -0.1768699 192 192 192 255 0.108396 0.62735
322.6152 0.336193 172.333 0.4579501 0.7617697 0.4582452 192 192 192 255 0.139343 0.595296
218.0342 3.933665 263.3477 0.005257834 0.9999515 -0.008329441 192 192 192 255 0.10472 0.869062
212.8203 0.246432 208.5391 -0.2267897 0.9513019 0.2087851 192 192 192 255 0.125819 0.636306
229.1982 -0.081481 267.9775 0.5060667 0.6926283 0.5139676 192 192 192 255 0.103618 0.630189
301.9648 3.272902 59.21387 -0.02104507 0.9986963 0.04650707 192 192 192 255 0.142956 0.962058
7.999023 0.096692 412.7656 -0.2628681 0.9635914 -0.04890867 192 192 192 255 0.049538 0.71281
62.81348 1.475604 261.7549 0.07818194 0.9923627 -0.09541421 192 192 192 255 0.105942 0.692336
84.89258 3.934156 99.60547 0.03218786 0.9989978 -0.03110363 192 192 192 255 0.166507 0.684089
290.1836 1.140516 82.86621 0.07138705 0.997049 0.02823638 192 192 192 255 0.137589 0.951282
300 -7.272796 200 0.686848 0.2311693 0.6890578 192 192 192 255 0.113243 0.660986
318.2354 2.316517 21.96777 0.01523182 0.9556315 -0.2941709 192 192 192 255 0.195506 0.596932
-0.005859 -1.314865 292.5908 -0.9806827 0.195518 0.005841358 192 192 192 255 0.214395 0.606511
0.248047 -0.10865 59.43555 -0.657824 0.7531399 -0.006924769 192 192 192 255 0.181511 0.715705
267.2656 3.933786 216.2109 0.003760932 0.9999841 0.004212517 192 192 192 255 0.127148 0.890536
0.064453 -8.918802 354.1807 -0.9794557 0.2005396 0.02122275 192 192 192 255 0.211555 0.583506
236.1221 3.877953 17.0293 0.007136189 0.9995177 -0.03022286 192 192 192 255 0.197351 0.627603
47.80859 0.054709 52.86621 0.1736424 0.9713026 -0.162541 192 192 192 255 0.183965 0.69794
233.8115 0.404898 243.4707 0.008720599 0.9801927 0.1978539 192 192 192 255 0.112772 0.628466
400 0 100 0.3359513 0.8717518 0.3566308 192 192 192 255 0.16636 0.566392
121.9902 0.09649 255.374 -0.01352971 0.9903929 -0.1376188 192 192 192 255 0.108326 0.670232
239.748 2.528729 15.88672 0.4641297 0.8857643 -0.002314975 192 192 192 255 0.197777 0.626248
458.0156 3.933733 21.04492 0.002066099 0.999996 0.001928384 192 192 192 255 0.214047 0.979446
72.41797 3.934267 87.41211 0.03218573 0.9989302 -0.0332042 192 192 192 255 0.038382 0.949211
136.5596 -0.332359 142.3809 0.143698 0.9792485 -0.1429099 192 192 192 255 0.15053 0.66479
12.26562 -0.111021 352.0137 -0.4828514 0.8706421 0.09400485 192 192 192 255 0.07223 0.711216
305.3701 2.612025 115.083 -0.1323165 0.9900256 -0.04839039 192 192 192 255 0.144507 0.936606
114.4277 3.959658 100.0947 -0.01613643 0.9996911 0.01890318 192 192 192 255 0.05752 0.943434
9.324219 -2.321728 378.0391 -0.3888926 0.9162645 -0.09603082 192 192 192 255 0.062509 0.712314
420.7812 -0.003851 74.32324 0.2247288 0.9486114 0.2227855 192 192 192 255 0.175951 0.55863
221.833 0.235972 227.0342 0.1592969 0.9762245 -0.1470045 192 192 192 255 0.118911 0.63294
237.7734 3.661531 115.917 0.03635969 0.9993387 -0.0003315689 192 192 192 255 0.113712 0.936226
313.9189 3.933177 98.7832 -0.01435321 0.9998968 -0.0006619908 192 192 192 255 0.148401 0.944031
77.59375 3.931044 285.2979 0.003029459 0.9996644 -0.02572761 192 192 192 255 0.04074 0.859062
499.791 -22.76776 0.09375 0.01045298 -0.1548577 -0.9878815 192 192 192 255 0.225728 0.529119
100 0 400 0.6752747 0.3203375 0.6643704 192 192 192 255 0.054306 0.678446
134.9746 2.774538 108.875 -0.04597611 0.9887201 0.1425438 192 192 192 255 0.163045 0.665382
165.4463 3.934319 179.2949 0.05289852 0.9972142 -0.05258958 192 192 192 255 0.136742 0.654001
142.7422 0.495623 350.6396 0.472366 0.7494108 0.4639545 192 192 192 255 0.01421 0.573692
-0.016602 -0.909293 161.1289 -0.9689355 0.2473135 0.0002242913 192 192 192 255 0.214547 0.655613
17.24023 3.94131 270.9453 -0.04391448 0.9958523 -0.07968601 192 192 192 255 0.013245 0.865601
243.9531 0.181676 58.46875 0.2884946 0.9574811 -0.0009191197 192 192 192 255 0.181872 0.624678
245.9102 -0.019724 235.877 0.09626202 0.9953092 0.009659454 192 192 192 255 0.115608 0.623947
55.4834 3.937119 39.66211 -0.08225675 0.9937193 0.07586645 192 192 192 255 0.030667 0.970965
260.6709 -0.101112 0.077148 0.006211621 0.1284908 -0.9916913 192 192 192 255 0.217261 0.618433
248.6182 -22.85705 251.0146 0.008007896 -0.9999343 0.008199717 192 192 192 255 0.129996 0.627365
96.21777 -22.83019 403.5889 0.01888528 -0.9996397 0.0190721 192 192 192 255 0.073072 0.684354
369.8887 -22.87842 129.6055 1.751746e-05 -1 0.000193515 192 192 192 255 0.175292 0.582017
0.107422 -22.79827 0.058594 -0.9680342 -0.1646678 -0.189194 192 192 192 255 0.037174 0.53363
178.1143 -22.77407 0.164063 -0.0004141068 -0.2848754 -0.9585645 192 192 192 255 0.22573 0.649269
236.1221 3.877953 17.0293 0.007136189 0.9995177 -0.03022286 192 192 192 255 0.11296 0.981275
135.2646 3.923894 17.11621 -0.001917703 0.9990844 -0.04274159 192 192 192 255 0.067013 0.981236
114.4277 3.959658 100.0947 -0.01613643 0.9996911 0.01890318 192 192 192 255 0.166325 0.673057
18.08984 3.920532 327.8535 -0.1477414 0.988973 0.01024131 192 192 192 255 0.013632 0.839675
500 0 0 0.02403923 0.4763654 -0.8789188 192 192 192 255 0.203711 0.529041
260.6709 -0.101112 0.077148 0.006211621 0.1284908 -0.9916913 192 192 192 255 0.203682 0.618433
229.1982 -0.081481 267.9775 0.5060667 0.6926283 0.5139676 192 192 192 255 0.013995 0.5414
0.170898 -0.031204 0.133789 -0.3370104 0.6288944 -0.7006539 192 192 192 255 0.217235 0.715733
0.107422 -22.79827 0.058594 -0.9680342 -0.1646678 -0.189194 192 192 192 255 0.225739 0.715757
96.64062 0.565196 9.375 0.04488881 0.9629853 -0.2657901 192 192 192 255 0.111107 0.652909
27.80469 3.338305 14.90918 -0.02720753 0.9919701 -0.123512 192 192 192 255 0.10904 0.67862
110.6074 3.931777 23.91895 -0.001681138 0.9988407 -0.04810926 192 192 192 255 0.194777 0.674484
109.6572 -5.561208 0.470703 0.00147917 0.1760322 -0.9843833 192 192 192 255 0.203535 0.674839
15.5957 3.590377 469.7969 0.00640241 0.9993705 0.03489368 192 192 192 255 0.028236 0.709972
15.41309 3.558359 410.0898 -0.2730918 0.9617239 -0.02253799 192 192 192 255 0.050538 0.71004
174.7139 3.8734 161.6338 -0.02941786 0.9992566 0.02491948 192 192 192 255 0.143339 0.650539
151.6357 3.932736 108.2109 -0.01860392 0.9997003 0.0159119 192 192 192 255 0.074471 0.939736
22.98047 3.933306 394.9492 -0.02505008 0.9996828 -0.002607887 192 192 192 255 0.056193 0.707214
3.496094 -4.473513 399.7666 -0.6908062 0.7196347 -0.07009192 192 192 192 255 0.213215 0.566479
0.064453 -8.918802 354.1807 -0.9794557 0.2005396 0.02122275 192 192 192 255 0.07142 0.715773
111.3574 3.938113 272.0527 -0.02973227 0.9961065 -0.0829936 192 192 192 255 0.102096 0.674204
62.81348 1.475604 261.7549 0.07818194 0.9923627 -0.09541421 192 192 192 255 0.034007 0.869787
26.37695 3.869778 373.3467 -0.04049643 0.9991782 0.001701871 192 192 192 255 0.064262 0.705945
120.8955 -0.123111 0.112305 -0.03028514 0.8351612 -0.5491707 192 192 192 255 0.21727 0.670641
0.007813 -5.830832 382.0908 -0.9395182 0.3423301 0.01075919 192 192 192 255 0.060996 0.715794
1.28418 -8.38913 375.4658 -0.6108642 0.7861674 -0.09373245 192 192 192 255 0.211753 0.575556
134.9746 2.774538 108.875 -0.04597611 0.9887201 0.1425438 192 192 192 255 0.066881 0.939434
353.6729 3.952598 17.72949 -0.01339193 0.9850082 -0.1719871 192 192 192 255 0.197089 0.583696
0.426758 -0.080472 415.6719 -0.9370124 0.3459653 -0.04812332 192 192 192 255 0.214856 0.560539
17.24023 3.94131 270.9453 -0.04391448 0.9958523 -0.07968601 192 192 192 255 0.10251 0.709358
250 -1.452883 250 0.6716217 0.3100062 0.6729193 192 192 192 255 0.115417 0.679661
110.6074 3.931777 23.91895 -0.001681138 0.9988407 -0.04810926 192 192 192 255 0.092879 0.656084
96.64062 0.565196 9.375 0.04488881 0.9629853 -0.2657901 192 192 192 255 0.091622 0.650652
102.6846 3.308176 14.8291 0.01951407 0.9697749 -0.2432197 192 192 192 255 0.092646 0.652689
361.8555 -0.126702 0.061523 -0.01845928 0.9116138 -0.4106332 192 192 192 255 0.217271 0.58064
-0.005859 -1.314865 292.5908 -0.9806827 0.195518 0.005841358 192 192 192 255 0.094425 0.715799
326.96 -4.179763 3.033203 -0.002945064 0.9331424 -0.359495 192 192 192 255 0.202578 0.593674
130.584 3.334241 261.3125 -0.01209916 0.9501646 -0.3115138 192 192 192 255 0.064881 0.869989
218.0342 3.933665 263.3477 0.005257834 0.9999515 -0.008329441 192 192 192 255 0.105348 0.634359
72.875 1.302522 279.0693 0.02899105 0.9892077 -0.1436236 192 192 192 255 0.099475 0.688577
338.4375 -7.678682 0.007813 -0.0002596154 0.02107906 -0.9997778 192 192 192 255 0.203708 0.589387
0 0 500 -0.5218534 0.8398318 0.1495042 192 192 192 255 0.016955 0.715797
55.84473 3.930759 279.8818 0.01082126 0.9994709 -0.03067101 192 192 192 255 0.099172 0.694938
55.4834 3.937119 39.66211 -0.08225675 0.9937193 0.07586645 192 192 192 255 0.188897 0.695073
142.7422 0.495623 350.6396 0.472366 0.7494108 0.4639545 192 192 192 255 0.072743 0.662481
200 -6.910279 300 0.6890377 0.2274848 0.6880972 192 192 192 255 0.091657 0.641095
27.80469 3.338305 14.90918 -0.02720753 0.9919701 -0.123512 192 192 192 255 0.018058 0.982241
77.7666 -0.082002 0.126953 0.02740289 0.4894364 -0.8716083 192 192 192 255 0.217254 0.68675
285.9287 -0.071545 211.4814 0.559979 0.6202709 0.5492609 192 192 192 255 0.12472 0.608999
0.091797 -22.81326 499.8252 -0.05338287 -0.9985741 0.0002639951 192 192 192 255 0.037168 0.720299
105.8643 3.931432 285.7979 -0.006628592 0.9999188 -0.01089164 192 192 192 255 0.096962 0.676256
322.6152 0.336193 172.333 0.4579501 0.7617697 0.4582452 192 192 192 255 0.116085 0.650652
400 0 100 0.3359513 0.8717518 0.3566308 192 192 192 255 0.131602 0.650652
322.6152 0.336193 172.333 0.4579501 0.7617697 0.4582452 192 192 192 255 0.131727 0.679556
300 -7.272796 200 0.686848 0.2311693 0.6890578 192 192 192 255 0.128885 0.688003
468.3545 3.874037 16.92383 0.06771781 0.9773844 -0.2003345 192 192 192 255 0.218757 0.981323
414.3867 3.679894 72.95703 0.2453511 0.9388743 0.2414911 192 192 192 255 0.194171 0.955797
262.627 3.89856 162.6074 -0.1653223 0.9862395 0.000474722 192 192 192 255 0.142975 0.617703
324.9727 3.932948 28.42578 -0.002606066 0.9998797 -0.01529245 192 192 192 255 0.193094 0.594416
153.7812 3.219644 335.3223 0.2613052 0.9290156 0.2620107 192 192 192 255 0.075448 0.836273
-0.016602 -0.909293 161.1289 -0.9689355 0.2473135 0.0002242913 192 192 192 255 0.143527 0.715803
239.3242 2.797698 229.208 0.3938446 0.9187526 0.02793086 192 192 192 255 0.114419 0.884614
239.748 2.528729 15.88672 0.4641297 0.8857643 -0.002314975 192 192 192 255 0.114612 0.981796
165.4463 3.934319 179.2949 0.05289852 0.9972142 -0.05258958 192 192 192 255 0.080763 0.907353
122.4531 3.929041 237.8408 -0.001938985 0.9998208 0.01883174 192 192 192 255 0.061176 0.880682
225.5566 3.835204 237.8604 0.03863024 0.9991583 0.0137978 192 192 192 255 0.108147 0.880673
17.64648 3.932773 32.86816 -0.04017287 0.9991491 -0.009333664 192 192 192 255 0.01343 0.97406
262.7412 3.877764 17.40625 -0.1487346 0.9879943 -0.04177655 192 192 192 255 0.19721 0.61766
250 -1.452883 250 0.6716217 0.3100062 0.6729193 192 192 192 255 0.013483 0.53363
499.791 -22.76776 0.09375 0.01045298 -0.1548577 -0.9878815 192 192 192 255 0.223812 0.533643
78.91406 3.626367 91.44238 0.3439973 0.8731323 -0.3454069 192 192 192 255 0.041341 0.947375
84.89258 3.934156 99.60547 0.03218786 0.9989978 -0.03110363 192 192 192 255 0.044065 0.943657
131.2002 3.934419 146.4766 0.05471047 0.9969453 -0.05573902 192 192 192 255 0.065161 0.922304
235.5986 3.953056 223.4297 -0.02237067 0.999174 0.03392591 192 192 192 255 0.112721 0.887247
318.2354 2.316517 21.96777 0.01523182 0.9556315 -0.2941709 192 192 192 255 0.150368 0.979025
0.248047 -0.10865 59.43555 -0.657824 0.7531399 -0.006924769 192 192 192 255 0.214846 0.693597
0.170898 -0.031204 0.133789 -0.3370104 0.6288944 -0.7006539 192 192 192 255 0.214875 0.715747
263.3486 3.841911 226.2207 0.171945 0.953068 0.2491915 192 192 192 255 0.125363 0.885975
15.23242 3.48386 238.7061 -0.03066367 0.9983671 0.04819756 192 192 192 255 0.01233 0.880288
223.7832 3.932179 263.6357 0.2483305 0.9434966 0.2194223 192 192 192 255 0.107339 0.868931
72.41797 3.934267 87.41211 0.03218573 0.9989302 -0.0332042 192 192 192 255 0.171062 0.688748
102.6846 3.308176 14.8291 0.01951407 0.9697749 -0.2432197 192 192 192 255 0.05217 0.982278
400 0 100 0.3359513 0.8717518 0.3566308 192 192 192 255 0.035032 0.570981
300 -7.272796 200 0.686848 0.2311693 0.6890578 192 192 192 255 0.032315 0.608333
248.6182 -22.85705 251.0146 0.008007896 -0.9999343 0.008199717 192 192 192 255 0.026494 0.627387
369.8887 -22.87842 129.6055 1.751746e-05 -1 0.000193515 192 192 192 255 0.026486 0.582039
248.6182 -22.85705 251.0146 0.008007896 -0.9999343 0.008199717 192 192 192 255 0.098908 0.669843
300 -7.272796 200 0.686848 0.2311693 0.6890578 192 192 192 255 0.104729 0.650652
250 -1.452883 250 0.6716217 0.3100062 0.6729193 192 192 192 255 0.106903 0.669327
495.2969 -22.90052 4.053711 0.001401132 -0.999999 0.0001395963 192 192 192 255 0.026478 0.535144
500 0 0 0.02403923 0.4763654 -0.8789188 192 192 192 255 0.035032 0.53363
500 0 0 0.02403923 0.4763654 -0.8789188 192 192 192 255 0.096772 0.659205
495.2969 -22.90052 4.053711 0.001401132 -0.999999 0.0001395963 192 192 192 255 0.095015 0.650652
499.791 -22.76776 0.09375 0.01045298 -0.1548577 -0.9878815 192 192 192 255 0.096694 0.650701
96.21777 -22.83019 403.5889 0.01888528 -0.9996397 0.0190721 192 192 192 255 0.016357 0.590998
248.6182 -22.85705 251.0146 0.008007896 -0.9999343 0.008199717 192 192 192 255 0.016347 0.534009
250 -1.452883 250 0.6716217 0.3100062 0.6729193 192 192 192 255 0.024342 0.53363
200 -6.910279 300 0.6890377 0.2274848 0.6880972 192 192 192 255 0.022303 0.552306
200 -6.910279 300 0.6890377 0.2274848 0.6880972 192 192 192 255 0.13981 0.650652
100 0 400 0.6752747 0.3203375 0.6643704 192 192 192 255 0.142391 0.688003
96.21777 -22.83019 403.5889 0.01888528 -0.9996397 0.0190721 192 192 192 255 0.133864 0.689416
0.091797 -22.81326 499.8252 -0.05338287 -0.9985741 0.0002639951 192 192 192 255 0.118228 0.687937
96.21777 -22.83019 403.5889 0.01888528 -0.9996397 0.0190721 192 192 192 255 0.118222 0.651992
100 0 400 0.6752747 0.3203375 0.6643704 192 192 192 255 0.126749 0.650652
0 0 500 -0.5218534 0.8398318 0.1495042 192 192 192 255 0.126749 0.688003
3 31 68 0 
3 131 30 18 
3 13 40 117 
3 4 84 73 
3 16 32 132 
3 54 101 60 
3 125 124 66 
3 105 2 55 
3 32 127 132 
3 100 69 42 
3 44 6 1 
3 46 27 41 
3 3 87 82 
3 33 81 85 
3 20 31 0 
3 85 64 37 
3 64 56 37 
3 48 28 99 
3 133 79 114 
3 133 134 110 
3 62 125 47 
3 105 14 97 
3 11 5 74 
3 13 117 132 
3 125 101 47 
3 119 135 69 
3 29 136 81 
3 137 49 44 
3 101 54 43 
3 23 68 31 
3 31 19 23 
3 69 70 91 
3 127 13 132 
3 9 7 75 
3 75 7 35 
3 138 62 17 
3 138 59 62 
3 89 24 39 
3 59 48 62 
3 47 83 45 
3 139 121 53 
3 67 33 85 
3 33 116 81 
3 29 123 136 
3 7 9 21 
3 55 5 11 
3 105 55 115 
3 22 10 77 
3 10 22 97 
3 140 16 141 
3 26 126 110 
3 142 143 12 
3 144 145 75 
3 76 9 75 
3 89 146 147 
3 50 38 148 
3 133 149 79 
3 111 24 150 
3 151 19 31 
3 85 81 64 
3 54 46 43 
3 23 98 68 
3 134 26 110 
3 105 115 14 
3 101 61 60 
3 71 113 120 
3 38 107 15 
3 27 152 108 
3 103 8 153 
3 14 10 97 
3 77 10 14 
3 115 77 109 
3 55 11 88 
3 48 145 144 
3 59 145 48 
3 8 43 90 
3 154 29 57 
3 108 152 155 
3 156 127 32 
3 92 22 77 
3 155 65 111 
3 111 157 24 
3 133 110 149 
3 135 42 69 
3 11 74 22 
3 89 147 150 
3 150 24 89 
3 19 158 23 
3 158 98 23 
3 149 110 159 
3 1 6 160 
3 45 83 87 
3 31 161 151 
3 148 86 34 
3 162 46 41 
3 15 72 86 
3 125 113 101 
3 38 15 148 
3 93 52 163 
3 164 165 166 
3 7 21 35 
3 28 48 144 
3 116 29 81 
3 167 40 13 
3 25 167 13 
3 112 84 102 
3 152 65 155 
3 122 68 95 
3 46 168 27 
3 41 108 155 
3 44 49 6 
3 138 17 169 
3 72 107 78 
3 103 36 83 
3 85 170 67 
3 83 36 171 
3 8 90 172 
3 63 99 104 
3 88 92 77 
3 115 55 88 
3 73 44 1 
3 169 17 94 
3 14 115 109 
3 57 29 116 
3 138 169 173 
3 146 174 3 
3 41 27 108 
3 21 100 42 
3 107 69 78 
3 46 162 43 
3 43 162 175 
3 21 96 51 
3 176 42 135 
3 17 62 58 
3 50 119 38 
3 177 118 178 
3 26 179 126 
3 42 176 21 
3 180 16 140 
3 181 4 47 
3 38 69 107 
3 18 128 129 
3 131 18 182 
3 88 11 92 
3 8 172 183 
3 51 96 54 
3 43 175 90 
3 93 184 52 
3 185 186 187 
3 188 2 105 
3 188 105 189 
3 155 111 150 
3 18 30 80 
3 34 113 66 
3 63 48 99 
3 9 96 21 
3 112 44 73 
3 190 47 4 
3 62 48 63 
3 6 191 160 
3 6 94 191 
3 192 85 37 
3 58 62 47 
3 62 124 125 
3 54 168 46 
3 54 96 193 
3 86 113 34 
3 86 72 113 
3 194 195 114 
3 153 8 183 
3 101 71 61 
3 196 197 198 
3 106 199 197 
3 137 44 112 
3 137 112 102 
3 22 74 97 
3 47 190 200 
3 109 77 14 
3 153 36 103 
3 49 169 6 
3 35 21 176 
3 89 174 146 
3 201 139 53 
3 119 69 38 
3 78 69 91 
3 15 107 72 
3 169 94 6 
3 202 80 30 
3 105 97 189 
3 82 87 83 
3 47 101 83 
3 33 57 116 
3 180 32 16 
3 86 148 15 
3 84 112 73 
3 177 174 118 
3 177 3 174 
3 27 168 152 
3 177 87 3 
3 89 39 174 
3 203 106 204 
3 204 106 197 
3 196 205 197 
3 72 78 120 
3 120 113 72 
3 114 79 206 
3 194 114 206 
3 83 171 82 
3 17 200 94 
3 55 207 5 
3 54 193 168 
3 208 209 68 
3 98 95 68 
3 189 97 210 
3 97 74 210 
3 197 199 211 
3 195 133 114 
3 85 192 212 
3 4 181 84 
3 204 197 205 
3 213 100 51 
3 124 63 104 
3 62 63 124 
3 70 100 213 
3 141 16 132 
3 145 76 75 
3 214 179 26 
3 92 11 22 
3 101 43 103 
3 101 103 83 
3 17 58 200 
3 58 47 200 
3 88 77 115 
3 111 65 157 
3 181 47 45 
3 122 208 68 
3 100 21 51 
3 103 43 8 
3 69 100 70 
3 20 161 31 
3 101 113 71 
3 124 104 66 
3 113 125 66 
3 60 51 54 
3 18 80 130 
3 18 129 182 
3 18 130 128 
3 215 216 217 
3 215 217 218 
3 219 220 221 
3 218 222 223 
3 218 223 215 
3 224 225 226 
3 227 228 229 
3 227 229 230 
3 231 232 233 
3 234 235 236 
3 234 236 237 
