ply
format ascii 1.0
comment VCGLIB generated
comment TextureFile Dungeons_2_Texture_01_A.png
element vertex 326
property float x
property float y
property float z
property float nx
property float ny
property float nz
property uchar red
property uchar green
property uchar blue
property uchar alpha
property float texture_u
property float texture_v
element face 500
property list uchar int vertex_indices
end_header
64.05176 2.624254 337.8262 0.2515521 0.9606926 0.1174361 192 192 192 255 0.065176 0.604023
374.4883 -2.425186 49.81445 0.08457108 0.9782788 0.1892573 192 192 192 255 0.184446 0.71486
5.5 2.641382 446.9443 -0.4971652 0.8628936 0.09078149 192 192 192 255 0.007897 0.785422
498.8125 -6.17494 361.6846 0.8253788 0.5504634 0.1254589 192 192 192 255 0.232211 0.594841
71.00977 -1.30512 235.5322 0.2891313 0.9572694 0.006189344 192 192 192 255 0.067849 0.643389
425.0322 -2.418329 160.2344 -0.1537669 0.9865769 -0.05497033 192 192 192 255 0.203865 0.672366
52.77734 -2.42551 50.36328 0.09435665 0.9842167 0.1497145 192 192 192 255 0.060844 0.714649
125.4932 -2.42956 49.48242 -0.08886325 0.9734132 0.2111162 192 192 192 255 0.088782 0.714988
435.7627 2.57292 338.1357 -0.255685 0.9596568 0.1169787 192 192 192 255 0.203909 0.834991
494.5771 2.688044 343.5684 0.2795765 0.9333556 0.2251321 192 192 192 255 0.230584 0.601813
126.7646 2.713976 464.7324 -0.0454507 0.9893157 -0.1385228 192 192 192 255 0.063141 0.777319
5.911133 2.654288 5.767578 -0.1143347 0.9624575 -0.246177 192 192 192 255 0.008084 0.986406
128.1768 2.62679 37.19141 -0.0504064 0.9880595 0.1455947 192 192 192 255 0.063784 0.97209
0.186523 -0.046763 256.9756 -0.748994 0.6599476 -0.05896676 192 192 192 255 0.040639 0.635137
-0.007813 -1.556876 439.9658 -0.8938987 0.4306373 0.1244864 192 192 192 255 0.040564 0.564716
443.6455 -3.891984 110.4502 0.08055611 0.9955893 -0.04808984 192 192 192 255 0.211016 0.691525
480.3018 2.702229 353.0176 0.1242434 0.990945 0.05090835 192 192 192 255 0.2242 0.828212
229.625 -22.78373 499.8418 -0.00847683 -0.693829 0.72009 192 192 192 255 0.128789 0.541673
414.4131 -2.421256 401.8633 -0.00357108 0.9999886 -0.003173852 192 192 192 255 0.199785 0.579379
464.0332 2.709476 134.3135 -0.1404639 0.9887714 -0.05100161 192 192 192 255 0.216788 0.927845
147.8057 -5.281409 166.5879 0.03696184 0.9993001 -0.005763721 192 192 192 255 0.097354 0.669921
22.10645 -5.854274 499.5117 -0.09271917 0.4805423 0.8720564 192 192 192 255 0.049061 0.5418
221.4053 -1.23608 441.4512 -0.2683297 0.8572208 -0.439513 192 192 192 255 0.125631 0.564144
376.1787 -2.418651 450.9873 0.07440865 0.9744272 -0.2120256 192 192 192 255 0.185095 0.560474
290.4453 2.703993 17.88965 0.003413936 0.999932 -0.01115045 192 192 192 255 0.137708 0.980883
333.5107 -2.422976 374.291 -0.0002668111 0.9999985 -0.001753748 192 192 192 255 0.168702 0.58999
330.8955 -0.643566 439.4932 0.05567342 0.9873244 -0.1486307 192 192 192 255 0.167697 0.564898
215.7773 2.685681 448.5801 -0.02529542 0.9752045 -0.2198555 192 192 192 255 0.103692 0.784677
208.9297 -2.422035 136.3701 -0.001523656 0.9999354 0.01126001 192 192 192 255 0.120838 0.68155
271.3994 -16.26752 500.001 0.004497007 0.04286923 0.9990706 192 192 192 255 0.144839 0.541612
306.5557 0.080758 499.7275 -0.02045853 0.4901947 0.8713729 192 192 192 255 0.158346 0.541717
489.7217 1.99765 419.1865 0.4473708 0.8913515 -0.07315678 192 192 192 255 0.228491 0.798068
208.998 -2.419802 193.085 -0.02484681 0.9996828 0.00410087 192 192 192 255 0.120864 0.659724
394.1152 -4.303459 367.2168 -0.1796559 0.9831033 -0.03509621 192 192 192 255 0.191986 0.592712
-0.000977 -5.543029 196.8115 -0.959578 0.2742906 0.06304623 192 192 192 255 0.040567 0.65829
320.8018 2.700048 25.65527 0.02028438 0.9848312 -0.1723258 192 192 192 255 0.151537 0.977346
180.9385 -3.250224 180.4609 -0.02157485 0.9996149 -0.01745626 192 192 192 255 0.110084 0.664583
212.4824 -3.186306 153.5186 0.004676256 0.9999883 0.001278589 192 192 192 255 0.122203 0.674951
120.3643 -2.418498 121.7705 0.0179279 0.9997202 0.01543049 192 192 192 255 0.086811 0.687169
185.5439 -2.418739 129.2588 -0.02927173 0.9991271 0.02980454 192 192 192 255 0.111853 0.684287
361.0117 2.35431 453.1582 0.09417868 0.9765579 -0.1935587 192 192 192 255 0.179268 0.559639
340.5039 -18.39582 499.9805 -0.007393959 0.01210792 0.9998994 192 192 192 255 0.171389 0.54162
184.6357 -2.418079 242.6318 0.002289212 0.9998149 -0.01910583 192 192 192 255 0.111504 0.640657
339.7441 1.665075 452.8867 -0.001293719 0.9917626 -0.1280836 192 192 192 255 0.171097 0.559743
210.627 -1.692624 441.5713 0.08121269 0.922889 -0.3764047 192 192 192 255 0.12149 0.564098
241.5693 -2.418108 159.332 -0.00320791 0.9999945 -0.0008260027 192 192 192 255 0.133378 0.672714
33.54199 2.702284 224.6387 -0.06562478 0.9969087 -0.0432036 192 192 192 255 0.020672 0.886696
7.319336 -8.718102 499.4307 -0.1755167 0.502987 0.8462849 192 192 192 255 0.04338 0.541832
498.2764 -11.68361 376.4805 0.9277997 0.3698966 0.04862279 192 192 192 255 0.232005 0.589147
450.999 -2.477288 75.88574 -0.04573895 0.9961457 0.07484493 192 192 192 255 0.213841 0.704827
209.208 -2.44961 73.9375 -0.002856449 0.9989762 0.04514938 192 192 192 255 0.120945 0.705577
499.9961 -3.684687 343.9316 0.9983202 0.05136894 0.02679758 192 192 192 255 0.232666 0.601673
12.01758 -22.90708 81.93066 -0.005401365 -0.9999855 -9.342545e-06 192 192 192 255 0.045185 0.702501
191.667 -3.434021 187.3975 -0.01904404 0.9997273 0.01351696 192 192 192 255 0.114206 0.661913
473.9736 2.532848 64.77734 -0.0962678 0.9925007 0.07533205 192 192 192 255 0.221317 0.959523
234.7314 -2.429171 425.1367 -0.03336433 0.9850006 -0.1692948 192 192 192 255 0.130751 0.570423
486.71 1.529567 373.8408 0.4046351 0.9141433 0.02475064 192 192 192 255 0.227119 0.818725
400.3105 2.653588 6.009766 -0.02690661 0.9481317 -0.3167371 192 192 192 255 0.187758 0.986295
171.3555 -1.86724 498.957 -0.048355 0.7113886 0.7011335 192 192 192 255 0.106402 0.542014
74.50391 -2.418695 339.8232 0.1590716 0.9856161 0.05707225 192 192 192 255 0.069192 0.603254
126.4375 -3.367734 153.3174 0.0483236 0.9987821 -0.009958111 192 192 192 255 0.089145 0.675028
297.207 2.606922 435.9082 0.0208261 0.9684617 -0.2482906 192 192 192 255 0.140788 0.79045
0.232422 -1.673795 181.5479 -0.7835557 0.6189106 0.05468285 192 192 192 255 0.040657 0.664164
328.1543 -2.29535 427.1025 0.03502133 0.9955935 -0.08698828 192 192 192 255 0.166644 0.569666
328.7129 -9.998763 0.418945 0.03739865 0.5231161 -0.8514405 192 192 192 255 0.166859 0.733869
46.63379 -1.745416 132.7256 0.2657028 0.9543205 -0.1366541 192 192 192 255 0.058484 0.682953
369.2227 -2.383384 371.2764 0.05868935 0.9976692 -0.03481136 192 192 192 255 0.182423 0.59115
-0.064453 -21.566 211.6787 -0.9992087 -0.0391767 0.006867267 192 192 192 255 0.040543 0.652569
358.4082 2.626133 11.29883 -0.09425507 0.9244787 -0.3693984 192 192 192 255 0.178268 0.729682
476.1328 2.700041 233.9688 -0.04281885 0.9987705 0.02498277 192 192 192 255 0.2223 0.882446
474.5654 2.70161 270.3594 -0.02341463 0.9994712 -0.02256117 192 192 192 255 0.221586 0.865867
496.5352 -3.579 422.9043 0.3469788 0.9291375 -0.127708 192 192 192 255 0.231336 0.571282
2.169922 -1.387096 -0.05957 0.03482919 0.3440935 -0.9382892 192 192 192 255 0.041401 0.734053
346.5029 -2.418205 330.7129 0.007691579 0.9999505 0.006327766 192 192 192 255 0.173694 0.60676
241.166 2.6156 64.19824 -0.05894816 0.9649791 0.2556178 192 192 192 255 0.115258 0.959787
205.3613 2.698757 15.08008 0.004730011 0.999896 0.01362159 192 192 192 255 0.098946 0.982163
164.3506 -4.962267 499.9873 -0.02515359 0.4076363 0.9127979 192 192 192 255 0.103711 0.541617
260.9688 -0.607068 498.252 -0.01043973 0.5698624 0.8216739 192 192 192 255 0.140832 0.542285
1.594727 0.853696 154.6475 -0.5120071 0.8589555 0.006652142 192 192 192 255 0.04118 0.674517
73.90332 -2.355251 290.4951 0.2217789 0.9750958 -0.001514836 192 192 192 255 0.068961 0.622238
46.91504 -1.743389 366.9082 0.2595735 0.9542705 0.1482887 192 192 192 255 0.058592 0.592831
226.1602 2.691937 479.8848 -0.09890767 0.9811495 0.166021 192 192 192 255 0.108422 0.770416
495.5361 -22.90051 4.680664 0.1245139 -0.9853115 -0.1168655 192 192 192 255 0.230952 0.732229
142.0088 -2.41913 207.8018 0.02305919 0.9996068 -0.01595302 192 192 192 255 0.095127 0.654061
334.46 -3.908686 10.9209 -0.1313729 0.8426685 -0.52216 192 192 192 255 0.169067 0.729828
387.5518 -4.152047 375.0244 -0.0005013284 0.9979467 -0.06404751 192 192 192 255 0.189465 0.589708
499.8066 -0.31049 499.8066 0.6263785 0.4732541 0.6194196 192 192 192 255 0.232593 0.541687
381.4111 -0.038329 499.8916 -0.0005388508 0.5285463 0.8489043 192 192 192 255 0.187105 0.541654
159.6367 -2.419314 75.15625 -0.03773298 0.9886065 0.1457175 192 192 192 255 0.1019 0.705108
172.9229 -4.864836 143.8779 -0.09120864 0.9954802 0.02646055 192 192 192 255 0.107004 0.678661
308.4502 -2.356122 72.91602 -0.001271465 0.9662672 0.2575385 192 192 192 255 0.159074 0.70597
288.1348 2.557824 10.37891 0.05159896 0.9394307 -0.3388328 192 192 192 255 0.136655 0.984305
346.6777 2.704226 474.1523 -0.00165045 0.9999009 -0.01398863 192 192 192 255 0.163325 0.773027
461.2305 0.255228 236.9297 -0.08421832 0.983217 0.1618384 192 192 192 255 0.217772 0.642851
462.8115 2.664197 114.168 -0.2214754 0.9739134 -0.04941124 192 192 192 255 0.216232 0.937023
0.206055 -22.79224 499.8457 -0.5757549 -0.5547206 0.6006593 192 192 192 255 0.040647 0.541672
479.7842 2.698521 390.4111 0.07900546 0.9968318 -0.009201408 192 192 192 255 0.223964 0.811176
47.21484 -2.293139 64.36816 0.2582848 0.9659691 0.01387641 192 192 192 255 0.058707 0.709259
162.4277 2.710911 436.0977 -0.08498755 0.9586669 -0.2715419 192 192 192 255 0.079387 0.790363
208.5977 -2.418394 229.4229 -0.01589382 0.999843 -0.007836862 192 192 192 255 0.120711 0.64574
453.291 -2.10657 131.3154 -0.2445016 0.9632573 -0.1111504 192 192 192 255 0.214722 0.683496
159.7324 -1.586985 428.4893 -0.151515 0.9599742 -0.2355688 192 192 192 255 0.101937 0.569132
373.291 -2.418656 325.541 0.003951458 0.9997199 0.0233341 192 192 192 255 0.183986 0.608751
499.2588 0.236261 445.5918 0.8150759 0.5755888 -0.06594551 192 192 192 255 0.232382 0.562551
372.0918 2.606199 463.1152 0.04632993 0.9885776 -0.1434151 192 192 192 255 0.183525 0.555807
12.47168 -3.262689 492.4072 -0.277939 0.876421 0.3932382 192 192 192 255 0.045359 0.544535
3.857422 -22.90054 4.740234 -0.004874428 -0.9998499 -0.01663066 192 192 192 255 0.042049 0.732206
494.0371 2.644311 89.56152 0.1683069 0.9857202 -0.005335025 192 192 192 255 0.230457 0.948232
495.21 -22.90051 496.292 0.007539994 -0.9999153 0.0106137 192 192 192 255 0.230827 0.54304
373.7354 -3.642525 351.3193 0.04840278 0.989576 0.1356335 192 192 192 255 0.184156 0.59883
36.86914 2.658683 132.6318 0.1441172 0.9883178 -0.04957858 192 192 192 255 0.054733 0.682989
499.7451 -22.80416 499.8809 0.5811107 -0.5714226 0.5794709 192 192 192 255 0.232569 0.541658
499.8018 -0.292167 0.196289 0.6277776 0.4721718 -0.6188288 192 192 192 255 0.232591 0.733955
45.64746 -1.582525 400.4824 0.3140064 0.9494207 -0.0005585297 192 192 192 255 0.058105 0.57991
133.6318 -2.418737 184.1445 0.03966302 0.9987346 -0.03092079 192 192 192 255 0.091909 0.663165
137.8096 -2.421387 113.3887 0.006736124 0.9994124 0.03360762 192 192 192 255 0.093514 0.690394
314.2285 -3.762226 2.523438 0.1782374 0.7570478 -0.6285779 192 192 192 255 0.161294 0.733059
198.5557 2.192357 478.8809 0.09051535 0.9803802 0.1751046 192 192 192 255 0.095846 0.770873
412.3369 -2.42242 325.3281 -0.01291869 0.9998694 0.009711363 192 192 192 255 0.198987 0.608833
181.0107 -2.426977 208.8203 -0.002521121 0.9991419 0.04134164 192 192 192 255 0.110112 0.653669
207.7188 -4.378623 498.9678 0.02151023 0.7041172 0.7097579 192 192 192 255 0.120373 0.54201
157.7891 -3.701157 197.1309 -0.0003785212 0.9999989 0.001474997 192 192 192 255 0.10119 0.658167
368.96 -2.417342 383.8779 0.02222315 0.999665 -0.0132673 192 192 192 255 0.182322 0.5863
444.6514 2.660511 273.8682 -0.07858685 0.9917916 -0.1008641 192 192 192 255 0.207959 0.864269
426.9521 -2.514102 264.4307 -0.1040253 0.9939317 -0.03575689 192 192 192 255 0.204602 0.632268
190.8252 -1.747726 64.37988 0.09958337 0.9921066 0.07620774 192 192 192 255 0.113882 0.709255
499.3359 0.232321 22.00684 0.8330825 0.5531456 0.001852069 192 192 192 255 0.232412 0.725561
228.9102 -2.418158 418.0107 -0.0008849941 0.9999414 -0.01078892 192 192 192 255 0.128515 0.573165
463.0068 2.690361 56.57129 -0.2669883 0.9310032 0.2488984 192 192 192 255 0.218454 0.71226
0.001953 -11.85135 447.8584 -0.9917172 0.1212749 0.04230176 192 192 192 255 0.040568 0.561679
188.4434 -3.464659 226 -0.008170158 0.9995458 -0.02900942 192 192 192 255 0.112967 0.647058
192.6709 2.198166 43.69531 0.05100838 0.9941212 0.09550476 192 192 192 255 0.093165 0.969127
304.9365 -1.391665 428.7139 0.003870388 0.8945619 -0.4469274 192 192 192 255 0.157724 0.569046
356.2754 -8.216555 0.049805 -0.08557839 0.3794693 -0.921238 192 192 192 255 0.177448 0.734011
499.1904 -6.116913 406.6338 0.8677313 0.4935969 -0.05834946 192 192 192 255 0.232356 0.577543
372.1367 2.710517 35.75781 0.04369602 0.9905196 0.1302364 192 192 192 255 0.174923 0.972743
404.0918 -22.77922 0.291992 0.002189639 -0.6968006 -0.7172616 192 192 192 255 0.195819 0.733918
462.8457 -3.195364 86.81445 -0.1224926 0.9924069 -0.01113959 192 192 192 255 0.218393 0.700621
437.0244 -2.419025 112.2871 0.0707 0.9972664 -0.02147706 192 192 192 255 0.208472 0.690818
182.165 -3.052996 154.4951 -0.09315146 0.9956366 0.005522815 192 192 192 255 0.110555 0.674575
425.877 -2.41515 340.7432 -0.1627009 0.9848287 0.06034049 192 192 192 255 0.204189 0.6029
234.3984 2.704613 26.18066 -0.02155988 0.9995408 0.02129198 192 192 192 255 0.112175 0.977106
124.7998 -0.08086 499.7305 0.01439921 0.5283542 0.848902 192 192 192 255 0.088515 0.541716
104.3447 -0.042277 499.9072 0.0004838423 0.5327411 0.8462781 192 192 192 255 0.080657 0.541648
500.0771 -21.52714 374.0029 0.9988827 -0.04619587 0.00997245 192 192 192 255 0.232697 0.590101
179.2861 2.695209 436.1377 0.0413657 0.9695579 -0.2413429 192 192 192 255 0.109449 0.566189
18.45703 1.640557 487.0986 -0.3489254 0.9129363 0.2116561 192 192 192 255 0.047659 0.546577
461.7754 0.243656 253.541 -0.08833947 0.9949644 -0.04735074 192 192 192 255 0.217981 0.636459
178.6543 -0.2663 69.06738 0.06000903 0.9669012 0.2479937 192 192 192 255 0.109206 0.707451
96.05469 -2.436064 451.1152 0.002173168 0.9833211 -0.1818654 192 192 192 255 0.077472 0.560425
223.1602 0.898515 43.52637 -0.05927705 0.9960122 0.06667921 192 192 192 255 0.107055 0.969204
499.8682 -0.01972 186.5869 0.8294259 0.5586168 -0.0003255894 192 192 192 255 0.232617 0.662225
380.707 -2.59297 0.643555 -0.05535706 0.5441089 -0.8371864 192 192 192 255 0.186835 0.733783
438.6631 -0.269452 239.0576 -0.1064356 0.9895592 0.09718046 192 192 192 255 0.209102 0.642033
275.5254 -6.674887 0.006836 0.1072018 0.1156522 -0.9874879 192 192 192 255 0.146424 0.734028
192.8965 -22.79113 0.125977 0.000731255 -0.7033868 -0.710807 192 192 192 255 0.114678 0.733982
493.8857 2.633408 445.9697 0.2381552 0.969984 -0.04912428 192 192 192 255 0.230388 0.785866
238.7207 -0.976069 70.41406 -0.03651873 0.9046409 0.4246072 192 192 192 255 0.132284 0.706933
234.9395 -2.096052 498.2383 -0.07470601 0.7570524 0.6490692 192 192 192 255 0.130831 0.542291
499.8887 -22.8032 106.7256 0.713758 -0.700388 -0.002483833 192 192 192 255 0.232625 0.692959
19.93945 2.481157 477.3994 -0.15338 0.9849819 0.07927957 192 192 192 255 0.014475 0.771548
462.9727 2.618154 461.0107 -0.0619437 0.9963555 -0.0586407 192 192 192 255 0.216305 0.779014
64.12402 2.613713 162.6768 0.2478684 0.9619464 -0.1149803 192 192 192 255 0.065204 0.671427
436.0791 2.698972 282.3242 -0.2428854 0.9691471 -0.04195802 192 192 192 255 0.204053 0.860417
159.1387 2.538575 62.29004 -0.08221512 0.9718166 0.2209371 192 192 192 255 0.077889 0.960656
88.12988 -2.355568 47.33594 0.0001518999 0.9711084 0.2386387 192 192 192 255 0.074427 0.715814
0.121094 -22.81127 492.7529 -0.7114917 -0.702686 0.003458943 192 192 192 255 0.040614 0.544401
352.4756 -2.420292 433.8926 0.02600606 0.9946343 -0.1001317 192 192 192 255 0.175988 0.567053
435.7861 2.599447 224.8896 -0.2142875 0.9723306 0.09302688 192 192 192 255 0.20392 0.886582
17.43457 2.63325 193.8223 -0.1530439 0.9809709 0.1194727 192 192 192 255 0.013334 0.900735
317.0381 2.701777 460.833 0.02258047 0.9988647 -0.04194569 192 192 192 255 0.149822 0.779095
449.9668 -2.417295 53.62695 -0.1324419 0.9909495 0.02187126 192 192 192 255 0.213444 0.713393
235.5273 -5.818388 499.999 -0.01385512 0.208575 0.9779083 192 192 192 255 0.131057 0.541613
14.83496 1.559803 225.0488 -0.1364018 0.8890592 -0.4369991 192 192 192 255 0.012149 0.886509
396.3145 -2.418275 322.0938 0.001885228 0.9994404 0.03339854 192 192 192 255 0.192831 0.610077
0.041016 -0.05781 315.8135 -0.847795 0.530324 -0.0001485231 192 192 192 255 0.040583 0.612494
443.9082 -0.38192 256.5889 -0.09310205 0.9937014 -0.06236692 192 192 192 255 0.211117 0.635286
-0.05957 -10.09826 497.75 -0.7326176 0.4251367 0.5315359 192 192 192 255 0.040545 0.542478
155.9395 -3.361137 184.3691 0.001226682 0.9992052 -0.03984505 192 192 192 255 0.100479 0.663079
135.9873 2.651655 494.2373 0.0474184 0.9484947 0.3132241 192 192 192 255 0.067342 0.763877
74.85938 -2.401113 160.9805 0.1522604 0.9866504 -0.05777358 192 192 192 255 0.069328 0.672079
482.8057 2.116138 388.4883 0.3371771 0.9414155 -0.006955842 192 192 192 255 0.226061 0.584526
205.4443 -3.244293 428.9219 0.03288743 0.9970897 -0.06877913 192 192 192 255 0.119499 0.568966
233.3711 2.610417 435.8652 -0.1746466 0.9413993 -0.2885582 192 192 192 255 0.111707 0.790469
2.848633 1.516956 3.819336 -0.3292394 0.9259328 -0.1850672 192 192 192 255 0.041662 0.732561
435.8877 2.619596 162.4268 -0.241992 0.9637939 -0.111988 192 192 192 255 0.203966 0.915038
261.8203 2.106636 493.4297 -0.02826564 0.959686 0.2796493 192 192 192 255 0.141159 0.544141
214.5889 -1.648562 64.82422 -0.05032456 0.9937678 0.09946343 192 192 192 255 0.123012 0.709084
385.0723 -5.283488 355.8887 0.0003669655 0.9999323 0.0116321 192 192 192 255 0.188512 0.597072
49.18652 -2.434558 431.7295 0.13176 0.9911749 -0.01454841 192 192 192 255 0.059465 0.567885
-1.521484 -13.55253 78.30371 -0.9990144 -0.04426261 -0.003313123 192 192 192 255 0.039983 0.703896
103.3242 -18.21507 499.9814 3.470132e-05 -0.01103308 0.9999391 192 192 192 255 0.080265 0.54162
148.4717 0.032195 0.262695 -0.001440576 0.5660685 -0.824357 192 192 192 255 0.09761 0.733929
44.54102 -1.029422 454.3916 0.1604945 0.9765477 -0.1435135 192 192 192 255 0.05768 0.559164
490.1123 -2.199993 383.6992 0.6232643 0.7818399 0.01637267 192 192 192 255 0.228868 0.586369
499.7109 0.012284 343.8438 0.7878785 0.5959219 0.1553208 192 192 192 255 0.232556 0.601707
193.6709 -2.42106 168.0303 -0.03626996 0.9993328 0.004315969 192 192 192 255 0.114976 0.669366
433.4287 0.05988 499.6133 0.003245011 0.5396802 0.8418638 192 192 192 255 0.207091 0.541761
426.6514 0.10231 0.40625 -0.00298089 0.5421012 -0.840308 192 192 192 255 0.204487 0.733874
450.4697 -2.420537 370.2979 -0.2047378 0.9759288 0.07513558 192 192 192 255 0.213638 0.591527
425.6025 -2.378549 230.9697 -0.1581277 0.9864079 0.04466647 192 192 192 255 0.204084 0.645145
48.92871 -2.418575 375.1035 0.1475435 0.9889886 0.01150537 192 192 192 255 0.059366 0.589677
5.529297 2.637928 54.36328 -0.203574 0.9790583 0.001585654 192 192 192 255 0.00791 0.964267
2.386719 -2.889978 478.167 -0.6945691 0.7109668 0.1100004 192 192 192 255 0.041484 0.550015
307.6719 2.562117 18.83594 0.1033196 0.9763618 -0.1898497 192 192 192 255 0.158775 0.726782
40.48828 2.704179 207.375 -0.04649087 0.9988636 0.01050044 192 192 192 255 0.023836 0.894561
0.103516 -22.77319 61.32031 -0.7024451 -0.7114255 -0.02108666 192 192 192 255 0.040607 0.710432
500.0068 -1.65639 106.7021 0.9842967 0.1764695 -0.004290415 192 192 192 255 0.23267 0.692968
499.2754 0.223583 103.9111 0.7289771 0.6845378 -0.0007224428 192 192 192 255 0.232389 0.694042
460.4609 2.605846 37.07129 -0.06299656 0.9951675 0.07532046 192 192 192 255 0.215161 0.972145
0.118164 -22.79974 0.569336 -0.5814888 -0.5813938 -0.56908 192 192 192 255 0.040613 0.733811
71.50391 -21.60939 -0.030273 -0.005156417 -0.560362 -0.8282318 192 192 192 255 0.068039 0.734042
2.28418 -2.924703 222.6787 -0.7120051 0.6956967 -0.09515724 192 192 192 255 0.041445 0.648336
398.6631 -2.418296 376.2549 -0.111254 0.9937368 0.01047808 192 192 192 255 0.193734 0.589234
2.356445 -3.68139 204.999 -0.4016854 0.9152789 0.03022192 192 192 192 255 0.041473 0.655139
157.0352 -4.578022 134.1602 0.0006807504 0.9976033 0.06918952 192 192 192 255 0.1009 0.682401
8.416016 1.328494 250.251 -0.2298403 0.9706163 -0.07125623 192 192 192 255 0.009225 0.875028
452.7822 -2.056987 46.85449 -0.1968651 0.9665956 0.1641251 192 192 192 255 0.214526 0.715999
448.9189 -4.230983 86.25293 0.2732062 0.9537597 0.1253029 192 192 192 255 0.213042 0.700837
494.0303 2.710164 151.333 0.2173988 0.9760829 -0.0002457227 192 192 192 255 0.230454 0.920092
467.7393 0.28069 101.498 -0.1401692 0.9656386 -0.2188483 192 192 192 255 0.220273 0.69497
168.4023 2.456118 487.9258 0.0249165 0.9728476 0.2301015 192 192 192 255 0.082109 0.766752
35.2168 2.714099 366.8428 0.1372889 0.9894079 0.04715715 192 192 192 255 0.054098 0.592856
209.6025 1.362968 472.958 0.02546389 0.9895574 0.1418726 192 192 192 255 0.121097 0.552019
274.9912 0.010701 0.211914 0.2263876 0.5619706 -0.7955739 192 192 192 255 0.146219 0.733949
0.253906 0.018922 59.02246 -0.8606313 0.5090308 -0.01419867 192 192 192 255 0.040665 0.711316
0.193359 -0.295992 0.200195 -0.5786153 0.5132424 -0.6338664 192 192 192 255 0.040642 0.733953
138 -2.871899 153.7812 -0.01218538 0.9985936 0.05159934 192 192 192 255 0.093587 0.67485
452.1953 -2.361279 451.498 -0.164539 0.9698077 -0.1799995 192 192 192 255 0.214301 0.560278
394.3633 2.635609 494.4795 0.0002151372 0.9732063 0.2299338 192 192 192 255 0.192082 0.543737
337.7178 2.602277 64.17285 0.0845395 0.9571997 0.2768065 192 192 192 255 0.159243 0.959798
340.4688 -1.64609 71.53516 0.05658654 0.973341 0.2222726 192 192 192 255 0.171375 0.706501
48.50293 2.56069 494.5566 -0.040626 0.8965996 0.4409748 192 192 192 255 0.027487 0.763732
347.8008 -2.447691 351.7764 0.02161188 0.9997526 -0.005269199 192 192 192 255 0.174192 0.598654
462.7227 2.598046 365.4805 -0.1357863 0.9893774 0.05190825 192 192 192 255 0.218345 0.593381
212.7334 -4.246018 491.9727 -0.04192798 0.9835081 0.1759375 192 192 192 255 0.1223 0.544702
316.6172 -6.126289 498.8291 -0.003680209 -0.02302646 0.9997281 192 192 192 255 0.162212 0.542063
165.084 -5.091409 157.6475 -0.0230946 0.9996707 -0.01118451 192 192 192 255 0.103993 0.673362
17.04688 2.705246 253.3389 -0.07922923 0.9964218 -0.02943428 192 192 192 255 0.013157 0.873621
494.1709 2.634693 494.2432 0.1844373 0.9658803 0.1818194 192 192 192 255 0.230518 0.763875
35.16211 2.710068 464.8467 0.04171484 0.9982322 -0.04233646 192 192 192 255 0.02141 0.777266
148.5596 2.655566 5.875 -0.001904035 0.9760841 -0.2173849 192 192 192 255 0.07307 0.986357
123.5381 -1.765049 454.0127 -0.08020087 0.9673311 -0.2404961 192 192 192 255 0.088031 0.55931
158.3906 -2.418215 423.4697 -0.0336444 0.9966992 -0.07388446 192 192 192 255 0.101421 0.571064
493.9971 2.640059 5.751953 0.1709275 0.967477 -0.1864731 192 192 192 255 0.230439 0.986413
5.43457 2.609611 288.2627 -0.2338209 0.9722673 -0.004919233 192 192 192 255 0.007867 0.857711
106.8525 -2.420682 144.4629 0.01628883 0.9998674 2.341395e-05 192 192 192 255 0.08162 0.678436
39.32129 2.593592 37.11426 0.05249481 0.9970639 0.05574807 192 192 192 255 0.023304 0.972125
3.751953 -22.90054 495.7656 -0.01009657 -0.9998949 0.01040335 192 192 192 255 0.042009 0.543242
0.035156 -4.337616 237.9238 -0.8833646 0.4670467 -0.03917311 192 192 192 255 0.040581 0.642469
499.8096 -21.42164 0.198242 0.6119695 -0.5050637 -0.6086082 192 192 192 255 0.232594 0.733954
400.2783 -2.525732 360.5811 -0.1150933 0.9933288 -0.007170061 192 192 192 255 0.194354 0.595266
462.9727 2.618154 461.0107 -0.0619437 0.9963555 -0.0586407 192 192 192 255 0.218441 0.556617
64.12402 2.613713 162.6768 0.2478684 0.9619464 -0.1149803 192 192 192 255 0.034604 0.914924
64.05176 2.624254 337.8262 0.2515521 0.9606926 0.1174361 192 192 192 255 0.034571 0.835132
36.86914 2.658683 132.6318 0.1441172 0.9883178 -0.04957858 192 192 192 255 0.022187 0.928611
126.7646 2.713976 464.7324 -0.0454507 0.9893157 -0.1385228 192 192 192 255 0.08927 0.555185
35.16211 2.710068 464.8467 0.04171484 0.9982322 -0.04233646 192 192 192 255 0.054077 0.555141
35.2168 2.714099 366.8428 0.1372889 0.9894079 0.04715715 192 192 192 255 0.021435 0.821913
494.0303 2.710164 151.333 0.2173988 0.9760829 -0.0002457227 192 192 192 255 0.230374 0.675792
241.166 2.6156 64.19824 -0.05894816 0.9649791 0.2556178 192 192 192 255 0.133223 0.709325
337.7178 2.602277 64.17285 0.0845395 0.9571997 0.2768065 192 192 192 255 0.170318 0.709334
460.4609 2.605846 37.07129 -0.06299656 0.9951675 0.07532046 192 192 192 255 0.217476 0.719764
372.1367 2.710517 35.75781 0.04369602 0.9905196 0.1302364 192 192 192 255 0.183542 0.72027
128.1768 2.62679 37.19141 -0.0504064 0.9880595 0.1455947 192 192 192 255 0.089813 0.719718
39.32129 2.593592 37.11426 0.05249481 0.9970639 0.05574807 192 192 192 255 0.055675 0.719748
435.8877 2.619596 162.4268 -0.241992 0.9637939 -0.111988 192 192 192 255 0.208035 0.671523
435.7861 2.599447 224.8896 -0.2142875 0.9723306 0.09302688 192 192 192 255 0.207996 0.647485
40.48828 2.704179 207.375 -0.04649087 0.9988636 0.01050044 192 192 192 255 0.056123 0.654225
17.43457 2.63325 193.8223 -0.1530439 0.9809709 0.1194727 192 192 192 255 0.047266 0.659441
162.4277 2.710911 436.0977 -0.08498755 0.9586669 -0.2715419 192 192 192 255 0.102972 0.566204
474.5654 2.70161 270.3594 -0.02341463 0.9994712 -0.02256117 192 192 192 255 0.222895 0.629986
444.6514 2.660511 273.8682 -0.07858685 0.9917916 -0.1008641 192 192 192 255 0.211402 0.628636
148.5596 2.655566 5.875 -0.001904035 0.9760841 -0.2173849 192 192 192 255 0.097644 0.73177
159.1387 2.538575 62.29004 -0.08221512 0.9718166 0.2209371 192 192 192 255 0.101708 0.710059
493.9971 2.640059 5.751953 0.1709275 0.967477 -0.1864731 192 192 192 255 0.230361 0.731817
5.5 2.641382 446.9443 -0.4971652 0.8628936 0.09078149 192 192 192 255 0.042681 0.56203
19.93945 2.481157 477.3994 -0.15338 0.9849819 0.07927957 192 192 192 255 0.048228 0.55031
493.8857 2.633408 445.9697 0.2381552 0.969984 -0.04912428 192 192 192 255 0.230318 0.562405
462.7227 2.598046 365.4805 -0.1357863 0.9893774 0.05190825 192 192 192 255 0.216191 0.822534
462.8115 2.664197 114.168 -0.2214754 0.9739134 -0.04941124 192 192 192 255 0.218379 0.690094
464.0332 2.709476 134.3135 -0.1404639 0.9887714 -0.05100161 192 192 192 255 0.218849 0.682342
226.1602 2.691937 479.8848 -0.09890767 0.9811495 0.166021 192 192 192 255 0.127458 0.549354
463.0068 2.690361 56.57129 -0.2669883 0.9310032 0.2488984 192 192 192 255 0.216321 0.963261
48.50293 2.56069 494.5566 -0.040626 0.8965996 0.4409748 192 192 192 255 0.059202 0.543707
288.1348 2.557824 10.37891 0.05159896 0.9394307 -0.3388328 192 192 192 255 0.151269 0.730036
473.9736 2.532848 64.77734 -0.0962678 0.9925007 0.07533205 192 192 192 255 0.222668 0.709102
320.8018 2.700048 25.65527 0.02028438 0.9848312 -0.1723258 192 192 192 255 0.163819 0.724157
358.4082 2.626133 11.29883 -0.09425507 0.9244787 -0.3693984 192 192 192 255 0.168669 0.983886
135.9873 2.651655 494.2373 0.0474184 0.9484947 0.3132241 192 192 192 255 0.092814 0.54383
168.4023 2.456118 487.9258 0.0249165 0.9728476 0.2301015 192 192 192 255 0.105268 0.546259
215.7773 2.685681 448.5801 -0.02529542 0.9752045 -0.2198555 192 192 192 255 0.123469 0.561401
179.2861 2.695209 436.1377 0.0413657 0.9695579 -0.2413429 192 192 192 255 0.087067 0.790345
489.7217 1.99765 419.1865 0.4473708 0.8913515 -0.07315678 192 192 192 255 0.228718 0.572712
297.207 2.606922 435.9082 0.0208261 0.9684617 -0.2482906 192 192 192 255 0.154754 0.566277
18.45703 1.640557 487.0986 -0.3489254 0.9129363 0.2116561 192 192 192 255 0.013799 0.767129
494.0371 2.644311 89.56152 0.1683069 0.9857202 -0.005335025 192 192 192 255 0.230376 0.699564
307.6719 2.562117 18.83594 0.1033196 0.9763618 -0.1898497 192 192 192 255 0.145556 0.980452
223.1602 0.898515 43.52637 -0.05927705 0.9960122 0.06667921 192 192 192 255 0.126305 0.71728
435.7627 2.57292 338.1357 -0.255685 0.9596568 0.1169787 192 192 192 255 0.207987 0.603904
436.0791 2.698972 282.3242 -0.2428854 0.9691471 -0.04195802 192 192 192 255 0.208109 0.625382
198.5557 2.192357 478.8809 0.09051535 0.9803802 0.1751046 192 192 192 255 0.116852 0.54974
233.3711 2.610417 435.8652 -0.1746466 0.9413993 -0.2885582 192 192 192 255 0.130229 0.566294
192.6709 2.198166 43.69531 0.05100838 0.9941212 0.09550476 192 192 192 255 0.114592 0.717215
14.83496 1.559803 225.0488 -0.1364018 0.8890592 -0.4369991 192 192 192 255 0.046267 0.647424
8.416016 1.328494 250.251 -0.2298403 0.9706163 -0.07125623 192 192 192 255 0.043801 0.637725
480.3018 2.702229 353.0176 0.1242434 0.990945 0.05090835 192 192 192 255 0.225099 0.598177
400.3105 2.653588 6.009766 -0.02690661 0.9481317 -0.3167371 192 192 192 255 0.194367 0.731718
476.1328 2.700041 233.9688 -0.04281885 0.9987705 0.02498277 192 192 192 255 0.223498 0.643991
209.6025 1.362968 472.958 0.02546389 0.9895574 0.1418726 192 192 192 255 0.100879 0.773571
33.54199 2.702284 224.6387 -0.06562478 0.9969087 -0.0432036 192 192 192 255 0.053454 0.647581
482.8057 2.116138 388.4883 0.3371771 0.9414155 -0.006955842 192 192 192 255 0.22534 0.812052
17.04688 2.705246 253.3389 -0.07922923 0.9964218 -0.02943428 192 192 192 255 0.047117 0.636537
494.5771 2.688044 343.5684 0.2795765 0.9333556 0.2251321 192 192 192 255 0.230703 0.832516
486.71 1.529567 373.8408 0.4046351 0.9141433 0.02475064 192 192 192 255 0.227561 0.590163
1.594727 0.853696 154.6475 -0.5120071 0.8589555 0.006652142 192 192 192 255 0.006117 0.918582
339.7441 1.665075 452.8867 -0.001293719 0.9917626 -0.1280836 192 192 192 255 0.160166 0.782715
5.43457 2.609611 288.2627 -0.2338209 0.9722673 -0.004919233 192 192 192 255 0.042655 0.623097
5.911133 2.654288 5.767578 -0.1143347 0.9624575 -0.246177 192 192 192 255 0.042838 0.731811
317.0381 2.701777 460.833 0.02258047 0.9988647 -0.04194569 192 192 192 255 0.162373 0.556685
361.0117 2.35431 453.1582 0.09417868 0.9765579 -0.1935587 192 192 192 255 0.169855 0.782591
394.3633 2.635609 494.4795 0.0002151372 0.9732063 0.2299338 192 192 192 255 0.185049 0.763767
261.8203 2.106636 493.4297 -0.02826564 0.959686 0.2796493 192 192 192 255 0.124667 0.764245
372.0918 2.606199 463.1152 0.04632993 0.9885776 -0.1434151 192 192 192 255 0.174903 0.778055
494.1709 2.634693 494.2432 0.1844373 0.9658803 0.1818194 192 192 192 255 0.230428 0.543828
2.848633 1.516956 3.819336 -0.3292394 0.9259328 -0.1850672 192 192 192 255 0.006689 0.987293
3 5 127 73 
3 45 99 127 
3 82 248 52 
3 129 67 166 
3 82 108 248 
3 207 51 159 
3 72 154 211 
3 67 206 166 
3 144 111 159 
3 197 87 111 
3 244 135 209 
3 241 12 164 
3 161 92 239 
3 219 70 16 
3 238 2 240 
3 4 162 0 
3 65 97 110 
3 88 6 97 
3 45 50 28 
3 57 135 244 
3 198 112 250 
3 134 111 144 
3 96 161 239 
3 51 144 159 
3 35 24 74 
3 92 81 239 
3 98 10 179 
3 5 102 174 
3 228 252 234 
3 57 35 135 
3 133 84 68 
3 42 59 243 
3 10 240 179 
3 240 232 179 
3 240 160 232 
3 21 47 95 
3 138 50 45 
3 138 5 100 
3 5 118 200 
3 253 205 254 
3 162 65 110 
3 241 11 247 
3 247 11 255 
3 199 18 23 
3 41 17 111 
3 243 189 149 
3 193 113 222 
3 256 193 257 
3 24 141 74 
3 193 222 257 
3 258 238 240 
3 254 238 258 
3 151 208 259 
3 156 96 239 
3 45 196 32 
3 171 1 138 
3 243 59 201 
3 35 74 230 
3 260 90 261 
3 35 230 135 
3 217 171 128 
3 217 262 263 
3 61 183 27 
3 122 167 18 
3 12 241 247 
3 264 265 165 
3 50 88 115 
3 177 129 166 
3 105 21 146 
3 228 104 252 
3 219 185 168 
3 5 200 266 
3 70 8 16 
3 123 8 70 
3 200 267 266 
3 1 263 261 
3 253 169 205 
3 268 269 214 
3 100 5 266 
3 19 185 219 
3 94 19 219 
3 219 69 70 
3 270 242 256 
3 149 193 256 
3 271 147 272 
3 192 72 273 
3 184 226 225 
3 264 7 274 
3 112 198 275 
3 98 179 221 
3 62 214 269 
3 14 276 175 
3 277 203 105 
3 103 71 278 
3 103 86 111 
3 16 8 279 
3 96 279 161 
3 244 209 54 
3 101 270 145 
3 42 243 127 
3 97 115 88 
3 97 180 38 
3 124 200 118 
3 140 213 199 
3 114 246 79 
3 280 100 281 
3 50 115 39 
3 44 182 145 
3 282 223 235 
3 217 128 262 
3 209 283 54 
3 45 32 99 
3 83 59 42 
3 21 284 146 
3 147 176 272 
3 122 63 167 
3 25 127 63 
3 213 18 199 
3 85 66 122 
3 213 85 18 
3 118 251 140 
3 55 127 22 
3 172 120 17 
3 73 127 233 
3 18 167 23 
3 23 167 40 
3 42 121 83 
3 91 241 24 
3 220 137 280 
3 137 218 280 
3 224 285 154 
3 72 192 154 
3 253 255 169 
3 282 235 158 
3 203 276 129 
3 105 203 177 
3 205 46 254 
3 32 130 99 
3 31 96 156 
3 46 238 254 
3 122 25 63 
3 233 25 122 
3 141 75 150 
3 24 75 141 
3 246 38 180 
3 170 61 81 
3 286 49 137 
3 68 84 287 
3 57 288 35 
3 289 76 290 
3 14 67 129 
3 203 129 177 
3 237 178 36 
3 188 66 85 
3 127 55 63 
3 44 145 291 
3 292 98 221 
3 64 133 136 
3 58 235 290 
3 235 58 120 
3 89 237 139 
3 50 39 28 
3 293 71 134 
3 63 132 294 
3 167 43 40 
3 134 194 181 
3 50 157 187 
3 77 158 172 
3 104 23 40 
3 191 95 17 
3 191 21 95 
3 64 204 287 
3 60 246 114 
3 128 171 286 
3 214 212 268 
3 28 139 196 
3 37 196 45 
3 20 114 178 
3 130 121 42 
3 53 119 130 
3 196 237 36 
3 123 163 8 
3 21 143 284 
3 32 196 53 
3 196 36 53 
3 27 292 117 
3 226 210 206 
3 82 52 106 
3 225 226 206 
3 34 225 190 
3 206 106 52 
3 225 206 190 
3 5 73 102 
3 87 229 30 
3 87 30 236 
3 160 295 232 
3 16 279 96 
3 107 244 54 
3 208 275 296 
3 99 42 127 
3 33 188 85 
3 176 124 272 
3 127 44 22 
3 22 44 291 
3 227 60 20 
3 60 114 20 
3 267 200 153 
3 76 142 17 
3 178 114 121 
3 296 220 280 
3 91 24 297 
3 97 38 115 
3 151 51 207 
3 36 119 53 
3 61 27 81 
3 298 125 187 
3 103 278 86 
3 140 299 300 
3 75 131 150 
3 200 124 153 
3 79 0 59 
3 79 59 83 
3 48 194 134 
3 292 221 117 
3 63 294 26 
3 47 105 177 
3 214 62 34 
3 84 64 287 
3 71 103 134 
3 134 103 111 
3 75 241 164 
3 276 203 277 
3 301 290 235 
3 212 214 34 
3 77 186 158 
3 227 215 60 
3 55 22 302 
3 189 113 193 
3 71 293 278 
3 118 188 251 
3 127 182 44 
3 41 29 17 
3 29 172 17 
3 49 218 137 
3 173 216 46 
3 48 3 194 
3 206 248 166 
3 126 112 275 
3 208 151 207 
3 126 207 159 
3 226 72 210 
3 25 233 127 
3 109 73 233 
3 102 73 109 
3 34 206 67 
3 34 190 206 
3 141 150 74 
3 241 75 24 
3 115 38 215 
3 102 109 174 
3 76 58 290 
3 167 26 43 
3 125 303 148 
3 304 212 305 
3 199 23 228 
3 140 199 234 
3 249 13 305 
3 195 9 306 
3 195 306 3 
3 215 38 60 
3 198 307 275 
3 303 125 298 
3 219 168 69 
3 308 267 93 
3 246 4 79 
3 79 4 0 
3 140 251 213 
3 251 33 213 
3 27 117 309 
3 27 309 81 
3 75 164 131 
3 120 58 76 
3 21 105 47 
3 33 85 213 
3 87 41 111 
3 87 236 41 
3 7 6 88 
3 157 90 260 
3 212 304 310 
3 296 286 137 
3 212 34 67 
3 159 111 108 
3 17 108 111 
3 90 231 261 
3 138 90 50 
3 243 101 145 
3 51 3 144 
3 311 96 31 
3 56 96 311 
3 16 96 56 
3 130 42 99 
3 115 215 39 
3 271 308 147 
3 237 215 227 
3 260 187 157 
3 114 79 83 
3 77 30 186 
3 210 106 206 
3 82 159 108 
3 113 80 222 
3 296 137 220 
3 269 78 62 
3 188 233 66 
3 66 233 122 
3 260 298 187 
3 138 15 218 
3 142 143 191 
3 285 116 154 
3 277 105 146 
3 225 78 184 
3 11 202 255 
3 248 108 17 
3 243 201 189 
3 189 201 113 
3 201 80 113 
3 284 143 289 
3 204 64 116 
3 143 21 191 
3 124 300 272 
3 46 216 238 
3 305 13 312 
3 236 29 41 
3 124 140 300 
3 142 191 17 
3 45 28 37 
3 138 45 5 
3 5 45 127 
3 5 174 118 
3 119 178 121 
3 36 178 119 
3 114 83 121 
3 180 97 65 
3 167 63 26 
3 217 1 171 
3 50 187 125 
3 313 219 16 
3 3 306 314 
3 274 7 88 
3 82 250 159 
3 223 301 235 
3 136 198 250 
3 32 53 130 
3 238 245 2 
3 255 315 169 
3 35 297 24 
3 127 243 182 
3 199 228 234 
3 136 250 82 
3 136 82 155 
3 153 124 176 
3 231 90 138 
3 1 231 138 
3 30 229 186 
3 87 197 229 
3 47 177 95 
3 7 165 6 
3 149 189 193 
3 28 39 139 
3 124 118 140 
3 89 215 237 
3 158 120 172 
3 188 174 109 
3 76 289 142 
3 30 77 236 
3 316 170 92 
3 92 170 81 
3 270 101 242 
3 243 242 101 
3 154 136 155 
3 211 154 155 
3 303 274 148 
3 175 276 317 
3 14 175 67 
3 243 149 242 
3 242 149 256 
3 212 249 305 
3 147 153 176 
3 93 153 147 
3 93 147 308 
3 134 181 293 
3 151 9 195 
3 151 259 9 
3 15 138 100 
3 218 15 100 
3 18 85 122 
3 22 291 302 
3 255 202 315 
3 194 314 181 
3 139 237 196 
3 211 155 106 
3 106 155 82 
3 240 2 160 
3 88 148 274 
3 165 7 264 
3 166 248 95 
3 97 6 265 
3 265 6 165 
3 132 302 294 
3 120 76 17 
3 148 50 125 
3 227 20 237 
3 318 226 184 
3 226 318 72 
3 60 38 246 
3 112 126 250 
3 228 23 104 
3 68 152 133 
3 55 302 132 
3 195 51 151 
3 186 282 158 
3 3 48 144 
3 4 180 162 
3 281 100 266 
3 26 319 43 
3 198 152 307 
3 97 265 110 
3 50 90 157 
3 171 49 286 
3 72 318 273 
3 133 64 84 
3 109 233 188 
3 280 218 100 
3 320 316 92 
3 50 148 88 
3 321 81 322 
3 239 81 321 
3 224 192 273 
3 323 92 161 
3 80 59 0 
3 236 77 29 
3 192 224 154 
3 3 314 194 
3 59 80 201 
3 39 89 139 
3 86 324 197 
3 86 197 111 
3 248 17 95 
3 133 198 136 
3 152 198 133 
3 63 55 132 
3 231 1 261 
3 202 325 315 
3 325 202 11 
3 116 64 154 
3 154 64 136 
3 26 294 319 
3 1 217 263 
3 143 142 289 
3 126 208 207 
3 126 275 208 
3 210 211 106 
3 72 211 210 
3 249 212 67 
3 180 65 162 
3 51 195 3 
3 62 225 34 
3 78 225 62 
3 224 273 285 
3 39 215 89 
3 174 188 118 
3 312 13 317 
3 246 180 4 
3 20 178 237 
3 107 94 219 
3 208 296 259 
3 222 80 0 
3 152 68 307 
3 86 278 324 
3 267 153 93 
3 37 28 196 
3 140 234 299 
3 177 166 95 
3 158 235 120 
3 48 134 144 
3 197 324 229 
3 77 172 29 
3 218 49 138 
3 49 171 138 
3 14 129 276 
3 119 121 130 
3 206 52 248 
3 182 243 145 
3 310 268 212 
3 204 116 285 
3 323 320 92 
3 175 249 67 
3 317 13 175 
3 175 13 249 
3 126 159 250 
3 188 33 251 
