ply
format ascii 1.0
comment VCGLIB generated
comment TextureFile Dungeons_2_Texture_01_A.png
element vertex 86
property float x
property float y
property float z
property float nx
property float ny
property float nz
property uchar red
property uchar green
property uchar blue
property uchar alpha
property float texture_u
property float texture_v
element face 142
property list uchar int vertex_indices
end_header
62.63673 50 62.63681 0.3259471 0.8874236 0.3259417 192 192 192 255 0.113871 0.81973
1e-05 50 88.58212 -5.349546e-05 0.9999999 0.000387443 192 192 192 255 0.076339 0.839649
-62.63671 50 62.63681 -0.0001559782 1 0.0001181316 192 192 192 255 0.063574 0.880463
-88.58202 50 9.3e-05 -0.0003874461 0.9999999 -5.349713e-05 192 192 192 255 0.084091 0.918219
1e-05 50 -88.58194 -1.771069e-09 0.9999999 -0.000516534 192 192 192 255 0.162916 0.909979
62.63673 50 -62.63663 0.0003117949 0.9999999 -0.0002361389 192 192 192 255 0.175312 0.869018
90.42384 47.90484 9.3e-05 0.6947976 0.719204 -0.001357091 192 192 192 255 0.15583 0.830018
75.07227 30 75.07236 0.5331027 0.6603338 0.5289242 192 192 192 255 0.11218 0.802192
1e-05 30 106.1681 0.2967296 0.6305898 0.7171528 192 192 192 255 0.062784 0.828522
-75.07226 30 75.07236 -0.4552574 0.6568151 0.6011112 192 192 192 255 0.046509 0.882396
-106.168 30 9.3e-05 -0.7172144 0.6306695 -0.296411 192 192 192 255 0.073551 0.93176
-75.07226 30 -75.07217 -0.53101 0.660346 -0.53101 192 192 192 255 0.126995 0.947234
1e-05 30 -106.1679 -0.2967148 0.6306072 -0.7171436 192 192 192 255 0.176646 0.921079
75.07227 30 -75.07217 0.7167625 0.6306595 -0.2975233 192 192 192 255 0.192332 0.866815
106.168 30 9.3e-05 0.7509655 0.6603414 0 192 192 192 255 0.165178 0.818151
1e-05 50 9.3e-05 0 1 0 192 192 192 255 0.119484 0.874937
-67.64062 50 -50.55655 -0.04407341 0.97483 -0.2185499 192 192 192 255 0.117233 0.928118
-44.34374 50 -70.21378 -0.1714908 0.9809005 -0.091789 192 192 192 255 0.136425 0.924484
-64.50195 47 -64.50186 -0.4906719 0.718092 -0.4935433 192 192 192 255 0.125479 0.93295
-53.24218 50 -53.24112 -0.1188524 0.9828697 -0.1408587 192 192 192 255 0.124469 0.92225
78.4922 50 -24.36026 0.1728037 0.9849563 -0.0002129352 192 192 192 255 0.162844 0.846162
81.08399 50 18.10361 0.1732351 0.9845867 -0.02405521 192 192 192 255 0.142831 0.827914
78.38087 50 9.3e-05 0.1700985 0.9853724 -0.01038202 192 192 192 255 0.150867 0.836282
46.78321 50 69.20419 0.05602401 0.9485209 0.3117203 192 192 192 255 0.104387 0.824464
6.291025 50 85.97568 0.2080023 0.9352987 0.2862715 192 192 192 255 0.079951 0.837548
24.70118 47.56772 80.48935 0.2762771 0.6919414 0.6669993 192 192 192 255 0.089517 0.830152
23.44142 50 73.33017 0.1230109 0.9469237 0.2969911 192 192 192 255 0.092786 0.833957
104.5371 0 -104.538 5.465117e-05 -1 -7.216071e-05 192 192 192 255 0.18661 0.955348
1e-05 0 -147.8388 0 -1 -5.978002e-05 192 192 192 255 0.110087 0.979223
-104.5371 0 -104.538 -5.465114e-05 -1 -7.216079e-05 192 192 192 255 0.040151 0.941931
-147.8398 0 9.3e-05 -0.02442289 -0.9996508 -0.0100917 192 192 192 255 0.014926 0.865483
-104.5371 0 104.5382 -0.007225686 -0.9999694 0.003017957 192 192 192 255 0.053019 0.808311
1e-05 0 147.839 -0.01184689 -0.9995173 0.0287209 192 192 192 255 0.129535 0.770204
104.5371 0 104.5382 4.227035e-05 -1 4.227103e-05 192 192 192 255 0.200702 0.807281
147.8399 0 9.3e-05 0.006570939 -0.9999748 0.002671842 192 192 192 255 0.223914 0.884965
83.6543 26.48552 -83.65421 0.3495343 0.7934982 -0.4981831 192 192 192 255 0.167713 0.932807
1e-05 30 -114.163 4.881258e-10 1 -0.0001355663 192 192 192 255 0.113149 0.946529
-80.7246 30 -80.72549 -0.0001916904 1 -0.0001916894 192 192 192 255 0.064759 0.920436
-117.7441 26.9617 9.3e-05 -0.4530907 0.8914601 0.002789545 192 192 192 255 0.045352 0.867911
-80.7246 30 80.72568 -0.09432887 0.9905518 0.09954498 192 192 192 255 0.073623 0.81918
80.72462 30 80.72568 9.586004e-05 1 9.586061e-05 192 192 192 255 0.175458 0.828633
114.1621 30 9.3e-05 0.0002710888 1 4.912782e-10 192 192 192 255 0.191278 0.881567
95.3418 12.4614 -95.34268 0.3588775 0.756137 -0.547233 192 192 192 255 0.176674 0.943539
134.834 12.4614 9.3e-05 0.1353433 0.9902852 0.03189773 192 192 192 255 0.208861 0.883215
95.3418 12.4614 95.34189 0.2590607 0.7381303 0.6229376 192 192 192 255 0.18876 0.817487
1e-05 12.4614 134.8341 0.2576552 0.7374157 0.6243652 192 192 192 255 0.12797 0.785638
-95.34179 12.4614 95.34189 -0.4706447 0.8475888 0.2451262 192 192 192 255 0.06242 0.80581
-134.834 12.4614 9.3e-05 -0.6183432 0.7441856 -0.252665 192 192 192 255 0.030738 0.866749
-95.34179 12.4614 -95.34268 -0.08207864 0.9952815 -0.05174809 192 192 192 255 0.051258 0.931739
1e-05 12.4614 -134.8349 0.2580136 0.7374069 -0.6242276 192 192 192 255 0.111621 0.963793
104.5371 11.28096 -104.538 0.5601411 0.6980994 -0.4459812 192 192 192 255 0.182003 0.949976
1e-05 11.28096 -147.8388 -0.3783566 0.006319516 -0.9256384 192 192 192 255 0.110794 0.972092
-104.5371 8.21279 -104.538 -0.4644173 0.6087697 -0.6432076 192 192 192 255 0.044026 0.938359
-147.8398 11.28096 9.3e-05 -0.9245976 0.00365859 -0.3809277 192 192 192 255 0.022293 0.866121
1e-05 11.28096 147.839 -0.3818597 0.004153637 0.924211 192 192 192 255 0.128766 0.777271
104.5371 11.28096 104.5382 0.6290221 0.456782 0.6290322 192 192 192 255 0.195257 0.812185
147.8399 11.28096 9.3e-05 0.5786996 0.8154769 -0.0102105 192 192 192 255 0.21696 0.883978
1e-05 30 9.3e-05 -2.955465e-13 1 5.81787e-13 192 192 192 255 0.119871 0.874512
1e-05 0 9.3e-05 0 -1 0 192 192 192 255 0.11942 0.874713
-104.5371 8.460724 104.5382 -0.4561696 0.8386183 0.2977056 192 192 192 255 0.056597 0.798821
-115.3633 11.28096 78.40341 -0.6235299 0.7067052 0.3343325 192 192 192 255 0.048703 0.815988
-78.40429 11.28096 115.3634 -0.3922222 0.306622 0.8672628 192 192 192 255 0.074882 0.794201
-94.50976 11.28096 -108.6913 -0.4109763 0.352247 -0.8408452 192 192 192 255 0.051387 0.940182
-99.10741 11.97817 -99.10635 -0.2716872 0.9479108 -0.1662863 192 192 192 255 0.048518 0.934228
-120.2129 11.28096 -66.6962 -0.8173136 0.4498836 -0.3600046 192 192 192 255 0.037113 0.911571
73.0547 30 -83.90323 0.3119263 0.9434398 -0.1123537 192 192 192 255 0.160719 0.931605
75.70509 30 -75.70499 0.2612832 0.9525612 -0.1560713 192 192 192 255 0.162943 0.926757
93.78321 30 -49.20108 0.506894 0.8297618 -0.2335678 192 192 192 255 0.175866 0.911292
126.3652 11.28096 51.84384 0.7917621 0.5418806 0.2819191 192 192 192 255 0.205948 0.848192
142.3281 11.28096 13.30478 0.6469955 0.5850622 0.4889776 192 192 192 255 0.21438 0.87591
139.2363 8.329762 20.76767 0.7900491 0.5184141 0.3272146 192 192 192 255 0.214105 0.870353
130.6445 11.79402 27.86728 0.4847878 0.8512694 0.2008017 192 192 192 255 0.207558 0.864414
-4.916006 30 112.127 -0.0293323 0.9951494 0.09390002 192 192 192 255 0.123403 0.804018
11.31446 30 109.4767 0.09272333 0.8224333 0.5612538 192 192 192 255 0.133317 0.806504
1e-05 19.96179 125.9942 0.002955976 0.7699613 0.6380838 192 192 192 255 0.127348 0.793125
-96.5332 30 42.56454 -0.5669817 0.7920973 0.2260834 192 192 192 255 0.06141 0.842198
-111.1699 30 -7.227447 -0.5670019 0.803879 -0.179687 192 192 192 255 0.049427 0.872752
-110.0859 30 9.3e-05 -0.3633698 0.9255015 0.1068152 192 192 192 255 0.050537 0.868316
104.5371 0 -104.538 5.465117e-05 -1 -7.216071e-05 192 192 192 255 0.185821 0.941116
147.8399 0 9.3e-05 0.006570939 -0.9999748 0.002671842 192 192 192 255 0.213326 0.874713
104.5371 0 104.5382 4.227035e-05 -1 4.227103e-05 192 192 192 255 0.185821 0.808311
1e-05 0 147.839 -0.01184689 -0.9995173 0.0287209 192 192 192 255 0.11942 0.780807
-147.8398 0 9.3e-05 -0.02442289 -0.9996508 -0.0100917 192 192 192 255 0.025514 0.874713
-104.5371 0 -104.538 -5.465114e-05 -1 -7.216079e-05 192 192 192 255 0.053019 0.941116
1e-05 0 -147.8388 0 -1 -5.978002e-05 192 192 192 255 0.11942 0.968619
-104.5371 0 104.5382 -0.007225686 -0.9999694 0.003017957 192 192 192 255 0.052721 0.794164
3 8 25 24 
3 8 24 1 
3 1 2 9 
3 1 9 8 
3 2 3 10 
3 2 10 9 
3 19 18 16 
3 4 5 13 
3 4 13 12 
3 5 20 6 
3 5 6 13 
3 6 21 0 
3 6 0 7 
3 0 21 22 
3 0 22 15 
3 22 20 5 
3 22 5 15 
3 5 4 15 
3 3 2 15 
3 2 1 15 
3 1 24 26 
3 1 26 15 
3 19 16 3 
3 19 3 15 
3 4 17 19 
3 4 19 15 
3 18 17 4 
3 18 4 12 
3 3 16 18 
3 3 18 10 
3 19 17 18 
3 22 21 6 
3 6 20 22 
3 26 25 23 
3 24 25 26 
3 0 23 25 
3 0 25 7 
3 7 25 8 
3 6 7 14 
3 13 6 14 
3 18 12 11 
3 10 18 11 
3 15 26 23 
3 15 23 0 
3 50 51 49 
3 50 49 42 
3 49 51 62 
3 49 62 48 
3 63 48 62 
3 64 53 47 
3 64 47 48 
3 63 64 48 
3 54 55 44 
3 54 44 45 
3 44 55 68 
3 44 68 43 
3 68 71 43 
3 43 71 69 
3 43 69 56 
3 56 50 42 
3 56 42 43 
3 44 43 41 
3 44 41 40 
3 38 47 46 
3 38 46 75 
3 46 39 75 
3 37 48 47 
3 37 47 76 
3 47 38 76 
3 49 48 37 
3 49 37 36 
3 27 28 51 
3 27 51 50 
3 51 28 29 
3 51 29 52 
3 52 62 51 
3 52 29 30 
3 52 30 64 
3 30 53 64 
3 46 59 61 
3 32 33 55 
3 32 55 54 
3 55 33 34 
3 55 34 68 
3 68 34 70 
3 69 70 34 
3 69 34 56 
3 34 27 50 
3 34 50 56 
3 35 65 66 
3 36 37 57 
3 37 76 77 
3 37 77 57 
3 77 75 39 
3 77 39 57 
3 74 73 72 
3 40 41 57 
3 66 67 35 
3 78 79 58 
3 79 80 58 
3 80 81 58 
3 81 31 58 
3 31 82 58 
3 82 83 58 
3 83 84 58 
3 84 78 58 
3 53 30 85 
3 53 85 60 
3 59 60 85 
3 59 85 32 
3 59 32 61 
3 32 54 61 
3 46 61 54 
3 46 54 45 
3 53 60 46 
3 53 46 47 
3 60 59 46 
3 63 62 52 
3 52 64 63 
3 66 65 36 
3 66 36 57 
3 41 67 66 
3 41 66 57 
3 41 43 42 
3 41 42 67 
3 42 35 67 
3 42 49 35 
3 65 35 49 
3 65 49 36 
3 71 70 69 
3 68 70 71 
3 45 44 74 
3 73 74 44 
3 73 44 40 
3 72 73 40 
3 72 40 57 
3 39 72 57 
3 39 46 45 
3 39 45 74 
3 74 72 39 
3 77 76 38 
3 38 75 77 
