ply
format ascii 1.0
comment VCGLIB generated
comment TextureFile Dungeons_2_Texture_01_A.png
element vertex 364
property float x
property float y
property float z
property float nx
property float ny
property float nz
property uchar red
property uchar green
property uchar blue
property uchar alpha
property float texture_u
property float texture_v
element face 600
property list uchar int vertex_indices
end_header
347.6416 -0.114905 26.42383 -0.001464865 0.9999956 -0.002575107 192 192 192 255 0.174131 0.723862
458.4453 3.080531 456.2441 0.07601089 0.994402 0.07339732 192 192 192 255 0.214243 0.781186
206.7607 3.757279 145.3643 -0.02924429 0.996937 -0.07253635 192 192 192 255 0.099584 0.922811
339.9463 7.518336 286.4736 0.138001 0.9890425 0.05244732 192 192 192 255 0.160259 0.858526
159.3906 7.342253 212.4092 -0.1426254 0.9880311 -0.0587582 192 192 192 255 0.078004 0.892267
204.0986 -0.127369 481.5957 -0.004568003 0.9766492 0.2147919 192 192 192 255 0.118982 0.548695
287.9873 -14.73816 0.003906 -0.04984116 0.04748699 -0.9976276 192 192 192 255 0.151212 0.734029
499.8057 -0.082812 413.2959 0.7056084 0.7006823 0.1056464 192 192 192 255 0.232593 0.574979
146.4434 3.788906 206.5186 -0.07781 0.9964422 -0.03238172 192 192 192 255 0.072105 0.894951
110.1016 -0.069004 73.34375 0.05471065 0.99716 0.0517558 192 192 192 255 0.082868 0.705805
369.3525 4.010141 184.7812 -0.008901237 0.9999599 0.000973918 192 192 192 255 0.173655 0.904854
293.7715 3.82141 354.5029 0.01679152 0.9977926 0.06424989 192 192 192 255 0.139223 0.827535
487.4648 -0.020759 212.1357 0.08568991 0.996283 -0.008804016 192 192 192 255 0.227851 0.652393
383.4355 3.071119 456.1387 -0.05983902 0.9978682 0.02604382 192 192 192 255 0.187883 0.558492
295.8564 -0.103623 438.792 -0.05711281 0.9933289 0.1001798 192 192 192 255 0.154235 0.565168
115.2461 3.004733 459.1221 0.04291978 0.9976611 0.05319948 192 192 192 255 0.084845 0.557344
62.40137 0.431746 292.543 -0.1453357 0.988842 0.03269844 192 192 192 255 0.064542 0.621449
304.6709 3.999143 428.8037 -0.04940962 0.9780152 0.2025957 192 192 192 255 0.144188 0.793686
437.2529 0.366774 327.4854 0.1455313 0.9869529 0.06888112 192 192 192 255 0.20856 0.608002
284.7969 -2.116863 13.49414 -0.05313154 0.9216453 -0.3843787 192 192 192 255 0.149986 0.728837
439.1104 -0.020427 283.8877 0.04148537 0.9967221 -0.06945567 192 192 192 255 0.209273 0.62478
56.50098 3.08151 80.19922 0.03487365 0.9983258 0.04614665 192 192 192 255 0.031131 0.952497
496.0488 -2.890464 290.7676 0.5907474 0.8010645 -0.09650584 192 192 192 255 0.231149 0.622133
275.1621 6.913862 238.0586 0.03586531 0.9993532 -0.002640048 192 192 192 255 0.130745 0.880583
0.132813 -22.80314 399.3662 -0.7155936 -0.6985168 -0.0001967375 192 192 192 255 0.040618 0.58034
81.89844 -0.088689 398.5869 0.02639299 0.9978717 -0.05962803 192 192 192 255 0.072033 0.58064
493.0967 -0.742286 479.1484 0.2780833 0.9520543 0.1275244 192 192 192 255 0.230015 0.549637
216.2314 -17.46553 499.999 0.008303733 -0.03597844 0.9993181 192 192 192 255 0.123643 0.541613
241.709 -2.219833 485.0029 -0.05982952 0.9774978 0.2022835 192 192 192 255 0.133432 0.547384
497.9961 -1.349365 466.2119 0.7152242 0.6984041 0.02619391 192 192 192 255 0.231897 0.554615
103.9414 4.010147 172.0381 -0.0141659 0.9996068 -0.02419838 192 192 192 255 0.052743 0.910659
375.4111 4.011264 298.4229 0.001793653 0.9999936 -0.003110705 192 192 192 255 0.176415 0.853083
154.7109 -0.007196 64.20508 -0.001724639 0.999981 -0.005923938 192 192 192 255 0.100007 0.709322
250.6816 6.851176 253.0234 0.02204611 0.9997392 0.005971264 192 192 192 255 0.119593 0.873765
93.17969 4.011351 258.9844 0.001224689 0.9999992 -0.0003041248 192 192 192 255 0.04784 0.87105
26.73145 0.000353 198.8926 -0.038034 0.9989755 0.02452336 192 192 192 255 0.050838 0.657489
227.7188 -0.000391 28.66797 0.01405131 0.9995563 -0.02626485 192 192 192 255 0.128057 0.722998
-0.00293 -6.638327 40.68262 -0.9974648 0.06796969 -0.02107467 192 192 192 255 0.040566 0.718374
499.9912 -7.44393 415.1533 0.9939951 0.08180898 0.0726705 192 192 192 255 0.232664 0.574265
499.8477 -0.082777 128.4756 0.7072746 0.7065486 -0.02349141 192 192 192 255 0.232609 0.684588
398.3848 4.010925 227.083 0.01102983 0.9994012 0.03279819 192 192 192 255 0.186881 0.885583
40.67676 2.936355 119.7188 -0.06100811 0.99678 0.05203601 192 192 192 255 0.056195 0.687958
45.3584 3.092613 406.2236 -0.05026064 0.9965257 -0.06641191 192 192 192 255 0.057994 0.577701
27.33105 -0.018474 232.917 -0.1316921 0.9902054 -0.04637305 192 192 192 255 0.051068 0.644396
287.0947 6.321033 222.7002 0.02337513 0.9994957 -0.02149502 192 192 192 255 0.136181 0.887579
445.1475 -0.43293 40.94434 0.03716298 0.9958543 -0.08302528 192 192 192 255 0.211593 0.718274
262.6367 -0.003708 449.5371 0.01417059 0.9965001 -0.08238142 192 192 192 255 0.141472 0.561032
231.2969 -0.204478 0.09082 0.127138 0.8573229 -0.498832 192 192 192 255 0.129432 0.733995
68.74121 -0.005457 9.626953 -0.1189754 0.9828392 -0.140968 192 192 192 255 0.066978 0.730326
12.51465 -1.515577 12.66504 -0.146114 0.963762 -0.2231892 192 192 192 255 0.045376 0.729156
246.4434 7.518369 237.123 0.01704813 0.9998069 0.009773191 192 192 192 255 0.117662 0.881009
469.1641 -19.04308 500 5.203603e-05 -0.07306289 0.9973274 192 192 192 255 0.22082 0.541613
26.72266 -0.004815 338.7334 0.0008117369 0.999973 0.00730545 192 192 192 255 0.050834 0.603674
0.013672 -12.11973 275.292 -0.982354 0.1821267 -0.0425524 192 192 192 255 0.040573 0.628088
338.625 -0.000798 25.76953 0.002959614 0.9999956 3.116349e-05 192 192 192 255 0.170667 0.724113
207.168 2.130926 343.2988 0.0006335229 0.9999987 0.00144429 192 192 192 255 0.099769 0.832639
1.418945 -7.000832 224.6475 -0.576516 0.8157464 0.04676776 192 192 192 255 0.041113 0.647578
166.3838 -8.157899 499.8711 0.05033515 0.1347955 0.9895942 192 192 192 255 0.104492 0.541662
96.48828 0.253053 140.2881 -0.1199699 0.9894519 -0.08119196 192 192 192 255 0.077638 0.680043
233.0938 -5.192609 0.007813 0.1062906 0.102848 -0.9890019 192 192 192 255 0.130122 0.734027
146.833 3.979247 292.7148 -0.08387468 0.9958485 0.03536791 192 192 192 255 0.072283 0.855683
176.6719 0.147255 83.92773 -0.07673129 0.992785 -0.09214327 192 192 192 255 0.108445 0.701732
174.1074 0.140007 66.93262 0.004069552 0.9996396 -0.02653532 192 192 192 255 0.107459 0.708272
38.59375 -0.00025 206.2998 -0.02676834 0.9995811 0.01100326 192 192 192 255 0.055395 0.654639
57.20898 -0.001738 312.04 0.0199915 0.9996589 0.01680756 192 192 192 255 0.062547 0.613946
437.79 3.071311 415.8389 -0.04134493 0.9986798 -0.03048605 192 192 192 255 0.208766 0.574001
263.7119 7.518196 266.5557 -0.008753174 0.999797 -0.01815086 192 192 192 255 0.125529 0.8676
359.0742 4.012814 204.4131 -0.04890123 0.9987575 -0.009598257 192 192 192 255 0.168973 0.89591
206.5283 -8.200894 499.9229 -0.01229758 0.5446836 0.8385515 192 192 192 255 0.119916 0.541642
254.7051 -0.003223 473.0732 -0.02882424 0.9978735 0.05846005 192 192 192 255 0.138425 0.551975
153.2334 -0.107599 28.49414 0.009717838 0.999943 -0.004421363 192 192 192 255 0.09944 0.723065
437.3652 0.291085 234.8213 0.1075889 0.9917034 0.07034947 192 192 192 255 0.208603 0.643663
257.9395 -0.479636 24.5752 0.01155785 0.9958685 -0.09006865 192 192 192 255 0.139668 0.724573
419.6504 1.502079 278.3047 0.2611782 0.9636385 -0.05645164 192 192 192 255 0.201797 0.626929
396.1826 2.812567 440.7168 0.02102595 0.9814247 -0.1906922 192 192 192 255 0.192781 0.564427
491.2891 -0.212044 9.716797 0.2711008 0.9411535 -0.2018281 192 192 192 255 0.229321 0.730291
72.50391 4.024399 287.4482 -0.1643732 0.9853249 0.0460044 192 192 192 255 0.068423 0.62341
2.017578 -21.44227 499.9902 0.1145857 -0.4525037 0.8843701 192 192 192 255 0.041343 0.541616
0.114258 -22.79008 0.158203 -0.587923 -0.5647939 -0.5790979 192 192 192 255 0.040611 0.73397
259.7275 -4.212189 7.396484 0.08703423 0.8690947 -0.4869286 192 192 192 255 0.140355 0.731184
277.4199 -0.000197 484.9951 -0.07203688 0.9898986 0.1221124 192 192 192 255 0.147152 0.547387
34.84277 1.034847 386.3301 0.01641834 0.9938329 -0.1096659 192 192 192 255 0.053954 0.585357
389.7617 0.000147 420.2334 0.007859159 0.9999502 0.006151305 192 192 192 255 0.190314 0.57231
305.8027 7.211983 176.9316 0.06597853 0.9978098 0.004740974 192 192 192 255 0.144704 0.90843
230.4082 3.95585 71.06348 -0.04710009 0.9753394 -0.215626 192 192 192 255 0.110357 0.956659
414.7275 2.145817 265.0469 0.09917454 0.9949845 -0.01304647 192 192 192 255 0.194326 0.868288
77.37207 2.853632 417.7129 0.05805018 0.9949201 -0.08224462 192 192 192 255 0.070294 0.57328
79.05762 -1.499037 335.6553 0.1939368 0.9763585 -0.09546006 192 192 192 255 0.070941 0.604858
126.4629 -0.119346 474.1387 0.004601774 0.9954265 0.09542004 192 192 192 255 0.089154 0.551565
226.0312 -5.401089 495.3701 -0.004116268 0.9372111 0.3487384 192 192 192 255 0.127409 0.543394
475.2139 -0.001383 22.91309 0.0009522584 0.9997338 -0.02305458 192 192 192 255 0.223144 0.725213
347.918 -0.004455 17.79785 0.001320787 0.9999989 0.0007105204 192 192 192 255 0.174237 0.727181
23.85449 -0.001966 376.0469 0.01500247 0.9997278 -0.0178663 192 192 192 255 0.049732 0.589314
383.2539 4.008272 248.5254 0.05523175 0.9982356 0.02180012 192 192 192 255 0.179988 0.875814
68.41113 -0.384784 317.9863 -0.01760189 0.999212 0.03557473 192 192 192 255 0.066851 0.611658
321.4326 3.170901 206.8398 0.1045782 0.9939317 -0.03410429 192 192 192 255 0.151824 0.894805
284.5156 4.00998 408.1963 -0.03779509 0.9959644 0.0814027 192 192 192 255 0.135006 0.803074
248.1768 7.513387 181.1025 0.006121493 0.9999807 -0.001044408 192 192 192 255 0.118452 0.90653
498.0664 -22.95251 304.499 0.03580308 -0.9993589 -5.945714e-05 192 192 192 255 0.231924 0.616848
346.9189 -0.094562 471.8887 -0.00613579 0.9999493 0.007985032 192 192 192 255 0.173854 0.552431
173.0293 -0.002274 441.1592 -0.04054307 0.9933053 0.1081704 192 192 192 255 0.107045 0.564257
368.0479 4.009344 125.5488 0.04805961 0.9932406 -0.1056574 192 192 192 255 0.173061 0.931838
54.92188 -18.84233 0.005859 -0.01156883 0.04792696 -0.9987839 192 192 192 255 0.061668 0.734028
20.84277 -0.003013 172.2656 -0.006358827 0.9999585 0.006538628 192 192 192 255 0.048575 0.667736
486.2041 -0.000922 166.8262 0.01470383 0.999643 0.02231243 192 192 192 255 0.227367 0.66983
398.2021 3.997924 296.9072 0.01015181 0.9996704 -0.02357978 192 192 192 255 0.186798 0.853773
120.0713 0.043565 497.9395 0.008324634 0.8115278 0.5842546 192 192 192 255 0.086699 0.542406
287.3633 7.357419 159.457 0.1840688 0.9557617 -0.2294303 192 192 192 255 0.136304 0.916391
315.7383 -3.075187 4.506836 -0.2033002 0.9258312 -0.3185997 192 192 192 255 0.161874 0.732296
3.90332 -22.90053 3.69043 -0.01085001 -0.9998732 -0.01166019 192 192 192 255 0.042067 0.73261
436.2812 -1.99185 255.1221 -0.04629472 0.9964821 0.06985825 192 192 192 255 0.208187 0.63585
323.8828 4.60427 183.7354 0.1502451 0.9876773 0.04381737 192 192 192 255 0.152941 0.90533
429.0088 3.931439 227.0283 0.1899855 0.9782751 0.08296601 192 192 192 255 0.200832 0.885607
499.9961 -10.23977 282.5225 0.9698149 0.2426976 -0.02360083 192 192 192 255 0.232666 0.625306
306.043 5.79283 220.0703 0.1894455 0.9785773 0.080603 192 192 192 255 0.144813 0.888777
233.1729 0.044768 61.0918 -0.01746319 0.9840649 -0.1769504 192 192 192 255 0.130152 0.71052
458.96 -8.571232 0.00293 0.04264177 0.3354342 -0.941098 192 192 192 255 0.2169 0.734029
190.1279 -0.165815 61.80859 -0.02541438 0.9978408 -0.06056288 192 192 192 255 0.113614 0.710244
44.71191 3.083042 457.998 -0.07006375 0.9948447 0.07331552 192 192 192 255 0.057746 0.557776
30.75293 -0.104835 151.04 -0.004230038 0.9999693 0.00659769 192 192 192 255 0.052383 0.675905
324.459 4.009902 104.0762 0.03413549 0.9993951 -0.006647974 192 192 192 255 0.153203 0.94162
498.7402 -6.544025 241.2041 0.7348547 0.6655976 0.130263 192 192 192 255 0.232183 0.641207
108.2637 4.007998 276.8828 0.001134358 0.9999991 -0.0006816353 192 192 192 255 0.054712 0.862896
335.5498 4.008588 159.2676 0.01913097 0.9998142 0.002350628 192 192 192 255 0.158256 0.916477
204.5146 4.011027 356.7305 0.01139198 0.9991147 -0.04049819 192 192 192 255 0.098561 0.82652
181.792 3.82405 329.4883 -0.01062086 0.9990245 0.04286506 192 192 192 255 0.088209 0.838931
27.76465 -0.107949 474.1035 -0.02329954 0.9994438 0.0238582 192 192 192 255 0.051235 0.551578
412.0234 -0.061664 405.3818 -0.0441311 0.9981217 -0.04249259 192 192 192 255 0.198867 0.578025
4.808594 -22.90054 494.3984 -0.001797648 -0.9947233 0.102579 192 192 192 255 0.042415 0.543768
496.6748 -1.2741 109.4053 0.6387044 0.766306 -0.06951054 192 192 192 255 0.23139 0.691927
0.162109 -0.091419 499.8652 -0.5779517 0.57827 0.5758261 192 192 192 255 0.04063 0.541664
449.2539 -0.005816 276.5635 -0.02482771 0.9996193 -0.01203737 192 192 192 255 0.213171 0.627599
46.87305 -1.651713 380.7129 0.05131597 0.9942013 -0.09450132 192 192 192 255 0.058576 0.587519
469.8955 0.094731 47.46484 0.02515967 0.9993953 -0.02400494 192 192 192 255 0.221101 0.715764
70.49512 3.792856 177.8467 -0.1944458 0.9782673 -0.07200053 192 192 192 255 0.067652 0.665589
175.6748 3.795809 429.5908 -0.08068466 0.980538 0.1789839 192 192 192 255 0.085422 0.793328
499.7725 -9.127909 500.0156 0.6610383 0.3886387 0.6418632 192 192 192 255 0.23258 0.541607
361.5977 -0.773221 92.80273 -0.05404273 0.9943416 0.09145659 192 192 192 255 0.179493 0.698317
429.832 -0.097753 499.3398 0.05177688 0.7345935 0.6765291 192 192 192 255 0.205709 0.541867
177.2119 3.263135 106.9697 -0.01056116 0.9975401 -0.06929771 192 192 192 255 0.108652 0.692865
0.086914 -0.092937 61.64355 -0.7048689 0.7092903 -0.008195002 192 192 192 255 0.040601 0.710308
212.7861 7.51966 161.4346 -0.05447624 0.991017 -0.1221379 192 192 192 255 0.102329 0.91549
218.9053 4.546911 332.7725 -0.08973669 0.9647703 0.2473169 192 192 192 255 0.105117 0.837435
434.8906 -7.209483 499.999 0.05348346 0.1228876 0.9909784 192 192 192 255 0.207652 0.541613
6.643555 -4.531492 8.773438 -0.3368104 0.8315881 -0.4416106 192 192 192 255 0.04312 0.730654
498.4785 -0.462435 56.68848 0.6735063 0.7390557 0.01363672 192 192 192 255 0.232083 0.712215
495.6875 -22.90052 3.504883 0.01263472 -0.9997837 -0.016522 192 192 192 255 0.23101 0.732682
386.501 -0.088109 430.1328 -0.04063242 0.9975332 -0.05724078 192 192 192 255 0.189061 0.5685
5.356445 -4.361658 244.2803 -0.4774582 0.878651 0.002490595 192 192 192 255 0.042625 0.640023
384.542 3.081672 42.03906 -0.06245475 0.9976034 -0.02978086 192 192 192 255 0.188308 0.717852
490.5947 -2.975507 2.429688 0.1415247 0.739452 -0.6581652 192 192 192 255 0.229054 0.733095
497.0312 -0.117266 32.97266 0.5200827 0.8534848 -0.03282747 192 192 192 255 0.231527 0.721341
93.77051 4.006485 294.7656 -0.03315267 0.9986735 0.03939815 192 192 192 255 0.076594 0.620594
420.1543 0.457623 29.71777 0.02560853 0.9929149 -0.1160359 192 192 192 255 0.201991 0.722594
271.415 7.512991 200.3525 0.05591578 0.998432 0.002637559 192 192 192 255 0.129038 0.89776
72.39062 4.012901 229.1436 -0.1507538 0.9885671 0.002922237 192 192 192 255 0.03837 0.884644
473.9541 -0.075795 471.6465 0.03928052 0.9983079 0.04287587 192 192 192 255 0.22266 0.552524
158.9355 4.010635 101.9717 -0.07412873 0.9757918 -0.2057557 192 192 192 255 0.077796 0.942579
35.36523 -5.98537 1.141602 0.04424017 0.569175 -0.8210254 192 192 192 255 0.054155 0.733591
25.71973 -0.097943 28.47852 -0.04893754 0.9973033 -0.05469321 192 192 192 255 0.050449 0.723071
493.7354 -0.015684 124.4844 0.03333748 0.9991913 -0.0224798 192 192 192 255 0.23026 0.686124
497.4141 -3.387423 199.5703 0.4727553 0.8803633 0.03824926 192 192 192 255 0.231674 0.657229
499.8438 -9.097626 0.178711 0.6765975 0.3307709 -0.6578804 192 192 192 255 0.232607 0.733962
311.1445 -0.004856 12.75488 -0.05818305 0.9804294 -0.1880769 192 192 192 255 0.160109 0.729122
224.0146 3.387642 345.5127 -0.04081798 0.9980399 0.04743803 192 192 192 255 0.107444 0.831631
488.7461 -0.001316 302.5635 0.0857425 0.9954583 -0.0413653 192 192 192 255 0.228343 0.617593
332.8574 -0.16711 0.106445 -0.02997564 0.7087073 -0.7048655 192 192 192 255 0.168451 0.733989
82.19336 0.303059 152.1035 -0.1346907 0.9805033 -0.1430799 192 192 192 255 0.072146 0.675496
287.0049 7.521333 338.4863 0.04009185 0.9910777 0.1271132 192 192 192 255 0.13614 0.834831
251.8389 6.355322 339.8389 -0.04821623 0.980867 0.1886137 192 192 192 255 0.12012 0.834215
499.8213 -22.79561 354.3896 0.7366775 -0.6762437 -0.0008880616 192 192 192 255 0.232599 0.597649
353.1445 3.959787 292.7979 0.08161349 0.9960775 0.03419048 192 192 192 255 0.166271 0.855645
120.2871 0.066084 112.7158 -0.09851823 0.9862189 -0.1329153 192 192 192 255 0.086782 0.690653
0.124023 -22.80338 299.626 -0.7163179 -0.6977718 0.001791233 192 192 192 255 0.040615 0.618724
262.1055 -8.178853 499.9814 -0.007699464 0.4639209 0.8858432 192 192 192 255 0.141268 0.54162
499.8535 -22.77579 40.64062 0.7156066 -0.6985019 -0.001526176 192 192 192 255 0.232611 0.71839
140.6582 -0.001858 410.041 -0.118055 0.9859636 0.1180629 192 192 192 255 0.094608 0.576232
336.2617 0.378266 200.2197 0.01376565 0.9997725 0.016291 192 192 192 255 0.169759 0.656979
60.52441 -0.002551 172.8438 -0.1142095 0.992274 -0.04846236 192 192 192 255 0.063821 0.667514
422.3975 2.520776 422.4277 -0.06988169 0.9954396 -0.06493565 192 192 192 255 0.202852 0.571465
279.8975 3.866317 145.3545 0.01712962 0.9941341 -0.1067891 192 192 192 255 0.132903 0.922815
435.6982 3.074427 56.0459 0.0482079 0.9963096 -0.07101612 192 192 192 255 0.207963 0.712462
74.62793 3.07299 70.0752 0.01995678 0.9985225 0.05054392 192 192 192 255 0.039389 0.95711
82.75195 3.712426 162.9043 -0.1401164 0.9762396 -0.1652987 192 192 192 255 0.072361 0.671339
3.731445 -3.130054 277.9326 -0.6466079 0.7429614 -0.1729356 192 192 192 255 0.042001 0.627072
193.8154 -0.002246 478.0879 -0.001569212 0.989656 0.1434522 192 192 192 255 0.115031 0.550045
349.0088 4.007726 131.626 0.009467964 0.9993256 -0.03547813 192 192 192 255 0.164387 0.929069
289.7607 -9.073381 0.012695 -0.09517492 0.4726742 -0.8760827 192 192 192 255 0.151893 0.734026
382.8438 3.502682 268.5537 0.1209482 0.9926587 0.0004674924 192 192 192 255 0.179801 0.86669
98.0791 1.525261 353.3154 -0.1558452 0.9874002 0.02744328 192 192 192 255 0.050072 0.828076
315.7383 7.516188 254.3496 -0.009281112 0.999195 -0.03902983 192 192 192 255 0.14923 0.873161
151.3467 -0.183699 499.7812 -0.002827516 0.6689598 0.7432932 192 192 192 255 0.098715 0.541697
240.9062 -2.238923 3.443359 0.1479743 0.8497151 -0.5060514 192 192 192 255 0.133124 0.732705
426.3398 0.001081 158.8262 0.1263424 0.9847328 -0.1197453 192 192 192 255 0.204367 0.672908
322.0615 -22.8204 499.208 -0.0006682713 -0.7579952 0.6522599 192 192 192 255 0.164303 0.541917
199.7412 -0.127705 0.12793 0.008387861 0.7169029 -0.6971227 192 192 192 255 0.117308 0.733981
328.5449 0.478903 436.0713 0.05666426 0.9901868 0.1277474 192 192 192 255 0.166794 0.566215
323.9287 4.014651 427.0645 0.07992425 0.9795167 0.1848218 192 192 192 255 0.152962 0.794479
464.4785 -0.005599 229.6846 0.02831819 0.9994794 0.01546476 192 192 192 255 0.21902 0.64564
323.7979 3.962142 71.10352 0.08151168 0.9799153 -0.1819944 192 192 192 255 0.152902 0.956641
447.875 -2.106461 496.1465 0.04214522 0.8677073 0.4952857 192 192 192 255 0.212641 0.543096
429.9248 -1.764971 268.4502 0.09857918 0.9944905 -0.03564959 192 192 192 255 0.205744 0.630721
405.4951 1.067073 250.7256 -0.01932301 0.9990078 0.04012463 192 192 192 255 0.19012 0.874812
2.529297 -1.792028 191.498 -0.6055312 0.768095 0.2082356 192 192 192 255 0.041539 0.660335
499.998 -11.26864 256.9512 0.9097697 0.4148884 -0.01366542 192 192 192 255 0.232666 0.635146
499.918 -9.348929 226.8564 0.9930248 0.1176903 0.007128642 192 192 192 255 0.232636 0.646728
237.3604 -0.005758 465.2051 -0.004790541 0.9981269 0.06098917 192 192 192 255 0.131761 0.555003
86.25586 -0.006939 354.8398 -0.05122033 0.9986874 0.0002940918 192 192 192 255 0.073707 0.597475
59.9502 0.601069 116.1074 0.101266 0.9921921 0.07280041 192 192 192 255 0.0636 0.689348
61.44141 -1.994828 376.7344 -0.1912668 0.9748576 0.1143231 192 192 192 255 0.064173 0.58905
438.3789 -22.78802 499.4082 -0.0009329062 -0.7470999 0.6647111 192 192 192 255 0.208992 0.54184
0.213867 -22.61389 499.8223 -0.4895975 -0.6336504 0.5989838 192 192 192 255 0.04065 0.541681
470.9736 -0.113786 347.542 0.006682864 0.999952 -0.007181499 192 192 192 255 0.221515 0.600284
77.63965 0.478045 88.50195 -0.05025247 0.998054 0.03691736 192 192 192 255 0.070397 0.699972
263.7139 4.00996 405.0059 0.02275336 0.9985465 0.04885994 192 192 192 255 0.12553 0.804528
183.4199 4.007504 124.9385 0.003178451 0.9999835 -0.00478881 192 192 192 255 0.088951 0.932116
499.7568 -22.75605 0.092773 0.5790662 -0.5703226 -0.5825929 192 192 192 255 0.232574 0.733995
231.7617 0.257478 438.4541 0.0005789889 0.9810861 0.1935708 192 192 192 255 0.12961 0.565298
395.4424 -0.095826 77.90332 -0.05959703 0.9966595 0.05584121 192 192 192 255 0.192496 0.70405
472.125 -0.154944 156.4766 -0.0006677671 0.9999681 0.007965257 192 192 192 255 0.221958 0.673813
484.6924 -1.769493 247.2344 0.2626659 0.9646721 0.02035675 192 192 192 255 0.226786 0.638886
499.7871 0.006261 163.9033 0.697118 0.7162783 0.0311756 192 192 192 255 0.232585 0.670955
92.50977 0.064102 333.8066 -0.1919096 0.9803395 0.04588162 192 192 192 255 0.07611 0.60557
105.3994 4.010163 335.5801 -0.1353793 0.9903453 0.02981315 192 192 192 255 0.053407 0.836155
496.2451 -0.338313 77.21582 0.6016817 0.7982523 0.02779105 192 192 192 255 0.231225 0.704315
116.4043 3.08335 44.02246 0.06373954 0.9976608 -0.02470561 192 192 192 255 0.058421 0.968978
217.5723 7.517601 326.6836 -0.1838229 0.9372805 0.2961663 192 192 192 255 0.104509 0.840208
120.2227 3.609668 374.8936 -0.1286229 0.9846959 0.1176015 192 192 192 255 0.06016 0.818246
126.5684 3.794079 119.4688 -0.1292907 0.9766229 -0.1717312 192 192 192 255 0.063051 0.934608
72.50195 -0.076016 0.095703 -0.1523155 0.714025 -0.6833509 192 192 192 255 0.068423 0.733994
290.9336 -1.2972 500.0059 -0.03900464 0.4829608 0.8747728 192 192 192 255 0.152344 0.54161
429.2236 3.904258 323.6641 0.2173399 0.9723816 0.08507355 192 192 192 255 0.205475 0.609473
416.5967 3.757382 236.2051 0.04125592 0.9948035 0.09308054 192 192 192 255 0.195178 0.881427
340.043 7.479869 251.7383 0.1552075 0.9871655 -0.03761616 192 192 192 255 0.160303 0.874351
0.083008 -0.134754 179.3701 -0.7015236 0.7117911 0.03490254 192 192 192 255 0.040599 0.665002
190.6338 7.517561 301.3691 -0.02981836 0.9975031 0.06401967 192 192 192 255 0.092237 0.851741
335.5352 4.017558 84.01855 0.1484244 0.9861761 -0.07366796 192 192 192 255 0.158249 0.950758
427.6172 4.014912 175.4727 0.1824665 0.9778412 -0.1026285 192 192 192 255 0.200198 0.909094
345.5127 5.257598 238.3018 0.1068796 0.9923526 -0.06175092 192 192 192 255 0.162795 0.880472
499.75 -0.120588 315.1104 0.705197 0.7085285 -0.02616501 192 192 192 255 0.232571 0.612765
230.4717 3.946246 429.0518 0.01157136 0.9829829 0.1833323 192 192 192 255 0.129115 0.568916
267.0137 -1.399126 443.707 -0.004475513 0.9957511 -0.09197628 192 192 192 255 0.143154 0.563276
475.7656 -0.96818 9.224609 -0.03587897 0.952774 -0.3015533 192 192 192 255 0.223356 0.73048
14.43066 -2.412944 254.9336 -0.2481677 0.9667227 -0.0621288 192 192 192 255 0.046112 0.635923
333.9375 2.898527 178.9541 0.05907195 0.9964945 0.05923847 192 192 192 255 0.168866 0.665163
473.1885 -0.951003 497.3926 0.03589581 0.815331 0.5778813 192 192 192 255 0.222366 0.542616
40.58789 2.92919 44.07812 -0.08187678 0.9942408 -0.06914926 192 192 192 255 0.023881 0.968953
54.9502 1.329006 95.96289 0.1841712 0.9788669 0.08888507 192 192 192 255 0.061679 0.697101
84.6875 1.363102 86.83301 0.04024702 0.9939503 0.1021913 192 192 192 255 0.073104 0.700614
274.5039 0.189532 423.1631 0.003623564 0.9887694 0.149406 192 192 192 255 0.146032 0.571182
0.115234 -22.81484 98.88965 -0.7140642 -0.7000802 0.0001770731 192 192 192 255 0.040612 0.695974
491.3936 -0.82717 276.6123 0.3866038 0.9193444 -0.07309943 192 192 192 255 0.229361 0.62758
499.7891 -22.78706 247.4229 0.7268256 -0.6868188 -0.002098832 192 192 192 255 0.232586 0.638813
108.4307 3.740388 137.375 -0.1974749 0.9711935 -0.1333676 192 192 192 255 0.054788 0.92645
57.59082 -8.506239 1.621094 -0.1369658 0.4883187 -0.8618499 192 192 192 255 0.062694 0.733407
293.4922 5.639077 199.5254 0.05489179 0.9981614 0.02570189 192 192 192 255 0.139096 0.898137
159.9414 7.475281 287.3906 -0.1352254 0.9889304 0.06108059 192 192 192 255 0.078255 0.858109
285.0068 -0.026221 59.64355 -0.005025808 0.9874542 -0.1578254 192 192 192 255 0.150067 0.711077
52.70605 0.80509 395.0898 0.03667621 0.9865414 -0.1593454 192 192 192 255 0.060817 0.581986
499.7852 -22.78678 499.4932 0.5952767 -0.5771132 0.5590941 192 192 192 255 0.232585 0.541808
253.1641 -6.395293 498.6602 -0.03720096 0.709995 0.7032235 192 192 192 255 0.137833 0.542128
427.5107 4.010932 303.0107 0.1379024 0.9889644 -0.05415062 192 192 192 255 0.204817 0.617421
0.052734 -12.93519 0.238281 -0.6749494 0.3178584 -0.6658899 192 192 192 255 0.040588 0.733939
249 7.517869 327.2119 -0.02590208 0.9978037 0.06096625 192 192 192 255 0.118827 0.839968
174.0928 4.88092 315.1914 -0.1073161 0.984103 0.1415083 192 192 192 255 0.084702 0.845444
371.5615 -0.000918 98.14453 -0.05548128 0.9976929 0.0391246 192 192 192 255 0.183321 0.696261
289.3008 0.042752 497.9297 -0.1022436 0.9365578 0.3352699 192 192 192 255 0.151717 0.542409
156.9561 -0.005096 471.6641 0.007088689 0.999919 0.01057188 192 192 192 255 0.10087 0.552517
182.4785 -7.689109 497.6211 0.07551818 0.9267994 0.3678858 192 192 192 255 0.110676 0.542528
456.999 2.969185 118.2783 0.03195418 0.9978722 0.0568331 192 192 192 255 0.216146 0.688513
328.3584 -0.001933 59.92578 0.04646073 0.9930794 -0.1078642 192 192 192 255 0.166723 0.710969
258.335 3.586957 418.2441 0.09944927 0.983934 0.1482691 192 192 192 255 0.123079 0.798497
498.1064 -0.921951 216.8389 0.6658451 0.7457951 -0.02097904 192 192 192 255 0.23194 0.650583
16.41699 0.017159 272.1719 -0.141593 0.9883177 -0.05638857 192 192 192 255 0.046875 0.629289
11.43457 -1.459463 212.3027 -0.1691774 0.9781015 0.1212293 192 192 192 255 0.044961 0.652329
1.292969 -3.024597 21.7832 -0.7289448 0.6751334 -0.1132887 192 192 192 255 0.041064 0.725647
9.069336 -3.729437 224.8408 -0.2474911 0.967954 0.0425817 192 192 192 255 0.044052 0.647504
272.0996 6.834765 186.8535 0.03230153 0.999478 -0.0005987729 192 192 192 255 0.12935 0.90391
56.84766 -0.001185 365.2393 -0.1155475 0.9855821 0.123599 192 192 192 255 0.062408 0.593473
389.2354 0.232602 122.9707 0.1012455 0.9884673 -0.1126135 192 192 192 255 0.190112 0.686707
256.5889 -8.746561 2.517578 0.1720996 0.8436277 -0.5086002 192 192 192 255 0.139149 0.733062
499.9951 -13.92525 78.16992 0.9937738 0.1108605 0.01111663 192 192 192 255 0.232665 0.703948
0.250977 -0.117728 297.3857 -0.7056708 0.707621 -0.0360725 192 192 192 255 0.040664 0.619586
458.8584 2.986779 381.1934 0.05178318 0.9968889 -0.05942227 192 192 192 255 0.216861 0.587334
410.252 3.072629 42.08008 0.01807712 0.9942237 -0.1057953 192 192 192 255 0.192287 0.969863
193.3154 3.93819 83.73047 -0.1039761 0.9891871 -0.103431 192 192 192 255 0.093459 0.950889
495.4492 -22.90051 494.6885 0.009680675 -0.9999133 0.008926037 192 192 192 255 0.230919 0.543657
30.20801 -22.80431 0.054688 0.001194455 -0.6772449 -0.7357568 192 192 192 255 0.052173 0.734009
178.3721 -22.82442 0.078125 -0.0003558974 -0.7002252 -0.713922 192 192 192 255 0.109098 0.734
405.252 0.02528 362.2207 0.1420813 0.9803545 0.1368136 192 192 192 255 0.196265 0.594635
23.42285 -3.151306 4.099609 -0.09812144 0.6863328 -0.7206383 192 192 192 255 0.049566 0.732453
415.918 3.637587 296.916 0.0480944 0.9938774 -0.09947179 192 192 192 255 0.200363 0.619767
299.9785 5.305897 231.8027 0.03852241 0.9992415 -0.005687697 192 192 192 255 0.142051 0.883433
493.0586 -0.2876 432.3945 0.3145212 0.9492486 -0.001906289 192 192 192 255 0.23 0.56763
343.0703 0.001389 75.73047 0.1265563 0.9851804 -0.1157717 192 192 192 255 0.172375 0.704887
82.18164 1.103365 316.8975 -0.08650279 0.9913778 0.09842447 192 192 192 255 0.072142 0.612077
0.054688 -6.447989 198.8027 -0.960517 0.2756353 0.03784564 192 192 192 255 0.040588 0.657524
416.4316 -0.097479 0.110352 0.007995783 0.7100268 -0.7041292 192 192 192 255 0.20056 0.733988
441.4902 -0.001063 178.4766 0.118617 0.9924542 -0.03106191 192 192 192 255 0.210188 0.665346
331.0361 6.347371 234.0898 0.04538674 0.992588 -0.1127345 192 192 192 255 0.156199 0.882391
373.1465 -0.002976 395.8223 0.1107674 0.9877719 0.1097146 192 192 192 255 0.18393 0.581704
408.5381 2.496815 444.2139 -0.01553676 0.9986178 -0.05021163 192 192 192 255 0.191507 0.786666
175.6748 3.795809 429.5908 -0.08068466 0.980538 0.1789839 192 192 192 255 0.108062 0.568709
323.9287 4.014651 427.0645 0.07992425 0.9795167 0.1848218 192 192 192 255 0.165021 0.569681
304.6709 3.999143 428.8037 -0.04940962 0.9780152 0.2025957 192 192 192 255 0.157622 0.569011
40.58789 2.92919 44.07812 -0.08187678 0.9942408 -0.06914926 192 192 192 255 0.056161 0.717068
116.4043 3.08335 44.02246 0.06373954 0.9976608 -0.02470561 192 192 192 255 0.08529 0.717089
120.2227 3.609668 374.8936 -0.1286229 0.9846959 0.1176015 192 192 192 255 0.086757 0.589758
427.6172 4.014912 175.4727 0.1824665 0.9778412 -0.1026285 192 192 192 255 0.204858 0.666502
429.0088 3.931439 227.0283 0.1899855 0.9782751 0.08296601 192 192 192 255 0.205392 0.646662
416.5967 3.757382 236.2051 0.04125592 0.9948035 0.09308054 192 192 192 255 0.200624 0.64313
230.4717 3.946246 429.0518 0.01157136 0.9829829 0.1833323 192 192 192 255 0.110386 0.793573
458.8584 2.986779 381.1934 0.05178318 0.9968889 -0.05942227 192 192 192 255 0.214431 0.815376
437.79 3.071311 415.8389 -0.04134493 0.9986798 -0.03048605 192 192 192 255 0.204833 0.799593
383.4355 3.071119 456.1387 -0.05983902 0.9978682 0.02604382 192 192 192 255 0.180071 0.781234
105.3994 4.010163 335.5801 -0.1353793 0.9903453 0.02981315 192 192 192 255 0.081062 0.604887
98.0791 1.525261 353.3154 -0.1558452 0.9874002 0.02744328 192 192 192 255 0.078249 0.598062
427.5107 4.010932 303.0107 0.1379024 0.9889644 -0.05415062 192 192 192 255 0.20015 0.850993
429.2236 3.904258 323.6641 0.2173399 0.9723816 0.08507355 192 192 192 255 0.20093 0.841584
84.6875 1.363102 86.83301 0.04024702 0.9939503 0.1021913 192 192 192 255 0.043972 0.949475
324.459 4.009902 104.0762 0.03413549 0.9993951 -0.006647974 192 192 192 255 0.165224 0.693978
349.0088 4.007726 131.626 0.009467964 0.9993256 -0.03547813 192 192 192 255 0.174657 0.683376
335.5352 4.017558 84.01855 0.1484244 0.9861761 -0.07366796 192 192 192 255 0.16948 0.701697
323.7979 3.962142 71.10352 0.08151168 0.9799153 -0.1819944 192 192 192 255 0.16497 0.706667
54.9502 1.329006 95.96289 0.1841712 0.9788669 0.08888507 192 192 192 255 0.030424 0.945316
408.5381 2.496815 444.2139 -0.01553676 0.9986178 -0.05021163 192 192 192 255 0.197528 0.563081
93.77051 4.006485 294.7656 -0.03315267 0.9986735 0.03939815 192 192 192 255 0.04811 0.854749
359.0742 4.012814 204.4131 -0.04890123 0.9987575 -0.009598257 192 192 192 255 0.178524 0.655365
333.9375 2.898527 178.9541 0.05907195 0.9964945 0.05923847 192 192 192 255 0.157521 0.907508
384.542 3.081672 42.03906 -0.06245475 0.9976034 -0.02978086 192 192 192 255 0.180575 0.969882
456.999 2.969185 118.2783 0.03195418 0.9978722 0.0568331 192 192 192 255 0.213584 0.93515
410.252 3.072629 42.08008 0.01807712 0.9942237 -0.1057953 192 192 192 255 0.198186 0.717836
70.49512 3.792856 177.8467 -0.1944458 0.9782673 -0.07200053 192 192 192 255 0.037506 0.908013
103.9414 4.010147 172.0381 -0.0141659 0.9996068 -0.02419838 192 192 192 255 0.080502 0.667824
414.7275 2.145817 265.0469 0.09917454 0.9949845 -0.01304647 192 192 192 255 0.199906 0.632031
158.9355 4.010635 101.9717 -0.07412873 0.9757918 -0.2057557 192 192 192 255 0.10163 0.694788
126.5684 3.794079 119.4688 -0.1292907 0.9766229 -0.1717312 192 192 192 255 0.089195 0.688055
321.4326 3.170901 206.8398 0.1045782 0.9939317 -0.03410429 192 192 192 255 0.164062 0.654431
419.6504 1.502079 278.3047 0.2611782 0.9636385 -0.05645164 192 192 192 255 0.196569 0.862248
415.918 3.637587 296.916 0.0480944 0.9938774 -0.09947179 192 192 192 255 0.194869 0.853769
40.67676 2.936355 119.7188 -0.06100811 0.99678 0.05203601 192 192 192 255 0.023922 0.934494
458.4453 3.080531 456.2441 0.07601089 0.994402 0.07339732 192 192 192 255 0.216702 0.558451
396.1826 2.812567 440.7168 0.02102595 0.9814247 -0.1906922 192 192 192 255 0.185878 0.788259
108.4307 3.740388 137.375 -0.1974749 0.9711935 -0.1333676 192 192 192 255 0.082226 0.681164
193.3154 3.93819 83.73047 -0.1039761 0.9891871 -0.103431 192 192 192 255 0.114839 0.701808
72.50391 4.024399 287.4482 -0.1643732 0.9853249 0.0460044 192 192 192 255 0.038421 0.858083
284.5156 4.00998 408.1963 -0.03779509 0.9959644 0.0814027 192 192 192 255 0.149878 0.576942
263.7139 4.00996 405.0059 0.02275336 0.9985465 0.04885994 192 192 192 255 0.141886 0.57817
422.3975 2.520776 422.4277 -0.06988169 0.9954396 -0.06493565 192 192 192 255 0.19782 0.796591
74.62793 3.07299 70.0752 0.01995678 0.9985225 0.05054392 192 192 192 255 0.069239 0.707063
45.3584 3.092613 406.2236 -0.05026064 0.9965257 -0.06641191 192 192 192 255 0.026055 0.803973
44.71191 3.083042 457.998 -0.07006375 0.9948447 0.07331552 192 192 192 255 0.02576 0.780387
115.2461 3.004733 459.1221 0.04291978 0.9976611 0.05319948 192 192 192 255 0.057893 0.779874
230.4082 3.95585 71.06348 -0.04710009 0.9753394 -0.215626 192 192 192 255 0.12909 0.706683
177.2119 3.263135 106.9697 -0.01056116 0.9975401 -0.06929771 192 192 192 255 0.086123 0.940302
368.0479 4.009344 125.5488 0.04805961 0.9932406 -0.1056574 192 192 192 255 0.181971 0.685715
345.5127 5.257598 238.3018 0.1068796 0.9923526 -0.06175092 192 192 192 255 0.173313 0.642323
72.39062 4.012901 229.1436 -0.1507538 0.9885671 0.002922237 192 192 192 255 0.06838 0.645848
331.0361 6.347371 234.0898 0.04538674 0.992588 -0.1127345 192 192 192 255 0.167751 0.643944
82.75195 3.712426 162.9043 -0.1401164 0.9762396 -0.1652987 192 192 192 255 0.04309 0.91482
77.37207 2.853632 417.7129 0.05805018 0.9949201 -0.08224462 192 192 192 255 0.040639 0.798739
52.70605 0.80509 395.0898 0.03667621 0.9865414 -0.1593454 192 192 192 255 0.029402 0.809045
435.6982 3.074427 56.0459 0.0482079 0.9963096 -0.07101612 192 192 192 255 0.20388 0.963501
258.335 3.586957 418.2441 0.09944927 0.983934 0.1482691 192 192 192 255 0.13982 0.573075
3 116 216 288 
3 66 226 263 
3 146 286 109 
3 128 109 286 
3 204 170 252 
3 130 77 57 
3 166 108 163 
3 190 66 263 
3 239 38 170 
3 143 230 51 
3 176 25 267 
3 53 296 250 
3 157 30 155 
3 63 43 16 
3 60 135 125 
3 252 205 204 
3 99 80 138 
3 217 100 267 
3 54 193 12 
3 12 298 71 
3 11 3 168 
3 206 5 89 
3 214 124 135 
3 32 9 167 
3 302 217 240 
3 60 8 122 
3 60 223 227 
3 256 4 60 
3 59 288 229 
3 70 9 32 
3 163 72 257 
3 195 70 117 
3 141 235 97 
3 12 71 198 
3 54 265 193 
3 54 257 270 
3 13 99 156 
3 138 80 266 
3 288 6 116 
3 223 189 227 
3 285 2 180 
3 215 34 8 
3 237 40 112 
3 300 289 231 
3 198 131 165 
3 236 285 180 
3 237 67 40 
3 297 91 90 
3 4 235 141 
3 215 8 2 
3 2 141 107 
3 197 31 17 
3 196 303 304 
3 67 171 31 
3 31 171 17 
3 273 52 16 
3 130 92 282 
3 217 267 185 
3 88 130 106 
3 174 27 51 
3 212 156 26 
3 138 230 143 
3 195 115 36 
3 111 83 255 
3 33 50 226 
3 186 180 123 
3 233 263 3 
3 9 35 178 
3 178 63 16 
3 195 229 70 
3 140 234 159 
3 29 136 259 
3 141 8 4 
3 8 60 4 
3 50 235 226 
3 6 187 116 
3 297 116 166 
3 246 182 225 
3 9 208 119 
3 305 119 41 
3 159 234 103 
3 70 305 306 
3 70 306 248 
3 166 116 187 
3 108 19 163 
3 196 14 80 
3 227 135 60 
3 307 176 302 
3 28 260 80 
3 69 28 80 
3 80 174 266 
3 236 180 120 
3 54 294 265 
3 101 186 123 
3 10 101 123 
3 148 56 53 
3 273 282 52 
3 282 184 53 
3 293 212 26 
3 8 34 122 
3 163 257 54 
3 91 163 54 
3 3 11 171 
3 153 0 149 
3 298 308 309 
3 232 40 202 
3 71 131 198 
3 71 310 110 
3 209 132 258 
3 82 196 99 
3 196 80 99 
3 48 159 70 
3 48 229 254 
3 162 281 175 
3 129 39 281 
3 263 142 164 
3 117 70 32 
3 167 183 58 
3 228 253 30 
3 103 234 274 
3 214 135 311 
3 217 5 206 
3 201 261 20 
3 201 73 291 
3 37 275 78 
3 267 88 185 
3 106 130 57 
3 165 293 7 
3 29 259 38 
3 7 38 239 
3 221 205 252 
3 221 160 104 
3 161 12 272 
3 79 192 72 
3 212 127 283 
3 212 82 127 
3 165 212 293 
3 283 127 65 
3 312 313 1 
3 147 99 74 
3 147 82 99 
3 1 301 314 
3 102 288 287 
3 245 143 136 
3 156 138 200 
3 99 138 156 
3 52 209 278 
3 88 118 126 
3 161 104 12 
3 164 124 214 
3 60 264 256 
3 155 34 157 
3 315 222 316 
3 214 311 271 
3 176 278 25 
3 57 77 27 
3 111 255 95 
3 4 256 235 
3 256 264 235 
3 141 97 107 
3 107 97 277 
3 20 261 231 
3 317 197 318 
3 317 105 197 
3 149 0 269 
3 208 41 119 
3 225 182 319 
3 247 41 208 
3 2 285 215 
3 208 9 248 
3 247 208 213 
3 186 120 180 
3 137 320 321 
3 117 61 139 
3 199 84 236 
3 322 270 323 
3 239 170 113 
3 152 295 222 
3 229 195 59 
3 192 195 36 
3 131 20 165 
3 102 229 288 
3 48 70 229 
3 217 206 46 
3 14 69 80 
3 238 299 233 
3 150 242 75 
3 167 134 183 
3 167 9 178 
3 52 282 92 
3 49 144 275 
3 182 21 324 
3 246 21 182 
3 68 57 27 
3 28 89 260 
3 3 263 168 
3 162 145 281 
3 74 99 13 
3 147 74 325 
3 116 162 216 
3 272 205 161 
3 22 113 204 
3 112 40 232 
3 326 60 122 
3 245 200 143 
3 64 52 278 
3 295 87 222 
3 292 23 66 
3 66 33 226 
3 97 235 50 
3 165 300 82 
3 212 165 82 
3 204 251 22 
3 130 211 77 
3 230 174 51 
3 266 174 230 
3 1 313 301 
3 35 9 103 
3 202 105 85 
3 148 243 43 
3 254 102 158 
3 171 214 96 
3 244 177 327 
3 328 67 10 
3 284 329 330 
3 153 149 331 
3 111 328 83 
3 72 36 115 
3 30 332 155 
3 333 58 183 
3 178 35 63 
3 201 334 73 
3 335 172 336 
3 242 150 116 
3 23 33 66 
3 152 94 295 
3 76 16 94 
3 151 90 145 
3 224 129 281 
3 59 192 280 
3 83 107 277 
3 83 277 255 
3 217 185 5 
3 281 252 175 
3 39 221 252 
3 244 337 177 
3 39 160 221 
3 145 90 224 
3 125 135 124 
3 166 91 297 
3 272 198 220 
3 32 167 172 
3 260 89 68 
3 65 127 179 
3 202 93 188 
3 164 142 55 
3 148 184 243 
3 90 0 153 
3 133 90 45 
3 171 233 3 
3 233 171 238 
3 61 335 139 
3 62 61 117 
3 150 75 162 
3 87 207 316 
3 295 94 87 
3 49 140 159 
3 140 275 37 
3 168 263 169 
3 241 14 249 
3 204 113 170 
3 47 192 59 
3 46 206 69 
3 154 97 50 
3 202 188 105 
3 259 136 51 
3 26 245 136 
3 272 121 205 
3 22 165 239 
3 251 165 22 
3 75 90 151 
3 208 248 213 
3 132 92 81 
3 52 92 132 
3 92 130 126 
3 184 282 273 
3 35 274 63 
3 218 54 12 
3 91 0 90 
3 264 125 142 
3 338 85 339 
3 157 228 30 
3 148 276 56 
3 243 184 273 
3 166 163 91 
3 43 273 16 
3 43 243 273 
3 263 164 169 
3 11 168 169 
3 234 203 274 
3 131 110 20 
3 15 88 267 
3 191 106 57 
3 84 285 236 
3 19 108 187 
3 294 322 137 
3 90 133 104 
3 207 176 307 
3 255 44 114 
3 268 191 57 
3 268 185 191 
3 61 172 335 
3 172 61 62 
3 21 246 340 
3 21 340 324 
3 53 250 173 
3 151 145 162 
3 121 220 204 
3 207 64 278 
3 29 293 26 
3 145 224 281 
3 38 259 170 
3 63 276 148 
3 212 283 341 
3 341 13 156 
3 268 57 68 
3 144 158 262 
3 159 119 305 
3 11 164 214 
3 262 158 287 
3 342 314 301 
3 336 172 343 
3 171 96 17 
3 300 196 82 
3 241 217 46 
3 132 81 42 
3 258 132 42 
3 110 201 20 
3 117 139 344 
3 42 81 126 
3 110 310 201 
3 12 193 298 
3 298 193 308 
3 117 344 115 
3 267 25 86 
3 339 105 317 
3 108 166 187 
3 18 20 231 
3 231 303 300 
3 265 279 193 
3 274 56 276 
3 343 58 333 
3 122 34 345 
3 251 198 165 
3 296 234 250 
3 19 187 79 
3 292 66 190 
3 98 170 259 
3 94 207 87 
3 346 347 249 
3 313 348 301 
3 237 10 67 
3 207 278 176 
3 59 280 6 
3 288 59 6 
3 104 133 219 
3 218 12 219 
3 5 185 268 
3 144 262 275 
3 191 88 106 
3 185 88 191 
3 54 270 294 
3 195 47 59 
3 95 328 111 
3 115 195 117 
3 349 247 213 
3 248 349 213 
3 266 230 138 
3 155 345 34 
3 27 77 194 
3 26 156 245 
3 133 181 269 
3 222 87 316 
3 257 72 115 
3 219 133 269 
3 218 219 269 
3 90 153 45 
3 88 126 130 
3 42 126 118 
3 350 351 352 
3 192 36 72 
3 137 322 320 
3 272 220 121 
3 122 345 326 
3 290 144 49 
3 125 124 55 
3 115 344 353 
3 285 354 215 
3 174 80 260 
3 232 202 85 
3 23 50 33 
3 60 125 264 
3 128 77 211 
3 79 187 6 
3 280 79 6 
3 279 137 355 
3 56 296 53 
3 175 252 146 
3 269 0 218 
3 249 14 346 
3 356 327 177 
3 238 171 67 
3 254 49 48 
3 282 53 173 
3 18 289 165 
3 123 328 10 
3 142 125 55 
3 71 309 310 
3 71 298 309 
3 207 307 316 
3 250 109 173 
3 288 146 109 
3 339 85 105 
3 70 248 9 
3 162 175 216 
3 146 216 175 
3 216 146 288 
3 179 127 147 
3 179 147 325 
3 19 79 72 
3 40 67 93 
3 233 190 263 
3 93 31 188 
3 51 27 194 
3 341 156 212 
3 116 150 162 
3 75 242 90 
3 204 220 251 
3 220 198 251 
3 300 303 196 
3 165 289 300 
3 70 159 305 
3 56 203 296 
3 69 206 28 
3 94 64 207 
3 255 154 50 
3 255 277 154 
3 180 2 107 
3 83 180 107 
3 242 116 297 
3 134 16 357 
3 156 200 245 
3 62 32 172 
3 144 290 158 
3 177 358 356 
3 177 337 358 
3 127 82 147 
3 115 353 323 
3 257 115 323 
3 159 103 119 
3 9 119 103 
3 43 63 148 
3 129 160 39 
3 129 224 160 
3 296 203 234 
3 98 259 286 
3 173 109 128 
3 286 194 128 
3 128 194 77 
3 22 239 113 
3 47 195 192 
3 24 173 128 
3 117 32 62 
3 176 100 302 
3 176 267 100 
3 192 79 280 
3 167 178 134 
3 170 98 252 
3 146 252 98 
3 286 146 98 
3 153 331 181 
3 63 274 276 
3 209 52 132 
3 95 255 114 
3 89 5 68 
3 30 359 332 
3 193 279 308 
3 308 279 355 
3 304 346 14 
3 25 209 258 
3 360 361 350 
3 86 25 258 
3 12 198 272 
3 37 78 250 
3 299 190 233 
3 265 137 279 
3 51 194 210 
3 286 210 194 
3 160 90 104 
3 270 257 323 
3 239 165 7 
3 355 137 321 
3 200 138 143 
3 152 222 315 
3 310 334 201 
3 201 291 261 
3 274 203 56 
3 254 290 49 
3 290 254 158 
3 44 50 23 
3 362 284 330 
3 174 260 27 
3 95 114 292 
3 95 292 299 
3 105 31 197 
3 140 37 250 
3 100 217 302 
3 215 157 34 
3 24 128 211 
3 282 24 130 
3 130 24 211 
3 124 164 55 
3 255 50 44 
3 218 0 54 
3 289 18 231 
3 75 151 162 
3 286 259 210 
3 259 51 210 
3 86 15 267 
3 68 27 260 
3 347 363 249 
3 354 157 215 
3 206 89 28 
3 275 262 78 
3 78 109 250 
3 121 204 205 
3 35 103 274 
3 142 235 264 
3 360 350 352 
3 104 219 12 
3 363 240 249 
3 237 101 10 
3 136 143 51 
3 221 161 205 
3 81 92 126 
3 171 11 214 
3 16 52 64 
3 94 16 64 
3 45 153 181 
3 234 140 250 
3 76 357 16 
3 221 104 161 
3 29 26 136 
3 91 54 0 
3 7 293 38 
3 48 49 159 
3 45 181 133 
3 15 118 88 
3 46 69 14 
3 241 46 14 
3 262 287 78 
3 78 287 109 
3 131 71 110 
3 5 268 68 
3 83 123 180 
3 123 83 328 
3 93 67 31 
3 226 142 263 
3 293 29 38 
3 114 44 23 
3 114 23 292 
3 60 326 223 
3 49 275 140 
3 158 102 287 
3 40 93 202 
3 152 76 94 
3 265 294 137 
3 224 90 160 
3 282 173 24 
3 141 2 8 
3 277 97 154 
3 281 39 252 
3 249 240 241 
3 217 241 240 
3 188 31 105 
3 304 14 196 
3 165 20 18 
3 254 229 102 
3 278 209 25 
3 178 16 134 
3 226 235 142 
3 287 288 109 
3 184 148 53 
3 322 294 270 
3 242 297 90 
3 299 292 190 
3 164 11 169 
3 172 167 58 
3 172 58 343 
3 19 72 163 
