ply
format ascii 1.0
comment VCGLIB generated
comment TextureFile Dungeons_2_Texture_01_A.png
element vertex 121
property float x
property float y
property float z
property float nx
property float ny
property float nz
property uchar red
property uchar green
property uchar blue
property uchar alpha
property float texture_u
property float texture_v
element face 156
property list uchar int vertex_indices
end_header
131.9853 169.9897 30.54131 0.3628573 0.4406862 0.8210544 192 192 192 255 0.09355 0.815715
199.1015 114.497 30.54131 0.3644429 0.4378082 0.8218913 192 192 192 255 0.119651 0.847283
131.9853 59.00426 30.54131 0.3626409 -0.4409605 0.8210027 192 192 192 255 0.145752 0.815715
1.5e-05 59.00426 30.54131 -0.7071068 -0.4272919 0.5634018 192 192 192 255 0.145752 0.753636
1.5e-05 169.9897 30.54131 -0.7047496 0.3924181 0.5910466 192 192 192 255 0.09355 0.753636
130.2127 155.6806 39.00127 0.0564827 0.2315185 0.9711894 192 192 192 255 0.100281 0.814881
171.3464 121.6706 39.00127 0.2259007 -0.1390353 0.9641774 192 192 192 255 0.116277 0.834228
126.3966 70.15842 39.00078 0.3621248 -0.4391642 0.8221925 192 192 192 255 0.140506 0.813086
1.5e-05 70.15842 39.00078 -0.4665797 -0.2819484 0.8383367 192 192 192 255 0.140506 0.753636
1.5e-05 158.8359 39.00127 -0.4605116 0.2564191 0.8498108 192 192 192 255 0.098797 0.753636
286.2722 107.5233 30.54131 0.6164079 -0.2706857 0.7394394 192 192 192 255 0.09355 0.815715
250.0001 57.30203 30.54131 -0.2316682 -0.4509061 0.8619823 192 192 192 255 0.119651 0.847283
213.7279 107.5233 30.54131 -0.6615301 -0.1410912 0.7365264 192 192 192 255 0.145752 0.815715
213.7279 169.9897 30.54131 -0.495576 0.7013586 0.5123481 192 192 192 255 0.145752 0.753636
286.2722 169.9897 30.54131 0.5356482 0.7071069 0.4616069 192 192 192 255 0.09355 0.753636
278.9816 111.7052 39.00127 0.0009534745 -0.0001798496 0.9999995 192 192 192 255 0.098797 0.813086
248.1973 73.38274 39.00127 0.000220531 -0.0005484245 0.9999998 192 192 192 255 0.120948 0.836661
223.8313 111.7052 39.00078 -0.0008665327 -0.0003630111 0.9999996 192 192 192 255 0.138482 0.810054
221.0186 169.9897 39.00078 -0.3312177 0.4687464 0.8188844 192 192 192 255 0.140506 0.753636
278.9816 169.9897 39.00127 0.3650669 0.4819287 0.7965369 192 192 192 255 0.098797 0.753636
368.5334 59.00426 30.54131 -0.2102344 -0.4449012 0.8705541 192 192 192 255 0.145752 0.926975
301.4173 114.4969 30.54131 -0.3936511 0.1924047 0.898899 192 192 192 255 0.119651 0.895407
368.5334 169.9897 30.54131 -0.1323908 0.5642185 0.8149418 192 192 192 255 0.09355 0.926975
500 169.9897 30.54131 0.7071068 0.4272886 0.5634044 192 192 192 255 0.09355 0.989053
500 59.00426 30.54131 0.7056781 -0.4064697 0.5803454 192 192 192 255 0.145752 0.989053
376.5106 71.9521 39.00127 -6.852057e-05 -0.0003466254 0.9999999 192 192 192 255 0.139662 0.930748
323.808 116.2889 39.00127 -0.0002288906 -6.135482e-05 1 192 192 192 255 0.118808 0.905938
370.2054 158.8354 39.00078 -0.0001759493 0.0003559672 1 192 192 192 255 0.098797 0.927773
500 158.8354 39.00078 0.4665794 0.2819459 0.8383378 192 192 192 255 0.098797 0.989053
500 70.15805 39.00127 0.46286 -0.2666042 0.8453892 192 192 192 255 0.140506 0.989053
87.63457 34.2561 30.54131 0.000171868 -0.0003199885 1 192 192 192 255 0.055341 0.794855
412.3655 34.2561 30.54131 -7.348202e-05 -0.0002167341 1 192 192 192 255 0.088147 0.763484
446.6348 8.083508 30.54131 -6.711988e-05 -0.0001907802 1 192 192 192 255 0.067352 0.963709
56.64629 5.35791 30.54131 3.591776e-05 -9.678229e-05 1 192 192 192 255 0.068934 0.780279
93.00986 27.46191 16.89677 0.2293428 -0.9414138 0.247269 192 192 192 255 0.088743 0.763746
63.04749 0 16.89677 0.3929871 -0.8758907 0.2799582 192 192 192 255 0.088803 0.763802
406.9902 27.46191 16.89677 -0.007683521 -0.9106646 0.413075 192 192 192 255 0.088146 0.763519
436.9525 0 16.89677 -0.3331442 -0.8961915 0.2930116 192 192 192 255 0.088075 0.763529
500 5.35791 30.54131 0.2476437 -0.0004887499 0.9688511 192 192 192 255 0.068934 0.988809
1.5e-05 5.35791 30.54131 -0.2341576 -0.0001940527 0.9721987 192 192 192 255 0.068934 0.753636
1.5e-05 0 16.89677 -0.9999992 -0.001304119 0.0001626366 192 192 192 255 0.088913 0.763843
500 0 16.89677 0.9999942 -0.003260373 0.001016462 192 192 192 255 0.087938 0.763477
500.2594 169.9897 30.54131 0.0283418 -3.204432e-05 0.9995983 192 192 192 255 0.002065 0.988931
1.7e-05 169.9897 30.54131 -0.02823878 2.51202e-05 0.9996012 192 192 192 255 0.002065 0.753636
131.9853 169.9897 -30.54131 0.1900426 0.3957546 -0.8984777 192 192 192 255 0.09355 0.815715
199.1015 114.497 -30.54131 0.3511535 -0.1815114 -0.9185559 192 192 192 255 0.119651 0.847283
131.9853 59.00426 -30.54131 0.1201023 -0.553074 -0.8244299 192 192 192 255 0.145752 0.815715
1.5e-05 59.00426 -30.54131 -0.7071068 -0.4272919 -0.5634018 192 192 192 255 0.145752 0.753636
1.5e-05 169.9897 -30.54131 -0.7027134 0.3608013 -0.6132017 192 192 192 255 0.09355 0.753636
125.41 152.5478 -39.00127 6.961323e-05 0.0003284389 -0.9999999 192 192 192 255 0.101754 0.812622
174.7503 111.7524 -39.00127 0.0002197912 5.508455e-05 -1 192 192 192 255 0.120942 0.835829
126.3966 70.15842 -39.00078 0.0001707253 -0.0003649247 -0.9999999 192 192 192 255 0.140506 0.813086
1.5e-05 70.15842 -39.00078 -0.4665798 -0.2819484 -0.8383367 192 192 192 255 0.140506 0.753636
1.5e-05 158.8359 -39.00127 -0.4556079 0.2339247 -0.8588951 192 192 192 255 0.098797 0.753636
286.2722 107.5233 -30.54131 0.5776218 -0.4150171 -0.7029324 192 192 192 255 0.09355 0.815715
250.0001 57.30203 -30.54131 0.5735821 -0.4176017 -0.7047073 192 192 192 255 0.119651 0.847283
213.7279 107.5233 -30.54131 -0.5790755 -0.4127085 -0.7030955 192 192 192 255 0.145752 0.815715
213.7279 169.9897 -30.54131 -0.5356287 0.7071066 -0.4616298 192 192 192 255 0.145752 0.753636
286.2722 169.9897 -30.54131 0.5356482 0.7071069 -0.4616069 192 192 192 255 0.09355 0.753636
278.9816 111.7052 -39.00127 0.3280676 -0.06532321 -0.942393 192 192 192 255 0.098797 0.813086
256.0543 79.96086 -39.00127 -0.1719643 -0.240906 -0.9551924 192 192 192 255 0.115295 0.83304
221.0186 111.7052 -39.00078 -0.5737399 -0.4115925 -0.708106 192 192 192 255 0.140506 0.813086
221.0186 169.9897 -39.00078 -0.365058 0.4819236 -0.7965441 192 192 192 255 0.140506 0.753636
278.9816 169.9897 -39.00127 0.3650669 0.4819287 -0.7965369 192 192 192 255 0.098797 0.753636
368.5334 59.00426 -30.54131 -0.05744739 -0.3127968 -0.9480812 192 192 192 255 0.145752 0.926974
301.4173 114.4969 -30.54131 -0.4000397 0.1612734 -0.9021969 192 192 192 255 0.119651 0.895407
368.5334 169.9897 -30.54131 -0.1235342 0.5596198 -0.8194907 192 192 192 255 0.09355 0.926975
500 169.9897 -30.54131 0.7071068 0.4272886 -0.5634044 192 192 192 255 0.09355 0.989053
500 59.00426 -30.54131 0.7071068 -0.4273165 -0.5633832 192 192 192 255 0.145752 0.989053
320.4962 114.4969 -39.00127 -0.236587 -0.09538228 -0.9669172 192 192 192 255 0.119651 0.904381
374.1222 158.8354 -39.00078 -0.1536826 0.3134587 -0.9370834 192 192 192 255 0.098797 0.929603
500 158.8354 -39.00078 0.0003173726 0.0001972859 -0.9999999 192 192 192 255 0.098797 0.989053
500 70.15805 -39.00127 0.0001587568 -9.043381e-05 -1 192 192 192 255 0.140506 0.989053
87.63457 34.2561 -30.54131 0.0001748651 -0.0003134305 -0.9999999 192 192 192 255 0.055341 0.794855
412.3655 34.2561 -30.54131 -1.334382e-05 -6.01305e-05 -1 192 192 192 255 0.088147 0.763484
445.8156 9.314882 -30.54131 -6.771312e-05 -0.0001893138 -1 192 192 192 255 0.066833 0.963324
56.64629 5.35791 -30.54131 3.591776e-05 -9.678229e-05 -1 192 192 192 255 0.068934 0.780279
93.00986 27.46191 -16.89677 0.3638064 -0.8880355 -0.2811366 192 192 192 255 0.088743 0.763746
63.04749 0 -16.89677 0.2867396 -0.9162685 -0.2797006 192 192 192 255 0.088803 0.763802
406.9902 27.46191 -16.89677 -0.3731936 -0.8446198 -0.3838542 192 192 192 255 0.088146 0.763519
436.9525 0 -16.89677 -0.3474943 -0.9154302 -0.2030646 192 192 192 255 0.088075 0.763529
500 5.35791 -30.54131 0.2441156 -0.0004798773 -0.9697461 192 192 192 255 0.068934 0.988809
1.5e-05 5.35791 -30.54131 -0.2341576 -0.0001940527 -0.9721987 192 192 192 255 0.068934 0.753636
1.5e-05 0 -16.89677 -0.9999997 -0.0008587643 -0.0001625643 192 192 192 255 0.088913 0.763843
500 0 -16.89677 0.9999955 -0.002800538 -0.001046347 192 192 192 255 0.087938 0.763477
500.2594 169.9897 -30.54131 0.04693003 -3.219578e-05 -0.9988982 192 192 192 255 0.002065 0.988931
1.7e-05 169.9897 -30.54131 -0.138537 6.1647e-05 -0.9903573 192 192 192 255 0.002065 0.753636
152.9541 92.1165 39.00102 0.2814287 -0.2563324 0.9247116 192 192 192 255 0.130178 0.825578
194.727 114.497 32.48101 0.2715824 0.00884468 0.9623746 192 192 192 255 0.119651 0.845225
250.0001 62.13615 -33.40595 0.05082152 -0.3156886 -0.9475009 192 192 192 255 0.119651 0.844244
230.5959 98.44475 -39.00094 -0.2804821 -0.2904684 -0.9148541 192 192 192 255 0.133614 0.821422
177.4425 37.79307 -30.54131 1.252156e-06 -8.068185e-05 -1 192 192 192 255 0.053953 0.837096
179.6606 27.46191 -14.22909 0.0008715855 -0.9752972 -0.2208953 192 192 192 255 0.088578 0.763684
225.1896 27.46191 14.22909 -0.003591127 -0.9158614 0.4014786 192 192 192 255 0.088491 0.763651
329.0026 43.01533 30.54131 0 -0.02114185 0.9997765 192 192 192 255 0.051903 0.908381
269.6322 30.73155 22.07918 -0.001863373 -0.7702783 0.6377053 192 192 192 255 0.088412 0.763604
201.3816 34.2561 30.54131 0.03019929 -0.8121568 0.5826572 192 192 192 255 0.088548 0.763638
365.1484 34.2561 30.54131 -0.07286175 -0.3024099 0.9503891 192 192 192 255 0.055341 0.925382
358.5419 83.04013 -39.00127 -0.02516124 -0.3407927 -0.9398018 192 192 192 255 0.134447 0.922275
389.933 80.7615 -39.00121 -0.05703708 -0.3118601 -0.9484145 192 192 192 255 0.135519 0.937075
428.9769 70.15805 -39.00127 -0.01214677 -0.04488482 -0.9989183 192 192 192 255 0.140506 0.95551
87.63457 34.2561 30.54131 0.000171868 -0.0003199885 1 192 192 192 255 0.088764 0.763721
56.64629 5.35791 30.54131 3.591776e-05 -9.678229e-05 1 192 192 192 255 0.088827 0.763779
446.6348 8.083508 30.54131 -6.711988e-05 -0.0001907802 1 192 192 192 255 0.088067 0.763487
500 5.35791 30.54131 0.2476437 -0.0004887499 0.9688511 192 192 192 255 0.087949 0.763446
1.5e-05 5.35791 30.54131 -0.2341576 -0.0001940527 0.9721987 192 192 192 255 0.088926 0.763817
412.3655 34.2561 30.54131 -7.348202e-05 -0.0002167341 1 192 192 192 255 0.055341 0.947591
201.3816 34.2561 30.54131 0.03019929 -0.8121568 0.5826572 192 192 192 255 0.055341 0.848355
500 0 16.89677 0.9999942 -0.003260373 0.001016462 192 192 192 255 0.071454 0.988809
500 0 -16.89677 0.9999955 -0.002800538 -0.001046347 192 192 192 255 0.071454 0.988809
87.63457 34.2561 -30.54131 0.0001748651 -0.0003134305 -0.9999999 192 192 192 255 0.088764 0.763721
56.64629 5.35791 -30.54131 3.591776e-05 -9.678229e-05 -1 192 192 192 255 0.088827 0.763779
445.8156 9.314882 -30.54131 -6.771312e-05 -0.0001893138 -1 192 192 192 255 0.088069 0.763486
500 5.35791 -30.54131 0.2441156 -0.0004798773 -0.9697461 192 192 192 255 0.087949 0.763446
1.5e-05 5.35791 -30.54131 -0.2341576 -0.0001940527 -0.9721987 192 192 192 255 0.088926 0.763817
412.3655 34.2561 -30.54131 -1.334382e-05 -6.01305e-05 -1 192 192 192 255 0.055341 0.947591
177.4425 37.79307 -30.54131 1.252156e-06 -8.068185e-05 -1 192 192 192 255 0.088599 0.76364
1.5e-05 0 -16.89677 -0.9999997 -0.0008587643 -0.0001625643 192 192 192 255 0.071454 0.753636
1.5e-05 0 16.89677 -0.9999992 -0.001304119 0.0001626366 192 192 192 255 0.071454 0.753636
365.1484 34.2561 30.54131 -0.07286175 -0.3024099 0.9503891 192 192 192 255 0.088236 0.763519
329.0026 43.01533 30.54131 0 -0.02114185 0.9997765 192 192 192 255 0.088307 0.763539
3 5 9 8 
3 5 8 7 
3 87 88 6 
3 2 7 8 
3 2 8 3 
3 4 9 5 
3 4 5 0 
3 8 9 4 
3 8 4 3 
3 15 17 16 
3 15 19 18 
3 15 18 17 
3 10 15 16 
3 10 16 11 
3 11 16 17 
3 11 17 12 
3 12 17 18 
3 12 18 13 
3 14 19 15 
3 14 15 10 
3 18 19 14 
3 18 14 13 
3 25 27 26 
3 25 29 28 
3 25 28 27 
3 20 25 26 
3 20 26 21 
3 21 26 27 
3 21 27 22 
3 22 27 28 
3 22 28 23 
3 24 29 25 
3 24 25 20 
3 28 29 24 
3 28 24 23 
3 32 38 42 
3 43 33 30 
3 101 102 35 
3 101 35 34 
3 95 96 93 
3 34 93 96 
3 34 96 101 
3 103 31 36 
3 103 36 37 
3 39 33 43 
3 103 37 41 
3 103 41 104 
3 35 102 105 
3 35 105 40 
3 32 42 106 
3 43 94 42 
3 42 94 97 
3 42 97 106 
3 107 94 43 
3 107 43 30 
3 85 86 43 
3 85 43 42 
3 41 37 80 
3 41 80 84 
3 49 50 51 
3 49 51 52 
3 49 52 53 
3 44 45 50 
3 44 50 49 
3 45 46 51 
3 45 51 50 
3 46 47 52 
3 46 52 51 
3 48 44 49 
3 48 49 53 
3 52 47 48 
3 52 48 53 
3 59 61 62 
3 59 62 63 
3 89 90 60 
3 56 57 62 
3 56 62 61 
3 58 54 59 
3 58 59 63 
3 62 57 58 
3 62 58 63 
3 64 98 99 
3 64 99 100 
3 65 66 70 
3 65 70 69 
3 66 67 71 
3 66 71 70 
3 71 67 68 
3 71 68 72 
3 108 109 85 
3 108 85 42 
3 75 85 81 
3 86 73 76 
3 110 77 78 
3 110 78 111 
3 112 80 79 
3 112 79 74 
3 82 86 76 
3 112 113 84 
3 112 84 80 
3 78 83 114 
3 78 114 111 
3 75 115 85 
3 73 86 85 
3 73 85 91 
3 115 91 85 
3 77 110 116 
3 77 116 92 
3 43 86 117 
3 43 117 118 
3 35 78 77 
3 35 77 34 
3 36 79 80 
3 36 80 37 
3 40 83 78 
3 40 78 35 
3 92 93 34 
3 92 34 77 
3 43 118 39 
3 117 86 82 
3 81 85 109 
3 38 108 42 
3 2 1 88 
3 2 88 87 
3 87 7 2 
3 1 0 88 
3 6 88 0 
3 6 0 5 
3 5 7 87 
3 5 87 6 
3 89 55 56 
3 89 56 90 
3 61 90 56 
3 59 60 90 
3 59 90 61 
3 55 89 54 
3 54 89 60 
3 54 60 59 
3 92 116 74 
3 92 74 79 
3 36 93 92 
3 36 92 79 
3 93 36 95 
3 119 95 36 
3 119 36 31 
3 96 95 120 
3 95 119 120 
3 64 65 69 
3 64 69 98 
3 99 98 69 
3 99 69 70 
3 99 70 71 
3 99 71 100 
3 100 71 72 
3 68 64 100 
3 68 100 72 
