ply
format ascii 1.0
comment VCGLIB generated
comment TextureFile Dungeons_2_Texture_01_A.png
element vertex 307
property float x
property float y
property float z
property float nx
property float ny
property float nz
property uchar red
property uchar green
property uchar blue
property uchar alpha
property float texture_u
property float texture_v
element face 334
property list uchar int vertex_indices
end_header
96.51788 -1.304375 17.92995 0.006994296 0.3723233 -0.9280767 192 192 192 255 0.112977 0.302998
96.51788 -9.023308 17.92995 -0.01522441 -0.7431456 -0.6689565 192 192 192 255 0.112977 0.302998
96.51788 -10.50665 22.84821 -0.02003999 -0.9904378 0.1364968 192 192 192 255 0.112977 0.302998
96.51788 -8.856194 27.76645 -0.007361456 -0.3661384 0.9305313 192 192 192 255 0.112977 0.302998
96.51788 -1.388603 27.76645 0.01351964 0.733585 0.6794632 192 192 192 255 0.112977 0.302998
96.51788 0.85157 22.84821 0.01854395 0.9933704 -0.1134525 192 192 192 255 0.112977 0.302998
-97.90192 -1.513481 17.92995 -0.02337052 0.7475473 -0.6637973 192 192 192 255 0.112977 0.302998
-97.90179 -8.81414 17.92995 0.009760309 -0.3731176 -0.9277328 192 192 192 255 0.112977 0.302998
-97.90179 -10.19897 22.84821 0.02581801 -0.9933214 -0.1124554 192 192 192 255 0.112977 0.302998
-97.90179 -8.653862 27.76645 0.01887419 -0.7356854 0.6770604 192 192 192 255 0.112977 0.302998
-97.90192 -1.590935 27.76645 -0.01130629 0.3684056 0.9295964 192 192 192 255 0.112977 0.302998
-97.90192 0.543892 22.84821 -0.03059299 0.9906534 0.1329285 192 192 192 255 0.112977 0.302998
-18.33807 -6.346733 17.92997 0.006103628 -0.5740148 -0.8188221 192 192 192 255 0.112977 0.302998
-17.76782 -8.488945 22.84821 0.002728259 -0.999949 0.009721398 192 192 192 255 0.112977 0.302998
-18.33807 -6.266777 27.76647 -0.002722671 -0.5641978 0.8256351 192 192 192 255 0.112977 0.302998
-19.47858 1.073433 27.76647 -0.00811973 0.5661377 0.8242707 192 192 192 255 0.112977 0.302998
-20.04883 2.675545 22.84821 -0.006322515 0.9999059 0.01217527 192 192 192 255 0.112977 0.302998
-19.47858 1.240547 17.92997 0.001195123 0.5743619 -0.8186007 192 192 192 255 0.112977 0.302998
-58.54297 -48.46199 24.09549 0.3762091 -0.007279645 -0.9265062 192 192 192 255 0.112977 0.302998
-66.43915 -48.46199 24.09549 -0.7508062 0.01866906 -0.6602588 192 192 192 255 0.112977 0.302998
-68.05029 -48.46199 29.01375 -0.9925596 0.02461112 0.119247 192 192 192 255 0.112977 0.302998
-66.40674 -48.46199 33.932 -0.3741356 0.009263554 0.9273278 192 192 192 255 0.112977 0.302998
-58.56903 -48.46199 33.932 0.7498392 -0.01444545 0.6614624 192 192 192 255 0.112977 0.302998
-56.69208 -48.46199 29.01375 0.9934208 -0.01919501 -0.1129006 192 192 192 255 0.112977 0.302998
-58.7569 38.56775 24.09549 0.7543389 0.01430959 -0.6563294 192 192 192 255 0.112977 0.302998
-66.22522 35.32582 24.09549 -0.3766561 -0.004828554 -0.9263406 192 192 192 255 0.112977 0.302998
-67.74261 33.70486 29.01375 -0.9935861 -0.01271678 -0.1123612 192 192 192 255 0.112977 0.302998
-66.1944 35.32582 33.932 -0.7508528 -0.009579851 0.6604002 192 192 192 255 0.112977 0.302998
-58.78137 38.56775 33.932 0.3759191 0.00710227 0.9266253 192 192 192 255 0.112977 0.302998
-56.99976 40.18871 29.01375 0.9929987 0.01878582 0.1166224 192 192 192 255 0.112977 0.302998
-65.45068 -13.0599 24.09551 -0.5800756 -0.0001584769 -0.8145626 192 192 192 255 0.112977 0.302998
-67.29089 -13.57011 29.01375 -0.9999804 0.006013114 0.001753632 192 192 192 255 0.112977 0.302998
-65.4256 -13.0599 33.93201 -0.5772772 0.007064659 0.8165177 192 192 192 255 0.112977 0.302998
-57.72156 -12.03948 33.93201 0.5789839 0.003581281 0.8153312 192 192 192 255 0.112977 0.302998
-56.1264 -11.52927 29.01375 0.9999946 -0.0001554544 0.003285036 192 192 192 255 0.112977 0.302998
-57.68915 -12.03948 24.09551 0.5805658 -0.003811851 -0.8142045 192 192 192 255 0.112977 0.302998
62.84778 -48.46199 25.18351 0.3939739 -0.01116801 -0.9190538 192 192 192 255 0.112977 0.302998
55.90216 -48.46199 25.18351 -0.7848333 0.03025023 -0.6189682 192 192 192 255 0.112977 0.302998
55.23853 -48.46199 29.09793 -0.9908904 0.03471227 0.1301206 192 192 192 255 0.112977 0.302998
56.24731 -48.46199 33.01235 -0.3784668 0.01073327 0.9255526 192 192 192 255 0.112977 0.302998
62.66846 -48.46199 33.01235 0.7586266 -0.02671277 0.6509778 192 192 192 255 0.112977 0.302998
64.2785 -48.46199 29.09793 0.997122 -0.03372099 -0.06790216 192 192 192 255 0.112977 0.302998
62.59698 33.00616 25.18351 0.8004445 0.0553004 -0.5968505 192 192 192 255 0.112977 0.302998
56.15295 36.73163 25.18351 -0.3992777 -0.02437371 -0.9165061 192 192 192 255 0.112977 0.302998
55.56494 38.59436 29.09793 -0.9968808 -0.04993698 -0.06111397 192 192 192 255 0.112977 0.302998
56.47919 36.73163 33.01235 -0.7683713 -0.0342079 0.6390895 192 192 192 255 0.112977 0.302998
62.43658 33.00616 33.01235 0.3876316 0.03108502 0.9212902 192 192 192 255 0.112977 0.302998
63.95203 31.14344 29.09793 0.9906268 0.07031643 0.1171073 192 192 192 255 0.112977 0.302998
31.8999 -48.46199 24.5257 0.363653 0.009281809 -0.9314883 192 192 192 255 0.112977 0.302998
25.16064 -48.46199 24.5257 -0.727303 -0.01856289 -0.6860654 192 192 192 255 0.112977 0.302998
23.23517 -48.46199 29.01374 -0.994487 -0.02606304 0.1015693 192 192 192 255 0.112977 0.302998
24.95667 -48.46199 33.50178 -0.3751352 -0.009957547 0.9269167 192 192 192 255 0.112977 0.302998
32.17297 -48.46199 33.50178 0.7502732 0.01991585 0.6608279 192 192 192 255 0.112977 0.302998
33.59979 -48.46199 29.01374 0.9886993 0.02557579 -0.1477146 192 192 192 255 0.112977 0.302998
31.8999 64.66064 24.5257 0.7274532 -0.007923641 -0.6861115 192 192 192 255 0.112977 0.302998
25.16064 64.66064 24.5257 -0.3637252 0.003961665 -0.9314979 192 192 192 255 0.112977 0.302998
23.23517 64.66064 29.01374 -0.9889643 0.01091703 -0.1477517 192 192 192 255 0.112977 0.302998
24.95667 64.66064 33.50178 -0.7504426 0.008500733 0.660881 192 192 192 255 0.112977 0.302998
32.17297 64.66064 33.50178 0.3752228 -0.004250528 0.9269249 192 192 192 255 0.112977 0.302998
33.59979 64.66064 29.01374 0.9947632 -0.0111259 0.1015997 192 192 192 255 0.112977 0.302998
-26.2182 -48.46199 24.09549 0.372344 -0.01114038 -0.9280279 192 192 192 255 0.112977 0.302998
-33.93713 -48.46199 24.09549 -0.7431767 0.02440367 -0.6686501 192 192 192 255 0.112977 0.302998
-35.42047 -48.46199 29.01375 -0.9901473 0.03211195 0.1362982 192 192 192 255 0.112977 0.302998
-33.77002 -48.46199 33.932 -0.3661584 0.01180006 0.9304777 192 192 192 255 0.112977 0.302998
-26.30243 -48.46199 33.932 0.7336336 -0.02153405 0.679204 192 192 192 255 0.112977 0.302998
-24.06226 -48.46199 29.01375 0.9931262 -0.02952754 -0.1132638 192 192 192 255 0.112977 0.302998
-26.42731 68.81805 24.09549 0.7426764 0.04024376 -0.6684401 192 192 192 255 0.112977 0.302998
-33.72797 65.57611 24.09549 -0.3708342 -0.01855334 -0.9285138 192 192 192 255 0.112977 0.302998
-35.11279 63.95515 29.01375 -0.9920827 -0.04931803 -0.1154976 192 192 192 255 0.112977 0.302998
-33.56769 65.57611 33.932 -0.7312456 -0.03588099 0.6811699 192 192 192 255 0.112977 0.302998
-26.50476 68.81805 33.932 0.3660354 0.01947093 0.9303972 192 192 192 255 0.112977 0.302998
-24.36993 70.43901 29.01375 0.9893122 0.0529545 0.135858 192 192 192 255 0.112977 0.302998
-31.26056 23.27194 24.09551 -0.571615 -0.01279359 -0.8204223 192 192 192 255 0.112977 0.302998
-33.40277 22.76173 29.01375 -0.9999046 -0.008295072 0.01104964 192 192 192 255 0.112977 0.302998
-31.1806 23.27194 33.93201 -0.5631044 0.002899545 0.8263807 192 192 192 255 0.112977 0.302998
-23.84039 24.29236 33.93201 0.5636477 0.01445638 0.8258889 192 192 192 255 0.112977 0.302998
-22.23828 24.80257 29.01375 0.9998693 0.01217595 0.01064249 192 192 192 255 0.112977 0.302998
-23.67328 24.29236 24.09551 0.5731491 -0.001100882 -0.8194504 192 192 192 255 0.112977 0.302998
30.92346 -14.62625 24.5257 0.5591659 0.007483458 -0.829022 192 192 192 255 0.112977 0.302998
24.18433 -14.62625 24.5257 -0.5592003 -0.0006959275 -0.8290323 192 192 192 255 0.112977 0.302998
22.48431 -14.62625 29.01374 -0.9997033 -0.007283047 -0.02324455 192 192 192 255 0.112977 0.302998
23.91125 -14.62625 33.50178 -0.5782802 -0.008048442 0.8157986 192 192 192 255 0.112977 0.302998
31.12744 -14.62625 33.50178 0.5783259 0.0007484111 0.8158055 192 192 192 255 0.112977 0.302998
32.849 -14.62625 29.01374 0.9997 0.007634438 -0.02327513 192 192 192 255 0.112977 0.302998
58.23376 4.663208 25.32277 -0.6144971 -0.01348381 -0.7888039 192 192 192 255 0.112977 0.302998
56.79987 5.165154 29.23719 -0.9996501 -0.006225795 0.02571137 192 192 192 255 0.112977 0.302998
58.40283 4.663208 33.15162 -0.5866108 0.005398229 0.809851 192 192 192 255 0.112977 0.302998
64.69916 3.659325 33.15162 0.593782 0.0212929 0.8043442 192 192 192 255 0.112977 0.302998
65.66388 3.157379 29.23719 0.9991734 0.01901356 0.03593176 192 192 192 255 0.112977 0.302998
65.04431 3.659325 25.32277 0.6135446 -0.0005517331 -0.78966 192 192 192 255 0.112977 0.302998
-120.8105 -61.69804 47.8298 -0.001513893 0.0004133924 0.9999988 192 192 192 255 0.015529 0.846627
120.8104 -61.69804 47.8298 0.001368116 0.0002504468 0.999999 192 192 192 255 0.11551 0.692042
-120.8105 12.29659 47.8298 -0.7174825 0.02799267 0.6960138 192 192 192 255 0.11647 0.691809
120.8104 12.29659 47.8298 0.6140236 0.09485247 0.7835675 192 192 192 255 0.115502 0.69176
-120.8105 12.29659 -63.55498 -0.6738068 0.7389075 -0.0002740095 192 192 192 255 0.116502 0.691711
120.8104 12.29659 -63.55498 0.6738094 0.7389053 -0.0002741181 192 192 192 255 0.115633 0.691672
-120.8105 -61.69804 -63.55498 -0.8006249 0.0285887 -0.5984835 192 192 192 255 0.116492 0.691977
120.8104 -61.69804 -63.55498 0.8578327 0.0122426 -0.5137833 192 192 192 255 0.115638 0.691926
-38.78571 87.06346 47.8298 -0.1027282 0.3916988 0.9143407 192 192 192 255 0.116132 0.691486
38.78546 87.06346 47.8298 0.2209162 0.8423494 0.4915726 192 192 192 255 0.145607 0.96498
38.78546 87.06346 -63.55498 0.673597 0.7390988 9.148011e-05 192 192 192 255 0.115917 0.691414
-38.78571 87.06346 -63.55498 -0.6735418 0.7391492 -9.112273e-05 192 192 192 255 0.116201 0.691423
-94.96814 -45.86996 47.8298 0.0005285013 0.9999997 0.0006107598 192 192 192 255 0.036592 0.85922
94.96802 -45.86996 47.8298 -9.02491e-05 0.9999993 0.00119004 192 192 192 255 0.11647 0.691809
94.96802 1.625336 47.8298 -0.001841935 -0.001364613 0.9999974 192 192 192 255 0.115601 0.691807
-94.96814 1.625336 47.8298 0.2616541 -0.4315198 0.8633237 192 192 192 255 0.11636 0.691847
30.08594 60.10808 47.8298 -0.0005764369 -0.001026596 0.9999993 192 192 192 255 0.138516 0.943534
-30.08594 60.10808 47.8298 0.3418731 -0.6088588 0.7158309 192 192 192 255 0.116095 0.691597
-94.96814 -45.86996 15.57927 0.0009755049 0.9999993 0.0006635615 192 192 192 255 0.116368 0.691999
94.96802 -45.86996 15.57927 -0.0009715053 0.9999993 0.0006741186 192 192 192 255 0.011755 0.008686
94.96802 1.625336 15.57927 -0.855188 -0.207801 0.4748392 192 192 192 255 0.011771 0.008452
-94.96814 1.625336 15.57927 0.6702545 -0.7421307 0.001008976 192 192 192 255 0.116373 0.691815
30.08594 60.10808 15.57927 -0.4356994 -0.7759516 0.4561417 192 192 192 255 0.115882 0.691564
-30.08594 60.10808 15.57927 0.6693701 -0.7429285 0.0009796409 192 192 192 255 0.116118 0.691573
120.8104 -52.31528 -49.43104 0.9109591 -0.1815466 -0.3703976 192 192 192 255 0.115638 0.691926
119.4135 -52.22616 40.76783 0.5611839 -0.5135778 0.6490843 192 192 192 255 0.11551 0.692042
120.8104 2.913841 -49.43104 0.8829976 0.4276393 -0.1934943 192 192 192 255 0.115633 0.691672
119.4135 3.00296 40.76783 0.6217797 0.5596251 0.547914 192 192 192 255 0.115502 0.69176
96.84802 -4.635056 45.78506 -0.4142142 0.5170975 0.749024 192 192 192 255 0.11646 0.692106
96.84802 -40.08524 45.78506 -0.6506603 -0.500222 0.571331 192 192 192 255 0.11647 0.691809
94.96802 -4.397224 19.66874 -0.9621519 0.1277368 -0.2407221 192 192 192 255 0.116492 0.691977
94.96802 -39.84741 19.66874 -0.9177617 -0.3752339 -0.1300498 192 192 192 255 0.115601 0.691807
-120.8105 -52.31528 -49.43104 -0.882964 -0.4280375 -0.1927657 192 192 192 255 0.11646 0.692106
-119.4135 -52.22616 40.76783 -0.6118049 -0.5567003 0.5619426 192 192 192 255 0.116355 0.692037
-119.4135 3.00296 40.76783 -0.5381177 0.519948 0.6633878 192 192 192 255 0.11636 0.691847
-120.8105 2.913841 -49.43104 -0.9109187 0.181182 -0.3706754 192 192 192 255 0.11647 0.691809
-96.84814 -40.08524 45.78506 0.3552747 -0.5494625 0.7562214 192 192 192 255 0.115643 0.691954
-96.84814 -4.635056 45.78506 0.6452103 0.5083674 0.5703211 192 192 192 255 0.115643 0.691954
-94.96814 -39.84741 19.66874 0.9600227 -0.1315415 -0.2470898 192 192 192 255 0.116368 0.691999
-94.96814 -4.397224 19.66874 0.9256936 0.3589782 -0.1192734 192 192 192 255 0.116373 0.691815
140.478 -48.18682 -37.90106 0.6639186 -0.6851132 -0.2997201 192 192 192 255 0.115638 0.691926
140.478 -48.111 49.88082 0.4043656 -0.5776949 0.7090537 192 192 192 255 0.11551 0.692042
140.478 -1.201324 -37.90106 0.8506275 0.2597819 -0.4571063 192 192 192 255 0.115633 0.691672
140.478 -1.125504 49.88082 0.3719076 0.8101881 0.4530785 192 192 192 255 0.115502 0.69176
88.2641 -7.623451 49.88087 -0.3641743 0.5924002 0.718637 192 192 192 255 0.185934 0.889648
88.2641 -37.78225 49.88087 -0.6617833 -0.6477886 0.3773763 192 192 192 255 0.185934 0.865654
88.26398 -7.42112 27.52716 -0.8694312 0.4701362 -0.1518599 192 192 192 255 0.115639 0.691777
88.26398 -37.57993 27.52716 -0.8671566 -0.2962107 -0.4003733 192 192 192 255 0.115643 0.691954
-140.478 -48.18682 -37.90105 -0.8507398 -0.2599334 -0.4568112 192 192 192 255 0.116492 0.691977
-140.478 -48.111 49.88082 -0.3520873 -0.811945 0.4655962 192 192 192 255 0.11646 0.692106
-140.478 -1.125504 49.88082 -0.4339775 0.581152 0.6884229 192 192 192 255 0.11647 0.691809
-140.478 -1.201324 -37.90105 -0.6640674 0.6845075 -0.3007723 192 192 192 255 0.116502 0.691711
-88.26422 -37.78225 49.88087 0.3839458 -0.5802528 0.7182565 192 192 192 255 0.042056 0.865654
-88.26422 -7.623451 49.88087 0.6688558 0.6393005 0.3793768 192 192 192 255 0.042056 0.889648
-88.26416 -37.57993 27.52716 0.8547173 -0.4920489 -0.1653671 192 192 192 255 0.116368 0.691999
-88.26416 -7.42112 27.52716 0.8758705 0.2854575 -0.3890565 192 192 192 255 0.116373 0.691815
-29.5188 90.52489 54.99002 -0.8463383 0.3957855 0.3564622 192 192 192 255 0.116117 0.691451
28.41193 115.351 63.55496 0.5771119 0.3453135 0.7400679 192 192 192 255 0.137152 0.972854
28.41193 115.3511 -53.50471 0.6048499 0.7425894 -0.2876068 192 192 192 255 0.115918 0.691368
-28.41217 115.3511 -53.50471 -0.3647694 0.6209622 -0.6937934 192 192 192 255 0.116187 0.691375
-19.35352 56.78415 63.55498 -0.6489075 -0.4324314 0.6260369 192 192 192 255 0.098221 0.94089
19.35352 56.78415 63.55498 0.6241641 -0.6808533 0.3832206 192 192 192 255 0.129769 0.94089
-19.35352 50.27496 18.48925 -0.5039117 -0.8467627 -0.1704873 192 192 192 255 0.116094 0.691629
19.35352 50.27496 18.48925 0.3318185 -0.6891796 -0.6441491 192 192 192 255 0.115901 0.691621
30.44366 85.14397 47.8298 0.7326224 0.2520735 0.6322369 192 192 192 255 0.115816 0.691476
30.44366 85.14397 -63.55498 0.1927839 0.9292746 -0.3150923 192 192 192 255 0.115917 0.691414
-30.44391 85.14397 -63.55498 -0.8343302 0.4502023 0.3181368 192 192 192 255 0.116201 0.691423
-30.44391 85.14397 47.8298 -0.8313767 0.3349159 0.4434458 192 192 192 255 0.116132 0.691486
-23.61517 62.03683 47.8298 -0.6273602 -0.5151464 0.5839892 192 192 192 255 0.116095 0.691597
23.6153 62.03683 47.8298 0.5672393 -0.6973747 0.4380733 192 192 192 255 0.115851 0.691587
-23.61517 62.03683 15.57927 -0.0001181796 -0.0009864245 0.9999995 192 192 192 255 0.116118 0.691573
23.6153 62.03683 15.57927 0.0005366036 -0.0007120689 0.9999996 192 192 192 255 0.115882 0.691564
-86.49664 43.57419 47.8298 -0.3921728 0.798559 0.4566223 192 192 192 255 0.116329 0.691674
-52.14142 74.88954 47.8298 -0.7642115 0.3907696 0.5131082 192 192 192 255 0.071497 0.955294
-68.68866 59.80637 34.59494 -0.6733313 0.7386941 0.03091937 192 192 192 255 0.116264 0.691597
-61.95587 55.57922 47.8298 -0.5814028 0.6378412 0.5051035 192 192 192 255 0.063498 0.939931
-82.98901 12.42294 47.8298 0.7691548 -0.3793055 0.5143231 192 192 192 255 0.116311 0.691801
-60.61627 32.58902 47.8298 0.2413738 -0.7585973 0.6052016 192 192 192 255 0.11622 0.691714
-75.43976 27.92171 47.8298 0.5337068 -0.5921075 0.603793 192 192 192 255 0.052508 0.917927
-72.52435 21.85559 39.0411 0.6671792 -0.7401851 0.08365466 192 192 192 255 0.116272 0.691752
104.6118 27.06184 47.8298 0.3867616 0.8316305 0.3985049 192 192 192 255 0.115564 0.691704
70.04938 58.56598 47.8298 0.7395244 0.4904931 0.4609991 192 192 192 255 0.171088 0.942307
90.58746 39.84523 34.65821 0.6734154 0.7387875 0.02654724 192 192 192 255 0.115629 0.691648
84.84052 36.23169 47.8298 0.2017875 0.2213759 0.9540831 192 192 192 255 0.183144 0.924539
-14.25812 115.351 63.55496 -0.8451615 0.3972759 0.3575946 192 192 192 255 0.116036 0.691435
-28.41217 115.351 31.52437 -0.8419905 0.3915471 0.3711374 192 192 192 255 0.116132 0.69142
-26.82318 89.914 63.55496 -0.8554254 0.4173018 0.3067681 192 192 192 255 0.092133 0.967247
-6.1e-05 1.625336 15.57927 0 0 1 192 192 192 255 0.012248 0.008441
-6.1e-05 -45.86996 15.57927 -8.520194e-13 0.9999999 0.0003263418 192 192 192 255 0.012247 0.008679
-46.3158 -45.86996 47.8298 0.2149274 0.7363686 0.6415353 192 192 192 255 0.076246 0.85922
3.464539 -45.86996 47.8298 -0.1461533 0.7846904 0.602412 192 192 192 255 0.116819 0.85922
-25.53705 -45.86993 40.75108 8.943717e-09 0.7810262 0.6244982 192 192 192 255 0.116085 0.692015
-26.90002 -51.57817 47.8298 1.384667e-09 0.127908 0.9917861 192 192 192 255 0.09207 0.854678
-120.8105 -96.96156 -63.55498 -0.6666667 -0.6666667 -0.3333333 192 192 192 255 0.116492 0.691977
120.8104 -96.96156 -63.55498 0.4082483 -0.4082483 -0.8164966 192 192 192 255 0.115638 0.691926
120.8104 -96.96156 47.8298 0.6666667 -0.6666667 0.3333333 192 192 192 255 0.11551 0.692042
-120.8105 -96.96156 47.8298 -0.4082483 -0.4082483 0.8164966 192 192 192 255 0.11646 0.692106
5.78772 -48.46199 25.18351 0.3948574 0.01229348 -0.9186602 192 192 192 255 0.112977 0.302998
-1.157898 -48.46199 25.18351 -0.7867898 -0.01517517 -0.6170344 192 192 192 255 0.112977 0.302998
-1.821533 -48.46199 29.09793 -0.9913884 -0.02258872 0.1289914 192 192 192 255 0.112977 0.302998
-0.812744 -48.46199 33.01235 -0.3793428 -0.01116884 0.9251888 192 192 192 255 0.112977 0.302998
5.608398 -48.46199 33.01235 0.7604665 0.01847797 0.6491144 192 192 192 255 0.112977 0.302998
7.218445 -48.46199 29.09793 0.9974509 0.02561073 -0.0666016 192 192 192 255 0.112977 0.302998
5.536926 56.42079 25.18351 0.7924232 -0.01666399 -0.6097441 192 192 192 255 0.112977 0.302998
-0.907104 56.42084 25.18351 -0.3949219 0.008497294 -0.9186754 192 192 192 255 0.112977 0.302998
-1.495117 56.42085 29.09793 -0.9973241 0.02797529 -0.06754268 192 192 192 255 0.112977 0.302998
-0.580872 56.42084 33.01235 -0.76199 0.0240282 0.6471429 192 192 192 255 0.112977 0.302998
5.376526 56.42079 33.01235 0.3824265 -0.005469731 0.9239697 192 192 192 255 0.112977 0.302998
6.891968 56.42078 29.09793 0.9920393 -0.01965579 0.1243852 192 192 192 255 0.112977 0.302998
-1.912476 4.663208 25.32277 -0.6107605 0.007364799 -0.7917812 192 192 192 255 0.112977 0.302998
-3.346375 5.165154 29.23719 -0.9995885 0.003633797 0.02845477 192 192 192 255 0.112977 0.302998
-1.743408 4.663208 33.15162 -0.5860958 -0.002873334 0.8102368 192 192 192 255 0.112977 0.302998
4.552917 3.659325 33.15162 0.5890795 -0.003330055 0.8080682 192 192 192 255 0.112977 0.302998
5.517639 3.157379 29.23719 0.9994981 0.002881297 0.03154823 192 192 192 255 0.112977 0.302998
4.898071 3.659325 25.32277 0.6123308 0.005892952 -0.7905798 192 192 192 255 0.112977 0.302998
140.478 -48.111 49.88082 0.4043656 -0.5776949 0.7090537 192 192 192 255 0.219113 0.857437
140.478 -1.125504 49.88082 0.3719076 0.8101881 0.4530785 192 192 192 255 0.219113 0.894818
-140.478 -1.125504 49.88082 -0.4339775 0.581152 0.6884229 192 192 192 255 0.008877 0.894818
-140.478 -48.111 49.88082 -0.3520873 -0.811945 0.4655962 192 192 192 255 0.008877 0.857437
-14.25812 115.351 63.55496 -0.8451615 0.3972759 0.3575946 192 192 192 255 0.102374 0.972854
-86.49664 43.57419 47.8298 -0.3921728 0.798559 0.4566223 192 192 192 255 0.043496 0.93038
-120.8105 12.29659 47.8298 -0.7174825 0.02799267 0.6960138 192 192 192 255 0.015529 0.905496
-94.96814 -45.86996 47.8298 0.0005285013 0.9999997 0.0006107598 192 192 192 255 0.116355 0.692037
-46.3158 -45.86996 47.8298 0.2149274 0.7363686 0.6415353 192 192 192 255 0.116163 0.692024
-6.1e-05 -45.86996 15.57927 -8.520194e-13 0.9999999 0.0003263418 192 192 192 255 0.116006 0.691976
88.2641 -37.78225 49.88087 -0.6617833 -0.6477886 0.3773763 192 192 192 255 0.115605 0.691989
88.2641 -7.623451 49.88087 -0.3641743 0.5924002 0.718637 192 192 192 255 0.115601 0.691807
-88.26422 -7.623451 49.88087 0.6688558 0.6393005 0.3793768 192 192 192 255 0.11636 0.691847
-88.26422 -37.78225 49.88087 0.3839458 -0.5802528 0.7182565 192 192 192 255 0.116355 0.692037
30.08594 60.10808 47.8298 -0.0005764369 -0.001026596 0.9999993 192 192 192 255 0.115851 0.691587
94.96802 1.625336 15.57927 -0.855188 -0.207801 0.4748392 192 192 192 255 0.115639 0.691777
19.35352 56.78415 63.55498 0.6241641 -0.6808533 0.3832206 192 192 192 255 0.115858 0.691625
-19.35352 56.78415 63.55498 -0.6489075 -0.4324314 0.6260369 192 192 192 255 0.116061 0.691633
28.41193 115.351 63.55496 0.5771119 0.3453135 0.7400679 192 192 192 255 0.115809 0.691428
-26.82318 89.914 63.55496 -0.8554254 0.4173018 0.3067681 192 192 192 255 0.116102 0.691472
120.8104 12.29659 47.8298 0.6140236 0.09485247 0.7835675 192 192 192 255 0.116492 0.691977
94.96802 1.625336 47.8298 -0.001841935 -0.001364613 0.9999974 192 192 192 255 0.11646 0.692106
119.4135 3.00296 40.76783 0.6217797 0.5596251 0.547914 192 192 192 255 0.116492 0.691977
120.8104 -61.69804 47.8298 0.001368116 0.0002504468 0.999999 192 192 192 255 0.116502 0.691711
119.4135 -52.22616 40.76783 0.5611839 -0.5135778 0.6490843 192 192 192 255 0.116502 0.691711
94.96802 1.625336 47.8298 -0.001841935 -0.001364613 0.9999974 192 192 192 255 0.116502 0.691711
94.96802 1.625336 15.57927 -0.855188 -0.207801 0.4748392 192 192 192 255 0.116492 0.691977
96.84802 -4.635056 45.78506 -0.4142142 0.5170975 0.749024 192 192 192 255 0.116502 0.691711
94.96802 1.625336 15.57927 -0.855188 -0.207801 0.4748392 192 192 192 255 0.115502 0.69176
94.96802 -45.86996 15.57927 -0.0009715053 0.9999993 0.0006741186 192 192 192 255 0.115601 0.691807
94.96802 -4.397224 19.66874 -0.9621519 0.1277368 -0.2407221 192 192 192 255 0.115502 0.69176
94.96802 -45.86996 15.57927 -0.0009715053 0.9999993 0.0006741186 192 192 192 255 0.115605 0.691989
94.96802 -45.86996 47.8298 -9.02491e-05 0.9999993 0.00119004 192 192 192 255 0.11551 0.692042
96.84802 -40.08524 45.78506 -0.6506603 -0.500222 0.571331 192 192 192 255 0.11551 0.692042
94.96802 -39.84741 19.66874 -0.9177617 -0.3752339 -0.1300498 192 192 192 255 0.115605 0.691989
-120.8105 -61.69804 -63.55498 -0.8006249 0.0285887 -0.5984835 192 192 192 255 0.11646 0.692106
-120.8105 -61.69804 47.8298 -0.001513893 0.0004133924 0.9999988 192 192 192 255 0.116355 0.692037
-120.8105 12.29659 47.8298 -0.7174825 0.02799267 0.6960138 192 192 192 255 0.11636 0.691847
-120.8105 12.29659 -63.55498 -0.6738068 0.7389075 -0.0002740095 192 192 192 255 0.11647 0.691809
-120.8105 12.29659 -63.55498 -0.6738068 0.7389075 -0.0002740095 192 192 192 255 0.115601 0.691807
-120.8105 -61.69804 -63.55498 -0.8006249 0.0285887 -0.5984835 192 192 192 255 0.115639 0.691777
-120.8105 -52.31528 -49.43104 -0.882964 -0.4280375 -0.1927657 192 192 192 255 0.115639 0.691777
-120.8105 2.913841 -49.43104 -0.9109187 0.181182 -0.3706754 192 192 192 255 0.115601 0.691807
-120.8105 -61.69804 47.8298 -0.001513893 0.0004133924 0.9999988 192 192 192 255 0.115639 0.691777
-94.96814 -45.86996 47.8298 0.0005285013 0.9999997 0.0006107598 192 192 192 255 0.115643 0.691954
-119.4135 -52.22616 40.76783 -0.6118049 -0.5567003 0.5619426 192 192 192 255 0.115639 0.691777
-94.96814 1.625336 47.8298 0.2616541 -0.4315198 0.8633237 192 192 192 255 0.115643 0.691954
-120.8105 12.29659 47.8298 -0.7174825 0.02799267 0.6960138 192 192 192 255 0.115605 0.691989
-119.4135 3.00296 40.76783 -0.5381177 0.519948 0.6633878 192 192 192 255 0.115605 0.691989
-96.84814 -40.08524 45.78506 0.3552747 -0.5494625 0.7562214 192 192 192 255 0.116355 0.692037
-96.84814 -4.635056 45.78506 0.6452103 0.5083674 0.5703211 192 192 192 255 0.11636 0.691847
88.2641 -7.623451 49.88087 -0.3641743 0.5924002 0.718637 192 192 192 255 0.11646 0.692106
140.478 -1.125504 49.88082 0.3719076 0.8101881 0.4530785 192 192 192 255 0.116492 0.691977
140.478 -48.111 49.88082 0.4043656 -0.5776949 0.7090537 192 192 192 255 0.116502 0.691711
88.2641 -37.78225 49.88087 -0.6617833 -0.6477886 0.3773763 192 192 192 255 0.11647 0.691809
88.26398 -7.42112 27.52716 -0.8694312 0.4701362 -0.1518599 192 192 192 255 0.116492 0.691977
88.2641 -7.623451 49.88087 -0.3641743 0.5924002 0.718637 192 192 192 255 0.116502 0.691711
88.26398 -37.57993 27.52716 -0.8671566 -0.2962107 -0.4003733 192 192 192 255 0.115601 0.691807
88.26398 -7.42112 27.52716 -0.8694312 0.4701362 -0.1518599 192 192 192 255 0.115502 0.69176
88.2641 -37.78225 49.88087 -0.6617833 -0.6477886 0.3773763 192 192 192 255 0.11551 0.692042
88.26398 -37.57993 27.52716 -0.8671566 -0.2962107 -0.4003733 192 192 192 255 0.115605 0.691989
-140.478 -48.111 49.88082 -0.3520873 -0.811945 0.4655962 192 192 192 255 0.116355 0.692037
-140.478 -48.18682 -37.90105 -0.8507398 -0.2599334 -0.4568112 192 192 192 255 0.11646 0.692106
-140.478 -1.201324 -37.90105 -0.6640674 0.6845075 -0.3007723 192 192 192 255 0.11647 0.691809
-140.478 -1.125504 49.88082 -0.4339775 0.581152 0.6884229 192 192 192 255 0.11636 0.691847
-140.478 -48.18682 -37.90105 -0.8507398 -0.2599334 -0.4568112 192 192 192 255 0.115639 0.691777
-140.478 -1.201324 -37.90105 -0.6640674 0.6845075 -0.3007723 192 192 192 255 0.115601 0.691807
-88.26422 -37.78225 49.88087 0.3839458 -0.5802528 0.7182565 192 192 192 255 0.115643 0.691954
-140.478 -48.111 49.88082 -0.3520873 -0.811945 0.4655962 192 192 192 255 0.115639 0.691777
-140.478 -1.125504 49.88082 -0.4339775 0.581152 0.6884229 192 192 192 255 0.115605 0.691989
-88.26422 -7.623451 49.88087 0.6688558 0.6393005 0.3793768 192 192 192 255 0.115643 0.691954
38.78546 87.06346 47.8298 0.2209162 0.8423494 0.4915726 192 192 192 255 0.115816 0.691476
23.6153 62.03683 15.57927 0.0005366036 -0.0007120689 0.9999996 192 192 192 255 0.012134 0.008164
-23.61517 62.03683 15.57927 -0.0001181796 -0.0009864245 0.9999995 192 192 192 255 0.012366 0.008157
-61.95587 55.57922 47.8298 -0.5814028 0.6378412 0.5051035 192 192 192 255 0.11624 0.691611
-75.43976 27.92171 47.8298 0.5337068 -0.5921075 0.603793 192 192 192 255 0.116274 0.691748
84.84052 36.23169 47.8298 0.2017875 0.2213759 0.9540831 192 192 192 255 0.115627 0.691665
70.04938 58.56598 47.8298 0.7395244 0.4904931 0.4609991 192 192 192 255 0.115696 0.691584
120.8104 12.29659 47.8298 0.6140236 0.09485247 0.7835675 192 192 192 255 0.212461 0.905496
104.6118 27.06184 47.8298 0.3867616 0.8316305 0.3985049 192 192 192 255 0.199258 0.917243
94.96802 1.625336 47.8298 -0.001841935 -0.001364613 0.9999974 192 192 192 255 0.191398 0.897006
-94.96814 1.625336 47.8298 0.2616541 -0.4315198 0.8633237 192 192 192 255 0.036592 0.897006
-82.98901 12.42294 47.8298 0.7691548 -0.3793055 0.5143231 192 192 192 255 0.046355 0.905597
-38.78571 87.06346 47.8298 -0.1027282 0.3916988 0.9143407 192 192 192 255 0.082383 0.96498
-30.08594 60.10808 47.8298 0.3418731 -0.6088588 0.7158309 192 192 192 255 0.089474 0.943534
-60.61627 32.58902 47.8298 0.2413738 -0.7585973 0.6052016 192 192 192 255 0.06459 0.921641
-52.14142 74.88954 47.8298 -0.7642115 0.3907696 0.5131082 192 192 192 255 0.116187 0.691539
-30.08594 60.10808 15.57927 0.6693701 -0.7429285 0.0009796409 192 192 192 255 0.012398 0.008164
-94.96814 1.625336 15.57927 0.6702545 -0.7421307 0.001008976 192 192 192 255 0.012739 0.008431
30.08594 60.10808 15.57927 -0.4356994 -0.7759516 0.4561417 192 192 192 255 0.012103 0.008173
-94.96814 -45.86996 15.57927 0.0009755049 0.9999993 0.0006635615 192 192 192 255 0.012755 0.008672
94.96802 -45.86996 47.8298 -9.02491e-05 0.9999993 0.00119004 192 192 192 255 0.115605 0.691989
94.96802 -45.86996 15.57927 -0.0009715053 0.9999993 0.0006741186 192 192 192 255 0.115643 0.691954
-26.90002 -51.57817 47.8298 1.384667e-09 0.127908 0.9917861 192 192 192 255 0.116088 0.692041
120.8104 -61.69804 47.8298 0.001368116 0.0002504468 0.999999 192 192 192 255 0.212461 0.846627
94.96802 -45.86996 47.8298 -9.02491e-05 0.9999993 0.00119004 192 192 192 255 0.191398 0.85922
3.464539 -45.86996 47.8298 -0.1461533 0.7846904 0.602412 192 192 192 255 0.115966 0.692012
120.8104 -61.69804 47.8298 0.001368116 0.0002504468 0.999999 192 192 192 255 0.215013 0.845996
-120.8105 -61.69804 47.8298 -0.001513893 0.0004133924 0.9999988 192 192 192 255 0.014197 0.845996
-120.8105 -96.96156 47.8298 -0.4082483 -0.4082483 0.8164966 192 192 192 255 0.014197 0.817036
120.8104 -96.96156 47.8298 0.6666667 -0.6666667 0.3333333 192 192 192 255 0.215013 0.817036
-120.8105 -61.69804 47.8298 -0.001513893 0.0004133924 0.9999988 192 192 192 255 0.11646 0.692106
3 17 12 7 
3 17 7 6 
3 12 13 8 
3 12 8 7 
3 13 14 9 
3 13 9 8 
3 14 15 10 
3 14 10 9 
3 15 16 11 
3 15 11 10 
3 16 17 6 
3 16 6 11 
3 1 2 13 
3 1 13 12 
3 2 3 14 
3 2 14 13 
3 3 4 15 
3 3 15 14 
3 4 5 16 
3 4 16 15 
3 5 0 17 
3 5 17 16 
3 0 1 12 
3 0 12 17 
3 35 30 25 
3 35 25 24 
3 30 31 26 
3 30 26 25 
3 31 32 27 
3 31 27 26 
3 32 33 28 
3 32 28 27 
3 33 34 29 
3 33 29 28 
3 34 35 24 
3 34 24 29 
3 19 20 31 
3 19 31 30 
3 20 21 32 
3 20 32 31 
3 21 22 33 
3 21 33 32 
3 22 23 34 
3 22 34 33 
3 23 18 35 
3 23 35 34 
3 18 19 30 
3 18 30 35 
3 43 42 89 
3 43 89 84 
3 44 43 84 
3 44 84 85 
3 45 44 85 
3 45 85 86 
3 46 45 86 
3 46 86 87 
3 47 46 87 
3 47 87 88 
3 42 47 88 
3 42 88 89 
3 78 79 55 
3 78 55 54 
3 79 80 56 
3 79 56 55 
3 80 81 57 
3 80 57 56 
3 81 82 58 
3 81 58 57 
3 82 83 59 
3 82 59 58 
3 83 78 54 
3 83 54 59 
3 77 72 67 
3 77 67 66 
3 72 73 68 
3 72 68 67 
3 73 74 69 
3 73 69 68 
3 74 75 70 
3 74 70 69 
3 75 76 71 
3 75 71 70 
3 76 77 66 
3 76 66 71 
3 61 62 73 
3 61 73 72 
3 62 63 74 
3 62 74 73 
3 63 64 75 
3 63 75 74 
3 64 65 76 
3 64 76 75 
3 65 60 77 
3 65 77 76 
3 60 61 72 
3 60 72 77 
3 48 49 79 
3 48 79 78 
3 49 50 80 
3 49 80 79 
3 50 51 81 
3 50 81 80 
3 51 52 82 
3 51 82 81 
3 52 53 83 
3 52 83 82 
3 53 48 78 
3 53 78 83 
3 37 38 85 
3 37 85 84 
3 38 39 86 
3 38 86 85 
3 39 40 87 
3 39 87 86 
3 40 41 88 
3 40 88 87 
3 41 36 89 
3 41 89 88 
3 36 37 84 
3 36 84 89 
3 177 178 109 
3 177 109 110 
3 146 174 175 
3 94 95 97 
3 94 97 96 
3 183 184 185 
3 183 185 186 
3 131 130 132 
3 131 132 133 
3 138 139 140 
3 138 140 141 
3 93 95 172 
3 93 172 170 
3 95 94 101 
3 95 101 100 
3 94 92 162 
3 94 162 164 
3 90 182 179 
3 90 179 102 
3 205 206 134 
3 205 134 135 
3 207 208 142 
3 207 142 143 
3 106 173 171 
3 106 171 99 
3 147 209 176 
3 147 176 150 
3 147 150 151 
3 168 165 210 
3 168 210 211 
3 212 213 181 
3 212 181 214 
3 215 216 136 
3 215 136 137 
3 217 218 144 
3 217 144 145 
3 104 219 112 
3 104 112 220 
3 221 222 152 
3 221 152 153 
3 111 169 166 
3 111 166 105 
3 154 155 148 
3 154 148 223 
3 155 156 149 
3 155 149 148 
3 156 157 146 
3 156 146 175 
3 156 175 149 
3 157 158 222 
3 157 222 224 
3 157 224 146 
3 159 154 223 
3 159 223 221 
3 158 160 152 
3 158 152 222 
3 160 161 153 
3 160 153 152 
3 161 159 221 
3 161 221 153 
3 91 97 114 
3 91 114 115 
3 97 95 116 
3 97 116 114 
3 95 93 117 
3 95 117 116 
3 225 226 118 
3 225 118 227 
3 103 228 229 
3 103 229 119 
3 230 231 120 
3 230 120 232 
3 233 234 121 
3 233 121 235 
3 236 237 238 
3 236 238 239 
3 240 241 123 
3 240 123 122 
3 242 243 125 
3 242 125 124 
3 244 245 246 
3 244 246 247 
3 248 249 126 
3 248 126 250 
3 251 252 253 
3 251 253 127 
3 212 108 128 
3 212 128 254 
3 108 111 129 
3 108 129 128 
3 111 105 255 
3 111 255 129 
3 115 114 130 
3 115 130 131 
3 114 116 132 
3 114 132 130 
3 116 117 133 
3 116 133 132 
3 227 118 256 
3 227 256 257 
3 119 229 258 
3 119 258 259 
3 232 120 260 
3 232 260 261 
3 235 121 262 
3 235 262 263 
3 239 238 264 
3 239 264 265 
3 122 123 266 
3 122 266 267 
3 124 125 268 
3 124 268 269 
3 247 246 270 
3 247 270 271 
3 250 126 272 
3 250 272 273 
3 127 253 274 
3 127 274 275 
3 254 128 144 
3 254 144 218 
3 128 129 145 
3 128 145 144 
3 129 255 217 
3 129 217 145 
3 276 100 155 
3 276 155 154 
3 100 101 156 
3 100 156 155 
3 101 98 157 
3 101 157 156 
3 98 107 158 
3 98 158 157 
3 219 276 154 
3 219 154 159 
3 107 113 160 
3 107 160 158 
3 177 277 278 
3 112 219 159 
3 112 159 161 
3 279 164 162 
3 166 169 280 
3 280 169 167 
3 281 172 282 
3 170 172 281 
3 172 100 276 
3 172 276 282 
3 172 95 100 
3 283 284 173 
3 283 173 285 
3 285 173 106 
3 107 167 169 
3 107 169 113 
3 113 169 111 
3 168 211 286 
3 168 286 287 
3 288 163 165 
3 288 165 289 
3 289 165 168 
3 289 168 290 
3 291 164 279 
3 101 164 291 
3 101 291 98 
3 94 164 101 
3 175 174 223 
3 175 223 148 
3 175 148 149 
3 224 174 146 
3 177 278 292 
3 177 292 293 
3 294 277 177 
3 294 177 110 
3 295 178 177 
3 295 177 293 
3 212 214 108 
3 214 296 297 
3 213 298 181 
3 182 299 300 
3 182 300 180 
3 90 299 182 
3 181 298 301 
3 214 181 301 
3 214 301 296 
3 96 97 184 
3 96 184 183 
3 97 91 185 
3 97 185 184 
3 302 303 304 
3 302 304 305 
3 306 96 183 
3 306 183 186 
3 194 193 204 
3 194 204 199 
3 195 194 199 
3 195 199 200 
3 196 195 200 
3 196 200 201 
3 197 196 201 
3 197 201 202 
3 198 197 202 
3 198 202 203 
3 193 198 203 
3 193 203 204 
3 188 189 200 
3 188 200 199 
3 189 190 201 
3 189 201 200 
3 190 191 202 
3 190 202 201 
3 191 192 203 
3 191 203 202 
3 192 187 204 
3 192 204 203 
3 187 188 199 
3 187 199 204 
