ply
format ascii 1.0
comment VCGLIB generated
comment TextureFile Dungeons_2_Texture_01_A.png
element vertex 83
property float x
property float y
property float z
property float nx
property float ny
property float nz
property uchar red
property uchar green
property uchar blue
property uchar alpha
property float texture_u
property float texture_v
element face 84
property list uchar int vertex_indices
end_header
39.55534 143.7136 55.70328 0.4181945 0.01050452 0.9082968 192 192 192 255 0.13366 0.825516
39.55534 361.0393 55.70328 0.4111662 -0.005279412 0.9115452 192 192 192 255 0.040153 0.918734
-55.70328 124.9203 38.19565 -1 3.840685e-06 0.00016199 192 192 192 255 0.08223 0.817455
-55.70328 393.1426 38.19565 -0.9143537 -0.007199066 0.4048524 192 192 192 255 0.08223 0.932505
-55.70328 395.2444 -37.97675 -0.928296 -0.00720302 -0.3717723 192 192 192 255 0.049557 0.933406
-55.70328 102.7343 -37.97675 -0.9812951 0.01965785 -0.1915032 192 192 192 255 0.049557 0.807939
39.55534 378.4837 -55.70326 0.9104409 -0.005303247 -0.4136053 192 192 192 255 0.125128 0.815995
39.55534 116.9947 -55.70326 0.4049004 0.0045126 -0.9143497 192 192 192 255 0.181446 0.814055
55.70328 110.2741 -37.97675 0.9331758 0.008843108 -0.3593116 192 192 192 255 0.173842 0.811173
55.70328 391.0905 38.19565 0.9116374 -0.01226537 0.4108125 192 192 192 255 0.141169 0.931624
55.70328 101.0857 38.19565 0.9348054 0.005103246 0.3551238 192 192 192 255 0.141169 0.807231
-39.5554 356.0942 55.70328 -0.326768 -0.00515259 0.9450906 192 192 192 255 0.00622 0.916613
-39.5554 124.9476 55.70328 -0.4023991 0.004364808 0.915454 192 192 192 255 0.08974 0.817467
-39.5554 105.1797 -55.70326 -0.7351624 0.02173654 -0.6775424 192 192 192 255 0.091195 0.933224
-39.5554 396.0601 -55.70326 -0.3987509 -0.003645677 -0.9170521 192 192 192 255 0.091195 0.808456
36.0521 242.3047 55.70328 0.4296836 -0.005374856 0.9029635 192 192 192 255 0.03865 0.867805
55.70328 257.835 30.95023 1 3.36778e-06 0.0002253884 192 192 192 255 0.144277 0.874467
55.70328 224.4142 -33.80598 1 -3.50194e-06 -0.0002480263 192 192 192 255 0.172053 0.860131
34.665 262.3118 -55.70326 0.397865 0.004068445 -0.917435 192 192 192 255 0.12303 0.865825
-34.66506 262.3118 -55.70326 -0.7316715 0.02256404 -0.6812839 192 192 192 255 0.093292 0.865825
-55.70328 226.8471 -34.30872 -0.9643559 -0.005209513 -0.2645572 192 192 192 255 0.05113 0.861175
-55.70328 257.835 33.18524 -1 3.260361e-08 0.0001116233 192 192 192 255 0.080081 0.874467
-36.05215 240.6491 55.70328 -0.4697325 0.0001207317 0.8828088 192 192 192 255 0.007722 0.867095
39.55534 0 55.70328 0.3596233 -0.7338508 0.5763108 192 192 192 255 0.230687 0.770799
55.70328 0 38.19565 0.7915194 -0.5787919 0.1962065 192 192 192 255 0.223177 0.763872
39.55534 0 -55.70326 0.1809334 -0.7342518 -0.6543221 192 192 192 255 0.182901 0.770799
55.70328 0 -37.97675 0.8281505 -0.334132 -0.4500251 192 192 192 255 0.190504 0.763872
-39.5554 0 55.70328 -0.179812 -0.7338509 0.6550806 192 192 192 255 0.230687 0.804732
-39.5554 0 -55.70326 -0.3618675 -0.7342519 -0.574392 192 192 192 255 0.182901 0.804732
-55.70328 0 38.19565 -0.8261282 -0.3344444 0.4534966 192 192 192 255 0.223177 0.811658
-55.70328 0 -37.97675 -0.7921752 -0.5783868 -0.1947494 192 192 192 255 0.190504 0.811658
-39.5554 500 55.70328 -0.3596239 0.7338509 0.5763103 192 192 192 255 0.19623 0.812584
-55.70328 500 38.19565 -0.7915196 0.5787918 0.1962061 192 192 192 255 0.189304 0.820093
-39.5554 500 -55.70326 -0.1809337 0.7342519 -0.6543219 192 192 192 255 0.19623 0.86037
-55.70328 500 -37.97675 -0.828151 0.334132 -0.4500242 192 192 192 255 0.189304 0.852766
39.55534 500 55.70328 0.1798117 0.7338508 0.6550808 192 192 192 255 0.230163 0.812584
39.55534 500 -55.70326 0.3422923 0.7309064 -0.5904336 192 192 192 255 0.230163 0.86037
55.70328 500 38.19565 0.9999998 0.0004032493 0.000546795 192 192 192 255 0.23709 0.820093
55.70328 500 -39.76514 0.9999996 0.0008073996 -0.0002873193 192 192 192 255 0.23709 0.853533
-55.70328 171.0214 -21.11554 -0.9990056 0.001317062 -0.0445646 192 192 192 255 0.056789 0.837229
-48.71056 162.0393 -43.93167 -0.8218282 0.01816565 -0.5694457 192 192 192 255 0.047003 0.833377
55.70328 393.77 -20.27493 0.9109364 -0.005291777 -0.4125128 192 192 192 255 0.166249 0.932774
55.70328 352.1009 -38.27534 0.9971054 0.03012269 -0.06981099 192 192 192 255 0.132055 0.827311
55.70328 468.2355 -39.76514 0.9745978 -0.05664575 -0.2166805 192 192 192 255 0.174609 0.964715
-36.05215 240.6491 55.70328 -0.4697325 0.0001207317 0.8828088 192 192 192 255 0.08974 0.867095
-39.5554 356.0942 55.70328 -0.326768 -0.00515259 0.9450906 192 192 192 255 0.08974 0.916613
36.0521 242.3047 55.70328 0.4296836 -0.005374856 0.9029635 192 192 192 255 0.13366 0.867805
39.55534 361.0393 55.70328 0.4111662 -0.005279412 0.9115452 192 192 192 255 0.13366 0.918734
-34.66506 262.3118 -55.70326 -0.7316715 0.02256404 -0.6812839 192 192 192 255 0.041954 0.876387
-39.5554 396.0601 -55.70326 -0.3987509 -0.003645677 -0.9170521 192 192 192 255 0.041954 0.933756
39.55534 378.4837 -55.70326 0.9104409 -0.005303247 -0.4136053 192 192 192 255 0.181446 0.926217
34.665 262.3118 -55.70326 0.397865 0.004068445 -0.917435 192 192 192 255 0.181446 0.876387
39.55534 116.9947 -55.70326 0.4049004 0.0045126 -0.9143497 192 192 192 255 0.125128 0.928156
-39.5554 124.9476 55.70328 -0.4023991 0.004364808 0.915454 192 192 192 255 0.00622 0.817467
39.55534 143.7136 55.70328 0.4181945 0.01050452 0.9082968 192 192 192 255 0.040153 0.825516
39.55534 0 55.70328 0.3596233 -0.7338508 0.5763108 192 192 192 255 0.13366 0.763872
55.70328 0 38.19565 0.7915194 -0.5787919 0.1962065 192 192 192 255 0.141169 0.763872
55.70328 0 -37.97675 0.8281505 -0.334132 -0.4500251 192 192 192 255 0.173842 0.763872
39.55534 0 -55.70326 0.1809334 -0.7342518 -0.6543221 192 192 192 255 0.181446 0.763872
-39.5554 0 55.70328 -0.179812 -0.7338509 0.6550806 192 192 192 255 0.00622 0.763872
39.55534 0 55.70328 0.3596233 -0.7338508 0.5763108 192 192 192 255 0.040153 0.763872
39.55534 0 -55.70326 0.1809334 -0.7342518 -0.6543221 192 192 192 255 0.125128 0.97834
-39.5554 0 -55.70326 -0.3618675 -0.7342519 -0.574392 192 192 192 255 0.091195 0.97834
-55.70328 0 38.19565 -0.8261282 -0.3344444 0.4534966 192 192 192 255 0.08223 0.763872
-39.5554 0 55.70328 -0.179812 -0.7338509 0.6550806 192 192 192 255 0.08974 0.763872
-55.70328 0 -37.97675 -0.7921752 -0.5783868 -0.1947494 192 192 192 255 0.049557 0.763872
-39.5554 105.1797 -55.70326 -0.7351624 0.02173654 -0.6775424 192 192 192 255 0.041954 0.808987
-39.5554 0 -55.70326 -0.3618675 -0.7342519 -0.574392 192 192 192 255 0.041954 0.763872
-39.5554 500 55.70328 -0.3596239 0.7338509 0.5763103 192 192 192 255 0.08974 0.97834
-55.70328 500 38.19565 -0.7915196 0.5787918 0.1962061 192 192 192 255 0.08223 0.97834
-55.70328 500 -37.97675 -0.828151 0.334132 -0.4500242 192 192 192 255 0.049557 0.97834
-39.5554 500 -55.70326 -0.1809337 0.7342519 -0.6543219 192 192 192 255 0.041954 0.97834
39.55534 500 55.70328 0.1798117 0.7338508 0.6550808 192 192 192 255 0.040153 0.97834
-39.5554 500 55.70328 -0.3596239 0.7338509 0.5763103 192 192 192 255 0.00622 0.97834
-39.5554 500 -55.70326 -0.1809337 0.7342519 -0.6543219 192 192 192 255 0.091195 0.763872
39.55534 500 -55.70326 0.3422923 0.7309064 -0.5904336 192 192 192 255 0.125128 0.763872
55.70328 500 38.19565 0.9999998 0.0004032493 0.000546795 192 192 192 255 0.141169 0.97834
39.55534 500 55.70328 0.1798117 0.7338508 0.6550808 192 192 192 255 0.13366 0.97834
55.70328 224.4142 -33.80598 1 -3.50194e-06 -0.0002480263 192 192 192 255 0.132055 0.882081
55.70328 468.2355 -39.76514 0.9745978 -0.05664575 -0.2166805 192 192 192 255 0.132055 0.777497
55.70328 500 -39.76514 0.9999996 0.0008073996 -0.0002873193 192 192 192 255 0.132055 0.763872
55.70328 500 -39.76514 0.9999996 0.0008073996 -0.0002873193 192 192 192 255 0.174609 0.97834
55.70328 352.1009 -38.27534 0.9971054 0.03012269 -0.06981099 192 192 192 255 0.17397 0.9149
3 22 15 1 
3 22 1 11 
3 20 21 3 
3 20 3 4 
3 18 19 14 
3 18 14 6 
3 3 21 44 
3 3 44 45 
3 46 16 9 
3 46 9 47 
3 48 20 4 
3 48 4 49 
3 41 50 43 
3 0 10 16 
3 0 16 46 
3 10 8 17 
3 10 17 16 
3 8 7 51 
3 8 51 17 
3 52 13 19 
3 52 19 18 
3 48 40 20 
3 39 2 21 
3 44 21 2 
3 44 2 12 
3 53 54 15 
3 53 15 22 
3 24 23 25 
3 24 25 26 
3 23 27 28 
3 23 28 25 
3 27 29 30 
3 27 30 28 
3 32 31 33 
3 32 33 34 
3 31 35 36 
3 31 36 33 
3 35 37 38 
3 35 38 36 
3 10 0 55 
3 10 55 56 
3 7 8 57 
3 7 57 58 
3 8 10 56 
3 8 56 57 
3 54 53 59 
3 54 59 60 
3 13 52 61 
3 13 61 62 
3 12 2 63 
3 12 63 64 
3 2 5 65 
3 2 65 63 
3 5 66 67 
3 5 67 65 
3 3 45 68 
3 3 68 69 
3 49 4 70 
3 49 70 71 
3 4 3 69 
3 4 69 70 
3 11 1 72 
3 11 72 73 
3 6 14 74 
3 6 74 75 
3 47 9 76 
3 47 76 77 
3 20 40 39 
3 66 5 40 
3 66 40 48 
3 39 40 5 
3 39 21 20 
3 5 2 39 
3 78 18 6 
3 78 6 42 
3 79 6 75 
3 79 75 80 
3 76 9 41 
3 76 41 43 
3 43 81 76 
3 17 82 16 
3 41 9 16 
3 41 16 82 
3 82 50 41 
