ply
format ascii 1.0
comment VCGLIB generated
comment TextureFile Dungeons_2_Texture_01_A.png
element vertex 353
property float x
property float y
property float z
property float nx
property float ny
property float nz
property uchar red
property uchar green
property uchar blue
property uchar alpha
property float texture_u
property float texture_v
element face 500
property list uchar int vertex_indices
end_header
5.135742 -22.90051 494.6797 -0.06440643 -0.991094 0.1165526 192 192 192 255 0.042541 0.54366
-0.038086 -20.44305 1.771484 -0.9934303 -0.1139938 -0.01008963 192 192 192 255 0.040553 0.733349
67.26953 -1.015915 273.0928 -0.01475249 0.9998895 0.001865088 192 192 192 255 0.066412 0.628935
0.008789 -7.589436 268.8965 -0.9854435 0.166604 -0.03382573 192 192 192 255 0.040571 0.630549
43.84277 2.699249 45.85938 0.03308026 0.9989333 0.03221771 192 192 192 255 0.025364 0.968141
454.0078 2.65806 44.1709 -0.03168316 0.9989573 0.0328721 192 192 192 255 0.214997 0.717032
42.21484 2.817061 457.8936 0.02581313 0.9993246 -0.02615478 192 192 192 255 0.056786 0.557817
59.39941 -0.961875 59.44238 0.08379065 0.9915086 0.09944755 192 192 192 255 0.063389 0.711155
222.3906 -18.14989 500.001 -0.0002893007 -0.05550894 0.9984581 192 192 192 255 0.12601 0.541612
347.7422 -1.772907 2.49707 -0.1713809 0.7728883 -0.6109601 192 192 192 255 0.17417 0.733069
213.752 -3.724539 0.071289 0.07696224 0.4092662 -0.9091634 192 192 192 255 0.122691 0.734003
317.8896 -10.83501 0.008789 -0.01172091 0.2083132 -0.9779919 192 192 192 255 0.162701 0.734027
448.4092 0.854905 215.8945 -0.1620742 0.986703 -0.01221674 192 192 192 255 0.212846 0.650946
196.1221 0.608519 420.752 0.02408838 0.9920032 0.1238929 192 192 192 255 0.115917 0.57211
0.584961 0.319261 359.0039 -0.7408143 0.671335 -0.02244162 192 192 192 255 0.040792 0.595873
382.043 2.812234 366.4902 -0.0139791 0.9998266 -0.01229992 192 192 192 255 0.179436 0.822074
91.28906 -1.039953 197.6748 -0.01907373 0.9993489 0.03062494 192 192 192 255 0.075641 0.657958
43.03906 2.675243 492.2773 0.06377926 0.9525459 0.2976383 192 192 192 255 0.057103 0.544585
231.9678 -2.065397 414.3193 0.03181873 0.9994937 0.0002680008 192 192 192 255 0.129689 0.574586
295.0781 2.813074 332.2822 0.01154409 0.9999284 -0.00314854 192 192 192 255 0.139818 0.837658
34.32227 -21.69392 500.0322 -0.003880054 -0.6146231 0.7888113 192 192 192 255 0.053754 0.5416
0.201172 -22.8206 0.070313 -0.5883138 -0.5990831 -0.5431265 192 192 192 255 0.040645 0.734003
247.6914 0.988579 405.3467 -0.07828476 0.9553162 0.2850306 192 192 192 255 0.13573 0.578039
256.4062 2.813684 475.8545 0.09145765 0.9515083 0.2937134 192 192 192 255 0.122201 0.772252
413.0889 1.401189 460.4707 -0.1562326 0.8608627 -0.4842591 192 192 192 255 0.199276 0.556825
107.4219 1.27454 167.3047 -0.08074267 0.9964135 0.02531137 192 192 192 255 0.054329 0.912815
241.0596 2.813937 107.832 0.01206726 0.9992284 -0.0373781 192 192 192 255 0.115209 0.939909
260.8008 1.081477 85.32812 0.01525248 0.9994051 -0.03093104 192 192 192 255 0.140767 0.701193
265.9189 1.907912 99.00684 -0.02995728 0.9980641 -0.05450329 192 192 192 255 0.142733 0.695929
444.1211 -0.169203 256.6367 -0.1890147 0.981961 -0.00511972 192 192 192 255 0.211199 0.635267
88.97656 2.713568 308.0801 -0.1069015 0.9942679 -0.001866758 192 192 192 255 0.045926 0.848683
27.25684 -0.079942 499.9912 0.02600897 0.546275 0.837202 192 192 192 255 0.051039 0.541616
308.1904 2.807113 481.1855 -0.06039125 0.9922616 0.108489 192 192 192 255 0.158974 0.548853
118.0186 2.81418 391.8242 0.0005642181 0.9999567 0.009299322 192 192 192 255 0.059156 0.810533
234.7461 0.722988 396.2402 -0.06164563 0.9866542 0.1507098 192 192 192 255 0.130757 0.581543
346.3838 2.690553 88.88184 -0.002067884 0.9942638 -0.1069361 192 192 192 255 0.163191 0.948542
320.2314 0.346683 446.2197 0.01744577 0.9782714 -0.2065935 192 192 192 255 0.1636 0.562309
458.0244 -0.968158 144.4805 0.06279722 0.9922006 0.1076773 192 192 192 255 0.21654 0.678429
100.0098 1.6381 228.6992 -0.1435689 0.9859691 -0.08516479 192 192 192 255 0.050952 0.884846
143.9248 2.813792 191.6738 -0.02020647 0.9997956 0.0007061268 192 192 192 255 0.070958 0.901714
71.42285 -1.018026 302.123 -0.1013786 0.9948433 -0.003029602 192 192 192 255 0.068008 0.617763
6.87793 2.844002 6.666016 -0.08848248 0.9813501 -0.1706544 192 192 192 255 0.008524 0.985996
379.8311 2.52992 299.5088 -0.09429767 0.9954076 0.01648091 192 192 192 255 0.178429 0.852588
0.032227 -5.982386 328.0596 -0.9921728 0.1236 -0.01778056 192 192 192 255 0.04058 0.607781
215.1543 1.632651 6.010742 0.1116037 0.8988813 -0.4237417 192 192 192 255 0.12323 0.731717
354.8916 0.520494 299.6445 0.1818737 0.9758461 0.1210223 192 192 192 255 0.176917 0.618716
279.0762 0.010275 84.99414 0.03749636 0.9666969 0.2531624 192 192 192 255 0.147788 0.701322
364.1387 -0.064706 297.9062 -0.03490876 0.9971777 0.06646913 192 192 192 255 0.180469 0.619385
81.0918 0.99653 123.1094 -0.1640839 0.9864316 0.005405863 192 192 192 255 0.071723 0.686653
327.3721 2.805948 96.8877 -0.03434802 0.9989142 -0.03147521 192 192 192 255 0.15453 0.944895
225.6846 1.50497 485.21 0.09855094 0.9555671 0.2778114 192 192 192 255 0.127275 0.547304
193.7285 2.785668 495.0557 0.06955217 0.9363002 0.3442447 192 192 192 255 0.114998 0.543515
402.3154 2.810194 336.0986 0.005888443 0.9999827 3.980878e-05 192 192 192 255 0.188672 0.835919
277.4541 2.814092 25.22754 0.03627381 0.9919384 -0.1214188 192 192 192 255 0.131789 0.97754
349.0322 0.611196 342.4785 0.08309024 0.9956537 0.04206688 192 192 192 255 0.174665 0.602232
0.881836 0.628584 112.124 -0.8420368 0.5394052 0.004020237 192 192 192 255 0.040906 0.690881
387.9824 2.814616 323.0527 -0.04730622 0.9988802 -0.000747181 192 192 192 255 0.182142 0.841862
332.3418 2.947641 22.31836 -0.03470468 0.9977406 -0.05752682 192 192 192 255 0.168253 0.725441
496.1689 -22.90052 3.362305 0.009639744 -0.9998544 -0.01408165 192 192 192 255 0.231195 0.732737
258.874 -6.18553 0.223633 -0.007977095 0.5469379 -0.8371353 192 192 192 255 0.140027 0.733944
309.2158 2.226199 324.9717 0.02485859 0.9996262 -0.01138334 192 192 192 255 0.146259 0.840988
486.5928 -5.445779 499.0029 0.1755711 0.5593187 0.8101466 192 192 192 255 0.227516 0.541996
490.4443 2.811062 175.1758 -0.01351955 0.999651 -0.0226981 192 192 192 255 0.22882 0.90923
275.1924 2.81373 123.6064 0.001110296 0.9998732 -0.01588595 192 192 192 255 0.130759 0.932723
428.5898 -1.021888 71.4541 0.0253939 0.9993734 -0.02465653 192 192 192 255 0.205231 0.706532
0.009766 -21.956 143.6162 -0.9198852 -0.3921872 -0.0006925937 192 192 192 255 0.040571 0.678762
238.5439 1.029699 81.41309 -0.00464093 0.9899983 -0.1410035 192 192 192 255 0.132216 0.7027
32.11621 2.813517 291.6729 -0.02917733 0.9995692 0.003176508 192 192 192 255 0.020022 0.856158
350.041 2.479859 299.7598 0.2186892 0.953302 0.2083035 192 192 192 255 0.164857 0.852474
380.5137 0.465593 446.917 -0.02786321 0.9858926 -0.165044 192 192 192 255 0.186761 0.562041
86.10254 -0.26503 181.8408 -0.01041478 0.9998444 0.01423823 192 192 192 255 0.073648 0.664052
181.6299 2.476279 410.7295 0.01576202 0.9950918 0.09769298 192 192 192 255 0.11035 0.575967
2.003906 -4.121983 264.0098 -0.656823 0.7533996 0.03118876 192 192 192 255 0.041337 0.63243
194.6846 -0.995966 499.9834 0.08643021 0.3925378 0.9156658 192 192 192 255 0.115365 0.541619
126.417 2.811618 163.5654 -0.0321196 0.9993477 0.01650607 192 192 192 255 0.062982 0.914519
471.5127 2.380746 173.3291 -0.1808501 0.9584701 -0.2205185 192 192 192 255 0.220196 0.910071
275.876 -0.889468 11.32129 0.01059734 0.9470811 -0.3208195 192 192 192 255 0.146559 0.729674
494.9746 2.82181 477.1191 0.2831316 0.9431751 0.1739462 192 192 192 255 0.230736 0.550418
308.582 2.247408 33.89551 -0.02844863 0.9970552 -0.07121497 192 192 192 255 0.159125 0.720986
1.072266 -22.78666 3.986328 -0.5359623 -0.843568 0.03372392 192 192 192 255 0.040979 0.732496
360.2979 2.812657 377.249 -0.001454259 0.9998074 -0.01957691 192 192 192 255 0.16953 0.817173
461.4941 2.812813 482.5264 0.0389743 0.9980375 0.04901196 192 192 192 255 0.215632 0.769212
427.1738 2.766618 456.3604 -0.04673908 0.9900292 -0.1328824 192 192 192 255 0.199996 0.781133
88.0166 -0.628479 164.0459 0.05603735 0.9967355 0.05812119 192 192 192 255 0.074383 0.6709
205.0947 2.814015 106.2891 0.01055731 0.9998511 -0.01365263 192 192 192 255 0.098825 0.940612
237.1953 -4.567209 3.728516 0.05770401 0.7031457 -0.7087005 192 192 192 255 0.131698 0.732596
340.3252 2.793281 335.1328 0.05124227 0.9985518 -0.01639102 192 192 192 255 0.160431 0.836359
332.3652 2.481835 313.7344 0.05703518 0.9958526 0.07088511 192 192 192 255 0.156805 0.846108
100.6553 1.729154 494.9219 -0.1151342 0.9438692 0.3096046 192 192 192 255 0.079239 0.543567
188.2852 -0.043899 0.078125 0.03240588 0.4724638 -0.8807542 192 192 192 255 0.112907 0.734
476.2158 -0.200273 492.2295 0.1212507 0.9252071 0.3595693 192 192 192 255 0.223529 0.544603
0.53125 0.293263 497.248 -0.5412664 0.6582242 0.5232319 192 192 192 255 0.040772 0.542672
-0.010742 -1.58294 1.554688 -0.9596068 0.2344903 -0.1554639 192 192 192 255 0.040563 0.733432
498.4688 -6.541798 494.2744 0.6829361 0.5330471 0.4994587 192 192 192 255 0.232079 0.543816
298.9863 -0.011441 16.5166 -0.01243275 0.9766897 -0.2142958 192 192 192 255 0.155438 0.727674
458.1963 2.82276 117.6699 -0.07966051 0.9965774 0.02208126 192 192 192 255 0.214129 0.935427
286.123 -2.473756 6.624023 0.0263774 0.9480447 -0.3170418 192 192 192 255 0.150496 0.731481
206.3682 -4.780667 499.626 0.08569655 0.3883809 0.9175056 192 192 192 255 0.119854 0.541757
250.2539 -22.78609 499.334 -0.001998554 -0.7539363 0.6569446 192 192 192 255 0.136715 0.541869
5.649414 -22.90052 3.193359 -0.008015699 -0.9999259 -0.00917084 192 192 192 255 0.042738 0.732802
245.502 -0.772405 426.5771 -0.01929529 0.9995917 0.02107347 192 192 192 255 0.134889 0.569868
469.2637 2.813093 119.543 -0.0006927964 0.9986622 0.05170508 192 192 192 255 0.219171 0.934574
265.4404 -15.00025 499.9961 -0.009111125 0.2488464 0.9685001 192 192 192 255 0.14255 0.541614
365.6514 1.971353 327.2402 0.0210771 0.9991148 -0.03640807 192 192 192 255 0.181051 0.608097
478.499 -0.020573 150.6113 -0.06007984 0.9975683 -0.03532569 192 192 192 255 0.224407 0.67607
495.0449 2.713867 157.7432 0.08655037 0.9962464 -0.001473305 192 192 192 255 0.230916 0.917171
237.5869 0.71185 11.43359 0.05577014 0.9076096 -0.4160942 192 192 192 255 0.131848 0.72963
499.8506 -22.78874 0.111328 0.5650703 -0.5908659 -0.5758238 192 192 192 255 0.23261 0.733988
194.1523 2.814237 397.0244 0.01728099 0.9989157 0.04323142 192 192 192 255 0.09384 0.808164
71.47461 -1.020334 428.6416 -0.02434323 0.9994081 0.02431131 192 192 192 255 0.068028 0.569074
355.1865 2.811921 283.1211 0.04051423 0.9975528 0.05698362 192 192 192 255 0.17703 0.625075
231.6514 2.81126 473.1172 0.004579176 0.9989848 0.04481529 192 192 192 255 0.110923 0.773499
319.7236 2.808907 481.7334 -0.01203344 0.9988999 0.04532441 192 192 192 255 0.151046 0.769574
205.6709 2.726377 89.1123 0.0379803 0.9946787 -0.09576906 192 192 192 255 0.099087 0.948437
411.0029 2.688926 88.8457 0.07806993 0.9937865 -0.07933173 192 192 192 255 0.198475 0.699839
387.6182 2.811111 251.9834 0.0006313473 0.9999973 0.002268081 192 192 192 255 0.181976 0.874239
2.205078 1.597282 3.620117 -0.42405 0.8816063 -0.2072485 192 192 192 255 0.041415 0.732637
4.741211 2.738403 197.7637 -0.2498827 0.9679452 0.02531498 192 192 192 255 0.007551 0.898939
376.4746 -0.946256 440.6855 -0.01246301 0.996024 -0.08820926 192 192 192 255 0.185209 0.564439
89.72559 2.797556 262.7148 -0.1241152 0.9920388 -0.02131929 192 192 192 255 0.046267 0.86935
231.0303 -2.054216 491.2676 0.09880699 0.8668222 0.4887296 192 192 192 255 0.129329 0.544973
70.60352 -6.427941 499.4033 -0.0128196 0.5346609 0.8449695 192 192 192 255 0.067693 0.541842
293.8711 -3.151532 499.6035 -0.07893594 0.6258411 0.7759459 192 192 192 255 0.153473 0.541765
440.6875 -0.984609 59.67188 -0.1021408 0.9911 0.08536994 192 192 192 255 0.209879 0.711066
287.2744 2.804217 101.1406 0.05066526 0.9957064 -0.07747149 192 192 192 255 0.136263 0.942957
16.92871 1.169139 293.4551 -0.1521195 0.9883568 -0.003244671 192 192 192 255 0.047071 0.621098
73.18359 -0.820698 73.04395 -0.03207352 0.998997 -0.0312463 192 192 192 255 0.068685 0.70592
259.4668 1.764225 107.1123 0.01610523 0.9982179 -0.05746093 192 192 192 255 0.123595 0.940237
300.9131 -4.921608 3.301758 0.06650566 0.8581279 -0.5091105 192 192 192 255 0.156178 0.73276
498.3125 -0.072874 -0.006836 0.06850027 0.5007063 -0.8629027 192 192 192 255 0.232019 0.734033
38.22949 -6.887078 499.9932 0.04386717 0.1108974 0.9928632 192 192 192 255 0.055255 0.541615
114.8301 2.251416 207.9033 -0.1337112 0.9753893 -0.1753199 192 192 192 255 0.057704 0.89432
0.868164 -2.334101 282.0889 -0.7845938 0.6198039 0.01599549 192 192 192 255 0.040901 0.625473
364.0088 0.02304 0.172852 -0.04366823 0.5086466 -0.8598673 192 192 192 255 0.180419 0.733964
500.043 -21.62757 1.707031 0.9973187 -0.05930134 -0.04287999 192 192 192 255 0.232684 0.733374
498.3359 -21.50389 -0.041992 0.03753369 -0.04454062 -0.9983023 192 192 192 255 0.232028 0.734047
455.9668 2.688822 454.8809 -0.04212567 0.9986002 -0.03198494 192 192 192 255 0.213113 0.781807
440.4004 -0.976175 440.4951 -0.08846017 0.991954 -0.09056539 192 192 192 255 0.209769 0.564512
496.2607 -22.90054 495.0459 0.01274147 -0.9998817 0.008624546 192 192 192 255 0.231231 0.543519
159.9121 0.554622 499.084 0.005498774 0.5803596 0.8143418 192 192 192 255 0.102006 0.541965
500.0557 -21.48103 500.0859 0.6659541 -0.09615792 0.7397694 192 192 192 255 0.232689 0.541579
314.6963 2.78683 456.5986 0.01436097 0.9938943 -0.1093979 192 192 192 255 0.161474 0.558315
440.8154 -0.93408 187.0996 -0.03799604 0.9991943 -0.0129265 192 192 192 255 0.209929 0.662028
0.806641 -0.15355 -0.044922 -0.5274743 0.5181727 -0.6732519 192 192 192 255 0.040877 0.734048
0.539063 0.21374 210.4297 -0.766315 0.640272 0.05303892 192 192 192 255 0.040775 0.65305
293.4824 2.725028 410.875 -0.01356677 0.9940445 0.1081277 192 192 192 255 0.153323 0.575911
307.0811 0.988474 81.13867 -0.02347071 0.9933689 -0.1125497 192 192 192 255 0.158548 0.702805
456.125 2.722306 273.9326 -0.1194228 0.992508 -0.02580873 192 192 192 255 0.213186 0.86424
454.6748 2.755177 495.1826 0.07641294 0.931343 0.3560355 192 192 192 255 0.215253 0.543466
424.1406 -0.955029 440.7891 -0.0150424 0.995035 -0.09838234 192 192 192 255 0.203522 0.564399
101.583 -0.437196 209.5732 -0.1205175 0.990634 -0.06418621 192 192 192 255 0.079596 0.653379
375.1045 1.347421 321.7549 -0.08012366 0.9965612 -0.02112047 192 192 192 255 0.184682 0.610208
89.16895 2.723921 483.8965 -0.05552353 0.9912765 0.119533 192 192 192 255 0.046013 0.768588
218.6299 1.322944 87.58594 0.04246895 0.995589 -0.08365967 192 192 192 255 0.104991 0.949132
292.3662 2.812712 398.5684 -0.009034947 0.9999029 0.01061106 192 192 192 255 0.138583 0.80746
100.5879 2.814289 127.3096 -0.04303024 0.9989495 0.01575806 192 192 192 255 0.051215 0.931036
59.48926 -0.957518 440.54 0.08144418 0.993363 -0.08122093 192 192 192 255 0.063423 0.564495
0.630859 -22.78663 250.8359 -0.4984867 -0.8668972 0.0004804877 192 192 192 255 0.04081 0.6375
82.72559 1.305974 157.3018 -0.01840782 0.998008 0.06034423 192 192 192 255 0.072351 0.673495
454.7363 -1.215896 500.0107 0.0561124 0.4506688 0.8909259 192 192 192 255 0.215277 0.541608
336.5186 0.347338 499.3848 -0.06989186 0.5860407 0.8072617 192 192 192 255 0.169858 0.541849
17.3252 2.810445 315.958 -0.1573963 0.9870772 -0.03008442 192 192 192 255 0.013284 0.845095
77.00586 0.081884 183.9541 -0.07430849 0.9971684 0.01155369 192 192 192 255 0.070153 0.663238
266.335 -7.995545 495.0537 -0.01464175 0.675657 0.7370707 192 192 192 255 0.142893 0.543516
216.5625 1.363535 401.1729 0.1232531 0.9526221 0.2780645 192 192 192 255 0.123771 0.579645
70.02051 -9.117958 499.999 -0.007830882 0.09903176 0.9950535 192 192 192 255 0.067469 0.541613
495.293 2.743159 4.571289 0.2159443 0.9538954 -0.2084507 192 192 192 255 0.231029 0.986951
281.1152 -0.150677 484.8389 -0.07941218 0.9554149 0.2843874 192 192 192 255 0.148572 0.547447
0.426758 -22.7899 483.9092 -0.6835678 -0.729879 0.003456758 192 192 192 255 0.040731 0.547805
474.625 -13.42593 499.9951 0.01119693 -0.003996966 0.9999294 192 192 192 255 0.222918 0.541614
0.632813 -22.78836 438.3379 -0.6334231 -0.773798 0.003446525 192 192 192 255 0.040811 0.565342
0.633789 -22.78817 375.8613 -0.5326338 -0.8463458 -6.132554e-07 192 192 192 255 0.040811 0.589386
495.3516 2.731046 119.4102 0.2295613 0.9732012 0.01345938 192 192 192 255 0.231056 0.934634
463.376 -0.053354 173.9463 -0.1510004 0.9845539 -0.08861472 192 192 192 255 0.218596 0.66709
88.78711 2.668216 88.76758 -0.08280991 0.9932666 -0.08101849 192 192 192 255 0.045839 0.948594
324.5195 0.235776 12.06836 -0.04241809 0.9134268 -0.4047867 192 192 192 255 0.165248 0.729386
73.51562 2.810291 479.5957 0.01298204 0.9929093 0.1181638 192 192 192 255 0.068812 0.549465
0.990234 -3.889426 314.6611 -0.8035026 0.5936109 -0.04483009 192 192 192 255 0.040948 0.612938
0.143555 -21.52697 499.8486 -0.5968275 -0.505222 0.623336 192 192 192 255 0.040623 0.541671
88.90527 2.675384 411.1162 -0.07844608 0.99382 0.07853725 192 192 192 255 0.074725 0.575818
489.4521 1.493456 160.2842 -0.1549308 0.9871847 -0.03824729 192 192 192 255 0.228368 0.916014
456.2832 -22.81454 499.0664 0.004047266 -0.7407964 0.6717174 192 192 192 255 0.215871 0.541972
495.1289 2.741822 247.0439 0.223479 0.9747087 -0.0001466236 192 192 192 255 0.230954 0.876489
331.75 2.81231 265.8145 -6.974249e-05 0.9999959 0.002875827 192 192 192 255 0.156525 0.867938
206.9707 2.814137 12.70117 0.01508856 0.9970432 -0.07534678 192 192 192 255 0.09968 0.983247
293.0488 1.516172 478.415 -0.04872178 0.9912968 0.1222978 192 192 192 255 0.138894 0.771085
241.8848 -11.10075 0.00293 -0.01558371 0.2033539 -0.9789813 192 192 192 255 0.133499 0.734029
247.1143 -5.851225 499.4941 0.04936946 0.7634245 0.6440076 192 192 192 255 0.135509 0.541807
499.8242 -22.78687 499.6387 0.5159269 -0.6933033 0.5031402 192 192 192 255 0.2326 0.541752
186.085 1.672446 2.3125 0.01480895 0.9251891 -0.3792175 192 192 192 255 0.112061 0.733141
356.292 -0.036344 317.0371 0.009618173 0.9978079 -0.06547492 192 192 192 255 0.177455 0.612023
306.9883 2.809738 348.4551 0.004157474 0.9999527 -0.008799404 192 192 192 255 0.145244 0.83029
4.685547 2.752123 495.3887 -0.2117689 0.9066687 0.3648367 192 192 192 255 0.007526 0.763353
465.9033 2.811835 266.4922 -0.03883345 0.999131 -0.0151434 192 192 192 255 0.21764 0.867629
373.6475 2.813133 465.5537 -0.008335619 0.9971373 -0.07515147 192 192 192 255 0.175612 0.776944
355.4824 2.341245 32.10059 0.003113574 0.9999911 -0.002850245 192 192 192 255 0.167336 0.974409
-0.001953 -18.5131 495.7988 -0.9995 -0.03112136 0.005593274 192 192 192 255 0.040567 0.543229
318.2422 2.805598 119.3955 -0.01314921 0.9996768 -0.02176015 192 192 192 255 0.150371 0.934641
306.3848 0.866141 100.0156 -0.02892509 0.9986925 -0.04215069 192 192 192 255 0.144969 0.94347
215.3369 2.813412 399.4248 0.07114167 0.9241212 0.3754185 192 192 192 255 0.103491 0.80707
13.8916 2.667164 234.4238 -0.1895119 0.9818722 0.003514167 192 192 192 255 0.01172 0.882238
368.042 1.139326 338.2354 -0.03786549 0.999274 0.004223299 192 192 192 255 0.173058 0.834946
115.8828 1.670141 183.9365 -0.06340637 0.9968187 0.04829251 192 192 192 255 0.058183 0.905239
236.5771 -8.313524 499.9941 0.04337167 0.404978 0.9132972 192 192 192 255 0.13146 0.541615
9.572266 0.889841 319.5625 -0.3425087 0.9302689 -0.1314821 192 192 192 255 0.044245 0.611051
314.0908 0.536777 12.33691 -0.03702316 0.9417498 -0.3342704 192 192 192 255 0.161241 0.729283
-0.000977 -18.8482 284.3008 -0.9996702 0.02534684 0.004120315 192 192 192 255 0.040567 0.624621
-0.00293 -21.54085 378.4785 -0.9723482 -0.2335358 3.854852e-05 192 192 192 255 0.040566 0.588378
45.55176 -1.541652 497.7656 0.08620742 0.6166307 0.7825183 192 192 192 255 0.058068 0.542472
0.610352 -1.982636 246.7949 -0.7600842 0.6458564 0.07170413 192 192 192 255 0.040802 0.639055
348.2617 1.937015 464.2646 -0.005035881 0.9948725 -0.1010121 192 192 192 255 0.164047 0.777532
224.6934 -1.01776 431.6201 0.005064347 0.9995528 0.02947069 192 192 192 255 0.126895 0.567928
428.4199 -1.018633 428.3701 0.02523097 0.9993767 0.02469007 192 192 192 255 0.205166 0.569178
13.65723 2.614902 345.1777 -0.1151764 0.9932476 -0.01391074 192 192 192 255 0.011613 0.831783
336.9902 2.811596 365.5488 0.02275707 0.9995885 -0.01745944 192 192 192 255 0.158912 0.822503
314.9844 2.814046 267.9824 0.0007236525 0.9999975 0.00212746 192 192 192 255 0.148887 0.866951
237.9756 2.814127 381.3369 -0.008775693 0.9995297 0.02938574 192 192 192 255 0.113804 0.81531
499.8828 -0.028793 476.3125 0.8427438 0.5277919 0.1059189 192 192 192 255 0.232622 0.550728
-0.054688 -1.423865 498.1709 -0.6971029 0.2989852 0.6516559 192 192 192 255 0.040546 0.542316
226.1367 -0.815238 73.14941 -0.001950839 0.9955038 -0.09470185 192 192 192 255 0.127449 0.70588
335.4404 1.543921 319.3447 0.06044757 0.9980946 0.01238271 192 192 192 255 0.169443 0.611135
338.2773 2.723922 495.0254 -0.07999212 0.9608182 0.2653859 192 192 192 255 0.159498 0.763518
247.9414 -5.6752 496.0439 0.112998 0.9305075 0.3484066 192 192 192 255 0.135826 0.543135
378.6016 -21.56002 499.9717 0.0007069134 -0.2841795 0.9587709 192 192 192 255 0.186026 0.541623
288.333 -4.927064 0.003906 0.02872926 0.5894001 -0.8073304 192 192 192 255 0.151345 0.734029
499.8359 -0.146647 0.166016 0.6663558 0.4535566 -0.5918247 192 192 192 255 0.232604 0.733967
463.5928 2.813807 247.0547 -0.07247249 0.9973661 0.002927658 192 192 192 255 0.216588 0.876484
245.3457 2.802173 401.3018 -0.1926941 0.9285557 0.317259 192 192 192 255 0.117162 0.806215
4.71875 2.762599 416.8564 -0.2985541 0.9543887 0.002759462 192 192 192 255 0.04238 0.573609
71.37988 -1.02371 231.8662 -0.009192578 0.9999516 -0.003525519 192 192 192 255 0.067992 0.6448
76.34277 -0.570994 252.6309 -0.1160288 0.9927253 -0.03215519 192 192 192 255 0.069898 0.636809
269.626 1.680413 473.1562 0.07806116 0.9148088 0.3962718 192 192 192 255 0.128223 0.773481
499.917 -22.83421 14.72656 0.6757692 -0.7371134 -0.0001149818 192 192 192 255 0.232635 0.728363
13.60449 2.405719 210.4365 -0.1044627 0.9941025 0.02911555 192 192 192 255 0.011589 0.893166
111.6465 2.685607 495.4355 -0.01848134 0.9441841 0.3288996 192 192 192 255 0.056253 0.763331
135.4248 2.223893 413.2861 0.0007021209 0.9928114 0.1196877 192 192 192 255 0.067086 0.800756
499.9141 -22.76807 248.7344 0.6800274 -0.7331867 1.509048e-06 192 192 192 255 0.232634 0.638309
96.15039 -1.154079 500.0039 -0.09949099 0.5616065 0.8214011 192 192 192 255 0.077508 0.541611
405.1357 2.761043 495.4824 0.003335166 0.9455421 0.3254828 192 192 192 255 0.19622 0.543351
75.15723 -1.090753 491.5576 -0.03119024 0.9087179 0.4162438 192 192 192 255 0.069443 0.544861
410.9629 2.715795 410.8486 0.07942865 0.9936527 0.0796584 192 192 192 255 0.192611 0.801866
289.9922 2.704338 43.83398 0.01083658 0.9960168 0.08850539 192 192 192 255 0.151982 0.717162
214.3086 0.008403 416.4863 0.06388685 0.9963543 0.05653868 192 192 192 255 0.122905 0.573752
448.041 0.781319 145.6084 -0.04441025 0.9974446 0.05596469 192 192 192 255 0.212705 0.677995
355.6201 -22.82325 0.0625 -7.706358e-06 -0.7255421 -0.6881778 192 192 192 255 0.177197 0.734006
326.7041 -6.942571 1.431641 -0.07820194 0.6494756 -0.7563504 192 192 192 255 0.166087 0.733479
405.4912 2.78252 464.21 -0.0153517 0.9819689 -0.1884181 192 192 192 255 0.190119 0.777557
362.4668 2.730052 4.5625 -0.05938577 0.9505553 -0.3048244 192 192 192 255 0.170518 0.986955
369.6553 1.961895 282.4893 -0.007891811 0.9981751 0.05986855 192 192 192 255 0.182589 0.625319
497.2568 1.89359 159.7988 0.4850355 0.8744945 2.450476e-05 192 192 192 255 0.231613 0.672534
12.91602 2.809887 271.3271 -0.2481543 0.9687155 0.003107412 192 192 192 255 0.011275 0.865427
81.06738 -0.696788 242.6875 -0.09952865 0.993517 -0.0549363 192 192 192 255 0.071713 0.640636
43.84277 2.699249 45.85938 0.03308026 0.9989333 0.03221771 192 192 192 255 0.057412 0.716382
456.125 2.722306 273.9326 -0.1194228 0.992508 -0.02580873 192 192 192 255 0.215811 0.628611
455.9668 2.688822 454.8809 -0.04212567 0.9986002 -0.03198494 192 192 192 255 0.21575 0.558976
193.7285 2.785668 495.0557 0.06955217 0.9363002 0.3442447 192 192 192 255 0.093647 0.763504
42.21484 2.817061 457.8936 0.02581313 0.9993246 -0.02615478 192 192 192 255 0.024623 0.780434
454.0078 2.65806 44.1709 -0.03168316 0.9989573 0.0328721 192 192 192 255 0.212221 0.968911
43.03906 2.675243 492.2773 0.06377926 0.9525459 0.2976383 192 192 192 255 0.024998 0.76477
88.90527 2.675384 411.1162 -0.07844608 0.99382 0.07853725 192 192 192 255 0.045893 0.801744
88.97656 2.713568 308.0801 -0.1069015 0.9942679 -0.001866758 192 192 192 255 0.074752 0.61547
448.041 0.781319 145.6084 -0.04441025 0.9974446 0.05596469 192 192 192 255 0.209503 0.922699
13.65723 2.614902 345.1777 -0.1151764 0.9932476 -0.01391074 192 192 192 255 0.045815 0.601194
410.9629 2.715795 410.8486 0.07942865 0.9936527 0.0796584 192 192 192 255 0.198459 0.575921
346.3838 2.690553 88.88184 -0.002067884 0.9942638 -0.1069361 192 192 192 255 0.173648 0.699826
411.0029 2.688926 88.8457 0.07806993 0.9937865 -0.07933173 192 192 192 255 0.19263 0.948558
319.7236 2.808907 481.7334 -0.01203344 0.9988999 0.04532441 192 192 192 255 0.163405 0.548642
497.2568 1.89359 159.7988 0.4850355 0.8744945 2.450476e-05 192 192 192 255 0.231924 0.916235
461.4941 2.812813 482.5264 0.0389743 0.9980375 0.04901196 192 192 192 255 0.217873 0.548337
4.685547 2.752123 495.3887 -0.2117689 0.9066687 0.3648367 192 192 192 255 0.042368 0.543387
362.4668 2.730052 4.5625 -0.05938577 0.9505553 -0.3048244 192 192 192 255 0.179827 0.732275
340.3252 2.793281 335.1328 0.05124227 0.9985518 -0.01639102 192 192 192 255 0.17132 0.605059
336.9902 2.811596 365.5488 0.02275707 0.9995885 -0.01745944 192 192 192 255 0.170039 0.593354
308.1904 2.807113 481.1855 -0.06039125 0.9922616 0.108489 192 192 192 255 0.145792 0.769823
489.4521 1.493456 160.2842 -0.1549308 0.9871847 -0.03824729 192 192 192 255 0.228615 0.672347
471.5127 2.380746 173.3291 -0.1808501 0.9584701 -0.2205185 192 192 192 255 0.221722 0.667327
205.6709 2.726377 89.1123 0.0379803 0.9946787 -0.09576906 192 192 192 255 0.119586 0.699737
88.78711 2.668216 88.76758 -0.08280991 0.9932666 -0.08101849 192 192 192 255 0.074679 0.69987
314.6963 2.78683 456.5986 0.01436097 0.9938943 -0.1093979 192 192 192 255 0.148756 0.781024
293.0488 1.516172 478.415 -0.04872178 0.9912968 0.1222978 192 192 192 255 0.153157 0.549919
269.626 1.680413 473.1562 0.07806116 0.9148088 0.3962718 192 192 192 255 0.144158 0.551943
293.4824 2.725028 410.875 -0.01356677 0.9940445 0.1081277 192 192 192 255 0.139091 0.801854
234.7461 0.722988 396.2402 -0.06164563 0.9866542 0.1507098 192 192 192 255 0.112333 0.808521
247.6914 0.988579 405.3467 -0.07828476 0.9553162 0.2850306 192 192 192 255 0.118231 0.804372
307.0811 0.988474 81.13867 -0.02347071 0.9933689 -0.1125497 192 192 192 255 0.145286 0.952069
306.3848 0.866141 100.0156 -0.02892509 0.9986925 -0.04215069 192 192 192 255 0.15828 0.695541
465.9033 2.811835 266.4922 -0.03883345 0.999131 -0.0151434 192 192 192 255 0.219567 0.631475
355.1865 2.811921 283.1211 0.04051423 0.9975528 0.05698362 192 192 192 255 0.167202 0.860054
81.0918 0.99653 123.1094 -0.1640839 0.9864316 0.005405863 192 192 192 255 0.042334 0.932949
194.1523 2.814237 397.0244 0.01728099 0.9989157 0.04323142 192 192 192 255 0.115161 0.581241
89.16895 2.723921 483.8965 -0.05552353 0.9912765 0.119533 192 192 192 255 0.074826 0.54781
181.6299 2.476279 410.7295 0.01576202 0.9950918 0.09769298 192 192 192 255 0.088135 0.80192
332.3418 2.947641 22.31836 -0.03470468 0.9977406 -0.05752682 192 192 192 255 0.156794 0.978866
495.293 2.743159 4.571289 0.2159443 0.9538954 -0.2084507 192 192 192 255 0.230859 0.732271
495.3516 2.731046 119.4102 0.2295613 0.9732012 0.01345938 192 192 192 255 0.230881 0.688077
218.6299 1.322944 87.58594 0.04246895 0.995589 -0.08365967 192 192 192 255 0.124565 0.700324
9.572266 0.889841 319.5625 -0.3425087 0.9302689 -0.1314821 192 192 192 255 0.009752 0.843452
494.9746 2.82181 477.1191 0.2831316 0.9431751 0.1739462 192 192 192 255 0.230884 0.771676
215.1543 1.632651 6.010742 0.1116037 0.8988813 -0.4237417 192 192 192 255 0.103408 0.986295
186.085 1.672446 2.3125 0.01480895 0.9251891 -0.3792175 192 192 192 255 0.090165 0.98798
256.4062 2.813684 475.8545 0.09145765 0.9515083 0.2937134 192 192 192 255 0.139079 0.550905
82.72559 1.305974 157.3018 -0.01840782 0.998008 0.06034423 192 192 192 255 0.043078 0.917372
100.5879 2.814289 127.3096 -0.04303024 0.9989495 0.01575806 192 192 192 255 0.079213 0.685037
107.4219 1.27454 167.3047 -0.08074267 0.9964135 0.02531137 192 192 192 255 0.081839 0.669646
13.8916 2.667164 234.4238 -0.1895119 0.9818722 0.003514167 192 192 192 255 0.045905 0.643816
13.60449 2.405719 210.4365 -0.1044627 0.9941025 0.02911555 192 192 192 255 0.045794 0.653047
375.1045 1.347421 321.7549 -0.08012366 0.9965612 -0.02112047 192 192 192 255 0.176275 0.842454
114.8301 2.251416 207.9033 -0.1337112 0.9753893 -0.1753199 192 192 192 255 0.084685 0.654022
143.9248 2.813792 191.6738 -0.02020647 0.9997956 0.0007061268 192 192 192 255 0.095863 0.660268
332.3652 2.481835 313.7344 0.05703518 0.9958526 0.07088511 192 192 192 255 0.168262 0.613294
6.87793 2.844002 6.666016 -0.08848248 0.9813501 -0.1706544 192 192 192 255 0.04321 0.731465
73.51562 2.810291 479.5957 0.01298204 0.9929093 0.1181638 192 192 192 255 0.038882 0.770547
115.8828 1.670141 183.9365 -0.06340637 0.9968187 0.04829251 192 192 192 255 0.08509 0.663245
469.2637 2.813093 119.543 -0.0006927964 0.9986622 0.05170508 192 192 192 255 0.220858 0.688026
17.3252 2.810445 315.958 -0.1573963 0.9870772 -0.03008442 192 192 192 255 0.047224 0.612438
338.2773 2.723922 495.0254 -0.07999212 0.9608182 0.2653859 192 192 192 255 0.170533 0.543527
373.6475 2.813133 465.5537 -0.008335619 0.9971373 -0.07515147 192 192 192 255 0.184123 0.554869
100.0098 1.6381 228.6992 -0.1435689 0.9859691 -0.08516479 192 192 192 255 0.078991 0.646019
89.72559 2.797556 262.7148 -0.1241152 0.9920388 -0.02131929 192 192 192 255 0.07504 0.632928
225.6846 1.50497 485.21 0.09855094 0.9555671 0.2778114 192 192 192 255 0.108205 0.76799
265.9189 1.907912 99.00684 -0.02995728 0.9980641 -0.05450329 192 192 192 255 0.126534 0.943929
463.5928 2.813807 247.0547 -0.07247249 0.9973661 0.002927658 192 192 192 255 0.21868 0.638955
289.9922 2.704338 43.83398 0.01083658 0.9960168 0.08850539 192 192 192 255 0.137501 0.969064
16.92871 1.169139 293.4551 -0.1521195 0.9883568 -0.003244671 192 192 192 255 0.013103 0.855346
12.91602 2.809887 271.3271 -0.2481543 0.9687155 0.003107412 192 192 192 255 0.04553 0.629614
350.041 2.479859 299.7598 0.2186892 0.953302 0.2083035 192 192 192 255 0.175053 0.618672
111.6465 2.685607 495.4355 -0.01848134 0.9441841 0.3288996 192 192 192 255 0.083462 0.543369
369.6553 1.961895 282.4893 -0.007891811 0.9981751 0.05986855 192 192 192 255 0.173793 0.860342
308.582 2.247408 33.89551 -0.02844863 0.9970552 -0.07121497 192 192 192 255 0.14597 0.973592
348.2617 1.937015 464.2646 -0.005035881 0.9948725 -0.1010121 192 192 192 255 0.174369 0.555365
495.0449 2.713867 157.7432 0.08655037 0.9962464 -0.001473305 192 192 192 255 0.230764 0.673325
368.042 1.139326 338.2354 -0.03786549 0.999274 0.004223299 192 192 192 255 0.181969 0.603865
360.2979 2.812657 377.249 -0.001454259 0.9998074 -0.01957691 192 192 192 255 0.178994 0.588852
427.1738 2.766618 456.3604 -0.04673908 0.9900292 -0.1328824 192 192 192 255 0.204687 0.558407
277.4541 2.814092 25.22754 0.03627381 0.9919384 -0.1214188 192 192 192 255 0.147165 0.724322
206.9707 2.814137 12.70117 0.01508856 0.9970432 -0.07534678 192 192 192 255 0.120086 0.729143
448.4092 0.854905 215.8945 -0.1620742 0.986703 -0.01221674 192 192 192 255 0.20967 0.89068
216.5625 1.363535 401.1729 0.1232531 0.9526221 0.2780645 192 192 192 255 0.104049 0.806274
495.1289 2.741822 247.0439 0.223479 0.9747087 -0.0001466236 192 192 192 255 0.230796 0.638959
4.741211 2.738403 197.7637 -0.2498827 0.9679452 0.02531498 192 192 192 255 0.042389 0.657924
2.205078 1.597282 3.620117 -0.42405 0.8816063 -0.2072485 192 192 192 255 0.006396 0.987384
238.5439 1.029699 81.41309 -0.00464093 0.9899983 -0.1410035 192 192 192 255 0.114063 0.951944
260.8008 1.081477 85.32812 0.01525248 0.9994051 -0.03093104 192 192 192 255 0.124203 0.950161
413.0889 1.401189 460.4707 -0.1562326 0.8608627 -0.4842591 192 192 192 255 0.19358 0.77926
287.2744 2.804217 101.1406 0.05066526 0.9957064 -0.07747149 192 192 192 255 0.150938 0.695108
405.1357 2.761043 495.4824 0.003335166 0.9455421 0.3254828 192 192 192 255 0.189957 0.76331
135.4248 2.223893 413.2861 0.0007021209 0.9928114 0.1196877 192 192 192 255 0.092598 0.574983
365.6514 1.971353 327.2402 0.0210771 0.9991148 -0.03640807 192 192 192 255 0.171969 0.839955
335.4404 1.543921 319.3447 0.06044757 0.9980946 0.01238271 192 192 192 255 0.158206 0.843552
379.8311 2.52992 299.5088 -0.09429767 0.9954076 0.01648091 192 192 192 255 0.186498 0.618769
4.71875 2.762599 416.8564 -0.2985541 0.9543887 0.002759462 192 192 192 255 0.007541 0.799129
100.6553 1.729154 494.9219 -0.1151342 0.9438692 0.3096046 192 192 192 255 0.051246 0.763565
454.6748 2.755177 495.1826 0.07641294 0.931343 0.3560355 192 192 192 255 0.212525 0.763447
3 138 99 58 
3 143 10 186 
3 225 140 134 
3 0 99 138 
3 8 20 98 
3 206 1 207 
3 92 1 206 
3 143 186 21 
3 211 156 212 
3 156 7 6 
3 36 156 6 
3 41 117 4 
3 184 41 4 
3 81 147 136 
3 97 51 73 
3 5 241 7 
3 64 114 212 
3 165 130 20 
3 7 252 6 
3 81 246 112 
3 118 156 36 
3 159 102 223 
3 167 163 122 
3 253 137 254 
3 111 234 255 
3 208 239 17 
3 126 162 48 
3 84 39 33 
3 218 206 196 
3 256 213 192 
3 247 257 166 
3 11 129 135 
3 256 152 111 
3 256 192 258 
3 21 11 135 
3 247 195 257 
3 21 186 11 
3 224 11 186 
3 245 128 205 
3 61 169 140 
3 217 225 249 
3 40 109 179 
3 33 30 259 
3 260 40 179 
3 48 162 158 
3 33 39 30 
3 166 257 172 
3 123 243 5 
3 29 142 137 
3 95 257 261 
3 256 161 213 
3 14 262 204 
3 80 154 240 
3 212 114 263 
3 35 216 215 
3 64 264 114 
3 35 215 265 
3 84 174 155 
3 64 146 264 
3 35 197 216 
3 49 198 197 
3 145 100 263 
3 215 216 227 
3 22 34 18 
3 164 242 18 
3 229 126 7 
3 123 7 219 
3 123 219 64 
3 142 64 212 
3 211 109 156 
3 40 2 109 
3 55 116 92 
3 266 32 160 
3 267 172 105 
3 187 203 8 
3 4 67 256 
3 238 160 159 
3 90 268 148 
3 52 15 240 
3 151 190 103 
3 248 110 47 
3 215 227 19 
3 64 219 146 
3 76 59 106 
3 91 269 228 
3 175 57 270 
3 86 154 214 
3 54 271 272 
3 214 154 80 
3 203 97 8 
3 97 237 165 
3 132 3 206 
3 210 273 112 
3 81 182 193 
3 153 113 84 
3 62 180 75 
3 274 173 275 
3 126 229 162 
3 86 191 154 
3 141 36 6 
3 39 131 38 
3 7 126 219 
3 276 126 277 
3 38 119 39 
3 160 102 159 
3 278 231 185 
3 279 280 167 
3 115 42 56 
3 172 257 101 
3 108 199 63 
3 102 8 223 
3 83 162 70 
3 52 56 15 
3 200 4 233 
3 4 117 233 
3 4 250 67 
3 67 161 256 
3 159 90 148 
3 92 21 1 
3 1 79 65 
3 89 143 189 
3 130 31 20 
3 17 31 208 
3 89 189 44 
3 81 112 221 
3 154 281 240 
3 227 282 283 
3 265 115 56 
3 284 198 49 
3 146 46 285 
3 158 162 83 
3 278 111 23 
3 278 256 111 
3 136 82 81 
3 82 246 81 
3 278 23 231 
3 193 147 81 
3 29 253 286 
3 68 183 87 
3 265 183 287 
3 211 100 242 
3 18 242 100 
3 277 126 48 
3 174 288 155 
3 26 84 33 
3 182 226 193 
3 197 63 216 
3 70 162 16 
3 190 271 103 
3 164 289 13 
3 63 199 216 
3 51 97 120 
3 77 93 217 
3 93 61 140 
3 165 20 8 
3 97 165 8 
3 287 183 68 
3 194 112 246 
3 71 13 289 
3 39 119 30 
3 229 7 2 
3 230 40 260 
3 290 176 239 
3 4 200 250 
3 279 167 122 
3 32 279 122 
3 50 51 120 
3 291 108 235 
3 33 259 235 
3 247 292 195 
3 57 205 78 
3 197 198 63 
3 140 188 236 
3 225 293 294 
3 35 49 197 
3 133 9 175 
3 243 123 142 
3 103 271 54 
3 34 164 18 
3 46 27 28 
3 270 133 175 
3 230 2 40 
3 183 265 215 
3 219 295 66 
3 161 296 213 
3 182 81 297 
3 18 100 145 
3 298 299 184 
3 10 89 44 
3 74 25 202 
3 15 201 80 
3 15 80 240 
3 280 300 120 
3 218 43 206 
3 43 177 206 
3 160 122 102 
3 155 288 301 
3 302 83 303 
3 209 304 305 
3 208 31 130 
3 229 2 230 
3 56 306 201 
3 72 209 3 
3 150 307 308 
3 9 133 11 
3 45 309 220 
3 310 143 116 
3 256 311 152 
3 111 152 234 
3 312 16 308 
3 294 313 104 
3 257 95 101 
3 154 283 281 
3 125 132 314 
3 53 184 4 
3 217 93 140 
3 46 146 27 
3 146 66 27 
3 160 238 315 
3 105 180 62 
3 122 163 102 
3 278 273 210 
3 122 160 32 
3 240 265 52 
3 127 26 63 
3 212 156 118 
3 212 118 149 
3 69 118 316 
3 78 94 241 
3 16 162 229 
3 124 63 198 
3 120 222 280 
3 106 10 44 
3 317 251 318 
3 209 144 206 
3 300 50 120 
3 23 111 319 
3 21 244 99 
3 0 98 20 
3 256 258 311 
3 176 17 239 
3 320 127 124 
3 164 13 242 
3 70 16 312 
3 312 303 70 
3 218 91 228 
3 59 224 186 
3 76 224 59 
3 275 173 12 
3 215 19 60 
3 215 60 87 
3 167 222 163 
3 105 62 182 
3 62 75 182 
3 182 75 226 
3 191 19 154 
3 265 56 52 
3 120 97 203 
3 26 33 63 
3 307 150 251 
3 100 212 263 
3 97 139 237 
3 31 178 20 
3 286 321 29 
3 222 203 187 
3 241 252 7 
3 53 4 322 
3 250 323 67 
3 304 72 324 
3 325 309 45 
3 212 100 211 
3 149 69 24 
3 24 69 316 
3 118 69 149 
3 313 243 37 
3 14 177 43 
3 177 14 204 
3 108 33 235 
3 139 51 326 
3 90 159 61 
3 9 245 175 
3 257 195 322 
3 115 287 327 
3 265 287 115 
3 115 327 42 
3 146 219 66 
3 292 328 195 
3 16 251 150 
3 207 157 171 
3 207 1 65 
3 65 79 157 
3 79 1 21 
3 79 99 157 
3 118 36 329 
3 36 141 329 
3 314 132 177 
3 187 8 102 
3 222 187 102 
3 294 104 330 
3 331 54 332 
3 332 54 272 
3 77 268 90 
3 137 149 333 
3 149 24 333 
3 334 106 335 
3 21 99 79 
3 219 276 295 
3 243 142 37 
3 85 59 186 
3 10 106 85 
3 224 128 11 
3 128 245 11 
3 280 222 167 
3 94 334 241 
3 237 326 88 
3 75 336 226 
3 143 89 10 
3 106 44 335 
3 216 199 337 
3 216 337 282 
3 47 110 45 
3 207 65 157 
3 91 218 269 
3 143 92 116 
3 330 104 274 
3 19 227 154 
3 154 227 283 
3 175 245 205 
3 101 95 261 
3 76 96 224 
3 138 236 188 
3 0 138 98 
3 99 0 157 
3 104 313 37 
3 190 220 271 
3 244 58 99 
3 58 236 138 
3 217 338 77 
3 84 155 74 
3 219 126 276 
3 173 142 12 
3 63 124 127 
3 116 55 339 
3 340 117 41 
3 341 153 26 
3 342 341 26 
3 251 230 318 
3 121 130 165 
3 343 246 82 
3 123 64 142 
3 67 323 161 
3 46 344 285 
3 81 221 345 
3 346 13 71 
3 346 109 13 
3 128 96 94 
3 249 225 294 
3 129 133 293 
3 320 342 127 
3 306 347 201 
3 88 121 237 
3 237 121 165 
3 177 132 206 
3 324 132 125 
3 196 206 207 
3 225 134 107 
3 134 140 236 
3 284 49 35 
3 135 244 21 
3 135 225 107 
3 129 225 135 
3 223 8 98 
3 225 129 293 
3 348 60 19 
3 348 19 191 
3 73 139 97 
3 139 73 51 
3 188 169 181 
3 47 45 190 
3 47 190 151 
3 349 47 151 
3 303 83 70 
3 321 12 29 
3 142 29 12 
3 132 72 3 
3 206 55 92 
3 55 144 339 
3 138 188 181 
3 109 211 13 
3 324 72 132 
3 142 212 137 
3 212 149 137 
3 31 218 178 
3 269 218 31 
3 0 20 178 
3 96 128 224 
3 109 2 156 
3 2 7 156 
3 253 29 137 
3 339 144 305 
3 113 174 84 
3 314 177 204 
3 171 0 170 
3 159 169 61 
3 170 207 171 
3 118 329 316 
3 37 142 173 
3 46 28 344 
3 189 143 310 
3 168 0 178 
3 16 150 308 
3 93 77 61 
3 22 18 145 
3 249 338 217 
3 267 105 182 
3 299 41 184 
3 5 7 123 
3 163 222 102 
3 248 47 349 
3 140 169 188 
3 133 270 293 
3 110 325 45 
3 213 350 192 
3 175 205 57 
3 94 96 334 
3 203 222 120 
3 195 328 322 
3 42 306 56 
3 196 170 168 
3 196 207 170 
3 218 196 178 
3 178 196 168 
3 302 158 83 
3 228 14 218 
3 87 60 348 
3 133 129 11 
3 205 128 94 
3 59 85 106 
3 169 159 223 
3 205 94 78 
3 74 39 84 
3 74 202 39 
3 234 152 351 
3 81 345 352 
3 239 208 121 
3 144 209 305 
3 16 229 251 
3 190 45 220 
3 278 185 273 
3 209 206 3 
3 210 112 194 
3 319 111 255 
3 209 72 304 
3 342 26 127 
3 227 216 282 
3 26 153 84 
3 171 157 0 
3 170 0 168 
3 160 315 266 
3 183 215 87 
3 98 138 181 
3 98 181 223 
3 169 223 181 
3 225 217 140 
3 103 54 331 
3 274 37 173 
3 104 37 274 
3 137 333 254 
3 88 239 121 
3 88 290 239 
3 144 55 206 
3 92 143 21 
3 262 14 228 
3 251 229 230 
3 76 106 334 
3 318 230 260 
3 269 31 17 
3 96 76 334 
3 199 108 337 
3 134 232 107 
3 58 107 232 
3 121 208 130 
3 218 14 43 
3 237 139 326 
3 134 236 232 
3 58 232 236 
3 10 85 186 
3 159 148 238 
3 109 346 179 
3 135 107 244 
3 244 107 58 
3 242 13 211 
3 77 90 61 
3 56 201 15 
3 9 11 245 
3 63 33 108 
3 343 194 246 
3 348 191 86 
3 307 251 317 
3 74 155 25 
