ply
format ascii 1.0
comment VCGLIB generated
comment TextureFile Dungeons_2_Texture_01_A.png
element vertex 283
property float x
property float y
property float z
property float nx
property float ny
property float nz
property uchar red
property uchar green
property uchar blue
property uchar alpha
property float texture_u
property float texture_v
element face 330
property list uchar int vertex_indices
end_header
165.2698 324.4062 25.36377 -0.0515734 -0.1799672 0.9823197 192 192 192 255 0.080972 0.907081
196.1987 271.9749 25.36377 -7.880732e-05 -3.036689e-05 1 192 192 192 255 0.094792 0.883653
196.1982 115.4667 25.36377 -2.414771e-05 0.0982475 0.995162 192 192 192 255 0.094792 0.813719
0 0 34.06445 -2.898496e-05 -2.898496e-05 1 192 192 192 255 0.007123 0.762125
0 500 34.06445 -0.0001296815 6.484077e-05 1 192 192 192 255 0.138327 0.985542
96.36279 319.178 25.36377 0.156641 -0.1976982 0.9676668 192 192 192 255 0.050181 0.904745
61.19824 271.9749 25.36377 0.0006917733 -0.0001474953 0.9999998 192 192 192 255 0.034469 0.883653
0 347.5 34.06445 -0.7105966 -0.1391163 0.6897095 192 192 192 255 0.138327 0.9174
0 319.178 25.36377 -0.001354399 -0.000132578 0.9999991 192 192 192 255 0.134439 0.904745
0 115.4667 25.36377 -0.001902387 0.3376525 0.941269 192 192 192 255 0.134439 0.813719
0 91.22826 34.06445 -5.783269e-05 0.1138636 0.9934964 192 192 192 255 0.007123 0.802889
61.19824 115.4667 25.36377 0.0001074217 0.3571683 0.9340401 192 192 192 255 0.034469 0.813719
183.9888 347.5 25.36377 -7.410051e-05 -0.2870901 0.9579036 192 192 192 255 0.089336 0.9174
73.4082 347.5 25.36377 0.0001038036 -0.2869795 0.9579368 192 192 192 255 0.039925 0.9174
46.8623 319.178 25.36377 0.0001001577 -0.0003578088 1 192 192 192 255 0.028063 0.904745
210.5347 319.178 25.36377 -0.04495329 -0.1011414 0.993856 192 192 192 255 0.101198 0.904745
194.7061 376.5178 34.06445 -7.239035e-05 -0.05695465 0.9983768 192 192 192 255 0.094125 0.930367
62.69092 376.5178 34.06445 4.767314e-05 -0.05698125 0.9983753 192 192 192 255 0.035136 0.930367
221.3345 347.5 34.06445 -0.08988622 -0.2022371 0.9752029 192 192 192 255 0.106023 0.9174
36.06299 347.5 34.06445 0.09002355 -0.1430134 0.9856181 192 192 192 255 0.023237 0.9174
338.9658 319.178 25.36377 0.1314217 -0.1798429 0.9748769 192 192 192 255 0.158585 0.904745
303.8018 271.9749 25.36377 0.008679127 -1.702527e-05 0.9999624 192 192 192 255 0.142873 0.883653
303.8018 115.4667 25.36377 0.02630012 0.2225225 0.9745728 192 192 192 255 0.142873 0.813719
500 -0 34.06445 3.050352e-05 -1.525176e-05 1 192 192 192 255 0.230541 0.762125
500 500 34.06445 5.949699e-05 0.000118994 1 192 192 192 255 0.230541 0.985542
403.6372 319.178 25.36377 -0.07151004 -0.2467378 0.9664403 192 192 192 255 0.187483 0.904745
443.4433 269.3433 25.36377 -0.0005571591 -0.0002679823 0.9999998 192 192 192 255 0.20527 0.882477
500 347.5 34.06445 0.7105966 -0.1391163 0.6897095 192 192 192 255 0.230541 0.9174
500 319.178 25.36377 0.00128297 -0.0001255861 0.9999992 192 192 192 255 0.230541 0.904745
500 115.4667 25.36377 0.001902387 0.3376525 0.941269 192 192 192 255 0.230541 0.813719
500 91.22826 34.06445 0.0001979207 0.1633222 0.9865727 192 192 192 255 0.230541 0.802889
438.8018 115.4667 25.36377 -0.0001905573 0.3569399 0.9341273 192 192 192 255 0.203196 0.813719
316.0112 347.5 25.36377 0.07273052 -0.1487314 0.9861994 192 192 192 255 0.148328 0.9174
426.5918 347.5 25.36377 -0.07618044 -0.1130666 0.9906626 192 192 192 255 0.19774 0.9174
453.1377 319.178 25.36377 -9.487863e-05 -0.0003389536 1 192 192 192 255 0.209601 0.904745
289.4653 319.178 25.36377 0.03225695 -0.1113148 0.9932616 192 192 192 255 0.136467 0.904745
304.7929 383.5554 34.06445 1.282658e-05 -2.622991e-05 1 192 192 192 255 0.143316 0.933511
437.3091 376.5178 34.06445 -1.409994e-05 -4.29945e-05 1 192 192 192 255 0.202529 0.930367
278.6655 347.5 34.06445 0.09040023 -0.1334639 0.9869221 192 192 192 255 0.131641 0.9174
463.9375 347.5 34.06445 -0.09002242 -0.1430131 0.9856182 192 192 192 255 0.214427 0.9174
154.5083 306.178 16.86377 -0.1313515 -0.1715121 0.9763864 192 192 192 255 0.076163 0.898936
183.1987 267.6645 16.86377 -0.001639155 -0.0002833898 0.9999986 192 192 192 255 0.088983 0.881726
183.1982 115.4667 16.86377 -0.0001912107 0.0390541 0.9992371 192 192 192 255 0.088983 0.813719
102.8892 306.178 16.86377 0.08346359 -0.223603 0.9711002 192 192 192 255 0.053098 0.898936
74.19824 267.6648 16.86377 0.2487022 -0.1141204 0.9618335 192 192 192 255 0.040277 0.881727
74.19824 115.4667 16.86377 0.009901577 0.9996583 0.02419028 192 192 192 255 0.040277 0.813719
345.4922 306.178 16.86377 0.07688245 -0.2490164 0.9654429 192 192 192 255 0.161501 0.898936
316.8018 267.6653 16.86377 0.546468 -0.0003340403 0.8374799 192 192 192 255 0.148682 0.881727
316.8018 115.4667 16.86377 0.5467887 0.03410582 0.8365757 192 192 192 255 0.148682 0.813719
397.1108 306.178 16.86377 -0.1427771 -0.2061812 0.9680414 192 192 192 255 0.184567 0.898936
425.8018 267.6646 16.86377 -0.2387832 -0.05233992 0.9696614 192 192 192 255 0.197387 0.881726
425.8018 115.4667 16.86377 -0.004391269 0.9996523 0.02600046 192 192 192 255 0.197387 0.813719
147.9819 293.178 16.86386 -0.2296425 -0.4574293 0.8590825 192 192 192 255 0.138078 0.628154
170.1987 263.3544 16.86385 -0.8699367 -0.07913508 0.4867728 192 192 192 255 0.138078 0.614828
170.1982 115.4667 16.86377 -0.931846 0.05155842 0.3591723 192 192 192 255 0.138077 0.548747
109.4155 293.178 16.86378 0.1980852 -0.641587 0.741032 192 192 192 255 0.056014 0.678834
87.19824 263.3549 16.86378 1 -0.0001290996 0.0003241458 192 192 192 255 0.046086 0.665508
87.19824 115.4667 16.86377 0.9997457 0.02254882 0.0004008679 192 192 192 255 0.046086 0.599426
352.0186 293.178 16.86382 0.2296433 -0.4574321 0.8590809 192 192 192 255 0.030928 0.627961
329.8018 263.3548 16.86382 0.6277086 -0.2880287 0.7232022 192 192 192 255 0.15449 0.665508
329.8018 115.4667 16.86377 0.01777213 0.9996841 0.01777216 192 192 192 255 0.15449 0.599426
390.584 293.178 16.86375 -0.1980848 -0.641589 0.7410304 192 192 192 255 0.030928 0.610729
412.8018 263.3546 16.86375 -0.9999999 -0.0001333149 0.0003347265 192 192 192 255 0.120456 0.614828
412.8018 115.4667 16.86377 -0.9997366 0.02294952 0.0002004325 192 192 192 255 0.120456 0.548747
166.5604 322.1708 -25.36377 -0.05435344 -0.1888211 -0.9805061 192 192 192 255 0.083079 0.8425
196.1987 271.9749 -25.36377 -0.07487124 -0.0003630336 -0.9971932 192 192 192 255 0.096323 0.864929
196.1982 115.4667 -25.36377 -0.008769903 0.1272396 -0.9918333 192 192 192 255 0.096323 0.934863
-0 -0 -34.06445 -1.549271e-05 -1.549271e-05 -1 192 192 192 255 0.074656 0.985542
0 500 -34.06445 -6.556348e-05 0.000131127 -1 192 192 192 255 0.107884 0.985542
96.36279 319.178 -25.36377 0.1554735 -0.2028431 -0.9667899 192 192 192 255 0.051713 0.843837
61.19824 271.9749 -25.36377 0.0006917733 -0.0001474953 -0.9999998 192 192 192 255 0.036 0.864929
0 347.5 -34.06445 -0.7105965 -0.1391163 -0.6897096 192 192 192 255 0.107884 0.9174
0 319.178 -25.36377 -0.001354399 -0.000132578 -0.9999991 192 192 192 255 0.111772 0.904745
-0 115.4667 -25.36377 -0.001902387 0.3376525 -0.941269 192 192 192 255 0.111772 0.813719
-0 91.22826 -34.06445 -0.0001382574 0.1214117 -0.9926023 192 192 192 255 0.008654 0.945693
61.19824 115.4667 -25.36377 0.0001074217 0.3571683 -0.9340401 192 192 192 255 0.036 0.934863
183.9888 347.5 -25.36377 -0.0001053959 -0.2870413 -0.9579182 192 192 192 255 0.090867 0.831182
73.4082 347.5 -25.36377 7.96937e-05 -0.2870327 -0.9579208 192 192 192 255 0.041456 0.831182
46.8623 319.178 -25.36377 0.0001001577 -0.0003578088 -1 192 192 192 255 0.029594 0.843837
210.5347 319.178 -25.36377 -0.04244098 -0.09558903 -0.9945158 192 192 192 255 0.102729 0.843837
194.7061 376.5178 -34.06445 -5.118187e-05 -0.05695651 -0.9983767 192 192 192 255 0.095656 0.818216
62.69092 376.5178 -34.06445 0.0001531068 -0.05702597 -0.9983727 192 192 192 255 0.036667 0.818216
221.3345 347.5 -34.06445 -0.08489856 -0.1912154 -0.9778696 192 192 192 255 0.107555 0.831182
36.06299 347.5 -34.06445 0.09002355 -0.1430134 -0.9856181 192 192 192 255 0.024769 0.831182
338.9658 319.178 -25.36377 0.1112268 -0.1720891 -0.9787819 192 192 192 255 0.160116 0.843837
296.8648 270.9585 -25.36377 4.078608e-05 -8.982523e-06 -1 192 192 192 255 0.141304 0.865383
303.8018 115.4667 -25.36377 1.676799e-05 0.1402995 -0.9901091 192 192 192 255 0.144404 0.934863
500 -0 -34.06445 1.394802e-05 -2.789603e-05 -1 192 192 192 255 0.074656 0.762125
500 500 -34.06445 0.0001226654 6.133269e-05 -1 192 192 192 255 0.232072 0.76304
403.6372 319.178 -25.36377 -0.07688218 -0.2490168 -0.9654428 192 192 192 255 0.189014 0.843837
438.8018 271.9749 -25.36377 -0.0006428715 -0.0002949897 -0.9999998 192 192 192 255 0.204727 0.864929
500 347.5 -34.06445 0.7105966 -0.1391163 -0.6897095 192 192 192 255 0.204065 0.918315
500 319.178 -25.36377 0.001354399 -0.000132578 -0.9999991 192 192 192 255 0.232072 0.843837
500 115.4667 -25.36377 0.001902387 0.3376525 -0.941269 192 192 192 255 0.232072 0.934863
500 91.22826 -34.06445 0.000112633 0.1253943 -0.992107 192 192 192 255 0.232072 0.945693
438.8018 115.4667 -25.36377 -0.0002148255 0.3569423 -0.9341264 192 192 192 255 0.204727 0.934863
316.0112 347.5 -25.36377 0.05500674 -0.1613748 -0.9853591 192 192 192 255 0.14986 0.831182
426.5918 347.5 -25.36377 -0.07498559 -0.1180352 -0.9901742 192 192 192 255 0.199271 0.831182
453.1377 319.178 -25.36377 -0.0001001564 -0.0003578085 -1 192 192 192 255 0.211133 0.843837
289.4653 319.178 -25.36377 0.02706984 -0.1045701 -0.9941491 192 192 192 255 0.137998 0.843837
305.2939 376.5178 -34.06445 1.001558e-05 -2.938299e-05 -1 192 192 192 255 0.145071 0.818216
437.3091 376.5178 -34.06445 -1.361747e-05 -4.785665e-05 -1 192 192 192 255 0.20406 0.818216
271.4002 353.4089 -34.06445 0.068403 -0.1313189 -0.9889774 192 192 192 255 0.129926 0.828541
463.9375 347.5 -34.06445 -0.09002242 -0.1430131 -0.9856182 192 192 192 255 0.215958 0.831182
154.5083 306.178 -16.86377 -0.1333722 -0.1770396 -0.9751251 192 192 192 255 0.077694 0.849646
183.1987 267.6645 -16.86377 -0.5468072 -7.386028e-05 -0.8372585 192 192 192 255 0.090514 0.866856
183.1982 115.4667 -16.86377 -0.5465258 0.03845341 -0.836559 192 192 192 255 0.090514 0.934863
102.8892 306.178 -16.86377 0.08082153 -0.233861 -0.968905 192 192 192 255 0.054629 0.849646
74.19824 267.6648 -16.86377 0.001111432 -0.0005104379 -0.9999993 192 192 192 255 0.041809 0.866855
74.19824 115.4667 -16.86377 0.0004386263 0.04432151 -0.9990172 192 192 192 255 0.041809 0.934863
345.4922 306.178 -16.86377 0.06526285 -0.2440946 -0.9675529 192 192 192 255 0.163033 0.849646
316.8018 267.6653 -16.86377 0.20835 -0.1035973 -0.9725522 192 192 192 255 0.150213 0.866855
316.8018 115.4667 -16.86377 0.008311208 0.9996501 -0.02511134 192 192 192 255 0.150213 0.934863
397.1108 306.178 -16.86377 -0.1537643 -0.2104194 -0.965443 192 192 192 255 0.186098 0.849646
425.8018 267.6646 -16.86377 -0.0007981504 -0.0001699393 -0.9999997 192 192 192 255 0.198918 0.866855
425.8018 115.4667 -16.86377 -0.0002829966 0.05705163 -0.9983712 192 192 192 255 0.198918 0.934863
147.9819 293.178 -16.86386 -0.3436778 -0.6845766 -0.6428378 192 192 192 255 0.123007 0.628154
170.1987 263.3544 -16.86385 -0.9999998 -0.0001313991 -0.0006803673 192 192 192 255 0.123007 0.614828
170.1982 115.4667 -16.86377 -0.999912 0.01327031 -0.0001172814 192 192 192 255 0.123007 0.548747
109.4155 293.178 -16.86378 0.396171 -0.5421442 -0.7410319 192 192 192 255 0.033768 0.627961
87.19824 263.3549 -16.86378 0.9312263 -0.001944382 -0.3644366 192 192 192 255 0.102834 0.614828
87.19824 115.4667 -16.86377 0.9929526 0.01565948 -0.1174732 192 192 192 255 0.102834 0.548747
352.0186 293.178 -16.86382 0.3436769 -0.6845787 -0.6428361 192 192 192 255 0.015857 0.627961
329.8018 263.3548 -16.86382 0.6754544 -0.1440139 -0.7232021 192 192 192 255 0.085212 0.614828
329.8018 115.4667 -16.86377 0.008808832 0.999806 -0.01761773 192 192 192 255 0.085212 0.548747
390.584 293.178 -16.86375 -0.3961692 -0.5421476 -0.7410303 192 192 192 255 0.015857 0.610729
412.8018 263.3546 -16.86375 -0.932866 -0.0005684372 -0.3602231 192 192 192 255 0.105385 0.614828
412.8018 115.4667 -16.86377 -0.9981937 0.01935631 -0.05687473 192 192 192 255 0.105385 0.548747
411.6785 91.22826 34.06445 -0.002418343 0.06008489 0.9981903 192 192 192 255 0.191076 0.802889
256.359 91.22826 34.06445 0.0006445939 0.04709843 0.99889 192 192 192 255 0.121673 0.802889
337.8053 101.4979 30.37804 0 0.2183556 0.9758693 192 192 192 255 0.158067 0.807477
322.7161 76.58181 34.06445 0 0.03629614 0.9993411 192 192 192 255 0.151324 0.796344
303.8018 167.896 25.36377 0.09591611 0.002434666 0.9953865 192 192 192 255 0.142873 0.837147
303.8018 252.419 25.36377 0.1154635 -0.007055263 0.9932867 192 192 192 255 0.142873 0.874914
310.7559 225.0572 20.81679 0.4726548 0 0.8812477 192 192 192 255 0.14598 0.862689
295.8256 224.8352 25.36377 0.03966039 0 0.9992132 192 192 192 255 0.139309 0.862589
412.8018 234.3117 -16.86376 -0.8984755 -0.02553225 -0.4382806 192 192 192 255 0.105385 0.601851
412.8018 141.1204 -16.86377 -0.7435349 0.0367365 -0.6676873 192 192 192 255 0.105385 0.56021
412.8018 192.3817 -5.973781 -0.9712746 2.593373e-08 -0.2379615 192 192 192 255 0.110251 0.583115
421.065 192.3853 -16.86376 -0.3031587 3.874411e-08 -0.9529401 192 192 192 255 0.196801 0.6862
87.19824 180.9626 -16.86378 0.8032571 0.02352649 -0.5951677 192 192 192 255 0.102834 0.578013
87.19824 254.8954 -16.86378 0.8741818 -0.0426636 -0.483721 192 192 192 255 0.102834 0.611048
77.85346 217.0557 -16.86377 0.2386159 -3.528459e-08 -0.971114 192 192 192 255 0.043442 0.675176
87.19824 221.3008 -7.093738 0.9636945 -2.94854e-08 -0.2670076 192 192 192 255 0.098468 0.596037
72.17238 376.5178 -34.06445 0.003468406 -0.06742585 -0.9977183 192 192 192 255 0.040904 0.818216
166.3308 376.5178 -34.06445 -0.002188556 -0.1043225 -0.9945411 192 192 192 255 0.082977 0.818216
108.4303 387.7024 -34.06445 0 -0.02116227 -0.9997761 192 192 192 255 0.057105 0.813218
121.6474 367.1384 -31.25217 1.969876e-09 -0.211525 -0.9773726 192 192 192 255 0.063011 0.822407
196.1983 148.0421 -25.36377 -0.1513732 0.002397318 -0.9884738 192 192 192 255 0.096323 0.920307
196.1987 259.5918 -25.36377 -0.09603927 -0.004288706 -0.9953683 192 192 192 255 0.096323 0.870462
189.5245 218.0064 -20.99997 -0.390661 1.229079e-06 -0.9205346 192 192 192 255 0.093341 0.889044
203.2276 215.3939 -25.36377 -0.04062036 1.276485e-07 -0.9991747 192 192 192 255 0.099464 0.890212
207.527 91.22827 -34.06445 0.0003355261 0.03339054 -0.9994423 192 192 192 255 0.101385 0.945693
312.332 91.22826 -34.06445 -0.0008534405 0.0781772 -0.9969391 192 192 192 255 0.148216 0.945693
254.9961 103.4866 -29.66418 1.073793e-08 0.3060108 -0.952028 192 192 192 255 0.122596 0.940216
262.8201 85.49229 -34.06445 3.162601e-09 0.04248181 -0.9990972 192 192 192 255 0.126092 0.948256
170.1985 176.8275 16.8638 -0.8860169 0.01259717 0.4634818 192 192 192 255 0.138077 0.576165
179.2269 243.7688 16.86379 -0.2302177 5.502399e-07 0.9731392 192 192 192 255 0.087208 0.656756
170.1986 242.9726 8.378666 -0.9951541 3.18822e-06 0.09832741 192 192 192 255 0.134286 0.60572
174.6516 376.5178 34.06445 -0.001598961 -0.0713315 0.9974514 192 192 192 255 0.085164 0.930367
93.16991 376.5178 34.06445 0.001283752 -0.1050787 0.9944631 192 192 192 255 0.048755 0.930367
119.925 387.3561 34.06445 0 -0.01197178 0.9999284 192 192 192 255 0.06071 0.935209
120.4669 371.3822 32.52456 0 -0.2132795 0.9769912 192 192 192 255 0.060952 0.928072
500 -0 34.06445 3.050352e-05 -1.525176e-05 1 192 192 192 255 0.105099 0.762125
0 0 34.06445 -2.898496e-05 -2.898496e-05 1 192 192 192 255 0.105099 0.985542
0 500 34.06445 -0.0001296815 6.484077e-05 1 192 192 192 255 0.007123 0.985542
0 347.5 34.06445 -0.7105966 -0.1391163 0.6897095 192 192 192 255 0.007123 0.9174
0 115.4667 25.36377 -0.001902387 0.3376525 0.941269 192 192 192 255 0.007123 0.813719
0 319.178 25.36377 -0.001354399 -0.000132578 0.9999991 192 192 192 255 0.007123 0.904745
390.584 293.178 16.86375 -0.1980848 -0.641589 0.7410304 192 192 192 255 0.120456 0.628154
390.584 293.178 -16.86375 -0.3961692 -0.5421476 -0.7410303 192 192 192 255 0.105385 0.628154
183.1987 267.6645 16.86377 -0.001639155 -0.0002833898 0.9999986 192 192 192 255 0.088983 0.667433
154.5083 306.178 16.86377 -0.1313515 -0.1715121 0.9763864 192 192 192 255 0.076163 0.684643
147.9819 293.178 16.86386 -0.2296425 -0.4574293 0.8590825 192 192 192 255 0.073247 0.678834
170.1987 263.3544 16.86385 -0.8699367 -0.07913508 0.4867728 192 192 192 255 0.083174 0.665508
183.1982 115.4667 16.86377 -0.0001912107 0.0390541 0.9992371 192 192 192 255 0.088983 0.599426
170.1985 176.8275 16.8638 -0.8860169 0.01259717 0.4634818 192 192 192 255 0.083174 0.626844
170.1982 115.4667 16.86377 -0.931846 0.05155842 0.3591723 192 192 192 255 0.083174 0.599426
102.8892 306.178 16.86377 0.08346359 -0.223603 0.9711002 192 192 192 255 0.053098 0.684643
74.19824 267.6648 16.86377 0.2487022 -0.1141204 0.9618335 192 192 192 255 0.040277 0.667434
74.19824 115.4667 16.86377 0.009901577 0.9996583 0.02419028 192 192 192 255 0.040277 0.599426
345.4922 306.178 16.86377 0.07688245 -0.2490164 0.9654429 192 192 192 255 0.161501 0.684643
316.8018 267.6653 16.86377 0.546468 -0.0003340403 0.8374799 192 192 192 255 0.148682 0.667434
352.0186 293.178 16.86382 0.2296433 -0.4574321 0.8590809 192 192 192 255 0.164418 0.678834
316.8018 115.4667 16.86377 0.5467887 0.03410582 0.8365757 192 192 192 255 0.148682 0.599426
397.1108 306.178 16.86377 -0.1427771 -0.2061812 0.9680414 192 192 192 255 0.184567 0.684643
390.584 293.178 16.86375 -0.1980848 -0.641589 0.7410304 192 192 192 255 0.18165 0.678834
425.8018 267.6646 16.86377 -0.2387832 -0.05233992 0.9696614 192 192 192 255 0.197387 0.667433
412.8018 263.3546 16.86375 -0.9999999 -0.0001333149 0.0003347265 192 192 192 255 0.191578 0.665508
425.8018 115.4667 16.86377 -0.004391269 0.9996523 0.02600046 192 192 192 255 0.197387 0.599426
412.8018 115.4667 16.86377 -0.9997366 0.02294952 0.0002004325 192 192 192 255 0.191578 0.599426
170.1982 115.4667 16.86377 -0.931846 0.05155842 0.3591723 192 192 192 255 0.048721 0.774657
87.19824 115.4667 16.86377 0.9997457 0.02254882 0.0004008679 192 192 192 255 0.048721 0.811744
61.19824 115.4667 25.36377 0.0001074217 0.3571683 0.9340401 192 192 192 255 0.044923 0.823362
196.1982 115.4667 25.36377 -2.414771e-05 0.0982475 0.995162 192 192 192 255 0.044923 0.76304
412.8018 115.4667 16.86377 -0.9997366 0.02294952 0.0002004325 192 192 192 255 0.023503 0.774657
329.8018 115.4667 16.86377 0.01777213 0.9996841 0.01777216 192 192 192 255 0.023503 0.811745
303.8018 115.4667 25.36377 0.02630012 0.2225225 0.9745728 192 192 192 255 0.019705 0.823362
438.8018 115.4667 25.36377 -0.0001905573 0.3569399 0.9341273 192 192 192 255 0.019705 0.76304
425.8018 115.4667 16.86377 -0.004391269 0.9996523 0.02600046 192 192 192 255 0.023503 0.768849
316.8018 115.4667 16.86377 0.5467887 0.03410582 0.8365757 192 192 192 255 0.023503 0.817554
183.1982 115.4667 16.86377 -0.0001912107 0.0390541 0.9992371 192 192 192 255 0.048721 0.768848
74.19824 115.4667 16.86377 0.009901577 0.9996583 0.02419028 192 192 192 255 0.048721 0.817553
-0 -0 -34.06445 -1.549271e-05 -1.549271e-05 -1 192 192 192 255 0.008654 0.986457
500 -0 -34.06445 1.394802e-05 -2.789603e-05 -1 192 192 192 255 0.232072 0.986457
109.4155 293.178 16.86378 0.1980852 -0.641587 0.741032 192 192 192 255 0.048838 0.627961
147.9819 293.178 -16.86386 -0.3436778 -0.6845766 -0.6428378 192 192 192 255 0.033768 0.610729
147.9819 293.178 16.86386 -0.2296425 -0.4574293 0.8590825 192 192 192 255 0.048838 0.610729
0 347.5 -34.06445 -0.7105965 -0.1391163 -0.6897096 192 192 192 255 0.008654 0.831182
0 500 -34.06445 -6.556348e-05 0.000131127 -1 192 192 192 255 0.008654 0.76304
-0 115.4667 -25.36377 -0.001902387 0.3376525 -0.941269 192 192 192 255 0.008654 0.934863
0 319.178 -25.36377 -0.001354399 -0.000132578 -0.9999991 192 192 192 255 0.008654 0.843837
87.19824 263.3549 16.86378 1 -0.0001290996 0.0003241458 192 192 192 255 0.087763 0.614828
109.4155 293.178 -16.86378 0.396171 -0.5421442 -0.7410319 192 192 192 255 0.102834 0.628154
109.4155 293.178 16.86378 0.1980852 -0.641587 0.741032 192 192 192 255 0.087763 0.628154
87.19824 115.4667 16.86377 0.9997457 0.02254882 0.0004008679 192 192 192 255 0.087763 0.548747
329.8018 263.3548 16.86382 0.6277086 -0.2880287 0.7232022 192 192 192 255 0.070141 0.614828
352.0186 293.178 -16.86382 0.3436769 -0.6845787 -0.6428361 192 192 192 255 0.085212 0.628154
352.0186 293.178 16.86382 0.2296433 -0.4574321 0.8590809 192 192 192 255 0.070141 0.628154
329.8018 115.4667 16.86377 0.01777213 0.9996841 0.01777216 192 192 192 255 0.070141 0.548747
500 347.5 34.06445 0.7105966 -0.1391163 0.6897095 192 192 192 255 0.173623 0.918315
500 500 -34.06445 0.0001226654 6.133269e-05 -1 192 192 192 255 0.204065 0.986457
500 500 34.06445 5.949699e-05 0.000118994 1 192 192 192 255 0.173623 0.986457
500 347.5 -34.06445 0.7105966 -0.1391163 -0.6897095 192 192 192 255 0.232072 0.831182
500 500 34.06445 5.949699e-05 0.000118994 1 192 192 192 255 0.140629 0.76304
500 500 -34.06445 0.0001226654 6.133269e-05 -1 192 192 192 255 0.171071 0.76304
0 500 -34.06445 -6.556348e-05 0.000131127 -1 192 192 192 255 0.171071 0.986457
0 500 34.06445 -0.0001296815 6.484077e-05 1 192 192 192 255 0.140629 0.986457
183.1987 267.6645 -16.86377 -0.5468072 -7.386028e-05 -0.8372585 192 192 192 255 0.090514 0.652562
170.1987 263.3544 -16.86385 -0.9999998 -0.0001313991 -0.0006803673 192 192 192 255 0.084705 0.654488
147.9819 293.178 -16.86386 -0.3436778 -0.6845766 -0.6428378 192 192 192 255 0.074778 0.641162
154.5083 306.178 -16.86377 -0.1333722 -0.1770396 -0.9751251 192 192 192 255 0.077694 0.635353
183.1982 115.4667 -16.86377 -0.5465258 0.03845341 -0.836559 192 192 192 255 0.090514 0.72057
170.1982 115.4667 -16.86377 -0.999912 0.01327031 -0.0001172814 192 192 192 255 0.084705 0.72057
109.4155 293.178 -16.86378 0.396171 -0.5421442 -0.7410319 192 192 192 255 0.057545 0.641162
102.8892 306.178 -16.86377 0.08082153 -0.233861 -0.968905 192 192 192 255 0.054629 0.635353
87.19824 263.3549 -16.86378 0.9312263 -0.001944382 -0.3644366 192 192 192 255 0.047618 0.654488
74.19824 267.6648 -16.86377 0.001111432 -0.0005104379 -0.9999993 192 192 192 255 0.041809 0.652562
87.19824 115.4667 -16.86377 0.9929526 0.01565948 -0.1174732 192 192 192 255 0.047618 0.72057
74.19824 115.4667 -16.86377 0.0004386263 0.04432151 -0.9990172 192 192 192 255 0.041809 0.72057
87.19824 180.9626 -16.86378 0.8032571 0.02352649 -0.5951677 192 192 192 255 0.047618 0.691303
87.19824 254.8954 -16.86378 0.8741818 -0.0426636 -0.483721 192 192 192 255 0.047618 0.658268
345.4922 306.178 -16.86377 0.06526285 -0.2440946 -0.9675529 192 192 192 255 0.163033 0.635353
352.0186 293.178 -16.86382 0.3436769 -0.6845787 -0.6428361 192 192 192 255 0.165949 0.641162
329.8018 263.3548 -16.86382 0.6754544 -0.1440139 -0.7232021 192 192 192 255 0.156022 0.654488
316.8018 267.6653 -16.86377 0.20835 -0.1035973 -0.9725522 192 192 192 255 0.150213 0.652562
329.8018 115.4667 -16.86377 0.008808832 0.999806 -0.01761773 192 192 192 255 0.156022 0.72057
316.8018 115.4667 -16.86377 0.008311208 0.9996501 -0.02511134 192 192 192 255 0.150213 0.72057
397.1108 306.178 -16.86377 -0.1537643 -0.2104194 -0.965443 192 192 192 255 0.186098 0.635353
390.584 293.178 -16.86375 -0.3961692 -0.5421476 -0.7410303 192 192 192 255 0.183181 0.641162
425.8018 267.6646 -16.86377 -0.0007981504 -0.0001699393 -0.9999997 192 192 192 255 0.198918 0.652562
412.8018 263.3546 -16.86375 -0.932866 -0.0005684372 -0.3602231 192 192 192 255 0.193109 0.654488
412.8018 115.4667 -16.86377 -0.9981937 0.01935631 -0.05687473 192 192 192 255 0.193109 0.72057
412.8018 141.1204 -16.86377 -0.7435349 0.0367365 -0.6676873 192 192 192 255 0.193109 0.709107
425.8018 115.4667 -16.86377 -0.0002829966 0.05705163 -0.9983712 192 192 192 255 0.198918 0.72057
412.8018 234.3117 -16.86376 -0.8984755 -0.02553225 -0.4382806 192 192 192 255 0.193109 0.667465
170.1982 115.4667 -16.86377 -0.999912 0.01327031 -0.0001172814 192 192 192 255 0.063792 0.774657
196.1982 115.4667 -25.36377 -0.008769903 0.1272396 -0.9918333 192 192 192 255 0.06759 0.76304
61.19824 115.4667 -25.36377 0.0001074217 0.3571683 -0.9340401 192 192 192 255 0.06759 0.823362
87.19824 115.4667 -16.86377 0.9929526 0.01565948 -0.1174732 192 192 192 255 0.063792 0.811744
412.8018 115.4667 -16.86377 -0.9981937 0.01935631 -0.05687473 192 192 192 255 0.038573 0.774657
438.8018 115.4667 -25.36377 -0.0002148255 0.3569423 -0.9341264 192 192 192 255 0.042372 0.76304
303.8018 115.4667 -25.36377 1.676799e-05 0.1402995 -0.9901091 192 192 192 255 0.042372 0.823362
329.8018 115.4667 -16.86377 0.008808832 0.999806 -0.01761773 192 192 192 255 0.038573 0.811745
425.8018 115.4667 -16.86377 -0.0002829966 0.05705163 -0.9983712 192 192 192 255 0.038573 0.768849
316.8018 115.4667 -16.86377 0.008311208 0.9996501 -0.02511134 192 192 192 255 0.038573 0.817554
183.1982 115.4667 -16.86377 -0.5465258 0.03845341 -0.836559 192 192 192 255 0.063792 0.768848
74.19824 115.4667 -16.86377 0.0004386263 0.04432151 -0.9990172 192 192 192 255 0.063792 0.817553
500 -0 34.06445 3.050352e-05 -1.525176e-05 1 192 192 192 255 0.173623 0.76304
500 -0 -34.06445 1.394802e-05 -2.789603e-05 -1 192 192 192 255 0.204065 0.76304
500 91.22826 -34.06445 0.000112633 0.1253943 -0.992107 192 192 192 255 0.204065 0.803804
500 91.22826 34.06445 0.0001979207 0.1633222 0.9865727 192 192 192 255 0.173623 0.803804
500 115.4667 -25.36377 0.001902387 0.3376525 -0.941269 192 192 192 255 0.200178 0.814634
500 115.4667 25.36377 0.001902387 0.3376525 0.941269 192 192 192 255 0.177511 0.814634
500 319.178 -25.36377 0.001354399 -0.000132578 -0.9999991 192 192 192 255 0.200178 0.90566
500 319.178 25.36377 0.00128297 -0.0001255861 0.9999992 192 192 192 255 0.177511 0.90566
-0 91.22826 -34.06445 -0.0001382574 0.1214117 -0.9926023 192 192 192 255 0.107884 0.802889
0 91.22826 34.06445 -5.783269e-05 0.1138636 0.9934964 192 192 192 255 0.138327 0.802889
0 0 34.06445 -2.898496e-05 -2.898496e-05 1 192 192 192 255 0.138327 0.762125
-0 -0 -34.06445 -1.549271e-05 -1.549271e-05 -1 192 192 192 255 0.107884 0.762125
421.065 192.3853 -16.86376 -0.3031587 3.874411e-08 -0.9529401 192 192 192 255 0.105385 0.583116
77.85346 217.0557 -16.86377 0.2386159 -3.528459e-08 -0.971114 192 192 192 255 0.102834 0.59414
179.2269 243.7688 16.86379 -0.2302177 5.502399e-07 0.9731392 192 192 192 255 0.138077 0.606076
3 35 15 1 
3 35 1 21 
3 10 3 129 
3 3 23 129 
3 129 23 131 
3 131 23 128 
3 23 30 128 
3 87 163 164 
3 87 164 67 
3 53 52 116 
3 53 116 117 
3 53 117 158 
3 117 118 158 
3 158 118 156 
3 54 156 118 
3 5 13 14 
3 5 14 6 
3 71 7 4 
3 71 4 68 
3 73 9 8 
3 73 8 72 
3 19 17 165 
3 19 165 166 
3 10 11 167 
3 168 167 11 
3 168 11 6 
3 0 12 13 
3 0 13 5 
3 165 16 36 
3 165 36 24 
3 18 16 12 
3 18 12 15 
3 16 159 12 
3 17 13 160 
3 13 12 160 
3 160 12 162 
3 12 159 162 
3 16 18 38 
3 16 38 36 
3 13 17 19 
3 13 19 14 
3 0 1 15 
3 0 15 12 
3 14 19 166 
3 14 166 168 
3 6 14 168 
3 35 38 18 
3 35 18 15 
3 22 30 31 
3 61 58 122 
3 61 122 125 
3 25 26 34 
3 25 34 33 
3 39 27 24 
3 39 24 37 
3 30 29 31 
3 28 26 31 
3 28 31 29 
3 62 169 170 
3 62 170 126 
3 63 62 127 
3 127 62 137 
3 137 62 138 
3 138 62 136 
3 62 126 136 
3 20 25 33 
3 20 33 32 
3 38 35 32 
3 38 32 36 
3 32 33 37 
3 32 37 36 
3 33 34 39 
3 33 39 37 
3 20 32 35 
3 20 35 21 
3 34 28 27 
3 34 27 39 
3 26 28 34 
3 1 2 21 
3 21 2 133 
3 133 2 135 
3 135 2 132 
3 2 22 132 
3 10 129 2 
3 30 22 128 
3 128 22 130 
3 2 129 22 
3 129 130 22 
3 10 2 11 
3 16 165 159 
3 159 165 161 
3 161 165 160 
3 165 17 160 
3 24 36 37 
3 1 0 40 
3 1 40 41 
3 2 1 41 
3 2 41 42 
3 0 5 43 
3 0 43 40 
3 5 6 44 
3 5 44 43 
3 6 11 45 
3 6 45 44 
3 20 21 47 
3 20 47 46 
3 21 133 47 
3 22 48 132 
3 133 134 47 
3 47 134 48 
3 134 132 48 
3 25 20 46 
3 25 46 49 
3 26 25 49 
3 26 49 50 
3 31 26 50 
3 31 50 51 
3 171 172 173 
3 171 173 174 
3 174 157 171 
3 171 157 175 
3 157 176 175 
3 175 176 177 
3 172 178 55 
3 172 55 173 
3 178 179 56 
3 178 56 55 
3 179 180 57 
3 179 57 56 
3 181 182 59 
3 181 59 183 
3 182 184 60 
3 182 60 59 
3 185 181 183 
3 185 183 186 
3 187 185 186 
3 187 186 188 
3 189 187 188 
3 189 188 190 
3 191 192 193 
3 191 193 194 
3 195 196 197 
3 195 197 198 
3 195 198 199 
3 197 196 200 
3 191 194 201 
3 193 192 202 
3 99 85 65 
3 99 65 79 
3 74 152 203 
3 203 152 204 
3 152 155 204 
3 155 153 204 
3 153 94 204 
3 205 119 206 
3 205 206 207 
3 69 70 78 
3 69 78 77 
3 83 208 209 
3 83 209 81 
3 74 210 75 
3 211 70 75 
3 211 75 210 
3 212 120 213 
3 212 213 214 
3 215 121 212 
3 121 140 212 
3 140 143 212 
3 120 212 141 
3 143 141 212 
3 64 69 77 
3 64 77 76 
3 209 88 100 
3 209 100 80 
3 82 79 76 
3 82 76 80 
3 81 144 77 
3 80 76 145 
3 76 77 145 
3 145 77 147 
3 77 144 147 
3 80 100 102 
3 80 102 82 
3 77 78 83 
3 77 83 81 
3 64 76 79 
3 64 79 65 
3 78 211 208 
3 78 208 83 
3 70 211 78 
3 99 79 82 
3 99 82 102 
3 86 95 94 
3 216 123 217 
3 216 217 218 
3 219 124 123 
3 219 123 216 
3 89 97 98 
3 89 98 90 
3 220 91 221 
3 220 221 222 
3 103 101 88 
3 103 88 223 
3 94 95 93 
3 92 93 95 
3 92 95 90 
3 84 96 97 
3 84 97 89 
3 102 100 96 
3 102 96 99 
3 96 100 101 
3 96 101 97 
3 97 101 103 
3 97 103 98 
3 84 85 99 
3 84 99 96 
3 98 103 223 
3 98 223 92 
3 90 98 92 
3 86 66 85 
3 66 148 85 
3 148 151 85 
3 65 85 149 
3 85 151 149 
3 74 66 152 
3 94 153 86 
3 153 154 86 
3 86 154 66 
3 66 154 152 
3 74 75 66 
3 80 145 209 
3 145 146 209 
3 81 209 144 
3 209 146 144 
3 88 101 100 
3 224 225 226 
3 224 226 227 
3 65 105 104 
3 65 104 64 
3 65 149 105 
3 66 106 148 
3 106 105 148 
3 148 105 150 
3 105 149 150 
3 64 104 107 
3 64 107 69 
3 69 107 108 
3 69 108 70 
3 70 108 109 
3 70 109 75 
3 84 110 111 
3 84 111 85 
3 85 111 112 
3 85 112 86 
3 89 113 110 
3 89 110 84 
3 90 114 113 
3 90 113 89 
3 95 115 114 
3 95 114 90 
3 228 229 230 
3 228 230 231 
3 232 233 229 
3 232 229 228 
3 231 230 234 
3 231 234 235 
3 235 234 236 
3 235 236 237 
3 238 239 240 
3 236 241 237 
3 241 142 237 
3 237 142 239 
3 142 240 239 
3 242 243 244 
3 242 244 245 
3 245 244 246 
3 245 246 247 
3 248 249 243 
3 248 243 242 
3 250 251 249 
3 250 249 248 
3 252 253 254 
3 251 250 255 
3 253 139 254 
3 254 139 250 
3 139 255 250 
3 256 257 258 
3 256 258 259 
3 260 261 262 
3 260 262 263 
3 260 264 261 
3 262 265 263 
3 256 266 257 
3 258 267 259 
3 191 256 259 
3 191 259 192 
3 195 260 263 
3 195 263 196 
3 268 269 270 
3 268 270 271 
3 271 270 272 
3 271 272 273 
3 273 272 274 
3 273 274 275 
3 275 274 91 
3 275 91 220 
3 72 8 7 
3 72 7 71 
3 276 277 9 
3 276 9 73 
3 278 277 276 
3 278 276 279 
3 128 130 131 
3 131 130 129 
3 133 135 134 
3 134 135 132 
3 136 280 138 
3 138 280 137 
3 141 143 281 
3 281 143 140 
3 144 146 147 
3 147 146 145 
3 151 150 149 
3 148 150 151 
3 155 154 153 
3 152 154 155 
3 158 282 53 
3 156 282 158 
3 162 161 160 
3 159 161 162 
