ply
format ascii 1.0
comment VCGLIB generated
comment TextureFile Dungeons_2_Texture_01_A.png
element vertex 84
property float x
property float y
property float z
property float nx
property float ny
property float nz
property uchar red
property uchar green
property uchar blue
property uchar alpha
property float texture_u
property float texture_v
element face 86
property list uchar int vertex_indices
end_header
0 152.8302 31.19531 -0.9998317 -0.009516398 0.01568507 192 192 192 255 0.043259 0.521576
0 161.2092 36.27902 -0.9974176 -0.01934175 0.06916737 192 192 192 255 0.043259 0.525074
0 171.7327 36.27902 -0.07159598 -0.7657482 0.639143 192 192 192 255 0.043259 0.774306
0 176.6436 42.16046 -0.585809 -0.2197211 0.7800964 192 192 192 255 0.043259 0.776356
0 228.1336 42.16046 -9.073847e-05 0.0001268818 1 192 192 192 255 0.043259 0.797849
250 178.0758 42.16046 0.4733931 -0.3179174 0.8214788 192 192 192 255 0.147612 0.532114
250 171.7327 36.27902 0.07037368 -0.765125 0.6400245 192 192 192 255 0.147612 0.774306
0 233.0446 36.27902 -0.04307841 0.0005296259 0.9990716 192 192 192 255 0.043259 0.799899
250 225.7719 42.16046 9.164347e-05 6.344507e-05 1 192 192 192 255 0.147612 0.796863
250 233.0446 36.27902 0.02830343 0.0006837293 0.9995992 192 192 192 255 0.147612 0.555059
250 152.8302 31.19531 0.9993514 -0.01868088 0.03078714 192 192 192 255 0.147612 0.521576
250 161.2092 36.27902 0.9993526 -0.009689636 0.03464778 192 192 192 255 0.147612 0.525074
0 243.568 36.27902 -0.9993682 0.0109527 0.033813 192 192 192 255 0.043259 0.804291
0 250.5795 31.19531 -0.06624213 0.5889603 0.8054426 192 192 192 255 0.043259 0.807218
250 243.568 36.27902 0.01854802 0.29169 0.9563331 192 192 192 255 0.147612 0.559452
250 250.5795 31.19531 0.0372633 0.5884496 0.8076748 192 192 192 255 0.147612 0.562378
0 0 31.19531 -0.4850713 -0.4850713 0.7276069 192 192 192 255 0.040541 0.773618
0 500 31.19531 -0.0002606147 0.0001303073 1 192 192 192 255 0.040541 0.993197
0 500 -14.2392 -0.6666667 0.6666667 -0.3333333 192 192 192 255 0.040541 0.993197
0 0 -14.2392 -0.8017837 -0.2672613 -0.5345224 192 192 192 255 0.040541 0.773618
250 286 31.19531 0.5733749 0.1751238 0.800358 192 192 192 255 0.15033 0.899217
250 464 31.19531 0.3302743 -0.2019756 0.9220222 192 192 192 255 0.15033 0.732547
0 286 31.19531 -0.3302835 0.4035094 0.8532837 192 192 192 255 0.040541 0.899217
0 464 31.19531 -0.3302371 -0.2018557 0.9220617 192 192 192 255 0.040541 0.977387
250 304.2 17.1535 2.710167e-05 0.03095515 0.9995208 192 192 192 255 0.15033 0.66237
250 445.8 17.1535 0.0001029069 -0.06689673 0.9977599 192 192 192 255 0.15033 0.724555
0 304.2 17.1535 -7.806814e-05 0.05942965 0.9982325 192 192 192 255 0.040541 0.66237
0 445.8 17.1535 -5.388406e-05 -0.03502952 0.9993863 192 192 192 255 0.040541 0.724555
250 500 31.19531 0.0002606147 0.0002606147 0.9999999 192 192 192 255 0.15033 0.993197
250 0 31.19531 0.3015114 -0.3015114 0.904534 192 192 192 255 0.15033 0.773618
250 0 -14.2392 0.8728715 -0.4364358 -0.2182181 192 192 192 255 0.15033 0.773618
250 500 -14.23926 0.6666666 0.3333334 -0.6666668 192 192 192 255 0.15033 0.993197
140.9454 243.568 36.27902 0.04209166 0.3246368 0.9449017 192 192 192 255 0.102091 0.559452
181.3948 238.2746 36.27902 0 0.1096619 0.993969 192 192 192 255 0.118975 0.802082
177.1793 247.8868 33.16437 4.60794e-05 0.4742284 0.8804018 192 192 192 255 0.117216 0.561254
129.6858 464 31.19531 -0.07947029 -0.37497 0.9236244 192 192 192 255 0.097493 0.732547
37.13733 464 31.19531 0.02587738 -0.3324068 0.942781 192 192 192 255 0.05685 0.732547
104.9789 469.3073 31.19531 0 -0.03920059 0.9992314 192 192 192 255 0.086643 0.979718
109.6056 459.3145 27.54898 1.216452e-08 -0.5636385 0.8260216 192 192 192 255 0.088675 0.73049
154.3519 177.8517 42.16046 -0.0405027 -0.3015142 0.952601 192 192 192 255 0.107687 0.532021
14.81918 176.9471 42.16046 0.02315915 -0.3655247 0.9305135 192 192 192 255 0.049445 0.531643
114.2084 183.271 42.16046 0.0002556587 -0.03943473 0.9992222 192 192 192 255 0.090931 0.779123
103.5126 173.7407 38.69 0.001480421 -0.512598 0.8586274 192 192 192 255 0.086466 0.530305
80.71701 286 31.19531 0.095052 0.3454764 0.9336012 192 192 192 255 0.075988 0.654377
187.4293 286 31.19531 -0.04649612 0.1614038 0.9857925 192 192 192 255 0.122852 0.654377
159.8877 277.9943 31.19531 -0.02456682 0.2381931 0.9709071 192 192 192 255 0.110757 0.895701
109.7223 277.9854 31.19531 0.03345387 0.3308361 0.9430951 192 192 192 255 0.088726 0.895697
105.559 292.3629 26.2861 2.85446e-11 0.4975297 0.8674469 192 192 192 255 0.086898 0.657172
0 161.2092 36.27902 -0.9974176 -0.01934175 0.06916737 192 192 192 255 0.043259 0.769914
250 161.2092 36.27902 0.9993526 -0.009689636 0.03464778 192 192 192 255 0.147612 0.769914
0 171.7327 36.27902 -0.07159598 -0.7657482 0.639143 192 192 192 255 0.043259 0.529467
250 171.7327 36.27902 0.07037368 -0.765125 0.6400245 192 192 192 255 0.147612 0.529467
0 228.1336 42.16046 -9.073847e-05 0.0001268818 1 192 192 192 255 0.043259 0.553009
250 225.7719 42.16046 9.164347e-05 6.344507e-05 1 192 192 192 255 0.147612 0.552023
0 233.0446 36.27902 -0.04307841 0.0005296259 0.9990716 192 192 192 255 0.043259 0.555059
250 233.0446 36.27902 0.02830343 0.0006837293 0.9995992 192 192 192 255 0.147612 0.799899
0 250.5795 31.19531 -0.06624213 0.5889603 0.8054426 192 192 192 255 0.043259 0.562378
0 152.8302 31.19531 -0.9998317 -0.009516398 0.01568507 192 192 192 255 0.043259 0.766416
0 445.8 17.1535 -5.388406e-05 -0.03502952 0.9993863 192 192 192 255 0.040541 0.969394
0 304.2 17.1535 -7.806814e-05 0.05942965 0.9982325 192 192 192 255 0.040541 0.90721
181.3948 238.2746 36.27902 0 0.1096619 0.993969 192 192 192 255 0.118975 0.557242
104.9789 469.3073 31.19531 0 -0.03920059 0.9992314 192 192 192 255 0.086643 0.734878
0 464 31.19531 -0.3302371 -0.2018557 0.9220617 192 192 192 255 0.040541 0.732547
37.13733 464 31.19531 0.02587738 -0.3324068 0.942781 192 192 192 255 0.05685 0.977387
129.6858 464 31.19531 -0.07947029 -0.37497 0.9236244 192 192 192 255 0.097493 0.977387
250 464 31.19531 0.3302743 -0.2019756 0.9220222 192 192 192 255 0.15033 0.977387
250 243.568 36.27902 0.01854802 0.29169 0.9563331 192 192 192 255 0.147612 0.804291
140.9454 243.568 36.27902 0.04209166 0.3246368 0.9449017 192 192 192 255 0.102091 0.804291
0 243.568 36.27902 -0.9993682 0.0109527 0.033813 192 192 192 255 0.043259 0.559452
114.2084 183.271 42.16046 0.0002556587 -0.03943473 0.9992222 192 192 192 255 0.090931 0.534283
0 176.6436 42.16046 -0.585809 -0.2197211 0.7800964 192 192 192 255 0.043259 0.531516
14.81918 176.9471 42.16046 0.02315915 -0.3655247 0.9305135 192 192 192 255 0.049445 0.776483
250 178.0758 42.16046 0.4733931 -0.3179174 0.8214788 192 192 192 255 0.147612 0.776954
154.3519 177.8517 42.16046 -0.0405027 -0.3015142 0.952601 192 192 192 255 0.107687 0.77686
250 152.8302 31.19531 0.9993514 -0.01868088 0.03078714 192 192 192 255 0.147612 0.766416
250 250.5795 31.19531 0.0372633 0.5884496 0.8076748 192 192 192 255 0.147612 0.807218
250 445.8 17.1535 0.0001029069 -0.06689673 0.9977599 192 192 192 255 0.15033 0.969394
250 304.2 17.1535 2.710167e-05 0.03095515 0.9995208 192 192 192 255 0.15033 0.90721
159.8877 277.9943 31.19531 -0.02456682 0.2381931 0.9709071 192 192 192 255 0.110757 0.650862
109.7223 277.9854 31.19531 0.03345387 0.3308361 0.9430951 192 192 192 255 0.088726 0.650858
187.4293 286 31.19531 -0.04649612 0.1614038 0.9857925 192 192 192 255 0.122852 0.899217
80.71701 286 31.19531 0.095052 0.3454764 0.9336012 192 192 192 255 0.075988 0.899217
0 286 31.19531 -0.3302835 0.4035094 0.8532837 192 192 192 255 0.040541 0.654377
250 286 31.19531 0.5733749 0.1751238 0.800358 192 192 192 255 0.15033 0.654377
3 13 7 12 
3 10 11 1 
3 10 1 0 
3 48 49 6 
3 48 6 2 
3 50 51 42 
3 41 8 4 
3 52 53 9 
3 52 9 54 
3 7 55 33 
3 56 34 15 
3 7 2 3 
3 7 3 4 
3 2 57 48 
3 13 57 2 
3 13 2 7 
3 24 27 26 
3 17 37 28 
3 25 38 27 
3 26 47 24 
3 29 45 46 
3 29 46 16 
3 58 23 17 
3 58 17 18 
3 59 19 16 
3 59 16 22 
3 58 18 19 
3 58 19 59 
3 16 19 30 
3 16 30 29 
3 31 30 19 
3 31 19 18 
3 18 17 28 
3 18 28 31 
3 14 34 60 
3 60 34 32 
3 36 38 61 
3 61 38 35 
3 25 21 35 
3 25 35 38 
3 27 38 36 
3 27 36 62 
3 37 17 23 
3 37 23 63 
3 37 64 65 
3 37 65 28 
3 33 55 66 
3 7 33 67 
3 7 67 12 
3 56 68 32 
3 56 32 34 
3 15 34 14 
3 69 42 39 
3 40 42 69 
3 42 51 5 
3 42 5 39 
3 50 42 40 
3 50 40 70 
3 41 4 3 
3 41 3 71 
3 72 8 41 
3 72 41 73 
3 24 25 27 
3 55 6 74 
3 55 74 75 
3 55 75 66 
3 72 6 55 
3 72 55 8 
3 74 6 49 
3 76 31 28 
3 76 28 65 
3 76 77 30 
3 76 30 31 
3 30 77 20 
3 30 20 29 
3 78 47 79 
3 44 47 78 
3 79 47 43 
3 20 80 45 
3 20 45 29 
3 16 46 81 
3 16 81 22 
3 82 43 47 
3 82 47 26 
3 24 47 44 
3 24 44 83 
