ply
format ascii 1.0
comment VCGLIB generated
comment TextureFile Dungeons_2_Texture_01_A.png
element vertex 393
property float x
property float y
property float z
property float nx
property float ny
property float nz
property uchar red
property uchar green
property uchar blue
property uchar alpha
property float texture_u
property float texture_v
element face 371
property list uchar int vertex_indices
end_header
0.010573 -5.9e-05 -16.65117 -0.001674462 -0.9999986 2.922394e-06 192 192 192 255 0.048902 0.850463
0.010573 74.24057 -16.65117 -0.7071068 0.5956324 -0.3810802 192 192 192 255 0.048788 0.850665
0.010573 57.91996 -42.16045 -0.4952038 0.4171356 -0.7620834 192 192 192 255 0.048782 0.850247
0.010573 -5.9e-05 -42.16045 -0.5773503 -0.5773503 -0.5773503 192 192 192 255 0.048908 0.850043
60.1614 0 -16.65117 0.1389637 -0.9901819 -0.01513436 192 192 192 255 0.048703 0.8504
51.03569 -5.9e-05 -42.16045 0.156591 -0.5703402 -0.8063444 192 192 192 255 0.048618 0.849959
59.13782 -5.9e-05 -36.46326 0.002569666 -0.9999956 -0.001484797 192 192 192 255 0.048624 0.850078
51.03569 57.91996 -42.16045 0.3761891 0.3180781 -0.8702345 192 192 192 255 0.048482 0.850155
1.6e-05 0 -0 -0.9749179 -0.222565 0 192 192 192 255 0.001764 0.753493
43.01081 -0 -35.1449 0.0009292392 -0.9999987 -0.001355483 192 192 192 255 0.022029 0.753493
1.7e-05 0 31.19531 -0.9908271 -0.135135 0.000201465 192 192 192 255 0.001764 0.753493
43.01081 0 31.19531 0.5224956 -0.4167763 0.7438386 192 192 192 255 0.022029 0.753493
63.75875 0 16.65117 0.1904186 -0.981494 -0.02025633 192 192 192 255 0.031804 0.753493
63.93156 20.0898 -16.65117 0.9773468 -0.1825943 -0.1070168 192 192 192 255 0.120121 0.772732
1.6e-05 315.3606 -35.1449 -0.9814113 0.1042956 -0.1611041 192 192 192 255 0.001764 0.90208
1.7e-05 0 -35.1449 -0.9908272 -0.1351351 -0.0001788244 192 192 192 255 0.001764 0.753493
0.010573 -5.9e-05 16.65117 -0.001534194 -0.9999989 0 192 192 192 255 0.048902 0.850463
0.010573 -5.9e-05 42.16045 -0.0007682763 -0.9999995 0.0007682763 192 192 192 255 0.048908 0.850043
0.010573 57.91996 42.16045 -0.4952038 0.4171356 0.7620834 192 192 192 255 0.048782 0.850247
0.010573 74.24057 16.65117 -0.7071068 0.5956324 0.3810802 192 192 192 255 0.048788 0.850665
1.6e-05 315.3606 31.19531 -0.9792132 0.09204989 0.1807443 192 192 192 255 0.001764 0.90208
51.03569 -5.9e-05 42.16045 0.000460226 -0.9999976 0.002149694 192 192 192 255 0.048618 0.849959
51.03569 57.91996 42.16045 0.7288709 0.1915011 0.6573238 192 192 192 255 0.048482 0.850155
63.67442 -5.9e-05 33.95493 0.652051 -0.5782511 0.4903625 192 192 192 255 0.048628 0.850145
63.80581 -5.9e-05 16.65117 0.8989787 -0.4354644 0.0469908 192 192 192 255 0.048691 0.850396
67.5423 67.34853 -31.81634 0.1748719 0.5746197 -0.79952 192 192 192 255 0.048501 0.850398
68.89502 74.24057 -16.65117 -0.2605386 0.887028 -0.3811837 192 192 192 255 0.04855 0.850586
1.6e-05 343.8985 -16.65117 -0.6429051 0.4165031 -0.642805 192 192 192 255 0.001764 0.915526
43.01081 225.2851 -35.1449 0.3030714 -0.1680506 -0.9380335 192 192 192 255 0.022029 0.85964
63.09234 51.4824 -34.27677 0.5478872 -0.007733514 -0.8365165 192 192 192 255 0.048522 0.850294
63.90469 25.12196 -33.82761 0.553688 0.002219788 -0.8327213 192 192 192 255 0.048577 0.850225
1.6e-05 343.8985 16.65117 -0.3848098 0.2354974 0.8924474 192 192 192 255 0.001764 0.915526
100.4225 199.5148 -16.65117 0.3071033 -0.05596649 -0.9500292 192 192 192 255 0.120104 0.77247
104.4686 198.9063 -2.29396 0.9876333 -0.13063 -0.08669562 192 192 192 255 0.120075 0.772473
63.71181 218.9757 -16.65117 0.0002213863 -5.604663e-05 -1 192 192 192 255 0.031782 0.856667
101.3043 259.8735 -16.65117 0.7309045 -0.06581467 -0.6792991 192 192 192 255 0.049495 0.875937
93.8308 207.9357 16.65117 0.4472669 -0.02286993 0.8941081 192 192 192 255 0.120056 0.772486
90.86757 150.0228 16.65117 0.8620101 -0.04445211 0.5049382 192 192 192 255 0.120055 0.772562
43.01081 225.2851 31.19531 0.5745207 -0.0001417982 0.8184901 192 192 192 255 0.022029 0.85964
99.12831 257.5062 16.65117 0.5505828 0.009761249 0.8347235 192 192 192 255 0.048469 0.874821
63.71181 218.9757 16.65117 0.4663143 -5.752593e-05 0.8846191 192 192 192 255 0.031782 0.856667
62.18692 47.47915 32.77064 0.8968331 0.01644843 0.4420631 192 192 192 255 0.048528 0.850269
69.64967 74.24057 16.65117 0.8961232 0.01841517 0.4434233 192 192 192 255 0.04854 0.850583
1.6e-05 500 -16.65117 -0.0001012748 7.595614e-05 -1 192 192 192 255 0.119651 0.989053
1.5e-05 356.6969 -16.65117 -0.5037945 -0.5494741 -0.6665354 192 192 192 255 0.119651 0.69012
1.5e-05 375.6408 -31.19531 -0.3647467 -0.3978187 -0.8418434 192 192 192 255 0.119651 0.699039
70.85753 421.015 -16.65117 0.6347791 -0.3880959 -0.6681596 192 192 192 255 0.151251 0.720403
1.5e-05 397.0761 -31.19531 -0.8660641 -0.3530374 -0.353974 192 192 192 255 0.119651 0.709132
1.5e-05 407.7762 -42.16045 0.01103478 -0.4798891 -0.8772597 192 192 192 255 0.119651 0.713342
45.71523 435.566 -31.19531 0.6340334 -0.4250536 -0.6460117 192 192 192 255 0.141175 0.727254
36.89943 439.3753 -42.16045 0.4685588 -0.1369468 -0.8727533 192 192 192 255 0.137025 0.727254
413.0151 0 -16.65117 -0.8617676 -0.1950419 -0.468311 192 192 192 255 0.119853 0.772242
396.0103 35.03191 0.268271 -0.9796933 -0.1125304 -0.1659457 192 192 192 255 0.119837 0.772226
60.94557 428.5412 -31.19531 0.4878693 -0.1259193 -0.8637869 192 192 192 255 0.148346 0.723947
1.6e-05 500 16.65117 -0.7844645 0.5883484 0.1961165 192 192 192 255 0.119651 0.989053
4.6e-05 500 -31.19531 -0.4850713 0.727607 -0.4850712 192 192 192 255 0.119651 0.989053
401.7755 0 4.088765 -0.8629647 -0.196386 -0.4655368 192 192 192 255 0.11983 0.772259
500 -0 0 0.9858526 -0.1676148 0 192 192 192 255 0.237346 0.753493
1.5e-05 356.6969 16.65117 -0.5037945 -0.5494741 0.6665354 192 192 192 255 0.119651 0.69012
70.85753 421.015 16.65117 0.634779 -0.3880958 0.6681596 192 192 192 255 0.151251 0.720403
1.5e-05 375.6408 31.19531 -0.3647467 -0.3978186 0.8418434 192 192 192 255 0.119651 0.699039
436.2882 0 -16.65117 -0.0004371685 -0.9999983 -0.00180171 192 192 192 255 0.207327 0.753493
456.9892 0 -35.1449 -0.0004390927 -0.9999993 -0.00115057 192 192 192 255 0.217081 0.753493
500 0 -35.1449 0.9908272 -0.1351352 -8.939808e-05 192 192 192 255 0.237346 0.753493
402.9515 33.32401 16.65117 -0.9164961 0.05506724 0.3962354 192 192 192 255 0.119811 0.772233
404.6247 60.81214 16.65117 -0.2438814 0.0146661 0.9696941 192 192 192 255 0.119811 0.772196
1.5e-05 397.0761 31.19531 -0.8660641 -0.3530374 0.353974 192 192 192 255 0.119651 0.709132
45.71523 435.566 31.19531 0.6340334 -0.4250536 0.6460118 192 192 192 255 0.141175 0.727254
1.5e-05 407.7762 42.16045 0.01103478 -0.479889 0.8772598 192 192 192 255 0.119651 0.713342
63.71181 53.59314 -16.65117 0.2992512 -0.07510383 -0.9512141 192 192 192 255 0.120123 0.772697
63.71181 53.03279 16.65117 0.9635817 -0.2672793 0.008496882 192 192 192 255 0.120071 0.772717
60.94557 428.5412 31.19531 0.4878693 -0.1259193 0.8637869 192 192 192 255 0.148346 0.723947
456.9892 0 31.19531 -0.0004400036 -0.999999 0.00139165 192 192 192 255 0.217081 0.753493
436.2882 0 16.65117 -0.000280678 -0.6216877 0.7832652 192 192 192 255 0.207327 0.753493
4.6e-05 500 31.19531 -0.4850713 0.727607 0.4850712 192 192 192 255 0.119651 0.989053
1.6e-05 500 -0 -0.4472136 0.8944272 0 192 192 192 255 0.001764 0.989076
36.89943 439.3753 42.16045 0.4685588 -0.1369468 0.8727533 192 192 192 255 0.137025 0.727254
387.6365 134.8355 -16.65117 -0.000458195 -1.173583e-05 -0.9999999 192 192 192 255 0.11987 0.772119
384.5692 134.1072 -10.53686 -0.9779457 0.01681407 0.2081814 192 192 192 255 0.119857 0.772128
500 0 31.19531 0.9908272 -0.1351352 0.0001007166 192 192 192 255 0.237346 0.753493
90.21468 276.6394 -35.1449 0.7214762 -0.2378792 -0.6502965 192 192 192 255 0.04427 0.633836
208.6559 394.2254 -16.65117 -0.06611177 -0.9496555 -0.3062413 192 192 192 255 0.101213 0.70779
179.1425 421.015 -16.65117 -0.7022601 -0.298694 -0.6462296 192 192 192 255 0.088051 0.720403
500.0001 315.3606 -35.1449 1 6.063159e-05 -0.00026103 192 192 192 255 0.237346 0.90208
213.1006 439.3753 -42.16045 -0.1305398 -0.1546947 -0.9793002 192 192 192 255 0.102278 0.727254
250 407.7762 -42.16045 0.0002262334 -0.0007667808 -0.9999997 192 192 192 255 0.119651 0.713342
204.2848 435.566 -31.19531 -0.5080166 -0.6008465 -0.6171731 192 192 192 255 0.098127 0.727254
393.021 266.0472 -16.65117 -0.1108281 -0.00435776 -0.9938301 192 192 192 255 0.186941 0.878845
436.2882 218.9757 -16.65117 -0.0003110075 -8.142593e-05 -0.9999999 192 192 192 255 0.207327 0.856667
500.0001 315.3606 31.19531 1 2.958734e-05 0.000319293 192 192 192 255 0.237346 0.90208
179.1425 421.015 16.65117 -0.703027 -0.29707 0.6461443 192 192 192 255 0.088051 0.720403
207.9774 394.5713 16.65117 -0.217251 -0.6939462 0.6864697 192 192 192 255 0.100882 0.708052
286.8994 439.3753 -42.16045 0.123956 -0.1465536 -0.9814056 192 192 192 255 0.137025 0.977254
395.7164 291.9453 -35.1449 -0.4756045 -0.4358206 -0.7641079 192 192 192 255 0.188211 0.641048
456.9892 225.2851 -35.1449 -0.4743181 -0.4355636 -0.7650534 192 192 192 255 0.217081 0.60964
102.9654 315.3606 -35.1449 0.3039919 0.3770185 -0.8748977 192 192 192 255 0.050277 0.90208
104.4686 309.9948 -11.43976 0.9183645 -0.3950488 0.02330633 192 192 192 255 0.120094 0.772328
295.7152 435.566 -31.19531 0.5075285 -0.6014473 -0.6169895 192 192 192 255 0.141175 0.727254
390.3968 138.7151 16.65117 -0.5362927 0.04122257 0.8430248 192 192 192 255 0.119817 0.772126
436.2882 218.9757 16.65117 -0.2798781 -0.07120411 0.9573914 192 192 192 255 0.207327 0.856667
392.9504 266.124 16.65117 -0.5687819 -0.1559791 0.8075629 192 192 192 255 0.186908 0.878882
97.40318 284.4599 31.19531 0.7485757 -0.1460546 0.6467631 192 192 192 255 0.047657 0.637521
306.7711 410.5797 -16.65117 -0.5295995 -0.5777829 -0.6210405 192 192 192 255 0.119934 0.771861
304.301 407.5898 10.07492 -0.7762084 -0.6148767 -0.1393814 192 192 192 255 0.119896 0.771881
204.2848 435.566 31.19531 -0.6851036 -0.3206986 0.6540532 192 192 192 255 0.098127 0.727254
250 407.7762 42.16045 0.007919735 -0.05474725 0.9984689 192 192 192 255 0.119749 0.712799
213.1006 439.3753 42.16045 -0.0005537577 -0.0002592153 0.9999998 192 192 192 255 0.102278 0.727254
350.1537 360.2308 -16.65117 -0.04925503 -0.03935574 -0.9980106 192 192 192 255 0.166744 0.923221
346.9727 357.5158 3.049838 -0.6453995 -0.7637947 -0.008783182 192 192 192 255 0.119869 0.771889
396.1656 324.2684 -29.35961 -0.08982591 0.5388277 -0.8376133 192 192 192 255 0.119868 0.771854
390.0324 321.2303 0.119171 -0.9890249 0.01674394 0.1467977 192 192 192 255 0.119839 0.771878
500.0001 343.8985 -16.65117 0.9127738 0.2219202 -0.3429217 192 192 192 255 0.237346 0.915526
136.5089 343.8985 -16.65117 0.170926 0.3862016 -0.9064396 192 192 192 255 0.066082 0.915526
456.9892 225.2851 31.19531 -0.3079383 -0.1712095 0.9358746 192 192 192 255 0.217081 0.60964
395.6446 292.0235 31.19531 -0.6001623 -0.09444804 0.7942825 192 192 192 255 0.188178 0.641085
286.8994 439.3753 42.16045 0.0008876108 -0.0002591675 0.9999996 192 192 192 255 0.137025 0.977254
306.759 408.2177 16.65117 -2.271301e-05 -0.0002205921 1 192 192 192 255 0.119878 0.771882
1.5e-05 500 -42.16045 -0.6666671 0.3333337 -0.6666661 192 192 192 255 0.119651 0.989053
396.1383 324.2549 26.63891 -0.0849989 0.449301 0.8893278 192 192 192 255 0.1198 0.771876
98.98413 315.3606 31.19531 0.1769434 0.2792924 0.9437621 192 192 192 255 0.120046 0.772348
500.0001 343.8985 16.65117 0.8853327 0.2106671 0.4144941 192 192 192 255 0.237346 0.915526
295.7152 435.566 31.19531 0.6338354 -0.4245539 0.6465344 192 192 192 255 0.141175 0.727254
448.9854 -5.9e-05 -42.16045 -0.3847679 -0.5777393 -0.719841 192 192 192 255 0.049197 0.850127
500.0106 -5.9e-05 -42.16045 0.6666667 -0.3333333 -0.6666667 192 192 192 255 0.048908 0.850043
500.0106 -5.9e-05 -16.65117 0.4472136 -0.8944272 0 192 192 192 255 0.048902 0.850463
420.413 -5.9e-05 -16.65117 -0.4709252 -0.7071068 -0.5274746 192 192 192 255 0.049165 0.850546
420.413 74.24057 -16.65117 -0.5181545 0.3276843 -0.7900247 192 192 192 255 0.04906 0.850756
448.9854 57.91996 -42.16045 -0.1573982 0.3981586 -0.9037121 192 192 192 255 0.049082 0.850339
500 500 0 0.8944272 0.4472136 0 192 192 192 255 0.237346 0.989076
36.89943 500 -42.16045 0.2893808 0.7426189 -0.6039669 192 192 192 255 0.137025 0.989053
60.94557 500 -31.19531 0.309549 0.749199 -0.5855597 192 192 192 255 0.148346 0.989053
408.1713 0 16.65117 -0.3220329 -0.3997853 0.8581764 192 192 192 255 0.19408 0.753493
131.5132 343.8985 16.65117 0.1257347 0.05861524 0.9903308 192 192 192 255 0.063728 0.915526
500.0106 57.91996 -42.16045 0.4952038 0.4171356 -0.7620834 192 192 192 255 0.048782 0.850247
500.0001 356.6969 -16.65117 0.5037945 -0.5494741 -0.6665354 192 192 192 255 0.119651 0.69012
429.1425 421.015 -16.65117 -0.634779 -0.3880958 -0.6681596 192 192 192 255 0.151251 0.720403
500.0001 375.6408 -31.19531 0.3647467 -0.3978186 -0.8418434 192 192 192 255 0.119651 0.699039
439.0545 428.5412 -31.19531 -0.4878693 -0.1259193 -0.8637869 192 192 192 255 0.148346 0.723947
45.71523 500 -31.19531 0.6970736 0.4472136 -0.560436 192 192 192 255 0.141175 0.739053
500.0001 407.7762 -42.16045 -0.01103478 -0.4798891 -0.8772598 192 192 192 255 0.119651 0.713342
454.2849 435.566 -31.19531 -0.6340334 -0.4250536 -0.6460117 192 192 192 255 0.141175 0.727254
463.1006 439.3753 -42.16045 -0.4685588 -0.1369468 -0.8727533 192 192 192 255 0.137025 0.727254
500.0001 397.0761 -31.19531 0.8660641 -0.3530374 -0.353974 192 192 192 255 0.119651 0.709132
1.5e-05 500 42.16045 -0.6666671 0.3333337 0.6666661 192 192 192 255 0.119651 0.989053
500.0001 500 -16.65117 5.692871e-05 7.590494e-05 -1 192 192 192 255 0.237346 0.989076
70.85753 500 -16.65117 0.7391068 0.4472136 -0.5037074 192 192 192 255 0.151251 0.739053
500.0106 74.24057 -16.65117 0.7071068 0.5956324 -0.3810802 192 192 192 255 0.048788 0.850665
500.0001 356.6969 16.65117 0.5037945 -0.5494741 0.6665354 192 192 192 255 0.119651 0.69012
500.0001 375.6408 31.19531 0.3647467 -0.3978187 0.8418434 192 192 192 255 0.119651 0.699039
429.1425 421.015 16.65117 -0.6347791 -0.3880959 0.6681596 192 192 192 255 0.151251 0.720403
448.9854 -5.9e-05 42.16045 -0.3847679 -0.5777393 0.719841 192 192 192 255 0.049197 0.850127
420.413 -5.9e-05 16.65117 -0.4709252 -0.7071068 0.5274746 192 192 192 255 0.049165 0.850546
500.0106 -5.9e-05 16.65117 0.4472136 -0.8944272 0 192 192 192 255 0.048902 0.850463
500.0106 -5.9e-05 42.16045 0.6666667 -0.3333333 0.6666667 192 192 192 255 0.048908 0.850043
448.9854 57.91996 42.16045 -0.1573982 0.3981586 0.9037121 192 192 192 255 0.049082 0.850339
420.413 74.24057 16.65117 -0.5181545 0.3276843 0.7900247 192 192 192 255 0.04906 0.850756
439.0545 428.5412 31.19531 -0.4878693 -0.1259193 0.8637869 192 192 192 255 0.148346 0.723947
60.94557 500 31.19531 0.309549 0.749199 0.5855597 192 192 192 255 0.148346 0.989053
500 500 -31.19531 0.4850713 0.727607 -0.4850712 192 192 192 255 0.119651 0.989053
36.89943 500 42.16045 0.2893808 0.7426189 0.6039669 192 192 192 255 0.137025 0.989053
500.0001 397.0761 31.19531 0.8660641 -0.3530374 0.353974 192 192 192 255 0.119651 0.709132
500.0001 407.7762 42.16045 -0.01103478 -0.4798891 0.8772598 192 192 192 255 0.119651 0.713342
454.2849 435.566 31.19531 -0.6340334 -0.4250536 0.6460117 192 192 192 255 0.141175 0.727254
500.0001 500 16.65117 0.0001377271 0.0001836361 1 192 192 192 255 0.237346 0.989076
463.1006 439.3753 42.16045 -0.4685588 -0.1369468 0.8727533 192 192 192 255 0.137025 0.727254
500.0106 57.91996 42.16045 0.4952038 0.4171356 0.7620834 192 192 192 255 0.048782 0.850247
45.71523 500 31.19531 0.6970736 0.4472136 0.560436 192 192 192 255 0.141175 0.739053
500 500 31.19531 0.4850713 0.727607 0.4850712 192 192 192 255 0.119651 0.989053
70.85753 500 16.65117 0.7391068 0.4472136 0.5037074 192 192 192 255 0.151251 0.739053
500.0106 74.24057 16.65117 0.7071068 0.5956324 0.3810802 192 192 192 255 0.048788 0.850665
189.0546 428.5412 -31.19531 -0.2448833 -0.1041568 -0.9639417 192 192 192 255 0.090956 0.723947
224.0682 398.1495 -31.19531 -0.2538786 -0.6398471 -0.7253561 192 192 192 255 0.107441 0.709637
182.356 387.6408 -10.83331 0.4942057 -0.8682318 -0.04398112 192 192 192 255 0.120027 0.772092
182.0236 389.3213 -16.65117 0.2845019 -0.5502758 -0.7850193 192 192 192 255 0.120044 0.772085
189.0546 500 -31.19531 -0.4926776 0.5962142 -0.6338751 192 192 192 255 0.090956 0.739053
179.1425 500 -16.65117 -0.584313 0.7071068 -0.398219 192 192 192 255 0.088051 0.739053
250 403.1077 -38.78527 0.1440868 -0.9875982 -0.06235987 192 192 192 255 0.119651 0.711505
258.24 404.0138 -31.19531 0.4759189 -0.6785221 -0.5595615 192 192 192 255 0.123531 0.712398
213.1006 500 -42.16045 -0.45951 0.5896052 -0.6642412 192 192 192 255 0.102278 0.739053
204.2848 500 -31.19531 -0.5510851 0.7071068 -0.4430635 192 192 192 255 0.098127 0.739053
213.6118 407.2257 31.19531 -0.1140371 -0.3616224 0.9253242 192 192 192 255 0.102517 0.713911
189.0546 428.5412 31.19531 -0.2452643 -0.1036385 0.9639007 192 192 192 255 0.090956 0.723947
178.2959 390.4671 16.65117 6.718688e-05 -0.0001841077 1 192 192 192 255 0.119989 0.772109
189.0546 500 31.19531 -0.4926776 0.5962142 0.6338751 192 192 192 255 0.090956 0.739053
179.1425 500 16.65117 -0.584313 0.7071068 0.398219 192 192 192 255 0.088051 0.739053
286.8994 500 -42.16045 0.2672158 0.3428692 -0.9005756 192 192 192 255 0.137025 0.989053
310.9456 500 -31.19531 0.2876513 0.3480995 -0.8922352 192 192 192 255 0.148346 0.989053
310.9456 428.5412 -31.19531 0.5067561 -0.2334658 -0.8298746 192 192 192 255 0.148346 0.973947
245.1328 401.174 31.19531 0.1246673 -0.8734553 0.470674 192 192 192 255 0.118401 0.711514
396.4563 315.3606 -35.1449 -0.9745432 0.09530219 -0.2029364 192 192 192 255 0.18856 0.90208
287.7587 408.4152 -31.19531 0.2130248 -0.6657047 -0.7151628 192 192 192 255 0.137429 0.714471
320.8574 421.015 -16.65117 -0.005733859 -0.004973038 -0.9999712 192 192 192 255 0.151251 0.720403
295.7152 500 -31.19531 0.5510851 0.7071068 -0.4430635 192 192 192 255 0.141175 0.989053
256.9325 402.9129 31.19531 0.1314554 -0.8726826 0.4702601 192 192 192 255 0.121679 0.711998
213.1006 500 42.16045 -0.45951 0.5896052 0.6642412 192 192 192 255 0.102278 0.739053
204.2848 500 31.19531 -0.5510851 0.7071068 0.4430635 192 192 192 255 0.098127 0.739053
320.8575 500 -16.65117 0.5843162 0.7071066 -0.3982146 192 192 192 255 0.151251 0.989053
350.582 359.5969 16.65117 -0.01584594 -0.01913974 0.9996912 192 192 192 255 0.119842 0.771888
320.8575 421.015 16.65117 0.6423113 -0.3993713 0.6541703 192 192 192 255 0.151251 0.720403
310.9456 428.5412 31.19531 0.4913681 -0.1297932 0.8612266 192 192 192 255 0.148346 0.723947
310.9456 500 31.19531 0.2876508 0.3480995 0.8922353 192 192 192 255 0.148346 0.989053
286.3964 407.2327 31.19531 0.002144107 -0.003980129 0.9999898 192 192 192 255 0.136788 0.713914
396.4166 315.3606 31.19531 -0.9708109 0.08274294 0.2251219 192 192 192 255 0.188541 0.90208
286.8994 500 42.16045 0.2672158 0.3428692 0.9005756 192 192 192 255 0.137025 0.989053
320.8575 500 16.65117 0.5843152 0.7071068 0.3982157 192 192 192 255 0.151251 0.989053
295.7152 500 31.19531 0.5510851 0.7071068 0.4430635 192 192 192 255 0.141175 0.989053
429.1425 500 -16.65117 -0.7391068 0.4472136 -0.5037074 192 192 192 255 0.151251 0.739053
439.0545 500 -31.19531 -0.309549 0.749199 -0.5855597 192 192 192 255 0.148346 0.739053
454.2849 500 -31.19531 -0.6970736 0.4472136 -0.560436 192 192 192 255 0.141175 0.739053
463.1006 500 -42.16045 -0.2893808 0.7426189 -0.6039669 192 192 192 255 0.137025 0.739053
500.0001 500 -42.16045 0.666667 0.3333336 -0.6666661 192 192 192 255 0.119651 0.989053
439.0545 500 31.19531 -0.309549 0.749199 0.5855597 192 192 192 255 0.148346 0.739053
429.1425 500 16.65117 -0.7391068 0.4472136 0.5037074 192 192 192 255 0.151251 0.739053
244.3002 401.875 -31.19531 -0.4458668 -0.6871854 -0.573567 192 192 192 255 0.116967 0.711396
463.1006 500 42.16045 -0.2893808 0.7426189 0.6039669 192 192 192 255 0.137025 0.739053
454.2849 500 31.19531 -0.6970736 0.4472136 0.560436 192 192 192 255 0.141175 0.739053
500.0001 500 42.16045 0.666667 0.3333336 0.6666661 192 192 192 255 0.119651 0.989053
393.0404 277.4581 -25.20731 -0.7220902 -0.3451967 -0.5995206 192 192 192 255 0.186951 0.62892
369.2401 343.8985 -16.65117 -0.1080751 0.4307534 -0.8959751 192 192 192 255 0.119883 0.771867
369.5593 343.8985 16.65117 -0.07492902 0.3639668 0.9283932 192 192 192 255 0.119827 0.771884
104.4686 259.5211 -7.28431 0.9993374 -0.003038002 -0.03627152 192 192 192 255 0.120086 0.772394
236.8357 399.9468 31.19531 -0.1128835 -0.3632155 0.9248415 192 192 192 255 0.113453 0.960483
392.2917 233.2582 16.65117 -0.3411805 -0.1184905 0.9324999 192 192 192 255 0.186598 0.863396
406.4982 192.6584 16.65117 -0.3750545 0.007517215 0.9269723 192 192 192 255 0.193291 0.844267
389.8629 187.5769 9.948845 -0.899707 0.0158752 0.4362057 192 192 192 255 0.119826 0.772059
321.9031 389.9015 -10.47555 -0.4780146 -0.3889306 -0.78755 192 192 192 255 0.119905 0.771874
60.1614 0 -16.65117 0.1389637 -0.9901819 -0.01513436 192 192 192 255 0.03011 0.753493
100.4225 199.5148 -16.65117 0.3071033 -0.05596649 -0.9500292 192 192 192 255 0.049079 0.847498
93.8308 207.9357 16.65117 0.4472669 -0.02286993 0.8941081 192 192 192 255 0.045973 0.851465
1.5e-05 375.6408 -31.19531 -0.3647467 -0.3978187 -0.8418434 192 192 192 255 0.119651 0.949039
1.5e-05 356.6969 -16.65117 -0.5037945 -0.5494741 -0.6665354 192 192 192 255 0.119651 0.94012
63.75875 0 16.65117 0.1904186 -0.981494 -0.02025633 192 192 192 255 0.120067 0.772773
1.5e-05 356.6969 16.65117 -0.5037945 -0.5494741 0.6665354 192 192 192 255 0.119651 0.94012
1.5e-05 375.6408 31.19531 -0.3647467 -0.3978186 0.8418434 192 192 192 255 0.119651 0.949039
101.3043 259.8735 -16.65117 0.7309045 -0.06581467 -0.6792991 192 192 192 255 0.049495 0.625937
63.71181 218.9757 -16.65117 0.0002213863 -5.604663e-05 -1 192 192 192 255 0.031782 0.606667
43.01081 225.2851 -35.1449 0.3030714 -0.1680506 -0.9380335 192 192 192 255 0.022029 0.60964
1.6e-05 500 -16.65117 -0.0001012748 7.595614e-05 -1 192 192 192 255 0.001764 0.989076
43.01081 225.2851 31.19531 0.5745207 -0.0001417982 0.8184901 192 192 192 255 0.022029 0.60964
63.71181 218.9757 16.65117 0.4663143 -5.752593e-05 0.8846191 192 192 192 255 0.031782 0.606667
99.12831 257.5062 16.65117 0.5505828 0.009761249 0.8347235 192 192 192 255 0.048469 0.624821
387.6365 134.8355 -16.65117 -0.000458195 -1.173583e-05 -0.9999999 192 192 192 255 0.184404 0.817023
1.6e-05 500 16.65117 -0.7844645 0.5883484 0.1961165 192 192 192 255 0.001764 0.989076
63.71181 53.59314 -16.65117 0.2992512 -0.07510383 -0.9512141 192 192 192 255 0.031782 0.778744
213.1006 439.3753 -42.16045 -0.1305398 -0.1546947 -0.9793002 192 192 192 255 0.102278 0.977254
250 407.7762 -42.16045 0.0002262334 -0.0007667808 -0.9999997 192 192 192 255 0.119651 0.963342
393.021 266.0472 -16.65117 -0.1108281 -0.00435776 -0.9938301 192 192 192 255 0.186941 0.628845
436.2882 218.9757 -16.65117 -0.0003110075 -8.142593e-05 -0.9999999 192 192 192 255 0.207327 0.606667
101.3043 259.8735 -16.65117 0.7309045 -0.06581467 -0.6792991 192 192 192 255 0.120108 0.772392
286.8994 439.3753 -42.16045 0.123956 -0.1465536 -0.9814056 192 192 192 255 0.137025 0.727254
392.9504 266.124 16.65117 -0.5687819 -0.1559791 0.8075629 192 192 192 255 0.186908 0.628882
436.2882 218.9757 16.65117 -0.2798781 -0.07120411 0.9573914 192 192 192 255 0.207327 0.606667
213.1006 439.3753 42.16045 -0.0005537577 -0.0002592153 0.9999998 192 192 192 255 0.102278 0.977254
250 407.7762 42.16045 0.007919735 -0.05474725 0.9984689 192 192 192 255 0.119749 0.962799
1.5e-05 397.0761 -31.19531 -0.8660641 -0.3530374 -0.353974 192 192 192 255 0.119651 0.959132
1.5e-05 407.7762 -42.16045 0.01103478 -0.4798891 -0.8772597 192 192 192 255 0.119651 0.963342
97.40318 284.4599 31.19531 0.7485757 -0.1460546 0.6467631 192 192 192 255 0.120046 0.77239
99.12831 257.5062 16.65117 0.5505828 0.009761249 0.8347235 192 192 192 255 0.120054 0.772418
43.01081 -0 -35.1449 0.0009292392 -0.9999987 -0.001355483 192 192 192 255 0.022029 0.503493
63.71181 53.59314 -16.65117 0.2992512 -0.07510383 -0.9512141 192 192 192 255 0.031782 0.528744
63.93156 20.0898 -16.65117 0.9773468 -0.1825943 -0.1070168 192 192 192 255 0.031885 0.762959
286.8994 439.3753 42.16045 0.0008876108 -0.0002591675 0.9999996 192 192 192 255 0.137025 0.727254
413.0151 0 -16.65117 -0.8617676 -0.1950419 -0.468311 192 192 192 255 0.196362 0.753493
401.7755 0 4.088765 -0.8629647 -0.196386 -0.4655368 192 192 192 255 0.193358 0.753493
63.71181 53.03279 16.65117 0.9635817 -0.2672793 0.008496882 192 192 192 255 0.031782 0.77848
90.86757 150.0228 16.65117 0.8620101 -0.04445211 0.5049382 192 192 192 255 0.044577 0.824179
36.89943 439.3753 -42.16045 0.4685588 -0.1369468 -0.8727533 192 192 192 255 0.137025 0.977254
60.94557 428.5412 -31.19531 0.4878693 -0.1259193 -0.8637869 192 192 192 255 0.148346 0.973947
98.98413 315.3606 31.19531 0.1769434 0.2792924 0.9437621 192 192 192 255 0.048401 0.90208
36.89943 500 -42.16045 0.2893808 0.7426189 -0.6039669 192 192 192 255 0.137025 0.739053
45.71523 500 -31.19531 0.6970736 0.4472136 -0.560436 192 192 192 255 0.141175 0.989053
1.5e-05 397.0761 31.19531 -0.8660641 -0.3530374 0.353974 192 192 192 255 0.119651 0.959132
1.5e-05 407.7762 42.16045 0.01103478 -0.479889 0.8772598 192 192 192 255 0.119651 0.963342
500.0001 500 -16.65117 5.692871e-05 7.590494e-05 -1 192 192 192 255 0.119651 0.989053
500.0001 356.6969 -16.65117 0.5037945 -0.5494741 -0.6665354 192 192 192 255 0.119651 0.94012
500.0001 375.6408 -31.19531 0.3647467 -0.3978186 -0.8418434 192 192 192 255 0.119651 0.949039
60.94557 500 -31.19531 0.309549 0.749199 -0.5855597 192 192 192 255 0.148346 0.739053
43.01081 0 31.19531 0.5224956 -0.4167763 0.7438386 192 192 192 255 0.022029 0.503493
63.75875 0 16.65117 0.1904186 -0.981494 -0.02025633 192 192 192 255 0.031782 0.503493
63.71181 53.03279 16.65117 0.9635817 -0.2672793 0.008496882 192 192 192 255 0.031782 0.52848
70.85753 500 -16.65117 0.7391068 0.4472136 -0.5037074 192 192 192 255 0.151251 0.989053
90.21468 276.6394 -35.1449 0.7214762 -0.2378792 -0.6502965 192 192 192 255 0.04427 0.883836
60.94557 428.5412 31.19531 0.4878693 -0.1259193 0.8637869 192 192 192 255 0.148346 0.973947
36.89943 439.3753 42.16045 0.4685588 -0.1369468 0.8727533 192 192 192 255 0.137025 0.977254
456.9892 0 -35.1449 -0.0004390927 -0.9999993 -0.00115057 192 192 192 255 0.217081 0.503493
436.2882 0 -16.65117 -0.0004371685 -0.9999983 -0.00180171 192 192 192 255 0.207327 0.503493
500.0001 375.6408 31.19531 0.3647467 -0.3978187 0.8418434 192 192 192 255 0.119651 0.949039
500.0001 356.6969 16.65117 0.5037945 -0.5494741 0.6665354 192 192 192 255 0.119651 0.94012
500.0001 500 16.65117 0.0001377271 0.0001836361 1 192 192 192 255 0.119651 0.989053
36.89943 500 42.16045 0.2893808 0.7426189 0.6039669 192 192 192 255 0.137025 0.739053
60.94557 500 31.19531 0.309549 0.749199 0.5855597 192 192 192 255 0.148346 0.739053
45.71523 500 31.19531 0.6970736 0.4472136 0.560436 192 192 192 255 0.141175 0.989053
70.85753 500 16.65117 0.7391068 0.4472136 0.5037074 192 192 192 255 0.151251 0.989053
456.9892 225.2851 -35.1449 -0.4743181 -0.4355636 -0.7650534 192 192 192 255 0.217081 0.85964
456.9892 0 31.19531 -0.0004400036 -0.999999 0.00139165 192 192 192 255 0.217081 0.503493
436.2882 0 16.65117 -0.000280678 -0.6216877 0.7832652 192 192 192 255 0.207327 0.503493
97.40318 284.4599 31.19531 0.7485757 -0.1460546 0.6467631 192 192 192 255 0.047657 0.887521
102.9654 315.3606 -35.1449 0.3039919 0.3770185 -0.8748977 192 192 192 255 0.120123 0.772314
136.5089 343.8985 -16.65117 0.170926 0.3862016 -0.9064396 192 192 192 255 0.120083 0.772223
456.9892 225.2851 31.19531 -0.3079383 -0.1712095 0.9358746 192 192 192 255 0.217081 0.85964
408.1713 0 16.65117 -0.3220329 -0.3997853 0.8581764 192 192 192 255 0.119809 0.772264
213.1006 500 -42.16045 -0.45951 0.5896052 -0.6642412 192 192 192 255 0.102278 0.989053
189.0546 428.5412 -31.19531 -0.2448833 -0.1041568 -0.9639417 192 192 192 255 0.090956 0.973947
189.0546 500 -31.19531 -0.4926776 0.5962142 -0.6338751 192 192 192 255 0.090956 0.989053
395.7164 291.9453 -35.1449 -0.4756045 -0.4358206 -0.7641079 192 192 192 255 0.188211 0.891048
306.7711 410.5797 -16.65117 -0.5295995 -0.5777829 -0.6210405 192 192 192 255 0.145466 0.714859
310.9456 428.5412 -31.19531 0.5067561 -0.2334658 -0.8298746 192 192 192 255 0.148346 0.723947
131.5132 343.8985 16.65117 0.1257347 0.05861524 0.9903308 192 192 192 255 0.120028 0.77225
204.2848 500 -31.19531 -0.5510851 0.7071068 -0.4430635 192 192 192 255 0.098127 0.989053
179.1425 500 -16.65117 -0.584313 0.7071068 -0.398219 192 192 192 255 0.088051 0.989053
286.8994 500 -42.16045 0.2672158 0.3428692 -0.9005756 192 192 192 255 0.137025 0.739053
295.7152 500 -31.19531 0.5510851 0.7071068 -0.4430635 192 192 192 255 0.141175 0.739053
396.1656 324.2684 -29.35961 -0.08982591 0.5388277 -0.8376133 192 192 192 255 0.188423 0.906277
306.759 408.2177 16.65117 -2.271301e-05 -0.0002205921 1 192 192 192 255 0.144954 0.714378
310.9456 500 -31.19531 0.2876513 0.3480995 -0.8922352 192 192 192 255 0.148346 0.739053
320.8575 500 -16.65117 0.5843162 0.7071066 -0.3982146 192 192 192 255 0.151251 0.739053
189.0546 428.5412 31.19531 -0.2452643 -0.1036385 0.9639007 192 192 192 255 0.090956 0.973947
310.9456 428.5412 31.19531 0.4913681 -0.1297932 0.8612266 192 192 192 255 0.148346 0.973947
189.0546 500 31.19531 -0.4926776 0.5962142 0.6338751 192 192 192 255 0.090956 0.989053
395.6446 292.0235 31.19531 -0.6001623 -0.09444804 0.7942825 192 192 192 255 0.188178 0.891085
213.1006 500 42.16045 -0.45951 0.5896052 0.6642412 192 192 192 255 0.102278 0.989053
179.1425 500 16.65117 -0.584313 0.7071068 0.398219 192 192 192 255 0.088051 0.989053
204.2848 500 31.19531 -0.5510851 0.7071068 0.4430635 192 192 192 255 0.098127 0.989053
295.7152 500 31.19531 0.5510851 0.7071068 0.4430635 192 192 192 255 0.141175 0.739053
286.8994 500 42.16045 0.2672158 0.3428692 0.9005756 192 192 192 255 0.137025 0.739053
396.1383 324.2549 26.63891 -0.0849989 0.449301 0.8893278 192 192 192 255 0.18841 0.906271
320.8575 500 16.65117 0.5843152 0.7071068 0.3982157 192 192 192 255 0.151251 0.739053
310.9456 500 31.19531 0.2876508 0.3480995 0.8922353 192 192 192 255 0.148346 0.739053
439.0545 428.5412 -31.19531 -0.4878693 -0.1259193 -0.8637869 192 192 192 255 0.148346 0.973947
439.0545 500 -31.19531 -0.309549 0.749199 -0.5855597 192 192 192 255 0.148346 0.989053
463.1006 439.3753 -42.16045 -0.4685588 -0.1369468 -0.8727533 192 192 192 255 0.137025 0.977254
463.1006 500 -42.16045 -0.2893808 0.7426189 -0.6039669 192 192 192 255 0.137025 0.989053
500.0001 407.7762 -42.16045 -0.01103478 -0.4798891 -0.8772598 192 192 192 255 0.119651 0.963342
500.0001 397.0761 -31.19531 0.8660641 -0.3530374 -0.353974 192 192 192 255 0.119651 0.959132
429.1425 500 -16.65117 -0.7391068 0.4472136 -0.5037074 192 192 192 255 0.151251 0.989053
454.2849 500 -31.19531 -0.6970736 0.4472136 -0.560436 192 192 192 255 0.141175 0.989053
439.0545 428.5412 31.19531 -0.4878693 -0.1259193 0.8637869 192 192 192 255 0.148346 0.973947
439.0545 500 31.19531 -0.309549 0.749199 0.5855597 192 192 192 255 0.148346 0.989053
287.7587 408.4152 -31.19531 0.2130248 -0.6657047 -0.7151628 192 192 192 255 0.137429 0.964471
224.0682 398.1495 -31.19531 -0.2538786 -0.6398471 -0.7253561 192 192 192 255 0.107441 0.959637
463.1006 439.3753 42.16045 -0.4685588 -0.1369468 0.8727533 192 192 192 255 0.137025 0.977254
500.0001 407.7762 42.16045 -0.01103478 -0.4798891 0.8772598 192 192 192 255 0.119651 0.963342
463.1006 500 42.16045 -0.2893808 0.7426189 0.6039669 192 192 192 255 0.137025 0.989053
500.0001 397.0761 31.19531 0.8660641 -0.3530374 0.353974 192 192 192 255 0.119651 0.959132
429.1425 500 16.65117 -0.7391068 0.4472136 0.5037074 192 192 192 255 0.151251 0.989053
454.2849 500 31.19531 -0.6970736 0.4472136 0.560436 192 192 192 255 0.141175 0.989053
213.6118 407.2257 31.19531 -0.1140371 -0.3616224 0.9253242 192 192 192 255 0.102517 0.963911
286.3964 407.2327 31.19531 0.002144107 -0.003980129 0.9999898 192 192 192 255 0.136788 0.963914
369.2401 343.8985 -16.65117 -0.1080751 0.4307534 -0.8959751 192 192 192 255 0.175737 0.915526
369.5593 343.8985 16.65117 -0.07492902 0.3639668 0.9283932 192 192 192 255 0.175887 0.915526
393.021 266.0472 -16.65117 -0.1108281 -0.00435776 -0.9938301 192 192 192 255 0.119863 0.771939
393.0404 277.4581 -25.20731 -0.7220902 -0.3451967 -0.5995206 192 192 192 255 0.119863 0.771938
392.9504 266.124 16.65117 -0.5687819 -0.1559791 0.8075629 192 192 192 255 0.119813 0.771955
395.6446 292.0235 31.19531 -0.6001623 -0.09444804 0.7942825 192 192 192 255 0.119798 0.77192
396.4166 315.3606 31.19531 -0.9708109 0.08274294 0.2251219 192 192 192 255 0.119796 0.771888
395.7164 291.9453 -35.1449 -0.4756045 -0.4358206 -0.7641079 192 192 192 255 0.119872 0.771897
396.4563 315.3606 -35.1449 -0.9745432 0.09530219 -0.2029364 192 192 192 255 0.119871 0.771865
320.8574 421.015 -16.65117 -0.005733859 -0.004973038 -0.9999712 192 192 192 255 0.15294 0.951861
182.0236 389.3213 -16.65117 0.2845019 -0.5502758 -0.7850193 192 192 192 255 0.087527 0.936928
350.582 359.5969 16.65117 -0.01584594 -0.01913974 0.9996912 192 192 192 255 0.166946 0.922923
178.2959 390.4671 16.65117 6.718688e-05 -0.0001841077 1 192 192 192 255 0.08577 0.937468
306.759 408.2177 16.65117 -2.271301e-05 -0.0002205921 1 192 192 192 255 0.145838 0.946308
207.9774 394.5713 16.65117 -0.217251 -0.6939462 0.6864697 192 192 192 255 0.100882 0.958052
306.759 408.2177 16.65117 -2.271301e-05 -0.0002205921 1 192 192 192 255 0.144954 0.964378
60.1614 0 -16.65117 0.1389637 -0.9901819 -0.01513436 192 192 192 255 0.120124 0.772759
62.18692 47.47915 32.77064 0.8968331 0.01644843 0.4420631 192 192 192 255 0.113014 0.76409
63.67442 -5.9e-05 33.95493 0.652051 -0.5782511 0.4903625 192 192 192 255 0.112979 0.764681
63.80581 -5.9e-05 16.65117 0.8989787 -0.4354644 0.0469908 192 192 192 255 0.112877 0.764656
63.71181 53.03279 16.65117 0.9635817 -0.2672793 0.008496882 192 192 192 255 0.112893 0.764006
69.64967 74.24057 16.65117 0.8961232 0.01841517 0.4434233 192 192 192 255 0.112869 0.76376
63.09234 51.4824 -34.27677 0.5478872 -0.007733514 -0.8365165 192 192 192 255 0.112273 0.763924
67.5423 67.34853 -31.81634 0.1748719 0.5746197 -0.79952 192 192 192 255 0.112265 0.763752
68.89502 74.24057 -16.65117 -0.2605386 0.887028 -0.3811837 192 192 192 255 0.112322 0.763681
63.71181 53.59314 -16.65117 0.2992512 -0.07510383 -0.9512141 192 192 192 255 0.112357 0.763915
63.90469 25.12196 -33.82761 0.553688 0.002219788 -0.8327213 192 192 192 255 0.112272 0.764225
63.93156 20.0898 -16.65117 0.9773468 -0.1825943 -0.1070168 192 192 192 255 0.112355 0.764299
59.13782 -5.9e-05 -36.46326 0.002569666 -0.9999956 -0.001484797 192 192 192 255 0.11228 0.76448
60.1614 0 -16.65117 0.1389637 -0.9901819 -0.01513436 192 192 192 255 0.112363 0.764506
404.6247 60.81214 16.65117 -0.2438814 0.0146661 0.9696941 192 192 192 255 0.190528 0.785524
402.9515 33.32401 16.65117 -0.9164961 0.05506724 0.3962354 192 192 192 255 0.19162 0.769194
350.1537 360.2308 -16.65117 -0.04925503 -0.03935574 -0.9980106 192 192 192 255 0.119898 0.771871
250 403.1077 -38.78527 0.1440868 -0.9875982 -0.06235987 192 192 192 255 0.125647 0.76314
258.24 404.0138 -31.19531 0.4759189 -0.6785221 -0.5595615 192 192 192 255 0.126279 0.76328
244.3002 401.875 -31.19531 -0.4458668 -0.6871854 -0.573567 192 192 192 255 0.125279 0.763475
208.6559 394.2254 -16.65117 -0.06611177 -0.9496555 -0.3062413 192 192 192 255 0.101213 0.95779
306.7711 410.5797 -16.65117 -0.5295995 -0.5777829 -0.6210405 192 192 192 255 0.145466 0.964859
236.8357 399.9468 31.19531 -0.1128835 -0.3632155 0.9248415 192 192 192 255 0.113453 0.710483
406.4982 192.6584 16.65117 -0.3750545 0.007517215 0.9269723 192 192 192 255 0.119812 0.772054
392.2917 233.2582 16.65117 -0.3411805 -0.1184905 0.9324999 192 192 192 255 0.119814 0.771999
390.3968 138.7151 16.65117 -0.5362927 0.04122257 0.8430248 192 192 192 255 0.185705 0.818851
320.8574 421.015 -16.65117 -0.005733859 -0.004973038 -0.9999712 192 192 192 255 0.119936 0.77186
306.7711 410.5797 -16.65117 -0.5295995 -0.5777829 -0.6210405 192 192 192 255 0.146303 0.946944
90.21468 276.6394 -35.1449 0.7214762 -0.2378792 -0.6502965 192 192 192 255 0.120128 0.772374
3 0 1 2 
3 0 2 3 
3 4 0 6 
3 5 6 0 
3 5 0 3 
3 2 7 5 
3 2 5 3 
3 8 226 12 
3 226 8 9 
3 10 8 11 
3 11 8 12 
3 8 14 15 
3 16 17 18 
3 16 18 19 
3 8 10 20 
3 18 17 21 
3 18 21 22 
3 23 21 16 
3 23 16 24 
3 25 7 26 
3 8 27 14 
3 15 14 28 
3 15 28 9 
3 7 25 29 
3 8 20 31 
3 37 70 69 
3 37 69 33 
3 32 33 69 
3 227 34 35 
3 36 37 33 
3 10 11 38 
3 10 38 20 
3 39 40 228 
3 22 21 23 
3 22 23 41 
3 46 44 45 
3 46 45 53 
3 42 19 18 
3 42 18 22 
3 229 230 43 
3 229 43 55 
3 49 47 48 
3 49 48 50 
3 231 13 69 
3 231 69 70 
3 52 51 56 
3 60 58 59 
3 60 59 71 
3 54 232 233 
3 54 233 74 
3 57 61 62 
3 62 63 57 
3 64 65 52 
3 68 66 67 
3 68 67 76 
3 57 72 73 
3 78 77 51 
3 78 51 52 
3 72 57 79 
3 234 235 236 
3 234 236 80 
3 8 75 237 
3 8 237 27 
3 171 81 82 
3 171 82 170 
3 63 83 57 
3 213 86 84 
3 176 213 84 
3 176 84 85 
3 238 239 240 
3 238 240 101 
3 87 88 241 
3 8 31 242 
3 8 242 75 
3 79 57 89 
3 90 91 180 
3 90 180 181 
3 243 34 227 
3 244 92 245 
3 93 94 217 
3 246 217 94 
3 246 94 247 
3 248 220 33 
3 248 33 32 
3 97 177 249 
3 177 176 85 
3 177 85 249 
3 223 99 100 
3 223 100 222 
3 102 103 172 
3 102 172 173 
3 105 106 104 
3 105 104 188 
3 225 103 102 
3 109 110 108 
3 109 108 218 
3 83 111 57 
3 95 27 112 
3 113 114 250 
3 113 250 251 
3 252 253 115 
3 103 116 182 
3 103 182 172 
3 254 55 117 
3 254 117 255 
3 116 103 108 
3 116 108 197 
3 110 118 219 
3 110 219 108 
3 96 119 256 
3 96 256 257 
3 36 33 220 
3 36 220 257 
3 89 57 120 
3 258 236 235 
3 258 235 259 
3 260 226 9 
3 260 9 243 
3 121 261 105 
3 121 105 193 
3 262 61 57 
3 262 57 263 
3 228 40 264 
3 228 264 265 
3 122 123 124 
3 122 124 125 
3 122 125 126 
3 122 126 127 
3 128 57 111 
3 128 111 144 
3 266 255 117 
3 266 117 129 
3 120 57 128 
3 120 128 163 
3 267 229 55 
3 267 55 130 
3 263 57 73 
3 263 73 131 
3 132 31 268 
3 127 133 123 
3 127 123 122 
3 136 134 135 
3 136 135 137 
3 50 269 138 
3 50 138 49 
3 55 270 129 
3 55 129 117 
3 140 141 139 
3 140 139 142 
3 271 272 143 
3 271 143 74 
3 273 274 275 
3 273 275 158 
3 65 98 78 
3 65 78 52 
3 53 276 145 
3 53 145 46 
3 123 133 146 
3 123 146 124 
3 149 147 148 
3 149 148 156 
3 127 126 146 
3 127 146 133 
3 150 151 152 
3 150 152 153 
3 150 154 155 
3 150 155 151 
3 238 277 239 
3 277 278 279 
3 277 279 239 
3 43 280 130 
3 43 130 55 
3 281 28 14 
3 281 14 95 
3 282 157 74 
3 282 74 233 
3 283 159 143 
3 283 143 272 
3 162 160 161 
3 162 161 164 
3 284 285 247 
3 284 247 94 
3 286 287 288 
3 286 288 167 
3 95 14 27 
3 154 150 153 
3 154 153 165 
3 76 67 166 
3 76 166 289 
3 71 59 168 
3 71 168 290 
3 74 143 159 
3 74 159 291 
3 54 74 157 
3 54 157 292 
3 153 152 169 
3 153 169 165 
3 154 165 169 
3 154 169 155 
3 83 63 62 
3 83 62 293 
3 294 113 251 
3 294 251 295 
3 268 20 38 
3 268 38 296 
3 174 170 82 
3 174 82 175 
3 297 298 96 
3 172 96 298 
3 172 298 173 
3 268 31 20 
3 178 84 86 
3 178 86 179 
3 89 299 72 
3 89 72 79 
3 56 300 64 
3 56 64 52 
3 183 184 90 
3 183 90 181 
3 244 301 185 
3 244 185 92 
3 302 303 186 
3 302 186 187 
3 189 83 293 
3 189 293 304 
3 305 190 306 
3 305 306 191 
3 119 96 307 
3 307 96 172 
3 307 172 182 
3 301 308 192 
3 301 192 185 
3 194 195 104 
3 194 104 106 
3 303 309 196 
3 303 196 186 
3 249 310 311 
3 249 311 97 
3 75 128 144 
3 75 144 237 
3 312 111 83 
3 312 83 189 
3 201 313 198 
3 201 198 199 
3 306 314 315 
3 306 315 191 
3 316 317 200 
3 316 200 318 
3 319 299 89 
3 319 89 202 
3 252 115 203 
3 252 203 320 
3 75 242 163 
3 75 163 128 
3 318 200 204 
3 318 204 321 
3 320 203 205 
3 320 205 322 
3 261 121 323 
3 261 323 324 
3 202 89 120 
3 202 120 325 
3 199 198 326 
3 199 326 327 
3 137 135 206 
3 137 206 207 
3 328 329 158 
3 328 158 275 
3 141 140 208 
3 141 208 209 
3 330 331 210 
3 330 210 332 
3 333 332 210 
3 333 210 158 
3 156 211 212 
3 156 212 149 
3 273 158 329 
3 273 329 334 
3 158 210 331 
3 158 331 335 
3 336 286 167 
3 336 167 337 
3 164 214 215 
3 164 215 162 
3 302 187 338 
3 302 338 339 
3 340 341 216 
3 340 216 342 
3 343 167 216 
3 343 216 341 
3 288 344 337 
3 288 337 167 
3 167 345 342 
3 167 342 216 
3 316 346 347 
3 316 347 317 
3 348 111 312 
3 325 120 349 
3 77 78 110 
3 77 110 350 
3 110 351 350 
3 224 78 98 
3 110 352 353 
3 110 353 354 
3 110 354 118 
3 241 88 61 
3 241 61 262 
3 355 351 110 
3 355 110 356 
3 110 109 356 
3 144 111 348 
3 144 348 107 
3 237 144 357 
3 237 358 112 
3 237 112 27 
3 349 120 163 
3 349 163 359 
3 163 242 31 
3 163 31 360 
3 359 163 361 
3 132 360 31 
3 163 360 361 
3 15 9 8 
3 105 188 193 
3 221 362 363 
3 221 363 347 
3 231 364 13 
3 7 30 6 
3 7 6 5 
3 7 29 30 
3 22 41 42 
3 26 7 2 
3 26 2 1 
3 365 366 367 
3 365 367 368 
3 369 365 368 
3 16 21 17 
3 370 371 372 
3 370 372 373 
3 374 370 373 
3 374 373 375 
3 376 374 375 
3 376 375 377 
3 131 73 378 
3 131 378 379 
3 108 219 197 
3 218 108 380 
3 381 382 383 
3 384 339 338 
3 384 338 385 
3 248 96 220 
3 257 220 96 
3 248 297 96 
3 180 91 386 
3 347 346 221 
3 387 224 98 
3 388 224 387 
3 110 224 388 
3 110 388 352 
3 110 78 224 
3 99 223 389 
3 99 389 73 
3 378 73 389 
3 107 357 144 
3 380 225 390 
3 390 225 102 
3 237 357 391 
3 237 391 358 
3 380 108 103 
3 380 103 225 
3 392 297 248 
