ply
format ascii 1.0
comment VCGLIB generated
comment TextureFile Dungeons_2_Texture_01_A.png
element vertex 359
property float x
property float y
property float z
property float nx
property float ny
property float nz
property uchar red
property uchar green
property uchar blue
property uchar alpha
property float texture_u
property float texture_v
element face 500
property list uchar int vertex_indices
end_header
20.55957 -0.33713 337.6699 0.04242086 0.9979144 0.0486557 192 192 192 255 0.014757 0.835203
351.6592 -0.337796 68.68945 0.037763 0.9971175 -0.06580747 192 192 192 255 0.175675 0.707596
474.8604 -3.768678 69.5459 -0.1891956 0.9805221 0.05273937 192 192 192 255 0.223009 0.707267
-0.00293 -17.8874 95.78613 -0.9785843 0.2058183 -0.003398047 192 192 192 255 0.040566 0.697168
17.5957 0.025125 131.0273 0.1396677 0.9863349 -0.08738701 192 192 192 255 0.047328 0.683606
49.34863 -2.138005 220.7676 0.008245794 0.9970825 0.07588572 192 192 192 255 0.059527 0.649071
120.2754 -3.101099 279.0049 0.02574734 0.9991259 -0.03293213 192 192 192 255 0.086777 0.626659
126.0332 -0.030748 482.0781 -0.0094597 0.967525 -0.2525984 192 192 192 255 0.062807 0.769417
307.4746 -0.333705 142.2549 0.07829475 0.986478 -0.1439837 192 192 192 255 0.145466 0.924227
108.6182 -0.3375 206.0479 0.04799283 0.9954727 0.08204097 192 192 192 255 0.082298 0.654736
306.2861 -4.476015 22.86719 -0.002486643 0.9999955 -0.00165575 192 192 192 255 0.158242 0.72523
481.3848 -0.141625 426.0732 -0.25209 0.963571 -0.0893397 192 192 192 255 0.225515 0.570062
322.0566 2.286119 248.5156 0.1424512 0.9896336 -0.01824765 192 192 192 255 0.152109 0.875819
198.6797 -0.342186 426.7803 -0.00485866 0.9994515 -0.0327588 192 192 192 255 0.095902 0.794608
0.492188 -0.105534 148.4316 -0.667649 0.7439882 -0.02695202 192 192 192 255 0.040756 0.676909
20.58105 -0.337049 162.2002 0.0574615 0.9972333 -0.04715905 192 192 192 255 0.014767 0.915141
127.2725 -3.766784 56.89062 -0.04518446 0.9989632 -0.005563769 192 192 192 255 0.089465 0.712137
38.01758 -3.829925 89.50879 -0.01934176 0.9996871 0.0158661 192 192 192 255 0.055174 0.699584
134.4033 -0.340444 363.7041 -0.04575551 0.9987471 0.02026744 192 192 192 255 0.06662 0.823343
280.3467 -0.363248 68.47852 -0.006015688 0.9977918 -0.06614647 192 192 192 255 0.133107 0.957837
133.7803 -0.335285 243.9902 -0.04378045 0.9968044 -0.066815 192 192 192 255 0.091966 0.640134
379.6953 -3.095104 279.2803 -0.03113861 0.9987462 -0.03919867 192 192 192 255 0.186446 0.626553
120.0723 -3.100224 221.0205 0.03063359 0.9987912 0.03844126 192 192 192 255 0.086699 0.648974
123.9834 -2.939497 263.1162 -0.06044598 0.9808549 0.1851215 192 192 192 255 0.088202 0.632774
192.4033 -3.785133 24.91309 0.005553279 0.9632148 0.2686755 192 192 192 255 0.114489 0.724443
177.2578 -3.917188 394.3994 0.07152687 0.9962765 -0.04813621 192 192 192 255 0.10867 0.582251
17.91797 -0.092177 72.375 0.05475481 0.9942204 0.09234613 192 192 192 255 0.047451 0.706178
458.666 -3.83158 384.4219 -0.001248523 0.999999 -0.0006655205 192 192 192 255 0.216787 0.586091
179.9297 -0.37843 68.33984 0.04752365 0.9929915 -0.10821 192 192 192 255 0.087361 0.9579
49.29688 -2.1242 263.6777 0.02736337 0.9963643 0.0806813 192 192 192 255 0.059507 0.632558
200.3779 -0.165744 0.116211 0.003492234 0.7064489 -0.7077556 192 192 192 255 0.117553 0.733986
0.654297 -0.119835 57.05273 -0.7020867 0.7085786 0.07064427 192 192 192 255 0.005689 0.963042
351.6113 -0.333707 431.2764 0.0489415 0.9968871 0.06181303 192 192 192 255 0.175656 0.56806
0.683594 -22.77293 203.5576 -0.6438722 -0.7651318 -0.001451593 192 192 192 255 0.04083 0.655694
414.5303 -0.338168 338.0869 0.02148495 0.9976715 0.06472972 192 192 192 255 0.19983 0.603922
478.6113 -0.132962 18.61426 -0.06568045 0.994715 0.07891781 192 192 192 255 0.223429 0.980553
376.1904 -3.918428 383.5303 0.1138712 0.9934924 -0.002518862 192 192 192 255 0.1851 0.586434
273.6562 -3.725604 42.71094 -0.001559436 0.9963563 -0.08527458 192 192 192 255 0.145706 0.717594
139.4004 -3.823298 41.54102 -0.01366259 0.9993277 -0.03402113 192 192 192 255 0.094125 0.718044
82.47266 -5.158199 475.6836 -0.01952764 0.9927328 -0.1187444 192 192 192 255 0.072253 0.55097
482.7754 0.01832 70.58301 -0.2683325 0.9499968 0.1596988 192 192 192 255 0.225326 0.956878
415.7578 -0.343245 161.8945 0.01165155 0.9991313 -0.04001098 192 192 192 255 0.200301 0.671728
255.3154 -2.969518 355.9189 0.03395656 0.9982952 0.04747414 192 192 192 255 0.13866 0.59706
96.13867 -3.718742 106.3975 0.04756067 0.9979873 -0.04194458 192 192 192 255 0.077504 0.693085
481.3438 -0.175218 208.5312 -0.03070402 0.9992797 0.02230024 192 192 192 255 0.224674 0.894034
500.0029 -0.13358 456.3223 0.7173021 0.6965582 0.01686192 192 192 192 255 0.232668 0.558421
499.9375 -8.861373 124.3643 0.9560981 0.2860423 0.06368888 192 192 192 255 0.232643 0.686171
238.71 -3.688919 456.7734 1.211797e-05 0.9974216 0.07176457 192 192 192 255 0.13228 0.558248
0.208008 -0.078907 499.4912 -0.5814258 0.57587 0.5747327 192 192 192 255 0.005486 0.761484
363.0068 -3.698396 456.8311 0.01968739 0.9991241 0.03692405 192 192 192 255 0.180035 0.558226
374.4775 -3.611952 182.3506 -0.1117966 0.992755 0.04403429 192 192 192 255 0.184442 0.663855
20.09473 -0.325441 243.7002 0.09263151 0.9944663 -0.04955946 192 192 192 255 0.048288 0.640246
499.5479 0.005327 36.61523 0.7111338 0.7019417 -0.03958195 192 192 192 255 0.232968 0.972353
407.9971 -0.043467 0.128906 -0.0009231 0.7052875 -0.7089208 192 192 192 255 0.19126 0.988974
459.9795 -0.832744 0.881836 0.04080405 0.6988541 -0.7140995 192 192 192 255 0.217291 0.733691
499.3535 -4.564584 147.7539 0.8844431 0.4665809 0.007920187 192 192 192 255 0.232419 0.677169
499.9111 -22.80693 204.4492 0.7107911 -0.7033738 -0.006426207 192 192 192 255 0.232633 0.655351
201.9072 -0.344848 84.51562 0.01519786 0.9977546 -0.06522901 192 192 192 255 0.097373 0.950531
499.834 -17.24594 499.9863 0.6449498 0.1707074 0.7449153 192 192 192 255 0.232603 0.541618
499.7588 -0.130758 370.8896 0.6310884 0.7559803 0.1738428 192 192 192 255 0.232575 0.591299
294.4062 -4.705092 482.1113 0.08212243 0.9963074 -0.0250489 192 192 192 255 0.153678 0.548497
245.0498 -0.110701 499.6914 0.01251261 0.7062442 0.7078578 192 192 192 255 0.134715 0.541731
432.7676 -3.829828 146.6963 0.03460059 0.9938788 -0.1049175 192 192 192 255 0.206837 0.677576
111.1064 -6.086365 87.13965 -0.08593034 0.996163 -0.01659559 192 192 192 255 0.083254 0.700496
129.3467 -4.20569 87.60938 -0.06974539 0.9974055 -0.01782868 192 192 192 255 0.090262 0.700315
163.5361 -0.339738 249.04 -0.05662196 0.9983956 -0.0003592524 192 192 192 255 0.079892 0.87558
299.9023 -4.187309 10.63965 0.02928411 0.9868227 -0.1591334 192 192 192 255 0.15579 0.729936
292.8984 -3.827828 467.5781 0.01651378 0.9998395 0.006965488 192 192 192 255 0.153099 0.55409
208.6445 -4.43842 41.43652 -0.003388541 0.9996888 -0.02471538 192 192 192 255 0.120729 0.718084
24.73047 -1.427623 2.155273 -0.2547811 0.6995158 -0.6676557 192 192 192 255 0.016657 0.988051
497.3516 -7.839209 2.233398 0.6009237 0.4968526 -0.6261216 192 192 192 255 0.23165 0.733171
213.583 -3.433363 68.39062 -0.01090237 0.9938222 -0.1104471 192 192 192 255 0.122626 0.707711
448.041 -0.877278 497.3857 -0.001907091 0.8080305 0.5891376 192 192 192 255 0.212705 0.542619
87.3584 -0.080364 0.111328 -0.001046733 0.7129646 -0.7011993 192 192 192 255 0.07413 0.733988
207.2969 -0.337636 175.6875 -0.02932363 0.9979718 -0.05650137 192 192 192 255 0.099828 0.908997
499.4346 -6.833831 34.89941 0.9993554 0.02433953 -0.02639086 192 192 192 255 0.23245 0.7206
341.043 -3.109029 140.6699 -0.04747847 0.996913 0.06253252 192 192 192 255 0.171596 0.679896
499.9414 -0.206698 90.39453 0.6977868 0.7041396 0.1314578 192 192 192 255 0.233147 0.947853
250.6768 -0.067807 482.1504 0.02608928 0.9756566 -0.2177469 192 192 192 255 0.119591 0.769384
500.0312 -8.703569 164.3262 0.971022 0.2328339 -0.05389488 192 192 192 255 0.232679 0.670792
18.00781 -0.65409 432.9629 0.0731667 0.9947188 -0.07198118 192 192 192 255 0.047486 0.567411
498.9541 -4.161581 105.585 0.6795083 0.7331021 0.0288082 192 192 192 255 0.232265 0.693398
499.5264 -1.127799 415.8047 0.6728166 0.7328427 -0.1012889 192 192 192 255 0.232485 0.574014
9.581055 -1.231718 392.7188 -0.1733035 0.9749446 0.1394596 192 192 192 255 0.009756 0.810125
394.9678 -0.343893 338.7852 0.006909571 0.9994124 0.03357254 192 192 192 255 0.192314 0.603654
28.0127 -2.578862 236.0674 0.07372668 0.9920229 -0.1022498 192 192 192 255 0.018153 0.88149
252.875 -0.343382 331.8359 0.009651493 0.9975129 0.0698202 192 192 192 255 0.120592 0.837861
489.6953 -0.007412 16.15332 0.2117897 0.958796 -0.1893553 192 192 192 255 0.228479 0.981674
324.2002 -22.8024 499.5605 -0.001195141 -0.7075026 0.7067098 192 192 192 255 0.165125 0.541782
18.20605 -0.140032 208.1299 0.01532108 0.999745 0.01658888 192 192 192 255 0.013685 0.894217
499.8848 -22.79167 0.12207 0.6119989 -0.5082197 -0.6059456 192 192 192 255 0.232623 0.733983
0.155273 -0.103225 245.6748 -0.7021847 0.7119948 -0.0002603517 192 192 192 255 0.005462 0.877113
497.2188 -4.707615 483.1475 0.7061431 0.6716092 0.2242832 192 192 192 255 0.231599 0.548098
187.043 -3.097782 132.7744 -0.03914741 0.9967304 -0.07068302 192 192 192 255 0.112429 0.682934
191.8779 -0.515247 141.499 -0.08635619 0.9855421 -0.1457715 192 192 192 255 0.114287 0.679577
264.2666 2.128057 239.6523 0.004935774 0.9999173 -0.01187453 192 192 192 255 0.125782 0.879856
160.7861 -0.349829 404.208 0.05529969 0.9978823 -0.03424786 192 192 192 255 0.07864 0.804891
0.09668 -7.540825 0.353516 -0.6304199 0.4132342 -0.6571213 192 192 192 255 0.040605 0.733894
472.7617 -3.867221 27.09277 -0.2121152 0.9646368 0.1564704 192 192 192 255 0.222202 0.723604
107.9717 -3.969009 365.6836 -0.1107953 0.9908371 0.07724195 192 192 192 255 0.08205 0.593302
173.4385 -2.907724 376.375 0.07291931 0.9973183 -0.006239902 192 192 192 255 0.107202 0.589188
286.0527 2.283181 312.3262 0.01377041 0.9977722 0.0652777 192 192 192 255 0.135707 0.846749
490.3398 -0.227978 135.8145 0.2158057 0.9747527 -0.05731643 192 192 192 255 0.228956 0.681764
330.251 -3.103631 338.5576 0.08646474 0.993457 0.07461331 192 192 192 255 0.16745 0.603741
429.459 -2.493717 261.4775 -0.02532104 0.9918164 0.1251361 192 192 192 255 0.205565 0.633404
258.8301 2.279366 214.9668 0.0837928 0.9959595 -0.03230261 192 192 192 255 0.123305 0.891102
27.71289 -3.877625 472.4551 0.1695755 0.978133 -0.1204166 192 192 192 255 0.051215 0.552213
391.4697 -1.855035 206.377 -0.07307432 0.9972906 0.00845923 192 192 192 255 0.19097 0.654609
22.08008 -0.148119 18.61621 0.08273321 0.9919554 0.09581096 192 192 192 255 0.01545 0.980552
260.0762 -0.128008 18.60938 0.03669086 0.9476879 0.3170829 192 192 192 255 0.123873 0.980555
334.7041 0.025957 497.7676 -0.04680442 0.9462103 0.3201492 192 192 192 255 0.157871 0.762269
126.6514 -0.113918 499.4414 -0.001009131 0.7080996 0.7061118 192 192 192 255 0.063089 0.761506
483.6602 -3.939278 97.0625 -0.03263646 0.9991803 0.02395186 192 192 192 255 0.22639 0.696677
378.7637 -2.672037 413.0654 0.07939397 0.9967134 0.01609257 192 192 192 255 0.177942 0.800856
115.2363 -2.912212 415.1904 -0.09782722 0.9944574 0.03852887 192 192 192 255 0.084841 0.57425
148.3076 -0.341663 431.3457 -0.04220822 0.9970421 0.06423125 192 192 192 255 0.097547 0.568033
266.6992 -3.764084 474.6699 0.029135 0.9925025 -0.1187011 192 192 192 255 0.143033 0.55136
274.5273 -4.106568 356.0713 0.01387466 0.9988928 -0.04495159 192 192 192 255 0.146041 0.597001
226.7148 0.078786 319.8408 -0.0004413541 0.9853503 0.1705426 192 192 192 255 0.108674 0.843326
84.26562 -0.338588 327.4951 -0.007413022 0.9988831 0.04666429 192 192 192 255 0.04378 0.839839
0.038086 -0.187102 371.6895 -0.6875863 0.7250548 0.03899525 192 192 192 255 0.005408 0.819705
480.0508 -0.379512 490.7012 0.05259865 0.9952219 0.08226106 192 192 192 255 0.225003 0.545191
360.1045 -0.071038 481.9258 -0.01790579 0.968614 -0.2479238 192 192 192 255 0.169442 0.769486
154.6846 -0.346497 68.62207 -0.05058528 0.997308 -0.05308395 192 192 192 255 0.099997 0.707622
481.3447 -0.164832 260.0928 -0.02581591 0.9994261 0.02193458 192 192 192 255 0.224675 0.870545
374.6758 -3.094728 263.7598 0.04260146 0.9967778 0.06796432 192 192 192 255 0.184518 0.632526
64.05957 -3.83358 457.165 0.00508041 0.9996905 0.02435553 192 192 192 255 0.065179 0.558097
460.5078 -0.025572 482.1572 0.01745667 0.9795034 -0.2006698 192 192 192 255 0.215182 0.76938
-0.03125 -21.22083 427.5225 -0.8609337 -0.5087143 0.001713146 192 192 192 255 0.040555 0.569504
77.20996 -2.262017 344.21 0.001818945 0.9958577 0.09090804 192 192 192 255 0.070231 0.601566
25.20703 -3.743956 25.05371 0.3576126 0.9170972 0.1761992 192 192 192 255 0.050252 0.724389
498.4131 0.046587 222.9209 0.6125365 0.7903927 -0.008851846 192 192 192 255 0.232451 0.887479
394.9766 -3.754889 396.7529 0.06952488 0.9970629 0.03212333 192 192 192 255 0.192317 0.581346
231.4785 -1.067093 1.757813 0.05216627 0.8907517 -0.4514866 192 192 192 255 0.129501 0.733354
187.3555 -4.071199 52.82617 0.03464067 0.9958197 -0.08451665 192 192 192 255 0.112549 0.713701
186.3906 -3.098135 366.333 -0.04335691 0.9967659 0.06766181 192 192 192 255 0.112179 0.593052
115.7754 -3.22092 100.8945 -0.2909743 0.953393 0.07984767 192 192 192 255 0.085048 0.695203
176.8789 -2.989176 118.6035 0.04952378 0.9948752 0.08815204 192 192 192 255 0.108524 0.688388
46.12891 -3.623333 479.7344 0.06914558 0.958076 -0.2780456 192 192 192 255 0.05829 0.549411
206.4795 -0.337056 324.2988 -0.0284467 0.9982274 0.05227688 192 192 192 255 0.099456 0.841295
292.2695 1.888554 212.9736 0.01563529 0.9976923 -0.06607255 192 192 192 255 0.138539 0.89201
214.0635 2.281608 312.415 -0.05152836 0.9917039 0.1177639 192 192 192 255 0.102911 0.846709
178.8545 2.287626 249.1787 -0.1120264 0.993705 0.0005857797 192 192 192 255 0.086871 0.875517
322.6064 -3.40606 118.5527 -0.04729803 0.9940108 0.09851625 192 192 192 255 0.164513 0.688407
344.5566 -0.339603 124.6113 -0.08122969 0.9936588 0.07774273 192 192 192 255 0.172946 0.686076
137.2725 -0.349896 115.7783 -0.08950263 0.9957643 -0.02104243 192 192 192 255 0.067928 0.936289
391.5469 -0.338171 293.959 -0.04597025 0.9953923 -0.08414899 192 192 192 255 0.183766 0.855116
476.6523 -1.811893 279.0127 -0.2003214 0.9794851 -0.02191751 192 192 192 255 0.223697 0.626656
491.0615 -0.316024 158.6631 0.3236728 0.9459481 0.02044822 192 192 192 255 0.229233 0.672971
434.748 -8.102507 499.9795 0.01344764 0.1313606 0.9912435 192 192 192 255 0.207597 0.54162
280.1904 -0.651954 176.1484 -0.003182712 0.9999586 -0.008520596 192 192 192 255 0.133036 0.908787
202.4531 -22.8116 0.101563 0.001607641 -0.7062766 -0.7079342 192 192 192 255 0.11835 0.733991
496.2217 -4.067591 378.8457 0.2380544 0.8902805 0.3882405 192 192 192 255 0.231216 0.588237
272.2588 -0.486908 202.4971 0.0121585 0.9985254 -0.05290766 192 192 192 255 0.129423 0.896783
49.56055 -2.137216 279.2012 0.02531877 0.9982007 -0.05435565 192 192 192 255 0.059609 0.626584
0.725586 -0.009516 28.21289 -0.6803905 0.7320561 -0.03409868 192 192 192 255 0.040846 0.723173
329.0273 -3.871412 27.12598 -0.04924109 0.9902703 0.1301547 192 192 192 255 0.16698 0.723591
158.4229 -0.340324 380.1045 0.094717 0.9951935 -0.0248686 192 192 192 255 0.101433 0.587753
14.82617 -0.058529 11.10938 -0.1171703 0.9577071 -0.2628085 192 192 192 255 0.012145 0.983972
0.001953 -9.862926 407.4727 -0.9242008 0.3808868 0.02789611 192 192 192 255 0.040568 0.57722
214.1006 2.283709 187.4316 -0.0493005 0.9918776 -0.1172529 192 192 192 255 0.102928 0.903646
499.9102 -22.80715 103.1152 0.7076598 -0.7064905 0.009426997 192 192 192 255 0.232633 0.694348
495.5635 -22.90051 158.4297 0.5995909 -0.7998582 -0.02678977 192 192 192 255 0.230963 0.673061
1.545898 -7.972243 415.3408 -0.7488161 0.6623626 0.02345806 192 192 192 255 0.041161 0.574192
474.7461 -3.834171 351.6895 -0.229617 0.9686101 0.09524009 192 192 192 255 0.222965 0.598688
73.66016 -0.026265 494.2432 -0.002563787 0.9930141 -0.1179683 192 192 192 255 0.038948 0.763875
401.0674 -2.804892 370.1611 0.0314512 0.9976722 0.06050695 192 192 192 255 0.194657 0.591579
123.5156 -2.923902 476.9023 -0.02824815 0.9593711 -0.2807298 192 192 192 255 0.088022 0.550501
334.1025 -0.330834 249.6836 0.07074034 0.9974928 -0.002006751 192 192 192 255 0.157596 0.875287
363.6621 -0.334254 243.5801 0.05953608 0.9978824 -0.0261991 192 192 192 255 0.171063 0.878067
332.4111 -0.336838 104.1416 -0.02946498 0.9983069 0.05015116 192 192 192 255 0.16828 0.693953
499.8867 -22.78308 499.7139 0.5780631 -0.5674846 0.5863483 192 192 192 255 0.232624 0.541723
477.6621 -3.147054 116.7803 -0.07093441 0.9969419 -0.03278964 192 192 192 255 0.224085 0.689089
228.6973 -2.111591 360.7422 0.03274168 0.9964433 0.07764571 192 192 192 255 0.128433 0.595204
499.9951 -10.08836 385.5117 0.9224861 0.3759234 0.08775565 192 192 192 255 0.232665 0.585672
245.4316 -0.343032 396.1113 -0.009991416 0.9944137 -0.1050789 192 192 192 255 0.134862 0.581593
331.9561 -0.533659 394.4541 -0.02758062 0.9984958 -0.04738627 192 192 192 255 0.168105 0.58223
372.1523 -2.629084 236.7529 0.0546016 0.9850142 -0.1636025 192 192 192 255 0.183548 0.642919
477.4453 -3.515522 377.7363 -0.04228706 0.9980496 0.04592232 192 192 192 255 0.224002 0.588664
83.29492 -0.387705 161.7051 -0.01892037 0.9992446 -0.03394432 192 192 192 255 0.043337 0.915366
0.086914 -4.880346 116.4521 -0.7442657 0.6539636 -0.1356481 192 192 192 255 0.040601 0.689215
380.3818 -3.745538 474.8867 -0.0009813032 0.9706959 -0.2403092 192 192 192 255 0.18671 0.551277
485.9756 -2.409276 498.4434 0.2464844 0.6751266 0.6953054 192 192 192 255 0.226785 0.761961
25.74707 -3.831589 147.8477 0.2121007 0.973071 -0.0902559 192 192 192 255 0.050459 0.677133
474.8389 -3.751166 426.2285 -0.2195977 0.9746287 -0.04330846 192 192 192 255 0.223 0.570002
0.499023 -22.78398 499.3555 -0.5750321 -0.5797869 0.577222 192 192 192 255 0.040759 0.541861
21.17773 -2.441991 403.8457 0.05787702 0.9974986 0.04058147 192 192 192 255 0.048704 0.578616
213.2793 -2.824076 385.5439 -0.02454473 0.9991276 -0.03378971 192 192 192 255 0.122509 0.585659
20.46875 -0.326718 255.5781 0.05788166 0.9982763 0.009702975 192 192 192 255 0.014716 0.872601
361.8359 -0.472925 370.5371 0.05749357 0.9979696 0.02741017 192 192 192 255 0.170231 0.82023
482.8164 -0.213068 163.3574 -0.0299748 0.9985543 -0.04461794 192 192 192 255 0.226065 0.671165
485.4951 -3.875232 401.4541 0.0441196 0.9952354 -0.08694717 192 192 192 255 0.227095 0.579537
124.8486 -3.095735 236.166 -0.05274132 0.9853553 -0.1621525 192 192 192 255 0.088534 0.643145
0.643555 -7.75844 76.70312 -0.8369765 0.5324224 0.1264782 192 192 192 255 0.040815 0.704512
336.542 -0.140675 18.625 -0.06142683 0.9825996 0.1752847 192 192 192 255 0.158708 0.980548
226.707 -2.854364 54.58008 0.1270289 0.9852889 0.1143223 192 192 192 255 0.127668 0.713026
363.9199 -2.885514 151.0127 -0.05960798 0.9944898 0.08623817 192 192 192 255 0.180385 0.675915
279.2783 -1.516466 491.5703 0.06508083 0.9969255 -0.04363528 192 192 192 255 0.147866 0.544857
15.28418 -22.84464 0.058594 -0.04988213 -0.7101141 -0.7023174 192 192 192 255 0.04644 0.734008
474.5908 -3.833527 147.835 -0.1545749 0.9848657 -0.07839721 192 192 192 255 0.222905 0.677138
28.86816 -5.483828 103.9775 -0.06539416 0.9978376 -0.006619832 192 192 192 255 0.051659 0.694016
91.6377 -3.829295 75.82617 0.02683948 0.9995428 0.01392501 192 192 192 255 0.075775 0.70485
97.48926 -5.30424 370.7354 0.04215776 0.9989917 0.01544157 192 192 192 255 0.078023 0.591358
4.618164 -22.90053 495.2158 -0.0220788 -0.9997525 0.002740411 192 192 192 255 0.042342 0.543454
332.2256 -0.894917 -0.021484 -0.08553005 0.6839585 -0.7244898 192 192 192 255 0.168208 0.734039
24.35059 -7.499684 0.006836 -0.1059766 0.2528257 -0.9616902 192 192 192 255 0.049923 0.734028
301.1055 -0.263059 199.6221 0.04836047 0.9976462 -0.04861611 192 192 192 255 0.142564 0.898093
311.9316 -3.099707 132.6553 0.04119511 0.995035 -0.09060018 192 192 192 255 0.160411 0.68298
304.3965 -3.070245 365.7051 0.003044234 0.9998062 0.01945221 192 192 192 255 0.157516 0.593294
495.8145 -22.90051 495.3057 0.01083629 -0.9998925 0.009874593 192 192 192 255 0.231059 0.543419
499.875 -22.8134 401.2305 0.7142558 -0.6998847 -0.0004343859 192 192 192 255 0.232619 0.579623
433.0303 -3.827571 351.7803 0.02247892 0.9922088 0.1225421 192 192 192 255 0.206938 0.598653
12.7168 -2.957413 98.49121 -0.248439 0.9672761 0.05152692 192 192 192 255 0.045453 0.696128
394.8672 -3.82991 425.8281 0.0197186 0.999768 0.008669425 192 192 192 255 0.192275 0.570157
373.7695 -1.08428 500.0293 0.01221767 0.6488901 0.760784 192 192 192 255 0.18417 0.541601
109.8125 -0.337151 295.2832 0.05000454 0.9956881 -0.07813294 192 192 192 255 0.055418 0.854513
17.66992 -0.066835 239.2373 0.1024613 0.9946397 -0.01391144 192 192 192 255 0.013441 0.880046
192.1924 -0.458219 358.6309 -0.06664564 0.9828759 0.1717941 192 192 192 255 0.092947 0.825654
333.791 -4.402283 474.2725 -0.02404992 0.999515 -0.01978326 192 192 192 255 0.16881 0.551513
97.38965 -0.329973 145.0098 -0.01811004 0.9978626 -0.06278739 192 192 192 255 0.049758 0.922972
259.6855 -0.0834 12.11816 0.06237428 0.9878861 -0.1420932 192 192 192 255 0.123695 0.983513
441.958 -2.587979 236.1865 -0.003894932 0.98908 -0.1473279 192 192 192 255 0.206732 0.881435
49.42871 -2.1257 236.3857 0.003050685 0.9946955 -0.1028182 192 192 192 255 0.059558 0.643061
115.9668 -5.099527 117.3418 -0.06468726 0.9939981 -0.08822357 192 192 192 255 0.085122 0.688873
299.1406 -7.437522 0.487305 0.001737015 0.5800727 -0.8145629 192 192 192 255 0.155497 0.733843
27.2666 -3.835108 353.0986 0.1796602 0.9805032 0.07959714 192 192 192 255 0.051043 0.598145
-0.016602 -21.52183 1.625977 -0.6360373 -0.5718639 -0.5181006 192 192 192 255 0.040561 0.733405
17.98828 -0.124611 294.6426 0.01343517 0.9998819 -0.007464668 192 192 192 255 0.013586 0.854805
243.3896 -3.819509 42.02344 -0.01826656 0.9967135 -0.078922 192 192 192 255 0.134078 0.717858
167.6357 -0.335628 103.4209 0.02318428 0.998821 0.04265196 192 192 192 255 0.104973 0.69423
499.8594 -22.76416 298.0977 0.7185742 -0.6954501 0.0006596217 192 192 192 255 0.232613 0.619312
478.8213 -0.337159 294.8779 -0.02184142 0.9995349 -0.02128276 192 192 192 255 0.223525 0.854698
415.4912 -0.348476 206.2949 -0.0218229 0.9968928 0.0756871 192 192 192 255 0.194674 0.895053
364.7656 -3.829008 41.43359 0.01840498 0.9991807 -0.03604671 192 192 192 255 0.18071 0.718085
17.96973 -0.074095 479.6953 0.06657899 0.9959128 -0.06103316 192 192 192 255 0.047471 0.549427
257.5811 -0.2524 181.1377 0.02914438 0.9977173 -0.06091663 192 192 192 255 0.122736 0.906513
474.9238 -3.768118 474.5166 -0.2346532 0.967436 -0.09489792 192 192 192 255 0.223033 0.551419
3.271484 -1.937188 444.2246 -0.5183748 0.8511575 -0.0825741 192 192 192 255 0.041824 0.563077
320.3086 -0.32197 335.3662 0.1189577 0.9804263 0.1568866 192 192 192 255 0.151312 0.836253
302.6963 -1.130363 347.2783 0.01595389 0.9941384 0.1069323 192 192 192 255 0.156863 0.600385
101.2598 -3.835717 407.8066 -0.01713884 0.9998328 -0.006377325 192 192 192 255 0.079471 0.577092
323.501 -2.89071 381.9082 -0.05049123 0.9943669 -0.09319418 192 192 192 255 0.164856 0.587058
117.1729 -1.182438 139.4639 -0.03199863 0.9966866 -0.07477871 192 192 192 255 0.058771 0.925499
479.4355 -0.337365 337.7705 -0.04212221 0.9974306 0.05794782 192 192 192 255 0.223805 0.835158
478.2227 -0.327313 244.2119 -0.0476004 0.9984438 -0.02905436 192 192 192 255 0.223252 0.877779
25.94824 -3.861896 87.88379 0.1042436 0.9916072 0.07647455 192 192 192 255 0.050537 0.70021
131.793 -0.319013 256.6738 -0.04978526 0.9960448 0.07359568 192 192 192 255 0.065431 0.872102
309.793 -3.903282 474.2871 -0.01970683 0.9988582 -0.04351888 192 192 192 255 0.15959 0.551508
137.1367 -3.687517 456.7725 -0.02312339 0.9994824 0.02236821 192 192 192 255 0.093255 0.558248
374.4346 -3.110148 220.5557 0.01270898 0.9998677 -0.01014992 192 192 192 255 0.184425 0.649153
306.877 -3.230118 500.0303 -0.0333919 0.6953343 0.7179103 192 192 192 255 0.158469 0.541601
469.3906 -2.763798 223.4443 -0.08905879 0.9956529 0.02727579 192 192 192 255 0.219229 0.88724
200.3779 -0.165744 0.116211 0.003492234 0.7064489 -0.7077556 192 192 192 255 0.096676 0.98898
109.8125 -0.337151 295.2832 0.05000454 0.9956881 -0.07813294 192 192 192 255 0.082757 0.620395
148.3076 -0.341663 431.3457 -0.04220822 0.9970421 0.06423125 192 192 192 255 0.072955 0.792528
351.6113 -0.333707 431.2764 0.0489415 0.9968871 0.06181303 192 192 192 255 0.165573 0.79256
479.4355 -0.337365 337.7705 -0.04212221 0.9974306 0.05794782 192 192 192 255 0.224766 0.604044
167.6357 -0.335628 103.4209 0.02318428 0.998821 0.04265196 192 192 192 255 0.08176 0.941918
332.4111 -0.336838 104.1416 -0.02946498 0.9983069 0.05015116 192 192 192 255 0.156826 0.94159
192.1924 -0.458219 358.6309 -0.06664564 0.9828759 0.1717941 192 192 192 255 0.114408 0.596016
131.793 -0.319013 256.6738 -0.04978526 0.9960448 0.07359568 192 192 192 255 0.091202 0.635253
191.8779 -0.515247 141.499 -0.08635619 0.9855421 -0.1457715 192 192 192 255 0.092804 0.924572
133.7803 -0.335285 243.9902 -0.04378045 0.9968044 -0.066815 192 192 192 255 0.066337 0.87788
414.5303 -0.338168 338.0869 0.02148495 0.9976715 0.06472972 192 192 192 255 0.194236 0.835014
478.6113 -0.132962 18.61426 -0.06568045 0.994715 0.07891781 192 192 192 255 0.22445 0.726867
336.542 -0.140675 18.625 -0.06142683 0.9825996 0.1752847 192 192 192 255 0.169867 0.726863
20.09473 -0.325441 243.7002 0.09263151 0.9944663 -0.04955946 192 192 192 255 0.014545 0.878013
21.17773 -2.441991 403.8457 0.05787702 0.9974986 0.04058147 192 192 192 255 0.015039 0.805056
351.6592 -0.337796 68.68945 0.037763 0.9971175 -0.06580747 192 192 192 255 0.165595 0.957741
280.3467 -0.363248 68.47852 -0.006015688 0.9977918 -0.06614647 192 192 192 255 0.148277 0.707677
108.6182 -0.3375 206.0479 0.04799283 0.9954727 0.08204097 192 192 192 255 0.054874 0.895165
480.0508 -0.379512 490.7012 0.05259865 0.9952219 0.08226106 192 192 192 255 0.224085 0.765488
448.041 -0.877278 497.3857 -0.001907091 0.8080305 0.5891376 192 192 192 255 0.209503 0.762443
407.9971 -0.043467 0.128906 -0.0009231 0.7052875 -0.7089208 192 192 192 255 0.19732 0.733981
482.8164 -0.213068 163.3574 -0.0299748 0.9985543 -0.04461794 192 192 192 255 0.225345 0.914614
245.4316 -0.343032 396.1113 -0.009991416 0.9944137 -0.1050789 192 192 192 255 0.117201 0.80858
482.7754 0.01832 70.58301 -0.2683325 0.9499968 0.1596988 192 192 192 255 0.22605 0.706868
499.9414 -0.206698 90.39453 0.6977868 0.7041396 0.1314578 192 192 192 255 0.232645 0.699243
22.08008 -0.148119 18.61621 0.08273321 0.9919554 0.09581096 192 192 192 255 0.049051 0.726866
77.20996 -2.262017 344.21 0.001818945 0.9958577 0.09090804 192 192 192 255 0.040565 0.832224
320.3086 -0.32197 335.3662 0.1189577 0.9804263 0.1568866 192 192 192 255 0.16363 0.60497
179.9297 -0.37843 68.33984 0.04752365 0.9929915 -0.10821 192 192 192 255 0.109696 0.707731
20.58105 -0.337049 162.2002 0.0574615 0.9972333 -0.04715905 192 192 192 255 0.048475 0.67161
83.29492 -0.387705 161.7051 -0.01892037 0.9992446 -0.03394432 192 192 192 255 0.072569 0.6718
17.96973 -0.074095 479.6953 0.06657899 0.9959128 -0.06103316 192 192 192 255 0.013577 0.770502
18.00781 -0.65409 432.9629 0.0731667 0.9947188 -0.07198118 192 192 192 255 0.013595 0.791792
0.208008 -0.078907 499.4912 -0.5814258 0.57587 0.5747327 192 192 192 255 0.040647 0.541808
17.91797 -0.092177 72.375 0.05475481 0.9942204 0.09234613 192 192 192 255 0.013554 0.956062
334.7041 0.025957 497.7676 -0.04680442 0.9462103 0.3201492 192 192 192 255 0.169161 0.542472
360.1045 -0.071038 481.9258 -0.01790579 0.968614 -0.2479238 192 192 192 255 0.178919 0.548568
158.4229 -0.340324 380.1045 0.094717 0.9951935 -0.0248686 192 192 192 255 0.077563 0.815872
198.6797 -0.342186 426.7803 -0.00485866 0.9994515 -0.0327588 192 192 192 255 0.1169 0.56979
49.34863 -2.138005 220.7676 0.008245794 0.9970825 0.07588572 192 192 192 255 0.027873 0.88846
378.7637 -2.672037 413.0654 0.07939397 0.9967134 0.01609257 192 192 192 255 0.186088 0.575068
49.56055 -2.137216 279.2012 0.02531877 0.9982007 -0.05435565 192 192 192 255 0.027969 0.86184
491.0615 -0.316024 158.6631 0.3236728 0.9459481 0.02044822 192 192 192 255 0.229101 0.916752
490.3398 -0.227978 135.8145 0.2158057 0.9747527 -0.05731643 192 192 192 255 0.228773 0.927161
394.9678 -0.343893 338.7852 0.006909571 0.9994124 0.03357254 192 192 192 255 0.185324 0.834695
154.6846 -0.346497 68.62207 -0.05058528 0.997308 -0.05308395 192 192 192 255 0.07586 0.957772
228.6973 -2.111591 360.7422 0.03274168 0.9964433 0.07764571 192 192 192 255 0.109577 0.824693
252.875 -0.343382 331.8359 0.009651493 0.9975129 0.0698202 192 192 192 255 0.137722 0.606328
344.5566 -0.339603 124.6113 -0.08122969 0.9936588 0.07774273 192 192 192 255 0.162359 0.932265
134.4033 -0.340444 363.7041 -0.04575551 0.9987471 0.02026744 192 192 192 255 0.092205 0.594064
485.9756 -2.409276 498.4434 0.2464844 0.6751266 0.6953054 192 192 192 255 0.227279 0.542212
97.38965 -0.329973 145.0098 -0.01811004 0.9978626 -0.06278739 192 192 192 255 0.077984 0.678226
117.1729 -1.182438 139.4639 -0.03199863 0.9966866 -0.07477871 192 192 192 255 0.085585 0.68036
9.581055 -1.231718 392.7188 -0.1733035 0.9749446 0.1394596 192 192 192 255 0.044248 0.582898
201.9072 -0.344848 84.51562 0.01519786 0.9977546 -0.06522901 192 192 192 255 0.11814 0.701506
245.0498 -0.110701 499.6914 0.01251261 0.7062442 0.7078578 192 192 192 255 0.117027 0.761393
307.4746 -0.333705 142.2549 0.07829475 0.986478 -0.1439837 192 192 192 255 0.158699 0.679286
17.5957 0.025125 131.0273 0.1396677 0.9863349 -0.08738701 192 192 192 255 0.013407 0.929342
259.6855 -0.0834 12.11816 0.06237428 0.9878861 -0.1420932 192 192 192 255 0.140339 0.729367
500.0029 -0.13358 456.3223 0.7173021 0.6965582 0.01686192 192 192 192 255 0.233175 0.78115
429.459 -2.493717 261.4775 -0.02532104 0.9918164 0.1251361 192 192 192 255 0.201037 0.869914
476.6523 -1.811893 279.0127 -0.2003214 0.9794851 -0.02191751 192 192 192 255 0.222537 0.861925
415.7578 -0.343245 161.8945 0.01165155 0.9991313 -0.04001098 192 192 192 255 0.194796 0.91528
0.654297 -0.119835 57.05273 -0.7020867 0.7085786 0.07064427 192 192 192 255 0.040819 0.712075
0.725586 -0.009516 28.21289 -0.6803905 0.7320561 -0.03409868 192 192 192 255 0.005722 0.97618
373.7695 -1.08428 500.0293 0.01221767 0.6488901 0.760784 192 192 192 255 0.175667 0.761239
3.271484 -1.937188 444.2246 -0.5183748 0.8511575 -0.0825741 192 192 192 255 0.006881 0.786661
459.9795 -0.832744 0.881836 0.04080405 0.6988541 -0.7140995 192 192 192 255 0.214942 0.988631
260.0762 -0.128008 18.60938 0.03669086 0.9476879 0.3170829 192 192 192 255 0.140489 0.726869
14.82617 -0.058529 11.10938 -0.1171703 0.9577071 -0.2628085 192 192 192 255 0.046264 0.729755
391.5469 -0.338171 293.959 -0.04597025 0.9953923 -0.08414899 192 192 192 255 0.191 0.620905
499.7588 -0.130758 370.8896 0.6310884 0.7559803 0.1738428 192 192 192 255 0.233064 0.82007
87.3584 -0.080364 0.111328 -0.001046733 0.7129646 -0.7011993 192 192 192 255 0.045188 0.988982
250.6768 -0.067807 482.1504 0.02608928 0.9756566 -0.2177469 192 192 192 255 0.136877 0.548482
415.4912 -0.348476 206.2949 -0.0218229 0.9968928 0.0756871 192 192 192 255 0.200199 0.654641
363.6621 -0.334254 243.5801 0.05953608 0.9978824 -0.0261991 192 192 192 255 0.180286 0.640292
137.2725 -0.349896 115.7783 -0.08950263 0.9957643 -0.02104243 192 192 192 255 0.093307 0.689475
499.5479 0.005327 36.61523 0.7111338 0.7019417 -0.03958195 192 192 192 255 0.232494 0.71994
160.7861 -0.349829 404.208 0.05529969 0.9978823 -0.03424786 192 192 192 255 0.102341 0.578477
331.9561 -0.533659 394.4541 -0.02758062 0.9984958 -0.04738627 192 192 192 255 0.156619 0.809335
481.3848 -0.141625 426.0732 -0.25209 0.963571 -0.0893397 192 192 192 255 0.224693 0.79493
332.2256 -0.894917 -0.021484 -0.08553005 0.6839585 -0.7244898 192 192 192 255 0.156741 0.989043
84.26562 -0.338588 327.4951 -0.007413022 0.9988831 0.04666429 192 192 192 255 0.072942 0.607999
279.2783 -1.516466 491.5703 0.06508083 0.9969255 -0.04363528 192 192 192 255 0.13262 0.765092
302.6963 -1.130363 347.2783 0.01595389 0.9941384 0.1069323 192 192 192 255 0.143289 0.830826
0.155273 -0.103225 245.6748 -0.7021847 0.7119948 -0.0002603517 192 192 192 255 0.040627 0.639486
49.42871 -2.1257 236.3857 0.003050685 0.9946955 -0.1028182 192 192 192 255 0.027909 0.881345
0.492188 -0.105534 148.4316 -0.667649 0.7439882 -0.02695202 192 192 192 255 0.005615 0.921413
73.66016 -0.026265 494.2432 -0.002563787 0.9930141 -0.1179683 192 192 192 255 0.068868 0.543828
469.3906 -2.763798 223.4443 -0.08905879 0.9956529 0.02727579 192 192 192 255 0.220907 0.648041
0.038086 -0.187102 371.6895 -0.6875863 0.7250548 0.03899525 192 192 192 255 0.040582 0.590991
126.0332 -0.030748 482.0781 -0.0094597 0.967525 -0.2525984 192 192 192 255 0.088989 0.54851
401.0674 -2.804892 370.1611 0.0314512 0.9976722 0.06050695 192 192 192 255 0.188103 0.820402
20.46875 -0.326718 255.5781 0.05788166 0.9982763 0.009702975 192 192 192 255 0.048431 0.635675
489.6953 -0.007412 16.15332 0.2117897 0.958796 -0.1893553 192 192 192 255 0.228708 0.727814
20.55957 -0.33713 337.6699 0.04242086 0.9979144 0.0486557 192 192 192 255 0.048466 0.604083
231.4785 -1.067093 1.757813 0.05216627 0.8907517 -0.4514866 192 192 192 255 0.110845 0.988232
372.1523 -2.629084 236.7529 0.0546016 0.9850142 -0.1636025 192 192 192 255 0.174931 0.881177
49.29688 -2.1242 263.6777 0.02736337 0.9963643 0.0806813 192 192 192 255 0.027849 0.868912
361.8359 -0.472925 370.5371 0.05749357 0.9979696 0.02741017 192 192 192 255 0.179585 0.591435
498.4131 0.046587 222.9209 0.6125365 0.7903927 -0.008851846 192 192 192 255 0.232058 0.648242
24.73047 -1.427623 2.155273 -0.2547811 0.6995158 -0.6676557 192 192 192 255 0.050069 0.733201
213.2793 -2.824076 385.5439 -0.02454473 0.9991276 -0.03378971 192 192 192 255 0.102554 0.813394
460.5078 -0.025572 482.1572 0.01745667 0.9795034 -0.2006698 192 192 192 255 0.217494 0.548479
126.6514 -0.113918 499.4414 -0.001009131 0.7080996 0.7061118 192 192 192 255 0.089227 0.541827
499.5264 -1.127799 415.8047 0.6728166 0.7328427 -0.1012889 192 192 192 255 0.232958 0.799608
3 174 58 230 
3 139 65 246 
3 215 227 0 
3 162 209 198 
3 61 185 88 
3 203 198 209 
3 3 226 33 
3 79 59 230 
3 128 159 3 
3 67 47 248 
3 146 243 231 
3 37 1 233 
3 75 81 46 
3 139 246 217 
3 142 141 95 
3 172 62 199 
3 215 0 119 
3 163 159 128 
3 2 98 62 
3 205 30 151 
3 252 108 109 
3 130 17 201 
3 9 5 22 
3 22 137 9 
3 82 45 58 
3 170 229 137 
3 137 229 9 
3 137 143 170 
3 159 180 3 
3 47 67 49 
3 144 76 196 
3 129 225 240 
3 32 47 49 
3 32 115 47 
3 100 253 157 
3 13 254 255 
3 256 34 211 
3 164 211 27 
3 179 15 89 
3 91 120 216 
3 199 41 190 
3 94 93 20 
3 192 51 20 
3 106 80 234 
3 57 257 258 
3 100 6 253 
3 154 253 6 
3 135 259 260 
3 225 186 106 
3 8 261 74 
3 261 262 74 
3 241 175 176 
3 146 263 243 
3 87 40 77 
3 53 194 35 
3 98 264 265 
3 98 2 264 
3 262 266 188 
3 227 120 0 
3 0 83 267 
3 59 178 152 
3 184 213 181 
3 184 121 11 
3 268 19 258 
3 37 269 1 
3 127 122 110 
3 149 214 250 
3 242 270 257 
3 179 89 270 
3 191 184 11 
3 98 156 233 
3 166 211 34 
3 8 74 150 
3 72 214 149 
3 271 272 182 
3 12 141 101 
3 169 168 238 
3 273 90 224 
3 52 87 77 
3 54 90 273 
3 274 232 44 
3 183 200 4 
3 201 17 43 
3 135 6 100 
3 173 135 187 
3 42 187 241 
3 96 254 13 
3 255 275 13 
3 91 89 15 
3 264 2 276 
3 21 103 241 
3 208 42 241 
3 89 91 216 
3 5 222 22 
3 277 81 75 
3 16 136 64 
3 241 187 175 
3 245 278 26 
3 245 26 212 
3 114 248 115 
3 202 129 240 
3 119 0 279 
3 76 249 50 
3 103 125 280 
3 93 137 192 
3 143 137 93 
3 60 197 250 
3 244 169 124 
3 131 44 124 
3 28 145 257 
3 55 102 148 
3 147 104 21 
3 29 154 6 
3 262 188 246 
3 65 262 246 
3 125 103 21 
3 192 137 22 
3 22 222 192 
3 143 93 207 
3 29 6 23 
3 135 23 6 
3 130 38 24 
3 281 38 123 
3 17 183 43 
3 183 282 283 
3 85 89 216 
3 284 285 48 
3 286 163 128 
3 139 217 86 
3 189 255 113 
3 166 84 36 
3 219 179 270 
3 168 206 12 
3 150 206 8 
3 240 126 248 
3 105 142 95 
3 158 108 252 
3 108 158 287 
3 49 67 181 
3 218 247 288 
3 289 218 288 
3 290 215 18 
3 290 18 254 
3 100 157 25 
3 187 25 291 
3 187 135 100 
3 187 100 25 
3 193 97 226 
3 19 57 258 
3 89 292 270 
3 16 130 201 
3 73 30 205 
3 49 181 213 
3 293 32 49 
3 287 158 31 
3 10 68 228 
3 75 46 90 
3 198 161 162 
3 59 174 230 
3 294 227 215 
3 112 172 102 
3 102 172 190 
3 102 55 46 
3 162 56 230 
3 295 296 274 
3 141 12 95 
3 206 140 12 
3 17 130 245 
3 17 200 183 
3 204 273 224 
3 61 88 250 
3 106 138 39 
3 126 39 248 
3 146 297 263 
3 28 298 145 
3 200 245 212 
3 193 226 3 
3 86 217 299 
3 150 235 153 
3 271 127 272 
3 300 42 117 
3 106 186 80 
3 268 258 301 
3 170 143 144 
3 302 99 202 
3 92 58 45 
3 303 171 58 
3 92 45 303 
3 160 142 105 
3 223 304 305 
3 163 237 80 
3 306 159 163 
3 307 134 281 
3 28 257 57 
3 140 153 95 
3 24 38 134 
3 78 7 308 
3 220 252 109 
3 240 106 126 
3 302 202 114 
3 249 309 177 
3 265 66 156 
3 265 224 66 
3 148 79 55 
3 188 227 294 
3 310 91 15 
3 191 11 82 
3 215 119 18 
3 224 311 66 
3 311 224 133 
3 312 271 182 
3 186 306 163 
3 155 97 193 
3 156 37 233 
3 156 10 37 
3 136 16 63 
3 97 198 226 
3 303 149 171 
3 72 149 303 
3 201 43 63 
3 10 228 37 
3 212 180 200 
3 211 213 184 
3 293 213 132 
3 213 293 49 
3 124 313 314 
3 184 181 236 
3 236 121 184 
3 315 268 301 
3 71 134 307 
3 316 155 193 
3 239 208 103 
3 158 317 31 
3 127 318 272 
3 152 178 191 
3 114 240 248 
3 228 68 195 
3 195 68 134 
3 165 48 111 
3 150 153 140 
3 7 165 111 
3 308 7 111 
3 274 315 232 
3 67 218 181 
3 67 247 218 
3 87 53 35 
3 87 35 40 
3 285 319 48 
3 266 216 188 
3 197 61 250 
3 149 88 171 
3 87 320 53 
3 142 139 141 
3 55 162 46 
3 130 24 278 
3 245 130 278 
3 156 66 10 
3 66 321 10 
3 238 118 86 
3 101 141 118 
3 322 205 97 
3 203 209 88 
3 134 38 281 
3 297 146 189 
3 21 323 147 
3 144 143 76 
3 231 243 324 
3 24 134 68 
3 10 24 68 
3 126 106 39 
3 288 247 250 
3 173 187 42 
3 153 105 95 
3 325 69 158 
3 325 158 252 
3 4 180 14 
3 43 304 223 
3 116 326 197 
3 133 224 30 
3 196 107 327 
3 169 313 124 
3 125 328 280 
3 328 125 104 
3 152 174 59 
3 240 225 106 
3 329 64 223 
3 142 65 139 
3 269 228 71 
3 107 196 50 
3 66 311 321 
3 205 151 198 
3 97 205 198 
3 208 241 103 
3 288 250 214 
3 70 330 75 
3 67 248 116 
3 247 60 250 
3 226 198 33 
3 25 157 331 
3 2 112 277 
3 189 332 255 
3 333 271 312 
3 53 334 194 
3 44 244 124 
3 136 63 223 
3 43 223 63 
3 74 262 65 
3 335 129 99 
3 292 89 85 
3 336 78 308 
3 58 171 210 
3 209 210 171 
3 12 140 95 
3 0 120 83 
3 238 86 337 
3 33 198 203 
3 269 71 307 
3 74 65 160 
3 159 338 180 
3 180 212 3 
3 204 224 265 
3 112 2 172 
3 149 250 88 
3 286 237 163 
3 33 203 128 
3 3 33 128 
3 292 85 339 
3 16 64 123 
3 90 161 151 
3 67 116 197 
3 310 340 91 
3 92 303 58 
3 295 274 131 
3 153 235 105 
3 67 60 247 
3 50 249 107 
3 200 180 4 
3 235 74 160 
3 44 232 251 
3 81 102 46 
3 284 48 165 
3 138 234 341 
3 168 101 238 
3 242 219 270 
3 251 244 44 
3 151 161 198 
3 186 163 80 
3 249 327 107 
3 183 4 282 
3 280 239 103 
3 228 195 71 
3 209 162 230 
3 221 169 244 
3 8 206 168 
3 166 132 211 
3 330 277 75 
3 30 224 151 
3 327 249 342 
3 213 211 132 
3 224 90 151 
3 191 27 184 
3 141 139 118 
3 302 335 99 
3 343 338 159 
3 302 114 115 
3 206 150 140 
3 326 167 344 
3 104 125 21 
3 128 203 185 
3 116 248 167 
3 27 211 184 
3 64 136 223 
3 115 248 47 
3 322 97 155 
3 297 345 263 
3 260 23 135 
3 86 118 139 
3 62 41 199 
3 346 29 23 
3 60 67 197 
3 20 93 192 
3 131 274 44 
3 54 347 70 
3 314 146 231 
3 81 112 102 
3 239 300 117 
3 99 129 202 
3 186 225 348 
3 123 64 329 
3 39 138 341 
3 156 98 265 
3 220 349 252 
3 2 62 172 
3 25 331 291 
3 174 82 58 
3 46 162 161 
3 39 344 167 
3 251 221 244 
3 106 234 138 
3 195 134 71 
3 23 260 346 
3 199 190 172 
3 38 130 16 
3 166 293 132 
3 212 193 3 
3 36 293 166 
3 332 275 255 
3 150 74 235 
3 79 162 55 
3 79 56 162 
3 221 350 169 
3 178 164 27 
3 304 43 283 
3 43 183 283 
3 76 50 196 
3 181 218 289 
3 181 289 236 
3 101 118 238 
3 245 200 17 
3 164 178 256 
3 286 128 185 
3 208 117 42 
3 38 16 123 
3 10 321 24 
3 24 321 278 
3 294 351 188 
3 192 222 51 
3 26 193 212 
3 2 277 276 
3 41 196 327 
3 277 112 81 
3 79 230 56 
3 185 203 88 
3 230 58 210 
3 36 352 293 
3 235 160 105 
3 70 347 330 
3 300 173 42 
3 62 1 41 
3 207 93 309 
3 117 208 239 
3 306 343 159 
3 230 210 209 
3 148 353 79 
3 12 101 168 
3 202 240 114 
3 146 332 189 
3 178 27 191 
3 350 8 169 
3 8 168 169 
3 46 161 90 
3 127 110 318 
3 160 65 142 
3 174 191 82 
3 188 216 227 
3 173 259 135 
3 323 21 176 
3 62 233 1 
3 329 223 305 
3 209 171 88 
3 322 354 205 
3 354 73 205 
3 266 85 216 
3 41 144 196 
3 216 120 227 
3 256 211 164 
3 131 231 324 
3 124 231 131 
3 314 231 124 
3 26 316 193 
3 98 233 62 
3 39 341 344 
3 290 254 96 
3 116 167 326 
3 248 39 167 
3 275 355 13 
3 289 356 236 
3 236 356 121 
3 338 14 180 
3 257 145 242 
3 61 357 185 
3 357 286 185 
3 37 228 269 
3 358 333 312 
3 79 353 59 
3 70 75 90 
3 174 152 191 
3 143 207 76 
3 339 85 266 
3 129 348 225 
3 63 16 201 
3 21 241 176 
3 251 350 221 
3 342 249 177 
3 84 352 36 
3 309 93 94 
3 54 70 90 
3 59 256 178 
3 249 207 309 
3 76 207 249 
