ply
format ascii 1.0
comment VCGLIB generated
comment TextureFile Dungeons_2_Texture_01_A.png
element vertex 344
property float x
property float y
property float z
property float nx
property float ny
property float nz
property uchar red
property uchar green
property uchar blue
property uchar alpha
property float texture_u
property float texture_v
element face 321
property list uchar int vertex_indices
end_header
-0 73.99417 -42.16045 -0.001758035 0.000634111 -0.9999983 192 192 192 255 0.002065 0.788439
0 -0 -42.16045 -0.00098124 -0.00196248 -0.9999976 192 192 192 255 0.002065 0.753636
0 -0 -31.19531 -0.8944272 -0.4472136 0 192 192 192 255 0.002065 0.753636
-0 84.52074 -31.19531 -0.4472136 0.6452275 -0.6194203 192 192 192 255 0.002065 0.79339
0 -0 30.79803 -0.7071068 -0.7071068 0 192 192 192 255 0.002065 0.753636
0 84.52074 30.79803 -0.7071068 0.5187149 0.4805568 192 192 192 255 0.002065 0.79339
49.56875 26.3975 42.16045 0.002433999 -0.0002600305 0.999997 192 192 192 255 0.025379 0.766052
0 -0 42.16045 -0.0008444454 -0.0008444454 0.9999993 192 192 192 255 0.002065 0.753636
44.78486 -0 42.16045 0.0007958411 -0.001835565 0.999998 192 192 192 255 0.023129 0.753636
44.26237 -0 -31.19531 0.6373291 -0.7665168 -0.07914316 192 192 192 255 0.022883 0.753636
42.60888 -0 -42.16045 0.000959546 -0.001154048 -0.9999989 192 192 192 255 0.022105 0.753636
47.18284 23.89446 -42.16045 0.002885539 -0.0004161466 -0.9999958 192 192 192 255 0.024257 0.764875
48.31017 -0 30.79803 0.7895846 -0.5626107 0.2450007 192 192 192 255 0.024787 0.753636
55.07854 73.99417 -42.16045 0.0008584013 0.001077606 -0.999999 192 192 192 255 0.028875 0.538439
58.11447 84.52074 -31.19531 0.9245806 0.135034 -0.3562535 192 192 192 255 0.030384 0.54339
0 73.99417 42.16045 -0.001224366 0.0008981625 0.9999989 192 192 192 255 0.002065 0.788439
50.81685 53.38833 -42.16045 0.003460524 -0.0005152214 -0.9999939 192 192 192 255 0.025966 0.778747
60.56185 84.52074 30.79803 0.4704169 0.5794017 0.6655837 192 192 192 255 0.03055 0.54339
57.45075 73.99417 42.16045 0.001173887 9.721194e-05 0.9999993 192 192 192 255 0.029086 0.538439
48.92907 45.60224 42.16045 0.001810128 -0.0001352497 0.9999984 192 192 192 255 0.163721 0.58659
436.7766 73.99417 -42.16045 -0.2948574 0.5673329 -0.7688904 192 192 192 255 0.207501 0.538439
428.7173 32.63768 -42.16045 -0.7315053 0.01443619 -0.6816829 192 192 192 255 0.20371 0.518987
417.0342 50.11646 42.16045 -0.4056532 0.1795303 0.8962223 192 192 192 255 0.198215 0.527208
436.7766 73.99417 42.16045 -0.1860307 0.565063 0.8038013 192 192 192 255 0.207501 0.538439
500 -0 -42.16045 0.5345225 -0.2672613 -0.8017837 192 192 192 255 0.237238 0.753636
435.2941 -0 -42.16045 -0.346403 -0.8082457 -0.4761764 192 192 192 255 0.206804 0.753636
500 -0 -31.19531 0.4472136 -0.8944272 0 192 192 192 255 0.237238 0.753636
431.9107 -0 -31.19531 -0.7820963 -0.5744542 -0.2415115 192 192 192 255 0.205212 0.753636
422.7031 -0 30.79803 -0.6383906 -0.7667233 0.06777082 192 192 192 255 0.165753 0.589458
423.9984 -0 42.16045 -0.3763156 -0.4519646 0.8087735 192 192 192 255 0.163721 0.589513
419.1638 63.21875 -31.19531 -0.7331048 0.01706725 -0.6799015 192 192 192 255 0.199217 0.53337
436.7766 84.52074 -31.19531 -0.3510601 0.6754722 -0.6484552 192 192 192 255 0.207501 0.54339
500 -0 30.79803 0.7071068 -0.7071068 0 192 192 192 255 0.237238 0.753636
500 -0 42.16045 0.5773503 -0.5773503 0.5773503 192 192 192 255 0.237238 0.753636
500 84.52074 -31.19531 0.7071068 0.5100971 -0.4896947 192 192 192 255 0.237238 0.79339
500 73.99417 -42.16045 0.3376735 0.243593 -0.909197 192 192 192 255 0.237238 0.788439
436.7766 84.52074 30.79803 -0.4695174 0.6476893 0.6000434 192 192 192 255 0.207501 0.54339
415.213 58.4404 30.79803 -0.9543343 0.1465535 0.260323 192 192 192 255 0.197359 0.531123
500 84.52074 30.79803 0.7071068 0.5187149 0.4805568 192 192 192 255 0.237238 0.79339
500 73.99417 42.16045 0.3386731 0.2484416 0.9075117 192 192 192 255 0.237238 0.788439
194.5073 392.4281 -17.1535 -0.4476541 -0.7042104 -0.551084 192 192 192 255 0.09355 0.688235
194.5073 500 -17.1535 -0.5474555 0.7071068 -0.4475405 192 192 192 255 0.09355 0.739053
205.6616 500 -30.79803 -0.0002819739 0.0003642044 -0.9999999 192 192 192 255 0.098797 0.739053
205.6616 396.3101 -30.79803 -0.0001134029 -0.0001783956 -1 192 192 192 255 0.098797 0.690061
205.6616 396.5854 30.79803 -0.375444 -0.5792608 0.7235321 192 192 192 255 0.098797 0.69019
205.6616 500 30.79803 -0.227991 0.5889574 0.7753382 192 192 192 255 0.098797 0.739053
194.5073 500 17.1535 -0.6924825 0.4472136 0.566099 192 192 192 255 0.09355 0.739053
194.5073 393.6829 17.1535 -0.4617215 -0.7123758 0.5285206 192 192 192 255 0.09355 0.688827
294.339 418.6701 -30.79803 0.2799062 -0.6865128 -0.6710833 192 192 192 255 0.179305 0.682239
305.4928 409.9079 -17.1535 0.2792285 -0.6883817 -0.6694491 192 192 192 255 0.177272 0.684011
418.4451 30.43996 42.16045 -0.9342205 -0.1170181 0.3369553 192 192 192 255 0.163721 0.582149
305.4928 408.9129 17.1535 0.403549 -0.3622404 0.8401965 192 192 192 255 0.169031 0.686689
294.339 428.2752 30.79803 0.4026966 -0.3601087 0.8415207 192 192 192 255 0.140506 0.705126
305.4928 500 -17.1535 0.5474651 0.7071068 -0.4475288 192 192 192 255 0.145752 0.989053
294.339 500 -30.79803 0.2650672 0.3423613 -0.9014034 192 192 192 255 0.140506 0.989053
305.4928 500 17.1535 0.3462473 0.8944272 0.2830421 192 192 192 255 0.145752 0.989053
294.339 500 30.79803 0.4129136 0.2666599 0.8708587 192 192 192 255 0.140506 0.989053
417.1495 31.43348 30.79803 -0.9867051 -0.1235921 0.1055374 192 192 192 255 0.165753 0.581874
50.31192 11.03521 30.79349 0.9930447 -0.03512516 0.1123761 192 192 192 255 0.165754 0.578511
49.13087 46.43457 30.86464 0.9831604 -0.1826982 0.004105137 192 192 192 255 0.165737 0.586781
50.61345 52.54939 -31.19531 0.986481 -0.1468726 -0.0726889 192 192 192 255 0.18055 0.588429
51.04829 39.49436 -31.19531 0.9871758 -0.1081408 -0.1174291 192 192 192 255 0.18055 0.585341
44.26237 -0 -31.19531 0.5250211 -0.09063525 -0.8462495 192 192 192 255 0.022883 0.753636
0 -0 -31.19531 -3.15515e-05 -6.310299e-05 -1 192 192 192 255 0.002065 0.753636
51.04829 39.49436 -31.19531 0.4185341 -0.0717862 -0.9053596 192 192 192 255 0.026075 0.772212
50.28181 -0 0 0.9677935 -0.1691605 -0.1864415 192 192 192 255 0.025714 0.753636
-0.000244 -0 -0 -0.8944272 -0.4472136 4.512234e-08 192 192 192 255 0.002064 0.753636
50.31152 11.04344 30.79803 0.03021113 -0.005142963 0.9995303 192 192 192 255 0.165753 0.505932
48.31017 0 30.79803 0.104496 -0.4760611 0.8731818 192 192 192 255 0.165753 0.503268
50.84576 -0 24.71318 0.2159069 -0.9723811 0.08865209 192 192 192 255 0.167215 0.503312
49.13248 46.44118 30.79803 0.8556507 -0.2567345 0.4493878 192 192 192 255 0.025174 0.77548
0 0 30.79803 -2.079631e-05 -0.006154878 0.999981 192 192 192 255 0.002065 0.753636
85.1459 200.2482 -31.19531 0.2514564 -0.08348641 -0.9642612 192 192 192 255 0.18055 0.550819
94.71017 198.9063 -1.341056 0.976209 -0.1718841 0.132181 192 192 192 255 0.173474 0.551037
84.82782 207.63 30.79803 0.5425737 0.002328689 0.840005 192 192 192 255 0.165753 0.552921
65.49739 100.9646 30.79803 0.9639758 -0.2659788 0.002416584 192 192 192 255 0.165753 0.528038
94.69434 314.5017 -31.19531 0.0002115415 -6.159164e-05 -1 192 192 192 255 0.18055 0.576768
94.71017 309.9948 -6.68772 0.8896819 0.008004355 0.4565108 192 192 192 255 0.174758 0.575749
84.2847 315.3277 30.79803 0.1071936 -0.1407381 0.9842268 192 192 192 255 0.165753 0.576456
0 500.2594 -31.19531 -2.891036e-05 1.446381e-05 -1 192 192 192 255 0.002065 0.988931
-0.000244 500 -0 -0.3155309 0.9489154 -3.22269e-05 192 192 192 255 0.002064 0.988809
418.6375 0 2.390306 -0.4904148 -0.8695024 -0.05881284 192 192 192 255 0.172577 0.735717
499.9999 0 -0 0.5547002 -0.8320503 -1.399979e-08 192 192 192 255 0.237238 0.753636
422.7031 0 30.79803 -0.7273906 -0.4974655 0.4726849 192 192 192 255 0.165753 0.735983
50.61345 52.54939 -31.19531 0.9393367 -0.2817158 -0.1956602 192 192 192 255 0.18055 0.515887
0 500.2595 30.79803 -3.822311e-05 1.912301e-05 1 192 192 192 255 0.002065 0.988931
404.4648 136.2085 -31.19531 -0.8178425 0.1161541 -0.5635974 192 192 192 255 0.18055 0.704501
394.9784 134.1072 -6.15988 -0.9086257 0.3734297 0.1869485 192 192 192 255 0.174631 0.704765
142.1699 443.3537 -31.19531 0.0001770693 -4.123098e-05 -1 192 192 192 255 0.068934 0.962166
113.2717 412.3654 -31.19531 0.0003565447 -0.0001921675 -0.9999999 192 192 192 255 0.055341 0.947591
417.0331 33.05745 30.79803 -0.0001715211 -1.229882e-05 1 192 192 192 255 0.198215 0.769185
500 0 30.79803 4.522417e-05 -4.522417e-05 1 192 192 192 255 0.237238 0.753636
411.9135 104.4558 30.79803 -0.0004545093 -5.107144e-05 0.9999999 192 192 192 255 0.195807 0.802767
147.5278 436.9525 -17.1535 0.4348126 -0.230703 -0.8704678 192 192 192 255 0.071454 0.709155
120.0659 406.9901 -17.1535 0.0003187488 -7.630698e-05 -0.9999999 192 192 192 255 0.058537 0.695062
142.1699 500 -31.19531 0.0001163122 0.0002483276 -1 192 192 192 255 0.068934 0.988809
147.5278 436.9525 17.1535 0.365959 -0.193834 0.9102211 192 192 192 255 0.071454 0.709155
113.2717 412.3655 30.79803 0.0005019615 -0.0001906583 0.9999999 192 192 192 255 0.055341 0.697591
120.0659 406.9901 17.1535 0.0002301142 -8.738632e-05 1 192 192 192 255 0.058537 0.695062
142.1699 443.3538 30.79803 0.0001762277 -4.091032e-05 1 192 192 192 255 0.068934 0.712166
142.1699 500.0001 30.79803 0.0001158805 0.0002483272 1 192 192 192 255 0.068934 0.988809
147.5278 500 -17.1535 0.4762982 0.7641848 -0.4349271 192 192 192 255 0.071454 0.988809
147.5278 500 17.1535 0.4739774 0.7633063 0.4389864 192 192 192 255 0.071454 0.988809
411.6125 326.2105 -31.19531 -0.5224819 -0.1501864 -0.8393192 192 192 192 255 0.18055 0.663976
400.835 321.2303 0.069668 -0.9951382 0.03013747 0.09376439 192 192 192 255 0.173135 0.664561
358.5624 360.611 -17.1535 -0.6091092 -0.6152166 -0.5004944 192 192 192 255 0.177272 0.650672
354.6749 357.5158 1.782945 -0.656991 -0.7533828 0.0278797 192 192 192 255 0.172723 0.650504
411.5942 326.2021 30.79803 -0.8482026 -0.008399508 0.5296053 192 192 192 255 0.165753 0.66461
113.2717 336.5039 -31.19531 0.6675765 -0.285631 -0.687573 192 192 192 255 0.18055 0.583467
500 0 -31.19531 4.315115e-05 -2.157558e-05 -1 192 192 192 255 0.237238 0.753636
431.9107 0 -31.19531 -0.0007127569 -0.0009234019 -0.9999993 192 192 192 255 0.205212 0.753636
424.326 37.65828 -31.19531 -0.001068071 -0.0002152836 -0.9999994 192 192 192 255 0.18055 0.727466
412.4572 35.03191 0.156832 -0.9849553 -0.1643519 -0.0534014 192 192 192 255 0.173114 0.727525
379.9343 406.9901 -17.1535 -0.0007909065 -0.0003008006 -0.9999996 192 192 192 255 0.180765 0.695062
352.4722 436.9525 -17.1535 -0.001614771 -0.0006007326 -0.9999985 192 192 192 255 0.167849 0.709155
386.7281 412.3654 -31.19531 -0.0005052395 -0.0001921546 -0.9999999 192 192 192 255 0.183961 0.697591
357.8303 443.3537 -31.19531 -0.0001108321 -4.123216e-05 -1 192 192 192 255 0.170369 0.712166
386.7281 412.3655 30.79803 -0.0003540458 -0.0001906419 0.9999999 192 192 192 255 0.183961 0.697591
352.4722 436.9525 17.1535 -0.000845917 -0.0003139367 0.9999996 192 192 192 255 0.167849 0.709155
379.9343 406.9901 17.1535 -0.001219843 -0.0002915394 0.9999992 192 192 192 255 0.180765 0.695062
357.8303 443.3538 30.79803 -0.000110238 -4.091152e-05 1 192 192 192 255 0.170369 0.712166
500 500.2594 -31.19531 1.725296e-05 1.727386e-05 -1 192 192 192 255 0.237238 0.988931
357.8303 500 -31.19531 -0.0002323086 0.000248317 -0.9999999 192 192 192 255 0.170369 0.988809
499.9999 500 -0 0.4467766 0.8946456 -2.281022e-05 192 192 192 255 0.237238 0.988809
352.4722 500 -17.1535 -0.2900641 0.62011 -0.7289214 192 192 192 255 0.167849 0.988809
500 500.2595 30.79803 2.00343e-05 2.005868e-05 1 192 192 192 255 0.237238 0.988931
173.3747 390.7778 17.1535 0.0001408257 -0.0004044738 0.9999999 192 192 192 255 0.169031 0.602366
178.2056 387.6408 -6.333187 0.5224635 -0.8522951 0.0250005 192 192 192 255 0.174673 0.603143
357.8303 500.0001 30.79803 -0.0002314434 0.0002483163 0.9999999 192 192 192 255 0.170369 0.988809
120.0659 341.5358 17.1535 0.001073004 -0.0006148775 0.9999992 192 192 192 255 0.169031 0.585489
113.2717 340.8374 30.79803 0.5446846 -0.3629028 0.7560557 192 192 192 255 0.165753 0.584447
352.4722 500 17.1535 -0.2884931 0.6190555 0.7304396 192 192 192 255 0.167849 0.988809
406.0468 142.2712 30.79803 -0.3833832 0.01040792 0.9235308 192 192 192 255 0.165753 0.70285
177.7516 389.7814 -17.1535 0.0001296627 -0.0003510334 -0.9999999 192 192 192 255 0.177272 0.603225
308.9307 407.5898 5.88983 -0.2353439 -0.9198807 0.3137397 192 192 192 255 0.171737 0.634565
311.876 410.9154 -17.1535 -0.0001032871 -0.0002989402 -0.9999999 192 192 192 255 0.177272 0.635056
386.7281 343.457 -31.19531 -0.5088248 -0.391484 -0.7667057 192 192 192 255 0.18055 0.658036
321.0779 399.2212 17.1535 -0.000456476 -0.0003206197 0.9999999 192 192 192 255 0.169031 0.637974
120.0659 336.0789 -17.1535 0.0007188663 -0.0005196769 -0.9999996 192 192 192 255 0.177272 0.584476
359.234 359.968 17.1535 -0.5753219 -0.6089802 0.5460292 192 192 192 255 0.169031 0.650902
386.7281 344.3088 30.79803 -0.7038299 -0.3681021 0.607556 192 192 192 255 0.165753 0.658155
417.1495 31.43348 30.79803 -0.7706696 -0.08081664 0.6320894 192 192 192 255 0.165753 0.728512
379.9343 343.5513 -17.1535 -0.6364037 -0.4085166 -0.654297 192 192 192 255 0.177272 0.657125
379.9343 343.9943 17.1535 -0.5443811 -0.4717307 0.6936277 192 192 192 255 0.169031 0.657154
30.61743 427.6974 30.79803 0.7658191 -0.3808742 0.5181274 192 192 192 255 0.016465 0.704802
0.000122 390.6668 30.79803 -0.8725934 -0.3583105 0.3319553 192 192 192 255 0.002065 0.687385
30.61743 500 30.79803 0.6217726 0.7071068 0.3367476 192 192 192 255 0.016465 0.739053
24.46362 430.7809 42.16045 0.5686423 -0.1288163 0.812436 192 192 192 255 0.013571 0.956253
0.000122 401.1934 42.16045 0.1411444 -0.4732055 0.8695717 192 192 192 255 0.002065 0.942336
24.46362 500 42.16045 0.4422955 0.5029976 0.7425417 192 192 192 255 0.013571 0.989053
0.000122 500 30.79803 -0.7071066 0.707107 3.604164e-06 192 192 192 255 0.002065 0.989053
0.000244 500 42.16045 -0.5773492 0.5773495 0.5773522 192 192 192 255 0.002065 0.989053
499.9999 390.6668 30.79803 -0.2137449 -0.7166177 0.6639068 192 192 192 255 0.237238 0.687385
469.3824 427.6974 30.79803 -0.8406488 -0.1904357 0.5069949 192 192 192 255 0.222837 0.704802
469.3824 500 30.79803 -0.6217641 0.7071068 0.3367631 192 192 192 255 0.222837 0.739053
499.9999 401.1934 42.16045 0.6398348 -0.2627329 0.722207 192 192 192 255 0.237238 0.692336
475.5366 430.7809 42.16045 -0.5161876 -0.2567223 0.8170949 192 192 192 255 0.225732 0.706253
475.5366 500 42.16045 -0.5325464 0.6056431 0.591262 192 192 192 255 0.225732 0.739053
500 500 42.16045 0.4082483 0.4082478 0.8164968 192 192 192 255 0.237238 0.989053
500 500 30.79803 0.7071072 0.7071064 3.841991e-07 192 192 192 255 0.237238 0.989053
30.61743 427.6974 -31.19531 0.7584152 -0.3770196 -0.5316604 192 192 192 255 0.016465 0.704802
0.000122 390.6668 -31.19531 -0.87204 -0.3530698 -0.3389512 192 192 192 255 0.002065 0.687385
30.61743 500 -31.19531 0.6166351 0.7071068 -0.3460651 192 192 192 255 0.016465 0.739053
24.46362 430.7809 -42.16045 0.5611231 -0.1270072 -0.8179304 192 192 192 255 0.013571 0.956253
0.000122 401.1934 -42.16045 0.1347814 -0.4653607 -0.8747991 192 192 192 255 0.002065 0.942336
24.46362 500 -42.16045 0.4371859 0.501329 -0.7466845 192 192 192 255 0.013571 0.989053
0.000122 500 -31.19531 -0.7071066 0.707107 -3.734747e-06 192 192 192 255 0.002065 0.989053
0.000244 500 -42.16045 -0.5773492 0.5773494 -0.5773522 192 192 192 255 0.002065 0.989053
499.9999 390.6668 -31.19531 -0.2045137 -0.706136 -0.6778983 192 192 192 255 0.237238 0.687385
469.3824 427.6974 -31.19531 -0.8328335 -0.1885083 -0.5204354 192 192 192 255 0.222837 0.704802
469.3824 500 -31.19531 -0.6166264 0.7071068 -0.3460808 192 192 192 255 0.222837 0.739053
499.9999 401.1934 -42.16045 0.6390321 -0.2587293 -0.7243599 192 192 192 255 0.237238 0.692336
475.5366 430.7809 -42.16045 -0.5091713 -0.2531171 -0.8226033 192 192 192 255 0.225732 0.706253
475.5366 500 -42.16045 -0.5268741 0.6041847 -0.5977997 192 192 192 255 0.225732 0.739053
500 500 -42.16045 0.4082483 0.4082478 -0.8164968 192 192 192 255 0.237238 0.989053
500 500 -31.19531 0.7071072 0.7071064 -3.98119e-07 192 192 192 255 0.237238 0.989053
305.5452 408.917 17.1535 0.0003202831 -0.000343698 0.9999999 192 192 192 255 0.169031 0.633811
305.5225 436.9525 17.1535 -0.06543595 -0.03761572 0.9971475 192 192 192 255 0.145766 0.709155
313.4576 422.5909 17.1535 -0.03005036 -0.01651949 0.9994119 192 192 192 255 0.149498 0.7024
308.7274 418.997 13.49347 -0.4569512 -0.2567692 0.851625 192 192 192 255 0.147271 0.701532
274.368 405.9991 30.79803 0.4011459 -0.3607765 0.8419752 192 192 192 255 0.166998 0.67928
407.5308 191.4762 30.79803 -0.2682612 0.1534112 0.9510525 192 192 192 255 0.165753 0.691128
420.5198 265.0302 30.79803 -0.5265063 -0.09098627 0.8452885 192 192 192 255 0.199855 0.878292
428.5421 228.1302 30.79803 -0.02038199 0.00359928 0.9997858 192 192 192 255 0.203628 0.860936
405.7795 253.1828 20.33512 -0.8250403 0.02109326 0.56468 192 192 192 255 0.168266 0.678982
395.9667 165.6848 -5.108625 -0.9999582 -0.004105918 0.008173732 192 192 192 255 0.174379 0.697304
403.4563 187.6149 -22.22175 -0.9172983 0.02191494 -0.3975972 192 192 192 255 0.17849 0.692747
407.4448 215.4231 -31.19531 -0.7911164 -0.08156279 -0.6062034 192 192 192 255 0.18055 0.686902
412.4782 166.7448 -31.19531 -0.009957788 -0.001025692 -0.9999499 192 192 192 255 0.18055 0.697303
401.7945 150.6976 -6.465124 -0.9926083 0.02735331 0.1182394 192 192 192 255 0.174705 0.700867
429.3951 65.06657 -42.16045 -0.7293582 0.01633043 -0.6839371 192 192 192 255 0.204029 0.53424
68.44698 303.2672 30.79803 0.07662399 0.000386416 0.99706 192 192 192 255 0.165753 0.5735
258.5998 404.212 -30.79803 0.0329893 -0.08174827 -0.9961069 192 192 192 255 0.179305 0.67437
61.1531 97.62852 -31.19531 0.9200794 0.05822361 -0.387381 192 192 192 255 0.18055 0.527026
58.49265 139.4015 -31.19531 0.03968912 -0.009279444 -0.999169 192 192 192 255 0.029576 0.819203
66.95796 118.3574 -14.23564 0.9332009 -0.2183734 -0.285393 192 192 192 255 0.176571 0.531946
49.56875 26.3975 42.16045 0.002433999 -0.0002600305 0.999997 192 192 192 255 0.163721 0.582047
-0 73.99417 -42.16045 -0.001758035 0.000634111 -0.9999983 192 192 192 255 0.002065 0.538439
-0 84.52074 -31.19531 -0.4472136 0.6452275 -0.6194203 192 192 192 255 0.002065 0.54339
55.07854 73.99417 -42.16045 0.0008584013 0.001077606 -0.999999 192 192 192 255 0.028875 0.788439
0 84.52074 30.79803 -0.7071068 0.5187149 0.4805568 192 192 192 255 0.002065 0.54339
0 73.99417 42.16045 -0.001224366 0.0008981625 0.9999989 192 192 192 255 0.002065 0.538439
44.78486 -0 42.16045 0.0007958411 -0.001835565 0.999998 192 192 192 255 0.163721 0.575842
48.31017 -0 30.79803 0.7895846 -0.5626107 0.2450007 192 192 192 255 0.165753 0.576005
57.45075 73.99417 42.16045 0.001173887 9.721194e-05 0.9999993 192 192 192 255 0.029086 0.788439
48.92907 45.60224 42.16045 0.001810128 -0.0001352497 0.9999984 192 192 192 255 0.025078 0.775085
60.56185 84.52074 30.79803 0.4704169 0.5794017 0.6655837 192 192 192 255 0.165753 0.596318
57.45075 73.99417 42.16045 0.001173887 9.721194e-05 0.9999993 192 192 192 255 0.163721 0.593675
422.7031 -0 30.79803 -0.6383906 -0.7667233 0.06777082 192 192 192 255 0.200882 0.753636
423.9984 -0 42.16045 -0.3763156 -0.4519646 0.8087735 192 192 192 255 0.201491 0.753636
500 84.52074 -31.19531 0.7071068 0.5100971 -0.4896947 192 192 192 255 0.237238 0.54339
500 73.99417 -42.16045 0.3376735 0.243593 -0.909197 192 192 192 255 0.237238 0.538439
500 73.99417 42.16045 0.3386731 0.2484416 0.9075117 192 192 192 255 0.237238 0.538439
500 84.52074 30.79803 0.7071068 0.5187149 0.4805568 192 192 192 255 0.237238 0.54339
205.6616 396.5854 30.79803 -0.375444 -0.5792608 0.7235321 192 192 192 255 0.166999 0.662828
194.5073 393.6829 17.1535 -0.4617215 -0.7123758 0.5285206 192 192 192 255 0.169031 0.660113
205.6616 500 -30.79803 -0.0002819739 0.0003642044 -0.9999999 192 192 192 255 0.098797 0.989053
194.5073 500 -17.1535 -0.5474555 0.7071068 -0.4475405 192 192 192 255 0.09355 0.989053
294.339 418.6701 -30.79803 0.2799062 -0.6865128 -0.6710833 192 192 192 255 0.140506 0.700599
294.339 500 -30.79803 0.2650672 0.3423613 -0.9014034 192 192 192 255 0.140506 0.739053
305.4928 500 -17.1535 0.5474651 0.7071068 -0.4475288 192 192 192 255 0.145752 0.739053
305.4928 409.9079 -17.1535 0.2792285 -0.6883817 -0.6694491 192 192 192 255 0.145752 0.696473
417.0342 50.11646 42.16045 -0.4056532 0.1795303 0.8962223 192 192 192 255 0.198215 0.777208
418.4451 30.43996 42.16045 -0.9342205 -0.1170181 0.3369553 192 192 192 255 0.198879 0.767953
205.6616 500 30.79803 -0.227991 0.5889574 0.7753382 192 192 192 255 0.098797 0.989053
194.5073 500 17.1535 -0.6924825 0.4472136 0.566099 192 192 192 255 0.09355 0.989053
305.4928 408.9129 17.1535 0.403549 -0.3622404 0.8401965 192 192 192 255 0.145752 0.696004
305.4928 500 17.1535 0.3462473 0.8944272 0.2830421 192 192 192 255 0.145752 0.739053
294.339 500 30.79803 0.4129136 0.2666599 0.8708587 192 192 192 255 0.140506 0.739053
436.7766 73.99417 42.16045 -0.1860307 0.565063 0.8038013 192 192 192 255 0.207501 0.788439
258.5998 404.212 -30.79803 0.0329893 -0.08174827 -0.9961069 192 192 192 255 0.123696 0.943785
294.339 418.6701 -30.79803 0.2799062 -0.6865128 -0.6710833 192 192 192 255 0.140506 0.950599
274.368 405.9991 30.79803 0.4011459 -0.3607765 0.8419752 192 192 192 255 0.131113 0.944627
294.339 428.2752 30.79803 0.4026966 -0.3601087 0.8415207 192 192 192 255 0.140506 0.955126
205.6616 396.5854 30.79803 -0.375444 -0.5792608 0.7235321 192 192 192 255 0.098797 0.94019
417.0342 50.11646 42.16045 -0.4056532 0.1795303 0.8962223 192 192 192 255 0.163721 0.577446
415.213 58.4404 30.79803 -0.9543343 0.1465535 0.260323 192 192 192 255 0.165753 0.575442
44.26237 -0 -31.19531 0.6373291 -0.7665168 -0.07914316 192 192 192 255 0.18055 0.575866
42.60888 -0 -42.16045 0.000959546 -0.001154048 -0.9999989 192 192 192 255 0.182583 0.575783
47.18284 23.89446 -42.16045 0.002885539 -0.0004161466 -0.9999958 192 192 192 255 0.182583 0.581552
50.81685 53.38833 -42.16045 0.003460524 -0.0005152214 -0.9999939 192 192 192 255 0.182583 0.588625
55.07854 73.99417 -42.16045 0.0008584013 0.001077606 -0.999999 192 192 192 255 0.182583 0.593585
58.11447 84.52074 -31.19531 0.9245806 0.135034 -0.3562535 192 192 192 255 0.18055 0.596162
50.31152 11.04344 30.79803 0.03021113 -0.005142963 0.9995303 192 192 192 255 0.025728 0.75883
48.31017 0 30.79803 0.104496 -0.4760611 0.8731818 192 192 192 255 0.024787 0.753636
50.84576 -0 24.71318 0.2159069 -0.9723811 0.08865209 192 192 192 255 0.02598 0.753636
50.28181 -0 0 0.9677935 -0.1691605 -0.1864415 192 192 192 255 0.173152 0.503311
51.04829 39.49436 -31.19531 0.4185341 -0.0717862 -0.9053596 192 192 192 255 0.18055 0.512737
113.2717 412.3654 -31.19531 0.0003565447 -0.0001921675 -0.9999999 192 192 192 255 0.055341 0.697591
142.1699 443.3537 -31.19531 0.0001770693 -4.123098e-05 -1 192 192 192 255 0.068934 0.712166
142.1699 443.3538 30.79803 0.0001762277 -4.091032e-05 1 192 192 192 255 0.068934 0.962166
113.2717 412.3655 30.79803 0.0005019615 -0.0001906583 0.9999999 192 192 192 255 0.055341 0.947591
424.326 37.65828 -31.19531 -0.001068071 -0.0002152836 -0.9999994 192 192 192 255 0.201645 0.771349
431.9107 0 -31.19531 -0.0007127569 -0.0009234019 -0.9999993 192 192 192 255 0.18055 0.736192
418.6375 0 2.390306 -0.4904148 -0.8695024 -0.05881284 192 192 192 255 0.198969 0.753636
386.7281 412.3654 -31.19531 -0.0005052395 -0.0001921546 -0.9999999 192 192 192 255 0.183961 0.947591
357.8303 443.3537 -31.19531 -0.0001108321 -4.123216e-05 -1 192 192 192 255 0.170369 0.962166
357.8303 443.3538 30.79803 -0.000110238 -4.091152e-05 1 192 192 192 255 0.170369 0.962166
386.7281 412.3655 30.79803 -0.0003540458 -0.0001906419 0.9999999 192 192 192 255 0.183961 0.947591
120.0659 341.5358 17.1535 0.001073004 -0.0006148775 0.9999992 192 192 192 255 0.058537 0.664276
113.2717 340.8374 30.79803 0.5446846 -0.3629028 0.7560557 192 192 192 255 0.055341 0.663948
411.9135 104.4558 30.79803 -0.0004545093 -5.107144e-05 0.9999999 192 192 192 255 0.165753 0.711806
142.1699 500 -31.19531 0.0001163122 0.0002483276 -1 192 192 192 255 0.068934 0.738809
147.5278 500 -17.1535 0.4762982 0.7641848 -0.4349271 192 192 192 255 0.071454 0.738809
147.5278 500 17.1535 0.4739774 0.7633063 0.4389864 192 192 192 255 0.071454 0.738809
142.1699 500.0001 30.79803 0.0001158805 0.0002483272 1 192 192 192 255 0.068934 0.738809
352.4722 500 -17.1535 -0.2900641 0.62011 -0.7289214 192 192 192 255 0.167849 0.738809
113.2717 336.5039 -31.19531 0.6675765 -0.285631 -0.687573 192 192 192 255 0.055341 0.66191
120.0659 336.0789 -17.1535 0.0007188663 -0.0005196769 -0.9999996 192 192 192 255 0.058537 0.66171
422.7031 0 30.79803 -0.7273906 -0.4974655 0.4726849 192 192 192 255 0.200882 0.753636
352.4722 500 17.1535 -0.2884931 0.6190555 0.7304396 192 192 192 255 0.167849 0.738809
417.1495 31.43348 30.79803 -0.7706696 -0.08081664 0.6320894 192 192 192 255 0.198269 0.768421
417.0331 33.05745 30.79803 -0.0001715211 -1.229882e-05 1 192 192 192 255 0.165753 0.72813
357.8303 500 -31.19531 -0.0002323086 0.000248317 -0.9999999 192 192 192 255 0.170369 0.738809
357.8303 500.0001 30.79803 -0.0002314434 0.0002483163 0.9999999 192 192 192 255 0.170369 0.738809
177.7516 389.7814 -17.1535 0.0001296627 -0.0003510334 -0.9999999 192 192 192 255 0.085669 0.686968
311.876 410.9154 -17.1535 -0.0001032871 -0.0002989402 -0.9999999 192 192 192 255 0.148754 0.696909
379.9343 343.5513 -17.1535 -0.6364037 -0.4085166 -0.654297 192 192 192 255 0.180765 0.665224
358.5624 360.611 -17.1535 -0.6091092 -0.6152166 -0.5004944 192 192 192 255 0.170713 0.673248
386.7281 343.457 -31.19531 -0.5088248 -0.391484 -0.7667057 192 192 192 255 0.183961 0.66518
379.9343 343.9943 17.1535 -0.5443811 -0.4717307 0.6936277 192 192 192 255 0.180765 0.665433
321.0779 399.2212 17.1535 -0.000456476 -0.0003206197 0.9999999 192 192 192 255 0.153082 0.691521
359.234 359.968 17.1535 -0.5753219 -0.6089802 0.5460292 192 192 192 255 0.171029 0.672946
386.7281 344.3088 30.79803 -0.7038299 -0.3681021 0.607556 192 192 192 255 0.183961 0.665581
173.3747 390.7778 17.1535 0.0001408257 -0.0004044738 0.9999999 192 192 192 255 0.083611 0.687437
85.1459 200.2482 -31.19531 0.2514564 -0.08348641 -0.9642612 192 192 192 255 0.042113 0.847822
94.69434 314.5017 -31.19531 0.0002115415 -6.159164e-05 -1 192 192 192 255 0.046604 0.901561
113.2717 336.5039 -31.19531 0.6675765 -0.285631 -0.687573 192 192 192 255 0.055341 0.91191
68.44698 303.2672 30.79803 0.07662399 0.000386416 0.99706 192 192 192 255 0.034258 0.896277
84.82782 207.63 30.79803 0.5425737 0.002328689 0.840005 192 192 192 255 0.041963 0.851294
65.49739 100.9646 30.79803 0.9639758 -0.2659788 0.002416584 192 192 192 255 0.032871 0.801124
305.5452 408.917 17.1535 0.0003202831 -0.000343698 0.9999999 192 192 192 255 0.145776 0.696058
412.4782 166.7448 -31.19531 -0.009957788 -0.001025692 -0.9999499 192 192 192 255 0.196072 0.832064
404.4648 136.2085 -31.19531 -0.8178425 0.1161541 -0.5635974 192 192 192 255 0.192303 0.817701
411.6125 326.2105 -31.19531 -0.5224819 -0.1501864 -0.8393192 192 192 192 255 0.195665 0.907068
386.7281 343.457 -31.19531 -0.5088248 -0.391484 -0.7667057 192 192 192 255 0.183961 0.91518
411.5942 326.2021 30.79803 -0.8482026 -0.008399508 0.5296053 192 192 192 255 0.195657 0.907064
386.7281 344.3088 30.79803 -0.7038299 -0.3681021 0.607556 192 192 192 255 0.183961 0.915581
44.26237 -0 -31.19531 0.5250211 -0.09063525 -0.8462495 192 192 192 255 0.18055 0.503148
49.13248 46.44118 30.79803 0.8556507 -0.2567345 0.4493878 192 192 192 255 0.165753 0.514405
50.61345 52.54939 -31.19531 0.9393367 -0.2817158 -0.1956602 192 192 192 255 0.02587 0.778353
113.2717 340.8374 30.79803 0.5446846 -0.3629028 0.7560557 192 192 192 255 0.055341 0.913948
84.2847 315.3277 30.79803 0.1071936 -0.1407381 0.9842268 192 192 192 255 0.041708 0.90195
406.0468 142.2712 30.79803 -0.3833832 0.01040792 0.9235308 192 192 192 255 0.193047 0.820553
24.46362 430.7809 42.16045 0.5686423 -0.1288163 0.812436 192 192 192 255 0.013571 0.706253
0.000122 401.1934 42.16045 0.1411444 -0.4732055 0.8695717 192 192 192 255 0.002065 0.692336
24.46362 500 42.16045 0.4422955 0.5029976 0.7425417 192 192 192 255 0.013571 0.739053
30.61743 500 30.79803 0.6217726 0.7071068 0.3367476 192 192 192 255 0.016465 0.989053
0.000122 390.6668 30.79803 -0.8725934 -0.3583105 0.3319553 192 192 192 255 0.002065 0.937385
475.5366 500 42.16045 -0.5325464 0.6056431 0.591262 192 192 192 255 0.225732 0.989053
469.3824 500 30.79803 -0.6217641 0.7071068 0.3367631 192 192 192 255 0.222837 0.989053
475.5366 430.7809 42.16045 -0.5161876 -0.2567223 0.8170949 192 192 192 255 0.225732 0.956253
499.9999 401.1934 42.16045 0.6398348 -0.2627329 0.722207 192 192 192 255 0.237238 0.942336
499.9999 390.6668 30.79803 -0.2137449 -0.7166177 0.6639068 192 192 192 255 0.237238 0.937385
0.000122 401.1934 -42.16045 0.1347814 -0.4653607 -0.8747991 192 192 192 255 0.002065 0.692336
24.46362 430.7809 -42.16045 0.5611231 -0.1270072 -0.8179304 192 192 192 255 0.013571 0.706253
24.46362 500 -42.16045 0.4371859 0.501329 -0.7466845 192 192 192 255 0.013571 0.739053
30.61743 500 -31.19531 0.6166351 0.7071068 -0.3460651 192 192 192 255 0.016465 0.989053
0.000122 390.6668 -31.19531 -0.87204 -0.3530698 -0.3389512 192 192 192 255 0.002065 0.937385
475.5366 500 -42.16045 -0.5268741 0.6041847 -0.5977997 192 192 192 255 0.225732 0.989053
469.3824 500 -31.19531 -0.6166264 0.7071068 -0.3460808 192 192 192 255 0.222837 0.989053
475.5366 430.7809 -42.16045 -0.5091713 -0.2531171 -0.8226033 192 192 192 255 0.225732 0.956253
499.9999 401.1934 -42.16045 0.6390321 -0.2587293 -0.7243599 192 192 192 255 0.237238 0.942336
499.9999 390.6668 -31.19531 -0.2045137 -0.706136 -0.6778983 192 192 192 255 0.237238 0.937385
308.9307 407.5898 5.88983 -0.2353439 -0.9198807 0.3137397 192 192 192 255 0.14737 0.695095
305.4928 408.9129 17.1535 0.403549 -0.3622404 0.8401965 192 192 192 255 0.101852 0.533091
294.339 428.2752 30.79803 0.4026966 -0.3601087 0.8415207 192 192 192 255 0.101831 0.533113
274.368 405.9991 30.79803 0.4011459 -0.3607765 0.8419752 192 192 192 255 0.10185 0.533151
420.5198 265.0302 30.79803 -0.5265063 -0.09098627 0.8452885 192 192 192 255 0.165753 0.677076
428.5421 228.1302 30.79803 -0.02038199 0.00359928 0.9997858 192 192 192 255 0.165753 0.683152
407.5308 191.4762 30.79803 -0.2682612 0.1534112 0.9510525 192 192 192 255 0.193745 0.843696
407.4448 215.4231 -31.19531 -0.7911164 -0.08156279 -0.6062034 192 192 192 255 0.193705 0.85496
429.3951 65.06657 -42.16045 -0.7293582 0.01633043 -0.6839371 192 192 192 255 0.204029 0.78424
436.7766 73.99417 -42.16045 -0.2948574 0.5673329 -0.7688904 192 192 192 255 0.207501 0.788439
428.7173 32.63768 -42.16045 -0.7315053 0.01443619 -0.6816829 192 192 192 255 0.20371 0.768987
431.9107 -0 -31.19531 -0.7820963 -0.5744542 -0.2415115 192 192 192 255 0.18055 0.586972
419.1638 63.21875 -31.19531 -0.7331048 0.01706725 -0.6799015 192 192 192 255 0.18055 0.57255
428.7173 32.63768 -42.16045 -0.7315053 0.01443619 -0.6816829 192 192 192 255 0.182583 0.579676
435.2941 -0 -42.16045 -0.346403 -0.8082457 -0.4761764 192 192 192 255 0.182583 0.587122
194.5073 392.4281 -17.1535 -0.4476541 -0.7042104 -0.551084 192 192 192 255 0.177272 0.660877
205.6616 396.3101 -30.79803 -0.0001134029 -0.0001783956 -1 192 192 192 255 0.179305 0.663257
205.6616 396.3101 -30.79803 -0.0001134029 -0.0001783956 -1 192 192 192 255 0.098797 0.940061
58.49265 139.4015 -31.19531 0.03968912 -0.009279444 -0.999169 192 192 192 255 0.18055 0.536021
61.1531 97.62852 -31.19531 0.9200794 0.05822361 -0.387381 192 192 192 255 0.030828 0.799555
3 0 1 2 
3 0 2 3 
3 6 7 8 
3 58 59 19 
3 58 19 196 
3 8 7 4 
3 8 4 12 
3 13 197 198 
3 13 198 14 
3 15 5 4 
3 15 4 7 
3 16 0 199 
3 17 200 201 
3 17 201 18 
3 196 202 203 
3 196 203 58 
3 30 190 21 
3 204 15 205 
3 59 206 207 
3 59 207 19 
3 22 23 36 
3 22 36 37 
3 25 24 26 
3 25 26 27 
3 28 29 50 
3 28 50 57 
3 208 32 33 
3 208 33 209 
3 34 26 24 
3 34 24 35 
3 20 31 210 
3 20 210 211 
3 38 39 33 
3 38 33 32 
3 23 212 213 
3 23 213 36 
3 40 41 42 
3 40 42 43 
3 44 45 46 
3 44 46 47 
3 48 49 192 
3 51 180 214 
3 51 214 215 
3 216 217 53 
3 216 53 54 
3 218 219 220 
3 218 220 221 
3 209 33 222 
3 209 222 223 
3 224 56 55 
3 224 55 225 
3 226 227 228 
3 226 228 52 
3 222 33 39 
3 222 39 229 
3 230 216 54 
3 230 54 231 
3 232 233 56 
3 232 56 224 
3 232 224 234 
3 50 235 236 
3 50 236 57 
3 10 1 11 
3 9 2 1 
3 9 1 10 
3 237 238 239 
3 237 239 61 
3 240 241 242 
3 240 242 60 
3 61 239 240 
3 61 240 60 
3 205 15 7 
3 205 7 6 
3 11 1 0 
3 11 0 16 
3 62 63 64 
3 65 66 63 
3 65 63 62 
3 67 68 69 
3 70 71 243 
3 243 71 244 
3 71 66 65 
3 71 65 245 
3 244 71 245 
3 246 247 67 
3 246 67 69 
3 195 75 84 
3 195 84 193 
3 72 73 75 
3 74 75 73 
3 77 78 191 
3 79 63 66 
3 79 66 80 
3 83 141 112 
3 83 112 81 
3 85 80 66 
3 85 66 71 
3 87 86 111 
3 87 111 112 
3 88 89 79 
3 90 91 92 
3 93 94 248 
3 93 248 249 
3 95 79 80 
3 95 80 101 
3 88 79 95 
3 97 98 96 
3 97 96 99 
3 250 85 251 
3 80 85 100 
3 80 100 102 
3 250 100 85 
3 186 187 188 
3 105 106 134 
3 105 134 135 
3 132 185 189 
3 77 76 108 
3 77 108 138 
3 127 77 138 
3 127 138 133 
3 109 110 252 
3 112 111 253 
3 112 253 81 
3 115 113 114 
3 115 114 116 
3 110 109 82 
3 110 82 254 
3 118 119 117 
3 118 117 120 
3 121 255 256 
3 121 256 122 
3 122 124 123 
3 122 123 121 
3 125 257 258 
3 130 78 77 
3 130 77 129 
3 129 77 127 
3 129 127 126 
3 125 128 257 
3 259 98 97 
3 259 97 260 
3 123 131 128 
3 123 128 125 
3 261 132 87 
3 261 87 112 
3 188 189 185 
3 188 185 186 
3 249 262 263 
3 249 263 93 
3 134 127 133 
3 134 133 135 
3 99 96 264 
3 99 264 265 
3 126 127 134 
3 126 134 176 
3 93 263 266 
3 93 266 114 
3 136 103 104 
3 136 104 142 
3 142 104 106 
3 142 106 105 
3 267 248 94 
3 267 94 268 
3 134 106 139 
3 134 139 137 
3 254 82 91 
3 254 91 269 
3 123 82 109 
3 123 109 121 
3 96 177 118 
3 96 118 270 
3 96 270 264 
3 123 124 101 
3 123 101 80 
3 104 107 140 
3 104 140 143 
3 106 104 143 
3 106 143 139 
3 91 90 271 
3 91 271 269 
3 123 80 102 
3 123 102 131 
3 123 125 91 
3 123 91 82 
3 141 272 261 
3 141 261 112 
3 114 266 273 
3 114 273 116 
3 118 120 274 
3 118 274 270 
3 275 94 276 
3 276 113 277 
3 276 277 278 
3 277 113 115 
3 277 115 279 
3 280 119 281 
3 280 281 282 
3 283 117 119 
3 283 119 280 
3 284 98 259 
3 194 79 285 
3 285 79 286 
3 287 286 79 
3 287 79 89 
3 288 71 289 
3 290 289 71 
3 290 71 70 
3 276 114 113 
3 98 291 177 
3 98 177 96 
3 292 109 252 
3 292 252 293 
3 121 294 295 
3 121 295 255 
3 296 125 258 
3 296 258 297 
3 246 298 247 
3 67 247 84 
3 67 84 299 
3 64 63 300 
3 301 251 85 
3 301 85 302 
3 183 125 296 
3 183 296 182 
3 91 303 92 
3 291 98 284 
3 118 281 119 
3 94 93 114 
3 94 114 276 
3 268 94 275 
3 151 148 147 
3 151 147 149 
3 144 304 305 
3 144 305 145 
3 146 306 304 
3 146 304 144 
3 151 149 307 
3 151 307 150 
3 308 148 151 
3 308 151 150 
3 152 155 156 
3 152 156 153 
3 153 156 157 
3 153 157 154 
3 309 158 159 
3 309 159 310 
3 311 312 158 
3 311 158 309 
3 312 313 159 
3 312 159 158 
3 167 165 163 
3 167 163 164 
3 160 161 314 
3 160 314 315 
3 162 160 315 
3 162 315 316 
3 167 166 317 
3 167 317 165 
3 318 166 167 
3 318 167 164 
3 168 169 172 
3 168 172 171 
3 169 170 173 
3 169 173 172 
3 319 320 175 
3 319 175 174 
3 321 319 174 
3 321 174 322 
3 322 174 175 
3 322 175 323 
3 177 178 118 
3 177 291 324 
3 177 324 179 
3 118 178 281 
3 177 179 178 
3 178 179 324 
3 178 324 281 
3 325 326 327 
3 328 184 329 
3 107 184 328 
3 329 184 181 
3 91 183 330 
3 91 330 303 
3 91 125 183 
3 107 104 184 
3 186 185 104 
3 103 187 186 
3 103 186 104 
3 292 331 294 
3 292 294 121 
3 121 109 292 
3 86 87 189 
3 86 189 188 
3 132 189 87 
3 20 190 30 
3 20 30 31 
3 35 24 332 
3 35 332 333 
3 334 332 24 
3 334 24 25 
3 335 336 337 
3 335 337 338 
3 302 85 288 
3 77 191 74 
3 77 74 73 
3 76 77 73 
3 76 73 72 
3 288 85 71 
3 184 185 132 
3 184 132 181 
3 184 104 185 
3 192 49 339 
3 192 339 340 
3 341 216 230 
3 72 195 342 
3 342 195 193 
3 300 63 194 
3 300 194 343 
3 194 63 79 
3 75 195 72 
3 84 75 299 
