ply
format ascii 1.0
comment VCGLIB generated
comment TextureFile Dungeons_2_Texture_01_A.png
element vertex 156
property float x
property float y
property float z
property float nx
property float ny
property float nz
property uchar red
property uchar green
property uchar blue
property uchar alpha
property float texture_u
property float texture_v
element face 128
property list uchar int vertex_indices
end_header
36.69551 143.7136 55.70327 0.6542014 0.009892616 0.7562557 192 192 192 255 0.093699 0.817966
36.69551 361.0393 55.70327 0.6585529 -0.004586943 0.7525204 192 192 192 255 0.033804 0.899717
-55.70328 119.9479 19.45187 -0.7478436 0.008495945 0.6638207 192 192 192 255 0.055897 0.809026
-55.70328 393.1426 35.19774 -0.5959942 -0.01076792 0.8029165 192 192 192 255 0.06182 0.911793
-55.70328 394.9236 -24.33638 -0.6414356 -0.005781877 -0.7671552 192 192 192 255 0.039425 0.912463
-55.70328 102.7343 -35.0568 -0.7779207 0.004225786 -0.6283484 192 192 192 255 0.102702 0.913344
36.69551 378.4837 -55.70327 0.7189696 -0.01408259 -0.6948988 192 192 192 255 0.092153 0.809616
36.69551 116.9947 -55.70327 0.6474329 0.007328757 -0.7620872 192 192 192 255 0.118625 0.807915
55.70328 110.2741 -35.0568 0.9999999 4.318777e-06 -0.0003492321 192 192 192 255 0.146708 0.805387
55.70328 391.0905 35.19774 0.7816793 -0.007930888 0.6236301 192 192 192 255 0.12028 0.911021
55.70328 101.0857 35.19774 0.9537417 0.02907059 0.2992187 192 192 192 255 0.12028 0.80193
-36.69556 356.0942 55.70327 -0.6583741 -0.00453683 0.7526772 192 192 192 255 0.006196 0.897857
-36.69556 124.9476 55.70327 -0.6558547 0.004562545 0.7548735 192 192 192 255 0.006196 0.810907
-36.69556 105.1797 -55.70327 -0.7205579 0.01241651 -0.6932836 192 192 192 255 0.064546 0.912424
-36.69556 396.0601 -55.70327 -0.6423712 -0.006995698 -0.7663618 192 192 192 255 0.064546 0.803004
33.44555 242.3047 55.70327 0.6516004 -0.004170078 0.758551 192 192 192 255 0.032581 0.855053
55.70328 257.835 28.51521 0.9496986 -0.007216054 0.3130825 192 192 192 255 0.122794 0.860895
55.70328 224.4142 -31.21006 1 2.489394e-06 -0.0001760096 192 192 192 255 0.145261 0.848323
29.16224 275.8672 -55.70327 0.614342 0.006369581 -0.7890142 192 192 192 255 0.089319 0.848217
-29.16229 248.7564 -55.70327 -0.606145 -0.006387059 -0.7953286 192 192 192 255 0.06738 0.858415
-55.70328 226.8471 -31.67375 -1 1.746417e-06 -0.0002133214 192 192 192 255 0.036665 0.849238
-55.70328 257.835 30.57658 -1 -6.21276e-08 0.0001415236 192 192 192 255 0.060082 0.860895
-33.4456 240.6491 55.70327 -0.7350533 6.455808e-05 0.6780093 192 192 192 255 0.007419 0.85443
36.69551 0 55.70327 0.5212288 -0.7879353 0.3278392 192 192 192 255 0.225297 0.913021
55.70328 0 35.19774 0.6997312 -0.6411305 0.3151636 192 192 192 255 0.12028 0.763905
36.69551 0 -55.70327 0.2605885 -0.7878944 -0.5579572 192 192 192 255 0.18339 0.913021
55.70328 0 -35.0568 0.6485912 -0.5433276 -0.5330333 192 192 192 255 0.146708 0.763905
-36.69556 0 55.70327 -0.2606145 -0.7879354 0.557887 192 192 192 255 0.225297 0.940629
-36.69556 0 -55.70327 -0.2958368 -0.8944681 -0.3352723 192 192 192 255 0.18339 0.940629
-55.70328 0 35.19774 -0.9999998 -0.000282348 0.0005551805 192 192 192 255 0.217584 0.947779
-55.70328 0 -35.0568 -0.9999998 -0.000564564 -0.0002769336 192 192 192 255 0.191156 0.947779
-36.69556 500 55.70327 -0.2322838 0.9363749 0.2631469 192 192 192 255 0.147283 0.952868
-55.70328 500 35.19774 -0.9999996 0.0007937761 0.0003902002 192 192 192 255 0.140132 0.960581
-36.69556 500 -55.70327 -0.321954 0.6489559 -0.6893489 192 192 192 255 0.147283 0.994775
-55.70328 500 -35.0568 -0.9999996 0.0003971711 -0.0007792919 192 192 192 255 0.140132 0.987009
36.69551 500 55.70327 0.2606144 0.7879353 0.5578873 192 192 192 255 0.17489 0.952868
36.69551 500 -55.70327 0.29629 0.8948041 -0.3339728 192 192 192 255 0.118625 0.951989
55.70328 500 35.19774 0.4688057 0.7927022 0.3896724 192 192 192 255 0.12028 0.951989
55.70328 500 -36.70625 0.7608196 0.2779072 -0.586448 192 192 192 255 0.147328 0.951989
55.70328 393.77 -30.06997 0.8035536 -0.007466912 -0.5951855 192 192 192 255 0.144832 0.912029
38.86879 500 -39.11263 0.4762839 0.8411369 -0.2562077 192 192 192 255 0.112384 0.951989
38.86879 386.1268 -36.17016 0.645976 -0.02781995 -0.7628506 192 192 192 255 0.111277 0.909154
36.87336 243.363 -36.67567 0.6575681 0.002308446 -0.7533916 192 192 192 255 0.111467 0.855451
38.86879 113.6344 -38.38128 0.8001136 0.02152343 -0.5994623 192 192 192 255 0.112109 0.806651
38.86879 0 -38.38128 0.5369292 -0.6791071 -0.5005202 192 192 192 255 0.189906 0.912204
38.86879 0 38.3279 0.3481317 -0.7691388 0.5359383 192 192 192 255 0.218761 0.912204
38.86879 122.3997 38.3279 0.2788933 0.03295417 0.9597566 192 192 192 255 0.100235 0.809948
37.43934 250.0699 35.36492 0.3425664 0.02559411 0.939145 192 192 192 255 0.10135 0.857974
38.86879 376.0649 38.3279 0.7484674 -0.02313536 0.6627679 192 192 192 255 0.100235 0.905369
38.86879 500 38.3279 0.6187318 0.5265478 0.5830253 192 192 192 255 0.175707 0.959404
-38.86881 500 -38.38128 -0.4616964 0.8478566 -0.2607212 192 192 192 255 0.146465 0.988259
-38.86881 395.6522 -38.38128 -0.640592 -0.005809028 -0.7678595 192 192 192 255 0.109035 0.803158
-36.87337 244.5795 -36.88126 -0.696614 0.004541596 -0.7174318 192 192 192 255 0.109786 0.859986
-38.86881 103.957 -38.38128 -0.6235634 0.01730665 -0.7815812 192 192 192 255 0.109035 0.912884
-38.86881 0 -38.38128 -0.5369295 -0.6791072 -0.5005198 192 192 192 255 0.189906 0.941446
-38.86881 0 38.3279 -0.5556622 -0.7691389 0.3156976 192 192 192 255 0.218761 0.941446
-38.86881 124.9339 38.3279 -0.7473645 0.008510482 0.6643598 192 192 192 255 0.062997 0.810901
-37.43936 249.2421 36.27892 -0.5819839 -0.0003882264 0.8132003 192 192 192 255 0.190602 0.810666
-38.86881 374.6184 38.3279 -0.8210982 -0.01613278 0.570559 192 192 192 255 0.190064 0.857829
-38.86881 500 38.3279 -0.6187322 0.5265479 0.5830247 192 192 192 255 0.146465 0.959404
-55.70328 464.1672 -35.0568 -0.9470866 -0.04906902 -0.3172053 192 192 192 255 0.102702 0.777384
-55.70328 353.8631 -34.22546 -0.9965591 0.01935234 -0.08059458 192 192 192 255 0.035705 0.897017
-55.70328 168.3292 33.68851 -0.9915718 -0.03648618 0.1243144 192 192 192 255 0.061252 0.827225
-55.70328 50.4076 35.19774 -0.9716253 0.05219202 0.2306951 192 192 192 255 0.06182 0.782867
55.70328 174.1643 20.97918 0.9959639 0.003822979 0.08967397 192 192 192 255 0.125629 0.82942
45.32519 190.0748 34.13537 0.5431957 0.02971243 0.8390803 192 192 192 255 0.160546 0.835405
-55.70328 393.1426 35.19774 -0.5959942 -0.01076792 0.8029165 192 192 192 255 0.183732 0.864797
-55.70328 257.835 30.57658 -1 -6.21276e-08 0.0001415236 192 192 192 255 0.183732 0.813898
33.44555 242.3047 55.70327 0.6516004 -0.004170078 0.758551 192 192 192 255 0.093699 0.855053
36.69551 361.0393 55.70327 0.6585529 -0.004586943 0.7525204 192 192 192 255 0.093699 0.899717
-55.70328 226.8471 -31.67375 -1 1.746417e-06 -0.0002133214 192 192 192 255 0.102702 0.866657
-55.70328 353.8631 -34.22546 -0.9965591 0.01935234 -0.08059458 192 192 192 255 0.102702 0.818877
36.69551 378.4837 -55.70327 0.7189696 -0.01408259 -0.6948988 192 192 192 255 0.118625 0.906279
29.16224 275.8672 -55.70327 0.614342 0.006369581 -0.7890142 192 192 192 255 0.118625 0.867678
36.69551 116.9947 -55.70327 0.6474329 0.007328757 -0.7620872 192 192 192 255 0.092153 0.90798
36.69551 143.7136 55.70327 0.6542014 0.009892616 0.7562557 192 192 192 255 0.033804 0.817966
36.69551 500 -55.70327 0.29629 0.8948041 -0.3339728 192 192 192 255 0.17489 0.994775
38.86879 500 -39.11263 0.4762839 0.8411369 -0.2562077 192 192 192 255 0.175707 0.988534
36.69551 0 55.70327 0.5212288 -0.7879353 0.3278392 192 192 192 255 0.093699 0.763905
38.86879 0 38.3279 0.3481317 -0.7691388 0.5359383 192 192 192 255 0.100235 0.763905
38.86879 0 -38.38128 0.5369292 -0.6791072 -0.5005203 192 192 192 255 0.112109 0.763905
36.69551 0 -55.70327 0.2605885 -0.7878944 -0.5579572 192 192 192 255 0.118625 0.763905
-36.69556 0 55.70327 -0.2606145 -0.7879354 0.557887 192 192 192 255 0.006196 0.763905
36.69551 0 55.70327 0.5212288 -0.7879353 0.3278392 192 192 192 255 0.033804 0.763905
36.69551 0 -55.70327 0.2605885 -0.7878944 -0.5579572 192 192 192 255 0.092153 0.951989
-36.69556 0 -55.70327 -0.2958368 -0.8944681 -0.3352723 192 192 192 255 0.064546 0.951989
-38.86881 0 -38.38128 -0.5369295 -0.6791072 -0.5005198 192 192 192 255 0.109035 0.951989
-55.70328 0 -35.0568 -0.9999998 -0.000564564 -0.0002769336 192 192 192 255 0.102702 0.951989
-38.86881 500 38.3279 -0.6187322 0.5265479 0.5830247 192 192 192 255 0.190064 0.904993
-55.70328 500 35.19774 -0.9999996 0.0007937761 0.0003902002 192 192 192 255 0.183732 0.904993
-55.70328 500 -35.0568 -0.9999996 0.0003971711 -0.0007792919 192 192 192 255 0.102702 0.763905
-38.86881 500 -38.38128 -0.4616964 0.8478566 -0.2607212 192 192 192 255 0.109035 0.763905
-55.70328 500 35.19774 -0.9999996 0.0007937761 0.0003902002 192 192 192 255 0.06182 0.951989
-55.70328 464.1672 -35.0568 -0.9470866 -0.04906902 -0.3172053 192 192 192 255 0.035392 0.93851
-55.70328 500 -35.0568 -0.9999996 0.0003971711 -0.0007792919 192 192 192 255 0.035392 0.951989
36.69551 500 55.70327 0.2606144 0.7879353 0.5578873 192 192 192 255 0.033804 0.951989
-36.69556 500 55.70327 -0.2322838 0.9363749 0.2631469 192 192 192 255 0.006196 0.951989
-36.69556 500 -55.70327 -0.321954 0.6489559 -0.6893489 192 192 192 255 0.064546 0.763905
36.69551 500 -55.70327 0.29629 0.8948041 -0.3339728 192 192 192 255 0.092153 0.763905
38.86879 500 38.3279 0.6187318 0.5265478 0.5830253 192 192 192 255 0.100235 0.951989
36.69551 500 55.70327 0.2606144 0.7879353 0.5578873 192 192 192 255 0.093699 0.951989
55.70328 500 -36.70625 0.7608196 0.2779072 -0.586448 192 192 192 255 0.156088 0.763905
55.70328 393.77 -30.06997 0.8035536 -0.007466912 -0.5951855 192 192 192 255 0.156088 0.803866
38.86879 386.1268 -36.17016 0.645976 -0.02781995 -0.7628506 192 192 192 255 0.149755 0.806741
38.86879 500 -39.11263 0.4762839 0.8411369 -0.2562077 192 192 192 255 0.149755 0.763905
36.87336 243.363 -36.67567 0.6575681 0.002308446 -0.7533916 192 192 192 255 0.149005 0.860444
55.70328 224.4142 -31.21006 1 2.489394e-06 -0.0001760096 192 192 192 255 0.156088 0.867572
55.70328 110.2741 -35.0568 0.9999999 4.318777e-06 -0.0003492321 192 192 192 255 0.156088 0.910508
38.86879 113.6344 -38.38128 0.8001136 0.02152343 -0.5994623 192 192 192 255 0.149755 0.909244
38.86879 0 -38.38128 0.5369292 -0.6791072 -0.5005203 192 192 192 255 0.149755 0.951989
55.70328 0 -35.0568 0.6485912 -0.5433276 -0.5330333 192 192 192 255 0.156088 0.951989
55.70328 0 35.19774 0.6997312 -0.6411305 0.3151636 192 192 192 255 0.217584 0.905871
55.70328 0 -35.0568 0.6485912 -0.5433276 -0.5330333 192 192 192 255 0.191156 0.905871
55.70328 101.0857 35.19774 0.9537417 0.02907059 0.2992187 192 192 192 255 0.16445 0.80193
38.86879 122.3997 38.3279 0.2788933 0.03295417 0.9597566 192 192 192 255 0.158117 0.809948
38.86879 0 38.3279 0.3481317 -0.7691388 0.5359383 192 192 192 255 0.158117 0.763905
55.70328 0 35.19774 0.6997312 -0.6411305 0.3151636 192 192 192 255 0.16445 0.763905
37.43934 250.0699 35.36492 0.3425664 0.02559411 0.939145 192 192 192 255 0.157579 0.857974
55.70328 257.835 28.51521 0.9496986 -0.007216054 0.3130825 192 192 192 255 0.16445 0.860895
38.86879 376.0649 38.3279 0.7484674 -0.02313536 0.6627679 192 192 192 255 0.158117 0.905369
55.70328 391.0905 35.19774 0.7816793 -0.007930888 0.6236301 192 192 192 255 0.16445 0.911021
38.86879 500 38.3279 0.6187318 0.5265478 0.5830253 192 192 192 255 0.158117 0.951989
55.70328 500 35.19774 0.4688057 0.7927022 0.3896724 192 192 192 255 0.16445 0.951989
55.70328 500 35.19774 0.4688057 0.7927022 0.3896724 192 192 192 255 0.18204 0.960581
55.70328 500 -36.70625 0.7608196 0.2779072 -0.586448 192 192 192 255 0.18204 0.987629
-36.69556 396.0601 -55.70327 -0.6423712 -0.006995698 -0.7663618 192 192 192 255 0.166154 0.91289
-38.86881 395.6522 -38.38128 -0.640592 -0.005809028 -0.7678595 192 192 192 255 0.17267 0.912737
-38.86881 500 -38.38128 -0.4616964 0.8478566 -0.2607212 192 192 192 255 0.17267 0.951989
-36.69556 500 -55.70327 -0.321954 0.6489559 -0.6893489 192 192 192 255 0.166154 0.951989
-29.16229 248.7564 -55.70327 -0.606145 -0.006387059 -0.7953286 192 192 192 255 0.166154 0.857479
-36.87337 244.5795 -36.88126 -0.696614 0.004541596 -0.7174318 192 192 192 255 0.173234 0.855908
-36.69556 105.1797 -55.70327 -0.7205579 0.01241651 -0.6932836 192 192 192 255 0.166154 0.80347
-38.86881 103.957 -38.38128 -0.6235634 0.01730665 -0.7815812 192 192 192 255 0.17267 0.803011
-38.86881 0 -38.38128 -0.5369295 -0.6791072 -0.5005198 192 192 192 255 0.17267 0.763905
-36.69556 0 -55.70327 -0.2958368 -0.8944681 -0.3352723 192 192 192 255 0.166154 0.763905
-36.69556 124.9476 55.70327 -0.6558547 0.004562545 0.7548735 192 192 192 255 0.182035 0.810907
-38.86881 124.9339 38.3279 -0.7473645 0.008510482 0.6643598 192 192 192 255 0.175499 0.810901
-38.86881 0 38.3279 -0.5556622 -0.7691389 0.3156976 192 192 192 255 0.175499 0.763905
-36.69556 0 55.70327 -0.2606145 -0.7879354 0.557887 192 192 192 255 0.182035 0.763905
-33.4456 240.6491 55.70327 -0.7350533 6.455808e-05 0.6780093 192 192 192 255 0.182035 0.85443
-37.43936 249.2421 36.27892 -0.5819839 -0.0003882264 0.8132003 192 192 192 255 0.174728 0.857662
-38.86881 374.6184 38.3279 -0.8210982 -0.01613278 0.570559 192 192 192 255 0.175499 0.904825
-36.69556 356.0942 55.70327 -0.6583741 -0.00453683 0.7526772 192 192 192 255 0.182035 0.897857
-38.86881 500 38.3279 -0.6187322 0.5265479 0.5830247 192 192 192 255 0.175499 0.951989
-36.69556 500 55.70327 -0.2322838 0.9363749 0.2631469 192 192 192 255 0.182035 0.951989
-55.70328 394.9236 -24.33638 -0.6414356 -0.005781877 -0.7671552 192 192 192 255 0.102702 0.803432
-55.70328 102.7343 -35.0568 -0.7779207 0.004225786 -0.6283484 192 192 192 255 0.035392 0.802551
-55.70328 0 -35.0568 -0.9999998 -0.000564564 -0.0002769336 192 192 192 255 0.035392 0.763905
-55.70328 0 35.19774 -0.9999998 -0.000282348 0.0005551805 192 192 192 255 0.06182 0.763905
-38.86881 124.9339 38.3279 -0.7473645 0.008510482 0.6643598 192 192 192 255 0.198639 0.810901
-55.70328 50.4076 35.19774 -0.9716253 0.05219202 0.2306951 192 192 192 255 0.192306 0.782867
-55.70328 0 35.19774 -0.9999998 -0.000282348 0.0005551805 192 192 192 255 0.192306 0.763905
-38.86881 0 38.3279 -0.5556622 -0.7691389 0.3156976 192 192 192 255 0.198639 0.763905
-55.70328 168.3292 33.68851 -0.9915718 -0.03648618 0.1243144 192 192 192 255 0.183732 0.780229
-38.86881 124.9339 38.3279 -0.7473645 0.008510482 0.6643598 192 192 192 255 0.190064 0.763905
45.32519 190.0748 34.13537 0.5431957 0.02971243 0.8390803 192 192 192 255 0.12068 0.835405
3 22 15 1 
3 22 1 11 
3 20 21 61 
3 21 3 4 
3 21 4 61 
3 18 19 14 
3 18 14 6 
3 66 67 57 
3 66 57 58 
3 68 47 48 
3 68 48 69 
3 52 70 71 
3 52 71 51 
3 40 41 72 
3 40 72 36 
3 0 46 47 
3 0 47 68 
3 64 8 17 
3 43 7 73 
3 43 73 42 
3 74 13 19 
3 74 19 18 
3 56 62 2 
3 12 75 15 
3 12 15 22 
3 45 23 25 
3 45 25 44 
3 23 27 28 
3 23 28 25 
3 55 29 30 
3 55 30 54 
3 32 59 50 
3 32 50 34 
3 31 35 76 
3 31 76 33 
3 35 49 77 
3 35 77 76 
3 46 0 78 
3 46 78 79 
3 7 43 80 
3 7 80 81 
3 8 10 24 
3 8 24 26 
3 75 12 82 
3 75 82 83 
3 13 74 84 
3 13 84 85 
3 56 2 63 
3 5 53 86 
3 5 86 87 
3 66 58 88 
3 66 88 89 
3 51 60 90 
3 51 90 91 
3 4 3 92 
3 4 92 93 
3 93 92 94 
3 11 1 95 
3 11 95 96 
3 6 14 97 
3 6 97 98 
3 69 48 99 
3 69 99 100 
3 53 5 70 
3 53 70 52 
3 9 39 38 
3 9 38 37 
3 16 17 39 
3 16 39 9 
3 72 41 42 
3 72 42 73 
3 101 102 103 
3 101 103 104 
3 105 103 102 
3 105 102 106 
3 107 108 105 
3 107 105 106 
3 109 108 107 
3 109 107 110 
3 111 45 44 
3 111 44 112 
3 113 114 115 
3 113 115 116 
3 117 65 118 
3 119 117 118 
3 119 118 120 
3 121 119 120 
3 121 120 122 
3 77 49 123 
3 77 123 124 
3 125 126 127 
3 125 127 128 
3 129 130 126 
3 129 126 125 
3 131 132 130 
3 131 130 129 
3 133 132 131 
3 133 131 134 
3 27 55 54 
3 27 54 28 
3 135 136 137 
3 135 137 138 
3 139 140 136 
3 139 136 135 
3 141 140 139 
3 141 139 142 
3 143 141 142 
3 143 142 144 
3 50 59 31 
3 50 31 33 
3 51 71 145 
3 51 145 60 
3 21 20 62 
3 20 146 2 
3 20 2 62 
3 63 2 146 
3 63 146 147 
3 63 147 148 
3 149 150 151 
3 149 151 152 
3 57 67 153 
3 57 153 154 
3 16 155 64 
3 64 155 10 
3 65 114 113 
3 117 114 65 
3 64 17 16 
3 10 8 64 
