ply
format ascii 1.0
comment VCGLIB generated
comment TextureFile Dungeons_2_Texture_Emission_01.png
element vertex 24
property float x
property float y
property float z
property float nx
property float ny
property float nz
property uchar red
property uchar green
property uchar blue
property uchar alpha
property float texture_u
property float texture_v
element face 20
property list uchar int vertex_indices
end_header
314.5259 229.6477 1.5e-05 0 0 -1 192 192 192 255 0.059769 0.019849
-314.5259 227.0723 1.5e-05 0 0 -1 192 192 192 255 0.506506 0.47048
314.5259 162.7688 1.5e-05 0 0 -1 192 192 192 255 -0.018141 0.019849
-314.5259 161.8554 1.5e-05 0 0 -1 192 192 192 255 0.506506 0.554343
185.2545 106.3638 1.5e-05 0 0 -1 192 192 192 255 0.069582 0.161377
185.2545 72.23978 1.5e-05 0 0 -1 192 192 192 255 0.007683 0.178611
-12.29573 47.65744 1.5e-05 0 0 -1 192 192 192 255 0.164726 0.3512
-12.29573 16.21562 1.5e-05 0 0 -1 192 192 192 255 0.127294 0.394771
-197.5084 105.1569 1.5e-05 0 0 -1 192 192 192 255 0.315492 0.445417
-197.5084 70.99146 1.5e-05 0 0 -1 192 192 192 255 0.300999 0.513679
84.58309 57.53844 1.5e-05 0 0 -1 192 192 192 255 0.099512 0.258111
84.58309 23.94699 1.5e-05 0 0 -1 192 192 192 255 0.050081 0.288766
314.5259 229.6477 1.5e-05 0 0 1 192 192 192 255 0.059769 0.019849
-314.5259 227.0723 1.5e-05 0 0 1 192 192 192 255 0.506506 0.47048
314.5259 162.7688 1.5e-05 0 0 1 192 192 192 255 -0.018141 0.019849
-314.5259 161.8554 1.5e-05 0 0 1 192 192 192 255 0.506506 0.554343
185.2545 106.3638 1.5e-05 0 0 1 192 192 192 255 0.069582 0.161377
185.2545 72.23978 1.5e-05 0 0 1 192 192 192 255 0.007683 0.178611
-12.29573 47.65744 1.5e-05 0 0 1 192 192 192 255 0.164726 0.3512
-12.29573 16.21562 1.5e-05 0 0 1 192 192 192 255 0.127294 0.394771
-197.5084 105.1569 1.5e-05 0 0 1 192 192 192 255 0.315492 0.445417
-197.5084 70.99146 1.5e-05 0 0 1 192 192 192 255 0.300999 0.513679
84.58309 57.53844 1.5e-05 0 0 1 192 192 192 255 0.099512 0.258111
84.58309 23.94699 1.5e-05 0 0 1 192 192 192 255 0.050081 0.288766
3 0 2 5 
3 0 5 4 
3 5 11 10 
3 5 10 4 
3 7 9 8 
3 7 8 6 
3 9 3 1 
3 9 1 8 
3 11 7 6 
3 11 6 10 
3 12 16 17 
3 12 17 14 
3 17 16 22 
3 17 22 23 
3 19 18 20 
3 19 20 21 
3 21 20 13 
3 21 13 15 
3 23 22 18 
3 23 18 19 
