ply
format ascii 1.0
comment VCGLIB generated
comment TextureFile Dungeons_2_Texture_01_A.png
element vertex 182
property float x
property float y
property float z
property float nx
property float ny
property float nz
property uchar red
property uchar green
property uchar blue
property uchar alpha
property float texture_u
property float texture_v
element face 187
property list uchar int vertex_indices
end_header
453.0085 204.0377 16.65117 -0.5783864 0.6370682 0.5095227 192 192 192 255 0.215235 0.599704
406.9663 164.0299 16.65117 -0.6877618 -0.001809588 0.7259342 192 192 192 255 0.193556 0.580867
453.0085 196.3225 26.30509 -0.5768148 0.633292 0.5159709 192 192 192 255 0.215235 0.596071
426.4735 172.0802 26.30509 -0.5097218 0.3410272 0.7898633 192 192 192 255 0.202741 0.584657
453.0088 124.022 16.65117 -0.5793181 -0.6365413 0.5091226 192 192 192 255 0.215235 0.56203
453.0088 131.7372 26.30509 -0.5764274 -0.6354936 0.5136919 192 192 192 255 0.215235 0.565663
500 196.3225 26.30509 0.3430535 0.5359747 0.7713919 192 192 192 255 0.23736 0.596071
500 204.0377 16.65117 0.8944272 0.3493554 0.2791967 192 192 192 255 0.23736 0.599704
500 131.7372 26.30509 0.5898395 -0.2303864 0.7739584 192 192 192 255 0.23736 0.565663
500 124.022 16.65117 0.4472136 -0.6987116 0.5583925 192 192 192 255 0.23736 0.56203
456.3782 74.99486 16.65117 0.5298056 -0.4902128 0.6920965 192 192 192 255 0.216821 0.538946
443.5015 74.99486 26.50843 0.02322922 0.02314472 0.9994622 192 192 192 255 0.210758 0.538946
353.1995 178.1839 16.65117 0.2773836 0.7032616 0.6545849 192 192 192 255 0.168241 0.587531
357.1609 161.3439 26.50843 0.02545573 0.03273425 0.9991399 192 192 192 255 0.170106 0.829602
56.49854 74.99486 26.50843 -0.4032621 0.01504839 0.9149608 192 192 192 255 0.028544 0.538946
43.62183 74.99486 16.65117 -0.5201461 0.5174583 0.6794742 192 192 192 255 0.022481 0.538946
153.2395 171.7456 26.50843 -0.139782 0.3411164 0.9295701 192 192 192 255 0.074093 0.5845
146.8005 178.1839 16.65117 -0.5182614 0.5201258 0.6788772 192 192 192 255 0.071061 0.587531
46.99133 124.022 16.65117 0.572052 -0.6403006 0.5126126 192 192 192 255 0.024068 0.56203
93.03369 164.0299 16.65117 0.6953192 -0.006206407 0.7186744 192 192 192 255 0.045746 0.580867
46.99133 131.7372 26.30509 0.5659496 -0.6263952 0.5360319 192 192 192 255 0.024068 0.565663
60.04617 153.4896 26.30509 0.0847167 -0.0504238 0.9951284 192 192 192 255 0.030214 0.575904
46.99133 204.0377 16.65117 0.5795721 0.636408 0.5090001 192 192 192 255 0.024068 0.599704
46.99133 196.3225 26.30509 0.21563 0.2374362 0.9471683 192 192 192 255 0.024068 0.596071
0 131.7372 26.30509 -0.3430534 -0.5359743 0.7713922 192 192 192 255 0.001942 0.565663
0 124.022 16.65117 -0.8944272 -0.3493553 0.2791969 192 192 192 255 0.001942 0.56203
0 196.3225 26.30509 -0.5898395 0.2303863 0.7739584 192 192 192 255 0.001942 0.596071
0 204.0377 16.65117 -0.4472136 0.6987113 0.5583928 192 192 192 255 0.001942 0.599704
0 0 31.19531 -0.0005601201 -0.0005601201 0.9999997 192 192 192 255 0.001942 0.753636
500 0 31.19531 0.3015114 -0.3015114 0.904534 192 192 192 255 0.23736 0.753636
0 500 31.19531 -0.0002515047 0.0002514534 0.9999999 192 192 192 255 0.001942 0.989053
500 500 31.19531 0.0002698401 0.0001349201 0.9999999 192 192 192 255 0.23736 0.989053
0 500 -14.2392 -0.8017837 0.2672613 -0.5345225 192 192 192 255 0.001942 0.989053
500 500 -14.2392 0.8728716 0.4364358 -0.2182179 192 192 192 255 0.23736 0.989053
0 0 -14.2392 -0.904534 -0.3015113 -0.3015113 192 192 192 255 0.001942 0.753636
500 0 -14.2392 0.7276069 -0.4850713 -0.4850713 192 192 192 255 0.23736 0.753636
0 250 31.19531 -0.0002667328 -0.0001171075 1 192 192 192 255 0.001942 0.871345
500 250 31.19531 0.0001420511 -6.256456e-05 1 192 192 192 255 0.23736 0.621345
500 286 31.19531 0.0005024178 0.0001568246 0.9999999 192 192 192 255 0.23736 0.888295
389.4453 286 31.19531 5.247538e-05 0.0001435033 1 192 192 192 255 0.185307 0.888295
500 464 31.19531 0.0008120762 -0.0004843215 0.9999996 192 192 192 255 0.23736 0.722103
286 385.066 31.19531 0.2996841 0.1248842 0.9458295 192 192 192 255 0.136601 0.934938
286 464 31.19531 0.05471573 -0.005898002 0.9984846 192 192 192 255 0.136601 0.972103
214 385.066 31.19531 -0.4584645 0.4045854 0.7912781 192 192 192 255 0.102701 0.684938
110.5547 286 31.19531 -0.02648912 0.03049412 0.9991839 192 192 192 255 0.053995 0.638295
214 464 31.19531 -0.000221969 -0.0001265772 1 192 192 192 255 0.102701 0.972103
0 286 31.19531 -0.0002511596 0.0003135877 0.9999999 192 192 192 255 0.001942 0.638295
0 464 31.19531 -0.0003817055 -0.0004955573 0.9999998 192 192 192 255 0.001942 0.972103
195.8 392.8362 16.65117 -0.4589699 0.4045659 0.790995 192 192 192 255 0.094132 0.688597
103.2456 304.2 16.65117 -0.5359632 0.3793774 0.754199 192 192 192 255 0.050554 0.896864
195.8 445.8 16.65117 -0.1299246 -0.2875697 0.9489064 192 192 192 255 0.094132 0.713534
0 304.2 16.65117 -0.8464181 0.1761339 0.5025468 192 192 192 255 0.001942 0.896864
0 445.8 16.65117 -0.8157688 -0.132377 0.5630254 192 192 192 255 0.001942 0.963534
500 304.2 16.65117 0.5743712 0.3585683 0.7358849 192 192 192 255 0.23736 0.896864
396.7544 304.2 16.65117 3.76093e-05 0.0001028703 1 192 192 192 255 0.188748 0.896864
500 445.8 16.65117 0.7252198 -0.2162602 0.6536726 192 192 192 255 0.23736 0.963534
304.2 392.8362 16.65117 0.349069 0.1454639 0.9257382 192 192 192 255 0.14517 0.688597
304.2 445.8 16.65117 0.582967 -0.06164542 0.8101539 192 192 192 255 0.14517 0.713534
0 221.4391 16.65117 -0.0006235467 -5.509504e-05 0.9999998 192 192 192 255 0.001942 0.857897
500 221.4391 16.65117 0.000566094 -9.967692e-05 0.9999998 192 192 192 255 0.23736 0.607897
0 105.1522 16.65117 -9.560391e-05 2.835338e-05 1 192 192 192 255 0.001942 0.553145
500 105.1522 16.65117 0.0003395109 0.0002013784 0.9999999 192 192 192 255 0.23736 0.553145
0 75.87138 31.19531 -0.2487223 0.2212917 0.9429567 192 192 192 255 0.001942 0.789359
500 75.87138 31.19531 0.56383 0.1254119 0.8163135 192 192 192 255 0.23736 0.789359
216.6353 397.8709 31.19531 -0.5832929 0.1196215 0.8034053 192 192 192 255 0.102701 0.69337
283.3647 438.7917 31.19531 0.5828329 -0.06080763 0.8103138 192 192 192 255 0.136601 0.707832
90.60686 446.9548 16.65117 4.141869e-09 -0.4139526 0.9102985 192 192 192 255 0.044048 0.963534
72.72552 462.8452 31.1953 3.778212e-13 -0.000244886 1 192 192 192 255 0.036739 0.972103
465.8164 465.3748 31.19531 1.592917e-13 -0.0002413854 1 192 192 192 255 0.221575 0.722103
425.5827 444.4252 16.65117 2.002519e-14 -0.0001783928 1 192 192 192 255 0.202012 0.963534
411.649 251.1059 31.1953 4.012874e-07 -0.0004286875 0.9999999 192 192 192 255 0.195761 0.621345
424.0615 220.3332 16.65117 -0.000847757 -0.1145082 0.993422 192 192 192 255 0.201605 0.607897
310.8984 259.7577 31.1953 0.0004148032 -0.06901413 0.9976156 192 192 192 255 0.140182 0.621465
96.85715 249.2024 31.19531 -4.583787e-07 -0.0002791125 1 192 192 192 255 0.046859 0.871345
69.05584 219.3034 16.65117 0.0005378806 -0.05190645 0.9986519 192 192 192 255 0.034827 0.606689
274.8694 221.4391 16.65117 0.0003061394 -0.1055329 0.9944158 192 192 192 255 0.13136 0.607897
279.0049 238.7509 25.46689 0.001398102 -0.4046866 0.9144543 192 192 192 255 0.133308 0.616048
329.4771 250.4066 31.1953 -0.07623387 -0.1526988 0.9853281 192 192 192 255 0.157072 0.621345
211.234 249.696 31.1953 0.03088702 -0.3061668 0.9514768 192 192 192 255 0.101137 0.621345
351.0272 176.0119 19.97659 0.3936011 0.5065542 0.7671252 192 192 192 255 0.167218 0.586509
319.087 171.7456 26.50843 0.01355022 0.6499361 0.759868 192 192 192 255 0.15218 0.5845
144.9426 163.4478 26.50843 -0.2403139 0.1261638 0.9624614 192 192 192 255 0.070186 0.580593
91.3693 109.8691 26.50843 -0.1429219 0.3701565 0.9179094 192 192 192 255 0.044962 0.555366
123.3509 122.1648 26.50843 -0.01290796 0.01290666 0.9998334 192 192 192 255 0.06002 0.811156
102.8045 129.1925 20.47142 -0.3212651 0.3212328 0.8908414 192 192 192 255 0.050346 0.564464
280.6323 179.135 16.65117 -0.03558885 0.7279531 0.6847027 192 192 192 255 0.134074 0.587531
227.9566 167.2805 26.50843 -0.03554705 0.7270573 0.685656 192 192 192 255 0.109272 0.5845
147.115 298.332 31.19531 -0.01836972 0.01918173 0.9996473 192 192 192 255 0.070198 0.645157
158.0549 331.4893 31.19531 -0.3332862 0.3127273 0.8894504 192 192 192 255 0.07636 0.909713
118.3395 305.1874 27.09828 -0.1970498 0.1703345 0.9654831 192 192 192 255 0.057661 0.647329
411.2861 164.0299 20.55026 -0.3260575 -0.0658936 0.9430507 192 192 192 255 0.19559 0.580867
430.556 152.2499 26.30509 -0.4849679 -0.3735813 0.7907232 192 192 192 255 0.204663 0.575321
86.6292 164.0299 22.43193 0.1886164 -0.1104259 0.9758227 192 192 192 255 0.04273 0.580867
74.03316 171.6173 26.30509 0.2164398 0.1452268 0.9654341 192 192 192 255 0.0368 0.584439
54.23566 138.3556 26.30509 0.287976 -0.2177872 0.9325442 192 192 192 255 0.027478 0.568779
337.5099 363.7788 16.65117 0.0001545735 0.0001607242 1 192 192 192 255 0.160727 0.674784
338.6479 328.3038 31.1953 0.2026681 0.2107325 0.9563041 192 192 192 255 0.161673 0.658508
326.632 75.87138 31.19531 0.016997 0.1654499 0.9860717 192 192 192 255 0.155732 0.539359
460.4685 75.87138 31.19531 -0.05683458 0.2487933 0.9668877 192 192 192 255 0.218747 0.789359
419.1169 66.35435 31.19531 0 0.1843755 0.9828559 192 192 192 255 0.199277 0.784878
436.9778 81.66497 28.31756 -1.148913e-12 0.1852346 0.9826943 192 192 192 255 0.207687 0.542087
120.0883 75.87138 31.19531 0.02871842 0.1383122 0.9899723 192 192 192 255 0.058484 0.539359
249.7129 75.87138 31.19531 -0.0454944 0.1494146 0.9877275 192 192 192 255 0.119516 0.789359
217.0953 65.85663 31.19531 -0.005935364 0.05366128 0.9985415 192 192 192 255 0.104158 0.784644
165.0513 66.50714 31.19531 0.005949618 0.05763035 0.9983203 192 192 192 255 0.079654 0.535823
200.6506 82.42644 27.93933 1.153919e-08 0.1604269 0.9870477 192 192 192 255 0.096416 0.542445
453.0085 196.3225 26.30509 -0.5768148 0.633292 0.5159709 192 192 192 255 0.215235 0.846071
453.0088 131.7372 26.30509 -0.5764274 -0.6354936 0.5136919 192 192 192 255 0.215235 0.815663
500 131.7372 26.30509 0.5898395 -0.2303864 0.7739584 192 192 192 255 0.23736 0.815663
500 196.3225 26.30509 0.3430535 0.5359747 0.7713919 192 192 192 255 0.23736 0.846071
426.4735 172.0802 26.30509 -0.5097218 0.3410272 0.7898633 192 192 192 255 0.202741 0.834657
430.556 152.2499 26.30509 -0.4849679 -0.3735813 0.7907232 192 192 192 255 0.204663 0.825321
500 204.0377 16.65117 0.8944272 0.3493554 0.2791967 192 192 192 255 0.23736 0.849704
500 124.022 16.65117 0.4472136 -0.6987116 0.5583925 192 192 192 255 0.23736 0.81203
319.087 171.7456 26.50843 0.01355022 0.6499361 0.759868 192 192 192 255 0.15218 0.8345
227.9566 167.2805 26.50843 -0.03554705 0.7270573 0.685656 192 192 192 255 0.109272 0.8345
357.1609 161.3439 26.50843 0.02545573 0.03273425 0.9991399 192 192 192 255 0.170106 0.579602
46.99133 131.7372 26.30509 0.5659496 -0.6263952 0.5360319 192 192 192 255 0.024068 0.815663
46.99133 196.3225 26.30509 0.21563 0.2374362 0.9471683 192 192 192 255 0.024068 0.846071
0 196.3225 26.30509 -0.5898395 0.2303863 0.7739584 192 192 192 255 0.001942 0.846071
0 131.7372 26.30509 -0.3430534 -0.5359743 0.7713922 192 192 192 255 0.001942 0.815663
0 124.022 16.65117 -0.8944272 -0.3493553 0.2791969 192 192 192 255 0.001942 0.81203
0 204.0377 16.65117 -0.4472136 0.6987113 0.5583928 192 192 192 255 0.001942 0.849704
500 250 31.19531 0.0001420511 -6.256456e-05 1 192 192 192 255 0.23736 0.871345
411.649 251.1059 31.1953 4.012874e-07 -0.0004286875 0.9999999 192 192 192 255 0.195761 0.871345
214 464 31.19531 -0.000221969 -0.0001265772 1 192 192 192 255 0.102701 0.722103
90.60686 446.9548 16.65117 4.141869e-09 -0.4139526 0.9102985 192 192 192 255 0.044048 0.713534
72.72552 462.8452 31.1953 3.778212e-13 -0.000244886 1 192 192 192 255 0.036739 0.722103
0 464 31.19531 -0.0003817055 -0.0004955573 0.9999998 192 192 192 255 0.001942 0.722103
0 445.8 16.65117 -0.8157688 -0.132377 0.5630254 192 192 192 255 0.001942 0.713534
103.2456 304.2 16.65117 -0.5359632 0.3793774 0.754199 192 192 192 255 0.050554 0.646864
0 304.2 16.65117 -0.8464181 0.1761339 0.5025468 192 192 192 255 0.001942 0.646864
389.4453 286 31.19531 5.247538e-05 0.0001435033 1 192 192 192 255 0.185307 0.638295
500 286 31.19531 0.0005024178 0.0001568246 0.9999999 192 192 192 255 0.23736 0.638295
500 304.2 16.65117 0.5743712 0.3585683 0.7358849 192 192 192 255 0.23736 0.646864
396.7544 304.2 16.65117 3.76093e-05 0.0001028703 1 192 192 192 255 0.188748 0.646864
500 445.8 16.65117 0.7252198 -0.2162602 0.6536726 192 192 192 255 0.23736 0.713534
425.5827 444.4252 16.65117 2.002519e-14 -0.0001783928 1 192 192 192 255 0.202012 0.713534
286 464 31.19531 0.05471573 -0.005898002 0.9984846 192 192 192 255 0.136601 0.722103
216.6353 397.8709 31.19531 -0.5832929 0.1196215 0.8034053 192 192 192 255 0.102701 0.94337
283.3647 438.7917 31.19531 0.5828329 -0.06080763 0.8103138 192 192 192 255 0.136601 0.957832
110.5547 286 31.19531 -0.02648912 0.03049412 0.9991839 192 192 192 255 0.053995 0.888295
0 286 31.19531 -0.0002511596 0.0003135877 0.9999999 192 192 192 255 0.001942 0.888295
500 464 31.19531 0.0008120762 -0.0004843215 0.9999996 192 192 192 255 0.23736 0.972103
465.8164 465.3748 31.19531 1.592917e-13 -0.0002413854 1 192 192 192 255 0.221575 0.972103
500 221.4391 16.65117 0.000566094 -9.967692e-05 0.9999998 192 192 192 255 0.23736 0.857897
0 105.1522 16.65117 -9.560391e-05 2.835338e-05 1 192 192 192 255 0.001942 0.803145
500 105.1522 16.65117 0.0003395109 0.0002013784 0.9999999 192 192 192 255 0.23736 0.803145
214 385.066 31.19531 -0.4584645 0.4045854 0.7912781 192 192 192 255 0.102701 0.934938
286 385.066 31.19531 0.2996841 0.1248842 0.9458295 192 192 192 255 0.136601 0.684938
195.8 392.8362 16.65117 -0.4589699 0.4045659 0.790995 192 192 192 255 0.094132 0.938597
195.8 445.8 16.65117 -0.1299246 -0.2875697 0.9489064 192 192 192 255 0.094132 0.963534
337.5099 363.7788 16.65117 0.0001545735 0.0001607242 1 192 192 192 255 0.160864 0.924896
0 250 31.19531 -0.0002667328 -0.0001171075 1 192 192 192 255 0.001942 0.621345
0 221.4391 16.65117 -0.0006235467 -5.509504e-05 0.9999998 192 192 192 255 0.001942 0.607897
96.85715 249.2024 31.19531 -4.583787e-07 -0.0002791125 1 192 192 192 255 0.046859 0.621345
310.8984 259.7577 31.1953 0.0004148032 -0.06901413 0.9976156 192 192 192 255 0.1483 0.875912
329.4771 250.4066 31.1953 -0.07623387 -0.1526988 0.9853281 192 192 192 255 0.157072 0.871345
147.115 298.332 31.19531 -0.01836972 0.01918173 0.9996473 192 192 192 255 0.071014 0.894207
123.3509 122.1648 26.50843 -0.01290796 0.01290666 0.9998334 192 192 192 255 0.057519 0.563656
153.2395 171.7456 26.50843 -0.139782 0.3411164 0.9295701 192 192 192 255 0.074093 0.8345
144.9426 163.4478 26.50843 -0.2403139 0.1261638 0.9624614 192 192 192 255 0.070186 0.830593
443.5015 74.99486 26.50843 0.02322922 0.02314472 0.9994622 192 192 192 255 0.210758 0.788946
91.3693 109.8691 26.50843 -0.1429219 0.3701565 0.9179094 192 192 192 255 0.044962 0.805366
56.49854 74.99486 26.50843 -0.4032621 0.01504839 0.9149608 192 192 192 255 0.028544 0.788946
211.234 249.696 31.1953 0.03088702 -0.3061668 0.9514768 192 192 192 255 0.101137 0.871345
338.6479 328.3038 31.1953 0.2026681 0.2107325 0.9563041 192 192 192 255 0.16139 0.908213
158.0549 331.4893 31.19531 -0.3332862 0.3127273 0.8894504 192 192 192 255 0.07636 0.659713
54.23566 138.3556 26.30509 0.287976 -0.2177872 0.9325442 192 192 192 255 0.027478 0.818779
60.04617 153.4896 26.30509 0.0847167 -0.0504238 0.9951284 192 192 192 255 0.030214 0.825904
304.2 445.8 16.65117 0.582967 -0.06164542 0.8101539 192 192 192 255 0.14517 0.963534
304.2 392.8362 16.65117 0.349069 0.1454639 0.9257382 192 192 192 255 0.14517 0.938597
460.4685 75.87138 31.19531 -0.05683458 0.2487933 0.9668877 192 192 192 255 0.218747 0.539359
419.1169 66.35435 31.19531 0 0.1843755 0.9828559 192 192 192 255 0.199277 0.535765
326.632 75.87138 31.19531 0.016997 0.1654499 0.9860717 192 192 192 255 0.155732 0.789359
500 75.87138 31.19531 0.56383 0.1254119 0.8163135 192 192 192 255 0.23736 0.539359
217.0953 65.85663 31.19531 -0.005935364 0.05366128 0.9985415 192 192 192 255 0.104158 0.535577
0 75.87138 31.19531 -0.2487223 0.2212917 0.9429567 192 192 192 255 0.001942 0.539359
249.7129 75.87138 31.19531 -0.0454944 0.1494146 0.9877275 192 192 192 255 0.119516 0.539359
165.0513 66.50714 31.19531 0.005949618 0.05763035 0.9983203 192 192 192 255 0.079654 0.78495
120.0883 75.87138 31.19531 0.02871842 0.1383122 0.9899723 192 192 192 255 0.058484 0.789359
74.03316 171.6173 26.30509 0.2164398 0.1452268 0.9654341 192 192 192 255 0.0368 0.834439
3 5 4 9 
3 5 9 8 
3 6 7 0 
3 6 0 2 
3 106 107 108 
3 106 108 109 
3 0 1 90 
3 0 90 3 
3 0 3 2 
3 90 1 4 
3 90 4 91 
3 4 5 91 
3 106 110 111 
3 106 111 107 
3 112 109 108 
3 112 108 113 
3 80 85 86 
3 15 10 11 
3 15 11 14 
3 83 13 114 
3 83 114 115 
3 11 10 12 
3 11 12 79 
3 79 116 11 
3 17 84 81 
3 17 81 16 
3 23 22 27 
3 23 27 26 
3 24 25 18 
3 24 18 20 
3 117 118 119 
3 117 119 120 
3 94 92 21 
3 92 93 21 
3 121 120 119 
3 121 119 122 
3 70 71 59 
3 70 59 37 
3 28 34 35 
3 28 35 29 
3 32 33 35 
3 32 35 34 
3 49 66 52 
3 49 52 51 
3 55 69 54 
3 55 54 53 
3 39 123 38 
3 45 42 31 
3 45 31 30 
3 67 30 47 
3 39 124 123 
3 44 87 89 
3 48 64 125 
3 48 125 50 
3 126 127 128 
3 126 128 129 
3 46 44 130 
3 46 130 131 
3 132 133 134 
3 132 134 135 
3 136 40 68 
3 136 68 137 
3 95 96 132 
3 95 132 135 
3 138 65 57 
3 59 71 61 
3 61 60 105 
3 61 105 100 
3 99 29 63 
3 99 63 98 
3 42 45 139 
3 42 139 140 
3 36 141 142 
3 143 31 144 
3 52 47 30 
3 52 30 32 
3 145 53 38 
3 145 38 123 
3 51 58 36 
3 51 36 142 
3 146 34 28 
3 146 28 62 
3 58 32 34 
3 58 34 146 
3 35 147 63 
3 35 63 29 
3 55 33 31 
3 55 31 143 
3 55 53 145 
3 55 145 33 
3 33 145 147 
3 33 147 35 
3 52 32 58 
3 52 58 51 
3 30 31 33 
3 30 33 32 
3 43 64 48 
3 140 139 148 
3 140 148 41 
3 57 65 149 
3 57 149 56 
3 49 150 151 
3 49 151 66 
3 50 125 127 
3 50 127 126 
3 45 30 67 
3 144 31 42 
3 137 68 138 
3 137 138 57 
3 54 69 152 
3 72 76 77 
3 61 71 75 
3 61 75 60 
3 141 36 73 
3 153 154 74 
3 153 74 155 
3 60 74 154 
3 60 75 74 
3 78 76 72 
3 71 76 75 
3 39 156 157 
3 39 157 124 
3 141 73 158 
3 76 74 75 
3 116 79 80 
3 81 84 159 
3 159 84 82 
3 14 82 84 
3 14 84 15 
3 15 84 17 
3 80 79 12 
3 80 12 85 
3 86 85 17 
3 86 17 16 
3 83 115 160 
3 83 160 161 
3 162 13 83 
3 162 83 163 
3 162 163 164 
3 158 73 165 
3 158 165 156 
3 88 158 39 
3 88 39 166 
3 167 89 87 
3 130 89 167 
3 130 167 48 
3 44 89 130 
3 90 91 3 
3 92 19 22 
3 92 22 93 
3 22 23 93 
3 117 168 169 
3 117 169 118 
3 18 19 92 
3 18 92 94 
3 20 18 94 
3 152 69 170 
3 152 170 171 
3 149 96 95 
3 149 95 56 
3 88 166 41 
3 88 41 148 
3 48 167 43 
3 172 100 173 
3 173 100 97 
3 103 99 174 
3 103 174 102 
3 61 100 172 
3 61 172 175 
3 176 105 104 
3 105 60 177 
3 105 177 101 
3 100 105 178 
3 100 178 97 
3 178 105 176 
3 104 105 101 
3 62 28 179 
3 62 179 180 
3 103 28 29 
3 103 29 99 
3 179 28 103 
3 77 76 71 
3 77 71 70 
3 155 74 76 
3 155 76 78 
3 158 156 39 
3 118 169 181 
