ply
format ascii 1.0
comment VCGLIB generated
comment TextureFile Dungeons_2_Texture_01_A.png
element vertex 371
property float x
property float y
property float z
property float nx
property float ny
property float nz
property uchar red
property uchar green
property uchar blue
property uchar alpha
property float texture_u
property float texture_v
element face 500
property list uchar int vertex_indices
end_header
500.0137 -1.28362 497.7871 0.9182429 0.3539538 0.177614 192 192 192 255 0.232672 0.542464
56.53516 3.260795 143.4648 0.09186136 0.9895596 0.1110555 192 192 192 255 0.031146 0.923676
0.004883 -11.23483 215.791 -0.9914918 0.1289507 0.01777066 192 192 192 255 0.040569 0.650986
172.7129 3.242464 7.532227 -0.1859282 0.9685512 -0.1653461 192 192 192 255 0.330574 0.985602
327.2529 3.250866 159.0859 0.1971438 0.971231 0.1335835 192 192 192 255 0.166298 0.672808
-0.027344 -1.116346 462.5928 -0.8774104 0.4755203 0.06349517 192 192 192 255 0.040557 0.556008
327.1904 3.021231 171.9092 0.1645869 0.9573227 -0.2375804 192 192 192 255 0.166274 0.667874
327.625 3.248617 325.084 0.2161746 0.9673131 0.1325672 192 192 192 255 0.154645 0.840937
436.0547 3.245615 254.8203 -0.004104439 0.9999914 -0.0006302767 192 192 192 255 0.450544 0.872947
494.4521 3.151879 160.9229 0.2036628 0.9617302 0.1832933 192 192 192 255 0.230536 0.672101
429.1377 3.250685 173.3828 0.0006135163 0.9747334 -0.2233705 192 192 192 255 0.447393 0.910046
220.4844 3.128478 327.834 -0.001853828 0.9700241 0.2430018 192 192 192 255 0.125277 0.607868
159.2988 3.249728 325.4043 0.1615325 0.9789649 0.1246396 192 192 192 255 0.324464 0.840791
95.99902 3.248065 339.3271 0.0001611687 0.9589291 -0.283646 192 192 192 255 0.049125 0.834448
161.8877 2.789205 338.1729 0.2053906 0.9577993 -0.2010852 192 192 192 255 0.102765 0.603889
390.6396 3.248754 325.9404 -0.001661812 0.9739044 0.2269526 192 192 192 255 0.429854 0.840547
121.4648 3.248047 7.195313 -0.0003147017 0.976629 -0.214932 192 192 192 255 0.060726 0.985755
334.5732 0.164211 499.3955 -0.004417626 0.6500481 0.7598802 192 192 192 255 0.16911 0.541845
160.9014 3.226819 5.918945 0.1782346 0.9628401 -0.2029074 192 192 192 255 0.102386 0.731753
337.168 0.94973 1.547852 -0.02392364 0.845234 -0.5338606 192 192 192 255 0.158993 0.988328
303.7031 3.238856 339.2559 -0.02337503 0.9671506 -0.2531272 192 192 192 255 0.390249 0.834481
493.3428 3.240156 173.6436 0.1775763 0.9699141 -0.1665334 192 192 192 255 0.476642 0.909928
499.9316 -0.04403 166.8057 0.7922688 0.6100796 0.0106357 192 192 192 255 0.232641 0.669838
499.9346 -0.075207 333.0049 0.7621746 0.6473707 0.001036464 192 192 192 255 0.232642 0.605878
172.917 3.256151 254.0234 -0.2296244 0.9732448 -0.008194377 192 192 192 255 0.084166 0.87331
172.9961 3.249256 493.6699 -0.1538467 0.9557527 0.2507351 192 192 192 255 0.330703 0.764136
492.9023 3.249254 341.0781 0.1706066 0.9750174 -0.1422484 192 192 192 255 0.22994 0.833651
282.4473 3.24692 45.7207 -0.007547066 0.999792 -0.01894661 192 192 192 255 0.380566 0.968205
294.5928 3.247526 7.6875 -0.1088083 0.9361284 -0.3344017 192 192 192 255 0.15375 0.731072
98.29492 3.259448 159.1357 -0.02812994 0.963351 0.266765 192 192 192 255 0.050171 0.916537
65.91113 3.240307 493.6113 -0.02457004 0.9615385 0.2735693 192 192 192 255 0.035418 0.764162
492.3027 3.253068 102.5518 0.3841938 0.9213581 -0.05911358 192 192 192 255 0.229667 0.942314
219.0469 -1.637546 499.9932 0.05518025 0.4639532 0.8841395 192 192 192 255 0.124725 0.541615
253.9111 3.246253 392.7979 0.001119822 0.9996282 -0.02724591 192 192 192 255 0.367565 0.810089
390.25 2.834875 161.7461 0.02545246 0.9795799 0.199438 192 192 192 255 0.190501 0.671785
349.0479 0.947009 230.0049 -0.05828573 0.9970418 0.05010492 192 192 192 255 0.410906 0.884251
184.6807 -0.42376 167.377 -0.04614946 0.9788191 0.1994578 192 192 192 255 0.111522 0.669618
153.1357 0.717602 389.4639 0.06238852 0.9749133 0.2136626 192 192 192 255 0.099402 0.584151
216.1816 3.256841 494.1729 0.05934137 0.9361543 0.3465454 192 192 192 255 0.350377 0.763907
161.2705 3.016662 447.9463 0.1940239 0.9796097 -0.05214914 192 192 192 255 0.07886 0.784966
394.8164 2.583984 363.1953 0.03787604 0.9991074 0.01870418 192 192 192 255 0.192256 0.59426
18.11523 3.245263 247.3643 -0.1244641 0.9917963 -0.02913396 192 192 192 255 0.260145 0.876343
419.8545 0.258728 342.0625 -0.01437942 0.9980809 -0.0602311 192 192 192 255 0.201875 0.602393
0.950195 0.519351 296.7803 -0.7614068 0.632105 -0.1438857 192 192 192 255 0.040932 0.619819
194.2324 3.232402 209.7119 -0.06129539 0.9980033 -0.01524186 192 192 192 255 0.115191 0.653326
2.982422 1.719509 456.5254 -0.4047807 0.9135697 0.03928008 192 192 192 255 0.041713 0.558343
386.0332 2.081659 387.6973 0.1122947 0.9932688 -0.02840539 192 192 192 255 0.181254 0.812413
417.8057 2.29427 250.543 -0.09995013 0.9606981 0.2589771 192 192 192 255 0.44223 0.874895
480.623 3.222643 56.63086 0.1197337 0.9926962 0.01476888 192 192 192 255 0.225223 0.712237
35.72266 2.573362 491.6562 -0.09642022 0.9050403 0.4142527 192 192 192 255 0.054292 0.544824
475.9951 3.083058 161.2393 -0.0161062 0.9699207 0.2428879 192 192 192 255 0.222238 0.915579
214.0645 3.246983 9.021484 0.07555539 0.9565037 -0.281766 192 192 192 255 0.349413 0.984923
347.4189 1.82452 279.3105 -0.1919855 0.9494248 -0.2484634 192 192 192 255 0.174046 0.626542
0.542969 -22.79784 499.3584 -0.5716316 -0.5923216 0.5677962 192 192 192 255 0.040776 0.541859
214.7217 0.3509 333.6855 0.03365298 0.9993293 0.01444247 192 192 192 255 0.123063 0.605616
268.4795 1.400016 354.251 -0.04338238 0.9937347 -0.1030024 192 192 192 255 0.374202 0.82765
22.43555 3.246203 474.2754 -0.09861236 0.9941149 0.04484595 192 192 192 255 0.015612 0.772971
498.3496 0.263246 499.3291 0.4147826 0.7243899 0.5506495 192 192 192 255 0.232033 0.541871
404.1494 2.502656 374.8643 -0.01782646 0.9986036 -0.04973041 192 192 192 255 0.189507 0.818259
400.3633 -0.424015 333.209 0.01295379 0.9867927 0.1614695 192 192 192 255 0.194387 0.6058
134.918 2.953799 171.833 0.04407524 0.9682357 -0.2461237 192 192 192 255 0.092403 0.667903
142.3838 0.520794 167.2461 0.04616842 0.9988115 0.01562185 192 192 192 255 0.095271 0.669668
460.7539 3.246389 57.40039 0.0003820354 0.9999999 -9.37407e-05 192 192 192 255 0.215294 0.962884
256.2109 3.246647 481.668 -0.01698263 0.9896811 0.1422779 192 192 192 255 0.368613 0.769603
436.5566 1.140177 153.2783 -0.06547791 0.9929506 0.09880174 192 192 192 255 0.208292 0.675043
194.4912 3.249957 186.8574 -0.101531 0.9915283 -0.0810128 192 192 192 255 0.115291 0.662121
35.84766 -5.346199 499.9873 -0.1192866 0.4076856 0.9052973 192 192 192 255 0.05434 0.541617
442.4648 0.155609 166.96 -0.0186822 0.9823237 -0.1862556 192 192 192 255 0.210562 0.669778
252.1777 -3.5176 7.572266 0.05772351 0.9248188 -0.376003 192 192 192 255 0.137454 0.731116
166.5293 -0.708028 407.1318 -0.5060198 0.862489 0.007529819 192 192 192 255 0.104548 0.577352
340.5156 3.248782 493.5371 -0.1724211 0.9658818 0.1932446 192 192 192 255 0.160518 0.764196
75.14941 1.299367 145.1465 -0.02508585 0.9871072 0.158083 192 192 192 255 0.06944 0.678173
499.9082 -22.79702 499.6133 0.5800535 -0.5770248 0.5749612 192 192 192 255 0.232632 0.541761
454.1689 3.247162 350.7734 -0.02552966 0.9977093 -0.06264416 192 192 192 255 0.212294 0.829234
4.693359 -22.9005 495.3125 -0.002361344 -0.9998013 0.01979409 192 192 192 255 0.042371 0.543417
5.016602 2.851439 297.0117 -0.3071674 0.9425778 -0.131131 192 192 192 255 0.042495 0.61973
166.9717 0.00181 0.166016 0.01160382 0.6754528 -0.737312 192 192 192 255 0.104718 0.733967
152.0625 1.518726 439.6396 0.3957921 0.7808655 -0.4833194 192 192 192 255 0.09899 0.564841
75.55957 0.42931 499.1377 -0.006486154 0.5426026 0.8399645 192 192 192 255 0.069597 0.541944
24.86523 3.047057 487.7412 -0.1640002 0.9144734 0.3699222 192 192 192 255 0.050121 0.54633
9.683594 -22.89841 4.001953 -0.002435903 -0.999962 -0.008368118 192 192 192 255 0.044288 0.73249
10.50195 1.489258 251.1543 -0.380433 0.9201975 -0.09223547 192 192 192 255 0.256677 0.874617
364.2295 1.459561 240.5527 -0.08722586 0.9960114 0.01878822 192 192 192 255 0.417823 0.879446
426.5498 3.248074 7.324219 0.001030607 0.9792884 -0.2024676 192 192 192 255 0.199712 0.985696
338.9922 3.217491 121.0068 -0.2325337 0.9725795 0.004149202 192 192 192 255 0.159824 0.933907
147.209 0.944607 423.1953 0.05822583 0.9917789 -0.1139494 192 192 192 255 0.097125 0.57117
457.3926 3.247498 123.0088 -0.007593961 0.9998591 0.01497211 192 192 192 255 0.213763 0.932995
407.5254 2.444143 145.7188 0.05792338 0.9923975 0.1085916 192 192 192 255 0.191045 0.922649
341.1475 3.255813 339.1143 -0.1373507 0.9674839 -0.2123903 192 192 192 255 0.160806 0.834545
62.0127 2.883552 171.7744 -0.004087203 0.9587583 -0.2841933 192 192 192 255 0.064393 0.667926
246.7969 -0.068311 342.2578 0.03789569 0.9975796 -0.05830061 192 192 192 255 0.135387 0.602317
267.5889 -9.446409 499.9922 -0.001207726 0.2790502 0.9602758 192 192 192 255 0.143375 0.541616
166.7539 -0.042764 167.0615 0.02630078 0.9927111 0.1176142 192 192 192 255 0.104634 0.669739
21.7334 -12.91134 499.9912 -0.08910925 0.2885884 0.9532976 192 192 192 255 0.048917 0.541616
197.7393 1.375327 171.374 -0.04609614 0.9788789 -0.1991767 192 192 192 255 0.116539 0.66808
326.9795 3.253562 339.3467 0.1815694 0.9636247 -0.1961121 192 192 192 255 0.400853 0.83444
172.208 -1.284304 192.5293 -0.1013725 0.9914975 -0.08158705 192 192 192 255 0.10673 0.659938
84.47754 3.246464 406.9551 0.0167775 0.9998421 0.005857964 192 192 192 255 0.043876 0.80364
159.1621 3.25261 159.0723 0.1603224 0.9777014 0.1356345 192 192 192 255 0.101717 0.672814
6.770508 3.249769 436.8311 -0.1829969 0.9829581 0.01748076 192 192 192 255 0.008475 0.790029
375.4541 2.832703 254.0859 -0.07165755 0.9954472 0.06285019 192 192 192 255 0.422936 0.873281
425.5518 -1.608653 500.0078 -0.000705784 0.4339322 0.9009453 192 192 192 255 0.204064 0.54161
272.7256 -8.554537 0.165039 -0.05873827 0.4087076 -0.9107733 192 192 192 255 0.145348 0.733967
499.8916 -22.78461 0.097656 0.5827793 -0.5697013 -0.5794902 192 192 192 255 0.232626 0.733993
256.4775 2.101674 33.04199 -0.03930332 0.9912887 -0.1257063 192 192 192 255 0.139106 0.721315
2.768555 1.694515 337.584 -0.4616512 0.8833225 -0.08136097 192 192 192 255 0.041631 0.604116
494.5674 3.061993 5.411133 0.2049739 0.9584174 -0.1985495 192 192 192 255 0.230699 0.986568
379.001 3.243335 227.8096 -0.02947746 0.9993694 0.01979725 192 192 192 255 0.424552 0.885252
6.65918 3.250798 159.6592 -0.2516086 0.9609566 0.1151326 192 192 192 255 0.008425 0.916299
166.9863 0.401843 392.7715 -0.2118405 0.9756253 0.05726151 192 192 192 255 0.104724 0.582878
496.4834 -22.90612 3.484375 0.01340935 -0.9998209 -0.01335508 192 192 192 255 0.231316 0.73269
164.0352 0.186238 499.4385 0.04939536 0.6141477 0.7876438 192 192 192 255 0.10359 0.541829
490.0234 0.606234 59.99316 0.3348441 0.9406856 0.0546812 192 192 192 255 0.228834 0.710943
496.5762 -3.64781 67.7207 0.8134612 0.58126 -0.02043463 192 192 192 255 0.231352 0.707969
326.6299 -22.81734 499.8643 0.0002547236 -0.7032076 0.7109846 192 192 192 255 0.166059 0.541665
263.2441 3.246252 52.94629 -0.00200814 0.9999325 -0.01144643 192 192 192 255 0.371817 0.964913
302.3457 -1.366055 -0.00293 -0.03944907 0.4910422 -0.8702421 192 192 192 255 0.156729 0.734032
333.0176 0.069079 235.1611 0.2256928 0.9741925 0.003439161 192 192 192 255 0.168513 0.643532
167.1045 0.202909 220.0527 0.1241181 0.9920348 -0.0214886 192 192 192 255 0.104769 0.649346
-0.001953 -1.565529 262.1709 -0.8246182 0.5625863 -0.05917448 192 192 192 255 0.040567 0.633138
242.5361 3.243916 36.75098 0.04768145 0.9972691 -0.05639889 192 192 192 255 0.13375 0.719887
174.5264 3.248363 324.918 -0.1558561 0.9782161 0.1371213 192 192 192 255 0.084899 0.841013
327.0537 3.24821 177.002 0.2283552 0.9734403 -0.01636838 192 192 192 255 0.154385 0.908398
452.543 1.324078 145.0215 -0.1602113 0.9779346 0.1340757 192 192 192 255 0.211554 0.922967
159.4922 3.248966 90.50391 0.1932283 0.9811499 0.002806854 192 192 192 255 0.07805 0.947803
228.2539 2.908798 171.7822 -0.0485802 0.9703434 -0.236799 192 192 192 255 0.128262 0.667922
135.9004 3.247305 179.5537 0.04577878 0.9984266 -0.03238375 192 192 192 255 0.313804 0.907235
2.631836 0.472957 167.2744 -0.4124686 0.9109347 -0.008227261 192 192 192 255 0.041579 0.669657
381.7646 3.246542 403.1797 0.00263703 0.999957 -0.008895573 192 192 192 255 0.17931 0.80536
493.5928 3.249619 493.9053 0.2206793 0.9578174 0.1840829 192 192 192 255 0.230206 0.543958
412.6553 -0.71174 157.2568 0.08524286 0.9960191 0.02606799 192 192 192 255 0.199109 0.673512
338.6367 3.045936 399.9521 -0.2890978 0.9572972 0.002126161 192 192 192 255 0.170672 0.580115
278.7832 3.201814 366.5293 -0.04855074 0.9982857 -0.03268901 192 192 192 255 0.378896 0.822056
297.9521 0.350924 499.2471 -0.03817668 0.5443093 0.8380155 192 192 192 255 0.155041 0.541902
432.4346 0.396436 333.8047 -0.02233932 0.9868518 0.1600766 192 192 192 255 0.206709 0.60557
173.2988 1.954986 235.3379 -0.1266718 0.9895136 -0.06940518 192 192 192 255 0.107149 0.643464
163.0508 1.246197 331.0811 0.1059857 0.9331492 0.3435107 192 192 192 255 0.103211 0.606619
499.998 -12.77816 65.45117 0.9901284 0.1387153 0.02009762 192 192 192 255 0.232666 0.708843
-0.004883 -21.10796 392.6631 -0.9932753 -0.1157734 0.0008206813 192 192 192 255 0.040566 0.58292
499.9102 -0.096709 110.5273 0.8315588 0.5361345 -0.1451545 192 192 192 255 0.232633 0.691496
339.0391 3.208345 287.5205 -0.195436 0.9775887 -0.07826371 192 192 192 255 0.170826 0.623382
159.4678 3.213972 221.9834 0.1844585 0.982809 -0.007842924 192 192 192 255 0.101835 0.648603
210.7891 -1.200955 -0.040039 0.08464488 0.4674934 -0.8799348 192 192 192 255 0.121552 0.734046
327.4922 3.206775 493.7412 0.1522265 0.9704289 0.1873362 192 192 192 255 0.16639 0.544021
156.7041 1.027472 178.8477 0.1060903 0.9929388 -0.05307946 192 192 192 255 0.100773 0.665204
488.7422 3.2349 36.52832 0.1139051 0.9916718 0.06010592 192 192 192 255 0.228045 0.972392
-0.030273 -1.332066 334.8428 -0.9260412 0.3773265 -0.008503394 192 192 192 255 0.040556 0.605171
0.000977 -4.415627 287.7139 -0.9228189 0.382405 -0.04660213 192 192 192 255 0.040568 0.623308
354.8857 3.206567 276.9453 -0.08901188 0.9926125 -0.08244576 192 192 192 255 0.413566 0.862867
355.3682 0.598669 254.6895 -0.0471286 0.9983208 -0.03368443 192 192 192 255 0.1771 0.636017
5.255859 2.964493 192.2988 -0.3713621 0.9253312 0.07650031 192 192 192 255 0.042587 0.660027
255.6953 0.9457 362.2988 -0.02076137 0.9996923 0.01357122 192 192 192 255 0.368378 0.823983
167.2246 0.497725 434.2002 -0.1884525 0.9813251 -0.03855615 192 192 192 255 0.104815 0.566935
396.8721 3.229861 351.7969 0.07013813 0.9969041 -0.03553743 192 192 192 255 0.186192 0.828768
343.8535 3.247456 156.6191 -0.09803391 0.9889023 0.1116314 192 192 192 255 0.162039 0.917683
333.1934 0.039694 167.168 0.01257979 0.9992558 -0.03646533 192 192 192 255 0.16858 0.669698
232.4385 3.246997 352.7764 0.07314949 0.9945992 -0.07363155 192 192 192 255 0.357783 0.828322
221.5059 3.247092 476.3682 0.01053773 0.9998149 0.01609728 192 192 192 255 0.352803 0.772018
0.359375 -5.73121 249.041 -0.8825999 0.4621103 -0.08643715 192 192 192 255 0.040705 0.638191
384.9434 3.204675 349.001 0.04263654 0.9982985 -0.03977735 192 192 192 255 0.180758 0.830041
0.12793 -22.82379 0.103516 -0.5768548 -0.5759843 -0.579207 192 192 192 255 0.040617 0.733991
414.9365 0.432311 167.3857 0.04293135 0.9775773 -0.2061543 192 192 192 255 0.199986 0.669614
0.248047 -11.66512 499.7607 -0.6185712 0.3501124 0.7034139 192 192 192 255 0.040663 0.541705
6.154297 -1.804788 486.7432 -0.262878 0.8875619 0.3783242 192 192 192 255 0.042932 0.546714
2.928711 1.423878 330.7539 -0.3768514 0.926186 0.01274915 192 192 192 255 0.041693 0.606745
394.1699 3.247878 263.9238 -0.006464195 0.9995565 -0.02906992 192 192 192 255 0.431463 0.868799
231.1465 1.993016 491.1289 0.06541688 0.9566796 0.2836982 192 192 192 255 0.129374 0.545026
26.32227 2.943915 161.4883 0.0136126 0.9731328 0.2298418 192 192 192 255 0.017383 0.915465
492.4766 3.2495 426.6182 0.220836 0.9753104 0.001014031 192 192 192 255 0.229777 0.569853
209.0215 3.244563 338.8213 0.02180002 0.9659438 -0.2578321 192 192 192 255 0.347115 0.834679
368.8799 3.243683 209.8818 -0.01644177 0.9996147 0.02236773 192 192 192 255 0.419941 0.893419
81.76367 3.24737 135.9258 -0.02040461 0.9986148 0.04850012 192 192 192 255 0.04264 0.92711
0.383789 -4.545333 486.7168 -0.7918347 0.5744398 0.2074049 192 192 192 255 0.040715 0.546724
249.752 0.992951 355.1162 0.06441794 0.9941704 -0.08646214 192 192 192 255 0.365671 0.827256
338.792 3.06709 172.0947 -0.180999 0.9602261 -0.2126153 192 192 192 255 0.170731 0.667802
286.1582 -22.83319 0.148438 -0.001386513 -0.7013149 -0.7128503 192 192 192 255 0.150509 0.733973
174.9766 0.099175 193.3271 -0.2838133 0.9536221 -0.1002744 192 192 192 255 0.107793 0.659631
492.5967 3.274148 325.3809 0.1664207 0.9746171 0.1497523 192 192 192 255 0.229823 0.608812
29.2041 3.238706 327.624 -0.0132132 0.9667966 0.2552055 192 192 192 255 0.265197 0.83978
288.5713 0.034128 333.6318 -0.04394498 0.9915065 0.1224085 192 192 192 255 0.151436 0.605637
76.39844 -0.333179 164.9756 -0.02149436 0.9884913 -0.149743 192 192 192 255 0.06992 0.670542
24.83691 3.247332 442.6025 -0.01402201 0.9998572 0.009428259 192 192 192 255 0.016706 0.7874
454.2627 0.105615 499.5635 -0.03284418 0.7460508 0.6650786 192 192 192 255 0.215095 0.541781
-0.000977 -1.527122 195.4316 -0.8699385 0.4820893 0.1039088 192 192 192 255 0.040567 0.658821
138.3135 0.092744 415.5439 0.04050982 0.9981532 -0.04526782 192 192 192 255 0.093707 0.574114
249.3398 -3.092567 498.1504 0.04456092 0.6598302 0.7500923 192 192 192 255 0.136364 0.542324
499.9932 -7.974205 104.0938 0.980364 0.1879353 -0.05972388 192 192 192 255 0.232665 0.693971
453.9561 3.176629 141.9395 -0.5349899 0.8447049 0.01610783 192 192 192 255 0.212197 0.924371
327.0547 3.248595 7.197266 0.06856276 0.9799142 -0.1872627 192 192 192 255 0.166222 0.731261
274.9395 0.410426 167.1523 0.004615187 0.9986698 -0.05135537 192 192 192 255 0.146199 0.669704
214.8252 0.507389 167.2461 -0.0226848 0.9948129 0.09915981 192 192 192 255 0.123103 0.669668
159.2627 3.250609 493.9619 0.1238101 0.9696975 0.2106131 192 192 192 255 0.077946 0.764003
338.7002 3.046518 327.1816 -0.1897378 0.965026 0.1808994 192 192 192 255 0.170696 0.608119
-0.006836 -1.213898 144.2275 -0.8834596 0.4685073 0.0003628063 192 192 192 255 0.040565 0.678527
496.1631 -22.90053 495.6484 0.01052682 -0.9998985 0.009602587 192 192 192 255 0.231193 0.543287
498.8809 -1.32743 500.0146 0.5048802 0.23075 0.8317755 192 192 192 255 0.232237 0.541607
6.466797 3.25486 173.3047 -0.2393838 0.9579613 -0.1581314 192 192 192 255 0.254839 0.910082
426.3525 -0.530696 165.6484 -0.01173138 0.9825613 -0.1855685 192 192 192 255 0.204372 0.670283
73.70898 -21.40038 500.0684 -0.0003312452 -0.5483157 0.8362714 192 192 192 255 0.068886 0.541586
1.754883 -5.81893 214.6006 -0.7643492 0.6339121 0.1180078 192 192 192 255 0.041242 0.651444
161.2012 3.154748 380.5303 0.2005056 0.9771178 0.0709811 192 192 192 255 0.078829 0.815678
253.0479 3.12578 161.1787 0.001293394 0.977895 0.2090925 192 192 192 255 0.367172 0.915606
415.8174 3.003828 328.1973 -0.01407273 0.9515019 0.3073209 192 192 192 255 0.200324 0.607728
2.410156 -0.037832 0.126953 -0.2690862 0.592869 -0.7590119 192 192 192 255 0.041493 0.733982
499.2559 -2.44168 86.29492 0.9096426 0.4025247 -0.1025877 192 192 192 255 0.232381 0.700821
179.6602 -1.402694 500.0078 -0.000343533 0.4432258 0.8964099 192 192 192 255 0.109593 0.54161
393.6436 2.66477 245.8721 0.005490878 0.9998481 0.01654592 192 192 192 255 0.431223 0.877023
15.38184 1.022647 217.8965 -0.2857022 0.9563788 0.06094085 192 192 192 255 0.046477 0.650176
172.5088 3.205027 339.6963 -0.2007776 0.9643106 -0.1726073 192 192 192 255 0.330481 0.83428
413.5459 1.552484 366.3955 -0.04793794 0.9883778 -0.1442613 192 192 192 255 0.199452 0.593028
266.7188 2.743194 22.86914 0.003153977 0.9696249 -0.2445765 192 192 192 255 0.3734 0.978615
165.2949 0.784728 103.5967 0.04030434 0.9991845 0.002415627 192 192 192 255 0.327195 0.941838
350.9727 3.205386 209.8613 -0.05812199 0.9966502 0.05753576 192 192 192 255 0.411783 0.893428
499.29 -0.911331 43.16602 0.7981407 0.5971875 0.0796149 192 192 192 255 0.232394 0.717419
271.8955 2.251691 490.6182 -0.08722549 0.8698816 0.4854872 192 192 192 255 0.375759 0.765526
295.9678 3.19721 494.3408 -0.03988212 0.9565166 0.2889384 192 192 192 255 0.386725 0.76383
500.0078 -0.025364 0.124023 0.6323537 0.4672194 -0.617928 192 192 192 255 0.23267 0.733983
166.7471 -0.075707 333.2891 0.01731161 0.9994999 -0.02646534 192 192 192 255 0.104632 0.605769
237.332 3.204626 18.69238 0.1607753 0.9748332 -0.1544396 192 192 192 255 0.13175 0.726837
434.0264 2.549427 137.9707 0.01213765 0.9955432 0.09352277 192 192 192 255 0.203118 0.926179
1.37207 -6.031324 234.9307 -0.7091296 0.7027887 -0.05677396 192 192 192 255 0.041095 0.643621
6.731445 3.27155 339.1562 -0.1267896 0.9337479 -0.3347225 192 192 192 255 0.008458 0.834526
494.1875 2.266101 37.80469 0.2565987 0.9405784 0.2224172 192 192 192 255 0.230434 0.719482
166.8584 0.459256 497.4824 0.05635714 0.9667449 0.2494558 192 192 192 255 0.104674 0.542581
-0.048828 -1.008793 1.163086 -0.7857384 0.4236756 -0.450682 192 192 192 255 0.040549 0.733583
36.6084 3.245704 221.9932 -0.02901522 0.999579 4.375668e-05 192 192 192 255 0.26857 0.887901
11.08301 3.244285 291.1016 -0.2062005 0.9769533 -0.05516905 192 192 192 255 0.256942 0.856418
6.763672 3.253273 7.742188 -0.225992 0.9631748 -0.1456775 192 192 192 255 0.008472 0.985506
60.19336 0.227377 166.9434 0.02622134 0.9783055 -0.2055017 192 192 192 255 0.063694 0.669785
333.2441 0.3053 375.1504 0.01551714 0.9998531 -0.007289215 192 192 192 255 0.1686 0.589659
59.6377 1.311081 145.4424 0.204657 0.9231512 0.3254342 192 192 192 255 0.06348 0.678059
0.148438 -22.83395 213.7773 -0.7063926 -0.7078191 -0.001286454 192 192 192 255 0.040624 0.651761
389.165 3.246829 128.5244 0.00555035 0.999888 0.01389883 192 192 192 255 0.182681 0.930482
235.1289 3.24577 384.0049 0.020681 0.999662 -0.01575363 192 192 192 255 0.359009 0.814095
332.7812 0.479614 65.05859 0.04080563 0.9991643 -0.002351872 192 192 192 255 0.168422 0.708994
227.4248 3.24736 182.4434 -0.02381496 0.9989679 -0.03867806 192 192 192 255 0.108998 0.905919
225.5928 -5.21996 0.902344 0.07057546 0.4730509 -0.8782039 192 192 192 255 0.12724 0.733683
167.2148 0.461055 269.707 -0.0458371 0.9989392 0.004408969 192 192 192 255 0.104811 0.630238
172.9512 3.248646 159.5303 -0.1765262 0.9707556 0.1627025 192 192 192 255 0.330683 0.916357
411.9678 3.225609 247.5352 -0.04397696 0.9785468 0.2012767 192 192 192 255 0.439571 0.876265
83.33789 0.423493 333.5938 -0.002031445 0.9993103 -0.03708027 192 192 192 255 0.072586 0.605652
332.8828 0.466422 215.0654 0.1163806 0.9926008 0.03462983 192 192 192 255 0.168461 0.651266
332.8594 0.473544 279.8887 0.135132 0.9897499 -0.04619979 192 192 192 255 0.168452 0.626319
333.1533 -0.063511 333.4102 -0.0007941058 0.9999927 0.003745062 192 192 192 255 0.168565 0.605722
379.6182 3.131114 338.8926 0.03526684 0.9630128 -0.2671382 192 192 192 255 0.178332 0.834646
243.5332 -8.645723 499.998 0.02539706 0.120764 0.9923564 192 192 192 255 0.134133 0.541613
265.9277 1.846584 375.7812 -0.159976 0.9754323 -0.151458 192 192 192 255 0.37304 0.817841
128.0703 1.696453 402.3818 0.04632418 0.9981273 0.03994894 192 192 192 255 0.089772 0.57918
87.81348 3.246089 423.25 0.01756348 0.9997611 -0.01301401 192 192 192 255 0.045396 0.796216
267.207 -1.357247 10.40625 -0.09132864 0.9193132 -0.3827825 192 192 192 255 0.143228 0.730026
340.6191 3.251034 7.728516 -0.2204164 0.9662694 -0.1331915 192 192 192 255 0.160565 0.985512
141.4629 3.19168 431.3252 0.08583135 0.988989 -0.1205562 192 192 192 255 0.069837 0.792538
242.5361 3.243916 36.75098 0.04768145 0.9972691 -0.05639889 192 192 192 255 0.362384 0.972291
327.625 3.248617 325.084 0.2161746 0.9673131 0.1325672 192 192 192 255 0.166441 0.608926
327.0537 3.24821 177.002 0.2283552 0.9734403 -0.01636838 192 192 192 255 0.166221 0.665914
429.1377 3.250685 173.3828 0.0006135163 0.9747334 -0.2233705 192 192 192 255 0.205442 0.667307
209.0215 3.244563 338.8213 0.02180002 0.9659438 -0.2578321 192 192 192 255 0.120873 0.60364
174.5264 3.248363 324.918 -0.1558561 0.9782161 0.1371213 192 192 192 255 0.10762 0.60899
159.2988 3.249728 325.4043 0.1615325 0.9789649 0.1246396 192 192 192 255 0.10177 0.608803
2.768555 1.694515 337.584 -0.4616512 0.8833225 -0.08136097 192 192 192 255 0.006652 0.835243
303.7031 3.238856 339.2559 -0.02337503 0.9671506 -0.2531272 192 192 192 255 0.15725 0.603473
326.9795 3.253562 339.3467 0.1815694 0.9636247 -0.1961121 192 192 192 255 0.166193 0.603438
22.43555 3.246203 474.2754 -0.09861236 0.9941149 0.04484595 192 192 192 255 0.049187 0.551512
161.8877 2.789205 338.1729 0.2053906 0.9577993 -0.2010852 192 192 192 255 0.079141 0.834974
161.2012 3.154748 380.5303 0.2005056 0.9771178 0.0709811 192 192 192 255 0.102501 0.587589
172.5088 3.205027 339.6963 -0.2007776 0.9643106 -0.1726073 192 192 192 255 0.106845 0.603303
390.6396 3.248754 325.9404 -0.001661812 0.9739044 0.2269526 192 192 192 255 0.190651 0.608597
492.4766 3.2495 426.6182 0.220836 0.9753104 0.001014031 192 192 192 255 0.229746 0.794682
327.0547 3.248595 7.197266 0.06856276 0.9799142 -0.1872627 192 192 192 255 0.400887 0.985754
121.4648 3.248047 7.195313 -0.0003147017 0.976629 -0.214932 192 192 192 255 0.087234 0.731261
159.1621 3.25261 159.0723 0.1603224 0.9777014 0.1356345 192 192 192 255 0.0779 0.916566
6.466797 3.25486 173.3047 -0.2393838 0.9579613 -0.1581314 192 192 192 255 0.043052 0.667337
337.168 0.94973 1.547852 -0.02392364 0.845234 -0.5338606 192 192 192 255 0.170107 0.733435
493.3428 3.240156 173.6436 0.1775763 0.9699141 -0.1665334 192 192 192 255 0.23011 0.667206
475.9951 3.083058 161.2393 -0.0161062 0.9699207 0.2428879 192 192 192 255 0.223445 0.67198
494.5674 3.061993 5.411133 0.2049739 0.9584174 -0.1985495 192 192 192 255 0.23058 0.731948
294.5928 3.247526 7.6875 -0.1088083 0.9361284 -0.3344017 192 192 192 255 0.386099 0.985531
256.4775 2.101674 33.04199 -0.03930332 0.9912887 -0.1257063 192 192 192 255 0.368735 0.973981
159.2627 3.250609 493.9619 0.1238101 0.9696975 0.2106131 192 192 192 255 0.101756 0.543936
65.91113 3.240307 493.6113 -0.02457004 0.9615385 0.2735693 192 192 192 255 0.06589 0.544071
488.7422 3.2349 36.52832 0.1139051 0.9916718 0.06010592 192 192 192 255 0.228342 0.719973
159.4678 3.213972 221.9834 0.1844585 0.982809 -0.007842924 192 192 192 255 0.32454 0.887906
384.9434 3.204675 349.001 0.04263654 0.9982985 -0.03977735 192 192 192 255 0.188462 0.599722
492.3027 3.253068 102.5518 0.3841938 0.9213581 -0.05911358 192 192 192 255 0.22971 0.694565
271.8955 2.251691 490.6182 -0.08722549 0.8698816 0.4854872 192 192 192 255 0.14503 0.545223
494.4521 3.151879 160.9229 0.2036628 0.9617302 0.1832933 192 192 192 255 0.230646 0.915723
2.982422 1.719509 456.5254 -0.4047807 0.9135697 0.03928008 192 192 192 255 0.00675 0.781057
214.0645 3.246983 9.021484 0.07555539 0.9565037 -0.281766 192 192 192 255 0.122811 0.730559
256.2109 3.246647 481.668 -0.01698263 0.9896811 0.1422779 192 192 192 255 0.139004 0.548667
379.6182 3.131114 338.8926 0.03526684 0.9630128 -0.2671382 192 192 192 255 0.186417 0.603612
295.9678 3.19721 494.3408 -0.03988212 0.9565166 0.2889384 192 192 192 255 0.154278 0.54379
161.2705 3.016662 447.9463 0.1940239 0.9796097 -0.05214914 192 192 192 255 0.102527 0.561645
231.1465 1.993016 491.1289 0.06541688 0.9566796 0.2836982 192 192 192 255 0.357195 0.765293
282.4473 3.24692 45.7207 -0.007547066 0.999792 -0.01894661 192 192 192 255 0.149084 0.716435
266.7188 2.743194 22.86914 0.003153977 0.9696249 -0.2445765 192 192 192 255 0.143041 0.72523
394.8164 2.583984 363.1953 0.03787604 0.9991074 0.01870418 192 192 192 255 0.185256 0.823575
35.72266 2.573362 491.6562 -0.09642022 0.9050403 0.4142527 192 192 192 255 0.021665 0.765053
227.4248 3.24736 182.4434 -0.02381496 0.9989679 -0.03867806 192 192 192 255 0.127944 0.66382
228.2539 2.908798 171.7822 -0.0485802 0.9703434 -0.236799 192 192 192 255 0.109375 0.910776
156.7041 1.027472 178.8477 0.1060903 0.9929388 -0.05307946 192 192 192 255 0.323281 0.907557
452.543 1.324078 145.0215 -0.1602113 0.9779346 0.1340757 192 192 192 255 0.214434 0.678221
434.0264 2.549427 137.9707 0.01213765 0.9955432 0.09352277 192 192 192 255 0.20732 0.680934
339.0391 3.208345 287.5205 -0.195436 0.9775887 -0.07826371 192 192 192 255 0.406347 0.85805
413.5459 1.552484 366.3955 -0.04793794 0.9883778 -0.1442613 192 192 192 255 0.193788 0.822117
194.2324 3.232402 209.7119 -0.06129539 0.9980033 -0.01524186 192 192 192 255 0.093876 0.893496
173.2988 1.954986 235.3379 -0.1266718 0.9895136 -0.06940518 192 192 192 255 0.08434 0.881822
237.332 3.204626 18.69238 0.1607753 0.9748332 -0.1544396 192 192 192 255 0.360013 0.980518
327.4922 3.206775 493.7412 0.1522265 0.9704289 0.1873362 192 192 192 255 0.401086 0.764103
480.623 3.222643 56.63086 0.1197337 0.9926962 0.01476888 192 192 192 255 0.224346 0.963234
390.25 2.834875 161.7461 0.02545246 0.9795799 0.199438 192 192 192 255 0.183175 0.915348
407.5254 2.444143 145.7188 0.05792338 0.9923975 0.1085916 192 192 192 255 0.197139 0.677953
172.917 3.256151 254.0234 -0.2296244 0.9732448 -0.008194377 192 192 192 255 0.107002 0.636273
62.0127 2.883552 171.7744 -0.004087203 0.9587583 -0.2841933 192 192 192 255 0.280143 0.910779
134.918 2.953799 171.833 0.04407524 0.9682357 -0.2461237 192 192 192 255 0.313356 0.910752
364.2295 1.459561 240.5527 -0.08722586 0.9960114 0.01878822 192 192 192 255 0.180504 0.641457
349.0479 0.947009 230.0049 -0.05828573 0.9970418 0.05010492 192 192 192 255 0.174672 0.645516
84.47754 3.246464 406.9551 0.0167775 0.9998421 0.005857964 192 192 192 255 0.073024 0.57742
11.08301 3.244285 291.1016 -0.2062005 0.9769533 -0.05516905 192 192 192 255 0.044826 0.622004
10.50195 1.489258 251.1543 -0.380433 0.9201975 -0.09223547 192 192 192 255 0.044602 0.637377
15.38184 1.022647 217.8965 -0.2857022 0.9563788 0.06094085 192 192 192 255 0.2589 0.889768
492.5967 3.274148 325.3809 0.1664207 0.9746171 0.1497523 192 192 192 255 0.476302 0.840802
415.8174 3.003828 328.1973 -0.01407273 0.9515019 0.3073209 192 192 192 255 0.441324 0.839519
2.928711 1.423878 330.7539 -0.3768514 0.926186 0.01274915 192 192 192 255 0.253227 0.838354
163.0508 1.246197 331.0811 0.1059857 0.9331492 0.3435107 192 192 192 255 0.326173 0.838205
6.65918 3.250798 159.6592 -0.2516086 0.9609566 0.1151326 192 192 192 255 0.043126 0.672588
6.763672 3.253273 7.742188 -0.225992 0.9631748 -0.1456775 192 192 192 255 0.043166 0.731051
396.8721 3.229861 351.7969 0.07013813 0.9969041 -0.03553743 192 192 192 255 0.193045 0.598646
5.255859 2.964493 192.2988 -0.3713621 0.9253312 0.07650031 192 192 192 255 0.254287 0.901429
494.1875 2.266101 37.80469 0.2565987 0.9405784 0.2224172 192 192 192 255 0.230526 0.971811
194.4912 3.249957 186.8574 -0.101531 0.9915283 -0.0810128 192 192 192 255 0.093994 0.903908
216.1816 3.256841 494.1729 0.05934137 0.9361543 0.3465454 192 192 192 255 0.123624 0.543855
26.32227 2.943915 161.4883 0.0136126 0.9731328 0.2298418 192 192 192 255 0.05068 0.671884
268.4795 1.400016 354.251 -0.04338238 0.9937347 -0.1030024 192 192 192 255 0.143717 0.597702
87.81348 3.246089 423.25 0.01756348 0.9997611 -0.01301401 192 192 192 255 0.074305 0.571149
327.2529 3.250866 159.0859 0.1971438 0.971231 0.1335835 192 192 192 255 0.400977 0.91656
343.8535 3.247456 156.6191 -0.09803391 0.9889023 0.1116314 192 192 192 255 0.172676 0.673758
341.1475 3.255813 339.1143 -0.1373507 0.9674839 -0.2123903 192 192 192 255 0.171636 0.603527
338.6367 3.045936 399.9521 -0.2890978 0.9572972 0.002126161 192 192 192 255 0.159662 0.80683
172.9961 3.249256 493.6699 -0.1538467 0.9557527 0.2507351 192 192 192 255 0.107032 0.544049
375.4541 2.832703 254.0859 -0.07165755 0.9954472 0.06285019 192 192 192 255 0.184817 0.636249
394.1699 3.247878 263.9238 -0.006464195 0.9995565 -0.02906992 192 192 192 255 0.192007 0.632463
159.4922 3.248966 90.50391 0.1932283 0.9811499 0.002806854 192 192 192 255 0.101844 0.699201
75.14941 1.299367 145.1465 -0.02508585 0.9871072 0.158083 192 192 192 255 0.039626 0.92291
56.53516 3.260795 143.4648 0.09186136 0.9895596 0.1110555 192 192 192 255 0.062288 0.67882
172.9512 3.248646 159.5303 -0.1765262 0.9707556 0.1627025 192 192 192 255 0.107015 0.672637
160.9014 3.226819 5.918945 0.1782346 0.9628401 -0.2029074 192 192 192 255 0.078692 0.986337
220.4844 3.128478 327.834 -0.001853828 0.9700241 0.2430018 192 192 192 255 0.105836 0.839684
24.86523 3.047057 487.7412 -0.1640002 0.9144734 0.3699222 192 192 192 255 0.016719 0.766837
249.752 0.992951 355.1162 0.06441794 0.9941704 -0.08646214 192 192 192 255 0.136522 0.597369
165.2949 0.784728 103.5967 0.04030434 0.9991845 0.002415627 192 192 192 255 0.104074 0.694163
492.9023 3.249254 341.0781 0.1706066 0.9750174 -0.1422484 192 192 192 255 0.22994 0.602771
454.1689 3.247162 350.7734 -0.02552966 0.9977093 -0.06264416 192 192 192 255 0.215059 0.59904
350.9727 3.205386 209.8613 -0.05812199 0.9966502 0.05753576 192 192 192 255 0.175411 0.653268
347.4189 1.82452 279.3105 -0.1919855 0.9494248 -0.2484634 192 192 192 255 0.410164 0.86179
354.8857 3.206567 276.9453 -0.08901188 0.9926125 -0.08244576 192 192 192 255 0.176914 0.627452
152.0625 1.518726 439.6396 0.3957921 0.7808655 -0.4833194 192 192 192 255 0.074665 0.78875
147.209 0.944607 423.1953 0.05822583 0.9917789 -0.1139494 192 192 192 255 0.072454 0.796241
338.9922 3.217491 121.0068 -0.2325337 0.9725795 0.004149202 192 192 192 255 0.170808 0.687463
340.6191 3.251034 7.728516 -0.2204164 0.9662694 -0.1331915 192 192 192 255 0.171433 0.731056
493.5928 3.249619 493.9053 0.2206793 0.9578174 0.1840829 192 192 192 255 0.230255 0.764029
253.0479 3.12578 161.1787 0.001293394 0.977895 0.2090925 192 192 192 255 0.137788 0.672003
172.7129 3.242464 7.532227 -0.1859282 0.9685512 -0.1653461 192 192 192 255 0.106924 0.731132
232.4385 3.246997 352.7764 0.07314949 0.9945992 -0.07363155 192 192 192 255 0.12987 0.598269
98.29492 3.259448 159.1357 -0.02812994 0.963351 0.266765 192 192 192 255 0.078332 0.672789
5.016602 2.851439 297.0117 -0.3071674 0.9425778 -0.131131 192 192 192 255 0.254178 0.853726
426.5498 3.248074 7.324219 0.001030607 0.9792884 -0.2024676 192 192 192 255 0.204448 0.731212
340.5156 3.248782 493.5371 -0.1724211 0.9658818 0.1932446 192 192 192 255 0.171393 0.5441
59.6377 1.311081 145.4424 0.204657 0.9231512 0.3254342 192 192 192 255 0.03256 0.922775
327.1904 3.021231 171.9092 0.1645869 0.9573227 -0.2375804 192 192 192 255 0.154447 0.910718
338.792 3.06709 172.0947 -0.180999 0.9602261 -0.2126153 192 192 192 255 0.406234 0.910633
338.7002 3.046518 327.1816 -0.1897378 0.965026 0.1808994 192 192 192 255 0.406193 0.839981
3 0 72 186 
3 15 21 8 
3 156 25 157 
3 80 110 194 
3 80 194 74 
3 203 142 160 
3 203 76 142 
3 124 16 171 
3 2 231 138 
3 81 226 41 
3 251 248 191 
3 147 158 138 
3 193 224 231 
3 22 23 0 
3 57 168 129 
3 70 73 128 
3 205 111 198 
3 215 95 63 
3 232 83 154 
3 102 175 160 
3 68 120 104 
3 115 252 201 
3 238 252 51 
3 248 56 191 
3 5 146 138 
3 226 126 41 
3 126 196 225 
3 61 92 98 
3 61 180 60 
3 235 24 121 
3 169 208 25 
3 126 226 12 
3 106 83 145 
3 22 0 186 
3 13 181 56 
3 68 218 120 
3 122 235 121 
3 189 190 125 
3 122 121 7 
3 6 189 125 
3 239 10 206 
3 253 117 254 
3 165 148 15 
3 103 213 137 
3 83 86 62 
3 187 123 50 
3 232 154 87 
3 161 174 255 
3 161 155 174 
3 20 132 63 
3 54 217 256 
3 156 157 233 
3 103 137 72 
3 56 30 191 
3 257 54 11 
3 258 217 237 
3 19 250 83 
3 240 136 164 
3 234 188 4 
3 240 105 14 
3 259 99 221 
3 243 260 261 
3 229 261 143 
3 262 45 163 
3 13 221 99 
3 263 97 200 
3 217 14 264 
3 217 109 265 
3 266 243 59 
3 88 70 159 
3 34 155 161 
3 26 70 267 
3 131 229 17 
3 96 141 118 
3 109 217 264 
3 242 192 140 
3 268 27 201 
3 188 116 28 
3 216 213 103 
3 144 96 92 
3 92 96 36 
3 76 203 269 
3 270 124 29 
3 127 271 89 
3 236 102 160 
3 272 116 188 
3 95 20 63 
3 22 67 273 
3 23 22 177 
3 22 139 9 
3 274 22 9 
3 174 155 241 
3 216 275 222 
3 57 23 168 
3 44 118 135 
3 73 70 26 
3 215 63 214 
3 276 27 268 
3 277 252 115 
3 127 150 271 
3 183 150 127 
3 2 183 231 
3 183 199 207 
3 124 171 29 
3 172 163 45 
3 10 212 170 
3 93 162 53 
3 163 162 93 
3 93 53 198 
3 78 278 279 
3 213 222 280 
3 213 216 222 
3 31 62 86 
3 213 48 112 
3 126 12 281 
3 245 32 198 
3 173 156 151 
3 43 164 75 
3 42 59 282 
3 59 134 202 
3 42 40 209 
3 156 169 25 
3 113 112 204 
3 204 48 283 
3 92 61 144 
3 284 91 133 
3 242 117 253 
3 31 50 285 
3 236 160 142 
3 259 286 99 
3 13 99 181 
3 78 279 49 
3 86 219 123 
3 236 68 102 
3 68 236 287 
3 288 166 185 
3 157 25 38 
3 9 139 283 
3 16 1 171 
3 66 93 198 
3 79 163 93 
3 244 88 159 
3 59 289 282 
3 262 163 79 
3 286 56 181 
3 133 17 290 
3 39 251 191 
3 152 85 77 
3 152 77 291 
3 157 38 292 
3 28 249 293 
3 27 115 201 
3 73 58 128 
3 210 277 115 
3 249 104 294 
3 295 159 46 
3 264 37 109 
3 56 296 30 
3 190 65 297 
3 65 176 44 
3 8 165 15 
3 190 297 125 
3 122 298 235 
3 153 159 295 
3 132 151 246 
3 132 173 151 
3 281 299 126 
3 181 99 286 
3 113 186 137 
3 126 225 41 
3 31 86 187 
3 185 284 288 
3 284 185 91 
3 300 301 67 
3 147 138 146 
3 148 302 15 
3 113 204 186 
3 73 303 58 
3 304 305 24 
3 69 85 152 
3 21 10 239 
3 273 67 255 
3 37 247 184 
3 44 176 118 
3 36 96 176 
3 176 96 118 
3 68 287 218 
3 306 51 252 
3 137 186 72 
3 159 70 128 
3 47 100 165 
3 95 215 307 
3 10 170 107 
3 308 62 31 
3 86 87 219 
3 87 154 309 
3 130 310 34 
3 237 257 311 
3 33 157 132 
3 91 185 245 
3 227 108 1 
3 1 108 167 
3 312 126 313 
3 170 35 82 
3 314 315 149 
3 263 13 97 
3 247 316 184 
3 119 317 318 
3 41 319 81 
3 109 37 69 
3 59 243 289 
3 91 114 101 
3 235 304 24 
3 10 107 206 
3 315 241 117 
3 21 15 320 
3 320 15 321 
3 139 186 283 
3 31 187 50 
3 243 242 253 
3 145 62 308 
3 102 116 175 
3 55 173 132 
3 55 132 20 
3 113 213 112 
3 322 323 178 
3 103 72 110 
3 132 246 33 
3 13 56 97 
3 146 45 105 
3 5 162 172 
3 182 57 129 
3 193 127 324 
3 193 324 325 
3 164 43 146 
3 42 282 326 
3 61 60 144 
3 145 83 62 
3 196 327 225 
3 151 156 233 
3 106 145 328 
3 249 116 102 
3 235 329 304 
3 293 249 294 
3 236 142 287 
3 330 223 205 
3 67 22 274 
3 34 197 130 
3 300 67 274 
3 228 331 127 
3 260 179 332 
3 184 333 85 
3 197 34 161 
3 158 119 318 
3 71 230 228 
3 223 291 278 
3 194 72 114 
3 74 194 114 
3 211 238 3 
3 158 220 2 
3 220 158 207 
3 78 66 198 
3 78 198 111 
3 160 175 80 
3 268 201 334 
3 231 80 74 
3 335 155 34 
3 233 157 33 
3 190 36 94 
3 133 290 284 
3 184 316 333 
3 83 232 86 
3 289 243 336 
3 88 337 70 
3 180 89 60 
3 265 109 338 
3 330 338 223 
3 90 332 179 
3 114 245 198 
3 91 245 114 
3 101 17 91 
3 37 316 247 
3 264 316 37 
3 223 152 291 
3 111 223 278 
3 339 149 340 
3 241 254 117 
3 67 64 197 
3 163 172 162 
3 341 98 92 
3 171 342 29 
3 151 233 33 
3 246 151 33 
3 206 107 100 
3 343 331 228 
3 230 343 228 
3 179 243 11 
3 17 229 143 
3 101 182 129 
3 92 36 344 
3 36 190 344 
3 186 204 283 
3 146 43 147 
3 59 202 266 
3 263 259 13 
3 52 242 140 
3 170 82 107 
3 118 311 135 
3 175 110 80 
3 223 111 205 
3 147 75 317 
3 213 113 137 
3 74 198 53 
3 190 94 65 
3 27 210 115 
3 76 269 18 
3 117 242 52 
3 170 212 35 
3 119 158 147 
3 217 54 257 
3 152 338 109 
3 241 155 254 
3 345 16 124 
3 121 346 7 
3 253 11 243 
3 56 347 296 
3 179 54 90 
3 90 348 332 
3 207 150 183 
3 92 349 341 
3 349 92 344 
3 157 292 63 
3 132 157 63 
3 350 134 351 
3 352 174 241 
3 46 159 128 
3 118 141 237 
3 237 141 258 
3 118 237 311 
3 12 178 323 
3 301 130 64 
3 239 206 47 
3 206 100 47 
3 138 231 53 
3 53 231 74 
3 47 165 8 
3 148 353 302 
3 239 47 8 
3 134 177 202 
3 290 17 143 
3 224 203 160 
3 105 164 146 
3 119 147 317 
3 249 102 68 
3 149 354 340 
3 23 57 0 
3 0 195 72 
3 105 240 164 
3 314 149 339 
3 355 251 39 
3 356 251 355 
3 96 144 141 
3 228 127 89 
3 224 325 203 
3 183 2 199 
3 313 126 299 
3 66 49 79 
3 69 152 109 
3 352 241 315 
3 154 250 84 
3 335 357 155 
3 234 155 357 
3 158 2 138 
3 116 249 28 
3 78 111 278 
3 94 36 176 
3 187 86 123 
3 155 234 4 
3 234 358 272 
3 267 70 359 
3 75 147 43 
3 189 4 360 
3 21 239 8 
3 54 179 11 
3 189 155 4 
3 142 361 287 
3 32 166 330 
3 237 217 257 
3 23 350 168 
3 54 256 90 
3 90 256 362 
3 160 80 231 
3 76 349 361 
3 155 6 254 
3 272 188 234 
3 358 234 357 
3 363 71 180 
3 78 49 66 
3 224 160 231 
3 45 146 5 
3 90 362 348 
3 127 331 324 
3 220 199 2 
3 5 138 162 
3 175 103 110 
3 117 52 149 
3 22 273 177 
3 315 117 149 
3 226 364 322 
3 213 280 48 
3 180 228 89 
3 182 101 195 
3 57 182 195 
3 197 255 67 
3 336 229 131 
3 134 59 42 
3 42 326 40 
3 243 179 260 
3 190 360 344 
3 252 238 201 
3 250 154 83 
3 216 272 365 
3 17 101 366 
3 131 17 366 
3 101 129 366 
3 155 189 6 
3 226 322 178 
3 190 189 360 
3 226 178 12 
3 242 243 192 
3 224 193 325 
3 195 101 72 
3 101 114 72 
3 185 32 245 
3 57 195 0 
3 183 193 231 
3 64 130 197 
3 295 46 58 
3 336 243 229 
3 74 114 198 
3 136 217 258 
3 134 42 351 
3 152 223 338 
3 301 310 130 
3 65 94 176 
3 349 18 341 
3 312 196 126 
3 180 61 98 
3 175 216 103 
3 356 248 251 
3 32 205 198 
3 330 205 32 
3 180 98 363 
3 97 56 248 
3 32 185 166 
3 225 319 41 
3 256 217 265 
3 149 52 354 
3 243 266 192 
3 51 3 238 
3 207 199 220 
3 110 72 194 
3 171 1 342 
3 197 161 255 
3 216 365 275 
3 301 64 67 
3 71 228 180 
3 13 259 221 
3 229 243 261 
3 23 134 350 
3 134 23 177 
3 58 46 128 
3 225 327 319 
3 203 325 269 
3 249 68 104 
3 342 1 367 
3 86 232 87 
3 127 193 183 
3 37 184 69 
3 69 184 85 
3 18 349 76 
3 42 209 351 
3 112 48 204 
3 217 240 14 
3 136 240 217 
3 53 162 138 
3 139 22 186 
3 66 79 93 
3 5 172 45 
3 17 133 91 
3 76 361 142 
3 368 298 122 
3 107 82 100 
3 158 318 207 
3 10 369 212 
3 16 227 1 
3 116 216 175 
3 272 216 116 
3 303 295 58 
3 302 370 15 
