ply
format ascii 1.0
comment VCGLIB generated
comment TextureFile Dungeons_2_Texture_01_A.png
element vertex 93
property float x
property float y
property float z
property float nx
property float ny
property float nz
property uchar red
property uchar green
property uchar blue
property uchar alpha
property float texture_u
property float texture_v
element face 96
property list uchar int vertex_indices
end_header
250 124.022 16.65115 0.4411541 -0.6450839 0.6238989 192 192 192 255 0.154292 0.826113
250 131.9044 26.30508 0.5810723 -0.2097186 0.7863671 192 192 192 255 0.154292 0.829465
250 204.0377 16.65115 0.893565 0.3218672 0.3129588 192 192 192 255 0.154292 0.860143
0 131.7372 26.30508 -0.3313772 -0.4834917 0.8102006 192 192 192 255 0.047967 0.579394
0 124.022 16.65115 -0.8935613 -0.3211598 0.3136952 192 192 192 255 0.047967 0.576113
0 196.3225 26.30508 -0.581534 0.2112773 0.7856082 192 192 192 255 0.047967 0.856862
0 204.0377 16.65115 -0.4410601 0.649354 0.6195204 192 192 192 255 0.047967 0.860143
0 0 31.19531 -0.5773503 -0.5773503 0.5773503 192 192 192 255 0.046456 0.772204
0 500 31.19531 -0.4850713 0.4850713 0.7276069 192 192 192 255 0.046456 0.990901
0 500 -14.2392 -0.8017837 0.2672613 -0.5345225 192 192 192 255 0.046456 0.990901
0 0 -14.2392 -0.904534 -0.3015113 -0.3015113 192 192 192 255 0.046456 0.772204
0 250 31.19531 -0.3225302 -0.1365625 0.9366563 192 192 192 255 0.046456 0.631552
250 286 31.19531 0.001139934 0.2951055 0.9554641 192 192 192 255 0.155804 0.897299
250 464 31.19531 0.4730563 -0.2830546 0.8343248 192 192 192 255 0.155804 0.725155
0 286 31.19531 -0.4699366 0.2832214 0.8360295 192 192 192 255 0.046456 0.647299
0 464 31.19531 -0.3321346 -0.2006049 0.921653 192 192 192 255 0.046456 0.975155
250 304.2 16.65115 0.4961075 0.565748 0.65864 192 192 192 255 0.155804 0.905259
250 445.8 16.65115 0.7070337 -0.4821502 0.5173341 192 192 192 255 0.155804 0.967194
0 304.2 16.65115 -0.0006516147 0.669375 0.7429245 192 192 192 255 0.046456 0.905259
0 445.8 16.65115 -0.0009168232 -0.6816785 0.7316512 192 192 192 255 0.046456 0.967194
0 221.4391 16.65115 -0.0002779819 -2.355128e-05 1 192 192 192 255 0.046456 0.61906
0 105.1522 16.65115 -0.0001667425 4.945108e-05 1 192 192 192 255 0.046456 0.568197
0 75.87138 31.19531 -0.2487223 0.2212919 0.9429566 192 192 192 255 0.046456 0.80539
250 250 31.19531 0.000330393 -0.0001399067 0.9999999 192 192 192 255 0.155804 0.631552
250 500 31.19531 0.5345225 0.2672613 0.8017837 192 192 192 255 0.155804 0.990901
250 500 -14.2392 0.9999999 0.0004569264 -0.0002284632 192 192 192 255 0.155804 0.990901
250 0 -14.2392 0.9999997 -0.0005564599 -0.0005564599 192 192 192 255 0.155804 0.772204
250 0 31.19531 0.5345225 -0.2672613 0.8017837 192 192 192 255 0.155804 0.772204
250 75.87138 31.19531 0.3230447 0.1437086 0.9354089 192 192 192 255 0.155804 0.80539
250 105.1522 16.65118 0.9999991 0.0004950897 0.001274962 192 192 192 255 0.155804 0.568197
250 221.4391 16.65118 0.9999994 -0.0002357555 0.001059858 192 192 192 255 0.155804 0.61906
250 196.3225 26.30508 0.3315254 0.4847406 0.8093933 192 192 192 255 0.154292 0.856862
105.1967 75.87138 31.19531 0.02617211 0.2422724 0.9698552 192 192 192 255 0.092468 0.55539
237.259 75.87138 31.19531 -0.02159689 0.2422855 0.9699646 192 192 192 255 0.150231 0.55539
164.7983 82.41922 27.94292 -3.892728e-11 0.2428625 0.9700608 192 192 192 255 0.118537 0.558254
164.9504 69.40155 31.19531 0 0.2418641 0.9703102 192 192 192 255 0.118604 0.80256
11.73999 75.87138 31.19531 0.03188037 0.2003255 0.9792106 192 192 192 255 0.051591 0.55539
79.11417 75.87138 31.19531 -0.05507687 0.1447809 0.9879297 192 192 192 255 0.081059 0.55539
51.39523 80.3054 28.99287 -2.246255e-11 0.1812666 0.983434 192 192 192 255 0.068935 0.557329
59.46738 68.24377 31.19531 0 0.1783541 0.9839664 192 192 192 255 0.072466 0.802054
154.6865 218.6859 16.65115 -7.065235e-09 -7.065636e-05 1 192 192 192 255 0.114114 0.617856
165.8607 252.3022 31.19531 5.058787e-07 -0.0004192505 0.9999999 192 192 192 255 0.119002 0.632559
57.67068 286 31.19531 0.02580042 0.129332 0.9912657 192 192 192 255 0.07168 0.647299
101.1064 277.2145 31.19531 0 0.1603775 0.9870558 192 192 192 255 0.090679 0.893456
117.8784 290.4517 29.04283 0.00255763 0.5436959 0.8392784 192 192 192 255 0.098015 0.649246
222.3547 464 31.19531 -0.02814776 -0.2370651 0.9710859 192 192 192 255 0.143712 0.725155
70.23254 464 31.19531 0.01859353 -0.1094318 0.9938204 192 192 192 255 0.077175 0.975155
105.6032 470.0941 31.19531 0.01254675 -0.1453929 0.9892945 192 192 192 255 0.092646 0.97782
158.6603 471.6309 31.19531 -0.0110559 -0.2118086 0.9772487 192 192 192 255 0.115852 0.728492
177.9521 458.5975 28.58315 1.566053e-06 -0.527047 0.8498362 192 192 192 255 0.124291 0.722792
126.1738 124.022 16.65115 0.003665318 -0.7165153 0.6975617 192 192 192 255 0.101629 0.576113
112.261 134.9769 26.30508 -0.00129706 -0.3896151 0.9209769 192 192 192 255 0.095712 0.580752
140.0865 193.1672 26.30508 0.001353349 0.3920533 0.9199415 192 192 192 255 0.107546 0.606339
126.1738 204.0377 16.65115 -0.003594168 0.7191525 0.6948429 192 192 192 255 0.101629 0.610143
0 124.022 16.65115 -0.8935613 -0.3211598 0.3136952 192 192 192 255 0.047967 0.826113
0 131.7372 26.30508 -0.3313772 -0.4834917 0.8102006 192 192 192 255 0.047967 0.829394
0 250 31.19531 -0.3225302 -0.1365625 0.9366563 192 192 192 255 0.046456 0.881552
165.8607 252.3022 31.19531 5.058787e-07 -0.0004192505 0.9999999 192 192 192 255 0.119002 0.882559
0 445.8 16.65115 -0.0009168232 -0.6816785 0.7316512 192 192 192 255 0.046456 0.717194
70.23254 464 31.19531 0.01859353 -0.1094318 0.9938204 192 192 192 255 0.077175 0.725155
0 464 31.19531 -0.3321346 -0.2006049 0.921653 192 192 192 255 0.046456 0.725155
250 304.2 16.65115 0.4961075 0.565748 0.65864 192 192 192 255 0.155804 0.655259
0 304.2 16.65115 -0.0006516147 0.669375 0.7429245 192 192 192 255 0.046456 0.655259
0 221.4391 16.65115 -0.0002779819 -2.355128e-05 1 192 192 192 255 0.046456 0.86906
0 286 31.19531 -0.4699366 0.2832214 0.8360295 192 192 192 255 0.046456 0.897299
0 105.1522 16.65115 -0.0001667425 4.945108e-05 1 192 192 192 255 0.046456 0.818197
250 105.1522 16.65118 0.9999991 0.0004950897 0.001274962 192 192 192 255 0.155804 0.818197
0 204.0377 16.65115 -0.4410601 0.649354 0.6195204 192 192 192 255 0.047967 0.610143
0 196.3225 26.30508 -0.581534 0.2112773 0.7856082 192 192 192 255 0.047967 0.606862
112.261 134.9769 26.30508 -0.00129706 -0.3896151 0.9209769 192 192 192 255 0.095712 0.830772
140.0865 193.1672 26.30508 0.001353349 0.3920533 0.9199415 192 192 192 255 0.107546 0.85552
164.9504 69.40155 31.19531 0 0.2418641 0.9703102 192 192 192 255 0.118604 0.55256
59.46738 68.24377 31.19531 0 0.1783541 0.9839664 192 192 192 255 0.072466 0.552054
250 250 31.19531 0.000330393 -0.0001399067 0.9999999 192 192 192 255 0.155804 0.881552
0 75.87138 31.19531 -0.2487223 0.2212919 0.9429566 192 192 192 255 0.046456 0.55539
250 75.87138 31.19531 0.3230447 0.1437086 0.9354089 192 192 192 255 0.155804 0.55539
237.259 75.87138 31.19531 -0.02159689 0.2422855 0.9699646 192 192 192 255 0.150231 0.80539
105.1967 75.87138 31.19531 0.02617211 0.2422724 0.9698552 192 192 192 255 0.092468 0.80539
79.11417 75.87138 31.19531 -0.05507687 0.1447809 0.9879297 192 192 192 255 0.081059 0.80539
11.73999 75.87138 31.19531 0.03188037 0.2003255 0.9792106 192 192 192 255 0.051591 0.80539
101.1064 277.2145 31.19531 0 0.1603775 0.9870558 192 192 192 255 0.090679 0.643456
250 286 31.19531 0.001139934 0.2951055 0.9554641 192 192 192 255 0.155804 0.647299
57.67068 286 31.19531 0.02580042 0.129332 0.9912657 192 192 192 255 0.07168 0.897299
105.6032 470.0941 31.19531 0.01254675 -0.1453929 0.9892945 192 192 192 255 0.092646 0.72782
250 445.8 16.65115 0.7070337 -0.4821502 0.5173341 192 192 192 255 0.155804 0.717194
158.6603 471.6309 31.19531 -0.0110559 -0.2118086 0.9772487 192 192 192 255 0.115852 0.978492
222.3547 464 31.19531 -0.02814776 -0.2370651 0.9710859 192 192 192 255 0.143712 0.975155
250 464 31.19531 0.4730563 -0.2830546 0.8343248 192 192 192 255 0.155804 0.975155
250 221.4391 16.65118 0.9999994 -0.0002357555 0.001059858 192 192 192 255 0.155804 0.86906
250 124.022 16.65115 0.4411541 -0.6450839 0.6238989 192 192 192 255 0.154292 0.576113
250 131.9044 26.30508 0.5810723 -0.2097186 0.7863671 192 192 192 255 0.154292 0.579465
250 196.3225 26.30508 0.3315254 0.4847406 0.8093933 192 192 192 255 0.154292 0.606862
250 204.0377 16.65115 0.893565 0.3218672 0.3129588 192 192 192 255 0.154292 0.610143
3 3 4 50 
3 3 50 51 
3 54 55 5 
3 54 5 6 
3 11 20 40 
3 11 40 41 
3 7 10 26 
3 7 26 27 
3 9 25 26 
3 9 26 10 
3 16 17 19 
3 16 19 18 
3 47 8 15 
3 47 15 46 
3 56 57 12 
3 56 12 43 
3 58 49 59 
3 58 59 60 
3 61 62 44 
3 42 44 62 
3 42 62 14 
3 21 40 20 
3 29 21 38 
3 29 38 34 
3 39 7 27 
3 39 27 35 
3 19 15 8 
3 19 8 9 
3 18 63 56 
3 18 56 64 
3 65 10 7 
3 65 7 22 
3 63 9 10 
3 63 10 65 
3 19 9 63 
3 19 63 18 
3 8 24 25 
3 8 25 9 
3 27 26 66 
3 27 66 28 
3 52 53 67 
3 52 67 68 
3 69 70 5 
3 69 5 55 
3 71 34 32 
3 72 38 36 
3 37 38 72 
3 33 34 71 
3 30 40 21 
3 30 21 29 
3 41 40 30 
3 41 30 23 
3 12 57 73 
3 38 21 74 
3 38 74 36 
3 34 38 37 
3 34 37 32 
3 29 34 33 
3 29 33 75 
3 35 27 28 
3 35 28 76 
3 39 35 77 
3 39 77 78 
3 22 7 39 
3 22 39 79 
3 80 44 42 
3 81 44 80 
3 61 44 81 
3 56 43 82 
3 56 82 64 
3 48 49 45 
3 59 49 83 
3 83 49 48 
3 84 13 45 
3 84 45 49 
3 84 49 58 
3 8 47 85 
3 8 85 24 
3 24 85 86 
3 24 86 87 
3 1 0 2 
3 1 2 31 
3 17 25 24 
3 17 24 87 
3 17 16 25 
3 88 16 12 
3 88 12 73 
3 25 16 88 
3 25 88 26 
3 66 26 88 
3 51 50 89 
3 51 89 90 
3 1 31 70 
3 1 70 69 
3 91 92 53 
3 91 53 52 
