ply
format ascii 1.0
comment VCGLIB generated
comment TextureFile Dungeons_2_Texture_01_A.png
element vertex 471
property float x
property float y
property float z
property float nx
property float ny
property float nz
property uchar red
property uchar green
property uchar blue
property uchar alpha
property float texture_u
property float texture_v
element face 356
property list uchar int vertex_indices
end_header
50 33.51131 50 0.4452188 0.8954216 0.0006180634 192 192 192 255 0.203016 0.845024
50 33.51131 -50 0.2352188 0.943294 -0.2342403 192 192 192 255 0.203016 0.942798
-50 33.51131 -50 -0.0007454297 0.8953997 -0.4452627 192 192 192 255 0.138702 0.909338
-50 33.51131 50 -0.3283189 0.8561637 0.3989867 192 192 192 255 0.138702 0.845024
39.78806 47.6995 39.78805 0.5726753 0.3569534 0.7379888 192 192 192 255 0.089073 0.820689
39.78806 47.6995 -39.78805 0.5197929 0.4630084 -0.7179404 192 192 192 255 0.196448 0.933673
-39.78806 47.6995 -39.78805 -0.793591 0.329768 -0.5113379 192 192 192 255 0.14527 0.933673
-39.78806 47.6995 39.78805 -0.7210788 0.4817287 0.4979787 192 192 192 255 0.233083 0.820689
62.09261 0 -62.09265 0.9508365 -0.0001867734 -0.3096935 192 192 192 255 0.210793 0.837247
62.09261 0 62.09265 0.9999998 -0.0005856781 0.000292839 192 192 192 255 0.162016 0.837247
62.09257 13.28243 -62.09265 0.6557786 0.06437622 -0.7522035 192 192 192 255 0.169168 0.837247
62.09261 27.49798 62.09265 0.9850079 0.1725086 0.0003362052 192 192 192 255 0.210793 0.837247
-62.09266 27.49798 -62.09265 -0.0005043257 0.3398521 -0.9404788 192 192 192 255 0.130925 0.917115
-62.09266 0 -62.09265 -0.0003048855 -0.0003048855 -0.9999999 192 192 192 255 0.162017 0.917115
-62.09266 0 62.09265 -0.4082483 -0.4082483 0.8164966 192 192 192 255 0.162017 0.837247
-62.09266 27.49798 62.09265 -0.5971323 0.655972 0.4616643 192 192 192 255 0.130925 0.837247
19.89602 88.23941 -39.78805 0.4988383 0.7036854 -0.5059518 192 192 192 255 0.183655 0.9076
39.78806 88.23941 -19.89601 0.9985924 0.04323331 -0.03072525 192 192 192 255 0.127458 0.846761
39.78806 74.17361 -39.78805 0.5031081 0.7039542 -0.501329 192 192 192 255 0.140251 0.837715
-19.89602 88.23941 39.78805 -0.1296956 0.1829708 0.9745259 192 192 192 255 0.158063 0.846761
-39.78806 88.23941 19.89601 -0.9894296 0.118201 0.08400967 192 192 192 255 0.220289 0.846761
-39.78806 74.17361 39.78805 -0.5022098 0.7026975 0.5039857 192 192 192 255 0.233083 0.837715
19.89602 88.23941 39.78805 0.3709314 0.03110104 0.9281393 192 192 192 255 0.183655 0.846761
39.78806 74.17361 39.78805 0.5031081 0.7039542 0.501329 192 192 192 255 0.089073 0.837715
39.78806 88.23941 19.89601 0.9321645 0.08672731 0.3514934 192 192 192 255 0.101866 0.846761
-39.78806 88.23941 -19.89601 -0.9984834 0.04491307 -0.0318386 192 192 192 255 0.194698 0.846761
-19.89602 88.23941 -39.78805 -0.5003624 0.7040605 -0.503921 192 192 192 255 0.158063 0.9076
-39.78806 74.17361 -39.78805 -0.5022098 0.7026975 -0.5039857 192 192 192 255 0.181904 0.837715
50 466.4887 50 0.0007500681 -0.895475 0.4451114 192 192 192 255 0.203016 0.909338
50 466.4887 -50 0.001331039 -0.8956067 -0.4448448 192 192 192 255 0.203016 0.845024
-50 466.4887 -50 -0.2967101 -0.9395245 -0.1710466 192 192 192 255 0.138702 0.845024
-50 466.4887 50 -0.2436909 -0.9431856 0.2258663 192 192 192 255 0.138702 0.909338
39.78806 452.3005 39.78805 0.5726752 -0.3569537 0.7379887 192 192 192 255 0.14527 0.933673
39.78806 452.3005 -39.78805 0.5197928 -0.4630088 -0.7179404 192 192 192 255 0.140252 0.820689
-39.78806 452.3005 -39.78805 -0.7935908 -0.3297682 -0.5113379 192 192 192 255 0.089073 0.820689
-39.78806 452.3005 39.78805 -0.7210786 -0.481729 0.4979787 192 192 192 255 0.196448 0.933673
62.09261 500 -62.09265 0.0002514257 0.0002514257 -0.9999999 192 192 192 255 0.179702 0.837247
62.09261 500 62.09265 0.0003017746 0.0003017746 0.9999999 192 192 192 255 0.179702 0.917115
62.09261 472.502 -62.09265 0.003354043 -0.340514 -0.9402335 192 192 192 255 0.210793 0.837247
62.09261 472.502 62.09265 0.0005101694 -0.3398569 0.940477 192 192 192 255 0.210793 0.917115
-62.09266 472.502 -62.09265 -0.9708838 -0.1935021 -0.1412147 192 192 192 255 0.130925 0.837247
-62.09266 500 -62.09265 -0.5266898 0.0003084707 -0.8500575 192 192 192 255 0.160639 0.917115
-62.09266 500 62.09265 -0.932082 0.0001667907 0.3622475 192 192 192 255 0.18078 0.837247
-62.09266 482.5193 62.09265 -0.6583126 -0.07527818 0.7489712 192 192 192 255 0.169538 0.837247
19.89602 425.5851 -39.78805 0.4999135 -0.703429 -0.5052467 192 192 192 255 0.127458 0.83787
39.78806 425.5851 -19.89601 0.5059518 -0.7036854 -0.4988383 192 192 192 255 0.183655 0.916491
39.78806 439.6509 -39.78805 0.5031081 -0.7039542 -0.501329 192 192 192 255 0.196448 0.925538
-19.89602 425.5851 39.78805 -0.7057547 -0.05669721 0.706184 192 192 192 255 0.070567 0.916491
-39.78806 425.5851 19.89601 -0.888878 -0.2222207 0.4006417 192 192 192 255 0.183655 0.916491
-39.78806 439.6509 39.78805 -0.5022098 -0.7026975 0.5039857 192 192 192 255 0.196448 0.925538
19.89602 425.5851 39.78805 0.499287 -0.7043183 0.5046269 192 192 192 255 0.096159 0.916491
39.78806 439.6509 39.78805 0.5031081 -0.7039542 0.501329 192 192 192 255 0.14527 0.925538
39.78806 425.5851 19.89601 0.503921 -0.7040605 0.5003624 192 192 192 255 0.158063 0.916491
-39.78806 425.5851 -19.89601 -0.9991595 -0.03341324 -0.02374615 192 192 192 255 0.158063 0.916491
-19.89602 425.5851 -39.78805 -0.499287 -0.7043183 -0.5046269 192 192 192 255 0.101866 0.83787
-39.78806 439.6509 -39.78805 -0.5022098 -0.7026975 -0.5039857 192 192 192 255 0.14527 0.925538
-19.89602 273.891 39.78805 -0.7047676 0.07837919 0.7050954 192 192 192 255 0.196448 0.818931
-19.89602 226.109 39.78805 -0.03348239 -0.1227967 0.9918669 192 192 192 255 0.158063 0.935431
-39.78806 226.109 19.89601 -0.9827904 -0.1782755 0.04838329 192 192 192 255 0.220289 0.935431
-39.78806 273.891 19.89601 -0.9907157 0.04954481 0.1266004 192 192 192 255 0.183655 0.818931
-39.78806 226.109 -19.89601 -0.9981903 -0.05801512 -0.01582207 192 192 192 255 0.194698 0.935431
-39.78806 273.891 -19.89601 -0.9969081 0.0758337 -0.02057947 192 192 192 255 0.158063 0.818931
-19.89602 226.109 -39.78805 -0.2529764 -0.932198 -0.2588626 192 192 192 255 0.158063 0.818931
-19.89602 273.891 -39.78805 -0.2540737 0.9316177 -0.259875 192 192 192 255 0.14527 0.818931
19.89602 226.109 -39.78805 0.2540737 -0.9316177 -0.259875 192 192 192 255 0.183655 0.818931
19.89602 273.891 -39.78805 0.2529764 0.932198 -0.2588626 192 192 192 255 0.127458 0.935431
39.78806 226.109 -19.89601 0.9966496 -0.07893546 -0.02142159 192 192 192 255 0.127458 0.935431
39.78806 273.891 -19.89601 0.259875 0.9316177 -0.2540737 192 192 192 255 0.183655 0.818931
39.78806 226.109 19.89601 0.9277954 -0.1593781 0.3373344 192 192 192 255 0.101866 0.935431
39.78806 273.891 19.89601 0.2588626 0.932198 0.2529764 192 192 192 255 0.158063 0.818931
19.89602 226.109 39.78805 0.2547246 -0.03739732 0.9662902 192 192 192 255 0.183655 0.935431
19.89602 273.891 39.78805 0.2539422 0.9311355 0.261725 192 192 192 255 0.14527 0.818931
-41.62174 267.5293 41.62173 -0.2568664 0.9311587 0.2587722 192 192 192 255 0.056594 0.81484
-41.62174 232.4707 41.62173 -0.2587722 -0.9311588 0.2568664 192 192 192 255 0.14409 0.939522
41.62174 232.4707 41.62173 0.2551431 -0.9321089 0.2570508 192 192 192 255 0.197628 0.939522
41.62174 267.5293 41.62173 0.2570508 0.9321088 0.2551431 192 192 192 255 0.110131 0.81484
-41.62174 267.5293 -41.62173 -0.2569202 0.9316352 -0.2569979 192 192 192 255 0.14409 0.81484
-41.62174 232.4707 -41.62173 -0.2550125 -0.9316317 -0.2589037 192 192 192 255 0.180725 0.939522
41.62174 267.5293 -41.62173 0.2569979 0.9316351 -0.2569202 192 192 192 255 0.141431 0.939522
41.62174 232.4707 -41.62173 0.2589037 -0.9316317 -0.2550125 192 192 192 255 0.197628 0.814839
-41.62174 262.4356 41.62173 -0.5126703 0.7617836 0.3960491 192 192 192 255 0.197628 0.811564
-41.62174 237.5643 41.62173 -0.3960496 -0.7617826 0.5126715 192 192 192 255 0.14409 0.942798
-41.62174 237.5643 -41.62173 -0.6780764 -0.6521239 -0.3390382 192 192 192 255 0.180725 0.942798
-41.62174 262.4356 -41.62173 -0.5925659 0.6682791 -0.449743 192 192 192 255 0.14409 0.811564
41.62174 237.5643 -41.62173 0.3390382 -0.6521239 -0.6780764 192 192 192 255 0.197628 0.811564
41.62174 262.4356 -41.62173 0.449743 0.6682791 -0.592566 192 192 192 255 0.141431 0.942798
41.62174 237.5643 41.62173 0.6140482 -0.5905463 0.5236411 192 192 192 255 0.197628 0.942798
41.62174 262.4356 41.62173 0.5236408 0.5905472 0.6140476 192 192 192 255 0.14409 0.811564
-46.93034 259.9976 46.93034 -0.3390378 0.6521249 0.6780757 192 192 192 255 0.177289 0.907363
-46.93034 240.0024 46.93034 -0.6780764 -0.6521239 0.3390382 192 192 192 255 0.164429 0.907363
46.93034 240.0024 46.93034 0.3390382 -0.6521239 0.6780764 192 192 192 255 0.164429 0.846998
46.93034 259.9976 46.93034 0.6780756 0.6521249 0.3390378 192 192 192 255 0.177289 0.846998
-46.93034 259.9976 -46.93034 -0.6780756 0.6521249 -0.3390378 192 192 192 255 0.177289 0.907363
-46.93034 240.0024 -46.93034 -0.3390382 -0.6521239 -0.6780764 192 192 192 255 0.164429 0.907363
46.93034 259.9976 -46.93034 0.3390378 0.6521249 -0.6780757 192 192 192 255 0.164429 0.846998
46.93034 240.0024 -46.93034 0.6780764 -0.6521239 -0.3390382 192 192 192 255 0.177289 0.846998
-34.91345 74.17362 34.91345 -0.7439754 0 0.668207 192 192 192 255 0.042498 0.535488
34.91345 74.17362 34.91345 0.3931218 0 0.9194865 192 192 192 255 0.087407 0.535488
-34.91345 439.6509 34.91345 -0.6846784 0 0.7288453 192 192 192 255 0.042498 0.729438
34.91345 439.6509 34.91345 0.9983289 0 0.05778738 192 192 192 255 0.087407 0.729438
-34.91345 439.6509 -34.91345 -0.7071068 0 -0.7071068 192 192 192 255 0.073798 0.535488
34.91345 439.6509 -34.91345 0.4518377 0 -0.8921002 192 192 192 255 0.118706 0.535488
-34.91345 74.17362 -34.91345 -0.1013186 0 -0.994854 192 192 192 255 0.073798 0.729438
34.91345 74.17362 -34.91345 0.891804 0 -0.452422 192 192 192 255 0.118706 0.729438
62.09266 0 28.2849 -3.633031e-07 -0.4472144 0.8944268 192 192 192 255 0.169656 0.85583
62.09266 0 -28.28495 -3.92006e-08 -0.7071068 -0.7071068 192 192 192 255 0.169656 0.898531
39.78805 55.61514 -28.28495 0.002447523 0.003395743 -0.9999912 192 192 192 255 0.155311 0.862763
39.78805 66.39432 -20.89344 0.5644246 0.7787278 -0.2738757 192 192 192 255 0.184296 0.892729
39.78805 66.39432 20.89333 0.4902358 0.6779684 0.5477479 192 192 192 255 0.157422 0.892729
39.78805 55.61514 28.28493 0.001226792 0.001702008 0.9999979 192 192 192 255 0.155311 0.891599
88.13783 0 20.89333 0.775438 -0.5888937 0.2278159 192 192 192 255 0.160798 0.890618
88.13783 0 -20.89344 0.7907953 -0.4840997 -0.3745535 192 192 192 255 0.160798 0.863743
88.13783 31.28656 -20.89344 0.7899525 0.3199511 -0.5230739 192 192 192 255 0.18092 0.863743
88.13783 31.28656 20.89333 0.7718832 0.4337531 0.4648167 192 192 192 255 0.18092 0.890618
79.11092 0 -28.28495 0.3064575 -0.7255856 -0.6161245 192 192 192 255 0.180601 0.898531
79.11092 27.52925 -28.28495 0.003228396 0.001686992 -0.9999934 192 192 192 255 0.180601 0.880826
79.11092 27.52925 28.28493 0.004433802 0.003365885 0.9999845 192 192 192 255 0.180601 0.873536
79.11092 0 28.2849 0.3064593 -0.7255862 0.6161229 192 192 192 255 0.180601 0.85583
39.78805 47.69949 -28.28495 -9.687651e-08 1.097498e-10 -1 192 192 192 255 0.155311 0.867854
39.78805 47.69949 28.28493 -1.300767e-09 -3.633407e-09 1 192 192 192 255 0.155311 0.886508
28.2849 0 -62.09266 0.8944268 -0.4472144 3.633031e-07 192 192 192 255 0.169656 0.85583
-28.28495 0 -62.09266 -0.7071068 -0.7071068 3.92006e-08 192 192 192 255 0.172062 0.85583
-28.28495 55.61514 -39.78805 -0.915033 0.3271703 -0.2359536 192 192 192 255 0.186407 0.891599
-20.89344 66.39432 -39.78805 -0.1746351 0.7967451 -0.5785325 192 192 192 255 0.159128 0.861633
20.89333 66.39432 -39.78805 0.0004998482 0.8091803 -0.5875603 192 192 192 255 0.186002 0.861633
28.28493 55.61514 -39.78805 0.9999979 0.001702008 -0.001226792 192 192 192 255 0.155311 0.891599
20.89333 0 -88.13783 0.2278159 -0.5888937 -0.775438 192 192 192 255 0.18092 0.863743
-20.89344 0 -88.13783 -0.3745535 -0.4840997 -0.7907953 192 192 192 255 0.18092 0.890618
-20.89344 31.28656 -88.13783 -0.1687787 0.795607 -0.5818276 192 192 192 255 0.160798 0.890618
20.89333 31.28656 -88.13783 0.0006877808 0.8088577 -0.5880041 192 192 192 255 0.160798 0.863743
-28.28495 0 -79.11092 -0.6161245 -0.7255856 -0.3064575 192 192 192 255 0.161117 0.85583
-28.28495 27.52925 -79.11092 -0.8817753 0.3830665 -0.2751952 192 192 192 255 0.161117 0.873536
28.28493 27.52925 -79.11092 0.9999845 0.003365886 -0.004433802 192 192 192 255 0.180601 0.873536
28.2849 0 -79.11092 0.6161229 -0.7255862 -0.3064593 192 192 192 255 0.180601 0.85583
-28.28495 47.69949 -39.78805 -1 1.097498e-10 9.687651e-08 192 192 192 255 0.186407 0.886508
28.28493 47.69949 -39.78805 1 -3.633407e-09 1.300767e-09 192 192 192 255 0.155311 0.886508
-62.09266 0 -28.2849 3.633031e-07 -0.4472144 -0.8944268 192 192 192 255 0.172062 0.898531
-62.09266 0 28.28495 3.92006e-08 -0.7071068 0.7071068 192 192 192 255 0.172062 0.85583
-39.78805 55.61514 28.28495 -0.002447523 0.003395743 0.9999912 192 192 192 255 0.186407 0.891599
-39.78805 66.39432 20.89344 -0.5644246 0.7787278 0.2738757 192 192 192 255 0.157422 0.861633
-39.78805 66.39432 -20.89333 -0.4902358 0.6779684 -0.5477479 192 192 192 255 0.184296 0.861633
-39.78805 55.61514 -28.28493 -0.001226792 0.001702008 -0.9999979 192 192 192 255 0.186407 0.862763
-88.13783 0 -20.89333 -0.775438 -0.5888937 -0.2278159 192 192 192 255 0.160798 0.890618
-88.13783 0 20.89344 -0.7907953 -0.4840997 0.3745535 192 192 192 255 0.160798 0.863743
-88.13783 31.28656 20.89344 -0.7899525 0.3199511 0.5230739 192 192 192 255 0.18092 0.863743
-88.13783 31.28656 -20.89333 -0.7718832 0.4337531 -0.4648167 192 192 192 255 0.18092 0.890618
-79.11092 0 28.28495 -0.3064575 -0.7255856 0.6161245 192 192 192 255 0.161117 0.85583
-79.11092 27.52925 28.28495 -0.003228396 0.001686992 0.9999934 192 192 192 255 0.161117 0.873536
-79.11092 27.52925 -28.28493 -0.004433802 0.003365885 -0.9999845 192 192 192 255 0.161117 0.880826
-79.11092 0 -28.2849 -0.3064593 -0.7255862 -0.6161229 192 192 192 255 0.161117 0.898531
-39.78805 47.69949 28.28495 9.687651e-08 1.097498e-10 1 192 192 192 255 0.186407 0.886508
-39.78805 47.69949 -28.28493 1.300767e-09 -3.633407e-09 -1 192 192 192 255 0.186407 0.867854
-28.2849 0 62.09266 -0.8944268 -0.4472144 -3.633031e-07 192 192 192 255 0.169656 0.85583
28.28495 0 62.09266 0.7071068 -0.7071068 -3.92006e-08 192 192 192 255 0.172062 0.85583
28.28495 55.61514 39.78805 0.9999912 0.003395743 0.002447523 192 192 192 255 0.186407 0.891599
20.89344 66.39432 39.78805 0.0002121861 0.8091798 0.5875611 192 192 192 255 0.184296 0.892729
-20.89333 66.39432 39.78805 -0.0004559198 0.8091802 0.5875605 192 192 192 255 0.157422 0.892729
-28.28493 55.61514 39.78805 -0.9999979 0.001702008 0.001226792 192 192 192 255 0.155311 0.891599
-20.89333 0 88.13783 -0.0005424528 -0.001402216 0.9999989 192 192 192 255 0.159179 0.890618
20.89344 0 88.13783 0.0004324296 -0.0005589029 0.9999998 192 192 192 255 0.159179 0.863743
20.89344 31.28656 88.13783 0.003106748 0.588393 0.8085691 192 192 192 255 0.179301 0.863743
-20.89333 31.28656 88.13783 0.03586064 0.5792921 0.8143309 192 192 192 255 0.179301 0.890618
28.28495 0 79.11092 0.6161245 -0.7255856 0.3064575 192 192 192 255 0.161117 0.85583
28.28495 27.52925 79.11092 0.9999934 0.001686992 0.003228396 192 192 192 255 0.161117 0.873536
-28.28493 27.52925 79.11092 -0.9999845 0.003365886 0.004433802 192 192 192 255 0.180601 0.873536
-28.2849 0 79.11092 -0.6161229 -0.7255862 0.3064593 192 192 192 255 0.180601 0.85583
28.28495 47.69949 39.78805 1 1.097498e-10 -9.687651e-08 192 192 192 255 0.186407 0.886508
-28.28493 47.69949 39.78805 -1 -3.633407e-09 -1.300767e-09 192 192 192 255 0.155311 0.886508
34.91345 347.1347 34.91345 0.7508152 0.001747894 0.6605101 192 192 192 255 0.087407 0.680342
34.91345 417.5205 34.91345 0.102971 -0.01282626 0.9946017 192 192 192 255 0.087407 0.717694
34.91345 383.7124 26.96291 1 0 1.410643e-06 192 192 192 255 0.135108 0.699753
27.86563 383.0691 34.91345 0.1131299 -7.7118e-10 0.9935802 192 192 192 255 0.082874 0.699411
34.91333 383.7124 26.96291 0.7483116 -2.720994e-09 0.6633474 192 192 192 255 0.149992 0.63441
-31.99015 472.502 -62.09265 0.02763193 -0.377446 -0.9256193 192 192 192 255 0.150285 0.837247
41.63757 472.502 -62.09265 -0.01708262 -0.223269 -0.9746072 192 192 192 255 0.197638 0.837247
-0.304941 482.767 -62.09265 3.147043e-09 -0.2615467 -0.9651908 192 192 192 255 0.171723 0.877377
2.373028 468.2196 -53.48082 2.758788e-09 -0.7592221 -0.6508316 192 192 192 255 0.172385 0.842785
-62.09266 472.502 22.1133 -0.681379 -0.7317036 0.01823623 192 192 192 255 0.130925 0.891403
-41.90498 472.502 62.09265 -0.0103483 -0.4152113 0.9096661 192 192 192 255 0.143908 0.917115
-55.34774 469.1479 55.34773 -0.6269898 -0.7117922 0.3166002 192 192 192 255 0.135263 0.912777
-34.91345 115.6153 -34.91345 -0.9896016 0.002183493 -0.1438195 192 192 192 255 0.073798 0.707446
-34.91345 196.7671 -34.91345 -0.7060899 -0.002208954 -0.7081189 192 192 192 255 0.073798 0.66438
-34.91345 169.2665 -26.71622 -1 0 -1.91881e-06 192 192 192 255 0.171901 0.585951
-26.85718 167.6639 -34.91345 -0.1165931 0 -0.9931798 192 192 192 255 0.078979 0.679825
-34.91333 169.2665 -26.71622 -0.7132122 4.664306e-10 -0.7009482 192 192 192 255 0.073798 0.678974
39.78806 154.7932 19.89601 0.9520472 0.003984489 0.3059253 192 192 192 255 0.101866 0.889565
39.78807 188.4399 11.24582 0.9995894 0 0.02865583 192 192 192 255 0.10743 0.911204
36.34325 185.8996 23.34082 0.7541111 0 0.656747 192 192 192 255 0.194233 0.90957
-39.78806 403.7875 19.89601 -0.9469134 -0.007454785 0.3214024 192 192 192 255 0.183655 0.902472
-39.78806 327.8011 19.89601 -0.869043 0.00295479 0.4947278 192 192 192 255 0.183655 0.853603
-35.61723 374.2751 24.0668 -0.8025997 0 0.5965179 192 192 192 255 0.186337 0.883492
-39.78806 374.005 13.02382 -0.9955298 0 0.0944476 192 192 192 255 0.179235 0.883318
-18.26481 134.129 39.78805 -0.0001929385 1.02774e-06 1 192 192 192 255 0.159112 0.876275
-39.78806 164.3658 19.89601 -1 -5.054619e-07 0.0001969498 192 192 192 255 0.220289 0.895721
8.931726 31.28656 88.13783 -0.03024101 0.5474336 0.8363025 192 192 192 255 0.179301 0.871436
-1.210405 36.32156 81.20372 -3.422388e-09 0.7765841 0.6300136 192 192 192 255 0.170081 0.866093
-3.910158 21.40232 88.13783 0 0.08618587 0.9962791 192 192 192 255 0.172944 0.879696
-20.89344 40.59861 -75.31344 -0.2108027 0.8100346 -0.5471803 192 192 192 255 0.159128 0.884481
-20.89344 61.95796 -45.89772 -0.1938467 0.7683764 -0.6099355 192 192 192 255 0.159128 0.865562
-26.19852 47.55354 -55.10798 -0.5679887 0.6672693 -0.4818096 192 192 192 255 0.176554 0.886414
-9.237242 50.43421 -61.76802 -0.05385511 0.8080052 -0.586709 192 192 192 255 0.166624 0.875769
62.09261 27.49798 -41.53973 0.7404562 0.6714064 -0.03062936 192 192 192 255 0.17831 0.850465
43.11002 27.49798 -62.09265 0.01777986 0.3897421 -0.9207524 192 192 192 255 0.163408 0.849455
53.3927 31.82421 -53.39272 0.561186 0.6453108 -0.5183091 192 192 192 255 0.181093 0.842842
53.3927 31.82421 -53.39272 0.561186 0.6453108 -0.5183091 192 192 192 255 0.160625 0.842842
62.09257 13.28243 -62.09265 0.6557786 0.06437622 -0.7522035 192 192 192 255 0.17255 0.837247
-50 33.51131 -50 -0.0007454297 0.8953997 -0.4452627 192 192 192 255 0.138702 0.942798
50 33.51131 50 0.4452188 0.8954216 0.0006180634 192 192 192 255 0.082505 0.811564
50 33.51131 -50 0.2352188 0.943294 -0.2342403 192 192 192 255 0.146819 0.811564
39.78806 47.6995 -39.78805 0.5197929 0.4630084 -0.7179404 192 192 192 255 0.140251 0.820689
-50 33.51131 -50 -0.0007454297 0.8953997 -0.4452627 192 192 192 255 0.175337 0.811564
-50 33.51131 50 -0.3283189 0.8561637 0.3989867 192 192 192 255 0.23965 0.811564
-39.78806 47.6995 -39.78805 -0.793591 0.329768 -0.5113379 192 192 192 255 0.181904 0.820689
39.78806 47.6995 39.78805 0.5726753 0.3569534 0.7379888 192 192 192 255 0.196448 0.820689
-39.78806 47.6995 39.78805 -0.7210788 0.4817287 0.4979787 192 192 192 255 0.14527 0.820689
-50 33.51131 50 -0.3283189 0.8561637 0.3989867 192 192 192 255 0.138702 0.811564
50 33.51131 50 0.4452188 0.8954216 0.0006180634 192 192 192 255 0.203016 0.811564
-62.09266 27.49798 62.09265 -0.5971323 0.655972 0.4616643 192 192 192 255 0.179702 0.837247
-62.09266 27.49798 -62.09265 -0.0005043257 0.3398521 -0.9404788 192 192 192 255 0.179702 0.917115
-62.09266 0 62.09265 -0.4082483 -0.4082483 0.8164966 192 192 192 255 0.162016 0.917115
62.09261 27.49798 62.09265 0.9850079 0.1725086 0.0003362052 192 192 192 255 0.179702 0.837247
-62.09266 27.49798 62.09265 -0.5971323 0.655972 0.4616643 192 192 192 255 0.179702 0.917115
62.09261 0 62.09265 0.9999998 -0.0005856781 0.000292839 192 192 192 255 0.210793 0.917115
-62.09266 0 62.09265 -0.4082483 -0.4082483 0.8164966 192 192 192 255 0.130925 0.917115
-62.09266 0 -62.09265 -0.0003048855 -0.0003048855 -0.9999999 192 192 192 255 0.130925 0.837247
-39.78806 74.17361 39.78805 -0.5022098 0.7026975 0.5039857 192 192 192 255 0.14527 0.837715
39.78806 74.17361 39.78805 0.5031081 0.7039542 0.501329 192 192 192 255 0.196448 0.837715
-39.78806 74.17361 -39.78805 -0.5022098 0.7026975 -0.5039857 192 192 192 255 0.14527 0.916646
39.78806 74.17361 -39.78805 0.5031081 0.7039542 -0.501329 192 192 192 255 0.196448 0.916646
19.89602 88.23941 -39.78805 0.4988383 0.7036854 -0.5059518 192 192 192 255 0.164462 0.883578
39.78806 88.23941 -19.89601 0.9985924 0.04323331 -0.03072525 192 192 192 255 0.177256 0.870784
39.78806 74.17361 -39.78805 0.5031081 0.7039542 -0.501329 192 192 192 255 0.177256 0.883578
-19.89602 88.23941 39.78805 -0.1296956 0.1829708 0.9745259 192 192 192 255 0.177256 0.870784
-39.78806 88.23941 19.89601 -0.9894296 0.118201 0.08400967 192 192 192 255 0.164462 0.883578
-39.78806 74.17361 39.78805 -0.5022098 0.7026975 0.5039857 192 192 192 255 0.164462 0.870784
19.89602 88.23941 39.78805 0.3709314 0.03110104 0.9281393 192 192 192 255 0.164462 0.870784
39.78806 74.17361 39.78805 0.5031081 0.7039542 0.501329 192 192 192 255 0.177256 0.870784
39.78806 88.23941 19.89601 0.9321645 0.08672731 0.3514934 192 192 192 255 0.177256 0.883578
-39.78806 88.23941 -19.89601 -0.9984834 0.04491307 -0.0318386 192 192 192 255 0.164462 0.870784
-19.89602 88.23941 -39.78805 -0.5003624 0.7040605 -0.503921 192 192 192 255 0.177256 0.883578
-39.78806 74.17361 -39.78805 -0.5022098 0.7026975 -0.5039857 192 192 192 255 0.164462 0.883578
-50 466.4887 -50 -0.2967101 -0.9395245 -0.1710466 192 192 192 255 0.082505 0.811564
50 466.4887 -50 0.001331039 -0.8956067 -0.4448448 192 192 192 255 0.146819 0.811564
50 466.4887 50 0.0007500681 -0.895475 0.4451114 192 192 192 255 0.138702 0.942798
39.78806 452.3005 -39.78805 0.5197928 -0.4630088 -0.7179404 192 192 192 255 0.196448 0.933673
50 466.4887 -50 0.001331039 -0.8956067 -0.4448448 192 192 192 255 0.203016 0.942798
-50 466.4887 -50 -0.2967101 -0.9395245 -0.1710466 192 192 192 255 0.138702 0.942798
-39.78806 452.3005 -39.78805 -0.7935908 -0.3297682 -0.5113379 192 192 192 255 0.14527 0.933673
-50 466.4887 50 -0.2436909 -0.9431856 0.2258663 192 192 192 255 0.203016 0.942798
39.78806 452.3005 39.78805 0.5726752 -0.3569537 0.7379887 192 192 192 255 0.108952 0.933673
50 466.4887 50 0.0007500681 -0.895475 0.4451114 192 192 192 255 0.11552 0.942798
-50 466.4887 50 -0.2436909 -0.9431856 0.2258663 192 192 192 255 0.051206 0.942798
-39.78806 452.3005 39.78805 -0.7210786 -0.481729 0.4979787 192 192 192 255 0.057774 0.933673
62.09261 472.502 62.09265 0.0005101694 -0.3398569 0.940477 192 192 192 255 0.162016 0.917115
62.09261 472.502 -62.09265 0.003354043 -0.340514 -0.9402335 192 192 192 255 0.162016 0.837247
62.09261 472.502 -62.09265 0.003354043 -0.340514 -0.9402335 192 192 192 255 0.178324 0.837247
41.63757 472.502 -62.09265 -0.01708262 -0.223269 -0.9746072 192 192 192 255 0.178324 0.850402
62.09261 500 -62.09265 0.0002514257 0.0002514257 -0.9999999 192 192 192 255 0.160639 0.837247
-31.99015 472.502 -62.09265 0.02763193 -0.377446 -0.9256193 192 192 192 255 0.178324 0.897755
-62.09266 472.502 -62.09265 -0.9708838 -0.1935021 -0.1412147 192 192 192 255 0.178324 0.917115
-62.09266 500 -62.09265 -0.5266898 0.0003084707 -0.8500575 192 192 192 255 0.18078 0.917115
-62.09266 472.502 -62.09265 -0.9708838 -0.1935021 -0.1412147 192 192 192 255 0.163095 0.917115
-62.09266 472.502 22.1133 -0.681379 -0.7317036 0.01823623 192 192 192 255 0.163095 0.862959
-62.09266 500 62.09265 -0.932082 0.0001667907 0.3622475 192 192 192 255 0.18078 0.917115
-62.09266 482.5193 62.09265 -0.6583126 -0.07527818 0.7489712 192 192 192 255 0.169538 0.917115
62.09261 500 62.09265 0.0003017746 0.0003017746 0.9999999 192 192 192 255 0.18078 0.837247
-41.90498 472.502 62.09265 -0.0103483 -0.4152113 0.9096661 192 192 192 255 0.163095 0.904132
62.09261 472.502 62.09265 0.0005101694 -0.3398569 0.940477 192 192 192 255 0.163095 0.837247
62.09261 500 62.09265 0.0003017746 0.0003017746 0.9999999 192 192 192 255 0.210793 0.837247
62.09261 500 -62.09265 0.0002514257 0.0002514257 -0.9999999 192 192 192 255 0.210793 0.917115
-62.09266 500 -62.09265 -0.5266898 0.0003084707 -0.8500575 192 192 192 255 0.130925 0.917115
-62.09266 500 62.09265 -0.932082 0.0001667907 0.3622475 192 192 192 255 0.130925 0.837247
-39.78806 439.6509 39.78805 -0.5022098 -0.7026975 0.5039857 192 192 192 255 0.057774 0.925538
39.78806 439.6509 39.78805 0.5031081 -0.7039542 0.501329 192 192 192 255 0.108952 0.925538
-39.78806 439.6509 -39.78805 -0.5022098 -0.7026975 -0.5039857 192 192 192 255 0.089073 0.828824
39.78806 439.6509 -39.78805 0.5031081 -0.7039542 -0.501329 192 192 192 255 0.140252 0.828824
19.89602 425.5851 -39.78805 0.4999135 -0.703429 -0.5052467 192 192 192 255 0.164462 0.870784
39.78806 439.6509 -39.78805 0.5031081 -0.7039542 -0.501329 192 192 192 255 0.177256 0.870784
39.78806 425.5851 -19.89601 0.5059518 -0.7036854 -0.4988383 192 192 192 255 0.177256 0.883578
-19.89602 425.5851 39.78805 -0.7057547 -0.05669721 0.706184 192 192 192 255 0.177256 0.883578
-39.78806 439.6509 39.78805 -0.5022098 -0.7026975 0.5039857 192 192 192 255 0.164462 0.883578
-39.78806 425.5851 19.89601 -0.888878 -0.2222207 0.4006417 192 192 192 255 0.164462 0.870784
19.89602 425.5851 39.78805 0.499287 -0.7043183 0.5046269 192 192 192 255 0.164462 0.883578
39.78806 425.5851 19.89601 0.503921 -0.7040605 0.5003624 192 192 192 255 0.177256 0.870784
39.78806 439.6509 39.78805 0.5031081 -0.7039542 0.501329 192 192 192 255 0.177256 0.883578
-39.78806 425.5851 -19.89601 -0.9991595 -0.03341324 -0.02374615 192 192 192 255 0.164462 0.883578
-39.78806 439.6509 -39.78805 -0.5022098 -0.7026975 -0.5039857 192 192 192 255 0.164462 0.870784
-19.89602 425.5851 -39.78805 -0.499287 -0.7043183 -0.5046269 192 192 192 255 0.177256 0.870784
39.78806 226.109 -19.89601 0.9966496 -0.07893546 -0.02142159 192 192 192 255 0.196448 0.818931
39.78806 88.23941 -19.89601 0.9985924 0.04323331 -0.03072525 192 192 192 255 0.196448 0.9076
-39.78806 164.3658 19.89601 -1 -5.054619e-07 0.0001969498 192 192 192 255 0.14527 0.895721
-39.78806 88.23941 19.89601 -0.9894296 0.118201 0.08400967 192 192 192 255 0.14527 0.846761
39.78806 226.109 19.89601 0.9277954 -0.1593781 0.3373344 192 192 192 255 0.196448 0.935431
39.78806 154.7932 19.89601 0.9520472 0.003984489 0.3059253 192 192 192 255 0.196448 0.889565
39.78806 88.23941 19.89601 0.9321645 0.08672731 0.3514934 192 192 192 255 0.196448 0.846761
-39.78806 226.109 -19.89601 -0.9981903 -0.05801512 -0.01582207 192 192 192 255 0.14527 0.818931
-39.78806 88.23941 -19.89601 -0.9984834 0.04491307 -0.0318386 192 192 192 255 0.14527 0.9076
-19.89602 425.5851 39.78805 -0.7057547 -0.05669721 0.706184 192 192 192 255 0.196448 0.916491
-19.89602 425.5851 -39.78805 -0.499287 -0.7043183 -0.5046269 192 192 192 255 0.14527 0.916491
-19.89602 273.891 -39.78805 -0.2540737 0.9316177 -0.259875 192 192 192 255 0.101866 0.935431
19.89602 273.891 -39.78805 0.2529764 0.932198 -0.2588626 192 192 192 255 0.196448 0.818931
19.89602 425.5851 -39.78805 0.4999135 -0.703429 -0.5052467 192 192 192 255 0.196448 0.916491
19.89602 425.5851 39.78805 0.499287 -0.7043183 0.5046269 192 192 192 255 0.14527 0.916491
-19.89602 273.891 39.78805 -0.7047676 0.07837919 0.7050954 192 192 192 255 0.070567 0.818931
19.89602 273.891 39.78805 0.2539422 0.9311355 0.261725 192 192 192 255 0.096159 0.818931
-19.89602 273.891 39.78805 -0.7047676 0.07837919 0.7050954 192 192 192 255 0.165052 0.870194
-39.78806 273.891 19.89601 -0.9907157 0.04954481 0.1266004 192 192 192 255 0.177845 0.882988
-41.62174 267.5293 41.62173 -0.2568664 0.9311587 0.2587722 192 192 192 255 0.163873 0.884167
-39.78806 226.109 19.89601 -0.9827904 -0.1782755 0.04838329 192 192 192 255 0.163873 0.882988
-19.89602 226.109 39.78805 -0.03348239 -0.1227967 0.9918669 192 192 192 255 0.176666 0.870194
-41.62174 232.4707 41.62173 -0.2587722 -0.9311588 0.2568664 192 192 192 255 0.177845 0.884167
-41.62174 267.5293 41.62173 -0.2568664 0.9311587 0.2587722 192 192 192 255 0.197628 0.81484
-41.62174 232.4707 41.62173 -0.2587722 -0.9311588 0.2568664 192 192 192 255 0.234262 0.939522
-39.78806 273.891 -19.89601 -0.9969081 0.0758337 -0.02057947 192 192 192 255 0.163873 0.882988
-19.89602 273.891 -39.78805 -0.2540737 0.9316177 -0.259875 192 192 192 255 0.176666 0.870194
-41.62174 267.5293 -41.62173 -0.2569202 0.9316352 -0.2569979 192 192 192 255 0.177845 0.884167
-19.89602 226.109 -39.78805 -0.2529764 -0.932198 -0.2588626 192 192 192 255 0.177845 0.871374
-39.78806 226.109 -19.89601 -0.9981903 -0.05801512 -0.01582207 192 192 192 255 0.165052 0.884167
-41.62174 232.4707 -41.62173 -0.2550125 -0.9316317 -0.2589037 192 192 192 255 0.163873 0.870195
-41.62174 267.5293 -41.62173 -0.2569202 0.9316352 -0.2569979 192 192 192 255 0.087894 0.939522
-41.62174 232.4707 -41.62173 -0.2550125 -0.9316317 -0.2589037 192 192 192 255 0.14409 0.814839
19.89602 273.891 -39.78805 0.2529764 0.932198 -0.2588626 192 192 192 255 0.163873 0.882988
39.78806 273.891 -19.89601 0.259875 0.9316177 -0.2540737 192 192 192 255 0.176666 0.870195
41.62174 267.5293 -41.62173 0.2569979 0.9316351 -0.2569202 192 192 192 255 0.177845 0.884167
39.78806 226.109 -19.89601 0.9966496 -0.07893546 -0.02142159 192 192 192 255 0.176666 0.884167
19.89602 226.109 -39.78805 0.2540737 -0.9316177 -0.259875 192 192 192 255 0.163873 0.871374
41.62174 232.4707 -41.62173 0.2589037 -0.9316317 -0.2550125 192 192 192 255 0.177845 0.870195
41.62174 267.5293 41.62173 0.2570508 0.9321088 0.2551431 192 192 192 255 0.14409 0.81484
41.62174 267.5293 -41.62173 0.2569979 0.9316351 -0.2569202 192 192 192 255 0.197628 0.81484
41.62174 232.4707 -41.62173 0.2589037 -0.9316317 -0.2550125 192 192 192 255 0.141431 0.939522
41.62174 232.4707 41.62173 0.2551431 -0.9321089 0.2570508 192 192 192 255 0.087894 0.939522
39.78806 273.891 19.89601 0.2588626 0.932198 0.2529764 192 192 192 255 0.176666 0.884167
19.89602 273.891 39.78805 0.2539422 0.9311355 0.261725 192 192 192 255 0.163873 0.871374
41.62174 267.5293 41.62173 0.2570508 0.9321088 0.2551431 192 192 192 255 0.177845 0.870195
19.89602 226.109 39.78805 0.2547246 -0.03739732 0.9662902 192 192 192 255 0.163873 0.882988
39.78806 226.109 19.89601 0.9277954 -0.1593781 0.3373344 192 192 192 255 0.176666 0.870195
41.62174 232.4707 41.62173 0.2551431 -0.9321089 0.2570508 192 192 192 255 0.177845 0.884167
-46.93034 240.0024 46.93034 -0.6780764 -0.6521239 0.3390382 192 192 192 255 0.164429 0.846998
-46.93034 259.9976 46.93034 -0.3390378 0.6521249 0.6780757 192 192 192 255 0.177289 0.846998
-46.93034 240.0024 -46.93034 -0.3390382 -0.6521239 -0.6780764 192 192 192 255 0.177289 0.907363
-46.93034 259.9976 -46.93034 -0.6780756 0.6521249 -0.3390378 192 192 192 255 0.164429 0.907363
46.93034 240.0024 -46.93034 0.6780764 -0.6521239 -0.3390382 192 192 192 255 0.164429 0.846998
46.93034 259.9976 -46.93034 0.3390378 0.6521249 -0.6780757 192 192 192 255 0.177289 0.846998
46.93034 259.9976 46.93034 0.6780756 0.6521249 0.3390378 192 192 192 255 0.177289 0.907363
46.93034 240.0024 46.93034 0.3390382 -0.6521239 0.6780764 192 192 192 255 0.164429 0.907363
-41.62174 237.5643 41.62173 -0.3960496 -0.7617826 0.5126715 192 192 192 255 0.234262 0.942798
-41.62174 237.5643 -41.62173 -0.6780764 -0.6521239 -0.3390382 192 192 192 255 0.14409 0.811564
41.62174 237.5643 -41.62173 0.3390382 -0.6521239 -0.6780764 192 192 192 255 0.141431 0.942798
41.62174 237.5643 41.62173 0.6140482 -0.5905463 0.5236411 192 192 192 255 0.087894 0.942798
-41.62174 262.4356 -41.62173 -0.5925659 0.6682791 -0.449743 192 192 192 255 0.087894 0.942798
41.62174 262.4356 -41.62173 0.449743 0.6682791 -0.592566 192 192 192 255 0.197628 0.811564
-41.62174 262.4356 41.62173 -0.5126703 0.7617836 0.3960491 192 192 192 255 0.056594 0.811564
41.62174 262.4356 41.62173 0.5236408 0.5905472 0.6140476 192 192 192 255 0.110131 0.811564
-41.62174 237.5643 41.62173 -0.3960496 -0.7617826 0.5126715 192 192 192 255 0.14409 0.903949
41.62174 237.5643 41.62173 0.6140481 -0.5905463 0.523641 192 192 192 255 0.197628 0.903949
46.93034 240.0024 46.93034 0.3390382 -0.6521239 0.6780764 192 192 192 255 0.201042 0.907363
-46.93034 240.0024 46.93034 -0.6780764 -0.6521239 0.3390382 192 192 192 255 0.140676 0.907363
41.62174 262.4356 41.62173 0.5236408 0.5905472 0.6140476 192 192 192 255 0.14409 0.850412
-41.62174 262.4356 41.62173 -0.5126703 0.7617836 0.3960491 192 192 192 255 0.14409 0.903949
-46.93034 259.9976 46.93034 -0.3390378 0.6521249 0.6780757 192 192 192 255 0.140676 0.907363
46.93034 259.9976 46.93034 0.6780756 0.6521249 0.3390378 192 192 192 255 0.140676 0.846998
-41.62174 262.4356 -41.62173 -0.5925659 0.6682791 -0.449743 192 192 192 255 0.197628 0.903949
-46.93034 259.9976 -46.93034 -0.6780756 0.6521249 -0.3390378 192 192 192 255 0.201042 0.907363
-41.62174 237.5643 -41.62173 -0.6780764 -0.6521239 -0.3390382 192 192 192 255 0.14409 0.850412
-46.93034 240.0024 -46.93034 -0.3390382 -0.6521239 -0.6780764 192 192 192 255 0.140676 0.846998
41.62174 262.4356 -41.62173 0.449743 0.6682791 -0.592566 192 192 192 255 0.197628 0.850412
46.93034 259.9976 -46.93034 0.3390378 0.6521249 -0.6780757 192 192 192 255 0.201042 0.846998
41.62174 237.5643 -41.62173 0.3390382 -0.6521239 -0.6780764 192 192 192 255 0.197628 0.850412
46.93034 240.0024 -46.93034 0.6780764 -0.6521239 -0.3390382 192 192 192 255 0.201042 0.846998
34.91345 74.17362 34.91345 0.3931218 0 0.9194865 192 192 192 255 0.129995 0.535488
34.91345 74.17362 -34.91345 0.891804 0 -0.452422 192 192 192 255 0.174903 0.535488
34.91345 347.1347 34.91345 0.7508152 0.001747894 0.6605101 192 192 192 255 0.129995 0.680342
34.91345 439.6509 -34.91345 0.4518377 0 -0.8921002 192 192 192 255 0.174903 0.729438
34.91345 439.6509 34.91345 0.9983289 0 0.05778738 192 192 192 255 0.129995 0.729438
34.91345 417.5205 34.91345 0.102971 -0.01282626 0.9946017 192 192 192 255 0.129995 0.717694
-34.91345 74.17362 -34.91345 -0.1013186 0 -0.994854 192 192 192 255 0.166629 0.535488
-34.91345 74.17362 34.91345 -0.7439754 0 0.668207 192 192 192 255 0.211538 0.535488
-34.91345 115.6153 -34.91345 -0.9896016 0.002183493 -0.1438195 192 192 192 255 0.166629 0.55748
-34.91345 439.6509 34.91345 -0.6846784 0 0.7288453 192 192 192 255 0.211538 0.729438
-34.91345 196.7671 -34.91345 -0.7060899 -0.002208954 -0.7081189 192 192 192 255 0.166629 0.600545
-34.91345 439.6509 -34.91345 -0.7071068 0 -0.7071068 192 192 192 255 0.166629 0.729438
88.13783 31.28656 -20.89344 0.7899525 0.3199511 -0.5230739 192 192 192 255 0.186407 0.87841
88.13783 0 -20.89344 0.7907953 -0.4840997 -0.3745535 192 192 192 255 0.186407 0.898531
88.13783 31.28656 20.89333 0.7718832 0.4337531 0.4648167 192 192 192 255 0.186407 0.875952
88.13783 0 20.89333 0.775438 -0.5888937 0.2278159 192 192 192 255 0.186407 0.85583
88.13783 31.28656 20.89333 0.7718832 0.4337531 0.4648167 192 192 192 255 0.157422 0.861633
88.13783 31.28656 -20.89344 0.7899525 0.3199511 -0.5230739 192 192 192 255 0.184296 0.861633
39.78805 66.39432 -20.89344 0.5644246 0.7787278 -0.2738757 192 192 192 255 0.155311 0.85583
39.78805 66.39432 20.89333 0.4902358 0.6779684 0.5477479 192 192 192 255 0.155311 0.898531
62.09266 0 -28.28495 -3.92006e-08 -0.7071068 -0.7071068 192 192 192 255 0.162484 0.85899
79.11092 0 -28.28495 0.3064575 -0.7255856 -0.6161245 192 192 192 255 0.173429 0.85899
79.11092 0 28.2849 0.3064593 -0.7255862 0.6161229 192 192 192 255 0.173429 0.895372
62.09266 0 28.2849 -3.633031e-07 -0.4472144 0.8944268 192 192 192 255 0.162484 0.895372
88.13783 0 -20.89344 0.7907953 -0.4840997 -0.3745535 192 192 192 255 0.179234 0.863743
88.13783 0 20.89333 0.775438 -0.5888937 0.2278159 192 192 192 255 0.179234 0.890618
-20.89344 31.28656 -88.13783 -0.1687787 0.795607 -0.5818276 192 192 192 255 0.155311 0.875952
-20.89344 0 -88.13783 -0.3745535 -0.4840997 -0.7907953 192 192 192 255 0.155311 0.85583
20.89333 31.28656 -88.13783 0.0006877808 0.8088577 -0.5880041 192 192 192 255 0.186407 0.875952
20.89333 0 -88.13783 0.2278159 -0.5888937 -0.775438 192 192 192 255 0.186407 0.85583
20.89333 31.28656 -88.13783 0.0006877808 0.8088577 -0.5880041 192 192 192 255 0.186002 0.892729
-20.89344 31.28656 -88.13783 -0.1687787 0.795607 -0.5818276 192 192 192 255 0.159128 0.892729
-20.89344 66.39432 -39.78805 -0.1746351 0.7967451 -0.5785325 192 192 192 255 0.186407 0.898531
-20.89344 61.95796 -45.89772 -0.1938467 0.7683764 -0.6099355 192 192 192 255 0.182477 0.895678
-20.89344 40.59861 -75.31344 -0.2108027 0.8100346 -0.5471803 192 192 192 255 0.163559 0.881941
20.89333 66.39432 -39.78805 0.0004998482 0.8091803 -0.5875603 192 192 192 255 0.155311 0.898531
-28.28495 0 -62.09266 -0.7071068 -0.7071068 3.92006e-08 192 192 192 255 0.179234 0.895372
-28.28495 0 -79.11092 -0.6161245 -0.7255856 -0.3064575 192 192 192 255 0.168289 0.895372
28.2849 0 -79.11092 0.6161229 -0.7255862 -0.3064593 192 192 192 255 0.168289 0.85899
28.2849 0 -62.09266 0.8944268 -0.4472144 3.633031e-07 192 192 192 255 0.179234 0.85899
-20.89344 0 -88.13783 -0.3745535 -0.4840997 -0.7907953 192 192 192 255 0.162484 0.890618
20.89333 0 -88.13783 0.2278159 -0.5888937 -0.775438 192 192 192 255 0.162484 0.863743
-88.13783 31.28656 20.89344 -0.7899525 0.3199511 0.5230739 192 192 192 255 0.155311 0.875952
-88.13783 0 20.89344 -0.7907953 -0.4840997 0.3745535 192 192 192 255 0.155311 0.85583
-88.13783 31.28656 -20.89333 -0.7718832 0.4337531 -0.4648167 192 192 192 255 0.155311 0.87841
-88.13783 0 -20.89333 -0.775438 -0.5888937 -0.2278159 192 192 192 255 0.155311 0.898531
-88.13783 31.28656 -20.89333 -0.7718832 0.4337531 -0.4648167 192 192 192 255 0.184296 0.892729
-88.13783 31.28656 20.89344 -0.7899525 0.3199511 0.5230739 192 192 192 255 0.157422 0.892729
-39.78805 66.39432 20.89344 -0.5644246 0.7787278 0.2738757 192 192 192 255 0.186407 0.898531
-39.78805 66.39432 -20.89333 -0.4902358 0.6779684 -0.5477479 192 192 192 255 0.186407 0.85583
-62.09266 0 28.28495 3.92006e-08 -0.7071068 0.7071068 192 192 192 255 0.179234 0.895372
-79.11092 0 28.28495 -0.3064575 -0.7255856 0.6161245 192 192 192 255 0.168289 0.895372
-79.11092 0 -28.2849 -0.3064593 -0.7255862 -0.6161229 192 192 192 255 0.168289 0.85899
-62.09266 0 -28.2849 3.633031e-07 -0.4472144 -0.8944268 192 192 192 255 0.179234 0.85899
-88.13783 0 20.89344 -0.7907953 -0.4840997 0.3745535 192 192 192 255 0.162484 0.890618
-88.13783 0 -20.89333 -0.775438 -0.5888937 -0.2278159 192 192 192 255 0.162484 0.863743
20.89344 31.28656 88.13783 0.003106748 0.588393 0.8085691 192 192 192 255 0.155311 0.875952
20.89344 0 88.13783 0.0004324296 -0.0005589029 0.9999998 192 192 192 255 0.155311 0.85583
-20.89333 31.28656 88.13783 0.03586064 0.5792921 0.8143309 192 192 192 255 0.186407 0.875952
-20.89333 0 88.13783 -0.0005424528 -0.001402216 0.9999989 192 192 192 255 0.186407 0.85583
-20.89333 31.28656 88.13783 0.03586064 0.5792921 0.8143309 192 192 192 255 0.157422 0.861633
20.89344 31.28656 88.13783 0.003106748 0.588393 0.8085691 192 192 192 255 0.184296 0.861633
8.931726 31.28656 88.13783 -0.03024101 0.5474336 0.8363025 192 192 192 255 0.176603 0.861633
20.89344 66.39432 39.78805 0.0002121861 0.8091798 0.5875611 192 192 192 255 0.186407 0.898531
-20.89333 66.39432 39.78805 -0.0004559198 0.8091802 0.5875605 192 192 192 255 0.155311 0.898531
28.28495 0 62.09266 0.7071068 -0.7071068 -3.92006e-08 192 192 192 255 0.162484 0.85899
28.28495 0 79.11092 0.6161245 -0.7255856 0.3064575 192 192 192 255 0.173429 0.85899
-28.2849 0 79.11092 -0.6161229 -0.7255862 0.3064593 192 192 192 255 0.173429 0.895372
-28.2849 0 62.09266 -0.8944268 -0.4472144 -3.633031e-07 192 192 192 255 0.162484 0.895372
20.89344 0 88.13783 0.0004324296 -0.0005589029 0.9999998 192 192 192 255 0.179234 0.863743
-20.89333 0 88.13783 -0.0005424528 -0.001402216 0.9999989 192 192 192 255 0.179234 0.890618
34.91345 383.7124 26.96291 1 0 1.410643e-06 192 192 192 255 0.149992 0.63441
34.91345 417.5205 34.91345 0.102971 -0.01282626 0.9946017 192 192 192 255 0.149992 0.652351
34.91345 417.5205 34.91345 0.102971 -0.01282626 0.9946017 192 192 192 255 0.147435 0.652351
27.86563 383.0691 34.91345 0.1131299 -7.7118e-10 0.9935802 192 192 192 255 0.147435 0.634069
34.91333 383.7124 26.96291 0.7483116 -2.720994e-09 0.6633474 192 192 192 255 0.152549 0.63441
34.91345 347.1347 34.91345 0.7508152 0.001747894 0.6605101 192 192 192 255 0.147435 0.614999
34.91345 347.1347 34.91345 0.7508152 0.001747894 0.6605101 192 192 192 255 0.149992 0.614999
2.373028 468.2196 -53.48082 2.758788e-09 -0.7592221 -0.6508316 192 192 192 255 0.181079 0.875655
-55.34774 469.1479 55.34773 -0.6269898 -0.7117922 0.3166002 192 192 192 255 0.160938 0.912777
-55.34774 469.1479 55.34773 -0.6269898 -0.7117922 0.3166002 192 192 192 255 0.160938 0.841585
-34.91345 169.2665 -26.71622 -1 0 -1.91881e-06 192 192 192 255 0.073798 0.678974
-34.91345 196.7671 -34.91345 -0.7060899 -0.002208954 -0.7081189 192 192 192 255 0.147356 0.641397
-26.85718 167.6639 -34.91345 -0.1165931 0 -0.9931798 192 192 192 255 0.147356 0.625953
-34.91333 169.2665 -26.71622 -0.7132122 4.664306e-10 -0.7009482 192 192 192 255 0.152628 0.626803
36.34325 185.8996 23.34082 0.7541111 0 0.656747 192 192 192 255 0.099651 0.90957
-39.78806 226.109 19.89601 -0.9827904 -0.1782755 0.04838329 192 192 192 255 0.14527 0.935431
-1.210405 36.32156 81.20372 -3.422388e-09 0.7765841 0.6300136 192 192 192 255 0.182539 0.877959
-20.89344 61.95796 -45.89772 -0.1938467 0.7683764 -0.6099355 192 192 192 255 0.166227 0.879223
-9.237242 50.43421 -61.76802 -0.05385511 0.8080052 -0.586709 192 192 192 255 0.173638 0.871727
-26.19852 47.55354 -55.10798 -0.5679887 0.6672693 -0.4818096 192 192 192 255 0.175491 0.882635
-26.19852 47.55354 -55.10798 -0.5679887 0.6672693 -0.4818096 192 192 192 255 0.155716 0.871486
62.09261 0 62.09265 0.9999998 -0.0005856781 0.000292839 192 192 192 255 0.160625 0.917115
62.09261 0 -62.09265 0.9508365 -0.0001867734 -0.3096935 192 192 192 255 0.160625 0.837247
62.09261 27.49798 62.09265 0.9850079 0.1725086 0.0003362052 192 192 192 255 0.17831 0.917115
62.09261 0 -62.09265 0.9508365 -0.0001867734 -0.3096935 192 192 192 255 0.181093 0.837247
-62.09266 0 -62.09265 -0.0003048855 -0.0003048855 -0.9999999 192 192 192 255 0.181093 0.917115
-62.09266 27.49798 -62.09265 -0.0005043257 0.3398521 -0.9404788 192 192 192 255 0.163408 0.917115
43.11002 27.49798 -62.09265 0.01777986 0.3897421 -0.9207524 192 192 192 255 0.198585 0.917115
53.3927 31.82421 -53.39272 0.561186 0.6453108 -0.5183091 192 192 192 255 0.205198 0.91152
50 33.51131 -50 0.2352188 0.943294 -0.2342403 192 192 192 255 0.203016 0.909338
62.09261 27.49798 -41.53973 0.7404562 0.6714064 -0.03062936 192 192 192 255 0.210793 0.903897
3 203 201 10 
3 202 204 205 
3 3 2 12 
3 3 12 15 
3 0 3 15 
3 0 15 11 
3 5 1 206 
3 5 206 6 
3 207 208 209 
3 207 209 4 
3 210 211 7 
3 210 7 212 
3 213 214 215 
3 213 215 216 
3 13 14 217 
3 13 217 218 
3 219 9 220 
3 219 220 221 
3 222 223 224 
3 222 224 8 
3 23 18 17 
3 23 17 24 
3 27 21 20 
3 27 20 25 
3 225 226 22 
3 225 22 19 
3 227 26 16 
3 227 16 228 
3 229 230 231 
3 232 233 234 
3 235 236 237 
3 238 239 240 
3 213 226 225 
3 213 225 214 
3 4 209 18 
3 4 18 23 
3 227 228 5 
3 227 5 6 
3 212 7 21 
3 212 21 27 
3 29 38 39 
3 29 39 28 
3 40 173 30 
3 38 29 174 
3 174 29 176 
3 29 30 176 
3 30 173 176 
3 40 30 177 
3 179 177 31 
3 31 177 30 
3 39 178 28 
3 179 31 178 
3 28 178 31 
3 33 34 241 
3 33 241 242 
3 243 32 244 
3 243 244 245 
3 246 247 35 
3 246 35 248 
3 249 250 251 
3 249 251 252 
3 37 253 254 
3 37 254 36 
3 255 256 257 
3 257 256 41 
3 256 175 41 
3 175 258 41 
3 258 259 41 
3 260 261 42 
3 42 261 43 
3 261 262 43 
3 263 264 265 
3 264 266 265 
3 266 267 265 
3 268 269 270 
3 268 270 271 
3 51 52 45 
3 51 45 46 
3 55 53 48 
3 55 48 49 
3 272 47 50 
3 272 50 273 
3 274 275 44 
3 274 44 54 
3 276 277 278 
3 279 280 281 
3 282 283 284 
3 285 286 287 
3 249 252 272 
3 249 272 273 
3 32 51 46 
3 32 46 244 
3 274 34 33 
3 274 33 275 
3 247 55 49 
3 247 49 35 
3 19 22 192 
3 22 70 192 
3 70 57 192 
3 62 64 16 
3 62 16 26 
3 68 186 66 
3 66 186 17 
3 186 185 17 
3 185 24 17 
3 58 60 193 
3 60 25 193 
3 25 20 193 
3 64 288 289 
3 64 289 16 
3 192 290 291 
3 192 291 19 
3 292 70 187 
3 70 22 187 
3 187 22 293 
3 22 294 293 
3 295 62 26 
3 295 26 296 
3 59 56 189 
3 56 297 189 
3 189 297 190 
3 190 297 188 
3 297 48 188 
3 61 59 53 
3 59 189 53 
3 189 191 53 
3 191 188 53 
3 188 48 53 
3 63 61 53 
3 63 53 298 
3 65 299 54 
3 65 54 44 
3 67 300 301 
3 67 301 45 
3 69 67 45 
3 69 45 52 
3 71 69 52 
3 71 52 302 
3 47 303 304 
3 47 304 50 
3 57 70 74 
3 57 74 73 
3 304 303 72 
3 304 72 75 
3 305 306 307 
3 308 309 310 
3 59 61 76 
3 59 76 311 
3 60 58 312 
3 60 312 77 
3 313 314 315 
3 316 317 318 
3 299 65 78 
3 299 78 319 
3 64 62 320 
3 64 320 79 
3 321 322 323 
3 324 325 326 
3 67 69 327 
3 67 327 328 
3 68 66 329 
3 68 329 330 
3 331 332 333 
3 334 335 336 
3 88 89 90 
3 88 90 91 
3 337 338 92 
3 337 92 93 
3 339 340 94 
3 339 94 95 
3 341 342 343 
3 341 343 344 
3 86 81 73 
3 86 73 74 
3 312 345 82 
3 312 82 77 
3 320 346 84 
3 320 84 79 
3 329 347 348 
3 329 348 330 
3 83 80 311 
3 83 311 76 
3 85 349 319 
3 85 319 78 
3 87 350 328 
3 87 328 327 
3 72 351 352 
3 72 352 75 
3 353 354 355 
3 353 355 356 
3 357 358 359 
3 357 359 360 
3 358 361 362 
3 358 362 359 
3 363 353 356 
3 363 356 364 
3 361 365 366 
3 361 366 362 
3 367 363 364 
3 367 364 368 
3 365 357 360 
3 365 360 366 
3 354 367 368 
3 354 368 355 
3 96 97 98 
3 99 98 169 
3 169 98 171 
3 97 168 98 
3 168 171 98 
3 100 101 181 
3 103 102 101 
3 102 180 101 
3 180 183 101 
3 101 183 181 
3 369 370 371 
3 372 373 370 
3 371 370 170 
3 374 170 373 
3 370 373 170 
3 375 376 377 
3 376 378 377 
3 377 378 182 
3 182 378 379 
3 378 380 379 
3 110 111 112 
3 110 112 113 
3 114 115 381 
3 114 381 382 
3 383 116 117 
3 383 117 384 
3 107 108 385 
3 107 385 386 
3 105 118 115 
3 105 115 114 
3 106 387 381 
3 106 381 115 
3 388 109 116 
3 388 116 383 
3 116 119 104 
3 116 104 117 
3 115 118 106 
3 109 119 116 
3 389 390 391 
3 389 391 392 
3 390 393 394 
3 390 394 391 
3 126 127 128 
3 126 128 129 
3 130 131 395 
3 130 395 396 
3 397 132 133 
3 397 133 398 
3 123 124 198 
3 198 124 200 
3 124 399 200 
3 200 399 197 
3 399 400 197 
3 121 134 131 
3 121 131 130 
3 401 402 122 
3 395 131 403 
3 402 199 122 
3 122 199 131 
3 199 403 131 
3 404 125 132 
3 404 132 397 
3 132 135 120 
3 132 120 133 
3 131 134 122 
3 125 135 132 
3 405 406 407 
3 405 407 408 
3 406 409 410 
3 406 410 407 
3 142 143 144 
3 142 144 145 
3 146 147 411 
3 146 411 412 
3 413 148 149 
3 413 149 414 
3 139 140 415 
3 139 415 416 
3 137 150 147 
3 137 147 146 
3 138 417 411 
3 138 411 147 
3 418 141 148 
3 418 148 413 
3 148 151 136 
3 148 136 149 
3 147 150 138 
3 141 151 148 
3 419 420 421 
3 419 421 422 
3 420 423 424 
3 420 424 421 
3 161 158 196 
3 158 159 196 
3 196 159 194 
3 159 160 194 
3 162 163 425 
3 162 425 426 
3 427 164 165 
3 427 165 428 
3 429 195 156 
3 156 195 155 
3 430 155 431 
3 155 195 431 
3 153 166 163 
3 153 163 162 
3 154 432 425 
3 154 425 163 
3 433 157 164 
3 433 164 427 
3 164 167 152 
3 164 152 165 
3 163 166 154 
3 157 167 164 
3 434 435 436 
3 434 436 437 
3 435 438 439 
3 435 439 436 
3 172 440 441 
3 442 443 444 
3 444 443 445 
3 446 440 172 
3 258 175 447 
3 447 175 256 
3 448 266 264 
3 262 449 43 
3 184 450 181 
3 451 452 453 
3 184 183 180 
3 180 450 184 
3 68 454 186 
3 186 454 185 
3 188 191 190 
3 190 191 189 
3 57 455 290 
3 57 290 192 
3 194 456 196 
3 196 456 161 
3 457 458 459 
3 460 200 197 
3 461 462 463 
3 462 10 463 
3 10 201 463 
3 464 465 205 
3 205 465 202 
3 202 465 466 
3 12 2 467 
3 468 467 469 
3 2 469 467 
3 11 470 0 
3 468 469 470 
3 469 0 470 
