ply
format ascii 1.0
comment VCGLIB generated
comment TextureFile Dungeons_2_Texture_01_A.png
element vertex 80
property float x
property float y
property float z
property float nx
property float ny
property float nz
property uchar red
property uchar green
property uchar blue
property uchar alpha
property float texture_u
property float texture_v
element face 134
property list uchar int vertex_indices
end_header
-382.3195 -8e-06 226.3007 -0.04107866 0.9981024 0.04587122 192 192 192 255 0.206008 0.014347
255.0829 -8e-06 256.3129 0.1621178 0.9218343 0.3520502 192 192 192 255 0.980645 0.014347
215.0894 -8e-06 -277.8543 0.1550035 0.9798576 -0.1259084 192 192 192 255 0.980645 0.64547
-400.3456 -8e-06 132.4968 -0.08045264 0.9965385 -0.02093728 192 192 192 255 0.206008 0.131774
81.10498 -8e-06 -307.0275 0.1617825 0.9506746 -0.2646587 192 192 192 255 0.851861 0.648626
-123.1566 -8e-06 -205.3059 -0.4012974 0.6266956 -0.6679919 192 192 192 255 0.573744 0.527218
-321.3995 -8e-06 -42.17957 -0.3638343 0.8541338 0.3715913 192 192 192 255 0.309044 0.350442
-126.9866 0 267.8599 -0.4674531 0.8356577 0.2883813 192 192 192 255 0.554071 0.014347
33.99817 0 259.7974 -0.2302309 0.6703783 0.7053983 192 192 192 255 0.751628 0.014347
268.551 -8e-06 40.59085 0.3757448 0.9265491 0.01795726 192 192 192 255 0.980645 0.250756
269.9044 0 -74.59991 0.2433457 0.9662341 -0.08470338 192 192 192 255 0.980645 0.388394
-1.904663 205.1186 -4.081879 -0.07081199 0.9943179 0.07948328 192 192 192 255 0.796177 0.281671
-199.076 35.19336 35.80301 -0.305339 0.9430556 0.1319627 192 192 192 255 0.468845 0.233941
146.8734 23.03947 -182.5334 0.2102841 0.9637555 -0.1641829 192 192 192 255 0.916261 0.518495
-76.42426 95.0872 -86.85338 -0.3869021 0.8068641 -0.4464046 192 192 192 255 0.7112 0.375478
-116.2181 87.56923 12.58682 -0.62828 0.7637704 0.1480513 192 192 192 255 0.664557 0.262479
-92.39594 41.00612 124.3629 -0.3734009 0.7833378 0.4969443 192 192 192 255 0.666053 0.137993
3.38147 38.56017 165.5455 -0.1035895 0.7148359 0.6915772 192 192 192 255 0.767539 0.109826
52.54102 121.8783 73.54727 0.3226349 0.7882043 0.5240619 192 192 192 255 0.854585 0.197029
139.2076 81.79854 16.89334 0.6171342 0.7839679 0.06737851 192 192 192 255 0.918595 0.261155
30.47241 66.07724 -145.0017 0.1956145 0.9316091 -0.3063322 192 192 192 255 0.822155 0.452862
108.9044 80.24164 -53.37354 0.6494774 0.6966352 -0.3047599 192 192 192 255 0.891839 0.337016
80.6842 78.02986 -116.4399 0.3930043 0.7390965 -0.5470686 192 192 192 255 0.867778 0.422879
18.4231 83.53018 -113.9275 -0.06551747 0.6876378 -0.7230918 192 192 192 255 0.815112 0.406451
123.2449 53.89908 146.3092 0.2805223 0.8221076 0.4954255 192 192 192 255 0.916337 0.107539
-283.7401 7.091003 134.3961 -0.1309927 0.977373 0.1660812 192 192 192 255 0.324346 0.113216
-156.5435 6.845062 200.0812 -0.1411662 0.9682621 0.2062537 192 192 192 255 0.526469 0.085466
-117.7577 20.91774 222.2277 -0.08260702 0.9714321 0.2224763 192 192 192 255 0.600205 0.065286
-13.18518 19.57422 225.7963 -0.02525516 0.961584 0.2733467 192 192 192 255 0.719595 0.060631
24.05408 27.34421 230.5938 -0.230053 0.670916 0.704945 192 192 192 255 0.759762 0.063159
177.8502 29.9196 192.3568 0.2933152 0.933941 0.2042559 192 192 192 255 0.941174 0.071546
222.7948 22.4785 33.72519 0.5931998 0.7830864 -0.1867875 192 192 192 255 0.954761 0.255094
193.7317 28.97874 -31.29468 0.4784432 0.8557951 -0.1967407 192 192 192 255 0.947692 0.320822
188.0626 21.87823 -70.8322 0.2516152 0.9608869 -0.1156987 192 192 192 255 0.941437 0.365711
62.66296 35.99219 -227.777 0.290713 0.9113085 -0.2915525 192 192 192 255 0.83294 0.52394
26.64429 41.48489 -243.4113 -0.1696042 0.8774053 -0.4487699 192 192 192 255 0.792418 0.533193
-115.0334 34.6554 -177.8045 -0.2980372 0.8484981 -0.4372926 192 192 192 255 0.620585 0.475509
-247.3331 39.52324 -60.48914 -0.3614561 0.8899743 -0.2780202 192 192 192 255 0.469544 0.360434
-263.5599 7.208961 -2.172699 -0.3542389 0.932813 0.06614193 192 192 192 255 0.390669 0.290935
-298.4156 7.054153 86.95279 -0.2923897 0.9553598 -0.0423786 192 192 192 255 0.319372 0.17584
-382.3195 -8e-06 226.3007 0.04107866 -0.9981024 -0.04587122 192 192 192 255 0.206008 0.014347
255.0829 -8e-06 256.3129 -0.1621178 -0.9218343 -0.3520502 192 192 192 255 0.980645 0.014347
215.0894 -8e-06 -277.8543 -0.1550035 -0.9798576 0.1259084 192 192 192 255 0.980645 0.64547
-400.3456 -8e-06 132.4968 0.08045264 -0.9965385 0.02093728 192 192 192 255 0.206008 0.131774
81.10498 -8e-06 -307.0275 -0.1617825 -0.9506746 0.2646587 192 192 192 255 0.851861 0.648626
-123.1566 -8e-06 -205.3059 0.4012974 -0.6266956 0.6679919 192 192 192 255 0.573744 0.527218
-321.3995 -8e-06 -42.17957 0.3638343 -0.8541338 -0.3715913 192 192 192 255 0.309044 0.350442
-126.9866 0 267.8599 0.4674531 -0.8356577 -0.2883813 192 192 192 255 0.554071 0.014347
33.99817 0 259.7974 0.2302309 -0.6703783 -0.7053983 192 192 192 255 0.751628 0.014347
268.551 -8e-06 40.59085 -0.3757448 -0.9265491 -0.01795726 192 192 192 255 0.980645 0.250756
269.9044 0 -74.59991 -0.2433457 -0.9662341 0.08470338 192 192 192 255 0.980645 0.388394
-1.904663 205.1186 -4.081879 0.07081199 -0.9943179 -0.07948328 192 192 192 255 0.796177 0.281671
-199.076 35.19336 35.80301 0.305339 -0.9430556 -0.1319627 192 192 192 255 0.468845 0.233941
146.8734 23.03947 -182.5334 -0.2102841 -0.9637555 0.1641829 192 192 192 255 0.916261 0.518495
-76.42426 95.0872 -86.85338 0.3869021 -0.8068641 0.4464046 192 192 192 255 0.7112 0.375478
-116.2181 87.56923 12.58682 0.62828 -0.7637704 -0.1480513 192 192 192 255 0.664557 0.262479
-92.39594 41.00612 124.3629 0.3734009 -0.7833378 -0.4969443 192 192 192 255 0.666053 0.137993
3.38147 38.56017 165.5455 0.1035895 -0.7148359 -0.6915772 192 192 192 255 0.767539 0.109826
52.54102 121.8783 73.54727 -0.3226349 -0.7882043 -0.5240619 192 192 192 255 0.854585 0.197029
139.2076 81.79854 16.89334 -0.6171342 -0.7839679 -0.06737851 192 192 192 255 0.918595 0.261155
30.47241 66.07724 -145.0017 -0.1956145 -0.9316091 0.3063322 192 192 192 255 0.822155 0.452862
108.9044 80.24164 -53.37354 -0.6494774 -0.6966352 0.3047599 192 192 192 255 0.891839 0.337016
80.6842 78.02986 -116.4399 -0.3930043 -0.7390965 0.5470686 192 192 192 255 0.867778 0.422879
18.4231 83.53018 -113.9275 0.06551747 -0.6876378 0.7230918 192 192 192 255 0.815112 0.406451
123.2449 53.89908 146.3092 -0.2805223 -0.8221076 -0.4954255 192 192 192 255 0.916337 0.107539
-283.7401 7.091003 134.3961 0.1309927 -0.977373 -0.1660812 192 192 192 255 0.324346 0.113216
-156.5435 6.845062 200.0812 0.1411662 -0.9682621 -0.2062537 192 192 192 255 0.526469 0.085466
-117.7577 20.91774 222.2277 0.08260702 -0.9714321 -0.2224763 192 192 192 255 0.600205 0.065286
-13.18518 19.57422 225.7963 0.02525516 -0.961584 -0.2733467 192 192 192 255 0.719595 0.060631
24.05408 27.34421 230.5938 0.230053 -0.670916 -0.704945 192 192 192 255 0.759762 0.063159
177.8502 29.9196 192.3568 -0.2933152 -0.933941 -0.2042559 192 192 192 255 0.941174 0.071546
222.7948 22.4785 33.72519 -0.5931998 -0.7830864 0.1867875 192 192 192 255 0.954761 0.255094
193.7317 28.97874 -31.29468 -0.4784432 -0.8557951 0.1967407 192 192 192 255 0.947692 0.320822
188.0626 21.87823 -70.8322 -0.2516152 -0.9608869 0.1156987 192 192 192 255 0.941437 0.365711
62.66296 35.99219 -227.777 -0.290713 -0.9113085 0.2915525 192 192 192 255 0.83294 0.52394
26.64429 41.48489 -243.4113 0.1696042 -0.8774053 0.4487699 192 192 192 255 0.792418 0.533193
-115.0334 34.6554 -177.8045 0.2980372 -0.8484981 0.4372926 192 192 192 255 0.620585 0.475509
-247.3331 39.52324 -60.48914 0.3614561 -0.8899743 0.2780202 192 192 192 255 0.469544 0.360434
-263.5599 7.208961 -2.172699 0.3542389 -0.932813 -0.06614193 192 192 192 255 0.390669 0.290935
-298.4156 7.054153 86.95279 0.2923897 -0.9553598 0.0423786 192 192 192 255 0.319372 0.17584
3 17 18 11 
3 39 25 12 
3 11 16 17 
3 34 35 14 
3 34 14 20 
3 38 39 12 
3 15 16 11 
3 25 26 12 
3 12 14 37 
3 12 37 38 
3 21 22 11 
3 19 21 11 
3 13 34 20 
3 2 13 10 
3 4 13 2 
3 35 36 14 
3 36 37 14 
3 14 15 11 
3 12 15 14 
3 12 26 27 
3 12 27 16 
3 27 28 16 
3 18 19 11 
3 17 16 28 
3 17 28 29 
3 17 24 18 
3 24 19 18 
3 31 32 19 
3 23 14 11 
3 22 23 11 
3 32 33 21 
3 32 21 19 
3 33 13 22 
3 33 22 21 
3 13 20 23 
3 13 23 22 
3 20 14 23 
3 29 30 24 
3 29 24 17 
3 30 31 19 
3 30 19 24 
3 12 16 15 
3 0 7 26 
3 0 26 25 
3 27 26 7 
3 8 28 27 
3 8 27 7 
3 29 28 8 
3 1 30 29 
3 1 29 8 
3 9 31 30 
3 9 30 1 
3 10 32 31 
3 10 31 9 
3 10 33 32 
3 10 13 33 
3 4 34 13 
3 4 35 34 
3 5 36 35 
3 5 35 4 
3 6 37 36 
3 6 36 5 
3 38 37 6 
3 3 39 38 
3 3 38 6 
3 0 25 39 
3 0 39 3 
3 57 51 58 
3 79 52 65 
3 51 57 56 
3 74 60 54 
3 74 54 75 
3 78 52 79 
3 55 51 56 
3 65 52 66 
3 52 78 77 
3 52 77 54 
3 61 51 62 
3 59 51 61 
3 53 60 74 
3 42 50 53 
3 44 42 53 
3 75 54 76 
3 76 54 77 
3 54 51 55 
3 52 54 55 
3 52 56 67 
3 52 67 66 
3 67 56 68 
3 58 51 59 
3 57 69 68 
3 57 68 56 
3 57 58 64 
3 64 58 59 
3 71 59 72 
3 63 51 54 
3 62 51 63 
3 72 59 61 
3 72 61 73 
3 73 61 62 
3 73 62 53 
3 53 62 63 
3 53 63 60 
3 60 63 54 
3 69 57 64 
3 69 64 70 
3 70 64 59 
3 70 59 71 
3 52 55 56 
3 40 65 66 
3 40 66 47 
3 67 47 66 
3 48 47 67 
3 48 67 68 
3 69 48 68 
3 41 48 69 
3 41 69 70 
3 49 41 70 
3 49 70 71 
3 50 49 71 
3 50 71 72 
3 50 72 73 
3 50 73 53 
3 44 53 74 
3 44 74 75 
3 45 44 75 
3 45 75 76 
3 46 45 76 
3 46 76 77 
3 78 46 77 
3 43 46 78 
3 43 78 79 
3 40 43 79 
3 40 79 65 
