ply
format ascii 1.0
comment VCGLIB generated
comment TextureFile Dungeons_2_Texture_01_A.png
element vertex 361
property float x
property float y
property float z
property float nx
property float ny
property float nz
property uchar red
property uchar green
property uchar blue
property uchar alpha
property float texture_u
property float texture_v
element face 494
property list uchar int vertex_indices
end_header
-18.80048 14.78967 -8.644012 -0.002624726 0.00511242 -0.9999835 192 192 192 255 0.171871 0.601408
-18.80048 15.55597 8.725464 0.002752163 0.005237387 0.9999825 192 192 192 255 0.171871 0.60193
-38.32935 56.95988 -8.644012 -0.4117989 -0.3535293 -0.8399041 192 192 192 255 0.158576 0.630116
-38.32935 25.84653 -8.644012 -0.6783958 0.2621517 -0.6863349 192 192 192 255 0.158576 0.608935
-38.32935 26.576 8.725464 -0.531261 0.4527251 0.7161018 192 192 192 255 0.158576 0.609432
-38.32935 56.58956 8.725403 -0.7348662 -0.3589014 0.5754664 192 192 192 255 0.158576 0.629864
-11.77945 26.00002 8.725464 -0.004388468 0.003672142 0.9999837 192 192 192 255 0.17665 0.60904
-11.77945 26.00014 -8.644012 -0.004555664 0.001789644 -0.9999881 192 192 192 255 0.17665 0.60904
0.208984 75.21707 -8.644012 0.02620793 -0.0004158758 -0.9996565 192 192 192 255 0.185348 0.874851
0 1.5e-05 8.725494 0.0004537589 -0.0002256303 0.9999999 192 192 192 255 0.185199 0.821138
0 0 -8.644012 0.0002290603 -0.0004584135 -0.9999999 192 192 192 255 0.185199 0.821138
-45.35034 66.64601 8.725372 0.1824667 -0.3935218 0.9010253 192 192 192 255 0.153797 0.636709
-52.3714 56.59688 8.725403 0.399944 -0.3636022 0.8413313 192 192 192 255 0.149017 0.629869
-52.3714 56.36147 -8.644012 0.8247098 -0.3854376 -0.4138738 192 192 192 255 0.149017 0.629708
-45.35034 65.77222 -8.644012 -0.1488257 -0.3336172 -0.9308869 192 192 192 255 0.153797 0.636115
-25.82153 26.20684 -8.644012 0.6132602 0.4952132 -0.6153665 192 192 192 255 0.167091 0.609181
-25.82153 56.35774 -8.644012 0.8348863 -0.3493847 -0.4253178 192 192 192 255 0.167091 0.629706
-25.82153 55.89962 8.725403 0.5028581 -0.4639769 0.7292868 192 192 192 255 0.167091 0.629394
-25.82153 26.26218 8.725464 0.8033792 0.3131803 0.5064583 192 192 192 255 0.167091 0.609218
-11.77945 56.57032 -8.644012 -0.00379494 -0.003312776 -0.9999873 192 192 192 255 0.17665 0.62985
-11.77945 55.85752 8.725403 -0.007398754 -0.003356384 0.999967 192 192 192 255 0.17665 0.629365
-0.017761 75.33035 8.725372 0.02147899 -0.0007145683 0.999769 192 192 192 255 0.185186 0.874932
-0.012207 75.34485 -13.74911 0.9975435 -0.03422328 -0.06112156 192 192 192 255 0.18519 0.874942
-0.010529 86.80939 -13.74911 0.9969757 0.01676027 -0.07588578 192 192 192 255 0.185192 0.883129
-18.80048 67.60747 8.725372 0.003063607 -0.005697274 0.9999791 192 192 192 255 0.171871 0.637364
-18.80048 67.29359 -8.644012 -0.003223837 -0.006045061 -0.9999766 192 192 192 255 0.171871 0.63715
-0.012207 86.80939 13.74911 0.9993013 0.03398949 0.01554752 192 192 192 255 0.18519 0.883129
-0.010529 75.34485 13.74911 0.999297 -0.01720411 0.03331198 192 192 192 255 0.185192 0.874942
-64.87921 56.75945 8.725403 -0.8299019 -0.3633916 0.4233314 192 192 192 255 0.140503 0.629979
-71.90027 67.70242 8.725372 0.2926706 -0.3772135 0.878666 192 192 192 255 0.135723 0.637429
-71.90027 67.03857 -8.644012 -0.1572639 -0.3111839 -0.9372474 192 192 192 255 0.135723 0.636977
-64.87921 56.67569 -8.644012 -0.4159473 -0.3599553 -0.8351168 192 192 192 255 0.140503 0.629922
-52.3714 25.92493 -8.644012 0.5197045 0.4339029 -0.7359589 192 192 192 255 0.149017 0.608989
-52.3714 26.11197 8.725464 0.8000321 0.3260771 0.5036092 192 192 192 255 0.149017 0.609116
-87.36335 56.29272 8.725403 0.2136066 -0.3097544 0.926512 192 192 192 255 0.122813 0.861337
-78.92126 56.23644 -8.644012 0.8321285 -0.3847246 -0.399436 192 192 192 255 0.130944 0.629623
-64.87921 26.01489 -8.644012 -0.7997128 0.3056762 -0.5167412 192 192 192 255 0.140503 0.60905
-64.87921 26.06484 8.725464 -0.5348516 0.4530849 0.7131956 192 192 192 255 0.140503 0.609084
-45.35034 14.74779 -8.644012 -0.187105 0.366778 -0.9112989 192 192 192 255 0.153797 0.60138
-45.35034 16.20458 8.725464 0.1576423 0.3152829 0.9358128 192 192 192 255 0.153797 0.602372
-250.0001 86.80939 13.74911 -0.9992968 0.01676816 0.03353632 192 192 192 255 0.006674 0.883129
-250.0001 75.34485 13.74911 -0.9992455 -0.03469895 0.01744967 192 192 192 255 0.006674 0.874942
-91.42908 56.14628 8.725403 -0.7241548 -0.4389797 0.5318804 192 192 192 255 0.122429 0.629562
-98.45013 66.24852 8.725372 0.1280417 -0.2738648 0.953207 192 192 192 255 0.117649 0.636439
-98.45013 67.20678 -8.644012 -0.1578504 -0.3121286 -0.9368346 192 192 192 255 0.117649 0.637091
-91.42908 56.12331 -8.644012 -0.4217529 -0.3966857 -0.8153312 192 192 192 255 0.122429 0.629546
-78.92126 26.27822 -8.644012 0.5264575 0.4430518 -0.7256361 192 192 192 255 0.130944 0.609229
-78.92126 25.80224 8.725464 0.7976604 0.2898867 0.5288703 192 192 192 255 0.130944 0.608905
-250.0001 86.80939 -13.74911 -0.9992953 0.03357416 -0.01678708 192 192 192 255 0.007887 0.793197
-250.0001 75.33035 8.725372 -0.02202178 -0.0003630871 0.9997575 192 192 192 255 0.006674 0.874932
-105.4711 56.67851 8.725403 0.4092774 -0.366308 0.8356498 192 192 192 255 0.11287 0.629924
-105.4711 56.94465 -8.644012 0.8220986 -0.3821079 -0.4220752 192 192 192 255 0.11287 0.630105
-91.42908 25.59936 -8.644012 -0.7968336 0.3236751 -0.510187 192 192 192 255 0.122429 0.608767
-91.42908 25.72906 8.725464 -0.5195318 0.4203232 0.7439188 192 192 192 255 0.122429 0.608855
-71.90027 15.10277 -8.644012 -0.15707 0.3067719 -0.9387332 192 192 192 255 0.135723 0.601622
-71.90027 15.40749 8.725464 0.1573205 0.3072374 0.938539 192 192 192 255 0.135723 0.601829
-250.0001 75.34485 -13.74911 -0.9992564 -0.01706789 -0.03457368 192 192 192 255 0.006674 0.874942
-117.9789 56.36228 8.725403 -0.8338227 -0.3676987 0.4117493 192 192 192 255 0.104355 0.629709
-125 66.23873 8.725372 0.0003625535 -0.0007300181 0.9999997 192 192 192 255 0.099576 0.636432
-125 67.64413 -8.644012 -0.0004416937 -0.0008720823 -0.9999995 192 192 192 255 0.099576 0.637389
-117.9789 56.22248 -8.644012 -0.4029946 -0.3713595 -0.8364733 192 192 192 255 0.104355 0.629614
-250.0001 75.21707 -8.644012 -0.02576622 -0.0008372873 -0.9996676 192 192 192 255 0.006674 0.874851
-105.4711 25.52688 -8.644012 0.5184726 0.4299076 -0.7391655 192 192 192 255 0.11287 0.608718
-105.4711 26.17865 8.725464 0.7924302 0.3302511 0.5128242 192 192 192 255 0.11287 0.609161
-132.0211 56.01892 8.725403 0.409759 -0.4047379 0.8174869 192 192 192 255 0.094796 0.629475
-132.0211 56.9034 -8.644012 0.8227656 -0.3626667 -0.4376412 192 192 192 255 0.094796 0.630077
-117.9789 25.78331 -8.644012 -0.7996162 0.2921679 -0.5246445 192 192 192 255 0.104355 0.608892
-117.9789 26.32997 8.725464 -0.540713 0.4477151 0.7121662 192 192 192 255 0.104355 0.609264
-98.45013 16.31244 -8.644012 -0.1514807 0.3267279 -0.9329001 192 192 192 255 0.117649 0.602445
-98.45013 15.43941 8.725464 0.153152 0.3226195 0.9340563 192 192 192 255 0.117649 0.601851
-151.5499 66.82334 -8.644012 -0.1485018 -0.3247683 -0.9340625 192 192 192 255 0.081502 0.63683
-144.5288 56.89453 -8.644012 -0.4097097 -0.3539737 -0.8407381 192 192 192 255 0.086282 0.630071
-144.5288 56.6139 8.725403 -0.8240703 -0.4027705 0.3983518 192 192 192 255 0.086282 0.62988
-151.5499 65.98586 8.725372 0.1540211 -0.3302282 0.9312502 192 192 192 255 0.081502 0.63626
-132.0211 25.97952 -8.644012 0.5349309 0.4579162 -0.7100435 192 192 192 255 0.094796 0.609026
-132.0211 26.07157 8.725464 0.7994456 0.3185208 0.5093439 192 192 192 255 0.094796 0.609088
-158.5709 56.7687 -8.644012 0.819872 -0.3848093 -0.4239478 192 192 192 255 0.076722 0.629985
-158.5709 56.42988 8.725403 0.4083235 -0.3850228 0.8276651 192 192 192 255 0.076722 0.629755
-144.5288 25.89361 8.725464 -0.526505 0.4535586 0.7190807 192 192 192 255 0.086282 0.608967
-144.5288 26.50064 -8.644012 -0.7982414 0.3341877 -0.501128 192 192 192 255 0.086282 0.609381
-125 14.95536 -8.644012 -0.0002252858 0.0004314856 -0.9999999 192 192 192 255 0.099576 0.601521
-125 15.16467 8.725464 0.000221675 0.000427848 0.9999999 192 192 192 255 0.099576 0.601664
-178.0997 66.92759 -8.644012 -0.1533683 -0.3148926 -0.9366541 192 192 192 255 0.063428 0.636901
-171.0787 56.95559 -8.644012 -0.4098119 -0.3735041 -0.8321952 192 192 192 255 0.068208 0.630113
-171.0787 56.94455 8.725403 -0.8255826 -0.3795031 0.4176014 192 192 192 255 0.068208 0.630105
-178.0997 67.57133 8.725372 0.1587198 -0.3086437 0.9378418 192 192 192 255 0.063428 0.637339
-158.5709 26.56753 8.725464 0.7964384 0.309736 0.5193742 192 192 192 255 0.076722 0.609426
-158.5709 26.42895 -8.644012 0.5225345 0.4670006 -0.7133499 192 192 192 255 0.076722 0.609332
-185.1208 56.54781 -8.644012 0.8315166 -0.3654631 -0.4183503 192 192 192 255 0.058649 0.629835
-185.1208 56.35918 8.725403 0.4169815 -0.4058074 0.8132939 192 192 192 255 0.058649 0.629707
-250.0001 1.5e-05 8.725494 -0.000452686 -0.0004509014 0.9999998 192 192 192 255 0.006674 0.821138
-250.0001 0 -8.644012 -0.0002295903 -0.0002295903 -1 192 192 192 255 0.006674 0.821138
-171.0787 25.8244 8.725464 -0.702585 0.4194833 0.5748114 192 192 192 255 0.068208 0.60892
-166.067 26.10931 -8.644012 -0.3719894 0.378144 -0.847721 192 192 192 255 0.066611 0.839783
-151.5499 16.15835 -8.644012 -0.154485 0.316921 -0.935786 192 192 192 255 0.081502 0.60234
-151.5499 15.6461 8.725464 0.156765 0.3108696 0.9374353 192 192 192 255 0.081502 0.601991
-204.6497 67.06738 -8.644012 -0.1860316 -0.3817924 -0.9053325 192 192 192 255 0.045354 0.636996
-197.6286 56.69834 -8.644012 -0.4162545 -0.3584507 -0.8356107 192 192 192 255 0.050134 0.629938
-197.6286 56.14912 8.725403 -0.8284302 -0.3971738 0.3949131 192 192 192 255 0.050134 0.629564
-204.6497 66.25801 8.725372 0.1522356 -0.3227939 0.9341458 192 192 192 255 0.045354 0.636445
-185.1208 26.5249 8.725464 0.8000791 0.3144725 0.5108626 192 192 192 255 0.058649 0.609397
-185.1208 25.67022 -8.644012 0.5332645 0.3979989 -0.7464757 192 192 192 255 0.058649 0.608815
-211.6707 56.40218 -8.644012 0.7398315 -0.3406197 -0.5801962 192 192 192 255 0.040575 0.629736
-211.6707 57.00424 8.725403 0.4017918 -0.3577156 0.8429726 192 192 192 255 0.040575 0.630146
-197.6286 26.37798 8.725464 -0.5345147 0.4487191 0.716202 192 192 192 255 0.050134 0.609297
-197.6286 25.64616 -8.644012 -0.7966371 0.2868046 -0.5320833 192 192 192 255 0.050134 0.608799
-178.0997 15.29119 -8.644012 -0.1358355 0.2565268 -0.9569445 192 192 192 255 0.063428 0.60175
-178.0997 14.66772 8.725464 0.1585534 0.3003542 0.9405574 192 192 192 255 0.063428 0.601325
-231.1995 67.73431 -8.644012 -0.003018426 -0.006185795 -0.9999763 192 192 192 255 0.027281 0.63745
-224.1785 56.9111 -8.644012 -0.4965425 -0.4430741 -0.746412 192 192 192 255 0.03206 0.630082
-224.1785 56.92253 8.725403 -0.8319082 -0.3684969 0.414896 192 192 192 255 0.03206 0.63009
-231.1995 66.73302 8.725372 0.003338674 -0.006493061 0.9999734 192 192 192 255 0.027281 0.636769
-211.6707 26.24294 8.725464 0.6793395 0.2552774 0.6879909 192 192 192 255 0.040575 0.609205
-211.6707 26.41459 -8.644012 0.526684 0.449037 -0.7217824 192 192 192 255 0.040575 0.609322
-238.2206 56.32695 -8.644012 0.007486497 -0.00333117 -0.9999664 192 192 192 255 0.022501 0.629685
-238.2206 56.5624 8.725403 0.003843248 -0.003393772 0.9999869 192 192 192 255 0.022501 0.629845
-224.1785 25.59065 8.725464 -0.6121066 0.4960296 0.6158573 192 192 192 255 0.03206 0.608761
-224.1785 25.48341 -8.644012 -0.7985775 0.3238907 -0.5073153 192 192 192 255 0.03206 0.608688
-204.6497 15.33965 -8.644012 -0.1550322 0.3061559 -0.9392729 192 192 192 255 0.045354 0.601783
-204.6497 15.31044 8.725464 0.19343 0.3696218 0.908826 192 192 192 255 0.045354 0.601763
-238.2206 26.36224 8.725464 0.004531065 0.001782011 0.9999881 192 192 192 255 0.022501 0.609286
-238.2206 25.96907 -8.644012 0.00431987 0.003488021 -0.9999846 192 192 192 255 0.022501 0.609019
-231.1995 15.46796 -8.644012 -0.002611672 0.00544569 -0.9999818 192 192 192 255 0.027281 0.60187
-231.1995 15.29405 8.725464 0.002681147 0.00521262 0.9999828 192 192 192 255 0.027281 0.601752
-0.013306 56.43683 8.725403 0.01349898 -0.005482031 0.9998939 192 192 192 255 0.18519 0.86144
0.156799 56.43634 -8.644012 0.01334574 -0.002405488 -0.9999081 192 192 192 255 0.185311 0.861439
0.072266 26.00531 -8.644012 0.009667781 0.003658704 -0.9999466 192 192 192 255 0.185251 0.839709
-0.006134 26.00531 8.725464 0.009749701 0.001876578 0.9999507 192 192 192 255 0.185195 0.839709
-250.0001 26.03824 8.725464 -0.006585849 0.003659399 0.9999716 192 192 192 255 0.006674 0.839732
-250.0001 26.03821 -8.644012 -0.01303945 0.001710178 -0.9999135 192 192 192 255 0.006674 0.839732
-250.0001 56.43408 -8.644012 -0.01358305 -0.004831396 -0.9998961 192 192 192 255 0.006674 0.861438
-250.0001 56.43408 8.725403 -0.01344698 -0.002393638 0.9999067 192 192 192 255 0.006674 0.861438
-38.32935 53.07701 -6.595201 -0.8956435 -0.1352583 -0.4237075 192 192 192 255 0.158576 0.627472
-38.32935 29.31295 -6.595201 -0.7101441 0.3097478 -0.6322592 192 192 192 255 0.158576 0.611295
-38.32935 29.47671 6.676653 -0.7164744 0.1639484 0.6780747 192 192 192 255 0.158576 0.611406
-38.32935 53.34432 6.676606 -0.469525 -0.2791811 0.8376182 192 192 192 255 0.158576 0.627654
-25.82153 28.97508 -6.595201 0.8068066 0.1320441 -0.5758711 192 192 192 255 0.167091 0.611065
-25.82153 52.91166 -6.595201 0.5996119 -0.2495146 -0.7604 192 192 192 255 0.167091 0.62736
-25.82153 53.30842 6.676606 0.8365589 -0.1971496 0.5111763 192 192 192 255 0.167091 0.62763
-25.82153 29.13287 6.676653 0.5748926 0.3428737 0.7429241 192 192 192 255 0.167091 0.611172
-11.77917 53.16571 -6.595201 -0.8100617 -0.1093329 -0.5760611 192 192 192 255 0.17665 0.627533
-11.7753 28.92023 -6.595201 -0.5712867 0.3248067 -0.7537454 192 192 192 255 0.176653 0.611028
-11.77527 28.73869 6.676653 -0.8125992 0.1183864 0.5706726 192 192 192 255 0.176653 0.610904
-11.77911 53.56969 6.676606 -0.5690011 -0.3526774 0.7428704 192 192 192 255 0.176651 0.627808
0.155182 53.43634 -6.595179 0.7237037 -0.2602342 -0.6391644 192 192 192 255 0.184775 0.627717
0.078339 29.00531 -6.595201 0.7236805 0.1361053 -0.676581 192 192 192 255 0.184722 0.611086
-3.1e-05 29.00531 6.676653 0.7182411 0.2784081 0.6376666 192 192 192 255 0.185199 0.841851
-0.014862 53.43683 6.67663 0.7217273 -0.1473457 0.6763129 192 192 192 255 0.185188 0.859298
-52.3714 29.5194 -6.595201 0.9011036 0.1232754 -0.4157108 192 192 192 255 0.149017 0.611436
-52.3714 53.25507 -6.595201 0.4599337 -0.2403718 -0.8547997 192 192 192 255 0.149017 0.627594
-52.3714 52.9062 6.676606 0.9001118 -0.1162438 0.4198645 192 192 192 255 0.149017 0.627356
-52.3714 29.02856 6.676653 0.4624009 0.2783915 0.8418335 192 192 192 255 0.149017 0.611101
-64.87921 53.07235 -6.595201 -0.9011709 -0.1173401 -0.4172798 192 192 192 255 0.140503 0.627469
-64.87921 28.72141 -6.595201 -0.4680187 0.2512449 -0.8472512 192 192 192 255 0.140503 0.610892
-64.87921 28.66599 6.676653 -0.9037856 0.1343763 0.406343 192 192 192 255 0.140503 0.610855
-64.87921 53.61796 6.676606 -0.467037 -0.2359348 0.8521802 192 192 192 255 0.140503 0.627841
-78.92126 28.94887 -6.595201 0.9017088 0.128225 -0.4128918 192 192 192 255 0.130944 0.611047
-78.92126 53.04987 -6.595201 0.4601262 -0.2819787 -0.841886 192 192 192 255 0.130944 0.627454
-78.92126 53.63604 6.676606 0.3344545 -0.07132524 0.939709 192 192 192 255 0.130944 0.627853
-78.92126 29.58514 6.676653 0.4567184 0.2222187 0.86141 192 192 192 255 0.130944 0.61148
-91.42908 53.87966 -6.595201 -0.904313 -0.1355721 -0.4047692 192 192 192 255 0.122429 0.628019
-91.42908 28.88918 -6.595201 -0.4699138 0.2617958 -0.8429971 192 192 192 255 0.122429 0.611006
-91.42908 29.35961 6.676653 -0.9003087 0.1087229 0.4214541 192 192 192 255 0.122429 0.611327
-91.42908 52.8959 6.676606 -0.5632666 -0.1547313 0.8116582 192 192 192 255 0.122429 0.627349
-105.4711 29.62138 -6.595201 0.9000476 0.1141801 -0.4205678 192 192 192 255 0.11287 0.611505
-105.4711 53.6953 -6.595201 0.01469322 -0.007799749 -0.9998617 192 192 192 255 0.11287 0.627893
-105.4711 52.8792 6.676606 0.9008095 -0.1171438 0.4181144 192 192 192 255 0.11287 0.627338
-105.4711 29.55666 6.676653 0.4581838 0.2760916 0.8448911 192 192 192 255 0.11287 0.611461
-117.9789 53.17484 -6.595201 -0.2260918 -0.0503884 -0.9728019 192 192 192 255 0.104355 0.627539
-117.9789 28.67869 -6.595201 -0.9859307 0.04658695 -0.1605317 192 192 192 255 0.104355 0.610863
-117.9789 28.55143 6.676653 -0.9999239 0.003832775 0.011729 192 192 192 255 0.104355 0.610777
-117.9789 53.42303 6.676606 -0.4625466 -0.2391883 0.853721 192 192 192 255 0.104355 0.627708
-132.0211 28.95683 -6.595201 0.9044194 0.1391129 -0.4033277 192 192 192 255 0.094796 0.611053
-132.0211 53.0419 -6.595201 0.455617 -0.2286053 -0.8603214 192 192 192 255 0.094796 0.627448
-132.0211 53.41975 6.676606 0.9026608 -0.1368265 0.4080221 192 192 192 255 0.094796 0.627706
-132.0211 28.9464 6.676653 0.4612932 0.2746526 0.8436673 192 192 192 255 0.094796 0.611046
-144.5288 28.64504 6.676653 -0.9035969 0.1326087 0.4073422 192 192 192 255 0.086282 0.61084
-144.5288 53.79158 6.676606 -0.4749666 -0.2797889 0.8343411 192 192 192 255 0.086282 0.627959
-144.5288 53.59029 -6.595201 -0.900845 -0.1114914 -0.4195808 192 192 192 255 0.086282 0.627822
-144.5288 28.75664 -6.595201 -0.4646477 0.2887271 -0.8371017 192 192 192 255 0.086282 0.610916
-158.5709 53.70369 6.676606 0.9847065 -0.07626687 0.1566415 192 192 192 255 0.076722 0.627899
-158.5709 29.12584 6.676653 0.2303059 0.0441893 0.9721144 192 192 192 255 0.076722 0.611168
-158.5709 29.07845 -6.595201 0.843698 0.1744545 -0.5076804 192 192 192 255 0.076722 0.611135
-158.5709 53.99614 -6.595201 0.9992163 -0.01118388 -0.03797082 192 192 192 255 0.076722 0.628098
-171.0787 29.53953 6.676653 -0.01613553 0.002936041 0.9998655 192 192 192 255 0.068208 0.611449
-171.0787 53.54802 6.676606 -0.4660378 -0.2571401 0.8465741 192 192 192 255 0.068208 0.627793
-171.0787 53.37579 -6.595201 -0.9012609 -0.1224173 -0.4156236 192 192 192 255 0.068208 0.627676
-171.0787 28.48874 -6.595201 -0.4701575 0.01308999 -0.8824854 192 192 192 255 0.068208 0.610734
-185.1208 53.50956 6.676606 0.8948636 -0.1748485 0.4106668 192 192 192 255 0.058649 0.627767
-185.1208 29.46438 6.676653 0.7065779 0.3142425 0.6340342 192 192 192 255 0.058649 0.611398
-185.1208 29.44147 -6.595201 0.7169852 0.1319942 -0.6844778 192 192 192 255 0.058649 0.611382
-185.1208 52.89383 -6.595201 0.453768 -0.2581065 -0.8529219 192 192 192 255 0.058649 0.627348
-197.6286 29.18429 6.676653 -0.8058601 0.1367795 0.5760911 192 192 192 255 0.050134 0.611207
-197.6286 53.80994 6.676606 -0.599489 -0.3241908 0.7317877 192 192 192 255 0.050134 0.627971
-197.6286 53.58541 -6.595201 -0.8375142 -0.1957352 -0.5101545 192 192 192 255 0.050134 0.627818
-197.6286 29.54196 -6.595201 -0.5651536 0.2810641 -0.7756317 192 192 192 255 0.050134 0.611451
-211.6707 52.87842 6.676606 0.8996712 -0.1135787 0.421535 192 192 192 255 0.040575 0.627337
-211.6707 29.49151 6.676653 0.6087549 0.2150617 0.763653 192 192 192 255 0.040575 0.611417
-211.6707 28.83998 -6.595201 0.9020345 0.132995 -0.4106654 192 192 192 255 0.040575 0.610973
-211.6707 53.81541 -6.595201 0.7436258 -0.3202483 -0.5869087 192 192 192 255 0.040575 0.627975
-224.1785 29.03903 6.676653 -0.9020665 0.1169963 0.415437 192 192 192 255 0.03206 0.611109
-224.1785 53.99747 6.676606 -0.4673828 -0.229998 0.8536125 192 192 192 255 0.03206 0.628099
-224.1785 52.8615 -6.595201 -0.8090694 -0.1065097 -0.5779814 192 192 192 255 0.03206 0.627326
-224.1785 28.71971 -6.595201 -0.3950029 0.2259538 -0.8904592 192 192 192 255 0.03206 0.610891
-238.2206 53.09558 6.676606 0.8097963 -0.1084849 0.5765942 192 192 192 255 0.022501 0.627485
-238.2206 29.35979 6.676653 0.5642405 0.3232605 0.7596942 192 192 192 255 0.022501 0.611327
-238.2206 29.59325 -6.595201 0.8089941 0.1066801 -0.5780553 192 192 192 255 0.022501 0.611486
-238.2206 52.91787 -6.595201 0.5631533 -0.3077043 -0.7669266 192 192 192 255 0.022501 0.627364
-250.0001 29.03821 -6.595201 -0.7216697 0.2512672 -0.6450253 192 192 192 255 0.014482 0.611108
-250.0001 53.43408 -6.595201 -0.7214669 -0.128917 -0.6803425 192 192 192 255 0.014482 0.627715
-250.0001 29.03824 6.676653 -0.723002 0.1352422 0.677479 192 192 192 255 0.006674 0.841875
-250.0001 53.43408 6.676606 -0.7207377 -0.2563555 0.6440645 192 192 192 255 0.006674 0.859296
-75.43165 62.11658 8.725388 0.2204631 -0.4298464 0.875573 192 192 192 255 0.133319 0.633626
-78.92126 56.55673 6.794115 0.2527744 -0.3238484 0.9117167 192 192 192 255 0.130944 0.629841
-161.2707 43.96659 6.676625 0.3244449 1.80514e-06 0.9459047 192 192 192 255 0.074885 0.62127
-158.5709 46.711 3.14774 0.9392436 6.561245e-07 0.3432513 192 192 192 255 0.076722 0.623139
-37.34848 39.53363 -6.595201 -0.4452024 0.009831995 -0.895376 192 192 192 255 0.158576 0.61766
-37.51997 36.55672 6.676637 -0.8950438 0.01976731 0.4455399 192 192 192 255 0.158576 0.616948
-26.8024 45.65692 -6.595201 0.7036273 -0.02623549 -0.7100849 192 192 192 255 0.167091 0.623014
-26.63091 46.5425 6.676621 0.7067434 -0.0263503 0.706979 192 192 192 255 0.167091 0.622302
-186.3533 41.41186 6.676627 0.4421435 0.0001254416 0.8969443 192 192 192 255 0.058649 0.620414
-185.8016 41.16062 -6.595201 0.9015014 0.0002522938 -0.4327761 192 192 192 255 0.058649 0.620238
-196.3406 48.69329 6.676618 -0.6936491 -0.04674763 0.7187946 192 192 192 255 0.050134 0.62361
-197.0032 48.44205 -6.595201 -0.7123872 -0.04801182 -0.7001424 192 192 192 255 0.050134 0.623435
-115.4738 42.39719 -6.595201 -0.377102 0 -0.9261718 192 192 192 255 0.106061 0.620202
-117.9789 39.95043 -3.296267 -0.9667059 0 -0.2558902 192 192 192 255 0.104355 0.618536
-211.6707 40.19696 -6.595201 0.7242365 0.2220469 -0.6528221 192 192 192 255 0.040575 0.618704
-214.1432 47.93776 -6.595201 0.7537535 0 -0.6571573 192 192 192 255 0.038892 0.623974
-211.6707 48.4688 -3.506539 0.8072991 0 -0.5901425 192 192 192 255 0.040575 0.624335
-174.8001 20.27494 -8.644012 -0.3886416 0.5441254 -0.7435626 192 192 192 255 0.065674 0.605142
-171.0787 25.8864 -6.399147 -0.4210217 0.3894335 -0.8191961 192 192 192 255 0.068208 0.608962
-0.012207 86.80939 13.74911 0.9993013 0.03398949 0.01554752 192 192 192 255 0.229959 0.76877
-0.010529 86.80939 -13.74911 0.9969757 0.01676027 -0.07588578 192 192 192 255 0.229961 0.793197
-250.0001 86.80939 13.74911 -0.9992968 0.01676816 0.03353632 192 192 192 255 0.007887 0.76877
-250.0001 86.80939 -13.74911 -0.9992953 0.03357416 -0.01678708 192 192 192 255 0.006674 0.883129
-11.77945 55.85752 8.725403 -0.007398754 -0.003356384 0.999967 192 192 192 255 0.176787 0.861026
-238.2206 26.36224 8.725464 0.004531065 0.001782011 0.9999881 192 192 192 255 0.015086 0.839963
-238.2206 56.5624 8.725403 0.003843248 -0.003393772 0.9999869 192 192 192 255 0.015086 0.861529
-231.1995 66.73302 8.725372 0.003338674 -0.006493061 0.9999734 192 192 192 255 0.0201 0.868792
-125 66.23873 8.725372 0.0003625535 -0.0007300181 0.9999997 192 192 192 255 0.095937 0.868439
-98.45013 66.24852 8.725372 0.1280417 -0.2738648 0.953207 192 192 192 255 0.114896 0.868446
-71.90027 67.70242 8.725372 0.2926706 -0.3772135 0.878666 192 192 192 255 0.133855 0.869485
-18.80048 67.60747 8.725372 0.003063607 -0.005697274 0.9999791 192 192 192 255 0.171774 0.869417
-224.1785 56.92253 8.725403 -0.8319082 -0.3684969 0.414896 192 192 192 255 0.025113 0.861787
-211.6707 57.00424 8.725403 0.4017918 -0.3577156 0.8429726 192 192 192 255 0.034045 0.861845
-204.6497 66.25801 8.725372 0.1522356 -0.3227939 0.9341458 192 192 192 255 0.039059 0.868453
-197.6286 56.14912 8.725403 -0.8284302 -0.3971738 0.3949131 192 192 192 255 0.044073 0.861234
-185.1208 56.35918 8.725403 0.4169815 -0.4058074 0.8132939 192 192 192 255 0.053004 0.861384
-178.0997 67.57133 8.725372 0.1587198 -0.3086437 0.9378418 192 192 192 255 0.058018 0.869391
-171.0787 56.94455 8.725403 -0.8255826 -0.3795031 0.4176014 192 192 192 255 0.063032 0.861802
-158.5709 56.42988 8.725403 0.4083235 -0.3850228 0.8276651 192 192 192 255 0.071964 0.861435
-151.5499 65.98586 8.725372 0.1540211 -0.3302282 0.9312502 192 192 192 255 0.076977 0.868259
-144.5288 56.6139 8.725403 -0.8240703 -0.4027705 0.3983518 192 192 192 255 0.081991 0.861566
-132.0211 56.01892 8.725403 0.409759 -0.4047379 0.8174869 192 192 192 255 0.090923 0.861141
-117.9789 56.36228 8.725403 -0.8338227 -0.3676987 0.4117493 192 192 192 255 0.10095 0.861387
-105.4711 56.67851 8.725403 0.4092774 -0.366308 0.8356498 192 192 192 255 0.109882 0.861612
-91.42908 56.14628 8.725403 -0.7241548 -0.4389797 0.5318804 192 192 192 255 0.11991 0.861232
-75.43165 62.11658 8.725388 0.2204631 -0.4298464 0.875573 192 192 192 255 0.131333 0.865496
-64.87921 56.75945 8.725403 -0.8299019 -0.3633916 0.4233314 192 192 192 255 0.138869 0.86167
-52.3714 56.59688 8.725403 0.399944 -0.3636022 0.8413313 192 192 192 255 0.147801 0.861554
-45.35034 66.64601 8.725372 0.1824667 -0.3935218 0.9010253 192 192 192 255 0.152814 0.86873
-38.32935 56.58956 8.725403 -0.7348662 -0.3589014 0.5754664 192 192 192 255 0.157828 0.861549
-25.82153 55.89962 8.725403 0.5028581 -0.4639769 0.7292868 192 192 192 255 0.16676 0.861056
-238.2206 25.96907 -8.644012 0.00431987 0.003488021 -0.9999846 192 192 192 255 0.015086 0.839683
-11.77945 56.57032 -8.644012 -0.00379494 -0.003312776 -0.9999873 192 192 192 255 0.176787 0.861535
-18.80048 67.29359 -8.644012 -0.003223837 -0.006045061 -0.9999766 192 192 192 255 0.171774 0.869193
-98.45013 67.20678 -8.644012 -0.1578504 -0.3121286 -0.9368346 192 192 192 255 0.114896 0.869131
-125 67.64413 -8.644012 -0.0004416937 -0.0008720823 -0.9999995 192 192 192 255 0.095937 0.869443
-71.90027 67.03857 -8.644012 -0.1572639 -0.3111839 -0.9372474 192 192 192 255 0.133855 0.86901
-238.2206 56.32695 -8.644012 0.007486497 -0.00333117 -0.9999664 192 192 192 255 0.015086 0.861361
-231.1995 67.73431 -8.644012 -0.003018426 -0.006185795 -0.9999763 192 192 192 255 0.0201 0.869507
-25.82153 56.35774 -8.644012 0.8348863 -0.3493847 -0.4253178 192 192 192 255 0.16676 0.861383
-38.32935 56.95988 -8.644012 -0.4117989 -0.3535293 -0.8399041 192 192 192 255 0.157828 0.861813
-45.35034 65.77222 -8.644012 -0.1488257 -0.3336172 -0.9308869 192 192 192 255 0.152814 0.868106
-52.3714 56.36147 -8.644012 0.8247098 -0.3854376 -0.4138738 192 192 192 255 0.147801 0.861386
-64.87921 56.67569 -8.644012 -0.4159473 -0.3599553 -0.8351168 192 192 192 255 0.138869 0.86161
-78.92126 56.23644 -8.644012 0.8321285 -0.3847246 -0.399436 192 192 192 255 0.128841 0.861297
-91.42908 56.12331 -8.644012 -0.4217529 -0.3966857 -0.8153312 192 192 192 255 0.11991 0.861216
-105.4711 56.94465 -8.644012 0.8220986 -0.3821079 -0.4220752 192 192 192 255 0.109882 0.861802
-117.9789 56.22248 -8.644012 -0.4029946 -0.3713595 -0.8364733 192 192 192 255 0.10095 0.861287
-132.0211 56.9034 -8.644012 0.8227656 -0.3626667 -0.4376412 192 192 192 255 0.090923 0.861773
-144.5288 56.89453 -8.644012 -0.4097097 -0.3539737 -0.8407381 192 192 192 255 0.081991 0.861767
-151.5499 66.82334 -8.644012 -0.1485018 -0.3247683 -0.9340625 192 192 192 255 0.076977 0.868857
-178.0997 66.92759 -8.644012 -0.1533683 -0.3148926 -0.9366541 192 192 192 255 0.058018 0.868931
-158.5709 56.7687 -8.644012 0.819872 -0.3848093 -0.4239478 192 192 192 255 0.071964 0.861677
-171.0787 56.95559 -8.644012 -0.4098119 -0.3735041 -0.8321952 192 192 192 255 0.063032 0.86181
-185.1208 56.54781 -8.644012 0.8315166 -0.3654631 -0.4183503 192 192 192 255 0.053004 0.861519
-197.6286 56.69834 -8.644012 -0.4162545 -0.3584507 -0.8356107 192 192 192 255 0.044073 0.861627
-204.6497 67.06738 -8.644012 -0.1860316 -0.3817924 -0.9053325 192 192 192 255 0.039059 0.869031
-211.6707 56.40218 -8.644012 0.7398315 -0.3406197 -0.5801962 192 192 192 255 0.034045 0.861415
-224.1785 56.9111 -8.644012 -0.4965425 -0.4430741 -0.746412 192 192 192 255 0.025113 0.861778
-11.77945 26.00002 8.725464 -0.004388468 0.003672142 0.9999837 192 192 192 255 0.176787 0.839705
-18.80048 15.55597 8.725464 0.002752163 0.005237387 0.9999825 192 192 192 255 0.171774 0.832247
-98.45013 15.43941 8.725464 0.153152 0.3226195 0.9340563 192 192 192 255 0.114896 0.832164
-125 15.16467 8.725464 0.000221675 0.000427848 0.9999999 192 192 192 255 0.095937 0.831967
-71.90027 15.40749 8.725464 0.1573205 0.3072374 0.938539 192 192 192 255 0.133855 0.832141
-231.1995 15.29405 8.725464 0.002681147 0.00521262 0.9999828 192 192 192 255 0.0201 0.83206
-25.82153 26.26218 8.725464 0.8033792 0.3131803 0.5064583 192 192 192 255 0.16676 0.839892
-38.32935 26.576 8.725464 -0.531261 0.4527251 0.7161018 192 192 192 255 0.157828 0.840116
-45.35034 16.20458 8.725464 0.1576423 0.3152829 0.9358128 192 192 192 255 0.152814 0.83271
-52.3714 26.11197 8.725464 0.8000321 0.3260771 0.5036092 192 192 192 255 0.147801 0.839785
-64.87921 26.06484 8.725464 -0.5348516 0.4530849 0.7131956 192 192 192 255 0.138869 0.839751
-78.92126 25.80224 8.725464 0.7976604 0.2898867 0.5288703 192 192 192 255 0.128841 0.839564
-91.42908 25.72906 8.725464 -0.5195318 0.4203232 0.7439188 192 192 192 255 0.11991 0.839511
-105.4711 26.17865 8.725464 0.7924302 0.3302511 0.5128242 192 192 192 255 0.109882 0.839832
-117.9789 26.32997 8.725464 -0.540713 0.4477151 0.7121662 192 192 192 255 0.10095 0.83994
-132.0211 26.07157 8.725464 0.7994456 0.3185208 0.5093439 192 192 192 255 0.090923 0.839756
-144.5288 25.89361 8.725464 -0.526505 0.4535586 0.7190807 192 192 192 255 0.081991 0.839629
-151.5499 15.6461 8.725464 0.156765 0.3108696 0.9374353 192 192 192 255 0.076977 0.832311
-178.0997 14.66772 8.725464 0.1585534 0.3003542 0.9405574 192 192 192 255 0.058018 0.831612
-158.5709 26.56753 8.725464 0.7964384 0.309736 0.5193742 192 192 192 255 0.071964 0.84011
-171.0787 25.8244 8.725464 -0.702585 0.4194833 0.5748114 192 192 192 255 0.063032 0.839579
-185.1208 26.5249 8.725464 0.8000791 0.3144725 0.5108626 192 192 192 255 0.053004 0.84008
-197.6286 26.37798 8.725464 -0.5345147 0.4487191 0.716202 192 192 192 255 0.044073 0.839975
-204.6497 15.31044 8.725464 0.19343 0.3696218 0.908826 192 192 192 255 0.039059 0.832071
-211.6707 26.24294 8.725464 0.6793395 0.2552774 0.6879909 192 192 192 255 0.034045 0.839878
-224.1785 25.59065 8.725464 -0.6121066 0.4960296 0.6158573 192 192 192 255 0.025113 0.839413
-231.1995 15.46796 -8.644012 -0.002611672 0.00544569 -0.9999818 192 192 192 255 0.0201 0.832184
-151.5499 16.15835 -8.644012 -0.154485 0.316921 -0.935786 192 192 192 255 0.076977 0.832677
-125 14.95536 -8.644012 -0.0002252858 0.0004314856 -0.9999999 192 192 192 255 0.095937 0.831818
-178.0997 15.29119 -8.644012 -0.1358355 0.2565268 -0.9569445 192 192 192 255 0.058018 0.832058
-11.77945 26.00014 -8.644012 -0.004555664 0.001789644 -0.9999881 192 192 192 255 0.176787 0.839705
-18.80048 14.78967 -8.644012 -0.002624726 0.00511242 -0.9999835 192 192 192 255 0.171774 0.8317
-224.1785 25.48341 -8.644012 -0.7985775 0.3238907 -0.5073153 192 192 192 255 0.025113 0.839336
-211.6707 26.41459 -8.644012 0.526684 0.449037 -0.7217824 192 192 192 255 0.034045 0.840001
-204.6497 15.33965 -8.644012 -0.1550322 0.3061559 -0.9392729 192 192 192 255 0.039059 0.832092
-197.6286 25.64616 -8.644012 -0.7966371 0.2868046 -0.5320833 192 192 192 255 0.044073 0.839452
-185.1208 25.67022 -8.644012 0.5332645 0.3979989 -0.7464757 192 192 192 255 0.053004 0.839469
-174.8001 20.27494 -8.644012 -0.3886416 0.5441254 -0.7435626 192 192 192 255 0.060374 0.835617
-158.5709 26.42895 -8.644012 0.5225345 0.4670006 -0.7133499 192 192 192 255 0.071964 0.840011
-144.5288 26.50064 -8.644012 -0.7982414 0.3341877 -0.501128 192 192 192 255 0.081991 0.840062
-132.0211 25.97952 -8.644012 0.5349309 0.4579162 -0.7100435 192 192 192 255 0.090923 0.83969
-117.9789 25.78331 -8.644012 -0.7996162 0.2921679 -0.5246445 192 192 192 255 0.10095 0.83955
-105.4711 25.52688 -8.644012 0.5184726 0.4299076 -0.7391655 192 192 192 255 0.109882 0.839367
-98.45013 16.31244 -8.644012 -0.1514807 0.3267279 -0.9329001 192 192 192 255 0.114896 0.832787
-71.90027 15.10277 -8.644012 -0.15707 0.3067719 -0.9387332 192 192 192 255 0.133855 0.831923
-91.42908 25.59936 -8.644012 -0.7968336 0.3236751 -0.510187 192 192 192 255 0.11991 0.839419
-78.92126 26.27822 -8.644012 0.5264575 0.4430518 -0.7256361 192 192 192 255 0.128841 0.839903
-64.87921 26.01489 -8.644012 -0.7997128 0.3056762 -0.5167412 192 192 192 255 0.138869 0.839716
-52.3714 25.92493 -8.644012 0.5197045 0.4339029 -0.7359589 192 192 192 255 0.147801 0.839651
-45.35034 14.74779 -8.644012 -0.187105 0.366778 -0.9112989 192 192 192 255 0.152814 0.83167
-38.32935 25.84653 -8.644012 -0.6783958 0.2621517 -0.6863349 192 192 192 255 0.157828 0.839595
-25.82153 26.20684 -8.644012 0.6132602 0.4952132 -0.6153665 192 192 192 255 0.16676 0.839853
0.078339 29.00531 -6.595201 0.7236805 0.1361053 -0.676581 192 192 192 255 0.185255 0.841851
0.155182 53.43634 -6.595179 0.7237037 -0.2602342 -0.6391644 192 192 192 255 0.18531 0.859297
-3.1e-05 29.00531 6.676653 0.7182411 0.2784081 0.6376666 192 192 192 255 0.184669 0.611086
-0.014862 53.43683 6.67663 0.7217273 -0.1473457 0.6763129 192 192 192 255 0.184659 0.627717
-250.0001 29.03821 -6.595201 -0.7216697 0.2512672 -0.6450253 192 192 192 255 0.006674 0.841874
-250.0001 53.43408 -6.595201 -0.7214669 -0.128917 -0.6803425 192 192 192 255 0.006674 0.859296
-250.0001 53.43408 6.676606 -0.7207377 -0.2563555 0.6440645 192 192 192 255 0.014482 0.627715
-250.0001 29.03824 6.676653 -0.723002 0.1352422 0.677479 192 192 192 255 0.014482 0.611108
0.156799 56.43634 -8.644012 0.01334574 -0.002405488 -0.9999081 192 192 192 255 0.184776 0.629759
0.072266 26.00531 -8.644012 0.009667781 0.003658704 -0.9999466 192 192 192 255 0.184718 0.609043
-0.006134 26.00531 8.725464 0.009749701 0.001876578 0.9999507 192 192 192 255 0.184665 0.609043
-0.013306 56.43683 8.725403 0.01349898 -0.005482031 0.9998939 192 192 192 255 0.18466 0.62976
-87.36335 56.29272 8.725403 0.2136066 -0.3097544 0.926512 192 192 192 255 0.125197 0.629661
-166.067 26.10931 -8.644012 -0.3719894 0.378144 -0.847721 192 192 192 255 0.07162 0.609114
-250.0001 26.03821 -8.644012 -0.01303945 0.001710178 -0.9999135 192 192 192 255 0.014482 0.609066
-250.0001 56.43408 -8.644012 -0.01358305 -0.004831396 -0.9998961 192 192 192 255 0.014482 0.629758
-250.0001 56.43408 8.725403 -0.01344698 -0.002393638 0.9999067 192 192 192 255 0.014482 0.629758
-250.0001 26.03824 8.725464 -0.006585849 0.003659399 0.9999716 192 192 192 255 0.014482 0.609066
3 0 1 6 
3 0 6 7 
3 132 216 217 
3 132 217 135 
3 124 125 8 
3 124 8 21 
3 11 12 13 
3 11 13 14 
3 136 218 219 
3 136 219 139 
3 5 11 14 
3 5 14 2 
3 140 141 142 
3 140 142 143 
3 8 22 23 
3 24 17 16 
3 24 16 25 
3 8 23 26 
3 8 26 21 
3 20 24 25 
3 20 25 19 
3 21 26 27 
3 15 18 1 
3 15 1 0 
3 28 29 30 
3 28 30 31 
3 148 149 150 
3 148 150 151 
3 29 212 213 
3 29 213 35 
3 29 35 30 
3 4 3 38 
3 4 38 39 
3 152 153 154 
3 152 154 155 
3 32 33 39 
3 32 39 38 
3 27 26 40 
3 27 40 41 
3 42 43 44 
3 42 44 45 
3 156 157 158 
3 156 158 159 
3 231 232 48 
3 231 48 233 
3 21 27 41 
3 21 41 49 
3 43 50 51 
3 43 51 44 
3 37 36 54 
3 37 54 55 
3 160 161 162 
3 160 162 163 
3 46 47 55 
3 46 55 54 
3 23 22 56 
3 23 56 234 
3 57 58 59 
3 57 59 60 
3 22 8 61 
3 22 61 56 
3 164 165 166 
3 164 166 167 
3 58 64 65 
3 58 65 59 
3 53 52 68 
3 53 68 69 
3 168 225 170 
3 168 170 171 
3 62 63 69 
3 62 69 68 
3 70 71 72 
3 70 72 73 
3 49 41 40 
3 172 173 174 
3 172 174 175 
3 76 70 73 
3 76 73 77 
3 67 66 80 
3 67 80 81 
3 61 234 56 
3 176 177 178 
3 176 178 179 
3 74 75 81 
3 74 81 80 
3 82 83 84 
3 82 84 85 
3 180 215 183 
3 88 82 85 
3 88 85 89 
3 78 79 94 
3 78 94 95 
3 10 9 90 
3 10 90 91 
3 184 185 186 
3 184 186 187 
3 87 86 95 
3 87 95 94 
3 96 97 98 
3 96 98 99 
3 188 220 221 
3 188 221 191 
3 102 96 99 
3 102 99 103 
3 92 230 229 
3 92 229 106 
3 92 106 107 
3 192 222 223 
3 192 223 195 
3 101 100 107 
3 101 107 106 
3 108 109 110 
3 108 110 111 
3 40 234 61 
3 40 61 49 
3 228 199 196 
3 228 196 197 
3 114 108 111 
3 114 111 115 
3 104 105 118 
3 104 118 119 
3 200 201 202 
3 200 202 203 
3 113 112 119 
3 113 119 118 
3 204 205 206 
3 204 206 207 
3 116 117 122 
3 116 122 123 
3 90 128 129 
3 90 129 91 
3 121 120 123 
3 121 123 122 
3 235 124 21 
3 236 128 90 
3 237 238 49 
3 21 239 240 
3 21 240 241 
3 235 21 242 
3 201 200 197 
3 201 197 196 
3 193 222 220 
3 193 220 188 
3 185 184 214 
3 185 214 180 
3 177 176 175 
3 177 175 174 
3 171 170 167 
3 171 167 166 
3 163 162 159 
3 163 159 158 
3 155 154 151 
3 155 151 150 
3 135 217 219 
3 135 219 138 
3 238 243 244 
3 238 244 245 
3 245 246 247 
3 245 247 248 
3 248 249 250 
3 248 250 251 
3 251 252 253 
3 251 253 239 
3 239 254 255 
3 239 255 240 
3 240 256 34 
3 240 34 257 
3 240 257 241 
3 241 258 259 
3 241 259 260 
3 242 260 261 
3 242 261 262 
3 263 91 129 
3 264 265 8 
3 266 267 8 
3 266 8 268 
3 269 61 270 
3 137 218 216 
3 137 216 132 
3 149 148 153 
3 149 153 152 
3 157 156 161 
3 157 161 160 
3 165 224 168 
3 173 172 179 
3 173 179 178 
3 183 182 187 
3 183 187 186 
3 191 221 223 
3 191 223 194 
3 202 199 227 
3 202 227 203 
3 265 271 272 
3 265 272 273 
3 273 274 275 
3 273 275 268 
3 268 276 277 
3 268 277 266 
3 266 278 279 
3 266 279 267 
3 267 280 281 
3 267 281 282 
3 282 283 61 
3 282 61 267 
3 282 284 285 
3 282 285 283 
3 283 286 287 
3 283 287 288 
3 61 283 288 
3 61 288 270 
3 270 288 289 
3 270 289 290 
3 291 292 9 
3 293 294 9 
3 293 9 295 
3 236 90 296 
3 292 297 298 
3 292 298 299 
3 299 300 301 
3 299 301 295 
3 295 302 303 
3 295 303 293 
3 293 304 305 
3 293 305 294 
3 294 306 307 
3 294 307 308 
3 308 309 90 
3 308 90 294 
3 308 310 311 
3 308 311 309 
3 309 312 313 
3 309 313 314 
3 90 309 314 
3 90 314 296 
3 296 314 315 
3 296 315 316 
3 264 8 125 
3 263 317 91 
3 318 319 91 
3 318 91 320 
3 321 10 322 
3 317 323 324 
3 317 324 325 
3 325 326 327 
3 325 327 320 
3 320 328 93 
3 320 93 329 
3 320 329 318 
3 318 330 331 
3 318 331 319 
3 319 332 333 
3 319 333 334 
3 334 335 10 
3 334 10 319 
3 334 336 337 
3 334 337 335 
3 335 338 339 
3 335 339 340 
3 10 335 340 
3 10 340 322 
3 322 340 341 
3 322 341 342 
3 21 241 260 
3 21 260 242 
3 251 239 49 
3 251 49 248 
3 21 49 239 
3 245 248 49 
3 245 49 238 
3 90 9 294 
3 299 295 9 
3 299 9 292 
3 10 91 319 
3 325 320 91 
3 325 91 317 
3 61 8 267 
3 273 268 8 
3 273 8 265 
3 9 127 291 
3 9 10 126 
3 9 126 127 
3 321 126 10 
3 140 144 145 
3 140 145 141 
3 146 343 344 
3 146 344 147 
3 142 345 346 
3 142 346 143 
3 49 131 237 
3 130 131 49 
3 130 49 61 
3 269 130 61 
3 206 208 209 
3 206 209 207 
3 347 210 211 
3 347 211 348 
3 204 349 350 
3 204 350 205 
3 3 4 134 
3 3 134 133 
3 5 2 132 
3 5 132 135 
3 16 17 138 
3 16 138 137 
3 18 15 136 
3 18 136 139 
3 4 18 139 
3 4 139 134 
3 17 5 135 
3 17 135 138 
3 15 3 133 
3 15 133 136 
3 2 16 137 
3 2 137 132 
3 7 6 142 
3 7 142 141 
3 20 19 140 
3 20 140 143 
3 19 351 144 
3 19 144 140 
3 352 7 141 
3 352 141 145 
3 127 126 343 
3 127 343 146 
3 125 124 147 
3 125 147 344 
3 6 353 345 
3 6 345 142 
3 354 20 143 
3 354 143 346 
3 13 12 150 
3 13 150 149 
3 33 32 148 
3 33 148 151 
3 36 37 154 
3 36 154 153 
3 28 31 152 
3 28 152 155 
3 37 33 151 
3 37 151 154 
3 12 28 155 
3 12 155 150 
3 32 36 153 
3 32 153 148 
3 31 13 149 
3 31 149 152 
3 35 213 158 
3 35 158 157 
3 47 46 156 
3 47 156 159 
3 52 53 162 
3 52 162 161 
3 42 45 160 
3 42 160 163 
3 53 47 159 
3 53 159 162 
3 158 355 42 
3 158 42 163 
3 46 52 161 
3 46 161 156 
3 45 35 157 
3 45 157 160 
3 51 50 166 
3 51 166 165 
3 63 62 164 
3 63 164 167 
3 66 67 170 
3 66 170 169 
3 57 60 168 
3 57 168 171 
3 67 63 167 
3 67 167 170 
3 50 57 171 
3 50 171 166 
3 62 66 169 
3 62 169 164 
3 60 51 165 
3 60 165 168 
3 65 64 174 
3 65 174 173 
3 75 74 172 
3 75 172 175 
3 72 71 178 
3 72 178 177 
3 79 78 176 
3 79 176 179 
3 78 75 175 
3 78 175 176 
3 64 72 177 
3 64 177 174 
3 74 79 179 
3 74 179 172 
3 71 65 173 
3 71 173 178 
3 86 87 182 
3 86 182 181 
3 76 77 180 
3 76 180 183 
3 84 83 186 
3 84 186 185 
3 187 230 92 
3 187 92 184 
3 92 86 181 
3 92 181 184 
3 77 84 185 
3 77 185 180 
3 87 356 187 
3 87 187 182 
3 83 76 183 
3 83 183 186 
3 100 101 190 
3 100 190 189 
3 88 89 188 
3 88 188 191 
3 98 97 194 
3 98 194 193 
3 105 104 192 
3 105 192 195 
3 104 100 189 
3 104 189 192 
3 89 98 193 
3 89 193 188 
3 101 105 195 
3 101 195 190 
3 97 88 191 
3 97 191 194 
3 112 113 198 
3 112 198 197 
3 102 103 196 
3 102 196 199 
3 110 109 202 
3 110 202 201 
3 117 116 200 
3 117 200 203 
3 116 112 197 
3 116 197 200 
3 103 110 201 
3 103 201 196 
3 113 117 203 
3 113 203 198 
3 109 102 199 
3 109 199 202 
3 120 121 206 
3 120 206 205 
3 114 115 204 
3 114 204 207 
3 121 357 208 
3 121 208 206 
3 358 114 207 
3 358 207 209 
3 129 128 210 
3 129 210 347 
3 131 130 348 
3 131 348 211 
3 115 359 349 
3 115 349 204 
3 360 120 205 
3 360 205 350 
3 213 212 355 
3 158 213 355 
3 180 214 215 
3 214 184 181 
3 215 214 181 
3 183 215 181 
3 183 181 182 
3 217 216 133 
3 217 133 134 
3 219 218 137 
3 219 137 138 
3 219 217 134 
3 219 134 139 
3 216 218 136 
3 216 136 133 
3 221 220 189 
3 221 189 190 
3 223 222 193 
3 223 193 194 
3 220 222 192 
3 220 192 189 
3 223 221 190 
3 223 190 195 
3 168 224 225 
3 165 164 169 
3 165 169 224 
3 225 224 169 
3 170 225 169 
3 199 228 227 
3 228 197 198 
3 228 198 226 
3 227 228 226 
3 203 227 226 
3 203 226 198 
3 356 230 187 
3 229 230 356 
