ply
format ascii 1.0
comment VCGLIB generated
comment TextureFile Dungeons_2_Texture_01_A.png
element vertex 184
property float x
property float y
property float z
property float nx
property float ny
property float nz
property uchar red
property uchar green
property uchar blue
property uchar alpha
property float texture_u
property float texture_v
element face 208
property list uchar int vertex_indices
end_header
-18.71892 15.22016 -5.488447 -0.00284813 0.005324413 -0.9999818 192 192 192 255 0.116538 0.587636
-18.71892 14.30749 5.569909 -4.737417e-05 0.003303079 0.9999946 192 192 192 255 0.116537 0.586804
-11.80487 25.95003 5.569909 -0.01230667 0.003266484 0.9999189 192 192 192 255 0.122892 0.597364
-11.55042 26.24995 -5.488447 -0.006223748 0.001747388 -0.9999791 192 192 192 255 0.204354 0.785558
-11.99243 56.59473 -5.488447 -0.01001323 -0.001904942 -0.9999481 192 192 192 255 0.204251 0.809463
-11.98668 56.60836 5.56987 -0.009744251 -0.003864109 0.999945 192 192 192 255 0.122769 0.625305
-0.012207 75.34485 -13.74911 0.9975434 -0.03422597 -0.06112163 192 192 192 255 0.213689 0.824235
-0.010498 86.80939 -13.74911 0.9965563 0.03349163 -0.07585391 192 192 192 255 0.213691 0.833266
-18.71892 67.29797 5.569851 0.002985314 -0.005810041 0.9999787 192 192 192 255 0.116574 0.635096
-18.71892 67.29797 -5.488447 -0.002233827 -0.004098102 -0.9999892 192 192 192 255 0.116574 0.635096
-0.012207 86.80939 13.74911 0.9997306 0.01723118 0.01554825 192 192 192 255 0.213689 0.833266
-0.010498 75.34485 13.74911 0.9992972 -0.01720141 0.03330581 192 192 192 255 0.213691 0.824235
-25.77052 56.3478 5.56987 0.3452648 -0.1105576 0.9319707 192 192 192 255 0.189082 0.80852
-25.88259 56.42375 -5.488447 0.4901519 -0.1594315 -0.8569322 192 192 192 255 0.109972 0.625226
-38.34389 56.61137 -5.488447 -0.4193312 -0.1779137 -0.8902292 192 192 192 255 0.179211 0.807667
-38.1251 56.25604 5.56987 -0.3765249 -0.07900558 0.9230314 192 192 192 255 0.179413 0.807407
-25.46416 25.94561 -5.488447 0.4444342 0.1334477 -0.885816 192 192 192 255 0.110353 0.59745
-25.6795 25.85596 5.569909 0.5103122 0.1972443 0.837064 192 192 192 255 0.191722 0.784644
-38.30486 25.65195 5.569909 -0.4245935 0.14164 0.8942363 192 192 192 255 0.18185 0.78342
-37.96757 25.90056 -5.488447 -0.479281 0.2195091 -0.8497679 192 192 192 255 0.098958 0.597409
-45.24158 15.53461 -5.488447 0.01413143 0.1482911 -0.9888428 192 192 192 255 0.092378 0.587676
-45.24158 15.45161 5.569909 0.0001778827 0.01269096 0.9999195 192 192 192 255 0.177329 0.774616
-52.29304 25.97723 5.569909 0.3430214 0.04274509 0.9383546 192 192 192 255 0.170949 0.782507
-52.09342 27.72877 -5.488447 0.3748969 0.1422808 -0.9160832 192 192 192 255 0.086053 0.598824
-64.78965 25.93979 5.569909 -0.02842135 0.008145642 0.9995629 192 192 192 255 0.161161 0.781455
-64.4445 26.2625 -5.488447 -0.5063855 0.2149978 -0.8350747 192 192 192 255 0.050563 0.597739
-71.66116 15.60606 -5.488447 -6.303256e-05 0.02048293 -0.9997902 192 192 192 255 0.043987 0.587634
-71.66116 14.09583 5.569909 -0.000158478 0.007055495 0.9999751 192 192 192 255 0.156794 0.771149
0 1.5e-05 8.725494 0.6666316 -0.6666905 0.333356 192 192 192 255 0.213699 0.764878
-0.000366 9.40028 5.569812 0.01566762 0.00347037 0.9998713 192 192 192 255 0.213699 0.772284
0 0 -8.644012 0.5773438 -0.5773982 -0.5773089 192 192 192 255 0.213699 0.764878
0.002136 9.399178 -5.488447 0.007933242 0.007054696 -0.9999437 192 192 192 255 0.2137 0.772283
0.208984 75.21707 -8.644012 0.9972665 -0.01584396 -0.07217012 192 192 192 255 0.213863 0.824134
0.206055 71.45815 -5.485396 0.01320363 -0.002791112 -0.999909 192 192 192 255 0.213861 0.821173
-0.017517 71.51744 5.569851 0.008620288 -0.007934244 0.9999314 192 192 192 255 0.213685 0.821219
-0.017761 75.33035 8.725372 0.9989183 -0.03323061 0.03252697 192 192 192 255 0.213685 0.824223
-0.017579 72.85739 8.725372 0.9189194 -0.2116924 0.3328264 192 192 192 255 0.213685 0.822275
0.206802 72.78432 -8.640446 0.6196592 -0.5690457 -0.5405641 192 192 192 255 0.213862 0.822218
0.001769 7.783703 -8.644012 0.8373405 0.186255 -0.5139747 192 192 192 255 0.2137 0.77101
-0.000303 7.784619 8.725343 0.5056149 0.4500116 0.7361001 192 192 192 255 0.213699 0.771011
-15.25224 27.28192 0.040731 -0.9413493 0.2594663 -0.2157287 192 192 192 255 0.119752 0.598583
-18.63737 21.28576 0.040731 0.2204 0.9555264 0.1959418 192 192 192 255 0.116617 0.593163
-18.71893 60.52282 0.040702 -0.01515236 -0.9998547 -0.00780458 192 192 192 255 0.116569 0.628922
-15.59342 55.50217 0.040711 -0.9597692 -0.280753 -0.004562039 192 192 192 255 0.11948 0.624301
-22.17745 55.17456 0.040711 0.9279104 -0.2986824 0.2230947 192 192 192 255 0.113348 0.624088
-22.02035 26.96277 0.040731 0.9622544 0.2259707 0.1516697 192 192 192 255 0.113491 0.598377
-41.62995 27.19406 0.040731 -0.9562361 0.2510844 -0.1502299 192 192 192 255 0.09562 0.598588
-41.85357 55.15873 0.040711 -0.953507 -0.3013673 -0.001474445 192 192 192 255 0.095417 0.624073
-45.28556 22.85022 0.040731 0.05433422 0.9978654 0.03622847 192 192 192 255 0.092298 0.594539
-48.32766 27.34289 0.040731 0.8385127 0.01203311 0.5447491 192 192 192 255 0.089489 0.598512
-68.28449 26.9352 0.040731 -0.9638053 0.2253641 -0.1424442 192 192 192 255 0.047064 0.598352
-71.66114 21.94947 0.040731 -0.01227896 0.9991258 0.03996066 192 192 192 255 0.043987 0.593808
-26.30637 50.29594 -5.488447 0.4619829 -0.005929093 -0.886869 192 192 192 255 0.109585 0.619642
-26.20715 49.67255 5.569879 0.4638064 -0.007191595 0.8859075 192 192 192 255 0.189302 0.803254
-37.71096 38.45162 5.569892 -0.4672849 0.001967118 0.8841046 192 192 192 255 0.181237 0.793496
-37.68897 39.19324 -5.488447 -0.4644736 -0.003086758 -0.8855816 192 192 192 255 0.099212 0.609523
-22.16183 52.36774 0.040713 0.9735773 -0.01336408 -0.2279664 192 192 192 255 0.113362 0.62153
-41.70441 36.50643 0.040724 -0.9755397 0.0005857897 0.2198228 192 192 192 255 0.095553 0.607075
-55.49433 34.16883 5.569898 0.1336329 0.04907725 0.989815 192 192 192 255 0.16777 0.788664
-50.59798 34.68529 3.251969 0.6540523 0.07102659 0.7531074 192 192 192 255 0.087343 0.605179
-64.45872 29.22347 -5.488447 -0.5747473 0.7062679 -0.4133415 192 192 192 255 0.050548 0.600438
-15.28175 86.80939 -13.74911 -0.101107 0.9802468 -0.169981 192 192 192 255 0.195273 0.833265
-73.34521 24.30541 0.040731 -0.9191417 0.3883242 0.06620359 192 192 192 255 0.042452 0.595955
-75.12319 20.72654 -5.488447 -0.9168879 0.3416538 -0.2063715 192 192 192 255 0.040831 0.592497
-77.8513 14.30733 5.569909 -0.9343271 0.2863819 0.2121753 192 192 192 255 0.151893 0.771137
-74.84829 19.48002 5.569909 -0.8360626 0.4267105 0.3448443 192 192 192 255 0.041082 0.591261
-77.15713 11.82411 -5.488447 -0.9012676 0.290449 -0.3214904 192 192 192 255 0.152641 0.769231
-90.06322 1.5e-05 8.725494 -0.8775181 0.4442016 -0.1806847 192 192 192 255 0.261858 0.751652
-85.42812 0 -8.644012 -0.9052055 0.3400078 -0.2549464 192 192 192 255 0.282202 0.751653
-78.08143 11.19849 5.569923 -0.5813967 0.5776254 0.5729981 192 192 192 255 0.151953 0.76881
-79.5451 9.40003 -5.488447 -0.4691611 0.875294 -0.1172534 192 192 192 255 0.150951 0.767311
-82.74693 9.400208 5.569911 -0.4551437 0.8862095 -0.08646987 192 192 192 255 0.265554 0.762662
-85.16369 7.784558 8.725471 -0.8017071 0.5853574 -0.1209236 192 192 192 255 0.261858 0.76077
-82.38905 7.784412 -8.644012 -0.814485 0.552111 -0.1782904 192 192 192 255 0.282202 0.76077
-14.56014 86.80939 13.74911 -0.5633902 0.2964225 0.7711843 192 192 192 255 0.197571 0.833266
-17.84323 75.34485 13.74911 -0.464772 0.116957 0.877672 192 192 192 255 0.193708 0.824151
-27.24645 75.33035 8.725372 -0.5986812 0.2968867 0.7439349 192 192 192 255 0.261858 0.839882
-28.18966 75.34485 -13.74911 -0.7550029 -0.232157 -0.6132485 192 192 192 255 0.287522 0.840791
-31.01061 85.15577 -13.74911 -0.7207559 0.651477 -0.2368305 192 192 192 255 0.182551 0.830643
-40.1827 59.36687 -5.488447 -0.7636417 0.2192501 -0.6072732 192 192 192 255 0.177527 0.809786
-42.76514 56.5472 0.040709 -0.9133446 0.3936184 0.1042414 192 192 192 255 0.094586 0.625339
-40.48115 59.74256 5.569863 -0.9023438 0.3997169 0.1612514 192 192 192 255 0.177257 0.810094
-36.59058 67.89738 5.569851 -0.9003794 0.422738 0.1030024 192 192 192 255 0.179634 0.816655
-31.91807 71.49139 5.569851 -0.7043946 0.3238544 0.6316223 192 192 192 255 0.182991 0.819864
-28.43543 72.83813 8.725372 -0.6164026 0.1498417 0.7730429 192 192 192 255 0.185606 0.821212
-32.09312 75.21707 -8.644012 -0.9761009 -0.009232768 -0.2171219 192 192 192 255 0.282202 0.839749
-38.09925 67.91902 -5.488054 -0.6918191 0.3283544 -0.6430939 192 192 192 255 0.178451 0.816545
-33.49931 71.36024 -5.485696 -0.8776526 -0.06620105 -0.4747034 192 192 192 255 0.278503 0.835232
-31.86309 72.7115 -8.640795 -0.7483976 -0.1565958 -0.6444989 192 192 192 255 0.282198 0.836814
-30.1016 86.80939 -3.854959 -0.5901373 0.803511 -0.07815389 192 192 192 255 0.182484 0.834988
-28.07043 86.80939 1.911429 -0.6376144 0.3641809 0.6788374 192 192 192 255 0.269839 0.853326
-48.29299 45.59259 0.040718 -0.5858805 0.724514 -0.3630752 192 192 192 255 0.089329 0.615143
-52.11028 39.35772 -5.488447 -0.5840615 0.7020533 -0.4074228 192 192 192 255 0.085917 0.609421
-64.67803 30.06605 5.569903 -0.7254598 0.56091 0.3988585 192 192 192 255 0.050351 0.601205
-54.07729 43.6278 5.569886 -0.6957794 0.7158911 -0.05823184 192 192 192 255 0.168106 0.796191
-51.3567 45.13643 4.369984 -0.6054473 0.725458 -0.3273292 192 192 192 255 0.086542 0.614695
-68.28931 29.23341 0.040729 -0.7025087 0.708663 -0.06540891 192 192 192 255 0.047059 0.600447
-35.48852 68.87998 -0.371485 -0.9023606 0.4254843 -0.06861772 192 192 192 255 0.272513 0.832327
-32.08875 75.05436 -2.308692 -0.8864629 0.451258 0.1027127 192 192 192 255 0.274782 0.839558
-37.35674 64.66842 0.123264 -0.9156774 0.3938259 -0.08022522 192 192 192 255 0.271933 0.827394
-17.23791 75.34485 -13.74911 0 -0.6982043 -0.7158986 192 192 192 255 0.193791 0.824178
-17.27608 75.21707 -8.644012 3.378657e-06 -0.698678 -0.7154364 192 192 192 255 0.193807 0.824077
-17.70236 72.71897 -8.640759 0.001010413 -0.5518796 -0.8339232 192 192 192 255 0.193499 0.822096
-17.94243 71.37115 -5.485662 0.0001194617 -0.03515206 -0.999382 192 192 192 255 0.193395 0.821028
-11.98668 56.60836 5.56987 -0.009744251 -0.003864109 0.999945 192 192 192 255 0.204256 0.809474
-18.71892 67.29797 5.569851 0.002985314 -0.005810041 0.9999787 192 192 192 255 0.196317 0.817797
-25.88259 56.42375 -5.488447 0.4901519 -0.1594315 -0.8569322 192 192 192 255 0.188988 0.80857
-26.30637 50.29594 -5.488447 0.4619829 -0.005929093 -0.886869 192 192 192 255 0.189172 0.803734
-37.68897 39.19324 -5.488447 -0.4644736 -0.003086758 -0.8855816 192 192 192 255 0.181191 0.794079
-18.71892 67.29797 -5.488447 -0.002233827 -0.004098102 -0.9999892 192 192 192 255 0.196317 0.817797
-18.71892 14.30749 5.569909 -4.737417e-05 0.003303079 0.9999946 192 192 192 255 0.198513 0.776168
-71.66116 15.60606 -5.488447 -6.303256e-05 0.02048293 -0.9997902 192 192 192 255 0.156658 0.772458
-64.4445 26.2625 -5.488447 -0.5063855 0.2149978 -0.8350747 192 192 192 255 0.161405 0.781736
-52.09342 27.72877 -5.488447 0.3748969 0.1422808 -0.9160832 192 192 192 255 0.170962 0.783896
-45.24158 15.53461 -5.488447 0.01413143 0.1482911 -0.9888428 192 192 192 255 0.177317 0.774736
-37.96757 25.90056 -5.488447 -0.479281 0.2195091 -0.8497679 192 192 192 255 0.182093 0.783644
-25.46416 25.94561 -5.488447 0.4444342 0.1334477 -0.885816 192 192 192 255 0.191883 0.784732
-18.71892 15.22016 -5.488447 -0.00284813 0.005324413 -0.9999818 192 192 192 255 0.198513 0.776887
-11.80487 25.95003 5.569909 -0.01230667 0.003266484 0.9999189 192 192 192 255 0.204399 0.785322
-11.55042 26.24995 -5.488447 -0.006223748 0.001747388 -0.9999791 192 192 192 255 0.12284 0.597638
-11.99243 56.59473 -5.488447 -0.01001323 -0.001904942 -0.9999481 192 192 192 255 0.122763 0.625292
-25.77052 56.3478 5.56987 0.3452648 -0.1105576 0.9319707 192 192 192 255 0.110074 0.625157
-26.20715 49.67255 5.569879 0.4638064 -0.007191595 0.8859075 192 192 192 255 0.109676 0.619074
-25.6795 25.85596 5.569909 0.5103122 0.1972443 0.837064 192 192 192 255 0.110157 0.597369
-38.30486 25.65195 5.569909 -0.4245935 0.14164 0.8942363 192 192 192 255 0.098651 0.597183
-37.71096 38.45162 5.569892 -0.4672849 0.001967118 0.8841046 192 192 192 255 0.099192 0.608847
-45.24158 15.45161 5.569909 0.0001778827 0.01269096 0.9999195 192 192 192 255 0.09238 0.587545
-52.29304 25.97723 5.569909 0.3430214 0.04274509 0.9383546 192 192 192 255 0.08589 0.597226
-64.78965 25.93979 5.569909 -0.02842135 0.008145642 0.9995629 192 192 192 255 0.050249 0.597445
-71.66116 14.09583 5.569909 -0.000158478 0.007055495 0.9999751 192 192 192 255 0.043987 0.586112
-38.34389 56.61137 -5.488447 -0.4193312 -0.1779137 -0.8902292 192 192 192 255 0.098615 0.625397
-38.1251 56.25604 5.56987 -0.3765249 -0.07900558 0.9230314 192 192 192 255 0.098815 0.625073
-55.49433 34.16883 5.569898 0.1336329 0.04907725 0.989815 192 192 192 255 0.082887 0.604657
-74.84829 19.48002 5.569909 -0.8360626 0.4267105 0.3448443 192 192 192 255 0.153835 0.775315
-75.12319 20.72654 -5.488447 -0.9168879 0.3416538 -0.2063715 192 192 192 255 0.153508 0.776355
-40.1827 59.36687 -5.488447 -0.7636417 0.2192501 -0.6072732 192 192 192 255 0.096939 0.628013
-40.48115 59.74256 5.569863 -0.9023438 0.3997169 0.1612514 192 192 192 255 0.096667 0.62843
-64.67803 30.06605 5.569903 -0.7254598 0.56091 0.3988585 192 192 192 255 0.16091 0.784697
-54.07729 43.6278 5.569886 -0.6957794 0.7158911 -0.05823184 192 192 192 255 0.084079 0.613292
-64.45872 29.22347 -5.488447 -0.5747473 0.7062679 -0.4133415 192 192 192 255 0.161151 0.784055
-52.11028 39.35772 -5.488447 -0.5840615 0.7020533 -0.4074228 192 192 192 255 0.169997 0.793006
-77.8513 14.30733 5.569909 -0.9343271 0.2863819 0.2121753 192 192 192 255 0.265554 0.76841
-77.15713 11.82411 -5.488447 -0.9012676 0.290449 -0.3214904 192 192 192 255 0.278506 0.765501
-78.08143 11.19849 5.569923 -0.5813967 0.5776254 0.5729981 192 192 192 255 0.265554 0.764768
-31.91807 71.49139 5.569851 -0.7043946 0.3238544 0.6316223 192 192 192 255 0.265554 0.835385
-54.07729 43.6278 5.569886 -0.6957794 0.7158911 -0.05823184 192 192 192 255 0.317472 0.842147
-64.45872 29.22347 -5.488447 -0.5747473 0.7062679 -0.4133415 192 192 192 255 0.30476 0.855689
-68.28931 29.23341 0.040729 -0.7025087 0.708663 -0.06540891 192 192 192 255 0.300069 0.848918
-36.59058 67.89738 5.569851 -0.9003794 0.422738 0.1030024 192 192 192 255 0.265554 0.831176
-28.43543 72.83813 8.725372 -0.6164026 0.1498417 0.7730429 192 192 192 255 0.261858 0.836963
-17.84323 75.34485 13.74911 -0.464772 0.116957 0.877672 192 192 192 255 0.2537 0.842371
-14.56014 86.80939 13.74911 -0.5633902 0.2964225 0.7711843 192 192 192 255 0.255974 0.853326
-42.76514 56.5472 0.040709 -0.9133446 0.3936184 0.1042414 192 192 192 255 0.27203 0.817882
-40.48115 59.74256 5.569863 -0.9023438 0.3997169 0.1612514 192 192 192 255 0.265554 0.821625
-40.1827 59.36687 -5.488447 -0.7636417 0.2192501 -0.6072732 192 192 192 255 0.278506 0.821185
-30.1016 86.80939 -3.854959 -0.5901373 0.803511 -0.07815389 192 192 192 255 0.276593 0.853326
-31.01061 85.15577 -13.74911 -0.7207559 0.651477 -0.2368305 192 192 192 255 0.288181 0.851389
-38.09925 67.91902 -5.488054 -0.6918191 0.3283544 -0.6430939 192 192 192 255 0.278506 0.831201
-52.11028 39.35772 -5.488447 -0.5840615 0.7020533 -0.4074228 192 192 192 255 0.319881 0.855689
-51.3567 45.13643 4.369984 -0.6054473 0.725458 -0.3273292 192 192 192 255 0.320804 0.843617
-48.29299 45.59259 0.040718 -0.5858805 0.724514 -0.3630752 192 192 192 255 0.324555 0.848918
-64.67803 30.06605 5.569903 -0.7254598 0.56091 0.3988585 192 192 192 255 0.304491 0.842147
-75.12319 20.72654 -5.488447 -0.9168879 0.3416538 -0.2063715 192 192 192 255 0.278506 0.775928
-79.5451 9.40003 -5.488447 -0.4691611 0.875294 -0.1172534 192 192 192 255 0.278506 0.762662
-74.84829 19.48002 5.569909 -0.8360626 0.4267105 0.3448443 192 192 192 255 0.265554 0.774468
-73.34521 24.30541 0.040731 -0.9191417 0.3883242 0.06620359 192 192 192 255 0.27203 0.78012
-85.42812 0 -8.644012 -0.9052055 0.3400078 -0.2549464 192 192 192 255 0.147113 0.759441
-82.38905 7.784412 -8.644012 -0.8144851 0.5521111 -0.1782904 192 192 192 255 0.148857 0.765792
-0.010498 86.80939 -13.74911 0.9965563 0.03349163 -0.07585391 192 192 192 255 0.226646 0.85085
-15.28175 86.80939 -13.74911 -0.101107 0.9802468 -0.169981 192 192 192 255 0.206946 0.85085
-14.56014 86.80939 13.74911 -0.5633902 0.2964225 0.7711843 192 192 192 255 0.208629 0.826887
-0.012207 86.80939 13.74911 0.9997306 0.01723118 0.01554825 192 192 192 255 0.226644 0.826887
-27.24645 75.33035 8.725372 -0.5986812 0.2968867 0.7439349 192 192 192 255 0.186327 0.823264
-82.74693 9.400208 5.569911 -0.4551437 0.8862095 -0.08646987 192 192 192 255 0.148444 0.767024
-85.16369 7.784558 8.725471 -0.8017071 0.5853574 -0.1209236 192 192 192 255 0.146683 0.765562
-90.06322 1.5e-05 8.725494 -0.8775181 0.4442016 -0.1806847 192 192 192 255 0.143481 0.759062
-33.49931 71.36024 -5.485696 -0.8776526 -0.06620105 -0.4747034 192 192 192 255 0.181764 0.819628
-31.86309 72.7115 -8.640795 -0.7483976 -0.1565958 -0.6444989 192 192 192 255 0.182932 0.820824
-32.09312 75.21707 -8.644012 -0.9761009 -0.009232768 -0.2171219 192 192 192 255 0.18254 0.822767
-28.18966 75.34485 -13.74911 -0.7550029 -0.232157 -0.6132485 192 192 192 255 0.185587 0.823196
-28.07043 86.80939 1.911429 -0.6376144 0.3641809 0.6788374 192 192 192 255 0.109502 0.837203
-14.56014 86.80939 13.74911 -0.5633902 0.2964225 0.7711843 192 192 192 255 0.121276 0.826887
-15.28175 86.80939 -13.74911 -0.101107 0.9802468 -0.169981 192 192 192 255 0.120647 0.85085
-30.1016 86.80939 -3.854959 -0.5901373 0.803511 -0.07815389 192 192 192 255 0.107732 0.842228
3 41 1 2 
3 41 2 40 
3 43 40 2 
3 43 2 5 
3 5 8 42 
3 5 42 43 
3 11 10 74 
3 11 74 75 
3 7 6 100 
3 7 100 61 
3 42 44 13 
3 42 13 9 
3 16 52 56 
3 16 56 45 
3 46 57 55 
3 46 55 19 
3 16 45 41 
3 16 41 0 
3 48 46 19 
3 48 19 20 
3 23 49 48 
3 23 48 20 
3 51 50 25 
3 51 25 26 
3 104 34 105 
3 15 54 53 
3 15 53 12 
3 106 107 108 
3 106 108 14 
3 109 106 14 
3 109 14 79 
3 109 79 86 
3 110 17 18 
3 110 18 21 
3 21 22 24 
3 21 24 27 
3 111 112 113 
3 111 113 114 
3 114 115 116 
3 114 116 117 
3 35 10 11 
3 36 37 32 
3 36 32 35 
3 29 31 33 
3 29 33 34 
3 32 6 7 
3 32 7 10 
3 32 10 35 
3 6 32 101 
3 6 101 100 
3 29 34 104 
3 29 104 118 
3 4 109 33 
3 118 110 29 
3 4 33 31 
3 4 31 3 
3 3 31 117 
3 117 31 70 
3 117 70 114 
3 111 114 70 
3 111 70 66 
3 38 39 28 
3 38 28 30 
3 32 37 102 
3 32 102 101 
3 34 36 84 
3 34 84 83 
3 33 37 36 
3 33 36 34 
3 29 39 38 
3 29 38 31 
3 0 41 40 
3 0 40 119 
3 43 42 9 
3 43 9 120 
3 120 119 40 
3 120 40 43 
3 8 121 44 
3 8 44 42 
3 45 56 122 
3 45 122 123 
3 41 45 123 
3 41 123 1 
3 124 125 57 
3 124 57 46 
3 124 46 48 
3 124 48 126 
3 48 49 127 
3 48 127 126 
3 128 93 96 
3 128 96 50 
3 51 62 65 
3 51 65 129 
3 128 50 51 
3 128 51 129 
3 56 52 13 
3 56 13 44 
3 55 57 47 
3 55 47 130 
3 53 54 18 
3 53 18 17 
3 108 107 116 
3 108 116 115 
3 122 56 44 
3 122 44 121 
3 57 125 131 
3 57 131 47 
3 58 24 22 
3 59 132 127 
3 49 59 127 
3 50 96 60 
3 50 60 25 
3 61 78 89 
3 63 62 51 
3 63 51 26 
3 133 64 27 
3 66 134 111 
3 69 21 27 
3 64 69 27 
3 80 135 130 
3 80 130 47 
3 82 81 15 
3 82 15 12 
3 82 12 105 
3 136 80 47 
3 136 47 131 
3 92 91 49 
3 92 49 23 
3 94 137 24 
3 94 24 58 
3 91 95 59 
3 91 59 49 
3 95 138 132 
3 95 132 59 
3 139 140 113 
3 139 113 112 
3 141 142 143 
3 76 90 144 
3 145 146 147 
3 148 97 99 
3 76 144 149 
3 150 151 76 
3 148 152 153 
3 148 99 154 
3 148 154 152 
3 144 90 155 
3 144 155 98 
3 85 156 77 
3 87 85 88 
3 85 155 156 
3 97 98 87 
3 97 87 157 
3 144 98 97 
3 144 97 148 
3 87 98 155 
3 87 155 85 
3 158 159 160 
3 158 146 145 
3 158 145 159 
3 145 147 161 
3 162 142 141 
3 143 163 71 
3 143 142 163 
3 71 73 72 
3 71 163 73 
3 72 73 67 
3 67 73 68 
3 162 164 165 
3 162 141 164 
3 99 97 157 
3 99 157 154 
3 76 151 90 
3 166 167 38 
3 166 38 30 
3 167 70 31 
3 167 31 38 
3 168 169 170 
3 168 170 171 
3 103 102 37 
3 103 37 33 
3 109 103 33 
3 75 172 35 
3 75 35 11 
3 35 172 84 
3 35 84 36 
3 34 83 82 
3 34 82 105 
3 110 21 69 
3 110 69 173 
3 110 173 29 
3 173 174 39 
3 173 39 29 
3 39 174 175 
3 39 175 28 
3 28 175 166 
3 28 166 30 
3 103 109 86 
3 103 86 176 
3 176 177 102 
3 176 102 103 
3 101 102 177 
3 101 177 178 
3 100 101 178 
3 100 178 179 
3 61 100 179 
3 61 179 78 
3 180 181 182 
3 180 182 183 
