ply
format ascii 1.0
comment VCGLIB generated
comment TextureFile Dungeons_2_Texture_01_A.png
element vertex 372
property float x
property float y
property float z
property float nx
property float ny
property float nz
property uchar red
property uchar green
property uchar blue
property uchar alpha
property float texture_u
property float texture_v
element face 298
property list uchar int vertex_indices
end_header
50 33.51131 50 0.2269568 0.9431996 0.2426216 192 192 192 255 0.120972 0.756852
50 33.51131 -50 0.4451985 0.8954318 -0.0004429807 192 192 192 255 0.160307 0.890975
-50 33.51131 -50 -0.4449144 0.8955696 -0.002499192 192 192 192 255 0.108648 0.890975
-50 33.51131 50 -0.1901318 0.9414579 0.2784009 192 192 192 255 0.108648 0.839316
39.78806 47.6995 39.78805 0.5726753 0.3569534 0.7379888 192 192 192 255 0.126248 0.764181
39.78806 47.6995 -39.78805 0.5197929 0.4630084 -0.7179404 192 192 192 255 0.113082 0.973194
-39.78806 47.6995 -39.78805 -0.793591 0.329768 -0.5113379 192 192 192 255 0.071974 0.973194
-39.78806 47.6995 39.78805 -0.7210788 0.4817287 0.4979787 192 192 192 255 0.22163 0.764181
62.09261 0 -62.09265 1 -0.0001498442 -0.0001498096 192 192 192 255 0.081944 0.833069
62.09261 0 62.09265 0.3553746 -0.0003396338 0.9347239 192 192 192 255 0.223102 0.889488
62.09261 27.49798 -62.09265 0.9404855 0.339833 -0.0007379352 192 192 192 255 0.166554 0.897222
62.09263 16.86734 62.09265 0.7380432 0.05407726 0.6725831 192 192 192 255 0.177576 0.897222
-62.09266 27.49798 -62.09265 -0.9400827 0.3409354 -0.002749865 192 192 192 255 0.102401 0.897222
-62.09266 0 -62.09265 -0.9999999 -0.0003284615 -0.000328503 192 192 192 255 0.081944 0.897222
-62.09266 0 62.09265 -0.7071068 -0.0002070685 0.7071067 192 192 192 255 0.049029 0.833069
-62.09266 27.49798 62.09265 -0.5562462 0.1898895 0.8090316 192 192 192 255 0.102401 0.833069
19.89602 74.41493 -39.78805 0.3578481 0.1033337 -0.9280447 192 192 192 255 0.102806 0.959393
39.78806 74.41493 -19.89601 0.70635 0.05191455 -0.7059565 192 192 192 255 0.15708 0.777982
39.78806 60.34914 -39.78805 0.5031081 0.7039542 -0.501329 192 192 192 255 0.167356 0.770716
-19.89602 74.41493 39.78805 -0.4997353 0.7049507 0.5032984 192 192 192 255 0.027903 0.777982
-39.78806 74.41493 19.89601 -0.5052467 0.7034289 0.4999136 192 192 192 255 0.211354 0.777982
-39.78806 60.34914 39.78805 -0.5022098 0.7026975 0.5039857 192 192 192 255 0.22163 0.770716
19.89602 74.41493 39.78805 0.4994644 0.7027968 0.5065688 192 192 192 255 0.048459 0.777982
39.78806 60.34914 39.78805 0.5031081 0.7039542 0.501329 192 192 192 255 0.126248 0.770716
39.78806 74.41493 19.89601 0.5046269 0.7043183 0.499287 192 192 192 255 0.136524 0.777982
-39.78806 74.41493 -19.89601 -0.5046269 0.7043183 -0.499287 192 192 192 255 0.190798 0.777982
-19.89602 74.41493 -39.78805 -0.0236905 0.03333493 -0.9991634 192 192 192 255 0.08225 0.959393
-39.78806 60.34914 -39.78805 -0.5022098 0.7026975 -0.5039857 192 192 192 255 0.180522 0.770716
19.89602 225.0531 -39.78805 0.1146177 -0.04719276 -0.9922881 192 192 192 255 0.102806 0.881575
39.78806 225.0531 -19.89601 0.7057042 -0.07048857 -0.7049916 192 192 192 255 0.15708 0.8558
39.78806 239.1189 -39.78805 0.5031081 -0.7039542 -0.501329 192 192 192 255 0.167356 0.863067
-19.89602 225.0531 39.78805 -0.4999136 -0.7034289 0.5052467 192 192 192 255 0.027903 0.8558
-39.78806 225.0531 19.89601 -0.5059518 -0.7036854 0.4988383 192 192 192 255 0.211354 0.8558
-39.78806 239.1189 39.78805 -0.5026591 -0.703326 0.5026591 192 192 192 255 0.22163 0.863067
19.89602 225.0531 39.78805 0.499287 -0.7043183 0.5046269 192 192 192 255 0.048459 0.8558
39.78806 239.1189 39.78805 0.5026591 -0.703326 0.5026591 192 192 192 255 0.126248 0.863067
39.78806 225.0531 19.89601 0.503921 -0.7040604 0.5003624 192 192 192 255 0.136524 0.8558
-39.78806 225.0531 -19.89601 -0.503921 -0.7040604 -0.5003624 192 192 192 255 0.190798 0.8558
-19.89602 225.0531 -39.78805 -0.04456398 -0.06286409 -0.9970267 192 192 192 255 0.08225 0.881575
-39.78806 239.1189 -39.78805 -0.5022098 -0.7026975 -0.5039857 192 192 192 255 0.180522 0.863067
50 466.4887 50 0.001104614 -0.895509 0.445042 192 192 192 255 0.158282 0.883919
50 466.4887 -50 0.001218687 -0.89559 -0.4448787 192 192 192 255 0.158282 0.837865
-50 466.4887 -50 -0.00141472 -0.8953972 -0.4452661 192 192 192 255 0.112227 0.837865
-50 466.4887 50 -0.00130812 -0.8954437 0.4451729 192 192 192 255 0.112227 0.883919
39.78806 452.3005 39.78805 0.5726752 -0.3569537 0.7379887 192 192 192 255 0.126248 0.973194
39.78806 452.3005 -39.78805 0.5197928 -0.4630088 -0.7179404 192 192 192 255 0.113082 0.764181
-39.78806 452.3005 -39.78805 -0.7935908 -0.3297682 -0.5113379 192 192 192 255 0.071974 0.764181
-39.78806 452.3005 39.78805 -0.7210786 -0.481729 0.4979787 192 192 192 255 0.22163 0.973194
62.09261 500 -62.09265 0.0002570022 0.0002570022 -0.9999999 192 192 192 255 0.104599 0.832295
62.09261 500 62.09265 0.0003269766 0.0003269766 0.9999999 192 192 192 255 0.104599 0.889488
62.09261 472.502 -62.09265 0.003961607 -0.34071 -0.9401601 192 192 192 255 0.163851 0.832295
62.09261 472.502 62.09265 0.001304182 -0.340522 0.9402357 192 192 192 255 0.163851 0.889488
-62.09266 472.502 -62.09265 -0.002542949 -0.3415588 -0.939857 192 192 192 255 0.106658 0.832295
-62.09266 500 -62.09265 -0.0003517007 0.0003517007 -0.9999999 192 192 192 255 0.075531 0.889488
-62.09266 500 62.09265 -0.000292839 0.000292839 0.9999999 192 192 192 255 0.073473 0.832295
-62.09266 472.502 62.09265 -0.0006380141 -0.0505708 0.9987203 192 192 192 255 0.106658 0.889488
19.89602 425.5851 -39.78805 0.4998696 -0.7034389 -0.5052764 192 192 192 255 0.102806 0.777982
39.78806 425.5851 -19.89601 0.5059299 -0.7036905 -0.4988533 192 192 192 255 0.15708 0.959393
39.78806 439.6509 -39.78805 0.5031081 -0.7039542 -0.501329 192 192 192 255 0.167356 0.96666
-19.89602 425.5851 39.78805 -0.5004743 -0.7040973 0.5037584 192 192 192 255 0.027903 0.959393
-39.78806 425.5851 19.89601 -0.5046825 -0.7043363 0.4992054 192 192 192 255 0.211354 0.959393
-39.78806 439.6509 39.78805 -0.5022098 -0.7026975 0.5039857 192 192 192 255 0.22163 0.96666
19.89602 425.5851 39.78805 0.4988656 -0.7036949 0.5059117 192 192 192 255 0.048459 0.959393
39.78806 439.6509 39.78805 0.5031081 -0.7039542 0.501329 192 192 192 255 0.126248 0.96666
39.78806 425.5851 19.89601 0.503975 -0.704079 0.5002819 192 192 192 255 0.136524 0.959393
-39.78806 425.5851 -19.89601 -0.5051975 -0.7034404 -0.4999472 192 192 192 255 0.190798 0.959393
-19.89602 425.5851 -39.78805 -0.4992623 -0.7043238 -0.5046436 192 192 192 255 0.08225 0.777982
-39.78806 439.6509 -39.78805 -0.5022098 -0.7026975 -0.5039857 192 192 192 255 0.180522 0.96666
19.89602 274.9469 -39.78805 0.4998268 0.7034488 -0.5053049 192 192 192 255 0.102806 0.8558
39.78806 274.9469 -19.89601 0.5059085 0.7036957 -0.4988677 192 192 192 255 0.15708 0.881575
39.78806 260.8811 -39.78805 0.501329 0.7039542 -0.5031081 192 192 192 255 0.167356 0.874309
-19.89602 274.9469 39.78805 -0.4998396 0.7034636 0.5052717 192 192 192 255 0.027903 0.881575
-39.78806 274.9469 19.89601 -0.5059149 0.7037029 0.4988511 192 192 192 255 0.211354 0.881575
-39.78806 260.8811 39.78805 -0.5008801 0.7033238 0.504435 192 192 192 255 0.22163 0.874309
19.89602 274.9469 39.78805 0.4992994 0.7043225 0.5046088 192 192 192 255 0.048459 0.881575
39.78806 260.8811 39.78805 0.504435 0.7033238 0.5008801 192 192 192 255 0.126248 0.874309
39.78806 274.9469 19.89601 0.5039456 0.7040687 0.5003262 192 192 192 255 0.136524 0.881575
-39.78806 274.9469 -19.89601 -0.5038896 0.7040677 -0.5003839 192 192 192 255 0.190798 0.881575
-19.89602 274.9469 -39.78805 -0.4992712 0.7043218 -0.5046375 192 192 192 255 0.08225 0.8558
-39.78806 260.8811 -39.78805 -0.5039857 0.7026975 -0.5022098 192 192 192 255 0.180522 0.874309
39.78805 250 -31.57776 0.7179596 0.2201015 -0.6603707 192 192 192 255 0.077944 0.890827
39.78805 236.0607 -17.63984 0.6360803 -0.6657861 -0.3900394 192 192 192 255 0.071524 0.897246
39.78805 263.9393 -17.63984 0.6360801 0.7465718 -0.1950198 192 192 192 255 0.084363 0.897246
39.78805 263.9393 17.63982 0.6360804 0.665786 0.3900394 192 192 192 255 0.131679 0.890827
39.78805 250 31.57775 0.7179597 -0.2201013 0.6603705 192 192 192 255 0.077944 0.919913
39.78805 236.0607 17.63982 0.6360803 -0.7465717 0.1950197 192 192 192 255 0.071524 0.913494
44.52616 250 -26.42647 0.9074364 -0.1328636 -0.3986307 192 192 192 255 0.077944 0.8932
44.52615 239.7034 -16.13086 0.8652656 -0.4850382 -0.1267019 192 192 192 255 0.073202 0.897941
44.52615 260.2966 -16.13087 0.8652657 0.4325528 -0.2534036 192 192 192 255 0.082686 0.897941
44.52616 260.2966 16.13085 0.7868931 0.5970552 0.1559629 192 192 192 255 0.082686 0.912799
44.52616 250 26.42644 0.9567242 0.09201279 0.2760662 192 192 192 255 0.077944 0.917541
44.52616 239.7034 16.13085 0.7868932 -0.5324484 0.3119259 192 192 192 255 0.073202 0.912799
-34.91345 60.34914 34.91345 -0.8923423 0 0.4513594 192 192 192 255 0.032762 0.525778
34.91345 60.34914 34.91345 0.2031857 0 0.9791402 192 192 192 255 0.068834 0.525778
-34.91345 439.6509 34.91345 -0.4562166 0 0.8898688 192 192 192 255 0.032762 0.721722
34.91345 439.6509 34.91345 0.9378327 0 0.3470876 192 192 192 255 0.068834 0.721722
-34.91345 439.6509 -34.91345 -0.9952118 9.148793e-09 -0.09774142 192 192 192 255 0.071634 0.525778
34.91345 439.6509 -34.91345 0.4494582 0 -0.8933014 192 192 192 255 0.107706 0.525778
-34.91345 60.34914 -34.91345 -0.4002708 0 -0.9163969 192 192 192 255 0.071634 0.721722
34.91345 60.34914 -34.91345 0.8929281 0 -0.4501994 192 192 192 255 0.107706 0.721722
-39.78805 250 31.57776 -0.7179596 0.2201015 0.6603707 192 192 192 255 0.092982 0.890827
-39.78805 236.0607 17.63984 -0.6360803 -0.6657861 0.3900394 192 192 192 255 0.086563 0.897246
-39.78805 263.9393 17.63984 -0.6360801 0.7465718 0.1950198 192 192 192 255 0.099402 0.897246
-39.78805 263.9393 -17.63982 -0.6360804 0.665786 -0.3900394 192 192 192 255 0.143015 0.907075
-39.78805 250 -31.57775 -0.7179597 -0.2201013 -0.6603705 192 192 192 255 0.092982 0.919913
-39.78805 236.0607 -17.63982 -0.6360803 -0.7465717 -0.1950197 192 192 192 255 0.086563 0.913494
-44.52616 250 26.42647 -0.9074364 -0.1328636 0.3986307 192 192 192 255 0.092982 0.8932
-44.52615 239.7034 16.13086 -0.8652656 -0.4850382 0.1267019 192 192 192 255 0.08824 0.897941
-44.52615 260.2966 16.13087 -0.8652657 0.4325528 0.2534036 192 192 192 255 0.097724 0.897941
-44.52616 260.2966 -16.13085 -0.7868931 0.5970552 -0.1559629 192 192 192 255 0.097724 0.912799
-44.52616 250 -26.42644 -0.9567242 0.09201279 -0.2760662 192 192 192 255 0.092982 0.917541
-44.52616 239.7034 -16.13085 -0.7868932 -0.5324484 -0.3119259 192 192 192 255 0.08824 0.912799
-31.57776 250 -39.78805 -0.6603707 0.2201015 -0.7179596 192 192 192 255 0.108021 0.919913
-17.63984 236.0607 -39.78805 -0.3900394 -0.6657861 -0.6360803 192 192 192 255 0.114441 0.913494
-17.63984 263.9393 -39.78805 -0.1950198 0.7465718 -0.6360801 192 192 192 255 0.101601 0.913494
17.63982 263.9393 -39.78805 0.3900394 0.665786 -0.6360804 192 192 192 255 0.149987 0.890827
31.57775 250 -39.78805 0.6603705 -0.2201013 -0.7179597 192 192 192 255 0.108021 0.890827
17.63982 236.0607 -39.78805 0.1950197 -0.7465717 -0.6360803 192 192 192 255 0.114441 0.897246
-26.42647 250 -44.52616 -0.3986307 -0.1328636 -0.9074364 192 192 192 255 0.108021 0.917541
-16.13086 239.7034 -44.52615 -0.1267019 -0.4850382 -0.8652656 192 192 192 255 0.112763 0.912799
-16.13087 260.2966 -44.52615 -0.2534036 0.4325528 -0.8652657 192 192 192 255 0.103279 0.912799
16.13085 260.2966 -44.52616 0.1559629 0.5970552 -0.7868931 192 192 192 255 0.103279 0.897941
26.42644 250 -44.52616 0.2760662 0.09201279 -0.9567242 192 192 192 255 0.108021 0.8932
16.13085 239.7034 -44.52616 0.3119259 -0.5324485 -0.7868932 192 192 192 255 0.112763 0.897941
31.57776 250 39.78805 0.6603707 0.2201015 0.7179596 192 192 192 255 0.12306 0.890827
17.63984 236.0607 39.78805 0.3900394 -0.6657861 0.6360803 192 192 192 255 0.11664 0.897246
17.63984 263.9393 39.78805 0.1950198 0.7465718 0.6360801 192 192 192 255 0.12948 0.897246
-17.63982 263.9393 39.78805 -0.3900394 0.665786 0.6360804 192 192 192 255 0.161323 0.907075
-31.57775 250 39.78805 -0.6603705 -0.2201013 0.7179597 192 192 192 255 0.12306 0.919913
-17.63982 236.0607 39.78805 -0.1950197 -0.7465717 0.6360803 192 192 192 255 0.11664 0.913494
26.42647 250 44.52616 0.3986307 -0.1328636 0.9074364 192 192 192 255 0.12306 0.8932
16.13086 239.7034 44.52615 0.1267019 -0.4850382 0.8652656 192 192 192 255 0.118318 0.897941
16.13087 260.2966 44.52615 0.2534036 0.4325528 0.8652657 192 192 192 255 0.127802 0.897941
-16.13085 260.2966 44.52616 -0.1559629 0.5970552 0.7868931 192 192 192 255 0.127802 0.912799
-26.42644 250 44.52616 -0.2760662 0.09201279 0.9567242 192 192 192 255 0.12306 0.917541
-16.13085 239.7034 44.52616 -0.3119259 -0.5324485 0.7868932 192 192 192 255 0.118318 0.912799
34.91345 156.5048 34.91345 0.9941613 0.006819515 0.1076884 192 192 192 255 0.068834 0.575451
34.91345 216.7952 34.91345 0.6519158 -0.002262638 0.758288 192 192 192 255 0.068834 0.606596
34.91345 175.4647 27.62356 0.9928868 0 0.1190618 192 192 192 255 0.114272 0.585245
26.54017 178.3693 34.91345 0.04020039 0 0.9991916 192 192 192 255 0.064508 0.586746
19.89602 190.8069 -39.78805 0.5582091 -0.003235357 -0.829694 192 192 192 255 0.102806 0.899266
19.89602 129.2359 -39.78805 0.3178102 0.003524425 -0.9481478 192 192 192 255 0.102806 0.931073
13.23183 162.1569 -39.78805 0.07896405 0 -0.9968775 192 192 192 255 0.099364 0.914067
23.31915 162.728 -36.36491 0.599515 0 -0.8003635 192 192 192 255 0.104575 0.913772
-62.09266 27.49798 -47.34888 -0.9312095 0.3615701 0.04600058 192 192 192 255 0.102401 0.889605
-62.09266 27.49798 18.83407 -0.8549696 0.5177564 -0.03091093 192 192 192 255 0.102401 0.855416
-53.54617 31.7479 -19.14157 -0.6547436 0.7558511 0 192 192 192 255 0.106816 0.875034
-62.09266 16.29473 -22.71359 -0.9656236 0.2599446 0 192 192 192 255 0.057447 0.876879
31.97396 27.49798 62.09265 0.01799719 0.721524 0.6921555 192 192 192 255 0.098458 0.848628
62.09262 27.49798 47.84351 0.9116457 0.4108492 0.01024786 192 192 192 255 0.183068 0.889861
55.73167 30.6611 55.73169 0.3073558 0.6953203 0.6496632 192 192 192 255 0.184702 0.893936
21.42132 472.502 62.09265 -0.01469551 -0.3618318 0.9321276 192 192 192 255 0.14512 0.889488
-46.13895 472.502 62.09265 0.0492132 -0.7020898 0.7103858 192 192 192 255 0.114005 0.889488
-16.96181 481.04 62.09265 0 -0.171364 0.9852078 192 192 192 255 0.050018 0.868703
-14.5828 469.2836 55.62049 0 -0.7877563 0.6159871 192 192 192 255 0.128538 0.886508
-41.24232 472.502 -62.09265 0.02122327 -0.3963203 -0.917867 192 192 192 255 0.11626 0.832295
44.77597 472.502 -62.09265 -0.01016097 -0.2093136 -0.9777958 192 192 192 255 0.155876 0.832295
-9.649428 480.2546 -62.09265 -1.385674e-09 -0.2294828 -0.9733127 192 192 192 255 0.084625 0.865336
1.326441 468.8498 -54.74822 -2.656553e-09 -0.7832594 -0.621695 192 192 192 255 0.135865 0.835678
-39.78806 408.9526 17.13263 -0.9041169 8.736103e-05 0.4272853 192 192 192 255 0.209927 0.950801
-39.78806 350.266 -19.89601 -0.950733 -0.0004780205 -0.3100106 192 192 192 255 0.190798 0.920484
-18.8628 383.7911 -39.78805 -0.4973931 -0.0007878966 -0.8675249 192 192 192 255 0.082784 0.799572
18.31762 300.1755 -39.78805 0.2462 0.0009428975 -0.9692186 192 192 192 255 0.101991 0.842767
39.78806 350.266 -19.89601 0.8551477 0.001900723 -0.5183809 192 192 192 255 0.15708 0.920484
39.78806 408.0832 18.54733 0.9690406 -0.0009752011 0.2468996 192 192 192 255 0.137221 0.950352
19.89602 350.266 39.78805 0.4467544 -0.001697303 0.894655 192 192 192 255 0.048459 0.920484
-18.61086 292.6 39.78805 -0.3112774 6.146576e-05 0.9503191 192 192 192 255 0.028567 0.890694
-34.91345 354.5086 -34.91345 -0.7449337 0.001667728 -0.6671364 192 192 192 255 0.071634 0.569762
-34.91345 398.8964 -34.91345 -0.09161934 -0.01028639 -0.995741 192 192 192 255 0.071634 0.546831
-34.91345 369.3144 -27.76199 -0.9984549 0 -0.05556888 192 192 192 255 0.153072 0.685386
-27.45913 373.2564 -34.91345 -0.101884 0 -0.9947963 192 192 192 255 0.075485 0.560077
55.73167 30.6611 55.73169 0.3073558 0.6953203 0.6496632 192 192 192 255 0.100092 0.836355
62.09263 16.86734 62.09265 0.7380432 0.05407726 0.6725831 192 192 192 255 0.092966 0.833069
50 33.51131 -50 0.4451985 0.8954318 -0.0004429807 192 192 192 255 0.118358 0.980524
-50 33.51131 -50 -0.4449144 0.8955696 -0.002499192 192 192 192 255 0.066699 0.980524
50 33.51131 -50 0.4451985 0.8954318 -0.0004429807 192 192 192 255 0.172632 0.756852
39.78806 47.6995 -39.78805 0.5197929 0.4630084 -0.7179404 192 192 192 255 0.167356 0.764181
-50 33.51131 -50 -0.4449144 0.8955696 -0.002499192 192 192 192 255 0.175246 0.756852
-50 33.51131 50 -0.1901318 0.9414579 0.2784009 192 192 192 255 0.226906 0.756852
-39.78806 47.6995 -39.78805 -0.793591 0.329768 -0.5113379 192 192 192 255 0.180522 0.764181
39.78806 47.6995 39.78805 0.5726753 0.3569534 0.7379888 192 192 192 255 0.058735 0.764181
-39.78806 47.6995 39.78805 -0.7210788 0.4817287 0.4979787 192 192 192 255 0.017627 0.764181
-50 33.51131 50 -0.1901318 0.9414579 0.2784009 192 192 192 255 0.012351 0.756852
50 33.51131 50 0.2269568 0.9431996 0.2426216 192 192 192 255 0.06401 0.756852
62.09261 27.49798 -62.09265 0.9404855 0.339833 -0.0007379352 192 192 192 255 0.067739 0.833069
-62.09266 27.49798 -62.09265 -0.9400827 0.3409354 -0.002749865 192 192 192 255 0.067739 0.897222
-62.09266 27.49798 62.09265 -0.5562462 0.1898895 0.8090316 192 192 192 255 0.063235 0.833069
-62.09266 0 -62.09265 -0.9999999 -0.0003284615 -0.000328503 192 192 192 255 0.049029 0.897222
-62.09266 27.49798 18.83407 -0.8549696 0.5177564 -0.03091093 192 192 192 255 0.063235 0.855416
-62.09266 27.49798 -47.34888 -0.9312095 0.3615701 0.04600058 192 192 192 255 0.063235 0.889606
-62.09266 27.49798 -62.09265 -0.9400827 0.3409354 -0.002749865 192 192 192 255 0.063235 0.897222
-62.09266 0 62.09265 -0.7071068 -0.0002070685 0.7071067 192 192 192 255 0.165909 0.889488
-62.09266 0 -62.09265 -0.9999999 -0.0003284615 -0.000328503 192 192 192 255 0.165909 0.832295
62.09261 0 -62.09265 1 -0.0001498442 -0.0001498096 192 192 192 255 0.223102 0.832295
-39.78806 60.34914 39.78805 -0.5022098 0.7026975 0.5039857 192 192 192 255 0.017627 0.770716
39.78806 60.34914 39.78805 0.5031081 0.7039542 0.501329 192 192 192 255 0.058735 0.770716
-39.78806 60.34914 -39.78805 -0.5022098 0.7026975 -0.5039857 192 192 192 255 0.071974 0.96666
39.78806 60.34914 -39.78805 0.5031081 0.7039542 -0.501329 192 192 192 255 0.113082 0.96666
39.78806 225.0531 -19.89601 0.7057042 -0.07048857 -0.7049916 192 192 192 255 0.113082 0.881575
39.78806 74.41493 -19.89601 0.70635 0.05191455 -0.7059565 192 192 192 255 0.113082 0.959393
-39.78806 225.0531 19.89601 -0.5059518 -0.7036854 0.4988383 192 192 192 255 0.017627 0.8558
-39.78806 74.41493 19.89601 -0.5052467 0.7034289 0.4999136 192 192 192 255 0.017627 0.777982
39.78806 225.0531 19.89601 0.503921 -0.7040604 0.5003624 192 192 192 255 0.058735 0.8558
39.78806 74.41493 19.89601 0.5046269 0.7043183 0.499287 192 192 192 255 0.058735 0.777982
-39.78806 225.0531 -19.89601 -0.503921 -0.7040604 -0.5003624 192 192 192 255 0.071974 0.881575
-39.78806 74.41493 -19.89601 -0.5046269 0.7043183 -0.499287 192 192 192 255 0.071974 0.959393
19.89602 74.41493 -39.78805 0.3578481 0.1033337 -0.9280447 192 192 192 255 0.168295 0.899989
39.78806 74.41493 -19.89601 0.70635 0.05191455 -0.7059565 192 192 192 255 0.177456 0.890827
39.78806 60.34914 -39.78805 0.5031081 0.7039542 -0.501329 192 192 192 255 0.177456 0.899989
-19.89602 74.41493 39.78805 -0.4997353 0.7049507 0.5032984 192 192 192 255 0.189226 0.890827
-39.78806 74.41493 19.89601 -0.5052467 0.7034289 0.4999136 192 192 192 255 0.180065 0.899989
-39.78806 60.34914 39.78805 -0.5022098 0.7026975 0.5039857 192 192 192 255 0.180065 0.890827
19.89602 74.41493 39.78805 0.4994644 0.7027968 0.5065688 192 192 192 255 0.191834 0.890827
39.78806 60.34914 39.78805 0.5031081 0.7039542 0.501329 192 192 192 255 0.200995 0.890827
39.78806 74.41493 19.89601 0.5046269 0.7043183 0.499287 192 192 192 255 0.200995 0.899989
-39.78806 74.41493 -19.89601 -0.5046269 0.7043183 -0.499287 192 192 192 255 0.203604 0.890827
-19.89602 74.41493 -39.78805 -0.0236905 0.03333493 -0.9991634 192 192 192 255 0.212765 0.899989
-39.78806 60.34914 -39.78805 -0.5022098 0.7026975 -0.5039857 192 192 192 255 0.203604 0.899989
-39.78806 239.1189 39.78805 -0.5026591 -0.703326 0.5026591 192 192 192 255 0.017627 0.863067
39.78806 239.1189 39.78805 0.5026591 -0.703326 0.5026591 192 192 192 255 0.058735 0.863067
-39.78806 239.1189 -39.78805 -0.5022098 -0.7026975 -0.5039857 192 192 192 255 0.071974 0.874309
39.78806 239.1189 -39.78805 0.5031081 -0.7039542 -0.501329 192 192 192 255 0.113082 0.874309
19.89602 225.0531 -39.78805 0.1146177 -0.04719276 -0.9922881 192 192 192 255 0.215373 0.890827
39.78806 239.1189 -39.78805 0.5031081 -0.7039542 -0.501329 192 192 192 255 0.224534 0.890827
39.78806 225.0531 -19.89601 0.7057042 -0.07048857 -0.7049916 192 192 192 255 0.224534 0.899989
-19.89602 225.0531 39.78805 -0.4999136 -0.7034289 0.5052467 192 192 192 255 0.061529 0.909
-39.78806 239.1189 39.78805 -0.5026591 -0.703326 0.5026591 192 192 192 255 0.051253 0.909
-39.78806 225.0531 19.89601 -0.5059518 -0.7036854 0.4988383 192 192 192 255 0.051253 0.898724
19.89602 225.0531 39.78805 0.499287 -0.7043183 0.5046269 192 192 192 255 0.064455 0.909
39.78806 225.0531 19.89601 0.503921 -0.7040604 0.5003624 192 192 192 255 0.074731 0.898724
39.78806 239.1189 39.78805 0.5026591 -0.703326 0.5026591 192 192 192 255 0.074731 0.909
-39.78806 225.0531 -19.89601 -0.503921 -0.7040604 -0.5003624 192 192 192 255 0.077656 0.909
-39.78806 239.1189 -39.78805 -0.5022098 -0.7026975 -0.5039857 192 192 192 255 0.077656 0.898724
-19.89602 225.0531 -39.78805 -0.04456398 -0.06286409 -0.9970267 192 192 192 255 0.087932 0.898724
-50 466.4887 -50 -0.00141472 -0.8953972 -0.4452661 192 192 192 255 0.066699 0.756852
50 466.4887 -50 0.001218687 -0.89559 -0.4448787 192 192 192 255 0.118358 0.756852
50 466.4887 50 0.001104614 -0.895509 0.445042 192 192 192 255 0.120972 0.980524
39.78806 452.3005 -39.78805 0.5197928 -0.4630088 -0.7179404 192 192 192 255 0.167356 0.973194
50 466.4887 -50 0.001218687 -0.89559 -0.4448787 192 192 192 255 0.172632 0.980524
-50 466.4887 -50 -0.00141472 -0.8953972 -0.4452661 192 192 192 255 0.175246 0.980524
-39.78806 452.3005 -39.78805 -0.7935908 -0.3297682 -0.5113379 192 192 192 255 0.180522 0.973194
-50 466.4887 50 -0.00130812 -0.8954437 0.4451729 192 192 192 255 0.226906 0.980524
39.78806 452.3005 39.78805 0.5726752 -0.3569537 0.7379887 192 192 192 255 0.058735 0.973194
50 466.4887 50 0.001104614 -0.895509 0.445042 192 192 192 255 0.06401 0.980524
-50 466.4887 50 -0.00130812 -0.8954437 0.4451729 192 192 192 255 0.012351 0.980524
-39.78806 452.3005 39.78805 -0.7210786 -0.481729 0.4979787 192 192 192 255 0.017627 0.973194
62.09261 472.502 62.09265 0.001304182 -0.340522 0.9402357 192 192 192 255 0.091935 0.889488
62.09261 472.502 -62.09265 0.003961607 -0.34071 -0.9401601 192 192 192 255 0.091935 0.832295
62.09261 472.502 -62.09265 0.003961607 -0.34071 -0.9401601 192 192 192 255 0.088195 0.832295
44.77597 472.502 -62.09265 -0.01016097 -0.2093136 -0.9777958 192 192 192 255 0.088195 0.84027
62.09261 500 -62.09265 0.0002570022 0.0002570022 -0.9999999 192 192 192 255 0.075531 0.832295
-41.24232 472.502 -62.09265 0.02122327 -0.3963203 -0.917867 192 192 192 255 0.088195 0.879886
-62.09266 472.502 -62.09265 -0.002542949 -0.3415588 -0.939857 192 192 192 255 0.088195 0.889488
-62.09266 500 -62.09265 -0.0003517007 0.0003517007 -0.9999999 192 192 192 255 0.073473 0.889488
-62.09266 472.502 -62.09265 -0.002542949 -0.3415588 -0.939857 192 192 192 255 0.060809 0.889488
-62.09266 472.502 62.09265 -0.0006380141 -0.0505708 0.9987203 192 192 192 255 0.060809 0.832295
-62.09266 500 62.09265 -0.000292839 0.000292839 0.9999999 192 192 192 255 0.05875 0.889488
-62.09266 472.502 62.09265 -0.0006380141 -0.0505708 0.9987203 192 192 192 255 0.046086 0.889488
62.09261 500 62.09265 0.0003269766 0.0003269766 0.9999999 192 192 192 255 0.05875 0.832295
62.09261 472.502 62.09265 0.001304182 -0.340522 0.9402357 192 192 192 255 0.046086 0.832295
21.42132 472.502 62.09265 -0.01469551 -0.3618318 0.9321276 192 192 192 255 0.046086 0.851026
-46.13895 472.502 62.09265 0.0492132 -0.7020898 0.7103858 192 192 192 255 0.046086 0.882141
62.09261 500 62.09265 0.0003269766 0.0003269766 0.9999999 192 192 192 255 0.06915 0.890827
62.09261 500 -62.09265 0.0002570022 0.0002570022 -0.9999999 192 192 192 255 0.06915 0.94802
-62.09266 500 -62.09265 -0.0003517007 0.0003517007 -0.9999999 192 192 192 255 0.011957 0.94802
-62.09266 500 62.09265 -0.000292839 0.000292839 0.9999999 192 192 192 255 0.011957 0.890827
-39.78806 439.6509 39.78805 -0.5022098 -0.7026975 0.5039857 192 192 192 255 0.017627 0.96666
39.78806 439.6509 39.78805 0.5031081 -0.7039542 0.501329 192 192 192 255 0.058735 0.96666
-39.78806 439.6509 -39.78805 -0.5022098 -0.7026975 -0.5039857 192 192 192 255 0.071974 0.770716
39.78806 439.6509 -39.78805 0.5031081 -0.7039542 -0.501329 192 192 192 255 0.113082 0.770716
39.78806 350.266 -19.89601 0.8551477 0.001900723 -0.5183809 192 192 192 255 0.113082 0.816891
39.78806 274.9469 -19.89601 0.5059085 0.7036957 -0.4988677 192 192 192 255 0.113082 0.8558
-39.78806 408.9526 17.13263 -0.9041169 8.736103e-05 0.4272853 192 192 192 255 0.017627 0.950801
-39.78806 274.9469 19.89601 -0.5059149 0.7037029 0.4988511 192 192 192 255 0.017627 0.881575
19.89602 350.266 39.78805 0.4467544 -0.001697303 0.894655 192 192 192 255 0.126248 0.920484
19.89602 274.9469 39.78805 0.4992994 0.7043225 0.5046088 192 192 192 255 0.126248 0.881575
-39.78806 274.9469 -19.89601 -0.5038896 0.7040677 -0.5003839 192 192 192 255 0.071974 0.8558
-39.78806 350.266 -19.89601 -0.950733 -0.0004780205 -0.3100106 192 192 192 255 0.071974 0.816891
19.89602 425.5851 -39.78805 0.4998696 -0.7034389 -0.5052764 192 192 192 255 0.090858 0.898724
39.78806 439.6509 -39.78805 0.5031081 -0.7039542 -0.501329 192 192 192 255 0.101134 0.898724
39.78806 425.5851 -19.89601 0.5059299 -0.7036905 -0.4988533 192 192 192 255 0.101134 0.909
-19.89602 425.5851 39.78805 -0.5004743 -0.7040973 0.5037584 192 192 192 255 0.114336 0.909
-39.78806 439.6509 39.78805 -0.5022098 -0.7026975 0.5039857 192 192 192 255 0.10406 0.909
-39.78806 425.5851 19.89601 -0.5046825 -0.7043363 0.4992054 192 192 192 255 0.10406 0.898724
19.89602 425.5851 39.78805 0.4988656 -0.7036949 0.5059117 192 192 192 255 0.117262 0.909
39.78806 425.5851 19.89601 0.503975 -0.704079 0.5002819 192 192 192 255 0.127538 0.898724
39.78806 439.6509 39.78805 0.5031081 -0.7039542 0.501329 192 192 192 255 0.127538 0.909
-39.78806 425.5851 -19.89601 -0.5051975 -0.7034404 -0.4999472 192 192 192 255 0.130463 0.909
-39.78806 439.6509 -39.78805 -0.5022098 -0.7026975 -0.5039857 192 192 192 255 0.130463 0.898724
-19.89602 425.5851 -39.78805 -0.4992623 -0.7043238 -0.5046436 192 192 192 255 0.140739 0.898724
-39.78806 260.8811 39.78805 -0.5008801 0.7033238 0.504435 192 192 192 255 0.017627 0.874309
39.78806 260.8811 39.78805 0.504435 0.7033238 0.5008801 192 192 192 255 0.058735 0.874309
-39.78806 260.8811 -39.78805 -0.5039857 0.7026975 -0.5022098 192 192 192 255 0.071974 0.863067
39.78806 260.8811 -39.78805 0.501329 0.7039542 -0.5031081 192 192 192 255 0.113082 0.863067
19.89602 274.9469 -39.78805 0.4998268 0.7034488 -0.5053049 192 192 192 255 0.143665 0.909
39.78806 274.9469 -19.89601 0.5059085 0.7036957 -0.4988677 192 192 192 255 0.153941 0.898724
39.78806 260.8811 -39.78805 0.501329 0.7039542 -0.5031081 192 192 192 255 0.153941 0.909
-19.89602 274.9469 39.78805 -0.4998396 0.7034636 0.5052717 192 192 192 255 0.167143 0.898724
-39.78806 274.9469 19.89601 -0.5059149 0.7037029 0.4988511 192 192 192 255 0.156867 0.909
-39.78806 260.8811 39.78805 -0.5008801 0.7033238 0.504435 192 192 192 255 0.156867 0.898724
19.89602 274.9469 39.78805 0.4992994 0.7043225 0.5046088 192 192 192 255 0.170069 0.898724
39.78806 260.8811 39.78805 0.504435 0.7033238 0.5008801 192 192 192 255 0.180345 0.898724
39.78806 274.9469 19.89601 0.5039456 0.7040687 0.5003262 192 192 192 255 0.180345 0.909
-39.78806 274.9469 -19.89601 -0.5038896 0.7040677 -0.5003839 192 192 192 255 0.174426 0.910502
-19.89602 274.9469 -39.78805 -0.4992712 0.7043218 -0.5046375 192 192 192 255 0.184702 0.920778
-39.78806 260.8811 -39.78805 -0.5039857 0.7026975 -0.5022098 192 192 192 255 0.174426 0.920778
39.78805 263.9393 -17.63984 0.6360801 0.7465718 -0.1950198 192 192 192 255 0.131679 0.907075
44.52616 260.2966 16.13085 0.7868931 0.5970552 0.1559629 192 192 192 255 0.133861 0.891522
44.52615 260.2966 -16.13087 0.8652657 0.4325528 -0.2534036 192 192 192 255 0.133861 0.90638
39.78805 263.9393 17.63982 0.6360804 0.665786 0.3900394 192 192 192 255 0.084363 0.913494
39.78805 236.0607 17.63982 0.6360803 -0.7465717 0.1950197 192 192 192 255 0.136256 0.907075
39.78805 236.0607 -17.63984 0.6360803 -0.6657861 -0.3900394 192 192 192 255 0.136256 0.890827
44.52615 239.7034 -16.13086 0.8652656 -0.4850382 -0.1267019 192 192 192 255 0.138438 0.891522
44.52616 239.7034 16.13085 0.7868932 -0.5324484 0.3119259 192 192 192 255 0.138438 0.90638
34.91345 60.34914 34.91345 0.2031857 0 0.9791402 192 192 192 255 0.110506 0.525778
34.91345 60.34914 -34.91345 0.8929281 0 -0.4501994 192 192 192 255 0.146578 0.525778
34.91345 156.5048 34.91345 0.9941613 0.006819515 0.1076884 192 192 192 255 0.110506 0.575451
34.91345 439.6509 -34.91345 0.4494582 0 -0.8933014 192 192 192 255 0.146578 0.721722
34.91345 439.6509 34.91345 0.9378327 0 0.3470876 192 192 192 255 0.110506 0.721722
34.91345 216.7952 34.91345 0.6519158 -0.002262638 0.758288 192 192 192 255 0.110506 0.606596
-34.91345 60.34914 -34.91345 -0.4002708 0 -0.9163969 192 192 192 255 0.149377 0.525778
-34.91345 60.34914 34.91345 -0.8923423 0 0.4513594 192 192 192 255 0.185449 0.525778
-34.91345 354.5086 -34.91345 -0.7449337 0.001667728 -0.6671364 192 192 192 255 0.149377 0.677738
-34.91345 439.6509 34.91345 -0.4562166 0 0.8898688 192 192 192 255 0.185449 0.721722
-34.91345 439.6509 -34.91345 -0.9952118 9.148793e-09 -0.09774142 192 192 192 255 0.149377 0.721722
-34.91345 398.8964 -34.91345 -0.09161934 -0.01028639 -0.995741 192 192 192 255 0.149377 0.700668
-39.78805 263.9393 17.63984 -0.6360801 0.7465718 0.1950198 192 192 192 255 0.143015 0.890827
-44.52616 260.2966 -16.13085 -0.7868931 0.5970552 -0.1559629 192 192 192 255 0.140833 0.90638
-44.52615 260.2966 16.13087 -0.8652657 0.4325528 0.2534036 192 192 192 255 0.140833 0.891522
-39.78805 263.9393 -17.63982 -0.6360804 0.665786 -0.3900394 192 192 192 255 0.099402 0.913494
-39.78805 236.0607 -17.63982 -0.6360803 -0.7465717 -0.1950197 192 192 192 255 0.147592 0.890827
-39.78805 236.0607 17.63984 -0.6360803 -0.6657861 0.3900394 192 192 192 255 0.147592 0.907075
-44.52615 239.7034 16.13086 -0.8652656 -0.4850382 0.1267019 192 192 192 255 0.14541 0.90638
-44.52616 239.7034 -16.13085 -0.7868932 -0.5324484 -0.3119259 192 192 192 255 0.14541 0.891522
-17.63984 263.9393 -39.78805 -0.1950198 0.7465718 -0.6360801 192 192 192 255 0.149987 0.907075
16.13085 260.2966 -44.52616 0.1559629 0.5970552 -0.7868931 192 192 192 255 0.152169 0.891522
-16.13087 260.2966 -44.52615 -0.2534036 0.4325528 -0.8652657 192 192 192 255 0.152169 0.90638
17.63982 263.9393 -39.78805 0.3900394 0.665786 -0.6360804 192 192 192 255 0.101601 0.897246
17.63982 236.0607 -39.78805 0.1950197 -0.7465717 -0.6360803 192 192 192 255 0.156746 0.890827
-17.63984 236.0607 -39.78805 -0.3900394 -0.6657861 -0.6360803 192 192 192 255 0.156746 0.907075
-16.13086 239.7034 -44.52615 -0.1267019 -0.4850382 -0.8652656 192 192 192 255 0.154564 0.90638
16.13085 239.7034 -44.52616 0.3119259 -0.5324485 -0.7868932 192 192 192 255 0.154564 0.891522
17.63984 263.9393 39.78805 0.1950198 0.7465718 0.6360801 192 192 192 255 0.161323 0.890827
-16.13085 260.2966 44.52616 -0.1559629 0.5970552 0.7868931 192 192 192 255 0.159141 0.90638
16.13087 260.2966 44.52615 0.2534036 0.4325528 0.8652657 192 192 192 255 0.159141 0.891522
-17.63982 263.9393 39.78805 -0.3900394 0.665786 0.6360804 192 192 192 255 0.12948 0.913494
-17.63982 236.0607 39.78805 -0.1950197 -0.7465717 0.6360803 192 192 192 255 0.163718 0.907075
17.63984 236.0607 39.78805 0.3900394 -0.6657861 0.6360803 192 192 192 255 0.163718 0.890827
16.13086 239.7034 44.52615 0.1267019 -0.4850382 0.8652656 192 192 192 255 0.1659 0.891522
-16.13085 239.7034 44.52616 -0.3119259 -0.5324485 0.7868932 192 192 192 255 0.1659 0.90638
34.91345 175.4647 27.62356 0.9928868 0 0.1190618 192 192 192 255 0.068834 0.585245
26.54017 178.3693 34.91345 0.04020039 0 0.9991916 192 192 192 255 0.110506 0.586746
-53.54617 31.7479 -19.14157 -0.6547436 0.7558511 0 192 192 192 255 0.06543 0.875034
-62.09266 0 62.09265 -0.7071068 -0.0002070685 0.7071067 192 192 192 255 0.084253 0.897222
62.09261 0 62.09265 0.3553746 -0.0003396338 0.9347239 192 192 192 255 0.084253 0.833069
-62.09266 27.49798 62.09265 -0.5562462 0.1898895 0.8090316 192 192 192 255 0.098458 0.897222
62.09261 0 62.09265 0.3553746 -0.0003396338 0.9347239 192 192 192 255 0.168863 0.897222
62.09261 0 -62.09265 1 -0.0001498442 -0.0001498096 192 192 192 255 0.168863 0.833069
62.09261 27.49798 -62.09265 0.9404855 0.339833 -0.0007379352 192 192 192 255 0.183068 0.833069
62.09262 27.49798 47.84351 0.9116457 0.4108492 0.01024786 192 192 192 255 0.166554 0.84043
55.73167 30.6611 55.73169 0.3073558 0.6953203 0.6496632 192 192 192 255 0.163268 0.836355
50 33.51131 50 0.2269568 0.9431996 0.2426216 192 192 192 255 0.160307 0.839316
31.97396 27.49798 62.09265 0.01799719 0.721524 0.6921555 192 192 192 255 0.150995 0.833069
-14.5828 469.2836 55.62049 0 -0.7877563 0.6159871 192 192 192 255 0.044604 0.867608
1.326441 468.8498 -54.74822 -2.656553e-09 -0.7832594 -0.621695 192 192 192 255 0.089877 0.860281
-39.78806 425.5851 -19.89601 -0.5051975 -0.7034404 -0.4999472 192 192 192 255 0.071974 0.777982
39.78806 425.5851 -19.89601 0.5059299 -0.7036905 -0.4988533 192 192 192 255 0.113082 0.777982
19.89602 425.5851 39.78805 0.4988656 -0.7036949 0.5059117 192 192 192 255 0.126248 0.959393
-18.61086 292.6 39.78805 -0.3112774 6.146576e-05 0.9503191 192 192 192 255 0.22163 0.890694
-19.89602 425.5851 39.78805 -0.5004743 -0.7040973 0.5037584 192 192 192 255 0.22163 0.959393
-34.91345 369.3144 -27.76199 -0.9984549 0 -0.05556888 192 192 192 255 0.071634 0.562113
-27.45913 373.2564 -34.91345 -0.101884 0 -0.9947963 192 192 192 255 0.149377 0.687423
3 22 34 31 
3 22 31 19 
3 38 28 26 
3 28 140 26 
3 140 142 26 
3 142 141 26 
3 141 16 26 
3 29 36 24 
3 29 24 17 
3 32 37 25 
3 32 25 20 
3 149 150 11 
3 2 1 10 
3 2 10 12 
3 12 144 2 
3 15 3 145 
3 144 146 2 
3 2 146 3 
3 3 146 145 
3 171 148 172 
3 5 173 174 
3 5 174 6 
3 0 175 176 
3 0 176 4 
3 177 178 7 
3 177 7 179 
3 180 181 182 
3 180 182 183 
3 184 8 13 
3 184 13 185 
3 14 186 187 
3 186 188 187 
3 188 147 187 
3 147 189 187 
3 187 189 190 
3 9 191 192 
3 9 192 193 
3 23 18 17 
3 23 17 24 
3 27 21 20 
3 27 20 25 
3 194 195 22 
3 194 22 19 
3 196 26 16 
3 196 16 197 
3 28 198 140 
3 198 199 140 
3 140 199 143 
3 143 199 141 
3 199 16 141 
3 31 200 201 
3 31 201 19 
3 202 34 22 
3 202 22 203 
3 204 38 26 
3 204 26 205 
3 206 207 208 
3 209 210 211 
3 212 213 214 
3 215 216 217 
3 180 195 194 
3 180 194 181 
3 4 176 18 
3 4 18 23 
3 196 197 5 
3 196 5 6 
3 179 7 21 
3 179 21 27 
3 35 36 29 
3 35 29 30 
3 39 37 32 
3 39 32 33 
3 218 31 34 
3 218 34 219 
3 220 221 28 
3 220 28 38 
3 222 223 224 
3 225 226 227 
3 228 229 230 
3 231 232 233 
3 165 166 71 
3 165 71 74 
3 78 161 162 
3 78 162 68 
3 69 163 164 
3 69 164 76 
3 72 159 160 
3 72 160 77 
3 41 50 51 
3 41 51 40 
3 52 155 42 
3 50 41 156 
3 156 41 158 
3 41 42 158 
3 42 155 158 
3 43 55 52 
3 43 52 42 
3 51 151 40 
3 55 43 152 
3 152 43 154 
3 43 40 154 
3 40 151 154 
3 45 46 234 
3 45 234 235 
3 236 44 237 
3 236 237 238 
3 239 240 47 
3 239 47 241 
3 242 243 244 
3 242 244 245 
3 49 246 247 
3 49 247 48 
3 248 249 250 
3 250 249 53 
3 249 157 53 
3 157 251 53 
3 251 252 53 
3 253 254 255 
3 253 255 54 
3 256 257 258 
3 259 258 260 
3 261 153 257 
3 257 153 258 
3 153 260 258 
3 262 263 264 
3 262 264 265 
3 63 64 57 
3 63 57 58 
3 67 65 60 
3 67 60 61 
3 266 59 62 
3 266 62 267 
3 268 269 56 
3 268 56 66 
3 68 162 270 
3 68 270 271 
3 71 166 272 
3 71 272 273 
3 76 164 274 
3 76 274 275 
3 276 277 161 
3 276 161 78 
3 278 279 280 
3 281 282 283 
3 284 285 286 
3 287 288 289 
3 242 245 266 
3 242 266 267 
3 44 63 58 
3 44 58 237 
3 268 46 45 
3 268 45 269 
3 240 67 61 
3 240 61 47 
3 75 70 69 
3 75 69 76 
3 79 73 72 
3 79 72 77 
3 290 291 74 
3 290 74 71 
3 292 78 68 
3 292 68 293 
3 294 295 296 
3 297 298 299 
3 300 301 302 
3 303 304 305 
3 219 291 290 
3 219 290 218 
3 30 70 75 
3 30 75 35 
3 220 292 293 
3 220 293 221 
3 33 73 79 
3 33 79 39 
3 90 86 88 
3 90 88 89 
3 81 80 86 
3 81 86 87 
3 80 82 88 
3 80 88 86 
3 306 83 307 
3 306 307 308 
3 309 84 90 
3 309 90 89 
3 84 85 91 
3 84 91 90 
3 310 311 312 
3 310 312 313 
3 87 86 90 
3 87 90 91 
3 92 93 94 
3 95 94 137 
3 137 94 139 
3 136 139 93 
3 93 139 94 
3 96 97 168 
3 99 98 97 
3 168 97 170 
3 98 167 97 
3 97 167 170 
3 314 315 316 
3 317 318 315 
3 318 319 315 
3 319 138 315 
3 315 138 316 
3 320 321 322 
3 323 324 321 
3 322 321 169 
3 325 169 324 
3 321 324 169 
3 110 106 108 
3 110 108 109 
3 101 100 106 
3 101 106 107 
3 100 102 108 
3 100 108 106 
3 326 103 327 
3 326 327 328 
3 329 104 110 
3 329 110 109 
3 104 105 111 
3 104 111 110 
3 330 331 332 
3 330 332 333 
3 107 106 110 
3 107 110 111 
3 122 118 120 
3 122 120 121 
3 113 112 118 
3 113 118 119 
3 112 114 120 
3 112 120 118 
3 334 115 335 
3 334 335 336 
3 337 116 122 
3 337 122 121 
3 116 117 123 
3 116 123 122 
3 338 339 340 
3 338 340 341 
3 119 118 122 
3 119 122 123 
3 134 130 132 
3 134 132 133 
3 125 124 130 
3 125 130 131 
3 124 126 132 
3 124 132 130 
3 342 127 343 
3 342 343 344 
3 345 128 134 
3 345 134 133 
3 128 129 135 
3 128 135 134 
3 346 347 348 
3 346 348 349 
3 131 130 134 
3 131 134 135 
3 137 139 350 
3 138 351 316 
3 140 143 142 
3 142 143 141 
3 147 352 189 
3 188 352 147 
3 353 354 355 
3 354 172 355 
3 172 148 355 
3 356 357 11 
3 11 357 149 
3 357 358 149 
3 10 1 359 
3 360 359 361 
3 1 361 359 
3 15 362 3 
3 360 361 362 
3 361 3 362 
3 261 363 153 
3 153 363 260 
3 251 157 364 
3 364 157 249 
3 159 60 65 
3 159 65 160 
3 161 277 365 
3 161 365 66 
3 162 161 66 
3 162 66 56 
3 270 162 56 
3 270 56 366 
3 164 163 57 
3 164 57 64 
3 274 164 64 
3 274 64 367 
3 62 59 166 
3 62 166 165 
3 159 368 369 
3 159 369 60 
3 168 170 370 
3 169 371 322 
