ply
format ascii 1.0
comment VCGLIB generated
comment TextureFile Spiderweb_01.png
element vertex 120
property float x
property float y
property float z
property float nx
property float ny
property float nz
property uchar red
property uchar green
property uchar blue
property uchar alpha
property float texture_u
property float texture_v
element face 40
property list uchar int vertex_indices
end_header
-11.7989 -12.0548 -414.884 0.492763 -0.524757 0.694129 255 255 255 255 0.008001 0.547812
-15.5961 258.42 -207.711 0.492763 -0.524757 0.694129 255 255 255 255 0.009257 0.763873
-114.515 84.95 -268.631 0.492763 -0.524757 0.694129 255 255 255 255 0.174367 0.657556
-196.575 295.86 -76.8127 -0.170397 -0.3294 0.928687 255 255 255 255 0.366033 0.898611
-256.323 504.349 -13.8254 -0.170397 -0.3294 0.928687 255 255 255 255 0.484091 0.990208
-265.667 347.008 -71.3477 -0.170397 -0.3294 0.928687 255 255 255 255 0.501983 0.906166
-174.528 216.357 -147.948 0.172355 -0.62244 0.763454 255 255 255 255 0.302792 0.819074
-279.776 174.635 -158.203 0.172355 -0.62244 0.763454 255 255 255 255 0.528999 0.779267
-114.515 84.95 -268.631 0.172355 -0.62244 0.763454 255 255 255 255 0.174367 0.657556
-364.054 368.403 -13.8253 0.038259 -0.55325 0.832136 255 255 255 255 0.695999 0.989548
-441.727 272.691 -73.8891 0.038259 -0.55325 0.832136 255 255 255 255 0.848272 0.901375
-359.794 207.808 -120.794 0.038259 -0.55325 0.832136 255 255 255 255 0.686712 0.833395
-256.323 504.349 -13.8254 0.420753 -0.333429 0.843677 255 255 255 255 0.484091 0.990208
-364.054 368.403 -13.8253 0.420753 -0.333429 0.843677 255 255 255 255 0.695999 0.989548
-265.667 347.008 -71.3477 0.420753 -0.333429 0.843677 255 255 255 255 0.501983 0.906166
-15.5961 303.28 -96.7448 0.162609 -0.600911 0.782601 255 255 255 255 0.009877 0.870619
-109.885 385.756 -13.8253 0.162609 -0.600911 0.782601 255 255 255 255 0.196047 0.991107
-73.7255 269.938 -110.268 0.162609 -0.600911 0.782601 255 255 255 255 0.124103 0.850518
-15.5961 258.42 -207.711 0.683328 -0.555888 0.473341 255 255 255 255 0.009257 0.763873
-73.7255 269.938 -110.268 0.683328 -0.555888 0.473341 255 255 255 255 0.124103 0.850518
-114.515 84.95 -268.631 0.683328 -0.555888 0.473341 255 255 255 255 0.174367 0.657556
-109.885 385.756 -13.8253 -0.28426 -0.351003 0.892185 255 255 255 255 0.196047 0.991107
-256.323 504.349 -13.8254 -0.28426 -0.351003 0.892185 255 255 255 255 0.484091 0.990208
-196.575 295.86 -76.8127 -0.28426 -0.351003 0.892185 255 255 255 255 0.366033 0.898611
-196.575 295.86 -76.8127 0.175535 -0.628964 0.757358 255 255 255 255 0.366033 0.898611
-279.776 174.635 -158.203 0.175535 -0.628964 0.757358 255 255 255 255 0.528999 0.779267
-174.528 216.357 -147.948 0.175535 -0.628964 0.757358 255 255 255 255 0.302792 0.819074
-196.575 295.86 -76.8127 0.080491 -0.622866 0.778177 255 255 255 255 0.366033 0.898611
-73.7255 269.938 -110.268 0.080491 -0.622866 0.778177 255 255 255 255 0.124103 0.850518
-109.885 385.756 -13.8253 0.080491 -0.622866 0.778177 255 255 255 255 0.196047 0.991107
-73.7255 269.938 -110.268 0.06905 -0.657513 0.750273 255 255 255 255 0.124103 0.850518
-174.528 216.357 -147.948 0.06905 -0.657513 0.750273 255 255 255 255 0.302792 0.819074
-114.515 84.95 -268.631 0.06905 -0.657513 0.750273 255 255 255 255 0.174367 0.657556
-196.575 295.86 -76.8127 -0.242281 -0.420686 0.874256 255 255 255 255 0.366033 0.898611
-265.667 347.008 -71.3477 -0.242281 -0.420686 0.874256 255 255 255 255 0.501983 0.906166
-279.776 174.635 -158.203 -0.242281 -0.420686 0.874256 255 255 255 255 0.528999 0.779267
-364.054 368.403 -13.8253 0.347142 -0.513489 0.784743 255 255 255 255 0.695999 0.989548
-359.794 207.808 -120.794 0.347142 -0.513489 0.784743 255 255 255 255 0.686712 0.833395
-265.667 347.008 -71.3477 0.347142 -0.513489 0.784743 255 255 255 255 0.501983 0.906166
-444.356 371.144 -13.8253 0.597195 -0.406054 0.691721 255 255 255 255 0.853953 0.989055
-494.392 297.178 -14.0458 0.597195 -0.406054 0.691721 255 255 255 255 0.978266 0.956073
-441.727 272.691 -73.8891 0.597195 -0.406054 0.691721 255 255 255 255 0.848272 0.901375
-359.794 207.808 -120.794 0.216279 -0.453392 0.864673 255 255 255 255 0.686712 0.833395
-279.776 174.635 -158.203 0.216279 -0.453392 0.864673 255 255 255 255 0.528999 0.779267
-265.667 347.008 -71.3477 0.216279 -0.453392 0.864673 255 255 255 255 0.501983 0.906166
-11.7989 -12.0548 -414.884 -0.492763 0.524757 -0.694129 255 255 255 255 0.008001 0.547812
-114.515 84.95 -268.631 -0.492763 0.524757 -0.694129 255 255 255 255 0.174367 0.657556
-15.5961 258.42 -207.711 -0.492763 0.524757 -0.694129 255 255 255 255 0.009257 0.763873
-196.575 295.86 -76.8127 0.170397 0.3294 -0.928687 255 255 255 255 0.366033 0.898611
-265.667 347.008 -71.3477 0.170397 0.3294 -0.928687 255 255 255 255 0.501983 0.906166
-256.323 504.349 -13.8254 0.170397 0.3294 -0.928687 255 255 255 255 0.484091 0.990208
-174.528 216.357 -147.948 -0.172355 0.62244 -0.763454 255 255 255 255 0.302792 0.819074
-114.515 84.95 -268.631 -0.172355 0.62244 -0.763454 255 255 255 255 0.174367 0.657556
-279.776 174.635 -158.203 -0.172355 0.62244 -0.763454 255 255 255 255 0.528999 0.779267
-364.054 368.403 -13.8253 0.017785 0.521069 -0.85333 255 255 255 255 0.695999 0.989548
-441.727 272.691 -73.8891 0.017785 0.521069 -0.85333 255 255 255 255 0.848272 0.901375
-444.356 371.144 -13.8253 0.017785 0.521069 -0.85333 255 255 255 255 0.853953 0.989055
-256.323 504.349 -13.8254 -0.420753 0.333429 -0.843678 255 255 255 255 0.484091 0.990208
-265.667 347.008 -71.3477 -0.420753 0.333429 -0.843678 255 255 255 255 0.501983 0.906166
-364.054 368.403 -13.8253 -0.420753 0.333429 -0.843678 255 255 255 255 0.695999 0.989548
-15.5961 303.28 -96.7448 -0.366666 0.416972 -0.83168 255 255 255 255 0.009877 0.870619
-109.885 385.756 -13.8253 -0.366666 0.416972 -0.83168 255 255 255 255 0.196047 0.991107
-15.5961 468.669 -13.8254 -0.366666 0.416972 -0.83168 255 255 255 255 0.010581 0.991685
-15.5961 258.42 -207.711 -0.406242 0.847159 -0.342475 255 255 255 255 0.009257 0.763873
-73.7255 269.938 -110.268 -0.406242 0.847159 -0.342475 255 255 255 255 0.124103 0.850518
-15.5961 303.28 -96.7448 -0.406242 0.847159 -0.342475 255 255 255 255 0.009877 0.870619
-109.885 385.756 -13.8253 0.28426 0.351003 -0.892185 255 255 255 255 0.196047 0.991107
-196.575 295.86 -76.8127 0.28426 0.351003 -0.892185 255 255 255 255 0.366033 0.898611
-256.323 504.349 -13.8254 0.28426 0.351003 -0.892185 255 255 255 255 0.484091 0.990208
-196.575 295.86 -76.8127 -0.175535 0.628964 -0.757358 255 255 255 255 0.366033 0.898611
-174.528 216.357 -147.948 -0.175535 0.628964 -0.757358 255 255 255 255 0.302792 0.819074
-279.776 174.635 -158.203 -0.175535 0.628964 -0.757358 255 255 255 255 0.528999 0.779267
-73.7255 269.938 -110.268 -0.080491 0.622866 -0.778177 255 255 255 255 0.124103 0.850518
-196.575 295.86 -76.8127 -0.080491 0.622866 -0.778177 255 255 255 255 0.366033 0.898611
-109.885 385.756 -13.8253 -0.080491 0.622866 -0.778177 255 255 255 255 0.196047 0.991107
-73.7255 269.938 -110.268 -0.06905 0.657513 -0.750273 255 255 255 255 0.124103 0.850518
-114.515 84.95 -268.631 -0.06905 0.657513 -0.750273 255 255 255 255 0.174367 0.657556
-174.528 216.357 -147.948 -0.06905 0.657513 -0.750273 255 255 255 255 0.302792 0.819074
-196.575 295.86 -76.8127 0.242281 0.420686 -0.874256 255 255 255 255 0.366033 0.898611
-279.776 174.635 -158.203 0.242281 0.420686 -0.874256 255 255 255 255 0.528999 0.779267
-265.667 347.008 -71.3477 0.242281 0.420686 -0.874256 255 255 255 255 0.501983 0.906166
-364.054 368.403 -13.8253 -0.347142 0.513489 -0.784743 255 255 255 255 0.695999 0.989548
-265.667 347.008 -71.3477 -0.347142 0.513489 -0.784743 255 255 255 255 0.501983 0.906166
-359.794 207.808 -120.794 -0.347142 0.513489 -0.784743 255 255 255 255 0.686712 0.833395
-444.356 371.144 -13.8253 -0.783014 0.528719 0.327637 255 255 255 255 0.853953 0.989055
-494.392 297.178 -14.0458 -0.783014 0.528719 0.327637 255 255 255 255 0.978266 0.956073
-481.236 302.828 8.27775 -0.783014 0.528719 0.327637 255 255 255 255 0.952578 0.988747
-359.794 207.808 -120.794 -0.216279 0.453392 -0.864673 255 255 255 255 0.686712 0.833395
-265.667 347.008 -71.3477 -0.216279 0.453392 -0.864673 255 255 255 255 0.501983 0.906166
-279.776 174.635 -158.203 -0.216279 0.453392 -0.864673 255 255 255 255 0.528999 0.779267
-364.054 368.403 -13.8253 -0.017785 -0.521069 0.85333 255 255 255 255 0.695999 0.989548
-444.356 371.144 -13.8253 -0.017785 -0.521069 0.85333 255 255 255 255 0.853953 0.989055
-441.727 272.691 -73.8891 -0.017785 -0.521069 0.85333 255 255 255 255 0.848272 0.901375
-15.5961 303.28 -96.7448 0.366666 -0.416972 0.83168 255 255 255 255 0.009877 0.870619
-15.5961 468.669 -13.8254 0.366666 -0.416972 0.83168 255 255 255 255 0.010581 0.991685
-109.885 385.756 -13.8253 0.366666 -0.416972 0.83168 255 255 255 255 0.196047 0.991107
-15.5961 258.42 -207.711 0.406242 -0.847159 0.342475 255 255 255 255 0.009257 0.763873
-15.5961 303.28 -96.7448 0.406242 -0.847159 0.342475 255 255 255 255 0.009877 0.870619
-73.7255 269.938 -110.268 0.406242 -0.847159 0.342475 255 255 255 255 0.124103 0.850518
-196.575 295.86 -76.8127 0.066783 -0.65496 0.752707 255 255 255 255 0.366033 0.898611
-174.528 216.357 -147.948 0.066783 -0.65496 0.752707 255 255 255 255 0.302792 0.819074
-73.7255 269.938 -110.268 0.066783 -0.65496 0.752707 255 255 255 255 0.124103 0.850518
-444.356 371.144 -13.8253 0.783014 -0.528719 -0.327637 255 255 255 255 0.853953 0.989055
-481.236 302.828 8.27775 0.783014 -0.528719 -0.327637 255 255 255 255 0.952578 0.988747
-494.392 297.178 -14.0458 0.783014 -0.528719 -0.327637 255 255 255 255 0.978266 0.956073
-364.054 368.403 -13.8253 -0.038259 0.55325 -0.832136 255 255 255 255 0.695999 0.989548
-359.794 207.808 -120.794 -0.038259 0.55325 -0.832136 255 255 255 255 0.686712 0.833395
-441.727 272.691 -73.8891 -0.038259 0.55325 -0.832136 255 255 255 255 0.848272 0.901375
-15.5961 303.28 -96.7448 -0.162609 0.600911 -0.782601 255 255 255 255 0.009877 0.870619
-73.7255 269.938 -110.268 -0.162609 0.600911 -0.782601 255 255 255 255 0.124103 0.850518
-109.885 385.756 -13.8253 -0.162609 0.600911 -0.782601 255 255 255 255 0.196047 0.991107
-15.5961 258.42 -207.711 -0.683328 0.555888 -0.473341 255 255 255 255 0.009257 0.763873
-114.515 84.95 -268.631 -0.683328 0.555888 -0.473341 255 255 255 255 0.174367 0.657556
-73.7255 269.938 -110.268 -0.683328 0.555888 -0.473341 255 255 255 255 0.124103 0.850518
-73.7255 269.938 -110.268 -0.066783 0.65496 -0.752707 255 255 255 255 0.124103 0.850518
-174.528 216.357 -147.948 -0.066783 0.65496 -0.752707 255 255 255 255 0.302792 0.819074
-196.575 295.86 -76.8127 -0.066783 0.65496 -0.752707 255 255 255 255 0.366033 0.898611
-444.356 371.144 -13.8253 -0.597195 0.406054 -0.691721 255 255 255 255 0.853953 0.989055
-441.727 272.691 -73.8891 -0.597195 0.406054 -0.691721 255 255 255 255 0.848272 0.901375
-494.392 297.178 -14.0458 -0.597195 0.406054 -0.691721 255 255 255 255 0.978266 0.956073
3 0 1 2 
3 3 4 5 
3 6 7 8 
3 9 10 11 
3 12 13 14 
3 15 16 17 
3 18 19 20 
3 21 22 23 
3 24 25 26 
3 27 28 29 
3 30 31 32 
3 33 34 35 
3 36 37 38 
3 39 40 41 
3 42 43 44 
3 45 46 47 
3 48 49 50 
3 51 52 53 
3 54 55 56 
3 57 58 59 
3 60 61 62 
3 63 64 65 
3 66 67 68 
3 69 70 71 
3 72 73 74 
3 75 76 77 
3 78 79 80 
3 81 82 83 
3 84 85 86 
3 87 88 89 
3 90 91 92 
3 93 94 95 
3 96 97 98 
3 99 100 101 
3 102 103 104 
3 105 106 107 
3 108 109 110 
3 111 112 113 
3 114 115 116 
3 117 118 119 
