ply
format ascii 1.0
comment VCGLIB generated
comment TextureFile Dungeons_2_Texture_01_A.png
element vertex 404
property float x
property float y
property float z
property float nx
property float ny
property float nz
property uchar red
property uchar green
property uchar blue
property uchar alpha
property float texture_u
property float texture_v
element face 332
property list uchar int vertex_indices
end_header
50 78.64418 50 0.8555043 0.4281865 0.2911509 192 192 192 255 0.063855 0.778779
50 78.64418 -39.7518 0.9813883 0.1868088 -0.04449259 192 192 192 255 0.227295 0.778779
-41.46424 78.64417 -50 -0.09396152 0.376647 -0.9215792 192 192 192 255 0.066634 0.778779
-50 78.64418 50 -0.5533346 0.08019723 0.8290895 192 192 192 255 0.010273 0.778779
-50 421.3559 -50 -0.9896066 -0.1437781 -0.002600173 192 192 192 255 0.122919 0.778779
50 421.3559 -50 0.9896107 -0.1437683 -0.001189598 192 192 192 255 0.176501 0.778779
50 421.3559 50 0.9896001 -0.143834 0.001851622 192 192 192 255 0.179204 0.962411
-50 421.3559 50 -0.9896064 -0.1437927 0.001721012 192 192 192 255 0.010273 0.962411
23.87442 123.8354 39.78805 0.533448 0.6500699 0.5411492 192 192 192 255 0.049857 0.802993
23.87442 376.1646 39.78805 0.5319305 -0.6504339 0.5422045 192 192 192 255 0.049857 0.938197
-39.78806 123.8354 23.87442 -0.9925125 0.01120853 0.1216274 192 192 192 255 0.106217 0.802993
-39.78806 376.1646 23.87442 -0.9187239 -0.1906614 0.3458246 192 192 192 255 0.106217 0.938197
-39.78806 376.1646 -23.87442 -0.9999043 -0.01069632 -0.008777469 192 192 192 255 0.080632 0.938197
-39.78806 123.8354 -23.87442 -0.999644 0.02065454 -0.01689147 192 192 192 255 0.080632 0.802993
23.87442 376.1646 -39.78805 0.7063044 -0.04236679 -0.7066394 192 192 192 255 0.162503 0.802993
23.87442 123.8354 -39.78805 0.7066919 0.02688005 -0.7070106 192 192 192 255 0.162503 0.938197
39.78806 123.8354 -23.87442 0.9991239 0.01882159 -0.03738015 192 192 192 255 0.218788 0.802993
39.78806 376.1646 -23.87442 0.9054973 -0.01595995 -0.4240519 192 192 192 255 0.218788 0.938197
39.78806 376.1646 23.87442 0.9999058 -0.0106144 0.008710189 192 192 192 255 0.193203 0.938197
39.78806 123.8354 23.87442 0.999644 0.02065459 0.01689151 192 192 192 255 0.193203 0.802993
39.78806 92.83237 39.78805 0.8116727 0.5841113 0.001202005 192 192 192 255 0.058384 0.786381
39.78806 110.8655 39.78805 0.5381404 0.6508218 0.5355707 192 192 192 255 0.058384 0.796044
39.78806 110.8655 -39.78805 0.536658 0.6490291 -0.5392212 192 192 192 255 0.171029 0.945146
39.78806 92.83237 -39.78805 0.1572582 0.6485387 -0.74476 192 192 192 255 0.171029 0.954809
-39.78806 92.83237 -39.78805 -0.6840486 0.6802478 -0.263326 192 192 192 255 0.128391 0.954809
-39.78806 92.83237 39.78805 -0.8116527 0.5841401 0.0006250249 192 192 192 255 0.015745 0.786381
-39.78806 110.8655 39.78805 -0.5366589 0.6490286 0.5392209 192 192 192 255 0.015745 0.796044
-39.78806 110.8655 -39.78805 -0.5381413 0.6508213 -0.5355704 192 192 192 255 0.128391 0.945146
39.78806 389.1345 -39.78805 0.5348295 -0.6499214 -0.5399626 192 192 192 255 0.171029 0.796044
39.78806 389.1345 39.78805 0.5399623 -0.6499214 0.5348298 192 192 192 255 0.058384 0.945146
-23.87445 376.1646 39.78805 -0.7058862 -0.05343468 0.7063068 192 192 192 255 0.024272 0.938197
-23.87445 123.8354 39.78805 -0.7067108 0.02614785 0.7070193 192 192 192 255 0.024272 0.802993
-23.87445 123.8354 -39.78805 -0.5334489 0.6500694 -0.5411488 192 192 192 255 0.136918 0.938197
-23.87445 376.1646 -39.78805 -0.5319315 -0.6504334 -0.5422041 192 192 192 255 0.136918 0.802993
-39.78806 389.1345 -39.78805 -0.5399632 -0.6499209 -0.5348294 192 192 192 255 0.128391 0.796044
-39.78806 389.1345 39.78805 -0.5348304 -0.6499209 0.5399622 192 192 192 255 0.015745 0.945146
39.78806 407.1677 39.78805 0.8115312 -0.5843067 0.00168658 192 192 192 255 0.058384 0.954809
-39.78806 407.1677 39.78805 -0.8118429 -0.5838752 0.0009488644 192 192 192 255 0.015745 0.954809
-39.78806 407.1677 -39.78805 -0.811537 -0.584299 -0.001578791 192 192 192 255 0.072106 0.954809
39.78806 407.1677 -39.78805 0.8118403 -0.5838789 -0.0009368488 192 192 192 255 0.171029 0.786381
50 22.27974 50 0.7066532 0.003365686 0.707552 192 192 192 255 0.063855 0.748578
50 22.27974 -50 0.8769165 0.0004622658 -0.4806425 192 192 192 255 0.195119 0.870085
-50 22.27974 -50 -0.5181537 0.0003242449 -0.8552875 192 192 192 255 0.141537 0.870085
-50 22.27974 50 -0.8433762 0.0001793178 0.5373236 192 192 192 255 0.010273 0.748578
53.69997 0 -53.7 0.5773503 -0.5773503 -0.5773503 192 192 192 255 0.087813 0.795084
53.69997 0 53.7 0.6666667 -0.6666667 0.3333333 192 192 192 255 0.087813 0.852631
53.69997 19.31563 -53.7 0.5481242 0.4888499 -0.6786646 192 192 192 255 0.098163 0.795084
53.69997 19.31563 53.7 0.5389143 0.5606765 0.6286599 192 192 192 255 0.098163 0.852631
-53.70001 19.31563 -53.7 -0.6197029 0.6447322 -0.4475363 192 192 192 255 0.075101 0.852631
-53.70001 0 -53.7 -0.5773503 -0.5773503 -0.5773503 192 192 192 255 0.085451 0.852631
-53.70001 0 53.7 -0.4082483 -0.4082483 0.8164966 192 192 192 255 0.062389 0.795084
-53.70001 19.31563 53.7 -0.6286598 0.5606782 0.5389127 192 192 192 255 0.072738 0.795084
-50 477.7203 -50 -0.9999999 -0.0003596118 -0.0002507365 192 192 192 255 0.122919 0.748578
50 477.7203 -50 0.9999999 -0.0002321857 -0.0003237796 192 192 192 255 0.176501 0.748578
50 477.7203 50 0.9999999 -0.0003641834 0.0004099043 192 192 192 255 0.179204 0.992612
-50 477.7203 50 -0.9999999 -0.0002339118 0.0002260019 192 192 192 255 0.010273 0.992612
-53.70001 500 -53.7 -0.3333333 0.6666667 -0.6666667 192 192 192 255 0.126854 0.872068
-53.70001 480.7056 -53.7 -0.629162 -0.5589858 -0.5400835 192 192 192 255 0.137192 0.872068
53.69999 500 -53.7 0.8164966 0.4082483 -0.4082483 192 192 192 255 0.126854 0.814521
53.69999 480.7056 -53.7 0.5400839 -0.5589851 -0.6291621 192 192 192 255 0.137192 0.814521
53.69999 480.7056 53.7 0.5484627 -0.487287 0.6795146 192 192 192 255 0.114153 0.872068
53.69999 500 53.7 0.4082483 0.8164966 0.4082483 192 192 192 255 0.124491 0.872068
-53.70001 480.7056 53.7 -0.6211302 -0.6428701 0.448236 192 192 192 255 0.101452 0.872068
-53.70001 500 53.7 -0.6666667 0.3333333 0.6666667 192 192 192 255 0.111791 0.872068
26.36851 74.12894 49.99998 0.4707905 0.2758049 0.8380263 192 192 192 255 0.093863 0.593786
-0.000114 100.4949 49.99998 -0.14596 0.4379243 0.887084 192 192 192 255 0.079734 0.607914
-26.36871 74.12894 49.99998 -0.5279125 0.1379021 0.8380284 192 192 192 255 0.065605 0.593786
-26.36871 22.27974 50 -0.5724217 1.497074e-07 0.8199595 192 192 192 255 0.065605 0.566004
26.36851 22.27974 50 0.5724257 1.497069e-07 0.8199567 192 192 192 255 0.093863 0.566004
21.06853 71.93346 53.7 0.001736936 0.0004537239 0.9999985 192 192 192 255 0.091023 0.882362
-0.000114 92.99995 53.7 0.0004546977 0.001364228 0.999999 192 192 192 255 0.079734 0.89365
-21.06867 71.93346 53.7 -0.001550717 0.0009084625 0.9999984 192 192 192 255 0.068445 0.882362
-21.06867 19.31563 53.7 -0.3000338 7.846887e-08 0.9539286 192 192 192 255 0.068445 0.854168
21.06853 19.31563 53.7 0.3000361 7.846867e-08 0.9539279 192 192 192 255 0.091023 0.854168
-37.26859 78.64418 50 -0.0004333798 0.0004320308 0.9999998 192 192 192 255 0.127144 0.908059
0 115.909 50 0.0002166488 0.0006478722 0.9999998 192 192 192 255 0.147111 0.88809
-42.72701 82.00047 39.78805 -0.60211 0.6000936 0.5266415 192 192 192 255 0.124256 0.914953
0 125 39.78805 -0.243793 0.7289298 0.639708 192 192 192 255 0.124256 0.937993
37.26859 78.64418 50 0.000216731 0.0002161075 1 192 192 192 255 0.127144 0.868121
42.72701 82.00047 39.78805 0.60211 0.6000936 0.5266415 192 192 192 255 0.121894 0.914953
-33.35987 216.6368 -48.66108 -0.9943063 -0.0005088219 -0.1065586 192 192 192 255 0.039032 0.674753
0 183.2803 -48.66108 0.1889701 -0.566967 -0.8017722 192 192 192 255 0.095181 0.622606
-33.35987 216.6368 48.66108 -0.9948957 -5.487736e-05 0.100909 192 192 192 255 0.039032 0.622606
0 183.2803 48.66108 -0.1889699 -0.5669671 0.8017722 192 192 192 255 0.095181 0.674753
33.35985 216.6368 -48.66108 0.4844995 -0.2007005 -0.8514574 192 192 192 255 0.124801 0.633138
33.35985 216.6368 48.66108 0.7172732 -0.2971253 0.6302665 192 192 192 255 0.124801 0.685285
-33.35987 283.3632 48.66108 -0.994325 0.0002165017 0.1063852 192 192 192 255 0.074786 0.622606
0 316.7197 48.66108 0.1889701 0.566967 0.8017722 192 192 192 255 0.133455 0.622606
-33.35987 283.3632 -48.66108 -0.9998906 9.406575e-05 -0.01479446 192 192 192 255 0.074786 0.674753
0 316.7197 -48.66108 -0.1889699 0.5669671 -0.8017722 192 192 192 255 0.133455 0.674753
33.35985 283.3632 48.66108 0.4844995 0.2007005 0.8514574 192 192 192 255 0.160555 0.685285
33.35985 283.3632 -48.66108 0.7172732 0.2971253 -0.6302665 192 192 192 255 0.160555 0.633138
0 197.9874 48.66108 0.07624518 -0.2287585 0.9704928 192 192 192 255 0.156512 0.551965
-22.95986 220.9449 48.66108 -0.006688855 -0.00277081 0.9999738 192 192 192 255 0.14421 0.564266
22.95986 220.9449 48.66108 0.287226 -0.07502927 0.9549198 192 192 192 255 0.168815 0.564266
22.95986 279.0551 48.66108 0.2561455 0.1500585 0.9549199 192 192 192 255 0.168815 0.595403
0 302.0126 48.66108 -0.07624516 0.2287585 0.9704928 192 192 192 255 0.156512 0.607704
-22.95986 279.0551 48.66108 -0.001623175 0.0004240062 0.9999986 192 192 192 255 0.14421 0.595403
0 302.0126 -48.66108 0.0762452 0.2287586 -0.9704928 192 192 192 255 0.1184 0.551965
-22.95986 279.0551 -48.66108 -0.003071543 0.001799411 -0.9999937 192 192 192 255 0.106098 0.564266
22.95986 279.0551 -48.66108 0.2872262 0.07502931 -0.9549198 192 192 192 255 0.130703 0.564266
22.95986 220.9449 -48.66108 0.256146 -0.1500589 -0.9549197 192 192 192 255 0.130703 0.595403
0 197.9874 -48.66108 -0.07624535 -0.2287591 -0.9704927 192 192 192 255 0.1184 0.607704
-22.95986 220.9449 -48.66108 -0.002063444 -0.000539014 -0.9999977 192 192 192 255 0.106098 0.595403
0 206.4722 53.16108 -0.0007344687 -0.002203402 0.9999973 192 192 192 255 0.156512 0.807511
-16.95987 223.4304 53.16107 -0.00117334 -0.0004858993 0.9999992 192 192 192 255 0.147425 0.816597
16.95987 223.4304 53.16107 0.0005412352 -0.0003170807 0.9999998 192 192 192 255 0.1656 0.816597
16.95987 276.5696 53.16108 0.0004469527 0.0001166843 0.9999999 192 192 192 255 0.1656 0.84507
0 293.5277 53.16108 0.0007344685 0.002203628 0.9999973 192 192 192 255 0.156512 0.854157
-16.95987 276.5696 53.16108 -0.001855738 0.001087318 0.9999977 192 192 192 255 0.147425 0.84507
0 293.5277 -53.16108 -0.000734469 0.002203629 -0.9999973 192 192 192 255 0.1184 0.807511
-16.95987 276.5696 -53.16108 -0.0006824307 0.0001782647 -0.9999998 192 192 192 255 0.109313 0.816597
16.95987 276.5696 -53.16108 0.0003463162 0.0002028835 -1 192 192 192 255 0.127488 0.816597
16.95987 223.4304 -53.16108 0.000682431 -0.000178265 -0.9999998 192 192 192 255 0.127488 0.84507
0 206.4722 -53.16108 0.00073447 -0.002203631 -0.9999973 192 192 192 255 0.1184 0.854157
-16.95987 223.4304 -53.16108 -0.0003463165 -0.0002028837 -1 192 192 192 255 0.109313 0.84507
-13.73076 92.83235 44.4833 -0.4472136 0 0.8944272 192 192 192 255 0.043574 0.558607
13.73074 92.83235 44.4833 0.8944272 0 0.4472136 192 192 192 255 0.058289 0.558607
-13.73076 407.1677 44.4833 -0.8944272 0 0.4472136 192 192 192 255 0.043574 0.727035
13.73074 407.1677 44.4833 0.4472136 0 0.8944272 192 192 192 255 0.058289 0.727035
-13.73076 407.1677 -44.4833 -0.4472136 0 -0.8944272 192 192 192 255 0.060835 0.558607
13.73074 407.1677 -44.4833 0.8944272 0 -0.4472136 192 192 192 255 0.075549 0.558607
-13.73076 92.83235 -44.4833 -0.8944272 0 -0.4472136 192 192 192 255 0.060835 0.727035
13.73074 92.83235 -44.4833 0.4472136 0 -0.8944272 192 192 192 255 0.075549 0.727035
37.26859 78.64418 -50 0.0004333798 0.0004320308 -0.9999998 192 192 192 255 0.169625 0.868121
-0 115.909 -50 -0.0002166488 0.0006478722 -0.9999998 192 192 192 255 0.149658 0.88809
42.72701 82.00047 -39.78805 0.60211 0.6000936 -0.5266415 192 192 192 255 0.108588 0.914953
-0 125 -39.78805 0.243793 0.7289298 -0.639708 192 192 192 255 0.108588 0.937993
-37.26859 78.64418 -50 -0.000216731 0.0002161075 -1 192 192 192 255 0.169625 0.908059
-42.72701 82.00047 -39.78805 -0.60211 0.6000936 -0.5266415 192 192 192 255 0.106225 0.914953
-26.36851 74.12894 -49.99998 -0.4707905 0.2758049 -0.8380263 192 192 192 255 0.096374 0.592496
0.000114 100.4949 -49.99998 0.14596 0.4379243 -0.887084 192 192 192 255 0.110503 0.578368
26.36871 74.12894 -49.99998 0.5279125 0.1379021 -0.8380284 192 192 192 255 0.124632 0.592496
26.36871 22.27974 -50 0.5724217 1.497074e-07 -0.8199595 192 192 192 255 0.124632 0.620278
-26.36851 22.27974 -50 -0.5724257 1.497069e-07 -0.8199567 192 192 192 255 0.096374 0.620278
-21.06853 71.93346 -53.7 -0.001736936 0.0004537239 -0.9999985 192 192 192 255 0.099214 0.883424
0.000114 92.99995 -53.7 -0.0004546977 0.001364228 -0.999999 192 192 192 255 0.110503 0.872137
21.06867 71.93346 -53.7 0.001550717 0.0009084625 -0.9999984 192 192 192 255 0.121792 0.883424
21.06867 19.31563 -53.7 0.3000338 7.846887e-08 -0.9539286 192 192 192 255 0.121792 0.911618
-21.06853 19.31563 -53.7 -0.3000361 7.846867e-08 -0.9539279 192 192 192 255 0.099214 0.911618
-37.26859 421.3558 -50 -0.0004333796 -0.0004320303 -0.9999998 192 192 192 255 0.15442 0.949535
0 384.0909 -50 0.0002166487 -0.0006478715 -0.9999998 192 192 192 255 0.174387 0.929565
-42.72701 417.9995 -39.78805 -0.6021102 -0.6000935 -0.5266414 192 192 192 255 0.098391 0.936195
0 375 -39.78805 -0.2437932 -0.7289298 -0.639708 192 192 192 255 0.098391 0.913155
37.26859 421.3558 -50 0.0002167309 -0.0002161073 -1 192 192 192 255 0.15442 0.909596
42.72701 417.9995 -39.78805 0.6021102 -0.6000935 -0.5266413 192 192 192 255 0.085085 0.922243
26.36851 425.8711 -49.99998 0.4707903 -0.275805 -0.8380263 192 192 192 255 0.182112 0.613234
-0.000114 399.5051 -49.99998 -0.14596 -0.4379244 -0.8870839 192 192 192 255 0.167983 0.627362
-26.36871 425.8711 -49.99998 -0.5279125 -0.1379021 -0.8380284 192 192 192 255 0.153854 0.613234
-26.36871 477.7202 -50 -0.5724217 -1.49677e-07 -0.8199595 192 192 192 255 0.153854 0.585452
26.36851 477.7202 -50 0.5724256 -1.496765e-07 -0.8199567 192 192 192 255 0.182112 0.585452
21.06853 428.0665 -53.7 0.001736937 -0.0004537245 -0.9999985 192 192 192 255 0.179272 0.90181
-0.000114 407.0001 -53.7 0.0004546979 -0.00136423 -0.999999 192 192 192 255 0.167983 0.913098
-21.06867 428.0665 -53.7 -0.001550719 -0.0009084638 -0.9999984 192 192 192 255 0.156694 0.90181
-21.06867 480.7056 -53.7 -0.3000338 -7.845296e-08 -0.9539286 192 192 192 255 0.156694 0.873605
21.06853 480.7056 -53.7 0.3000361 -7.845274e-08 -0.9539279 192 192 192 255 0.179272 0.873605
37.26859 421.3558 50 0.0004333796 -0.0004320303 0.9999998 192 192 192 255 0.152058 0.909596
-0 384.0909 50 -0.0002166487 -0.0006478715 0.9999998 192 192 192 255 0.13209 0.929565
42.72701 417.9995 39.78805 0.6021102 -0.6000935 0.5266414 192 192 192 255 0.082722 0.922243
0 375 39.78805 0.2437932 -0.7289298 0.639708 192 192 192 255 0.082722 0.899203
-37.26859 421.3558 50 -0.0002167309 -0.0002161073 1 192 192 192 255 0.152058 0.949535
-42.72701 417.9995 39.78805 -0.6021102 -0.6000935 0.5266413 192 192 192 255 0.069416 0.922243
-26.36851 425.8711 49.99998 -0.4707903 -0.275805 0.8380263 192 192 192 255 0.184624 0.59798
0.000114 399.5051 49.99998 0.14596 -0.4379244 0.8870839 192 192 192 255 0.198752 0.583853
26.36871 425.8711 49.99998 0.5279125 -0.1379021 0.8380284 192 192 192 255 0.212881 0.59798
26.36871 477.7202 50 0.5724217 -1.49677e-07 0.8199595 192 192 192 255 0.212881 0.625762
-26.36851 477.7202 50 -0.5724256 -1.496765e-07 0.8199567 192 192 192 255 0.184624 0.625762
-21.06853 428.0665 53.7 -0.001736937 -0.0004537245 0.9999985 192 192 192 255 0.187463 0.888909
0.000114 407.0001 53.7 -0.0004546979 -0.00136423 0.999999 192 192 192 255 0.198752 0.877621
21.06867 428.0665 53.7 0.001550719 -0.0009084638 0.9999984 192 192 192 255 0.210041 0.888909
21.06867 480.7056 53.7 0.3000338 -7.845296e-08 0.9539286 192 192 192 255 0.210041 0.917114
-21.06853 480.7056 53.7 -0.3000361 -7.845274e-08 0.9539279 192 192 192 255 0.187463 0.917114
-39.78806 283.5494 23.87442 -0.9501604 0.003760286 0.3117388 192 192 192 255 0.106217 0.888571
-39.78806 360.2701 23.87442 -0.9568584 -0.01578768 0.2901254 192 192 192 255 0.106217 0.92968
-32.8916 328.7774 30.77089 -0.7461552 0 0.665772 192 192 192 255 0.109912 0.912806
-39.78807 334.0804 15.63395 -0.9921302 0 0.1252108 192 192 192 255 0.101802 0.915647
-50 421.3559 -34.8328 -0.9979666 -0.06365995 0.003195995 192 192 192 255 0.074761 0.962411
-50 421.3559 20.4699 -0.9710852 -0.2386788 -0.005105187 192 192 192 255 0.104393 0.962411
-50 429.2585 -2.862859 -0.9983867 -0.05678076 0 192 192 192 255 0.091891 0.966645
-46.51938 416.52 -8.935149 -0.907706 -0.4196067 0 192 192 192 255 0.088637 0.95982
-43.98921 86.99541 -43.9892 -0.1253203 0.5892761 -0.7981532 192 192 192 255 0.069854 0.783254
-50 59.68882 -50 -0.6007629 0.01105694 -0.7993508 192 192 192 255 0.066634 0.768622
-50 78.64418 -36.1653 -0.9827038 0.1837849 -0.02272367 192 192 192 255 0.074047 0.778779
39.78806 142.4704 -23.87442 0.9079946 0.01365621 -0.4187592 192 192 192 255 0.218788 0.812978
39.78806 216.2169 -23.87442 0.9938354 -0.003439658 -0.110812 192 192 192 255 0.218788 0.852493
33.02955 179.4082 -30.63292 0.7461856 2.731529e-09 -0.6657379 192 192 192 255 0.167408 0.908419
39.78806 179.8464 -17.78061 0.9924005 -2.825346e-09 -0.1230503 192 192 192 255 0.215523 0.833005
50 72.41619 50 0.6352655 -0.009572497 0.7722345 192 192 192 255 0.063855 0.775442
50 27.18931 50 0.7571194 0.01721067 0.6530499 192 192 192 255 0.063855 0.751208
50 43.62837 43.3911 0.9993737 0 0.03538795 192 192 192 255 0.063855 0.760017
42.25297 40.05319 50 0.02940908 0 0.9995674 192 192 192 255 0.059704 0.758101
-33.35987 272.8615 -48.66108 -0.9810315 -0.02180009 -0.1926188 192 192 192 255 0.069159 0.674753
-33.35987 245.0197 -48.66108 -0.9866675 0.01022539 -0.1624277 192 192 192 255 0.05424 0.674753
-33.35987 259.5309 -42.60814 -0.9969788 0 -0.07767444 192 192 192 255 0.062016 0.67151
-25.77752 258.6052 -48.66108 -0.1852635 0 -0.9826889 192 192 192 255 0.104588 0.575224
50 421.3559 36.2789 0.9976743 -0.06800753 -0.004585215 192 192 192 255 0.186556 0.962411
50 421.3559 -19.0691 0.9744154 -0.224652 0.006792753 192 192 192 255 0.216213 0.962411
50 429.3841 7.764753 0.997147 -0.0754839 4.255148e-08 192 192 192 255 0.201835 0.966713
45.23171 414.731 9.353076 0.9086086 -0.4176488 2.339586e-07 192 192 192 255 0.200984 0.958861
42.7516 88.7149 -42.7516 0.5042721 0.6942977 -0.5134788 192 192 192 255 0.228903 0.784175
50 46.61757 -50 0.5071066 0.008713478 -0.8618393 192 192 192 255 0.232786 0.761618
40.57251 78.64418 -50 0.07288187 0.1245471 -0.9895334 192 192 192 255 0.232786 0.778779
-16.95985 270.5871 53.16108 -0.07615407 -0.02574583 0.9967636 192 192 192 255 0.147425 0.841634
-16.95987 232.1602 53.16107 -0.03262729 0.01094182 0.9994077 192 192 192 255 0.147425 0.821275
-22.95986 249.9877 48.66108 -0.1579479 -3.287355e-08 0.9874474 192 192 192 255 0.14421 0.579828
-10.40066 251.4521 53.16108 -0.1120166 -1.581522e-07 0.9937063 192 192 192 255 0.149182 0.831372
39.78806 92.83237 39.78805 0.8116727 0.5841113 0.001202005 192 192 192 255 0.184676 0.786381
39.78806 92.83237 -39.78805 0.1572582 0.6485387 -0.74476 192 192 192 255 0.227315 0.786381
39.78806 110.8655 -39.78805 0.536658 0.6490291 -0.5392212 192 192 192 255 0.227315 0.796044
39.78806 110.8655 39.78805 0.5381404 0.6508218 0.5355707 192 192 192 255 0.184676 0.796044
-39.78806 92.83237 -39.78805 -0.6840486 0.6802478 -0.263326 192 192 192 255 0.072106 0.786381
-39.78806 92.83237 39.78805 -0.8116527 0.5841401 0.0006250249 192 192 192 255 0.114744 0.786381
-39.78806 110.8655 39.78805 -0.5366589 0.6490286 0.5392209 192 192 192 255 0.114744 0.796044
-39.78806 110.8655 -39.78805 -0.5381413 0.6508213 -0.5355704 192 192 192 255 0.072106 0.796044
39.78806 389.1345 39.78805 0.5399623 -0.6499214 0.5348298 192 192 192 255 0.184676 0.945146
39.78806 389.1345 -39.78805 0.5348295 -0.6499214 -0.5399626 192 192 192 255 0.227315 0.945146
-39.78806 389.1345 -39.78805 -0.5399632 -0.6499209 -0.5348294 192 192 192 255 0.072106 0.945146
-39.78806 389.1345 39.78805 -0.5348304 -0.6499209 0.5399622 192 192 192 255 0.114744 0.945146
-23.87445 376.1646 39.78805 -0.7058862 -0.05343468 0.7063068 192 192 192 255 0.114744 0.938197
-23.87445 123.8354 39.78805 -0.7067108 0.02614785 0.7070193 192 192 192 255 0.114744 0.802993
39.78806 123.8354 23.87442 0.999644 0.02065459 0.01689151 192 192 192 255 0.058384 0.802993
39.78806 376.1646 23.87442 0.9999058 -0.0106144 0.008710189 192 192 192 255 0.058384 0.938197
-23.87445 123.8354 -39.78805 -0.5334489 0.6500694 -0.5411488 192 192 192 255 0.072106 0.802993
-23.87445 376.1646 -39.78805 -0.5319315 -0.6504334 -0.5422041 192 192 192 255 0.072106 0.938197
39.78806 123.8354 -23.87442 0.9991239 0.01882159 -0.03738015 192 192 192 255 0.171029 0.938197
39.78806 142.4704 -23.87442 0.9079946 0.01365621 -0.4187592 192 192 192 255 0.171029 0.928212
39.78806 376.1646 -23.87442 0.9054973 -0.01595995 -0.4240519 192 192 192 255 0.171029 0.802993
39.78806 216.2169 -23.87442 0.9938354 -0.003439658 -0.110812 192 192 192 255 0.171029 0.888697
-23.87445 376.1646 39.78805 -0.7058862 -0.05343468 0.7063068 192 192 192 255 0.216842 0.927178
-39.78806 389.1345 39.78805 -0.5348304 -0.6499209 0.5399622 192 192 192 255 0.208315 0.927178
-39.78806 376.1646 23.87442 -0.9187239 -0.1906614 0.3458246 192 192 192 255 0.208315 0.918651
-39.78806 110.8655 39.78805 -0.5366589 0.6490286 0.5392209 192 192 192 255 0.197425 0.918651
-23.87445 123.8354 39.78805 -0.7067108 0.02614785 0.7070193 192 192 192 255 0.205952 0.918651
-39.78806 123.8354 23.87442 -0.9925125 0.01120853 0.1216274 192 192 192 255 0.197425 0.927178
23.87442 123.8354 39.78805 0.533448 0.6500699 0.5411492 192 192 192 255 0.186536 0.918651
39.78806 110.8655 39.78805 0.5381404 0.6508218 0.5355707 192 192 192 255 0.195063 0.918651
39.78806 123.8354 23.87442 0.999644 0.02065459 0.01689151 192 192 192 255 0.195063 0.927178
39.78806 389.1345 39.78805 0.5399623 -0.6499214 0.5348298 192 192 192 255 0.184174 0.918651
23.87442 376.1646 39.78805 0.5319305 -0.6504339 0.5422045 192 192 192 255 0.184174 0.927178
39.78806 376.1646 23.87442 0.9999058 -0.0106144 0.008710189 192 192 192 255 0.175647 0.918651
-23.87445 123.8354 -39.78805 -0.5334489 0.6500694 -0.5411488 192 192 192 255 0.173284 0.927178
-39.78806 110.8655 -39.78805 -0.5381413 0.6508213 -0.5355704 192 192 192 255 0.164757 0.927178
-39.78806 123.8354 -23.87442 -0.999644 0.02065454 -0.01689147 192 192 192 255 0.164757 0.918651
-39.78806 389.1345 -39.78805 -0.5399632 -0.6499209 -0.5348294 192 192 192 255 0.153868 0.918651
-23.87445 376.1646 -39.78805 -0.5319315 -0.6504334 -0.5422041 192 192 192 255 0.162395 0.918651
-39.78806 376.1646 -23.87442 -0.9999043 -0.01069632 -0.008777469 192 192 192 255 0.153868 0.927178
39.78806 110.8655 -39.78805 0.536658 0.6490291 -0.5392212 192 192 192 255 0.151506 0.935816
23.87442 123.8354 -39.78805 0.7066919 0.02688005 -0.7070106 192 192 192 255 0.142979 0.935816
39.78806 123.8354 -23.87442 0.9991239 0.01882159 -0.03738015 192 192 192 255 0.151506 0.927289
23.87442 376.1646 -39.78805 0.7063044 -0.04236679 -0.7066394 192 192 192 255 0.132089 0.935816
39.78806 389.1345 -39.78805 0.5348295 -0.6499214 -0.5399626 192 192 192 255 0.132089 0.927289
39.78806 376.1646 -23.87442 0.9054973 -0.01595995 -0.4240519 192 192 192 255 0.140616 0.927289
-39.78806 407.1677 39.78805 -0.8118429 -0.5838752 0.0009488644 192 192 192 255 0.114744 0.954809
-39.78806 407.1677 -39.78805 -0.811537 -0.584299 -0.001578791 192 192 192 255 0.128391 0.786381
39.78806 407.1677 -39.78805 0.8118403 -0.5838789 -0.0009368488 192 192 192 255 0.227315 0.954809
39.78806 407.1677 39.78805 0.8115312 -0.5843067 0.00168658 192 192 192 255 0.184676 0.954809
50 477.7203 -50 0.9999999 -0.0002321857 -0.0003237796 192 192 192 255 0.232786 0.992612
50 421.3559 -50 0.9896107 -0.1437683 -0.001189598 192 192 192 255 0.232786 0.962411
50 421.3559 50 0.9896001 -0.143834 0.001851622 192 192 192 255 0.063855 0.962411
50 477.7203 50 0.9999999 -0.0003641834 0.0004099043 192 192 192 255 0.063855 0.992612
-50 421.3559 -50 -0.9896066 -0.1437781 -0.002600173 192 192 192 255 0.066634 0.962411
-50 477.7203 -50 -0.9999999 -0.0003596118 -0.0002507365 192 192 192 255 0.066634 0.992612
-50 477.7203 50 -0.9999999 -0.0002339118 0.0002260019 192 192 192 255 0.120216 0.992612
-50 421.3559 50 -0.9896064 -0.1437927 0.001721012 192 192 192 255 0.120216 0.962411
53.69997 19.31563 -53.7 0.5481242 0.4888499 -0.6786646 192 192 192 255 0.075101 0.795084
53.69997 0 -53.7 0.5773503 -0.5773503 -0.5773503 192 192 192 255 0.085451 0.795084
-53.70001 0 -53.7 -0.5773503 -0.5773503 -0.5773503 192 192 192 255 0.062389 0.852631
-53.70001 19.31563 -53.7 -0.6197029 0.6447322 -0.4475363 192 192 192 255 0.072738 0.852631
-53.70001 0 53.7 -0.4082483 -0.4082483 0.8164966 192 192 192 255 0.049677 0.852631
53.69997 0 53.7 0.6666667 -0.6666667 0.3333333 192 192 192 255 0.049677 0.795084
53.69997 19.31563 53.7 0.5389143 0.5606765 0.6286599 192 192 192 255 0.060026 0.795084
-53.70001 19.31563 53.7 -0.6286598 0.5606782 0.5389127 192 192 192 255 0.060026 0.852631
50 22.27974 50 0.7066532 0.003365686 0.707552 192 192 192 255 0.195119 0.816503
53.69997 19.31563 53.7 0.5389143 0.5606765 0.6286599 192 192 192 255 0.197102 0.814521
53.69997 19.31563 -53.7 0.5481242 0.4888499 -0.6786646 192 192 192 255 0.197102 0.872068
-53.70001 19.31563 -53.7 -0.6197029 0.6447322 -0.4475363 192 192 192 255 0.139555 0.872068
-50 22.27974 50 -0.8433762 0.0001793178 0.5373236 192 192 192 255 0.141537 0.816503
-53.70001 19.31563 53.7 -0.6286598 0.5606782 0.5389127 192 192 192 255 0.139555 0.814521
53.69999 480.7056 -53.7 0.5400839 -0.5589851 -0.6291621 192 192 192 255 0.114153 0.814521
53.69999 500 -53.7 0.8164966 0.4082483 -0.4082483 192 192 192 255 0.124491 0.814521
53.69999 480.7056 53.7 0.5484627 -0.487287 0.6795146 192 192 192 255 0.101452 0.814521
53.69999 500 53.7 0.4082483 0.8164966 0.4082483 192 192 192 255 0.111791 0.814521
-53.70001 480.7056 -53.7 -0.629162 -0.5589858 -0.5400835 192 192 192 255 0.088752 0.872068
-53.70001 480.7056 53.7 -0.6211302 -0.6428701 0.448236 192 192 192 255 0.088752 0.814521
-53.70001 500 53.7 -0.6666667 0.3333333 0.6666667 192 192 192 255 0.09909 0.814521
-53.70001 500 -53.7 -0.3333333 0.6666667 -0.6666667 192 192 192 255 0.09909 0.872068
-53.70001 480.7056 -53.7 -0.629162 -0.5589858 -0.5400835 192 192 192 255 0.028842 0.872068
53.69999 480.7056 -53.7 0.5400839 -0.5589851 -0.6291621 192 192 192 255 0.028842 0.814521
50 477.7203 -50 0.9999999 -0.0002321857 -0.0003237796 192 192 192 255 0.030824 0.816503
-50 477.7203 -50 -0.9999999 -0.0003596118 -0.0002507365 192 192 192 255 0.030824 0.870085
50 477.7203 50 0.9999999 -0.0003641834 0.0004099043 192 192 192 255 0.084406 0.816503
53.69999 480.7056 53.7 0.5484627 -0.487287 0.6795146 192 192 192 255 0.086389 0.814521
-53.70001 480.7056 53.7 -0.6211302 -0.6428701 0.448236 192 192 192 255 0.086389 0.872068
-50 477.7203 50 -0.9999999 -0.0002339118 0.0002260019 192 192 192 255 0.084406 0.870085
53.69997 0 53.7 0.6666667 -0.6666667 0.3333333 192 192 192 255 0.150522 0.8826
-53.70001 0 53.7 -0.4082483 -0.4082483 0.8164966 192 192 192 255 0.092975 0.8826
-53.70001 0 -53.7 -0.5773503 -0.5773503 -0.5773503 192 192 192 255 0.092975 0.825053
53.69997 0 -53.7 0.5773503 -0.5773503 -0.5773503 192 192 192 255 0.150522 0.825053
-53.70001 500 -53.7 -0.3333333 0.6666667 -0.6666667 192 192 192 255 0.064689 0.941684
-53.70001 500 53.7 -0.6666667 0.3333333 0.6666667 192 192 192 255 0.064689 0.884137
53.69999 500 53.7 0.4082483 0.8164966 0.4082483 192 192 192 255 0.122236 0.884137
53.69999 500 -53.7 0.8164966 0.4082483 -0.4082483 192 192 192 255 0.122236 0.941684
-0.000114 92.99995 53.7 0.0004546977 0.001364228 0.999999 192 192 192 255 0.079734 0.603898
21.06853 71.93346 53.7 0.001736936 0.0004537239 0.9999985 192 192 192 255 0.091023 0.59261
-21.06867 71.93346 53.7 -0.001550717 0.0009084625 0.9999984 192 192 192 255 0.068445 0.59261
-21.06867 19.31563 53.7 -0.3000338 7.846887e-08 0.9539286 192 192 192 255 0.068445 0.564416
21.06853 19.31563 53.7 0.3000361 7.846867e-08 0.9539279 192 192 192 255 0.091023 0.564416
-37.26859 78.64418 50 -0.0004333798 0.0004320308 0.9999998 192 192 192 255 0.129728 0.913155
0 115.909 50 0.0002166488 0.0006478722 0.9999998 192 192 192 255 0.129728 0.933122
0 115.909 50 0.0002166488 0.0006478722 0.9999998 192 192 192 255 0.116422 0.933122
37.26859 78.64418 50 0.000216731 0.0002161075 1 192 192 192 255 0.116422 0.913155
0 125 39.78805 -0.243793 0.7289298 0.639708 192 192 192 255 0.121894 0.937993
-33.35987 216.6368 -48.66108 -0.9943063 -0.0005088219 -0.1065586 192 192 192 255 0.077306 0.622606
-33.35987 216.6368 48.66108 -0.9948957 -5.487736e-05 0.100909 192 192 192 255 0.077306 0.674753
33.35985 216.6368 -48.66108 0.4844995 -0.2007005 -0.8514574 192 192 192 255 0.113056 0.622606
33.35985 216.6368 48.66108 0.7172732 -0.2971253 0.6302665 192 192 192 255 0.113056 0.674753
-33.35987 283.3632 48.66108 -0.994325 0.0002165017 0.1063852 192 192 192 255 0.11558 0.622606
-33.35987 283.3632 -48.66108 -0.9998906 9.406575e-05 -0.01479446 192 192 192 255 0.11558 0.674753
33.35985 283.3632 48.66108 0.4844995 0.2007005 0.8514574 192 192 192 255 0.15133 0.622606
33.35985 283.3632 -48.66108 0.7172732 0.2971253 -0.6302665 192 192 192 255 0.15133 0.674753
-33.35987 216.6368 48.66108 -0.9948957 -5.487736e-05 0.100909 192 192 192 255 0.138638 0.561958
0 183.2803 48.66108 -0.1889699 -0.5669671 0.8017722 192 192 192 255 0.156512 0.544085
33.35985 216.6368 48.66108 0.7172732 -0.2971253 0.6302665 192 192 192 255 0.174387 0.561958
33.35985 283.3632 48.66108 0.4844995 0.2007005 0.8514574 192 192 192 255 0.174387 0.597711
0 316.7197 48.66108 0.1889701 0.566967 0.8017722 192 192 192 255 0.156512 0.615584
-33.35987 283.3632 48.66108 -0.994325 0.0002165017 0.1063852 192 192 192 255 0.138638 0.597711
-33.35987 283.3632 -48.66108 -0.9998906 9.406575e-05 -0.01479446 192 192 192 255 0.100525 0.561958
0 316.7197 -48.66108 -0.1889699 0.5669671 -0.8017722 192 192 192 255 0.1184 0.544085
33.35985 283.3632 -48.66108 0.7172732 0.2971253 -0.6302665 192 192 192 255 0.136275 0.561958
33.35985 216.6368 -48.66108 0.4844995 -0.2007005 -0.8514574 192 192 192 255 0.136275 0.597711
0 183.2803 -48.66108 0.1889701 -0.566967 -0.8017722 192 192 192 255 0.1184 0.615584
-33.35987 216.6368 -48.66108 -0.9943063 -0.0005088219 -0.1065586 192 192 192 255 0.100525 0.597711
-33.35987 245.0197 -48.66108 -0.9866675 0.01022539 -0.1624277 192 192 192 255 0.100525 0.582503
-33.35987 272.8615 -48.66108 -0.9810315 -0.02180009 -0.1926188 192 192 192 255 0.100525 0.567585
-22.95986 220.9449 48.66108 -0.006688855 -0.00277081 0.9999738 192 192 192 255 0.14421 0.815266
0 197.9874 48.66108 0.07624518 -0.2287585 0.9704928 192 192 192 255 0.156512 0.802965
22.95986 220.9449 48.66108 0.287226 -0.07502927 0.9549198 192 192 192 255 0.168815 0.815266
22.95986 279.0551 48.66108 0.2561455 0.1500585 0.9549199 192 192 192 255 0.168815 0.846402
0 302.0126 48.66108 -0.07624516 0.2287585 0.9704928 192 192 192 255 0.156512 0.858703
-22.95986 279.0551 48.66108 -0.001623175 0.0004240062 0.9999986 192 192 192 255 0.14421 0.846402
-22.95986 249.9877 48.66108 -0.1579479 -3.287355e-08 0.9874474 192 192 192 255 0.14421 0.830827
-22.95986 279.0551 -48.66108 -0.003071543 0.001799411 -0.9999937 192 192 192 255 0.106098 0.815266
0 302.0126 -48.66108 0.0762452 0.2287586 -0.9704928 192 192 192 255 0.1184 0.802965
22.95986 279.0551 -48.66108 0.2872262 0.07502931 -0.9549198 192 192 192 255 0.130703 0.815266
22.95986 220.9449 -48.66108 0.256146 -0.1500589 -0.9549197 192 192 192 255 0.130703 0.846402
0 197.9874 -48.66108 -0.07624535 -0.2287591 -0.9704927 192 192 192 255 0.1184 0.858703
-22.95986 220.9449 -48.66108 -0.002063444 -0.000539014 -0.9999977 192 192 192 255 0.106098 0.846402
13.73074 92.83235 44.4833 0.8944272 0 0.4472136 192 192 192 255 0.078096 0.558607
13.73074 92.83235 -44.4833 0.4472136 0 -0.8944272 192 192 192 255 0.125766 0.558607
13.73074 407.1677 -44.4833 0.8944272 0 -0.4472136 192 192 192 255 0.125766 0.727035
13.73074 407.1677 44.4833 0.4472136 0 0.8944272 192 192 192 255 0.078096 0.727035
-13.73076 92.83235 -44.4833 -0.8944272 0 -0.4472136 192 192 192 255 0.128377 0.558607
-13.73076 92.83235 44.4833 -0.4472136 0 0.8944272 192 192 192 255 0.176048 0.558607
-13.73076 407.1677 44.4833 -0.8944272 0 0.4472136 192 192 192 255 0.176048 0.727035
-13.73076 407.1677 -44.4833 -0.4472136 0 -0.8944272 192 192 192 255 0.128377 0.727035
37.26859 78.64418 -50 0.0004333798 0.0004320308 -0.9999998 192 192 192 255 0.114059 0.913155
-0 115.909 -50 -0.0002166488 0.0006478722 -0.9999998 192 192 192 255 0.114059 0.933122
-0 115.909 -50 -0.0002166488 0.0006478722 -0.9999998 192 192 192 255 0.100753 0.933122
-37.26859 78.64418 -50 -0.000216731 0.0002161075 -1 192 192 192 255 0.100753 0.913155
-0 125 -39.78805 0.243793 0.7289298 -0.639708 192 192 192 255 0.106225 0.937993
0.000114 92.99995 -53.7 -0.0004546977 0.001364228 -0.999999 192 192 192 255 0.110503 0.582384
-21.06853 71.93346 -53.7 -0.001736936 0.0004537239 -0.9999985 192 192 192 255 0.099214 0.593672
21.06867 71.93346 -53.7 0.001550717 0.0009084625 -0.9999984 192 192 192 255 0.121792 0.593672
21.06867 19.31563 -53.7 0.3000338 7.846887e-08 -0.9539286 192 192 192 255 0.121792 0.621866
-21.06853 19.31563 -53.7 -0.3000361 7.846867e-08 -0.9539279 192 192 192 255 0.099214 0.621866
-37.26859 421.3558 -50 -0.0004333796 -0.0004320303 -0.9999998 192 192 192 255 0.092919 0.937993
0 384.0909 -50 0.0002166487 -0.0006478715 -0.9999998 192 192 192 255 0.092919 0.918026
0 384.0909 -50 0.0002166487 -0.0006478715 -0.9999998 192 192 192 255 0.090557 0.904074
37.26859 421.3558 -50 0.0002167309 -0.0002161073 -1 192 192 192 255 0.090557 0.924041
0 375 -39.78805 -0.2437932 -0.7289298 -0.639708 192 192 192 255 0.085085 0.899203
-0.000114 407.0001 -53.7 0.0004546979 -0.00136423 -0.999999 192 192 192 255 0.167983 0.623346
21.06853 428.0665 -53.7 0.001736937 -0.0004537245 -0.9999985 192 192 192 255 0.179272 0.612058
-21.06867 428.0665 -53.7 -0.001550719 -0.0009084638 -0.9999984 192 192 192 255 0.156694 0.612058
-21.06867 480.7056 -53.7 -0.3000338 -7.845296e-08 -0.9539286 192 192 192 255 0.156694 0.583853
21.06853 480.7056 -53.7 0.3000361 -7.845274e-08 -0.9539279 192 192 192 255 0.179272 0.583853
37.26859 421.3558 50 0.0004333796 -0.0004320303 0.9999998 192 192 192 255 0.077251 0.924041
-0 384.0909 50 -0.0002166487 -0.0006478715 0.9999998 192 192 192 255 0.077251 0.904074
-0 384.0909 50 -0.0002166487 -0.0006478715 0.9999998 192 192 192 255 0.074888 0.904074
-37.26859 421.3558 50 -0.0002167309 -0.0002161073 1 192 192 192 255 0.074888 0.924041
0 375 39.78805 0.2437932 -0.7289298 0.639708 192 192 192 255 0.069416 0.899203
0.000114 407.0001 53.7 -0.0004546979 -0.00136423 0.999999 192 192 192 255 0.198752 0.587869
-21.06853 428.0665 53.7 -0.001736937 -0.0004537245 0.9999985 192 192 192 255 0.187463 0.599157
21.06867 428.0665 53.7 0.001550719 -0.0009084638 0.9999984 192 192 192 255 0.210041 0.599157
21.06867 480.7056 53.7 0.3000338 -7.845296e-08 0.9539286 192 192 192 255 0.210041 0.627362
-21.06853 480.7056 53.7 -0.3000361 -7.845274e-08 0.9539279 192 192 192 255 0.187463 0.627362
-50 22.27974 -50 -0.5181537 0.0003242449 -0.8552875 192 192 192 255 0.066634 0.748578
-50 22.27974 50 -0.8433762 0.0001793178 0.5373236 192 192 192 255 0.120216 0.748578
-50 78.64418 50 -0.5533346 0.08019723 0.8290895 192 192 192 255 0.120216 0.778779
33.02955 179.4082 -30.63292 0.7461856 2.731529e-09 -0.6657379 192 192 192 255 0.222409 0.83277
-33.35987 259.5309 -42.60814 -0.9969788 0 -0.07767444 192 192 192 255 0.100525 0.574728
50 78.64418 50 0.8555043 0.4281865 0.2911509 192 192 192 255 0.179204 0.778779
50 22.27974 50 0.7066532 0.003365686 0.707552 192 192 192 255 0.179204 0.748578
50 22.27974 -50 0.8769165 0.0004622658 -0.4806425 192 192 192 255 0.232786 0.748578
50 27.18931 50 0.7571194 0.01721067 0.6530499 192 192 192 255 0.179204 0.751208
50 43.62837 43.3911 0.9993737 0 0.03538795 192 192 192 255 0.182746 0.760017
50 72.41619 50 0.6352655 -0.009572497 0.7722345 192 192 192 255 0.179204 0.775442
50 22.27974 -50 0.8769165 0.0004622658 -0.4806425 192 192 192 255 0.176501 0.992612
-50 22.27974 -50 -0.5181537 0.0003242449 -0.8552875 192 192 192 255 0.122919 0.992612
50 46.61757 -50 0.5071066 0.008713478 -0.8618393 192 192 192 255 0.176501 0.979571
-50 59.68882 -50 -0.6007629 0.01105694 -0.7993508 192 192 192 255 0.122919 0.972568
40.57251 78.64418 -50 0.07288187 0.1245471 -0.9895334 192 192 192 255 0.17145 0.962411
-41.46424 78.64417 -50 -0.09396152 0.376647 -0.9215792 192 192 192 255 0.127493 0.962411
42.7516 88.7149 -42.7516 0.5042721 0.6942977 -0.5134788 192 192 192 255 0.172617 0.957015
-43.98921 86.99541 -43.9892 -0.1253203 0.5892761 -0.7981532 192 192 192 255 0.12614 0.957936
3 31 8 9 
3 31 9 30 
3 13 10 12 
3 10 172 12 
3 172 175 12 
3 175 173 12 
3 173 11 12 
3 15 32 33 
3 15 33 14 
3 19 16 18 
3 16 183 18 
3 183 186 18 
3 186 184 18 
3 184 17 18 
3 20 21 26 
3 20 26 25 
3 22 23 24 
3 22 24 27 
3 206 207 208 
3 206 208 209 
3 210 211 212 
3 210 212 213 
3 28 14 33 
3 28 33 34 
3 9 29 35 
3 9 35 30 
3 214 18 17 
3 214 17 215 
3 216 12 11 
3 216 11 217 
3 11 173 218 
3 10 219 172 
3 173 174 218 
3 218 174 219 
3 174 172 219 
3 8 220 221 
3 8 221 9 
3 222 13 12 
3 222 12 223 
3 224 15 225 
3 14 226 15 
3 225 15 185 
3 15 226 185 
3 226 227 185 
3 228 229 230 
3 231 232 233 
3 234 235 236 
3 237 238 239 
3 240 241 242 
3 243 244 245 
3 246 247 248 
3 249 250 251 
3 35 29 36 
3 35 36 37 
3 216 217 252 
3 216 252 38 
3 253 39 28 
3 253 28 34 
3 214 215 254 
3 214 254 255 
3 26 21 8 
3 26 8 31 
3 213 212 10 
3 213 10 13 
3 32 15 22 
3 32 22 27 
3 209 208 16 
3 209 16 19 
3 181 182 2 
3 40 188 43 
3 188 190 43 
3 43 190 3 
3 0 3 187 
3 190 187 3 
3 53 5 4 
3 53 4 52 
3 6 195 54 
3 54 195 256 
3 195 197 256 
3 197 196 256 
3 196 257 256 
3 7 258 259 
3 7 259 55 
3 260 176 261 
3 261 176 262 
3 176 178 262 
3 178 177 262 
3 177 263 262 
3 2 182 180 
3 20 25 3 
3 20 3 0 
3 36 258 7 
3 36 7 37 
3 263 177 252 
3 252 177 38 
3 177 179 38 
3 179 176 38 
3 176 260 38 
3 253 4 5 
3 253 5 39 
3 257 196 254 
3 254 196 255 
3 196 198 255 
3 198 195 255 
3 195 6 255 
3 45 44 46 
3 45 46 47 
3 264 265 49 
3 264 49 48 
3 266 50 51 
3 266 51 267 
3 268 269 270 
3 268 270 271 
3 41 272 273 
3 41 273 274 
3 274 275 42 
3 274 42 41 
3 276 42 275 
3 276 275 277 
3 277 273 272 
3 277 272 276 
3 56 58 59 
3 56 59 57 
3 60 278 279 
3 60 279 61 
3 280 281 63 
3 280 63 62 
3 282 283 284 
3 282 284 285 
3 286 287 288 
3 286 288 289 
3 290 288 287 
3 290 287 291 
3 291 292 293 
3 291 293 290 
3 289 293 292 
3 289 292 286 
3 294 295 296 
3 294 296 297 
3 298 299 300 
3 298 300 301 
3 69 70 71 
3 69 71 72 
3 69 72 73 
3 64 65 302 
3 64 302 303 
3 65 66 304 
3 65 304 302 
3 66 67 305 
3 66 305 304 
3 68 64 303 
3 68 303 306 
3 78 75 74 
3 307 308 77 
3 307 77 76 
3 309 310 79 
3 309 79 311 
3 85 84 91 
3 85 91 90 
3 86 88 82 
3 88 191 82 
3 191 193 82 
3 193 192 82 
3 192 80 82 
3 104 106 105 
3 105 106 203 
3 106 107 203 
3 203 107 205 
3 205 107 202 
3 202 107 109 
3 107 108 109 
3 110 112 111 
3 111 112 115 
3 114 115 113 
3 112 113 115 
3 312 81 83 
3 312 83 313 
3 81 314 315 
3 81 315 83 
3 316 87 89 
3 316 89 317 
3 87 318 319 
3 87 319 89 
3 320 321 92 
3 320 92 93 
3 321 322 94 
3 321 94 92 
3 322 323 95 
3 322 95 94 
3 323 324 96 
3 323 96 95 
3 324 325 97 
3 324 97 96 
3 325 320 97 
3 97 320 204 
3 320 93 204 
3 326 327 98 
3 326 98 99 
3 327 328 100 
3 327 100 98 
3 328 329 101 
3 328 101 100 
3 329 330 102 
3 329 102 101 
3 330 331 103 
3 330 103 102 
3 331 332 103 
3 326 99 333 
3 333 99 194 
3 99 103 194 
3 332 194 103 
3 334 335 104 
3 334 104 105 
3 335 336 106 
3 335 106 104 
3 336 337 107 
3 336 107 106 
3 337 338 108 
3 337 108 107 
3 338 339 109 
3 338 109 108 
3 203 340 334 
3 203 334 105 
3 341 342 110 
3 341 110 111 
3 342 343 112 
3 342 112 110 
3 343 344 113 
3 343 113 112 
3 344 345 114 
3 344 114 113 
3 345 346 115 
3 345 115 114 
3 346 341 111 
3 346 111 115 
3 116 117 119 
3 116 119 118 
3 120 121 123 
3 120 123 122 
3 347 348 349 
3 347 349 350 
3 351 352 353 
3 351 353 354 
3 128 125 124 
3 355 356 127 
3 355 127 126 
3 357 358 129 
3 357 129 359 
3 135 136 137 
3 135 137 138 
3 135 138 139 
3 130 131 360 
3 130 360 361 
3 131 132 362 
3 131 362 360 
3 132 133 363 
3 132 363 362 
3 134 130 361 
3 134 361 364 
3 144 141 140 
3 365 366 143 
3 365 143 142 
3 367 368 145 
3 367 145 369 
3 151 152 153 
3 151 153 154 
3 151 154 155 
3 146 147 370 
3 146 370 371 
3 147 148 372 
3 147 372 370 
3 148 149 373 
3 148 373 372 
3 150 146 371 
3 150 371 374 
3 160 157 156 
3 375 376 159 
3 375 159 158 
3 377 378 161 
3 377 161 379 
3 167 168 169 
3 167 169 170 
3 167 170 171 
3 162 163 380 
3 162 380 381 
3 163 164 382 
3 163 382 380 
3 164 165 383 
3 164 383 382 
3 166 162 381 
3 166 381 384 
3 175 174 173 
3 172 174 175 
3 179 178 176 
3 177 178 179 
3 201 199 1 
3 200 201 1 
3 385 386 181 
3 181 386 182 
3 386 387 182 
3 387 211 182 
3 180 182 210 
3 182 211 210 
3 184 186 388 
3 388 186 183 
3 187 190 189 
3 189 190 188 
3 333 194 389 
3 389 194 332 
3 196 197 198 
3 198 197 195 
3 390 1 206 
3 1 199 206 
3 199 207 206 
3 391 392 393 
3 393 392 394 
3 392 200 394 
3 200 1 394 
3 390 395 1 
3 1 395 394 
3 396 397 398 
3 397 399 398 
3 398 399 400 
3 399 401 400 
3 400 401 402 
3 402 401 23 
3 401 403 23 
3 23 403 24 
3 339 340 202 
3 339 202 109 
3 202 340 205 
3 205 340 203 
