ply
format ascii 1.0
comment VCGLIB generated
comment TextureFile Dungeons_2_Texture_01_A.png
element vertex 572
property float x
property float y
property float z
property float nx
property float ny
property float nz
property uchar red
property uchar green
property uchar blue
property uchar alpha
property float texture_u
property float texture_v
element face 286
property list uchar int vertex_indices
end_header
-470.535 -477.847 -265.3 -0.817211 -0 -0.576339 255 255 255 255 0.173472 0.915241
-532.26 -537.028 -177.778 -0.817211 -0 -0.576339 255 255 255 255 0.160048 0.895388
-532.26 -477.847 -177.778 -0.817211 -0 -0.576339 255 255 255 255 0.173472 0.895388
-29.4648 -537.028 -265.3 0.817211 -0 -0.576339 255 255 255 255 0.176691 0.895388
32.2598 -477.847 -177.778 0.817211 -0 -0.576339 255 255 255 255 0.190114 0.915241
32.2598 -537.028 -177.778 0.817211 -0 -0.576339 255 255 255 255 0.176691 0.915241
-470.535 -477.847 -265.3 6e-06 0 -1 255 255 255 255 0.062304 0.878806
-293.115 -477.847 -265.299 6e-06 0 -1 255 255 255 255 0.062304 0.91905
-470.535 -537.028 -265.3 6e-06 0 -1 255 255 255 255 0.04888 0.878806
-470.535 -537.028 -265.3 0 1.7e-05 -1 255 255 255 255 0.04888 0.878806
-293.115 -477.847 -265.299 0 1.7e-05 -1 255 255 255 255 0.062304 0.91905
-29.4648 -537.028 -265.3 0 1.7e-05 -1 255 255 255 255 0.04888 0.978853
-293.115 -477.847 -265.299 -1e-05 -2.9e-05 -1 255 255 255 255 0.062304 0.91905
-148.746 -495.268 -265.3 -1e-05 -2.9e-05 -1 255 255 255 255 0.058353 0.951797
-29.4648 -537.028 -265.3 -1e-05 -2.9e-05 -1 255 255 255 255 0.04888 0.978853
-148.746 -495.268 -265.3 -0 0 -1 255 255 255 255 0.058353 0.951797
-65.8555 -477.847 -265.3 -0 0 -1 255 255 255 255 0.062304 0.970599
-29.4648 -537.028 -265.3 -0 0 -1 255 255 255 255 0.04888 0.978853
-29.4648 -477.847 -265.3 0 0 -1 255 255 255 255 0.062304 0.978853
-499.372 -463.911 -177.778 -0.376179 0.887753 -0.265301 255 255 255 255 0.203384 0.877218
-470.535 -477.847 -265.3 -0.376179 0.887753 -0.265301 255 255 255 255 0.196843 0.857365
-532.26 -477.847 -177.778 -0.376179 0.887753 -0.265301 255 255 255 255 0.210844 0.877218
-499.372 -550.964 -177.778 -0.309704 -0.917869 -0.248193 255 255 255 255 0.224407 0.857365
-470.535 -537.028 -265.3 -0.309704 -0.917869 -0.248193 255 255 255 255 0.217866 0.877218
-455.062 -550.964 -233.07 -0.309704 -0.917869 -0.248193 255 255 255 255 0.214356 0.869907
-0.62793 -550.964 -177.778 0.37618 -0.887752 -0.265301 255 255 255 255 0.122497 0.895664
-29.4648 -537.028 -265.3 0.37618 -0.887752 -0.265301 255 255 255 255 0.129039 0.915516
32.2598 -537.028 -177.778 0.37618 -0.887752 -0.265301 255 255 255 255 0.115038 0.895664
-0.62793 -463.911 -177.778 0.309703 0.917869 -0.248193 255 255 255 255 0.217281 0.898864
-29.4648 -477.847 -265.3 0.309703 0.917869 -0.248193 255 255 255 255 0.223822 0.879011
-44.9385 -463.911 -233.07 0.309703 0.917869 -0.248193 255 255 255 255 0.227332 0.886322
-29.4648 -477.847 -265.3 0 0.917869 -0.396884 255 255 255 255 0.065523 0.978853
-65.8555 -477.847 -265.3 0 0.917869 -0.396884 255 255 255 255 0.065523 0.970598
-44.9385 -463.911 -233.07 0 0.917869 -0.396884 255 255 255 255 0.072834 0.975343
-455.062 -463.911 -233.07 2e-06 0.917868 -0.396885 255 255 255 255 0.072834 0.882315
-293.115 -477.847 -265.299 2e-06 0.917868 -0.396885 255 255 255 255 0.065524 0.919049
-470.535 -477.847 -265.3 2e-06 0.917868 -0.396885 255 255 255 255 0.065523 0.878805
-455.062 -550.964 -233.07 0 -0.917868 -0.396885 255 255 255 255 0.076035 0.882315
-29.4648 -537.028 -265.3 0 -0.917868 -0.396885 255 255 255 255 0.083345 0.978853
-44.9385 -550.964 -233.07 0 -0.917868 -0.396885 255 255 255 255 0.076035 0.975343
-17.6602 -846.281 -251.042 0.664807 -0 -0.747015 255 255 255 255 0.221449 0.913673
64.6631 -1000 -177.778 0.664807 -0 -0.747015 255 255 255 255 0.204831 0.878806
-17.6602 -1000 -251.042 0.664807 -0 -0.747015 255 255 255 255 0.221449 0.878806
-482.34 -1000 -251.042 0 -1 1e-06 255 255 255 255 0.236262 0.807216
64.6631 -1000 -177.778 0 -1 1e-06 255 255 255 255 0.219644 0.931292
-564.663 -1000 -177.778 0 -1 1e-06 255 255 255 255 0.219644 0.788542
-482.34 -846.281 -251.042 -0 -0 -1 255 255 255 255 0.045995 0.878806
-304.069 -859.987 -251.042 -0 -0 -1 255 255 255 255 0.042886 0.919242
-482.34 -1000 -251.042 -0 -0 -1 255 255 255 255 0.011127 0.878806
-17.6602 -1000 -251.042 0 -0 -1 255 255 255 255 0.011127 0.984208
-17.6602 -846.281 -251.042 0 -0 -1 255 255 255 255 0.045995 0.984208
-44.9385 -372.38 -233.07 0.621701 -0.604367 -0.498226 255 255 255 255 0.127352 0.641853
-0.62793 -171.28 -421.721 0.621701 -0.604367 -0.498226 255 255 255 255 0.170143 0.651904
-0.62793 -372.38 -177.778 0.621701 -0.604367 -0.498226 255 255 255 255 0.11481 0.651904
40 -104.87 -500 1 0 0 255 255 255 255 0.15586 0.940064
40 -11.6621 -500 1 0 0 255 255 255 255 0.15586 0.961206
40 -154.87 -378.004 1 0 0 255 255 255 255 0.128188 0.928722
-564.663 -1000 -177.778 0 -1 -0 255 255 255 255 0.219644 0.788542
64.6631 -1000 0.000163 0 -1 -0 255 255 255 255 0.179318 0.931292
-564.663 -1000 0.000163 0 -1 -0 255 255 255 255 0.179318 0.788542
40 -299.09 -196.109 0.906366 0.334675 0.257865 255 255 255 255 0.086929 0.663534
22.4004 -139.328 -341.6 0.906366 0.334675 0.257865 255 255 255 255 0.11993 0.699773
22.4004 -262.69 -181.491 0.906366 0.334675 0.257865 255 255 255 255 0.083613 0.671791
40 -372.38 -177.778 1 0 0 255 255 255 255 0.082771 0.879385
40 -299.09 -196.109 1 0 0 255 255 255 255 0.086929 0.896009
40 -299.09 4.9e-05 1 0 0 255 255 255 255 0.042446 0.896009
-499.372 -372.38 -177.778 -0.621701 -0.604366 -0.498226 255 255 255 255 0.11481 0.538775
-499.372 -171.28 -421.72 -0.621701 -0.604366 -0.498226 255 255 255 255 0.170143 0.538775
-455.062 -372.38 -233.07 -0.621701 -0.604366 -0.498226 255 255 255 255 0.127352 0.548826
-455.062 -372.38 -233.07 -0.660958 -0.585712 -0.469122 255 255 255 255 0.127352 0.548826
-499.372 -171.28 -421.72 -0.660958 -0.585712 -0.469122 255 255 255 255 0.170143 0.538775
-455.062 -333.577 -281.518 -0.660958 -0.585712 -0.469122 255 255 255 255 0.138341 0.548826
-455.062 -333.577 -281.518 -0.660976 -0.585704 -0.469106 255 255 255 255 0.138341 0.548826
-499.372 -171.28 -421.72 -0.660976 -0.585704 -0.469106 255 255 255 255 0.170143 0.538775
-470.589 -257.018 -355.228 -0.660976 -0.585704 -0.469106 255 255 255 255 0.155061 0.545303
-470.589 -257.018 -355.228 -0.660978 -0.585704 -0.469105 255 255 255 255 0.155061 0.545303
-499.372 -171.28 -421.72 -0.660978 -0.585704 -0.469105 255 255 255 255 0.170143 0.538775
-455.062 -233.047 -407.035 -0.660978 -0.585704 -0.469105 255 255 255 255 0.166812 0.548826
-499.372 -171.28 -421.72 -0.660976 -0.585703 -0.469109 255 255 255 255 0.170143 0.538775
-455.062 -210.527 -435.152 -0.660976 -0.585703 -0.469109 255 255 255 255 0.17319 0.548826
-455.062 -233.047 -407.035 -0.660976 -0.585703 -0.469109 255 255 255 255 0.166812 0.548826
22.4004 -108.4 -341.6 0.900298 -2e-05 0.435274 255 255 255 255 0.11993 0.706788
40 -154.87 -378.004 0.900298 -2e-05 0.435274 255 255 255 255 0.128188 0.696248
40 -72.0001 -378 0.900298 -2e-05 0.435274 255 255 255 255 0.128187 0.715045
-0.62793 -846.281 -177.778 0 -0 -1 255 255 255 255 0.004558 0.884379
40 -372.38 -177.778 0 -0 -1 255 255 255 255 0.112053 0.893595
40 -846.281 -177.778 0 -0 -1 255 255 255 255 0.004558 0.893595
-0.62793 -846.281 -177.778 0.780339 -0 -0.625357 255 255 255 255 0.004558 0.651904
-44.9385 -846.281 -233.07 0.780339 -0 -0.625357 255 255 255 255 0.004558 0.641853
-0.62793 -372.38 -177.778 0.780339 -0 -0.625357 255 255 255 255 0.112053 0.651904
-44.9385 -783.55 -233.07 0.780339 -0 -0.625357 255 255 255 255 0.018788 0.641853
-44.9385 -783.55 -233.07 0.780684 -9.5e-05 -0.624926 255 255 255 255 0.018788 0.641853
-32.6064 -665.371 -217.683 0.780684 -9.5e-05 -0.624926 255 255 255 255 0.045594 0.644651
-0.62793 -372.38 -177.778 0.780684 -9.5e-05 -0.624926 255 255 255 255 0.112053 0.651904
-32.6064 -665.371 -217.683 0.780334 2e-06 -0.625363 255 255 255 255 0.045594 0.644651
-44.9385 -584.727 -233.07 0.780334 2e-06 -0.625363 255 255 255 255 0.063886 0.641853
-0.62793 -372.38 -177.778 0.780334 2e-06 -0.625363 255 255 255 255 0.112053 0.651904
-44.9385 -584.727 -233.07 0.780339 -0 -0.625357 255 255 255 255 0.063886 0.641853
-44.9385 -372.38 -233.07 0.780339 -0 -0.625357 255 255 255 255 0.112053 0.641853
-564.663 -1000 -177.778 -0.664807 -0 -0.747015 255 255 255 255 0.126512 0.878736
-482.34 -846.281 -251.042 -0.664807 -0 -0.747015 255 255 255 255 0.109894 0.913604
-482.34 -1000 -251.042 -0.664807 -0 -0.747015 255 255 255 255 0.109894 0.878736
-455.062 -372.38 -233.07 -0 -0 -1 255 255 255 255 0.112053 0.548826
-44.9385 -372.38 -233.07 -0 -0 -1 255 255 255 255 0.112053 0.641853
-455.062 -846.281 -233.07 -0 -0 -1 255 255 255 255 0.004558 0.548826
-44.9385 -584.727 -233.07 -0 -0 -1 255 255 255 255 0.063886 0.641853
-309.367 -851.32 -233.07 -0 -0 -1 255 255 255 255 0.003415 0.581873
-74.2842 -658.539 -233.07 0 -0 -1 255 255 255 255 0.047144 0.635197
-44.9385 -783.55 -233.07 -0 -0 -1 255 255 255 255 0.018788 0.641853
-44.9385 -846.281 -233.07 0 -0 -1 255 255 255 255 0.004558 0.641853
40 -670.013 0.000109 1 0 -0 255 255 255 255 0.042446 0.811873
40 -846.281 -177.778 1 0 -0 255 255 255 255 0.082771 0.77189
-522.4 -139.328 -341.6 -0.906366 0.334675 0.257865 255 255 255 255 0.098747 0.716425
-540 -299.09 -196.109 -0.906366 0.334675 0.257865 255 255 255 255 0.131749 0.680187
-522.4 -262.69 -181.491 -0.906366 0.334675 0.257865 255 255 255 255 0.135065 0.688443
22.4004 -108.4 1.8e-05 1 -0 0 255 255 255 255 0.042446 0.706788
22.4004 -262.69 4.3e-05 1 -0 0 255 255 255 255 0.042446 0.671791
22.4004 -262.69 -181.491 1 -0 0 255 255 255 255 0.083613 0.671791
-540 -299.09 4.9e-05 -1 0 0 255 255 255 255 0.176232 0.912661
-540 -299.09 -51.1513 -1 0 0 255 255 255 255 0.16463 0.912661
-540 -372.38 -177.778 -1 0 0 255 255 255 255 0.135907 0.896037
-540 -314.509 -117.302 -1 0 0 255 255 255 255 0.149625 0.909164
-540 -299.09 -171.149 -1 0 0 255 255 255 255 0.137411 0.912661
-540 -299.09 -196.109 -1 -0 0 255 255 255 255 0.131749 0.912661
-540 -154.87 -378.004 -0.900298 -2e-05 0.435274 255 255 255 255 0.09049 0.7129
-522.4 -108.4 -341.6 -0.900298 -2e-05 0.435274 255 255 255 255 0.098747 0.723441
-540 -72.0001 -378 -0.900298 -2e-05 0.435274 255 255 255 255 0.090491 0.731697
-499.372 -846.281 -177.778 -0.780339 -0 -0.625357 255 255 255 255 0.004558 0.538775
-455.062 -372.38 -233.07 -0.780339 -0 -0.625357 255 255 255 255 0.112053 0.548826
-455.062 -846.281 -233.07 -0.780339 -0 -0.625357 255 255 255 255 0.004558 0.548826
-0.62793 -372.38 -177.778 0 -0.77161 -0.636096 255 255 255 255 0.11481 0.884379
40 -171.28 -421.721 0 -0.77161 -0.636096 255 255 255 255 0.170143 0.893595
40 -372.38 -177.778 0 -0.77161 -0.636096 255 255 255 255 0.11481 0.893595
40 -171.28 -421.721 1 0 0 255 255 255 255 0.138104 0.925
-540 -846.281 -177.778 0 -0 -1 255 255 255 255 0.004558 0.762034
-499.372 -372.38 -177.778 0 -0 -1 255 255 255 255 0.112053 0.771249
-499.372 -846.281 -177.778 0 -0 -1 255 255 255 255 0.004558 0.771249
-455.062 -210.527 -435.152 -0 -0.780513 -0.625139 255 255 255 255 0.17319 0.548826
-44.9385 -210.527 -435.152 -0 -0.780513 -0.625139 255 255 255 255 0.17319 0.641853
-455.062 -233.047 -407.035 -0 -0.780513 -0.625139 255 255 255 255 0.166812 0.548826
-425.276 -281.639 -346.366 -0 -0.780513 -0.625139 255 255 255 255 0.153051 0.555582
-44.9385 -210.527 -435.152 1e-06 -0.780514 -0.625138 255 255 255 255 0.17319 0.641853
-44.9385 -372.38 -233.07 1e-06 -0.780514 -0.625138 255 255 255 255 0.127352 0.641853
-425.276 -281.639 -346.366 1e-06 -0.780514 -0.625138 255 255 255 255 0.153051 0.555582
-455.062 -372.38 -233.07 0 -0.78051 -0.625143 255 255 255 255 0.127352 0.548826
-455.062 -333.577 -281.518 0 -0.78051 -0.625143 255 255 255 255 0.138341 0.548826
-44.9385 -372.38 -233.07 0 -0.78051 -0.625143 255 255 255 255 0.127352 0.641853
-44.9385 -372.38 -233.07 -2e-06 -0.780519 -0.625133 255 255 255 255 0.127352 0.641853
-455.062 -333.577 -281.518 -2e-06 -0.780519 -0.625133 255 255 255 255 0.138341 0.548826
-425.276 -281.639 -346.366 -2e-06 -0.780519 -0.625133 255 255 255 255 0.153051 0.555582
-522.4 -108.4 1.8e-05 -1 0 -0 255 255 255 255 0.176232 0.723441
-522.4 -262.69 -181.491 -1 0 -0 255 255 255 255 0.135065 0.688443
-522.4 -262.69 4.3e-05 -1 0 -0 255 255 255 255 0.176232 0.688443
22.4004 -108.4 1.8e-05 0 0 1 255 255 255 255 0.053304 0.961606
-490.35 -22.793 4e-06 0 0 1 255 255 255 255 0.166303 0.98137
-522.4 -108.4 1.8e-05 0 0 1 255 255 255 255 0.173366 0.961606
-540 -846.281 -177.778 -1 0 -0 255 255 255 255 0.135907 0.788542
-540 -670.013 0.000109 -1 0 -0 255 255 255 255 0.176232 0.828525
22.4004 -262.69 -181.491 0.900288 0.435294 -0 255 255 255 255 0.083613 0.671791
40 -299.09 4.9e-05 0.900288 0.435294 -0 255 255 255 255 0.042446 0.663534
40 -299.09 -196.109 0.900288 0.435294 -0 255 255 255 255 0.086929 0.663534
-540 -372.38 -177.778 0 -0.771608 -0.636098 255 255 255 255 0.11481 0.762034
-499.372 -171.28 -421.72 0 -0.771608 -0.636098 255 255 255 255 0.170143 0.771249
-499.372 -372.38 -177.778 0 -0.771608 -0.636098 255 255 255 255 0.11481 0.771249
22.4004 -108.4 -341.6 1 0 0 255 255 255 255 0.11993 0.706788
-540 -171.28 -421.721 -1 -0 -0 255 255 255 255 0.080574 0.941652
-540 -154.87 -378.004 -1 -0 -0 255 255 255 255 0.09049 0.945375
-540 -670.013 0.000109 -0 0 1 255 255 255 255 0.177245 0.831948
40 -299.09 4.9e-05 -0 0 1 255 255 255 255 0.049426 0.917582
-540 -299.09 4.9e-05 -0 0 1 255 255 255 255 0.177245 0.917582
40 -72.0001 -378 0.900288 -0.435294 0 255 255 255 255 0.128187 0.715045
40 -72.0001 -355.886 0.900288 -0.435294 0 255 255 255 255 0.123171 0.715045
22.4004 -108.4 -341.6 0.900288 -0.435294 0 255 255 255 255 0.11993 0.706788
40 -72.0001 -355.886 0.900289 -0.435294 2e-06 255 255 255 255 0.123171 0.715045
32.4902 -87.5316 -276.81 0.900289 -0.435294 2e-06 255 255 255 255 0.105234 0.711522
22.4004 -108.4 -341.6 0.900289 -0.435294 2e-06 255 255 255 255 0.11993 0.706788
22.4004 -108.4 -341.6 0.900291 -0.435289 0 255 255 255 255 0.11993 0.706788
32.4902 -87.5316 -276.81 0.900291 -0.435289 0 255 255 255 255 0.105234 0.711522
22.4004 -108.4 1.8e-05 0.900291 -0.435289 0 255 255 255 255 0.042446 0.706788
32.4902 -87.5316 -276.81 0.900286 -0.435298 -1e-06 255 255 255 255 0.105234 0.711522
40 -72 -200.719 0.900286 -0.435298 -1e-06 255 255 255 255 0.087975 0.715045
22.4004 -108.4 1.8e-05 0.900286 -0.435298 -1e-06 255 255 255 255 0.042446 0.706788
22.4004 -108.4 1.8e-05 0.900288 -0.435294 0 255 255 255 255 0.042446 0.706788
40 -72 -200.719 0.900288 -0.435294 0 255 255 255 255 0.087975 0.715045
40 -72 1.2e-05 0.900288 -0.435294 0 255 255 255 255 0.042446 0.715045
-522.4 -262.69 4.3e-05 0 0 1 255 255 255 255 0.173366 0.925986
22.4004 -262.69 4.3e-05 0 0 1 255 255 255 255 0.053304 0.925986
40 -72 1.2e-05 1 0 -0 255 255 255 255 0.042446 0.94752
40 -72 -200.719 1 0 -0 255 255 255 255 0.087975 0.94752
40 -11.662 2e-06 1 0 -0 255 255 255 255 0.042446 0.961206
40 -53.5944 -294.942 1 0 0 255 255 255 255 0.109347 0.951695
40 -72.0001 -378 1 -0 0 255 255 255 255 0.128187 0.94752
40 -72.0001 -355.886 1 0 0 255 255 255 255 0.123171 0.94752
-540 -299.09 -196.109 -0.900288 0.435294 0 255 255 255 255 0.131749 0.680187
-540 -299.09 -171.149 -0.900288 0.435294 0 255 255 255 255 0.137411 0.680187
-522.4 -262.69 -181.491 -0.900288 0.435294 0 255 255 255 255 0.135065 0.688443
-540 -299.09 -171.149 -0.900288 0.435295 1e-06 255 255 255 255 0.137411 0.680187
-531.146 -280.777 -97.7168 -0.900288 0.435295 1e-06 255 255 255 255 0.154067 0.68434
-522.4 -262.69 -181.491 -0.900288 0.435295 1e-06 255 255 255 255 0.135065 0.688443
-522.4 -262.69 -181.491 -0.90029 0.43529 -0 255 255 255 255 0.135065 0.688443
-531.146 -280.777 -97.7168 -0.90029 0.43529 -0 255 255 255 255 0.154067 0.68434
-522.4 -262.69 4.3e-05 -0.90029 0.43529 -0 255 255 255 255 0.176232 0.688443
-531.146 -280.777 -97.7168 -0.900288 0.435296 -1e-06 255 255 255 255 0.154067 0.68434
-540 -299.09 -51.1513 -0.900288 0.435296 -1e-06 255 255 255 255 0.16463 0.680187
-522.4 -262.69 4.3e-05 -0.900288 0.435296 -1e-06 255 255 255 255 0.176232 0.688443
-540 -299.09 -51.1513 -0.900288 0.435294 0 255 255 255 255 0.16463 0.680187
-540 -299.09 4.9e-05 -0.900288 0.435294 0 255 255 255 255 0.176232 0.680187
-522.4 -262.69 4.3e-05 -0.900288 0.435294 0 255 255 255 255 0.176232 0.688443
1.12305 0 0 0 1 -0 255 255 255 255 0.078568 0.928432
28.3379 -8.1e-05 -500 0 1 -0 255 255 255 255 0.072395 0.815018
1.12305 -8.1e-05 -500 0 1 -0 255 255 255 255 0.078568 0.815018
1.12305 0 0 -0.904095 0.427333 -0 255 255 255 255 0.069638 0.815018
-9.65039 -22.7931 -500 -0.904095 0.427333 -0 255 255 255 255 0.064468 0.928433
-9.65039 -22.793 4e-06 -0.904095 0.427333 -0 255 255 255 255 0.064468 0.815018
-522.4 -108.4 -341.6 -1 0 -0 255 255 255 255 0.098747 0.723441
-9.65039 -22.793 4e-06 0 1 -0 255 255 255 255 0.0594 0.877012
-490.35 -22.7931 -500 0 1 -0 255 255 255 255 0.168436 0.763597
-490.35 -22.793 4e-06 0 1 -0 255 255 255 255 0.168436 0.877012
-490.35 -22.7931 -500 0.904095 0.427333 -0 255 255 255 255 0.051472 0.763597
-501.123 0 0 0.904095 0.427333 -0 255 255 255 255 0.056642 0.877012
-490.35 -22.793 4e-06 0.904095 0.427333 -0 255 255 255 255 0.051472 0.877012
-540 -72 1.2e-05 -0.900288 -0.435294 0 255 255 255 255 0.176232 0.731697
-522.4 -108.4 -341.6 -0.900288 -0.435294 0 255 255 255 255 0.098747 0.723441
-522.4 -108.4 1.8e-05 -0.900288 -0.435294 0 255 255 255 255 0.176232 0.723441
40 -72 1.2e-05 -0 0 1 255 255 255 255 0.049426 0.97001
-9.65039 -22.793 4e-06 -0 0 1 255 255 255 255 0.060368 0.98137
-528.338 -8.1e-05 -500 0 1 -0 255 255 255 255 0.04607 0.763597
-528.338 -6.9e-05 -425.098 0 1 -0 255 255 255 255 0.04607 0.780587
-501.123 -8.1e-05 -500 0 1 -0 255 255 255 255 0.039897 0.763597
-528.338 0 0 0 1 -0 255 255 255 255 0.04607 0.877012
-501.123 0 0 0 1 -0 255 255 255 255 0.039897 0.877012
-528.338 -3.5e-05 -214.805 0 1 -0 255 255 255 255 0.04607 0.828288
-512.655 -4.5e-05 -273.389 0 1 -0 255 255 255 255 0.042513 0.814999
-540 -11.6621 -500 -1 0 -0 255 255 255 255 0.062818 0.977858
-540 -72.0001 -378 -1 0 -0 255 255 255 255 0.090491 0.964172
-540 -11.6621 -284.997 -1 0 -0 255 255 255 255 0.111587 0.977858
-540 -72 1.2e-05 -1 -0 0 255 255 255 255 0.176232 0.964172
-540 -11.662 2e-06 -1 0 0 255 255 255 255 0.176232 0.977858
-540 -72 1.2e-05 0 0 1 255 255 255 255 0.177245 0.97001
-482.34 -846.281 -251.042 0 1 -1e-06 255 255 255 255 0.083931 0.817784
-564.663 -846.281 -177.778 0 1 -1e-06 255 255 255 255 0.100549 0.799111
-540 -846.281 -177.778 0 1 -1e-06 255 255 255 255 0.100549 0.804705
-17.6602 -846.281 -251.042 0 1 -1e-06 255 255 255 255 0.083931 0.923187
-0.62793 -846.281 -177.778 0 1 -1e-06 255 255 255 255 0.100549 0.92705
40 -846.281 -177.778 0 1 -1e-06 255 255 255 255 0.100549 0.936266
-482.34 -846.281 -251.042 0 1 -1e-06 255 255 255 255 0.083931 0.58531
-499.372 -846.281 -177.778 0 1 -1e-06 255 255 255 255 0.100549 0.581446
-455.062 -846.281 -233.07 0 1 -1e-06 255 255 255 255 0.088007 0.591497
-499.372 -846.281 -177.778 0 1 -1e-06 255 255 255 255 0.100549 0.813921
64.6631 -846.281 -177.778 0 1 -1e-06 255 255 255 255 0.100549 0.94186
-455.062 -846.281 -233.07 0.076141 0.990377 -0.115571 255 255 255 255 0.088007 0.591497
-304.069 -859.987 -251.042 0.076141 0.990377 -0.115571 255 255 255 255 0.083931 0.625746
-482.34 -846.281 -251.042 0.076141 0.990377 -0.115571 255 255 255 255 0.083931 0.58531
-17.6602 -846.281 -251.042 -0 1 -1e-06 255 255 255 255 0.083931 0.690712
-44.9385 -846.281 -233.07 -0 1 -1e-06 255 255 255 255 0.088007 0.684525
-0.62793 -846.281 -177.778 -0 1 -1e-06 255 255 255 255 0.100549 0.694576
-564.663 -670.013 0.000109 0 0.710116 -0.704085 255 255 255 255 0.140874 0.799111
-540 -846.281 -177.778 0 0.710116 -0.704085 255 255 255 255 0.100549 0.804705
-564.663 -846.281 -177.778 0 0.710116 -0.704085 255 255 255 255 0.100549 0.799111
64.6631 -846.281 -177.778 0 0.710116 -0.704085 255 255 255 255 0.100549 0.94186
40 -670.013 0.000109 0 0.710116 -0.704085 255 255 255 255 0.140874 0.936266
64.6631 -670.013 0.000109 0 0.710116 -0.704085 255 255 255 255 0.140874 0.94186
-0.62793 -171.28 -421.721 -0 -1 -0 255 255 255 255 0.170143 0.884379
40 -171.28 -450 -0 -1 -0 255 255 255 255 0.176558 0.893595
40 -171.28 -421.721 -0 -1 -0 255 255 255 255 0.170143 0.893595
-0.62793 -171.28 -421.721 0.663036 -0.748587 0 255 255 255 255 0.170143 0.651904
-44.9385 -210.527 -435.152 0.663036 -0.748587 0 255 255 255 255 0.17319 0.641853
-0.62793 -171.28 -450 0.663036 -0.748587 0 255 255 255 255 0.176558 0.651904
-499.372 -171.28 -421.72 -0.663036 -0.748587 0 255 255 255 255 0.170143 0.538775
-499.372 -171.28 -450 -0.663036 -0.748587 0 255 255 255 255 0.176558 0.538775
-455.062 -210.527 -435.152 -0.663036 -0.748587 0 255 255 255 255 0.17319 0.548826
-540 -171.28 -421.721 -0 -1 -0 255 255 255 255 0.170143 0.762034
-499.372 -171.28 -450 -0 -1 -0 255 255 255 255 0.176558 0.771249
-499.372 -171.28 -421.72 -0 -1 -0 255 255 255 255 0.170143 0.771249
-540 -104.87 -500 -1 0 0 255 255 255 255 0.062818 0.956716
-540 -171.28 -450 -1 0 0 255 255 255 255 0.074159 0.941652
-540 -104.87 -500 -0 -0 -1 255 255 255 255 0.081325 0.815018
-501.123 -8.1e-05 -500 -0 -0 -1 255 255 255 255 0.105113 0.823837
-490.35 -22.7931 -500 -0 -0 -1 255 255 255 255 0.099943 0.82628
-44.9385 -210.527 -435.152 -0 -0.353842 -0.935305 255 255 255 255 0.028237 0.634201
-499.372 -171.28 -450 -0 -0.353842 -0.935305 255 255 255 255 0.037139 0.531122
-0.62793 -171.28 -450 -0 -0.353842 -0.935305 255 255 255 255 0.037139 0.644252
-540 -104.87 -500 0 -0.601478 -0.798889 255 255 255 255 0.187899 0.762034
-499.372 -171.28 -450 0 -0.601478 -0.798889 255 255 255 255 0.176558 0.771249
-540 -171.28 -450 0 -0.601478 -0.798889 255 255 255 255 0.176558 0.762034
40 -104.87 -500 0 -0.601478 -0.798889 255 255 255 255 0.187899 0.893595
-0.62793 -171.28 -450 0 -0.601478 -0.798889 255 255 255 255 0.176558 0.884379
1.12305 -8.1e-05 -500 0 -0 -1 255 255 255 255 0.105113 0.937761
40 -104.87 -500 0 -0 -1 255 255 255 255 0.081325 0.946579
-9.65039 -22.7931 -500 0 -0 -1 255 255 255 255 0.099943 0.935317
40 -171.28 -450 0 -0.601478 -0.798889 255 255 255 255 0.176558 0.893595
40 -11.6621 -500 -0 -0 -1 255 255 255 255 0.102468 0.946579
-540 -11.6621 -500 0 -0 -1 255 255 255 255 0.102468 0.815018
53.9922 -449.358 -57.874 1 -0 0 255 255 255 255 0.137339 0.947121
53.9922 -670.013 0.000109 1 -0 0 255 255 255 255 0.124212 0.89707
53.9922 -750.534 -57.8739 1 -0 0 255 255 255 255 0.137339 0.878806
40 -449.358 -75.4198 0.68077 0.491755 -0.542889 255 255 255 255 0.141319 0.947121
53.9922 -385.466 6.3e-05 0.68077 0.491755 -0.542889 255 255 255 255 0.124212 0.961613
53.9922 -449.358 -57.874 0.68077 0.491755 -0.542889 255 255 255 255 0.137339 0.947121
40 -750.534 -75.4198 0.781836 -0 -0.623484 255 255 255 255 0.141319 0.878806
53.9922 -449.358 -57.874 0.781836 -0 -0.623484 255 255 255 255 0.137339 0.947121
53.9922 -750.534 -57.8739 0.781836 -0 -0.623484 255 255 255 255 0.137339 0.878806
53.9922 -385.466 6.3e-05 0 0 1 255 255 255 255 0.046342 0.897641
40 -670.013 0.000109 0 0 1 255 255 255 255 0.049426 0.831948
53.9922 -670.013 0.000109 0 0 1 255 255 255 255 0.046342 0.831948
-553.992 -750.534 -57.8739 -1 -0 0 255 255 255 255 0.148338 0.878806
-553.992 -670.013 0.000109 -1 -0 0 255 255 255 255 0.161466 0.89707
-553.992 -641.758 -57.8739 -1 -0 0 255 255 255 255 0.148338 0.903479
-553.992 -385.466 6.3e-05 -1 0 0 255 255 255 255 0.161466 0.961613
-553.992 -449.358 -57.874 -1 0 0 255 255 255 255 0.148338 0.947121
-553.992 -489.168 -57.873 -1 0 0 255 255 255 255 0.148339 0.938091
-553.992 -554.424 -37.4442 -1 0 0 255 255 255 255 0.152973 0.923289
-540 -449.358 -75.4198 -0.680164 0.492253 -0.543198 255 255 255 255 0.144358 0.947121
-553.992 -385.466 6.3e-05 -0.680164 0.492253 -0.543198 255 255 255 255 0.161466 0.961613
-540 -366.132 6e-05 -0.680164 0.492253 -0.543198 255 255 255 255 0.161466 0.965999
-553.992 -750.534 -57.8739 -0.781836 -0 -0.623484 255 255 255 255 0.148338 0.878806
-553.992 -641.758 -57.8739 -0.781836 -0 -0.623484 255 255 255 255 0.148338 0.903479
-540 -750.534 -75.4198 -0.781836 -0 -0.623484 255 255 255 255 0.144358 0.878806
-553.992 -449.358 -57.874 -0.781836 -1.5e-05 -0.623484 255 255 255 255 0.148338 0.947121
-540 -449.358 -75.4198 -0.781836 -1.5e-05 -0.623484 255 255 255 255 0.144358 0.947121
-553.992 -489.168 -57.873 -0.781836 -1.5e-05 -0.623484 255 255 255 255 0.148339 0.938091
-553.992 -489.168 -57.873 -0.781854 2e-06 -0.623461 255 255 255 255 0.148339 0.938091
-540 -449.358 -75.4198 -0.781854 2e-06 -0.623461 255 255 255 255 0.144358 0.947121
-544.764 -555.207 -69.4462 -0.781854 2e-06 -0.623461 255 255 255 255 0.145713 0.923111
-540 -449.358 -75.4198 -0.781841 -0 -0.623479 255 255 255 255 0.144358 0.947121
-540 -750.534 -75.4198 -0.781841 -0 -0.623479 255 255 255 255 0.144358 0.878806
-544.764 -555.207 -69.4462 -0.781841 -0 -0.623479 255 255 255 255 0.145713 0.923111
-553.992 -641.758 -57.8739 -0.781835 0 -0.623486 255 255 255 255 0.148338 0.903479
-544.764 -555.207 -69.4462 -0.781835 0 -0.623486 255 255 255 255 0.145713 0.923111
-540 -750.534 -75.4198 -0.781835 0 -0.623486 255 255 255 255 0.144358 0.878806
-553.992 -385.466 6.3e-05 -0 0 1 255 255 255 255 0.180328 0.897641
-540 -366.132 6e-05 -0 0 1 255 255 255 255 0.177245 0.902104
40 -11.662 2e-06 0 0 1 255 255 255 255 0.049426 0.98394
1.12305 0 0 0 0 1 255 255 255 255 0.057993 0.986633
-540 -11.662 2e-06 -0 0 1 255 255 255 255 0.177245 0.98394
-501.123 0 0 -0 0 1 255 255 255 255 0.168677 0.986633
-528.338 0 0 -0 0 1 255 255 255 255 0.174675 0.986633
28.3379 -8.1e-05 -500 0.707105 0.707109 -0 255 255 255 255 0.15586 0.963851
40 -11.662 2e-06 0.707105 0.707109 -0 255 255 255 255 0.042446 0.961206
40 -11.6621 -500 0.707105 0.707109 -0 255 255 255 255 0.15586 0.961206
-528.338 -3.5e-05 -214.805 -0.707105 0.707109 -0 255 255 255 255 0.127508 0.980504
-540 -11.662 2e-06 -0.707105 0.707109 -0 255 255 255 255 0.176232 0.977858
-528.338 0 0 -0.707105 0.707109 -0 255 255 255 255 0.176232 0.980504
-65.8555 -477.847 -265.3 0 0.917869 -0.396884 255 255 255 255 0.103189 0.970598
-155.055 -467.281 -240.863 0 0.917869 -0.396884 255 255 255 255 0.108732 0.950365
-44.9385 -463.911 -233.07 0 0.917869 -0.396884 255 255 255 255 0.1105 0.975343
-44.9385 -463.911 -233.07 0 0.91787 -0.396881 255 255 255 255 0.1105 0.975343
-155.055 -467.281 -240.863 0 0.91787 -0.396881 255 255 255 255 0.108732 0.950365
-455.062 -463.911 -233.07 0 0.91787 -0.396881 255 255 255 255 0.1105 0.882315
-455.062 -463.911 -233.07 -0 0.917863 -0.396896 255 255 255 255 0.1105 0.882315
-155.055 -467.281 -240.863 -0 0.917863 -0.396896 255 255 255 255 0.108732 0.950365
-293.115 -477.847 -265.299 -0 0.917863 -0.396896 255 255 255 255 0.103189 0.919049
48.8682 -892.314 -138.118 1 -0 0 255 255 255 255 0.195835 0.659205
48.8682 -956.45 0.000156 1 -0 0 255 255 255 255 0.164505 0.644658
48.8682 -956.45 -138.118 1 -0 0 255 255 255 255 0.195835 0.644658
64.6631 -880.914 -155.44 1 0 -0 255 255 255 255 0.199764 0.905818
64.6631 -1000 -177.778 1 0 -0 255 255 255 255 0.204831 0.878806
64.6631 -846.281 -177.778 1 0 -0 255 255 255 255 0.204831 0.913673
64.6631 -975.005 -155.44 1 -0 0 255 255 255 255 0.199764 0.884475
64.6631 -1000 0.000163 1 -0 0 255 255 255 255 0.164505 0.878806
64.6631 -727.942 0.000119 1 0 -0 255 255 255 255 0.164505 0.940516
64.6631 -670.013 0.000109 1 0 -0 255 255 255 255 0.164505 0.953656
64.6631 -880.914 -155.44 0.738933 0 0.673779 255 255 255 255 0.199764 0.661791
48.8682 -956.45 -138.118 0.738933 0 0.673779 255 255 255 255 0.195835 0.644658
64.6631 -975.005 -155.44 0.738933 0 0.673779 255 255 255 255 0.199764 0.640449
48.8682 -956.45 -138.118 0.761472 0.648198 -0 255 255 255 255 0.195835 0.644658
64.6631 -975.005 0.000159 0.761472 0.648198 -0 255 255 255 255 0.164505 0.640449
64.6631 -975.005 -155.44 0.761472 0.648198 -0 255 255 255 255 0.199764 0.640449
48.8682 -762.211 0.000124 0.839718 -0.387037 0.38089 255 255 255 255 0.164505 0.688717
64.6631 -880.914 -155.44 0.839718 -0.387037 0.38089 255 255 255 255 0.199764 0.661791
64.6631 -727.942 0.000119 0.839718 -0.387037 0.38089 255 255 255 255 0.164505 0.69649
64.6631 -727.942 0.000119 0 0 1 255 255 255 255 0.043991 0.818573
48.8682 -762.211 0.000124 0 0 1 255 255 255 255 0.047472 0.810662
22.4004 -108.4 -192.82 0.909173 -0.246969 -0.335276 255 255 255 255 0.104487 0.662914
40 -155.617 -110.314 0.909173 -0.246969 -0.335276 255 255 255 255 0.093777 0.681629
22.4004 -187.84 -134.304 0.909173 -0.246969 -0.335276 255 255 255 255 0.086468 0.676187
22.4004 -187.84 3.1e-05 0.877627 -0.479344 0 255 255 255 255 0.086468 0.706651
40 -155.617 -110.314 0.877627 -0.479344 0 255 255 255 255 0.093777 0.681629
40 -155.617 2.5e-05 0.877627 -0.479344 0 255 255 255 255 0.093777 0.706651
40 -155.617 -110.314 1 0 0 255 255 255 255 0.093777 0.914103
40 -72 1.2e-05 1 0 0 255 255 255 255 0.112744 0.939126
40 -155.617 2.5e-05 1 0 0 255 255 255 255 0.093777 0.939126
-548.868 -892.314 -138.118 -1 -0 -0 255 255 255 255 0.135508 0.659136
-548.868 -956.45 0.000156 -1 -0 -0 255 255 255 255 0.166837 0.644589
-548.868 -762.211 0.000124 -1 -0 -0 255 255 255 255 0.166837 0.688648
-564.663 -1000 -177.778 -1 -0 0 255 255 255 255 0.126512 0.878736
-564.663 -880.914 -155.44 -1 -0 0 255 255 255 255 0.131579 0.905749
-564.663 -846.281 -177.778 -1 -0 0 255 255 255 255 0.126512 0.913604
-564.663 -1000 0.000163 -1 0 0 255 255 255 255 0.166837 0.878736
-564.663 -975.005 -155.44 -1 0 0 255 255 255 255 0.131579 0.884406
-564.663 -727.942 0.000119 -1 -0 0 255 255 255 255 0.166837 0.940447
-564.663 -670.013 0.000109 -1 -0 0 255 255 255 255 0.166837 0.953587
-564.663 -880.914 -155.44 -0.738933 0 0.673779 255 255 255 255 0.131579 0.661722
-548.868 -956.45 -138.118 -0.738933 0 0.673779 255 255 255 255 0.135508 0.644589
-548.868 -892.314 -138.118 -0.738933 0 0.673779 255 255 255 255 0.135508 0.659136
-564.663 -975.005 0.000159 -0.761472 0.648198 0 255 255 255 255 0.166837 0.64038
-548.868 -956.45 -138.118 -0.761472 0.648198 0 255 255 255 255 0.135508 0.644589
-564.663 -975.005 -155.44 -0.761472 0.648198 0 255 255 255 255 0.131579 0.64038
-564.663 -880.914 -155.44 -0.839717 -0.387037 0.38089 255 255 255 255 0.131579 0.661722
-548.868 -762.211 0.000124 -0.839717 -0.387037 0.38089 255 255 255 255 0.166837 0.688648
-564.663 -727.942 0.000119 -0.839717 -0.387037 0.38089 255 255 255 255 0.166837 0.696421
-564.663 -1000 0.000163 0 0 1 255 255 255 255 0.18268 0.755764
64.6631 -1000 0.000163 0 0 1 255 255 255 255 0.043991 0.755764
-564.663 -975.005 0.000159 0 0 1 255 255 255 255 0.18268 0.761534
-548.868 -956.45 0.000156 0 0 1 255 255 255 255 0.179199 0.765818
64.6631 -975.005 0.000159 -0 0 1 255 255 255 255 0.043991 0.761534
48.8682 -956.45 0.000156 -0 0 1 255 255 255 255 0.047472 0.765818
-548.868 -762.211 0.000124 0 0 1 255 255 255 255 0.179199 0.810662
-564.663 -727.942 0.000119 -0 0 1 255 255 255 255 0.18268 0.818573
-564.663 -670.013 0.000109 -0 0 1 255 255 255 255 0.18268 0.831948
-540 -155.617 -110.314 -0.909173 -0.246969 -0.335276 255 255 255 255 0.123559 0.687936
-522.4 -108.4 -192.82 -0.909173 -0.246969 -0.335276 255 255 255 255 0.134269 0.706651
-522.4 -187.84 -134.304 -0.909173 -0.246969 -0.335276 255 255 255 255 0.11625 0.693378
-522.4 -187.84 3.1e-05 -0.877627 -0.479344 0 255 255 255 255 0.11625 0.662914
-540 -155.617 -110.314 -0.877627 -0.479344 0 255 255 255 255 0.123559 0.687936
-522.4 -187.84 -134.304 -0.877627 -0.479344 0 255 255 255 255 0.11625 0.693378
-540 -155.617 -110.314 -1 -0 0 255 255 255 255 0.123559 0.920411
-540 -72 1.2e-05 -1 -0 0 255 255 255 255 0.142526 0.895388
-540 -72 -169.72 -1 -0 0 255 255 255 255 0.142526 0.933886
40 -155.617 2.5e-05 0 0 1 255 255 255 255 0.049426 0.950705
22.4004 -187.84 3.1e-05 0 0 1 255 255 255 255 0.053304 0.943266
-540 -155.617 2.5e-05 -0 0 1 255 255 255 255 0.177245 0.950705
-553.992 -489.168 -57.873 -0.957859 -0.085815 -0.27412 255 255 255 255 0.148339 0.938091
-544.764 -555.207 -69.4462 -0.957859 -0.085815 -0.27412 255 255 255 255 0.145713 0.923111
-553.992 -554.424 -37.4442 -0.957859 -0.085815 -0.27412 255 255 255 255 0.152973 0.923289
-553.992 -554.424 -37.4442 -0.958388 0.065024 -0.277966 255 255 255 255 0.152973 0.923289
-544.764 -555.207 -69.4462 -0.958388 0.065024 -0.277966 255 255 255 255 0.145713 0.923111
-553.992 -641.758 -57.8739 -0.958388 0.065024 -0.277966 255 255 255 255 0.148338 0.903479
-148.746 -495.268 -265.3 -0.13337 0.634611 -0.761237 255 255 255 255 0.103189 0.951796
-155.055 -467.281 -240.863 -0.13337 0.634611 -0.761237 255 255 255 255 0.108732 0.950365
-65.8555 -477.847 -265.3 -0.13337 0.634611 -0.761237 255 255 255 255 0.103189 0.970598
-293.115 -477.847 -265.299 0.080334 0.665803 -0.74179 255 255 255 255 0.103189 0.919049
-155.055 -467.281 -240.863 0.080334 0.665803 -0.74179 255 255 255 255 0.108732 0.950365
-148.746 -495.268 -265.3 0.080334 0.665803 -0.74179 255 255 255 255 0.103189 0.951796
-32.6064 -665.371 -217.683 0.324759 -0.129117 -0.936942 255 255 255 255 0.045594 0.644651
-74.2842 -658.539 -233.07 0.324759 -0.129117 -0.936942 255 255 255 255 0.047144 0.635197
-44.9385 -584.727 -233.07 0.324759 -0.129117 -0.936942 255 255 255 255 0.063886 0.641853
-44.9385 -783.55 -233.07 0.357202 0.083851 -0.930256 255 255 255 255 0.018788 0.641853
-74.2842 -658.539 -233.07 0.357202 0.083851 -0.930256 255 255 255 255 0.047144 0.635197
-32.6064 -665.371 -217.683 0.357202 0.083851 -0.930256 255 255 255 255 0.045594 0.644651
-425.276 -281.639 -346.366 -0.345605 -0.807876 -0.477382 255 255 255 255 0.153051 0.555582
-470.589 -257.018 -355.228 -0.345605 -0.807876 -0.477382 255 255 255 255 0.155061 0.545303
-455.062 -233.047 -407.035 -0.345605 -0.807876 -0.477382 255 255 255 255 0.166812 0.548826
-455.062 -333.577 -281.518 -0.247536 -0.697575 -0.672395 255 255 255 255 0.138341 0.548826
-470.589 -257.018 -355.228 -0.247536 -0.697575 -0.672395 255 255 255 255 0.155061 0.545303
-425.276 -281.639 -346.366 -0.247536 -0.697575 -0.672395 255 255 255 255 0.153051 0.555582
32.4902 -87.5316 -276.81 0.969744 -0.239595 -0.046803 255 255 255 255 0.105234 0.943997
40 -53.5944 -294.942 0.969744 -0.239595 -0.046803 255 255 255 255 0.109347 0.951695
40 -72 -200.719 0.969744 -0.239595 -0.046803 255 255 255 255 0.087975 0.94752
40 -72.0001 -355.886 0.980762 -0.186872 0.056438 255 255 255 255 0.123171 0.94752
40 -53.5944 -294.942 0.980762 -0.186872 0.056438 255 255 255 255 0.109347 0.951695
32.4902 -87.5316 -276.81 0.980762 -0.186872 0.056438 255 255 255 255 0.105234 0.943997
-304.069 -859.987 -251.042 -0.047673 0.996239 -0.072361 255 255 255 255 0.083931 0.625746
-44.9385 -846.281 -233.07 -0.047673 0.996239 -0.072361 255 255 255 255 0.088007 0.684525
-17.6602 -846.281 -251.042 -0.047673 0.996239 -0.072361 255 255 255 255 0.083931 0.690712
-540 -11.6621 -284.997 -0.407007 0.912455 0.042073 255 255 255 255 0.048715 0.812366
-512.655 -4.5e-05 -273.389 -0.407007 0.912455 0.042073 255 255 255 255 0.042513 0.814999
-528.338 -6.9e-05 -425.098 -0.407007 0.912455 0.042073 255 255 255 255 0.04607 0.780587
-540 -11.6621 -500 -0.707105 0.707109 -0 255 255 255 255 0.062818 0.977858
-528.338 -6.9e-05 -425.098 -0.707105 0.707109 -0 255 255 255 255 0.079808 0.980504
-528.338 -8.1e-05 -500 -0.707105 0.707109 -0 255 255 255 255 0.062818 0.980504
-528.338 -3.5e-05 -214.805 -0.356006 0.929612 -0.095301 255 255 255 255 0.04607 0.828288
-512.655 -4.5e-05 -273.389 -0.356006 0.929612 -0.095301 255 255 255 255 0.042513 0.814999
-540 -11.6621 -284.997 -0.356006 0.929612 -0.095301 255 255 255 255 0.048715 0.812366
-540 -314.509 -117.302 -0.973671 0.219149 0.062753 255 255 255 255 0.149625 0.909164
-531.146 -280.777 -97.7168 -0.973671 0.219149 0.062753 255 255 255 255 0.154067 0.916815
-540 -299.09 -171.149 -0.973671 0.219149 0.062753 255 255 255 255 0.137411 0.912661
-540 -299.09 -51.1513 -0.954692 0.289825 -0.067556 255 255 255 255 0.16463 0.912661
-531.146 -280.777 -97.7168 -0.954692 0.289825 -0.067556 255 255 255 255 0.154067 0.916815
-540 -314.509 -117.302 -0.954692 0.289825 -0.067556 255 255 255 255 0.149625 0.909164
-470.535 -537.028 -265.3 -0.817211 0 -0.576339 255 255 255 255 0.160048 0.915241
-29.4648 -477.847 -265.3 0.817211 0 -0.576339 255 255 255 255 0.190114 0.895388
-499.372 -463.911 -177.778 -0.309703 0.917869 -0.248193 255 255 255 255 0.203384 0.877218
-455.062 -463.911 -233.07 -0.309703 0.917869 -0.248193 255 255 255 255 0.193333 0.864676
-470.535 -477.847 -265.3 -0.309703 0.917869 -0.248193 255 255 255 255 0.196843 0.857365
-499.372 -550.964 -177.778 -0.37618 -0.887752 -0.265301 255 255 255 255 0.224407 0.857365
-532.26 -537.028 -177.778 -0.37618 -0.887752 -0.265301 255 255 255 255 0.231867 0.857365
-470.535 -537.028 -265.3 -0.37618 -0.887752 -0.265301 255 255 255 255 0.217866 0.877218
-0.62793 -550.964 -177.778 0.309704 -0.917869 -0.248193 255 255 255 255 0.122497 0.895664
-44.9385 -550.964 -233.07 0.309704 -0.917869 -0.248193 255 255 255 255 0.132548 0.908206
-29.4648 -537.028 -265.3 0.309704 -0.917869 -0.248193 255 255 255 255 0.129039 0.915516
-0.62793 -463.911 -177.778 0.376179 0.887753 -0.265301 255 255 255 255 0.217281 0.898864
32.2598 -477.847 -177.778 0.376179 0.887753 -0.265301 255 255 255 255 0.209821 0.898864
-29.4648 -477.847 -265.3 0.376179 0.887753 -0.265301 255 255 255 255 0.223822 0.879011
-470.535 -537.028 -265.3 -0 -0.917868 -0.396885 255 255 255 255 0.083345 0.878805
64.6631 -846.281 -177.778 0.664807 -0 -0.747015 255 255 255 255 0.204831 0.913673
-17.6602 -1000 -251.042 0 -1 1e-06 255 255 255 255 0.236262 0.912618
-44.9385 -372.38 -233.07 0.66097 -0.585707 -0.469111 255 255 255 255 0.127352 0.641853
-44.9385 -210.527 -435.152 0.66097 -0.585707 -0.469111 255 255 255 255 0.17319 0.641853
-0.62793 -171.28 -421.721 0.66097 -0.585707 -0.469111 255 255 255 255 0.170143 0.651904
64.6631 -1000 -177.778 -0 -1 -0 255 255 255 255 0.219644 0.931292
40 -299.09 -196.109 0.89235 0.353666 0.280415 255 255 255 255 0.086929 0.663534
40 -154.87 -378.004 0.89235 0.353666 0.280415 255 255 255 255 0.128188 0.696248
22.4004 -139.328 -341.6 0.89235 0.353666 0.280415 255 255 255 255 0.11993 0.699773
22.4004 -108.4 -341.6 0.900308 -0 0.435253 255 255 255 255 0.11993 0.706788
22.4004 -139.328 -341.6 0.900308 -0 0.435253 255 255 255 255 0.11993 0.699773
40 -154.87 -378.004 0.900308 -0 0.435253 255 255 255 255 0.128188 0.696248
-0.62793 -372.38 -177.778 -0 -0 -1 255 255 255 255 0.112053 0.884379
-564.663 -846.281 -177.778 -0.664807 -0 -0.747015 255 255 255 255 0.126512 0.913604
-522.4 -139.328 -341.6 -0.89235 0.353666 0.280415 255 255 255 255 0.098747 0.716425
-540 -154.87 -378.004 -0.89235 0.353666 0.280415 255 255 255 255 0.09049 0.7129
-540 -299.09 -196.109 -0.89235 0.353666 0.280415 255 255 255 255 0.131749 0.680187
-540 -154.87 -378.004 -0.900308 0 0.435253 255 255 255 255 0.09049 0.7129
-522.4 -139.328 -341.6 -0.900308 0 0.435253 255 255 255 255 0.098747 0.716425
-522.4 -108.4 -341.6 -0.900308 0 0.435253 255 255 255 255 0.098747 0.723441
-499.372 -372.38 -177.778 -0.780339 -0 -0.625357 255 255 255 255 0.112053 0.538775
-0.62793 -171.28 -421.721 -0 -0.77161 -0.636096 255 255 255 255 0.170143 0.884379
-540 -372.38 -177.778 -0 -0 -1 255 255 255 255 0.112053 0.762034
22.4004 -262.69 4.3e-05 0.900288 0.435294 -0 255 255 255 255 0.042446 0.671791
-540 -372.38 -177.778 1.5e-05 -0.77161 -0.636096 255 255 255 255 0.11481 0.762034
-540 -171.28 -421.721 1.5e-05 -0.77161 -0.636096 255 255 255 255 0.170143 0.762034
-499.372 -171.28 -421.72 1.5e-05 -0.77161 -0.636096 255 255 255 255 0.170143 0.771249
22.4004 -139.328 -341.6 1 0 0 255 255 255 255 0.11993 0.699773
28.3379 0 0 0 1 -0 255 255 255 255 0.072395 0.928432
1.12305 -8.1e-05 -500 -0.904095 0.427333 -0 255 255 255 255 0.069638 0.928433
-522.4 -139.328 -341.6 -1 0 0 255 255 255 255 0.098747 0.716425
-9.65039 -22.7931 -500 0 1 -0 255 255 255 255 0.0594 0.763597
-501.123 -8.1e-05 -500 0.904095 0.427333 -0 255 255 255 255 0.056642 0.763597
-540 -72.0001 -378 -0.900288 -0.435294 0 255 255 255 255 0.090491 0.731697
-455.062 -846.281 -233.07 0.031261 0.90387 -0.426665 255 255 255 255 0.088007 0.591497
-309.367 -851.32 -233.07 0.031261 0.90387 -0.426665 255 255 255 255 0.088007 0.624545
-304.069 -859.987 -251.042 0.031261 0.90387 -0.426665 255 255 255 255 0.083931 0.625746
-540 -670.013 0.000109 0 0.710116 -0.704085 255 255 255 255 0.140874 0.804705
40 -846.281 -177.778 0 0.710116 -0.704085 255 255 255 255 0.100549 0.936266
40 -171.28 -450 1 0 -0 255 255 255 255 0.144519 0.925
-0.62793 -171.28 -450 0 -1 0 255 255 255 255 0.176558 0.884379
-540 -171.28 -450 0 -1 0 255 255 255 255 0.176558 0.762034
-455.062 -210.527 -435.152 0 -0.353842 -0.935305 255 255 255 255 0.028237 0.541173
28.3379 -8.1e-05 -500 0 0 -1 255 255 255 255 0.105113 0.943934
-528.338 -8.1e-05 -500 -0 0 -1 255 255 255 255 0.105113 0.817663
53.9922 -385.466 6.3e-05 1 0 0 255 255 255 255 0.124212 0.961613
40 -449.358 -75.4198 0.680164 0.492253 -0.543198 255 255 255 255 0.141319 0.947121
40 -366.132 6e-05 0.680164 0.492253 -0.543198 255 255 255 255 0.124212 0.965999
53.9922 -385.466 6.3e-05 0.680164 0.492253 -0.543198 255 255 255 255 0.124212 0.961613
40 -449.358 -75.4198 0.781836 -0 -0.623484 255 255 255 255 0.141319 0.947121
40 -366.132 6e-05 0 0 1 255 255 255 255 0.049426 0.902104
-540 -449.358 -75.4198 -0.680771 0.491755 -0.542889 255 255 255 255 0.144358 0.947121
-553.992 -449.358 -57.874 -0.680771 0.491755 -0.542889 255 255 255 255 0.148338 0.947121
-553.992 -385.466 6.3e-05 -0.680771 0.491755 -0.542889 255 255 255 255 0.161466 0.961613
-553.992 -670.013 0.000109 0 0 1 255 255 255 255 0.180328 0.831948
28.3379 0 0 -0 0 1 255 255 255 255 0.051996 0.986633
28.3379 0 0 0.707105 0.707109 -0 255 255 255 255 0.042446 0.963851
-540 -11.6621 -284.997 -0.707105 0.707109 -0 255 255 255 255 0.111587 0.977858
48.8682 -762.211 0.000124 1 0 0 255 255 255 255 0.164505 0.688717
64.6631 -975.005 0.000159 1 0 0 255 255 255 255 0.164505 0.884475
48.8682 -892.314 -138.118 0.738933 -0 0.673779 255 255 255 255 0.195835 0.659205
48.8682 -956.45 0.000156 0.761472 0.648198 0 255 255 255 255 0.164505 0.644658
48.8682 -762.211 0.000124 0.787411 -0.448705 0.422668 255 255 255 255 0.164505 0.688717
48.8682 -892.314 -138.118 0.787411 -0.448705 0.422668 255 255 255 255 0.195835 0.659205
64.6631 -880.914 -155.44 0.787411 -0.448705 0.422668 255 255 255 255 0.199764 0.661791
64.6631 -670.013 0.000109 -0 0 1 255 255 255 255 0.043991 0.831948
22.4004 -108.4 -192.82 0.914996 -0.233671 -0.328907 255 255 255 255 0.104487 0.662914
40 -72 -169.72 0.914996 -0.233671 -0.328907 255 255 255 255 0.112744 0.668154
40 -155.617 -110.314 0.914996 -0.233671 -0.328907 255 255 255 255 0.093777 0.681629
22.4004 -187.84 -134.304 0.877627 -0.479344 0 255 255 255 255 0.086468 0.676187
40 -72 -169.72 1 0 0 255 255 255 255 0.112744 0.900629
-548.868 -956.45 -138.118 -1 0 0 255 255 255 255 0.135508 0.644589
-564.663 -975.005 0.000159 -1 0 0 255 255 255 255 0.166837 0.884406
-564.663 -975.005 -155.44 -0.738933 0 0.673779 255 255 255 255 0.131579 0.64038
-548.868 -956.45 0.000156 -0.761472 0.648198 0 255 255 255 255 0.166837 0.644589
-564.663 -880.914 -155.44 -0.787411 -0.448705 0.422668 255 255 255 255 0.131579 0.661722
-548.868 -892.314 -138.118 -0.787411 -0.448705 0.422668 255 255 255 255 0.135508 0.659136
-548.868 -762.211 0.000124 -0.787411 -0.448705 0.422668 255 255 255 255 0.166837 0.688648
-540 -155.617 -110.314 -0.914996 -0.233671 -0.328907 255 255 255 255 0.123559 0.687936
-540 -72 -169.72 -0.914996 -0.233671 -0.328907 255 255 255 255 0.142526 0.701411
-522.4 -108.4 -192.82 -0.914996 -0.233671 -0.328907 255 255 255 255 0.134269 0.706651
-540 -155.617 2.5e-05 -0.877627 -0.479344 0 255 255 255 255 0.123559 0.662914
-540 -155.617 2.5e-05 -1 -0 0 255 255 255 255 0.123559 0.895388
-522.4 -187.84 3.1e-05 -0 0 1 255 255 255 255 0.173366 0.943266
-304.069 -859.987 -251.042 -0.017124 0.898619 -0.438396 255 255 255 255 0.083931 0.625746
-309.367 -851.32 -233.07 -0.017124 0.898619 -0.438396 255 255 255 255 0.088007 0.624545
-44.9385 -846.281 -233.07 -0.017124 0.898619 -0.438396 255 255 255 255 0.088007 0.684525
3 0 1 2 
3 3 4 5 
3 6 7 8 
3 9 10 11 
3 12 13 14 
3 15 16 17 
3 16 18 17 
3 19 20 21 
3 22 23 24 
3 25 26 27 
3 28 29 30 
3 31 32 33 
3 34 35 36 
3 37 38 39 
3 40 41 42 
3 43 44 45 
3 46 47 48 
3 48 47 49 
3 47 50 49 
3 51 52 53 
3 54 55 56 
3 57 58 59 
3 60 61 62 
3 63 64 65 
3 66 67 68 
3 69 70 71 
3 72 73 74 
3 75 76 77 
3 78 79 80 
3 81 82 83 
3 84 85 86 
3 87 88 89 
3 88 90 89 
3 91 92 93 
3 94 95 96 
3 97 98 89 
3 99 100 101 
3 102 103 104 
3 103 105 104 
3 104 105 106 
3 105 107 106 
3 107 108 106 
3 109 106 108 
3 110 111 63 
3 112 113 114 
3 115 116 117 
3 118 119 120 
3 119 121 120 
3 121 122 120 
3 120 122 123 
3 124 125 126 
3 127 128 129 
3 130 131 132 
3 64 133 56 
3 134 135 136 
3 137 138 139 
3 139 138 140 
3 141 142 143 
3 144 145 146 
3 147 148 149 
3 150 151 152 
3 153 154 155 
3 120 156 157 
3 158 159 160 
3 161 162 163 
3 117 164 115 
3 165 123 166 
3 167 168 169 
3 120 157 118 
3 170 171 172 
3 173 174 175 
3 176 177 178 
3 179 180 181 
3 182 183 184 
3 185 168 186 
3 187 188 189 
3 189 188 55 
3 188 190 55 
3 55 190 191 
3 190 192 191 
3 193 194 195 
3 196 197 198 
3 199 200 201 
3 202 203 204 
3 205 206 207 
3 208 209 210 
3 211 212 213 
3 214 151 150 
3 215 216 217 
3 185 153 155 
3 218 219 220 
3 221 222 223 
3 224 225 153 
3 226 227 228 
3 229 230 231 
3 227 232 228 
3 228 232 230 
3 232 231 230 
3 233 234 235 
3 234 236 235 
3 236 237 235 
3 154 238 155 
3 239 240 241 
3 242 243 244 
3 245 246 247 
3 239 241 248 
3 242 244 249 
3 250 251 252 
3 253 254 255 
3 256 257 258 
3 259 260 261 
3 110 63 65 
3 133 54 56 
3 262 263 264 
3 265 266 267 
3 268 269 270 
3 271 272 273 
3 165 274 275 
3 276 277 278 
3 279 280 281 
3 282 283 284 
3 283 285 286 
3 287 288 289 
3 286 285 290 
3 287 291 288 
3 292 277 276 
3 276 289 288 
3 293 294 295 
3 296 297 298 
3 299 300 301 
3 302 303 304 
3 305 306 307 
3 308 309 306 
3 309 310 306 
3 310 311 306 
3 306 311 307 
3 312 313 314 
3 315 316 317 
3 318 319 320 
3 321 322 323 
3 324 325 326 
3 327 328 329 
3 330 167 331 
3 55 191 56 
3 332 333 224 
3 233 274 166 
3 233 166 234 
3 334 335 336 
3 337 338 339 
3 340 341 342 
3 343 344 345 
3 346 347 348 
3 349 350 351 
3 352 353 354 
3 355 356 357 
3 358 359 356 
3 360 357 361 
3 362 363 364 
3 365 366 367 
3 368 369 370 
3 371 303 372 
3 373 374 375 
3 376 377 378 
3 379 380 381 
3 382 383 384 
3 385 386 387 
3 388 389 385 
3 387 390 391 
3 392 393 394 
3 395 396 397 
3 398 399 400 
3 401 402 403 
3 403 402 404 
3 402 405 404 
3 405 406 404 
3 404 406 407 
3 406 372 407 
3 372 303 407 
3 303 167 407 
3 408 167 409 
3 410 411 412 
3 413 414 415 
3 416 417 418 
3 419 153 420 
3 421 155 238 
3 422 423 424 
3 425 426 427 
3 428 429 430 
3 431 432 433 
3 434 435 436 
3 437 438 439 
3 440 441 442 
3 443 444 445 
3 446 447 448 
3 449 450 451 
3 452 453 454 
3 455 456 457 
3 458 459 460 
3 461 462 463 
3 464 465 466 
3 467 468 469 
3 0 470 1 
3 3 471 4 
3 472 473 474 
3 475 476 477 
3 478 479 480 
3 481 482 483 
3 37 484 38 
3 40 485 41 
3 43 486 44 
3 487 488 489 
3 57 490 58 
3 491 492 493 
3 494 495 496 
3 84 497 85 
3 99 498 100 
3 499 500 501 
3 502 503 504 
3 127 505 128 
3 130 506 131 
3 64 63 133 
3 134 507 135 
3 153 225 154 
3 158 508 159 
3 509 510 511 
3 117 512 164 
3 165 120 123 
3 167 303 168 
3 185 169 168 
3 208 513 209 
3 211 514 212 
3 214 515 151 
3 215 516 216 
3 185 186 153 
3 218 517 219 
3 221 518 222 
3 224 333 225 
3 154 335 238 
3 519 520 521 
3 256 522 257 
3 259 523 260 
3 133 524 54 
3 262 525 263 
3 271 526 272 
3 165 166 274 
3 279 527 280 
3 283 282 285 
3 287 528 291 
3 292 529 277 
3 276 278 289 
3 293 530 294 
3 531 532 533 
3 299 534 300 
3 302 535 303 
3 536 537 538 
3 330 539 167 
3 332 540 333 
3 334 238 335 
3 337 541 338 
3 340 542 341 
3 352 543 353 
3 355 358 356 
3 358 544 359 
3 360 355 357 
3 362 545 363 
3 365 546 366 
3 547 548 549 
3 371 550 303 
3 551 552 553 
3 376 554 377 
3 379 555 380 
3 382 556 383 
3 385 389 386 
3 388 557 389 
3 387 386 390 
3 392 558 393 
3 395 559 396 
3 560 561 562 
3 408 407 167 
3 563 564 565 
3 413 566 414 
3 416 567 417 
3 419 224 153 
3 421 568 155 
3 569 570 571 
3 458 542 459 
