ply
format ascii 1.0
comment VCGLIB generated
comment TextureFile Dungeons_2_Texture_01_A.png
element vertex 96
property float x
property float y
property float z
property float nx
property float ny
property float nz
property uchar red
property uchar green
property uchar blue
property uchar alpha
property float texture_u
property float texture_v
element face 108
property list uchar int vertex_indices
end_header
0 0 31.19531 -4.47238e-05 -0.7071291 0.7070844 192 192 192 255 0.001889 0.753737
500 0 31.19531 0.2612039 -0.8918058 0.3693981 192 192 192 255 0.237458 0.753597
0 500 531.1953 -0.0001778696 -0.7070181 0.7071955 192 192 192 255 0.001942 0.989053
500 500 531.1953 0.0001908649 -0.707011 0.7072025 192 192 192 255 0.23736 0.989053
0 500 485.7608 -0.5815225 0.7019597 -0.4111985 192 192 192 255 0.001942 0.989053
500 500 485.7608 0.5815225 0.7019597 -0.4111985 192 192 192 255 0.23736 0.989053
0 0 -14.2392 -0.8975613 -0.3868169 -0.2115572 192 192 192 255 0.00194 0.753736
500 0 -14.2392 0.857545 -0.4915648 -0.151594 192 192 192 255 0.237372 0.753626
500 286 317.1953 0.58076 -0.4138678 0.7010216 192 192 192 255 0.237388 0.638324
389.4453 286 317.1953 0.1565223 -0.4183768 0.8946853 192 192 192 255 0.185427 0.63842
500 464 495.1953 0.0005749293 -0.7072732 0.7069401 192 192 192 255 0.23736 0.722103
286 385.066 416.2614 0.4161242 -0.5391127 0.7322556 192 192 192 255 0.136601 0.934938
286 464 495.1953 0.06172967 -0.7090379 0.7024633 192 192 192 255 0.136601 0.972103
214 385.066 416.2614 -0.5980562 -0.2376401 0.7654123 192 192 192 255 0.102701 0.684938
110.5547 286 317.1953 -0.007973044 -0.7018971 0.7122337 192 192 192 255 0.053995 0.638295
214 464 495.1953 -0.0001689054 -0.7071509 0.7070627 192 192 192 255 0.102701 0.722103
0 286 317.1953 -2.236289e-05 -0.7070847 0.7071289 192 192 192 255 0.001942 0.638295
0 464 495.1953 -0.0002696549 -0.707277 0.7069365 192 192 192 255 0.001942 0.972103
195.8 398.1667 406.0916 -0.5982785 -0.2376704 0.7652292 192 192 192 255 0.094132 0.688597
103.2456 309.5305 317.4553 -0.5730064 -0.19213 0.7967119 192 192 192 255 0.050554 0.896864
195.8 451.1304 459.0552 -0.1357305 -0.8231627 0.5513442 192 192 192 255 0.094132 0.713534
0 309.5305 317.4553 -0.8509225 -0.2036984 0.4841879 192 192 192 255 0.001942 0.896864
0 451.1304 459.0552 -0.8068036 -0.4765113 0.3492922 192 192 192 255 0.001942 0.963534
500 309.5305 317.4553 0.58076 -0.2117466 0.7860542 192 192 192 255 0.23736 0.896864
396.7544 309.5305 317.4553 3.552376e-05 -0.7070528 0.7071608 192 192 192 255 0.188748 0.896864
500 451.1304 459.0552 0.7150102 -0.5870175 0.3796985 192 192 192 255 0.23736 0.963534
304.2 398.1667 406.0916 0.4161243 -0.5391126 0.7322556 192 192 192 255 0.14517 0.688597
304.2 451.1304 459.0552 0.6190259 -0.5869586 0.5218108 192 192 192 255 0.14517 0.713534
216.6353 397.8709 429.0662 -0.6581736 -0.4604848 0.5956185 192 192 192 255 0.102701 0.69337
283.3647 438.7917 469.987 0.6189656 -0.5867431 0.5221247 192 192 192 255 0.136601 0.707832
90.60685 452.2853 460.2101 -1.465267e-08 -0.874098 0.4857497 192 192 192 255 0.044048 0.963534
72.72552 462.8452 494.0404 -5.382269e-13 -0.7071912 0.7070224 192 192 192 255 0.036739 0.972103
465.8164 465.3748 496.5701 2.978407e-11 -0.7071894 0.7070241 192 192 192 255 0.221575 0.722103
425.5827 449.7556 457.6805 5.270951e-12 -0.7071681 0.7070455 192 192 192 255 0.202012 0.963534
137.176 298.332 329.5273 -0.07920942 -0.6623154 0.7450264 192 192 192 255 0.070198 0.645157
158.0549 331.4893 362.6846 -0.5007972 -0.3152675 0.8061072 192 192 192 255 0.07636 0.659713
121.8754 305.8185 330.1307 -0.3429374 -0.4601264 0.8189491 192 192 192 255 0.057661 0.647329
337.5099 369.1093 377.0341 0.0001452937 -0.7070312 0.7071823 192 192 192 255 0.160727 0.674784
338.6479 328.3038 359.4991 0.2185594 -0.5669392 0.7942365 192 192 192 255 0.161673 0.658508
250 500 485.7608 0 0.9675382 -0.2527248 192 192 192 255 0.119651 0.989053
250 0 -14.2392 0 -0.06054887 -0.9981652 192 192 192 255 0.119657 0.753631
250 500 531.1953 0 -0.2810846 0.959683 192 192 192 255 0.119651 0.989053
250 464 495.1953 -6.857104e-08 -0.7071068 0.7071068 192 192 192 255 0.11966 0.972087
250 418.3313 449.5266 -1.656372e-07 -0.7071068 0.7071068 192 192 192 255 0.119639 0.950625
250 385.066 416.2614 -1.113137e-07 -0.7071067 0.7071068 192 192 192 255 0.119667 0.934907
250 329.8965 361.0919 -0.0391212 -0.7676362 0.6396907 192 192 192 255 0.11963 0.908942
250 0 12.54239 -5.482815e-08 -0.9523198 0.3051016 192 192 192 255 0.11967 0.75366
365.0572 225.0728 256.2681 -0.1938304 -0.7175837 0.668957 192 192 192 255 0.17382 0.859552
365.0573 0 31.1953 -0.1864373 -0.8541225 0.4855059 192 192 192 255 0.173882 0.753635
131.0159 224.3815 255.5768 0.0005799715 -0.7072332 0.7069802 192 192 192 255 0.063547 0.859291
131.0157 0 31.19531 0.1755105 -0.8551103 0.4878344 192 192 192 255 0.063616 0.7537
342.5607 0 12.54239 -0.1605303 -0.894132 0.4180407 192 192 192 255 0.163275 0.753636
250 303.161 315.7034 0.04373937 -0.7765715 0.6285091 192 192 192 255 0.119623 0.893339
155.2612 0 12.54239 0.1321828 -0.9206203 0.3674046 192 192 192 255 0.075037 0.753683
342.5606 217.2212 229.7637 -0.2849586 -0.7570242 0.5879735 192 192 192 255 0.163237 0.852859
155.2612 219.5202 232.0626 0.2668034 -0.7371797 0.6207915 192 192 192 255 0.074986 0.853989
90.60685 452.2853 460.2101 -1.465267e-08 -0.874098 0.4857497 192 192 192 255 0.044048 0.713534
72.72552 462.8452 494.0404 -5.382269e-13 -0.7071912 0.7070224 192 192 192 255 0.036739 0.722103
0 464 495.1953 -0.0002696549 -0.707277 0.7069365 192 192 192 255 0.001942 0.722103
0 451.1304 459.0552 -0.8068036 -0.4765113 0.3492922 192 192 192 255 0.001942 0.713534
103.2456 309.5305 317.4553 -0.5730064 -0.19213 0.7967119 192 192 192 255 0.050554 0.646864
0 309.5305 317.4553 -0.8509225 -0.2036984 0.4841879 192 192 192 255 0.001942 0.646864
500 309.5305 317.4553 0.58076 -0.2117466 0.7860542 192 192 192 255 0.23736 0.646864
396.7544 309.5305 317.4553 3.552376e-05 -0.7070528 0.7071608 192 192 192 255 0.188748 0.646864
500 451.1304 459.0552 0.7150102 -0.5870175 0.3796985 192 192 192 255 0.23736 0.713534
425.5827 449.7556 457.6805 5.270951e-12 -0.7071681 0.7070455 192 192 192 255 0.202012 0.713534
286 464 495.1953 0.06172967 -0.7090379 0.7024633 192 192 192 255 0.136601 0.722103
283.3647 438.7917 469.987 0.6189656 -0.5867431 0.5221247 192 192 192 255 0.136601 0.957832
110.5547 286 317.1953 -0.007973044 -0.7018971 0.7122337 192 192 192 255 0.053995 0.888295
0 286 317.1953 -2.236289e-05 -0.7070847 0.7071289 192 192 192 255 0.001942 0.888295
500 464 495.1953 0.0005749293 -0.7072732 0.7069401 192 192 192 255 0.23736 0.972103
465.8164 465.3748 496.5701 2.978407e-11 -0.7071894 0.7070241 192 192 192 255 0.221575 0.972103
286 385.066 416.2614 0.4161242 -0.5391127 0.7322556 192 192 192 255 0.136601 0.684938
195.8 398.1667 406.0916 -0.5982785 -0.2376704 0.7652292 192 192 192 255 0.094132 0.938597
195.8 451.1304 459.0552 -0.1357305 -0.8231627 0.5513442 192 192 192 255 0.094132 0.963534
214 464 495.1953 -0.0001689054 -0.7071509 0.7070627 192 192 192 255 0.102701 0.972103
337.5099 369.1093 377.0341 0.0001452937 -0.7070312 0.7071823 192 192 192 255 0.160864 0.924896
389.4453 286 317.1953 0.1565223 -0.4183768 0.8946853 192 192 192 255 0.185285 0.888166
338.6479 328.3038 359.4991 0.2185594 -0.5669392 0.7942365 192 192 192 255 0.16139 0.908213
304.2 451.1304 459.0552 0.6190259 -0.5869586 0.5218108 192 192 192 255 0.14517 0.963534
304.2 398.1667 406.0916 0.4161243 -0.5391126 0.7322556 192 192 192 255 0.14517 0.938597
500 286 317.1953 0.58076 -0.4138678 0.7010216 192 192 192 255 0.237359 0.888277
216.6353 397.8709 429.0662 -0.6581736 -0.4604848 0.5956185 192 192 192 255 0.102701 0.94337
214 385.066 416.2614 -0.5980562 -0.2376401 0.7654123 192 192 192 255 0.102701 0.934938
158.0549 331.4893 362.6846 -0.5007972 -0.3152675 0.8061072 192 192 192 255 0.07636 0.909713
137.176 298.332 329.5273 -0.07920942 -0.6623154 0.7450264 192 192 192 255 0.071088 0.894081
250 329.8965 361.0919 -0.0391212 -0.7676362 0.6396907 192 192 192 255 0.11963 0.658942
250 303.161 315.7034 0.04373937 -0.7765715 0.6285091 192 192 192 255 0.119623 0.643339
342.5606 217.2212 229.7637 -0.2849586 -0.7570242 0.5879735 192 192 192 255 0.163237 0.602859
365.0572 225.0728 256.2681 -0.1938304 -0.7175837 0.668957 192 192 192 255 0.17382 0.609552
131.0159 224.3815 255.5768 0.0005799715 -0.7072332 0.7069802 192 192 192 255 0.063547 0.609291
131.0157 0 31.19531 0.1755105 -0.8551103 0.4878344 192 192 192 255 0.063616 0.519377
155.2612 0 12.54239 0.1321828 -0.9206203 0.3674046 192 192 192 255 0.075037 0.51936
155.2612 219.5202 232.0626 0.2668034 -0.7371797 0.6207915 192 192 192 255 0.074986 0.603989
342.5607 0 12.54239 -0.1605303 -0.894132 0.4180407 192 192 192 255 0.163275 0.519313
365.0573 0 31.1953 -0.1864373 -0.8541225 0.4855059 192 192 192 255 0.173882 0.519312
3 53 6 40 
3 53 40 46 
3 4 39 40 
3 4 40 6 
3 19 30 22 
3 19 22 21 
3 25 33 24 
3 25 24 23 
3 41 42 12 
3 41 12 3 
3 31 2 17 
3 14 34 36 
3 18 28 15 
3 18 15 20 
3 56 57 58 
3 56 58 59 
3 16 14 60 
3 16 60 61 
3 9 8 62 
3 9 62 63 
3 64 10 32 
3 64 32 65 
3 37 38 9 
3 37 9 63 
3 66 29 27 
3 12 42 43 
3 12 43 67 
3 0 68 69 
3 70 3 71 
3 22 17 2 
3 22 2 4 
3 21 6 0 
3 21 0 69 
3 25 5 3 
3 25 3 70 
3 25 23 7 
3 25 7 5 
3 22 4 6 
3 22 6 21 
3 2 41 39 
3 2 39 4 
3 13 28 18 
3 67 43 44 
3 67 44 11 
3 27 29 72 
3 27 72 26 
3 19 73 74 
3 19 74 30 
3 20 15 57 
3 20 57 56 
3 75 2 31 
3 71 3 12 
3 65 32 66 
3 65 66 27 
3 24 33 76 
3 45 47 77 
3 45 77 78 
3 35 36 34 
3 60 36 35 
3 60 35 18 
3 14 36 60 
3 76 33 79 
3 76 79 80 
3 72 38 37 
3 72 37 26 
3 44 45 78 
3 44 78 11 
3 18 35 13 
3 81 1 7 
3 81 7 23 
3 52 55 53 
3 52 53 46 
3 40 39 5 
3 40 5 7 
3 75 42 41 
3 75 41 2 
3 43 42 75 
3 43 75 82 
3 44 43 82 
3 44 82 83 
3 84 45 44 
3 84 44 83 
3 51 7 1 
3 51 1 48 
3 47 48 1 
3 47 1 81 
3 47 81 77 
3 39 41 3 
3 39 3 5 
3 51 54 52 
3 51 52 46 
3 84 85 49 
3 84 49 45 
3 0 50 49 
3 0 49 68 
3 68 49 85 
3 86 87 88 
3 86 88 89 
3 90 91 92 
3 90 92 93 
3 89 88 94 
3 89 94 95 
3 90 93 87 
3 90 87 86 
3 46 40 7 
3 46 7 51 
3 0 6 53 
3 0 53 50 
