ply
format ascii 1.0
comment VCGLIB generated
comment TextureFile Dungeons_2_Texture_01_A.png
element vertex 342
property float x
property float y
property float z
property float nx
property float ny
property float nz
property uchar red
property uchar green
property uchar blue
property uchar alpha
property float texture_u
property float texture_v
element face 500
property list uchar int vertex_indices
end_header
4.545898 -22.90059 496.0742 -0.01116859 -0.9998403 0.01395194 192 192 192 255 0.042314 0.543123
495.8408 -22.90052 496.2881 0.0005100908 -0.9991025 0.04235395 192 192 192 255 0.231069 0.543041
146.8281 -8.593741 0.03418 -0.019012 0.417161 -0.9086338 192 192 192 255 0.096979 0.734017
249.8701 -0.035275 499.8682 -0.002668689 0.6436473 0.7653177 192 192 192 255 0.136567 0.541663
241.4424 3.208078 9.916016 0.1733533 0.9779081 -0.1168099 192 192 192 255 0.115384 0.984516
58.34668 3.207124 400.1855 -0.005091052 0.9999869 0.0004970264 192 192 192 255 0.031972 0.806724
445.7705 3.016885 7.897461 -0.2543179 0.8919652 -0.373792 192 192 192 255 0.208468 0.985435
385.2793 3.205813 117.0928 -0.0024217 0.9999942 0.002429843 192 192 192 255 0.180911 0.93569
196.7207 1.862581 236.0098 0.07626858 0.98897 0.1269708 192 192 192 255 0.116147 0.643205
7.613281 2.956524 257.8672 -0.1509306 0.9750584 -0.16273 192 192 192 255 0.008859 0.871559
496.3848 0.286125 250.4824 0.05088831 0.9959992 -0.07345687 192 192 192 255 0.231278 0.637636
58.79492 -4.769211 0.005859 0.009270977 0.06461728 -0.9978671 192 192 192 255 0.063156 0.734028
499.999 -6.653287 326.8535 0.9909202 0.1110221 0.07583644 192 192 192 255 0.232667 0.608245
258.5586 3.214094 480.2627 -0.1477835 0.9889645 0.01045233 192 192 192 255 0.123181 0.770244
241.3945 3.205758 489.957 0.1415227 0.983157 0.1156449 192 192 192 255 0.133311 0.545477
491.6738 3.205163 322.1572 0.2118776 0.9747625 0.07032746 192 192 192 255 0.22938 0.84227
247.2363 -22.76773 0.171875 0.0001652645 -0.6927186 -0.721208 192 192 192 255 0.135556 0.733964
122.6143 1.315706 20.43848 -0.09774026 0.986931 -0.1281177 192 192 192 255 0.087676 0.726165
499.8975 -0.02649 499.8291 0.6074082 0.5103824 0.6087406 192 192 192 255 0.232628 0.541678
433.3477 -11.80905 0.999023 0.009451004 0.4524113 -0.8917593 192 192 192 255 0.207059 0.733646
499.9961 -5.875145 427.6553 0.9924021 0.09639566 -0.07645883 192 192 192 255 0.232666 0.569453
451.4453 0.091417 0.554688 -0.2111448 0.533473 -0.8190388 192 192 192 255 0.214013 0.733817
2.680664 -5.50561 394.582 -0.4768887 0.8655409 0.1530234 192 192 192 255 0.041597 0.582181
54.48438 0.081162 0.543945 0.04752214 0.6271805 -0.7774228 192 192 192 255 0.0615 0.733821
222.6426 3.206699 181.3242 0.02723067 0.9995359 0.01365694 192 192 192 255 0.106819 0.906429
499.5312 -7.301126 99.06152 0.8150606 0.5786498 -0.02899305 192 192 192 255 0.232487 0.695908
321.1943 3.204517 120.4658 0.004328256 0.9999789 0.004847341 192 192 192 255 0.151716 0.934153
22.87891 3.182301 451.6318 -0.05268057 0.9975266 -0.04653381 192 192 192 255 0.015814 0.783287
20.97559 2.805385 392.9141 -0.1914116 0.9792561 0.06647696 192 192 192 255 0.048626 0.582823
380.4873 3.206441 457.6104 -0.008302085 0.9997858 0.01896051 192 192 192 255 0.178728 0.780563
227.915 2.735653 331.3223 0.0636086 0.9953704 0.07205351 192 192 192 255 0.128132 0.606526
326.0273 0.293981 244.6738 0.03068023 0.993615 0.1085723 192 192 192 255 0.165827 0.639871
258.627 3.209098 10.13184 -0.1082815 0.9872536 -0.1166422 192 192 192 255 0.139932 0.730131
244.2979 -0.768628 238.3086 -0.1568307 0.9859006 0.0583455 192 192 192 255 0.134427 0.642321
385.1426 3.206576 224.7061 -0.03679722 0.9906779 0.1311617 192 192 192 255 0.180848 0.886666
470.7412 2.525794 115.7227 0.06109931 0.99808 -0.01016226 192 192 192 255 0.221426 0.689496
231.584 2.112796 192.626 0.23036 0.9721972 0.04203321 192 192 192 255 0.129542 0.659901
476.8271 3.190169 131.4795 0.05589474 0.9971315 -0.05103589 192 192 192 255 0.222617 0.929136
456.7529 3.170422 114.2451 0.02770403 0.9995693 0.009679399 192 192 192 255 0.213472 0.936987
206.5938 3.206874 389.2217 0.01785047 0.9997749 -0.01146767 192 192 192 255 0.099508 0.811718
373.4697 2.15181 215.3135 -0.08701769 0.9961147 0.01354363 192 192 192 255 0.175531 0.890944
324.1279 1.544201 483.748 0.09580724 0.9812266 0.167378 192 192 192 255 0.165097 0.547867
18.63379 1.4637 437.1035 -0.1801445 0.9833913 -0.02212639 192 192 192 255 0.01388 0.789905
225.041 2.274902 379.9082 0.1447427 0.9875017 -0.06236893 192 192 192 255 0.107912 0.815961
171.373 3.207339 10.08594 -0.08059461 0.9727025 -0.2176106 192 192 192 255 0.106409 0.730149
366.127 1.805826 186.4766 -0.03010615 0.9994015 0.01703515 192 192 192 255 0.172186 0.904081
401.4355 -5.286157 0.052734 0.06702019 0.2605382 -0.9631346 192 192 192 255 0.194799 0.73401
241.3467 3.210124 162.1846 0.1584642 0.9865623 0.03979842 192 192 192 255 0.11534 0.915148
124.1748 3.206959 58.79883 0.004550185 0.9997025 -0.0239642 192 192 192 255 0.061961 0.962247
197.5264 1.381901 345.3594 -0.01155703 0.9984348 0.05472231 192 192 192 255 0.095377 0.8317
382.0596 3.206101 171.7012 -0.02483163 0.99963 0.01110114 192 192 192 255 0.179444 0.910812
486.709 -0.264315 79.9668 0.2822933 0.9592188 -0.01448731 192 192 192 255 0.227561 0.703256
391.4619 3.206695 22.375 0.01654389 0.9987856 -0.04640887 192 192 192 255 0.183727 0.97884
8.243164 -22.82434 0.150391 -0.09058977 -0.6977234 -0.7106164 192 192 192 255 0.043734 0.733973
478.6729 3.19466 422.3525 0.1153671 0.9912093 -0.06476504 192 192 192 255 0.224473 0.571494
499.9648 -0.127962 430.9697 0.7770976 0.6153245 -0.1322687 192 192 192 255 0.232654 0.568178
391.1025 2.328753 8.543945 0.09202201 0.9833322 -0.1568114 192 192 192 255 0.183564 0.985141
233.7402 0.479371 222.9033 0.05307985 0.9945741 0.08946969 192 192 192 255 0.13037 0.648249
472.6143 1.605073 343.1807 0.0793556 0.9921972 0.09616383 192 192 192 255 0.220697 0.832693
499.9287 -0.058034 249.7891 0.781526 0.6238716 0.001194638 192 192 192 255 0.23264 0.637903
161.2402 3.205787 341.875 0.01318919 0.9998884 0.007016424 192 192 192 255 0.078846 0.833288
250.7783 0.367718 210.3662 -0.1673471 0.9858757 -0.0066366 192 192 192 255 0.136916 0.653074
194.0088 3.2059 216.2168 0.01092229 0.9996774 0.02293227 192 192 192 255 0.093775 0.890533
334.8926 3.207203 117.4316 0.0008636724 0.9999574 0.009194497 192 192 192 255 0.157956 0.935536
228.209 3.206972 319.502 0.03753181 0.9986294 0.0364789 192 192 192 255 0.109355 0.84348
182.6885 2.471271 350.1309 0.04933373 0.9986539 -0.01602302 192 192 192 255 0.088617 0.829527
171.7275 0.045095 0.543945 -0.2869579 0.728841 -0.6216478 192 192 192 255 0.106545 0.733821
498.918 -4.904057 89.38379 0.781724 0.6220868 -0.04376882 192 192 192 255 0.232252 0.699632
404.8945 2.897375 492.4307 -0.03600024 0.9779239 0.205837 192 192 192 255 0.189847 0.7647
0.197266 -22.76863 348.5879 -0.7146388 -0.6994935 0.0005882335 192 192 192 255 0.040643 0.599881
412.9346 3.147101 23.37207 0.02742506 0.983079 -0.181118 192 192 192 255 0.19351 0.978386
241.415 3.204145 417.374 0.1393992 0.9899245 -0.02484763 192 192 192 255 0.133319 0.57341
499.9941 -11.96581 79.13672 0.9612385 0.2679029 -0.06518152 192 192 192 255 0.232665 0.703576
486.7051 1.478598 95.98633 0.2704655 0.9614691 -0.04924977 192 192 192 255 0.227559 0.697091
491.5459 3.157471 439.9277 0.1889141 0.9813638 -0.03516636 192 192 192 255 0.229322 0.788619
362.3916 -11.77503 499.999 -0.000979361 0.3608968 0.9326053 192 192 192 255 0.179798 0.541613
355.1992 -1.80954 489.0771 0.04133125 0.9074264 0.4181736 192 192 192 255 0.177035 0.545816
300.7666 3.206731 230.2725 0.02842593 0.9975103 0.06453788 192 192 192 255 0.14241 0.88413
0.005859 -9.100292 439.6934 -0.9931948 0.1157454 -0.01293036 192 192 192 255 0.04057 0.564821
471.4434 2.651707 102.7666 0.047528 0.9982821 -0.03426322 192 192 192 255 0.221696 0.694482
260.792 3.223564 359.9385 -0.1540386 0.9877733 -0.02400031 192 192 192 255 0.124199 0.825059
337.1416 3.191457 217.4482 0.2773964 0.9538415 0.1150548 192 192 192 255 0.170097 0.650349
490.0381 1.248169 342.8545 0.3745493 0.9159849 0.1438214 192 192 192 255 0.22884 0.602088
250.5459 0.044094 351.9502 -0.2128649 0.9766059 0.0304869 192 192 192 255 0.136827 0.598587
0.18457 -22.76621 499.8027 -0.5799676 -0.5718274 0.5802165 192 192 192 255 0.040638 0.541688
161.8994 3.062505 241.6914 0.005893321 0.9853013 0.1707237 192 192 192 255 0.079147 0.878928
8.613281 3.209911 490.0527 -0.1419244 0.9834511 0.1126113 192 192 192 255 0.009315 0.765784
499.8857 -7.568311 367.2803 0.8936455 0.4480656 0.02519933 192 192 192 255 0.232623 0.592688
468.5156 3.205113 398.7686 0.07959107 0.9952899 -0.05534725 192 192 192 255 0.220571 0.58057
451.6328 3.202989 83.71387 0.03009897 0.9994867 0.01097962 192 192 192 255 0.211139 0.950896
370.6074 0.249796 250.3037 -0.01410406 0.9851373 -0.1711892 192 192 192 255 0.182955 0.637705
19.94727 3.153903 364.0068 -0.06542899 0.9975915 0.02302868 192 192 192 255 0.048231 0.593948
198.2119 3.204273 379.0098 0.02446656 0.9989557 -0.03858726 192 192 192 255 0.095689 0.816371
434.9688 3.204566 136.5117 0.00196825 0.999998 0.000249803 192 192 192 255 0.203548 0.926844
441.1768 -2.675419 6.152344 -0.4086435 0.5800276 -0.7046833 192 192 192 255 0.210067 0.731663
496.9834 -1.79319 332.1992 0.7082427 0.6917608 0.1409228 192 192 192 255 0.231508 0.606188
130.8408 -4.65182 0.761719 0.02409315 0.6794458 -0.73333 192 192 192 255 0.090836 0.733737
112.3311 3.095383 42.7002 0.007390209 0.9605896 -0.2778724 192 192 192 255 0.056565 0.969581
499.876 -22.75948 53.7373 0.7347785 -0.6781878 0.01272209 192 192 192 255 0.23262 0.71335
0.089844 -6.300426 390.2324 -0.8904131 0.4433196 0.1031131 192 192 192 255 0.040602 0.583855
252.9023 0.057438 0.395508 -0.01021391 0.5902256 -0.8071738 192 192 192 255 0.137732 0.733878
241.2451 3.206949 258.2295 0.1230779 0.9769892 -0.1741952 192 192 192 255 0.133254 0.634655
499.9053 -22.8086 71.3125 0.7278962 -0.6855507 -0.01368861 192 192 192 255 0.232631 0.706587
499.9307 -0.067625 50.7041 0.8062513 0.5746661 0.1404197 192 192 192 255 0.232641 0.714518
82.58496 -4.23084 0.689453 0.04654437 0.820755 -0.5693812 192 192 192 255 0.072297 0.733765
365.5732 2.604416 146.7109 -0.03163872 0.999485 0.005369621 192 192 192 255 0.171933 0.922197
289.7324 2.971956 242.0742 0.0351248 0.9819024 0.1861019 192 192 192 255 0.151882 0.640872
1.066406 -0.260356 373.5977 -0.8445674 0.5301702 0.07500279 192 192 192 255 0.040977 0.590257
199.2832 -0.041429 253.7012 0.01699433 0.9295514 -0.3683009 192 192 192 255 0.117132 0.636397
328.7744 2.740208 141.8916 0.02614806 0.9995908 0.01160651 192 192 192 255 0.155169 0.924393
491.4541 3.201324 150.4756 0.1830646 0.9829507 -0.0171867 192 192 192 255 0.22928 0.920482
428.9863 3.205364 371.8623 0.0264389 0.9996325 0.00599469 192 192 192 255 0.200822 0.819627
0.835938 -8.721899 407.6455 -0.7651892 0.6425491 -0.04020141 192 192 192 255 0.040889 0.577154
474.4268 3.203254 62.01758 0.0271434 0.9989421 0.03711877 192 192 192 255 0.221523 0.96078
229.0029 -1.549831 239.7197 0.003495301 0.9995005 0.03141104 192 192 192 255 0.12855 0.641778
190.5469 -0.106563 250.2168 0.06829838 0.9953773 -0.06752305 192 192 192 255 0.113775 0.637738
183.6885 3.017528 236.6045 0.04852022 0.9934264 0.1036814 192 192 192 255 0.089073 0.881245
229.0967 -0.229219 351.666 0.08703131 0.994302 0.06155544 192 192 192 255 0.128586 0.598697
496.5127 -2.12156 417.9541 0.5244796 0.8444697 -0.1085916 192 192 192 255 0.231327 0.573187
491.377 -0.015662 395.1084 0.3454685 0.938076 -0.02578522 192 192 192 255 0.229354 0.581979
452.8809 3.186658 349.1602 0.03460254 0.9990287 0.02728222 192 192 192 255 0.211708 0.829969
467.6641 2.312385 78.28613 0.1072117 0.9911901 0.07776819 192 192 192 255 0.220244 0.703903
425.2344 -6.513747 3.333984 0.1571122 0.7439126 -0.6495458 192 192 192 255 0.203942 0.732747
129.6221 1.477039 39.6123 -0.03597363 0.99761 -0.05899393 192 192 192 255 0.090368 0.718786
138.2988 2.314763 16.0957 -0.05789587 0.9663867 -0.2504893 192 192 192 255 0.093702 0.727836
386.0254 0.574975 244.0234 -0.1842942 0.9326459 -0.310173 192 192 192 255 0.188878 0.640122
348.1074 -0.281125 247.4209 0.001362064 0.9962273 -0.08677222 192 192 192 255 0.17431 0.638814
0.016602 -1.603206 156.6543 -0.9080743 0.4187573 -0.006602615 192 192 192 255 0.040574 0.673744
0.847656 0.228615 357.6924 -0.7314846 0.6811373 0.03134287 192 192 192 255 0.040893 0.596378
-0.032227 -1.65474 326.3125 -0.9799628 0.1991806 0.0002254107 192 192 192 255 0.040555 0.608454
373.123 1.972606 476.3418 -0.08560988 0.9898658 0.113299 192 192 192 255 0.183921 0.550717
148.4854 3.207015 45.16797 -0.02593493 0.9995333 -0.01614024 192 192 192 255 0.073036 0.968456
499.8984 -22.78294 499.8467 0.578712 -0.5803213 0.5729918 192 192 192 255 0.232628 0.541672
1.017578 -5.473213 439.4541 -0.7786988 0.6232147 -0.07233047 192 192 192 255 0.040958 0.564913
368.9355 -0.921163 487.71 -0.07005092 0.8923942 0.4457862 192 192 192 255 0.182312 0.546342
76.86133 3.206171 47.11328 0.009071182 0.9999222 -0.008566665 192 192 192 255 0.040406 0.96757
232.6787 2.932278 410.3291 0.03772317 0.997751 -0.05540672 192 192 192 255 0.111391 0.802103
187.0566 2.945265 257.9131 0.01645288 0.9800161 -0.1982369 192 192 192 255 0.112435 0.634776
8.487305 3.192486 340.0615 -0.1817068 0.9833206 0.007957039 192 192 192 255 0.009258 0.834114
197.9883 3.206987 327.5049 0.03246927 0.9926464 0.1166144 192 192 192 255 0.095588 0.839834
335.8711 3.097272 8.072266 0.003050591 0.9825308 -0.1860753 192 192 192 255 0.169609 0.730924
389.9609 -1.240786 500.04 -0.1179804 0.6021342 0.7896298 192 192 192 255 0.19039 0.541597
251.0107 0.41634 395.0996 -0.1607546 0.9860311 -0.0435962 192 192 192 255 0.137006 0.581982
469.3369 2.448188 367.4199 0.04846348 0.9985892 0.0216997 192 192 192 255 0.219205 0.82165
400.7002 1.81998 15.53906 0.1160298 0.9717987 -0.2052913 192 192 192 255 0.187936 0.981954
213.0762 2.279783 347.1602 0.03789977 0.9930503 0.1114222 192 192 192 255 0.102461 0.83088
337.1113 -4.16576 495.5654 0.1359775 0.8751505 0.4643509 192 192 192 255 0.170086 0.543319
98.05859 -1.064506 11.48047 0.04625335 0.9702962 -0.2374571 192 192 192 255 0.078241 0.729612
371.4922 1.601355 229.3896 -0.05458966 0.9966019 0.06168155 192 192 192 255 0.183295 0.645753
434.5186 3.205262 386.9189 0.03015321 0.9990008 -0.03298966 192 192 192 255 0.203342 0.812767
433.3301 2.047603 17.41211 -0.1794156 0.9140781 -0.3636914 192 192 192 255 0.202801 0.981101
403.1875 -0.027384 499.8379 -0.03174174 0.6047862 0.7957551 192 192 192 255 0.195472 0.541675
1.066406 0.282636 459.877 -0.7224289 0.687259 -0.07597218 192 192 192 255 0.040977 0.557053
499.9043 -0.045287 323.3076 0.7957509 0.5870078 0.1490046 192 192 192 255 0.23263 0.60961
334.4434 3.207104 189.8301 0.03719677 0.9993075 -0.0010342 192 192 192 255 0.157752 0.902554
29.04688 3.204565 393.1396 -0.02522228 0.9987676 0.04274603 192 192 192 255 0.018624 0.809933
67.26758 0.77512 247.8994 -0.00918973 0.9972522 0.07350869 192 192 192 255 0.036036 0.876099
235.7852 0.473072 193.3564 0.1987113 0.9788389 0.04887019 192 192 192 255 0.131156 0.65962
312.6455 3.206969 472.8691 0.02282683 0.9992993 0.02966414 192 192 192 255 0.147821 0.773612
491.6504 3.199084 50.25195 0.2194267 0.9688458 0.1148462 192 192 192 255 0.22937 0.96614
495.2021 -22.47296 500.0107 -0.006992866 -0.6536642 0.7567525 192 192 192 255 0.230824 0.541608
170.4746 -1.464844 0.001953 -0.2081977 0.4635179 -0.861281 192 192 192 255 0.106064 0.73403
227.4209 3.047247 213.6924 0.1653147 0.9840651 0.06547606 192 192 192 255 0.108996 0.891683
353.2705 0.980982 212.4561 0.01995607 0.9997584 0.00922307 192 192 192 255 0.166329 0.892246
360.0928 1.089194 219.1299 -0.03688499 0.9991268 0.01962532 192 192 192 255 0.169437 0.889206
436.8057 -16.46698 0.019531 -0.01501566 0.02888828 -0.9994699 192 192 192 255 0.208388 0.734023
307.292 2.910174 492.3828 0.04783826 0.9792564 0.1968971 192 192 192 255 0.158629 0.544544
426.2764 3.207352 30.63672 -6.72497e-05 0.9996464 -0.02659311 192 192 192 255 0.199588 0.975076
91.73926 2.446533 42.28711 0.02239874 0.9885147 -0.1494559 192 192 192 255 0.047184 0.969769
0.515625 -0.104596 251.042 -0.7137715 0.7001467 -0.01802697 192 192 192 255 0.040766 0.63742
499.9824 -4.769281 120.9736 0.9072567 0.4088152 -0.09876936 192 192 192 255 0.232661 0.687475
51.66016 3.207165 432.3398 -0.008067505 0.9999667 0.001207614 192 192 192 255 0.028926 0.792075
497.29 -22.90161 59.92871 0.0239369 -0.9997126 -0.001310868 192 192 192 255 0.231626 0.710968
24.50391 3.2523 420.2539 -0.1092824 0.9939165 -0.01369095 192 192 192 255 0.016554 0.797581
241.9951 -1.88636 368.6279 -0.04544513 0.9989543 -0.005009135 192 192 192 255 0.133542 0.592169
241.4131 3.212314 304.2627 0.2302783 0.9730728 0.01005754 192 192 192 255 0.133318 0.616939
89.55957 3.10975 258.1895 0.004926817 0.9917009 -0.128472 192 192 192 255 0.046191 0.871412
1.063477 0.31551 65.63281 -0.6192452 0.7851517 0.008502754 192 192 192 255 0.040976 0.708773
258.5469 3.19416 364.1426 -0.3069842 0.9500877 -0.05562384 192 192 192 255 0.123176 0.823143
360.9961 2.491019 467.0225 0.008007563 0.989913 0.14145 192 192 192 255 0.179262 0.554304
77.24414 3.187349 27.4502 0.06615221 0.9936872 -0.09060694 192 192 192 255 0.070245 0.723467
10.24023 2.104602 453.9521 -0.2024998 0.9733903 -0.107262 192 192 192 255 0.010056 0.78223
101.9141 -5.181523 0.134766 0.02216873 0.5914857 -0.8060107 192 192 192 255 0.079723 0.733979
492.6689 -1.970836 409.2988 0.2675001 0.9624195 -0.04682494 192 192 192 255 0.229851 0.576518
188.3135 2.130136 334.542 0.06908362 0.9846644 0.1601981 192 192 192 255 0.09118 0.836628
391.5391 0.761352 1.908203 0.08477658 0.752705 -0.6528768 192 192 192 255 0.190997 0.733296
499.873 -22.79742 0.174805 0.578923 -0.5760745 -0.5770497 192 192 192 255 0.232618 0.733963
348.4189 3.216387 260.2559 -0.0004745349 0.998916 -0.04654719 192 192 192 255 0.164118 0.87047
499.9473 -0.093386 133.9492 0.7728419 0.630641 -0.07076289 192 192 192 255 0.232647 0.682482
249.9004 -0.111289 250.2891 -0.06362312 0.9961842 -0.05974202 192 192 192 255 0.136579 0.63771
140.0303 0.180066 250.126 0.0003804156 0.9999472 -0.01027007 192 192 192 255 0.094367 0.637773
493.5049 -0.021887 119.8037 0.3688425 0.9230002 -0.1096623 192 192 192 255 0.230172 0.687926
0.011719 -8.441801 417.125 -0.904254 0.4247653 -0.04358071 192 192 192 255 0.040572 0.573506
340.7852 1.512902 216.0615 0.196225 0.9790714 0.05399083 192 192 192 255 0.160641 0.890604
383.4189 2.458899 485.6074 -0.1405766 0.9666272 0.2141733 192 192 192 255 0.187877 0.547151
333.71 2.310194 167.0752 0.04254028 0.9990118 -0.01288257 192 192 192 255 0.157418 0.91292
451.7354 -8.62599 0.007813 -0.1057781 0.09904752 -0.9894446 192 192 192 255 0.214124 0.734027
300.8457 0.050293 250.0596 0.01911083 0.9913194 -0.1300799 192 192 192 255 0.156152 0.637799
491.3994 3.208267 489.9844 0.1412545 0.9831618 0.1159311 192 192 192 255 0.229255 0.765815
8.788086 -0.224117 428.2061 -0.4236186 0.9058406 0.0001138765 192 192 192 255 0.043944 0.569241
8.237305 2.263937 356.0781 -0.1810315 0.9817476 0.05830316 192 192 192 255 0.043732 0.596999
438.8066 1.975417 376.7354 0.07844793 0.9969173 0.001384577 192 192 192 255 0.205296 0.817407
370.5938 3.183708 158.0215 -0.08167422 0.9965907 0.01167672 192 192 192 255 0.174221 0.917045
0.15332 -1.513134 0.154297 -0.6216374 0.4677781 -0.6282918 192 192 192 255 0.040626 0.733971
499.0674 -4.997499 395.0811 0.7280536 0.6847712 -0.03203519 192 192 192 255 0.232309 0.581989
0.777344 0.123003 270.0625 -0.7002866 0.7138618 2.831844e-05 192 192 192 255 0.040866 0.630101
-0.004883 -1.666014 268.3271 -0.9806404 0.1958005 0.002586127 192 192 192 255 0.040566 0.630769
491.9971 3.067188 258.0596 0.1439791 0.9807559 -0.1318635 192 192 192 255 0.229593 0.63472
499.0674 -9.393472 59.38379 0.9686446 0.1964187 0.152143 192 192 192 255 0.232309 0.711177
147.7783 -19.79772 0.001953 -0.0004400257 -0.02545657 -0.9996759 192 192 192 255 0.097344 0.73403
153.9512 3.207248 362.5488 0.00540188 0.9999824 -0.002471964 192 192 192 255 0.075526 0.82387
247.9277 0.094488 0.540039 0.0014097 0.6507195 -0.759317 192 192 192 255 0.135821 0.733823
471.624 0.677423 380.7852 0.0874345 0.9960986 -0.01195109 192 192 192 255 0.221765 0.587491
8.53125 3.207782 240.2969 -0.1511097 0.9824801 0.1090808 192 192 192 255 0.009278 0.879563
401.042 3.207384 225.5127 -0.02404919 0.9994801 0.02147741 192 192 192 255 0.194648 0.647245
0.257813 -22.76069 101.4756 -0.7088762 -0.7053317 0.001349498 192 192 192 255 0.040666 0.694979
246.9785 0.442819 333.3877 0.02557045 0.9981673 0.05484807 192 192 192 255 0.135456 0.605731
53.66309 2.976553 7.78418 0.05286977 0.976193 -0.2103619 192 192 192 255 0.029838 0.985487
258.5332 3.208128 240.0664 -0.1444178 0.9833616 0.1101973 192 192 192 255 0.12317 0.879668
499.8447 -0.294272 0.19043 0.6154879 0.4929998 -0.6149195 192 192 192 255 0.232608 0.733957
314.9688 -0.073111 499.8018 0.1042133 0.6598413 0.7441431 192 192 192 255 0.161578 0.541689
221.6299 -0.798128 251.9775 -0.001892139 0.95459 -0.297917 192 192 192 255 0.125718 0.63706
460.3877 2.283308 93.13965 0.0804871 0.9965894 -0.01820212 192 192 192 255 0.217448 0.698187
492.749 -3.487316 76.33789 0.5462437 0.8268982 -0.1336307 192 192 192 255 0.229881 0.704653
466.3643 1.824607 361.3682 0.02191909 0.999405 -0.02663333 192 192 192 255 0.21785 0.824407
8.644531 3.208345 10.0459 -0.1938447 0.9679696 -0.1595592 192 192 192 255 0.009329 0.984457
499.8818 -22.81704 340.5518 0.7137691 -0.7003805 0.0009406056 192 192 192 255 0.232622 0.602974
486.3457 1.067395 354.5361 0.2024504 0.9781884 0.04648994 192 192 192 255 0.227421 0.597592
358.6309 -8.402401 497.2734 0.08611139 0.7247457 0.6836143 192 192 192 255 0.178353 0.542662
256.4639 1.30265 358.958 -0.3665053 0.9290696 0.05003504 192 192 192 255 0.139101 0.595891
-0.030273 -21.50671 1.723633 -0.6794082 -0.5347918 -0.5023964 192 192 192 255 0.040556 0.733367
6.649414 -22.9005 4.591797 -0.1023537 -0.9944113 -0.02587954 192 192 192 255 0.043122 0.732263
18.84863 1.461007 409.3965 -0.2679226 0.9629145 -0.03183021 192 192 192 255 0.013978 0.802527
257.6084 2.95545 257.8545 -0.1357158 0.9792903 -0.1502392 192 192 192 255 0.13954 0.634799
492 3.084962 8.085938 0.1532078 0.9763418 -0.152591 192 192 192 255 0.229529 0.98535
318.6807 3.205819 158.9541 0.02546913 0.9996729 -0.002339298 192 192 192 255 0.150571 0.91662
489.7402 -1.508533 380.9521 0.3093324 0.9502293 -0.03711677 192 192 192 255 0.228725 0.587426
450.0371 -22.9005 4.769531 0.0004076644 -0.9999536 -0.009628107 192 192 192 255 0.213472 0.732195
428.3594 -22.82498 0.567383 0.0002282949 -0.7323112 -0.6809701 192 192 192 255 0.205143 0.733812
340.2031 3.206962 22.76367 0.003744241 0.9999686 -0.006994891 192 192 192 255 0.160376 0.978663
235.708 -1.06865 377.1123 0.1525278 0.9859083 -0.06870368 192 192 192 255 0.131126 0.588904
197.6904 1.250498 358.8145 0.06372483 0.997031 -0.04322487 192 192 192 255 0.095452 0.825571
0.178711 -0.019101 499.8535 -0.6069068 0.5079362 0.6112813 192 192 192 255 0.040636 0.541669
400.8672 3.207379 240.3193 -0.05699568 0.9916144 0.1159846 192 192 192 255 0.188012 0.879553
491.3438 3.216991 239.8623 0.1465361 0.9845653 0.09569976 192 192 192 255 0.22923 0.879761
250.8281 0.357154 163.9795 -0.05682205 0.9979876 0.0281454 192 192 192 255 0.136936 0.670925
333.2197 -0.47984 489.9785 -0.09383063 0.8724404 0.4796285 192 192 192 255 0.16859 0.545469
320.2715 -2.643722 500.0049 0.1250373 0.3139334 0.9411756 192 192 192 255 0.163616 0.541611
246.5254 1.232612 225.9648 0.06270375 0.9974834 0.03309357 192 192 192 255 0.135282 0.647071
257.0645 2.740113 491.7832 -0.1488771 0.9799513 0.132405 192 192 192 255 0.139331 0.544775
0.976563 0.269658 222.2295 -0.6706463 0.7417773 0.0002092707 192 192 192 255 0.040943 0.648509
111.7988 0.040479 18.81543 -0.05300003 0.9903476 -0.128073 192 192 192 255 0.083521 0.72679
241.4424 3.208078 9.916016 0.1733533 0.9779081 -0.1168099 192 192 192 255 0.13333 0.730214
258.5332 3.208128 240.0664 -0.1444178 0.9833616 0.1101973 192 192 192 255 0.139896 0.641644
8.644531 3.208345 10.0459 -0.1938447 0.9679696 -0.1595592 192 192 192 255 0.043889 0.730164
8.613281 3.209911 490.0527 -0.1419244 0.9834511 0.1126113 192 192 192 255 0.043877 0.545441
89.55957 3.10975 258.1895 0.004926817 0.9917009 -0.128472 192 192 192 255 0.074976 0.63467
7.613281 2.956524 257.8672 -0.1509306 0.9750584 -0.16273 192 192 192 255 0.043492 0.634794
491.6504 3.199084 50.25195 0.2194267 0.9688458 0.1148462 192 192 192 255 0.229459 0.714692
491.3438 3.216991 239.8623 0.1465361 0.9845653 0.09569976 192 192 192 255 0.229342 0.641723
491.6738 3.205163 322.1572 0.2118776 0.9747625 0.07032746 192 192 192 255 0.229468 0.610053
412.9346 3.147101 23.37207 0.02742506 0.983079 -0.181118 192 192 192 255 0.199217 0.725036
433.3301 2.047603 17.41211 -0.1794156 0.9140781 -0.3636914 192 192 192 255 0.207053 0.72733
196.7207 1.862581 236.0098 0.07626858 0.98897 0.1269708 192 192 192 255 0.09501 0.881516
478.6729 3.19466 422.3525 0.1153671 0.9912093 -0.06476504 192 192 192 255 0.223458 0.796625
491.3994 3.208267 489.9844 0.1412545 0.9831618 0.1159311 192 192 192 255 0.229363 0.545467
300.7666 3.206731 230.2725 0.02842593 0.9975103 0.06453788 192 192 192 255 0.156122 0.645413
492 3.084962 8.085938 0.1532078 0.9763418 -0.152591 192 192 192 255 0.229594 0.730919
8.487305 3.192486 340.0615 -0.1817068 0.9833206 0.007957039 192 192 192 255 0.043828 0.603163
324.1279 1.544201 483.748 0.09580724 0.9812266 0.167378 192 192 192 255 0.153052 0.768656
307.292 2.910174 492.3828 0.04783826 0.9792564 0.1968971 192 192 192 255 0.145382 0.764722
257.0645 2.740113 491.7832 -0.1488771 0.9799513 0.132405 192 192 192 255 0.122501 0.764995
260.792 3.223564 359.9385 -0.1540386 0.9877733 -0.02400031 192 192 192 255 0.140764 0.595513
445.7705 3.016885 7.897461 -0.2543179 0.8919652 -0.373792 192 192 192 255 0.211832 0.730991
491.4541 3.201324 150.4756 0.1830646 0.9829507 -0.0171867 192 192 192 255 0.229384 0.676122
53.66309 2.976553 7.78418 0.05286977 0.976193 -0.2103619 192 192 192 255 0.061185 0.731035
401.042 3.207384 225.5127 -0.02404919 0.9994801 0.02147741 192 192 192 255 0.188092 0.886298
171.373 3.207339 10.08594 -0.08059461 0.9727025 -0.2176106 192 192 192 255 0.083463 0.984438
468.5156 3.205113 398.7686 0.07959107 0.9952899 -0.05534725 192 192 192 255 0.21883 0.807369
258.5469 3.19416 364.1426 -0.3069842 0.9500877 -0.05562384 192 192 192 255 0.139901 0.593895
360.9961 2.491019 467.0225 0.008007563 0.989913 0.14145 192 192 192 255 0.169848 0.776275
227.915 2.735653 331.3223 0.0636086 0.9953704 0.07205351 192 192 192 255 0.109221 0.838095
400.8672 3.207379 240.3193 -0.05699568 0.9916144 0.1159846 192 192 192 255 0.19458 0.641547
241.415 3.204145 417.374 0.1393992 0.9899245 -0.02484763 192 192 192 255 0.115371 0.798893
404.8945 2.897375 492.4307 -0.03600024 0.9779239 0.205837 192 192 192 255 0.196128 0.544526
335.8711 3.097272 8.072266 0.003050591 0.9825308 -0.1860753 192 192 192 255 0.158402 0.985356
258.627 3.209098 10.13184 -0.1082815 0.9872536 -0.1166422 192 192 192 255 0.123212 0.984417
467.6641 2.312385 78.28613 0.1072117 0.9911901 0.07776819 192 192 192 255 0.218442 0.953369
161.8994 3.062505 241.6914 0.005893321 0.9853013 0.1707237 192 192 192 255 0.102769 0.641019
183.6885 3.017528 236.6045 0.04852022 0.9934264 0.1036814 192 192 192 255 0.11114 0.642977
460.3877 2.283308 93.13965 0.0804871 0.9965894 -0.01820212 192 192 192 255 0.215128 0.946602
371.4922 1.601355 229.3896 -0.05458966 0.9966019 0.06168155 192 192 192 255 0.17463 0.884532
241.3467 3.210124 162.1846 0.1584642 0.9865623 0.03979842 192 192 192 255 0.133293 0.671616
231.584 2.112796 192.626 0.23036 0.9721972 0.04203321 192 192 192 255 0.110893 0.90128
18.63379 1.4637 437.1035 -0.1801445 0.9833913 -0.02212639 192 192 192 255 0.047727 0.565817
476.8271 3.190169 131.4795 0.05589474 0.9971315 -0.05103589 192 192 192 255 0.223764 0.683432
19.94727 3.153903 364.0068 -0.06542899 0.9975915 0.02302868 192 192 192 255 0.014478 0.823205
470.7412 2.525794 115.7227 0.06109931 0.99808 -0.01016226 192 192 192 255 0.219844 0.936314
67.26758 0.77512 247.8994 -0.00918973 0.9972522 0.07350869 192 192 192 255 0.066412 0.63863
20.97559 2.805385 392.9141 -0.1914116 0.9792561 0.06647696 192 192 192 255 0.014947 0.810036
241.4131 3.212314 304.2627 0.2302783 0.9730728 0.01005754 192 192 192 255 0.11537 0.850423
225.041 2.274902 379.9082 0.1447427 0.9875017 -0.06236893 192 192 192 255 0.127028 0.587828
340.7852 1.512902 216.0615 0.196225 0.9790714 0.05399083 192 192 192 255 0.171497 0.650882
227.4209 3.047247 213.6924 0.1653147 0.9840651 0.06547606 192 192 192 255 0.127942 0.651794
373.123 1.972606 476.3418 -0.08560988 0.9898658 0.113299 192 192 192 255 0.175373 0.77203
383.4189 2.458899 485.6074 -0.1405766 0.9666272 0.2141733 192 192 192 255 0.180063 0.767809
486.3457 1.067395 354.5361 0.2024504 0.9781884 0.04648994 192 192 192 255 0.226953 0.82752
490.0381 1.248169 342.8545 0.3745493 0.9159849 0.1438214 192 192 192 255 0.228635 0.832842
469.3369 2.448188 367.4199 0.04846348 0.9985892 0.0216997 192 192 192 255 0.220886 0.592634
438.8066 1.975417 376.7354 0.07844793 0.9969173 0.001384577 192 192 192 255 0.209157 0.589049
77.24414 3.187349 27.4502 0.06615221 0.9936872 -0.09060694 192 192 192 255 0.040581 0.976528
129.6221 1.477039 39.6123 -0.03597363 0.99761 -0.05899393 192 192 192 255 0.064442 0.970987
228.209 3.206972 319.502 0.03753181 0.9986294 0.0364789 192 192 192 255 0.128245 0.611075
434.5186 3.205262 386.9189 0.03015321 0.9990008 -0.03298966 192 192 192 255 0.207509 0.58513
471.4434 2.651707 102.7666 0.047528 0.9982821 -0.03426322 192 192 192 255 0.220164 0.942217
486.7051 1.478598 95.98633 0.2704655 0.9614691 -0.04924977 192 192 192 255 0.227117 0.945305
491.5459 3.157471 439.9277 0.1889141 0.9813638 -0.03516636 192 192 192 255 0.229419 0.564731
337.1416 3.191457 217.4482 0.2773964 0.9538415 0.1150548 192 192 192 255 0.158981 0.889972
10.24023 2.104602 453.9521 -0.2024998 0.9733903 -0.107262 192 192 192 255 0.044502 0.559333
197.6904 1.250498 358.8145 0.06372483 0.997031 -0.04322487 192 192 192 255 0.11652 0.595946
198.2119 3.204273 379.0098 0.02446656 0.9989557 -0.03858726 192 192 192 255 0.11672 0.588174
138.2988 2.314763 16.0957 -0.05789587 0.9663867 -0.2504893 192 192 192 255 0.068395 0.981701
122.6143 1.315706 20.43848 -0.09774026 0.986931 -0.1281177 192 192 192 255 0.06125 0.979722
91.73926 2.446533 42.28711 0.02239874 0.9885147 -0.1494559 192 192 192 255 0.075814 0.717757
18.84863 1.461007 409.3965 -0.2679226 0.9629145 -0.03183021 192 192 192 255 0.047809 0.57648
232.6787 2.932278 410.3291 0.03772317 0.997751 -0.05540672 192 192 192 255 0.129963 0.576121
213.0762 2.279783 347.1602 0.03789977 0.9930503 0.1114222 192 192 192 255 0.122431 0.600431
289.7324 2.971956 242.0742 0.0351248 0.9819024 0.1861019 192 192 192 255 0.137383 0.878753
8.53125 3.207782 240.2969 -0.1511097 0.9824801 0.1090808 192 192 192 255 0.043845 0.641556
257.6084 2.95545 257.8545 -0.1357158 0.9792903 -0.1502392 192 192 192 255 0.122748 0.871564
256.4639 1.30265 358.958 -0.3665053 0.9290696 0.05003504 192 192 192 255 0.122227 0.825505
8.237305 2.263937 356.0781 -0.1810315 0.9817476 0.05830316 192 192 192 255 0.009144 0.826817
353.2705 0.980982 212.4561 0.01995607 0.9997584 0.00922307 192 192 192 255 0.176294 0.65227
360.0928 1.089194 219.1299 -0.03688499 0.9991268 0.01962532 192 192 192 255 0.178915 0.649701
24.50391 3.2523 420.2539 -0.1092824 0.9939165 -0.01369095 192 192 192 255 0.049982 0.572302
241.2451 3.206949 258.2295 0.1230779 0.9769892 -0.1741952 192 192 192 255 0.115294 0.871393
187.0566 2.945265 257.9131 0.01645288 0.9800161 -0.1982369 192 192 192 255 0.090607 0.871538
391.1025 2.328753 8.543945 0.09202201 0.9833322 -0.1568114 192 192 192 255 0.190829 0.730742
400.7002 1.81998 15.53906 0.1160298 0.9717987 -0.2052913 192 192 192 255 0.194516 0.72805
391.5391 0.761352 1.908203 0.08477658 0.752705 -0.6528768 192 192 192 255 0.183762 0.988164
491.9971 3.067188 258.0596 0.1439791 0.9807559 -0.1318635 192 192 192 255 0.229528 0.871471
241.3945 3.205758 489.957 0.1415227 0.983157 0.1156449 192 192 192 255 0.115362 0.765827
3 0 231 1 
3 110 243 244 
3 231 237 1 
3 75 84 160 
3 12 226 170 
3 120 187 158 
3 131 213 85 
3 203 11 53 
3 4 131 62 
3 20 18 132 
3 198 149 29 
3 118 54 55 
3 217 225 135 
3 225 213 135 
3 161 16 209 
3 29 68 198 
3 39 171 86 
3 220 166 249 
3 158 187 13 
3 90 233 10 
3 187 80 13 
3 176 9 138 
3 3 142 71 
3 211 66 252 
3 26 63 167 
3 140 100 32 
3 219 103 98 
3 242 78 84 
3 86 171 27 
3 89 167 7 
3 234 167 159 
3 211 100 16 
3 234 6 167 
3 196 219 186 
3 184 60 65 
3 176 5 60 
3 219 98 186 
3 237 172 1 
3 206 127 69 
3 107 22 28 
3 235 26 218 
3 253 189 106 
3 37 50 34 
3 50 45 40 
3 23 203 254 
3 152 242 255 
3 242 14 255 
3 60 139 176 
3 189 101 216 
3 62 131 85 
3 114 8 115 
3 221 108 137 
3 256 169 257 
3 205 128 257 
3 236 88 119 
3 85 213 156 
3 179 246 76 
3 247 84 75 
3 258 121 103 
3 73 35 191 
3 141 75 160 
3 59 12 170 
3 59 188 259 
3 11 209 53 
3 203 23 11 
3 153 59 207 
3 15 187 120 
3 3 220 249 
3 14 3 71 
3 207 260 153 
3 150 70 167 
3 52 26 167 
3 6 150 167 
3 21 219 196 
3 122 261 262 
3 62 116 263 
3 47 4 24 
3 55 18 20 
3 74 264 198 
3 18 55 265 
3 218 77 154 
3 154 193 163 
3 81 266 31 
3 146 41 220 
3 228 146 75 
3 176 155 5 
3 167 63 7 
3 219 267 103 
3 157 57 61 
3 257 128 268 
3 158 29 149 
3 46 19 165 
3 269 158 270 
3 13 271 270 
3 216 30 117 
3 216 117 174 
3 83 272 233 
3 119 204 236 
3 87 20 226 
3 170 226 72 
3 103 267 258 
3 136 39 86 
3 267 21 273 
3 94 262 273 
3 188 274 259 
3 19 196 165 
3 51 73 67 
3 146 246 41 
3 227 95 82 
3 95 153 260 
3 23 104 11 
3 23 254 275 
3 11 182 209 
3 24 62 162 
3 4 62 24 
3 114 115 221 
3 214 148 125 
3 37 34 276 
3 118 55 20 
3 51 222 79 
3 89 7 38 
3 2 124 44 
3 4 277 131 
3 91 107 28 
3 264 278 198 
3 178 271 13 
3 83 229 272 
3 279 142 249 
3 229 142 279 
3 45 195 154 
3 104 23 275 
3 189 221 101 
3 171 42 27 
3 93 7 202 
3 158 280 29 
3 242 152 78 
3 96 251 17 
3 171 173 42 
3 184 145 281 
3 139 60 184 
3 64 184 281 
3 214 125 282 
3 243 37 276 
3 283 136 86 
3 202 105 45 
3 189 61 248 
3 268 128 200 
3 126 31 197 
3 31 266 197 
3 197 266 106 
3 122 19 46 
3 262 94 19 
3 99 206 69 
3 284 151 265 
3 75 141 194 
3 130 179 76 
3 56 285 239 
3 285 286 239 
3 26 286 218 
3 70 52 167 
3 159 113 287 
3 288 115 289 
3 191 188 170 
3 25 170 72 
3 287 89 290 
3 17 251 123 
3 221 33 114 
3 34 291 276 
3 40 164 291 
3 183 88 54 
3 204 20 87 
3 208 72 102 
3 157 292 36 
3 47 24 293 
3 107 128 22 
3 128 205 129 
3 184 65 49 
3 294 199 133 
3 5 171 39 
3 188 191 274 
3 191 295 274 
3 95 227 236 
3 227 212 236 
3 176 296 155 
3 120 158 111 
3 174 240 142 
3 46 165 16 
3 62 85 116 
3 63 109 105 
3 297 38 93 
3 38 7 93 
3 43 92 39 
3 130 76 134 
3 92 5 39 
3 40 291 34 
3 34 50 40 
3 221 115 108 
3 190 298 256 
3 112 99 69 
3 216 101 175 
3 95 236 87 
3 177 127 254 
3 112 69 192 
3 252 66 44 
3 104 275 180 
3 155 299 232 
3 199 192 133 
3 56 239 52 
3 245 292 157 
3 280 158 269 
3 75 134 228 
3 131 48 213 
3 90 126 233 
3 125 126 90 
3 51 121 222 
3 300 139 64 
3 139 184 64 
3 210 5 92 
3 65 210 92 
3 145 184 49 
3 194 151 284 
3 191 35 295 
3 202 45 50 
3 202 50 37 
3 15 120 58 
3 95 260 82 
3 229 174 142 
3 224 120 111 
3 224 111 201 
3 147 104 180 
3 104 147 182 
3 97 135 48 
3 135 213 48 
3 146 220 247 
3 70 144 52 
3 117 301 240 
3 126 302 31 
3 233 126 197 
3 36 303 57 
3 146 247 75 
3 29 304 305 
3 194 130 134 
3 1 226 132 
3 106 189 197 
3 172 102 226 
3 306 224 143 
3 307 58 224 
3 158 13 270 
3 308 309 212 
3 168 310 135 
3 245 157 61 
3 61 253 245 
3 217 135 310 
3 8 289 115 
3 307 224 306 
3 311 48 131 
3 311 97 48 
3 65 92 241 
3 209 16 53 
3 203 53 230 
3 61 189 253 
3 96 124 2 
3 51 208 103 
3 303 8 57 
3 73 191 25 
3 68 29 305 
3 94 21 196 
3 94 196 19 
3 15 58 307 
3 216 175 312 
3 309 313 212 
3 236 212 88 
3 223 67 72 
3 67 25 72 
3 314 38 297 
3 315 314 297 
3 57 114 33 
3 262 19 122 
3 73 51 79 
3 55 54 316 
3 229 83 174 
3 134 76 228 
3 133 192 78 
3 109 195 105 
3 109 26 235 
3 182 147 251 
3 193 154 317 
3 154 77 317 
3 239 26 52 
3 66 161 44 
3 58 120 224 
3 182 2 209 
3 2 161 209 
3 104 182 11 
3 311 168 97 
3 27 181 86 
3 152 255 318 
3 152 133 78 
3 133 152 294 
3 278 149 198 
3 90 10 282 
3 83 216 174 
3 117 319 320 
3 93 202 37 
3 302 81 31 
3 21 94 273 
3 146 228 76 
3 125 148 126 
3 155 232 5 
3 117 240 174 
3 10 233 207 
3 197 189 233 
3 40 45 164 
3 63 26 109 
3 1 172 226 
3 0 1 84 
3 118 183 54 
3 208 102 98 
3 27 42 181 
3 152 318 294 
3 165 196 186 
3 100 140 185 
3 183 118 204 
3 119 183 204 
3 300 176 139 
3 216 312 30 
3 253 32 245 
3 113 167 89 
3 113 89 287 
3 127 250 254 
3 96 182 251 
3 177 203 127 
3 111 158 149 
3 201 111 149 
3 53 16 231 
3 117 320 301 
3 41 246 179 
3 192 69 78 
3 204 87 236 
3 131 321 311 
3 3 84 247 
3 142 240 71 
3 321 322 311 
3 203 177 254 
3 69 0 84 
3 147 323 123 
3 5 173 171 
3 96 17 124 
3 238 186 237 
3 16 165 238 
3 277 321 131 
3 147 180 323 
3 219 21 267 
3 110 37 243 
3 172 98 102 
3 297 93 37 
3 248 57 33 
3 43 39 136 
3 248 61 57 
3 144 56 52 
3 237 186 172 
3 16 237 231 
3 7 105 202 
3 251 147 123 
3 324 22 112 
3 28 22 324 
3 141 151 194 
3 73 25 67 
3 224 201 143 
3 240 301 325 
3 71 240 325 
3 59 153 12 
3 142 3 249 
3 49 65 241 
3 218 154 235 
3 3 242 84 
3 30 326 117 
3 245 252 292 
3 10 59 259 
3 218 327 77 
3 190 256 137 
3 298 169 256 
3 169 298 328 
3 157 36 57 
3 167 113 159 
3 1 132 160 
3 211 32 100 
3 211 245 32 
3 44 161 2 
3 22 99 112 
3 211 252 245 
3 191 170 25 
3 182 96 2 
3 161 211 16 
3 66 211 161 
3 187 329 80 
3 330 178 80 
3 194 134 75 
3 51 67 223 
3 164 45 163 
3 125 90 282 
3 127 215 69 
3 151 18 265 
3 151 141 160 
3 18 151 160 
3 105 195 45 
3 155 296 299 
3 138 331 296 
3 176 138 296 
3 332 302 333 
3 165 186 238 
3 210 60 5 
3 238 237 16 
3 195 109 235 
3 195 235 154 
3 20 132 226 
3 12 87 226 
3 95 87 12 
3 207 59 10 
3 334 199 294 
3 91 200 107 
3 60 210 65 
3 33 221 189 
3 33 189 248 
3 216 83 233 
3 101 221 137 
3 335 336 300 
3 336 176 300 
3 333 302 126 
3 118 20 204 
3 80 178 13 
3 29 280 304 
3 333 126 148 
3 22 128 99 
3 128 129 99 
3 129 205 206 
3 129 206 99 
3 122 337 338 
3 122 185 337 
3 127 230 215 
3 127 203 230 
3 57 8 114 
3 339 285 56 
3 293 24 162 
3 7 63 105 
3 290 89 38 
3 187 15 340 
3 188 59 170 
3 154 163 45 
3 115 190 137 
3 288 190 115 
3 190 288 298 
3 199 112 192 
3 166 220 41 
3 153 95 12 
3 112 199 324 
3 169 205 257 
3 205 169 206 
3 97 168 135 
3 186 98 172 
3 119 88 183 
3 10 259 282 
3 324 199 334 
3 103 208 98 
3 215 0 69 
3 250 169 328 
3 169 250 206 
3 115 137 108 
3 212 313 88 
3 185 122 46 
3 46 16 100 
3 230 231 215 
3 215 231 0 
3 103 121 51 
3 189 216 233 
3 55 316 265 
3 220 3 247 
3 122 338 261 
3 51 223 208 
3 128 107 200 
3 145 49 241 
3 250 328 254 
3 5 232 173 
3 72 226 102 
3 227 308 212 
3 314 290 38 
3 230 53 231 
3 326 319 117 
3 84 78 69 
3 340 329 187 
3 208 223 72 
3 239 286 26 
3 14 242 3 
3 283 86 341 
3 100 185 46 
3 246 146 76 
3 1 160 84 
3 18 160 132 
3 162 62 263 
3 250 127 206 
