ply
format ascii 1.0
comment VCGLIB generated
comment TextureFile Dungeons_2_Texture_01_A.png
element vertex 55
property float x
property float y
property float z
property float nx
property float ny
property float nz
property uchar red
property uchar green
property uchar blue
property uchar alpha
property float texture_u
property float texture_v
element face 62
property list uchar int vertex_indices
end_header
0 1.5e-05 8.725494 0.0001915408 -0.0001901679 1 192 192 192 255 0.200095 0.764226
-0.017761 75.33035 8.725372 0.01179974 -0.0003768313 0.9999303 192 192 192 255 0.200083 0.815801
0 0 -8.644012 0.0002927533 -0.0002931317 -0.9999999 192 192 192 255 0.200095 0.764226
0.208984 75.21707 -8.644012 0.008861536 -0.000146439 -0.9999608 192 192 192 255 0.200238 0.815723
-0.012207 86.80939 13.74911 0.999288 0.0342954 0.01572531 192 192 192 255 0.200086 0.82366
-0.010529 86.80939 -13.74911 0.02427219 0.9997038 -0.001814541 192 192 192 255 0.210305 0.853342
-0.010529 75.34485 13.74911 0.1994403 -0.00347973 0.9799038 192 192 192 255 0.200088 0.815811
-0.012207 75.34485 -13.74911 0.9975299 -0.03463132 -0.06111275 192 192 192 255 0.200086 0.815811
-168.5894 75.33035 8.725372 -0.1147027 0.06495585 0.991274 192 192 192 255 0.084671 0.815801
-161.9001 86.80939 12.26825 -0.8628005 0.4719087 0.1813219 192 192 192 255 0.079676 0.832349
-167.6545 75.34485 13.74911 -0.883058 0.4340461 0.178361 192 192 192 255 0.085311 0.815811
-69.30853 75.33035 8.725372 -6.524076e-11 -0.000330552 1 192 192 192 255 0.152643 0.815801
-90.56232 75.21707 -8.644012 0 -0.0004391894 -0.9999999 192 192 192 255 0.138092 0.815723
-84.2608 86.80939 14.31038 -0.001505174 0.8941289 0.4478073 192 192 192 255 0.142323 0.830701
-100.1161 86.80939 -14.31038 -0.008898119 0.997014 -0.07670585 192 192 192 255 0.12953 0.853795
-63.15533 75.34485 13.74911 -4.712322e-05 -0.01059009 0.9999439 192 192 192 255 0.156856 0.815811
-96.86151 75.34485 -13.74911 -0.002436867 -0.7023652 -0.7118127 192 192 192 255 0.133779 0.815811
-11.86206 86.80939 13.84787 -0.1615825 0.3036683 0.9389764 192 192 192 255 0.191974 0.82366
-52.22552 86.80939 14.18426 0.1190317 0.4068342 0.9057138 192 192 192 255 0.164339 0.82366
-28.18744 86.80939 10.98894 0.0008990972 0.9941632 0.1078826 192 192 192 255 0.187569 0.833381
-25.25867 79.79617 13.74911 0.004098289 0.1946412 0.980866 192 192 192 255 0.182802 0.818858
-151.2394 86.80939 -8.300126 -0.3178459 0.5059147 -0.8018879 192 192 192 255 0.088278 0.848946
-145.0049 82.81965 -12.86517 -0.08752055 0.6857012 -0.7226023 192 192 192 255 0.100818 0.820928
-144.4212 75.34485 -13.74911 -0.180142 -0.2867953 -0.9409024 192 192 192 255 0.101217 0.815811
-153.3419 75.21707 -8.644012 -0.5997688 0.174126 -0.7809978 192 192 192 255 0.09511 0.815723
-212.2925 0 -8.644012 -0.7897134 0.4407895 -0.4266818 192 192 192 255 0.054749 0.764226
-215.1555 1.5e-05 8.725494 -0.926711 0.3446538 -0.149735 192 192 192 255 0.052789 0.764226
-159.4635 57.68297 -8.644012 -0.4881162 0.3609038 -0.7946641 192 192 192 255 0.090919 0.803718
-183.863 39.21959 -8.644012 -0.6163868 0.5432818 -0.5700108 192 192 192 255 0.074214 0.791077
-201.8691 35.41503 8.725437 -0.7202652 0.4788398 0.5019268 192 192 192 255 0.061886 0.788473
-177.9737 59.47252 8.725398 -0.2646315 0.2176923 0.9394574 192 192 192 255 0.078246 0.804944
-166.5786 73.69302 1.235967 -0.651149 0.3009053 -0.6967503 192 192 192 255 0.266484 0.838952
-172.1758 56.73621 -2.41892 -0.5757499 0.4786496 -0.6628774 192 192 192 255 0.270544 0.820114
-0.010529 86.80939 -13.74911 0.02427219 0.9997038 -0.001814541 192 192 192 255 0.200088 0.82366
-100.1161 86.80939 -14.31038 -0.008898119 0.997014 -0.07670585 192 192 192 255 0.131551 0.82366
-84.2608 86.80939 14.31038 -0.001505174 0.8941289 0.4478073 192 192 192 255 0.142406 0.82366
-161.9001 86.80939 12.26825 -0.8628005 0.4719087 0.1813219 192 192 192 255 0.08925 0.82366
-28.18744 86.80939 10.98894 0.0008990972 0.9941632 0.1078826 192 192 192 255 0.180796 0.82366
-52.22552 86.80939 14.18426 0.1190317 0.4068342 0.9057138 192 192 192 255 0.168173 0.830803
-0.012207 86.80939 13.74911 0.999288 0.0342954 0.01572531 192 192 192 255 0.210303 0.831154
-11.86206 86.80939 13.84787 -0.1615825 0.3036683 0.9389764 192 192 192 255 0.200742 0.831074
-151.2394 86.80939 -8.300126 -0.3178459 0.5059147 -0.8018879 192 192 192 255 0.096549 0.82366
-183.863 39.21959 -8.644012 -0.6163868 0.5432818 -0.5700108 192 192 192 255 0.27746 0.800654
-201.8691 35.41503 8.725437 -0.7202652 0.4788398 0.5019268 192 192 192 255 0.258163 0.796427
-177.9737 59.47252 8.725398 -0.2646315 0.2176923 0.9394574 192 192 192 255 0.258164 0.823154
-161.9001 86.80939 12.26825 -0.8628005 0.4719087 0.1813219 192 192 192 255 0.254228 0.853523
-168.5894 75.33035 8.725372 -0.1147027 0.06495585 0.991274 192 192 192 255 0.258164 0.840771
-167.6545 75.34485 13.74911 -0.883058 0.4340461 0.178361 192 192 192 255 0.252213 0.84237
-151.2394 86.80939 -8.300126 -0.3178459 0.5059147 -0.8018879 192 192 192 255 0.277078 0.853523
-153.3419 75.21707 -8.644012 -0.5997688 0.174126 -0.7809978 192 192 192 255 0.27746 0.840645
-145.0049 82.81965 -12.86517 -0.08752055 0.6857012 -0.7226023 192 192 192 255 0.282149 0.849091
-144.4212 75.34485 -13.74911 -0.180142 -0.2867953 -0.9409024 192 192 192 255 0.283132 0.840787
-212.2925 0 -8.644012 -0.7897134 0.4407895 -0.4266818 192 192 192 255 0.27746 0.757083
-215.1555 1.5e-05 8.725494 -0.926711 0.3446538 -0.149735 192 192 192 255 0.258163 0.757083
-159.4635 57.68297 -8.644012 -0.4881162 0.3609038 -0.7946641 192 192 192 255 0.27746 0.821166
3 0 1 11 
3 3 2 12 
3 19 5 14 
3 1 6 15 
3 1 15 11 
3 6 20 15 
3 7 3 12 
3 7 12 16 
3 33 7 16 
3 33 16 34 
3 1 0 2 
3 1 2 3 
3 33 4 1 
3 33 1 3 
3 1 4 6 
3 3 7 33 
3 13 14 21 
3 13 21 9 
3 11 15 10 
3 11 10 8 
3 15 35 36 
3 15 36 10 
3 18 20 37 
3 37 20 17 
3 6 4 17 
3 6 17 20 
3 15 20 18 
3 15 18 35 
3 19 14 13 
3 19 13 38 
3 39 5 19 
3 39 19 40 
3 34 22 41 
3 34 16 23 
3 34 23 22 
3 16 12 24 
3 16 24 23 
3 2 25 28 
3 2 28 27 
3 2 27 24 
3 2 24 12 
3 2 0 26 
3 2 26 25 
3 26 0 11 
3 26 11 29 
3 29 11 30 
3 11 8 30 
3 42 43 44 
3 45 46 47 
3 48 31 46 
3 48 46 45 
3 49 48 50 
3 49 50 51 
3 31 44 46 
3 42 44 32 
3 43 52 53 
3 42 52 43 
3 49 31 48 
3 54 31 49 
3 42 32 54 
3 32 44 31 
3 54 32 31 
