ply
format ascii 1.0
comment VCGLIB generated
comment TextureFile Dungeons_2_Texture_01_A.png
element vertex 412
property float x
property float y
property float z
property float nx
property float ny
property float nz
property uchar red
property uchar green
property uchar blue
property uchar alpha
property float texture_u
property float texture_v
element face 500
property list uchar int vertex_indices
end_header
384.7041 -2.903287 195.2666 -0.1303027 0.9911322 0.02604146 192 192 192 255 0.430583 0.892638
71.24316 1.112494 323.9873 -0.1952173 0.9777296 0.07703935 192 192 192 255 0.037847 0.841437
19.47363 -0.105025 21.45996 0.0593868 0.9969135 0.05134865 192 192 192 255 0.014262 0.979257
458.3389 -4.071496 323.9727 0.05935346 0.9979887 -0.02226778 192 192 192 255 0.216661 0.609354
329.7314 -2.901948 60.84082 0.05079114 0.9925211 -0.1110052 192 192 192 255 0.155605 0.961316
220.6855 -12.18028 0.005859 0.001396593 0.02070349 -0.9997847 192 192 192 255 0.125355 0.734028
400.3857 1.050288 312.3379 -0.07127246 0.9970443 -0.02868569 192 192 192 255 0.194395 0.613832
346.1113 0.734833 135.2861 -0.02547126 0.9844698 0.1736962 192 192 192 255 0.163067 0.927402
316.3701 -4.793575 200.625 0.05405129 0.9984983 0.008930882 192 192 192 255 0.162117 0.656823
375.9014 0.077805 141.5381 -0.07127401 0.9952624 0.06612687 192 192 192 255 0.176639 0.924554
56.44238 -2.906111 187.1504 -0.0009132121 0.9999996 -3.071675e-05 192 192 192 255 0.031104 0.903774
2.027344 -3.801773 234.2139 -0.7148716 0.6954502 -0.07285373 192 192 192 255 0.041346 0.643897
247.7715 1.092964 83.81641 -0.04472975 0.99677 0.06669927 192 192 192 255 0.118267 0.95085
209.5049 -0.138554 481.0635 0.05165499 0.9965719 -0.0646247 192 192 192 255 0.100834 0.769879
117.9717 -2.59475 321.7314 0.09657999 0.9953213 0.002780832 192 192 192 255 0.309069 0.835026
83.07227 -0.158263 19.625 0.005286015 0.9818331 0.1896729 192 192 192 255 0.072484 0.726478
12.37598 -0.281654 194.1543 -0.3561169 0.9082541 0.2196708 192 192 192 255 0.011029 0.900584
471.1016 -3.877191 29.32617 -0.1579296 0.9797152 0.1233549 192 192 192 255 0.221565 0.722745
16.6084 -2.001779 2.902344 -0.1246653 0.7621143 -0.635327 192 192 192 255 0.046948 0.732914
498.4893 0.038677 180.9658 0.6157296 0.7862463 -0.0519035 192 192 192 255 0.232485 0.906592
258.0557 1.102779 99.27441 -0.08124512 0.9860413 0.1453333 192 192 192 255 0.122952 0.943807
258.7168 -2.901408 451.6514 -0.003837911 0.9993439 -0.03601364 192 192 192 255 0.123253 0.783278
480.4961 -0.069975 260.3389 -0.1913741 0.9814755 0.009038338 192 192 192 255 0.225174 0.633843
343.873 1.1191 369.5449 -0.04580987 0.9974337 -0.05502218 192 192 192 255 0.172683 0.591816
279.8467 -4.175286 247.4316 0.01750095 0.9998436 -0.002567395 192 192 192 255 0.148084 0.63881
445.5332 -2.90202 103.8174 0.03593696 0.9993091 0.00947639 192 192 192 255 0.20836 0.941738
499.9873 -0.154717 56.52246 0.7107325 0.7032712 0.01640489 192 192 192 255 0.232662 0.712279
0.00293 -12.30272 185.3818 -0.951227 0.3019388 0.06324723 192 192 192 255 0.040569 0.662689
0.443359 -22.8077 324.2842 -0.706894 -0.7073193 0.0006536485 192 192 192 255 0.040738 0.609234
499.9092 -0.041358 458.4023 0.689777 0.7222795 0.05019913 192 192 192 255 0.232632 0.557621
438.6816 -0.122324 489.8652 0.01498161 0.999367 0.03226835 192 192 192 255 0.205239 0.765869
0.166016 -12.64676 201.4043 -0.89562 0.4438384 0.02953562 192 192 192 255 0.040631 0.656523
378.4697 -5.108427 500 0.002713738 0.0306938 0.9995251 192 192 192 255 0.185975 0.541613
239.0996 -3.103345 101.5117 -0.03620009 0.9933636 0.1091716 192 192 192 255 0.132429 0.694965
237.6611 -0.122606 0.709961 0.001485112 0.6941404 -0.7198382 192 192 192 255 0.113661 0.98871
462.0342 -2.930955 129.6172 0.05740197 0.997109 -0.0497866 192 192 192 255 0.215878 0.929984
256.165 -2.902035 237.3984 0.01751161 0.9998351 0.004808816 192 192 192 255 0.372025 0.873445
84.94238 -3.564256 46.75684 0.01707898 0.9991959 -0.03627596 192 192 192 255 0.073202 0.716037
323.79 1.115669 428.9355 0.06793024 0.9794782 0.1897576 192 192 192 255 0.164967 0.568961
312.4238 1.108391 99.35645 -0.02928082 0.9970729 0.07062907 192 192 192 255 0.14772 0.94377
268.9766 -2.902305 309.1289 0.001001632 0.9999933 -0.003547241 192 192 192 255 0.377861 0.840767
0.49707 -0.173292 41.80078 -0.579971 0.8146134 -0.006221386 192 192 192 255 0.005617 0.96999
465.6318 -5.81921 299.4199 -0.06469649 0.9977303 0.01867518 192 192 192 255 0.219463 0.618803
83.19727 -2.902136 441.4668 0.00274305 0.9998376 0.01781216 192 192 192 255 0.043293 0.787917
-0.019531 -1.592305 26.71289 -0.7993509 0.5949004 -0.08445024 192 192 192 255 0.005382 0.976864
90.06445 -2.933655 141.5557 -0.09172074 0.9942192 -0.05581582 192 192 192 255 0.046421 0.924546
19.63965 -0.149375 276.9561 0.1638458 0.9862213 -0.02285092 192 192 192 255 0.014338 0.862862
-0.00293 -1.657295 316.916 -0.8991086 0.4377247 -0.0009113476 192 192 192 255 0.040566 0.61207
102.5186 0.022457 1.981445 0.0003982456 0.9998572 -0.0168956 192 192 192 255 0.052095 0.98813
90.41992 -2.900789 62.35449 0.001644128 0.999832 -0.01825794 192 192 192 255 0.046583 0.960627
350.8652 -3.206256 415.8926 0.07989987 0.9949219 0.06120752 192 192 192 255 0.17537 0.57398
342.7803 -2.900121 460.6924 0.001136007 0.9997408 0.02273821 192 192 192 255 0.16155 0.779159
398.1592 -0.108881 19.53418 -0.04956751 0.9874738 0.1497952 192 192 192 255 0.186778 0.980134
2.045898 0.046828 498.167 -0.1963049 0.9799575 -0.0338788 192 192 192 255 0.006323 0.762087
374.8105 -2.984347 37.19922 0.0005712448 0.9974689 -0.07110299 192 192 192 255 0.176142 0.972087
383.9023 -3.768178 4.859375 -0.05422326 0.8688885 -0.4920292 192 192 192 255 0.188063 0.73216
37.63672 -2.948369 37.57227 -0.03205463 0.9992715 -0.02071025 192 192 192 255 0.055027 0.719571
80.17285 -5.487355 471.376 0.0692107 0.9947578 -0.07527957 192 192 192 255 0.07137 0.552628
69.50488 -2.922009 162.4854 -0.04699928 0.9982573 -0.03568368 192 192 192 255 0.037055 0.915011
374.5762 -3.388088 382.1719 0.05773475 0.9957722 0.0714457 192 192 192 255 0.184479 0.586957
471.0732 -3.845233 471.1631 -0.1826972 0.9744057 -0.1309784 192 192 192 255 0.221554 0.55271
483.0654 0.01768 179.7119 -0.1226235 0.9922384 -0.02065324 192 192 192 255 0.225459 0.907163
333.6221 -1.989388 8.834961 0.08711132 0.909003 -0.4075847 192 192 192 255 0.157378 0.985008
495.043 -2.881945 152.0244 0.4230801 0.9037188 0.06554164 192 192 192 255 0.230915 0.919777
19.58105 -0.134571 233.1162 0.09321854 0.995469 -0.0187596 192 192 192 255 0.04809 0.644319
495.9346 0.000502 325.3516 -0.080714 0.9966683 -0.01173329 192 192 192 255 0.231322 0.840815
76.72168 1.057206 194.9209 -0.1169841 0.9921569 -0.04403929 192 192 192 255 0.040343 0.900234
255.124 -3.973714 440.8564 -0.00494444 0.9993768 0.03495263 192 192 192 255 0.138586 0.564373
350.3516 -4.272965 160.9883 -0.04728928 0.9985993 -0.02373309 192 192 192 255 0.175172 0.672076
499.918 -22.69638 0.19043 0.5814313 -0.5672175 -0.5832685 192 192 192 255 0.232636 0.733957
80.7041 0.001552 0.613281 -0.004663897 0.7188657 -0.6951334 192 192 192 255 0.042157 0.988754
110.376 0.992823 136.4463 -0.1339763 0.983985 -0.117575 192 192 192 255 0.082974 0.681521
305.2969 -1.633052 2.642578 0.05859507 0.7464605 -0.662845 192 192 192 255 0.157862 0.733014
375.3389 -4.125151 29.16895 -0.01550851 0.9998664 0.005173963 192 192 192 255 0.184772 0.722805
499.9678 -9.716216 473.7744 0.955246 0.2770027 0.1038007 192 192 192 255 0.232655 0.551705
89.61523 -0.786168 167.4668 -0.3032536 0.9332815 -0.1924134 192 192 192 255 0.074998 0.669583
327.5254 -5.57294 228.9229 -0.001741719 0.9999873 -0.004724994 192 192 192 255 0.166403 0.645933
115.8721 -2.919122 194.4834 0.1245378 0.9908827 0.05139916 192 192 192 255 0.085085 0.659186
495.9023 -3.660753 106.7725 0.6198392 0.7791129 -0.09371554 192 192 192 255 0.231093 0.692941
324.0938 1.00317 70.82227 0.06901126 0.9785448 -0.194133 192 192 192 255 0.153037 0.956769
37.31543 -2.983084 462.7529 -0.02875486 0.9979046 0.05796278 192 192 192 255 0.022391 0.77822
494.3633 -0.284286 126.583 0.2079277 0.9748689 -0.07997981 192 192 192 255 0.230606 0.931367
468.8281 -5.643094 111.9844 0.01178381 0.9998885 -0.009178374 192 192 192 255 0.220691 0.690935
0.000977 -15.36285 233.1875 -0.9980153 0.06088024 -0.01609778 192 192 192 255 0.040568 0.644292
318.3457 -0.183966 19.78223 0.01842665 0.9893091 0.1446646 192 192 192 255 0.162876 0.726418
307.1025 -3.050219 201.8037 0.041132 0.9990997 0.01039068 192 192 192 255 0.158556 0.656369
305.4824 -2.56533 437.6318 -0.02205223 0.9931515 0.1147331 192 192 192 255 0.144558 0.789665
275.4131 -3.540285 285.5557 0.003574849 0.9997205 -0.02337003 192 192 192 255 0.146381 0.624138
297.2373 -2.902538 274.2715 -0.01737885 0.999715 -0.01636964 192 192 192 255 0.390736 0.856647
497.6768 -1.533975 129.8213 0.7262838 0.6873949 0.000408782 192 192 192 255 0.231775 0.684071
448.2881 -2.901504 345.1416 0.07650156 0.9969111 0.0177715 192 192 192 255 0.2128 0.601208
231.2637 -0.727122 478.8047 -0.02426614 0.996485 -0.08018049 192 192 192 255 0.129419 0.549769
499.8428 -9.124372 499.7998 0.6592014 0.416506 0.6260801 192 192 192 255 0.232607 0.54169
363.873 0.454681 134.4395 0.003212868 0.997716 0.06747249 192 192 192 255 0.171159 0.927788
121.2051 0.036567 498.4551 -0.01630553 0.9998665 0.001068156 192 192 192 255 0.060608 0.761956
197.9336 -2.081924 498.8936 0.08270433 0.6946712 0.7145572 192 192 192 255 0.095563 0.761756
485.4014 -2.415141 495.041 0.09730643 0.8831857 0.4588186 192 192 192 255 0.227058 0.543521
0.004883 -5.060461 284.1641 -0.9715373 0.2345488 -0.03320094 192 192 192 255 0.040569 0.624674
172.3145 -2.420601 437.4229 -0.05154679 0.987869 0.1464852 192 192 192 255 0.106771 0.565695
328.8613 -2.905807 439.4492 0.05670512 0.9930762 0.1028799 192 192 192 255 0.166916 0.564915
19.59961 -0.127883 188.8926 0.1929495 0.9806315 0.03365299 192 192 192 255 0.01432 0.902981
281.3984 -3.510595 226.3926 0.04117395 0.9989921 0.01787192 192 192 192 255 0.148681 0.646906
61 -2.915021 328.7539 -0.1203542 0.9914553 0.05031184 192 192 192 255 0.03318 0.839265
99.4834 1.049331 311.4707 0.1137564 0.9934058 -0.01429687 192 192 192 255 0.050712 0.847139
487.834 -0.623727 488.7188 0.2107492 0.9632432 0.1665752 192 192 192 255 0.227631 0.766391
456.2705 -2.917437 281.0469 0.04768579 0.9966941 0.06577987 192 192 192 255 0.213252 0.860999
480.8809 -0.121293 129.6094 -0.1893077 0.9750334 -0.1160711 192 192 192 255 0.224463 0.929988
292.5049 -4.713544 219.5186 0.01775417 0.9963808 -0.08312721 192 192 192 255 0.152948 0.649552
301.1436 -2.900913 162.6436 0.003283794 0.9999459 0.009869116 192 192 192 255 0.392516 0.9075
499.8535 -0.112513 0.163086 0.5758157 0.5779296 -0.5783024 192 192 192 255 0.233107 0.988959
169.877 -0.129978 499.8721 0.01135535 0.7071675 0.7069548 192 192 192 255 0.105834 0.541662
354.4854 -2.901838 241.0234 -0.02136987 0.999741 -0.00782718 192 192 192 255 0.416816 0.871793
4.914063 -22.90051 495.8242 -0.008500703 -0.9999077 0.01059755 192 192 192 255 0.042455 0.54322
4.605469 -22.90051 4.545898 -0.0113447 -0.9998799 -0.01056455 192 192 192 255 0.042337 0.732281
271.457 -0.151942 499.8809 -0.02356099 0.7202059 0.6933603 192 192 192 255 0.144861 0.541658
344.8887 -2.916314 221.9619 -0.06274179 0.9975883 0.02968188 192 192 192 255 0.412444 0.880477
342.335 -2.915779 196.9189 -0.02538037 0.9996085 0.01178393 192 192 192 255 0.411281 0.891886
366.4814 -3.120877 157.377 -0.1001908 0.9920597 0.07602252 192 192 192 255 0.181369 0.673466
476.3955 -0.797392 478.6641 -0.06416407 0.9975312 -0.02854002 192 192 192 255 0.223598 0.549823
396.3135 -3.484825 370.8145 0.04983709 0.9927301 0.1095587 192 192 192 255 0.192831 0.591328
335.3779 -2.909487 146.2549 -0.03557602 0.9947601 0.09584735 192 192 192 255 0.408112 0.914966
145.166 -0.022994 10.00293 -0.001447186 0.9938157 0.1110335 192 192 192 255 0.071524 0.984476
481.0488 -0.021345 397.5869 -0.1712744 0.9852116 -0.004826796 192 192 192 255 0.22454 0.807908
0.204102 -0.083899 499.8086 -0.5869499 0.6355119 0.5016117 192 192 192 255 0.040646 0.541686
470.8896 -3.823895 398.2041 -0.1572229 0.987475 -0.01319787 192 192 192 255 0.221483 0.580787
218.8916 -1.996806 483.2188 0.08721889 0.9443406 0.3171964 192 192 192 255 0.10511 0.768897
1.692383 -10.36808 215.8828 -0.7839566 0.6136918 -0.09377897 192 192 192 255 0.041218 0.650951
478.7217 -0.10129 19.47949 -0.05209546 0.997098 0.05551261 192 192 192 255 0.22348 0.980159
266.0088 -2.631063 62.46387 -7.180838e-05 0.9776943 -0.2100333 192 192 192 255 0.126575 0.960577
130.4844 1.097782 367.4102 0.09605176 0.9864671 -0.1328786 192 192 192 255 0.064835 0.821655
463.1836 -3.017969 463.1914 0.03966551 0.9984556 0.03889717 192 192 192 255 0.216401 0.778021
19.81641 -1.494927 201.8623 -0.06231509 0.9963418 0.0584804 192 192 192 255 0.014419 0.897072
286.5527 1.105415 408.7129 -0.004871444 0.999 0.04444466 192 192 192 255 0.135934 0.802839
343.7754 -0.750037 13.64746 0.04241939 0.9805187 -0.1917908 192 192 192 255 0.172646 0.728778
344.0986 0.961442 390.2627 0.1030404 0.9941576 0.03214745 192 192 192 255 0.17277 0.583843
441.1953 -1.311325 499.2227 0.02412043 0.7069526 0.7068496 192 192 192 255 0.206384 0.761606
192.4932 -2.652447 113.7344 0.07419062 0.9878049 0.136884 192 192 192 255 0.114523 0.690261
377.5752 1.106885 358.7686 0.03722426 0.9938583 0.104212 192 192 192 255 0.177401 0.825592
187.9053 1.004604 99.7373 0.03428089 0.9957504 0.085476 192 192 192 255 0.112761 0.695648
484.833 -2.846952 308.5908 -0.2221452 0.9745268 0.03080765 192 192 192 255 0.22684 0.615274
378.9141 -0.079427 499.6758 0.003920414 0.7315622 0.6817634 192 192 192 255 0.178011 0.7614
217.4053 1.109745 414.0889 0.01577355 0.9974286 0.06991059 192 192 192 255 0.104433 0.80039
381.3301 -2.911878 307.9854 -0.1119906 0.9919693 -0.05877928 192 192 192 255 0.187074 0.615507
153.6279 -2.896369 43.39844 -0.01471402 0.9990944 -0.03992581 192 192 192 255 0.075379 0.969262
496.0488 -22.90058 496.167 0.01256011 -0.9998411 0.01264971 192 192 192 255 0.231149 0.543088
441.1904 -22.78797 499.8926 0.0009907846 -0.6965445 0.717513 192 192 192 255 0.210073 0.541654
462.5586 -2.971662 37.1416 0.03841204 0.9982558 -0.04482998 192 192 192 255 0.216116 0.972113
307.1221 -2.902433 383.9062 -0.0584621 0.9903758 -0.1254515 192 192 192 255 0.395239 0.806701
471.1582 -3.92156 95.42871 -0.04352555 0.9952971 0.08654062 192 192 192 255 0.221586 0.697306
328.4287 -11.88869 0.006836 0.006153491 0.1411573 -0.9899681 192 192 192 255 0.16675 0.734028
151.9541 -3.838382 29.4375 -0.02852646 0.9973103 0.06751623 192 192 192 255 0.098948 0.722702
473.6787 -4.060063 325.25 -0.09718491 0.9950382 -0.02130933 192 192 192 255 0.222555 0.608863
172.1797 -2.889297 60.78418 -0.04940065 0.991618 -0.119387 192 192 192 255 0.08383 0.961342
2.560547 -2.579349 269.4053 -0.473262 0.8799686 -0.04096921 192 192 192 255 0.041551 0.630354
364.4688 -2.935535 403.2227 0.06481403 0.9972208 0.03673928 192 192 192 255 0.180596 0.578856
499.8428 -22.72304 350.8711 0.7134417 -0.7007146 -0.000366787 192 192 192 255 0.232607 0.599003
500 -19.78926 495.8018 0.9998884 -0.01118391 0.009912881 192 192 192 255 0.232667 0.543228
127.1162 -1.569876 476.957 -0.01801591 0.9926719 -0.1194905 192 192 192 255 0.063301 0.771749
103.8916 -3.01748 463.1758 -0.05871995 0.9972126 0.04603451 192 192 192 255 0.05272 0.778028
177.4697 -0.000605 7.895508 -0.01879023 0.9987733 0.04581229 192 192 192 255 0.08624 0.985436
359.6963 -8.612318 0.015625 -0.01165658 0.4978218 -0.867201 192 192 192 255 0.178763 0.734024
76.51367 -22.72322 0.121094 -0.0008220975 -0.6862413 -0.7273735 192 192 192 255 0.069964 0.733984
193.4385 -2.863037 385.2139 0.02722309 0.9908453 -0.1322287 192 192 192 255 0.343449 0.806106
324.7227 -2.919722 183.0654 -0.02828358 0.9989862 0.03502378 192 192 192 255 0.403257 0.898197
0.416992 -22.76274 145.2305 -0.710376 -0.7038211 -0.00136622 192 192 192 255 0.040728 0.678141
401.1094 -8.659512 0.000977 -0.06356185 0.1149114 -0.9913402 192 192 192 255 0.194674 0.73403
499.8857 -22.77388 499.8711 0.5748349 -0.5716748 0.5854511 192 192 192 255 0.232623 0.541662
351.2207 -22.69695 0.167969 0.0001761312 -0.6956251 -0.7184051 192 192 192 255 0.175506 0.733966
156.2842 1.104016 388.6572 0.04558473 0.995593 -0.08195443 192 192 192 255 0.076589 0.811976
175.9863 1.030073 70.93848 -0.0821415 0.9768718 -0.1974187 192 192 192 255 0.085564 0.956716
429.0273 1.056634 176.3135 0.1969399 0.9769753 -0.08206154 192 192 192 255 0.200841 0.908711
87.95312 -3.859175 29.31055 0.02029231 0.9854585 0.1687004 192 192 192 255 0.074359 0.722751
9.59082 -0.001601 148.6211 -0.05960822 0.997933 0.02401244 192 192 192 255 0.00976 0.921327
449.0322 -2.904269 123.7148 0.03387384 0.9991396 -0.0239312 192 192 192 255 0.209954 0.932673
484.5898 -0.006567 363.8027 -0.1668624 0.9856437 -0.0257593 192 192 192 255 0.226747 0.594026
384.4824 -2.901679 252.6602 -0.1209407 0.9926595 -0.0007496867 192 192 192 255 0.430482 0.866492
115.8145 -2.897924 266.2129 0.1180577 0.9930068 -9.911275e-05 192 192 192 255 0.308086 0.860318
439.3516 -2.904429 172.7236 0.1208127 0.9914948 -0.04839887 192 192 192 255 0.205544 0.910347
99.48242 1.05592 187.4795 0.07568975 0.9966498 0.03098828 192 192 192 255 0.050712 0.903624
407.3379 -0.126401 0.603516 -0.07516132 0.7319423 -0.6772085 192 192 192 255 0.19096 0.988758
71.09082 -0.005932 488.5703 0.03204453 0.9968544 -0.07248845 192 192 192 255 0.037777 0.766459
128.3379 -5.113921 29.45898 -0.002822378 0.9948258 0.1015571 192 192 192 255 0.089875 0.722694
437.6602 -2.64404 283.8867 0.224777 0.9743692 0.008947748 192 192 192 255 0.204774 0.859705
481.498 -0.000278 81.69238 -0.148617 0.9870022 0.06115303 192 192 192 255 0.224745 0.951817
314.666 -3.412406 256.0273 -0.009797315 0.998813 -0.04771423 192 192 192 255 0.161462 0.635502
109.7295 1.095441 344.9971 0.1447546 0.9869093 -0.07110641 192 192 192 255 0.05538 0.831865
448.3398 -2.900926 399.9424 0.02176114 0.9997522 -0.004693185 192 192 192 255 0.209639 0.806834
385.0996 1.091236 159.0234 -0.1006238 0.9947761 0.01718588 192 192 192 255 0.180829 0.916588
400.6572 1.075942 188.5156 -0.09242883 0.9954057 0.02498974 192 192 192 255 0.1945 0.661483
471.1494 -4.60226 363.6875 -0.1238648 0.9920884 -0.02044896 192 192 192 255 0.221583 0.59407
429.1396 1.001629 324.2617 0.1190871 0.9925597 0.02536931 192 192 192 255 0.200892 0.841312
-0.011719 -1.523318 145.1543 -0.84347 0.5124308 0.1611616 192 192 192 255 0.040563 0.67817
255.625 -0.321889 419.5674 -0.004503223 0.9876062 0.1568879 192 192 192 255 0.121845 0.797894
26.72852 -3.161543 193.2852 0.1620404 0.9866256 0.01768914 192 192 192 255 0.050837 0.659647
495.7832 -22.90052 4.833984 0.01362864 -0.9997267 -0.01899747 192 192 192 255 0.231047 0.73217
470.8877 -3.881204 127.2998 -0.08945021 0.9911942 -0.09763529 192 192 192 255 0.221482 0.685041
312.6201 1.110678 400.8877 -0.02987824 0.9965892 -0.07692314 192 192 192 255 0.160676 0.579755
499.9697 -22.82939 14.91504 0.7141632 -0.6999758 -0.00220065 192 192 192 255 0.232656 0.728291
334.8545 -7.660462 1.467773 0.03819598 0.612666 -0.7894185 192 192 192 255 0.169218 0.733466
190.3984 -0.079164 19.45801 -0.0115491 0.9836037 0.1799736 192 192 192 255 0.09213 0.980169
10.44043 -0.009872 12.34766 -0.2449651 0.9475927 -0.2050858 192 192 192 255 0.010147 0.983408
317.8184 -4.223544 215.8408 0.1188506 0.9926797 -0.02148757 192 192 192 255 0.162673 0.650967
0.236328 -10.72153 0.129883 -0.6745852 0.3017755 -0.673696 192 192 192 255 0.040658 0.73398
0.200195 -22.78968 499.8799 -0.576418 -0.5747442 0.5808712 192 192 192 255 0.040644 0.541659
235.0938 -7.024279 498.8643 -0.06610204 0.623549 0.7789847 192 192 192 255 0.13089 0.54205
175.0781 -0.049606 484.3477 -0.005915096 0.9911021 -0.1329726 192 192 192 255 0.08515 0.768383
285.5146 -0.79161 432.9346 0.008364141 0.9776357 0.2101395 192 192 192 255 0.135462 0.791804
488.7861 -0.005064 290.1182 -0.1379441 0.9895976 0.04084234 192 192 192 255 0.228065 0.856866
499.9805 -7.379736 169.7109 0.9763393 0.2097906 -0.05243615 192 192 192 255 0.23266 0.66872
499.8545 -0.111326 280.4717 0.7132364 0.7009236 0.0002241512 192 192 192 255 0.233107 0.861261
299.8936 -2.699595 113.4912 -0.03291869 0.990367 0.1344974 192 192 192 255 0.391946 0.929892
121.1816 -0.084371 0.273438 -0.001207544 0.6902816 -0.7235398 192 192 192 255 0.087125 0.733925
276.2686 -0.7293 478.8223 -0.0005022857 0.9754001 -0.2204416 192 192 192 255 0.14671 0.549762
89.96875 -5.629293 473.9209 -0.002423401 0.9940871 -0.108559 192 192 192 255 0.075133 0.551649
379.5947 -2.900789 110.0166 0.1142946 0.9868727 -0.1141016 192 192 192 255 0.178321 0.938914
491.9854 -0.630053 85.1377 0.3047104 0.9443451 0.1239512 192 192 192 255 0.229588 0.701266
208.5967 1.020693 99.44531 0.06246988 0.9824128 0.1759623 192 192 192 255 0.10042 0.94373
29.25195 -3.858985 470.833 0.1359817 0.9769464 -0.1645744 192 192 192 255 0.051806 0.552837
499.9727 -13.67185 117.2305 0.9897521 0.1399538 -0.0283511 192 192 192 255 0.232657 0.688916
176.3975 1.112194 428.7988 -0.07419893 0.9768572 0.2006104 192 192 192 255 0.108339 0.569013
2.286133 0.039764 287.4795 -0.5216904 0.8511016 -0.05886671 192 192 192 255 0.006432 0.858068
29.28516 -3.871804 58.31738 0.1153707 0.9933218 -0.001218423 192 192 192 255 0.051819 0.711588
370.5781 -2.609182 10.22656 -0.03138594 0.977509 -0.2085452 192 192 192 255 0.182943 0.730095
0.614258 -0.122071 143.3408 -0.5313438 0.8349658 0.1431989 192 192 192 255 0.005671 0.923732
119.751 -2.901458 388.542 -0.1189108 0.9858711 0.1179764 192 192 192 255 0.086576 0.584506
152.1191 -2.716259 345.5352 -0.0130799 0.9999024 -0.004914845 192 192 192 255 0.324625 0.824182
60.51074 -2.905607 239.9238 -0.1801653 0.9836333 -0.002479026 192 192 192 255 0.032958 0.879733
470.8066 -3.85417 277.4541 -0.1062743 0.9931823 0.04790273 192 192 192 255 0.221451 0.627256
483.7646 -1.567746 343.5605 -0.2303343 0.9722852 -0.04009661 192 192 192 255 0.22643 0.601816
275.8643 0.000258 2.070313 0.02405374 0.8121516 -0.5829505 192 192 192 255 0.131065 0.98809
187.8848 1.041705 400.3574 0.02298699 0.9943891 -0.1032571 192 192 192 255 0.112753 0.579959
139.6152 -2.912299 92.75293 -0.1284504 0.9833643 -0.1284331 192 192 192 255 0.068995 0.946778
116.9141 -2.904326 59.99609 -0.003311384 0.9995164 -0.03092035 192 192 192 255 0.058653 0.961701
219.8584 -18.83638 500 0.002304473 0.02433932 0.9997011 192 192 192 255 0.125037 0.541613
160.1592 -1.605484 376.2227 0.07798757 0.9882714 -0.1312922 192 192 192 255 0.328288 0.810202
19.57715 -0.105544 477.5928 0.06495192 0.9962597 -0.05698969 192 192 192 255 0.01431 0.77146
125.6699 -4.278547 346.5322 0.1486814 0.9825118 -0.1120909 192 192 192 255 0.08885 0.600672
-0.076172 -1.241573 498.1162 -0.9154692 0.4011074 -0.03207961 192 192 192 255 0.040538 0.542338
397.7139 1.122871 354.7158 0.1202604 0.9784278 0.167978 192 192 192 255 0.193369 0.597523
70.86133 1.017359 215.2695 -0.2439718 0.9693954 -0.02739326 192 192 192 255 0.037673 0.890964
164.3809 -3.945234 471.5508 0.004693932 0.9948954 -0.1008027 192 192 192 255 0.103722 0.552561
56.25293 -0.000773 481.0293 0.02646577 0.9750568 -0.2203719 192 192 192 255 0.06218 0.548913
218.7002 -2.900074 439.5742 0.01848145 0.9963927 0.0828262 192 192 192 255 0.124592 0.564867
104.207 -2.606566 486.9121 -0.0103751 0.9771048 -0.2125055 192 192 192 255 0.080604 0.546649
262.0947 -2.901306 116.1406 -0.02118414 0.9953477 0.09399024 192 192 192 255 0.374726 0.928685
38.31934 -22.78929 0.293945 -0.002025566 -0.7123258 -0.7018461 192 192 192 255 0.05529 0.733917
0.654297 -22.78314 0.479492 -0.5722829 -0.588447 -0.5711589 192 192 192 255 0.040819 0.733846
30.09961 -3.521327 27.54883 0.09855025 0.9751066 0.198633 192 192 192 255 0.052132 0.723429
113.1211 -2.59475 305.6279 0.1436913 0.989501 -0.01551119 192 192 192 255 0.084029 0.616414
76.65723 -2.968376 462.6963 0.1472614 0.9796588 0.1363181 192 192 192 255 0.070019 0.555968
499.8906 -22.81032 102.7666 0.7094334 -0.7047725 -0.0002514875 192 192 192 255 0.232625 0.694482
220.2686 1.10988 76.66211 0.01724893 0.9994577 0.02804867 192 192 192 255 0.105738 0.954109
99.48242 1.05592 187.4795 0.07568975 0.9966498 0.03098828 192 192 192 255 0.078789 0.661882
115.8145 -2.897924 266.2129 0.1180577 0.9930068 -9.911275e-05 192 192 192 255 0.085063 0.631582
99.4834 1.049331 311.4707 0.1137564 0.9934058 -0.01429687 192 192 192 255 0.078789 0.614165
139.6152 -2.912299 92.75293 -0.1284504 0.9833643 -0.1284331 192 192 192 255 0.094208 0.698336
90.06445 -2.933655 141.5557 -0.09172074 0.9942192 -0.05581582 192 192 192 255 0.07517 0.679555
71.24316 1.112494 323.9873 -0.1952173 0.9777296 0.07703935 192 192 192 255 0.067939 0.609349
37.31543 -2.983084 462.7529 -0.02875486 0.9979046 0.05796278 192 192 192 255 0.054904 0.555947
481.0488 -0.021345 397.5869 -0.1712744 0.9852116 -0.004826796 192 192 192 255 0.225386 0.581025
110.376 0.992823 136.4463 -0.1339763 0.983985 -0.117575 192 192 192 255 0.055674 0.926873
187.9053 1.004604 99.7373 0.03428089 0.9957504 0.085476 192 192 192 255 0.090994 0.943597
19.47363 -0.105025 21.45996 0.0593868 0.9969135 0.05134865 192 192 192 255 0.048049 0.725772
384.4824 -2.901679 252.6602 -0.1209407 0.9926595 -0.0007496867 192 192 192 255 0.188285 0.636798
307.1221 -2.902433 383.9062 -0.0584621 0.9903758 -0.1254515 192 192 192 255 0.158564 0.58629
193.4385 -2.863037 385.2139 0.02722309 0.9908453 -0.1322287 192 192 192 255 0.114886 0.585786
60.51074 -2.905607 239.9238 -0.1801653 0.9836333 -0.002479026 192 192 192 255 0.063816 0.641699
61 -2.915021 328.7539 -0.1203542 0.9914553 0.05031184 192 192 192 255 0.064004 0.607514
400.6572 1.075942 188.5156 -0.09242883 0.9954057 0.02498974 192 192 192 255 0.187916 0.903153
400.3857 1.050288 312.3379 -0.07127246 0.9970443 -0.02868569 192 192 192 255 0.187793 0.846744
429.1396 1.001629 324.2617 0.1190871 0.9925597 0.02536931 192 192 192 255 0.205443 0.609243
169.877 -0.129978 499.8721 0.01135535 0.7071675 0.7069548 192 192 192 255 0.082781 0.76131
487.834 -0.623727 488.7188 0.2107492 0.9632432 0.1665752 192 192 192 255 0.227993 0.545954
462.5586 -2.971662 37.1416 0.03841204 0.9982558 -0.04482998 192 192 192 255 0.218282 0.719737
445.5332 -2.90202 103.8174 0.03593696 0.9993091 0.00947639 192 192 192 255 0.211741 0.694078
499.8535 -0.112513 0.163086 0.5758157 0.5779296 -0.5783024 192 192 192 255 0.232611 0.733968
324.0938 1.00317 70.82227 0.06901126 0.9785448 -0.194133 192 192 192 255 0.165084 0.706775
266.0088 -2.631063 62.46387 -7.180838e-05 0.9776943 -0.2100333 192 192 192 255 0.142768 0.709992
175.9863 1.030073 70.93848 -0.0821415 0.9768718 -0.1974187 192 192 192 255 0.108181 0.706731
176.3975 1.112194 428.7988 -0.07419893 0.9768572 0.2006104 192 192 192 255 0.085752 0.793689
342.7803 -2.900121 460.6924 0.001136007 0.9997408 0.02273821 192 192 192 255 0.172264 0.55674
343.873 1.1191 369.5449 -0.04580987 0.9974337 -0.05502218 192 192 192 255 0.162047 0.820682
478.7217 -0.10129 19.47949 -0.05209546 0.997098 0.05551261 192 192 192 255 0.224492 0.726534
481.498 -0.000278 81.69238 -0.148617 0.9870022 0.06115303 192 192 192 255 0.225559 0.702592
354.4854 -2.901838 241.0234 -0.02136987 0.999741 -0.00782718 192 192 192 255 0.176761 0.641276
398.1592 -0.108881 19.53418 -0.04956751 0.9874738 0.1497952 192 192 192 255 0.19354 0.726513
463.1836 -3.017969 463.1914 0.03966551 0.9984556 0.03889717 192 192 192 255 0.218522 0.555778
483.0654 0.01768 179.7119 -0.1226235 0.9922384 -0.02065324 192 192 192 255 0.226161 0.664871
83.07227 -0.158263 19.625 0.005286015 0.9818331 0.1896729 192 192 192 255 0.043236 0.980093
499.9873 -0.154717 56.52246 0.7107325 0.7032712 0.01640489 192 192 192 255 0.233168 0.963284
312.4238 1.108391 99.35645 -0.02928082 0.9970729 0.07062907 192 192 192 255 0.160601 0.695794
258.0557 1.102779 99.27441 -0.08124512 0.9860413 0.1453333 192 192 192 255 0.139712 0.695826
299.8936 -2.699595 113.4912 -0.03291869 0.990367 0.1344974 192 192 192 255 0.155786 0.690355
318.3457 -0.183966 19.78223 0.01842665 0.9893091 0.1446646 192 192 192 255 0.150418 0.980021
0.204102 -0.083899 499.8086 -0.5869499 0.6355119 0.5016117 192 192 192 255 0.005484 0.761339
192.4932 -2.652447 113.7344 0.07419062 0.9878049 0.136884 192 192 192 255 0.343018 0.929782
109.7295 1.095441 344.9971 0.1447546 0.9869093 -0.07110641 192 192 192 255 0.082725 0.601263
488.7861 -0.005064 290.1182 -0.1379441 0.9895976 0.04084234 192 192 192 255 0.228359 0.622383
187.8848 1.041705 400.3574 0.02298699 0.9943891 -0.1032571 192 192 192 255 0.090985 0.806645
344.0986 0.961442 390.2627 0.1030404 0.9941576 0.03214745 192 192 192 255 0.16215 0.811244
312.6201 1.110678 400.8877 -0.02987824 0.9965892 -0.07692314 192 192 192 255 0.14781 0.806404
323.79 1.115669 428.9355 0.06793024 0.9794782 0.1897576 192 192 192 255 0.152898 0.793626
56.25293 -0.000773 481.0293 0.02646577 0.9750568 -0.2203719 192 192 192 255 0.031018 0.769894
19.57715 -0.105544 477.5928 0.06495192 0.9962597 -0.05698969 192 192 192 255 0.048089 0.550236
19.63965 -0.149375 276.9561 0.1638458 0.9862213 -0.02285092 192 192 192 255 0.048113 0.627448
12.37598 -0.281654 194.1543 -0.3561169 0.9082541 0.2196708 192 192 192 255 0.045322 0.659313
-0.019531 -1.592305 26.71289 -0.7993509 0.5949004 -0.08445024 192 192 192 255 0.04056 0.72375
10.44043 -0.009872 12.34766 -0.2449651 0.9475927 -0.2050858 192 192 192 255 0.044579 0.729279
119.751 -2.901458 388.542 -0.1189108 0.9858711 0.1179764 192 192 192 255 0.059945 0.812028
218.7002 -2.900074 439.5742 0.01848145 0.9963927 0.0828262 192 192 192 255 0.105023 0.78878
255.625 -0.321889 419.5674 -0.004503223 0.9876062 0.1568879 192 192 192 255 0.138778 0.572566
285.5146 -0.79161 432.9346 0.008364141 0.9776357 0.2101395 192 192 192 255 0.150262 0.567422
83.19727 -2.902136 441.4668 0.00274305 0.9998376 0.01781216 192 192 192 255 0.072532 0.564138
103.8916 -3.01748 463.1758 -0.05871995 0.9972126 0.04603451 192 192 192 255 0.080483 0.555784
145.166 -0.022994 10.00293 -0.001447186 0.9938157 0.1110335 192 192 192 255 0.09634 0.730181
344.8887 -2.916314 221.9619 -0.06274179 0.9975883 0.02968188 192 192 192 255 0.173074 0.648612
301.1436 -2.900913 162.6436 0.003283794 0.9999459 0.009869116 192 192 192 255 0.156267 0.671439
80.7041 0.001552 0.613281 -0.004663897 0.7188657 -0.6951334 192 192 192 255 0.071574 0.733794
476.3955 -0.797392 478.6641 -0.06416407 0.9975312 -0.02854002 192 192 192 255 0.22242 0.770972
378.9141 -0.079427 499.6758 0.003920414 0.7315622 0.6817634 192 192 192 255 0.186146 0.541737
276.2686 -0.7293 478.8223 -0.0005022857 0.9754001 -0.2204416 192 192 192 255 0.131249 0.7709
271.457 -0.151942 499.8809 -0.02356099 0.7202059 0.6933603 192 192 192 255 0.129057 0.761306
448.2881 -2.901504 345.1416 0.07650156 0.9969111 0.0177715 192 192 192 255 0.209615 0.8318
19.59961 -0.127883 188.8926 0.1929495 0.9806315 0.03365299 192 192 192 255 0.048098 0.661338
335.3779 -2.909487 146.2549 -0.03557602 0.9947601 0.09584735 192 192 192 255 0.16942 0.677746
324.7227 -2.919722 183.0654 -0.02828358 0.9989862 0.03502378 192 192 192 255 0.165326 0.66358
456.2705 -2.917437 281.0469 0.04768579 0.9966941 0.06577987 192 192 192 255 0.215866 0.625874
449.0322 -2.904269 123.7148 0.03387384 0.9991396 -0.0239312 192 192 192 255 0.213085 0.686421
127.1162 -1.569876 476.957 -0.01801591 0.9926719 -0.1194905 192 192 192 255 0.089405 0.55048
175.0781 -0.049606 484.3477 -0.005915096 0.9911021 -0.1329726 192 192 192 255 0.107832 0.547636
305.4824 -2.56533 437.6318 -0.02205223 0.9931515 0.1147331 192 192 192 255 0.157934 0.565614
484.833 -2.846952 308.5908 -0.2221452 0.9745268 0.03080765 192 192 192 255 0.226264 0.848451
483.7646 -1.567746 343.5605 -0.2303343 0.9722852 -0.04009661 192 192 192 255 0.225777 0.83252
495.043 -2.881945 152.0244 0.4230801 0.9037188 0.06554164 192 192 192 255 0.230763 0.675526
497.6768 -1.533975 129.8213 0.7262838 0.6873949 0.000408782 192 192 192 255 0.232115 0.929891
499.9092 -0.041358 458.4023 0.689777 0.7222795 0.05019913 192 192 192 255 0.233132 0.780202
-0.011719 -1.523318 145.1543 -0.84347 0.5124308 0.1611616 192 192 192 255 0.005386 0.922906
333.6221 -1.989388 8.834961 0.08711132 0.909003 -0.4075847 192 192 192 255 0.168745 0.73063
208.5967 1.020693 99.44531 0.06246988 0.9824128 0.1759623 192 192 192 255 0.12071 0.69576
441.1953 -1.311325 499.2227 0.02412043 0.7069526 0.7068496 192 192 192 255 0.210075 0.541912
197.9336 -2.081924 498.8936 0.08270433 0.6946712 0.7145572 192 192 192 255 0.116613 0.542038
363.873 0.454681 134.4395 0.003212868 0.997716 0.06747249 192 192 192 255 0.180367 0.682293
346.1113 0.734833 135.2861 -0.02547126 0.9844698 0.1736962 192 192 192 255 0.173543 0.681967
247.7715 1.092964 83.81641 -0.04472975 0.99677 0.06669927 192 192 192 255 0.135761 0.701775
397.7139 1.122871 354.7158 0.1202604 0.9784278 0.167978 192 192 192 255 0.186576 0.827438
297.2373 -2.902538 274.2715 -0.01737885 0.999715 -0.01636964 192 192 192 255 0.154766 0.628481
19.81641 -1.494927 201.8623 -0.06231509 0.9963418 0.0584804 192 192 192 255 0.048181 0.656347
237.6611 -0.122606 0.709961 0.001485112 0.6941404 -0.7198382 192 192 192 255 0.131877 0.733757
385.0996 1.091236 159.0234 -0.1006238 0.9947761 0.01718588 192 192 192 255 0.188523 0.672832
384.7041 -2.903287 195.2666 -0.1303027 0.9911322 0.02604146 192 192 192 255 0.188371 0.658885
485.4014 -2.415141 495.041 0.09730643 0.8831857 0.4588186 192 192 192 255 0.226523 0.763511
262.0947 -2.901306 116.1406 -0.02118414 0.9953477 0.09399024 192 192 192 255 0.141264 0.689335
76.72168 1.057206 194.9209 -0.1169841 0.9921569 -0.04403929 192 192 192 255 0.070044 0.659018
69.50488 -2.922009 162.4854 -0.04699928 0.9982573 -0.03568368 192 192 192 255 0.067271 0.6715
70.86133 1.017359 215.2695 -0.2439718 0.9693954 -0.02739326 192 192 192 255 0.067792 0.651187
377.5752 1.106885 358.7686 0.03722426 0.9938583 0.104212 192 192 192 255 0.185632 0.595963
256.165 -2.902035 237.3984 0.01751161 0.9998351 0.004808816 192 192 192 255 0.138986 0.642671
2.560547 -2.579349 269.4053 -0.473262 0.8799686 -0.04096921 192 192 192 255 0.006558 0.866302
125.6699 -4.278547 346.5322 0.1486814 0.9825118 -0.1120909 192 192 192 255 0.312576 0.823728
116.9141 -2.904326 59.99609 -0.003311384 0.9995164 -0.03092035 192 192 192 255 0.085486 0.710942
437.6602 -2.64404 283.8867 0.224777 0.9743692 0.008947748 192 192 192 255 0.208716 0.624781
429.0273 1.056634 176.3135 0.1969399 0.9769753 -0.08206154 192 192 192 255 0.2054 0.666179
480.8809 -0.121293 129.6094 -0.1893077 0.9750334 -0.1160711 192 192 192 255 0.225322 0.684152
117.9717 -2.59475 321.7314 0.09657999 0.9953213 0.002780832 192 192 192 255 0.085892 0.610217
379.5947 -2.900789 110.0166 0.1142946 0.9868727 -0.1141016 192 192 192 255 0.186408 0.691692
329.7314 -2.901948 60.84082 0.05079114 0.9925211 -0.1110052 192 192 192 255 0.16725 0.710617
374.8105 -2.984347 37.19922 0.0005712448 0.9974689 -0.07110299 192 192 192 255 0.184569 0.719715
153.6279 -2.896369 43.39844 -0.01471402 0.9990944 -0.03992581 192 192 192 255 0.099591 0.717329
407.3379 -0.126401 0.603516 -0.07516132 0.7319423 -0.6772085 192 192 192 255 0.197067 0.733798
177.4697 -0.000605 7.895508 -0.01879023 0.9987733 0.04581229 192 192 192 255 0.108751 0.730992
343.7754 -0.750037 13.64746 0.04241939 0.9805187 -0.1917908 192 192 192 255 0.162003 0.982816
231.2637 -0.727122 478.8047 -0.02426614 0.996485 -0.08018049 192 192 192 255 0.110747 0.770908
16.6084 -2.001779 2.902344 -0.1246653 0.7621143 -0.635327 192 192 192 255 0.012957 0.987711
342.335 -2.915779 196.9189 -0.02538037 0.9996085 0.01178393 192 192 192 255 0.172092 0.658249
104.207 -2.606566 486.9121 -0.0103751 0.9771048 -0.2125055 192 192 192 255 0.052864 0.767214
258.7168 -2.901408 451.6514 -0.003837911 0.9993439 -0.03601364 192 192 192 255 0.139966 0.560219
484.5898 -0.006567 363.8027 -0.1668624 0.9856437 -0.0257593 192 192 192 255 0.226153 0.823298
190.3984 -0.079164 19.45801 -0.0115491 0.9836037 0.1799736 192 192 192 255 0.113718 0.726542
375.9014 0.077805 141.5381 -0.07127401 0.9952624 0.06612687 192 192 192 255 0.184989 0.679561
462.0342 -2.930955 129.6172 0.05740197 0.997109 -0.0497866 192 192 192 255 0.218081 0.684149
448.3398 -2.900926 399.9424 0.02176114 0.9997522 -0.004693185 192 192 192 255 0.212819 0.580118
115.8721 -2.919122 194.4834 0.1245378 0.9908827 0.05139916 192 192 192 255 0.308112 0.892995
268.9766 -2.902305 309.1289 0.001001632 0.9999933 -0.003547241 192 192 192 255 0.143908 0.615067
-0.00293 -1.657295 316.916 -0.8991086 0.4377247 -0.0009113476 192 192 192 255 0.00539 0.844658
160.1592 -1.605484 376.2227 0.07798757 0.9882714 -0.1312922 192 192 192 255 0.102101 0.589247
275.8643 0.000258 2.070313 0.02405374 0.8121516 -0.5829505 192 192 192 255 0.146554 0.733234
217.4053 1.109745 414.0889 0.01577355 0.9974286 0.06991059 192 192 192 255 0.124094 0.574674
90.41992 -2.900789 62.35449 0.001644128 0.999832 -0.01825794 192 192 192 255 0.075307 0.710034
2.286133 0.039764 287.4795 -0.5216904 0.8511016 -0.05886671 192 192 192 255 0.041446 0.623398
209.5049 -0.138554 481.0635 0.05165499 0.9965719 -0.0646247 192 192 192 255 0.121059 0.5489
37.63672 -2.948369 37.57227 -0.03205463 0.9992715 -0.02071025 192 192 192 255 0.022537 0.971917
130.4844 1.097782 367.4102 0.09605176 0.9864671 -0.1328786 192 192 192 255 0.090699 0.592638
76.65723 -2.968376 462.6963 0.1472614 0.9796588 0.1363181 192 192 192 255 0.040313 0.778246
494.3633 -0.284286 126.583 0.2079277 0.9748689 -0.07997981 192 192 192 255 0.230502 0.685317
218.8916 -1.996806 483.2188 0.08721889 0.9443406 0.3171964 192 192 192 255 0.124665 0.548071
172.1797 -2.889297 60.78418 -0.04940065 0.991618 -0.119387 192 192 192 255 0.106719 0.710639
328.8613 -2.905807 439.4492 0.05670512 0.9930762 0.1028799 192 192 192 255 0.155209 0.788837
364.4688 -2.935535 403.2227 0.06481403 0.9972208 0.03673928 192 192 192 255 0.17143 0.80534
121.1816 -0.084371 0.273438 -0.001207544 0.6902816 -0.7235398 192 192 192 255 0.060597 0.988909
172.3145 -2.420601 437.4229 -0.05154679 0.987869 0.1464852 192 192 192 255 0.083891 0.78976
156.2842 1.104016 388.6572 0.04558473 0.995593 -0.08195443 192 192 192 255 0.100612 0.584461
113.1211 -2.59475 305.6279 0.1436913 0.989501 -0.01551119 192 192 192 255 0.306859 0.842362
480.4961 -0.069975 260.3389 -0.1913741 0.9814755 0.009038338 192 192 192 255 0.224288 0.870433
498.4893 0.038677 180.9658 0.6157296 0.7862463 -0.0519035 192 192 192 255 0.232087 0.664388
439.3516 -2.904429 172.7236 0.1208127 0.9914948 -0.04839887 192 192 192 255 0.209366 0.66756
499.8545 -0.111326 280.4717 0.7132364 0.7009236 0.0002241512 192 192 192 255 0.232611 0.626095
-0.076172 -1.241573 498.1162 -0.9154692 0.4011074 -0.03207961 192 192 192 255 0.005356 0.76211
220.2686 1.10988 76.66211 0.01724893 0.9994577 0.02804867 192 192 192 255 0.125195 0.704528
381.3301 -2.911878 307.9854 -0.1119906 0.9919693 -0.05877928 192 192 192 255 0.429046 0.841288
305.2969 -1.633052 2.642578 0.05859507 0.7464605 -0.662845 192 192 192 255 0.144474 0.987829
491.9854 -0.630053 85.1377 0.3047104 0.9443451 0.1239512 192 192 192 255 0.229522 0.950248
19.58105 -0.134571 233.1162 0.09321854 0.995469 -0.0187596 192 192 192 255 0.014311 0.882834
3 83 164 28 
3 113 194 112 
3 5 149 161 
3 32 233 145 
3 51 158 130 
3 208 74 156 
3 54 128 4 
3 231 143 45 
3 186 51 130 
3 175 40 147 
3 146 214 25 
3 40 162 147 
3 244 176 210 
3 73 84 150 
3 226 80 102 
3 185 103 1 
3 178 1 103 
3 77 138 252 
3 253 252 254 
3 71 255 256 
3 51 21 158 
3 257 224 219 
3 98 242 219 
3 65 122 104 
3 229 48 159 
3 56 193 258 
3 235 220 53 
3 60 240 118 
3 60 259 124 
3 169 260 261 
3 2 200 172 
3 46 220 235 
3 47 83 28 
3 2 172 100 
3 40 176 162 
3 221 247 262 
3 188 263 6 
3 35 182 105 
3 142 264 196 
3 265 230 196 
3 240 91 212 
3 79 169 251 
3 79 7 93 
3 266 267 257 
3 257 267 224 
3 79 9 170 
3 170 268 269 
3 170 269 190 
3 270 238 119 
3 108 176 36 
3 109 179 127 
3 179 52 127 
3 160 165 149 
3 110 123 233 
3 13 271 95 
3 205 157 94 
3 135 30 140 
3 263 142 6 
3 142 196 23 
3 261 260 178 
3 66 1 178 
3 77 136 138 
3 79 251 12 
3 272 92 74 
3 74 92 156 
3 148 273 274 
3 200 44 41 
3 81 106 61 
3 109 127 183 
3 275 26 197 
3 276 277 278 
3 278 255 71 
3 129 1 279 
3 280 90 119 
3 38 50 134 
3 208 156 218 
3 190 269 281 
3 6 142 23 
3 0 111 175 
3 116 115 0 
3 111 88 175 
3 17 282 73 
3 17 283 282 
3 284 76 184 
3 282 285 73 
3 57 217 241 
3 286 240 60 
3 15 247 171 
3 143 58 45 
3 0 163 116 
3 195 22 287 
3 178 260 66 
3 100 172 16 
3 70 2 288 
3 15 262 247 
3 109 183 289 
3 31 27 164 
3 29 74 208 
3 97 11 83 
3 79 20 39 
3 290 291 292 
3 190 281 137 
3 232 58 143 
3 229 159 293 
3 62 229 293 
3 205 94 271 
3 94 294 271 
3 13 205 271 
3 251 169 261 
3 244 295 176 
3 236 254 296 
3 35 177 182 
3 65 19 207 
3 297 227 139 
3 159 48 121 
3 132 192 206 
3 132 298 141 
3 299 300 301 
3 300 298 132 
3 285 222 73 
3 302 235 53 
3 217 303 241 
3 193 304 303 
3 31 305 27 
3 202 306 307 
3 18 202 307 
3 308 80 43 
3 148 274 82 
3 309 158 21 
3 310 67 311 
3 120 210 108 
3 210 176 108 
3 293 159 199 
3 312 213 313 
3 15 181 314 
3 251 261 216 
3 175 88 40 
3 8 76 315 
3 107 316 101 
3 270 119 90 
3 202 317 161 
3 34 48 229 
3 122 318 104 
3 60 118 259 
3 92 32 145 
3 319 114 32 
3 320 321 30 
3 19 61 207 
3 32 114 233 
3 322 51 186 
3 151 228 139 
3 193 262 323 
3 100 16 131 
3 189 124 259 
3 68 324 325 
3 305 191 27 
3 170 9 187 
3 86 21 51 
3 22 227 297 
3 227 326 42 
3 193 64 304 
3 180 53 94 
3 192 132 141 
3 160 198 133 
3 42 3 151 
3 134 50 154 
3 154 280 119 
3 174 189 259 
3 18 317 202 
3 59 23 154 
3 25 177 173 
3 274 327 82 
3 240 328 329 
3 67 330 311 
3 168 129 279 
3 63 61 19 
3 197 26 250 
3 215 218 26 
3 65 331 332 
3 298 279 141 
3 272 96 92 
3 333 208 89 
3 78 89 218 
3 334 81 63 
3 73 133 84 
3 65 104 335 
3 172 336 16 
3 223 41 336 
3 198 72 337 
3 338 138 136 
3 11 126 83 
3 185 1 129 
3 107 101 201 
3 339 319 32 
3 96 339 92 
3 340 110 233 
3 324 341 342 
3 343 33 291 
3 190 137 344 
3 284 184 345 
3 49 58 232 
3 346 193 323 
3 153 11 97 
3 347 149 5 
3 82 195 78 
3 348 117 349 
3 55 222 285 
3 104 318 350 
3 300 132 301 
3 1 66 239 
3 316 8 325 
3 120 108 163 
3 351 291 33 
3 292 291 351 
3 79 39 7 
3 198 337 133 
3 71 75 352 
3 76 201 184 
3 353 354 352 
3 226 10 80 
3 172 223 336 
3 172 200 223 
3 0 115 111 
3 85 107 201 
3 246 202 245 
3 355 23 59 
3 24 356 87 
3 47 97 83 
3 46 357 220 
3 225 14 358 
3 181 37 359 
3 154 50 280 
3 342 290 324 
3 17 148 283 
3 123 237 203 
3 268 170 187 
3 146 54 214 
3 360 361 270 
3 78 195 362 
3 248 253 254 
3 248 254 363 
3 324 290 292 
3 54 4 214 
3 364 365 276 
3 366 150 367 
3 203 237 28 
3 37 171 56 
3 55 285 368 
3 369 314 150 
3 370 62 293 
3 151 189 228 
3 222 160 133 
3 222 133 73 
3 162 225 234 
3 336 41 44 
3 371 13 125 
3 70 200 2 
3 372 200 70 
3 194 155 144 
3 167 194 161 
3 194 250 155 
3 373 8 315 
3 222 55 160 
3 209 65 335 
3 79 93 9 
3 353 352 75 
3 345 24 87 
3 91 204 114 
3 57 241 243 
3 374 302 180 
3 67 242 375 
3 26 218 250 
3 65 376 122 
3 377 369 150 
3 378 117 348 
3 275 69 165 
3 125 13 95 
3 70 288 48 
3 150 181 367 
3 367 181 359 
3 246 113 164 
3 302 53 180 
3 144 166 145 
3 195 82 379 
3 82 327 379 
3 328 213 243 
3 308 102 80 
3 350 30 135 
3 71 256 75 
3 42 360 3 
3 94 53 294 
3 90 380 189 
3 295 381 176 
3 152 143 231 
3 77 252 253 
3 171 181 15 
3 227 42 151 
3 365 277 276 
3 36 176 40 
3 87 356 382 
3 188 348 349 
3 117 68 325 
3 117 325 349 
3 258 217 57 
3 258 193 217 
3 60 124 286 
3 83 126 31 
3 316 356 101 
3 156 92 166 
3 266 257 354 
3 85 316 107 
3 8 316 85 
3 168 279 298 
3 181 150 314 
3 25 214 177 
3 330 99 38 
3 220 383 53 
3 230 265 384 
3 385 72 149 
3 58 10 226 
3 35 173 177 
3 67 375 330 
3 213 312 57 
3 385 149 347 
3 195 287 362 
3 322 182 190 
3 67 310 386 
3 228 189 174 
3 165 69 149 
3 149 69 167 
3 324 68 341 
3 8 201 76 
3 201 345 184 
3 73 150 366 
3 204 340 233 
3 346 126 11 
3 355 119 238 
3 37 56 387 
3 388 97 47 
3 249 258 57 
3 79 12 20 
3 306 202 246 
3 27 306 164 
3 359 37 387 
3 3 90 189 
3 240 329 389 
3 213 57 243 
3 10 390 80 
3 164 113 28 
3 363 254 236 
3 306 246 164 
3 242 67 386 
3 119 59 154 
3 92 145 166 
3 391 236 296 
3 43 80 392 
3 275 197 69 
3 78 393 89 
3 215 283 78 
3 136 33 338 
3 28 113 112 
3 200 41 223 
3 315 76 284 
3 112 194 144 
3 112 144 145 
3 161 194 113 
3 161 149 167 
3 65 207 331 
3 394 340 204 
3 280 50 99 
3 48 288 121 
3 209 19 65 
3 374 180 94 
3 395 255 278 
3 396 86 51 
3 346 31 126 
3 245 161 113 
3 132 206 86 
3 28 112 203 
3 277 395 278 
3 384 236 391 
3 193 346 64 
3 346 11 64 
3 49 390 58 
3 58 390 10 
3 56 221 193 
3 318 30 350 
3 281 299 397 
3 308 43 158 
3 112 145 203 
3 211 347 5 
3 34 398 48 
3 233 123 203 
3 78 362 393 
3 91 394 204 
3 42 326 360 
3 176 225 162 
3 339 32 92 
3 240 313 328 
3 201 24 345 
3 143 152 128 
3 54 143 128 
3 24 101 356 
3 17 273 148 
3 73 366 273 
3 264 265 196 
3 72 198 149 
3 150 84 377 
3 151 3 189 
3 218 155 250 
3 156 166 155 
3 144 155 166 
3 156 155 218 
3 313 213 328 
3 30 321 140 
3 309 399 158 
3 399 308 158 
3 318 320 30 
3 240 212 118 
3 384 400 230 
3 29 272 74 
3 176 401 225 
3 215 78 218 
3 167 69 194 
3 61 402 207 
3 201 101 24 
3 195 379 227 
3 403 208 333 
3 225 358 234 
3 404 364 361 
3 141 279 309 
3 384 391 400 
3 8 85 201 
3 405 29 208 
3 373 325 8 
3 360 90 3 
3 305 31 346 
3 360 404 361 
3 294 53 406 
3 53 383 406 
3 237 47 28 
3 59 119 355 
3 349 263 188 
3 189 380 124 
3 343 407 33 
3 148 82 78 
3 175 147 408 
3 81 61 63 
3 99 50 38 
3 221 262 193 
3 368 275 165 
3 256 353 75 
3 69 197 194 
3 194 197 250 
3 345 87 382 
3 149 198 160 
3 378 341 117 
3 403 405 208 
3 398 70 48 
3 233 203 145 
3 114 204 233 
3 361 364 276 
3 353 266 354 
3 225 401 14 
3 409 229 62 
3 211 5 161 
3 17 73 273 
3 160 55 165 
3 320 371 321 
3 240 389 91 
3 31 164 83 
3 157 374 94 
3 217 193 303 
3 281 300 299 
3 388 153 97 
3 124 380 286 
3 181 171 37 
3 65 332 376 
3 289 183 410 
3 341 68 117 
3 219 224 98 
3 132 86 301 
3 89 208 218 
3 227 379 326 
3 407 338 33 
3 171 247 56 
3 56 247 221 
3 148 78 283 
3 313 240 286 
3 227 151 139 
3 11 153 64 
3 368 165 55 
3 27 191 306 
3 351 33 136 
3 227 22 195 
3 246 245 113 
3 411 357 46 
3 202 161 245 
3 57 312 249 
3 317 211 161 
