ply
format ascii 1.0
comment VCGLIB generated
comment TextureFile Dungeons_2_Texture_01_A.png
element vertex 119
property float x
property float y
property float z
property float nx
property float ny
property float nz
property uchar red
property uchar green
property uchar blue
property uchar alpha
property float texture_u
property float texture_v
element face 122
property list uchar int vertex_indices
end_header
214 385.066 31.19531 -0.1073573 0.01937829 0.9940317 192 192 192 255 0.209664 0.686076
219.9668 464.5949 31.19531 -0.0001888508 -0.0001842346 1 192 192 192 255 0.212222 0.720163
195.8 392.8362 16.65115 -0.6224054 0.0003478953 0.782695 192 192 192 255 0.201864 0.689407
195.8 445.8 16.65115 -0.6225751 -0.001209333 0.7825592 192 192 192 255 0.201864 0.712107
250 250 31.19531 0.0002357065 -4.831319e-05 1 192 192 192 255 0.224858 0.878759
250 500 31.19531 0.0001032213 0.0002064228 1 192 192 192 255 0.224858 0.985438
250 500 -14.2392 0.8728716 0.2182179 -0.4364358 192 192 192 255 0.224858 0.985438
250 0 -14.2392 0.6666667 -0.6666667 -0.3333333 192 192 192 255 0.224858 0.77208
250 0 31.19531 0.000129464 -6.473199e-05 1 192 192 192 255 0.224858 0.77208
250 75.87138 31.19531 0.4518827 0.1937245 0.8707886 192 192 192 255 0.224858 0.804456
250 105.1522 16.65117 0.001293815 0.3846394 0.923066 192 192 192 255 0.224858 0.81695
250 221.4391 16.65117 0.4539365 -0.1864299 0.8713126 192 192 192 255 0.224858 0.866572
125 218.6859 16.65117 -9.698951e-05 -0.2095645 0.9777948 192 192 192 255 0.171518 0.614765
139.0567 254.8618 31.19531 -6.131584e-08 -0.0001324905 1 192 192 192 255 0.177543 0.63027
125 105.1522 16.65117 0 0.3844984 0.9231257 192 192 192 255 0.171518 0.566104
110.9566 441.9484 16.65115 6.807374e-07 -0.0003706335 1 192 192 192 255 0.165499 0.710456
142.2527 466.9562 31.19531 1.4735e-06 -0.0007892743 0.9999997 192 192 192 255 0.178913 0.721175
32.95139 382.0304 31.19531 0.295832 0.1087943 0.9490244 192 192 192 255 0.132066 0.684775
36 464 31.19531 0.1250514 -0.1213238 0.9847044 192 192 192 255 0.133373 0.719908
54.19995 392.8362 16.65115 0.1437372 0.1360467 0.9802198 192 192 192 255 0.141173 0.689407
54.19995 445.8 16.65115 0.0003912752 -0.0003796121 0.9999999 192 192 192 255 0.141173 0.712107
0 250 31.19531 -0.0001864544 -3.832769e-05 1 192 192 192 255 0.118179 0.878759
0 500 31.19531 -0.3015114 0.3015114 0.904534 192 192 192 255 0.118179 0.985438
0 500 -14.2392 -0.8728716 0.4364358 -0.2182179 192 192 192 255 0.118179 0.985438
0 0 -14.2392 -0.6666667 -0.3333333 -0.6666667 192 192 192 255 0.118179 0.77208
0 0 31.19531 -0.0001294724 -0.0001294724 1 192 192 192 255 0.118179 0.77208
0 75.87138 31.19531 -0.2385678 0.212184 0.9476621 192 192 192 255 0.118179 0.804456
0 105.1522 16.65117 -0.00129476 0.3846273 0.9230711 192 192 192 255 0.118179 0.81695
0 221.4391 16.65117 -0.4541265 -0.187008 0.8710897 192 192 192 255 0.118179 0.866572
142.3121 303.36 31.19531 -0.0002358546 0.0009209052 0.9999996 192 192 192 255 0.178938 0.651057
108.1528 304.7527 31.19531 0.0002513072 0.0005785695 0.9999998 192 192 192 255 0.164298 0.651654
118.5778 324.8832 16.65115 0.3965462 0.3763876 0.8373073 192 192 192 255 0.168766 0.660282
131.4222 324.8832 16.65115 -0.2199876 0.354715 0.9087259 192 192 192 255 0.174271 0.660282
178.9913 72.22292 31.19531 -0.02701615 0.2388234 0.9706872 192 192 192 255 0.194659 0.55199
86.85007 82.47119 26.10486 3.338052e-06 0.3389363 0.9408093 192 192 192 255 0.155167 0.556382
86.85007 61.78525 31.19531 2.087563e-10 0.03785532 0.9992833 192 192 192 255 0.155167 0.547516
43.10007 72.22292 31.19531 0.05681946 0.2385251 0.9694727 192 192 192 255 0.13657 0.802899
89.03472 324.3986 31.1953 0.09150747 0.3320874 0.9387994 192 192 192 255 0.156103 0.660074
48.75481 365.7906 31.19531 0.2430973 0.1444153 0.9591913 192 192 192 255 0.138839 0.677815
70.32085 329.4415 31.19531 0.01824678 0.01775651 0.9996758 192 192 192 255 0.148186 0.912658
84.25114 340.2751 26.0267 0.3234165 0.3084989 0.8945559 192 192 192 255 0.154053 0.666879
218.1421 440.2744 31.19531 -0.3017377 -0.03086799 0.9528912 192 192 192 255 0.21144 0.709739
222.5513 397.5808 31.19531 -0.02653123 0.001990558 0.9996461 192 192 192 255 0.213145 0.941734
208.4347 398.3384 26.74793 -0.4945212 0.009717996 0.8691112 192 192 192 255 0.207279 0.691765
46.99133 124.022 16.65117 0.2566174 -0.7090163 0.6568437 192 192 192 255 0.138083 0.574191
93.03369 164.0299 16.65117 0.531082 0.6095964 0.5885102 192 192 192 255 0.157818 0.591339
42.13174 131.9044 26.30509 0.1098182 -0.3034202 0.9465074 192 192 192 255 0.136001 0.57757
82.33813 164.0299 26.30509 0.5312699 0.6081449 0.5898408 192 192 192 255 0.153233 0.591339
46.99133 204.0377 16.65117 0.409449 0.6736307 0.6152831 192 192 192 255 0.138083 0.608487
46.99133 190.152 26.30509 0.1469064 0.4549652 0.8783082 192 192 192 255 0.138083 0.602535
0 131.7372 26.30509 -0.0004568936 -0.0007126495 0.9999996 192 192 192 255 0.117943 0.577498
0 124.022 16.65117 -0.8942969 -0.3480041 0.281294 192 192 192 255 0.117943 0.574191
0 196.3225 26.30509 -0.0009175105 0.0003583497 0.9999995 192 192 192 255 0.118179 0.855854
0 204.0377 16.65117 -0.004051168 0.7811764 0.6242973 192 192 192 255 0.118179 0.859146
54.23315 189.7064 26.30509 0.03427016 0.4586801 0.8879404 192 192 192 255 0.141187 0.602344
46.99133 200.7849 20.72139 0.07863605 0.6350616 0.7684486 192 192 192 255 0.138083 0.607092
33.7433 196.3225 26.30509 0.014826 0.03250351 0.9993617 192 192 192 255 0.132405 0.60518
203.0087 204.0377 16.65117 -0.2566173 0.709016 0.656844 192 192 192 255 0.204953 0.608487
156.9663 164.0299 16.65117 -0.531082 -0.6095964 0.5885102 192 192 192 255 0.185219 0.591339
207.8683 196.1554 26.30509 -0.1098182 0.3034201 0.9465074 192 192 192 255 0.207036 0.605108
167.6619 164.0299 26.30509 -0.5312699 -0.6081449 0.5898408 192 192 192 255 0.189804 0.591339
203.0087 124.022 16.65117 -0.409449 -0.6736307 0.6152831 192 192 192 255 0.204953 0.574191
203.0087 137.9078 26.30509 -0.1469064 -0.4549652 0.8783082 192 192 192 255 0.204953 0.580143
250 196.3225 26.30509 0.0004568936 0.0007126492 0.9999996 192 192 192 255 0.225094 0.60518
250 204.0377 16.65117 0.8942968 0.348004 0.2812942 192 192 192 255 0.225094 0.608487
250 131.7372 26.30509 0.0009175105 -0.0003583497 0.9999995 192 192 192 255 0.224858 0.828295
250 124.022 16.65117 0.004051168 -0.7811764 0.6242973 192 192 192 255 0.224858 0.825003
195.7668 138.3533 26.30509 -0.03427014 -0.4586801 0.8879404 192 192 192 255 0.20185 0.580334
203.0087 127.2749 20.72139 -0.07863605 -0.6350616 0.7684485 192 192 192 255 0.204953 0.575586
216.2567 131.7372 26.30509 -0.014826 -0.03250351 0.9993617 192 192 192 255 0.210632 0.577498
219.9668 464.5949 31.19531 -0.0001888508 -0.0001842346 1 192 192 192 255 0.212042 0.97033
218.1421 440.2744 31.19531 -0.3017377 -0.03086799 0.9528912 192 192 192 255 0.211264 0.959953
250 221.4391 16.65117 0.4539365 -0.1864299 0.8713126 192 192 192 255 0.225094 0.615945
250 105.1522 16.65117 0.001293815 0.3846394 0.923066 192 192 192 255 0.225094 0.566104
250 250 31.19531 0.0002357065 -4.831319e-05 1 192 192 192 255 0.225094 0.628186
139.0567 254.8618 31.19531 -6.131584e-08 -0.0001324905 1 192 192 192 255 0.177517 0.880834
32.95139 382.0304 31.19531 0.295832 0.1087943 0.9490244 192 192 192 255 0.13224 0.935099
36 464 31.19531 0.1250514 -0.1213238 0.9847044 192 192 192 255 0.133541 0.970077
0 221.4391 16.65117 -0.4541265 -0.187008 0.8710897 192 192 192 255 0.117943 0.615945
0 105.1522 16.65117 -0.00129476 0.3846273 0.9230711 192 192 192 255 0.117943 0.566104
0 250 31.19531 -0.0001864544 -3.832769e-05 1 192 192 192 255 0.117943 0.628186
110.9566 441.9484 16.65115 6.807374e-07 -0.0003706335 1 192 192 192 255 0.165526 0.960667
54.19995 392.8362 16.65115 0.1437372 0.1360467 0.9802198 192 192 192 255 0.141307 0.93971
195.8 392.8362 16.65115 -0.6224054 0.0003478953 0.782695 192 192 192 255 0.20173 0.93971
195.8 445.8 16.65115 -0.6225751 -0.001209333 0.7825592 192 192 192 255 0.20173 0.96231
142.2527 466.9562 31.19531 1.4735e-06 -0.0007892743 0.9999997 192 192 192 255 0.17888 0.971338
214 385.066 31.19531 -0.1073573 0.01937829 0.9940317 192 192 192 255 0.209496 0.936394
142.3121 303.36 31.19531 -0.0002358546 0.0009209052 0.9999996 192 192 192 255 0.178906 0.901529
108.1528 304.7527 31.19531 0.0002513072 0.0005785695 0.9999998 192 192 192 255 0.164329 0.902123
118.5778 324.8832 16.65115 0.3965462 0.3763876 0.8373073 192 192 192 255 0.168778 0.910713
131.4222 324.8832 16.65115 -0.2199876 0.354715 0.9087259 192 192 192 255 0.174259 0.910713
54.19995 445.8 16.65115 0.0003912752 -0.0003796121 0.9999999 192 192 192 255 0.141307 0.96231
86.85007 61.78525 31.19531 2.087563e-10 0.03785532 0.9992833 192 192 192 255 0.155239 0.798445
178.9913 72.22292 31.19531 -0.02701615 0.2388234 0.9706872 192 192 192 255 0.194557 0.802899
43.10007 72.22292 31.19531 0.05681946 0.2385251 0.9694727 192 192 192 255 0.136416 0.55199
0 75.87138 31.19531 -0.2385678 0.212184 0.9476621 192 192 192 255 0.117943 0.553554
250 75.87138 31.19531 0.4518827 0.1937245 0.8707886 192 192 192 255 0.225094 0.553554
70.32085 329.4415 31.19531 0.01824678 0.01775651 0.9996758 192 192 192 255 0.148083 0.662235
89.03472 324.3986 31.1953 0.09150747 0.3320874 0.9387994 192 192 192 255 0.156172 0.910506
48.75481 365.7906 31.19531 0.2430973 0.1444153 0.9591913 192 192 192 255 0.138983 0.928169
222.5513 397.5808 31.19531 -0.02653123 0.001990558 0.9996461 192 192 192 255 0.213329 0.69144
0 124.022 16.65117 -0.8942969 -0.3480041 0.281294 192 192 192 255 0.118179 0.825002
0 131.7372 26.30509 -0.0004568936 -0.0007126495 0.9999996 192 192 192 255 0.118179 0.828295
0 204.0377 16.65117 -0.004051168 0.7811764 0.6242973 192 192 192 255 0.117943 0.608487
0 196.3225 26.30509 -0.0009175105 0.0003583497 0.9999995 192 192 192 255 0.117943 0.60518
33.7433 196.3225 26.30509 0.014826 0.03250351 0.9993617 192 192 192 255 0.132578 0.855854
46.99133 190.152 26.30509 0.1469064 0.4549652 0.8783082 192 192 192 255 0.138231 0.853221
42.13174 131.9044 26.30509 0.1098182 -0.3034202 0.9465074 192 192 192 255 0.136157 0.828366
82.33813 164.0299 26.30509 0.5312699 0.6081449 0.5898408 192 192 192 255 0.153314 0.842075
54.23315 189.7064 26.30509 0.03427016 0.4586801 0.8879404 192 192 192 255 0.141321 0.853031
250 204.0377 16.65117 0.8942968 0.348004 0.2812942 192 192 192 255 0.224858 0.859146
250 196.3225 26.30509 0.0004568936 0.0007126492 0.9999996 192 192 192 255 0.224858 0.855854
250 124.022 16.65117 0.004051168 -0.7811764 0.6242973 192 192 192 255 0.225094 0.574191
250 131.7372 26.30509 0.0009175105 -0.0003583497 0.9999995 192 192 192 255 0.225094 0.577498
216.2567 131.7372 26.30509 -0.014826 -0.03250351 0.9993617 192 192 192 255 0.210459 0.828295
203.0087 137.9078 26.30509 -0.1469064 -0.4549652 0.8783082 192 192 192 255 0.204806 0.830928
207.8683 196.1554 26.30509 -0.1098182 0.3034201 0.9465074 192 192 192 255 0.20688 0.855783
167.6619 164.0299 26.30509 -0.5312699 -0.6081449 0.5898408 192 192 192 255 0.189723 0.842075
195.7668 138.3533 26.30509 -0.03427014 -0.4586801 0.8879404 192 192 192 255 0.201716 0.831118
3 7 8 25 
3 7 25 24 
3 6 7 24 
3 6 24 23 
3 0 2 32 
3 0 32 29 
3 3 43 41 
3 3 41 1 
3 5 70 71 
3 5 71 42 
3 5 6 23 
3 5 23 22 
3 6 5 4 
3 6 4 11 
3 8 7 10 
3 8 10 9 
3 10 7 6 
3 10 6 11 
3 34 35 33 
3 72 12 14 
3 72 14 73 
3 13 12 72 
3 13 72 74 
3 3 1 16 
3 3 16 15 
3 75 39 21 
3 19 40 31 
3 17 19 20 
3 17 20 18 
3 22 21 76 
3 22 76 77 
3 23 28 21 
3 23 21 22 
3 25 26 27 
3 25 27 24 
3 27 28 23 
3 27 23 24 
3 78 79 14 
3 78 14 12 
3 13 80 78 
3 13 78 12 
3 81 82 83 
3 81 83 84 
3 20 15 16 
3 20 16 18 
3 5 22 77 
3 5 77 85 
3 75 4 86 
3 75 86 87 
3 31 30 29 
3 31 29 32 
3 88 75 87 
3 83 82 89 
3 83 89 90 
3 81 91 82 
3 14 79 34 
3 92 36 26 
3 92 26 25 
3 93 92 8 
3 93 8 9 
3 14 34 73 
3 94 35 34 
3 34 79 95 
3 34 95 94 
3 73 34 33 
3 73 33 96 
3 25 8 92 
3 5 85 70 
3 37 40 97 
3 97 40 38 
3 17 38 40 
3 17 40 19 
3 31 40 37 
3 31 37 30 
3 88 98 39 
3 88 39 75 
3 21 39 99 
3 21 99 76 
3 43 100 41 
3 2 43 3 
3 0 100 43 
3 5 42 4 
3 0 43 2 
3 4 42 86 
3 49 55 56 
3 50 51 44 
3 50 44 46 
3 44 45 47 
3 44 47 46 
3 54 55 49 
3 101 102 52 
3 101 52 53 
3 45 48 47 
3 47 48 55 
3 47 55 54 
3 48 103 55 
3 56 55 103 
3 56 103 104 
3 52 102 105 
3 106 105 102 
3 106 102 107 
3 107 108 109 
3 107 109 106 
3 62 68 69 
3 63 64 57 
3 63 57 59 
3 57 58 60 
3 57 60 59 
3 67 68 62 
3 110 111 65 
3 110 65 66 
3 58 61 60 
3 60 61 68 
3 60 68 67 
3 61 112 68 
3 69 68 112 
3 69 112 113 
3 65 111 114 
3 115 114 111 
3 115 111 116 
3 116 117 118 
3 116 118 115 
