ply
format ascii 1.0
comment VCGLIB generated
comment TextureFile Dungeons_2_Texture_01_A.png
element vertex 77
property float x
property float y
property float z
property float nx
property float ny
property float nz
property uchar red
property uchar green
property uchar blue
property uchar alpha
property float texture_u
property float texture_v
element face 94
property list uchar int vertex_indices
end_header
1.7e-05 0 42.16045 -0.9999998 -0.0002872527 0.0005745054 192 192 192 255 0.001929 0.75319
500 0 42.16045 0.599005 -8.588483e-05 0.8007452 192 192 192 255 0.237487 0.75319
1.7e-05 0 -14.23921 -1 -8.923229e-05 -0.0001784646 192 192 192 255 0.001929 0.75319
500 0 -14.23921 1 -0.0001784111 -8.885123e-05 192 192 192 255 0.237487 0.75319
1.7e-05 500 42.16045 -0.3370511 4.806944e-05 0.9414864 192 192 192 255 0.001929 0.988747
500 500 42.16045 0.3504138 9.977839e-05 0.936595 192 192 192 255 0.237487 0.988747
500 500 -14.23921 1 8.376704e-05 -0.0001676036 192 192 192 255 0.237487 0.988747
1.7e-05 500 -14.23921 -1 0.0001680244 -8.401218e-05 192 192 192 255 0.001929 0.988747
1.7e-05 123.4495 42.16045 -1 7.086617e-05 0.0001434968 192 192 192 255 0.001929 0.811349
500 123.4495 42.16045 0.7692153 0.0001068214 0.6389897 192 192 192 255 0.237487 0.811349
1.7e-05 142.8306 16.65117 -0.5969303 0.6331725 0.4927139 192 192 192 255 0.001929 0.820479
500 142.8306 16.65117 0.131231 2.401482e-05 0.9913518 192 192 192 255 0.237487 0.820479
1.7e-05 346.3718 16.65117 -0.9999995 -0.0006640726 0.0008210846 192 192 192 255 0.001929 0.916371
500 346.3718 16.65117 0.05144536 -0.06185052 0.9967587 192 192 192 255 0.237487 0.916371
1.7e-05 352.769 31.19531 -0.9424592 -0.0002344584 0.3343211 192 192 192 255 0.001929 0.919385
500 352.769 31.19531 0.9999997 -0.0005211199 0.0005924299 192 192 192 255 0.237487 0.919385
1.7e-05 370.7317 31.19531 -0.9051227 -0.0006351464 0.4251499 192 192 192 255 0.001929 0.927847
500 370.7317 31.19531 0.9308631 -0.0002902579 0.3653682 192 192 192 255 0.237487 0.927847
1.7e-05 375.6774 42.16045 -0.4041995 -4.027663e-05 0.9146709 192 192 192 255 0.001929 0.930177
500 375.6774 42.16045 0.6218867 -0.0001104858 0.7831073 192 192 192 255 0.237487 0.930177
157.5093 434.9221 42.16045 3.33688e-05 -0.0001806852 1 192 192 192 255 0.076134 0.958088
344.0523 436.8706 42.16045 -6.624393e-05 -0.0004138509 0.9999999 192 192 192 255 0.164017 0.709006
157.101 403.1763 16.65117 0.108771 -0.6375068 0.762728 192 192 192 255 0.075942 0.943132
342.4908 405.6165 16.65117 -0.02329529 -0.06195763 0.9978069 192 192 192 255 0.163282 0.944282
157.5093 412.0137 31.19531 0.06574374 -0.3853239 0.9204364 192 192 192 255 0.076134 0.697296
342.4908 412.0137 31.19531 -9.686108e-05 -0.0007908409 0.9999997 192 192 192 255 0.163282 0.697296
157.5093 429.9764 31.19531 0.07755088 -0.4199222 0.9042407 192 192 192 255 0.076134 0.955758
342.4908 429.9764 31.19531 -7.94541e-05 -0.0004963799 0.9999999 192 192 192 255 0.163282 0.705758
216.3745 145.8763 16.65117 -0.01109511 0.7892922 0.6139176 192 192 192 255 0.103866 0.821914
237.3035 123.4495 42.16045 0.006237747 0.40902 0.9125041 192 192 192 255 0.113726 0.811349
424.6135 116.4305 42.16045 -1.606953e-06 0.0002428437 1 192 192 192 255 0.201971 0.808042
448.8558 139.9978 16.65117 -0.02162255 0.5052694 0.8626907 192 192 192 255 0.213392 0.819145
18.73427 123.4495 42.16045 0.06210189 0.3479257 0.9354631 192 192 192 255 0.010755 0.811349
173.0968 123.4495 42.16045 -0.02967019 0.2558828 0.9662524 192 192 192 255 0.083478 0.811349
79.42834 112.5489 42.16045 -1.601588e-09 0.2851799 0.958474 192 192 192 255 0.039349 0.806213
63.19844 127.3122 37.76011 -0.008196234 0.6690015 0.7432159 192 192 192 255 0.031703 0.814402
73.19412 372.1715 16.65117 0.1702211 -0.4585999 0.8721874 192 192 192 255 0.036412 0.928526
64.11091 380.2168 31.19531 0.001028317 -0.002770433 0.9999956 192 192 192 255 0.032133 0.682316
393.6553 410.7317 31.19531 -0.0006102913 -0.00161451 0.9999985 192 192 192 255 0.187386 0.946692
412.3613 414.2321 42.16045 -3.068794e-05 -8.118417e-05 1 192 192 192 255 0.196199 0.698341
474.6157 362.3169 31.19531 -0.09850414 -0.1012419 0.9899732 192 192 192 255 0.225528 0.673883
419.3138 383.1178 31.19531 -0.02618877 -0.1601253 0.9867492 192 192 192 255 0.199474 0.933683
460.2076 376.6511 31.19531 -0.02188002 -0.0581707 0.9980668 192 192 192 255 0.21874 0.930636
452.3527 366.841 29.43411 -0.3159919 -0.8401893 0.4407167 192 192 192 255 0.215039 0.676014
173.1602 435.1083 42.16045 0.2035168 -0.3865508 0.8995329 192 192 192 255 0.083507 0.958176
300.4133 435.9872 42.16045 -0.0647454 -0.554642 0.8295664 192 192 192 255 0.143458 0.70859
211.633 429.9764 31.19531 0.002038685 -0.2954954 0.9553421 192 192 192 255 0.101633 0.705758
188.4762 443.2154 42.16045 0.1086888 -0.5133368 0.8512768 192 192 192 255 0.090723 0.961995
221.0904 445.2566 42.16045 -0.03660743 -0.5669128 0.822964 192 192 192 255 0.106088 0.712957
157.101 403.1763 16.65117 0.108771 -0.6375068 0.762728 192 192 192 255 0.075942 0.693132
342.4908 405.6165 16.65117 -0.02329529 -0.06195763 0.9978069 192 192 192 255 0.163282 0.694282
157.5093 412.0137 31.19531 0.06574374 -0.3853239 0.9204364 192 192 192 255 0.076134 0.947296
342.4908 412.0137 31.19531 -9.686108e-05 -0.0007908409 0.9999997 192 192 192 255 0.163282 0.947296
211.633 429.9764 31.19531 0.002038685 -0.2954954 0.9553421 192 192 192 255 0.101633 0.955758
342.4908 429.9764 31.19531 -7.94541e-05 -0.0004963799 0.9999999 192 192 192 255 0.163282 0.955758
500 346.3718 16.65117 0.05144536 -0.06185052 0.9967587 192 192 192 255 0.237487 0.666371
1.7e-05 346.3718 16.65117 -0.9999995 -0.0006640726 0.0008210846 192 192 192 255 0.001929 0.666371
73.19412 372.1715 16.65117 0.1702211 -0.4585999 0.8721874 192 192 192 255 0.036412 0.678526
1.7e-05 352.769 31.19531 -0.9424592 -0.0002344584 0.3343211 192 192 192 255 0.001929 0.669385
64.11091 380.2168 31.19531 0.001028317 -0.002770433 0.9999956 192 192 192 255 0.032133 0.932316
1.7e-05 370.7317 31.19531 -0.9051227 -0.0006351464 0.4251499 192 192 192 255 0.001929 0.677847
157.5093 429.9764 31.19531 0.07755088 -0.4199222 0.9042407 192 192 192 255 0.076134 0.705758
157.5093 434.9221 42.16045 3.33688e-05 -0.0001806852 1 192 192 192 255 0.076134 0.708088
1.7e-05 375.6774 42.16045 -0.4041995 -4.027663e-05 0.9146709 192 192 192 255 0.001929 0.680177
393.6553 410.7317 31.19531 -0.0006102913 -0.00161451 0.9999985 192 192 192 255 0.187386 0.696692
344.0523 436.8706 42.16045 -6.624393e-05 -0.0004138509 0.9999999 192 192 192 255 0.164017 0.959006
412.3613 414.2321 42.16045 -3.068794e-05 -8.118417e-05 1 192 192 192 255 0.196199 0.948341
500 375.6774 42.16045 0.6218867 -0.0001104858 0.7831073 192 192 192 255 0.237487 0.680177
500 370.7317 31.19531 0.9308631 -0.0002902579 0.3653682 192 192 192 255 0.237487 0.677847
419.3138 383.1178 31.19531 -0.02618877 -0.1601253 0.9867492 192 192 192 255 0.199474 0.683683
460.2076 376.6511 31.19531 -0.02188002 -0.0581707 0.9980668 192 192 192 255 0.21874 0.680636
474.6157 362.3169 31.19531 -0.09850414 -0.1012419 0.9899732 192 192 192 255 0.225528 0.923883
500 352.769 31.19531 0.9999997 -0.0005211199 0.0005924299 192 192 192 255 0.237487 0.669385
173.1602 435.1083 42.16045 0.2035168 -0.3865508 0.8995329 192 192 192 255 0.083507 0.708176
188.4762 443.2154 42.16045 0.1086888 -0.5133368 0.8512768 192 192 192 255 0.090723 0.711995
221.0904 445.2566 42.16045 -0.03660743 -0.5669128 0.822964 192 192 192 255 0.106088 0.962957
300.4133 435.9872 42.16045 -0.0647454 -0.554642 0.8295664 192 192 192 255 0.143458 0.95859
3 9 3 11 
3 2 8 10 
3 1 3 9 
3 2 0 8 
3 2 10 12 
3 2 12 7 
3 11 3 6 
3 11 6 13 
3 7 12 14 
3 13 6 15 
3 7 14 16 
3 15 6 17 
3 7 16 18 
3 17 6 19 
3 7 18 4 
3 19 6 5 
3 0 34 32 
3 0 32 8 
3 0 2 3 
3 0 3 1 
3 2 7 6 
3 2 6 3 
3 7 4 5 
3 7 5 6 
3 4 20 44 
3 4 44 47 
3 21 45 46 
3 21 46 27 
3 10 28 23 
3 10 23 22 
3 28 29 30 
3 28 30 31 
3 49 50 25 
3 49 25 24 
3 26 51 52 
3 26 52 53 
3 52 54 53 
3 13 23 11 
3 10 22 36 
3 10 36 12 
3 55 43 50 
3 56 57 37 
3 56 37 58 
3 14 59 16 
3 52 38 54 
3 60 61 62 
3 60 62 63 
3 64 39 21 
3 64 21 27 
3 18 20 4 
3 5 65 66 
3 28 35 33 
3 28 33 29 
3 31 30 9 
3 31 9 11 
3 35 34 33 
3 32 34 35 
3 10 8 32 
3 10 32 35 
3 10 35 28 
3 34 30 29 
3 34 29 33 
3 30 1 9 
3 0 1 30 
3 0 30 34 
3 37 57 49 
3 37 49 24 
3 16 59 51 
3 16 51 26 
3 42 38 52 
3 42 52 41 
3 67 39 64 
3 67 64 68 
3 5 66 19 
3 69 43 70 
3 70 43 40 
3 17 42 71 
3 17 71 15 
3 17 38 42 
3 72 40 43 
3 72 43 55 
3 50 43 69 
3 50 69 25 
3 46 73 62 
3 46 62 61 
3 46 45 48 
3 46 74 73 
3 46 48 74 
3 5 75 76 
3 5 76 65 
3 4 47 75 
3 4 75 5 
3 23 28 31 
3 23 31 11 
