ply
format ascii 1.0
comment VCGLIB generated
comment TextureFile Dungeons_2_Texture_01_A.png
element vertex 586
property float x
property float y
property float z
property float nx
property float ny
property float nz
property uchar red
property uchar green
property uchar blue
property uchar alpha
property float texture_u
property float texture_v
element face 308
property list uchar int vertex_indices
end_header
48.8682 -892.314 -138.118 1 -0 0 255 255 255 255 0.165106 0.623868
48.8682 -956.45 0.000156 1 -0 0 255 255 255 255 0.151414 0.653355
48.8682 -956.45 -138.118 1 -0 0 255 255 255 255 0.151414 0.623868
64.6631 -880.914 -155.44 1 0 -0 255 255 255 255 0.16754 0.841105
64.6631 -1000 -250 1 0 -0 255 255 255 255 0.142116 0.820917
64.6631 -846.281 -177.778 1 0 -0 255 255 255 255 0.174934 0.836336
64.6631 -975.005 -155.44 1 -0 0 255 255 255 255 0.147452 0.841105
64.6631 -1000 0.000163 1 -0 0 255 255 255 255 0.142116 0.874291
64.6631 -670.013 0.000109 1 -0 0 255 255 255 255 0.212566 0.874291
64.6631 -727.942 0.000119 1 -0 0 255 255 255 255 0.200199 0.874291
64.6631 -761.328 -33.9247 1 0 0 255 255 255 255 0.193071 0.867048
64.6631 -806.758 -110.721 1 0 0 255 255 255 255 0.183372 0.850653
64.6631 -856.102 -130.227 1 0 -0 255 255 255 255 0.172837 0.846488
64.6631 -880.914 -155.44 0.738933 0 0.673779 255 255 255 255 0.16754 0.62017
48.8682 -956.45 -138.118 0.738933 0 0.673779 255 255 255 255 0.151414 0.623868
64.6631 -975.005 -155.44 0.738933 0 0.673779 255 255 255 255 0.147452 0.62017
48.8682 -956.45 -138.118 0.761472 0.648198 -0 255 255 255 255 0.151414 0.623868
64.6631 -975.005 0.000159 0.761472 0.648198 -0 255 255 255 255 0.147452 0.653355
64.6631 -975.005 -155.44 0.761472 0.648198 -0 255 255 255 255 0.147452 0.62017
64.6631 -727.942 0.000119 0.839719 -0.387038 0.380884 255 255 255 255 0.200199 0.653355
48.8682 -762.211 0.000124 0.839719 -0.387038 0.380884 255 255 255 255 0.192882 0.653355
64.6631 -761.328 -33.9247 0.839719 -0.387038 0.380884 255 255 255 255 0.193071 0.646112
64.6631 -880.914 -155.44 0.788885 -0.438017 0.431046 255 255 255 255 0.16754 0.62017
64.6631 -856.102 -130.227 0.788885 -0.438017 0.431046 255 255 255 255 0.172837 0.625552
48.8682 -892.314 -138.118 0.788885 -0.438017 0.431046 255 255 255 255 0.165106 0.623868
64.6631 -761.328 -33.9247 0.839649 -0.387229 0.380847 255 255 255 255 0.193071 0.646112
48.8682 -762.211 0.000124 0.839649 -0.387229 0.380847 255 255 255 255 0.192882 0.653355
57.127 -825.15 -82.202 0.839649 -0.387229 0.380847 255 255 255 255 0.179445 0.635806
48.8682 -762.211 0.000124 0.787407 -0.448709 0.422671 255 255 255 255 0.192882 0.653355
48.8682 -892.314 -138.118 0.787407 -0.448709 0.422671 255 255 255 255 0.165106 0.623868
57.127 -825.15 -82.202 0.787407 -0.448709 0.422671 255 255 255 255 0.179445 0.635806
48.8682 -892.314 -138.118 0.800864 -0.438245 0.408115 255 255 255 255 0.165106 0.623868
64.6631 -856.102 -130.227 0.800864 -0.438245 0.408115 255 255 255 255 0.172837 0.625552
57.127 -825.15 -82.202 0.800864 -0.438245 0.408115 255 255 255 255 0.179445 0.635806
64.6631 -727.942 0.000119 0 0 1 255 255 255 255 0.016929 0.919523
40 -670.013 0.000109 0 0 1 255 255 255 255 0.022194 0.907156
48.8682 -762.211 0.000124 0 0 1 255 255 255 255 0.020301 0.92684
22.4004 -108.4 -500 0 0 -1 255 255 255 255 0.141883 0.973942
40 -155.617 -500 0 0 -1 255 255 255 255 0.138125 0.963861
22.4004 -187.84 -500 0 0 -1 255 255 255 255 0.141883 0.956982
22.4004 -187.84 -500 0.877627 -0.479344 0 255 255 255 255 0.114778 0.516586
40 -155.617 -500 0.877627 -0.479344 0 255 255 255 255 0.121657 0.516586
22.4004 -187.84 3.1e-05 0.877627 -0.479344 0 255 255 255 255 0.114778 0.623333
40 -155.617 -170.728 0.877627 -0.479344 0 255 255 255 255 0.121657 0.586883
40 -155.617 -170.728 0.877623 -0.479351 -2e-06 255 255 255 255 0.121657 0.586883
34.5576 -165.581 -72.4443 0.877623 -0.479351 -2e-06 255 255 255 255 0.11953 0.607866
22.4004 -187.84 3.1e-05 0.877623 -0.479351 -2e-06 255 255 255 255 0.114778 0.623333
34.5576 -165.581 -72.4443 0.877645 -0.479312 1.4e-05 255 255 255 255 0.11953 0.607866
39.999 -155.617 -34.792 0.877645 -0.479312 1.4e-05 255 255 255 255 0.121657 0.615905
22.4004 -187.84 3.1e-05 0.877645 -0.479312 1.4e-05 255 255 255 255 0.114778 0.623333
22.4004 -187.84 3.1e-05 0.877627 -0.479344 -2.5e-05 255 255 255 255 0.114778 0.623333
39.999 -155.617 -34.792 0.877627 -0.479344 -2.5e-05 255 255 255 255 0.121657 0.615905
40 -155.617 2.5e-05 0.877627 -0.479344 -2.5e-05 255 255 255 255 0.121657 0.623333
40 -155.617 -500 1 0 0 255 255 255 255 0.121657 0.767544
40 -72.0001 -500 1 0 0 255 255 255 255 0.139509 0.767544
40 -155.617 -170.728 1 0 0 255 255 255 255 0.121657 0.837842
40 -155.617 2.5e-05 1 -0 -2.8e-05 255 255 255 255 0.121657 0.874291
39.999 -155.617 -34.792 1 -0 -2.8e-05 255 255 255 255 0.121657 0.866863
40 -72 1.2e-05 1 -0 -2.8e-05 255 255 255 255 0.139509 0.874291
39.999 -155.617 -34.792 1 -1.8e-05 1.6e-05 255 255 255 255 0.121657 0.866863
40 -136.027 -72.9492 1 -1.8e-05 1.6e-05 255 255 255 255 0.12584 0.858717
40 -72 1.2e-05 1 -1.8e-05 1.6e-05 255 255 255 255 0.139509 0.874291
40 -72 1.2e-05 1 0 -0 255 255 255 255 0.139509 0.874291
40 -136.027 -72.9492 1 0 -0 255 255 255 255 0.12584 0.858717
-548.868 -892.314 -138.118 -1 -0 -0 255 255 255 255 0.064711 0.576096
-548.868 -956.45 0.000156 -1 -0 -0 255 255 255 255 0.051019 0.546608
-548.868 -762.211 0.000124 -1 -0 -0 255 255 255 255 0.092487 0.546608
-564.663 -1000 -250 -1 -0 0 255 255 255 255 0.041721 0.820917
-564.663 -880.914 -155.44 -1 -0 0 255 255 255 255 0.067145 0.80073
-564.663 -846.281 -177.778 -1 -0 0 255 255 255 255 0.074539 0.805498
-564.663 -1000 0.000163 -1 0 0 255 255 255 255 0.041721 0.767544
-564.663 -975.005 -155.44 -1 0 0 255 255 255 255 0.047057 0.80073
-564.663 -880.914 -155.44 -1 -9e-06 -1.4e-05 255 255 255 255 0.067145 0.80073
-564.664 -838.815 -112.663 -1 -9e-06 -1.4e-05 255 255 255 255 0.076133 0.791597
-564.663 -846.281 -177.778 -1 -9e-06 -1.4e-05 255 255 255 255 0.074539 0.805498
-564.664 -838.815 -112.663 -1 2.7e-05 -1.8e-05 255 255 255 255 0.076133 0.791597
-564.663 -783.346 -83.5184 -1 2.7e-05 -1.8e-05 255 255 255 255 0.087975 0.785375
-564.663 -846.281 -177.778 -1 2.7e-05 -1.8e-05 255 255 255 255 0.074539 0.805498
-564.663 -783.346 -83.5184 -1 0 0 255 255 255 255 0.087975 0.785375
-564.663 -670.013 0.000109 -1 0 0 255 255 255 255 0.112171 0.767544
-564.663 -767.381 -40.0751 -1 0 0 255 255 255 255 0.091383 0.7761
-564.663 -727.942 0.000119 -1 0 -0 255 255 255 255 0.099803 0.767544
-564.663 -880.914 -155.44 -0.738933 0 0.673779 255 255 255 255 0.067145 0.579794
-548.868 -956.45 -138.118 -0.738933 0 0.673779 255 255 255 255 0.051019 0.576096
-548.868 -892.314 -138.118 -0.738933 0 0.673779 255 255 255 255 0.064711 0.576096
-564.663 -975.005 0.000159 -0.761472 0.648198 0 255 255 255 255 0.047057 0.546608
-548.868 -956.45 -138.118 -0.761472 0.648198 0 255 255 255 255 0.051019 0.576096
-564.663 -975.005 -155.44 -0.761472 0.648198 0 255 255 255 255 0.047057 0.579794
-564.663 -727.942 0.000119 -0.839717 -0.387037 0.380892 255 255 255 255 0.099803 0.546608
-564.663 -767.381 -40.0751 -0.839717 -0.387037 0.380892 255 255 255 255 0.091383 0.555164
-548.868 -762.211 0.000124 -0.839717 -0.387037 0.380892 255 255 255 255 0.092487 0.546608
-564.663 -880.914 -155.44 -0.788885 -0.438018 0.431046 255 255 255 255 0.067145 0.579794
-548.868 -892.314 -138.118 -0.788885 -0.438018 0.431046 255 255 255 255 0.064711 0.576096
-564.664 -838.815 -112.663 -0.788885 -0.438018 0.431046 255 255 255 255 0.076133 0.570661
-564.663 -767.381 -40.0751 -0.839206 -0.388193 0.38084 255 255 255 255 0.091383 0.555164
-555.589 -816.32 -69.9628 -0.839206 -0.388193 0.38084 255 255 255 255 0.080935 0.561545
-548.868 -762.211 0.000124 -0.839206 -0.388193 0.38084 255 255 255 255 0.092487 0.546608
-548.868 -762.211 0.000124 -0.787423 -0.448694 0.422657 255 255 255 255 0.092487 0.546608
-555.589 -816.32 -69.9628 -0.787423 -0.448694 0.422657 255 255 255 255 0.080935 0.561545
-548.868 -892.314 -138.118 -0.787423 -0.448694 0.422657 255 255 255 255 0.064711 0.576096
-555.589 -816.32 -69.9628 -0.81081 -0.428903 0.398283 255 255 255 255 0.080935 0.561545
-564.664 -838.815 -112.663 -0.81081 -0.428903 0.398283 255 255 255 255 0.076133 0.570661
-548.868 -892.314 -138.118 -0.81081 -0.428903 0.398283 255 255 255 255 0.064711 0.576096
-564.663 -1000 0.000163 0 0 1 255 255 255 255 0.151286 0.977606
64.6631 -1000 0.000163 0 0 1 255 255 255 255 0.016929 0.977606
-564.663 -975.005 0.000159 0 0 1 255 255 255 255 0.151286 0.97227
-548.868 -956.45 0.000156 0 0 1 255 255 255 255 0.147914 0.968308
64.6631 -975.005 0.000159 -0 0 1 255 255 255 255 0.016929 0.97227
48.8682 -956.45 0.000156 -0 0 1 255 255 255 255 0.020301 0.968308
-548.868 -762.211 0.000124 0 0 1 255 255 255 255 0.147914 0.92684
-540 -670.013 0.000109 -0 0 1 255 255 255 255 0.14602 0.907156
-564.663 -727.942 0.000119 -0 0 1 255 255 255 255 0.151286 0.919523
-564.663 -670.013 0.000109 -0 0 1 255 255 255 255 0.151286 0.907156
-540 -155.617 -500 -0 0 -1 255 255 255 255 0.148508 0.946618
-522.4 -108.4 -500 -0 0 -1 255 255 255 255 0.144751 0.956699
-522.4 -187.84 -500 -0 0 -1 255 255 255 255 0.144751 0.939739
-540 -155.617 2.5e-05 -0.877627 -0.479344 0 255 255 255 255 0.021262 0.542759
-540 -155.617 -33.3086 -0.877627 -0.479344 0 255 255 255 255 0.021262 0.54987
-522.4 -187.84 3.1e-05 -0.877627 -0.479344 0 255 255 255 255 0.014383 0.542759
-540 -155.617 -500 -0.877627 -0.479344 0 255 255 255 255 0.021262 0.649506
-522.4 -187.84 -500 -0.877627 -0.479344 0 255 255 255 255 0.014383 0.649506
-540 -155.617 -181.596 -0.877627 -0.479344 0 255 255 255 255 0.021262 0.581529
-540 -155.617 -181.596 -0.877617 -0.479362 -4e-06 255 255 255 255 0.021262 0.581529
-522.4 -187.84 3.1e-05 -0.877617 -0.479362 -4e-06 255 255 255 255 0.014383 0.542759
-535.415 -164.012 -126.36 -0.877617 -0.479362 -4e-06 255 255 255 255 0.01947 0.569737
-535.415 -164.012 -126.36 -0.877627 -0.479344 0 255 255 255 255 0.01947 0.569737
-540 -155.617 -500 -1 -0 0 255 255 255 255 0.021262 0.874291
-540 -155.617 -181.596 -1 -0 0 255 255 255 255 0.021262 0.806314
-540 -72.0001 -500 -1 -0 0 255 255 255 255 0.039114 0.874291
-540 -155.617 2.5e-05 -1 0 0 255 255 255 255 0.021262 0.767544
-540 -72 1.2e-05 -1 0 0 255 255 255 255 0.039114 0.767544
-540 -155.617 -33.3086 -1 0 0 255 255 255 255 0.021262 0.774655
-540 -130.161 -124.155 -1 -0 0 255 255 255 255 0.026696 0.79405
40 -155.617 2.5e-05 0 0 1 255 255 255 255 0.151376 0.957591
22.4004 -108.4 1.8e-05 0 0 1 255 255 255 255 0.155134 0.94751
22.4004 -187.84 3.1e-05 0 0 1 255 255 255 255 0.155134 0.96447
-540 -155.617 2.5e-05 -0 0 1 255 255 255 255 0.161759 0.957591
-522.4 -108.4 1.8e-05 -0 0 1 255 255 255 255 0.158002 0.94751
-540 -72 1.2e-05 -0 0 1 255 255 255 255 0.161759 0.939739
-564.663 -846.281 -322.222 -1 0 -0 255 255 255 255 0.074539 0.836336
64.6631 -1000 -250 0 -1 0 255 255 255 255 0.088819 0.955286
-564.663 -1000 -500 0 -1 0 255 255 255 255 0.142193 0.820928
64.6631 -1000 -500 0 -1 0 255 255 255 255 0.142193 0.955286
-540 -846.281 -322.222 -0.62755 0 0.778576 255 255 255 255 0.150194 0.596561
-499.372 -399.761 -289.475 -0.62755 0 0.778576 255 255 255 255 0.157185 0.69189
-540 -372.38 -322.222 -0.62755 0 0.778576 255 255 255 255 0.150194 0.697736
-499.372 -399.761 -289.475 -1 -0 -0 255 255 255 255 0.157185 0.69189
-499.372 -846.281 -210.525 -1 -0 -0 255 255 255 255 0.17404 0.596561
-499.372 -399.761 -210.525 -1 -0 -0 255 255 255 255 0.17404 0.69189
-540 -670.013 -500 -1 -0 -0 255 255 255 255 0.112239 0.855129
-540 -846.281 -322.222 -1 -0 -0 255 255 255 255 0.150194 0.817497
-540 -372.38 -322.222 -1 -0 -0 255 255 255 255 0.150194 0.918672
40 -846.281 -322.222 0.627551 0 0.778576 255 255 255 255 0.120169 0.551803
-0.62793 -399.761 -289.475 0.627551 0 0.778576 255 255 255 255 0.113178 0.647132
-0.62793 -846.281 -289.474 0.627551 0 0.778576 255 255 255 255 0.113178 0.551803
40 -372.38 -322.222 1 -0 -0 255 255 255 255 0.120169 0.873914
40 -846.281 -322.222 1 -0 -0 255 255 255 255 0.120169 0.772739
40 -670.013 -500 1 -0 -0 255 255 255 255 0.158124 0.810371
40 -670.013 -500 -0 -0 -1 255 255 255 255 0.066332 0.834563
-540 -299.09 -500 -0 -0 -1 255 255 255 255 0.190158 0.913752
40 -299.09 -500 -0 -0 -1 255 255 255 255 0.066332 0.913752
40 -299.09 -500 1 0 -0 255 255 255 255 0.158124 0.889561
64.6631 -846.281 -322.222 0 1 -0 255 255 255 255 0.008031 0.693006
40 -846.281 -322.222 0 1 -0 255 255 255 255 0.013297 0.693006
64.6631 -846.281 -177.778 0 1 -0 255 255 255 255 0.008031 0.723843
-0.62793 -846.281 -289.474 -0 1 -0 255 255 255 255 0.02197 0.699997
64.6631 -846.281 -177.778 0 1 -1e-06 255 255 255 255 0.008031 0.723843
-0.62793 -846.281 -289.474 0 1 -1e-06 255 255 255 255 0.02197 0.699997
40 -846.281 -177.778 0 1 -1e-06 255 255 255 255 0.013297 0.723843
-0.62793 -846.281 -289.474 -2e-06 1 0 255 255 255 255 0.02197 0.699997
-0.62793 -846.281 -210.525 -2e-06 1 0 255 255 255 255 0.02197 0.716852
40 -846.281 -177.778 -2e-06 1 0 255 255 255 255 0.013297 0.723843
64.6631 -670.013 -500 0 0.710116 0.704085 255 255 255 255 0.008031 0.875987
40 -846.281 -322.222 0 0.710116 0.704085 255 255 255 255 0.013297 0.913941
64.6631 -846.281 -322.222 0 0.710116 0.704085 255 255 255 255 0.008031 0.913941
-564.663 -846.281 -322.222 -0 0.710116 0.704085 255 255 255 255 0.038617 0.913941
-540 -670.013 -500 -0 0.710116 0.704085 255 255 255 255 0.033351 0.875987
-564.663 -670.013 -500 -0 0.710116 0.704085 255 255 255 255 0.038617 0.875987
-540 -299.09 -500 -1 -0 0 255 255 255 255 0.112239 0.934319
-553.992 -750.534 -442.126 -1 -0 0 255 255 255 255 0.230827 0.903597
-553.992 -639.586 -442.125 -1 -0 0 255 255 255 255 0.230827 0.927284
-553.992 -670.013 -500 -1 -0 0 255 255 255 255 0.218472 0.920788
-553.992 -385.466 -500 -1 0 -0 255 255 255 255 0.218472 0.981537
-553.992 -449.358 -442.126 -1 0 -0 255 255 255 255 0.230827 0.967896
-553.992 -503.502 -442.126 -1 0 -0 255 255 255 255 0.230827 0.956337
-553.992 -538.122 -453.375 -1 0 -0 255 255 255 255 0.228426 0.948946
-540 -449.358 -424.58 -0.680771 0.491755 0.542889 255 255 255 255 0.234573 0.967896
-553.992 -385.466 -500 -0.680771 0.491755 0.542889 255 255 255 255 0.218472 0.981537
-553.992 -449.358 -442.126 -0.680771 0.491755 0.542889 255 255 255 255 0.230827 0.967896
-553.992 -750.534 -442.126 -0.781836 -5e-06 0.623484 255 255 255 255 0.230827 0.903597
-540 -750.534 -424.58 -0.781836 -5e-06 0.623484 255 255 255 255 0.234573 0.903597
-553.992 -639.586 -442.125 -0.781836 -5e-06 0.623484 255 255 255 255 0.230827 0.927284
-540 -750.534 -424.58 -0.781819 0 0.623505 255 255 255 255 0.234573 0.903597
-540 -449.358 -424.58 -0.781819 0 0.623505 255 255 255 255 0.234573 0.967896
-553.992 -639.586 -442.125 -0.781819 0 0.623505 255 255 255 255 0.230827 0.927284
-553.992 -639.586 -442.125 -0.781909 1.7e-05 0.623392 255 255 255 255 0.230827 0.927284
-540 -449.358 -424.58 -0.781909 1.7e-05 0.623392 255 255 255 255 0.234573 0.967896
-547.92 -529.149 -434.512 -0.781909 1.7e-05 0.623392 255 255 255 255 0.232453 0.950862
-547.92 -529.149 -434.512 -0.781831 -3e-06 0.62349 255 255 255 255 0.232453 0.950862
-540 -449.358 -424.58 -0.781831 -3e-06 0.62349 255 255 255 255 0.234573 0.967896
-553.992 -503.502 -442.126 -0.781831 -3e-06 0.62349 255 255 255 255 0.230827 0.956337
-540 -449.358 -424.58 -0.781836 0 0.623484 255 255 255 255 0.234573 0.967896
-553.992 -449.358 -442.126 -0.781836 0 0.623484 255 255 255 255 0.230827 0.967896
-553.992 -503.502 -442.126 -0.781836 0 0.623484 255 255 255 255 0.230827 0.956337
-553.992 -385.466 -500 0 -0 -1 255 255 255 255 0.204229 0.964346
-540 -670.013 -500 0 -0 -1 255 255 255 255 0.201241 0.903597
-553.992 -670.013 -500 0 -0 -1 255 255 255 255 0.204229 0.903597
53.9922 -670.013 -500 1 0 0 255 255 255 255 0.160199 0.920788
53.9922 -449.358 -442.126 1 0 0 255 255 255 255 0.147843 0.967896
53.9922 -750.534 -442.126 1 0 0 255 255 255 255 0.147843 0.903597
40 -449.358 -424.58 0.680164 0.492253 0.543198 255 255 255 255 0.144097 0.967896
53.9922 -385.466 -500 0.680164 0.492253 0.543198 255 255 255 255 0.160199 0.981537
40 -366.132 -500 0.680164 0.492253 0.543198 255 255 255 255 0.160199 0.985664
53.9922 -449.358 -442.126 0.781836 0 0.623484 255 255 255 255 0.147843 0.967896
40 -750.534 -424.58 0.781836 0 0.623484 255 255 255 255 0.144097 0.903597
53.9922 -750.534 -442.126 0.781836 0 0.623484 255 255 255 255 0.147843 0.903597
53.9922 -385.466 -500 -0 -0 -1 255 255 255 255 0.079806 0.914521
40 -670.013 -500 -0 -0 -1 255 255 255 255 0.082793 0.853772
40 -366.132 -500 -0 -0 -1 255 255 255 255 0.082793 0.918648
64.6631 -846.281 -322.222 1 -0 0 255 255 255 255 0.174934 0.805498
-564.663 -1000 -250 0 -1 0 255 255 255 255 0.088819 0.820928
64.6631 -1000 0.000163 0 -1 0 255 255 255 255 0.035446 0.955286
-564.663 -1000 0.000163 0 -1 0 255 255 255 255 0.035446 0.820928
40 -299.09 -421.651 1 0 0 255 255 255 255 0.141397 0.889561
40 -372.38 -177.778 1 0 0 255 255 255 255 0.089331 0.873914
40 -307.342 -333.99 1 0 0 255 255 255 255 0.122682 0.887799
40 -299.09 4.9e-05 1 0 -0 255 255 255 255 0.051377 0.889561
40 -299.09 -249.969 1 0 -0 255 255 255 255 0.104743 0.889561
40 -372.38 -177.778 0.627551 -0 -0.778576 255 255 255 255 0.089331 0.652978
40 -447.164 -177.778 0.627551 -0 -0.778576 255 255 255 255 0.089331 0.637012
-0.62793 -399.761 -210.525 0.627551 -0 -0.778576 255 255 255 255 0.096323 0.647132
40 -846.281 -177.778 0.62755 -0 -0.778576 255 255 255 255 0.089331 0.551803
-0.62793 -846.281 -210.525 0.62755 -0 -0.778576 255 255 255 255 0.096323 0.551803
40 -660.86 -177.778 0.62755 -0 -0.778576 255 255 255 255 0.089331 0.591389
20.3809 -504.144 -193.592 0.627551 -0 -0.778576 255 255 255 255 0.092707 0.624847
-0.62793 -846.281 -210.525 0.627551 -0 -0.778576 255 255 255 255 0.096323 0.551803
20.3809 -504.144 -193.592 0.62755 -0 -0.778576 255 255 255 255 0.092707 0.624847
-0.62793 -399.761 -210.525 1 0 -0 255 255 255 255 0.096323 0.647132
-0.62793 -846.281 -289.474 1 0 -0 255 255 255 255 0.113178 0.551803
-0.62793 -399.761 -289.475 1 0 -0 255 255 255 255 0.113178 0.647132
40 -670.013 0.000109 1 -0 -0 255 255 255 255 0.051377 0.810371
40 -447.164 -177.778 1 -0 -0 255 255 255 255 0.089331 0.857948
40 -513.341 -160.776 1 -0 -0 255 255 255 255 0.085701 0.84382
40 -846.281 -177.778 1 0 0 255 255 255 255 0.089331 0.772739
40 -660.86 -177.778 1 0 0 255 255 255 255 0.089331 0.812325
22.4004 -108.4 1.8e-05 1 -0 0 255 255 255 255 0.051377 0.679314
22.4004 -262.69 4.3e-05 1 -0 0 255 255 255 255 0.051377 0.646374
22.4004 -262.69 -500 1 -0 0 255 255 255 255 0.158124 0.646374
-540 -372.38 -177.778 -1 -0 0 255 255 255 255 0.181032 0.918672
-540 -299.09 4.9e-05 -1 -0 0 255 255 255 255 0.218986 0.934319
-540 -372.38 -177.778 -0.627551 -0 -0.778576 255 255 255 255 0.181032 0.697736
-499.372 -399.761 -210.525 -0.627551 -0 -0.778576 255 255 255 255 0.17404 0.69189
-540 -491.605 -177.778 -0.627551 -0 -0.778576 255 255 255 255 0.181032 0.672282
-499.372 -846.281 -210.525 -0.627551 -0 -0.778576 255 255 255 255 0.17404 0.596561
-540 -846.281 -177.778 -0.627551 -0 -0.778576 255 255 255 255 0.181032 0.596561
-540 -491.605 -177.778 -0.627552 1e-06 -0.778575 255 255 255 255 0.181032 0.672282
-499.372 -399.761 -210.525 -0.627552 1e-06 -0.778575 255 255 255 255 0.17404 0.69189
-522.258 -594.098 -192.079 -0.627552 1e-06 -0.778575 255 255 255 255 0.177978 0.650401
-499.372 -399.761 -210.525 -0.627536 -2e-06 -0.778588 255 255 255 255 0.17404 0.69189
-540 -846.281 -177.778 -0.627536 -2e-06 -0.778588 255 255 255 255 0.181032 0.596561
-522.258 -594.098 -192.079 -0.627536 -2e-06 -0.778588 255 255 255 255 0.177978 0.650401
-540 -846.281 -177.778 -0.627555 -0 -0.778573 255 255 255 255 0.181032 0.596561
-540 -698.019 -177.778 -0.627555 -0 -0.778573 255 255 255 255 0.181032 0.628214
-522.258 -594.098 -192.079 -0.627555 -0 -0.778573 255 255 255 255 0.177978 0.650401
-522.4 -108.4 1.8e-05 -1 0 -0 255 255 255 255 0.218986 0.724072
-522.4 -262.69 -500 -1 0 -0 255 255 255 255 0.112239 0.691132
-522.4 -262.69 4.3e-05 -1 0 -0 255 255 255 255 0.218986 0.691132
22.4004 -108.4 1.8e-05 0 0 1 255 255 255 255 0.025951 0.787255
-490.35 -22.793 4e-06 0 0 1 255 255 255 255 0.13542 0.768979
-522.4 -108.4 1.8e-05 0 0 1 255 255 255 255 0.142263 0.787255
-540 -491.605 -177.778 -1 0 0 255 255 255 255 0.181032 0.893218
-540 -670.013 0.000109 -1 0 0 255 255 255 255 0.218986 0.855129
-540 -594.955 -159.658 -1 0 0 255 255 255 255 0.1849 0.871153
-540 -846.281 -177.778 -1 -0 0 255 255 255 255 0.181032 0.817497
-540 -698.019 -177.778 -1 -0 0 255 255 255 255 0.181032 0.84915
40 -299.09 -500 0.900288 0.435294 -0 255 255 255 255 0.158124 0.889561
22.4004 -262.69 -500 0.900288 0.435294 -0 255 255 255 255 0.158124 0.897332
40 -299.09 -421.651 0.900288 0.435294 -0 255 255 255 255 0.141397 0.889561
22.4004 -262.69 4.3e-05 0.900288 0.435294 -0 255 255 255 255 0.051377 0.897332
40 -299.09 4.9e-05 0.900288 0.435294 -0 255 255 255 255 0.051377 0.889561
40 -299.09 -421.651 0.900287 0.435297 1e-06 255 255 255 255 0.141397 0.889561
22.4004 -262.69 -500 0.900287 0.435297 1e-06 255 255 255 255 0.158124 0.897332
30.375 -279.184 -361.402 0.900287 0.435297 1e-06 255 255 255 255 0.128534 0.893811
22.4004 -262.69 -500 0.900298 0.435274 -2e-06 255 255 255 255 0.158124 0.897332
40 -299.09 4.9e-05 0.900298 0.435274 -2e-06 255 255 255 255 0.051377 0.889561
30.375 -279.184 -361.402 0.900298 0.435274 -2e-06 255 255 255 255 0.128534 0.893811
40 -299.09 4.9e-05 0.900285 0.435301 -0 255 255 255 255 0.051377 0.889561
40 -299.09 -249.969 0.900285 0.435301 -0 255 255 255 255 0.104743 0.889561
30.375 -279.184 -361.402 0.900285 0.435301 -0 255 255 255 255 0.128534 0.893811
22.4004 -139.328 -500 1 0 -0 255 255 255 255 0.158124 0.672711
22.4004 -108.4 -500 1 0 -0 255 255 255 255 0.158124 0.679314
40 -299.09 4.9e-05 -0 0 1 255 255 255 255 0.022194 0.827966
-540 -299.09 4.9e-05 -0 0 1 255 255 255 255 0.14602 0.827966
22.4004 -108.4 -500 0.900288 -0.435294 0 255 255 255 255 0.158124 0.930272
40 -72 1.2e-05 0.900288 -0.435294 0 255 255 255 255 0.051377 0.938043
22.4004 -108.4 1.8e-05 0.900288 -0.435294 0 255 255 255 255 0.051377 0.930272
-522.4 -262.69 4.3e-05 0 0 1 255 255 255 255 0.142263 0.820195
22.4004 -262.69 4.3e-05 0 0 1 255 255 255 255 0.025951 0.820195
40 -72.0001 -500 1 0 0 255 255 255 255 0.041241 0.875987
40 -11.662 2e-06 1 0 0 255 255 255 255 0.054123 0.982734
40 -72 1.2e-05 1 0 0 255 255 255 255 0.041241 0.982734
-540 -299.09 4.9e-05 -0.900288 0.435294 -0 255 255 255 255 0.218986 0.934319
-522.4 -262.69 -500 -0.900288 0.435294 -0 255 255 255 255 0.112239 0.94209
-540 -299.09 -500 -0.900288 0.435294 -0 255 255 255 255 0.112239 0.934319
1.12305 0 0 0 1 -0 255 255 255 255 0.065271 0.982734
28.3379 -8.1e-05 -500 0 1 -0 255 255 255 255 0.059461 0.875987
1.12305 -8.1e-05 -500 0 1 -0 255 255 255 255 0.065271 0.875987
1.12305 0 0 -0.904095 0.427333 -0 255 255 255 255 0.073437 0.875987
-9.65039 -22.7931 -500 -0.904095 0.427333 -0 255 255 255 255 0.068571 0.982734
-9.65039 -22.793 4e-06 -0.904095 0.427333 -0 255 255 255 255 0.068571 0.875987
-522.4 -139.328 -500 -1 0 0 255 255 255 255 0.112239 0.717469
-9.65039 -22.793 4e-06 0 1 -0 255 255 255 255 0.076853 0.982734
-490.35 -22.7931 -500 0 1 -0 255 255 255 255 0.179479 0.875987
-490.35 -22.793 4e-06 0 1 -0 255 255 255 255 0.179479 0.982734
-490.35 -22.7931 -500 0.904095 0.427333 -0 255 255 255 255 0.18286 0.875987
-501.123 0 0 0.904095 0.427333 -0 255 255 255 255 0.187726 0.982734
-490.35 -22.793 4e-06 0.904095 0.427333 -0 255 255 255 255 0.18286 0.982734
-540 -72 1.2e-05 -0.900288 -0.435294 0 255 255 255 255 0.218986 0.982801
-522.4 -108.4 -500 -0.900288 -0.435294 0 255 255 255 255 0.112239 0.97503
-522.4 -108.4 1.8e-05 -0.900288 -0.435294 0 255 255 255 255 0.218986 0.97503
40 -72 1.2e-05 -0 0 1 255 255 255 255 0.022194 0.779484
-9.65039 -22.793 4e-06 -0 0 1 255 255 255 255 0.032794 0.768979
-528.338 -8.1e-05 -500 0 1 -0 255 255 255 255 0.196952 0.875987
-501.123 0 0 0 1 -0 255 255 255 255 0.191142 0.982734
-501.123 -8.1e-05 -500 0 1 -0 255 255 255 255 0.191142 0.875987
-540 -11.662 2e-06 -1 0 -0 255 255 255 255 0.172205 0.800387
-540 -72.0001 -500 -1 0 -0 255 255 255 255 0.159324 0.907134
-540 -72 1.2e-05 -1 0 -0 255 255 255 255 0.159324 0.800387
-540 -72 1.2e-05 0 0 1 255 255 255 255 0.14602 0.779484
-564.663 -846.281 -322.222 0 1 -0 255 255 255 255 0.038617 0.693006
-564.663 -846.281 -177.778 0 1 -0 255 255 255 255 0.038617 0.723843
-540 -846.281 -322.222 0 1 -0 255 255 255 255 0.033351 0.693006
-499.372 -846.281 -289.474 0 1 -0 255 255 255 255 0.024678 0.699997
-564.663 -846.281 -177.778 0 1 -1e-06 255 255 255 255 0.038617 0.723843
-540 -846.281 -177.778 0 1 -1e-06 255 255 255 255 0.033351 0.723843
-499.372 -846.281 -289.474 0 1 -1e-06 255 255 255 255 0.024678 0.699997
-540 -846.281 -177.778 2e-06 1 -0 255 255 255 255 0.033351 0.723843
-499.372 -846.281 -210.525 2e-06 1 -0 255 255 255 255 0.024678 0.716852
-499.372 -846.281 -289.474 2e-06 1 -0 255 255 255 255 0.024678 0.699997
-564.663 -670.013 0.000109 0 0.710116 -0.704085 255 255 255 255 0.038617 0.982734
-540 -846.281 -177.778 0 0.710116 -0.704085 255 255 255 255 0.033351 0.944779
-564.663 -846.281 -177.778 0 0.710116 -0.704085 255 255 255 255 0.038617 0.944779
64.6631 -846.281 -177.778 0 0.710116 -0.704085 255 255 255 255 0.008031 0.944779
40 -670.013 0.000109 0 0.710116 -0.704085 255 255 255 255 0.013297 0.982734
64.6631 -670.013 0.000109 0 0.710116 -0.704085 255 255 255 255 0.008031 0.982734
53.9922 -449.358 -57.874 1 -0 0 255 255 255 255 0.175501 0.967896
53.9922 -670.013 0.000109 1 -0 0 255 255 255 255 0.163145 0.920788
53.9922 -750.534 -57.8739 1 -0 0 255 255 255 255 0.175501 0.903597
40 -449.358 -75.4198 0.68077 0.491755 -0.542889 255 255 255 255 0.179247 0.967896
53.9922 -385.466 6.3e-05 0.68077 0.491755 -0.542889 255 255 255 255 0.163145 0.981537
53.9922 -449.358 -57.874 0.68077 0.491755 -0.542889 255 255 255 255 0.175501 0.967896
40 -750.534 -75.4198 0.781836 -0 -0.623484 255 255 255 255 0.179247 0.903597
53.9922 -449.358 -57.874 0.781836 -0 -0.623484 255 255 255 255 0.175501 0.967896
53.9922 -750.534 -57.8739 0.781836 -0 -0.623484 255 255 255 255 0.175501 0.903597
53.9922 -385.466 6.3e-05 0 0 1 255 255 255 255 0.085603 0.857899
40 -670.013 0.000109 0 0 1 255 255 255 255 0.08859 0.918648
53.9922 -670.013 0.000109 0 0 1 255 255 255 255 0.085603 0.918648
-553.992 -670.013 0.000109 -1 0 0 255 255 255 255 0.198295 0.920788
-553.992 -449.358 -57.874 -1 0 0 255 255 255 255 0.185939 0.967896
-553.992 -750.534 -57.8739 -1 0 0 255 255 255 255 0.185939 0.903597
-540 -449.358 -75.4198 -0.680164 0.492253 -0.543198 255 255 255 255 0.182193 0.967896
-553.992 -385.466 6.3e-05 -0.680164 0.492253 -0.543198 255 255 255 255 0.198295 0.981537
-540 -366.132 6e-05 -0.680164 0.492253 -0.543198 255 255 255 255 0.198295 0.985664
-553.992 -449.358 -57.874 -0.781836 -0 -0.623484 255 255 255 255 0.185939 0.967896
-540 -750.534 -75.4198 -0.781836 -0 -0.623484 255 255 255 255 0.182193 0.903597
-553.992 -750.534 -57.8739 -0.781836 -0 -0.623484 255 255 255 255 0.185939 0.903597
-553.992 -385.466 6.3e-05 -0 0 1 255 255 255 255 0.094387 0.857899
-540 -670.013 0.000109 -0 0 1 255 255 255 255 0.0914 0.918648
-540 -366.132 6e-05 -0 0 1 255 255 255 255 0.0914 0.853772
40 -11.662 2e-06 0 0 1 255 255 255 255 0.022194 0.766602
1.12305 0 0 0 0 1 255 255 255 255 0.030494 0.764112
-540 -11.662 2e-06 -0 0 1 255 255 255 255 0.14602 0.766602
-501.123 0 0 -0 0 1 255 255 255 255 0.13772 0.764112
-528.338 0 0 -0 0 1 255 255 255 255 0.143531 0.764112
28.3379 -8.1e-05 -500 0.707105 0.707109 -0 255 255 255 255 0.056613 0.875987
40 -11.662 2e-06 0.707105 0.707109 -0 255 255 255 255 0.054123 0.982734
40 -11.6621 -500 0.707105 0.707109 -0 255 255 255 255 0.054123 0.875987
-540 -11.6621 -500 -0.707105 0.707109 -0 255 255 255 255 0.172205 0.907134
-528.338 0 0 -0.707105 0.707109 -0 255 255 255 255 0.174695 0.800387
-528.338 -8.1e-05 -500 -0.707105 0.707109 -0 255 255 255 255 0.174695 0.907134
-499.372 -399.761 -289.475 -0.558868 -0.829257 0 255 255 255 255 0.157185 0.69189
-540 -372.38 -177.778 -0.558868 -0.829257 0 255 255 255 255 0.181032 0.697736
-540 -372.38 -322.222 -0.558868 -0.829257 0 255 255 255 255 0.150194 0.697736
-0.62793 -399.761 -210.525 0.558868 -0.829257 0 255 255 255 255 0.096323 0.647132
40 -372.38 -322.222 0.558868 -0.829257 0 255 255 255 255 0.120169 0.652978
40 -372.38 -177.778 0.558868 -0.829257 0 255 255 255 255 0.089331 0.652978
22.4004 -262.69 -500 0 -1e-06 -1 255 255 255 255 0.070089 0.921523
-540 -299.09 -500 0 -1e-06 -1 255 255 255 255 0.190158 0.913752
-522.4 -262.69 -500 0 -1e-06 -1 255 255 255 255 0.186401 0.921523
22.4004 -262.69 -500 0 -0 -1 255 255 255 255 0.070089 0.921523
-522.4 -262.69 -500 0 -0 -1 255 255 255 255 0.186401 0.921523
22.4004 -139.328 -500 0 -0 -1 255 255 255 255 0.070089 0.947861
-522.4 -139.328 -500 -0 -0 -1 255 255 255 255 0.186401 0.947861
-522.4 -108.4 -500 -0 -0 -1 255 255 255 255 0.186401 0.954463
22.4004 -108.4 -500 -0 -0 -1 255 255 255 255 0.070089 0.954463
-522.4 -108.4 -500 0 -1e-06 -1 255 255 255 255 0.186401 0.954463
-540 -72.0001 -500 0 -1e-06 -1 255 255 255 255 0.190158 0.962235
22.4004 -108.4 -500 0 -1e-06 -1 255 255 255 255 0.070089 0.954463
40 -72.0001 -500 -0 -1e-06 -1 255 255 255 255 0.066332 0.962235
-501.123 -8.1e-05 -500 0 0 -1 255 255 255 255 0.181858 0.977606
-490.35 -22.7931 -500 0 0 -1 255 255 255 255 0.179558 0.97274
-528.338 -8.1e-05 -500 0 0 -1 255 255 255 255 0.187668 0.977606
-540 -11.6621 -500 0 0 -1 255 255 255 255 0.190158 0.975116
-540 -72.0001 -500 0 0 -1 255 255 255 255 0.190158 0.962235
40 -72.0001 -500 -0 0 -1 255 255 255 255 0.066332 0.962235
1.12305 -8.1e-05 -500 0 0 -1 255 255 255 255 0.074632 0.977606
28.3379 -8.1e-05 -500 0 0 -1 255 255 255 255 0.068822 0.977606
-9.65039 -22.7931 -500 0 0 -1 255 255 255 255 0.076932 0.97274
40 -11.6621 -500 0 0 -1 255 255 255 255 0.066332 0.975116
48.8682 -892.314 -361.882 1 0 -0 255 255 255 255 0.165106 0.576096
48.8682 -956.45 -500 1 0 -0 255 255 255 255 0.151414 0.546608
48.8682 -762.211 -500 1 0 -0 255 255 255 255 0.192882 0.546608
64.6631 -880.914 -344.559 1 0 0 255 255 255 255 0.16754 0.80073
64.6631 -1000 -500 1 0 0 255 255 255 255 0.142116 0.767544
64.6631 -975.005 -344.559 1 0 0 255 255 255 255 0.147452 0.80073
64.6631 -727.942 -500 1 0 0 255 255 255 255 0.200199 0.767544
64.6631 -670.013 -500 1 0 0 255 255 255 255 0.212566 0.767544
64.6631 -880.914 -344.559 0.738933 0 -0.673779 255 255 255 255 0.16754 0.579794
48.8682 -956.45 -361.882 0.738933 0 -0.673779 255 255 255 255 0.151414 0.576096
48.8682 -892.314 -361.882 0.738933 0 -0.673779 255 255 255 255 0.165106 0.576096
64.6631 -975.005 -500 0.761472 0.648198 0 255 255 255 255 0.147452 0.546608
48.8682 -956.45 -361.882 0.761472 0.648198 0 255 255 255 255 0.151414 0.576096
64.6631 -975.005 -344.559 0.761472 0.648198 0 255 255 255 255 0.147452 0.579794
64.6631 -880.914 -344.559 0.839718 -0.387037 -0.38089 255 255 255 255 0.16754 0.579794
48.8682 -762.211 -500 0.839718 -0.387037 -0.38089 255 255 255 255 0.192882 0.546608
64.6631 -727.942 -500 0.839718 -0.387037 -0.38089 255 255 255 255 0.200199 0.546608
64.6631 -727.942 -500 -0 -0 -1 255 255 255 255 0.061066 0.822195
64.6631 -670.013 -500 -0 -0 -1 255 255 255 255 0.061066 0.834563
-548.868 -892.314 -361.882 -1 0 0 255 255 255 255 0.064711 0.623868
-548.868 -956.45 -500 -1 0 0 255 255 255 255 0.051019 0.653355
-548.868 -956.45 -361.882 -1 0 0 255 255 255 255 0.051019 0.623868
-564.663 -880.914 -344.559 -1 -0 -0 255 255 255 255 0.067145 0.841105
-564.663 -975.005 -344.559 -1 0 0 255 255 255 255 0.047057 0.841105
-564.663 -1000 -500 -1 0 0 255 255 255 255 0.041721 0.874291
-564.663 -727.942 -500 -1 -0 -0 255 255 255 255 0.099803 0.874291
-564.663 -670.013 -500 -1 -0 -0 255 255 255 255 0.112171 0.874291
-564.663 -880.914 -344.559 -0.738933 0 -0.673779 255 255 255 255 0.067145 0.62017
-548.868 -956.45 -361.882 -0.738933 0 -0.673779 255 255 255 255 0.051019 0.623868
-564.663 -975.005 -344.559 -0.738933 0 -0.673779 255 255 255 255 0.047057 0.62017
-548.868 -956.45 -361.882 -0.761472 0.648198 0 255 255 255 255 0.051019 0.623868
-564.663 -975.005 -500 -0.761472 0.648198 0 255 255 255 255 0.047057 0.653355
-564.663 -975.005 -344.559 -0.761472 0.648198 0 255 255 255 255 0.047057 0.62017
-548.868 -762.211 -500 -0.839717 -0.387037 -0.38089 255 255 255 255 0.092487 0.653355
-564.663 -880.914 -344.559 -0.839717 -0.387037 -0.38089 255 255 255 255 0.067145 0.62017
-564.663 -727.942 -500 -0.839717 -0.387037 -0.38089 255 255 255 255 0.099803 0.653355
-564.663 -1000 -500 -0 -0 -1 255 255 255 255 0.195424 0.764112
-564.663 -975.005 -500 -0 -0 -1 255 255 255 255 0.195424 0.769449
64.6631 -1000 -500 -0 -0 -1 255 255 255 255 0.061066 0.764112
-548.868 -956.45 -500 -0 0 -1 255 255 255 255 0.192051 0.77341
64.6631 -975.005 -500 -0 -0 -1 255 255 255 255 0.061066 0.769449
48.8682 -956.45 -500 -0 -0 -1 255 255 255 255 0.064438 0.77341
-548.868 -762.211 -500 0 -0 -1 255 255 255 255 0.192051 0.814879
48.8682 -762.211 -500 -0 -0 -1 255 255 255 255 0.064438 0.814879
-540 -670.013 -500 0 -0 -1 255 255 255 255 0.190158 0.834563
-564.663 -727.942 -500 -0 0 -1 255 255 255 255 0.195424 0.822195
-522.258 -594.098 -192.079 -0.873182 -0.08417 -0.480071 255 255 255 255 0.177978 0.871336
-540 -594.955 -159.658 -0.873182 -0.08417 -0.480071 255 255 255 255 0.1849 0.871153
-540 -491.605 -177.778 -0.873182 -0.08417 -0.480071 255 255 255 255 0.181032 0.893218
-540 -698.019 -177.778 -0.87508 0.083805 -0.476667 255 255 255 255 0.181032 0.84915
-540 -594.955 -159.658 -0.87508 0.083805 -0.476667 255 255 255 255 0.1849 0.871153
-522.258 -594.098 -192.079 -0.87508 0.083805 -0.476667 255 255 255 255 0.177978 0.871336
57.127 -825.15 -82.202 0.970528 -0.207414 0.122701 255 255 255 255 0.179445 0.856741
64.6631 -806.758 -110.721 0.970528 -0.207414 0.122701 255 255 255 255 0.183372 0.850653
64.6631 -761.328 -33.9247 0.970528 -0.207414 0.122701 255 255 255 255 0.193071 0.867048
64.6631 -856.102 -130.227 0.975311 -0.081188 0.20537 255 255 255 255 0.172837 0.846488
64.6631 -806.758 -110.721 0.975311 -0.081188 0.20537 255 255 255 255 0.183372 0.850653
57.127 -825.15 -82.202 0.975311 -0.081188 0.20537 255 255 255 255 0.179445 0.856741
40 -513.341 -160.776 0.832624 -0.137816 -0.536417 255 255 255 255 0.085701 0.84382
20.3809 -504.144 -193.592 0.832624 -0.137816 -0.536417 255 255 255 255 0.092707 0.845783
40 -447.164 -177.778 0.832624 -0.137816 -0.536417 255 255 255 255 0.089331 0.857948
40 -660.86 -177.778 0.863908 0.057665 -0.500338 255 255 255 255 0.089331 0.812325
20.3809 -504.144 -193.592 0.863908 0.057665 -0.500338 255 255 255 255 0.092707 0.845783
40 -513.341 -160.776 0.863908 0.057665 -0.500338 255 255 255 255 0.085701 0.84382
40 -307.342 -333.99 0.95421 0.297704 -0.029238 255 255 255 255 0.122682 0.887799
30.375 -279.184 -361.402 0.95421 0.297704 -0.029238 255 255 255 255 0.128534 0.893811
40 -299.09 -249.969 0.95421 0.297704 -0.029238 255 255 255 255 0.104743 0.889561
40 -299.09 -421.651 0.935414 0.351999 0.033135 255 255 255 255 0.141397 0.889561
30.375 -279.184 -361.402 0.935414 0.351999 0.033135 255 255 255 255 0.128534 0.893811
40 -307.342 -333.99 0.935414 0.351999 0.033135 255 255 255 255 0.122682 0.887799
34.5576 -165.581 -72.4443 0.978886 -0.181851 -0.093339 255 255 255 255 0.11953 0.858824
40 -136.027 -72.9492 0.978886 -0.181851 -0.093339 255 255 255 255 0.12584 0.858717
39.999 -155.617 -34.792 0.978886 -0.181851 -0.093339 255 255 255 255 0.121657 0.866863
40 -155.617 -170.728 0.982932 -0.180385 0.036141 255 255 255 255 0.121657 0.837842
40 -136.027 -72.9492 0.982932 -0.180385 0.036141 255 255 255 255 0.12584 0.858717
34.5576 -165.581 -72.4443 0.982932 -0.180385 0.036141 255 255 255 255 0.11953 0.858824
-535.415 -164.012 -126.36 -0.988562 -0.137879 0.061104 255 255 255 255 0.01947 0.794521
-540 -130.161 -124.155 -0.988562 -0.137879 0.061104 255 255 255 255 0.026696 0.79405
-540 -155.617 -181.596 -0.988562 -0.137879 0.061104 255 255 255 255 0.021262 0.806314
-540 -155.617 -33.3086 -0.990593 -0.131768 -0.036922 255 255 255 255 0.021262 0.774655
-540 -130.161 -124.155 -0.990593 -0.131768 -0.036922 255 255 255 255 0.026696 0.79405
-535.415 -164.012 -126.36 -0.990593 -0.131768 -0.036922 255 255 255 255 0.01947 0.794521
-553.992 -503.502 -442.126 -0.928362 -0.114859 0.353485 255 255 255 255 0.230827 0.956337
-553.992 -538.122 -453.375 -0.928362 -0.114859 0.353485 255 255 255 255 0.228426 0.948946
-547.92 -529.149 -434.512 -0.928362 -0.114859 0.353485 255 255 255 255 0.232453 0.950862
-547.92 -529.149 -434.512 -0.955789 0.032405 0.292263 255 255 255 255 0.232453 0.950862
-553.992 -538.122 -453.375 -0.955789 0.032405 0.292263 255 255 255 255 0.228426 0.948946
-553.992 -639.586 -442.125 -0.955789 0.032405 0.292263 255 255 255 255 0.230827 0.927284
-564.663 -767.381 -40.0751 -0.969059 -0.23168 0.085139 255 255 255 255 0.091383 0.7761
-564.663 -783.346 -83.5184 -0.969059 -0.23168 0.085139 255 255 255 255 0.087975 0.785375
-555.589 -816.32 -69.9628 -0.969059 -0.23168 0.085139 255 255 255 255 0.080935 0.782481
-555.589 -816.32 -69.9628 -0.949076 -0.146523 0.278903 255 255 255 255 0.080935 0.782481
-564.663 -783.346 -83.5184 -0.949076 -0.146523 0.278903 255 255 255 255 0.087975 0.785375
-564.664 -838.815 -112.663 -0.949076 -0.146523 0.278903 255 255 255 255 0.076133 0.791597
48.8682 -762.211 0.000124 1 0 0 255 255 255 255 0.192882 0.653355
64.6631 -975.005 0.000159 1 0 0 255 255 255 255 0.147452 0.874291
48.8682 -892.314 -138.118 0.738933 -0 0.673779 255 255 255 255 0.165106 0.623868
48.8682 -956.45 0.000156 0.761472 0.648198 0 255 255 255 255 0.151414 0.653355
64.6631 -670.013 0.000109 -0 0 1 255 255 255 255 0.016929 0.907156
22.4004 -108.4 -500 -1e-06 -0 -1 255 255 255 255 0.141883 0.973942
40 -72.0001 -500 -1e-06 -0 -1 255 255 255 255 0.138125 0.981713
40 -155.617 -500 -1e-06 -0 -1 255 255 255 255 0.138125 0.963861
-548.868 -956.45 -138.118 -1 0 0 255 255 255 255 0.051019 0.576096
-564.663 -975.005 0.000159 -1 0 0 255 255 255 255 0.047057 0.767544
-564.663 -975.005 -155.44 -0.738933 0 0.673779 255 255 255 255 0.047057 0.579794
-548.868 -956.45 0.000156 -0.761472 0.648198 0 255 255 255 255 0.051019 0.546608
-540 -155.617 -500 1e-06 -0 -1 255 255 255 255 0.148508 0.946618
-540 -72.0001 -500 1e-06 -0 -1 255 255 255 255 0.148508 0.96447
-522.4 -108.4 -500 1e-06 -0 -1 255 255 255 255 0.144751 0.956699
40 -72 1.2e-05 0 0 1 255 255 255 255 0.151376 0.939739
-522.4 -187.84 3.1e-05 -0 0 1 255 255 255 255 0.158002 0.96447
-540 -846.281 -322.222 -0.627551 0 0.778576 255 255 255 255 0.150194 0.596561
-499.372 -846.281 -289.474 -0.627551 0 0.778576 255 255 255 255 0.157185 0.596561
-499.372 -399.761 -289.475 -0.627551 0 0.778576 255 255 255 255 0.157185 0.69189
-499.372 -846.281 -289.474 -1 0 0 255 255 255 255 0.157185 0.596561
40 -846.281 -322.222 0.62755 0 0.778576 255 255 255 255 0.120169 0.551803
40 -372.38 -322.222 0.62755 0 0.778576 255 255 255 255 0.120169 0.652978
-0.62793 -399.761 -289.475 0.62755 0 0.778576 255 255 255 255 0.113178 0.647132
40 -670.013 -500 -0 0.710116 0.704085 255 255 255 255 0.013297 0.875987
-540 -846.281 -322.222 0 0.710116 0.704085 255 255 255 255 0.033351 0.913941
-540 -449.358 -424.58 -0.680164 0.492253 0.543198 255 255 255 255 0.234573 0.967896
-540 -366.132 -500 -0.680164 0.492253 0.543198 255 255 255 255 0.218472 0.985664
-553.992 -385.466 -500 -0.680164 0.492253 0.543198 255 255 255 255 0.218472 0.981537
-540 -366.132 -500 0 -0 -1 255 255 255 255 0.201241 0.968474
53.9922 -385.466 -500 1 0 0 255 255 255 255 0.160199 0.981537
40 -449.358 -424.58 0.680771 0.491755 0.542889 255 255 255 255 0.144097 0.967896
53.9922 -449.358 -442.126 0.680771 0.491755 0.542889 255 255 255 255 0.147843 0.967896
53.9922 -385.466 -500 0.680771 0.491755 0.542889 255 255 255 255 0.160199 0.981537
40 -449.358 -424.58 0.781836 0 0.623484 255 255 255 255 0.144097 0.967896
53.9922 -670.013 -500 0 -0 -1 255 255 255 255 0.079806 0.853772
-0.62793 -846.281 -210.525 1 -0 0 255 255 255 255 0.096323 0.551803
40 -72.0001 -500 0.900288 -0.435294 0 255 255 255 255 0.158124 0.938043
40 -11.6621 -500 1 0 0 255 255 255 255 0.054123 0.875987
-522.4 -262.69 4.3e-05 -0.900288 0.435294 -0 255 255 255 255 0.218986 0.94209
28.3379 0 0 0 1 -0 255 255 255 255 0.059461 0.982734
1.12305 -8.1e-05 -500 -0.904095 0.427333 -0 255 255 255 255 0.073437 0.982734
-522.4 -108.4 -500 -1 0 0 255 255 255 255 0.112239 0.724072
-9.65039 -22.7931 -500 0 1 -0 255 255 255 255 0.076853 0.875987
-501.123 -8.1e-05 -500 0.904095 0.427333 -0 255 255 255 255 0.187726 0.875987
-540 -72.0001 -500 -0.900288 -0.435294 0 255 255 255 255 0.112239 0.982801
-528.338 0 0 0 1 -0 255 255 255 255 0.196952 0.982734
-540 -11.6621 -500 -1 0 0 255 255 255 255 0.172205 0.907134
-540 -670.013 0.000109 0 0.710116 -0.704085 255 255 255 255 0.033351 0.982734
40 -846.281 -177.778 0 0.710116 -0.704085 255 255 255 255 0.013297 0.944779
53.9922 -385.466 6.3e-05 1 0 0 255 255 255 255 0.163145 0.981537
40 -449.358 -75.4198 0.680164 0.492253 -0.543198 255 255 255 255 0.179247 0.967896
40 -366.132 6e-05 0.680164 0.492253 -0.543198 255 255 255 255 0.163145 0.985664
53.9922 -385.466 6.3e-05 0.680164 0.492253 -0.543198 255 255 255 255 0.163145 0.981537
40 -449.358 -75.4198 0.781836 -0 -0.623484 255 255 255 255 0.179247 0.967896
40 -366.132 6e-05 0 0 1 255 255 255 255 0.08859 0.853772
-553.992 -385.466 6.3e-05 -1 0 0 255 255 255 255 0.198295 0.981537
-540 -449.358 -75.4198 -0.680771 0.491755 -0.542889 255 255 255 255 0.182193 0.967896
-553.992 -449.358 -57.874 -0.680771 0.491755 -0.542889 255 255 255 255 0.185939 0.967896
-553.992 -385.466 6.3e-05 -0.680771 0.491755 -0.542889 255 255 255 255 0.198295 0.981537
-540 -449.358 -75.4198 -0.781836 -0 -0.623484 255 255 255 255 0.182193 0.967896
-553.992 -670.013 0.000109 0 0 1 255 255 255 255 0.094387 0.918648
28.3379 0 0 -0 0 1 255 255 255 255 0.024684 0.764112
28.3379 0 0 0.707105 0.707109 -0 255 255 255 255 0.056613 0.982734
-540 -11.662 2e-06 -0.707105 0.707109 -0 255 255 255 255 0.172205 0.800387
-499.372 -399.761 -210.525 -0.558868 -0.829257 0 255 255 255 255 0.17404 0.69189
-0.62793 -399.761 -289.475 0.558868 -0.829257 0 255 255 255 255 0.113178 0.647132
40 -299.09 -500 0 -1e-06 -1 255 255 255 255 0.066332 0.913752
48.8682 -956.45 -361.882 1 0 0 255 255 255 255 0.151414 0.576096
64.6631 -975.005 -500 1 0 0 255 255 255 255 0.147452 0.767544
64.6631 -975.005 -344.559 0.738933 0 -0.673779 255 255 255 255 0.147452 0.579794
48.8682 -956.45 -500 0.761472 0.648198 0 255 255 255 255 0.151414 0.546608
64.6631 -880.914 -344.559 0.787411 -0.448705 -0.422668 255 255 255 255 0.16754 0.579794
48.8682 -892.314 -361.882 0.787411 -0.448705 -0.422668 255 255 255 255 0.165106 0.576096
48.8682 -762.211 -500 0.787411 -0.448705 -0.422668 255 255 255 255 0.192882 0.546608
-548.868 -762.211 -500 -1 0 0 255 255 255 255 0.092487 0.653355
-564.663 -975.005 -500 -1 0 0 255 255 255 255 0.047057 0.874291
-548.868 -892.314 -361.882 -0.738933 0 -0.673779 255 255 255 255 0.064711 0.623868
-548.868 -956.45 -500 -0.761472 0.648198 0 255 255 255 255 0.051019 0.653355
-548.868 -762.211 -500 -0.787411 -0.448705 -0.422668 255 255 255 255 0.092487 0.653355
-548.868 -892.314 -361.882 -0.787411 -0.448705 -0.422668 255 255 255 255 0.064711 0.623868
-564.663 -880.914 -344.559 -0.787411 -0.448705 -0.422668 255 255 255 255 0.067145 0.62017
-564.663 -670.013 -500 -0 -0 -1 255 255 255 255 0.195424 0.834563
3 0 1 2 
3 3 4 5 
3 6 7 4 
3 8 9 5 
3 9 10 5 
3 10 11 5 
3 11 12 5 
3 12 3 5 
3 13 14 15 
3 16 17 18 
3 19 20 21 
3 22 23 24 
3 25 26 27 
3 28 29 30 
3 31 32 33 
3 34 35 36 
3 37 38 39 
3 40 41 42 
3 41 43 42 
3 44 45 46 
3 47 48 49 
3 50 51 52 
3 53 54 55 
3 56 57 58 
3 59 60 61 
3 62 63 54 
3 54 63 55 
3 64 65 66 
3 67 68 69 
3 70 71 67 
3 72 73 74 
3 75 76 77 
3 69 78 79 
3 78 80 79 
3 79 80 81 
3 82 83 84 
3 85 86 87 
3 88 89 90 
3 91 92 93 
3 94 95 96 
3 97 98 99 
3 100 101 102 
3 103 104 105 
3 105 104 106 
3 104 107 106 
3 107 108 106 
3 106 108 109 
3 108 36 109 
3 36 35 109 
3 35 110 109 
3 111 110 112 
3 113 114 115 
3 116 117 118 
3 119 120 121 
3 120 118 121 
3 122 123 124 
3 118 117 125 
3 126 127 128 
3 129 130 131 
3 131 130 132 
3 130 128 132 
3 127 132 128 
3 133 134 135 
3 136 137 138 
3 139 67 69 
3 140 141 142 
3 143 144 145 
3 146 147 148 
3 149 150 151 
3 152 153 154 
3 155 156 157 
3 158 159 160 
3 155 157 161 
3 162 163 164 
3 163 165 164 
3 166 167 168 
3 169 170 171 
3 172 173 174 
3 175 176 177 
3 149 151 178 
3 179 180 181 
3 182 181 183 
3 183 181 184 
3 184 181 185 
3 180 185 181 
3 186 187 188 
3 189 190 191 
3 192 193 194 
3 195 196 197 
3 198 199 200 
3 201 202 203 
3 204 205 206 
3 207 208 209 
3 210 211 212 
3 213 214 215 
3 216 217 218 
3 219 5 4 
3 220 221 222 
3 161 223 224 
3 223 225 224 
3 226 224 227 
3 224 225 227 
3 228 229 230 
3 231 232 233 
3 229 234 230 
3 230 234 235 
3 232 236 233 
3 237 238 239 
3 224 240 241 
3 241 240 242 
3 243 244 240 
3 240 244 242 
3 245 246 247 
3 248 249 178 
3 250 251 252 
3 253 254 251 
3 255 256 257 
3 258 259 260 
3 261 262 263 
3 264 265 266 
3 267 268 269 
3 248 270 271 
3 270 272 271 
3 273 271 274 
3 272 274 271 
3 275 276 277 
3 278 279 276 
3 280 281 282 
3 283 284 285 
3 286 287 288 
3 245 289 290 
3 110 291 292 
3 248 271 249 
3 293 294 295 
3 296 291 297 
3 298 299 300 
3 301 302 303 
3 304 305 306 
3 307 308 309 
3 264 310 265 
3 311 312 313 
3 296 267 269 
3 314 315 316 
3 317 318 319 
3 320 321 267 
3 322 323 324 
3 325 326 327 
3 268 328 269 
3 329 330 331 
3 331 330 332 
3 333 334 335 
3 336 337 338 
3 339 340 341 
3 342 343 344 
3 240 224 226 
3 345 346 347 
3 348 349 350 
3 351 352 353 
3 354 355 356 
3 357 358 359 
3 360 361 362 
3 363 364 365 
3 366 367 368 
3 369 370 320 
3 371 372 373 
3 374 375 376 
3 377 378 379 
3 380 381 382 
3 178 151 248 
3 383 384 385 
3 155 161 224 
3 386 387 388 
3 389 390 391 
3 390 392 391 
3 392 393 391 
3 391 393 394 
3 395 396 397 
3 397 396 398 
3 399 400 401 
3 401 400 402 
3 402 400 403 
3 403 400 404 
3 405 406 407 
3 406 408 407 
3 408 404 407 
3 400 407 404 
3 409 410 411 
3 4 412 219 
3 413 414 4 
3 219 415 416 
3 417 418 419 
3 420 421 422 
3 423 424 425 
3 426 158 427 
3 428 429 430 
3 431 67 139 
3 432 433 67 
3 434 139 435 
3 436 437 438 
3 439 440 441 
3 442 443 444 
3 445 446 447 
3 446 448 447 
3 447 448 449 
3 449 448 450 
3 448 451 450 
3 450 451 452 
3 452 451 158 
3 158 451 453 
3 454 453 451 
3 455 456 457 
3 458 459 460 
3 461 462 463 
3 464 465 466 
3 467 468 469 
3 470 471 472 
3 473 474 475 
3 476 477 478 
3 479 480 481 
3 482 483 484 
3 485 486 487 
3 488 489 490 
3 491 492 493 
3 494 495 496 
3 497 498 499 
3 500 501 502 
3 0 503 1 
3 3 6 4 
3 6 504 7 
3 13 505 14 
3 16 506 17 
3 34 507 35 
3 508 509 510 
3 64 511 65 
3 67 71 68 
3 70 512 71 
3 82 513 83 
3 85 514 86 
3 111 109 110 
3 515 516 517 
3 133 518 134 
3 136 519 137 
3 140 220 141 
3 520 521 522 
3 146 523 147 
3 524 525 526 
3 158 453 159 
3 172 527 173 
3 175 528 176 
3 529 530 531 
3 204 532 205 
3 207 533 208 
3 534 535 536 
3 213 537 214 
3 216 538 217 
3 220 140 221 
3 237 539 238 
3 267 321 268 
3 245 247 289 
3 110 35 291 
3 293 540 294 
3 296 292 291 
3 298 541 299 
3 301 542 302 
3 304 543 305 
3 307 544 308 
3 264 545 310 
3 311 546 312 
3 296 297 267 
3 314 547 315 
3 317 548 318 
3 320 370 321 
3 322 549 323 
3 325 550 326 
3 268 372 328 
3 339 551 340 
3 342 552 343 
3 345 553 346 
3 554 555 556 
3 351 557 352 
3 354 558 355 
3 357 559 358 
3 560 561 562 
3 363 563 364 
3 366 564 367 
3 369 565 370 
3 371 328 372 
3 374 566 375 
3 377 567 378 
3 380 568 381 
3 383 569 384 
3 386 570 387 
3 409 571 410 
3 4 414 412 
3 413 572 414 
3 219 412 415 
3 417 573 418 
3 420 574 421 
3 575 576 577 
3 426 452 158 
3 428 578 429 
3 431 432 67 
3 432 579 433 
3 434 431 139 
3 436 580 437 
3 439 581 440 
3 582 583 584 
3 454 585 453 
