ply
format ascii 1.0
comment VCGLIB generated
comment TextureFile Dungeons_2_Texture_01_A.png
element vertex 39
property float x
property float y
property float z
property float nx
property float ny
property float nz
property uchar red
property uchar green
property uchar blue
property uchar alpha
property float texture_u
property float texture_v
element face 60
property list uchar int vertex_indices
end_header
-80.12695 30 80.12598 -0.7984242 0.6020947 0.0009503482 192 192 192 255 0.048987 0.941995
80.12695 30 80.12598 0.629133 0.7107935 0.3145858 192 192 192 255 0.048256 0.820681
-65.0625 50 59.86816 -0.2581254 0.8242384 0.5039865 192 192 192 255 0.068314 0.926014
68.54492 45.3764 68.5459 0.3319691 0.934018 0.1319357 192 192 192 255 0.060495 0.833063
-65.0625 50 -65.06348 -0.2402094 0.8435003 -0.4804235 192 192 192 255 0.154421 0.926464
65.0625 50 -65.06348 0.7983968 0.6021315 -0.0003795201 192 192 192 255 0.154274 0.835763
-80.12695 30 -80.12695 -0.3121603 0.7102919 -0.6309052 192 192 192 255 0.170752 0.942408
80.12695 30 -80.12695 0.3653054 0.7197664 -0.5903289 192 192 192 255 0.170754 0.819247
-52.1543 50 -65.06348 0.07710528 0.9654223 -0.2490275 192 192 192 255 0.15494 0.917785
24.78125 50 -65.06348 -0.04319506 0.9330036 -0.3572652 192 192 192 255 0.154595 0.863151
-30.58984 50 -58.30566 0 0.947799 -0.3188686 192 192 192 255 0.150872 0.902599
-21.61133 46.94301 -67.36621 -1.794139e-09 0.6807152 -0.7325482 192 192 192 255 0.15731 0.89659
65.0625 50 18.95605 0.7493619 0.6620991 0.009030698 192 192 192 255 0.095869 0.835971
47.1875 50 65.06348 0.1632306 0.9533776 0.2538246 192 192 192 255 0.064433 0.848631
60.22656 50 56.45605 0.330741 0.9349703 0.1282222 192 192 192 255 0.070127 0.839401
-54.65039 50 65.06348 -0.2563831 0.81655 0.5172175 192 192 192 255 0.064942 0.919189
-73.81836 38.37564 73.81836 -0.7572527 0.6497175 0.0666006 192 192 192 255 0.05578 0.935405
100 15.06213 100 0.2665156 0.2394696 0.933608 192 192 192 255 0.175969 0.950239
100 0 100 0.0003945091 -0.0003945091 0.9999999 192 192 192 255 0.185761 0.804571
-100 0 100 -0.0001973324 -0.0001973324 1 192 192 192 255 0.185761 0.957083
100 0 -100 0.4082483 -0.4082483 -0.8164966 192 192 192 255 0.033249 0.804571
-100 0 -100 -0.0007836556 -0.0003918278 -0.9999996 192 192 192 255 0.033249 0.957083
-100 30 -100 -0.0001959524 0.0003919047 -0.9999999 192 192 192 255 0.045851 0.821593
-80 30 100 -0.04567163 0.1970669 0.9793257 192 192 192 255 0.172358 0.829466
-100 25.33795 100 -0.02398516 0.09958848 0.9947396 192 192 192 255 0.175728 0.81481
-100 30 74.16113 -0.2249528 0.9589452 0.1726861 192 192 192 255 0.157511 0.817263
-100 30 -89.2666 -0.5805521 0.7892257 0.2002051 192 192 192 255 0.051199 0.818615
-100 30 -22.15039 -0.807766 0.5834356 -0.08436282 192 192 192 255 0.096093 0.817582
-94.56836 30 -73.83691 -0.7494122 0.6621038 0 192 192 192 255 0.060775 0.819469
-100 23.76779 -64.88281 -0.7561864 0.6543563 0 192 192 192 255 0.066233 0.814552
70.10938 30 -100 0.02247686 0.1013726 -0.9945946 192 192 192 255 0.045796 0.922595
100 23.33551 -100 0.2110548 0.9160271 -0.3411016 192 192 192 255 0.041989 0.944348
100 30 -82.0127 0.205639 0.9180752 -0.3388961 192 192 192 255 0.055097 0.940828
86.54297 30 100 0.265868 0.2409002 0.9334245 192 192 192 255 0.168872 0.93636
100 30 48.73047 0.7296712 0.6565747 0.1910225 192 192 192 255 0.137929 0.942483
-100 0 -100 -0.0007836556 -0.0003918278 -0.9999996 192 192 192 255 0.031454 0.804573
-100 0 100 -0.0001973324 -0.0001973324 1 192 192 192 255 0.187556 0.804389
100 0 100 0.0003945091 -0.0003945091 0.9999999 192 192 192 255 0.182667 0.957265
100 0 -100 0.4082483 -0.4082483 -0.8164966 192 192 192 255 0.032525 0.95498
3 12 14 3 
3 6 11 7 
3 8 10 11 
3 11 10 9 
3 16 15 2 
3 12 7 5 
3 3 14 13 
3 2 14 9 
3 2 9 10 
3 6 0 16 
3 0 1 3 
3 0 3 16 
3 2 10 8 
3 2 8 4 
3 2 15 13 
3 2 13 14 
3 9 14 12 
3 9 12 5 
3 4 8 11 
3 4 11 6 
3 7 11 9 
3 7 9 5 
3 1 7 12 
3 1 12 3 
3 16 3 13 
3 16 13 15 
3 6 16 2 
3 6 2 4 
3 25 24 23 
3 18 19 21 
3 18 21 20 
3 32 31 30 
3 24 29 35 
3 24 35 36 
3 26 29 28 
3 28 29 27 
3 30 35 22 
3 33 30 28 
3 33 28 23 
3 31 17 37 
3 31 37 38 
3 36 37 24 
3 23 24 37 
3 23 37 17 
3 17 33 23 
3 34 33 17 
3 24 25 27 
3 24 27 29 
3 35 29 26 
3 35 26 22 
3 38 35 30 
3 38 30 31 
3 31 32 34 
3 31 34 17 
3 32 30 33 
3 32 33 34 
3 28 30 22 
3 28 22 26 
3 23 28 27 
3 23 27 25 
