ply
format ascii 1.0
comment VCGLIB generated
comment TextureFile Dungeons_2_Texture_01_A.png
element vertex 349
property float x
property float y
property float z
property float nx
property float ny
property float nz
property uchar red
property uchar green
property uchar blue
property uchar alpha
property float texture_u
property float texture_v
element face 500
property list uchar int vertex_indices
end_header
415.332 2.613654 43.90234 -0.02965448 0.9977115 0.06076431 192 192 192 255 0.194602 0.969033
263.7217 2.711548 184.4492 0.001502787 0.9999987 0.0006661856 192 192 192 255 0.126277 0.905005
386.5635 -1.118449 428.5205 0.03393471 0.9963545 0.07826965 192 192 192 255 0.189085 0.56912
413.3965 2.711608 120.7002 0.1371392 0.989508 -0.04546162 192 192 192 255 0.199394 0.687581
400.2402 -1.017706 59.03906 -0.02974794 0.9926364 0.1174223 192 192 192 255 0.19434 0.71131
379.3232 -22.75926 0.111328 0.02331715 -0.6339101 -0.7730553 192 192 192 255 0.186303 0.733988
113.3223 -0.88019 73.73535 -0.03991954 0.9942907 -0.09895692 192 192 192 255 0.084106 0.705654
471.4473 2.703649 278.5967 0.04578861 0.9988475 0.01439561 192 192 192 255 0.220166 0.862115
379.499 2.594869 414.6787 0.0515183 0.9890655 0.1381861 192 192 192 255 0.179021 0.800121
86.09375 2.551604 119.3828 -0.1145172 0.9926156 -0.04000187 192 192 192 255 0.073645 0.688088
192.9355 2.703733 43.20117 0.03949054 0.9923872 0.1166539 192 192 192 255 0.114693 0.717405
73.49512 -0.999031 387.9043 -0.08793703 0.9953275 0.03987896 192 192 192 255 0.068804 0.584751
0.418945 -4.8224 243.9248 -0.9081062 0.417598 0.03090282 192 192 192 255 0.040728 0.640159
400.4297 -1.041012 440.6074 -0.03294378 0.9924846 -0.1178519 192 192 192 255 0.194412 0.564469
329.5029 -0.954255 73.50781 0.0009290619 0.9899895 -0.1411384 192 192 192 255 0.167162 0.705742
99.63379 -1.066216 440.4658 0.03068212 0.9926786 -0.1168241 192 192 192 255 0.078847 0.564523
60.19922 -1.118248 398.8438 0.1019693 0.994418 -0.02711542 192 192 192 255 0.063696 0.580541
413.7715 2.710243 329.2734 0.1254302 0.9920204 0.01276014 192 192 192 255 0.199538 0.607314
2.632813 -3.108008 292.9658 -0.7162679 0.6975416 -0.01990071 192 192 192 255 0.041579 0.621287
265.7666 2.616659 85.3623 -0.005718844 0.9884757 -0.1512714 192 192 192 255 0.142675 0.70118
259.1465 2.710771 348.6025 -0.006128223 0.9999197 0.01109239 192 192 192 255 0.124193 0.830223
3.94043 2.592021 190.3994 -0.2795985 0.950666 0.1343836 192 192 192 255 0.042081 0.660758
171.9492 2.623619 85.49902 0.02432634 0.9887668 -0.1474735 192 192 192 255 0.084469 0.950083
395.8789 -4.469736 5.576172 -0.1272805 0.7014184 -0.7012931 192 192 192 255 0.192664 0.731885
224.709 1.347769 30.20508 0.03738416 0.9787812 0.201469 192 192 192 255 0.107761 0.975273
0.057617 -22.76382 238.7246 -0.7197206 -0.6942515 0.004146223 192 192 192 255 0.04059 0.642161
222.8877 -2.149241 59.0918 -0.0059756 0.7176178 -0.6964115 192 192 192 255 0.126201 0.71129
277.5605 -0.657415 57.4834 -0.03575591 0.9967508 0.07217647 192 192 192 255 0.147206 0.711909
8.410156 -5.271711 8.625977 -0.1562148 0.8798622 -0.4488202 192 192 192 255 0.043799 0.730711
120.5176 2.599099 85.29785 -0.05085866 0.987484 -0.1492944 192 192 192 255 0.08687 0.701205
369.7734 2.711281 222.002 -0.02072131 0.999728 -0.01070107 192 192 192 255 0.174591 0.887897
109.8809 -8.427968 497.0146 -0.03909514 0.476094 0.878525 192 192 192 255 0.082784 0.542761
359.5322 -4.861723 0.50293 0.08579302 0.5490013 -0.8314067 192 192 192 255 0.1787 0.733837
85.88672 2.701024 313.4775 -0.1345501 0.990905 -0.001856458 192 192 192 255 0.073565 0.613393
247.748 1.665201 30.24121 -0.01938215 0.9872699 0.1578685 192 192 192 255 0.118256 0.975256
1.123047 -9.219931 0.50293 -0.5684273 0.4702368 -0.6751057 192 192 192 255 0.040999 0.733837
475.5625 2.711232 326.4805 0.1544819 0.9876041 -0.0278108 192 192 192 255 0.223278 0.608389
351.9238 1.199171 214.3232 -0.06511088 0.9975141 -0.02694876 192 192 192 255 0.166459 0.891395
83.20801 -2.018092 492.9004 0.2007096 0.9743135 0.1021219 192 192 192 255 0.072536 0.544345
30.22461 2.708431 385.0088 0.060863 0.9965185 -0.05697873 192 192 192 255 0.01916 0.813638
237.5127 2.689786 364.0615 0.03734701 0.9974095 0.06147842 192 192 192 255 0.13182 0.593927
375.6572 2.698979 26.37695 -0.02487986 0.9977032 -0.06300254 192 192 192 255 0.176527 0.977017
48.34766 -1.454569 373.4365 -0.04670328 0.9911525 -0.1242401 192 192 192 255 0.059143 0.590319
405.0527 -4.659332 0.40918 -0.1185667 0.6234392 -0.7728296 192 192 192 255 0.196189 0.733873
0.101563 -22.78307 0.166992 -0.5918648 -0.5493793 -0.5898123 192 192 192 255 0.040606 0.733966
199.7617 -0.970393 86.2666 0.03963188 0.9987912 -0.02907587 192 192 192 255 0.117316 0.700832
345.0459 2.714241 233.7793 -0.2928981 0.9465818 -0.1348838 192 192 192 255 0.163326 0.882532
0.001953 -5.279124 25.38379 -0.9702107 0.223065 -0.09451625 192 192 192 255 0.040568 0.724262
148.5791 2.71103 242.8125 -0.04936108 0.9985709 0.02048524 192 192 192 255 0.073822 0.878417
307.9707 2.055294 245.6367 0.02522019 0.9996789 -0.002491809 192 192 192 255 0.146435 0.87713
345.0938 0.668627 6.584961 0.1368236 0.9502362 -0.2798759 192 192 192 255 0.173152 0.731496
81.0957 1.362599 168.8682 -0.1720355 0.9849997 0.01339315 192 192 192 255 0.071724 0.669044
318.6172 1.842167 236.7061 0.02713192 0.9995818 0.01001101 192 192 192 255 0.151286 0.881199
324.042 1.681215 259.6182 0.03308067 0.9994527 0.0001355257 192 192 192 255 0.153757 0.870761
13.24023 2.704408 314.0576 -0.2467744 0.9680724 -0.04402588 192 192 192 255 0.011423 0.84596
452.7607 0.538645 186.2393 -0.1285299 0.991406 -0.0243771 192 192 192 255 0.214518 0.662359
500.0244 -1.844271 189.4297 0.9214103 0.3885623 0.004732607 192 192 192 255 0.232677 0.661131
495.248 2.231085 248.1709 0.4051699 0.9141669 0.01167098 192 192 192 255 0.231009 0.875976
495.3076 2.647796 4.59082 0.2683367 0.9434765 -0.1945444 192 192 192 255 0.231036 0.986942
499.0586 0.467037 355.167 0.8136132 0.5624349 -0.1473114 192 192 192 255 0.232306 0.597349
277.3916 2.064778 457.0518 -0.2874578 0.9516568 -0.1082475 192 192 192 255 0.147141 0.558141
495.0791 -22.90053 3.493164 0.1060121 -0.9942581 0.0145735 192 192 192 255 0.230777 0.732686
321.1465 1.739423 187.3574 0.04187724 0.9990263 -0.01388391 192 192 192 255 0.152438 0.90368
0.169922 0.027202 384.5361 -0.8547953 0.5187678 -0.01431684 192 192 192 255 0.040633 0.586047
495.2051 2.710552 193.9219 0.3699227 0.9290419 0.006202182 192 192 192 255 0.230989 0.90069
117.5303 0.081936 232.9814 -0.05580752 0.996455 0.06295326 192 192 192 255 0.085723 0.644371
499.9932 -10.73678 318.4619 0.9870806 0.1589572 0.02011135 192 192 192 255 0.232665 0.611475
498.7666 -0.632658 283.5645 0.6830135 0.7274765 0.06534871 192 192 192 255 0.232193 0.624905
106.4043 2.695143 270.7686 -0.05727381 0.9961542 -0.06630677 192 192 192 255 0.054609 0.865681
296.0273 2.710568 285.252 0.007733101 0.9999437 -0.007277254 192 192 192 255 0.140995 0.859083
95.84375 2.709714 475.8604 -0.03776678 0.9872652 0.154535 192 192 192 255 0.049054 0.772249
0.089844 -22.80139 499.7988 -0.4841542 -0.6431207 0.5932879 192 192 192 255 0.040602 0.54169
1.482422 -2.283164 318.8574 -0.7540559 0.6471174 -0.1124221 192 192 192 255 0.041137 0.611323
389.3613 1.854446 363.0176 0.09887505 0.9945592 0.03279788 192 192 192 255 0.183514 0.823656
500.0264 -20.93792 351.3672 0.9776133 -0.2103984 0.002200342 192 192 192 255 0.232677 0.598812
499.9941 -9.278925 343.4766 0.9541287 0.2897116 -0.0755358 192 192 192 255 0.232665 0.601848
391.7256 2.722861 400.957 0.0969305 0.9945774 0.03768735 192 192 192 255 0.184591 0.806372
52.20215 0.529369 379.4463 0.08925539 0.9915957 -0.093656 192 192 192 255 0.060623 0.588006
426.8779 -1.121372 388.8174 0.006062548 0.9998791 -0.01432303 192 192 192 255 0.204574 0.5844
448.9746 2.70786 22.41602 -0.02634776 0.9986479 -0.04481231 192 192 192 255 0.209928 0.978821
258.7178 -1.323122 44.93555 -0.04662303 0.9941044 0.09789159 192 192 192 255 0.139967 0.716738
340.2529 2.711495 281.2725 -0.01352814 0.9998051 -0.01438055 192 192 192 255 0.161142 0.860896
440.9834 -0.998226 99.58496 -0.07709707 0.9957354 0.05066604 192 192 192 255 0.209993 0.695707
382.8809 2.703107 385.3975 0.04919284 0.9986692 -0.01548752 192 192 192 255 0.180562 0.813461
2.306641 -21.48532 500.0117 0.09682065 -0.4889165 0.8669409 192 192 192 255 0.041454 0.541608
467.248 2.659922 495.1514 0.09278038 0.9337946 0.3455712 192 192 192 255 0.218253 0.763461
467.7471 -1.227288 500.0254 0.07113003 0.4533273 0.8885015 192 192 192 255 0.220276 0.541603
207.5566 -1.062601 440.4795 0.02419565 0.9965156 -0.07982025 192 192 192 255 0.120311 0.564518
427.1338 -1.085293 165.627 0.1495395 0.9887533 -0.002238922 192 192 192 255 0.204672 0.670291
326.0752 2.708997 136.0654 -0.02573802 0.9993029 0.02704171 192 192 192 255 0.154683 0.927047
233.5039 2.63899 486.7109 0.003826283 0.9997742 -0.02090525 192 192 192 255 0.111767 0.767306
275.8115 -1.063345 440.6582 -0.01560048 0.9969529 -0.07643042 192 192 192 255 0.146534 0.564449
43.35352 2.440759 414.0273 0.05417646 0.998217 -0.02505534 192 192 192 255 0.057224 0.574698
22.58301 -9.38882 0.810547 -0.1186818 0.2596697 -0.9583769 192 192 192 255 0.049244 0.733719
196.8623 2.711478 125.2617 0.003934041 0.99994 -0.01022457 192 192 192 255 0.095818 0.931969
428.7607 -1.134825 359.6914 0.02843315 0.9988933 0.03746624 192 192 192 255 0.205297 0.595608
32.85742 -0.167113 1.213867 -0.08438359 0.6571721 -0.7490022 192 192 192 255 0.053191 0.733563
192.9326 0.133411 78.18164 0.03190634 0.9984691 -0.04518278 192 192 192 255 0.114692 0.703943
227.4375 -2.425923 41.06738 0.03789192 0.9857876 0.1636674 192 192 192 255 0.127949 0.718226
366.3359 2.704835 196.6855 -0.04043591 0.9991246 0.01072571 192 192 192 255 0.173025 0.899431
43.86035 2.627338 85.7793 0.05695536 0.9979851 0.02796464 192 192 192 255 0.025372 0.949955
67.00684 2.710809 8.508789 -0.05419791 0.9489502 -0.3107348 192 192 192 255 0.035917 0.985157
6.326172 0.428275 246.625 -0.43893 0.8973373 0.04611063 192 192 192 255 0.042998 0.63912
43.80664 2.634816 295.2979 0.1139024 0.9934641 0.007436012 192 192 192 255 0.057398 0.620389
6.87793 -1.602819 271.1426 -0.493748 0.8693052 0.02283298 192 192 192 255 0.04321 0.629685
74.54199 0.160279 499.5117 0.1655847 0.6221907 0.7651539 192 192 192 255 0.069206 0.5418
111.9551 -1.124104 428.4512 -0.03468879 0.9965622 0.07523708 192 192 192 255 0.083581 0.569147
375.9258 -22.78242 499.4092 -0.002724994 -0.7013331 0.7128285 192 192 192 255 0.184998 0.54184
254.7168 -22.78922 498.9268 0.002046074 -0.7455148 0.666486 192 192 192 255 0.13843 0.542026
241.1768 -2.525321 403.9531 -0.002542951 0.9999554 0.009098594 192 192 192 255 0.133227 0.578575
71.35059 -1.12266 112.2363 -0.07596774 0.9965813 -0.0324769 192 192 192 255 0.06798 0.690838
440.9443 -0.966863 400.6875 -0.1162042 0.9927558 -0.03053622 192 192 192 255 0.209978 0.579832
228.9756 0.403701 80.81348 -0.02875311 0.9858439 -0.1651822 192 192 192 255 0.12854 0.70293
108.9072 2.683702 196.0508 -0.06462836 0.9961543 0.05915963 192 192 192 255 0.055749 0.89972
3.711914 -22.90055 3.169922 -0.01335467 -0.999835 -0.01231791 192 192 192 255 0.041994 0.732811
242.043 2.671618 327.1357 -0.001226187 0.9999992 -0.0002260824 192 192 192 255 0.116401 0.840002
211.3105 2.71031 361.457 0.00635927 0.9999308 0.009899857 192 192 192 255 0.102401 0.824367
299.208 -1.643463 500.0215 -0.002737746 0.3392509 0.9406919 192 192 192 255 0.155523 0.541604
107.9473 -17.11982 499.9893 0.03108853 0.1371637 0.9900604 192 192 192 255 0.082041 0.541617
155.791 2.691248 283.7783 -0.003271171 0.9999819 -0.005042233 192 192 192 255 0.077108 0.859754
456.5303 -0.50951 150.8193 -0.1174094 0.9930674 0.005667569 192 192 192 255 0.215966 0.67599
495.376 2.653499 355.1826 0.3058541 0.9449408 -0.1163625 192 192 192 255 0.231067 0.827225
143.5146 -21.95778 499.9932 0.003014252 -0.5839974 0.81175 192 192 192 255 0.095706 0.541615
473.7324 2.709091 194.6035 -0.05731651 0.9983522 -0.002808481 192 192 192 255 0.221207 0.900379
256.3965 2.664359 474.7939 -0.01444183 0.9979091 -0.06299981 192 192 192 255 0.122196 0.772735
0.636719 -8.471495 278.6895 -0.9414569 0.335681 -0.03125956 192 192 192 255 0.040812 0.626781
199.9746 2.644472 414.4229 0.02588144 0.9919785 0.1237284 192 192 192 255 0.117398 0.574546
253.5322 -1.127591 428.2549 -0.006774663 0.9976069 0.06880926 192 192 192 255 0.137974 0.569223
241.0312 -0.687526 445.4707 -0.01912588 0.9986884 -0.04749465 192 192 192 255 0.133172 0.562597
71.49414 -1.135961 273.3447 -0.05099046 0.9980447 -0.03614888 192 192 192 255 0.068035 0.628838
126.4971 0.013394 243.3721 -0.06517071 0.9978731 -0.001393632 192 192 192 255 0.089168 0.640372
0.167969 0.020557 29.83496 -0.813876 0.5145619 -0.2698742 192 192 192 255 0.040632 0.722549
0.160156 -0.005496 194.7383 -0.7633791 0.6259561 0.1594721 192 192 192 255 0.040629 0.659088
427.1104 -1.113176 110.3096 0.0694502 0.9969886 -0.03450303 192 192 192 255 0.204663 0.691579
499.1357 -22.82831 355.125 0.5398062 -0.8417879 -0.001546786 192 192 192 255 0.232335 0.597366
412.9297 -2.19301 371.0146 0.05833025 0.9972977 0.04466454 192 192 192 255 0.199215 0.591251
440.2764 -1.622301 148.8018 -0.01368688 0.999854 0.01022675 192 192 192 255 0.209721 0.676766
343.1924 2.708503 25.75684 0.01553373 0.9993041 -0.0339123 192 192 192 255 0.161737 0.977299
0.283203 -7.058597 309.2881 -0.9152262 0.4017209 -0.03132604 192 192 192 255 0.040676 0.615005
499.8555 0.03224 458.8887 0.8457235 0.5290663 0.06957557 192 192 192 255 0.232612 0.557434
229.5381 0.742587 393.2188 0.1199961 0.9905719 0.06609334 192 192 192 255 0.128756 0.582706
66.6875 2.713163 472.3623 0.02548792 0.9994587 0.02080256 192 192 192 255 0.035772 0.773843
231.9053 -0.583956 459.9092 0.004577511 0.9962583 -0.08630464 192 192 192 255 0.129665 0.557041
60.08203 -1.117691 103.5625 0.1132043 0.9932325 0.02596075 192 192 192 255 0.063651 0.694176
327.0938 2.131136 224.7607 0.4603618 0.8276988 0.3209078 192 192 192 255 0.155147 0.886641
270.2139 2.701483 402.9189 -0.05772479 0.9971449 0.04868285 192 192 192 255 0.129235 0.805478
315.4512 1.898576 279.582 0.003496987 0.9955931 -0.09371384 192 192 192 255 0.149843 0.861666
120.4717 2.598567 414.6982 -0.0475914 0.9894826 0.1365986 192 192 192 255 0.061017 0.800112
293.1104 2.692409 43.2959 -0.02866869 0.9930607 0.114055 192 192 192 255 0.138922 0.969309
498.5518 -0.02641 -0.013672 0.4579948 0.5368603 -0.708535 192 192 192 255 0.232111 0.734036
450.3799 -0.571406 226.5898 -0.1357163 0.9899634 -0.03941557 192 192 192 255 0.213603 0.646831
330.2393 -0.027426 0.131836 0.04778171 0.5218408 -0.8517037 192 192 192 255 0.167445 0.73398
325.1865 1.61389 154.2334 -0.006461667 0.9995084 0.03068061 192 192 192 255 0.154279 0.91877
341.3281 1.129196 194.834 0.04403867 0.9988852 -0.01699713 192 192 192 255 0.171706 0.659051
456.9287 2.712204 416.4082 -0.0563354 0.9980171 -0.02807461 192 192 192 255 0.213552 0.799333
499.8105 -22.80305 202.0312 0.6813419 -0.7319653 -0.0002000825 192 192 192 255 0.232594 0.656282
81.02637 -2.140979 217.125 0.04844632 0.9982849 0.03286792 192 192 192 255 0.071698 0.650473
28.99414 0.737284 366.8037 0.1068965 0.9938749 -0.02803547 192 192 192 255 0.0186 0.821931
24.93066 2.706359 271.3828 -0.09267046 0.9956965 0.0008174314 192 192 192 255 0.016749 0.865401
426.9678 -1.06035 237.7363 0.1430557 0.9897146 0.0002762503 192 192 192 255 0.204608 0.642541
440.8525 -1.031394 233.418 -0.08250312 0.9963228 -0.02311038 192 192 192 255 0.209943 0.644203
98.50684 -1.850961 488.9629 -0.02990509 0.8943674 0.4463325 192 192 192 255 0.078414 0.54586
279.9551 2.707037 27.4873 -0.04701207 0.9988884 0.003464936 192 192 192 255 0.132929 0.976511
488.2188 0.055787 297.9199 0.2301777 0.9702269 0.07535169 192 192 192 255 0.228141 0.61938
234.5977 -1.511154 417.876 0.07019679 0.98998 -0.1225238 192 192 192 255 0.1307 0.573217
292.0645 2.708586 414.1816 -0.007786807 0.9912964 0.1314192 192 192 192 255 0.139189 0.800348
499.0908 0.521232 384.6484 0.8308444 0.5564828 -0.004954326 192 192 192 255 0.232318 0.586004
500.001 -3.007329 257.9229 0.9382061 0.3460054 -0.007044883 192 192 192 255 0.232668 0.634772
386.4268 -1.020071 73.38574 0.03950312 0.9953758 -0.08755887 192 192 192 255 0.189032 0.705789
99.65039 0.582735 235.3467 -0.06745788 0.9957107 0.06332222 192 192 192 255 0.078853 0.643461
203.8213 -1.067176 59.67285 0.03926212 0.9981756 0.0458707 192 192 192 255 0.118875 0.711066
500.0391 -1.312268 1.75 0.9057742 0.3439555 -0.2475232 192 192 192 255 0.232682 0.733357
14.8125 2.694728 20.36914 -0.1662963 0.9618148 -0.2173889 192 192 192 255 0.012139 0.979754
13.10938 2.710942 193.5361 -0.09091387 0.9938148 0.06377263 192 192 192 255 0.011363 0.900865
332.4854 0.141223 218.6201 0.2424397 0.9678704 0.06670912 192 192 192 255 0.168308 0.649898
100.7354 0.299036 203.1104 -0.09660517 0.9867186 0.1305905 192 192 192 255 0.07927 0.655866
274.4131 2.708963 479.7773 -0.008252832 0.999695 -0.02327916 192 192 192 255 0.130404 0.770465
452.5713 0.012542 0.201172 -0.1012748 0.5973104 -0.7955902 192 192 192 255 0.214445 0.733953
60.2998 -1.121306 321.7617 0.07090001 0.9973935 0.01339436 192 192 192 255 0.063735 0.610205
1.689453 0.158911 499.5947 -0.3997511 0.482578 0.7793058 192 192 192 255 0.041217 0.541768
208.7969 2.711499 19.19531 0.01418862 0.9996949 0.02021625 192 192 192 255 0.100512 0.980289
209.3184 1.803329 107.0957 -0.06806953 0.9902605 -0.1214527 192 192 192 255 0.120987 0.692816
83.44727 -0.007512 0.116211 -0.02263341 0.5865513 -0.8095958 192 192 192 255 0.072628 0.733986
339.5859 1.202211 240.9219 -0.1336882 0.990758 -0.02293636 192 192 192 255 0.160838 0.879278
46.79199 -7.729201 0.527344 0.02627697 0.2389516 -0.9706759 192 192 192 255 0.058545 0.733828
41.76465 0.646628 337.9141 0.1146012 0.9926323 0.03934274 192 192 192 255 0.056613 0.603989
349.835 1.93296 497.2334 -0.002970074 0.8766262 0.4811629 192 192 192 255 0.174974 0.542677
222.0186 2.404063 98.10254 -0.08337512 0.9914184 -0.1006892 192 192 192 255 0.125867 0.696277
499.7725 -22.78747 0.107422 0.5960394 -0.6600659 -0.45722 192 192 192 255 0.23258 0.733989
84.7041 2.598051 456.0449 0.02646648 0.9976575 -0.0630805 192 192 192 255 0.073111 0.558528
474.0596 2.710467 107.5938 -0.04923837 0.9986752 0.01495109 192 192 192 255 0.221356 0.940017
379.4473 2.709405 341.585 0.007538963 0.9999372 0.008289815 192 192 192 255 0.178998 0.83342
379.4639 2.607793 85.33496 0.05602118 0.9866416 -0.1529705 192 192 192 255 0.186357 0.70119
123.502 -17.50506 499.9912 -0.03495746 0.0691456 0.9969939 192 192 192 255 0.088017 0.541616
100.9834 -1.116513 59.85938 0.02854875 0.9934641 0.1105177 192 192 192 255 0.079365 0.710994
71.19434 2.660059 495.0605 0.1636931 0.9664233 0.1980669 192 192 192 255 0.037825 0.763502
422.7158 -1.195613 7.797852 -0.04030265 0.9610454 -0.2734365 192 192 192 255 0.202975 0.73103
84.70801 2.610173 43.92285 0.02926441 0.9979147 0.0575306 192 192 192 255 0.073112 0.717127
37.28027 2.045051 452.0479 0.003548478 0.999992 -0.001867578 192 192 192 255 0.022375 0.783097
96.83008 -0.800926 246.1523 -0.08452564 0.9963479 -0.01209476 192 192 192 255 0.077769 0.639302
407.1377 -0.624747 386.9053 0.1025008 0.9897717 -0.09922498 192 192 192 255 0.19699 0.585135
123.2158 2.645335 259.7607 -0.01053171 0.9935416 -0.1129792 192 192 192 255 0.062268 0.870696
0.552734 -6.470851 353.6543 -0.9621779 0.2724133 -0.002192108 192 192 192 255 0.04078 0.597932
197.417 2.634313 456.2744 0.02945164 0.9925119 -0.118544 192 192 192 255 0.116415 0.55844
414.1162 1.240315 352.5381 0.08979087 0.9901521 0.1074082 192 192 192 255 0.199671 0.598361
495.4297 2.631719 457.6787 0.2785426 0.958833 0.05525677 192 192 192 255 0.231091 0.780532
0.020508 -5.032673 212.0068 -0.8908592 0.4542237 0.007118721 192 192 192 255 0.040575 0.652443
96.83984 2.71126 152.668 -0.06812086 0.9975206 -0.01767181 192 192 192 255 0.050252 0.919483
499.7842 -22.81046 102.2812 0.706254 -0.7079575 0.00118567 192 192 192 255 0.232584 0.694669
489.8652 0.827085 479.8486 0.3234427 0.9239212 0.204339 192 192 192 255 0.228556 0.770432
84.53027 -1.791055 260.4766 -0.06756306 0.9950863 -0.07237825 192 192 192 255 0.073044 0.63379
6.72168 -22.90043 257.1133 -0.01047788 -0.9999451 1.866326e-05 192 192 192 255 0.04315 0.635084
294.9434 2.712179 178.6025 0.01983804 0.9997963 -0.003734346 192 192 192 255 0.140501 0.907669
330.002 2.654617 4.816406 0.05969512 0.9608463 -0.270575 192 192 192 255 0.155728 0.986839
320.1523 2.697676 456.7725 -0.002021635 0.9934834 -0.1139591 192 192 192 255 0.151241 0.780945
5.467773 2.757337 363.5811 -0.4329197 0.9000239 -0.05037311 192 192 192 255 0.007882 0.823399
56.59863 -0.563925 362.9326 0.06586737 0.9977815 0.009675837 192 192 192 255 0.062313 0.594361
178.8486 -22.81645 0.055664 0.0001773621 -0.696475 -0.7175811 192 192 192 255 0.109281 0.734009
244.6436 0.169185 420.5098 -0.1708133 0.9689666 0.17868 192 192 192 255 0.134559 0.572203
0.091797 -22.76038 260.6797 -0.7237173 -0.6900928 0.002311334 192 192 192 255 0.040603 0.633712
256.043 2.690787 384.5908 -0.1884156 0.9819663 0.01554978 192 192 192 255 0.138939 0.586026
140.8887 -1.552137 500.0029 -0.05085283 0.4214737 0.9054137 192 192 192 255 0.094697 0.541611
85.89062 2.712029 378.9434 -0.1471902 0.988049 0.04576204 192 192 192 255 0.073567 0.588199
3.928711 2.594362 29.56641 -0.3709865 0.9131674 -0.1688028 192 192 192 255 0.042077 0.722652
451.7334 2.585368 80.50098 -0.06235921 0.9965144 0.0554105 192 192 192 255 0.211185 0.95236
0.204102 0.038353 497.542 -0.8491877 0.4599653 0.2594458 192 192 192 255 0.040646 0.542558
86.39355 2.055792 286.0029 -0.1188165 0.9916498 -0.0501327 192 192 192 255 0.045493 0.858741
490.7695 0.812272 343.9268 0.5444999 0.7880808 -0.2871384 192 192 192 255 0.229121 0.601675
14.65234 -22.84838 0.102539 0.0004060243 -0.6864104 -0.7272143 192 192 192 255 0.046197 0.733991
76.21094 -0.199772 185.209 -0.1783676 0.9836535 0.02471359 192 192 192 255 0.069848 0.662755
3.177734 -1.653578 228.7266 -0.613158 0.7898991 -0.00984008 192 192 192 255 0.041788 0.646008
474.0732 2.707568 150.2461 -0.09046631 0.9958995 -0.0002888055 192 192 192 255 0.221362 0.920587
413.4932 2.636522 456.2217 -0.02936395 0.9974662 -0.06479934 192 192 192 255 0.193764 0.781196
499.8242 -9.837697 499.8242 0.6579927 0.364116 0.6591398 192 192 192 255 0.2326 0.54168
31.94922 2.700017 327.168 0.07259332 0.9969189 0.02971738 192 192 192 255 0.019946 0.839988
3.954102 2.609514 495.583 -0.2365755 0.9487011 0.2097577 192 192 192 255 0.007192 0.763264
499.1777 0.467136 88.6543 0.7463583 0.665544 0.0006071943 192 192 192 255 0.232351 0.699913
85.97949 1.008219 195.9746 -0.1213883 0.9884573 0.09064876 192 192 192 255 0.073601 0.658612
339.292 0.675836 178.2197 -0.03868826 0.9987191 0.03261015 192 192 192 255 0.170923 0.665445
0.003906 -12.7868 374.2764 -0.9999337 0.01012838 -0.00548555 192 192 192 255 0.040569 0.589996
438.9365 -1.123022 202.7637 -0.04330411 0.9990575 0.002992681 192 192 192 255 0.209207 0.656
455.1377 2.713294 4.939453 -0.2024916 0.9489794 -0.241734 192 192 192 255 0.215431 0.73213
239.8838 -1.395751 72.88672 0.01543936 0.9989837 -0.04234764 192 192 192 255 0.132731 0.705981
500.0195 -21.47382 1.65625 0.8979037 -0.4309777 0.0895946 192 192 192 255 0.232675 0.733393
494.8701 -22.90051 487.6826 0.009353437 -0.999952 0.002928736 192 192 192 255 0.230696 0.546353
3.665039 -22.90057 494.3789 0.01783713 -0.9957393 0.0904712 192 192 192 255 0.041976 0.543776
383.0332 2.642174 14.72266 -0.03780767 0.9591872 -0.2802328 192 192 192 255 0.187729 0.728365
457.041 2.716481 251.5547 -0.1155979 0.9932064 -0.01334998 192 192 192 255 0.216162 0.637223
153.4893 -1.115928 72.75391 0.0001411973 0.9899401 -0.1414871 192 192 192 255 0.099538 0.706032
137.249 2.660073 495.1436 -0.0798257 0.9093614 0.4082765 192 192 192 255 0.067917 0.763464
499.7783 -22.79322 499.5029 0.5780544 -0.5823165 0.5716299 192 192 192 255 0.232582 0.541804
498.5879 -7.466982 324.1348 0.7294652 0.6839349 -0.0106558 192 192 192 255 0.232125 0.609292
320.1523 2.697676 456.7725 -0.002021635 0.9934834 -0.1139591 192 192 192 255 0.16357 0.558248
413.4932 2.636522 456.2217 -0.02936395 0.9974662 -0.06479934 192 192 192 255 0.199431 0.55846
456.9287 2.712204 416.4082 -0.0563354 0.9980171 -0.02807461 192 192 192 255 0.216119 0.573782
415.332 2.613654 43.90234 -0.02965448 0.9977115 0.06076431 192 192 192 255 0.200138 0.717135
451.7334 2.585368 80.50098 -0.06235921 0.9965144 0.0554105 192 192 192 255 0.214123 0.703051
43.86035 2.627338 85.7793 0.05695536 0.9979851 0.02796464 192 192 192 255 0.057419 0.70102
43.80664 2.634816 295.2979 0.1139024 0.9934641 0.007436012 192 192 192 255 0.025348 0.854506
457.041 2.716481 251.5547 -0.1155979 0.9932064 -0.01334998 192 192 192 255 0.213603 0.874434
120.4717 2.598567 414.6982 -0.0475914 0.9894826 0.1365986 192 192 192 255 0.086853 0.57444
84.70801 2.610173 43.92285 0.02926441 0.9979147 0.0575306 192 192 192 255 0.043981 0.969024
106.4043 2.695143 270.7686 -0.05727381 0.9961542 -0.06630677 192 192 192 255 0.081448 0.629829
84.7041 2.598051 456.0449 0.02646648 0.9976575 -0.0630805 192 192 192 255 0.043979 0.781276
413.3965 2.711608 120.7002 0.1371392 0.989508 -0.04546162 192 192 192 255 0.194464 0.934047
413.7715 2.710243 329.2734 0.1254302 0.9920204 0.01276014 192 192 192 255 0.194635 0.839029
66.6875 2.713163 472.3623 0.02548792 0.9994587 0.02080256 192 192 192 255 0.066189 0.552249
270.2139 2.701483 402.9189 -0.05772479 0.9971449 0.04868285 192 192 192 255 0.144384 0.578973
495.376 2.653499 355.1826 0.3058541 0.9449408 -0.1163625 192 192 192 255 0.230891 0.597343
495.4297 2.631719 457.6787 0.2785426 0.958833 0.05525677 192 192 192 255 0.230911 0.557899
259.1465 2.710771 348.6025 -0.006128223 0.9999197 0.01109239 192 192 192 255 0.140131 0.599876
330.002 2.654617 4.816406 0.05969512 0.9608463 -0.270575 192 192 192 255 0.167354 0.732177
197.417 2.634313 456.2744 0.02945164 0.9925119 -0.118544 192 192 192 255 0.095327 0.781172
379.4639 2.607793 85.33496 0.05602118 0.9866416 -0.1529705 192 192 192 255 0.179005 0.950158
31.94922 2.700017 327.168 0.07259332 0.9969189 0.02971738 192 192 192 255 0.052842 0.608124
28.99414 0.737284 366.8037 0.1068965 0.9938749 -0.02803547 192 192 192 255 0.051707 0.592871
475.5625 2.711232 326.4805 0.1544819 0.9876041 -0.0278108 192 192 192 255 0.222041 0.840301
171.9492 2.623619 85.49902 0.02432634 0.9887668 -0.1474735 192 192 192 255 0.10663 0.701127
85.88672 2.701024 313.4775 -0.1345501 0.990905 -0.001856458 192 192 192 255 0.045262 0.846225
85.89062 2.712029 378.9434 -0.1471902 0.988049 0.04576204 192 192 192 255 0.045264 0.816401
379.499 2.594869 414.6787 0.0515183 0.9890655 0.1381861 192 192 192 255 0.186371 0.574447
391.7256 2.722861 400.957 0.0969305 0.9945774 0.03768735 192 192 192 255 0.191068 0.579728
265.7666 2.616659 85.3623 -0.005718844 0.9884757 -0.1512714 192 192 192 255 0.127209 0.950145
222.0186 2.404063 98.10254 -0.08337512 0.9914184 -0.1006892 192 192 192 255 0.107279 0.944341
495.3076 2.647796 4.59082 0.2683367 0.9434765 -0.1945444 192 192 192 255 0.230864 0.732264
43.35352 2.440759 414.0273 0.05417646 0.998217 -0.02505534 192 192 192 255 0.025141 0.800418
448.9746 2.70786 22.41602 -0.02634776 0.9986479 -0.04481231 192 192 192 255 0.213063 0.725404
455.1377 2.713294 4.939453 -0.2024916 0.9489794 -0.241734 192 192 192 255 0.212736 0.986783
108.9072 2.683702 196.0508 -0.06462836 0.9961543 0.05915963 192 192 192 255 0.08241 0.658583
148.5791 2.71103 242.8125 -0.04936108 0.9985709 0.02048524 192 192 192 255 0.097651 0.640588
192.9355 2.703733 43.20117 0.03949054 0.9923872 0.1166539 192 192 192 255 0.093286 0.969352
199.9746 2.644472 414.4229 0.02588144 0.9919785 0.1237284 192 192 192 255 0.097236 0.800238
24.93066 2.706359 271.3828 -0.09267046 0.9956965 0.0008174314 192 192 192 255 0.050146 0.629593
13.24023 2.704408 314.0576 -0.2467744 0.9680724 -0.04402588 192 192 192 255 0.045654 0.61317
14.8125 2.694728 20.36914 -0.1662963 0.9618148 -0.2173889 192 192 192 255 0.046258 0.726192
155.791 2.691248 283.7783 -0.003271171 0.9999819 -0.005042233 192 192 192 255 0.100422 0.624822
120.5176 2.599099 85.29785 -0.05085866 0.987484 -0.1492944 192 192 192 255 0.061038 0.950175
86.09375 2.551604 119.3828 -0.1145172 0.9926156 -0.04000187 192 192 192 255 0.045356 0.934647
81.0957 1.362599 168.8682 -0.1720355 0.9849997 0.01339315 192 192 192 255 0.043079 0.912103
30.22461 2.708431 385.0088 0.060863 0.9965185 -0.05697873 192 192 192 255 0.05218 0.585865
209.3184 1.803329 107.0957 -0.06806953 0.9902605 -0.1214527 192 192 192 255 0.101493 0.940244
473.7324 2.709091 194.6035 -0.05731651 0.9983522 -0.002808481 192 192 192 255 0.222575 0.65914
13.10938 2.710942 193.5361 -0.09091387 0.9938148 0.06377263 192 192 192 255 0.045604 0.659551
5.467773 2.757337 363.5811 -0.4329197 0.9000239 -0.05037311 192 192 192 255 0.042668 0.594111
351.9238 1.199171 214.3232 -0.06511088 0.9975141 -0.02694876 192 192 192 255 0.175776 0.651551
326.0752 2.708997 136.0654 -0.02573802 0.9993029 0.02704171 192 192 192 255 0.165845 0.681668
325.1865 1.61389 154.2334 -0.006461667 0.9995084 0.03068061 192 192 192 255 0.165504 0.674676
318.6172 1.842167 236.7061 0.02713192 0.9995818 0.01001101 192 192 192 255 0.16298 0.642937
123.2158 2.645335 259.7607 -0.01053171 0.9935416 -0.1129792 192 192 192 255 0.087907 0.634065
495.2051 2.710552 193.9219 0.3699227 0.9290419 0.006202182 192 192 192 255 0.230825 0.659402
495.248 2.231085 248.1709 0.4051699 0.9141669 0.01167098 192 192 192 255 0.230842 0.638525
293.1104 2.692409 43.2959 -0.02866869 0.9930607 0.114055 192 192 192 255 0.15318 0.717369
67.00684 2.710809 8.508789 -0.05419791 0.9489502 -0.3107348 192 192 192 255 0.066311 0.730756
86.39355 2.055792 286.0029 -0.1188165 0.9916498 -0.0501327 192 192 192 255 0.07376 0.623966
256.043 2.690787 384.5908 -0.1884156 0.9819663 0.01554978 192 192 192 255 0.122779 0.813828
85.97949 1.008219 195.9746 -0.1213883 0.9884573 0.09064876 192 192 192 255 0.045304 0.899754
71.19434 2.660059 495.0605 0.1636931 0.9664233 0.1980669 192 192 192 255 0.06792 0.543513
375.6572 2.698979 26.37695 -0.02487986 0.9977032 -0.06300254 192 192 192 255 0.184895 0.72388
327.0938 2.131136 224.7607 0.4603618 0.8276988 0.3209078 192 192 192 255 0.166237 0.647534
321.1465 1.739423 187.3574 0.04187724 0.9990263 -0.01388391 192 192 192 255 0.163952 0.661929
366.3359 2.704835 196.6855 -0.04043591 0.9991246 0.01072571 192 192 192 255 0.181314 0.658339
489.8652 0.827085 479.8486 0.3234427 0.9239212 0.204339 192 192 192 255 0.228773 0.549368
292.0645 2.708586 414.1816 -0.007786807 0.9912964 0.1314192 192 192 192 255 0.152778 0.574639
474.0596 2.710467 107.5938 -0.04923837 0.9986752 0.01495109 192 192 192 255 0.222701 0.692624
343.1924 2.708503 25.75684 0.01553373 0.9993041 -0.0339123 192 192 192 255 0.172422 0.724118
3.954102 2.609514 495.583 -0.2365755 0.9487011 0.2097577 192 192 192 255 0.042087 0.543312
382.8809 2.703107 385.3975 0.04919284 0.9986692 -0.01548752 192 192 192 255 0.18767 0.585716
247.748 1.665201 30.24121 -0.01938215 0.9872699 0.1578685 192 192 192 255 0.135752 0.722393
224.709 1.347769 30.20508 0.03738416 0.9787812 0.201469 192 192 192 255 0.126901 0.722406
467.248 2.659922 495.1514 0.09278038 0.9337946 0.3455712 192 192 192 255 0.220084 0.543478
341.3281 1.129196 194.834 0.04403867 0.9988852 -0.01699713 192 192 192 255 0.161632 0.900274
474.0732 2.707568 150.2461 -0.09046631 0.9958995 -0.0002888055 192 192 192 255 0.222706 0.67621
256.3965 2.664359 474.7939 -0.01444183 0.9979091 -0.06299981 192 192 192 255 0.139075 0.551313
274.4131 2.708963 479.7773 -0.008252832 0.999695 -0.02327916 192 192 192 255 0.145997 0.549395
389.3613 1.854446 363.0176 0.09887505 0.9945592 0.03279788 192 192 192 255 0.19016 0.594328
383.0332 2.642174 14.72266 -0.03780767 0.9591872 -0.2802328 192 192 192 255 0.179888 0.982326
237.5127 2.689786 364.0615 0.03734701 0.9974095 0.06147842 192 192 192 255 0.114337 0.82318
229.5381 0.742587 393.2188 0.1199961 0.9905719 0.06609334 192 192 192 255 0.110704 0.809897
95.84375 2.709714 475.8604 -0.03776678 0.9872652 0.154535 192 192 192 255 0.077391 0.550902
233.5039 2.63899 486.7109 0.003826283 0.9997742 -0.02090525 192 192 192 255 0.13028 0.546727
471.4473 2.703649 278.5967 0.04578861 0.9988475 0.01439561 192 192 192 255 0.221697 0.626816
3.94043 2.592021 190.3994 -0.2795985 0.950666 0.1343836 192 192 192 255 0.007186 0.902294
490.7695 0.812272 343.9268 0.5444999 0.7880808 -0.2871384 192 192 192 255 0.228968 0.832353
137.249 2.660073 495.1436 -0.0798257 0.9093614 0.4082765 192 192 192 255 0.093298 0.543481
279.9551 2.707037 27.4873 -0.04701207 0.9988884 0.003464936 192 192 192 255 0.148126 0.723452
349.835 1.93296 497.2334 -0.002970074 0.8766262 0.4811629 192 192 192 255 0.164764 0.762512
277.3916 2.064778 457.0518 -0.2874578 0.9516568 -0.1082475 192 192 192 255 0.131761 0.780818
414.1162 1.240315 352.5381 0.08979087 0.9901521 0.1074082 192 192 192 255 0.194792 0.82843
3.928711 2.594362 29.56641 -0.3709865 0.9131674 -0.1688028 192 192 192 255 0.007181 0.975564
3 244 245 211 
3 182 217 228 
3 58 190 64 
3 114 61 244 
3 71 239 219 
3 66 250 74 
3 233 107 250 
3 213 101 180 
3 132 21 131 
3 172 173 100 
3 232 214 85 
3 178 143 103 
3 229 110 129 
3 13 91 252 
3 2 127 91 
3 121 154 205 
3 13 252 253 
3 247 160 254 
3 240 150 55 
3 95 159 17 
3 8 81 165 
3 88 3 17 
3 58 0 224 
3 255 82 256 
3 43 177 188 
3 182 151 5 
3 15 92 189 
3 143 257 103 
3 112 187 19 
3 111 13 254 
3 35 93 228 
3 11 106 222 
3 15 16 92 
3 100 173 258 
3 234 215 157 
3 225 239 71 
3 75 139 250 
3 255 4 82 
3 7 259 154 
3 123 7 57 
3 167 66 74 
3 15 203 87 
3 250 139 233 
3 232 85 205 
3 1 147 115 
3 126 260 106 
3 115 147 116 
3 145 81 20 
3 33 11 222 
3 10 197 194 
3 180 101 261 
3 81 8 191 
3 191 8 83 
3 186 117 86 
3 201 68 119 
3 110 9 29 
3 48 94 113 
3 130 199 262 
3 263 235 141 
3 105 179 84 
3 251 36 227 
3 75 250 66 
3 221 193 233 
3 3 168 192 
3 264 30 265 
3 112 97 45 
3 22 113 94 
3 10 194 170 
3 15 189 203 
3 90 70 249 
3 176 90 85 
3 176 124 90 
3 234 54 215 
3 173 158 258 
3 41 137 0 
3 4 255 27 
3 213 180 34 
3 172 100 261 
3 194 197 143 
3 254 13 253 
3 154 232 205 
3 240 159 95 
3 111 78 13 
3 260 222 106 
3 240 95 111 
3 160 111 254 
3 7 123 259 
3 127 106 87 
3 161 266 38 
3 79 0 58 
3 177 149 188 
3 23 32 246 
3 218 127 267 
3 129 178 11 
3 16 216 77 
3 206 25 12 
3 78 2 13 
3 2 91 13 
3 51 229 237 
3 4 27 14 
3 64 231 123 
3 194 143 110 
3 110 143 129 
3 4 14 168 
3 82 4 168 
3 171 236 56 
3 35 47 223 
3 131 21 223 
3 106 15 87 
3 106 16 15 
3 166 268 269 
3 166 59 268 
3 49 1 69 
3 220 270 109 
3 32 271 50 
3 170 194 248 
3 194 110 6 
3 96 184 228 
3 263 70 272 
3 264 273 89 
3 77 216 42 
3 274 275 185 
3 213 148 137 
3 0 137 148 
3 82 168 133 
3 193 118 122 
3 276 7 154 
3 248 29 277 
3 68 278 279 
3 206 47 25 
3 211 114 244 
3 11 16 106 
3 11 178 16 
3 111 95 78 
3 73 191 83 
3 227 59 75 
3 104 12 125 
3 59 227 268 
3 83 8 76 
3 280 78 281 
3 87 128 127 
3 126 164 140 
3 258 158 54 
3 282 283 1 
3 14 19 192 
3 273 282 89 
3 264 99 30 
3 177 241 284 
3 178 216 16 
3 169 156 199 
3 39 198 285 
3 112 45 181 
3 283 94 1 
3 150 160 247 
3 241 177 286 
3 287 79 58 
3 97 277 45 
3 132 47 206 
3 1 119 147 
3 288 65 289 
3 180 261 290 
3 147 291 116 
3 125 12 219 
3 219 211 245 
3 30 37 46 
3 292 104 293 
3 64 123 57 
3 101 172 261 
3 28 223 294 
3 28 294 96 
3 93 96 228 
3 236 149 284 
3 176 85 214 
3 1 94 119 
3 289 130 295 
3 119 94 48 
3 296 297 298 
3 110 51 9 
3 110 229 51 
3 179 71 84 
3 63 239 225 
3 184 182 228 
3 89 282 152 
3 62 282 212 
3 32 23 5 
3 30 81 265 
3 282 1 212 
3 17 204 95 
3 77 299 92 
3 193 31 118 
3 187 112 181 
3 283 300 94 
3 81 69 20 
3 151 32 5 
3 301 120 55 
3 82 88 136 
3 91 60 252 
3 205 85 209 
3 68 226 278 
3 33 129 11 
3 35 223 28 
3 178 185 216 
3 242 112 19 
3 218 267 109 
3 42 185 275 
3 144 212 52 
3 289 65 130 
3 82 133 88 
3 206 230 302 
3 12 230 206 
3 202 63 303 
3 63 202 239 
3 37 52 183 
3 238 153 304 
3 305 306 238 
3 24 180 290 
3 40 109 270 
3 53 49 69 
3 183 53 146 
3 183 146 81 
3 28 96 93 
3 258 54 234 
3 120 136 240 
3 263 141 70 
3 190 231 64 
3 304 174 307 
3 5 43 188 
3 295 130 308 
3 56 309 310 
3 67 251 66 
3 129 143 178 
3 136 88 240 
3 311 80 27 
3 302 21 132 
3 39 235 198 
3 235 263 198 
3 47 131 223 
3 96 294 312 
3 72 202 303 
3 72 138 202 
3 138 125 219 
3 264 89 99 
3 183 49 53 
3 25 211 219 
3 219 12 25 
3 129 313 262 
3 167 74 56 
3 208 74 155 
3 288 237 175 
3 20 314 145 
3 267 220 109 
3 207 298 315 
3 26 170 27 
3 170 248 27 
3 141 235 195 
3 38 266 316 
3 81 145 165 
3 157 215 39 
3 230 102 302 
3 72 293 138 
3 292 102 104 
3 12 104 102 
3 120 240 55 
3 32 317 246 
3 276 154 121 
3 74 250 134 
3 61 208 155 
3 27 248 97 
3 174 153 318 
3 304 153 174 
3 306 319 238 
3 320 305 238 
3 46 183 81 
3 65 288 175 
3 65 175 169 
3 166 139 75 
3 272 70 90 
3 5 188 61 
3 237 229 156 
3 221 161 31 
3 251 75 66 
3 149 236 171 
3 233 139 321 
3 251 163 36 
3 67 163 251 
3 104 18 293 
3 127 322 267 
3 323 82 136 
3 219 245 71 
3 265 191 73 
3 265 81 191 
3 38 316 105 
3 74 134 155 
3 42 216 185 
3 27 80 26 
3 26 80 98 
3 300 22 94 
3 50 324 317 
3 16 77 92 
3 35 228 44 
3 202 138 239 
3 177 196 286 
3 22 296 113 
3 63 225 325 
3 325 179 105 
3 240 160 150 
3 313 129 33 
3 302 102 292 
3 135 326 281 
3 327 98 80 
3 328 98 327 
3 180 24 34 
3 311 27 255 
3 32 151 271 
3 256 82 323 
3 177 43 196 
3 38 105 31 
3 161 38 31 
3 118 84 122 
3 233 321 329 
3 245 122 84 
3 330 62 144 
3 98 10 170 
3 47 44 25 
3 78 280 2 
3 178 274 185 
3 87 203 142 
3 323 136 120 
3 6 110 29 
3 127 128 91 
3 88 17 159 
3 245 84 71 
3 200 281 78 
3 212 49 52 
3 97 248 277 
3 39 215 235 
3 238 319 153 
3 323 120 331 
3 98 170 26 
3 143 197 257 
3 14 242 19 
3 27 242 14 
3 56 74 208 
3 244 250 107 
3 91 332 333 
3 174 318 307 
3 204 334 135 
3 233 193 108 
3 233 108 107 
3 168 14 192 
3 160 240 111 
3 293 18 138 
3 221 31 193 
3 248 6 29 
3 194 6 248 
3 113 296 207 
3 335 41 0 
3 130 262 308 
3 200 135 281 
3 1 115 20 
3 69 1 20 
3 217 61 114 
3 44 114 25 
3 336 115 116 
3 86 117 233 
3 117 221 233 
3 171 243 188 
3 151 182 271 
3 293 72 303 
3 91 128 332 
3 156 229 129 
3 129 210 156 
3 81 146 69 
3 133 3 88 
3 175 156 169 
3 237 156 175 
3 63 325 303 
3 336 116 337 
3 178 103 274 
3 312 182 184 
3 338 266 161 
3 240 88 159 
3 65 199 130 
3 37 183 46 
3 142 203 339 
3 332 142 339 
3 40 140 109 
3 109 140 164 
3 164 218 109 
3 58 224 190 
3 245 244 108 
3 213 162 148 
3 149 177 284 
3 2 280 322 
3 23 43 5 
3 244 61 134 
3 61 155 134 
3 329 86 233 
3 43 23 196 
3 212 1 49 
3 206 302 132 
3 310 67 167 
3 67 310 163 
3 242 97 112 
3 27 97 242 
3 196 23 246 
3 139 269 321 
3 213 34 162 
3 36 163 340 
3 56 208 243 
3 320 238 304 
3 30 99 37 
3 86 329 186 
3 245 108 122 
3 147 119 279 
3 119 68 279 
3 173 172 341 
3 115 336 20 
3 59 166 75 
3 167 67 66 
3 127 2 322 
3 149 171 188 
3 60 91 333 
3 108 193 122 
3 96 312 184 
3 45 277 181 
3 78 95 135 
3 310 340 163 
3 271 182 312 
3 342 276 121 
3 328 10 98 
3 135 334 326 
3 44 228 114 
3 102 230 12 
3 343 161 221 
3 327 80 344 
3 236 284 309 
3 196 246 286 
3 90 345 85 
3 61 188 243 
3 47 35 44 
3 30 46 81 
3 225 179 325 
3 31 105 118 
3 118 105 84 
3 139 166 269 
3 331 120 301 
3 126 106 127 
3 244 107 108 
3 133 168 3 
3 78 135 200 
3 18 104 125 
3 117 186 343 
3 263 285 198 
3 316 325 105 
3 56 236 309 
3 214 346 176 
3 135 95 204 
3 18 125 138 
3 347 265 73 
3 128 142 332 
3 199 156 210 
3 114 211 25 
3 337 116 291 
3 152 282 62 
3 179 225 71 
3 62 212 144 
3 50 271 324 
3 164 127 218 
3 182 5 217 
3 228 217 114 
3 199 210 262 
3 217 5 61 
3 42 275 299 
3 42 299 77 
3 301 55 150 
3 132 131 47 
3 172 348 341 
3 183 52 49 
3 117 343 221 
3 129 262 210 
3 32 50 317 
3 311 344 80 
3 169 199 65 
3 164 126 127 
3 56 310 167 
3 207 315 113 
3 207 296 298 
3 239 138 219 
3 244 134 250 
3 61 243 208 
3 79 335 0 
3 35 28 93 
3 343 338 161 
3 128 87 142 
3 90 249 345 
3 146 53 69 
3 171 56 243 
3 301 150 247 
3 75 251 227 
