ply
format ascii 1.0
comment VCGLIB generated
comment TextureFile Dungeons_2_Texture_01_A.png
element vertex 74
property float x
property float y
property float z
property float nx
property float ny
property float nz
property uchar red
property uchar green
property uchar blue
property uchar alpha
property float texture_u
property float texture_v
element face 90
property list uchar int vertex_indices
end_header
3.3e-05 0 31.19531 -0.0001489538 -5.724424e-05 1 192 192 192 255 0.001899 0.753487
500.0001 0 31.19531 0.0003520296 -0.9999999 0.0001760594 192 192 192 255 0.2374 0.753487
1.7e-05 0 -14.23921 -0.8164965 -0.4082482 0.4082485 192 192 192 255 0.001899 0.753487
500 0 -14.23921 0.0001174636 -1 -0.0002349273 192 192 192 255 0.2374 0.753487
3.3e-05 500 31.19531 -0.6667867 -0.6666158 0.333195 192 192 192 255 0.001899 0.988987
500.0001 500 31.19531 0.0004945788 -0.0007795101 0.9999996 192 192 192 255 0.2374 0.988987
500 500 -14.23921 0.6666664 0.3333332 -0.666667 192 192 192 255 0.2374 0.988987
1.7e-05 500 -14.23921 -0.4082483 -0.4082483 0.8164967 192 192 192 255 0.001899 0.988987
125.0126 0 31.19531 0.0001910892 -0.9999998 0.0006499349 192 192 192 255 0.06078 0.753487
374.9875 0 31.19531 -0.0001155681 -0.9999999 0.0004396334 192 192 192 255 0.178519 0.753487
1.5e-05 0 -14.23921 0 -0.9999999 0.0003528098 192 192 192 255 0.001899 0.753487
1.5e-05 500 -14.23921 0 0 0 192 192 192 255 0.001899 0.988987
3.1e-05 500 31.19531 -9.269065e-08 0.003799206 0.9999928 192 192 192 255 0.001899 0.988987
126.9071 347.5432 31.2722 0.2237173 -0.07066935 0.9720887 192 192 192 255 0.06078 0.918337
250.4827 455.3129 31.36511 0.0008522859 -0.0009461096 0.9999992 192 192 192 255 0.119649 0.965437
376.5826 352.1404 30.73952 0.001413831 -0.004316874 0.9999897 192 192 192 255 0.178519 0.918337
352.6875 0 16.65117 -0.0001734593 -0.9999998 0.0006605458 192 192 192 255 0.168015 0.753487
147.3125 0 16.65117 0.4210234 -0.6526252 0.6299362 192 192 192 255 0.071284 0.753487
252.3648 417.439 16.65117 0.05134215 -0.06988569 0.9962329 192 192 192 255 0.119649 0.951985
145.5402 338.867 16.65117 0.05142319 -0.06986735 0.9962301 192 192 192 255 0.071284 0.913289
351.8552 344.2028 16.65117 -0.0001132996 -2.559338e-05 1 192 192 192 255 0.168015 0.913289
3.3e-05 302.6046 31.19531 -0.0002062362 -1.52759e-08 1 192 192 192 255 0.001899 0.896013
500.0001 66.9283 31.19531 0.5137598 0.0007715684 0.8579338 192 192 192 255 0.2374 0.78501
500 67.84605 -14.23921 0.8320499 1.158208e-07 -0.5547007 192 192 192 255 0.2374 0.785442
1.7e-05 303.5224 -14.23921 -0.7071066 0 0.7071069 192 192 192 255 0.001899 0.896446
380.6247 106.0488 31.03276 -0.2448446 0.0005586298 0.9695622 192 192 192 255 0.178519 0.812279
1.5e-05 303.5224 -14.23921 0 0 -1 192 192 192 255 0.001899 0.896446
122.1843 247.9553 31.24908 0.2825703 -0.001517981 0.9592454 192 192 192 255 0.06078 0.618774
146.0887 233.9981 16.65117 0.5556645 0.002899329 0.8314016 192 192 192 255 0.071284 0.613835
352.3568 136.7731 16.65117 -0.2954071 -0.000503094 0.9553713 192 192 192 255 0.168015 0.566986
123.3889 142.3466 31.22618 0.3389462 -0.03439773 0.9401768 192 192 192 255 0.060788 0.578085
124.5903 37.0222 31.20334 0.2790993 0.09324915 0.9557239 192 192 192 255 0.06078 0.537519
135.292 74.17928 24.43181 0.4653696 0.00316014 0.8851108 192 192 192 255 0.065959 0.551836
115.4761 64.08297 31.20921 0.01915842 0.0002075256 0.9998165 192 192 192 255 0.056633 0.783282
378.5047 235.117 30.87896 -0.1477117 0.02648154 0.9886759 192 192 192 255 0.178519 0.617903
376.9527 329.6021 30.76637 -0.1546 -0.1134972 0.9814363 192 192 192 255 0.178519 0.658623
385.303 318.7381 30.7873 -0.03107774 -0.006779635 0.999494 192 192 192 255 0.181361 0.654373
388.085 290.4901 30.82322 -0.05111163 0.00476004 0.9986817 192 192 192 255 0.182168 0.642321
371.5485 311.4537 27.78961 -0.1626305 -0.001485016 0.986686 192 192 192 255 0.175735 0.650371
379.86 152.6042 30.97728 -0.2280239 0.05109906 0.9723138 192 192 192 255 0.178519 0.832343
378.8726 212.7176 30.90565 -0.1337209 -0.03885993 0.9902569 192 192 192 255 0.17853 0.608181
387.1937 185.4857 30.94579 -0.1712514 -0.001641154 0.985226 192 192 192 255 0.182423 0.845823
374.4478 171.6775 28.69302 -0.1734135 -0.001672179 0.9848477 192 192 192 255 0.176484 0.589647
182.3737 395.9154 31.3139 0.1179752 -0.08622576 0.9892659 192 192 192 255 0.087204 0.939477
242.5891 448.4289 31.35918 0.04340545 -0.1293156 0.990653 192 192 192 255 0.115669 0.71279
213.1221 438.4538 31.33813 0.08858259 -0.1024286 0.9907883 192 192 192 255 0.101946 0.958309
222.8696 421.8411 28.74406 0.2327608 -0.3105043 0.9216341 192 192 192 255 0.106282 0.701545
252.3648 417.439 16.65117 0.05134215 -0.06988569 0.9962329 192 192 192 255 0.119649 0.701985
145.5402 338.867 16.65117 0.05142319 -0.06986735 0.9962301 192 192 192 255 0.071284 0.663289
126.9071 347.5432 31.2722 0.2237173 -0.07066935 0.9720887 192 192 192 255 0.06078 0.668337
374.9875 0 31.19531 -0.0001155681 -0.9999999 0.0004396334 192 192 192 255 0.178519 0.523257
380.6247 106.0488 31.03276 -0.2448446 0.0005586298 0.9695622 192 192 192 255 0.178519 0.562279
352.6875 0 16.65117 -0.0001734593 -0.9999998 0.0006605458 192 192 192 255 0.168015 0.523257
376.5826 352.1404 30.73952 0.001413831 -0.004316874 0.9999897 192 192 192 255 0.178519 0.668337
250.4827 455.3129 31.36511 0.0008522859 -0.0009461096 0.9999992 192 192 192 255 0.119649 0.715437
351.8552 344.2028 16.65117 -0.0001132996 -2.559338e-05 1 192 192 192 255 0.168015 0.663289
146.0887 233.9981 16.65117 0.5556645 0.002899329 0.8314016 192 192 192 255 0.071284 0.863835
352.3568 136.7731 16.65117 -0.2954071 -0.000503094 0.9553713 192 192 192 255 0.168015 0.816986
122.1843 247.9553 31.24908 0.2825703 -0.001517981 0.9592454 192 192 192 255 0.06078 0.868774
147.3125 0 16.65117 0.4210234 -0.6526252 0.6299362 192 192 192 255 0.071284 0.523257
115.4761 64.08297 31.20921 0.01915842 0.0002075256 0.9998165 192 192 192 255 0.057613 0.547948
387.1937 185.4857 30.94579 -0.1712514 -0.001641154 0.985226 192 192 192 255 0.181145 0.597688
379.86 152.6042 30.97728 -0.2280239 0.05109906 0.9723138 192 192 192 255 0.178519 0.582343
182.3737 395.9154 31.3139 0.1179752 -0.08622576 0.9892659 192 192 192 255 0.087204 0.689477
213.1221 438.4538 31.33813 0.08858259 -0.1024286 0.9907883 192 192 192 255 0.102704 0.706438
388.085 290.4901 30.82322 -0.05111163 0.00476004 0.9986817 192 192 192 255 0.18372 0.890849
378.5047 235.117 30.87896 -0.1477117 0.02648154 0.9886759 192 192 192 255 0.178519 0.867903
378.8726 212.7176 30.90565 -0.1337209 -0.03885993 0.9902569 192 192 192 255 0.178519 0.858249
376.9527 329.6021 30.76637 -0.1546 -0.1134972 0.9814363 192 192 192 255 0.178519 0.908623
385.303 318.7381 30.7873 -0.03107774 -0.006779635 0.999494 192 192 192 255 0.182571 0.903226
242.5891 448.4289 31.35918 0.04340545 -0.1293156 0.990653 192 192 192 255 0.115889 0.962428
125.0126 0 31.19531 0.0001910892 -0.9999998 0.0006499349 192 192 192 255 0.06078 0.523257
124.5903 37.0222 31.20334 0.2790993 0.09324915 0.9557239 192 192 192 255 0.06078 0.7707
123.3889 142.3466 31.22618 0.3389462 -0.03439773 0.9401768 192 192 192 255 0.06077 0.819683
3 9 3 1 
3 0 2 10 
3 0 10 8 
3 4 12 11 
3 4 11 7 
3 4 13 12 
3 5 6 11 
3 5 11 12 
3 13 43 45 
3 13 45 12 
3 14 15 5 
3 0 33 21 
3 18 19 20 
3 22 41 39 
3 22 39 25 
3 1 3 23 
3 1 23 22 
3 6 23 26 
3 6 26 11 
3 7 11 26 
3 7 26 24 
3 2 0 21 
3 2 21 24 
3 3 9 16 
3 8 10 17 
3 17 10 3 
3 17 3 16 
3 47 46 48 
3 49 27 28 
3 49 28 48 
3 50 51 29 
3 50 29 52 
3 53 54 47 
3 53 47 55 
3 19 56 57 
3 19 57 20 
3 5 12 14 
3 21 58 13 
3 21 13 4 
3 22 25 9 
3 22 9 1 
3 22 23 6 
3 22 6 5 
3 26 23 3 
3 26 3 10 
3 24 26 10 
3 24 10 2 
3 24 21 4 
3 24 4 7 
3 28 32 59 
3 55 38 35 
3 55 35 53 
3 57 56 17 
3 57 17 16 
3 60 32 30 
3 31 32 60 
3 36 38 37 
3 35 38 36 
3 37 38 34 
3 40 42 61 
3 61 42 62 
3 63 46 64 
3 64 46 44 
3 38 42 40 
3 38 40 34 
3 29 51 62 
3 29 62 42 
3 29 42 38 
3 29 38 55 
3 41 65 66 
3 41 66 67 
3 5 15 68 
3 5 68 69 
3 5 65 41 
3 5 41 22 
3 5 69 65 
3 12 45 70 
3 12 70 14 
3 54 44 46 
3 54 46 47 
3 48 46 63 
3 48 63 49 
3 28 27 30 
3 28 30 32 
3 59 32 31 
3 59 31 71 
3 0 8 72 
3 0 72 33 
3 21 33 73 
3 21 73 58 
