ply
format ascii 1.0
comment VCGLIB generated
comment TextureFile Dungeons_2_Texture_01_A.png
element vertex 353
property float x
property float y
property float z
property float nx
property float ny
property float nz
property uchar red
property uchar green
property uchar blue
property uchar alpha
property float texture_u
property float texture_v
element face 420
property list uchar int vertex_indices
end_header
-18.80048 15.26601 -5.488449 -0.00279978 0.005424706 -0.9999814 192 192 192 255 0.198888 0.776905
-18.80048 13.44066 5.569916 0.002704827 0.00459427 0.9999858 192 192 192 255 0.213358 0.586054
-38.13099 56.28939 -5.488449 -0.4415337 -0.09079678 -0.8926387 192 192 192 255 0.195742 0.625104
-38.11863 26.2206 -5.488449 -0.3571628 0.1515027 -0.9216734 192 192 192 255 0.195753 0.597701
-38.10513 25.91637 5.569916 -0.490958 0.1540538 0.8574542 192 192 192 255 0.18368 0.785295
-38.30079 54.74277 5.56987 -0.3862095 -0.1640965 0.9076974 192 192 192 255 0.183525 0.808004
-11.80487 25.95003 5.569916 -0.01163515 0.003021444 0.9999278 192 192 192 255 0.219734 0.597454
-11.55042 26.24995 -5.488449 -0.006129288 0.001777234 -0.9999797 192 192 192 255 0.204354 0.785558
-45.35034 65.21776 5.569855 0.1119827 -0.2680932 0.9568626 192 192 192 255 0.177972 0.816257
-52.37386 56.45873 5.56987 0.1442823 -0.0312194 0.989044 192 192 192 255 0.172439 0.809356
-52.25985 56.39575 -5.488449 0.4346486 -0.1825681 -0.8819011 192 192 192 255 0.182866 0.625201
-45.35034 66.49642 -5.488449 -0.1003027 -0.207398 -0.973101 192 192 192 255 0.189162 0.634663
-25.70366 26.06327 -5.488449 0.5821024 0.1763647 -0.7937583 192 192 192 255 0.193449 0.785411
-26.0202 56.37288 -5.488449 0.4226539 -0.1731826 -0.8895907 192 192 192 255 0.1932 0.809289
-25.9367 56.34258 5.56987 0.5422409 -0.1030047 0.8338854 192 192 192 255 0.206855 0.625152
-25.73591 26.66418 5.569916 0.3521205 0.09368096 0.9312546 192 192 192 255 0.207038 0.598105
-11.99243 56.59473 -5.488449 -0.009943122 -0.001913547 -0.9999487 192 192 192 255 0.204251 0.809463
-11.98668 56.60836 5.56987 -0.009655975 -0.003883584 0.9999459 192 192 192 255 0.219568 0.625394
-0.012207 75.34485 -13.74911 0.9963614 -0.03418542 -0.07807298 192 192 192 255 0.213689 0.824235
-0.010498 86.80939 -13.74911 0.02166728 0.9997644 -0.00128524 192 192 192 255 0.213691 0.833266
-18.80048 67.29797 5.569855 0.002940378 -0.005806284 0.9999788 192 192 192 255 0.213358 0.635136
-18.80048 67.29797 -5.488449 -0.002901316 -0.005639039 -0.9999799 192 192 192 255 0.198888 0.817895
-0.012207 86.80939 13.74911 0.9993013 0.03399205 0.01554157 192 192 192 255 0.213689 0.833266
-0.010498 75.34485 13.74911 0.06142697 -0.001057374 0.9981111 192 192 192 255 0.213691 0.824235
-64.70805 56.57585 5.56987 -0.01416479 -0.005763568 0.9998831 192 192 192 255 0.162722 0.809448
-71.90027 67.29797 5.569855 0.107065 -0.1952288 0.9748963 192 192 192 255 0.157056 0.817895
-71.90027 67.29797 -5.488449 -0.0982946 -0.1945995 -0.9759453 192 192 192 255 0.164966 0.635136
-64.78124 56.60042 -5.488449 -0.4489083 -0.08330756 -0.889686 192 192 192 255 0.171454 0.625387
-52.23016 24.85956 -5.488449 0.4904138 0.1527663 -0.8579958 192 192 192 255 0.182893 0.59646
-52.20131 25.89305 5.569916 0.7140805 0.04764458 0.6984405 192 192 192 255 0.172575 0.785277
-78.73299 56.42331 5.56987 0.3395577 -0.1057896 0.9346171 192 192 192 255 0.151673 0.809328
-78.76539 56.53451 -5.488449 0.4918272 -0.1509662 -0.8575053 192 192 192 255 0.15871 0.625327
-65.10548 26.25201 -5.488449 -0.4290916 0.1546132 -0.8899299 192 192 192 255 0.171159 0.59773
-64.73607 27.29714 5.569916 -0.5017566 0.1308793 0.8550503 192 192 192 255 0.1627 0.786383
-45.35034 15.46214 -5.488449 -0.007289508 0.1785395 -0.9839057 192 192 192 255 0.189162 0.587634
-45.35034 15.72891 5.569916 0.001724784 0.1528235 0.988252 192 192 192 255 0.177972 0.776832
-91.4147 56.35748 5.56987 -0.4379181 -0.1863193 0.8794959 192 192 192 255 0.141682 0.809277
-98.45013 66.70667 5.569855 0.1095017 -0.2043679 0.9727503 192 192 192 255 0.13614 0.817895
-98.45013 67.01015 -5.488449 -0.1099232 -0.2023012 -0.9731347 192 192 192 255 0.14077 0.635136
-91.44475 56.29048 -5.488449 -0.4521961 -0.09906415 -0.8864 192 192 192 255 0.147155 0.625105
-78.79355 25.85212 -5.488449 0.4356125 0.143843 -0.8885668 192 192 192 255 0.158684 0.597365
-79.11278 26.15092 5.569916 0.4968143 0.2198161 0.8395573 192 192 192 255 0.151374 0.78548
-105.5454 56.2637 5.56987 0.4533324 -0.0875578 0.8870307 192 192 192 255 0.13055 0.809203
-105.3488 56.38717 -5.488449 0.345658 -0.02689637 -0.937975 192 192 192 255 0.134843 0.625189
-91.62289 25.98792 -5.488449 -0.5684865 0.181762 -0.8023626 192 192 192 255 0.146992 0.597489
-91.2804 25.94274 5.569916 -0.3460176 0.1561079 0.9251498 192 192 192 255 0.141788 0.785316
-71.90027 15.17432 -5.488449 -0.002294075 0.1403194 -0.9901037 192 192 192 255 0.164966 0.587634
-71.90027 15.17432 5.569916 -0.005068314 0.1402813 0.9900988 192 192 192 255 0.157056 0.776832
-117.9296 56.50979 5.56987 -0.4187964 -0.1714063 0.8917564 192 192 192 255 0.120794 0.809397
-125 67.29797 5.569855 0.1020683 -0.1992016 0.9746286 192 192 192 255 0.115224 0.817895
-125 67.29797 -5.488449 -0.1227556 -0.230716 -0.9652467 192 192 192 255 0.116574 0.635136
-118.202 56.63171 -5.488449 -0.01034835 -0.001982183 -0.9999445 192 192 192 255 0.12277 0.625416
-105.7006 26.18303 -5.488449 0.6582066 0.0508238 -0.7511199 192 192 192 255 0.134163 0.597667
-105.5744 26.22625 5.569916 0.4251316 0.177589 0.8875389 192 192 192 255 0.130527 0.785539
-132.1331 56.3478 5.56987 0.3442723 -0.111512 0.9322241 192 192 192 255 0.109604 0.809269
-132.2452 56.42375 -5.488449 0.4278849 -0.1407534 -0.8928062 192 192 192 255 0.109972 0.625226
-118.0097 26.22731 -5.488449 -0.534167 0.1984147 -0.8217647 192 192 192 255 0.122945 0.597707
-117.8411 26.20238 5.569916 -0.5081961 0.1419899 0.8494561 192 192 192 255 0.120864 0.78552
-98.45013 15.46214 -5.488449 -0.0003176095 0.1496095 -0.9887452 192 192 192 255 0.14077 0.587634
-98.45013 15.72891 5.569916 0.003966096 0.152479 0.9882988 192 192 192 255 0.13614 0.776832
-144.7065 56.61137 -5.488449 -0.08727777 -0.03702087 -0.9954959 192 192 192 255 0.099699 0.809476
-144.4877 56.25604 5.56987 -0.06196093 -0.0130006 0.9979939 192 192 192 255 0.099871 0.809196
-131.8268 25.94561 -5.488449 0.4512014 0.1332029 -0.8824252 192 192 192 255 0.110353 0.59745
-132.0421 25.85596 5.569916 0.5237167 0.2091593 0.8258167 192 192 192 255 0.109676 0.785247
-144.6675 25.65195 5.569916 -0.4265249 0.1433846 0.8930383 192 192 192 255 0.09973 0.785087
-144.3302 25.90056 -5.488449 -0.4819807 0.2193137 -0.8482901 192 192 192 255 0.098958 0.597409
-125 15.17432 -5.488449 3.040832e-07 0.0007125717 -0.9999998 192 192 192 255 0.116574 0.587634
-125 15.17432 5.569916 -0.0005541942 0.1248858 0.992171 192 192 192 255 0.115224 0.776832
-158.6725 24.28666 5.569916 0.5422462 0.1658178 0.823695 192 192 192 255 0.088697 0.784011
-158.6563 26.05696 -5.488449 0.3525959 0.1389802 -0.9253976 192 192 192 255 0.085902 0.597552
-171.1844 23.9162 5.569916 -0.3996068 0.1268774 0.9078637 192 192 192 255 0.07884 0.783719
-170.9855 24.14197 -5.488449 -0.4441736 0.2025437 -0.8727462 192 192 192 255 0.074666 0.595806
-151.5499 15.60606 -5.488449 0.003741578 0.1456848 -0.989324 192 192 192 255 0.092379 0.587634
-151.5499 15.72891 5.569916 -0.007438092 0.1468541 0.9891302 192 192 192 255 0.094308 0.776832
-185.2815 25.97723 5.569916 0.3429715 0.04272667 0.9383736 192 192 192 255 0.067734 0.785343
-185.0819 27.72877 -5.488449 0.3738784 0.1438494 -0.9162545 192 192 192 255 0.061819 0.599075
-197.7782 25.93979 5.569916 -0.02842139 0.008146116 0.9995629 192 192 192 255 0.057889 0.785313
-197.433 26.2625 -5.488449 -0.5063854 0.2149977 -0.8350748 192 192 192 255 0.050563 0.597739
-178.0997 15.46317 -5.488449 0.02364158 0.1425198 -0.9895096 192 192 192 255 0.068183 0.587897
-178.0997 15.17432 5.569916 0.001038938 0.01183765 0.9999294 192 192 192 255 0.073392 0.776832
-204.6497 15.60606 -5.488449 -6.303127e-05 0.02048293 -0.9997902 192 192 192 255 0.043987 0.587634
-204.6497 14.09583 5.569916 -0.0001555953 0.006929184 0.999976 192 192 192 255 0.052476 0.775517
0 1.5e-05 8.725494 0.6666367 -0.3333733 0.6666766 192 192 192 255 0.213699 0.764878
-0.000366 9.40028 5.569809 0.01471315 0.003258232 0.9998865 192 192 192 255 0.213699 0.772284
0 0 -8.644012 0.4082397 -0.8165178 -0.4082146 192 192 192 255 0.213699 0.764878
0.002136 9.399178 -5.488449 0.001348507 0.001199178 -0.9999984 192 192 192 255 0.2137 0.772283
0.208984 75.21707 -8.644012 0.9972665 -0.01584367 -0.07217015 192 192 192 255 0.213863 0.824134
0.206055 71.45815 -5.485397 0.01686547 -0.003760995 -0.9998507 192 192 192 255 0.213861 0.821173
-0.017517 71.51744 5.569855 0.008426392 -0.007759317 0.9999344 192 192 192 255 0.213685 0.821219
-0.017761 75.33035 8.725372 0.9993228 -0.03324407 0.0157715 192 192 192 255 0.213685 0.824223
-0.017579 72.85739 8.725372 0.8368244 -0.1927837 0.5124056 192 192 192 255 0.213685 0.822275
0.206802 72.78432 -8.640442 0.6183379 -0.5696152 -0.5414765 192 192 192 255 0.213862 0.822218
0.001769 7.783703 -8.644012 0.8373403 0.1862554 -0.5139748 192 192 192 255 0.2137 0.77101
-0.000303 7.784619 8.725342 0.6079285 0.5410705 0.5810902 192 192 192 255 0.213699 0.771011
-15.25224 27.28192 0.040726 -0.9398309 0.2629866 -0.2180732 192 192 192 255 0.216592 0.598668
-18.63738 21.87279 0.040726 -0.002511384 0.9995488 0.02993277 192 192 192 255 0.213507 0.593739
-22.24384 27.02738 0.040726 0.938152 0.2610504 0.2274281 192 192 192 255 0.21022 0.598436
-22.21398 55.34621 0.04071 0.9590349 -0.2832873 -0.0005993709 192 192 192 255 0.210247 0.624244
-18.80048 60.52282 0.040695 -0.01262544 -0.9999052 -0.005492921 192 192 192 255 0.213358 0.628962
-15.59342 55.50217 0.04071 -0.9587814 -0.2841015 -0.004954692 192 192 192 255 0.216281 0.624386
-41.86436 27.07688 0.040726 -0.9612923 0.2337291 -0.1459041 192 192 192 255 0.192339 0.598481
-42.21226 55.3859 0.04071 -0.9537377 -0.3000677 -0.01854018 192 192 192 255 0.192022 0.62428
-45.35035 60.52282 0.040695 -0.03082527 -0.9969574 -0.07159429 192 192 192 255 0.189162 0.628962
-48.87988 55.15219 0.04071 0.9513018 -0.3080804 -0.01055501 192 192 192 255 0.185946 0.624067
-48.7054 27.28387 0.040726 0.8540258 0.0147332 0.5200219 192 192 192 255 0.186105 0.59867
-45.25945 22.16398 0.040726 -0.01461724 0.9996853 -0.02038854 192 192 192 255 0.189245 0.594004
-68.5578 28.83274 0.040726 -0.9702971 0.2016284 -0.1336772 192 192 192 255 0.168012 0.600081
-68.62606 55.12881 0.04071 -0.959416 -0.2819363 0.005737931 192 192 192 255 0.16795 0.624046
-71.90026 60.52282 0.040695 0.02078285 -0.9997576 0.00726148 192 192 192 255 0.164966 0.628962
-75.06217 55.45846 0.04071 0.9278463 -0.2876461 0.2374051 192 192 192 255 0.162085 0.624346
-75.37785 26.99516 0.040726 0.9519504 0.262437 0.1578524 192 192 192 255 0.161797 0.598407
-71.94263 21.99658 0.040726 -0.02622314 0.9996506 -0.003332869 192 192 192 255 0.164928 0.593851
-95.19501 26.92828 0.040726 -0.9534168 0.2518586 0.1660233 192 192 192 255 0.143737 0.598346
-94.96762 55.34491 0.04071 -0.9523403 -0.3044612 0.01874339 192 192 192 255 0.143944 0.624243
-98.45013 61.56276 0.040695 0.002669138 -0.9999741 -0.006692612 192 192 192 255 0.14077 0.62991
-101.5983 55.35821 0.04071 0.833123 -0.01372013 -0.5529175 192 192 192 255 0.137901 0.624255
-101.8425 27.20301 0.040726 0.8314362 -0.003285155 -0.5556107 192 192 192 255 0.137679 0.598596
-98.57659 22.07229 0.040726 0.01207828 0.9999269 -0.0006214155 192 192 192 255 0.140655 0.59392
-121.7881 27.20802 0.040726 -0.9692292 0.2106286 -0.1273993 192 192 192 255 0.119502 0.598601
-121.779 55.46193 0.04071 -0.9587855 -0.2838613 0.01237457 192 192 192 255 0.11951 0.62435
-125 60.52282 0.040695 -0.007341992 -0.9999731 -3.654715e-05 192 192 192 255 0.116574 0.628962
-128.5401 55.17456 0.04071 0.9267544 -0.301734 0.2237922 192 192 192 255 0.113348 0.624088
-128.383 26.96277 0.040726 0.9625521 0.2286528 0.145641 192 192 192 255 0.113491 0.598377
-125 20.69874 0.040726 -0.002014001 0.999884 0.01509848 192 192 192 255 0.116574 0.592669
-147.9926 27.19406 0.040726 -0.9560086 0.2515265 -0.1509372 192 192 192 255 0.09562 0.598588
-148.2162 55.15873 0.04071 -0.9535069 -0.3013676 -0.00147442 192 192 192 255 0.095417 0.624073
-154.9219 28.57817 0.040726 0.9667858 0.2230457 -0.1248036 192 192 192 255 0.089306 0.599849
-151.6378 22.72587 0.040726 -0.01277647 0.9996027 0.02512592 192 192 192 255 0.092298 0.594516
-174.9564 27.77566 0.040726 -0.9591067 0.2393475 -0.1510863 192 192 192 255 0.071047 0.599118
-181.3162 27.34289 0.040726 0.8384408 0.0120878 0.5448588 192 192 192 255 0.065251 0.598724
-178.2844 22.97456 0.040726 0.1257158 0.9910591 0.04469342 192 192 192 255 0.068014 0.594743
-201.273 26.9352 0.040726 -0.9638053 0.2253643 -0.1424446 192 192 192 255 0.047064 0.598352
-204.6496 21.94947 0.040726 -0.01227896 0.9991258 0.03995962 192 192 192 255 0.043987 0.593808
-132.669 50.29594 -5.488449 0.4619828 -0.005929053 -0.8868691 192 192 192 255 0.109585 0.619642
-132.5698 49.67255 5.569885 0.4638064 -0.007191441 0.8859075 192 192 192 255 0.10926 0.80401
-144.0736 38.45162 5.569885 -0.4672851 0.001967242 0.8841045 192 192 192 255 0.100198 0.79517
-144.0516 39.19324 -5.488449 -0.4644737 -0.003086727 -0.8855816 192 192 192 255 0.099212 0.609523
-128.5245 52.36774 0.04071 0.9735773 -0.01336398 -0.2279666 192 192 192 255 0.113362 0.62153
-148.067 36.50643 0.040726 -0.9755396 0.0005858462 0.2198229 192 192 192 255 0.095553 0.607075
-55.00372 44.32151 5.569885 0.253452 0.001432066 0.9673469 192 192 192 255 0.170367 0.799795
-50.76105 40.15789 3.169983 0.6450872 0.003644727 0.7641003 192 192 192 255 0.184231 0.610402
-188.4828 34.16883 5.569901 0.1336331 0.04907778 0.9898149 192 192 192 255 0.065212 0.791796
-183.5865 34.68529 3.251968 0.6540531 0.07102693 0.7531068 192 192 192 255 0.063182 0.605415
-79.54819 34.56689 -5.488449 0.4604284 0.00668956 -0.8876716 192 192 192 255 0.158692 0.606041
-79.88954 34.39162 5.569901 0.4474738 0.005359538 0.894281 192 192 192 255 0.151455 0.791972
-90.74242 46.71161 -5.488449 -0.3014263 -0.002087372 -0.9534872 192 192 192 255 0.147099 0.615642
-90.48273 44.62205 5.569885 -0.5889333 -0.006807474 0.808153 192 192 192 255 0.141723 0.800031
-75.32321 31.92206 0.040726 0.9751666 0.01334979 -0.2210701 192 192 192 255 0.161847 0.602897
-95.0245 48.23749 0.04071 -0.9745483 -0.008236161 -0.2240262 192 192 192 255 0.143892 0.617766
-108.7901 39.0792 -5.488449 0.2047713 -0.002384945 -0.978807 192 192 192 255 0.127994 0.795665
-103.7295 39.45018 -2.877045 0.7101715 -0.007252185 -0.7039914 192 192 192 255 0.135959 0.609757
-197.4472 29.22347 -5.488449 -0.5747473 0.7062679 -0.4133415 192 192 192 255 0.050548 0.600438
-28.86005 86.80939 13.74911 -0.1427171 0.8725013 0.4673043 192 192 192 255 0.190963 0.833266
-97.93118 86.80939 13.74911 0.00928117 0.9947726 0.1016927 192 192 192 255 0.136549 0.833266
-44.47833 86.80939 8.824371 0 0.9983056 0.05818923 192 192 192 255 0.178659 0.833266
-52.77312 82.86465 13.74911 0 0.270965 0.9625892 192 192 192 255 0.172124 0.830159
-121.6444 86.80939 -13.74911 -0.003640807 0.9991412 -0.0412757 192 192 192 255 0.117867 0.833266
-206.3337 24.30541 0.040726 -0.9191417 0.3883243 0.06620353 192 192 192 255 0.042452 0.595955
-208.1117 20.72654 -5.488449 -0.916888 0.3416539 -0.2063714 192 192 192 255 0.040831 0.592497
-210.8398 14.30733 5.569916 -0.9343272 0.2863817 0.2121753 192 192 192 255 0.047599 0.776014
-207.8368 19.48002 5.569916 -0.8360626 0.4267106 0.3448441 192 192 192 255 0.041082 0.591261
-210.1456 11.82411 -5.488449 -0.9012677 0.290449 -0.3214903 192 192 192 255 0.048146 0.774041
-223.0517 1.5e-05 8.725494 -0.8782603 0.4413294 -0.1840852 192 192 192 255 0.037979 0.764878
-218.4166 0 -8.644012 -0.9031319 0.3459083 -0.2543624 192 192 192 255 0.04163 0.764878
-211.0699 11.19849 5.569916 -0.5714657 0.5677558 0.5925204 192 192 192 255 0.047418 0.773693
-212.5336 9.40003 -5.488449 -0.05160761 0.09628213 -0.9940153 192 192 192 255 0.046265 0.772306
-215.7354 9.400208 5.569916 -0.454861 0.8856589 -0.09332732 192 192 192 255 0.043742 0.772282
-218.1522 7.784558 8.725464 -0.8021737 0.5856983 -0.1160811 192 192 192 255 0.041838 0.771011
-215.3775 7.784412 -8.644012 -0.8144851 0.5521111 -0.1782904 192 192 192 255 0.044024 0.771013
-120.9228 86.80939 13.74911 -0.3911589 0.7499807 0.5334074 192 192 192 255 0.121276 0.826887
-124.2059 75.34485 13.74911 -0.05509495 0.01386431 0.9983849 192 192 192 255 0.115849 0.824235
-133.6091 75.33035 8.725372 -0.5976711 0.2963861 0.744946 192 192 192 255 0.108442 0.824223
-134.5523 75.34485 -13.74911 -0.2437787 -0.07495987 -0.9669297 192 192 192 255 0.107698 0.824235
-137.3732 85.15577 -13.74911 -0.5458663 0.4933975 -0.677192 192 192 192 255 0.105476 0.831964
-146.5453 59.36687 -5.488449 -0.1454357 0.04179902 -0.9884844 192 192 192 255 0.09825 0.811763
-149.1278 56.5472 0.04071 -0.9133446 0.3936186 0.1042413 192 192 192 255 0.094586 0.625339
-146.8438 59.74256 5.56987 -0.7179262 0.3180252 0.619227 192 192 192 255 0.098015 0.812099
-142.9532 67.89738 5.569855 -0.8086585 0.3796747 0.4493535 192 192 192 255 0.10108 0.818368
-138.2807 71.49139 5.569855 -0.7043956 0.3238539 0.6316213 192 192 192 255 0.104761 0.821199
-134.7981 72.83813 8.725372 -0.6552787 0.159288 0.7384018 192 192 192 255 0.107505 0.82226
-138.4557 75.21707 -8.644012 -0.9761008 -0.009233309 -0.217122 192 192 192 255 0.104623 0.824134
-144.4619 67.91902 -5.488052 -0.1033671 0.04911003 -0.9934302 192 192 192 255 0.099892 0.818385
-139.8619 71.36024 -5.485703 -0.8778123 -0.0663873 -0.474382 192 192 192 255 0.103516 0.821096
-138.2257 72.7115 -8.640793 -0.7485034 -0.1567409 -0.6443408 192 192 192 255 0.104804 0.82216
-136.4642 86.80939 -3.854965 -0.5901373 0.803511 -0.07815394 192 192 192 255 0.105874 0.836291
-134.4331 86.80939 1.911423 -0.4121492 0.7984934 0.4387954 192 192 192 255 0.109502 0.837203
-181.2815 45.59259 0.040726 -0.5858796 0.7245145 -0.3630756 192 192 192 255 0.065283 0.615355
-185.0988 39.35772 -5.488449 -0.5840607 0.7020537 -0.4074232 192 192 192 255 0.061805 0.609673
-197.6665 30.06605 5.569901 -0.7254599 0.5609099 0.3988584 192 192 192 255 0.050351 0.601205
-187.0658 43.6278 5.569885 -0.6957795 0.7158911 -0.05823183 192 192 192 255 0.066328 0.799248
-184.3452 45.13643 4.36998 -0.6054464 0.7254585 -0.3273296 192 192 192 255 0.062491 0.61494
-201.2778 29.23341 0.040726 -0.7025087 0.708663 -0.0654089 192 192 192 255 0.047059 0.600447
-155.0791 49.87619 0.04071 0.8721369 0.3471744 0.3447423 192 192 192 255 0.089162 0.619259
-158.5712 51.06414 -5.488449 0.02627644 0.8696076 -0.4930438 192 192 192 255 0.08598 0.620342
-174.6756 41.42815 0.04071 -0.600104 0.7801961 0.1765486 192 192 192 255 0.071303 0.61156
-171.0925 42.52551 -5.488449 -0.5353634 0.1918497 -0.8225448 192 192 192 255 0.074569 0.61256
-171.1717 42.64707 5.569885 -0.4014625 0.8442503 0.3550624 192 192 192 255 0.074497 0.612671
-158.5549 46.72983 5.56987 -0.2644575 0.8489379 0.4575662 192 192 192 255 0.088789 0.801692
-141.8512 68.87998 -0.37149 -0.9023607 0.4254843 -0.06861763 192 192 192 255 0.272513 0.832327
-138.4514 75.05436 -2.308685 -0.8864628 0.451258 0.1027127 192 192 192 255 0.274782 0.839558
-166.7933 47.24865 -0.674301 -0.3987187 0.8504764 0.3430938 192 192 192 255 0.342296 0.849793
-143.7194 64.66842 0.12326 -0.9156774 0.393826 -0.08022507 192 192 192 255 0.271933 0.827394
-11.98668 56.60836 5.56987 -0.009655975 -0.003883584 0.9999459 192 192 192 255 0.204256 0.809474
-18.80048 67.29797 5.569855 0.002940378 -0.005806284 0.9999788 192 192 192 255 0.198888 0.817895
-25.73591 26.66418 5.569916 0.3521205 0.09368096 0.9312546 192 192 192 255 0.193424 0.785884
-25.9367 56.34258 5.56987 0.5422409 -0.1030047 0.8338854 192 192 192 255 0.193266 0.809265
-38.11863 26.2206 -5.488449 -0.3571628 0.1515027 -0.9216734 192 192 192 255 0.183669 0.785535
-38.13099 56.28939 -5.488449 -0.4415337 -0.09079678 -0.8926387 192 192 192 255 0.183659 0.809223
-52.25985 56.39575 -5.488449 0.4346486 -0.1825681 -0.8819011 192 192 192 255 0.172528 0.809307
-52.23016 24.85956 -5.488449 0.4904138 0.1527663 -0.8579958 192 192 192 255 0.172552 0.784462
-65.10548 26.25201 -5.488449 -0.4290916 0.1546132 -0.8899299 192 192 192 255 0.162409 0.785559
-64.78124 56.60042 -5.488449 -0.4489083 -0.08330756 -0.889686 192 192 192 255 0.162664 0.809468
-78.76539 56.53451 -5.488449 0.4918272 -0.1509662 -0.8575053 192 192 192 255 0.151647 0.809416
-79.54819 34.56689 -5.488449 0.4604284 0.00668956 -0.8876716 192 192 192 255 0.151632 0.792744
-90.74242 46.71161 -5.488449 -0.3014263 -0.002087372 -0.9534872 192 192 192 255 0.141611 0.801043
-91.44475 56.29048 -5.488449 -0.4521961 -0.09906415 -0.8864 192 192 192 255 0.141659 0.809224
-118.202 56.63171 -5.488449 -0.01034835 -0.001982183 -0.9999445 192 192 192 255 0.120579 0.809492
-105.7006 26.18303 -5.488449 0.6582066 0.0508238 -0.7511199 192 192 192 255 0.130428 0.785505
-118.0097 26.22731 -5.488449 -0.534167 0.1984147 -0.8217647 192 192 192 255 0.120731 0.78554
-132.2452 56.42375 -5.488449 0.4278849 -0.1407534 -0.8928062 192 192 192 255 0.109516 0.809329
-132.669 50.29594 -5.488449 0.4619828 -0.005929053 -0.8868691 192 192 192 255 0.109182 0.804501
-144.0516 39.19324 -5.488449 -0.4644737 -0.003086727 -0.8855816 192 192 192 255 0.100215 0.795754
-45.35034 66.49642 -5.488449 -0.1003027 -0.207398 -0.973101 192 192 192 255 0.177972 0.817486
-71.90027 67.29797 -5.488449 -0.0982946 -0.1945995 -0.9759453 192 192 192 255 0.157056 0.817895
-98.45013 67.01015 -5.488449 -0.1099232 -0.2023012 -0.9731347 192 192 192 255 0.13614 0.817895
-105.3488 56.38717 -5.488449 0.345658 -0.02689637 -0.937975 192 192 192 255 0.130705 0.8093
-125 67.29797 -5.488449 -0.1227556 -0.230716 -0.9652467 192 192 192 255 0.115224 0.817895
-18.80048 13.44066 5.569916 0.002704827 0.00459427 0.9999858 192 192 192 255 0.198888 0.775467
-204.6497 15.60606 -5.488449 -6.303127e-05 0.02048293 -0.9997902 192 192 192 255 0.052476 0.776832
-197.433 26.2625 -5.488449 -0.5063854 0.2149977 -0.8350748 192 192 192 255 0.058161 0.785568
-185.0819 27.72877 -5.488449 0.3738784 0.1438494 -0.9162545 192 192 192 255 0.067891 0.786723
-178.0997 15.46317 -5.488449 0.02364158 0.1425198 -0.9895096 192 192 192 255 0.073392 0.77706
-170.9855 24.14197 -5.488449 -0.4441736 0.2025437 -0.8727462 192 192 192 255 0.078996 0.783897
-158.6563 26.05696 -5.488449 0.3525959 0.1389802 -0.9253976 192 192 192 255 0.088709 0.785406
-151.5499 15.60606 -5.488449 0.003741578 0.1456848 -0.989324 192 192 192 255 0.094308 0.776832
-144.3302 25.90056 -5.488449 -0.4819807 0.2193137 -0.8482901 192 192 192 255 0.099995 0.785283
-131.8268 25.94561 -5.488449 0.4512014 0.1332029 -0.8824252 192 192 192 255 0.109846 0.785318
-125 15.17432 -5.488449 3.040832e-07 0.0007125717 -0.9999998 192 192 192 255 0.115224 0.776832
-98.45013 15.46214 -5.488449 -0.0003176095 0.1496095 -0.9887452 192 192 192 255 0.13614 0.776832
-91.62289 25.98792 -5.488449 -0.5684865 0.181762 -0.8023626 192 192 192 255 0.141518 0.785351
-78.79355 25.85212 -5.488449 0.4356125 0.143843 -0.8885668 192 192 192 255 0.151625 0.785244
-71.90027 15.17432 -5.488449 -0.002294075 0.1403194 -0.9901037 192 192 192 255 0.157056 0.776832
-45.35034 15.46214 -5.488449 -0.007289508 0.1785395 -0.9839057 192 192 192 255 0.177972 0.776832
-11.80487 25.95003 5.569916 -0.01163515 0.003021444 0.9999278 192 192 192 255 0.204399 0.785322
-18.80048 15.26601 -5.488449 -0.00279978 0.005424706 -0.9999814 192 192 192 255 0.213358 0.587718
-11.55042 26.24995 -5.488449 -0.006129288 0.001777234 -0.9999797 192 192 192 255 0.219682 0.597728
-25.70366 26.06327 -5.488449 0.5821024 0.1763647 -0.7937583 192 192 192 255 0.207067 0.597557
-26.0202 56.37288 -5.488449 0.4226539 -0.1731826 -0.8895907 192 192 192 255 0.206779 0.62518
-18.80048 67.29797 -5.488449 -0.002901316 -0.005639039 -0.9999799 192 192 192 255 0.213358 0.635136
-11.99243 56.59473 -5.488449 -0.009943122 -0.001913547 -0.9999487 192 192 192 255 0.219563 0.625382
-38.10513 25.91637 5.569916 -0.490958 0.1540538 0.8574542 192 192 192 255 0.195765 0.597424
-38.30079 54.74277 5.56987 -0.3862095 -0.1640965 0.9076974 192 192 192 255 0.195587 0.623694
-45.35034 65.21776 5.569855 0.1119827 -0.2680932 0.9568626 192 192 192 255 0.189162 0.63324
-52.37386 56.45873 5.56987 0.1442823 -0.0312194 0.989044 192 192 192 255 0.182762 0.625258
-52.20131 25.89305 5.569916 0.7140805 0.04764458 0.6984405 192 192 192 255 0.182919 0.597402
-45.35034 15.72891 5.569916 0.001724784 0.1528235 0.988252 192 192 192 255 0.189162 0.587634
-64.73607 27.29714 5.569916 -0.5017566 0.1308793 0.8550503 192 192 192 255 0.171495 0.598682
-64.70805 56.57585 5.56987 -0.01416479 -0.005763568 0.9998831 192 192 192 255 0.171521 0.625365
-71.90027 67.29797 5.569855 0.107065 -0.1952288 0.9748963 192 192 192 255 0.164966 0.635136
-78.73299 56.42331 5.56987 0.3395577 -0.1057896 0.9346171 192 192 192 255 0.158739 0.625226
-79.88954 34.39162 5.569901 0.4474738 0.005359538 0.894281 192 192 192 255 0.158488 0.605147
-79.11278 26.15092 5.569916 0.4968143 0.2198161 0.8395573 192 192 192 255 0.158393 0.597637
-71.90027 15.17432 5.569916 -0.005068314 0.1402813 0.9900988 192 192 192 255 0.164966 0.587634
-90.48273 44.62205 5.569885 -0.5889333 -0.006807474 0.808153 192 192 192 255 0.147229 0.614471
-91.4147 56.35748 5.56987 -0.4379181 -0.1863193 0.8794959 192 192 192 255 0.147182 0.625166
-98.45013 66.70667 5.569855 0.1095017 -0.2043679 0.9727503 192 192 192 255 0.14077 0.635136
-105.5454 56.2637 5.56987 0.4533324 -0.0875578 0.8870307 192 192 192 255 0.134304 0.62508
-105.5744 26.22625 5.569916 0.4251316 0.177589 0.8875389 192 192 192 255 0.134278 0.597706
-98.45013 15.72891 5.569916 0.003966096 0.152479 0.9882988 192 192 192 255 0.14077 0.587634
-91.2804 25.94274 5.569916 -0.3460176 0.1561079 0.9251498 192 192 192 255 0.147304 0.597448
-117.8411 26.20238 5.569916 -0.5081961 0.1419899 0.8494561 192 192 192 255 0.123099 0.597684
-117.9296 56.50979 5.56987 -0.4187964 -0.1714063 0.8917564 192 192 192 255 0.123018 0.625305
-125 67.29797 5.569855 0.1020683 -0.1992016 0.9746286 192 192 192 255 0.116574 0.635136
-132.1331 56.3478 5.56987 0.3442723 -0.111512 0.9322241 192 192 192 255 0.110074 0.625157
-132.5698 49.67255 5.569885 0.4638064 -0.007191441 0.8859075 192 192 192 255 0.109676 0.619074
-132.0421 25.85596 5.569916 0.5237167 0.2091593 0.8258167 192 192 192 255 0.110157 0.597369
-125 15.17432 5.569916 -0.0005541942 0.1248858 0.992171 192 192 192 255 0.116574 0.587634
-144.6675 25.65195 5.569916 -0.4265249 0.1433846 0.8930383 192 192 192 255 0.098651 0.597183
-144.0736 38.45162 5.569885 -0.4672851 0.001967242 0.8841045 192 192 192 255 0.099192 0.608847
-158.6725 24.28666 5.569916 0.5422462 0.1658178 0.823695 192 192 192 255 0.085887 0.595938
-151.5499 15.72891 5.569916 -0.007438092 0.1468541 0.9891302 192 192 192 255 0.092379 0.587634
-171.1844 23.9162 5.569916 -0.3996068 0.1268774 0.9078637 192 192 192 255 0.074485 0.595601
-185.2815 25.97723 5.569916 0.3429715 0.04272667 0.9383736 192 192 192 255 0.061638 0.597479
-178.0997 15.17432 5.569916 0.001038938 0.01183765 0.9999294 192 192 192 255 0.068183 0.587634
-197.7782 25.93979 5.569916 -0.02842139 0.008146116 0.9995629 192 192 192 255 0.050249 0.597445
-204.6497 14.09583 5.569916 -0.0001555953 0.006929184 0.999976 192 192 192 255 0.043987 0.586112
-144.7065 56.61137 -5.488449 -0.08727777 -0.03702087 -0.9954959 192 192 192 255 0.098615 0.625397
-144.4877 56.25604 5.56987 -0.06196093 -0.0130006 0.9979939 192 192 192 255 0.098815 0.625073
-55.00372 44.32151 5.569885 0.253452 0.001432066 0.9673469 192 192 192 255 0.180365 0.614197
-188.4828 34.16883 5.569901 0.1336331 0.04907778 0.9898149 192 192 192 255 0.05872 0.604944
-108.7901 39.0792 -5.488449 0.2047713 -0.002384945 -0.978807 192 192 192 255 0.133337 0.609396
-44.47833 86.80939 8.824371 0 0.9983056 0.05818923 192 192 192 255 0.187894 0.831178
-0.010498 86.80939 -13.74911 0.02166728 0.9997644 -0.00128524 192 192 192 255 0.226646 0.85085
-121.6444 86.80939 -13.74911 -0.003640807 0.9991412 -0.0412757 192 192 192 255 0.120647 0.85085
-97.93118 86.80939 13.74911 0.00928117 0.9947726 0.1016927 192 192 192 255 0.141312 0.826887
-136.4642 86.80939 -3.854965 -0.5901373 0.803511 -0.07815394 192 192 192 255 0.107732 0.842228
-0.012207 86.80939 13.74911 0.9993013 0.03399205 0.01554157 192 192 192 255 0.226644 0.826887
-28.86005 86.80939 13.74911 -0.1427171 0.8725013 0.4673043 192 192 192 255 0.201505 0.826887
-207.8368 19.48002 5.569916 -0.8360626 0.4267106 0.3448441 192 192 192 255 0.049965 0.779968
-208.1117 20.72654 -5.488449 -0.916888 0.3416539 -0.2063714 192 192 192 255 0.049748 0.781036
-146.5453 59.36687 -5.488449 -0.1454357 0.04179902 -0.9884844 192 192 192 255 0.096939 0.628013
-146.8438 59.74256 5.56987 -0.7179262 0.3180252 0.619227 192 192 192 255 0.096667 0.62843
-197.6665 30.06605 5.569901 -0.7254599 0.5609099 0.3988584 192 192 192 255 0.057977 0.788564
-187.0658 43.6278 5.569885 -0.6957795 0.7158911 -0.05823183 192 192 192 255 0.060011 0.613565
-197.4472 29.22347 -5.488449 -0.5747473 0.7062679 -0.4133415 192 192 192 255 0.05815 0.7879
-185.0988 39.35772 -5.488449 -0.5840607 0.7020537 -0.4074232 192 192 192 255 0.067878 0.795884
-171.1717 42.64707 5.569885 -0.4014625 0.8442503 0.3550624 192 192 192 255 0.07885 0.798475
-171.0925 42.52551 -5.488449 -0.5353634 0.1918497 -0.8225448 192 192 192 255 0.078912 0.79838
-158.5712 51.06414 -5.488449 0.02627644 0.8696076 -0.4930438 192 192 192 255 0.088776 0.805106
-158.5549 46.72983 5.56987 -0.2644575 0.8489379 0.4575662 192 192 192 255 0.085994 0.616392
-210.8398 14.30733 5.569916 -0.9343272 0.2863817 0.2121753 192 192 192 255 0.265554 0.76841
-210.1456 11.82411 -5.488449 -0.9012677 0.290449 -0.3214903 192 192 192 255 0.278506 0.765501
-211.0699 11.19849 5.569916 -0.5714657 0.5677558 0.5925204 192 192 192 255 0.265554 0.764768
-133.6091 75.33035 8.725372 -0.5976711 0.2963861 0.744946 192 192 192 255 0.261858 0.839882
-134.4331 86.80939 1.911423 -0.4121492 0.7984934 0.4387954 192 192 192 255 0.269839 0.853326
-138.2807 71.49139 5.569855 -0.7043956 0.3238539 0.6316213 192 192 192 255 0.265554 0.835385
-187.0658 43.6278 5.569885 -0.6957795 0.7158911 -0.05823183 192 192 192 255 0.317472 0.842147
-197.4472 29.22347 -5.488449 -0.5747473 0.7062679 -0.4133415 192 192 192 255 0.30476 0.855689
-201.2778 29.23341 0.040726 -0.7025087 0.708663 -0.0654089 192 192 192 255 0.300069 0.848918
-174.6756 41.42815 0.04071 -0.600104 0.7801961 0.1765486 192 192 192 255 0.332644 0.848918
-171.1717 42.64707 5.569885 -0.4014625 0.8442503 0.3550624 192 192 192 255 0.336935 0.842147
-142.9532 67.89738 5.569855 -0.8086585 0.3796747 0.4493535 192 192 192 255 0.265554 0.831176
-134.7981 72.83813 8.725372 -0.6552787 0.159288 0.7384018 192 192 192 255 0.261858 0.836963
-124.2059 75.34485 13.74911 -0.05509495 0.01386431 0.9983849 192 192 192 255 0.2537 0.842371
-120.9228 86.80939 13.74911 -0.3911589 0.7499807 0.5334074 192 192 192 255 0.255974 0.853326
-149.1278 56.5472 0.04071 -0.9133446 0.3936186 0.1042413 192 192 192 255 0.27203 0.817882
-146.8438 59.74256 5.56987 -0.7179262 0.3180252 0.619227 192 192 192 255 0.265554 0.821625
-146.5453 59.36687 -5.488449 -0.1454357 0.04179902 -0.9884844 192 192 192 255 0.278506 0.821185
-136.4642 86.80939 -3.854965 -0.5901373 0.803511 -0.07815394 192 192 192 255 0.276593 0.853326
-138.4557 75.21707 -8.644012 -0.9761008 -0.009233309 -0.217122 192 192 192 255 0.282202 0.839749
-137.3732 85.15577 -13.74911 -0.5458663 0.4933975 -0.677192 192 192 192 255 0.288181 0.851389
-134.5523 75.34485 -13.74911 -0.2437787 -0.07495987 -0.9669297 192 192 192 255 0.287522 0.840791
-139.8619 71.36024 -5.485703 -0.8778123 -0.0663873 -0.474382 192 192 192 255 0.278503 0.835232
-138.2257 72.7115 -8.640793 -0.7485034 -0.1567409 -0.6443408 192 192 192 255 0.282198 0.836814
-144.4619 67.91902 -5.488052 -0.1033671 0.04911003 -0.9934302 192 192 192 255 0.278506 0.831201
-158.5549 46.72983 5.56987 -0.2644575 0.8489379 0.4575662 192 192 192 255 0.352384 0.842147
-158.5712 51.06414 -5.488449 0.02627644 0.8696076 -0.4930438 192 192 192 255 0.352365 0.855689
-171.0925 42.52551 -5.488449 -0.5353634 0.1918497 -0.8225448 192 192 192 255 0.337032 0.855689
-185.0988 39.35772 -5.488449 -0.5840607 0.7020537 -0.4074232 192 192 192 255 0.319881 0.855689
-184.3452 45.13643 4.36998 -0.6054464 0.7254585 -0.3273296 192 192 192 255 0.320804 0.843617
-181.2815 45.59259 0.040726 -0.5858796 0.7245145 -0.3630756 192 192 192 255 0.324555 0.848918
-197.6665 30.06605 5.569901 -0.7254599 0.5609099 0.3988584 192 192 192 255 0.304491 0.842147
-208.1117 20.72654 -5.488449 -0.916888 0.3416539 -0.2063714 192 192 192 255 0.278506 0.775928
-212.5336 9.40003 -5.488449 -0.05160761 0.09628213 -0.9940153 192 192 192 255 0.278506 0.762662
-215.7354 9.400208 5.569916 -0.454861 0.8856589 -0.09332732 192 192 192 255 0.265554 0.762662
-215.3775 7.784412 -8.644012 -0.814485 0.552111 -0.1782904 192 192 192 255 0.282202 0.76077
-218.1522 7.784558 8.725464 -0.8021737 0.5856983 -0.1160811 192 192 192 255 0.261858 0.76077
-223.0517 1.5e-05 8.725494 -0.8782603 0.4413294 -0.1840852 192 192 192 255 0.261858 0.751652
-218.4166 0 -8.644012 -0.9031319 0.3459083 -0.2543624 192 192 192 255 0.282202 0.751653
-207.8368 19.48002 5.569916 -0.8360626 0.4267106 0.3448441 192 192 192 255 0.265554 0.774468
-206.3337 24.30541 0.040726 -0.9191417 0.3883243 0.06620353 192 192 192 255 0.27203 0.78012
-155.0791 49.87619 0.04071 0.8721369 0.3471744 0.3447423 192 192 192 255 0.356641 0.848918
-120.9228 86.80939 13.74911 -0.3911589 0.7499807 0.5334074 192 192 192 255 0.118436 0.833266
3 95 1 6 
3 95 6 94 
3 2 3 100 
3 2 100 101 
3 102 103 10 
3 102 10 11 
3 96 97 14 
3 96 14 15 
3 101 102 11 
3 101 11 2 
3 99 94 6 
3 99 6 17 
3 20 14 97 
3 20 97 98 
3 17 20 98 
3 17 98 99 
3 96 15 1 
3 96 1 95 
3 107 108 26 
3 107 26 27 
3 28 10 103 
3 28 103 104 
3 108 109 31 
3 108 31 26 
3 105 100 3 
3 105 3 34 
3 27 32 106 
3 27 106 107 
3 28 104 105 
3 28 105 34 
3 155 170 23 
3 152 155 23 
3 152 23 22 
3 113 114 38 
3 113 38 39 
3 40 143 147 
3 40 147 110 
3 114 115 43 
3 114 43 38 
3 111 106 32 
3 111 32 46 
3 39 145 148 
3 39 148 113 
3 40 110 111 
3 40 111 46 
3 173 156 172 
3 18 172 156 
3 18 156 19 
3 119 120 50 
3 119 50 51 
3 52 150 116 
3 120 121 55 
3 120 55 50 
3 117 112 44 
3 117 44 58 
3 51 56 118 
3 51 118 119 
3 52 116 117 
3 52 117 58 
3 62 133 137 
3 62 137 122 
3 123 118 56 
3 123 56 66 
3 124 138 136 
3 124 136 65 
3 62 122 123 
3 62 123 66 
3 127 124 65 
3 127 65 72 
3 128 194 195 
3 128 195 71 
3 69 126 127 
3 69 127 72 
3 130 128 71 
3 130 71 78 
3 75 129 130 
3 75 130 78 
3 132 131 77 
3 132 77 80 
3 202 88 203 
3 61 135 134 
3 61 134 54 
3 48 57 53 
3 48 53 42 
3 36 146 144 
3 36 144 30 
3 24 139 9 
3 5 4 204 
3 5 204 205 
3 49 48 42 
3 49 42 37 
3 37 36 30 
3 37 30 25 
3 25 24 9 
3 25 9 8 
3 203 8 5 
3 203 5 205 
3 13 12 206 
3 13 206 207 
3 208 209 210 
3 208 210 211 
3 212 213 214 
3 212 214 215 
3 216 149 217 
3 216 217 218 
3 219 220 221 
3 219 221 60 
3 21 13 207 
3 21 207 222 
3 222 208 211 
3 222 211 223 
3 223 212 215 
3 223 215 224 
3 224 225 216 
3 224 216 226 
3 181 226 219 
3 181 219 60 
3 60 174 181 
3 227 204 4 
3 227 4 35 
3 35 29 33 
3 35 33 47 
3 47 41 45 
3 47 45 59 
3 59 53 57 
3 59 57 67 
3 67 63 64 
3 67 64 73 
3 73 68 70 
3 73 70 79 
3 79 74 76 
3 79 76 81 
3 228 229 230 
3 228 230 231 
3 231 232 233 
3 231 233 234 
3 234 235 236 
3 234 236 237 
3 237 218 217 
3 237 217 238 
3 238 239 240 
3 238 240 241 
3 241 210 209 
3 241 209 242 
3 0 242 206 
3 0 206 12 
3 88 178 177 
3 88 177 49 
3 88 49 37 
3 88 37 25 
3 88 25 8 
3 88 8 203 
3 89 22 23 
3 90 91 86 
3 90 86 89 
3 83 85 87 
3 83 87 88 
3 86 18 19 
3 86 19 22 
3 86 22 89 
3 18 86 180 
3 18 180 172 
3 84 82 162 
3 84 162 163 
3 83 88 202 
3 83 202 243 
3 16 21 87 
3 224 226 87 
3 224 87 223 
3 243 227 83 
3 59 67 83 
3 59 83 47 
3 73 79 164 
3 73 164 67 
3 16 87 85 
3 16 85 7 
3 234 237 165 
3 234 165 231 
3 7 85 0 
3 238 241 85 
3 238 85 237 
3 85 241 242 
3 85 242 0 
3 35 47 83 
3 35 83 227 
3 85 165 237 
3 228 231 165 
3 228 165 161 
3 222 223 87 
3 222 87 21 
3 82 93 167 
3 82 167 162 
3 92 93 82 
3 92 82 84 
3 86 91 183 
3 86 183 180 
3 88 90 179 
3 88 179 178 
3 87 91 90 
3 87 90 88 
3 85 92 168 
3 85 168 165 
3 83 93 92 
3 83 92 85 
3 244 95 94 
3 244 94 245 
3 246 96 95 
3 246 95 244 
3 246 247 97 
3 246 97 96 
3 98 97 247 
3 98 247 248 
3 99 98 248 
3 99 248 249 
3 249 245 94 
3 249 94 99 
3 101 100 250 
3 101 250 251 
3 251 252 102 
3 251 102 101 
3 252 253 103 
3 252 103 102 
3 104 103 253 
3 104 253 140 
3 105 104 254 
3 105 254 255 
3 250 100 105 
3 250 105 255 
3 107 106 256 
3 107 256 257 
3 257 258 108 
3 257 108 107 
3 258 259 109 
3 258 109 108 
3 110 147 260 
3 110 260 261 
3 111 110 261 
3 111 261 262 
3 256 106 111 
3 256 111 262 
3 113 148 263 
3 113 263 264 
3 264 265 114 
3 264 114 113 
3 265 266 115 
3 265 115 114 
3 116 115 266 
3 116 266 267 
3 117 116 267 
3 117 267 268 
3 269 112 117 
3 269 117 268 
3 119 118 270 
3 119 270 271 
3 271 272 120 
3 271 120 119 
3 272 273 121 
3 272 121 120 
3 122 137 274 
3 122 274 275 
3 123 122 275 
3 123 275 276 
3 270 118 123 
3 270 123 276 
3 277 278 138 
3 277 138 124 
3 127 126 279 
3 127 279 280 
3 277 124 127 
3 277 127 280 
3 281 196 194 
3 281 194 128 
3 130 129 282 
3 130 282 283 
3 281 128 130 
3 281 130 283 
3 284 188 191 
3 284 191 131 
3 132 157 160 
3 132 160 285 
3 284 131 132 
3 284 132 285 
3 137 133 55 
3 137 55 121 
3 136 138 125 
3 136 125 286 
3 134 135 64 
3 134 64 63 
3 221 220 236 
3 221 236 235 
3 274 137 121 
3 274 121 273 
3 138 278 287 
3 138 287 125 
3 288 140 253 
3 24 33 29 
3 24 29 139 
3 254 140 288 
3 104 140 254 
3 141 76 74 
3 142 289 282 
3 129 142 282 
3 147 143 31 
3 147 31 109 
3 148 145 44 
3 148 44 112 
3 144 146 45 
3 144 45 41 
3 214 213 240 
3 214 240 239 
3 260 147 109 
3 260 109 259 
3 263 148 112 
3 263 112 269 
3 150 290 43 
3 52 290 150 
3 225 149 216 
3 115 150 43 
3 116 150 115 
3 131 191 151 
3 131 151 77 
3 153 155 154 
3 154 155 152 
3 156 173 184 
3 291 292 293 
3 294 185 169 
3 291 293 294 
3 293 295 185 
3 293 185 294 
3 296 292 291 
3 296 291 297 
3 158 157 132 
3 158 132 80 
3 298 159 81 
3 161 299 228 
3 164 79 81 
3 159 164 81 
3 164 166 83 
3 164 83 67 
3 163 168 92 
3 163 92 84 
3 166 167 93 
3 166 93 83 
3 170 171 89 
3 170 89 23 
3 175 300 286 
3 175 286 125 
3 54 49 177 
3 54 177 61 
3 177 176 61 
3 171 179 90 
3 171 90 89 
3 181 182 87 
3 181 87 226 
3 182 183 91 
3 182 91 87 
3 301 175 125 
3 301 125 287 
3 187 186 129 
3 187 129 75 
3 189 302 76 
3 189 76 141 
3 186 190 142 
3 186 142 129 
3 190 303 289 
3 190 289 142 
3 304 305 230 
3 304 230 229 
3 193 192 126 
3 193 126 69 
3 197 306 70 
3 197 70 68 
3 307 308 233 
3 307 233 232 
3 192 309 279 
3 192 279 126 
3 310 311 312 
3 313 314 315 
3 316 317 318 
3 200 319 320 
3 321 198 201 
3 313 315 322 
3 323 324 313 
3 321 325 326 
3 321 201 327 
3 321 327 325 
3 315 314 328 
3 315 328 199 
3 329 330 331 
3 332 329 333 
3 329 328 330 
3 198 199 332 
3 198 332 334 
3 315 199 198 
3 315 198 321 
3 332 199 328 
3 332 328 329 
3 335 200 320 
3 336 337 319 
3 336 319 200 
3 338 339 340 
3 338 317 316 
3 338 316 339 
3 316 318 341 
3 342 311 310 
3 312 343 344 
3 312 311 343 
3 344 345 346 
3 344 343 345 
3 346 345 347 
3 347 345 348 
3 342 349 350 
3 342 310 349 
3 336 200 335 
3 336 335 351 
3 201 198 334 
3 201 334 327 
3 313 324 314 
3 153 352 170 
3 153 170 155 
