ply
format ascii 1.0
comment VCGLIB generated
comment TextureFile Dungeons_2_Texture_01_A.png
element vertex 171
property float x
property float y
property float z
property float nx
property float ny
property float nz
property uchar red
property uchar green
property uchar blue
property uchar alpha
property float texture_u
property float texture_v
element face 156
property list uchar int vertex_indices
end_header
1.7e-05 500 30.54131 -3.596014e-05 0.6084692 0.7935775 192 192 192 255 0.006275 0.985651
1.6e-05 500 -30.54131 -2.568216e-05 0.7822891 -0.6229156 192 192 192 255 0.13525 0.985651
88.26904 309.6776 30.54131 0.0115047 -6.625621e-06 0.9999338 192 192 192 255 0.046174 0.899623
169.2791 418.3164 30.54131 0.0001040469 -0.02733871 0.9996262 192 192 192 255 0.082791 0.948729
54.02549 500 30.54131 -2.77242e-05 1 0.0001028949 192 192 192 255 0.030695 0.985651
90.46647 434.7556 30.54131 -2.987988e-05 -0.1014798 0.9948376 192 192 192 255 0.047167 0.95616
76.89428 500 40.13009 -2.410744e-05 5.036319e-05 1 192 192 192 255 0.041032 0.985651
102.204 454.7556 40.13009 -2.507067e-05 -0.09934805 0.9950528 192 192 192 255 0.052472 0.9652
1.7e-05 0 30.54131 -1.423321e-05 -2.856619e-05 1 192 192 192 255 0.133083 0.759644
1.7e-05 0 -30.54131 -0.6666667 -0.3333333 -0.6666666 192 192 192 255 0.105473 0.759644
88.26904 0 30.54131 0.1162528 -0.0001969262 0.9932197 192 192 192 255 0.1626 0.945753
101.669 305.394 18.64131 0.4901276 -0.000110243 0.8716507 192 192 192 255 0.052231 0.897687
176.1873 404.9164 18.64131 0.0001024049 -0.2746127 0.9615549 192 192 192 255 0.085914 0.942672
101.669 0 18.64131 0.6639292 -0.0007093973 0.7477951 192 192 192 255 0.157221 0.939695
128.6208 297.6901 -17.78942 0.7941992 -0.6038301 0.06809509 192 192 192 255 0.100699 0.695751
125.769 297.6901 18.64131 0.6483042 -0.4891025 0.583507 192 192 192 255 0.084231 0.695751
190.0209 377.8573 -17.78942 0.7924659 -0.6052933 0.07495258 192 192 192 255 0.100699 0.731987
188.6117 380.8164 18.6413 0.6372858 -0.482951 0.6005207 192 192 192 255 0.084231 0.733324
125.769 0 18.6413 0.6427146 -0.3223404 0.6949926 192 192 192 255 0.084231 0.561191
128.6208 0 -17.78942 0.5770029 -0.7613284 -0.2957138 192 192 192 255 0.100699 0.561191
101.769 1e-06 -34.0859 0.4886059 -0.8246258 -0.2850555 192 192 192 255 0.133387 0.93965
101.769 305.394 -34.0859 0.6552613 -0.4898787 0.575023 192 192 192 255 0.099333 0.673456
176.1873 404.9164 -34.0859 0.655159 -0.4900116 0.5750265 192 192 192 255 0.132971 0.628471
194.8193 309.6776 -136.428 0.6550643 -0.4898857 0.5752416 192 192 192 255 0.154325 0.921112
194.8193 0 -136.428 0.3127909 -0.6341239 0.7071413 192 192 192 255 0.154325 0.781134
69.40002 0 -30.54131 -0.2454992 -0.9112335 -0.3307322 192 192 192 255 0.13499 0.954281
164.55 430.6 -30.54133 -0.3574786 0.3160084 -0.8788332 192 192 192 255 0.080654 0.791014
69.40002 322.95 -30.54132 -0.3575064 0.3159756 -0.8788337 192 192 192 255 0.037645 0.839673
164.55 322.95 -161.1421 -0.6576487 0.5812536 -0.4792104 192 192 192 255 0.080654 0.839673
164.55 0 -161.1421 -0.1998532 -0.7418066 -0.640142 192 192 192 255 0.080654 0.985651
500 500 30.54131 0.0006060574 0.9999994 0.0009090862 192 192 192 255 0.10764 0.759644
500 500 -30.54131 1.525041e-05 0.9290673 -0.3699107 192 192 192 255 0.13525 0.759644
411.731 309.6776 30.54131 -0.000187834 -4.010478e-05 1 192 192 192 255 0.192383 0.899623
330.7209 418.3164 30.54131 -9.726288e-05 -0.08078519 0.9967316 192 192 192 255 0.155765 0.948729
445.9745 500 30.54131 2.772521e-05 1 0.0001028987 192 192 192 255 0.10764 0.784064
409.5335 434.7556 30.54131 2.863382e-05 -0.1163222 0.9932116 192 192 192 255 0.191389 0.95616
423.1057 500 40.13009 1.35322e-05 6.416776e-05 1 192 192 192 255 0.197524 0.985651
397.796 454.7556 40.13009 0.0004893834 -0.145505 0.9893574 192 192 192 255 0.186084 0.9652
500 -0 30.54131 0.3333333 -0.6666667 0.6666667 192 192 192 255 0.105473 0.759644
500 -0 -30.54131 0.6666668 -0.3333334 -0.6666665 192 192 192 255 0.133083 0.759644
411.731 -0 30.54131 -0.2425388 -0.7305192 0.6383703 192 192 192 255 0.1626 0.799543
398.331 305.394 18.64131 -0.0003193266 -0.0001473971 0.9999999 192 192 192 255 0.186326 0.897687
323.8127 404.9164 18.64131 -0.0001399749 -0.6635857 0.7481002 192 192 192 255 0.152642 0.942672
398.331 -0 18.64131 -0.0001165789 -0.0003522732 0.9999999 192 192 192 255 0.157221 0.8056
371.3792 297.6901 -17.78942 -0.9969603 -4.519062e-05 0.07791103 192 192 192 255 0.137858 0.695751
374.231 297.6901 18.64131 -0.8032368 -0.001766672 0.5956572 192 192 192 255 0.154325 0.695751
309.9791 377.8573 -17.78942 -0.3863232 -0.7764829 -0.4978239 192 192 192 255 0.14639 0.671284
311.3883 380.8164 18.6413 -0.2191009 -0.4418039 0.8699449 192 192 192 255 0.147027 0.687751
374.231 -0 18.6413 -0.9555835 -5.746482e-05 0.2947207 192 192 192 255 0.154325 0.561191
371.3792 -0 -17.78942 -0.9969565 -0.0001838456 0.0779597 192 192 192 255 0.137858 0.561191
398.231 1e-06 -34.0859 -0.3951572 -0.8892151 -0.230537 192 192 192 255 0.133387 0.805645
398.231 305.394 -34.0859 -0.6552613 -0.4898787 0.575023 192 192 192 255 0.139224 0.673456
323.8127 404.9164 -34.0859 -0.6551172 -0.4899942 0.5750887 192 192 192 255 0.105585 0.62847
305.1807 309.6776 -136.428 -0.6550717 -0.4898441 0.5752685 192 192 192 255 0.084231 0.921112
305.1807 0 -136.428 -0.362211 -0.7343137 0.5740963 192 192 192 255 0.084231 0.781134
430.6 -0 -30.54131 0.2841831 -0.8790157 -0.3828464 192 192 192 255 0.13499 0.791014
335.45 430.6 -30.54133 0.3574939 0.3160022 -0.8788292 192 192 192 255 0.157903 0.791014
430.6 322.95 -30.54132 0.3575065 0.3159755 -0.8788337 192 192 192 255 0.200912 0.839673
335.45 322.95 -161.1421 0.6576108 0.581256 -0.4792593 192 192 192 255 0.157903 0.839673
335.45 0 -161.1421 0.2316109 -0.8596836 -0.4553027 192 192 192 255 0.157903 0.985651
374.231 158.8126 18.64131 -0.6573504 0.01132249 0.7535 192 192 192 255 0.154325 0.632976
374.231 282.658 18.64131 -0.7512387 -0.0382935 0.6589189 192 192 192 255 0.154325 0.688956
386.2509 238.8903 18.64133 -0.1362818 -5.782164e-09 0.9906701 192 192 192 255 0.180865 0.647682
373.3217 241.2522 7.025537 -0.925829 -9.393431e-09 0.3779427 192 192 192 255 0.149074 0.67024
88.26904 99.21635 30.54131 0.1654201 0.004338063 0.9862137 192 192 192 255 0.046174 0.804492
88.26904 251.7935 30.54131 0.1878459 -0.004485309 0.9821883 192 192 192 255 0.046174 0.873459
97.31995 148.4596 22.50357 0.5830773 0 0.8124167 192 192 192 255 0.050265 0.82675
78.72235 144.2508 30.54128 0.08231064 0 0.9966068 192 192 192 255 0.041858 0.824848
192.677 418.3164 30.54131 0.0658375 -0.5300912 0.8453809 192 192 192 255 0.093367 0.948729
256.614 418.3164 30.54131 -0.03259232 -0.5725381 0.8192301 192 192 192 255 0.122268 0.948729
224.2021 434.7556 30.54131 6.250013e-09 -0.4123167 0.9110406 192 192 192 255 0.107617 0.95616
219.0636 410.4072 23.51748 0 -0.5437254 0.8392633 192 192 192 255 0.105295 0.945154
280.5586 454.7556 40.13009 0.004080213 -0.1782228 0.9839817 192 192 192 255 0.133091 0.9652
374.4206 454.7556 40.13009 -0.01256172 -0.1750921 0.984472 192 192 192 255 0.175518 0.9652
336.0329 443.1518 34.56675 0 -0.3702972 0.9289134 192 192 192 255 0.158166 0.959955
347.9055 466.8145 40.13011 0 -0.09739791 0.9952455 192 192 192 255 0.163533 0.970651
166.0606 350.9865 18.6413 0.5629254 -0.5073564 0.6524603 192 192 192 255 0.084231 0.719841
135.796 310.9534 18.64131 0.6650632 -0.3627615 0.6527596 192 192 192 255 0.084231 0.701746
135.9167 337.9363 18.6413 0.1720916 -0.1300997 0.9764521 192 192 192 255 0.067711 0.692453
149.1007 326.607 -0.147112 0.7770239 -0.5925587 0.2123867 192 192 192 255 0.092724 0.708821
188.6117 380.8164 18.6413 0.6372858 -0.482951 0.6005207 192 192 192 255 0.09153 0.687751
190.0209 377.8573 -17.78942 0.7924659 -0.6052933 0.07495258 192 192 192 255 0.092167 0.671284
1.7e-05 500 30.54131 -3.596014e-05 0.6084692 0.7935775 192 192 192 255 0.10764 0.985651
54.02549 500 30.54131 -2.77242e-05 1 0.0001028949 192 192 192 255 0.10764 0.961231
1.7e-05 500 30.54131 -3.596014e-05 0.6084692 0.7935775 192 192 192 255 0.133083 0.985651
1.6e-05 500 -30.54131 -2.568216e-05 0.7822891 -0.6229156 192 192 192 255 0.105473 0.985651
1.7e-05 0 30.54131 -1.423321e-05 -2.856619e-05 1 192 192 192 255 0.006275 0.759644
88.26904 0 30.54131 0.1162528 -0.0001969262 0.9932197 192 192 192 255 0.046174 0.759644
101.669 0 18.64131 0.6639292 -0.0007093973 0.7477951 192 192 192 255 0.052231 0.759644
125.769 297.6901 18.64131 0.6483042 -0.4891025 0.583507 192 192 192 255 0.063124 0.674261
135.796 310.9534 18.64131 0.6650632 -0.3627615 0.6527596 192 192 192 255 0.067656 0.680256
101.669 305.394 18.64131 0.4901276 -0.000110243 0.8716507 192 192 192 255 0.052231 0.677743
176.1873 404.9164 18.64131 0.0001024049 -0.2746127 0.9615549 192 192 192 255 0.085914 0.722729
166.0606 350.9865 18.6413 0.5629254 -0.5073564 0.6524603 192 192 192 255 0.081336 0.698352
188.6117 380.8164 18.6413 0.6372858 -0.482951 0.6005207 192 192 192 255 0.09153 0.711835
311.3883 380.8164 18.6413 -0.2191009 -0.4418039 0.8699449 192 192 192 255 0.147026 0.711835
323.8127 404.9164 18.64131 -0.0001399749 -0.6635857 0.7481002 192 192 192 255 0.152642 0.722729
101.669 0 18.64131 0.6639292 -0.0007093973 0.7477951 192 192 192 255 0.052231 0.539701
125.769 0 18.6413 0.6427146 -0.3223404 0.6949926 192 192 192 255 0.063124 0.539701
76.89428 500 40.13009 -2.410744e-05 5.036319e-05 1 192 192 192 255 0.103306 0.950894
423.1057 500 40.13009 1.35322e-05 6.416776e-05 1 192 192 192 255 0.103306 0.794401
101.669 0 18.64131 0.6639292 -0.0007093973 0.7477951 192 192 192 255 0.157221 0.719752
101.769 1e-06 -34.0859 0.4886059 -0.8246258 -0.2850555 192 192 192 255 0.133387 0.719707
128.6208 0 -17.78942 0.5770029 -0.7613284 -0.2957138 192 192 192 255 0.140754 0.707569
125.769 0 18.6413 0.6427146 -0.3223404 0.6949926 192 192 192 255 0.157221 0.708858
190.0209 377.8573 -17.78942 0.7924659 -0.6052933 0.07495258 192 192 192 255 0.139224 0.640702
128.6208 297.6901 -17.78942 0.7941992 -0.6038301 0.06809509 192 192 192 255 0.11147 0.676938
101.769 1e-06 -34.0859 0.4886059 -0.8246258 -0.2850555 192 192 192 255 0.108065 0.561191
101.769 305.394 -34.0859 0.6552613 -0.4898787 0.575023 192 192 192 255 0.108065 0.699233
176.1873 404.9164 -34.0859 0.655159 -0.4900116 0.5750265 192 192 192 255 0.108065 0.964161
101.769 305.394 -34.0859 0.6552613 -0.4898787 0.575023 192 192 192 255 0.108065 0.919176
101.769 1e-06 -34.0859 0.4886059 -0.8246258 -0.2850555 192 192 192 255 0.108065 0.781134
1.6e-05 500 -30.54131 -2.568216e-05 0.7822891 -0.6229156 192 192 192 255 0.006275 0.759645
1.7e-05 0 -30.54131 -0.6666667 -0.3333333 -0.6666666 192 192 192 255 0.006275 0.985651
69.40002 0 -30.54131 -0.2454992 -0.9112335 -0.3307322 192 192 192 255 0.037645 0.985651
500 500 -30.54131 1.525041e-05 0.9290673 -0.3699107 192 192 192 255 0.232281 0.759645
1.7e-05 0 30.54131 -1.423321e-05 -2.856619e-05 1 192 192 192 255 0.1626 0.985651
1.7e-05 0 -30.54131 -0.6666667 -0.3333333 -0.6666666 192 192 192 255 0.13499 0.985651
69.40002 322.95 -30.54132 -0.3575064 0.3159756 -0.8788337 192 192 192 255 0.094949 0.843131
164.55 430.6 -30.54133 -0.3574786 0.3160084 -0.8788332 192 192 192 255 0.143608 0.843131
164.55 322.95 -161.1421 -0.6576487 0.5812536 -0.4792104 192 192 192 255 0.094949 0.902164
311.3883 380.8164 18.6413 -0.2191009 -0.4418039 0.8699449 192 192 192 255 0.154325 0.733324
309.9791 377.8573 -17.78942 -0.3863232 -0.7764829 -0.4978239 192 192 192 255 0.137858 0.731987
500 500 30.54131 0.0006060574 0.9999994 0.0009090862 192 192 192 255 0.232281 0.985651
445.9745 500 30.54131 2.772521e-05 1 0.0001028987 192 192 192 255 0.207861 0.985651
500 500 30.54131 0.0006060574 0.9999994 0.0009090862 192 192 192 255 0.105473 0.985651
500 500 -30.54131 1.525041e-05 0.9290673 -0.3699107 192 192 192 255 0.133083 0.985651
411.731 -0 30.54131 -0.2425388 -0.7305192 0.6383703 192 192 192 255 0.192383 0.759644
500 -0 30.54131 0.3333333 -0.6666667 0.6666667 192 192 192 255 0.232281 0.759644
398.331 -0 18.64131 -0.0001165789 -0.0003522732 0.9999999 192 192 192 255 0.186326 0.759644
374.231 297.6901 18.64131 -0.8032368 -0.001766672 0.5956572 192 192 192 255 0.175432 0.674261
398.331 305.394 18.64131 -0.0003193266 -0.0001473971 0.9999999 192 192 192 255 0.186326 0.677743
374.231 -0 18.6413 -0.9555835 -5.746482e-05 0.2947207 192 192 192 255 0.175432 0.539701
398.331 -0 18.64131 -0.0001165789 -0.0003522732 0.9999999 192 192 192 255 0.186326 0.539701
374.231 158.8126 18.64131 -0.6573504 0.01132249 0.7535 192 192 192 255 0.175432 0.611486
374.231 282.658 18.64131 -0.7512387 -0.0382935 0.6589189 192 192 192 255 0.175432 0.667466
398.331 -0 18.64131 -0.0001165789 -0.0003522732 0.9999999 192 192 192 255 0.157221 0.585657
374.231 -0 18.6413 -0.9555835 -5.746482e-05 0.2947207 192 192 192 255 0.157221 0.59655
371.3792 -0 -17.78942 -0.9969565 -0.0001838456 0.0779597 192 192 192 255 0.140754 0.597839
398.231 1e-06 -34.0859 -0.3951572 -0.8892151 -0.230537 192 192 192 255 0.133387 0.585702
309.9791 377.8573 -17.78942 -0.3863232 -0.7764829 -0.4978239 192 192 192 255 0.099333 0.640702
371.3792 297.6901 -17.78942 -0.9969603 -4.519062e-05 0.07791103 192 192 192 255 0.127086 0.676938
176.1873 404.9164 -34.0859 0.655159 -0.4900116 0.5750265 192 192 192 255 0.085914 0.663918
323.8127 404.9164 -34.0859 -0.6551172 -0.4899942 0.5750887 192 192 192 255 0.152642 0.663918
398.231 305.394 -34.0859 -0.6552613 -0.4898787 0.575023 192 192 192 255 0.130491 0.699233
398.231 1e-06 -34.0859 -0.3951572 -0.8892151 -0.230537 192 192 192 255 0.130491 0.561191
323.8127 404.9164 -34.0859 -0.6551172 -0.4899942 0.5750887 192 192 192 255 0.130491 0.964161
398.231 305.394 -34.0859 -0.6552613 -0.4898787 0.575023 192 192 192 255 0.130491 0.919176
194.8193 309.6776 -136.428 0.6550643 -0.4898857 0.5752416 192 192 192 255 0.094336 0.837601
305.1807 309.6776 -136.428 -0.6550717 -0.4898441 0.5752685 192 192 192 255 0.144221 0.837601
323.8127 404.9164 -34.0859 -0.6551172 -0.4899942 0.5750887 192 192 192 255 0.152642 0.883861
176.1873 404.9164 -34.0859 0.655159 -0.4900116 0.5750265 192 192 192 255 0.085914 0.883861
398.231 1e-06 -34.0859 -0.3951572 -0.8892151 -0.230537 192 192 192 255 0.130491 0.781134
194.8193 0 -136.428 0.3127909 -0.6341239 0.7071413 192 192 192 255 0.094336 0.802659
305.1807 0 -136.428 -0.362211 -0.7343137 0.5740963 192 192 192 255 0.144221 0.802659
305.1807 309.6776 -136.428 -0.6550717 -0.4898441 0.5752685 192 192 192 255 0.144221 0.942637
194.8193 309.6776 -136.428 0.6550643 -0.4898857 0.5752416 192 192 192 255 0.094336 0.942637
500 -0 -30.54131 0.6666668 -0.3333334 -0.6666665 192 192 192 255 0.232281 0.985651
430.6 -0 -30.54131 0.2841831 -0.8790157 -0.3828464 192 192 192 255 0.200912 0.985651
500 -0 -30.54131 0.6666668 -0.3333334 -0.6666665 192 192 192 255 0.13499 0.759644
500 -0 30.54131 0.3333333 -0.6666667 0.6666667 192 192 192 255 0.1626 0.759644
430.6 322.95 -30.54132 0.3575065 0.3159755 -0.8788337 192 192 192 255 0.094949 0.902164
335.45 322.95 -161.1421 0.6576108 0.581256 -0.4792593 192 192 192 255 0.094949 0.843131
335.45 430.6 -30.54133 0.3574939 0.3160022 -0.8788292 192 192 192 255 0.143608 0.902164
305.1807 0 -136.428 -0.362211 -0.7343137 0.5740963 192 192 192 255 0.087127 0.847705
335.45 0 -161.1421 0.2316109 -0.8596836 -0.4553027 192 192 192 255 0.075956 0.834023
194.8193 0 -136.428 0.3127909 -0.6341239 0.7071413 192 192 192 255 0.087127 0.89759
164.55 0 -161.1421 -0.1998532 -0.7418066 -0.640142 192 192 192 255 0.075956 0.911272
386.2509 238.8903 18.64133 -0.1362818 -5.782164e-09 0.9906701 192 192 192 255 0.154325 0.669172
149.1007 326.607 -0.147112 0.7770239 -0.5925587 0.2123867 192 192 192 255 0.07367 0.687332
135.9167 337.9363 18.6413 0.1720916 -0.1300997 0.9764521 192 192 192 255 0.084231 0.713942
3 13 10 25 
3 13 25 20 
3 15 14 77 
3 77 14 79 
3 14 16 79 
3 79 16 76 
3 16 17 76 
3 5 4 0 
3 5 0 2 
3 80 81 46 
3 80 46 47 
3 3 5 2 
3 6 7 36 
3 7 72 36 
3 72 75 36 
3 75 73 36 
3 73 37 36 
3 1 82 31 
3 82 83 31 
3 30 31 34 
3 83 34 31 
3 70 68 71 
3 4 5 7 
3 4 7 6 
3 5 70 7 
3 7 70 72 
3 37 73 35 
3 73 74 35 
3 35 74 70 
3 70 74 72 
3 84 85 9 
3 84 9 8 
3 14 15 18 
3 14 18 19 
3 0 86 2 
3 2 86 65 
3 65 86 67 
3 67 86 64 
3 86 87 64 
3 3 2 11 
3 3 11 12 
3 3 12 68 
3 33 69 42 
3 68 12 71 
3 12 42 71 
3 42 69 71 
3 2 65 11 
3 87 88 64 
3 65 66 11 
3 11 66 88 
3 66 64 88 
3 89 90 91 
3 90 78 91 
3 91 78 92 
3 78 93 92 
3 92 93 94 
3 92 94 95 
3 92 95 96 
3 91 97 98 
3 91 98 89 
3 83 99 100 
3 83 100 34 
3 101 102 103 
3 101 103 104 
3 105 106 21 
3 105 21 22 
3 14 19 107 
3 14 107 108 
3 109 110 23 
3 110 111 24 
3 110 24 23 
3 26 27 112 
3 113 112 27 
3 113 27 114 
3 26 112 115 
3 26 115 56 
3 25 10 116 
3 25 116 117 
3 58 28 26 
3 58 26 56 
3 118 119 120 
3 114 27 28 
3 114 28 29 
3 43 50 55 
3 43 55 40 
3 45 121 122 
3 45 122 44 
3 35 32 123 
3 35 123 124 
3 33 32 35 
3 124 36 37 
3 124 37 35 
3 125 38 39 
3 125 39 126 
3 49 48 44 
3 48 60 44 
3 60 63 44 
3 45 44 61 
3 44 63 61 
3 32 127 128 
3 32 128 123 
3 33 42 41 
3 33 41 32 
3 32 41 129 
3 32 129 127 
3 96 95 130 
3 96 130 131 
3 132 133 134 
3 130 135 131 
3 135 62 131 
3 131 62 133 
3 62 134 133 
3 136 137 138 
3 136 138 139 
3 140 52 51 
3 140 51 141 
3 142 143 46 
3 142 46 81 
3 44 144 145 
3 44 145 49 
3 146 53 147 
3 148 149 150 
3 148 150 151 
3 147 53 54 
3 147 54 152 
3 153 154 155 
3 153 155 156 
3 56 115 57 
3 157 158 57 
3 157 57 115 
3 55 159 160 
3 55 160 40 
3 161 162 163 
3 158 59 58 
3 158 58 57 
3 29 28 58 
3 29 58 59 
3 50 164 165 
3 50 165 55 
3 164 166 167 
3 164 167 165 
3 166 20 25 
3 166 25 167 
3 61 63 168 
3 168 63 60 
3 67 66 65 
3 64 66 67 
3 70 69 33 
3 70 33 35 
3 5 3 68 
3 5 68 70 
3 70 71 69 
3 75 74 73 
3 72 74 75 
3 93 78 169 
3 79 170 77 
