ply
format ascii 1.0
comment VCGLIB generated
comment TextureFile Dungeons_2_Texture_01_A.png
element vertex 386
property float x
property float y
property float z
property float nx
property float ny
property float nz
property uchar red
property uchar green
property uchar blue
property uchar alpha
property float texture_u
property float texture_v
element face 412
property list uchar int vertex_indices
end_header
174.1719 340.7989 31.19531 0.1781985 0.103816 0.9785028 192 192 192 255 0.086813 0.909495
217.5225 291.7329 31.19531 0.0001162305 0.0002386468 1 192 192 192 255 0.105991 0.887789
174.1719 387.2528 31.19531 0.0004151909 -0.00020632 0.9999999 192 192 192 255 0.086813 0.930045
158.6914 317.9684 31.19531 -0.07490351 -0.2514158 0.9649765 192 192 192 255 0.079965 0.899395
196.355 270.7652 31.19531 -0.0004262765 -0.0002074384 0.9999999 192 192 192 255 0.096627 0.878513
196.355 115.4667 31.19531 -9.446707e-05 0.2938369 0.9558556 192 192 192 255 0.096627 0.809813
0 0 41.44818 -1.883512e-05 -1.883512e-05 1 192 192 192 255 0.009764 0.758734
0 500 41.44818 -1.465308e-05 1.465308e-05 1 192 192 192 255 0.009764 0.979921
83.35059 340.7989 31.19531 -0.1761987 0.1178598 0.9772733 192 192 192 255 0.046636 0.909495
41.59961 291.7329 31.19531 -0.05429536 0.056153 0.9969448 192 192 192 255 0.028167 0.668625
83.35059 387.2528 31.19531 -0.0001078519 -0.0001078524 1 192 192 192 255 0.046636 0.930045
0 291.7329 31.19531 -0.7160888 0.1558575 0.6803862 192 192 192 255 0.009764 0.668625
0 387.2528 31.19531 -0.002070454 -0.000450635 0.9999978 192 192 192 255 0.009764 0.930045
65.15039 348.5691 22.39531 -0.3221446 0.2722243 0.9067066 192 192 192 255 0.038585 0.693768
32.48486 309.9329 22.39531 -0.1245914 0.1059754 0.9865324 192 192 192 255 0.024135 0.676676
65.15039 369.0528 22.39531 -0.1518077 -0.1518084 0.9766825 192 192 192 255 0.038585 0.70283
0 309.9329 22.39531 -0.001040908 0.0002265547 0.9999995 192 192 192 255 0.009764 0.676676
0 369.0527 22.39531 -0.001560548 -0.0002264358 0.9999987 192 192 192 255 0.009764 0.70283
0 115.4667 31.19531 -0.001249623 0.3893558 0.9210867 192 192 192 255 0.185331 0.811918
0 91.22826 41.44818 -0.0003624599 0.1326245 0.9911663 192 192 192 255 0.009764 0.799091
98.44238 317.9684 31.19531 0.0005333441 -0.0007667146 0.9999996 192 192 192 255 0.053313 0.899395
60.77881 270.7652 31.19531 0.0002951481 -6.617782e-05 1 192 192 192 255 0.036651 0.878513
60.77881 115.4667 31.19531 5.381164e-05 0.2916648 0.9565206 192 192 192 255 0.036651 0.809813
192.2339 340.7989 22.39531 0.2604618 0.07254107 0.9627552 192 192 192 255 0.094804 0.690331
192.2339 369.0528 22.39531 0.09125717 -0.181393 0.9791674 192 192 192 255 0.094804 0.70283
222.0947 309.9329 22.39531 0.1324222 0.2718918 0.9531733 192 192 192 255 0.108013 0.676676
325.8281 340.7989 31.19531 -0.1781985 0.103816 0.9785028 192 192 192 255 0.153902 0.909495
282.4775 291.7329 31.19531 -0.0001451071 0.0004629667 0.9999999 192 192 192 255 0.134725 0.887789
325.8281 387.2528 31.19531 -0.0004152105 -0.0004126595 0.9999999 192 192 192 255 0.153902 0.930045
341.3086 317.9684 31.19531 0.1498052 -0.2153538 0.9649773 192 192 192 255 0.16075 0.899395
303.645 270.7652 31.19531 0.2467808 -0.01264087 0.9689889 192 192 192 255 0.144089 0.878513
303.645 115.4667 31.19531 0.06140761 0.31019 0.9486893 192 192 192 255 0.144089 0.809813
500 0 41.44818 2.418511e-05 -2.418511e-05 1 192 192 192 255 0.230951 0.758734
500 500 41.44818 2.835592e-05 5.671183e-05 1 192 192 192 255 0.230951 0.979921
416.6494 340.7989 31.19531 0.1750897 0.04020728 0.9837312 192 192 192 255 0.194079 0.909495
458.4004 291.7329 31.19531 0.0002165013 0.000329573 0.9999999 192 192 192 255 0.212549 0.668625
416.6494 387.2528 31.19531 0.0001078519 -0.0001078525 1 192 192 192 255 0.194079 0.930045
500 291.7329 31.19531 0.609808 0.1769672 0.7725392 192 192 192 255 0.230951 0.668625
500 387.2528 31.19531 0.002070454 -0.000450635 0.9999978 192 192 192 255 0.230951 0.930045
434.8496 348.5691 22.39531 0.2769289 0.14039 0.9505793 192 192 192 255 0.202131 0.693768
467.5151 309.9329 22.39531 0.000167796 0.0005945908 0.9999998 192 192 192 255 0.216581 0.676676
434.8496 369.0528 22.39531 0.1518077 -0.1518084 0.9766825 192 192 192 255 0.202131 0.70283
500 309.9329 22.39531 0.00156136 0.0002265545 0.9999987 192 192 192 255 0.230951 0.676676
500 369.0527 22.39531 0.001040366 -0.0002264359 0.9999995 192 192 192 255 0.230951 0.70283
500 115.4667 31.19531 0.001874418 0.3893554 0.9210857 192 192 192 255 0.230951 0.809813
500 91.22826 41.44818 8.513528e-05 0.1023013 0.9947535 192 192 192 255 0.230951 0.799091
401.5576 317.9684 31.19531 -0.06402736 -0.2149092 0.974533 192 192 192 255 0.187403 0.899395
439.2212 270.7652 31.19531 -0.0004704221 -0.0002289198 0.9999999 192 192 192 255 0.204064 0.878513
439.2207 115.4667 31.19531 -6.99498e-05 0.3263483 0.9452496 192 192 192 255 0.204064 0.809813
307.7661 340.7989 22.39531 -0.1856592 0.05170783 0.9812527 192 192 192 255 0.145912 0.690331
307.7661 369.0528 22.39531 -0.1527933 -0.1518545 0.9765216 192 192 192 255 0.145912 0.70283
277.9053 309.9329 22.39531 -0.1982602 0.2943311 0.9349129 192 192 192 255 0.132702 0.676676
0 410.4097 31.19531 -9.733553e-05 -0.3897726 0.9209111 192 192 192 255 0.009764 0.940289
500 410.4097 31.19531 0.0001707794 -0.3236061 0.9461919 192 192 192 255 0.230951 0.940289
0 429.468 41.44818 -0.0001471278 -0.1136996 0.9935152 192 192 192 255 0.189867 0.950825
500 429.468 41.44818 0.0001048623 -0.01248572 0.9999221 192 192 192 255 0.230951 0.94872
152.4331 304.9684 22.69531 -0.1498071 -0.2153568 0.9649764 192 192 192 255 0.077197 0.893644
183.355 266.2145 22.69531 -0.2657845 -0.0595938 0.9621888 192 192 192 255 0.090876 0.8765
183.355 115.4667 22.69531 -0.004950824 0.9996583 0.02566516 192 192 192 255 0.090876 0.809813
104.7007 304.9684 22.69531 0.07490318 -0.2514158 0.9649765 192 192 192 255 0.056081 0.893644
73.77881 266.215 22.69531 0.2449225 -0.1191875 0.9621888 192 192 192 255 0.042402 0.876501
73.77881 115.4667 22.69531 0.009901566 0.9996583 0.02419028 192 192 192 255 0.042402 0.809813
347.5669 304.9684 22.69531 0.07490483 -0.2514171 0.9649761 192 192 192 255 0.163519 0.893644
316.645 266.2136 22.69531 0.5464214 -0.000366239 0.8375103 192 192 192 255 0.14984 0.8765
316.645 115.4667 22.69531 0.5467923 0.03397785 0.8365786 192 192 192 255 0.14984 0.809813
395.2993 304.9684 22.69531 -0.1498083 -0.21536 0.9649754 192 192 192 255 0.184635 0.893644
426.2217 266.2141 22.69528 -0.2657883 -0.05959359 0.9621877 192 192 192 255 0.198314 0.8765
426.2207 115.4667 22.69524 -0.004950857 0.9996583 0.02566487 192 192 192 255 0.198313 0.809813
146.1753 291.9684 22.69528 -0.3849285 -0.5533556 0.7386661 192 192 192 255 0.107262 0.618518
146.1748 291.9684 -0 -0.2855249 -0.9583713 0 192 192 192 255 0.097222 0.618518
170.355 261.664 0 -0.899186 -0.4375668 0 192 192 192 255 0.097222 0.605112
170.355 261.6636 22.69527 -0.6721546 -0.1507075 0.7249107 192 192 192 255 0.107262 0.605112
170.355 115.4667 0 -0.7071068 0.7071068 0 192 192 192 255 0.097222 0.540438
170.355 115.4667 22.69531 -0.008809905 0.9999224 0.008809889 192 192 192 255 0.107262 0.540438
110.959 291.9684 22.69536 0.3333873 -0.6925103 0.6397518 192 192 192 255 0.071672 0.640372
110.9585 291.9684 -0 0.4337694 -0.9010239 0 192 192 192 255 0.071672 0.630332
86.77881 261.6633 22.69536 0.6721555 -0.1507056 0.7249102 192 192 192 255 0.064375 0.605112
86.77881 261.6636 -0 0.8991877 -0.437563 0 192 192 192 255 0.074415 0.605112
86.77881 115.4667 22.69531 0.008808832 0.999806 0.01761773 192 192 192 255 0.064375 0.540438
86.77881 115.4667 -0 0.8944272 0.4472136 0 192 192 192 255 0.074415 0.540438
353.8252 291.9684 22.69519 0.3849315 -0.5533602 0.7386612 192 192 192 255 0.041568 0.618518
329.645 261.6635 22.69521 0.6721583 -0.150709 0.7249069 192 192 192 255 0.041568 0.605112
329.645 261.6638 0 0.9999999 -0.0004178361 0 192 192 192 255 0.051608 0.605112
353.8247 291.9684 -0 0.2855258 -0.958371 0 192 192 192 255 0.051608 0.618518
329.645 115.4667 22.69531 0.008808937 0.999806 0.01761773 192 192 192 255 0.041568 0.540438
329.645 115.4667 0 0.9999998 0.0006024115 0 192 192 192 255 0.051608 0.540438
389.041 291.9684 -0 -0.4337623 -0.9010274 0 192 192 192 255 0.106311 0.630332
389.041 291.9684 22.69528 -0.3333825 -0.6925153 0.639749 192 192 192 255 0.106311 0.640372
413.2212 261.6646 -0 -0.8991835 -0.4375718 1.314524e-14 192 192 192 255 0.028801 0.605112
413.2217 261.6631 22.69525 -0.6721554 -0.1507085 0.7249097 192 192 192 255 0.03884 0.605112
413.2212 115.4667 -0 -0.7071056 0.707108 0 192 192 192 255 0.028801 0.540438
413.2207 115.4667 22.69524 -0.008809823 0.9999224 0.008809811 192 192 192 255 0.03884 0.540438
174.1719 340.7989 -31.19531 0.1781985 0.103816 -0.9785028 192 192 192 255 0.087351 0.82687
217.5225 291.7329 -31.19531 0.0001403284 0.000288125 -0.9999999 192 192 192 255 0.106528 0.848576
174.1719 387.2528 -31.19531 0.005909555 -0.07296296 -0.9973172 192 192 192 255 0.087351 0.80632
158.6914 317.9684 -31.19531 -0.07490351 -0.2514158 -0.9649765 192 192 192 255 0.080503 0.83697
196.355 270.7652 -31.19531 -0.2334027 -0.0176868 -0.9722193 192 192 192 255 0.097165 0.857852
196.355 115.4667 -31.19531 -0.07606314 0.2868584 -0.9549485 192 192 192 255 0.097165 0.926552
0 0 -41.44818 -2.854884e-05 -2.854884e-05 -1 192 192 192 255 0.153196 0.760839
0 500 -41.44818 -2.958104e-05 2.958104e-05 -1 192 192 192 255 0.153196 0.982027
83.35059 340.7989 -31.19531 -0.1750897 0.04020728 -0.9837312 192 192 192 255 0.047174 0.82687
41.59961 291.7329 -31.19531 -0.0002165006 0.0003295719 -0.9999999 192 192 192 255 0.028705 0.629412
83.35059 387.2528 -31.19531 -0.0001078519 -0.0001078524 -1 192 192 192 255 0.047174 0.80632
0 291.7329 -31.19531 -0.4564084 0.1986756 -0.8673058 192 192 192 255 0.157731 0.889894
0 387.2528 -31.19531 -0.001035229 -0.0004506357 -0.9999994 192 192 192 255 0.010302 0.80632
65.15039 348.5691 -22.39531 -0.2769289 0.14039 -0.9505793 192 192 192 255 0.039123 0.604269
32.48486 309.9329 -22.39531 -0.000167796 0.0005945908 -0.9999998 192 192 192 255 0.024672 0.621361
65.15039 369.0528 -22.39531 -0.1518077 -0.1518084 -0.9766825 192 192 192 255 0.039123 0.595208
-0 309.9329 -22.39531 -0.002081811 0.0002265543 -0.9999978 192 192 192 255 0.010302 0.621361
-0 369.0527 -22.39531 -0.001560548 -0.0002264358 -0.9999987 192 192 192 255 0.010302 0.595208
0 115.4667 -31.19531 -0.00249924 0.3893549 -0.9210845 192 192 192 255 0.157731 0.811918
0 91.22826 -41.44818 -6.138178e-05 0.1034293 -0.9946368 192 192 192 255 0.153196 0.801196
98.44238 317.9684 -31.19531 0.128055 -0.1840868 -0.9745327 192 192 192 255 0.05385 0.83697
60.77881 270.7652 -31.19531 0.0005104841 -0.0001144603 -0.9999999 192 192 192 255 0.037189 0.857852
60.77881 115.4667 -31.19531 3.637337e-05 0.3238598 -0.9461051 192 192 192 255 0.037189 0.926552
192.2339 340.7989 -22.39531 0.2169573 0.06042465 -0.9743092 192 192 192 255 0.095341 0.607706
192.2339 369.0528 -22.39531 0.0001955973 -0.4347938 -0.90053 192 192 192 255 0.095341 0.595208
222.0947 309.9329 -22.39531 0.1582577 0.3249378 -0.9324001 192 192 192 255 0.108551 0.621361
325.8281 340.7989 -31.19531 -0.1781985 0.103816 -0.9785028 192 192 192 255 0.15444 0.82687
282.4775 291.7329 -31.19531 -0.000116234 0.0003708469 -0.9999999 192 192 192 255 0.135263 0.848576
325.8281 387.2528 -31.19531 -0.0002108123 -0.1037427 -0.9946042 192 192 192 255 0.15444 0.80632
341.3086 317.9684 -31.19531 0.1498052 -0.2153538 -0.9649773 192 192 192 255 0.161288 0.83697
303.645 270.7652 -31.19531 0.0004625828 -0.0001037169 -0.9999999 192 192 192 255 0.144627 0.857852
303.645 115.4667 -31.19531 5.600152e-05 0.2756923 -0.961246 192 192 192 255 0.144627 0.926552
500 0 -41.44818 1.533944e-05 -1.541192e-05 -1 192 192 192 255 0.231489 0.977631
500 500 -41.44818 5.671183e-05 2.835592e-05 -1 192 192 192 255 0.231489 0.756444
416.6494 340.7989 -31.19531 0.1750897 0.04020728 -0.9837312 192 192 192 255 0.194617 0.82687
458.4004 291.7329 -31.19531 0.0002165013 0.000329573 -0.9999999 192 192 192 255 0.213087 0.629412
416.6494 387.2528 -31.19531 0.0001078519 -0.0001078525 -1 192 192 192 255 0.194617 0.80632
500 291.7329 -31.19531 0.609808 0.1769672 -0.7725392 192 192 192 255 0.231489 0.629412
500 387.2528 -31.19531 0.001035229 -0.0004506357 -0.9999994 192 192 192 255 0.231489 0.80632
434.8496 348.5691 -22.39531 0.2769289 0.14039 -0.9505793 192 192 192 255 0.202668 0.604269
467.5151 309.9329 -22.39531 0.000167796 0.0005945908 -0.9999998 192 192 192 255 0.217119 0.621361
434.8496 369.0528 -22.39531 0.1518077 -0.1518084 -0.9766825 192 192 192 255 0.202668 0.595208
500 309.9329 -22.39531 0.00156136 0.0002265545 -0.9999987 192 192 192 255 0.231489 0.621361
500 369.0527 -22.39531 0.002080729 -0.0002264356 -0.9999979 192 192 192 255 0.231489 0.595208
500 115.4667 -31.19531 0.001874418 0.3893554 -0.9210857 192 192 192 255 0.220922 0.810681
500 91.22826 -41.44818 0.0002859976 0.1349201 -0.9908565 192 192 192 255 0.231489 0.937274
401.5576 317.9684 -31.19531 -0.06402736 -0.2149092 -0.974533 192 192 192 255 0.187941 0.83697
439.2212 270.7652 -31.19531 -0.0004704221 -0.0002289198 -0.9999999 192 192 192 255 0.204602 0.857852
439.2207 115.4667 -31.19531 -9.898852e-05 0.2995676 -0.9540751 192 192 192 255 0.204602 0.926552
307.7661 340.7989 -22.39531 -0.2169573 0.06042465 -0.9743092 192 192 192 255 0.14645 0.607706
307.7661 369.0528 -22.39531 -0.0001144051 -0.4351067 -0.9003789 192 192 192 255 0.14645 0.595208
277.9053 309.9329 -22.39531 -0.1591771 0.2363095 -0.9585513 192 192 192 255 0.13324 0.621361
0 410.4097 -31.19531 -0.0001742849 -0.223365 -0.9747349 192 192 192 255 0.157731 0.942394
500 410.4097 -31.19531 0.0001309973 -0.2589658 -0.9658865 192 192 192 255 0.231489 0.796076
0 429.468 -41.44818 -5.57675e-05 -0.2151961 -0.9765709 192 192 192 255 0.153196 0.950825
500 429.468 -41.44818 4.970029e-05 -0.01603002 -0.9998716 192 192 192 255 0.231489 0.787645
152.4331 304.9684 -22.69531 -0.1498071 -0.2153568 -0.9649764 192 192 192 255 0.077735 0.842721
183.355 266.2145 -22.69531 -0.5463972 -0.0001996164 -0.8375262 192 192 192 255 0.091414 0.859865
183.355 115.4667 -22.69531 -0.5467465 0.03032876 -0.8367487 192 192 192 255 0.091414 0.926552
104.7007 304.9684 -22.69531 0.07490318 -0.2514158 -0.9649765 192 192 192 255 0.056619 0.842721
73.77881 266.215 -22.69531 0.2449225 -0.1191875 -0.9621888 192 192 192 255 0.04294 0.859864
73.77881 115.4667 -22.69531 0.009901566 0.9996583 -0.02419028 192 192 192 255 0.04294 0.926552
347.5669 304.9684 -22.69531 0.07490483 -0.2514171 -0.9649761 192 192 192 255 0.164057 0.842721
316.645 266.2136 -22.69531 0.0009099691 -0.0004389537 -0.9999995 192 192 192 255 0.150378 0.859865
316.645 115.4667 -22.69531 0.0004912902 0.04929662 -0.9987841 192 192 192 255 0.150378 0.926552
395.2993 304.9684 -22.69531 -0.1498083 -0.21536 -0.9649754 192 192 192 255 0.185173 0.842721
426.2217 266.2141 -22.69528 -0.2657883 -0.05959359 -0.9621877 192 192 192 255 0.198852 0.859865
426.2207 115.4667 -22.69524 -0.004950857 0.9996583 -0.02566487 192 192 192 255 0.198851 0.926552
146.1753 291.9684 -22.69528 -0.3849285 -0.5533556 -0.7386661 192 192 192 255 0.087182 0.618518
170.355 261.6636 -22.69527 -0.6721546 -0.1507075 -0.7249107 192 192 192 255 0.087182 0.605112
170.355 115.4667 -22.69531 -0.008809905 0.9999224 -0.008809889 192 192 192 255 0.087182 0.540438
110.959 291.9684 -22.69536 0.3333873 -0.6925103 -0.6397518 192 192 192 255 0.071672 0.620292
86.77881 261.6633 -22.69536 0.6721555 -0.1507056 -0.7249102 192 192 192 255 0.084455 0.605112
86.77881 115.4667 -22.69531 0.008808832 0.999806 -0.01761773 192 192 192 255 0.084455 0.540438
353.8252 291.9684 -22.69519 0.3849315 -0.5533602 -0.7386612 192 192 192 255 0.061648 0.618518
329.645 261.6635 -22.69521 0.8660628 -0.001545585 -0.499933 192 192 192 255 0.061648 0.605112
329.645 115.4667 -22.69531 0.9884873 0.02490127 -0.1492406 192 192 192 255 0.061648 0.540438
389.041 291.9684 -22.69528 -0.3333825 -0.6925153 -0.639749 192 192 192 255 0.106311 0.620292
413.2217 261.6631 -22.69525 -0.6721554 -0.1507085 -0.7249097 192 192 192 255 0.018761 0.605112
413.2207 115.4667 -22.69524 -0.008809823 0.9999224 -0.008809811 192 192 192 255 0.018761 0.540438
303.645 176.0814 31.19531 0.3301674 0.007313837 0.943894 192 192 192 255 0.144089 0.836628
310.4163 220.8711 26.76793 0.4768149 4.359454e-10 0.8790038 192 192 192 255 0.147084 0.856441
296.7249 225.4977 31.19531 0.1565145 7.121342e-10 0.9876757 192 192 192 255 0.141028 0.858488
329.645 167.793 -22.69527 0.6356612 0.02946031 -0.7714058 192 192 192 255 0.061648 0.563586
329.645 246.3024 -22.69522 0.80127 -0.03586935 -0.5972268 192 192 192 255 0.061648 0.598316
320.784 203.8931 -22.69528 0.2191544 2.422753e-07 -0.9756902 192 192 192 255 0.152209 0.66827
329.645 209.0022 -14.16873 0.9315177 2.632502e-07 -0.3636962 192 192 192 255 0.057876 0.581816
276.8418 387.2528 -31.19531 -0.004709603 -0.1463314 -0.9892244 192 192 192 255 0.13277 0.587156
220.3067 399.0324 -31.19531 0 -0.02340092 -0.9997262 192 192 192 255 0.10776 0.801109
219.9944 380.3376 -27.85168 0 -0.3475373 -0.9376662 192 192 192 255 0.107622 0.590215
437.09 429.468 -41.44818 -0.01184487 -0.3407669 -0.9400732 192 192 192 255 0.20366 0.787645
293.202 429.468 -41.44818 0.002225528 -0.05656914 -0.9983963 192 192 192 255 0.140007 0.787645
359.0497 443.5936 -41.44818 1.75992e-08 -0.04814031 -0.9988406 192 192 192 255 0.169136 0.781397
361.0715 419.4928 -36.08178 1.62181e-08 -0.3969308 -0.9178485 192 192 192 255 0.170031 0.792058
196.355 196.6234 -31.19531 -0.3230686 0.006879788 -0.9463506 192 192 192 255 0.097165 0.89065
189.842 233.9382 -26.93687 -0.4804859 0 -0.8770025 192 192 192 255 0.094283 0.874142
203.9822 237.157 -31.19531 -0.1520541 0 -0.9883722 192 192 192 255 0.100538 0.872719
301.494 429.468 41.44818 0.00142663 -0.1387162 0.9903312 192 192 192 255 0.143137 0.94872
453.5475 429.468 41.44818 -0.01317006 -0.3572016 0.9339345 192 192 192 255 0.210402 0.94872
397.6875 440.989 41.44818 2.448942e-10 -0.05365147 0.9985597 192 192 192 255 0.185691 0.953816
387.3367 419.2515 35.95193 2.433478e-10 -0.4264773 0.9044983 192 192 192 255 0.181112 0.9442
209.1805 91.22826 41.44818 -0.0006318737 0.1242649 0.9922489 192 192 192 255 0.1023 0.799091
81.972 91.22826 41.44818 0.0005333901 0.04212017 0.9991124 192 192 192 255 0.046026 0.799091
138.9649 100.5466 37.50653 -8.792426e-10 0.3006165 0.9537451 192 192 192 255 0.071239 0.803213
136.8692 82.93793 41.44818 0 -7.359135e-07 1 192 192 192 255 0.070312 0.795423
136.8691 82.93793 41.44824 0 0.2184416 0.97585 192 192 192 255 0.070312 0.795423
267.913 91.22826 -41.44818 0.0004287977 0.06773424 -0.9977034 192 192 192 255 0.12882 0.937274
422.744 91.22826 -41.44818 -0.001985792 0.09968355 -0.9950172 192 192 192 255 0.197313 0.937274
340.1505 100.189 -37.6578 4.176578e-10 0.3259967 -0.9453709 192 192 192 255 0.160776 0.93331
354.3394 80.92292 -41.44821 -2.457376e-10 0.03780528 -0.9992851 192 192 192 255 0.167053 0.941833
74.81849 315.5374 31.19531 -0.05058927 0.04304711 0.9977914 192 192 192 255 0.042862 0.89832
56.11234 322.1929 27.11535 -0.2592061 0.2199397 0.940446 192 192 192 255 0.034587 0.682099
146.1748 291.9684 -0 -0.2855249 -0.9583713 0 192 192 192 255 0.087251 0.630332
146.1753 291.9684 22.69528 -0.3849285 -0.5533556 0.7386661 192 192 192 255 0.087251 0.640372
83.35059 340.7989 31.19531 -0.1761987 0.1178598 0.9772733 192 192 192 255 0.046636 0.690331
83.35059 387.2528 31.19531 -0.0001078519 -0.0001078524 1 192 192 192 255 0.046636 0.710881
0 387.2528 31.19531 -0.002070454 -0.000450635 0.9999978 192 192 192 255 0.009764 0.710881
0 410.4097 31.19531 -9.733553e-05 -0.3897726 0.9209111 192 192 192 255 0.185331 0.942394
0 291.7329 31.19531 -0.7160888 0.1558575 0.6803862 192 192 192 255 0.185331 0.889894
0 0 41.44818 -1.883512e-05 -1.883512e-05 1 192 192 192 255 0.189867 0.760839
0 91.22826 41.44818 -0.0003624599 0.1326245 0.9911663 192 192 192 255 0.189867 0.801196
41.59961 291.7329 31.19531 -0.05429536 0.056153 0.9969448 192 192 192 255 0.028167 0.887789
0 115.4667 31.19531 -0.001249623 0.3893558 0.9210867 192 192 192 255 0.009764 0.809813
0 291.7329 31.19531 -0.7160888 0.1558575 0.6803862 192 192 192 255 0.009764 0.887789
110.959 291.9684 22.69536 0.3333873 -0.6925103 0.6397518 192 192 192 255 0.064375 0.618518
110.9585 291.9684 -0 0.4337694 -0.9010239 0 192 192 192 255 0.074415 0.618518
174.1719 387.2528 31.19531 0.0004151909 -0.00020632 0.9999999 192 192 192 255 0.086813 0.710881
174.1719 340.7989 31.19531 0.1781985 0.103816 0.9785028 192 192 192 255 0.086813 0.690331
217.5225 291.7329 31.19531 0.0001162305 0.0002386468 1 192 192 192 255 0.105991 0.668625
282.4775 291.7329 31.19531 -0.0001451071 0.0004629667 0.9999999 192 192 192 255 0.134725 0.668625
353.8247 291.9684 -0 0.2855258 -0.958371 0 192 192 192 255 0.090732 0.630332
353.8252 291.9684 22.69519 0.3849315 -0.5533602 0.7386612 192 192 192 255 0.090732 0.640372
416.6494 340.7989 31.19531 0.1750897 0.04020728 0.9837312 192 192 192 255 0.194079 0.690331
416.6494 387.2528 31.19531 0.0001078519 -0.0001078525 1 192 192 192 255 0.194079 0.710881
500 387.2528 31.19531 0.002070454 -0.000450635 0.9999978 192 192 192 255 0.230951 0.710881
458.4004 291.7329 31.19531 0.0002165013 0.000329573 0.9999999 192 192 192 255 0.212549 0.887789
500 291.7329 31.19531 0.609808 0.1769672 0.7725392 192 192 192 255 0.230951 0.887789
389.041 291.9684 22.69528 -0.3333825 -0.6925153 0.639749 192 192 192 255 0.03884 0.618518
389.041 291.9684 -0 -0.4337623 -0.9010274 0 192 192 192 255 0.028801 0.618518
325.8281 387.2528 31.19531 -0.0004152105 -0.0004126595 0.9999999 192 192 192 255 0.153902 0.710881
325.8281 340.7989 31.19531 -0.1781985 0.103816 0.9785028 192 192 192 255 0.153902 0.690331
0 429.468 41.44818 -0.0001471278 -0.1136996 0.9935152 192 192 192 255 0.009764 0.94872
0 500 41.44818 -1.465308e-05 1.465308e-05 1 192 192 192 255 0.189867 0.982027
183.355 266.2145 22.69531 -0.2657845 -0.0595938 0.9621888 192 192 192 255 0.090876 0.657336
152.4331 304.9684 22.69531 -0.1498071 -0.2153568 0.9649764 192 192 192 255 0.077197 0.67448
146.1753 291.9684 22.69528 -0.3849285 -0.5533556 0.7386661 192 192 192 255 0.074428 0.66873
170.355 261.6636 22.69527 -0.6721546 -0.1507075 0.7249107 192 192 192 255 0.085125 0.655323
183.355 115.4667 22.69531 -0.004950824 0.9996583 0.02566516 192 192 192 255 0.090876 0.590649
170.355 115.4667 22.69531 -0.008809905 0.9999224 0.008809889 192 192 192 255 0.085125 0.590649
104.7007 304.9684 22.69531 0.07490318 -0.2514158 0.9649765 192 192 192 255 0.056081 0.67448
110.959 291.9684 22.69536 0.3333873 -0.6925103 0.6397518 192 192 192 255 0.05885 0.66873
73.77881 266.215 22.69531 0.2449225 -0.1191875 0.9621888 192 192 192 255 0.042402 0.657337
86.77881 261.6633 22.69536 0.6721555 -0.1507056 0.7249102 192 192 192 255 0.048153 0.655324
73.77881 115.4667 22.69531 0.009901566 0.9996583 0.02419028 192 192 192 255 0.042402 0.590649
86.77881 115.4667 22.69531 0.008808832 0.999806 0.01761773 192 192 192 255 0.048153 0.590649
347.5669 304.9684 22.69531 0.07490483 -0.2514171 0.9649761 192 192 192 255 0.163519 0.67448
316.645 266.2136 22.69531 0.5464214 -0.000366239 0.8375103 192 192 192 255 0.14984 0.657336
329.645 261.6635 22.69521 0.6721583 -0.150709 0.7249069 192 192 192 255 0.155591 0.655324
353.8252 291.9684 22.69519 0.3849315 -0.5533602 0.7386612 192 192 192 255 0.166287 0.66873
316.645 115.4667 22.69531 0.5467923 0.03397785 0.8365786 192 192 192 255 0.14984 0.590649
329.645 115.4667 22.69531 0.008808937 0.999806 0.01761773 192 192 192 255 0.155591 0.590649
395.2993 304.9684 22.69531 -0.1498083 -0.21536 0.9649754 192 192 192 255 0.184635 0.67448
389.041 291.9684 22.69528 -0.3333825 -0.6925153 0.639749 192 192 192 255 0.181866 0.66873
426.2217 266.2141 22.69528 -0.2657883 -0.05959359 0.9621877 192 192 192 255 0.198314 0.657336
413.2217 261.6631 22.69525 -0.6721554 -0.1507085 0.7249097 192 192 192 255 0.192563 0.655323
426.2207 115.4667 22.69524 -0.004950857 0.9996583 0.02566487 192 192 192 255 0.198313 0.590649
413.2207 115.4667 22.69524 -0.008809823 0.9999224 0.008809811 192 192 192 255 0.192562 0.590649
170.355 115.4667 22.69531 -0.008809905 0.9999224 0.008809889 192 192 192 255 0.010367 0.850958
86.77881 115.4667 22.69531 0.008808832 0.999806 0.01761773 192 192 192 255 0.010367 0.88793
60.77881 115.4667 31.19531 5.381164e-05 0.2916648 0.9565206 192 192 192 255 0.006606 0.899432
196.355 115.4667 31.19531 -9.446707e-05 0.2938369 0.9558556 192 192 192 255 0.006606 0.839456
413.2207 115.4667 22.69524 -0.008809823 0.9999224 0.008809811 192 192 192 255 0.040777 0.850958
329.645 115.4667 22.69531 0.008808937 0.999806 0.01761773 192 192 192 255 0.040777 0.887929
303.645 115.4667 31.19531 0.06140761 0.31019 0.9486893 192 192 192 255 0.037017 0.899432
439.2207 115.4667 31.19531 -6.99498e-05 0.3263483 0.9452496 192 192 192 255 0.037017 0.839456
426.2207 115.4667 22.69524 -0.004950857 0.9996583 0.02566487 192 192 192 255 0.040777 0.845207
413.2212 115.4667 -0 -0.7071056 0.707108 0 192 192 192 255 0.050817 0.850958
329.645 115.4667 0 0.9999998 0.0006024115 0 192 192 192 255 0.050817 0.887929
316.645 115.4667 22.69531 0.5467923 0.03397785 0.8365786 192 192 192 255 0.040777 0.893681
183.355 115.4667 22.69531 -0.004950824 0.9996583 0.02566516 192 192 192 255 0.010367 0.845207
170.355 115.4667 0 -0.7071068 0.7071068 0 192 192 192 255 0.020406 0.850958
86.77881 115.4667 -0 0.8944272 0.4472136 0 192 192 192 255 0.020406 0.88793
73.77881 115.4667 22.69531 0.009901566 0.9996583 0.02419028 192 192 192 255 0.010367 0.893681
0 91.22826 -41.44818 -6.138178e-05 0.1034293 -0.9946368 192 192 192 255 0.010302 0.937274
0 0 -41.44818 -2.854884e-05 -2.854884e-05 -1 192 192 192 255 0.010302 0.977631
146.1753 291.9684 -22.69528 -0.3849285 -0.5533556 -0.7386661 192 192 192 255 0.087251 0.620292
0 410.4097 -31.19531 -0.0001742849 -0.223365 -0.9747349 192 192 192 255 0.010302 0.796076
83.35059 340.7989 -31.19531 -0.1750897 0.04020728 -0.9837312 192 192 192 255 0.047174 0.607706
83.35059 387.2528 -31.19531 -0.0001078519 -0.0001078524 -1 192 192 192 255 0.047174 0.587156
0 387.2528 -31.19531 -0.001035229 -0.0004506357 -0.9999994 192 192 192 255 0.010302 0.587156
0 291.7329 -31.19531 -0.4564084 0.1986756 -0.8673058 192 192 192 255 0.010302 0.629412
41.59961 291.7329 -31.19531 -0.0002165006 0.0003295719 -0.9999999 192 192 192 255 0.028705 0.848576
0 115.4667 -31.19531 -0.00249924 0.3893549 -0.9210845 192 192 192 255 0.010302 0.926552
0 291.7329 -31.19531 -0.4564084 0.1986756 -0.8673058 192 192 192 255 0.010302 0.848576
110.959 291.9684 -22.69536 0.3333873 -0.6925103 -0.6397518 192 192 192 255 0.084455 0.618518
174.1719 387.2528 -31.19531 0.005909555 -0.07296296 -0.9973172 192 192 192 255 0.087351 0.587156
174.1719 340.7989 -31.19531 0.1781985 0.103816 -0.9785028 192 192 192 255 0.087351 0.607706
217.5225 291.7329 -31.19531 0.0001403284 0.000288125 -0.9999999 192 192 192 255 0.106528 0.629412
282.4775 291.7329 -31.19531 -0.000116234 0.0003708469 -0.9999999 192 192 192 255 0.135263 0.629412
353.8252 291.9684 -22.69519 0.3849315 -0.5533602 -0.7386612 192 192 192 255 0.090732 0.620292
416.6494 340.7989 -31.19531 0.1750897 0.04020728 -0.9837312 192 192 192 255 0.194617 0.607706
416.6494 387.2528 -31.19531 0.0001078519 -0.0001078525 -1 192 192 192 255 0.194617 0.587156
500 387.2528 -31.19531 0.001035229 -0.0004506357 -0.9999994 192 192 192 255 0.231489 0.587156
500 387.2528 31.19531 0.002070454 -0.000450635 0.9999978 192 192 192 255 0.193322 0.930912
500 387.2528 -31.19531 0.001035229 -0.0004506357 -0.9999994 192 192 192 255 0.220922 0.930912
500 410.4097 -31.19531 0.0001309973 -0.2589658 -0.9658865 192 192 192 255 0.220922 0.941156
500 410.4097 31.19531 0.0001707794 -0.3236061 0.9461919 192 192 192 255 0.193322 0.941156
500 291.7329 31.19531 0.609808 0.1769672 0.7725392 192 192 192 255 0.193322 0.888657
500 291.7329 -31.19531 0.609808 0.1769672 -0.7725392 192 192 192 255 0.220922 0.888657
500 309.9329 -22.39531 0.00156136 0.0002265545 -0.9999987 192 192 192 255 0.21703 0.896708
500 309.9329 22.39531 0.00156136 0.0002265545 0.9999987 192 192 192 255 0.197215 0.896708
500 91.22826 41.44818 8.513528e-05 0.1023013 0.9947535 192 192 192 255 0.188787 0.799959
500 91.22826 -41.44818 0.0002859976 0.1349201 -0.9908565 192 192 192 255 0.225458 0.799959
500 115.4667 31.19531 0.001874418 0.3893554 0.9210857 192 192 192 255 0.193322 0.810681
458.4004 291.7329 -31.19531 0.0002165013 0.000329573 -0.9999999 192 192 192 255 0.213087 0.848576
500 115.4667 -31.19531 0.001874418 0.3893554 -0.9210857 192 192 192 255 0.231489 0.926552
500 291.7329 -31.19531 0.609808 0.1769672 -0.7725392 192 192 192 255 0.231489 0.848576
389.041 291.9684 -22.69528 -0.3333825 -0.6925153 -0.639749 192 192 192 255 0.018761 0.618518
325.8281 387.2528 -31.19531 -0.0002108123 -0.1037427 -0.9946042 192 192 192 255 0.15444 0.587156
325.8281 340.7989 -31.19531 -0.1781985 0.103816 -0.9785028 192 192 192 255 0.15444 0.607706
0 500 -41.44818 -2.958104e-05 2.958104e-05 -1 192 192 192 255 0.010302 0.756444
0 429.468 -41.44818 -5.57675e-05 -0.2151961 -0.9765709 192 192 192 255 0.010302 0.787645
500 500 41.44818 2.835592e-05 5.671183e-05 1 192 192 192 255 0.149388 0.759602
500 500 -41.44818 5.671183e-05 2.835592e-05 -1 192 192 192 255 0.186059 0.759602
0 500 -41.44818 -2.958104e-05 2.958104e-05 -1 192 192 192 255 0.186059 0.980789
0 500 41.44818 -1.465308e-05 1.465308e-05 1 192 192 192 255 0.149388 0.980789
0 0 -41.44818 -2.854884e-05 -2.854884e-05 -1 192 192 192 255 0.109989 0.980789
500 0 -41.44818 1.533944e-05 -1.541192e-05 -1 192 192 192 255 0.109989 0.759602
500 0 41.44818 2.418511e-05 -2.418511e-05 1 192 192 192 255 0.146661 0.759602
0 0 41.44818 -1.883512e-05 -1.883512e-05 1 192 192 192 255 0.146661 0.980789
500 429.468 -41.44818 4.970029e-05 -0.01603002 -0.9998716 192 192 192 255 0.225458 0.949587
500 429.468 41.44818 0.0001048623 -0.01248572 0.9999221 192 192 192 255 0.188787 0.949587
276.8418 387.2528 -31.19531 -0.004709603 -0.1463314 -0.9892244 192 192 192 255 0.13277 0.80632
500 500 -41.44818 5.671183e-05 2.835592e-05 -1 192 192 192 255 0.225458 0.980789
500 500 41.44818 2.835592e-05 5.671183e-05 1 192 192 192 255 0.188787 0.980789
183.355 266.2145 -22.69531 -0.5463972 -0.0001996164 -0.8375262 192 192 192 255 0.091414 0.640701
170.355 261.6636 -22.69527 -0.6721546 -0.1507075 -0.7249107 192 192 192 255 0.085663 0.642714
146.1753 291.9684 -22.69528 -0.3849285 -0.5533556 -0.7386661 192 192 192 255 0.074966 0.629308
152.4331 304.9684 -22.69531 -0.1498071 -0.2153568 -0.9649764 192 192 192 255 0.077735 0.623557
183.355 115.4667 -22.69531 -0.5467465 0.03032876 -0.8367487 192 192 192 255 0.091414 0.707388
170.355 115.4667 -22.69531 -0.008809905 0.9999224 -0.008809889 192 192 192 255 0.085663 0.707388
110.959 291.9684 -22.69536 0.3333873 -0.6925103 -0.6397518 192 192 192 255 0.059387 0.629308
104.7007 304.9684 -22.69531 0.07490318 -0.2514158 -0.9649765 192 192 192 255 0.056619 0.623557
86.77881 261.6633 -22.69536 0.6721555 -0.1507056 -0.7249102 192 192 192 255 0.048691 0.642714
73.77881 266.215 -22.69531 0.2449225 -0.1191875 -0.9621888 192 192 192 255 0.04294 0.640701
86.77881 115.4667 -22.69531 0.008808832 0.999806 -0.01761773 192 192 192 255 0.048691 0.707388
73.77881 115.4667 -22.69531 0.009901566 0.9996583 -0.02419028 192 192 192 255 0.04294 0.707388
347.5669 304.9684 -22.69531 0.07490483 -0.2514171 -0.9649761 192 192 192 255 0.164057 0.623557
353.8252 291.9684 -22.69519 0.3849315 -0.5533602 -0.7386612 192 192 192 255 0.166825 0.629308
329.645 261.6635 -22.69521 0.8660628 -0.001545585 -0.499933 192 192 192 255 0.156129 0.642714
316.645 266.2136 -22.69531 0.0009099691 -0.0004389537 -0.9999995 192 192 192 255 0.150378 0.640701
329.645 115.4667 -22.69531 0.9884873 0.02490127 -0.1492406 192 192 192 255 0.156129 0.707388
316.645 115.4667 -22.69531 0.0004912902 0.04929662 -0.9987841 192 192 192 255 0.150378 0.707388
329.645 167.793 -22.69527 0.6356612 0.02946031 -0.7714058 192 192 192 255 0.156129 0.68424
329.645 246.3024 -22.69522 0.80127 -0.03586935 -0.5972268 192 192 192 255 0.156129 0.649509
395.2993 304.9684 -22.69531 -0.1498083 -0.21536 -0.9649754 192 192 192 255 0.185173 0.623557
389.041 291.9684 -22.69528 -0.3333825 -0.6925153 -0.639749 192 192 192 255 0.182404 0.629308
426.2217 266.2141 -22.69528 -0.2657883 -0.05959359 -0.9621877 192 192 192 255 0.198852 0.640701
413.2217 261.6631 -22.69525 -0.6721554 -0.1507085 -0.7249097 192 192 192 255 0.193101 0.642714
426.2207 115.4667 -22.69524 -0.004950857 0.9996583 -0.02566487 192 192 192 255 0.198851 0.707388
413.2207 115.4667 -22.69524 -0.008809823 0.9999224 -0.008809811 192 192 192 255 0.1931 0.707388
170.355 115.4667 -22.69531 -0.008809905 0.9999224 -0.008809889 192 192 192 255 0.030446 0.850958
196.355 115.4667 -31.19531 -0.07606314 0.2868584 -0.9549485 192 192 192 255 0.034207 0.839456
60.77881 115.4667 -31.19531 3.637337e-05 0.3238598 -0.9461051 192 192 192 255 0.034207 0.899432
86.77881 115.4667 -22.69531 0.008808832 0.999806 -0.01761773 192 192 192 255 0.030446 0.88793
413.2207 115.4667 -22.69524 -0.008809823 0.9999224 -0.008809811 192 192 192 255 0.060856 0.850958
439.2207 115.4667 -31.19531 -9.898852e-05 0.2995676 -0.9540751 192 192 192 255 0.064616 0.839456
303.645 115.4667 -31.19531 5.600152e-05 0.2756923 -0.961246 192 192 192 255 0.064616 0.899432
329.645 115.4667 -22.69531 0.9884873 0.02490127 -0.1492406 192 192 192 255 0.060856 0.887929
426.2207 115.4667 -22.69524 -0.004950857 0.9996583 -0.02566487 192 192 192 255 0.060856 0.845207
316.645 115.4667 -22.69531 0.0004912902 0.04929662 -0.9987841 192 192 192 255 0.060856 0.893681
183.355 115.4667 -22.69531 -0.5467465 0.03032876 -0.8367487 192 192 192 255 0.030446 0.845207
73.77881 115.4667 -22.69531 0.009901566 0.9996583 -0.02419028 192 192 192 255 0.030446 0.893681
-0 369.0527 -22.39531 -0.001560548 -0.0002264358 -0.9999987 192 192 192 255 0.161624 0.924099
0 369.0527 22.39531 -0.001560548 -0.0002264358 0.9999987 192 192 192 255 0.181438 0.924099
0 387.2528 31.19531 -0.002070454 -0.000450635 0.9999978 192 192 192 255 0.185331 0.93215
0 387.2528 -31.19531 -0.001035229 -0.0004506357 -0.9999994 192 192 192 255 0.157731 0.93215
-0 309.9329 -22.39531 -0.002081811 0.0002265543 -0.9999978 192 192 192 255 0.161624 0.678781
0 309.9329 22.39531 -0.001040908 0.0002265547 0.9999995 192 192 192 255 0.181438 0.678781
0 369.0527 22.39531 -0.001560548 -0.0002264358 0.9999987 192 192 192 255 0.181438 0.704935
-0 369.0527 -22.39531 -0.001560548 -0.0002264358 -0.9999987 192 192 192 255 0.161624 0.704935
0 309.9329 22.39531 -0.001040908 0.0002265547 0.9999995 192 192 192 255 0.181438 0.897945
-0 309.9329 -22.39531 -0.002081811 0.0002265543 -0.9999978 192 192 192 255 0.161624 0.897945
500 0 41.44818 2.418511e-05 -2.418511e-05 1 192 192 192 255 0.188787 0.759602
500 0 -41.44818 1.533944e-05 -1.541192e-05 -1 192 192 192 255 0.225458 0.759602
500 369.0527 -22.39531 0.002080729 -0.0002264356 -0.9999979 192 192 192 255 0.21703 0.922861
500 369.0527 22.39531 0.001040366 -0.0002264359 0.9999995 192 192 192 255 0.197215 0.922861
320.784 203.8931 -22.69528 0.2191544 2.422753e-07 -0.9756902 192 192 192 255 0.061648 0.579556
219.9944 380.3376 -27.85168 0 -0.3475373 -0.9376662 192 192 192 255 0.107622 0.809379
81.972 91.22826 41.44818 0.0005333901 0.04212017 0.9991124 192 192 192 255 0.068206 0.89573
136.8692 82.93793 41.44818 0 -7.359135e-07 1 192 192 192 255 0.068206 0.871445
136.8691 82.93793 41.44824 0 0.2184416 0.97585 192 192 192 255 0.068206 0.871445
209.1805 91.22826 41.44818 -0.0006318737 0.1242649 0.9922489 192 192 192 255 0.068206 0.839456
56.11234 322.1929 27.11535 -0.2592061 0.2199397 0.940446 192 192 192 255 0.034587 0.901263
3 1 0 3 
3 1 3 4 
3 1 4 5 
3 19 6 194 
3 6 32 194 
3 194 32 196 
3 196 32 193 
3 32 45 193 
3 8 0 2 
3 8 2 10 
3 68 69 70 
3 68 70 71 
3 71 70 72 
3 71 72 73 
3 204 205 74 
3 204 74 75 
3 14 17 16 
3 10 52 12 
3 9 203 14 
3 14 203 13 
3 203 206 13 
3 206 207 15 
3 206 15 13 
3 15 207 208 
3 15 208 17 
3 11 9 14 
3 11 14 16 
3 144 209 54 
3 144 54 146 
3 110 18 210 
3 110 210 103 
3 98 211 212 
3 98 212 111 
3 8 202 20 
3 20 202 21 
3 213 21 202 
3 213 22 21 
3 2 52 10 
3 19 22 214 
3 215 214 22 
3 215 22 213 
3 216 76 77 
3 216 77 217 
3 76 78 79 
3 76 79 77 
3 20 3 0 
3 20 0 8 
3 24 23 49 
3 24 49 50 
3 1 5 31 
3 1 31 27 
3 218 219 23 
3 218 23 24 
3 219 220 25 
3 219 25 23 
3 25 220 221 
3 25 221 51 
3 27 30 29 
3 27 29 26 
3 31 172 27 
3 172 174 27 
3 27 174 30 
3 19 194 22 
3 45 48 193 
3 48 31 193 
3 31 5 193 
3 22 194 5 
3 194 195 5 
3 195 193 5 
3 34 36 28 
3 34 28 26 
3 80 81 82 
3 80 82 83 
3 81 84 85 
3 81 85 82 
3 222 86 87 
3 222 87 223 
3 40 43 41 
3 40 41 39 
3 36 38 53 
3 35 40 39 
3 35 39 224 
3 224 39 41 
3 224 41 225 
3 41 43 226 
3 41 226 225 
3 37 42 40 
3 37 40 35 
3 227 34 46 
3 227 46 47 
3 227 47 48 
3 45 44 48 
3 228 227 48 
3 228 48 44 
3 229 230 88 
3 229 88 89 
3 89 88 90 
3 89 90 91 
3 46 34 26 
3 46 26 29 
3 231 50 49 
3 231 49 232 
3 232 49 51 
3 232 51 221 
3 24 50 231 
3 24 231 218 
3 33 7 55 
3 233 189 7 
3 190 55 191 
3 55 7 191 
3 7 189 191 
3 53 28 36 
3 53 52 2 
3 53 2 28 
3 55 190 53 
3 233 52 189 
3 190 192 53 
3 53 192 52 
3 192 189 52 
3 54 234 99 
3 54 99 146 
3 4 3 56 
3 4 56 57 
3 5 4 57 
3 5 57 58 
3 3 20 59 
3 3 59 56 
3 20 21 60 
3 20 60 59 
3 21 22 61 
3 21 61 60 
3 29 30 63 
3 29 63 62 
3 30 173 63 
3 63 173 64 
3 173 172 64 
3 172 31 64 
3 46 29 62 
3 46 62 65 
3 47 46 65 
3 47 65 66 
3 48 47 66 
3 48 66 67 
3 235 236 237 
3 235 237 238 
3 239 235 238 
3 239 238 240 
3 236 241 242 
3 236 242 237 
3 241 243 244 
3 241 244 242 
3 243 245 246 
3 243 246 244 
3 247 248 249 
3 247 249 250 
3 248 251 252 
3 248 252 249 
3 253 247 250 
3 253 250 254 
3 255 253 254 
3 255 254 256 
3 257 255 256 
3 257 256 258 
3 259 260 261 
3 259 261 262 
3 263 264 265 
3 263 265 266 
3 263 266 267 
3 268 269 264 
3 268 264 263 
3 265 264 270 
3 259 262 271 
3 272 273 260 
3 272 260 259 
3 261 260 274 
3 93 96 95 
3 93 95 92 
3 97 186 93 
3 186 188 93 
3 93 188 96 
3 275 198 276 
3 276 198 124 
3 198 201 124 
3 201 199 124 
3 199 137 124 
3 100 102 94 
3 100 94 92 
3 160 161 70 
3 160 70 69 
3 161 162 72 
3 161 72 70 
3 204 75 163 
3 204 163 277 
3 106 109 107 
3 106 107 105 
3 102 104 278 
3 101 106 105 
3 101 105 279 
3 279 105 107 
3 279 107 280 
3 107 109 281 
3 107 281 280 
3 282 108 106 
3 282 106 101 
3 283 100 112 
3 283 112 113 
3 283 113 114 
3 94 102 278 
3 275 284 114 
3 285 283 114 
3 285 114 284 
3 286 217 77 
3 286 77 164 
3 164 77 79 
3 164 79 165 
3 112 100 92 
3 112 92 95 
3 116 142 141 
3 116 141 115 
3 93 119 123 
3 93 123 97 
3 287 116 115 
3 287 115 288 
3 288 115 117 
3 288 117 289 
3 117 143 290 
3 117 290 289 
3 119 118 121 
3 119 121 122 
3 119 122 123 
3 275 114 198 
3 114 97 198 
3 97 123 198 
3 137 199 140 
3 198 123 200 
3 123 140 200 
3 140 199 200 
3 126 118 120 
3 126 120 128 
3 166 83 82 
3 166 82 167 
3 85 168 82 
3 168 175 82 
3 175 178 82 
3 178 176 82 
3 167 82 176 
3 222 291 169 
3 222 169 86 
3 132 135 134 
3 128 145 130 
3 127 292 131 
3 127 131 132 
3 292 293 133 
3 292 133 131 
3 133 293 294 
3 133 294 135 
3 129 127 132 
3 129 132 134 
3 295 296 297 
3 295 297 298 
3 299 300 301 
3 299 301 302 
3 303 304 136 
3 303 136 305 
3 306 139 138 
3 306 138 126 
3 306 140 139 
3 137 140 307 
3 308 307 140 
3 308 140 306 
3 309 170 88 
3 309 88 230 
3 170 171 90 
3 170 90 88 
3 138 121 118 
3 138 118 126 
3 310 311 141 
3 310 141 142 
3 311 290 143 
3 311 143 141 
3 287 181 116 
3 116 181 142 
3 181 179 142 
3 179 310 142 
3 125 147 312 
3 313 312 183 
3 183 312 184 
3 182 184 147 
3 147 184 312 
3 314 315 316 
3 314 316 317 
3 318 319 320 
3 318 320 321 
3 297 322 323 
3 297 323 298 
3 145 128 120 
3 94 278 180 
3 278 145 180 
3 120 324 145 
3 145 324 180 
3 147 145 182 
3 278 313 145 
3 182 145 185 
3 145 313 185 
3 313 183 185 
3 323 322 325 
3 323 325 326 
3 96 149 148 
3 96 148 95 
3 96 187 149 
3 149 187 150 
3 187 186 150 
3 97 150 186 
3 95 148 151 
3 95 151 112 
3 112 151 152 
3 112 152 113 
3 113 152 153 
3 113 153 114 
3 121 154 155 
3 121 155 122 
3 122 155 156 
3 122 156 123 
3 138 157 154 
3 138 154 121 
3 139 158 157 
3 139 157 138 
3 140 159 158 
3 140 158 139 
3 327 328 329 
3 327 329 330 
3 331 332 328 
3 331 328 327 
3 330 329 333 
3 330 333 334 
3 334 333 335 
3 334 335 336 
3 336 335 337 
3 336 337 338 
3 339 340 341 
3 339 341 342 
3 343 344 345 
3 341 346 342 
3 346 177 342 
3 342 177 344 
3 177 345 344 
3 347 348 340 
3 347 340 339 
3 349 350 348 
3 349 348 347 
3 351 352 350 
3 351 350 349 
3 353 354 355 
3 353 355 356 
3 357 358 359 
3 357 359 360 
3 357 361 358 
3 268 357 360 
3 268 360 269 
3 359 362 360 
3 353 363 354 
3 272 353 356 
3 272 356 273 
3 355 364 356 
3 365 366 367 
3 365 367 368 
3 367 209 144 
3 367 144 368 
3 369 370 371 
3 369 371 372 
3 210 373 374 
3 210 374 103 
3 212 18 110 
3 212 110 111 
3 375 376 304 
3 375 304 303 
3 305 136 300 
3 305 300 299 
3 302 301 377 
3 302 377 378 
3 377 296 295 
3 377 295 378 
3 115 141 143 
3 115 143 117 
3 106 108 109 
3 132 131 133 
3 132 133 135 
3 49 23 25 
3 49 25 51 
3 14 13 15 
3 14 15 17 
3 40 42 43 
3 30 174 173 
3 173 174 172 
3 178 379 176 
3 175 379 178 
3 380 180 324 
3 94 180 380 
3 185 184 182 
3 183 184 185 
3 96 188 187 
3 187 188 186 
3 192 191 189 
3 190 191 192 
3 197 195 194 
3 381 382 383 
3 383 382 384 
3 193 195 197 
3 198 200 201 
3 201 200 199 
3 385 202 8 
3 213 202 385 
