ply
format ascii 1.0
comment VCGLIB generated
comment TextureFile Dungeons_2_Texture_01_A.png
element vertex 36
property float x
property float y
property float z
property float nx
property float ny
property float nz
property uchar red
property uchar green
property uchar blue
property uchar alpha
property float texture_u
property float texture_v
element face 40
property list uchar int vertex_indices
end_header
11.79893 -12.05474 414.8844 -0.492763 -0.5247571 -0.6941288 192 192 192 255 0.008001 0.547812
15.59615 468.6687 13.82529 -0.2976839 -0.4858738 -0.8217731 192 192 192 255 0.010581 0.991685
359.7938 207.8077 120.7937 -0.288994 -0.4879856 -0.8236216 192 192 192 255 0.686712 0.833395
114.5154 84.95007 268.6309 -0.3039926 -0.597389 -0.7421017 192 192 192 255 0.174367 0.657556
15.59615 258.4203 207.7114 -0.4927709 -0.5247639 -0.694118 192 192 192 255 0.009257 0.763873
15.59615 303.28 96.74475 -0.4200352 -0.5531813 -0.719417 192 192 192 255 0.009877 0.870619
279.776 174.6349 158.2027 -0.09352451 -0.5476199 -0.831484 192 192 192 255 0.528999 0.779267
364.0539 368.4031 13.82529 -0.3845523 -0.4290265 -0.8173469 192 192 192 255 0.695999 0.989548
256.3226 504.3488 13.82529 0.03200879 -0.3593256 -0.9326631 192 192 192 255 0.484091 0.990208
109.8846 385.7557 13.82529 0.2841951 -0.3510426 -0.8921896 192 192 192 255 0.196047 0.991107
73.72549 269.9381 110.2678 -0.06911247 -0.6575156 -0.7502645 192 192 192 255 0.124103 0.850518
196.575 295.8597 76.81268 0.1709315 -0.4240456 -0.8893637 192 192 192 255 0.366033 0.898611
174.5284 216.3566 147.9476 -0.1324794 -0.6386476 -0.7580095 192 192 192 255 0.302792 0.819074
265.6668 347.0082 71.34769 -0.1623493 -0.4335454 -0.8863866 192 192 192 255 0.501983 0.906166
441.7267 272.6906 73.88904 -0.2655284 -0.5588917 -0.7855792 192 192 192 255 0.848272 0.901375
444.3556 371.1439 13.82529 -0.5125107 -0.5371639 -0.6699162 192 192 192 255 0.853953 0.989055
494.392 297.1785 14.04576 -0.7083231 -0.4807093 -0.516911 192 192 192 255 0.978266 0.956073
481.2362 302.8282 -8.277802 -0.7083231 -0.4807093 -0.516911 192 192 192 255 0.952578 0.988747
11.79893 -12.05474 414.8844 0.492763 0.5247571 0.6941288 192 192 192 255 0.008001 0.547812
15.59615 468.6687 13.82529 0.2976839 0.4858738 0.8217731 192 192 192 255 0.010581 0.991685
359.7938 207.8077 120.7937 0.288994 0.4879856 0.8236216 192 192 192 255 0.686712 0.833395
114.5154 84.95007 268.6309 0.3039926 0.597389 0.7421017 192 192 192 255 0.174367 0.657556
15.59615 258.4203 207.7114 0.4927709 0.5247639 0.694118 192 192 192 255 0.009257 0.763873
15.59615 303.28 96.74475 0.4200352 0.5531813 0.719417 192 192 192 255 0.009877 0.870619
279.776 174.6349 158.2027 0.09352451 0.5476199 0.831484 192 192 192 255 0.528999 0.779267
364.0539 368.4031 13.82529 0.3845523 0.4290265 0.8173469 192 192 192 255 0.695999 0.989548
256.3226 504.3488 13.82529 -0.03200879 0.3593256 0.9326631 192 192 192 255 0.484091 0.990208
109.8846 385.7557 13.82529 -0.2841951 0.3510426 0.8921896 192 192 192 255 0.196047 0.991107
73.72549 269.9381 110.2678 0.06911247 0.6575156 0.7502645 192 192 192 255 0.124103 0.850518
196.575 295.8597 76.81268 -0.1709315 0.4240456 0.8893637 192 192 192 255 0.366033 0.898611
174.5284 216.3566 147.9476 0.1324794 0.6386476 0.7580095 192 192 192 255 0.302792 0.819074
265.6668 347.0082 71.34769 0.1623493 0.4335454 0.8863866 192 192 192 255 0.501983 0.906166
441.7267 272.6906 73.88904 0.2655284 0.5588917 0.7855792 192 192 192 255 0.848272 0.901375
444.3556 371.1439 13.82529 0.5125107 0.5371639 0.6699162 192 192 192 255 0.853953 0.989055
494.392 297.1785 14.04576 0.7083231 0.4807093 0.516911 192 192 192 255 0.978266 0.956073
481.2362 302.8282 -8.277802 0.7083231 0.4807093 0.516911 192 192 192 255 0.952578 0.988747
3 0 4 3 
3 11 8 13 
3 12 6 3 
3 7 15 14 
3 7 14 2 
3 8 7 13 
3 5 1 9 
3 5 9 10 
3 4 5 10 
3 4 10 3 
3 9 8 11 
3 11 6 12 
3 9 11 12 
3 9 12 10 
3 10 12 3 
3 11 13 6 
3 7 2 13 
3 15 17 16 
3 15 16 14 
3 2 6 13 
3 18 21 22 
3 29 31 26 
3 30 21 24 
3 25 20 32 
3 25 32 33 
3 26 31 25 
3 23 28 27 
3 23 27 19 
3 22 21 28 
3 22 28 23 
3 27 29 26 
3 29 30 24 
3 27 28 30 
3 27 30 29 
3 28 21 30 
3 29 24 31 
3 25 31 20 
3 33 32 34 
3 33 34 35 
3 20 31 24 
