ply
format ascii 1.0
comment VCGLIB generated
comment TextureFile Dungeons_2_Texture_01_A.png
element vertex 280
property float x
property float y
property float z
property float nx
property float ny
property float nz
property uchar red
property uchar green
property uchar blue
property uchar alpha
property float texture_u
property float texture_v
element face 344
property list uchar int vertex_indices
end_header
-18.80048 14.78967 -8.644012 -0.002624726 0.00511242 -0.9999835 192 192 192 255 0.171871 0.601408
-18.80048 15.55597 8.725464 0.002752163 0.005237387 0.9999825 192 192 192 255 0.171871 0.60193
-38.32935 56.95988 -8.644012 -0.4117989 -0.3535293 -0.839904 192 192 192 255 0.158576 0.630116
-38.32935 25.84653 -8.644012 -0.6783958 0.2621517 -0.6863349 192 192 192 255 0.158576 0.608935
-38.32935 26.576 8.725464 -0.531261 0.4527252 0.7161018 192 192 192 255 0.158576 0.609432
-38.32935 56.58956 8.725403 -0.7348662 -0.3589014 0.5754663 192 192 192 255 0.158576 0.629864
-11.77945 26.00002 8.725464 -0.004388468 0.003672143 0.9999837 192 192 192 255 0.17665 0.60904
-11.77945 26.00014 -8.644012 -0.004555664 0.001789644 -0.9999881 192 192 192 255 0.17665 0.60904
0.208984 75.21707 -8.644012 0.1267888 -0.002011925 -0.9919277 192 192 192 255 0.185348 0.874851
0 1.5e-05 8.725494 0.003237034 -0.00162195 0.9999935 192 192 192 255 0.185199 0.821138
0 0 -8.644012 0.000266058 -0.0005324561 -0.9999998 192 192 192 255 0.185199 0.821138
-45.35034 66.64601 8.725372 0.1824667 -0.3935218 0.9010253 192 192 192 255 0.153797 0.636709
-52.3714 56.59688 8.725403 0.3999439 -0.3636023 0.8413312 192 192 192 255 0.149017 0.629869
-52.3714 56.36147 -8.644012 0.8247098 -0.3854377 -0.4138738 192 192 192 255 0.149017 0.629708
-45.35034 65.77222 -8.644012 -0.1488257 -0.3336172 -0.9308869 192 192 192 255 0.153797 0.636115
-25.82153 26.20684 -8.644012 0.6132601 0.4952132 -0.6153665 192 192 192 255 0.167091 0.609181
-25.82153 56.35774 -8.644012 0.8348863 -0.3493848 -0.4253178 192 192 192 255 0.167091 0.629706
-25.82153 55.89962 8.725403 0.5028581 -0.463977 0.7292867 192 192 192 255 0.167091 0.629394
-25.82153 26.26218 8.725464 0.8033792 0.3131804 0.5064582 192 192 192 255 0.167091 0.609218
-11.77945 56.57032 -8.644012 -0.003794941 -0.003312774 -0.9999873 192 192 192 255 0.17665 0.62985
-11.77945 55.85752 8.725403 -0.007398755 -0.003356383 0.999967 192 192 192 255 0.17665 0.629365
-0.017761 75.33035 8.725372 0.04012598 -0.001334921 0.9991937 192 192 192 255 0.185186 0.874932
-0.012207 75.34485 -13.74911 0.9975435 -0.03422328 -0.06112156 192 192 192 255 0.18519 0.874942
-0.010529 86.80939 -13.74911 0.9969757 0.01676027 -0.07588578 192 192 192 255 0.185192 0.883129
-18.80048 67.60747 8.725372 0.003063607 -0.005697274 0.9999791 192 192 192 255 0.171871 0.637364
-18.80048 67.29359 -8.644012 -0.003223837 -0.006045061 -0.9999766 192 192 192 255 0.171871 0.63715
-0.012207 86.80939 13.74911 0.9993013 0.03398949 0.01554752 192 192 192 255 0.18519 0.883129
-0.010529 75.34485 13.74911 0.999297 -0.01720411 0.03331198 192 192 192 255 0.185192 0.874942
-64.87921 56.75945 8.725403 -0.8299019 -0.3633916 0.4233314 192 192 192 255 0.140503 0.629979
-71.90027 67.70242 8.725372 0.8392333 -0.5399706 0.06418204 192 192 192 255 0.135723 0.637429
-71.90027 67.03857 -8.644012 0.8362195 -0.5474924 -0.03144755 192 192 192 255 0.135723 0.636977
-64.87921 56.67569 -8.644012 -0.4159473 -0.3599554 -0.8351167 192 192 192 255 0.140503 0.629922
-52.3714 25.92493 -8.644012 0.5197046 0.433903 -0.7359589 192 192 192 255 0.149017 0.608989
-52.3714 26.11197 8.725464 0.8000322 0.3260773 0.5036092 192 192 192 255 0.149017 0.609116
-87.36334 56.29272 8.725403 0.1430981 -0.2075079 0.9677104 192 192 192 255 0.122813 0.861337
-78.92126 56.23644 -8.644012 0.8319435 -0.3827383 -0.4017231 192 192 192 255 0.130944 0.629623
-64.87921 26.01489 -8.644012 -0.7997128 0.3056763 -0.5167412 192 192 192 255 0.140503 0.60905
-64.87921 26.06484 8.725464 -0.5348516 0.453085 0.7131955 192 192 192 255 0.140503 0.609084
-45.35034 14.74779 -8.644012 -0.187105 0.366778 -0.9112989 192 192 192 255 0.153797 0.60138
-45.35034 16.20458 8.725464 0.1576423 0.3152829 0.9358128 192 192 192 255 0.153797 0.602372
-91.42908 56.14628 8.725403 -0.08210562 -0.04976929 0.9953802 192 192 192 255 0.122429 0.629562
-98.45013 66.24852 8.725372 0.003687643 -0.00788425 0.9999622 192 192 192 255 0.117649 0.636439
-98.45013 67.20678 -8.644012 -0.003236154 -0.006399071 -0.9999743 192 192 192 255 0.117649 0.637091
-91.42908 56.12331 -8.644012 -0.4217529 -0.3966858 -0.8153312 192 192 192 255 0.122429 0.629546
-78.92126 26.27822 -8.644012 0.5264575 0.4430518 -0.725636 192 192 192 255 0.130944 0.609229
-78.92126 25.80224 8.725464 0.7976603 0.2898868 0.5288702 192 192 192 255 0.130944 0.608905
-105.4711 56.67851 8.725403 0.01037113 -0.009279146 0.9999032 192 192 192 255 0.11287 0.629924
-105.4711 56.94465 -8.644012 0.8220986 -0.382108 -0.4220752 192 192 192 255 0.11287 0.630105
-91.42908 25.59936 -8.644012 -0.7968336 0.3236752 -0.5101869 192 192 192 255 0.122429 0.608767
-91.42908 25.72906 8.725464 -0.5195318 0.4203233 0.7439187 192 192 192 255 0.122429 0.608855
-71.90027 15.10277 -8.644012 -0.15707 0.3067719 -0.9387332 192 192 192 255 0.135723 0.601622
-71.90027 15.40749 8.725464 0.1573205 0.3072374 0.938539 192 192 192 255 0.135723 0.601829
-117.9789 56.36228 8.725403 -0.8336638 -0.3634478 0.415825 192 192 192 255 0.104355 0.629709
-120.9407 60.52855 8.725388 -0.758506 0.6052082 0.2416441 192 192 192 255 0.102339 0.632545
-123.0347 64.44697 -8.644012 -0.9406121 0.2302874 -0.2494325 192 192 192 255 0.09734 0.86716
-117.9789 56.22248 -8.644012 -0.4050385 -0.37062 -0.8358138 192 192 192 255 0.10095 0.861287
-105.4711 25.52688 -8.644012 0.5184726 0.4299077 -0.7391654 192 192 192 255 0.11287 0.608718
-105.4711 26.17865 8.725464 0.7924302 0.3302511 0.5128242 192 192 192 255 0.11287 0.609161
-117.9789 25.78331 -8.644012 -0.7996163 0.2921679 -0.5246445 192 192 192 255 0.104355 0.608892
-117.9789 26.32997 8.725464 -0.540713 0.4477153 0.7121661 192 192 192 255 0.104355 0.609264
-98.45013 16.31244 -8.644012 -0.1514807 0.3267279 -0.9329001 192 192 192 255 0.117649 0.602445
-98.45013 15.43941 8.725464 0.153152 0.3226195 0.9340563 192 192 192 255 0.117649 0.601851
-132.0211 25.97952 -8.644012 0.5349309 0.4579163 -0.7100434 192 192 192 255 0.094796 0.609026
-132.0211 26.07157 8.725464 0.7994456 0.3185209 0.5093439 192 192 192 255 0.094796 0.609088
-144.5288 25.89361 8.725464 -0.526505 0.4535588 0.7190806 192 192 192 255 0.086282 0.608967
-144.5288 26.50064 -8.644012 -0.7982414 0.3341878 -0.501128 192 192 192 255 0.086282 0.609381
-125 14.95536 -8.644012 -0.0002688011 0.0005148294 -0.9999998 192 192 192 255 0.099576 0.601521
-125 15.16467 8.725464 0.1346304 0.2586256 0.9565498 192 192 192 255 0.099576 0.601664
-158.5709 26.56753 8.725464 0.7964383 0.3097361 0.5193741 192 192 192 255 0.076722 0.609426
-158.5709 26.42895 -8.644012 0.6015477 0.5376166 -0.5908544 192 192 192 255 0.076722 0.609332
-171.0787 25.8244 8.725464 -0.8460812 0.5319352 0.03451845 192 192 192 255 0.068208 0.60892
-166.067 26.10931 -8.644012 -0.3719895 0.3781442 -0.8477209 192 192 192 255 0.066611 0.839783
-151.5499 16.15835 -8.644012 -0.006088466 0.01249029 -0.9999035 192 192 192 255 0.081502 0.60234
-151.5499 15.6461 8.725464 0.156765 0.3108694 0.9374353 192 192 192 255 0.081502 0.601991
-178.0997 15.29119 -8.644012 -0.2766787 0.1756777 -0.9447678 192 192 192 255 0.063428 0.60175
-178.0997 14.66772 8.725464 -0.4185585 0.2680495 0.8677317 192 192 192 255 0.063428 0.601325
-0.013306 56.43683 8.725403 0.01349897 -0.005482027 0.9998939 192 192 192 255 0.18519 0.86144
0.156799 56.43634 -8.644012 0.01334574 -0.002405487 -0.9999081 192 192 192 255 0.185311 0.861439
0.072266 26.00531 -8.644012 0.009667781 0.003658706 -0.9999466 192 192 192 255 0.185251 0.839709
-0.006134 26.00531 8.725464 0.009749701 0.001876579 0.9999507 192 192 192 255 0.185195 0.839709
-38.32935 53.07701 -6.5952 -0.8956436 -0.1352584 -0.4237073 192 192 192 255 0.158576 0.627472
-38.32935 29.31295 -6.5952 -0.7101442 0.309748 -0.632259 192 192 192 255 0.158576 0.611295
-38.32935 29.47671 6.676651 -0.7164744 0.1639485 0.6780747 192 192 192 255 0.158576 0.611406
-38.32935 53.34432 6.676605 -0.469525 -0.2791812 0.8376182 192 192 192 255 0.158576 0.627654
-25.82153 28.97508 -6.5952 0.8068066 0.1320442 -0.575871 192 192 192 255 0.167091 0.611065
-25.82153 52.91166 -6.5952 0.599612 -0.2495148 -0.7603998 192 192 192 255 0.167091 0.62736
-25.82153 53.30842 6.676605 0.8365589 -0.1971498 0.5111763 192 192 192 255 0.167091 0.62763
-25.82153 29.13287 6.676651 0.5748925 0.342874 0.742924 192 192 192 255 0.167091 0.611172
-11.77917 53.16571 -6.5952 -0.8100618 -0.1093329 -0.5760611 192 192 192 255 0.17665 0.627533
-11.7753 28.92023 -6.5952 -0.5712868 0.3248067 -0.7537453 192 192 192 255 0.176653 0.611028
-11.77527 28.73869 6.676651 -0.8125994 0.1183864 0.5706725 192 192 192 255 0.176653 0.610904
-11.77911 53.56969 6.676605 -0.5690012 -0.3526771 0.7428705 192 192 192 255 0.176651 0.627808
0.155182 53.43634 -6.595184 0.7237036 -0.2602341 -0.6391645 192 192 192 255 0.184775 0.627717
0.078339 29.00531 -6.5952 0.7236804 0.1361053 -0.6765811 192 192 192 255 0.184722 0.611086
-3.1e-05 29.00531 6.676651 0.718241 0.2784083 0.6376665 192 192 192 255 0.185199 0.841851
-0.014862 53.43683 6.676636 0.7217271 -0.1473457 0.676313 192 192 192 255 0.185188 0.859298
-52.3714 29.5194 -6.5952 0.9011036 0.1232754 -0.4157108 192 192 192 255 0.149017 0.611436
-52.3714 53.25507 -6.5952 0.4599337 -0.2403719 -0.8547996 192 192 192 255 0.149017 0.627594
-52.3714 52.9062 6.676605 0.9001118 -0.1162438 0.4198645 192 192 192 255 0.149017 0.627356
-52.3714 29.02856 6.676651 0.4624009 0.2783917 0.8418334 192 192 192 255 0.149017 0.611101
-64.87921 53.07235 -6.5952 -0.9011708 -0.1173401 -0.4172797 192 192 192 255 0.140503 0.627469
-64.87921 28.72141 -6.5952 -0.4680187 0.251245 -0.8472512 192 192 192 255 0.140503 0.610892
-64.87921 28.66599 6.676651 -0.9037856 0.1343763 0.4063429 192 192 192 255 0.140503 0.610855
-64.87921 53.61796 6.676605 -0.467037 -0.2359349 0.8521802 192 192 192 255 0.140503 0.627841
-78.92126 28.94887 -6.5952 0.9017088 0.1282251 -0.4128917 192 192 192 255 0.130944 0.611047
-78.92126 53.04987 -6.5952 0.4601261 -0.2819788 -0.841886 192 192 192 255 0.130944 0.627454
-78.92126 53.63604 6.676605 0.3344549 -0.07132499 0.9397088 192 192 192 255 0.130944 0.627853
-78.92126 29.58514 6.676651 0.4567184 0.2222188 0.86141 192 192 192 255 0.130944 0.61148
-91.42908 53.87966 -6.5952 -0.9043131 -0.1355722 -0.4047692 192 192 192 255 0.122429 0.628019
-91.42908 28.88918 -6.5952 -0.4699138 0.2617959 -0.842997 192 192 192 255 0.122429 0.611006
-91.42908 29.35961 6.676651 -0.9003087 0.1087229 0.4214541 192 192 192 255 0.122429 0.611327
-91.42908 52.8959 6.676605 -0.5632666 -0.1547314 0.8116582 192 192 192 255 0.122429 0.627349
-105.4711 29.62138 -6.5952 0.9000476 0.1141802 -0.4205678 192 192 192 255 0.11287 0.611505
-105.4711 53.6953 -6.5952 0.01469322 -0.007799751 -0.9998617 192 192 192 255 0.11287 0.627893
-105.4711 52.8792 6.676605 0.9008095 -0.1171438 0.4181143 192 192 192 255 0.11287 0.627338
-105.4711 29.55666 6.676651 0.4581838 0.2760918 0.8448911 192 192 192 255 0.11287 0.611461
-117.9789 53.17484 -6.5952 -0.2260916 -0.05038865 -0.9728019 192 192 192 255 0.104355 0.627539
-117.9789 28.67869 -6.5952 -0.9859305 0.04658721 -0.1605325 192 192 192 255 0.104355 0.610863
-117.9789 28.55143 6.676651 -0.9999239 0.003832779 0.011729 192 192 192 255 0.104355 0.610777
-117.9789 53.42303 6.676605 -0.4625467 -0.2391884 0.853721 192 192 192 255 0.104355 0.627708
-132.0211 28.95683 -6.5952 0.7725579 0.003662543 -0.6349339 192 192 192 255 0.094796 0.611053
-132.0211 48.76088 -6.5952 0.6944457 0.1825265 -0.6960096 192 192 192 255 0.094796 0.624534
-132.0211 52.07669 6.676605 -0.1405442 0.2709751 0.9522709 192 192 192 255 0.094796 0.626791
-132.0211 28.9464 6.676651 0.01395312 0.008310256 0.9998682 192 192 192 255 0.094796 0.611046
-144.5288 28.64504 6.676651 -0.999911 0.004130666 0.01268839 192 192 192 255 0.086282 0.61084
-144.5288 39.23069 6.676605 -0.9788834 0.1106804 0.1718639 192 192 192 255 0.086282 0.618047
-144.5288 43.31043 -6.5952 -0.6202229 0.7837405 -0.03277685 192 192 192 255 0.086282 0.620824
-144.5288 28.75664 -6.5952 -0.9998021 0.008591759 -0.01794148 192 192 192 255 0.086282 0.610916
-158.5709 29.12584 6.676651 0.9005299 0.209413 0.3810411 192 192 192 255 0.076722 0.611168
-158.5709 29.07845 -6.5952 0.7211298 0.1491107 -0.6765632 192 192 192 255 0.076722 0.611135
-171.0787 29.53953 6.676651 -0.9190391 0.3709528 0.1332709 192 192 192 255 0.068208 0.611449
-171.0787 28.48874 -6.5952 -0.9794012 0.003186013 -0.2018989 192 192 192 255 0.068208 0.610734
-75.43164 62.11658 8.725388 0.7424309 -0.5770882 0.3402436 192 192 192 255 0.133319 0.633626
-78.92126 56.55673 6.794113 0.2431508 -0.3185508 0.9161894 192 192 192 255 0.130944 0.629841
-37.34848 39.53363 -6.5952 -0.4452025 0.009832019 -0.895376 192 192 192 255 0.158576 0.61766
-37.51996 36.55672 6.676636 -0.8950437 0.01976734 0.4455402 192 192 192 255 0.158576 0.616948
-26.8024 45.65692 -6.5952 0.7036274 -0.02623557 -0.7100846 192 192 192 255 0.167091 0.623014
-26.63092 46.5425 6.67662 0.7067433 -0.02635041 0.7069792 192 192 192 255 0.167091 0.622302
-115.4738 42.39719 -6.5952 -0.3771015 0 -0.926172 192 192 192 255 0.106061 0.620202
-117.9789 39.95043 -3.296265 -0.9667055 0 -0.2558917 192 192 192 255 0.104355 0.618536
-174.8001 20.27494 -8.644012 -0.09240685 0.1296061 -0.9872504 192 192 192 255 0.065674 0.605142
-171.0787 25.8864 -6.399139 -0.4210217 0.3894337 -0.819196 192 192 192 255 0.068208 0.608962
-109.6024 86.80939 13.74911 -0.7197375 0.1757255 0.6716386 192 192 192 255 0.106932 0.883129
-112.1078 75.34485 13.74911 -0.7232654 0.1329485 0.6776517 192 192 192 255 0.105143 0.874942
-116.1082 86.80939 -13.74911 -0.9198273 0.3147204 -0.2342413 192 192 192 255 0.126828 0.793197
-116.7302 75.33035 8.725372 -0.3238708 0.02697515 0.9457167 192 192 192 255 0.101842 0.874932
-119.6092 75.34485 -13.74911 -0.9279902 0.2675363 -0.2593424 192 192 192 255 0.099786 0.874942
-120.8983 75.21707 -8.644012 -0.7228711 0.1574744 -0.6727995 192 192 192 255 0.098866 0.874851
-115.7796 66.90945 8.725372 -0.200774 0.05711243 0.9779714 192 192 192 255 0.102521 0.868918
-171.0787 33.60586 -6.5952 -0.9209598 0.376965 0.09864318 192 192 192 255 0.068208 0.614217
-167.3159 33.77095 6.676636 -0.5859026 0.7771361 0.229734 192 192 192 255 0.070769 0.61433
-158.5709 36.56841 -6.5952 0.5572807 0.7421963 -0.3722673 192 192 192 255 0.076722 0.616234
-159.9696 35.51097 6.676636 0.4224014 0.7952261 0.4349627 192 192 192 255 0.07577 0.615514
-158.5709 37.07633 2.0383 0.434337 0.8099509 0.3941205 192 192 192 255 0.076722 0.61658
-183.4251 23.66119 8.725464 0.002268517 0.007841692 0.9999667 192 192 192 255 0.054215 0.838035
-183.5001 23.27445 -8.644012 0.005217727 0.01803637 -0.9998237 192 192 192 255 0.059752 0.607184
-198.7505 15.16763 8.725464 -0.5517796 0.3292547 0.7662446 192 192 192 255 0.043271 0.831969
-199.1926 16.97707 -8.644012 -0.533509 0.3439493 -0.7727011 192 192 192 255 0.042956 0.833262
-207.0811 1.5e-05 8.725494 -0.8829688 0.4222821 0.2050459 192 192 192 255 0.037322 0.821138
-209.4072 0 -8.644012 -0.05217116 0.02520017 -0.9983202 192 192 192 255 0.035661 0.821138
-202.9737 5.15892 8.725479 -0.4683837 0.2572544 0.8452437 192 192 192 255 0.040256 0.824822
-207.7061 3.120271 -1.050949 -0.8594919 0.4958658 0.1240599 192 192 192 255 0.255801 0.763449
-132.0211 53.22308 -0.231445 0.8033318 0.5815849 -0.1281291 192 192 192 255 0.094796 0.627572
-137.2767 48.95279 -6.5952 -0.3246833 0.6119049 -0.7212164 192 192 192 255 0.091218 0.624665
-144.5288 43.46735 3.751205 -0.6687313 0.7160454 0.2001933 192 192 192 255 0.086282 0.620931
-137.9904 48.69108 6.676605 -0.2729978 0.3232923 0.9060654 192 192 192 255 0.090732 0.624487
-0.012207 86.80939 13.74911 0.9993013 0.03398949 0.01554752 192 192 192 255 0.229959 0.76877
-0.010529 86.80939 -13.74911 0.9969757 0.01676027 -0.07588578 192 192 192 255 0.229961 0.793197
-109.6024 86.80939 13.74911 -0.7197375 0.1757255 0.6716386 192 192 192 255 0.132607 0.76877
-116.1082 86.80939 -13.74911 -0.9198273 0.3147204 -0.2342413 192 192 192 255 0.102286 0.883129
-11.77945 55.85752 8.725403 -0.007398755 -0.003356383 0.999967 192 192 192 255 0.176787 0.861026
-18.80048 67.60747 8.725372 0.003063607 -0.005697274 0.9999791 192 192 192 255 0.171774 0.869417
-75.43164 62.11658 8.725388 0.7424309 -0.5770882 0.3402436 192 192 192 255 0.131333 0.865496
-71.90027 67.70242 8.725372 0.8392333 -0.5399706 0.06418204 192 192 192 255 0.133855 0.869485
-98.45013 66.24852 8.725372 0.003687643 -0.00788425 0.9999622 192 192 192 255 0.114896 0.868446
-91.42908 56.14628 8.725403 -0.08210562 -0.04976929 0.9953802 192 192 192 255 0.11991 0.861232
-64.87921 56.75945 8.725403 -0.8299019 -0.3633916 0.4233314 192 192 192 255 0.138869 0.86167
-52.3714 56.59688 8.725403 0.3999439 -0.3636023 0.8413312 192 192 192 255 0.147801 0.861554
-45.35034 66.64601 8.725372 0.1824667 -0.3935218 0.9010253 192 192 192 255 0.152814 0.86873
-38.32935 56.58956 8.725403 -0.7348662 -0.3589014 0.5754663 192 192 192 255 0.157828 0.861549
-25.82153 55.89962 8.725403 0.5028581 -0.463977 0.7292867 192 192 192 255 0.16676 0.861056
-11.77945 56.57032 -8.644012 -0.003794941 -0.003312774 -0.9999873 192 192 192 255 0.176787 0.861535
-18.80048 67.29359 -8.644012 -0.003223837 -0.006045061 -0.9999766 192 192 192 255 0.171774 0.869193
-71.90027 67.03857 -8.644012 0.8362195 -0.5474924 -0.03144755 192 192 192 255 0.133855 0.86901
-98.45013 67.20678 -8.644012 -0.003236154 -0.006399071 -0.9999743 192 192 192 255 0.114896 0.869131
-25.82153 56.35774 -8.644012 0.8348863 -0.3493848 -0.4253178 192 192 192 255 0.16676 0.861383
-38.32935 56.95988 -8.644012 -0.4117989 -0.3535293 -0.839904 192 192 192 255 0.157828 0.861813
-45.35034 65.77222 -8.644012 -0.1488257 -0.3336172 -0.9308869 192 192 192 255 0.152814 0.868106
-52.3714 56.36147 -8.644012 0.8247098 -0.3854377 -0.4138738 192 192 192 255 0.147801 0.861386
-64.87921 56.67569 -8.644012 -0.4159473 -0.3599554 -0.8351167 192 192 192 255 0.138869 0.86161
-78.92126 56.23644 -8.644012 0.8319435 -0.3827383 -0.4017231 192 192 192 255 0.128841 0.861297
-91.42908 56.12331 -8.644012 -0.4217529 -0.3966858 -0.8153312 192 192 192 255 0.11991 0.861216
-105.4711 56.94465 -8.644012 0.8220986 -0.382108 -0.4220752 192 192 192 255 0.109882 0.861802
-11.77945 26.00002 8.725464 -0.004388468 0.003672143 0.9999837 192 192 192 255 0.176787 0.839705
-18.80048 15.55597 8.725464 0.002752163 0.005237387 0.9999825 192 192 192 255 0.171774 0.832247
-98.45013 15.43941 8.725464 0.153152 0.3226195 0.9340563 192 192 192 255 0.114896 0.832164
-125 15.16467 8.725464 0.1346304 0.2586256 0.9565498 192 192 192 255 0.095937 0.831967
-71.90027 15.40749 8.725464 0.1573205 0.3072374 0.938539 192 192 192 255 0.133855 0.832141
-25.82153 26.26218 8.725464 0.8033792 0.3131804 0.5064582 192 192 192 255 0.16676 0.839892
-38.32935 26.576 8.725464 -0.531261 0.4527252 0.7161018 192 192 192 255 0.157828 0.840116
-45.35034 16.20458 8.725464 0.1576423 0.3152829 0.9358128 192 192 192 255 0.152814 0.83271
-52.3714 26.11197 8.725464 0.8000322 0.3260773 0.5036092 192 192 192 255 0.147801 0.839785
-64.87921 26.06484 8.725464 -0.5348516 0.453085 0.7131955 192 192 192 255 0.138869 0.839751
-78.92126 25.80224 8.725464 0.7976603 0.2898868 0.5288702 192 192 192 255 0.128841 0.839564
-91.42908 25.72906 8.725464 -0.5195318 0.4203233 0.7439187 192 192 192 255 0.11991 0.839511
-105.4711 26.17865 8.725464 0.7924302 0.3302511 0.5128242 192 192 192 255 0.109882 0.839832
-117.9789 26.32997 8.725464 -0.540713 0.4477153 0.7121661 192 192 192 255 0.10095 0.83994
-132.0211 26.07157 8.725464 0.7994456 0.3185209 0.5093439 192 192 192 255 0.090923 0.839756
-144.5288 25.89361 8.725464 -0.526505 0.4535588 0.7190806 192 192 192 255 0.081991 0.839629
-151.5499 15.6461 8.725464 0.156765 0.3108694 0.9374353 192 192 192 255 0.076977 0.832311
-178.0997 14.66772 8.725464 -0.4185585 0.2680495 0.8677317 192 192 192 255 0.058018 0.831612
-158.5709 26.56753 8.725464 0.7964383 0.3097361 0.5193741 192 192 192 255 0.071964 0.84011
-171.0787 25.8244 8.725464 -0.8460812 0.5319352 0.03451845 192 192 192 255 0.063032 0.839579
-178.0997 15.29119 -8.644012 -0.2766787 0.1756777 -0.9447678 192 192 192 255 0.058018 0.832058
-11.77945 26.00014 -8.644012 -0.004555664 0.001789644 -0.9999881 192 192 192 255 0.176787 0.839705
-18.80048 14.78967 -8.644012 -0.002624726 0.00511242 -0.9999835 192 192 192 255 0.171774 0.8317
-174.8001 20.27494 -8.644012 -0.09240685 0.1296061 -0.9872504 192 192 192 255 0.060374 0.835617
-151.5499 16.15835 -8.644012 -0.006088466 0.01249029 -0.9999035 192 192 192 255 0.076977 0.832677
-158.5709 26.42895 -8.644012 0.6015477 0.5376166 -0.5908544 192 192 192 255 0.071964 0.840011
-144.5288 26.50064 -8.644012 -0.7982414 0.3341878 -0.501128 192 192 192 255 0.081991 0.840062
-132.0211 25.97952 -8.644012 0.5349309 0.4579163 -0.7100434 192 192 192 255 0.090923 0.83969
-125 14.95536 -8.644012 -0.0002688011 0.0005148294 -0.9999998 192 192 192 255 0.095937 0.831818
-117.9789 25.78331 -8.644012 -0.7996163 0.2921679 -0.5246445 192 192 192 255 0.10095 0.83955
-105.4711 25.52688 -8.644012 0.5184726 0.4299077 -0.7391654 192 192 192 255 0.109882 0.839367
-98.45013 16.31244 -8.644012 -0.1514807 0.3267279 -0.9329001 192 192 192 255 0.114896 0.832787
-71.90027 15.10277 -8.644012 -0.15707 0.3067719 -0.9387332 192 192 192 255 0.133855 0.831923
-91.42908 25.59936 -8.644012 -0.7968336 0.3236752 -0.5101869 192 192 192 255 0.11991 0.839419
-78.92126 26.27822 -8.644012 0.5264575 0.4430518 -0.725636 192 192 192 255 0.128841 0.839903
-64.87921 26.01489 -8.644012 -0.7997128 0.3056763 -0.5167412 192 192 192 255 0.138869 0.839716
-52.3714 25.92493 -8.644012 0.5197046 0.433903 -0.7359589 192 192 192 255 0.147801 0.839651
-45.35034 14.74779 -8.644012 -0.187105 0.366778 -0.9112989 192 192 192 255 0.152814 0.83167
-38.32935 25.84653 -8.644012 -0.6783958 0.2621517 -0.6863349 192 192 192 255 0.157828 0.839595
-25.82153 26.20684 -8.644012 0.6132601 0.4952132 -0.6153665 192 192 192 255 0.16676 0.839853
0.078339 29.00531 -6.5952 0.7236804 0.1361053 -0.6765811 192 192 192 255 0.185255 0.841851
0.155182 53.43634 -6.595184 0.7237036 -0.2602341 -0.6391645 192 192 192 255 0.18531 0.859297
-3.1e-05 29.00531 6.676651 0.718241 0.2784083 0.6376665 192 192 192 255 0.184669 0.611086
-0.014862 53.43683 6.676636 0.7217271 -0.1473457 0.676313 192 192 192 255 0.184659 0.627717
0.156799 56.43634 -8.644012 0.01334574 -0.002405487 -0.9999081 192 192 192 255 0.184776 0.629759
0.072266 26.00531 -8.644012 0.009667781 0.003658706 -0.9999466 192 192 192 255 0.184718 0.609043
-0.006134 26.00531 8.725464 0.009749701 0.001876579 0.9999507 192 192 192 255 0.184665 0.609043
-0.013306 56.43683 8.725403 0.01349897 -0.005482027 0.9998939 192 192 192 255 0.18466 0.62976
-87.36334 56.29272 8.725403 0.1430981 -0.2075079 0.9677104 192 192 192 255 0.125197 0.629661
-117.9789 56.22248 -8.644012 -0.4050385 -0.37062 -0.8358138 192 192 192 255 0.104355 0.629614
-166.067 26.10931 -8.644012 -0.3719895 0.3781442 -0.8477209 192 192 192 255 0.07162 0.609114
-123.0347 64.44697 -8.644012 -0.9406121 0.2302874 -0.2494325 192 192 192 255 0.100914 0.635212
-105.4711 56.67851 8.725403 0.01037113 -0.009279146 0.9999032 192 192 192 255 0.109882 0.861612
-120.9407 60.52855 8.725388 -0.758506 0.6052082 0.2416441 192 192 192 255 0.098835 0.864362
-117.9789 56.36228 8.725403 -0.8336638 -0.3634478 0.415825 192 192 192 255 0.10095 0.861387
-183.4251 23.66119 8.725464 0.002268517 0.007841692 0.9999667 192 192 192 255 0.059803 0.607448
-183.5001 23.27445 -8.644012 0.005217727 0.01803637 -0.9998237 192 192 192 255 0.054162 0.837758
-120.8983 75.21707 -8.644012 -0.7228711 0.1574744 -0.6727995 192 192 192 255 0.267827 0.791189
-116.1082 86.80939 -13.74911 -0.9198273 0.3147204 -0.2342413 192 192 192 255 0.27238 0.801527
-119.6092 75.34485 -13.74911 -0.9279902 0.2675363 -0.2593424 192 192 192 255 0.271992 0.79215
-144.5288 43.46735 3.751205 -0.6687313 0.7160454 0.2001933 192 192 192 255 0.316954 0.7588
-137.2767 48.95279 -6.5952 -0.3246833 0.6119049 -0.7212164 192 192 192 255 0.323974 0.768815
-144.5288 43.31043 -6.5952 -0.6202229 0.7837405 -0.03277685 192 192 192 255 0.316954 0.768815
-167.3159 33.77095 6.676636 -0.5859026 0.7771361 0.229734 192 192 192 255 0.294897 0.755969
-159.9696 35.51097 6.676636 0.4224014 0.7952261 0.4349627 192 192 192 255 0.302008 0.755969
-158.5709 37.07633 2.0383 0.434337 0.8099509 0.3941205 192 192 192 255 0.303362 0.760458
-183.5001 23.27445 -8.644012 0.005217727 0.01803637 -0.9998237 192 192 192 255 0.279231 0.770798
-199.1926 16.97707 -8.644012 -0.533509 0.3439493 -0.7727011 192 192 192 255 0.264041 0.770798
-198.7505 15.16763 8.725464 -0.5517796 0.3292547 0.7662446 192 192 192 255 0.264469 0.753985
-183.4251 23.66119 8.725464 0.002268517 0.007841692 0.9999667 192 192 192 255 0.279304 0.753985
-171.0787 33.60586 -6.5952 -0.9209598 0.376965 0.09864318 192 192 192 255 0.291255 0.768815
-171.0787 29.53953 6.676651 -0.9190391 0.3709528 0.1332709 192 192 192 255 0.291255 0.755969
-158.5709 36.56841 -6.5952 0.5572807 0.7421963 -0.3722673 192 192 192 255 0.303362 0.768815
-207.0811 1.5e-05 8.725494 -0.8829688 0.4222821 0.2050459 192 192 192 255 0.256406 0.753986
-209.4072 0 -8.644012 -0.05217116 0.02520017 -0.9983202 192 192 192 255 0.254154 0.770798
-202.9737 5.15892 8.725479 -0.4683837 0.2572544 0.8452437 192 192 192 255 0.260381 0.753985
-123.0347 64.44697 -8.644012 -0.9406121 0.2302874 -0.2494325 192 192 192 255 0.267827 0.781585
-120.9407 60.52855 8.725388 -0.758506 0.6052082 0.2416441 192 192 192 255 0.251781 0.779348
-115.7796 66.90945 8.725372 -0.200774 0.05711243 0.9779714 192 192 192 255 0.252338 0.783781
-109.6024 86.80939 13.74911 -0.7197375 0.1757255 0.6716386 192 192 192 255 0.247858 0.801527
-116.7302 75.33035 8.725372 -0.3238708 0.02697515 0.9457167 192 192 192 255 0.252338 0.79129
-112.1078 75.34485 13.74911 -0.7232654 0.1329485 0.6776517 192 192 192 255 0.247046 0.79238
-132.0211 53.22308 -0.231445 0.8033318 0.5815849 -0.1281291 192 192 192 255 0.329061 0.762655
-132.0211 48.76088 -6.5952 0.6944457 0.1825265 -0.6960096 192 192 192 255 0.327104 0.768956
-137.9904 48.69108 6.676605 -0.2729978 0.3232923 0.9060654 192 192 192 255 0.323283 0.755969
-144.5288 39.23069 6.676605 -0.9788834 0.1106804 0.1718639 192 192 192 255 0.314925 0.755965
-132.0211 52.07669 6.676605 -0.1405442 0.2709751 0.9522709 192 192 192 255 0.328323 0.756141
3 0 1 6 
3 0 6 7 
3 80 134 135 
3 80 135 83 
3 76 77 8 
3 76 8 21 
3 11 12 13 
3 11 13 14 
3 84 136 137 
3 84 137 87 
3 5 11 14 
3 5 14 2 
3 88 89 90 
3 88 90 91 
3 8 22 23 
3 24 17 16 
3 24 16 25 
3 8 23 26 
3 8 26 21 
3 20 24 25 
3 20 25 19 
3 21 26 27 
3 15 18 1 
3 15 1 0 
3 28 29 30 
3 28 30 31 
3 96 97 98 
3 96 98 99 
3 29 132 30 
3 35 30 132 
3 35 132 133 
3 4 3 38 
3 4 38 39 
3 100 101 102 
3 100 102 103 
3 32 33 39 
3 32 39 38 
3 27 26 142 
3 27 142 143 
3 40 41 42 
3 40 42 43 
3 104 105 106 
3 104 106 107 
3 166 167 144 
3 166 144 168 
3 21 27 143 
3 21 143 145 
3 41 46 47 
3 41 47 42 
3 37 36 50 
3 37 50 51 
3 108 109 110 
3 108 110 111 
3 44 45 51 
3 44 51 50 
3 23 22 146 
3 23 146 169 
3 22 8 147 
3 22 147 146 
3 112 113 114 
3 112 114 115 
3 49 48 60 
3 49 60 61 
3 116 139 118 
3 116 118 119 
3 56 57 61 
3 56 61 60 
3 122 123 120 
3 122 120 162 
3 120 121 162 
3 59 58 66 
3 59 66 67 
3 124 125 127 
3 164 126 127 
3 164 127 125 
3 62 63 67 
3 62 67 66 
3 64 65 72 
3 64 72 73 
3 10 9 158 
3 10 158 159 
3 130 149 131 
3 69 68 73 
3 69 73 72 
3 75 70 74 
3 140 74 70 
3 140 70 141 
3 170 76 21 
3 170 21 171 
3 122 165 123 
3 123 165 125 
3 123 125 124 
3 119 118 115 
3 119 115 114 
3 111 110 107 
3 111 107 106 
3 103 102 99 
3 103 99 98 
3 83 135 137 
3 83 137 86 
3 172 173 174 
3 172 174 34 
3 174 175 34 
3 173 176 177 
3 173 177 178 
3 171 178 179 
3 171 179 180 
3 181 182 8 
3 147 8 183 
3 147 183 184 
3 184 54 147 
3 85 136 134 
3 85 134 80 
3 97 96 101 
3 97 101 100 
3 105 104 109 
3 105 109 108 
3 113 138 116 
3 120 127 126 
3 120 126 163 
3 121 120 163 
3 182 185 186 
3 182 186 187 
3 187 188 189 
3 187 189 183 
3 183 190 191 
3 183 191 184 
3 184 192 55 
3 184 55 54 
3 193 194 9 
3 195 196 9 
3 195 9 197 
3 194 198 199 
3 194 199 200 
3 200 201 202 
3 200 202 197 
3 197 203 204 
3 197 204 195 
3 195 205 206 
3 195 206 196 
3 196 207 208 
3 196 208 209 
3 209 210 160 
3 209 160 196 
3 209 211 212 
3 209 212 210 
3 210 154 156 
3 181 8 77 
3 213 159 157 
3 214 10 215 
3 213 216 217 
3 217 216 71 
3 217 71 218 
3 217 219 220 
3 217 220 221 
3 221 222 223 
3 221 223 224 
3 224 225 10 
3 224 10 221 
3 224 226 227 
3 224 227 225 
3 225 228 229 
3 225 229 230 
3 10 225 230 
3 10 230 215 
3 215 230 231 
3 215 231 232 
3 21 173 178 
3 21 178 171 
3 200 197 9 
3 200 9 194 
3 10 159 221 
3 187 183 8 
3 187 8 182 
3 9 79 193 
3 9 10 78 
3 9 78 79 
3 214 78 10 
3 88 92 93 
3 88 93 89 
3 94 233 234 
3 94 234 95 
3 90 235 236 
3 90 236 91 
3 3 4 82 
3 3 82 81 
3 5 2 80 
3 5 80 83 
3 16 17 86 
3 16 86 85 
3 18 15 84 
3 18 84 87 
3 4 18 87 
3 4 87 82 
3 17 5 83 
3 17 83 86 
3 15 3 81 
3 15 81 84 
3 2 16 85 
3 2 85 80 
3 7 6 90 
3 7 90 89 
3 20 19 88 
3 20 88 91 
3 19 237 92 
3 19 92 88 
3 238 7 89 
3 238 89 93 
3 79 78 233 
3 79 233 94 
3 77 76 95 
3 77 95 234 
3 6 239 235 
3 6 235 90 
3 240 20 91 
3 240 91 236 
3 13 12 98 
3 13 98 97 
3 33 32 96 
3 33 96 99 
3 36 37 102 
3 36 102 101 
3 28 31 100 
3 28 100 103 
3 37 33 99 
3 37 99 102 
3 12 28 103 
3 12 103 98 
3 32 36 101 
3 32 101 96 
3 31 13 97 
3 31 97 100 
3 35 133 106 
3 35 106 105 
3 45 44 104 
3 45 104 107 
3 48 49 110 
3 48 110 109 
3 40 43 108 
3 40 108 111 
3 49 45 107 
3 49 107 110 
3 106 241 40 
3 106 40 111 
3 44 48 109 
3 44 109 104 
3 43 35 105 
3 43 105 108 
3 47 46 114 
3 47 114 113 
3 57 56 112 
3 57 112 115 
3 58 59 118 
3 58 118 117 
3 52 242 116 
3 52 116 119 
3 59 57 115 
3 59 115 118 
3 46 52 119 
3 46 119 114 
3 56 58 117 
3 56 117 112 
3 242 47 113 
3 242 113 116 
3 63 62 120 
3 63 120 123 
3 65 64 124 
3 65 124 127 
3 64 63 123 
3 64 123 124 
3 62 65 127 
3 62 127 120 
3 68 69 129 
3 68 129 128 
3 131 141 70 
3 131 70 130 
3 70 68 128 
3 70 128 130 
3 69 243 131 
3 69 131 129 
3 133 132 241 
3 106 133 241 
3 135 134 81 
3 135 81 82 
3 137 136 85 
3 137 85 86 
3 137 135 82 
3 137 82 87 
3 134 136 84 
3 134 84 81 
3 116 138 139 
3 113 112 117 
3 113 117 138 
3 139 138 117 
3 118 139 117 
3 243 141 131 
3 140 141 243 
3 52 53 244 
3 52 244 242 
3 174 148 245 
3 245 148 246 
3 245 246 247 
3 21 148 174 
3 21 174 173 
3 21 145 148 
3 149 151 129 
3 149 129 131 
3 152 150 130 
3 152 130 128 
3 153 152 128 
3 151 153 128 
3 151 128 129 
3 155 248 75 
3 155 75 74 
3 157 249 213 
3 160 158 9 
3 160 9 196 
3 156 160 210 
3 213 217 221 
3 213 221 159 
3 250 251 252 
3 253 254 255 
3 256 257 258 
3 259 260 261 
3 259 261 262 
3 256 263 264 
3 256 258 265 
3 256 265 263 
3 161 261 260 
3 266 161 267 
3 268 161 266 
3 267 161 260 
3 269 270 271 
3 272 273 274 
3 250 273 272 
3 250 272 251 
3 269 271 273 
3 269 273 250 
3 254 275 276 
3 277 253 278 
3 279 275 277 
3 277 275 254 
3 277 254 253 
3 268 261 161 
