ply
format ascii 1.0
comment VCGLIB generated
comment TextureFile Dungeons_2_Texture_01_A.png
element vertex 174
property float x
property float y
property float z
property float nx
property float ny
property float nz
property uchar red
property uchar green
property uchar blue
property uchar alpha
property float texture_u
property float texture_v
element face 168
property list uchar int vertex_indices
end_header
182.8851 460.3886 16.71591 -0.6245626 -0.6480485 0.4358381 192 192 192 255 0.194985 0.709791
250 405.4006 31.19531 -0.0889377 -0.7388561 0.6679685 192 192 192 255 0.222842 0.686968
189.0546 467.9148 36.77719 -0.6223276 -0.6476028 0.4396806 192 192 192 255 0.197546 0.712915
250 415.0144 36.77719 0.6508247 -0.2772624 0.7067904 192 192 192 255 0.222842 0.690959
189.0546 500 36.77719 -0.5584432 0.5722162 0.6005912 192 192 192 255 0.197546 0.726232
182.8851 500 31.19531 -0.6577297 0.6739513 0.3364244 192 192 192 255 0.194985 0.726232
204.2848 474.9395 36.77719 -0.3640569 -0.1906651 0.911652 192 192 192 255 0.203867 0.715831
250 436.4496 36.77719 0.5420104 -0.460591 0.7029087 192 192 192 255 0.225142 0.96487
213.1006 484.0269 42.16046 -0.3599181 -0.1872506 0.9140002 192 192 192 255 0.207526 0.719603
250 445.3909 42.16046 0.0007488075 -0.0006363237 0.9999995 192 192 192 255 0.225142 0.968866
213.1006 500 42.16046 -0.295832 0.5676451 0.7682855 192 192 192 255 0.208653 0.993269
204.2848 500 36.77719 -0.3685134 0.7071068 0.6034881 192 192 192 255 0.204713 0.993269
250 196.4986 36.27902 0.1891423 -0.001075165 0.9819491 192 192 192 255 0.222842 0.600263
220.9163 178.0758 42.16046 8.524079e-05 -0.0002052553 1 192 192 192 255 0.21077 0.592616
223.2146 171.7327 36.27902 0.0002288933 -0.0005511629 0.9999998 192 192 192 255 0.211724 0.589984
250 204.2401 42.16046 0.0007686571 -0.000161123 0.9999997 192 192 192 255 0.222842 0.603476
152.6254 225.7719 42.16046 -0.103624 0.2351482 0.9664199 192 192 192 255 0.182426 0.612413
250 326.9891 42.16046 -0.006691082 0.282023 0.9593843 192 192 192 255 0.225142 0.915956
150 233.0446 36.27902 -0.0006819272 0.1341707 0.990958 192 192 192 255 0.181336 0.615432
250 152.8302 31.19531 0.9999849 -0.002859435 0.004712962 192 192 192 255 0.225142 0.838131
250 161.2092 36.27902 0.1859509 -0.001075301 0.9825585 192 192 192 255 0.225142 0.841875
250 335.1343 36.27902 0.9994826 0.005852674 0.03162815 192 192 192 255 0.225142 0.919596
250 351.2254 36.27902 0.9993911 0.00837866 0.03386997 192 192 192 255 0.222842 0.664483
250 362.8381 31.19531 0.9999353 0.004123186 0.01060419 192 192 192 255 0.222842 0.669303
144.2988 242.1824 36.27902 -0.0002842199 0.0007576257 0.9999997 192 192 192 255 0.17897 0.619224
138.2668 250.5795 31.19531 -0.1708845 0.4555151 0.873673 192 192 192 255 0.176466 0.622709
214 366.8193 31.19531 -0.0001463736 5.369282e-05 1 192 192 192 255 0.2079 0.670955
129.3627 281.2521 31.19531 4.405872e-07 6.259068e-06 1 192 192 192 255 0.171233 0.895518
214 464 31.19531 -0.1081172 -0.1081169 0.9882416 192 192 192 255 0.2079 0.71129
195.8 374.5895 17.1535 -0.3489612 0.1280061 0.9283537 192 192 192 255 0.200346 0.67418
125 306.9341 17.1535 0.02446369 0.3475359 0.9373475 192 192 192 255 0.17096 0.6461
195.8 445.8 17.1535 -0.0005091344 -0.6101292 0.7923018 192 192 192 255 0.200346 0.703736
250 500 36.77719 0.7071068 0.7071068 0 192 192 192 255 0.225142 0.993269
250 500 42.16046 0.000637035 0.000637035 0.9999996 192 192 192 255 0.225142 0.993269
250 500 31.19531 0.7071069 0.7071066 -3.658981e-06 192 192 192 255 0.225142 0.993269
250.0001 500 36.77719 0.408249 0.4082489 0.816496 192 192 192 255 0.225142 0.993269
250 500 31.19531 0.4850713 0.4850713 0.7276069 192 192 192 255 0.225142 0.993269
250 0 31.19531 9.630414e-06 -9.630414e-06 1 192 192 192 255 0.225142 0.769837
250 0 -14.2392 0.6666667 -0.6666667 -0.3333333 192 192 192 255 0.225142 0.769837
250 500 -14.2392 0.4082483 0.4082483 -0.8164966 192 192 192 255 0.225142 0.993269
197.5458 446.3388 16.71591 -0.6227822 -0.649883 0.435654 192 192 192 255 0.20107 0.70396
209.3745 284.9841 42.16046 -0.2223995 0.3415054 0.9131882 192 192 192 255 0.20598 0.636989
240.5355 317.2032 42.16046 -0.4632746 0.1344813 0.8759518 192 192 192 255 0.218913 0.650362
228.2378 312.9174 36.27902 -0.1073483 0.1038285 0.9887851 192 192 192 255 0.213809 0.648583
236.3184 302.4702 42.16046 -0.04969861 0.04806637 0.997607 192 192 192 255 0.219028 0.905
221.291 468.3807 42.16046 -0.04743166 -0.02498823 0.9985619 192 192 192 255 0.210926 0.713109
67.11487 460.3886 16.71591 0.5935801 -0.6164834 0.5173112 192 192 192 255 0.146934 0.709791
0 405.4006 31.19531 0.08287127 -0.6963952 0.7128577 192 192 192 255 0.119078 0.686968
57.06885 467.5369 36.77719 0.5915768 -0.6157769 0.520438 192 192 192 255 0.142765 0.712758
0 415.0144 36.77719 -0.6465026 -0.2596381 0.7173719 192 192 192 255 0.119078 0.690959
60.94543 500 36.77719 0.5155641 0.5341377 0.669993 192 192 192 255 0.144374 0.726232
67.11487 500 31.19531 0.627012 0.6496004 0.4299712 192 192 192 255 0.146934 0.726232
45.71521 474.9395 36.77719 0.4578957 -0.1382478 0.8781908 192 192 192 255 0.138052 0.715831
0 436.4496 36.77719 -0.1580376 -0.4070369 0.899636 192 192 192 255 0.113426 0.96487
35.97156 480.9607 42.16046 0.25027 -0.1633388 0.9542984 192 192 192 255 0.134008 0.71833
0 445.3909 42.16046 -0.6570029 -0.1537589 0.7380416 192 192 192 255 0.113426 0.968866
36.89941 500 42.16046 0.2837426 0.5624129 0.7766479 192 192 192 255 0.129915 0.993269
45.71521 500 36.77719 0.3548637 0.7033835 0.6158924 192 192 192 255 0.133854 0.993269
0 196.4986 36.27902 -0.1888864 -0.000929369 0.9819985 192 192 192 255 0.119078 0.600263
32.63031 180.666 42.16046 -9.430808e-05 -0.0001936646 1 192 192 192 255 0.132622 0.593692
26.7854 171.7327 36.27902 -0.0001821802 -0.0008147669 0.9999996 192 192 192 255 0.130196 0.589984
0 204.2401 42.16046 -0.7842354 -0.1486069 0.6024042 192 192 192 255 0.119078 0.603476
94.61517 224.8575 42.16046 0.08884393 0.351895 0.9318137 192 192 192 255 0.158349 0.612033
0 326.9891 42.16046 -0.03060099 0.229755 0.9727674 192 192 192 255 0.113426 0.915956
100 233.0446 36.27902 0.0006830583 0.1483583 0.9889334 192 192 192 255 0.158112 0.873976
0 152.8302 31.19531 -0.9999849 -0.002859435 0.004712962 192 192 192 255 0.113426 0.838131
0 161.2092 36.27902 -0.1857615 -0.001074206 0.9825943 192 192 192 255 0.113426 0.841875
0 335.1343 36.27902 -0.08261669 0.0004092326 0.9965814 192 192 192 255 0.113426 0.919596
0 351.2254 36.27902 -0.9994015 0.009022856 0.03339605 192 192 192 255 0.113426 0.926787
0 362.8381 31.19531 -0.9999365 0.00443889 0.01036444 192 192 192 255 0.113426 0.931976
106.1735 243.568 36.27902 0.1094311 0.2697855 0.9566821 192 192 192 255 0.160871 0.878678
111.7332 250.5795 31.19531 0.1867975 0.4605204 0.8677717 192 192 192 255 0.165453 0.622709
32.0249 365.3724 31.19531 5.061315e-05 2.242715e-05 1 192 192 192 255 0.13237 0.670355
36 464 31.19531 0.1002206 -0.1099437 0.9888722 192 192 192 255 0.129513 0.977181
54.19995 374.5895 17.1535 0.2563805 0.1136046 0.9598766 192 192 192 255 0.141574 0.67418
54.19995 445.8 17.1535 0.000474212 -0.6101238 0.7923059 192 192 192 255 0.141574 0.703736
0 500 36.77719 -0.7071068 0.7071068 0 192 192 192 255 0.113426 0.993269
0 500 42.16046 -0.4082483 0.4082483 0.8164966 192 192 192 255 0.113426 0.993269
0 500 31.19531 -0.7071069 0.7071066 -3.656873e-06 192 192 192 255 0.113426 0.993269
-6.1e-05 500 36.77719 -0.408249 0.4082489 0.816496 192 192 192 255 0.113426 0.993269
0 500 31.19531 -0.4364358 0.2182179 0.8728716 192 192 192 255 0.113426 0.993269
0 -0 31.19531 -9.210348e-06 -1.84207e-05 1 192 192 192 255 0.113426 0.769837
0 -0 -14.2392 -0.6666667 -0.3333333 -0.6666667 192 192 192 255 0.113426 0.769837
0 500 -14.2392 -0.4082483 0.8164966 -0.4082483 192 192 192 255 0.113426 0.993269
52.45422 446.3388 16.71591 0.5922769 -0.6179916 0.5170054 192 192 192 255 0.14085 0.70396
113.356 225.7719 42.16046 0.06756122 0.2980703 0.95215 192 192 192 255 0.166127 0.612413
147.2395 225.7719 42.16046 -0.093983 0.2051614 0.9742053 192 192 192 255 0.18019 0.612413
136.3161 220.4956 42.16046 0 0.008914093 0.9999603 192 192 192 255 0.174341 0.868368
131.216 228.387 40.04565 -4.782606e-05 0.4620203 0.8868694 192 192 192 255 0.17354 0.613498
92.53113 257.401 36.27902 0.1827234 0.2833232 0.9414564 192 192 192 255 0.157484 0.625541
42.36658 308.2667 36.27902 0.2883645 0.2391964 0.9271629 192 192 192 255 0.136663 0.646653
80.4032 282.0568 31.19531 0.2574582 0.2539182 0.9323308 192 192 192 255 0.15245 0.635774
75.40808 268.4191 36.27902 0.1292085 0.1274275 0.9833959 192 192 192 255 0.150377 0.630114
168.9889 352.3644 17.1535 -0.1640101 0.1616253 0.9731279 192 192 192 255 0.189218 0.664956
181.0056 326.3221 31.19531 -3.183672e-05 3.246614e-05 1 192 192 192 255 0.194311 0.915658
115.9402 464 31.19531 0.06478857 -0.1456902 0.9872066 192 192 192 255 0.165235 0.977181
176.7913 464 31.19531 -0.1915011 -0.1361149 0.9720083 192 192 192 255 0.192456 0.71129
161.502 459.1899 27.48422 -1.595646e-10 -0.5044455 0.8634436 192 192 192 255 0.18611 0.709294
128.9179 469.9176 31.19531 0.03289443 -0.2349649 0.9714471 192 192 192 255 0.171035 0.979826
171.5836 471.7899 31.19531 -0.03180546 -0.2573059 0.9658065 192 192 192 255 0.190294 0.713316
44.10101 161.2092 36.27902 0.05789213 -0.3667318 0.9285237 192 192 192 255 0.137383 0.585616
146.4797 161.2092 36.27902 -0.02432904 -0.3514279 0.9358988 192 192 192 255 0.179875 0.585616
72.35626 152.8302 31.19531 0 -0.3571303 0.9340546 192 192 192 255 0.14911 0.582138
75.27185 166.146 36.27902 0 -0.2066958 0.9784053 192 192 192 255 0.15032 0.587114
250 196.4986 36.27902 0.1891423 -0.001075165 0.9819491 192 192 192 255 0.225142 0.857645
223.2146 171.7327 36.27902 0.0002288933 -0.0005511629 0.9999998 192 192 192 255 0.213172 0.846578
250 351.2254 36.27902 0.9993911 0.00837866 0.03386997 192 192 192 255 0.225142 0.926787
144.2988 242.1824 36.27902 -0.0002842199 0.0007576257 0.9999997 192 192 192 255 0.177908 0.878059
228.2378 312.9174 36.27902 -0.1073483 0.1038285 0.9887851 192 192 192 255 0.215417 0.909668
150 233.0446 36.27902 -0.0006819272 0.1341707 0.990958 192 192 192 255 0.180456 0.873976
220.9163 178.0758 42.16046 8.524079e-05 -0.0002052553 1 192 192 192 255 0.212145 0.849412
250 204.2401 42.16046 0.0007686571 -0.000161123 0.9999997 192 192 192 255 0.225142 0.861104
189.0546 500 36.77719 -0.5584432 0.5722162 0.6005912 192 192 192 255 0.197908 0.993269
182.8851 500 31.19531 -0.6577297 0.6739513 0.3364244 192 192 192 255 0.195151 0.993269
189.0546 467.9148 36.77719 -0.6223276 -0.6476028 0.4396806 192 192 192 255 0.197908 0.978931
250 415.0144 36.77719 0.6508247 -0.2772624 0.7067904 192 192 192 255 0.225142 0.955292
214 366.8193 31.19531 -0.0001463736 5.369282e-05 1 192 192 192 255 0.209055 0.933755
250 405.4006 31.19531 -0.0889377 -0.7388561 0.6679685 192 192 192 255 0.225142 0.950996
250 362.8381 31.19531 0.9999353 0.004123186 0.01060419 192 192 192 255 0.225142 0.931976
214 464 31.19531 -0.1081172 -0.1081169 0.9882416 192 192 192 255 0.209055 0.977181
181.0056 326.3221 31.19531 -3.183672e-05 3.246614e-05 1 192 192 192 255 0.194199 0.654155
250 326.9891 42.16046 -0.006691082 0.282023 0.9593843 192 192 192 255 0.222842 0.654423
250 335.1343 36.27902 0.9994826 0.005852674 0.03162815 192 192 192 255 0.222842 0.657804
236.3184 302.4702 42.16046 -0.04969861 0.04806637 0.997607 192 192 192 255 0.217163 0.644247
115.9402 464 31.19531 0.06478857 -0.1456902 0.9872066 192 192 192 255 0.1672 0.71129
36 464 31.19531 0.1002206 -0.1099437 0.9888722 192 192 192 255 0.13402 0.71129
250 436.4496 36.77719 0.5420104 -0.460591 0.7029087 192 192 192 255 0.222842 0.699856
250 445.3909 42.16046 0.0007488075 -0.0006363237 0.9999995 192 192 192 255 0.222842 0.703567
221.291 468.3807 42.16046 -0.04743166 -0.02498823 0.9985619 192 192 192 255 0.212313 0.979139
213.1006 484.0269 42.16046 -0.3599181 -0.1872506 0.9140002 192 192 192 255 0.208653 0.986131
213.1006 500 42.16046 -0.295832 0.5676451 0.7682855 192 192 192 255 0.207526 0.726232
204.2848 500 36.77719 -0.3685134 0.7071068 0.6034881 192 192 192 255 0.203867 0.726232
240.5355 317.2032 42.16046 -0.4632746 0.1344813 0.8759518 192 192 192 255 0.220913 0.911583
209.3745 284.9841 42.16046 -0.2223995 0.3415054 0.9131882 192 192 192 255 0.206988 0.897186
152.6254 225.7719 42.16046 -0.103624 0.2351482 0.9664199 192 192 192 255 0.181629 0.870726
26.7854 171.7327 36.27902 -0.0001821802 -0.0008147669 0.9999996 192 192 192 255 0.125395 0.846578
0 196.4986 36.27902 -0.1888864 -0.000929369 0.9819985 192 192 192 255 0.113426 0.857645
75.40808 268.4191 36.27902 0.1292085 0.1274275 0.9833959 192 192 192 255 0.147123 0.889783
60.94543 500 36.77719 0.5155641 0.5341377 0.669993 192 192 192 255 0.14066 0.993269
67.11487 500 31.19531 0.627012 0.6496004 0.4299712 192 192 192 255 0.143417 0.993269
57.06885 467.5369 36.77719 0.5915768 -0.6157769 0.520438 192 192 192 255 0.138928 0.978762
0 415.0144 36.77719 -0.6465026 -0.2596381 0.7173719 192 192 192 255 0.113426 0.955292
32.0249 365.3724 31.19531 5.061315e-05 2.242715e-05 1 192 192 192 255 0.127737 0.933108
0 405.4006 31.19531 0.08287127 -0.6963952 0.7128577 192 192 192 255 0.113426 0.950996
0 204.2401 42.16046 -0.7842354 -0.1486069 0.6024042 192 192 192 255 0.113426 0.861104
129.3627 281.2521 31.19531 4.405872e-07 6.259068e-06 1 192 192 192 255 0.17277 0.635441
0 326.9891 42.16046 -0.03060099 0.229755 0.9727674 192 192 192 255 0.119078 0.654423
100 233.0446 36.27902 0.0006830583 0.1483583 0.9889334 192 192 192 255 0.160584 0.615432
0 335.1343 36.27902 -0.08261669 0.0004092326 0.9965814 192 192 192 255 0.119078 0.657804
0 445.3909 42.16046 -0.6570029 -0.1537589 0.7380416 192 192 192 255 0.119078 0.703567
0 436.4496 36.77719 -0.1580376 -0.4070369 0.899636 192 192 192 255 0.119078 0.699856
35.97156 480.9607 42.16046 0.25027 -0.1633388 0.9542984 192 192 192 255 0.1295 0.984761
36.89941 500 42.16046 0.2837426 0.5624129 0.7766479 192 192 192 255 0.134393 0.726232
45.71521 500 36.77719 0.3548637 0.7033835 0.6158924 192 192 192 255 0.138052 0.726232
32.63031 180.666 42.16046 -9.430808e-05 -0.0001936646 1 192 192 192 255 0.128007 0.85057
94.61517 224.8575 42.16046 0.08884393 0.351895 0.9318137 192 192 192 255 0.155706 0.870317
75.27185 166.146 36.27902 0 -0.2066958 0.9784053 192 192 192 255 0.147062 0.844081
106.1735 243.568 36.27902 0.1094311 0.2697855 0.9566821 192 192 192 255 0.163146 0.619799
136.3161 220.4956 42.16046 0 0.008914093 0.9999603 192 192 192 255 0.175657 0.610223
147.2395 225.7719 42.16046 -0.093983 0.2051614 0.9742053 192 192 192 255 0.179222 0.870726
113.356 225.7719 42.16046 0.06756122 0.2980703 0.95215 192 192 192 255 0.164081 0.870726
0 351.2254 36.27902 -0.9994015 0.009022856 0.03339605 192 192 192 255 0.119078 0.664483
0 362.8381 31.19531 -0.9999365 0.00443889 0.01036444 192 192 192 255 0.119078 0.669303
92.53113 257.401 36.27902 0.1827234 0.2833232 0.9414564 192 192 192 255 0.154775 0.88486
42.36658 308.2667 36.27902 0.2883645 0.2391964 0.9271629 192 192 192 255 0.132358 0.90759
128.9179 469.9176 31.19531 0.03289443 -0.2349649 0.9714471 192 192 192 255 0.172586 0.712829
171.5836 471.7899 31.19531 -0.03180546 -0.2573059 0.9658065 192 192 192 255 0.1901 0.980662
176.7913 464 31.19531 -0.1915011 -0.1361149 0.9720083 192 192 192 255 0.192428 0.977181
0 161.2092 36.27902 -0.1857615 -0.001074206 0.9825943 192 192 192 255 0.119078 0.585616
0 152.8302 31.19531 -0.9999849 -0.002859435 0.004712962 192 192 192 255 0.119078 0.582138
250 161.2092 36.27902 0.1859509 -0.001075301 0.9825585 192 192 192 255 0.222842 0.585616
250 152.8302 31.19531 0.9999849 -0.002859435 0.004712962 192 192 192 255 0.222842 0.582138
44.10101 161.2092 36.27902 0.05789213 -0.3667318 0.9285237 192 192 192 255 0.133133 0.841875
146.4797 161.2092 36.27902 -0.02432904 -0.3514279 0.9358988 192 192 192 255 0.178882 0.841875
3 4 5 0 
3 4 0 2 
3 2 40 1 
3 2 1 3 
3 6 45 8 
3 13 14 12 
3 13 12 15 
3 18 16 41 
3 18 41 43 
3 22 23 25 
3 22 25 24 
3 20 104 105 
3 21 106 107 
3 21 107 108 
3 107 109 108 
3 110 111 44 
3 98 80 73 
3 98 73 95 
3 26 28 31 
3 26 31 29 
3 37 27 81 
3 10 33 32 
3 10 32 11 
3 112 35 34 
3 112 34 113 
3 114 115 35 
3 114 35 112 
3 37 116 94 
3 38 37 81 
3 38 81 82 
3 39 38 82 
3 39 82 83 
3 36 39 83 
3 36 83 80 
3 0 40 2 
3 115 117 34 
3 115 34 35 
3 9 7 32 
3 9 32 33 
3 111 104 21 
3 111 21 17 
3 21 104 19 
3 21 19 118 
3 118 106 21 
3 20 19 104 
3 119 116 37 
3 119 37 36 
3 36 37 38 
3 36 38 39 
3 26 29 93 
3 26 93 120 
3 43 42 121 
3 43 121 122 
3 43 123 42 
3 43 41 123 
3 75 97 124 
3 75 124 125 
3 6 126 127 
3 6 127 45 
3 9 33 128 
3 129 128 33 
3 129 33 10 
3 130 131 6 
3 130 6 8 
3 44 111 17 
3 44 17 132 
3 110 44 133 
3 110 133 134 
3 50 48 46 
3 50 46 51 
3 48 49 47 
3 48 47 84 
3 59 61 58 
3 59 58 60 
3 91 90 92 
3 66 135 136 
3 64 137 67 
3 72 74 75 
3 72 75 125 
3 56 57 76 
3 56 76 77 
3 138 139 78 
3 138 78 79 
3 140 138 79 
3 140 79 141 
3 81 27 142 
3 46 48 84 
3 141 79 78 
3 141 78 143 
3 55 77 76 
3 55 76 53 
3 144 63 67 
3 144 67 136 
3 67 69 65 
3 67 65 136 
3 69 67 68 
3 66 136 65 
3 73 80 81 
3 73 81 142 
3 80 83 82 
3 80 82 81 
3 72 145 30 
3 72 30 74 
3 146 62 147 
3 146 147 148 
3 54 149 150 
3 54 150 52 
3 151 56 77 
3 151 77 55 
3 152 54 52 
3 152 52 153 
3 154 155 63 
3 154 63 144 
3 102 101 103 
3 105 135 156 
3 13 59 60 
3 13 60 14 
3 110 87 154 
3 18 88 86 
3 18 86 16 
3 107 70 64 
3 107 64 109 
3 25 71 157 
3 25 157 24 
3 31 75 93 
3 31 93 29 
3 86 88 158 
3 158 88 85 
3 88 147 62 
3 88 62 85 
3 18 147 88 
3 134 159 87 
3 134 87 110 
3 154 87 160 
3 154 160 155 
3 91 89 157 
3 91 157 71 
3 161 90 91 
3 161 91 162 
3 91 92 89 
3 70 163 137 
3 70 137 64 
3 67 137 164 
3 67 164 68 
3 93 75 74 
3 93 74 30 
3 120 93 30 
3 120 30 145 
3 37 94 27 
3 99 97 96 
3 124 97 165 
3 165 97 99 
3 119 36 166 
3 119 166 167 
3 166 36 80 
3 166 80 98 
3 31 28 96 
3 31 96 97 
3 31 97 75 
3 102 100 168 
3 102 168 169 
3 170 101 102 
3 170 102 171 
3 102 103 100 
3 156 135 66 
3 156 66 172 
3 105 156 173 
3 105 173 20 
