ply
format ascii 1.0
comment VCGLIB generated
comment TextureFile Dungeons_2_Texture_01_A.png
element vertex 129
property float x
property float y
property float z
property float nx
property float ny
property float nz
property uchar red
property uchar green
property uchar blue
property uchar alpha
property float texture_u
property float texture_v
element face 254
property list uchar int vertex_indices
end_header
3.05e-05 250.217 -500.0122 -0.4082483 0.8164966 -0.4082483 192 192 192 255 0.004229 0.75205
3.05e-05 125.1085 -218.7554 -0.9999833 0.004092281 0.004092281 192 192 192 255 0.129111 0.75205
3.05e-05 125.1085 -250.0061 -0.07207826 0.997399 0.0001701897 192 192 192 255 0.11776 0.75205
3.05e-05 109.4699 -218.7554 -0.05624522 0.998417 0.0002294706 192 192 192 255 0.131951 0.75205
3.05e-05 109.4699 -187.5046 -0.9999833 0.004092277 0.004092277 192 192 192 255 0.143302 0.75205
3.05e-05 93.83138 -187.5046 -0.08318815 0.0005096091 0.9965338 192 192 192 255 0.146143 0.75205
3.05e-05 93.83138 -156.2538 -0.999933 0.008184142 0.008184142 192 192 192 255 0.157493 0.75205
3.05e-05 78.19282 -156.2538 -0.2398016 0.9708219 0.0002831061 192 192 192 255 0.160334 0.75205
3.05e-05 78.19282 -125.0031 -0.9999833 0.004092281 0.004092281 192 192 192 255 0.171685 0.75205
3.05e-05 62.55425 -125.0031 -0.09150622 0.8904788 0.4457288 192 192 192 255 0.174525 0.75205
3.05e-05 62.55425 -93.75229 -0.9999582 0.008184352 0.004092176 192 192 192 255 0.185876 0.75205
3.05e-05 46.91568 -93.75229 -0.1429872 0.0005061267 0.9897245 192 192 192 255 0.188717 0.75205
3.05e-05 46.91568 -62.50152 -0.9999582 0.008184353 0.004092176 192 192 192 255 0.200067 0.75205
3.05e-05 31.27712 -62.50152 -0.03730094 0.8936083 0.4472952 192 192 192 255 0.202908 0.75205
3.05e-05 31.27712 -31.25075 -0.1869852 0.001530416 0.9823616 192 192 192 255 0.214259 0.75205
3.05e-05 15.63856 -31.25075 -0.2628923 0.8785348 0.3988286 192 192 192 255 0.217099 0.75205
3.05e-05 15.63856 2e-06 -0.9999973 0.001660629 0.001660629 192 192 192 255 0.22845 0.75205
3.05e-05 250.217 -468.7614 -0.2182179 0.4364358 0.8728716 192 192 192 255 0.01558 0.75205
3.05e-05 234.5784 -468.7614 -0.02097297 0.9997801 8.530528e-05 192 192 192 255 0.018421 0.75205
3.05e-05 234.5784 -437.5107 -0.9999582 0.008184377 0.004092188 192 192 192 255 0.029771 0.75205
3.05e-05 218.9399 -437.5107 -0.08318827 0.0001698701 0.9965338 192 192 192 255 0.032612 0.75205
3.05e-05 218.9399 -406.2599 -0.9999582 0.00818433 0.004092164 192 192 192 255 0.043963 0.75205
3.05e-05 203.3013 -406.2599 -0.04174463 0.9991283 0.0001704846 192 192 192 255 0.046803 0.75205
3.05e-05 203.3013 -375.0092 -0.9999582 0.004092183 0.008184368 192 192 192 255 0.058154 0.75205
3.05e-05 187.6628 -375.0092 -0.1538743 0.9880904 0.0003142107 192 192 192 255 0.060995 0.75205
3.05e-05 187.6628 -343.7584 -0.0775211 0.9969907 0.0003172429 192 192 192 255 0.072345 0.75205
3.05e-05 172.0242 -343.7584 -0.1237452 0.000505374 0.9923139 192 192 192 255 0.075186 0.75205
3.05e-05 172.0242 -312.5076 -0.9999833 0.004092279 0.004092279 192 192 192 255 0.086537 0.75205
3.05e-05 156.3857 -312.5076 -0.08318832 0.0001698701 0.9965338 192 192 192 255 0.089377 0.75205
3.05e-05 156.3857 -281.2569 -0.9999582 0.008184345 0.004092172 192 192 192 255 0.100728 0.75205
3.05e-05 140.7471 -281.2569 -0.9999965 0.001180585 0.00236117 192 192 192 255 0.103569 0.75205
3.05e-05 140.7471 -250.0061 -0.9999582 0.008184366 0.004092182 192 192 192 255 0.114919 0.75205
3.05e-05 -22.90001 2e-06 -0.004728641 -0.8957191 -0.4445953 192 192 192 255 0.23545 0.75205
3.05e-05 227.317 -500.0122 -0.0006480079 -0.8942747 -0.4475182 192 192 192 255 0.008389 0.75205
250 250.217 -500.0122 0.4082481 0.4082481 -0.8164968 192 192 192 255 0.004229 0.984948
250 125.1085 -218.7554 0.1642467 0.0006721549 0.9864191 192 192 192 255 0.129111 0.984948
250 125.1085 -250.0061 0.07207832 0.997399 8.487008e-05 192 192 192 255 0.11776 0.984948
250 109.4699 -218.7554 0.3164417 0.0006455079 0.9486117 192 192 192 255 0.131951 0.984948
250 109.4699 -187.5046 0.9999582 0.008184345 0.004088266 192 192 192 255 0.143302 0.984948
250 93.83138 -187.5046 0.08318815 0.0005096061 0.9965338 192 192 192 255 0.146143 0.984948
250 93.83138 -156.2538 0.9999833 0.004092277 0.004092279 192 192 192 255 0.157493 0.984948
250 78.19282 -156.2538 0.2713512 0.0006425194 0.9624802 192 192 192 255 0.160334 0.984948
250 78.19282 -125.0031 0.9999833 0.004092279 0.004096185 192 192 192 255 0.171685 0.984948
250 62.55425 -125.0031 0.09150004 0.8904945 0.4456988 192 192 192 255 0.174525 0.984948
250 62.55425 -93.75229 0.9999833 0.004092279 0.004090325 192 192 192 255 0.185876 0.984948
250 46.91568 -93.75229 0.1429873 0.0005056447 0.9897244 192 192 192 255 0.188717 0.984948
250 46.91568 -62.50153 0.9999833 0.004092281 0.004094233 192 192 192 255 0.200067 0.984948
250 31.27712 -62.50153 0.03729841 0.8936236 0.4472648 192 192 192 255 0.202908 0.984948
250 31.27712 -31.25076 0.9999833 0.004092277 0.004090325 192 192 192 255 0.214259 0.984948
250 15.63856 -31.25076 0.09489814 0.995487 0.000223885 192 192 192 255 0.217099 0.984948
250 15.63856 0 0.9999973 0.001660629 0.001660629 192 192 192 255 0.22845 0.984948
250 250.217 -468.7614 0.218218 0.8728717 0.4364355 192 192 192 255 0.01558 0.984948
250 234.5784 -468.7614 0.02097119 0.9997801 0.0001705958 192 192 192 255 0.018421 0.984948
250 234.5784 -437.5107 0.9999833 0.004092297 0.004092291 192 192 192 255 0.029771 0.984948
250 218.9399 -437.5107 0.08318827 0.0003397402 0.9965338 192 192 192 255 0.032612 0.984948
250 218.9399 -406.2599 0.9999582 0.004092163 0.008184329 192 192 192 255 0.043963 0.984948
250 203.3013 -406.2599 0.1241151 0.9922678 1.20572e-07 192 192 192 255 0.046803 0.984948
250 203.3013 -375.0092 0.06229203 0.998058 0.0002550429 192 192 192 255 0.058154 0.984948
250 187.6628 -375.0092 0.05092813 0.8921065 0.4489458 192 192 192 255 0.060995 0.984948
250 187.6628 -343.7584 0.02848061 0.9995943 0.0002331048 192 192 192 255 0.072345 0.984948
250 172.0242 -343.7584 0.1539102 0.9880849 0.0003141337 192 192 192 255 0.075186 0.984948
250 172.0242 -312.5076 0.07753932 0.9969893 0.0003171663 192 192 192 255 0.086537 0.984948
250 156.3857 -312.5076 0.08318832 0.000339741 0.9965338 192 192 192 255 0.089377 0.984948
250 156.3857 -281.2569 0.9999582 0.004092171 0.008184345 192 192 192 255 0.100728 0.984948
250 140.7471 -281.2569 0.9999965 0.002352166 0.001177467 192 192 192 255 0.103569 0.984948
250 140.7471 -250.0061 0.9999582 0.004092182 0.008186319 192 192 192 255 0.114919 0.984948
250 -22.90001 0 0.002360513 -0.8942759 -0.4475098 192 192 192 255 0.23545 0.984948
250 227.317 -500.0122 0.001296015 -0.8942741 -0.4475179 192 192 192 255 0.008389 0.984948
60.3785 15.63856 -31.25076 -3.215795e-09 0.9965889 0.08252619 192 192 192 255 0.217099 0.808298
250 203.3013 -406.2599 0 1 7.064243e-05 192 192 192 255 0.046803 0.984948
66.0531 187.6628 -375.0092 0 0.0003641227 0.9999999 192 192 192 255 0.060995 0.813584
167.3232 172.0242 -343.7584 0 0.3944513 0.9189169 192 192 192 255 0.075186 0.907927
185.5936 109.4699 -218.7554 4.799373e-12 0.9944208 0.105486 192 192 192 255 0.131951 0.924947
73.11145 78.19282 -156.2538 8.577925e-09 0.7684368 0.6399257 192 192 192 255 0.160334 0.82016
83.50525 46.91568 -62.50153 0.03881704 0.9113755 0.4097413 192 192 192 255 0.200067 0.829843
41.04546 31.27712 -31.25076 0.01132139 0.1755826 0.9843996 192 192 192 255 0.214259 0.790288
119.5624 15.63856 0 0.01358809 0.9907278 0.1351807 192 192 192 255 0.22845 0.863433
20.48878 234.5784 -437.5107 0.02646829 0.9201811 0.3905972 192 192 192 255 0.029771 0.771137
124.8589 203.3013 -375.0092 0.01000792 0.2356589 0.9717843 192 192 192 255 0.058154 0.868367
50.28165 187.6628 -343.7584 0.004019497 0.9993963 0.03450961 192 192 192 255 0.072345 0.798892
137.2305 172.0242 -312.5076 0.005027676 0.9941017 0.1083351 192 192 192 255 0.086537 0.879893
140.5792 125.1085 -218.7554 0.009135189 0.4348502 0.9004565 192 192 192 255 0.129111 0.883012
80.0209 109.4699 -187.5046 0.01844756 0.8974922 0.4406445 192 192 192 255 0.143302 0.826597
141.349 93.83138 -156.2538 0.01309663 0.1994888 0.9798126 192 192 192 255 0.157493 0.883729
35.68029 78.19282 -125.0031 0.06294575 0.7995501 0.5972918 192 192 192 255 0.171685 0.785289
33.52372 62.55425 -93.75229 0.01670358 0.9372371 0.3482926 192 192 192 255 0.185876 0.78328
103.5454 31.27712 -31.25075 -0.008690155 0.4226174 0.9062666 192 192 192 255 0.214259 0.848512
182.0625 15.63856 0 -0.04455281 0.1455991 0.98834 192 192 192 255 0.22845 0.921658
82.9888 234.5784 -437.5107 -0.02923123 0.8586876 0.5116651 192 192 192 255 0.029771 0.829362
187.3589 203.3013 -375.0092 -0.00219011 0.9996479 0.02644353 192 192 192 255 0.058154 0.926592
112.7816 187.6628 -343.7584 -0.001694108 0.9872746 0.1590161 192 192 192 255 0.072345 0.857116
199.7305 172.0242 -312.5076 -0.004698923 0.9987211 0.05034089 192 192 192 255 0.086537 0.938117
203.0792 125.1085 -218.7554 -0.009704581 0.1611426 0.9868835 192 192 192 255 0.129111 0.941237
142.5209 109.4699 -187.5046 -0.007953164 0.9977477 0.0666059 192 192 192 255 0.143302 0.884821
203.849 93.83138 -156.2538 -0.0491209 0.974061 0.2208898 192 192 192 255 0.157493 0.941954
98.1803 78.19282 -125.0031 -0.004805733 0.9939821 0.1094369 192 192 192 255 0.171685 0.843514
96.02375 62.55425 -93.75229 -0.07148712 0.574111 0.8156508 192 192 192 255 0.185876 0.841505
146.0052 46.91568 -62.50153 -0.02360531 0.959802 0.2796836 192 192 192 255 0.200067 0.888067
46.56525 31.27712 -39.06345 -1.125676e-09 0.9992603 0.03845642 192 192 192 255 0.211421 0.79543
56.1401 27.36748 -31.25076 -3.103488e-08 0.5125884 0.8586345 192 192 192 255 0.214969 0.80435
138.8812 15.63856 -7.812683 0 0.9921083 0.1253838 192 192 192 255 0.225612 0.88143
176.6327 8.835915 0 -0.02656174 0.4391204 0.8980355 192 192 192 255 0.229686 0.916599
49.05629 234.5784 -445.3234 4.652799e-09 0.9992603 0.03845643 192 192 192 255 0.026934 0.79775
54.40485 230.6688 -437.5107 9.195976e-09 0.1518855 0.9883981 192 192 192 255 0.030481 0.802733
164.032 203.3013 -382.8218 0 0.999479 0.03227631 192 192 192 255 0.055316 0.904861
147.7462 199.3917 -375.0092 0 0.161164 0.9869276 192 192 192 255 0.058864 0.889689
66.7949 187.6628 -351.5711 0 0.8950055 0.4460551 192 192 192 255 0.069508 0.814276
92.11245 183.7531 -343.7584 0 0.1752061 0.9845318 192 192 192 255 0.073055 0.837861
179.0614 172.0242 -320.3203 0 0.9879755 0.1546102 192 192 192 255 0.083699 0.918862
193.1313 168.1145 -312.5076 0 0.1518859 0.9883981 192 192 192 255 0.087247 0.931969
192.2687 125.1085 -226.568 0 0.9992602 0.03845951 192 192 192 255 0.126273 0.931166
186.9776 121.1989 -218.7554 0 0.5233838 0.8520971 192 192 192 255 0.129821 0.926237
126.4193 109.4699 -195.3173 0 0.9990755 0.04299179 192 192 192 255 0.140464 0.869821
127.4449 105.5603 -187.5046 0 0.1518854 0.9883981 192 192 192 255 0.144012 0.870777
195.2056 93.83138 -164.0665 -0.02580725 0.888427 0.4582918 192 192 192 255 0.154656 0.933902
168.5222 86.6796 -156.2538 1.073898e-08 0.2464717 0.96915 192 192 192 255 0.158792 0.909044
53.95815 78.19282 -132.8157 0 0.99741 0.07192554 192 192 192 255 0.168847 0.802317
47.96758 74.28317 -125.0031 0 0.1518851 0.9883982 192 192 192 255 0.172395 0.796736
73.9943 62.55425 -101.565 0 0.9992603 0.03845643 192 192 192 255 0.183038 0.820982
88.30215 58.64461 -93.75229 0 0.1518852 0.9883982 192 192 192 255 0.186586 0.834311
123.1191 46.91568 -70.31422 -0.01606094 0.9428793 0.3327473 192 192 192 255 0.19723 0.866747
106.3913 43.00604 -62.50153 3.419699e-09 0.1982682 0.9801478 192 192 192 255 0.200778 0.851163
167.3577 93.83138 -164.4734 0.02347718 0.7618246 0.6473578 192 192 192 255 0.154508 0.907959
104.4314 46.91568 -70.52823 0.02069716 0.9073917 0.419776 192 192 192 255 0.197152 0.849337
145.2766 6.738065 0 0.02060962 0.6916112 0.7219759 192 192 192 255 0.230067 0.887388
32.99774 15.63856 0 0.07654519 0.7953002 0.6013638 192 192 192 255 0.22845 0.78279
62.88835 15.63856 0 -0.01333144 0.2636141 0.9645361 192 192 192 255 0.22845 0.810636
48.09235 15.63856 -7.812691 0 0.9973869 0.07224544 192 192 192 255 0.225612 0.796852
43.25375 11.64084 0 -2.857627e-09 0.3498734 0.936797 192 192 192 255 0.229176 0.792345
3 10 9 11 
3 8 7 9 
3 6 5 7 
3 4 3 5 
3 1 2 3 
3 31 30 2 
3 29 28 30 
3 27 26 28 
3 25 24 26 
3 23 22 24 
3 21 20 22 
3 19 18 20 
3 18 17 0 
3 18 0 33 
3 33 32 3 
3 33 3 2 
3 2 30 33 
3 33 30 28 
3 33 28 26 
3 33 26 24 
3 33 24 22 
3 33 22 20 
3 33 20 18 
3 5 3 32 
3 5 32 7 
3 7 32 9 
3 9 32 11 
3 16 15 32 
3 11 32 15 
3 11 15 13 
3 14 13 15 
3 13 12 11 
3 44 45 43 
3 42 43 41 
3 40 41 39 
3 38 39 37 
3 35 37 36 
3 65 36 64 
3 63 64 62 
3 61 62 60 
3 59 60 58 
3 57 58 56 
3 55 56 54 
3 53 54 52 
3 52 67 34 
3 52 34 51 
3 67 36 37 
3 67 37 66 
3 36 67 64 
3 67 60 62 
3 67 62 64 
3 67 56 58 
3 67 58 60 
3 67 52 54 
3 67 54 56 
3 39 41 66 
3 39 66 37 
3 41 43 66 
3 43 45 66 
3 50 66 49 
3 45 47 49 
3 45 49 66 
3 48 49 47 
3 47 45 46 
3 66 33 67 
3 33 0 34 
3 33 34 67 
3 0 17 51 
3 0 51 34 
3 17 18 52 
3 17 52 51 
3 55 69 56 
3 98 99 86 
3 100 101 87 
3 33 66 32 
3 102 103 88 
3 21 55 54 
3 21 54 20 
3 22 69 55 
3 22 55 21 
3 104 105 89 
3 106 107 90 
3 108 109 91 
3 29 63 62 
3 29 62 28 
3 30 64 63 
3 30 63 29 
3 31 65 64 
3 31 64 30 
3 2 36 65 
3 2 65 31 
3 110 111 92 
3 112 113 93 
3 114 115 94 
3 116 117 95 
3 118 119 96 
3 120 121 97 
3 14 75 98 
3 14 98 13 
3 15 68 99 
3 15 99 75 
3 15 75 14 
3 99 68 86 
3 86 68 49 
3 86 49 48 
3 13 98 47 
3 47 98 86 
3 47 86 48 
3 87 101 66 
3 87 66 50 
3 68 100 49 
3 49 100 87 
3 49 87 50 
3 19 77 102 
3 19 102 18 
3 77 19 20 
3 77 20 103 
3 54 103 20 
3 88 103 54 
3 88 54 53 
3 18 102 52 
3 52 102 88 
3 52 88 53 
3 69 22 104 
3 78 104 22 
3 78 22 23 
3 105 78 70 
3 70 78 23 
3 70 23 24 
3 70 58 105 
3 89 105 58 
3 89 58 57 
3 104 89 69 
3 57 56 89 
3 69 89 56 
3 25 79 24 
3 106 70 24 
3 106 24 79 
3 71 107 26 
3 26 107 79 
3 26 79 25 
3 107 71 90 
3 59 90 71 
3 59 71 60 
3 58 70 106 
3 58 106 90 
3 90 59 58 
3 108 71 80 
3 80 71 26 
3 80 26 27 
3 62 109 28 
3 28 109 80 
3 28 80 27 
3 91 109 62 
3 91 62 61 
3 60 71 108 
3 60 108 91 
3 91 61 60 
3 36 2 110 
3 81 110 2 
3 81 2 1 
3 111 81 72 
3 3 72 81 
3 3 81 1 
3 111 72 37 
3 111 37 92 
3 92 37 35 
3 36 110 92 
3 36 92 35 
3 72 3 112 
3 82 112 3 
3 82 3 4 
3 39 113 5 
3 5 113 82 
3 5 82 4 
3 93 113 39 
3 93 39 38 
3 112 93 72 
3 72 93 38 
3 72 38 37 
3 6 83 122 
3 6 122 5 
3 115 83 73 
3 73 83 6 
3 73 6 7 
3 73 41 115 
3 94 115 41 
3 94 41 40 
3 39 114 94 
3 39 94 40 
3 73 7 116 
3 84 116 7 
3 84 7 8 
3 9 117 84 
3 9 84 8 
3 9 43 117 
3 95 117 43 
3 95 43 42 
3 116 95 73 
3 41 73 95 
3 41 95 42 
3 10 85 118 
3 10 118 9 
3 45 119 11 
3 11 119 85 
3 11 85 10 
3 96 119 45 
3 96 45 44 
3 9 118 43 
3 43 118 96 
3 43 96 44 
3 12 74 123 
3 12 123 11 
3 13 121 74 
3 13 74 12 
3 13 47 121 
3 97 121 47 
3 97 47 46 
3 45 120 97 
3 45 97 46 
3 102 77 103 
3 104 78 105 
3 106 79 107 
3 108 80 109 
3 110 81 111 
3 112 82 113 
3 115 122 83 
3 116 84 117 
3 118 85 119 
3 121 123 74 
3 98 75 99 
3 100 76 124 
3 114 122 115 
3 5 122 114 
3 5 114 39 
3 120 123 121 
3 11 123 120 
3 11 120 45 
3 32 66 101 
3 32 101 124 
3 100 124 101 
3 127 128 126 
3 68 15 127 
3 125 127 15 
3 125 15 16 
3 32 128 125 
3 32 125 16 
3 32 124 76 
3 32 76 126 
3 32 126 128 
3 100 68 76 
3 68 127 126 
3 68 126 76 
3 127 125 128 
