ply
format ascii 1.0
comment VCGLIB generated
comment TextureFile Dungeons_2_Texture_01_A.png
element vertex 51
property float x
property float y
property float z
property float nx
property float ny
property float nz
property uchar red
property uchar green
property uchar blue
property uchar alpha
property float texture_u
property float texture_v
element face 56
property list uchar int vertex_indices
end_header
0 1.5e-05 8.725494 0.0004674887 -0.0004664724 0.9999998 192 192 192 255 0.169232 0.751632
-0.017761 75.33035 8.725372 0.02879781 -0.0009220083 0.9995849 192 192 192 255 0.169218 0.811527
0 0 -8.644012 0.4090441 -0.4095727 -0.8154343 192 192 192 255 0.169232 0.751632
0.208984 75.21707 -8.644012 0.9981492 -0.01649465 -0.058534 192 192 192 255 0.169399 0.811437
-0.012207 86.80939 13.74911 0.999288 0.0342954 0.01572531 192 192 192 255 0.169223 0.820654
-0.010529 86.80939 -13.74911 0.07240976 0.9973661 -0.004217113 192 192 192 255 0.210843 0.853899
-0.010529 75.34485 13.74911 0.431697 -0.007532023 0.9019873 192 192 192 255 0.169224 0.811539
-0.012207 75.34485 -13.74911 0.9963334 -0.03507321 -0.07803694 192 192 192 255 0.169223 0.811539
-63.04803 75.33035 8.725372 -0.3225608 0.1826623 0.9287568 192 192 192 255 0.119103 0.811527
-56.35879 86.80939 12.26825 -0.8631011 0.4714086 0.1811918 192 192 192 255 0.16438 0.831679
-62.11315 75.34485 13.74911 -0.8831959 0.4337936 0.1782922 192 192 192 255 0.119846 0.811539
-28.39988 75.33035 8.725372 -1.74474e-10 -0.0008886163 0.9999996 192 192 192 255 0.146652 0.811527
-52.22552 86.80939 13.84787 0.02689924 0.9189433 0.3934712 192 192 192 255 0.167902 0.830496
-33.037 86.80939 -14.31038 -0.02578639 0.997264 -0.06927861 192 192 192 255 0.183433 0.854294
-26.61537 75.34485 13.74911 0.001439855 -0.01232977 0.999923 192 192 192 255 0.14807 0.811539
-11.86206 86.80939 13.84787 -0.1615825 0.3036683 0.9389764 192 192 192 255 0.159801 0.820654
-28.18744 86.80939 10.98894 0 0.9840964 0.1776353 192 192 192 255 0.187569 0.833381
-25.25867 79.79617 13.74911 0.0008121465 0.2047024 0.978824 192 192 192 255 0.149149 0.815078
-45.69808 86.80939 -8.300126 -0.5608894 0.1944367 -0.8047344 192 192 192 255 0.172999 0.849107
-39.46352 82.81965 -12.86517 -0.3489386 0.224879 -0.9097644 192 192 192 255 0.137855 0.817482
-38.8798 75.34485 -13.74911 -0.2725455 0.07175605 -0.9594634 192 192 192 255 0.138319 0.811539
-47.80056 75.21707 -8.644012 -0.5997688 0.174126 -0.7809978 192 192 192 255 0.131226 0.811437
-106.7512 0 -8.644012 -0.7897134 0.4407895 -0.4266818 192 192 192 255 0.084354 0.751632
-109.6142 1.5e-05 8.725494 -0.926711 0.3446538 -0.149735 192 192 192 255 0.082077 0.751632
-53.92217 57.68297 -8.644012 -0.4881162 0.3609038 -0.7946641 192 192 192 255 0.126359 0.797496
-78.32162 39.21959 -8.644012 -0.6163868 0.5432818 -0.5700108 192 192 192 255 0.106958 0.782815
-96.32778 35.41503 8.725437 -0.820292 0.5453374 -0.1724184 192 192 192 255 0.092642 0.77979
-72.43233 59.47252 8.725398 -0.6872731 0.5653645 0.4560907 192 192 192 255 0.111641 0.798919
-61.03724 73.69302 1.235967 -0.651149 0.3009053 -0.6967503 192 192 192 255 0.267484 0.827098
-66.63445 56.73621 -2.41892 -0.5757499 0.4786496 -0.6628774 192 192 192 255 0.266435 0.816095
-33.037 86.80939 -14.31038 -0.02578639 0.997264 -0.06927861 192 192 192 255 0.142965 0.820654
-0.010529 86.80939 -13.74911 0.07240976 0.9973661 -0.004217113 192 192 192 255 0.169224 0.820654
-52.22552 86.80939 13.84787 0.02689924 0.9189433 0.3934712 192 192 192 255 0.127708 0.820654
-56.35879 86.80939 12.26825 -0.8631011 0.4714086 0.1811918 192 192 192 255 0.124421 0.820654
-28.18744 86.80939 10.98894 0 0.9840964 0.1776353 192 192 192 255 0.14682 0.820654
-0.012207 86.80939 13.74911 0.999288 0.0342954 0.01572531 192 192 192 255 0.210676 0.831062
-11.86206 86.80939 13.84787 -0.1615825 0.3036683 0.9389764 192 192 192 255 0.200742 0.831074
-45.69808 86.80939 -8.300126 -0.5608894 0.1944367 -0.8047344 192 192 192 255 0.132898 0.820654
-78.32162 39.21959 -8.644012 -0.6163868 0.5432818 -0.5700108 192 192 192 255 0.266737 0.802878
-96.32778 35.41503 8.725437 -0.820292 0.5453374 -0.1724184 192 192 192 255 0.281292 0.7985
-72.43233 59.47252 8.725398 -0.6872731 0.5653645 0.4560907 192 192 192 255 0.274064 0.817447
-56.35879 86.80939 12.26825 -0.8631011 0.4714086 0.1811918 192 192 192 255 0.272661 0.83644
-63.04803 75.33035 8.725372 -0.3225608 0.1826623 0.9287568 192 192 192 255 0.272111 0.828209
-62.11315 75.34485 13.74911 -0.8831959 0.4337936 0.1782922 192 192 192 255 0.275056 0.829076
-45.69808 86.80939 -8.300126 -0.5608894 0.1944367 -0.8047344 192 192 192 255 0.258808 0.837322
-47.80056 75.21707 -8.644012 -0.5997688 0.174126 -0.7809978 192 192 192 255 0.258058 0.830291
-39.46352 82.81965 -12.86517 -0.3489386 0.224879 -0.9097644 192 192 192 255 0.253736 0.836092
-38.8798 75.34485 -13.74911 -0.2725455 0.07175605 -0.9594634 192 192 192 255 0.252088 0.831869
-106.7512 0 -8.644012 -0.7897134 0.4407895 -0.4266818 192 192 192 255 0.274717 0.774896
-109.6142 1.5e-05 8.725494 -0.926711 0.3446538 -0.149735 192 192 192 255 0.285217 0.776125
-53.92217 57.68297 -8.644012 -0.4881162 0.3609038 -0.7946641 192 192 192 255 0.258486 0.819195
3 0 1 11 
3 2 22 25 
3 2 25 24 
3 21 3 2 
3 21 2 24 
3 16 5 13 
3 1 6 14 
3 1 14 11 
3 6 17 14 
3 7 3 21 
3 7 21 20 
3 30 20 19 
3 1 0 2 
3 1 2 3 
3 31 4 1 
3 31 1 3 
3 1 4 6 
3 3 7 31 
3 12 13 18 
3 12 18 9 
3 11 14 10 
3 11 10 8 
3 14 32 33 
3 14 33 10 
3 32 17 34 
3 34 17 15 
3 6 4 15 
3 6 15 17 
3 14 17 32 
3 16 13 12 
3 35 5 16 
3 35 16 36 
3 30 19 37 
3 2 0 23 
3 2 23 22 
3 23 0 11 
3 23 11 26 
3 26 11 27 
3 11 8 27 
3 38 39 40 
3 41 42 43 
3 44 28 42 
3 44 42 41 
3 45 44 46 
3 45 46 47 
3 28 40 42 
3 38 40 29 
3 39 48 49 
3 38 48 39 
3 45 28 44 
3 50 28 45 
3 38 29 50 
3 29 40 28 
3 50 29 28 
3 30 31 7 
3 30 7 20 
