ply
format ascii 1.0
comment VCGLIB generated
comment TextureFile Dungeons_2_Texture_01_A.png
element vertex 386
property float x
property float y
property float z
property float nx
property float ny
property float nz
property uchar red
property uchar green
property uchar blue
property uchar alpha
property float texture_u
property float texture_v
element face 354
property list uchar int vertex_indices
end_header
46.99133 124.022 16.65117 0.2892728 -0.7334438 0.6151272 192 192 192 255 0.024068 0.56203
89.28955 160.7765 16.65117 0.8188745 0.3045034 0.486541 192 192 192 255 0.043983 0.579335
46.99133 131.7372 26.30509 0.0002421877 -0.000614061 0.9999998 192 192 192 255 0.024068 0.565663
82.33813 164.0299 26.30509 0.04101066 0.0152523 0.9990423 192 192 192 255 0.04071 0.580867
46.99133 204.0377 16.65117 0.3846006 0.7027633 0.5985033 192 192 192 255 0.024068 0.599704
46.99133 196.3225 26.30509 0.0002427302 0.000956188 0.9999996 192 192 192 255 0.024068 0.596071
0 131.7372 26.30509 -0.3430534 -0.5359743 0.7713922 192 192 192 255 0.001942 0.565663
0 124.022 16.65117 -0.8944272 -0.3493553 0.2791969 192 192 192 255 0.001942 0.56203
0 196.3225 26.30509 -0.5898395 0.2303863 0.7739584 192 192 192 255 0.001942 0.596071
0 204.0377 16.65117 -0.4472136 0.6987113 0.5583928 192 192 192 255 0.001942 0.599704
453.0085 204.0377 -16.65117 -0.5783884 0.6370655 -0.5095236 192 192 192 255 0.215235 0.599704
406.9663 164.0299 -16.65117 -0.5434321 -0.5862662 -0.6008108 192 192 192 255 0.193556 0.580867
453.0085 196.3225 -26.30509 -0.576818 0.6332942 -0.5159647 192 192 192 255 0.215235 0.596071
426.4518 172.0603 -26.30509 -0.4783788 0.2910005 -0.8285363 192 192 192 255 0.204761 0.586503
453.0088 124.022 -16.65117 -0.2904464 -0.7376898 -0.609471 192 192 192 255 0.215235 0.56203
453.0088 131.7372 -26.30509 -0.2101531 -0.5337572 -0.8191087 192 192 192 255 0.215235 0.565663
500 196.3225 -26.30509 0.3430535 0.5359747 -0.7713919 192 192 192 255 0.23736 0.596071
500 204.0377 -16.65117 0.8944272 0.3493554 -0.2791967 192 192 192 255 0.23736 0.599704
500 131.7372 -26.30509 0.5898395 -0.2303864 -0.7739584 192 192 192 255 0.23736 0.565663
500 124.022 -16.65117 0.4472136 -0.6987116 -0.5583925 192 192 192 255 0.23736 0.56203
453.0085 204.0377 16.65117 -0.2886722 0.733041 0.615889 192 192 192 255 0.215235 0.599704
406.9663 164.0299 16.65117 -0.6822559 -0.256008 0.6848262 192 192 192 255 0.193556 0.580867
453.0085 196.3225 26.30509 -0.0002417254 0.0006138265 0.9999998 192 192 192 255 0.215235 0.596071
417.6619 164.0299 26.30509 -0.0007256564 0.0002722908 0.9999997 192 192 192 255 0.198592 0.580867
453.0088 124.022 16.65117 -0.2886715 -0.7330423 0.6158878 192 192 192 255 0.215235 0.56203
453.0088 131.7372 26.30509 -0.0004834115 -0.001227558 0.9999992 192 192 192 255 0.215235 0.565663
500 196.3225 26.30509 0.3430535 0.5359747 0.7713919 192 192 192 255 0.23736 0.596071
500 204.0377 16.65117 0.8944272 0.3493554 0.2791967 192 192 192 255 0.23736 0.599704
500 131.7372 26.30509 0.5898395 -0.2303864 0.7739584 192 192 192 255 0.23736 0.565663
500 124.022 16.65117 0.4472136 -0.6987116 0.5583925 192 192 192 255 0.23736 0.56203
46.99133 124.022 -16.65117 0.2890239 -0.7332771 -0.6154428 192 192 192 255 0.024068 0.56203
91.54211 165.326 -16.65117 0.7274202 -0.1340348 -0.6729745 192 192 192 255 0.043931 0.582444
46.99133 131.7372 -26.30509 0.0002419962 -0.0006139642 -0.9999998 192 192 192 255 0.024068 0.565663
82.33813 164.0299 -26.30509 0.01424285 -0.003387277 -0.9998928 192 192 192 255 0.040626 0.580865
46.99133 204.0377 -16.65117 0.2889044 0.7331976 -0.6155937 192 192 192 255 0.024068 0.599704
46.99133 196.3225 -26.30509 0.0004837703 0.001227739 -0.9999992 192 192 192 255 0.024068 0.596071
0 131.7372 -26.30509 -0.3430534 -0.5359743 -0.7713922 192 192 192 255 0.001942 0.565663
0 124.022 -16.65117 -0.8944272 -0.3493553 -0.2791969 192 192 192 255 0.001942 0.56203
0 196.3225 -26.30509 -0.5898395 0.2303863 -0.7739584 192 192 192 255 0.001942 0.596071
0 204.0377 -16.65117 -0.4472136 0.6987113 -0.5583928 192 192 192 255 0.001942 0.599704
396.1013 105.1522 16.65117 -0.9419538 -0.1363181 0.3068231 192 192 192 255 0.101967 0.783332
401.2493 85.31732 26.50843 -0.06622919 -0.004516254 0.9977943 192 192 192 255 0.101948 0.783337
400.4176 97.51338 26.50843 -0.08127578 -0.01003327 0.9966412 192 192 192 255 0.101938 0.783315
396.937 121.5639 26.50843 0.0001133414 0.0009618629 0.9999996 192 192 192 255 0.188834 0.560873
443.5015 74.99486 26.50843 0.0003585504 0.0003614452 0.9999999 192 192 192 255 0.210758 0.538946
443.5015 74.99486 -26.50843 0.0005117745 0.0002550992 -0.9999999 192 192 192 255 0.210758 0.788946
401.8461 85.2188 -26.50843 -0.0009237389 -0.0009529949 -0.9999991 192 192 192 255 0.19205 0.788946
394.5741 123.927 -26.50843 -0.04671162 0.001993051 -0.9989064 192 192 192 255 0.187722 0.811985
456.3782 74.99486 -16.65117 0.01530853 -0.711889 0.7021252 192 192 192 255 0.216821 0.788946
394.2318 105.1522 -16.65117 -0.9032444 -0.4291264 0.0003182517 192 192 192 255 0.190235 0.788946
388.9172 142.4625 -16.65117 -0.8262906 0.04634399 -0.5613341 192 192 192 255 0.185058 0.570712
391.157 139.3162 16.65117 -0.7211308 0.1363896 0.6792409 192 192 192 255 0.186121 0.569649
456.3782 74.99486 16.65117 0.5253491 0.5295906 0.6659896 192 192 192 255 0.216821 0.538946
388.6138 135.0676 -16.65117 -0.8388436 0.0320386 -0.5434289 192 192 192 255 0.102011 0.783266
400.4658 90.91296 23.72396 -0.957599 -0.1178939 0.2628786 192 192 192 255 0.101956 0.783335
0 0 -31.19531 -0.5773503 -0.5773503 -0.5773503 192 192 192 255 0.001942 0.753636
57.07373 0 -31.19531 0.7923154 -0.4258474 -0.4369099 192 192 192 255 0.028815 0.753636
63.02429 -0 0 0.002010147 -0.999998 -5.176859e-05 192 192 192 255 0.031616 0.753636
0 0 0 -0.004022201 -0.999992 0 192 192 192 255 0.001942 0.753636
0 105.1522 -16.65117 -0.7154546 0.2121833 -0.6656597 192 192 192 255 0.001942 0.803145
0 75.87138 -31.19531 -0.00061794 0.0002748949 -0.9999998 192 192 192 255 0.001942 0.789359
62.90137 14.38182 31.19531 0.120335 -0.0198948 0.992534 192 192 192 255 0.102119 0.783944
60.47009 0 31.19531 0.1183162 -0.02217392 0.9927284 192 192 192 255 0.102126 0.783961
63.55042 0 23.62119 0.07266887 -0.9969264 0.02927626 192 192 192 255 0.10214 0.78395
0 105.1522 16.65117 -0.5209337 0.07724699 0.8500947 192 192 192 255 0.001942 0.803145
0 0 31.19531 -0.002294439 -0.00114722 0.9999967 192 192 192 255 0.001942 0.753636
0 75.87138 31.19531 -0.0004803865 0.0004274066 0.9999998 192 192 192 255 0.001942 0.789359
69.85364 75.87138 -31.19531 0.001785238 4.997829e-05 -0.9999984 192 192 192 255 0.034832 0.539359
78.13306 105.1522 -16.65117 0.9285578 -0.2107618 -0.3055488 192 192 192 255 0.03873 0.553145
63.37488 52.7318 -31.19531 0.001806653 -0.0003556866 -0.9999983 192 192 192 255 0.10223 0.783863
78.31897 105.1522 16.65117 0.7210199 0.0201855 0.6926203 192 192 192 255 0.038818 0.553145
70.20203 75.87138 31.19531 0.001389045 -0.0001750134 0.999999 192 192 192 255 0.034996 0.539359
99.59839 199.6388 -16.65117 0.5405421 -0.1012587 -0.8352011 192 192 192 255 0.102125 0.783665
104.4686 198.9063 -1.281799 0.9820535 -0.1768025 -0.06566493 192 192 192 255 0.10209 0.783668
99.08704 203.999 16.65117 0.9321664 -0.1572943 0.3260741 192 192 192 255 0.102052 0.783686
88.5603 141.7304 16.65117 0.9322446 -0.1577775 0.3256167 192 192 192 255 0.102085 0.783766
95.62268 250 -31.19531 0.0005568571 -0.0001318602 -0.9999999 192 192 192 255 0.046965 0.871345
0 250 -31.19531 -0.0002904184 -0.0001317871 -1 192 192 192 255 0.001942 0.871345
95.62268 286 -31.19531 0.0002759131 0.0001815252 -1 192 192 192 255 0.046965 0.888295
0 221.4391 -16.65117 -0.002292404 -0.000208051 -0.9999974 192 192 192 255 0.001942 0.857897
0 500 0 -0.9486833 0.3162278 0 192 192 192 255 0.001942 0.989053
94.26611 286 31.19531 0.0002825276 0.0001017683 0.9999999 192 192 192 255 0.046326 0.888295
0 250 31.19531 -0.0002945967 -0.0001336831 0.9999999 192 192 192 255 0.001942 0.871345
94.26611 250 31.19531 0.4411262 0.005316393 0.8974293 192 192 192 255 0.046326 0.871345
61.91089 46.25877 31.19531 0.001902338 -0.0001465195 0.9999982 192 192 192 255 0.102108 0.783918
0 221.4391 16.65117 -0.9319827 -0.08458368 0.3524967 192 192 192 255 0.001942 0.857897
419.7072 0 -31.19531 -0.9170302 -0.1742885 -0.358719 192 192 192 255 0.102077 0.783354
400.874 35.03191 0.149902 -0.9793106 -0.1679973 -0.1128174 192 192 192 255 0.102015 0.783364
98.76111 313.1245 -16.65117 0.09815483 -0.0007007848 -0.995171 192 192 192 255 0.10209 0.783535
104.4686 309.9948 -6.392212 0.808581 -0.440111 0.3905114 192 192 192 255 0.102052 0.783541
0 304.2 -16.65117 -0.003393824 0.001412463 -0.9999933 192 192 192 255 0.001942 0.896864
0 286 -31.19531 -0.0002904277 0.0001813081 -0.9999999 192 192 192 255 0.001942 0.888295
410.6945 0 31.19531 -0.0007020243 -0.0004715986 0.9999996 192 192 192 255 0.101968 0.783404
405.4338 75.87138 -31.19531 -0.3746499 0.1111444 -0.9204806 192 192 192 255 0.102054 0.783296
99.99097 314.2795 16.65117 0.3198211 -0.03969303 0.9466462 192 192 192 255 0.102006 0.783575
384.5692 134.1072 -5.887695 -0.9945744 -0.09923712 -0.03120684 192 192 192 255 0.101993 0.78328
388.6138 135.0676 -16.65117 -0.0008812946 -3.026702e-05 -0.9999996 192 192 192 255 0.102011 0.783266
214 464 -31.19531 -0.07408559 -0.006261804 -0.9972322 192 192 192 255 0.102701 0.972103
0 464 -31.19531 -0.0002588855 -0.000171201 -1 192 192 192 255 0.001942 0.972103
0 500 -31.19531 -0.0002478522 0.0002478522 -0.9999999 192 192 192 255 0.001942 0.989053
0 304.2 16.65117 -0.8464181 0.1761339 0.5025468 192 192 192 255 0.001942 0.896864
0 286 31.19531 -0.0002945384 0.0003677486 0.9999999 192 192 192 255 0.001942 0.888295
98.76111 304.2 -16.65117 0.0995671 0.0006690012 -0.9950306 192 192 192 255 0.048443 0.646864
214 464 31.19531 -0.08870043 -0.08777481 0.9921834 192 192 192 255 0.102701 0.722103
0 500 31.19531 -0.4850713 0.4850713 0.7276069 192 192 192 255 0.001942 0.989053
0 464 31.19531 -0.3319812 -0.2047042 0.9208065 192 192 192 255 0.001942 0.972103
0 445.8 -16.65117 -0.0006070273 -0.0002007136 -0.9999998 192 192 192 255 0.001942 0.963534
96.65479 304.2 16.65117 0.9210988 -0.2985546 0.2498841 192 192 192 255 0.047451 0.646864
399.4052 286 -31.19531 -0.4587085 0.1921572 -0.8675611 192 192 192 255 0.101968 0.783061
500 250 -31.19531 0.001847325 -0.0008382855 -0.999998 192 192 192 255 0.23736 0.871345
398.2676 250 -31.19531 -0.9434367 0.03441108 -0.3297622 192 192 192 255 0.189461 0.871345
0 445.8 16.65117 -0.006482427 -0.415972 0.9093544 192 192 192 255 0.001942 0.963534
351.8011 361.637 -16.65117 -0.0001110509 -0.0001063847 -1 192 192 192 255 0.101938 0.783046
346.9728 357.5158 1.704163 -0.6778721 -0.6108691 0.409058 192 192 192 255 0.101891 0.783075
397.6865 325.0218 -16.65117 -0.03694407 0.001012301 -0.9993168 192 192 192 255 0.101934 0.783023
390.0325 321.2303 0.066589 -0.976809 0.05492828 -0.206947 192 192 192 255 0.101893 0.783054
398.139 250 31.19531 -0.0005183799 -0.0001091829 0.9999999 192 192 192 255 0.1894 0.871345
500 250 31.19531 0.0001371198 -0.0001244454 1 192 192 192 255 0.23736 0.871345
399.3301 286 31.19531 -0.02131962 0.00851339 0.9997365 192 192 192 255 0.189961 0.888295
397.6626 325.01 16.65117 -0.03155552 0.001161772 0.9995013 192 192 192 255 0.101841 0.783051
307.2114 410.8083 16.65117 -0.3221678 -0.5600665 0.7632388 192 192 192 255 0.101835 0.783082
304.301 407.5898 5.629578 -0.6959268 -0.7172453 -0.03528511 192 192 192 255 0.101876 0.78308
99.91687 221.4391 -16.65117 0.1453825 -0.002510576 -0.9893724 192 192 192 255 0.048987 0.607897
500 0 -31.19531 0.4082483 -0.4082483 -0.8164966 192 192 192 255 0.23736 0.753636
500 -0 0 0.8944272 -0.4472136 0 192 192 192 255 0.23736 0.753636
406.6392 0 2.284686 -0.917297 -0.1750997 -0.35764 192 192 192 255 0.102022 0.783393
405.5139 31.21746 31.19531 -0.001058914 -0.0001037937 0.9999995 192 192 192 255 0.101957 0.78338
402.5271 75.87138 31.19531 -0.4307333 0.1651297 0.8872435 192 192 192 255 0.101938 0.783338
400.4658 90.91296 23.72396 -0.3715508 0.319307 0.8717758 192 192 192 255 0.101946 0.78332
500 464 -31.19531 0.0002553441 -0.000148315 -1 192 192 192 255 0.23736 0.972103
286 464 -31.19531 0.0003333707 -0.0001730421 -0.9999999 192 192 192 255 0.136601 0.972103
500 500 -31.19531 0.0002669268 0.0001334634 -1 192 192 192 255 0.23736 0.989053
181.6869 391.0232 -16.65117 0.004339198 -0.02272011 -0.9997325 192 192 192 255 0.102008 0.783291
182.356 387.6408 -6.053345 0.656589 -0.6971997 0.287756 192 192 192 255 0.101972 0.783306
98.84937 221.4391 16.65117 0.9596016 0.01133138 0.2811339 192 192 192 255 0.048484 0.607897
176.6451 391.6162 16.65117 0.6648801 -0.6883283 0.2900666 192 192 192 255 0.101908 0.783332
500 75.87138 -31.19531 0.7165191 0.1593742 -0.6791173 192 192 192 255 0.23736 0.789359
500 105.1522 -16.65117 0.0009470018 0.0002808536 -0.9999995 192 192 192 255 0.23736 0.803145
500 464 31.19531 0.0005136022 -0.0003094959 0.9999998 192 192 192 255 0.23736 0.972103
500 500 31.19531 0.0002715281 0.0001356846 0.9999999 192 192 192 255 0.23736 0.989053
286 464 31.19531 0.0004731333 -0.0005079189 0.9999998 192 192 192 255 0.136601 0.972103
195.8 445.8 -16.65117 -0.5902882 -0.05090423 -0.8055859 192 192 192 255 0.094132 0.713534
500 105.1522 16.65117 0.0005899279 0.1445912 0.9894913 192 192 192 255 0.23736 0.803145
500 75.87138 31.19531 0.4568543 0.2032348 0.8660138 192 192 192 255 0.23736 0.789359
500 0 31.19531 0.0003585652 -0.0007171304 0.9999997 192 192 192 255 0.23736 0.753636
193.205 443.1791 16.65117 -0.00856613 -0.6051146 0.7960923 192 192 192 255 0.09291 0.7123
195.8 393.622 -16.65117 0.1636112 -0.9319232 -0.323652 192 192 192 255 0.102 0.783263
214 398.8611 -31.19531 -0.2054297 -0.4068955 -0.8900757 192 192 192 255 0.102008 0.783219
214 398.6111 31.19531 0.1431921 -0.9843388 0.1028261 192 192 192 255 0.102701 0.691316
195.8 394.439 16.65117 -0.03813178 -0.6535356 0.7559347 192 192 192 255 0.094132 0.689352
500 286 -31.19531 0.002382883 0.2591723 -0.9658282 192 192 192 255 0.23736 0.888295
500 500 -0 0.8944272 0.4472136 0 192 192 192 255 0.23736 0.989053
500 221.4391 -16.65117 0.8630387 -0.1566531 -0.4802333 192 192 192 255 0.23736 0.857897
286 409.7364 -31.19531 0.6132533 0.08763555 -0.7850099 192 192 192 255 0.101966 0.783083
304.2 445.8 -16.65117 0.004573684 -0.009292549 -0.9999464 192 192 192 255 0.14517 0.713534
304.2 411.285 -16.65117 0.4621992 -0.1272297 -0.8776016 192 192 192 255 0.14517 0.697283
307.7969 411.8214 -16.65117 -0.6472078 -0.6539943 -0.3916804 192 192 192 255 0.101934 0.783049
500 221.4391 16.65117 0.9319827 -0.08458368 0.3524967 192 192 192 255 0.23736 0.857897
397.0286 304.2 -16.65117 -0.9079406 0.03368548 -0.4177429 192 192 192 255 0.188877 0.646864
500 304.2 -16.65117 0.005681541 0.6214949 -0.7833977 192 192 192 255 0.23736 0.646864
352.9624 360.9694 16.65117 -0.0872468 -0.05207053 0.994825 192 192 192 255 0.101842 0.783075
304.2 410.3672 16.65117 0.1431999 -0.9695762 0.1985344 192 192 192 255 0.14517 0.696851
306.7322 445.8 16.65117 0.005376968 -0.00577076 0.9999689 192 192 192 255 0.146363 0.713577
286 409.1665 31.19531 0.1448544 -0.9842839 0.1010069 192 192 192 255 0.136601 0.696286
500 286 31.19531 0.000554384 0.0001631231 0.9999999 192 192 192 255 0.23736 0.888295
500 304.2 16.65117 0.4691007 0.2747459 0.8393207 192 192 192 255 0.23736 0.646864
396.9742 307.5069 16.65117 -0.8642272 0.1427609 0.4824217 192 192 192 255 0.188852 0.647814
394.2318 105.1522 -16.65117 -0.0008692063 -2.312629e-05 -0.9999996 192 192 192 255 0.10202 0.78329
396.1013 105.1522 16.65117 -0.1368306 0.1174132 0.9836115 192 192 192 255 0.101956 0.783307
391.157 139.3162 16.65117 -0.0008063328 -2.753894e-05 0.9999997 192 192 192 255 0.101944 0.783278
500 445.8 -16.65117 0.0002177525 -6.341164e-05 -1 192 192 192 255 0.23736 0.713534
500 445.8 16.65117 0.000437991 -0.0001312501 0.9999999 192 192 192 255 0.23736 0.963534
392.1582 221.4391 -16.65117 -0.9435685 0.03461895 -0.3293633 192 192 192 255 0.10197 0.783159
392.803 221.4391 16.65117 -0.3946113 -0.1778692 0.901468 192 192 192 255 0.101906 0.783178
323.2761 385.3231 3.884044 -0.5993888 -0.5304896 0.5994279 192 192 192 255 0.101882 0.783078
324.7598 407.9683 16.65117 -0.1755473 -0.4732877 0.8632392 192 192 192 255 0.154851 0.945722
340.2834 398.5416 16.65117 -0.4384466 -0.2630987 0.8593857 192 192 192 255 0.101828 0.78308
137.2939 353.5704 16.65117 0.6071592 -0.6817746 0.4080945 192 192 192 255 0.101948 0.78345
100.0326 331.4162 16.65117 0.3048925 -0.2894665 0.9073311 192 192 192 255 0.049041 0.909678
85.58813 170.4996 16.65117 0.8161559 0.314257 0.4849042 192 192 192 255 0.04224 0.583913
90.7948 162.0844 -16.65117 0.722824 -0.1778729 -0.6677475 192 192 192 255 0.043386 0.578816
348.4613 444.5944 16.65117 -0.0001142796 -0.3205573 0.9472291 192 192 192 255 0.16601 0.713189
354.7681 464 31.1953 3.465083e-06 -0.0003315317 0.9999999 192 192 192 255 0.168979 0.972103
422.4562 445.8 16.65117 0.003113183 -0.3753409 0.9268816 192 192 192 255 0.200849 0.963534
446.5183 466.3429 31.1953 -1.768153e-06 -0.0003654713 0.9999999 192 192 192 255 0.212179 0.722775
36.30835 464 31.19531 0.03233812 -0.3057751 0.9515544 192 192 192 255 0.019038 0.972103
147.2078 464 31.19531 -0.04222718 -0.3597741 0.9320834 192 192 192 255 0.071253 0.722103
104.7401 457.8209 26.87898 -0.00574125 -0.525933 0.8505066 192 192 192 255 0.051259 0.719317
94.63904 470.2012 31.19531 -1.569572e-08 -0.328357 0.9445537 192 192 192 255 0.046502 0.975023
284.0244 422.1433 -31.19531 0.6128429 0.09721052 -0.7842026 192 192 192 255 0.136601 0.702396
215.9756 440.0882 -31.19531 -0.589977 -0.04853183 -0.8059602 192 192 192 255 0.102701 0.710845
407.3845 286 -31.19531 0.1166617 0.3138358 -0.942283 192 192 192 255 0.193753 0.888295
485.0436 286 -31.19531 -0.03309411 0.2698551 -0.9623321 192 192 192 255 0.230318 0.888295
436.5112 275.0867 -31.19531 0 0.2912362 -0.9566512 192 192 192 255 0.207467 0.883156
432.6943 292.7477 -25.80304 4.910855e-11 0.2927499 -0.9561891 192 192 192 255 0.20567 0.641472
386.1189 442.7235 -16.65117 -1.183816e-07 -0.0001280136 -1 192 192 192 255 0.183741 0.713534
390.645 464.9968 -31.19531 -2.885246e-07 -0.000312 -0.9999999 192 192 192 255 0.185872 0.972103
114.5865 447.5024 -16.65117 2.640485e-12 -0.0002007442 -1 192 192 192 255 0.055894 0.713534
107.2767 462.2975 -31.19531 4.310767e-12 -0.0003277282 -0.9999999 192 192 192 255 0.052452 0.972103
412.0834 164.0299 -21.26987 -0.3577265 -0.2223278 -0.9069743 192 192 192 255 0.195966 0.580867
434.7485 148.4197 -26.30509 -0.3557656 -0.2251711 -0.9070441 192 192 192 255 0.206637 0.573517
46.99133 131.7372 26.30509 0.0002421877 -0.000614061 0.9999998 192 192 192 255 0.024068 0.815663
46.99133 196.3225 26.30509 0.0002427302 0.000956188 0.9999996 192 192 192 255 0.024068 0.846071
0 196.3225 26.30509 -0.5898395 0.2303863 0.7739584 192 192 192 255 0.001942 0.846071
0 131.7372 26.30509 -0.3430534 -0.5359743 0.7713922 192 192 192 255 0.001942 0.815663
82.33813 164.0299 26.30509 0.04101066 0.0152523 0.9990423 192 192 192 255 0.04071 0.830867
0 124.022 16.65117 -0.8944272 -0.3493553 0.2791969 192 192 192 255 0.001942 0.81203
0 204.0377 16.65117 -0.4472136 0.6987113 0.5583928 192 192 192 255 0.001942 0.849704
453.0085 196.3225 -26.30509 -0.576818 0.6332942 -0.5159647 192 192 192 255 0.215235 0.846071
500 196.3225 -26.30509 0.3430535 0.5359747 -0.7713919 192 192 192 255 0.23736 0.846071
500 131.7372 -26.30509 0.5898395 -0.2303864 -0.7739584 192 192 192 255 0.23736 0.815663
453.0088 131.7372 -26.30509 -0.2101531 -0.5337572 -0.8191087 192 192 192 255 0.215235 0.815663
434.7485 148.4197 -26.30509 -0.3557656 -0.2251711 -0.9070441 192 192 192 255 0.206637 0.823517
426.4518 172.0603 -26.30509 -0.4783788 0.2910005 -0.8285363 192 192 192 255 0.204746 0.836489
500 204.0377 -16.65117 0.8944272 0.3493554 -0.2791967 192 192 192 255 0.23736 0.849704
500 124.022 -16.65117 0.4472136 -0.6987116 -0.5583925 192 192 192 255 0.23736 0.81203
453.0085 196.3225 26.30509 -0.0002417254 0.0006138265 0.9999998 192 192 192 255 0.215235 0.846071
453.0088 131.7372 26.30509 -0.0004834115 -0.001227558 0.9999992 192 192 192 255 0.215235 0.815663
500 131.7372 26.30509 0.5898395 -0.2303864 0.7739584 192 192 192 255 0.23736 0.815663
500 196.3225 26.30509 0.3430535 0.5359747 0.7713919 192 192 192 255 0.23736 0.846071
417.6619 164.0299 26.30509 -0.0007256564 0.0002722908 0.9999997 192 192 192 255 0.198592 0.830867
500 204.0377 16.65117 0.8944272 0.3493554 0.2791967 192 192 192 255 0.23736 0.849704
500 124.022 16.65117 0.4472136 -0.6987116 0.5583925 192 192 192 255 0.23736 0.81203
46.99133 131.7372 -26.30509 0.0002419962 -0.0006139642 -0.9999998 192 192 192 255 0.024068 0.815663
0 131.7372 -26.30509 -0.3430534 -0.5359743 -0.7713922 192 192 192 255 0.001942 0.815663
0 196.3225 -26.30509 -0.5898395 0.2303863 -0.7739584 192 192 192 255 0.001942 0.846071
46.99133 196.3225 -26.30509 0.0004837703 0.001227739 -0.9999992 192 192 192 255 0.024068 0.846071
82.33813 164.0299 -26.30509 0.01424285 -0.003387277 -0.9998928 192 192 192 255 0.040626 0.830865
0 124.022 -16.65117 -0.8944272 -0.3493553 -0.2791969 192 192 192 255 0.001942 0.81203
0 204.0377 -16.65117 -0.4472136 0.6987113 -0.5583928 192 192 192 255 0.001942 0.849704
394.2318 105.1522 -16.65117 -0.9032444 -0.4291264 0.0003182517 192 192 192 255 0.10203 0.783314
394.5741 123.927 -26.50843 -0.04671162 0.001993051 -0.9989064 192 192 192 255 0.102029 0.783258
401.8461 85.2188 -26.50843 -0.0009237389 -0.0009529949 -0.9999991 192 192 192 255 0.102046 0.783302
443.5015 74.99486 -26.50843 0.0005117745 0.0002550992 -0.9999999 192 192 192 255 0.210758 0.538946
394.5741 123.927 -26.50843 -0.04671162 0.001993051 -0.9989064 192 192 192 255 0.187722 0.561985
456.3782 74.99486 -16.65117 0.01530853 -0.711889 0.7021252 192 192 192 255 0.216821 0.538946
443.5015 74.99486 26.50843 0.0003585504 0.0003614452 0.9999999 192 192 192 255 0.210758 0.788946
396.937 121.5639 26.50843 0.0001133414 0.0009618629 0.9999996 192 192 192 255 0.188834 0.810873
400.4176 97.51338 26.50843 -0.08127578 -0.01003327 0.9966412 192 192 192 255 0.190473 0.799549
388.9172 142.4625 -16.65117 -0.8262906 0.04634399 -0.5613341 192 192 192 255 0.102008 0.783257
396.937 121.5639 26.50843 0.0001133414 0.0009618629 0.9999996 192 192 192 255 0.10193 0.783295
391.157 139.3162 16.65117 -0.7211308 0.1363896 0.6792409 192 192 192 255 0.101944 0.783276
57.07373 0 -31.19531 0.7923154 -0.4258474 -0.4369099 192 192 192 255 0.102252 0.783922
63.02429 -0 0 0.002010147 -0.999998 -5.176859e-05 192 192 192 255 0.102188 0.783934
0 75.87138 -31.19531 -0.00061794 0.0002748949 -0.9999998 192 192 192 255 0.001942 0.539359
0 105.1522 -16.65117 -0.7154546 0.2121833 -0.6656597 192 192 192 255 0.001942 0.553145
69.85364 75.87138 -31.19531 0.001785238 4.997829e-05 -0.9999984 192 192 192 255 0.034832 0.789359
63.37488 52.7318 -31.19531 0.001806653 -0.0003556866 -0.9999983 192 192 192 255 0.031781 0.778464
60.47009 0 31.19531 0.1183162 -0.02217392 0.9927284 192 192 192 255 0.030414 0.753636
63.55042 0 23.62119 0.07266887 -0.9969264 0.02927626 192 192 192 255 0.031864 0.753636
0 105.1522 16.65117 -0.5209337 0.07724699 0.8500947 192 192 192 255 0.001942 0.553145
0 75.87138 31.19531 -0.0004803865 0.0004274066 0.9999998 192 192 192 255 0.001942 0.539359
70.20203 75.87138 31.19531 0.001389045 -0.0001750134 0.999999 192 192 192 255 0.102092 0.783874
69.85364 75.87138 -31.19531 0.001785238 4.997829e-05 -0.9999984 192 192 192 255 0.102218 0.783829
78.31897 105.1522 16.65117 0.7210199 0.0201855 0.6926203 192 192 192 255 0.102105 0.78382
78.13306 105.1522 -16.65117 0.9285578 -0.2107618 -0.3055488 192 192 192 255 0.102172 0.783796
70.20203 75.87138 31.19531 0.001389045 -0.0001750134 0.999999 192 192 192 255 0.034996 0.789359
61.91089 46.25877 31.19531 0.001902338 -0.0001465195 0.9999982 192 192 192 255 0.031092 0.775416
62.90137 14.38182 31.19531 0.120335 -0.0198948 0.992534 192 192 192 255 0.031559 0.760408
95.62268 286 -31.19531 0.0002759131 0.0001815252 -1 192 192 192 255 0.046965 0.638295
0 286 -31.19531 -0.0002904277 0.0001813081 -0.9999999 192 192 192 255 0.001942 0.638295
0 304.2 -16.65117 -0.003393824 0.001412463 -0.9999933 192 192 192 255 0.001942 0.646864
0 304.2 16.65117 -0.8464181 0.1761339 0.5025468 192 192 192 255 0.001942 0.646864
0 286 31.19531 -0.0002945384 0.0003677486 0.9999999 192 192 192 255 0.001942 0.638295
94.26611 286 31.19531 0.0002825276 0.0001017683 0.9999999 192 192 192 255 0.046326 0.638295
0 250 -31.19531 -0.0002904184 -0.0001317871 -1 192 192 192 255 0.001942 0.621345
95.62268 250 -31.19531 0.0005568571 -0.0001318602 -0.9999999 192 192 192 255 0.046965 0.621345
0 221.4391 -16.65117 -0.002292404 -0.000208051 -0.9999974 192 192 192 255 0.001942 0.607897
419.7072 0 -31.19531 -0.9170302 -0.1742885 -0.358719 192 192 192 255 0.199555 0.753636
406.6392 0 2.284686 -0.917297 -0.1750997 -0.35764 192 192 192 255 0.193402 0.753636
99.59839 199.6388 -16.65117 0.5405421 -0.1012587 -0.8352011 192 192 192 255 0.048837 0.597633
0 250 31.19531 -0.0002945967 -0.0001336831 0.9999999 192 192 192 255 0.001942 0.621345
0 221.4391 16.65117 -0.9319827 -0.08458368 0.3524967 192 192 192 255 0.001942 0.607897
94.26611 250 31.19531 0.4411262 0.005316393 0.8974293 192 192 192 255 0.046326 0.621345
98.76111 304.2 -16.65117 0.0995671 0.0006690012 -0.9950306 192 192 192 255 0.102093 0.783545
95.62268 286 -31.19531 0.0002759131 0.0001815252 -1 192 192 192 255 0.102122 0.783565
95.62268 250 -31.19531 0.0005568571 -0.0001318602 -0.9999999 192 192 192 255 0.102136 0.783605
99.91687 221.4391 -16.65117 0.1453825 -0.002510576 -0.9893724 192 192 192 255 0.102116 0.78364
107.2767 462.2975 -31.19531 4.310767e-12 -0.0003277282 -0.9999999 192 192 192 255 0.052452 0.722103
214 464 -31.19531 -0.07408559 -0.006261804 -0.9972322 192 192 192 255 0.102701 0.722103
98.84937 221.4391 16.65117 0.9596016 0.01133138 0.2811339 192 192 192 255 0.102044 0.783667
94.26611 250 31.19531 0.4411262 0.005316393 0.8974293 192 192 192 255 0.102002 0.783655
94.26611 286 31.19531 0.0002825276 0.0001017683 0.9999999 192 192 192 255 0.101984 0.783615
96.65479 304.2 16.65117 0.9210988 -0.2985546 0.2498841 192 192 192 255 0.101994 0.783584
99.08704 203.999 16.65117 0.9321664 -0.1572943 0.3260741 192 192 192 255 0.048596 0.599686
88.5603 141.7304 16.65117 0.9322446 -0.1577775 0.3256167 192 192 192 255 0.04364 0.570368
0 445.8 16.65117 -0.006482427 -0.415972 0.9093544 192 192 192 255 0.001942 0.713534
36.30835 464 31.19531 0.03233812 -0.3057751 0.9515544 192 192 192 255 0.019038 0.722103
0 464 31.19531 -0.3319812 -0.2047042 0.9208065 192 192 192 255 0.001942 0.722103
286 464 -31.19531 0.0003333707 -0.0001730421 -0.9999999 192 192 192 255 0.136601 0.722103
485.0436 286 -31.19531 -0.03309411 0.2698551 -0.9623321 192 192 192 255 0.230318 0.638295
500 286 -31.19531 0.002382883 0.2591723 -0.9658282 192 192 192 255 0.23736 0.638295
500 304.2 -16.65117 0.005681541 0.6214949 -0.7833977 192 192 192 255 0.23736 0.896864
286 464 31.19531 0.0004731333 -0.0005079189 0.9999998 192 192 192 255 0.136601 0.722103
214 464 31.19531 -0.08870043 -0.08777481 0.9921834 192 192 192 255 0.102701 0.972103
399.3301 286 31.19531 -0.02131962 0.00851339 0.9997365 192 192 192 255 0.189961 0.638295
500 286 31.19531 0.000554384 0.0001631231 0.9999999 192 192 192 255 0.23736 0.638295
500 105.1522 -16.65117 0.0009470018 0.0002808536 -0.9999995 192 192 192 255 0.23736 0.553145
500 75.87138 -31.19531 0.7165191 0.1593742 -0.6791173 192 192 192 255 0.23736 0.539359
405.4338 75.87138 -31.19531 -0.3746499 0.1111444 -0.9204806 192 192 192 255 0.192835 0.539359
394.2318 105.1522 -16.65117 -0.0008692063 -2.312629e-05 -0.9999996 192 192 192 255 0.18756 0.553145
500 304.2 16.65117 0.4691007 0.2747459 0.8393207 192 192 192 255 0.23736 0.896864
390.645 464.9968 -31.19531 -2.885246e-07 -0.000312 -0.9999999 192 192 192 255 0.185872 0.722103
500 464 -31.19531 0.0002553441 -0.000148315 -1 192 192 192 255 0.23736 0.722103
500 445.8 -16.65117 0.0002177525 -6.341164e-05 -1 192 192 192 255 0.23736 0.963534
396.1013 105.1522 16.65117 -0.1368306 0.1174132 0.9836115 192 192 192 255 0.188441 0.553145
400.4658 90.91296 23.72396 -0.3715508 0.319307 0.8717758 192 192 192 255 0.190496 0.546441
500 105.1522 16.65117 0.0005899279 0.1445912 0.9894913 192 192 192 255 0.23736 0.553145
500 75.87138 31.19531 0.4568543 0.2032348 0.8660138 192 192 192 255 0.23736 0.539359
402.5271 75.87138 31.19531 -0.4307333 0.1651297 0.8872435 192 192 192 255 0.191466 0.539359
354.7681 464 31.1953 3.465083e-06 -0.0003315317 0.9999999 192 192 192 255 0.168979 0.722103
398.2676 250 -31.19531 -0.9434367 0.03441108 -0.3297622 192 192 192 255 0.101984 0.783106
398.139 250 31.19531 -0.0005183799 -0.0001091829 0.9999999 192 192 192 255 0.10186 0.783146
399.3301 286 31.19531 -0.02131962 0.00851339 0.9997365 192 192 192 255 0.101842 0.783101
396.9742 307.5069 16.65117 -0.8642272 0.1427609 0.4824217 192 192 192 255 0.101851 0.783073
500 221.4391 16.65117 0.9319827 -0.08458368 0.3524967 192 192 192 255 0.23736 0.607897
392.803 221.4391 16.65117 -0.3946113 -0.1778692 0.901468 192 192 192 255 0.186888 0.607897
391.157 139.3162 16.65117 -0.0008063328 -2.753894e-05 0.9999997 192 192 192 255 0.186113 0.569231
284.0244 422.1433 -31.19531 0.6128429 0.09721052 -0.7842026 192 192 192 255 0.136601 0.952396
215.9756 440.0882 -31.19531 -0.589977 -0.04853183 -0.8059602 192 192 192 255 0.102701 0.960845
398.2676 250 -31.19531 -0.9434367 0.03441108 -0.3297622 192 192 192 255 0.189461 0.621345
500 250 -31.19531 0.001847325 -0.0008382855 -0.999998 192 192 192 255 0.23736 0.621345
500 221.4391 -16.65117 0.8630387 -0.1566531 -0.4802333 192 192 192 255 0.23736 0.607897
392.1582 221.4391 -16.65117 -0.9435685 0.03461895 -0.3293633 192 192 192 255 0.186584 0.607897
410.6945 0 31.19531 -0.0007020243 -0.0004715986 0.9999996 192 192 192 255 0.195312 0.753636
304.2 411.285 -16.65117 0.4621992 -0.1272297 -0.8776016 192 192 192 255 0.101936 0.783056
500 250 31.19531 0.0001371198 -0.0001244454 1 192 192 192 255 0.23736 0.621345
398.139 250 31.19531 -0.0005183799 -0.0001091829 0.9999999 192 192 192 255 0.1894 0.621345
214 398.6111 31.19531 0.1431921 -0.9843388 0.1028261 192 192 192 255 0.102701 0.941316
286 409.1665 31.19531 0.1448544 -0.9842839 0.1010069 192 192 192 255 0.136601 0.946286
304.2 410.3672 16.65117 0.1431999 -0.9695762 0.1985344 192 192 192 255 0.101837 0.783088
195.8 394.439 16.65117 -0.03813178 -0.6535356 0.7559347 192 192 192 255 0.101897 0.783296
214 398.6111 31.19531 0.1431921 -0.9843388 0.1028261 192 192 192 255 0.101865 0.783266
286 409.1665 31.19531 0.1448544 -0.9842839 0.1010069 192 192 192 255 0.101826 0.783127
402.5271 75.87138 31.19531 -0.4307333 0.1651297 0.8872435 192 192 192 255 0.191466 0.789359
405.5139 31.21746 31.19531 -0.001058914 -0.0001037937 0.9999995 192 192 192 255 0.192872 0.768334
388.6138 135.0676 -16.65117 -0.0008812946 -3.026702e-05 -0.9999996 192 192 192 255 0.184915 0.567231
405.4338 75.87138 -31.19531 -0.3746499 0.1111444 -0.9204806 192 192 192 255 0.192835 0.789359
98.76111 304.2 -16.65117 0.0995671 0.0006690012 -0.9950306 192 192 192 255 0.048443 0.896864
98.76111 313.1245 -16.65117 0.09815483 -0.0007007848 -0.995171 192 192 192 255 0.048443 0.901066
181.6869 391.0232 -16.65117 0.004339198 -0.02272011 -0.9997325 192 192 192 255 0.087487 0.937743
114.5865 447.5024 -16.65117 2.640485e-12 -0.0002007442 -1 192 192 192 255 0.055894 0.963534
195.8 445.8 -16.65117 -0.5902882 -0.05090423 -0.8055859 192 192 192 255 0.094132 0.963534
195.8 393.622 -16.65117 0.1636112 -0.9319232 -0.323652 192 192 192 255 0.094132 0.938967
195.8 394.439 16.65117 -0.03813178 -0.6535356 0.7559347 192 192 192 255 0.094132 0.939352
193.205 443.1791 16.65117 -0.00856613 -0.6051146 0.7960923 192 192 192 255 0.09291 0.9623
176.6451 391.6162 16.65117 0.6648801 -0.6883283 0.2900666 192 192 192 255 0.085113 0.938023
99.99097 314.2795 16.65117 0.3198211 -0.03969303 0.9466462 192 192 192 255 0.049022 0.90161
96.65479 304.2 16.65117 0.9210988 -0.2985546 0.2498841 192 192 192 255 0.047451 0.896864
397.0286 304.2 -16.65117 -0.9079406 0.03368548 -0.4177429 192 192 192 255 0.101943 0.783049
304.2 411.285 -16.65117 0.4621992 -0.1272297 -0.8776016 192 192 192 255 0.14517 0.947283
304.2 445.8 -16.65117 0.004573684 -0.009292549 -0.9999464 192 192 192 255 0.14517 0.963534
307.7969 411.8214 -16.65117 -0.6472078 -0.6539943 -0.3916804 192 192 192 255 0.146864 0.947536
351.8011 361.637 -16.65117 -0.0001110509 -0.0001063847 -1 192 192 192 255 0.167583 0.923907
386.1189 442.7235 -16.65117 -1.183816e-07 -0.0001280136 -1 192 192 192 255 0.183741 0.963534
397.6865 325.0218 -16.65117 -0.03694407 0.001012301 -0.9993168 192 192 192 255 0.189187 0.906668
397.0286 304.2 -16.65117 -0.9079406 0.03368548 -0.4177429 192 192 192 255 0.188877 0.896864
304.2 410.3672 16.65117 0.1431999 -0.9695762 0.1985344 192 192 192 255 0.14517 0.946851
307.2114 410.8083 16.65117 -0.3221678 -0.5600665 0.7632388 192 192 192 255 0.146588 0.947059
306.7322 445.8 16.65117 0.005376968 -0.00577076 0.9999689 192 192 192 255 0.146363 0.963534
348.4613 444.5944 16.65117 -0.0001142796 -0.3205573 0.9472291 192 192 192 255 0.16601 0.962967
352.9624 360.9694 16.65117 -0.0872468 -0.05207053 0.994825 192 192 192 255 0.168129 0.923593
397.6626 325.01 16.65117 -0.03155552 0.001161772 0.9995013 192 192 192 255 0.189176 0.906662
396.9742 307.5069 16.65117 -0.8642272 0.1427609 0.4824217 192 192 192 255 0.188852 0.898421
324.7598 407.9683 16.65117 -0.1755473 -0.4732877 0.8632392 192 192 192 255 0.101829 0.783082
100.0326 331.4162 16.65117 0.3048925 -0.2894665 0.9073311 192 192 192 255 0.10198 0.783548
137.2939 353.5704 16.65117 0.6071592 -0.6817746 0.4080945 192 192 192 255 0.066585 0.920109
401.2493 85.31732 26.50843 -0.06622919 -0.004516254 0.9977943 192 192 192 255 0.191182 0.788946
340.2834 398.5416 16.65117 -0.4384466 -0.2630987 0.8593857 192 192 192 255 0.16216 0.941283
422.4562 445.8 16.65117 0.003113183 -0.3753409 0.9268816 192 192 192 255 0.200849 0.713534
446.5183 466.3429 31.1953 -1.768153e-06 -0.0003654713 0.9999999 192 192 192 255 0.212179 0.973207
500 445.8 16.65117 0.000437991 -0.0001312501 0.9999999 192 192 192 255 0.23736 0.713534
500 464 31.19531 0.0005136022 -0.0003094959 0.9999998 192 192 192 255 0.23736 0.722103
94.63904 470.2012 31.19531 -1.569572e-08 -0.328357 0.9445537 192 192 192 255 0.046501 0.723983
147.2078 464 31.19531 -0.04222718 -0.3597741 0.9320834 192 192 192 255 0.071253 0.972103
286 409.7364 -31.19531 0.6132533 0.08763555 -0.7850099 192 192 192 255 0.136601 0.696554
286 409.7364 -31.19531 0.6132533 0.08763555 -0.7850099 192 192 192 255 0.136601 0.946554
214 398.8611 -31.19531 -0.2054297 -0.4068955 -0.8900757 192 192 192 255 0.102701 0.941434
195.8 393.622 -16.65117 0.1636112 -0.9319232 -0.323652 192 192 192 255 0.094132 0.688967
214 398.8611 -31.19531 -0.2054297 -0.4068955 -0.8900757 192 192 192 255 0.102701 0.691434
436.5112 275.0867 -31.19531 0 0.2912362 -0.9566512 192 192 192 255 0.207467 0.63516
399.4052 286 -31.19531 -0.4587085 0.1921572 -0.8675611 192 192 192 255 0.189996 0.888295
407.3845 286 -31.19531 0.1166617 0.3138358 -0.942283 192 192 192 255 0.193753 0.638295
399.4052 286 -31.19531 -0.4587085 0.1921572 -0.8675611 192 192 192 255 0.189996 0.638295
0 445.8 -16.65117 -0.0006070273 -0.0002007136 -0.9999998 192 192 192 255 0.001942 0.713534
0 464 -31.19531 -0.0002588855 -0.000171201 -1 192 192 192 255 0.001942 0.722103
3 5 4 9 
3 5 9 8 
3 6 7 0 
3 6 0 2 
3 201 202 203 
3 201 203 204 
3 0 1 3 
3 0 3 2 
3 3 179 4 
3 3 4 5 
3 201 205 202 
3 206 204 203 
3 206 203 207 
3 15 18 19 
3 15 19 14 
3 16 12 10 
3 16 10 17 
3 208 209 210 
3 208 210 211 
3 199 11 10 
3 199 10 13 
3 10 12 13 
3 15 14 11 
3 15 11 200 
3 11 199 200 
3 208 211 212 
3 208 212 213 
3 214 215 210 
3 214 210 209 
3 25 24 29 
3 25 29 28 
3 26 27 20 
3 26 20 22 
3 216 217 218 
3 216 218 219 
3 20 21 23 
3 20 23 22 
3 21 24 25 
3 21 25 23 
3 216 220 217 
3 221 219 218 
3 221 218 222 
3 35 38 39 
3 35 39 34 
3 36 32 30 
3 36 30 37 
3 223 224 225 
3 223 225 226 
3 30 32 33 
3 30 33 180 
3 31 33 35 
3 31 35 34 
3 223 226 227 
3 228 229 225 
3 228 225 224 
3 42 54 41 
3 43 44 52 
3 43 52 51 
3 45 46 47 
3 46 45 48 
3 46 48 49 
3 230 53 231 
3 230 231 232 
3 233 234 50 
3 233 50 235 
3 236 237 238 
3 53 239 231 
3 42 240 241 
3 42 241 40 
3 40 54 42 
3 55 56 57 
3 55 57 58 
3 59 60 55 
3 59 55 58 
3 61 62 63 
3 242 69 84 
3 242 84 243 
3 243 84 61 
3 243 61 63 
3 64 58 65 
3 64 65 66 
3 67 244 245 
3 67 245 68 
3 246 247 60 
3 55 60 247 
3 55 247 56 
3 248 65 58 
3 248 58 249 
3 58 57 249 
3 70 250 251 
3 70 251 71 
3 252 84 69 
3 252 69 253 
3 254 252 253 
3 254 253 255 
3 75 254 255 
3 75 255 73 
3 72 73 255 
3 74 75 73 
3 76 77 78 
3 79 59 58 
3 79 58 80 
3 81 82 83 
3 85 80 58 
3 85 58 64 
3 87 86 125 
3 89 88 132 
3 89 132 133 
3 90 91 77 
3 90 77 79 
3 256 66 257 
3 257 66 65 
3 257 65 258 
3 65 248 258 
3 92 126 87 
3 92 87 125 
3 177 133 135 
3 93 86 87 
3 93 87 167 
3 95 96 167 
3 95 167 87 
3 97 198 99 
3 100 85 82 
3 100 82 101 
3 78 77 91 
3 259 260 261 
3 259 261 102 
3 188 104 105 
3 188 105 185 
3 106 90 79 
3 106 79 80 
3 81 101 82 
3 107 262 263 
3 107 263 264 
3 109 110 193 
3 109 193 192 
3 150 109 192 
3 111 80 85 
3 111 85 100 
3 156 174 121 
3 114 115 113 
3 114 113 112 
3 116 117 118 
3 115 119 160 
3 115 160 113 
3 160 174 113 
3 265 266 122 
3 265 122 267 
3 268 123 124 
3 268 124 269 
3 106 80 99 
3 106 99 98 
3 68 245 267 
3 68 267 270 
3 122 270 267 
3 126 127 128 
3 126 128 87 
3 129 196 131 
3 111 105 104 
3 111 104 80 
3 271 272 134 
3 271 134 273 
3 88 89 274 
3 274 89 73 
3 274 73 275 
3 276 275 73 
3 276 73 277 
3 73 72 277 
3 124 123 136 
3 124 136 137 
3 182 139 140 
3 141 197 278 
3 141 278 279 
3 74 73 89 
3 74 89 280 
3 280 89 281 
3 282 281 89 
3 282 89 283 
3 89 94 283 
3 134 272 250 
3 134 250 284 
3 285 284 250 
3 285 250 70 
3 124 142 143 
3 124 143 144 
3 145 187 286 
3 286 187 287 
3 286 287 288 
3 190 141 279 
3 148 103 145 
3 148 145 149 
3 151 124 137 
3 151 137 152 
3 97 99 131 
3 97 131 130 
3 155 189 289 
3 155 289 154 
3 151 157 142 
3 151 142 124 
3 194 158 159 
3 194 159 290 
3 291 290 159 
3 99 80 151 
3 99 151 131 
3 152 109 150 
3 152 150 292 
3 161 162 293 
3 161 293 163 
3 118 117 164 
3 294 140 139 
3 294 139 104 
3 104 139 151 
3 104 151 80 
3 295 296 165 
3 295 165 166 
3 297 298 299 
3 297 299 300 
3 168 169 95 
3 168 95 87 
3 128 168 87 
3 157 301 164 
3 157 164 117 
3 170 195 302 
3 170 302 303 
3 304 151 152 
3 304 152 292 
3 305 306 307 
3 308 307 306 
3 308 306 309 
3 181 310 293 
3 181 293 162 
3 171 301 157 
3 171 157 151 
3 96 95 115 
3 96 115 172 
3 115 311 172 
3 115 95 169 
3 115 169 173 
3 115 173 312 
3 115 312 313 
3 313 314 115 
3 115 314 119 
3 307 315 316 
3 307 316 317 
3 317 305 307 
3 304 129 131 
3 304 131 151 
3 171 151 139 
3 171 139 138 
3 130 318 319 
3 130 319 97 
3 320 321 322 
3 320 322 323 
3 269 124 144 
3 269 144 324 
3 156 121 325 
3 325 121 133 
3 325 133 153 
3 132 146 133 
3 153 133 146 
3 153 146 147 
3 316 315 326 
3 316 326 327 
3 140 294 328 
3 140 328 329 
3 120 330 121 
3 331 135 133 
3 331 133 121 
3 332 331 121 
3 332 121 330 
3 330 333 332 
3 143 334 335 
3 143 335 144 
3 324 144 335 
3 323 322 297 
3 323 297 336 
3 300 336 297 
3 337 136 123 
3 337 123 268 
3 338 90 339 
3 339 90 106 
3 339 106 340 
3 340 341 342 
3 340 342 343 
3 344 345 111 
3 344 111 346 
3 178 111 347 
3 111 100 348 
3 111 348 347 
3 108 311 115 
3 108 115 349 
3 115 114 349 
3 350 351 352 
3 353 354 304 
3 353 304 355 
3 292 356 355 
3 292 355 304 
3 357 358 359 
3 175 360 359 
3 175 359 358 
3 361 362 171 
3 362 363 301 
3 362 301 171 
3 120 121 174 
3 364 174 176 
3 120 174 364 
3 176 174 160 
3 112 113 174 
3 112 174 156 
3 94 89 365 
3 365 89 177 
3 346 111 178 
3 346 178 366 
3 177 89 133 
3 236 238 367 
3 1 179 3 
3 180 33 31 
3 368 183 360 
3 368 360 175 
3 369 184 310 
3 369 310 181 
3 370 139 182 
3 171 183 368 
3 171 368 361 
3 371 372 184 
3 371 184 369 
3 138 139 370 
3 287 187 373 
3 145 103 186 
3 145 186 187 
3 373 187 186 
3 294 104 188 
3 294 188 374 
3 375 189 155 
3 319 318 376 
3 319 376 377 
3 378 141 190 
3 378 190 379 
3 380 194 290 
3 193 110 381 
3 193 381 191 
3 382 194 380 
3 158 194 382 
3 158 382 383 
3 352 351 354 
3 352 354 353 
3 302 195 154 
3 302 154 289 
3 131 196 130 
3 106 341 340 
3 278 197 384 
3 278 384 385 
3 99 198 98 
3 200 199 13 
