ply
format ascii 1.0
comment VCGLIB generated
comment TextureFile Dungeons_2_Texture_01_A.png
element vertex 189
property float x
property float y
property float z
property float nx
property float ny
property float nz
property uchar red
property uchar green
property uchar blue
property uchar alpha
property float texture_u
property float texture_v
element face 162
property list uchar int vertex_indices
end_header
3e-05 0 -14.23922 -0.943419 -0.2345098 -0.234448 192 192 192 255 0.055851 0.995428
500 0 -14.23922 0.8754138 -0.3420949 -0.3414994 192 192 192 255 0.07648 0.995427
3e-05 500 25.3635 -0.6666667 0.6666667 0.3333333 192 192 192 255 0.007657 0.995428
500 500 25.3635 0.3333335 0.6666666 0.6666666 192 192 192 255 0.007657 0.752096
500 500 -14.23922 0.9078299 0.2967754 -0.2962588 192 192 192 255 0.07648 0.752096
3e-05 500 -14.23922 -0.8061588 0.2646717 -0.5292041 192 192 192 255 0.02693 0.995428
352.1029 500 -214.4947 0.4434016 0.7529472 -0.4862773 192 192 192 255 0.114133 0.995427
352.1029 0 -214.4947 0.2217008 -0.7529472 -0.6196123 192 192 192 255 0.114133 0.752096
333.3333 500 -174.892 -0.570335 0.6429687 0.5111843 192 192 192 255 0.105114 0.833206
148.0189 500 -214.4947 -0.2214441 0.7527964 -0.6198872 192 192 192 255 0.016362 0.752096
148.0189 0 -214.4947 -0.4428883 -0.7527964 -0.486978 192 192 192 255 0.016362 0.995428
166.6667 500 -174.892 0.8848425 0.0001882554 0.4658904 192 192 192 255 0.077181 0.995427
41.80004 500 -15.19841 -0.3731154 0.8347505 -0.4049402 192 192 192 255 0.027397 0.975085
41.80004 0 -15.19841 -0.2323694 -0.750896 -0.6181907 192 192 192 255 0.076193 0.995428
61.25581 500 25.36352 0.8848645 7.192731e-05 0.4658484 192 192 192 255 0.007657 0.965616
457.0228 500 -16.77841 0.2496983 0.7481292 -0.6147792 192 192 192 255 0.017911 0.995427
457.0228 0 -16.77841 0.4552723 -0.7481292 -0.4827316 192 192 192 255 0.017911 0.752096
437.567 500 25.36352 -0.4456554 0.7536163 0.4831706 192 192 192 255 0.007657 0.78248
3e-05 192.783 25.3635 -0.0001505605 6.230963e-05 1 192 192 192 255 0.049076 0.580489
61.25581 192.783 25.36352 0.8228645 0.05219451 0.5658354 192 192 192 255 0.019727 0.845916
61.25581 429.591 25.36352 0.8846933 -0.0002919383 0.4661735 192 192 192 255 0.078887 0.961162
3e-05 429.591 25.3635 -0.3231241 -0.1445053 0.9352588 192 192 192 255 0.049076 0.961162
3e-05 214.7415 15.36352 -0.7142799 0.09867775 0.6928686 192 192 192 255 0.049076 0.591175
3e-05 409.591 15.36352 -0.7155502 -0.2133357 0.6651885 192 192 192 255 0.049076 0.686001
151.6682 295.1143 -146.3984 0.8635989 0.07388275 0.4987367 192 192 192 255 0.103317 0.895717
151.6682 429.591 -146.3984 0.8848841 -3.340809e-05 0.4658113 192 192 192 255 0.103317 0.961162
500 192.783 25.3635 0.3220737 0.1334833 0.9372571 192 192 192 255 0.058819 0.845916
500 214.7415 15.36352 0.0002846822 7.865769e-05 1 192 192 192 255 0.083258 0.591175
500 409.591 15.36352 0.0001504336 -2.242041e-05 1 192 192 192 255 0.083258 0.686001
500 429.591 25.3635 0.5639353 -0.2521994 0.7863666 192 192 192 255 0.058819 0.961162
348.2002 295.1143 -146.3295 -0.7889548 0.1556338 0.5944144 192 192 192 255 0.136551 0.895717
348.2002 429.591 -146.3295 -0.8020506 -0.0774987 0.5922068 192 192 192 255 0.136551 0.961162
437.567 192.783 25.36352 -0.4706658 0.2481223 0.8467048 192 192 192 255 0.220108 0.845916
437.567 429.591 25.36352 -0.4907607 -0.266158 0.8296468 192 192 192 255 0.220108 0.961162
52.91357 214.7415 15.36352 0.6185806 0.4825512 0.6200827 192 192 192 255 0.074827 0.591175
55.21884 409.591 15.36352 0.5147961 -0.166284 0.8410319 192 192 192 255 0.075949 0.686001
133.5034 307.1796 -133.3585 0.6768445 0.4054385 0.6144112 192 192 192 255 0.096971 0.636162
133.5034 409.591 -133.3585 0.744194 -0.09754847 0.6608023 192 192 192 255 0.096971 0.686001
366.3046 307.1637 -133.2059 -0.8844526 -0.005749857 0.4665946 192 192 192 255 0.142938 0.636154
366.3046 409.591 -133.2059 -0.8858401 -0.004195808 0.4639716 192 192 192 255 0.142938 0.686001
445.9262 214.7415 15.36352 -0.4052081 -0.004695006 0.9142124 192 192 192 255 0.215241 0.591175
443.6355 409.591 15.36352 -0.7431642 -0.008993256 0.6690487 192 192 192 255 0.215241 0.686001
61.25581 77.97228 25.36352 0.3568006 0.00012595 0.9341806 192 192 192 255 0.019727 0.790043
166.6667 199.8741 -174.892 0.8632514 0.01387956 0.5045832 192 192 192 255 0.077181 0.849367
333.3333 199.8741 -174.892 -0.3841951 0.4016163 0.8313234 192 192 192 255 0.158292 0.849367
437.567 77.97228 25.36352 -0.5959568 0.5138053 0.6171221 192 192 192 255 0.220108 0.790042
500 77.97228 25.3635 0.7155502 0.2133358 0.6651885 192 192 192 255 0.058819 0.790043
3e-05 77.97228 25.36351 -0.000426704 6.3598e-05 0.9999999 192 192 192 255 0.049076 0.790042
3.1e-05 0 35.36351 -0.5773503 -0.5773503 0.5773503 192 192 192 255 0.049076 0.752096
67.29279 0 35.36351 0.4447916 -0.7557471 0.4806316 192 192 192 255 0.081825 0.752096
69.64225 57.97228 35.36351 0.4021519 0.2724776 0.874088 192 192 192 255 0.082968 0.780309
3.1e-05 57.97228 35.36351 -0.323124 0.2890107 0.9011458 192 192 192 255 0.049076 0.780309
172.7036 0 -164.892 4.858485e-05 0.02473379 0.999694 192 192 192 255 0.112317 0.752096
175.0531 179.8741 -169.3554 0.005572569 0.0648605 0.9978788 192 192 192 255 0.114489 0.839634
324.9311 179.8741 -169.3757 -0.6320205 0.0578529 0.7727893 192 192 192 255 0.154203 0.839634
327.2649 0 -164.892 -0.512428 0.01208156 0.8586453 192 192 192 255 0.155339 0.752096
431.4985 0 35.36351 -0.8895066 -0.01399053 0.4567081 192 192 192 255 0.224975 0.752096
429.1647 57.97228 35.36351 -0.8492142 0.1317973 0.5113363 192 192 192 255 0.224975 0.780309
500 0 35.36351 0.5773503 -0.5773503 0.5773503 192 192 192 255 0.083258 0.752096
500 57.97228 35.36351 0.5639352 0.1260997 0.8161348 192 192 192 255 0.083258 0.780309
291.5845 179.8741 -169.3712 -0.002152053 0.06068348 0.9981548 192 192 192 255 0.137975 0.839634
225.101 192.6777 -172.9071 2.625808e-05 0.266243 0.963906 192 192 192 255 0.105619 0.845865
219.1804 162.7502 -168.9345 6.051883e-05 0.0323286 0.9994773 192 192 192 255 0.102738 0.8313
225.101 192.6777 -172.9072 0.0001343458 0.1315611 0.991308 192 192 192 255 0.065158 0.877761
403.3611 88.14969 -15.32072 -0.839249 0.1650653 0.5180874 192 192 192 255 0.200308 0.794995
350.6921 149.7464 -118.775 -0.8615986 0.08868715 0.4997824 192 192 192 255 0.149961 0.824972
385.1747 132.3712 -70.30177 -0.6848646 0.4116896 0.6012255 192 192 192 255 0.173551 0.816516
368.9026 112.8102 -83.0144 -0.8832169 0.015619 0.4687047 192 192 192 255 0.167364 0.806996
445.3079 267.341 15.36352 -0.7567449 -0.003292321 0.653702 192 192 192 255 0.215241 0.616773
443.9411 383.5991 15.36352 -0.7297284 -0.01638873 0.6835407 192 192 192 255 0.215241 0.673352
457.9808 341.7426 15.36352 -0.1608357 -0.001890859 0.9869794 192 192 192 255 0.062809 0.652982
439.1859 336.1564 5.312713 -0.8671734 -0.005419856 0.4979769 192 192 192 255 0.21035 0.650263
126.2171 266.3081 -98.04742 0.8495062 0.1010668 0.5178077 192 192 192 255 0.079786 0.881699
72.0722 205.0253 4.814957 0.8343151 0.1715533 0.523916 192 192 192 255 0.029727 0.851874
87.67529 244.4607 -42.46577 0.7102799 0.3652269 0.6017573 192 192 192 255 0.052737 0.605639
96.45377 216.2076 -41.50422 0.8664921 0.06515112 0.4949211 192 192 192 255 0.052269 0.857316
61.25581 183.8962 25.36352 0.7276441 -0.007847846 0.6859099 192 192 192 255 0.019727 0.841592
61.25581 97.63878 25.36352 0.7916679 0.004685197 0.6109337 192 192 192 255 0.019727 0.799613
66.48631 154.9323 15.42683 0.8685776 -3.452711e-09 0.4955532 192 192 192 255 0.024562 0.827496
52.41403 142.8901 25.36352 0.1478128 -1.315723e-09 0.9890154 192 192 192 255 0.074584 0.821635
83.81662 250.1879 -41.66556 0.6932926 0.3803753 0.6120948 192 192 192 255 0.052347 0.608426
89.96497 409.591 -50.64584 0.8632994 -0.2190285 0.4546874 192 192 192 255 0.056717 0.686001
98.42957 438.8419 -45.25777 0.8848944 -6.26758e-05 0.4657917 192 192 192 255 0.054095 0.965664
3e-05 500 -14.23922 -0.8061588 0.2646717 -0.5292041 192 192 192 255 0.055851 0.752096
41.80004 500 -15.19841 -0.3731154 0.8347505 -0.4049402 192 192 192 255 0.076193 0.752096
352.1029 500 -214.4947 0.4434016 0.7529472 -0.4862773 192 192 192 255 0.124387 0.824072
457.0228 500 -16.77841 0.2496983 0.7481292 -0.6147792 192 192 192 255 0.028166 0.773011
352.1029 0 -214.4947 0.2217008 -0.7529472 -0.6196123 192 192 192 255 0.115682 0.995428
352.1029 500 -214.4947 0.4434016 0.7529472 -0.4862773 192 192 192 255 0.115682 0.752096
333.3333 500 -174.892 -0.570335 0.6429687 0.5111843 192 192 192 255 0.158292 0.995427
148.0189 500 -214.4947 -0.2214441 0.7527964 -0.6198872 192 192 192 255 0.124387 0.923392
166.6667 500 -174.892 0.8848425 0.0001882554 0.4658904 192 192 192 255 0.105114 0.914317
148.0189 0 -214.4947 -0.4428883 -0.7527964 -0.486978 192 192 192 255 0.017527 0.752096
41.80004 0 -15.19841 -0.2323694 -0.750896 -0.6181907 192 192 192 255 0.114517 0.752096
41.80004 500 -15.19841 -0.3731154 0.8347505 -0.4049402 192 192 192 255 0.114517 0.995427
148.0189 500 -214.4947 -0.2214441 0.7527964 -0.6198872 192 192 192 255 0.017527 0.995427
55.21884 409.591 15.36352 0.5147961 -0.166284 0.8410319 192 192 192 255 0.024593 0.686001
52.91357 214.7415 15.36352 0.6185806 0.4825512 0.6200827 192 192 192 255 0.024593 0.591175
457.0228 0 -16.77841 0.4552723 -0.7481292 -0.4827316 192 192 192 255 0.055564 0.995427
457.0228 500 -16.77841 0.2496983 0.7481292 -0.6147792 192 192 192 255 0.055564 0.752096
443.6355 409.591 15.36352 -0.7431642 -0.008993256 0.6690487 192 192 192 255 0.055828 0.686001
443.9411 383.5991 15.36352 -0.7297284 -0.01638873 0.6835407 192 192 192 255 0.055977 0.673352
445.9262 214.7415 15.36352 -0.4052081 -0.004695006 0.9142124 192 192 192 255 0.056943 0.591175
445.3079 267.341 15.36352 -0.7567449 -0.003292321 0.653702 192 192 192 255 0.056642 0.616774
500 500 -14.23922 0.9078299 0.2967754 -0.2962588 192 192 192 255 0.02693 0.752096
61.25581 500 25.36352 0.8848645 7.192731e-05 0.4658484 192 192 192 255 0.078887 0.995427
3e-05 500 25.3635 -0.6666667 0.6666667 0.3333333 192 192 192 255 0.049076 0.995427
3e-05 500 25.3635 -0.6666667 0.6666667 0.3333333 192 192 192 255 0.073225 0.995427
3e-05 500 -14.23922 -0.8061588 0.2646717 -0.5292041 192 192 192 255 0.053952 0.995427
3e-05 409.591 15.36352 -0.7155502 -0.2133357 0.6651885 192 192 192 255 0.068359 0.951428
3e-05 429.591 25.3635 -0.3231241 -0.1445053 0.9352588 192 192 192 255 0.073225 0.961162
3e-05 0 -14.23922 -0.943419 -0.2345098 -0.234448 192 192 192 255 0.053952 0.752096
3e-05 214.7415 15.36352 -0.7142799 0.09867775 0.6928686 192 192 192 255 0.068359 0.856603
166.6667 199.8741 -174.892 0.8632514 0.01387956 0.5045832 192 192 192 255 0.117184 0.849367
166.6667 500 -174.892 0.8848425 0.0001882554 0.4658904 192 192 192 255 0.117184 0.995427
61.25581 500 25.36352 0.8848645 7.192731e-05 0.4658484 192 192 192 255 0.019727 0.995427
61.25581 429.591 25.36352 0.8846933 -0.0002919383 0.4661735 192 192 192 255 0.019727 0.961162
500 0 -14.23922 0.8754138 -0.3420949 -0.3414994 192 192 192 255 0.078092 0.752096
500 214.7415 15.36352 0.0002846822 7.865769e-05 1 192 192 192 255 0.063685 0.856603
500 500 -14.23922 0.9078299 0.2967754 -0.2962588 192 192 192 255 0.078092 0.995427
500 409.591 15.36352 0.0001504336 -2.242041e-05 1 192 192 192 255 0.063685 0.951428
500 500 25.3635 0.3333335 0.6666666 0.6666666 192 192 192 255 0.058819 0.995427
333.3333 500 -174.892 -0.570335 0.6429687 0.5111843 192 192 192 255 0.122651 0.995427
333.3333 199.8741 -174.892 -0.3841951 0.4016163 0.8313234 192 192 192 255 0.122651 0.849367
437.567 500 25.36352 -0.4456554 0.7536163 0.4831706 192 192 192 255 0.220108 0.995427
437.567 77.97228 25.36352 -0.5959568 0.5138053 0.6171221 192 192 192 255 0.052874 0.790043
500 77.97228 25.3635 0.7155502 0.2133358 0.6651885 192 192 192 255 0.083258 0.790043
500 192.783 25.3635 0.3220737 0.1334833 0.9372571 192 192 192 255 0.083258 0.845916
437.567 192.783 25.36352 -0.4706658 0.2481223 0.8467048 192 192 192 255 0.052874 0.845916
500 500 25.3635 0.3333335 0.6666666 0.6666666 192 192 192 255 0.083258 0.995427
437.567 500 25.36352 -0.4456554 0.7536163 0.4831706 192 192 192 255 0.052874 0.995427
437.567 429.591 25.36352 -0.4907607 -0.266158 0.8296468 192 192 192 255 0.052874 0.961162
500 429.591 25.3635 0.5639353 -0.2521994 0.7863666 192 192 192 255 0.083258 0.961162
61.25581 192.783 25.36352 0.8228645 0.05219451 0.5658354 192 192 192 255 0.078887 0.580489
61.25581 429.591 25.36352 0.8846933 -0.0002919383 0.4661735 192 192 192 255 0.078887 0.695735
3e-05 429.591 25.3635 -0.3231241 -0.1445053 0.9352588 192 192 192 255 0.049076 0.695735
61.25581 192.783 25.36352 0.8228645 0.05219451 0.5658354 192 192 192 255 0.019727 0.580489
72.0722 205.0253 4.814957 0.8343151 0.1715533 0.523916 192 192 192 255 0.029727 0.586447
151.6682 295.1143 -146.3984 0.8635989 0.07388275 0.4987367 192 192 192 255 0.103317 0.63029
151.6682 429.591 -146.3984 0.8848841 -3.340809e-05 0.4658113 192 192 192 255 0.103317 0.695735
98.42957 438.8419 -45.25777 0.8848944 -6.26758e-05 0.4657917 192 192 192 255 0.054095 0.700237
61.25581 429.591 25.36352 0.8846933 -0.0002919383 0.4661735 192 192 192 255 0.019727 0.695735
348.2002 429.591 -146.3295 -0.8020506 -0.0774987 0.5922068 192 192 192 255 0.136551 0.695735
348.2002 295.1143 -146.3295 -0.7889548 0.1556338 0.5944144 192 192 192 255 0.136551 0.63029
437.567 192.783 25.36352 -0.4706658 0.2481223 0.8467048 192 192 192 255 0.220108 0.580489
437.567 429.591 25.36352 -0.4907607 -0.266158 0.8296468 192 192 192 255 0.220108 0.695735
437.567 192.783 25.36352 -0.4706658 0.2481223 0.8467048 192 192 192 255 0.052874 0.580489
500 192.783 25.3635 0.3220737 0.1334833 0.9372571 192 192 192 255 0.083258 0.580489
500 429.591 25.3635 0.5639353 -0.2521994 0.7863666 192 192 192 255 0.083258 0.695735
437.567 429.591 25.36352 -0.4907607 -0.266158 0.8296468 192 192 192 255 0.052874 0.695735
67.29279 0 35.36351 0.4447916 -0.7557471 0.4806316 192 192 192 255 0.01486 0.752096
69.64225 57.97228 35.36351 0.4021519 0.2724776 0.874088 192 192 192 255 0.01486 0.780309
175.0531 179.8741 -169.3554 0.005572569 0.0648605 0.9978788 192 192 192 255 0.081263 0.839634
172.7036 0 -164.892 4.858485e-05 0.02473379 0.999694 192 192 192 255 0.080119 0.752096
324.9311 179.8741 -169.3757 -0.6320205 0.0578529 0.7727893 192 192 192 255 0.125336 0.839634
327.2649 0 -164.892 -0.512428 0.01208156 0.8586453 192 192 192 255 0.127518 0.752096
431.4985 0 35.36351 -0.8895066 -0.01399053 0.4567081 192 192 192 255 0.049921 0.752096
429.1647 57.97228 35.36351 -0.8492142 0.1317973 0.5113363 192 192 192 255 0.048785 0.780309
61.25581 77.97228 25.36352 0.3568006 0.00012595 0.9341806 192 192 192 255 0.078887 0.790042
3e-05 192.783 25.3635 -0.0001505605 6.230963e-05 1 192 192 192 255 0.049076 0.845916
61.25581 97.63878 25.36352 0.7916679 0.004685197 0.6109337 192 192 192 255 0.078887 0.799613
61.25581 192.783 25.36352 0.8228645 0.05219451 0.5658354 192 192 192 255 0.078887 0.845916
61.25581 183.8962 25.36352 0.7276441 -0.007847846 0.6859099 192 192 192 255 0.078887 0.841591
3e-05 77.97228 25.36351 -0.000426704 6.3598e-05 0.9999999 192 192 192 255 0.073225 0.790043
3e-05 192.783 25.3635 -0.0001505605 6.230963e-05 1 192 192 192 255 0.073225 0.845916
41.80004 0 -15.19841 -0.2323694 -0.750896 -0.6181907 192 192 192 255 0.102214 0.975085
67.29279 0 35.36351 0.4447916 -0.7557471 0.4806316 192 192 192 255 0.12682 0.962678
3.1e-05 0 35.36351 -0.5773503 -0.5773503 0.5773503 192 192 192 255 0.12682 0.995427
3e-05 0 -14.23922 -0.943419 -0.2345098 -0.234448 192 192 192 255 0.10268 0.995427
3.1e-05 0 35.36351 -0.5773503 -0.5773503 0.5773503 192 192 192 255 0.078092 0.752096
3.1e-05 57.97228 35.36351 -0.323124 0.2890107 0.9011458 192 192 192 255 0.078092 0.780309
148.0189 0 -214.4947 -0.4428883 -0.7527964 -0.486978 192 192 192 255 0.005224 0.923392
172.7036 0 -164.892 4.858485e-05 0.02473379 0.999694 192 192 192 255 0.029363 0.911379
352.1029 0 -214.4947 0.2217008 -0.7529472 -0.6196123 192 192 192 255 0.005224 0.824072
327.2649 0 -164.892 -0.512428 0.01208156 0.8586453 192 192 192 255 0.029363 0.83616
457.0228 0 -16.77841 0.4552723 -0.7481292 -0.4827316 192 192 192 255 0.101445 0.773011
431.4985 0 35.36351 -0.8895066 -0.01399053 0.4567081 192 192 192 255 0.12682 0.785433
500 0 -14.23922 0.8754138 -0.3420949 -0.3414994 192 192 192 255 0.10268 0.752096
500 0 35.36351 0.5773503 -0.5773503 0.5773503 192 192 192 255 0.12682 0.752096
500 57.97228 35.36351 0.5639352 0.1260997 0.8161348 192 192 192 255 0.053952 0.780309
500 0 35.36351 0.5773503 -0.5773503 0.5773503 192 192 192 255 0.053952 0.752096
291.5845 179.8741 -169.3712 -0.002152053 0.06068348 0.9981548 192 192 192 255 0.066878 0.845406
225.101 192.6777 -172.9071 2.625808e-05 0.266243 0.963906 192 192 192 255 0.065158 0.877761
225.101 192.6777 -172.9072 0.0001343458 0.1315611 0.991308 192 192 192 255 0.105619 0.845865
175.0531 179.8741 -169.3554 0.005572569 0.0648605 0.9978788 192 192 192 255 0.066886 0.902117
439.1859 336.1564 5.312713 -0.8671734 -0.005419856 0.4979769 192 192 192 255 0.053662 0.650264
87.67529 244.4607 -42.46577 0.7102799 0.3652269 0.6017573 192 192 192 255 0.052737 0.871066
52.41403 142.8901 25.36352 0.1478128 -1.315723e-09 0.9890154 192 192 192 255 0.019727 0.821635
126.2171 266.3081 -98.04742 0.8495062 0.1010668 0.5178077 192 192 192 255 0.079786 0.616271
3 2 14 12 
3 2 12 5 
3 22 34 35 
3 22 35 23 
3 13 0 83 
3 13 83 84 
3 16 7 6 
3 16 6 15 
3 40 68 38 
3 68 71 38 
3 38 71 39 
3 71 69 39 
3 39 69 41 
3 85 8 17 
3 85 17 86 
3 87 10 9 
3 87 9 88 
3 11 43 44 
3 11 44 89 
3 90 91 8 
3 90 8 85 
3 92 93 94 
3 92 94 95 
3 96 97 80 
3 96 80 81 
3 12 14 91 
3 12 91 90 
3 1 98 99 
3 1 99 4 
3 100 101 28 
3 27 28 102 
3 102 28 103 
3 103 28 70 
3 101 70 28 
3 86 17 3 
3 86 3 104 
3 48 49 50 
3 48 50 51 
3 105 106 21 
3 105 21 20 
3 107 108 109 
3 107 109 110 
3 108 111 112 
3 108 112 109 
3 42 113 77 
3 77 113 78 
3 24 72 113 
3 78 113 76 
3 76 113 19 
3 19 113 73 
3 73 113 75 
3 113 72 75 
3 113 114 25 
3 113 25 24 
3 114 115 25 
3 25 115 82 
3 115 116 82 
3 46 117 118 
3 46 118 26 
3 117 119 120 
3 117 120 118 
3 119 121 29 
3 119 29 120 
3 122 123 30 
3 122 30 31 
3 123 45 32 
3 123 32 30 
3 124 122 31 
3 124 31 33 
3 125 126 127 
3 125 127 128 
3 129 130 131 
3 129 131 132 
3 18 133 34 
3 18 34 22 
3 134 135 23 
3 134 23 35 
3 136 137 97 
3 80 97 74 
3 137 74 97 
3 138 139 37 
3 138 37 36 
3 81 140 141 
3 81 141 96 
3 142 143 38 
3 142 38 39 
3 143 144 40 
3 143 40 38 
3 145 142 39 
3 145 39 41 
3 146 147 27 
3 146 27 102 
3 148 149 100 
3 148 100 28 
3 150 52 53 
3 150 53 151 
3 152 153 62 
3 153 55 62 
3 62 55 60 
3 54 60 55 
3 154 155 65 
3 65 155 67 
3 155 56 67 
3 67 56 64 
3 56 57 64 
3 156 58 59 
3 156 59 157 
3 47 158 159 
3 158 160 159 
3 160 79 159 
3 161 159 162 
3 79 162 159 
3 111 163 164 
3 111 164 112 
3 165 166 167 
3 165 167 168 
3 158 47 51 
3 158 51 50 
3 163 111 169 
3 163 169 170 
3 171 172 166 
3 171 166 165 
3 113 42 151 
3 113 151 53 
3 152 61 43 
3 43 61 44 
3 61 60 44 
3 44 60 54 
3 173 174 172 
3 173 172 171 
3 175 176 174 
3 175 174 173 
3 57 45 64 
3 154 65 123 
3 64 45 66 
3 45 123 66 
3 123 65 66 
3 177 178 176 
3 177 176 175 
3 117 46 179 
3 117 179 180 
3 126 125 157 
3 126 157 59 
3 181 182 63 
3 183 62 60 
3 63 182 184 
3 152 62 183 
3 67 66 65 
3 64 66 67 
3 101 185 70 
3 70 185 103 
3 186 75 72 
3 73 75 186 
3 187 78 76 
3 77 78 187 
3 138 36 188 
3 80 74 36 
3 74 188 36 
3 81 80 36 
3 81 36 37 
3 139 140 81 
3 139 81 37 
