ply
format ascii 1.0
comment VCGLIB generated
comment TextureFile Dungeons_2_Texture_01_A.png
element vertex 46
property float x
property float y
property float z
property float nx
property float ny
property float nz
property uchar red
property uchar green
property uchar blue
property uchar alpha
property float texture_u
property float texture_v
element face 64
property list uchar int vertex_indices
end_header
0 1.5e-05 8.725494 0.0001915042 -0.0001901312 1 192 192 192 255 0.200095 0.764226
-0.017761 75.33035 8.725372 0.01179975 -0.0003768314 0.9999303 192 192 192 255 0.200083 0.815801
0 0 -8.644012 0.0002928819 -0.0002932604 -0.9999999 192 192 192 255 0.200095 0.764226
0.208984 75.21707 -8.644012 0.008861536 -0.000146439 -0.9999608 192 192 192 255 0.200238 0.815723
-0.012207 86.80939 13.74911 0.999288 0.0342954 0.01572531 192 192 192 255 0.200086 0.82366
-0.010529 86.80939 -13.74911 0.02427219 0.9997038 -0.001814541 192 192 192 255 0.210305 0.853342
-0.010529 75.34485 13.74911 0.1994403 -0.00347973 0.9799038 192 192 192 255 0.200088 0.815811
-0.012207 75.34485 -13.74911 0.9975299 -0.03463132 -0.06111275 192 192 192 255 0.200086 0.815811
-250.0001 1.5e-05 8.725494 -0.000351205 -0.0003495846 0.9999999 192 192 192 255 0.028933 0.764226
-250.0001 75.33035 8.725372 -0.01046627 -0.0001740025 0.9999452 192 192 192 255 0.028933 0.815801
-250.0001 0 -8.644012 -0.0001837924 -0.0001837924 -1 192 192 192 255 0.028933 0.764226
-250.0001 75.21707 -8.644012 -0.01149546 -0.0003675771 -0.9999339 192 192 192 255 0.028933 0.815723
-250.0001 86.80939 13.74911 -0.9992628 0.01878302 0.03348364 192 192 192 255 0.028933 0.82366
-250.0001 86.80939 -13.74911 -0.9992595 0.03463679 -0.0167551 192 192 192 255 0.028933 0.82366
-250.0001 75.34485 13.74911 -0.9992813 -0.03366565 0.01742113 192 192 192 255 0.028933 0.815811
-250.0001 75.34485 -13.74911 -0.9992927 -0.01492155 -0.03451723 192 192 192 255 0.028933 0.815811
-174.4173 75.33035 8.725372 0 -0.0005250915 0.9999999 192 192 192 255 0.080681 0.815801
-177.6904 75.21707 -8.644012 0 -0.0005512981 -0.9999999 192 192 192 255 0.07844 0.815723
-161.9001 86.80939 12.26825 -2.35604e-05 0.9999846 0.005544482 192 192 192 255 0.079676 0.832349
-175.3082 86.80939 -12.26825 0.01747581 0.8434045 -0.5369948 192 192 192 255 0.068857 0.852147
-173.4824 75.34485 13.74911 0.001716506 -0.6875384 0.726146 192 192 192 255 0.081321 0.815811
-178.5483 75.34485 -13.74911 -0.002595647 0.1200549 -0.9927639 192 192 192 255 0.077852 0.815811
-69.30851 75.33035 8.725372 0 -0.0005730122 0.9999998 192 192 192 255 0.152643 0.815801
-90.56232 75.21707 -8.644012 0 -0.0004391251 -0.9999999 192 192 192 255 0.138092 0.815723
-84.26079 86.80939 14.31038 -0.001426249 0.8942719 0.4475217 192 192 192 255 0.142323 0.830701
-100.1162 86.80939 -14.31038 -0.008895264 0.9970142 -0.07670407 192 192 192 255 0.12953 0.853795
-63.15533 75.34485 13.74911 -4.46786e-05 -0.01056914 0.9999442 192 192 192 255 0.156856 0.815811
-96.8615 75.34485 -13.74911 -0.001599688 -0.6996689 -0.7144655 192 192 192 255 0.133779 0.815811
-11.86207 86.80939 13.84787 -0.1615824 0.3036684 0.9389764 192 192 192 255 0.191974 0.82366
-52.22553 86.80939 14.18426 0.1190318 0.4068342 0.9057138 192 192 192 255 0.164339 0.82366
-28.18746 86.80939 10.98894 0.000899097 0.9941632 0.1078826 192 192 192 255 0.187569 0.833381
-25.25869 79.79617 13.74911 0.00409829 0.1946412 0.980866 192 192 192 255 0.182802 0.818858
-151.2394 86.80939 -8.300126 -0.008854156 0.9453234 -0.3260143 192 192 192 255 0.088278 0.848946
-145.0049 82.81965 -12.86517 -0.01194412 0.4955717 -0.8684849 192 192 192 255 0.100818 0.820928
-0.010529 86.80939 -13.74911 0.02427219 0.9997038 -0.001814541 192 192 192 255 0.200088 0.82366
-100.1162 86.80939 -14.31038 -0.008895264 0.9970142 -0.07670407 192 192 192 255 0.131551 0.82366
-250.0001 86.80939 -13.74911 -0.9992595 0.03463679 -0.0167551 192 192 192 255 0.008589 0.853342
-250.0001 86.80939 13.74911 -0.9992628 0.01878302 0.03348364 192 192 192 255 0.008589 0.831154
-161.9001 86.80939 12.26825 -2.35604e-05 0.9999846 0.005544482 192 192 192 255 0.08925 0.82366
-175.3082 86.80939 -12.26825 0.01747581 0.8434045 -0.5369948 192 192 192 255 0.080071 0.82366
-84.26079 86.80939 14.31038 -0.001426249 0.8942719 0.4475217 192 192 192 255 0.142406 0.82366
-28.18746 86.80939 10.98894 0.000899097 0.9941632 0.1078826 192 192 192 255 0.180796 0.82366
-52.22553 86.80939 14.18426 0.1190318 0.4068342 0.9057138 192 192 192 255 0.168173 0.830803
-0.012207 86.80939 13.74911 0.999288 0.0342954 0.01572531 192 192 192 255 0.210303 0.831154
-11.86207 86.80939 13.84787 -0.1615824 0.3036684 0.9389764 192 192 192 255 0.200742 0.831074
-151.2394 86.80939 -8.300126 -0.008854156 0.9453234 -0.3260143 192 192 192 255 0.096549 0.82366
3 0 1 22 
3 3 2 23 
3 30 5 25 
3 1 6 26 
3 1 26 22 
3 6 31 26 
3 7 3 23 
3 7 23 27 
3 34 7 27 
3 34 27 35 
3 1 0 2 
3 1 2 3 
3 8 9 11 
3 8 11 10 
3 12 13 11 
3 12 11 9 
3 34 4 1 
3 34 1 3 
3 1 4 6 
3 3 7 34 
3 9 14 12 
3 11 13 15 
3 8 16 9 
3 17 10 11 
3 18 19 36 
3 18 36 37 
3 16 20 14 
3 16 14 9 
3 20 38 12 
3 20 12 14 
3 21 17 11 
3 21 11 15 
3 39 21 15 
3 39 15 13 
3 0 22 16 
3 0 16 8 
3 2 0 8 
3 2 8 10 
3 23 2 10 
3 23 10 17 
3 24 25 32 
3 24 32 18 
3 22 26 20 
3 22 20 16 
3 26 40 38 
3 26 38 20 
3 27 23 17 
3 27 17 21 
3 35 27 21 
3 35 21 33 
3 29 31 41 
3 41 31 28 
3 6 4 28 
3 6 28 31 
3 26 31 29 
3 26 29 40 
3 30 25 24 
3 30 24 42 
3 43 5 30 
3 43 30 44 
3 35 33 45 
3 33 21 39 
3 45 33 39 
3 18 32 19 
