ply
format ascii 1.0
comment VCGLIB generated
comment TextureFile Dungeons_2_Texture_01_A.png
element vertex 38
property float x
property float y
property float z
property float nx
property float ny
property float nz
property uchar red
property uchar green
property uchar blue
property uchar alpha
property float texture_u
property float texture_v
element face 44
property list uchar int vertex_indices
end_header
18.1687 468.4049 125.3508 0.9889196 0.1484299 0.002573375 192 192 192 255 0.008001 0.547812
18.1687 362.9427 -253.9186 0.9690012 0.1328406 -0.208303 192 192 192 255 0.010581 0.991685
94.7417 50.75225 82.19786 0.6332952 0.5312854 0.5627371 192 192 192 255 0.686712 0.833395
27.60547 352.331 56.47241 0.9781191 0.1294636 0.1628565 192 192 192 255 0.174367 0.657556
18.1687 417.0698 -51.15611 0.963191 0.2581249 -0.0750643 192 192 192 255 0.009257 0.763873
18.1687 391.7074 -150.9715 0.9653808 0.2050153 -0.1612724 192 192 192 255 0.009877 0.870619
46.09814 132.0866 48.08224 0.7538726 0.4942999 0.4328323 192 192 192 255 0.528999 0.779267
271.9233 0.000427 -81.35873 0.5111505 0.8326263 -0.2132104 192 192 192 255 0.695999 0.989548
61.60474 0 -195.4128 0.7331902 0.3900843 -0.5570155 192 192 192 255 0.484091 0.990208
18.1687 238.9492 -248.3895 0.9400368 0.1437324 -0.3093088 192 192 192 255 0.196047 0.991107
56.31665 301.5577 -115.6057 0.9963092 0.08426933 -0.01632928 192 192 192 255 0.124103 0.850518
100.718 142.6535 -75.72297 0.9014164 0.3584547 -0.2428143 192 192 192 255 0.366033 0.898611
66.2439 235.5821 -34.58147 0.9799826 0.1840927 0.07579009 192 192 192 255 0.302792 0.819074
190.7344 61.4733 -35.95089 0.6570948 0.7452314 -0.1133868 192 192 192 255 0.501983 0.906166
150.1116 15.36417 111.981 0.1706047 0.9726223 0.157797 192 192 192 255 0.848272 0.901375
251.7708 -0.000214 96.79929 0.1705856 0.9726245 0.1578037 192 192 192 255 0.853953 0.989055
183.4954 -0.000427 170.5947 0.1705664 0.9726268 0.1578105 192 192 192 255 0.978266 0.956073
36.22607 226.1013 46.67451 0.9335691 0.06495959 0.3524612 192 192 192 255 0.368176 0.724072
30.85938 385.9452 4.663513 0.989719 0.1353336 0.04627216 192 192 192 255 0.088637 0.712759
18.1687 468.4049 125.3508 -0.9889196 -0.1484299 -0.002573375 192 192 192 255 0.008001 0.547812
18.1687 362.9427 -253.9186 -0.9690012 -0.1328406 0.208303 192 192 192 255 0.010581 0.991685
94.7417 50.75225 82.19786 -0.6332952 -0.5312854 -0.5627371 192 192 192 255 0.686712 0.833395
27.60547 352.331 56.47241 -0.9781191 -0.1294636 -0.1628565 192 192 192 255 0.174367 0.657556
18.1687 417.0698 -51.15611 -0.963191 -0.2581249 0.0750643 192 192 192 255 0.009257 0.763873
18.1687 391.7074 -150.9715 -0.9653808 -0.2050153 0.1612724 192 192 192 255 0.009877 0.870619
46.09814 132.0866 48.08224 -0.7538726 -0.4942999 -0.4328323 192 192 192 255 0.528999 0.779267
271.9233 0.000427 -81.35873 -0.5111505 -0.8326263 0.2132104 192 192 192 255 0.695999 0.989548
61.60474 0 -195.4128 -0.7331902 -0.3900843 0.5570155 192 192 192 255 0.484091 0.990208
18.1687 238.9492 -248.3895 -0.9400368 -0.1437324 0.3093088 192 192 192 255 0.196047 0.991107
56.31665 301.5577 -115.6057 -0.9963092 -0.08426933 0.01632928 192 192 192 255 0.124103 0.850518
100.718 142.6535 -75.72297 -0.9014164 -0.3584547 0.2428143 192 192 192 255 0.366033 0.898611
66.2439 235.5821 -34.58147 -0.9799826 -0.1840927 -0.07579009 192 192 192 255 0.302792 0.819074
190.7344 61.4733 -35.95089 -0.6570948 -0.7452314 0.1133868 192 192 192 255 0.501983 0.906166
150.1116 15.36417 111.981 -0.1706047 -0.9726223 -0.157797 192 192 192 255 0.848272 0.901375
251.7708 -0.000214 96.79929 -0.1705856 -0.9726245 -0.1578037 192 192 192 255 0.853953 0.989055
183.4954 -0.000427 170.5947 -0.1705664 -0.9726268 -0.1578105 192 192 192 255 0.978266 0.956073
36.22607 226.1013 46.67451 -0.9335691 -0.06495959 -0.3524612 192 192 192 255 0.368176 0.724072
30.85938 385.9452 4.663513 -0.989719 -0.1353336 -0.04627216 192 192 192 255 0.088637 0.712759
3 0 18 4 
3 11 13 8 
3 12 17 6 
3 7 2 14 
3 7 14 15 
3 8 13 7 
3 5 10 9 
3 5 9 1 
3 4 18 10 
3 4 10 5 
3 9 11 8 
3 11 12 6 
3 9 10 12 
3 10 3 12 
3 11 6 13 
3 7 13 2 
3 2 13 6 
3 12 3 17 
3 9 12 11 
3 15 14 16 
3 0 3 18 
3 10 18 3 
3 19 23 37 
3 30 27 32 
3 31 25 36 
3 26 34 33 
3 26 33 21 
3 27 26 32 
3 24 20 28 
3 24 28 29 
3 23 24 29 
3 23 29 37 
3 28 27 30 
3 30 25 31 
3 28 31 29 
3 29 31 22 
3 30 32 25 
3 26 21 32 
3 21 25 32 
3 31 36 22 
3 28 30 31 
3 34 35 33 
3 19 37 22 
3 29 22 37 
