ply
format ascii 1.0
comment VCGLIB generated
comment TextureFile Dungeons_2_Texture_01_A.png
element vertex 195
property float x
property float y
property float z
property float nx
property float ny
property float nz
property uchar red
property uchar green
property uchar blue
property uchar alpha
property float texture_u
property float texture_v
element face 206
property list uchar int vertex_indices
end_header
79.60821 74.24057 16.65117 0.0004888497 0.9000223 0.4358435 192 192 192 255 0.048516 0.850575
47.17501 57.91996 42.16045 0.4213311 0.0744314 0.9038475 192 192 192 255 0.04852 0.850167
51.03569 -5.9e-05 42.16045 0.3051886 -0.0003409819 0.9522919 192 192 192 255 0.048618 0.849959
79.60821 -5.9e-05 16.65117 0.6660251 -0.001535186 0.7459278 192 192 192 255 0.048639 0.850379
0.010573 -5.9e-05 16.65117 -0.8944272 -0.4472136 0 192 192 192 255 0.048902 0.850463
0.010573 -5.9e-05 42.16045 -0.0005582575 -0.001116515 0.9999992 192 192 192 255 0.048908 0.850043
0.010573 57.91996 42.16045 -0.6001275 0.2433657 0.7619844 192 192 192 255 0.048782 0.850247
0.010573 74.24057 16.65117 -0.000741713 0.9001311 0.4356184 192 192 192 255 0.048788 0.850665
170.4129 74.24057 16.65117 -0.7677453 0.001605376 0.6407532 192 192 192 255 0.04906 0.850756
197.6532 52.57634 42.16045 -0.2729012 0.3287217 0.9041388 192 192 192 255 0.049093 0.850318
329.6082 74.24057 16.65117 0.714938 0.0004159645 0.6991877 192 192 192 255 0.048516 0.850575
302.368 45.06774 42.16045 0.1181061 0.2647725 0.957051 192 192 192 255 0.048514 0.850111
197.6532 -5.9e-05 42.16045 -0.2360253 -0.7346103 0.636113 192 192 192 255 0.049197 0.850127
170.4129 -5.9e-05 16.65117 -0.7681059 -0.0006660688 0.6403226 192 192 192 255 0.049165 0.850546
302.368 -5.9e-05 42.16045 0.1366347 -0.2075291 0.9686396 192 192 192 255 0.048618 0.849959
329.6082 -5.9e-05 16.65117 0.7150257 -0.0009970319 0.6990975 192 192 192 255 0.048639 0.850379
420.413 74.24057 16.65117 -0.5181545 0.3276843 0.7900247 192 192 192 255 0.04906 0.850756
448.9854 57.91996 42.16045 -0.1573982 0.3981586 0.9037121 192 192 192 255 0.049082 0.850339
448.9854 -5.9e-05 42.16045 -0.3847679 -0.5777393 0.719841 192 192 192 255 0.049197 0.850127
420.413 -5.9e-05 16.65117 -0.4709252 -0.7071068 0.5274746 192 192 192 255 0.049165 0.850546
500.0106 -5.9e-05 16.65117 0.4472136 -0.8944272 0 192 192 192 255 0.048902 0.850463
500.0106 -5.9e-05 42.16045 0.6666667 -0.3333333 0.6666667 192 192 192 255 0.048908 0.850043
500.0106 57.91996 42.16045 0.4952038 0.4171356 0.7620834 192 192 192 255 0.048782 0.850247
500.0106 74.24057 16.65117 0.7071068 0.5956324 0.3810802 192 192 192 255 0.048788 0.850665
179.1425 421.015 16.65117 -0.7032782 -0.2962465 0.646249 192 192 192 255 0.088051 0.720403
250 356.6969 16.65117 0.173583 -0.6228935 0.7628058 192 192 192 255 0.119651 0.69012
189.0546 428.5412 31.19531 -0.000206056 -8.679832e-05 1 192 192 192 255 0.090956 0.723947
248.6935 375.6408 31.19531 -8.122474e-05 -0.0002584996 1 192 192 192 255 0.119055 0.699039
320.8575 421.015 16.65117 0.6927586 -0.2898391 0.6603627 192 192 192 255 0.151251 0.720403
310.9456 428.5412 31.19531 0.0004056103 -0.0001697008 0.9999999 192 192 192 255 0.148346 0.723947
189.0546 500 31.19531 -0.4926776 0.5962142 0.6338751 192 192 192 255 0.090956 0.739053
179.1425 500 16.65117 -0.584313 0.7071068 0.398219 192 192 192 255 0.088051 0.739053
310.9456 500 31.19531 0.2876508 0.3480995 0.8922353 192 192 192 255 0.148346 0.739053
320.8575 500 16.65117 0.5843152 0.7071068 0.3982157 192 192 192 255 0.151251 0.739053
204.2848 435.566 31.19531 -0.5130159 -0.5948724 0.6188228 192 192 192 255 0.098127 0.727254
250 397.0761 31.19531 -0.02387571 -0.7139294 0.6998105 192 192 192 255 0.119651 0.709132
213.1006 439.3753 42.16045 -0.5091628 -0.5925055 0.6242521 192 192 192 255 0.102278 0.727254
259.7604 416.1346 42.16045 0.2691513 -0.4489721 0.8520455 192 192 192 255 0.124247 0.717022
296.6849 433.0157 31.19531 0.4560005 -0.5309972 0.7142168 192 192 192 255 0.141632 0.726811
286.8994 439.3753 42.16045 0.4553837 -0.52858 0.7164 192 192 192 255 0.137025 0.727254
213.1006 500 42.16045 -0.45951 0.5896052 0.6642412 192 192 192 255 0.102278 0.739053
204.2848 500 31.19531 -0.5510851 0.7071068 0.4430635 192 192 192 255 0.098127 0.739053
286.8994 500 42.16045 0.2604032 0.3430742 0.9024912 192 192 192 255 0.137025 0.739053
295.7152 500 31.19531 0.5382692 0.709155 0.4553742 192 192 192 255 0.141175 0.739053
500.0001 356.6969 16.65117 -0.4829859 -0.5332322 0.6945418 192 192 192 255 0.119651 0.69012
500.0001 375.6408 31.19531 -0.4832018 -0.5330159 0.6945575 192 192 192 255 0.119651 0.699039
429.1425 421.015 16.65117 -0.6982251 -0.3922891 0.5988247 192 192 192 255 0.151251 0.720403
445.9395 422.5651 31.19531 -0.2241316 -0.07089014 0.9719772 192 192 192 255 0.145105 0.721133
439.0545 500 31.19531 -0.0002220865 0.0006066709 0.9999998 192 192 192 255 0.148346 0.739053
429.1425 500 16.65117 -0.9682782 0.001162184 0.2498718 192 192 192 255 0.151251 0.739053
500.0001 397.0761 31.19531 0.5048597 -0.5297894 0.6814983 192 192 192 255 0.119651 0.709132
500.0001 407.7762 42.16045 0.2766313 -0.2902912 0.916082 192 192 192 255 0.119651 0.713342
454.2849 435.566 31.19531 -0.6666847 -0.2809062 0.690379 192 192 192 255 0.141175 0.727254
463.1006 444.9971 42.16045 -0.4713215 -0.1985903 0.8593125 192 192 192 255 0.137025 0.72853
463.1006 500 42.16045 -0.2893808 0.7426189 0.6039668 192 192 192 255 0.137025 0.739053
454.2849 500 31.19531 -0.6970736 0.4472136 0.5604358 192 192 192 255 0.141175 0.739053
500.0001 500 42.16045 0.6666671 0.3333336 0.6666662 192 192 192 255 0.119651 0.989053
500 500 31.19531 0.0008915037 0.0008915038 0.9999992 192 192 192 255 0.119651 0.989053
500.0001 500 16.65117 0.0001056015 0.0002112029 1 192 192 192 255 0.119651 0.989053
1.5e-05 356.6969 16.65117 -0.5054823 -0.5394632 0.6733997 192 192 192 255 0.119651 0.69012
1.5e-05 375.6408 31.19531 -0.2778124 -0.2964883 0.9137369 192 192 192 255 0.119651 0.699039
70.85753 421.015 16.65117 0.6642807 -0.2955201 0.686585 192 192 192 255 0.151251 0.720403
57.38805 426.3049 31.19531 0.4702848 -0.2092167 0.8573567 192 192 192 255 0.146507 0.722507
60.94557 500 31.19531 0.2901399 0.7394086 0.607531 192 192 192 255 0.148346 0.739053
70.85753 500 16.65117 0.7006742 0.4341647 0.5661772 192 192 192 255 0.151251 0.739053
1.5e-05 397.0761 31.19531 -0.4897643 -0.6402224 0.5918161 192 192 192 255 0.119651 0.709132
1.5e-05 407.7762 42.16045 -0.2716469 -0.3550981 0.8944906 192 192 192 255 0.119651 0.713342
45.71523 435.566 31.19531 0.7120605 -0.328446 0.6205586 192 192 192 255 0.141175 0.727254
38.7688 439.3753 42.16045 0.5101629 -0.2353184 0.82726 192 192 192 255 0.137905 0.7279
36.89943 500 42.16045 0.3026982 0.7492087 0.5891181 192 192 192 255 0.137025 0.739053
45.71523 500 31.19531 0.7236224 0.4558721 0.5182192 192 192 192 255 0.141175 0.739053
1.5e-05 500 42.16045 -0.6666672 0.3333336 0.6666661 192 192 192 255 0.119651 0.989053
4.6e-05 500 31.19531 -0.6396021 0.6396022 0.4264014 192 192 192 255 0.119651 0.989053
1.6e-05 500 16.65117 -8.119959e-05 8.119959e-05 1 192 192 192 255 0.119651 0.989053
1.7e-05 0 31.19531 -0.0005117237 -0.9999978 0.002046895 192 192 192 255 0.001764 0.753493
500 0 31.19531 0.0005117247 -0.9999998 0.0005117246 192 192 192 255 0.237346 0.753493
1.6e-05 0 -14.23921 -0.0005436608 -0.9999998 -0.0002718304 192 192 192 255 0.001764 0.753493
500 0 -14.23921 0.0004076903 -0.9999999 -0.0001358969 192 192 192 255 0.237346 0.753493
500 500 -14.23921 0.6666664 0.3333332 -0.666667 192 192 192 255 0.237346 0.989076
1.6e-05 500 -14.23921 -0.4082483 0.8164966 -0.4082483 192 192 192 255 0.001764 0.989076
43.01081 0 31.19531 0.0001630509 -0.9999999 0.0005166837 192 192 192 255 0.022029 0.753493
208.6022 0 31.19531 -0.278291 -0.2503484 0.9272971 192 192 192 255 0.10005 0.753493
291.3979 0 31.19531 0.3141267 -0.5669533 0.7615041 192 192 192 255 0.13906 0.753493
456.9892 0 31.19531 -0.0003266108 -0.9999995 0.00103301 192 192 192 255 0.217081 0.753493
1.6e-05 315.3606 31.19531 -0.0001330222 0.1216986 0.9925671 192 192 192 255 0.001764 0.90208
125.8065 315.3606 31.19531 3.324212e-05 0.1216446 0.9925737 192 192 192 255 0.061039 0.90208
374.1935 315.3606 31.19531 1.771126e-05 0.05906589 0.9982541 192 192 192 255 0.178071 0.90208
500.0001 315.3606 31.19531 0.0001770315 3.799235e-05 1 192 192 192 255 0.237346 0.90208
1.6e-05 343.8985 16.65117 -4.429616e-05 0.09068402 0.9958797 192 192 192 255 0.001764 0.915526
500.0001 343.8985 16.65117 0.0001590975 4.547458e-05 1 192 192 192 255 0.237346 0.915526
43.01081 225.2851 31.19531 0.0001355257 -3.481444e-05 1 192 192 192 255 0.022029 0.85964
208.6022 225.2851 31.19531 -0.2026668 -0.08410887 0.975629 192 192 192 255 0.10005 0.85964
291.3979 232.2417 31.19531 0.0002071603 -5.449879e-05 1 192 192 192 255 0.13906 0.862917
456.9892 225.2851 31.19531 -0.04518795 -0.004125694 0.99897 192 192 192 255 0.217081 0.85964
436.2882 0 16.65117 -0.0001064128 -0.9999999 0.0003365642 192 192 192 255 0.207327 0.753493
312.0989 0 16.65117 0.0001434495 -0.9999998 0.0007385524 192 192 192 255 0.148814 0.753493
312.0989 218.9757 16.65117 0.0001648001 -9.431085e-05 1 192 192 192 255 0.148814 0.856667
374.1935 286.53 16.65117 -5.617855e-05 -0.0001408315 1 192 192 192 255 0.178071 0.888496
432.855 218.9757 16.65117 -0.06079173 -0.00551828 0.9981353 192 192 192 255 0.20571 0.856667
63.71181 0 16.65117 0.3467538 -0.7988651 0.4915042 192 192 192 255 0.031782 0.753493
187.9012 0 16.65117 -0.0001433822 -0.9999999 0.0004777656 192 192 192 255 0.090296 0.753493
63.71181 218.9757 16.65117 0.1222128 -4.30631e-05 0.9925039 192 192 192 255 0.031782 0.856667
122.714 285.7539 16.65117 -4.478909e-05 -0.000144108 1 192 192 192 255 0.059582 0.88813
187.9012 218.9757 16.65117 -6.149839e-05 -2.552249e-05 1 192 192 192 255 0.090296 0.856667
273.0412 57.91996 42.16045 0.1158496 0.2681026 0.9563994 192 192 192 255 0.048656 0.850208
310.4331 62.75208 36.26561 0.5978253 0.06808858 0.7987296 192 192 192 255 0.048492 0.850279
66.08392 66.5155 32.62269 0.1279875 0.764445 0.6318568 192 192 192 255 0.0485 0.850376
51.03569 35.08632 42.16045 0.3231705 0.01067729 0.9462805 192 192 192 255 0.048536 0.850078
187.9012 159.1515 16.65117 -0.0002967634 -1.520744e-06 1 192 192 192 255 0.090296 0.583636
211.1904 146.4744 31.19531 -0.2880076 -0.001475875 0.957627 192 192 192 255 0.101269 0.822507
288.8096 109.0636 31.19531 0.1907797 -2.257828e-05 0.9816329 192 192 192 255 0.137841 0.80488
312.0989 118.7501 16.65117 0.328385 -3.88635e-05 0.944544 192 192 192 255 0.148814 0.568082
160.4985 315.3606 31.19531 0.0673557 0.1917394 0.9791319 192 192 192 255 0.077385 0.90208
287.1771 315.3606 31.19531 -0.004189256 0.1465218 0.9891986 192 192 192 255 0.137071 0.90208
189.0973 305.2821 31.19531 0 0.242544 0.9701405 192 192 192 255 0.09086 0.897332
204.7107 325.1681 26.21969 -1.109396e-06 0.3844375 0.923151 192 192 192 255 0.098216 0.907064
436.2882 180.8929 16.65117 -0.5057616 -0.04550033 0.8614726 192 192 192 255 0.207327 0.592139
43.01082 171.1331 31.19531 0.1050963 -0.04625382 0.9933858 192 192 192 255 0.022029 0.834125
43.01081 126.3552 31.19531 0.2182207 0.08635269 0.9720715 192 192 192 255 0.022029 0.813027
33.58709 149.8706 31.19531 0.1439476 -1.277161e-08 0.9895853 192 192 192 255 0.017589 0.824107
48.5495 155.383 27.35457 0.5333622 1.627802e-07 0.8458871 192 192 192 255 0.024638 0.582457
184.1101 66.03411 33.08867 -0.7319418 0.03558027 0.6804375 192 192 192 255 0.049071 0.850547
204.2696 57.91996 42.16045 -0.2670141 0.3355107 0.9034025 192 192 192 255 0.049045 0.850327
432.0694 423.2374 28.03907 -0.874956 -0.02067748 0.4837608 192 192 192 255 0.150393 0.721449
439.0545 444.818 31.19531 -0.01954369 -0.005898619 0.9997916 192 192 192 255 0.148346 0.727086
250 401.3425 37.50903 -0.03423792 -0.2833384 0.9584087 192 192 192 255 0.119651 0.71081
236.97 418.9344 42.16045 -0.307341 -0.4762743 0.8238351 192 192 192 255 0.113516 0.718119
236.6665 343.8985 16.65117 -3.888071e-07 0.05466568 0.9985047 192 192 192 255 0.113273 0.915526
378.6807 347.7137 16.65117 -6.460172e-08 0.05811014 0.9983102 192 192 192 255 0.180185 0.917324
189.0546 428.5412 31.19531 -0.000206056 -8.679832e-05 1 192 192 192 255 0.090956 0.973947
310.9456 428.5412 31.19531 0.0004056103 -0.0001697008 0.9999999 192 192 192 255 0.148346 0.973947
310.9456 500 31.19531 0.2876508 0.3480995 0.8922353 192 192 192 255 0.148346 0.989053
189.0546 500 31.19531 -0.4926776 0.5962142 0.6338751 192 192 192 255 0.090956 0.989053
320.8575 500 16.65117 0.5843152 0.7071068 0.3982157 192 192 192 255 0.151251 0.989053
179.1425 500 16.65117 -0.584313 0.7071068 0.398219 192 192 192 255 0.088051 0.989053
248.6935 375.6408 31.19531 -8.122474e-05 -0.0002584996 1 192 192 192 255 0.119036 0.949039
213.1006 439.3753 42.16045 -0.5091628 -0.5925055 0.6242521 192 192 192 255 0.102278 0.977254
286.8994 439.3753 42.16045 0.4553837 -0.52858 0.7164 192 192 192 255 0.137025 0.977254
286.8994 500 42.16045 0.2604032 0.3430742 0.9024912 192 192 192 255 0.137025 0.989053
213.1006 500 42.16045 -0.45951 0.5896052 0.6642412 192 192 192 255 0.102278 0.989053
295.7152 500 31.19531 0.5382692 0.709155 0.4553742 192 192 192 255 0.141175 0.989053
204.2848 500 31.19531 -0.5510851 0.7071068 0.4430635 192 192 192 255 0.098127 0.989053
463.1006 444.9971 42.16045 -0.4713215 -0.1985903 0.8593125 192 192 192 255 0.137025 0.976897
500.0001 407.7762 42.16045 0.2766313 -0.2902912 0.916082 192 192 192 255 0.119651 0.963342
463.1006 500 42.16045 -0.2893808 0.7426189 0.6039668 192 192 192 255 0.137025 0.989053
454.2849 500 31.19531 -0.6970736 0.4472136 0.5604358 192 192 192 255 0.141175 0.989053
445.9395 422.5651 31.19531 -0.2241316 -0.07089014 0.9719772 192 192 192 255 0.145105 0.970615
500.0001 375.6408 31.19531 -0.4832018 -0.5330159 0.6945575 192 192 192 255 0.119651 0.949039
439.0545 444.818 31.19531 -0.01954369 -0.005898619 0.9997916 192 192 192 255 0.148346 0.97668
439.0545 500 31.19531 -0.0002220865 0.0006066709 0.9999998 192 192 192 255 0.148346 0.989053
429.1425 500 16.65117 -0.9682782 0.001162184 0.2498718 192 192 192 255 0.151251 0.989053
500.0001 397.0761 31.19531 0.5048597 -0.5297894 0.6814983 192 192 192 255 0.119651 0.959132
500.0001 356.6969 16.65117 -0.4829859 -0.5332322 0.6945418 192 192 192 255 0.119651 0.94012
38.7688 439.3753 42.16045 0.5101629 -0.2353184 0.82726 192 192 192 255 0.137905 0.975622
36.89943 500 42.16045 0.3026982 0.7492087 0.5891181 192 192 192 255 0.137025 0.989053
1.5e-05 407.7762 42.16045 -0.2716469 -0.3550981 0.8944906 192 192 192 255 0.119651 0.963342
45.71523 500 31.19531 0.7236224 0.4558721 0.5182192 192 192 192 255 0.141175 0.989053
57.38805 426.3049 31.19531 0.4702848 -0.2092167 0.8573567 192 192 192 255 0.146671 0.970052
60.94557 500 31.19531 0.2901399 0.7394086 0.607531 192 192 192 255 0.148346 0.989053
1.5e-05 375.6408 31.19531 -0.2778124 -0.2964883 0.9137369 192 192 192 255 0.119651 0.949039
70.85753 500 16.65117 0.7006742 0.4341647 0.5661772 192 192 192 255 0.151251 0.989053
1.5e-05 397.0761 31.19531 -0.4897643 -0.6402224 0.5918161 192 192 192 255 0.119651 0.959132
1.5e-05 356.6969 16.65117 -0.5054823 -0.5394632 0.6733997 192 192 192 255 0.119651 0.94012
1.6e-05 500 16.65117 -8.119959e-05 8.119959e-05 1 192 192 192 255 0.001764 0.989076
500.0001 500 16.65117 0.0001056015 0.0002112029 1 192 192 192 255 0.237346 0.989076
374.1935 315.3606 31.19531 1.771126e-05 0.05906589 0.9982541 192 192 192 255 0.178071 0.65208
291.3979 232.2417 31.19531 0.0002071603 -5.449879e-05 1 192 192 192 255 0.13908 0.612317
312.0989 218.9757 16.65117 0.0001648001 -9.431085e-05 1 192 192 192 255 0.148814 0.606667
374.1935 286.53 16.65117 -5.617855e-05 -0.0001408315 1 192 192 192 255 0.178071 0.638496
288.8096 109.0636 31.19531 0.1907797 -2.257828e-05 0.9816329 192 192 192 255 0.138071 0.56465
456.9892 225.2851 31.19531 -0.04518795 -0.004125694 0.99897 192 192 192 255 0.217081 0.60964
432.855 218.9757 16.65117 -0.06079173 -0.00551828 0.9981353 192 192 192 255 0.20571 0.606989
125.8065 315.3606 31.19531 3.324212e-05 0.1216446 0.9925737 192 192 192 255 0.061039 0.65208
43.01081 225.2851 31.19531 0.0001355257 -3.481444e-05 1 192 192 192 255 0.022029 0.60964
63.71181 218.9757 16.65117 0.1222128 -4.30631e-05 0.9925039 192 192 192 255 0.031782 0.606667
122.714 285.7539 16.65117 -4.478909e-05 -0.000144108 1 192 192 192 255 0.059582 0.638131
63.71181 0 16.65117 0.3467538 -0.7988651 0.4915042 192 192 192 255 0.031782 0.522365
208.6022 225.2851 31.19531 -0.2026668 -0.08410887 0.975629 192 192 192 255 0.10005 0.60964
187.9012 218.9757 16.65117 -6.149839e-05 -2.552249e-05 1 192 192 192 255 0.090296 0.606667
211.1904 146.4744 31.19531 -0.2880076 -0.001475875 0.957627 192 192 192 255 0.101038 0.579115
187.9012 159.1515 16.65117 -0.0002967634 -1.520744e-06 1 192 192 192 255 0.090296 0.82848
312.0989 118.7501 16.65117 0.328385 -3.88635e-05 0.944544 192 192 192 255 0.148814 0.809444
436.2882 180.8929 16.65117 -0.5057616 -0.04550033 0.8614726 192 192 192 255 0.207327 0.838724
208.6022 0 31.19531 -0.278291 -0.2503484 0.9272971 192 192 192 255 0.10005 0.522365
187.9012 0 16.65117 -0.0001433822 -0.9999999 0.0004777656 192 192 192 255 0.090296 0.522365
291.3979 0 31.19531 0.3141267 -0.5669533 0.7615041 192 192 192 255 0.13906 0.522365
312.0989 0 16.65117 0.0001434495 -0.9999998 0.0007385524 192 192 192 255 0.148814 0.522365
456.9892 0 31.19531 -0.0003266108 -0.9999995 0.00103301 192 192 192 255 0.217081 0.522365
436.2882 0 16.65117 -0.0001064128 -0.9999999 0.0003365642 192 192 192 255 0.207327 0.522365
33.58709 149.8706 31.19531 0.1439476 -1.277161e-08 0.9895853 192 192 192 255 0.018429 0.580508
43.01082 171.1331 31.19531 0.1050963 -0.04625382 0.9933858 192 192 192 255 0.022029 0.588632
43.01081 126.3552 31.19531 0.2182207 0.08635269 0.9720715 192 192 192 255 0.022029 0.571315
43.01081 0 31.19531 0.0001630509 -0.9999999 0.0005166837 192 192 192 255 0.022029 0.522365
236.97 418.9344 42.16045 -0.307341 -0.4762743 0.8238351 192 192 192 255 0.113516 0.968254
259.7604 416.1346 42.16045 0.2691513 -0.4489721 0.8520455 192 192 192 255 0.124247 0.967022
3 3 0 106 
3 3 106 107 
3 107 2 3 
3 5 4 3 
3 5 3 2 
3 107 5 2 
3 0 7 106 
3 1 106 7 
3 1 7 6 
3 4 5 6 
3 4 6 7 
3 10 105 15 
3 15 105 11 
3 15 11 14 
3 12 13 15 
3 12 15 14 
3 9 122 121 
3 18 17 16 
3 18 16 19 
3 17 18 21 
3 17 21 22 
3 18 19 20 
3 18 20 21 
3 17 22 23 
3 17 23 16 
3 21 20 23 
3 21 23 22 
3 29 28 33 
3 29 33 32 
3 30 31 24 
3 30 24 26 
3 129 130 131 
3 129 131 132 
3 24 25 27 
3 24 27 26 
3 25 28 29 
3 25 29 27 
3 132 131 133 
3 132 133 134 
3 129 135 130 
3 39 38 43 
3 39 43 42 
3 40 41 34 
3 40 34 36 
3 136 137 138 
3 136 138 139 
3 126 125 37 
3 139 138 140 
3 139 140 141 
3 46 123 49 
3 49 123 124 
3 49 124 48 
3 44 45 46 
3 123 46 45 
3 123 45 47 
3 53 54 55 
3 53 55 52 
3 50 51 53 
3 50 53 52 
3 142 143 56 
3 142 56 144 
3 57 145 144 
3 57 144 56 
3 146 147 57 
3 146 57 148 
3 148 57 149 
3 58 150 149 
3 58 149 57 
3 151 57 56 
3 151 56 143 
3 152 58 57 
3 152 57 147 
3 62 61 64 
3 62 64 63 
3 59 61 62 
3 59 62 60 
3 68 67 70 
3 68 70 69 
3 65 67 68 
3 65 68 66 
3 153 154 71 
3 153 71 155 
3 72 71 154 
3 72 154 156 
3 157 158 72 
3 157 72 159 
3 73 72 158 
3 73 158 160 
3 161 155 71 
3 161 71 72 
3 162 159 72 
3 162 72 73 
3 77 89 87 
3 77 87 75 
3 84 88 76 
3 84 76 74 
3 79 163 164 
3 79 164 78 
3 74 76 80 
3 83 77 75 
3 86 87 89 
3 86 89 128 
3 85 112 115 
3 85 115 88 
3 88 84 85 
3 85 84 90 
3 91 114 112 
3 91 112 85 
3 87 86 93 
3 76 88 163 
3 76 163 79 
3 76 79 78 
3 76 78 77 
3 89 77 78 
3 89 78 164 
3 128 164 163 
3 128 163 127 
3 163 88 127 
3 90 84 74 
3 90 74 119 
3 74 80 118 
3 74 118 119 
3 119 117 90 
3 101 103 102 
3 91 109 110 
3 91 110 92 
3 96 98 97 
3 87 93 83 
3 87 83 75 
3 77 83 94 
3 165 166 167 
3 165 167 168 
3 166 169 111 
3 166 111 167 
3 170 165 168 
3 170 168 171 
3 116 170 171 
3 95 77 94 
3 80 76 99 
3 82 81 100 
3 82 100 95 
3 172 173 174 
3 172 174 175 
3 174 120 176 
3 177 172 175 
3 177 175 178 
3 108 179 177 
3 108 177 178 
3 101 180 103 
3 98 96 181 
3 98 181 182 
3 100 76 77 
3 100 77 95 
3 99 76 100 
3 105 104 11 
3 1 107 106 
3 6 5 107 
3 6 107 1 
3 99 100 180 
3 99 180 101 
3 183 179 108 
3 183 108 184 
3 110 109 81 
3 110 81 82 
3 111 169 185 
3 111 185 186 
3 114 115 112 
3 86 113 92 
3 113 114 91 
3 113 91 92 
3 113 115 114 
3 95 94 182 
3 95 182 181 
3 187 170 116 
3 187 116 188 
3 189 120 190 
3 191 120 189 
3 173 190 120 
3 173 120 174 
3 176 120 191 
3 176 191 192 
3 8 13 121 
3 9 121 13 
3 9 13 12 
3 9 12 14 
3 9 14 122 
3 14 11 104 
3 14 104 122 
3 105 10 8 
3 105 8 104 
3 104 8 121 
3 104 121 122 
3 47 124 123 
3 125 35 38 
3 125 38 37 
3 38 39 37 
3 136 193 194 
3 136 194 137 
3 34 35 125 
3 34 125 126 
3 34 126 36 
3 127 115 113 
3 127 113 128 
3 89 164 128 
3 128 113 86 
3 88 115 127 
