ply
format ascii 1.0
comment VCGLIB generated
comment TextureFile Dungeons_2_Texture_01_A.png
element vertex 118
property float x
property float y
property float z
property float nx
property float ny
property float nz
property uchar red
property uchar green
property uchar blue
property uchar alpha
property float texture_u
property float texture_v
element face 119
property list uchar int vertex_indices
end_header
56.49854 74.99486 26.50843 -0.3740391 0.3740014 0.8486564 192 192 192 255 0.028544 0.538946
43.62183 74.99486 16.65117 -0.5194361 0.5193838 0.6785473 192 192 192 255 0.022481 0.538946
153.4227 163.8158 26.50843 -0.3142356 0.4328244 0.8449373 192 192 192 255 0.074179 0.830754
146.8005 178.1839 16.65117 -0.3148898 0.4356048 0.8432633 192 192 192 255 0.071061 0.587531
46.99133 124.022 16.65117 0.2566174 -0.7090163 0.6568437 192 192 192 255 0.024068 0.56203
93.03369 164.0299 16.65117 0.6241924 0.3607221 0.6930104 192 192 192 255 0.045746 0.580867
42.13174 131.9044 26.30509 0.07695324 -0.2126166 0.9741008 192 192 192 255 0.021779 0.565741
82.33813 164.0299 26.30509 0.4616352 -0.1779879 0.8690301 192 192 192 255 0.04071 0.580867
46.99133 204.0377 16.65117 0.1930666 0.7630802 0.6167933 192 192 192 255 0.024068 0.599704
46.99133 190.152 26.30509 0.147421 0.456559 0.8773944 192 192 192 255 0.024068 0.593166
0 131.7372 26.30509 -0.3418224 -0.5332307 0.7738362 192 192 192 255 0.001942 0.565663
0 124.022 16.65117 -0.8942969 -0.3480041 0.281294 192 192 192 255 0.001942 0.56203
0 196.3225 26.30509 -0.5898395 0.2303863 0.7739584 192 192 192 255 0.001942 0.846071
0 204.0377 16.65117 -0.4472136 0.6987113 0.5583929 192 192 192 255 0.001942 0.849704
0 0 31.19531 -0.5773503 -0.5773503 0.5773503 192 192 192 255 0.001942 0.753636
0 500 31.19531 -0.4850713 0.4850713 0.7276069 192 192 192 255 0.001942 0.989053
0 500 -14.2392 -0.8017837 0.2672613 -0.5345225 192 192 192 255 0.001942 0.989053
0 0 -14.2392 -0.904534 -0.3015113 -0.3015113 192 192 192 255 0.001942 0.753636
0 250 31.19531 -0.3225301 -0.1365623 0.9366564 192 192 192 255 0.001942 0.621345
214 385.066 31.19531 -0.0002555231 9.986113e-05 1 192 192 192 255 0.102701 0.934938
110.5547 286 31.19531 0.0004559403 0.05747321 0.998347 192 192 192 255 0.053995 0.888295
214 464 31.19531 -0.1669867 -0.1630713 0.9723802 192 192 192 255 0.102701 0.722103
0 286 31.19531 -0.2590978 0.4923332 0.8309491 192 192 192 255 0.001942 0.638295
0 464 31.19531 -0.3347428 -0.2034773 0.9200784 192 192 192 255 0.001942 0.972103
195.8 392.8362 16.65115 -0.2780795 0.1086539 0.9543931 192 192 192 255 0.094132 0.938597
103.2456 304.2 16.65115 0.02585646 0.6293597 0.7766839 192 192 192 255 0.050554 0.646864
195.8 445.8 16.65115 -0.0003585766 -0.6815209 0.7317985 192 192 192 255 0.094132 0.963534
0 304.2 16.65115 -0.8464205 0.1761426 0.5025398 192 192 192 255 0.001942 0.646864
0 445.8 16.65115 -0.001174091 -0.6813201 0.7319847 192 192 192 255 0.001942 0.963534
0 221.4391 16.65117 -0.0002779819 -2.355125e-05 1 192 192 192 255 0.001942 0.607897
0 105.1522 16.65117 -0.0001667425 4.945104e-05 1 192 192 192 255 0.001942 0.553145
0 75.87138 31.19531 -0.2487223 0.2212916 0.9429567 192 192 192 255 0.001942 0.789359
250 250 31.19531 0.0001018226 -2.157816e-05 1 192 192 192 255 0.119651 0.871345
250 500 31.19531 0.1924501 0.1924501 0.9622505 192 192 192 255 0.119651 0.989053
250 500 -14.2392 0.8728716 0.4364358 -0.2182179 192 192 192 255 0.119651 0.989053
250 0 -14.2392 0.5773503 -0.5773503 -0.5773503 192 192 192 255 0.119651 0.753636
250 0 31.19531 0.5345225 -0.2672613 0.8017837 192 192 192 255 0.119651 0.753636
250 75.87138 31.19531 0.3230447 0.1437087 0.9354089 192 192 192 255 0.119651 0.789359
250 105.1522 16.65117 0.6311566 0.2807744 0.7230541 192 192 192 255 0.119651 0.553145
250 221.4391 16.65117 0.4562785 -0.1932136 0.8686072 192 192 192 255 0.119651 0.857897
250 178.1839 16.65117 0.8944256 0.3744219 0.2445633 192 192 192 255 0.119651 0.587531
249.9999 171.7456 26.50843 0.3494833 0.585198 0.7317135 192 192 192 255 0.119651 0.5845
250 85.27192 26.50843 0.4472123 3.422538e-07 0.8944278 192 192 192 255 0.119651 0.788946
250 105.1522 16.65117 1 7.65305e-07 7.213566e-06 192 192 192 255 0.119651 0.788946
54.23315 189.7064 26.30509 0.03946314 0.460262 0.8869057 192 192 192 255 0.027477 0.592956
46.99133 200.7849 20.72139 0.1512729 0.4629737 0.8733681 192 192 192 255 0.024068 0.598173
33.7433 196.3225 26.30509 0.2060508 0.456402 0.8655867 192 192 192 255 0.01783 0.596071
161.4279 171.7456 26.50843 -0.38418 0.391952 0.8359302 192 192 192 255 0.077948 0.5845
131.5498 150.0537 26.50843 -0.2828493 0.4489121 0.8476287 192 192 192 255 0.063881 0.574287
162.7988 75.87138 31.19531 0.02617213 0.2422724 0.9698552 192 192 192 255 0.078594 0.539359
237.259 75.87138 31.19531 -0.104014 0.2408302 0.9649777 192 192 192 255 0.113652 0.539359
222.4005 82.41922 27.94291 2.47133e-08 0.2432236 0.9699703 192 192 192 255 0.106656 0.542442
222.5526 69.40155 31.19531 2.472313e-08 0.2414558 0.9704118 192 192 192 255 0.106728 0.786313
11.74 75.87138 31.1953 0.04255467 0.2071963 0.9773735 192 192 192 255 0.00747 0.539359
68.32321 75.87138 31.19531 -0.0550769 0.1447807 0.9879297 192 192 192 255 0.034111 0.539359
40.60428 80.3054 28.99287 -6.547667e-08 0.1815766 0.9833769 192 192 192 255 0.02106 0.541447
48.67641 68.24377 31.19531 -6.541102e-08 0.1781128 0.9840101 192 192 192 255 0.024861 0.785768
154.6865 218.6859 16.65117 -7.047234e-09 -7.065632e-05 1 192 192 192 255 0.074774 0.606868
165.8607 252.3022 31.19531 5.658784e-07 -0.000468885 0.9999999 192 192 192 255 0.080035 0.622434
7.240781 286 31.19531 0.02582484 0.1287846 0.9913363 192 192 192 255 0.005352 0.638295
50.67653 277.2145 31.19531 0 0.1602713 0.987073 192 192 192 255 0.025803 0.884158
67.44845 290.4517 29.04283 0.0112073 0.3662481 0.9304498 192 192 192 255 0.033699 0.640391
152.7839 350.6821 16.65115 -0.2833645 0.2948937 0.9125472 192 192 192 255 0.073878 0.918749
166.9589 334.2752 31.19531 -4.797702e-05 4.992901e-05 1 192 192 192 255 0.080552 0.911024
121.0157 464 31.19531 -0.04086868 -0.237131 0.9706177 192 192 192 255 0.058921 0.722103
16.46665 464 31.19531 0.02698597 -0.1099298 0.993573 192 192 192 255 0.009695 0.972103
40.77585 470.0941 31.19531 0.01823882 -0.1452567 0.9892259 192 192 192 255 0.021141 0.974973
77.24043 471.6309 31.19531 -0.01607068 -0.2115981 0.9772246 192 192 192 255 0.03831 0.725015
90.49911 458.5975 28.58314 -9.777564e-07 -0.5413319 0.840809 192 192 192 255 0.044552 0.71956
0 124.022 16.65117 -0.8942969 -0.3480041 0.281294 192 192 192 255 0.001942 0.81203
0 131.7372 26.30509 -0.3418224 -0.5332307 0.7738362 192 192 192 255 0.001942 0.815663
0 250 31.19531 -0.3225301 -0.1365623 0.9366564 192 192 192 255 0.001942 0.871345
165.8607 252.3022 31.19531 5.658784e-07 -0.000468885 0.9999999 192 192 192 255 0.080035 0.872434
152.7839 350.6821 16.65115 -0.2833645 0.2948937 0.9125472 192 192 192 255 0.073836 0.668794
166.9589 334.2752 31.19531 -4.797702e-05 4.992901e-05 1 192 192 192 255 0.080297 0.661292
214 385.066 31.19531 -0.0002555231 9.986113e-05 1 192 192 192 255 0.102701 0.684938
195.8 392.8362 16.65115 -0.2780795 0.1086539 0.9543931 192 192 192 255 0.094132 0.688597
195.8 445.8 16.65115 -0.0003585766 -0.6815209 0.7317985 192 192 192 255 0.094132 0.713534
0 445.8 16.65115 -0.001174091 -0.6813201 0.7319847 192 192 192 255 0.001942 0.713534
16.46665 464 31.19531 0.02698597 -0.1099298 0.993573 192 192 192 255 0.009695 0.722103
0 464 31.19531 -0.3347428 -0.2034773 0.9200784 192 192 192 255 0.001942 0.722103
154.6865 218.6859 16.65117 -7.047234e-09 -7.065632e-05 1 192 192 192 255 0.074774 0.606601
214 464 31.19531 -0.1669867 -0.1630713 0.9723802 192 192 192 255 0.102701 0.972103
0 304.2 16.65115 -0.8464205 0.1761426 0.5025398 192 192 192 255 0.001942 0.896864
0 221.4391 16.65117 -0.0002779819 -2.355125e-05 1 192 192 192 255 0.001942 0.857897
0 286 31.19531 -0.2590978 0.4923332 0.8309491 192 192 192 255 0.001942 0.888295
0 105.1522 16.65117 -0.0001667425 4.945104e-05 1 192 192 192 255 0.001942 0.803145
249.9999 171.7456 26.50843 0.3494833 0.585198 0.7317135 192 192 192 255 0.119651 0.8345
161.4279 171.7456 26.50843 -0.38418 0.391952 0.8359302 192 192 192 255 0.077948 0.8345
131.5498 150.0537 26.50843 -0.2828493 0.4489121 0.8476287 192 192 192 255 0.063881 0.824287
56.49854 74.99486 26.50843 -0.3740391 0.3740014 0.8486564 192 192 192 255 0.028544 0.788946
250 178.1839 16.65117 0.8944256 0.3744219 0.2445633 192 192 192 255 0.119651 0.837531
250 105.1522 16.65117 0.6311566 0.2807744 0.7230541 192 192 192 255 0.119651 0.803145
0 204.0377 16.65117 -0.4472136 0.6987113 0.5583929 192 192 192 255 0.001942 0.599704
0 196.3225 26.30509 -0.5898395 0.2303863 0.7739584 192 192 192 255 0.001942 0.596071
42.13174 131.9044 26.30509 0.07695324 -0.2126166 0.9741008 192 192 192 255 0.021779 0.815741
46.99133 190.152 26.30509 0.147421 0.456559 0.8773944 192 192 192 255 0.024068 0.843166
33.7433 196.3225 26.30509 0.2060508 0.456402 0.8655867 192 192 192 255 0.01783 0.846071
82.33813 164.0299 26.30509 0.4616352 -0.1779879 0.8690301 192 192 192 255 0.04071 0.830867
54.23315 189.7064 26.30509 0.03946314 0.460262 0.8869057 192 192 192 255 0.027477 0.842956
153.4227 163.8158 26.50843 -0.3142356 0.4328244 0.8449373 192 192 192 255 0.074179 0.580766
222.5526 69.40155 31.19531 2.472313e-08 0.2414558 0.9704118 192 192 192 255 0.106728 0.536313
48.67641 68.24377 31.19531 -6.541102e-08 0.1781128 0.9840101 192 192 192 255 0.024861 0.535768
250 221.4391 16.65117 0.4562785 -0.1932136 0.8686072 192 192 192 255 0.119651 0.607897
250 250 31.19531 0.0001018226 -2.157816e-05 1 192 192 192 255 0.119651 0.621345
0 75.87138 31.19531 -0.2487223 0.2212916 0.9429567 192 192 192 255 0.001942 0.539359
250 75.87138 31.19531 0.3230447 0.1437087 0.9354089 192 192 192 255 0.119651 0.539359
237.259 75.87138 31.19531 -0.104014 0.2408302 0.9649777 192 192 192 255 0.113652 0.789359
162.7988 75.87138 31.19531 0.02617213 0.2422724 0.9698552 192 192 192 255 0.078594 0.789359
68.32321 75.87138 31.19531 -0.0550769 0.1447807 0.9879297 192 192 192 255 0.034111 0.789359
11.74 75.87138 31.1953 0.04255467 0.2071963 0.9773735 192 192 192 255 0.00747 0.789359
50.67653 277.2145 31.19531 0 0.1602713 0.987073 192 192 192 255 0.025803 0.634942
110.5547 286 31.19531 0.0004559403 0.05747321 0.998347 192 192 192 255 0.053995 0.638295
7.240781 286 31.19531 0.02582484 0.1287846 0.9913363 192 192 192 255 0.005352 0.888295
103.2456 304.2 16.65115 0.02585646 0.6293597 0.7766839 192 192 192 255 0.050554 0.896864
40.77585 470.0941 31.19531 0.01823882 -0.1452567 0.9892259 192 192 192 255 0.021141 0.724429
77.24043 471.6309 31.19531 -0.01607068 -0.2115981 0.9772246 192 192 192 255 0.03831 0.975696
121.0157 464 31.19531 -0.04086868 -0.237131 0.9706177 192 192 192 255 0.058921 0.972103
3 0 48 3 
3 0 3 1 
3 9 45 46 
3 10 11 4 
3 10 4 6 
3 4 5 7 
3 4 7 6 
3 44 45 9 
3 69 70 12 
3 69 12 13 
3 18 29 57 
3 18 57 58 
3 14 17 35 
3 14 35 36 
3 16 34 35 
3 16 35 17 
3 28 62 24 
3 28 24 26 
3 63 32 19 
3 66 15 23 
3 66 23 65 
3 71 72 20 
3 71 20 60 
3 73 74 75 
3 73 75 76 
3 75 21 77 
3 75 77 76 
3 78 68 79 
3 78 79 80 
3 22 59 61 
3 22 61 25 
3 22 25 27 
3 30 81 29 
3 38 30 55 
3 38 55 51 
3 56 14 36 
3 56 36 52 
3 33 82 19 
3 33 19 32 
3 28 23 15 
3 28 15 16 
3 83 84 71 
3 83 71 85 
3 86 17 14 
3 86 14 31 
3 84 16 17 
3 84 17 86 
3 28 16 84 
3 28 84 83 
3 15 33 34 
3 15 34 16 
3 41 40 3 
3 41 3 47 
3 42 87 88 
3 42 88 2 
3 42 2 89 
3 42 89 90 
3 91 87 42 
3 91 42 43 
3 34 33 32 
3 34 32 39 
3 36 35 92 
3 36 92 37 
3 92 35 34 
3 92 34 39 
3 5 8 45 
3 5 45 44 
3 5 44 7 
3 46 45 8 
3 46 8 93 
3 46 93 94 
3 95 96 97 
3 95 97 12 
3 95 12 70 
3 95 98 99 
3 95 99 96 
3 47 3 100 
3 3 48 100 
3 101 51 49 
3 102 55 53 
3 54 55 102 
3 50 51 101 
3 103 81 30 
3 103 30 38 
3 58 57 103 
3 58 103 104 
3 20 72 32 
3 55 30 105 
3 55 105 53 
3 51 55 54 
3 51 54 49 
3 38 51 50 
3 38 50 106 
3 52 36 37 
3 52 37 107 
3 56 52 108 
3 56 108 109 
3 31 14 56 
3 31 56 110 
3 111 61 59 
3 112 61 111 
3 25 61 112 
3 71 60 113 
3 71 113 85 
3 114 62 28 
3 114 28 83 
3 112 74 73 
3 112 73 25 
3 20 32 63 
3 67 68 64 
3 79 68 115 
3 115 68 67 
3 77 21 64 
3 77 64 68 
3 77 68 78 
3 15 66 116 
3 15 116 33 
3 33 116 117 
3 33 117 82 
