ply
format ascii 1.0
comment VCGLIB generated
comment TextureFile Dungeons_2_Texture_01_A.png
element vertex 122
property float x
property float y
property float z
property float nx
property float ny
property float nz
property uchar red
property uchar green
property uchar blue
property uchar alpha
property float texture_u
property float texture_v
element face 110
property list uchar int vertex_indices
end_header
1.7e-05 500 30.54131 -1 0.0001279041 0.0001279204 192 192 192 255 0.134636 0.983937
1.6e-05 500 -30.54131 -1 5.213651e-05 -2.605602e-05 192 192 192 255 0.107068 0.983937
88.26904 500 30.54131 0.2276967 0.7260451 0.6488549 192 192 192 255 0.077596 0.944099
1.7e-05 0 30.54131 -1 -8.801676e-05 8.801676e-05 192 192 192 255 0.134636 0.758273
1.7e-05 0 -30.54131 -1 -1.877547e-05 -3.754165e-05 192 192 192 255 0.107068 0.758273
88.26904 0 30.54131 0.3067814 -0.5657474 0.7653857 192 192 192 255 0.164108 0.944099
101.669 500 18.64131 0.000122041 0.0003896729 0.9999999 192 192 192 255 0.082967 0.938051
101.669 0 18.64131 5.924802e-05 -0.0004389243 0.9999999 192 192 192 255 0.158737 0.938051
128.6208 500 -17.78942 0.9969558 4.013981e-05 0.07796989 192 192 192 255 0.102301 0.983937
125.769 500 18.64131 0.803915 0.0005998041 0.594744 192 192 192 255 0.085859 0.983937
125.769 0 18.6413 0.4494775 -5.433512e-05 0.8932917 192 192 192 255 0.085859 0.758273
128.6208 0 -17.78942 0.9969528 -7.527315e-05 0.07800802 192 192 192 255 0.102301 0.758273
101.769 1e-06 -34.0859 0.748606 -2.194578e-05 0.6630152 192 192 192 255 0.13494 0.938006
101.769 500 -34.0859 0.7399065 8.675593e-05 0.6727097 192 192 192 255 0.109656 0.983937
194.8193 500 -136.428 0.7527018 -0.005306892 0.6583403 192 192 192 255 0.155845 0.983937
194.8193 0 -136.428 0.7398292 0.01105765 0.6727039 192 192 192 255 0.155845 0.758273
69.40002 0 -30.54131 -0.2454992 -0.9112335 -0.3307322 192 192 192 255 0.13654 0.952615
69.40002 500 -30.54132 -0.1998532 0.7418066 -0.640142 192 192 192 255 0.039342 0.758273
164.55 500 -161.1421 -0.334486 0.8276874 -0.4506137 192 192 192 255 0.082286 0.758273
164.55 0 -161.1421 -0.1998532 -0.7418066 -0.640142 192 192 192 255 0.082286 0.983937
500 500 30.54131 2.918039e-05 2.918039e-05 1 192 192 192 255 0.107068 0.983937
500 500 -30.54131 0.5773504 0.5773503 -0.5773502 192 192 192 255 0.134636 0.983937
411.731 500 30.54131 -5.441394e-05 8.194653e-05 1 192 192 192 255 0.18541 0.983937
500 -0 30.54131 1.603256e-05 -3.217102e-05 1 192 192 192 255 0.107068 0.758273
500 -0 -30.54131 0.6666667 -0.3333334 -0.6666666 192 192 192 255 0.134636 0.758273
411.731 -0 30.54131 -9.439373e-05 -0.0002843109 0.9999999 192 192 192 255 0.164108 0.798111
398.331 500 18.64131 -8.905241e-05 0.0005373995 0.9999999 192 192 192 255 0.179362 0.983937
398.331 -0 18.64131 -0.0002882189 -0.0008678678 0.9999996 192 192 192 255 0.158737 0.804159
371.3792 500 -17.78942 -0.9969549 6.839265e-05 0.07798074 192 192 192 255 0.139403 0.983937
374.231 500 18.64131 -0.0660713 0.0001274955 0.9978149 192 192 192 255 0.155845 0.983937
374.231 -0 18.6413 -0.899654 -3.519182e-05 0.4366037 192 192 192 255 0.155845 0.758273
371.3792 -0 -17.78942 -0.996954 -0.0001094599 0.0779928 192 192 192 255 0.139403 0.758273
398.231 1e-06 -34.0859 -0.7465245 -2.91773e-05 0.665358 192 192 192 255 0.13494 0.804204
398.231 500 -34.0859 -0.7399065 5.783729e-05 0.6727097 192 192 192 255 0.132048 0.983937
305.1807 500 -136.428 -0.7472226 -0.003011159 0.6645671 192 192 192 255 0.085858 0.983937
305.1807 0 -136.428 -0.7395797 0.02752975 0.6725057 192 192 192 255 0.085858 0.758273
430.6 -0 -30.54131 0.2841832 -0.8790157 -0.3828464 192 192 192 255 0.13654 0.789595
430.6 500 -30.54132 0.1420916 0.8790157 -0.4551279 192 192 192 255 0.202362 0.758273
335.45 500 -161.1421 0.3469236 0.6438481 -0.6819852 192 192 192 255 0.159418 0.758273
335.45 0 -161.1421 0.2316109 -0.8596836 -0.4553027 192 192 192 255 0.159418 0.983937
125.769 426.4195 18.64131 0.7670038 -0.03174245 0.640857 192 192 192 255 0.085859 0.950728
125.769 227.092 18.64131 0.9627581 0.008572651 0.2702284 192 192 192 255 0.085859 0.860766
127.0736 378.8026 1.976549 0.8879456 -7.463308e-09 0.4599485 192 192 192 255 0.09338 0.929237
109.75 377.8771 18.64131 0.2390722 -9.892346e-09 0.9710018 192 192 192 255 0.142004 0.928819
398.331 191.1825 18.64131 -0.06913544 -5.540561e-09 0.9976073 192 192 192 255 0.179362 0.844559
411.731 223.5195 30.54131 -0.005678125 -0.002015092 0.9999819 192 192 192 255 0.18541 0.859154
411.731 79.68599 30.54131 -0.06403717 0.006819749 0.9979243 192 192 192 255 0.18541 0.794238
423.5266 190.3373 30.54128 -0.1162529 0 0.9932197 192 192 192 255 0.190733 0.844178
374.231 240.507 18.64131 -0.4490145 0.01738468 0.8933554 192 192 192 255 0.155845 0.866821
374.231 485.7758 18.64131 -0.9325224 -0.01753952 0.3606861 192 192 192 255 0.155845 0.977517
386.46 315.8521 18.64133 -0.5099518 0 0.860203 192 192 192 255 0.174004 0.900826
373.0581 308.3409 3.658885 -0.9706509 -8.369109e-10 0.2404933 192 192 192 255 0.149083 0.897436
190.006 320.0794 -136.428 0.7573477 -3.613357e-09 0.6530119 192 192 192 255 0.155845 0.902734
308.8461 97.68433 -136.428 -0.7531547 0 0.6578435 192 192 192 255 0.085858 0.802361
101.669 377.4 18.64131 0.0001768704 -6.709266e-09 1 192 192 192 255 0.138356 0.928604
81.84522 85.78888 30.54131 0.2439617 -2.815936e-06 0.9697849 192 192 192 255 0.129409 0.796992
1.7e-05 372.0035 30.54131 -1 -1e-09 4.9122e-05 192 192 192 255 0.134636 0.926168
1.7e-05 372.0035 30.54131 -1 -1e-09 4.9122e-05 192 192 192 255 0.09247 0.926168
1.7e-05 0 30.54131 -1 -8.801676e-05 8.801676e-05 192 192 192 255 0.09247 0.758273
88.26904 0 30.54131 0.3067814 -0.5657474 0.7653857 192 192 192 255 0.132309 0.758273
101.669 0 18.64131 5.924802e-05 -0.0004389243 0.9999999 192 192 192 255 0.138356 0.758273
125.769 0 18.6413 0.4494775 -5.433512e-05 0.8932917 192 192 192 255 0.149233 0.758273
125.769 227.092 18.64131 0.9627581 0.008572651 0.2702284 192 192 192 255 0.149233 0.860766
128.6208 0 -17.78942 0.9969528 -7.527315e-05 0.07800802 192 192 192 255 0.142295 0.925887
125.769 0 18.6413 0.4494775 -5.433512e-05 0.8932917 192 192 192 255 0.158737 0.927174
101.769 1e-06 -34.0859 0.748606 -2.194578e-05 0.6630152 192 192 192 255 0.109656 0.758273
1.7e-05 0 -30.54131 -1 -1.877547e-05 -3.754165e-05 192 192 192 255 0.00802 0.983937
1.6e-05 500 -30.54131 -1 5.213651e-05 -2.605602e-05 192 192 192 255 0.00802 0.758273
69.40002 0 -30.54131 -0.2454992 -0.9112335 -0.3307322 192 192 192 255 0.039342 0.983937
1.7e-05 0 30.54131 -1 -8.801676e-05 8.801676e-05 192 192 192 255 0.164108 0.983937
1.7e-05 0 -30.54131 -1 -1.877547e-05 -3.754165e-05 192 192 192 255 0.13654 0.983937
500 500 30.54131 2.918039e-05 2.918039e-05 1 192 192 192 255 0.225248 0.983937
500 -0 30.54131 1.603256e-05 -3.217102e-05 1 192 192 192 255 0.225248 0.758273
411.731 -0 30.54131 -9.439373e-05 -0.0002843109 0.9999999 192 192 192 255 0.18541 0.758273
374.231 500 18.64131 -0.0660713 0.0001274955 0.9978149 192 192 192 255 0.168485 0.983937
374.231 485.7758 18.64131 -0.9325224 -0.01753952 0.3606861 192 192 192 255 0.168485 0.977517
374.231 240.507 18.64131 -0.4490145 0.01738468 0.8933554 192 192 192 255 0.168485 0.866821
374.231 -0 18.6413 -0.899654 -3.519182e-05 0.4366037 192 192 192 255 0.168485 0.758273
398.331 -0 18.64131 -0.0002882189 -0.0008678678 0.9999996 192 192 192 255 0.179362 0.758273
374.231 -0 18.6413 -0.899654 -3.519182e-05 0.4366037 192 192 192 255 0.158737 0.815036
371.3792 -0 -17.78942 -0.996954 -0.0001094599 0.0779928 192 192 192 255 0.142295 0.816323
398.231 1e-06 -34.0859 -0.7465245 -2.91773e-05 0.665358 192 192 192 255 0.132048 0.758273
190.006 320.0794 -136.428 0.7573477 -3.613357e-09 0.6530119 192 192 192 255 0.021758 0.902734
308.8461 97.68433 -136.428 -0.7531547 0 0.6578435 192 192 192 255 0.075394 0.802361
305.1807 500 -136.428 -0.7472226 -0.003011159 0.6645671 192 192 192 255 0.07374 0.983937
194.8193 500 -136.428 0.7527018 -0.005306892 0.6583403 192 192 192 255 0.02393 0.983937
500 -0 -30.54131 0.6666667 -0.3333334 -0.6666666 192 192 192 255 0.233684 0.983937
430.6 -0 -30.54131 0.2841832 -0.8790157 -0.3828464 192 192 192 255 0.202362 0.983937
500 500 -30.54131 0.5773504 0.5773503 -0.5773502 192 192 192 255 0.233684 0.758273
500 -0 -30.54131 0.6666667 -0.3333334 -0.6666666 192 192 192 255 0.13654 0.758273
500 -0 30.54131 1.603256e-05 -3.217102e-05 1 192 192 192 255 0.164108 0.758273
305.1807 0 -136.428 -0.7395797 0.02752975 0.6725057 192 192 192 255 0.08875 0.8462
335.45 0 -161.1421 0.2316109 -0.8596836 -0.4553027 192 192 192 255 0.077596 0.832539
194.8193 0 -136.428 0.7398292 0.01105765 0.6727039 192 192 192 255 0.08875 0.89601
164.55 0 -161.1421 -0.1998532 -0.7418066 -0.640142 192 192 192 255 0.077596 0.909671
164.55 500 -161.1421 -0.334486 0.8276874 -0.4506137 192 192 192 255 0.164108 0.909671
194.8193 500 -136.428 0.7527018 -0.005306892 0.6583403 192 192 192 255 0.152954 0.896009
305.1807 500 -136.428 -0.7472226 -0.003011159 0.6645671 192 192 192 255 0.152954 0.846201
335.45 500 -161.1421 0.3469236 0.6438481 -0.6819852 192 192 192 255 0.164108 0.832539
69.40002 500 -30.54132 -0.1998532 0.7418066 -0.640142 192 192 192 255 0.105164 0.952615
1.6e-05 500 -30.54131 -1 5.213651e-05 -2.605602e-05 192 192 192 255 0.105164 0.983937
1.7e-05 500 30.54131 -1 0.0001279041 0.0001279204 192 192 192 255 0.077596 0.983937
398.231 500 -34.0859 -0.7399065 5.783729e-05 0.6727097 192 192 192 255 0.106764 0.804204
430.6 500 -30.54132 0.1420916 0.8790157 -0.4551279 192 192 192 255 0.105164 0.789596
398.331 500 18.64131 -8.905241e-05 0.0005373995 0.9999999 192 192 192 255 0.082967 0.804159
371.3792 500 -17.78942 -0.9969549 6.839265e-05 0.07798074 192 192 192 255 0.099409 0.816324
374.231 500 18.64131 -0.0660713 0.0001274955 0.9978149 192 192 192 255 0.082967 0.815036
101.769 500 -34.0859 0.7399065 8.675593e-05 0.6727097 192 192 192 255 0.106764 0.938006
125.769 500 18.64131 0.803915 0.0005998041 0.594744 192 192 192 255 0.082967 0.927174
128.6208 500 -17.78942 0.9969558 4.013981e-05 0.07796989 192 192 192 255 0.099409 0.925886
411.731 500 30.54131 -5.441394e-05 8.194653e-05 1 192 192 192 255 0.077596 0.798112
500 500 30.54131 2.918039e-05 2.918039e-05 1 192 192 192 255 0.077596 0.758273
500 500 -30.54131 0.5773504 0.5773503 -0.5773502 192 192 192 255 0.105164 0.758273
109.75 377.8771 18.64131 0.2390722 -9.892346e-09 0.9710018 192 192 192 255 0.085859 0.928819
386.46 315.8521 18.64133 -0.5099518 0 0.860203 192 192 192 255 0.155845 0.900826
194.8193 0 -136.428 0.7398292 0.01105765 0.6727039 192 192 192 255 0.02393 0.758273
305.1807 0 -136.428 -0.7395797 0.02752975 0.6725057 192 192 192 255 0.07374 0.758273
101.669 500 18.64131 0.000122041 0.0003896729 0.9999999 192 192 192 255 0.138356 0.983937
125.769 426.4195 18.64131 0.7670038 -0.03174245 0.640857 192 192 192 255 0.149233 0.950728
125.769 500 18.64131 0.803915 0.0005998041 0.594744 192 192 192 255 0.149233 0.983937
88.26904 500 30.54131 0.2276967 0.7260451 0.6488549 192 192 192 255 0.132309 0.983937
1.7e-05 500 30.54131 -1 0.0001279041 0.0001279204 192 192 192 255 0.09247 0.983937
3 7 5 16 
3 7 16 12 
3 0 1 56 
3 1 4 56 
3 4 3 56 
3 9 40 8 
3 10 11 41 
3 11 8 41 
3 41 8 42 
3 8 40 42 
3 55 57 58 
3 55 58 59 
3 54 55 59 
3 54 59 60 
3 60 61 54 
3 54 61 43 
3 43 61 62 
3 7 12 63 
3 7 63 64 
3 8 11 65 
3 8 65 13 
3 13 65 14 
3 14 65 52 
3 65 15 52 
3 66 67 17 
3 66 17 68 
3 16 5 69 
3 16 69 70 
3 68 17 18 
3 68 18 19 
3 27 32 36 
3 27 36 25 
3 20 23 24 
3 20 24 21 
3 31 30 28 
3 29 28 49 
3 49 28 51 
3 28 30 51 
3 30 48 51 
3 22 45 71 
3 71 45 72 
3 45 47 72 
3 47 46 72 
3 46 73 72 
3 22 26 44 
3 22 44 45 
3 26 74 44 
3 74 75 44 
3 75 50 44 
3 50 76 44 
3 76 77 44 
3 77 78 44 
3 27 79 80 
3 27 80 32 
3 28 33 81 
3 28 81 31 
3 33 34 81 
3 35 81 53 
3 34 53 81 
3 82 83 84 
3 82 84 85 
3 86 87 37 
3 86 37 88 
3 36 89 90 
3 36 90 25 
3 87 39 38 
3 87 38 37 
3 19 18 38 
3 19 38 39 
3 32 91 92 
3 32 92 36 
3 91 93 94 
3 91 94 92 
3 93 12 16 
3 93 16 94 
3 95 96 97 
3 95 97 98 
3 2 99 100 
3 2 100 101 
3 98 97 102 
3 98 102 103 
3 104 102 105 
3 104 105 106 
3 95 99 107 
3 95 107 96 
3 107 6 108 
3 107 108 109 
3 107 99 2 
3 107 2 6 
3 103 110 111 
3 103 111 112 
3 103 102 104 
3 103 104 110 
3 40 113 42 
3 42 113 41 
3 46 44 78 
3 46 78 73 
3 45 44 47 
3 47 44 46 
3 49 51 114 
3 114 51 48 
3 115 116 83 
3 115 83 82 
3 54 43 117 
3 43 118 117 
3 117 118 119 
3 120 55 54 
3 120 54 117 
3 120 121 57 
3 120 57 55 
