ply
format ascii 1.0
comment VCGLIB generated
comment TextureFile Dungeons_2_Texture_01_A.png
element vertex 253
property float x
property float y
property float z
property float nx
property float ny
property float nz
property uchar red
property uchar green
property uchar blue
property uchar alpha
property float texture_u
property float texture_v
element face 208
property list uchar int vertex_indices
end_header
131.9853 500 30.54131 0.2076943 0.4301838 0.8785244 192 192 192 255 0.100189 0.781154
199.1015 444.5073 30.54131 0.3590952 -0.1787058 0.9160321 192 192 192 255 0.078899 0.755405
131.9853 389.0145 30.54131 0.1192252 -0.5514169 0.8256663 192 192 192 255 0.057609 0.781154
1.5e-05 389.0145 30.54131 -0.7071068 -0.4272916 0.5634021 192 192 192 255 0.057609 0.83179
1.6e-05 500 30.54131 -2.737129e-05 2.195767e-05 1 192 192 192 255 0.100189 0.83179
126.3966 488.8462 39.00127 6.930808e-05 0.0003734177 0.9999999 192 192 192 255 0.346464 0.775611
172.1438 439.9929 39.00127 0.0002310802 5.475585e-05 1 192 192 192 255 0.327721 0.75806
126.3966 400.1687 39.00078 0.0001671371 -0.0003591957 0.9999999 192 192 192 255 0.312443 0.775611
1.5e-05 400.1687 39.00078 -0.4665797 -0.2819481 0.8383368 192 192 192 255 0.312443 0.824103
1.5e-05 488.8462 39.00127 -0.466583 0.2819612 0.8383306 192 192 192 255 0.346464 0.824103
286.2722 437.5336 30.54131 0.6406143 -0.2799878 0.7149966 192 192 192 255 0.197976 0.968081
250.0001 387.3123 30.54131 -0.1434424 -0.4413957 0.8857732 192 192 192 255 0.184061 0.948814
213.7279 437.5336 30.54131 -0.6796983 -0.1281108 0.7222173 192 192 192 255 0.170145 0.968081
213.7279 500 30.54131 -0.5356287 0.7071066 0.4616298 192 192 192 255 0.170145 0.992047
286.2722 500 30.54131 0.5356482 0.7071069 0.4616069 192 192 192 255 0.197976 0.992047
278.9816 441.7155 39.00127 0.001013196 -0.0001956209 0.9999995 192 192 192 255 0.445734 0.961998
252.8103 406.7554 39.00127 0.0003124058 -0.0005820967 0.9999998 192 192 192 255 0.435694 0.948586
221.0186 441.7155 39.00078 -0.0008424833 -0.000361943 0.9999996 192 192 192 255 0.423497 0.961998
221.0186 500 39.00078 -0.365058 0.4819236 0.7965441 192 192 192 255 0.423497 0.984359
278.9816 500 39.00127 0.3650669 0.4819287 0.7965369 192 192 192 255 0.445734 0.984359
368.5334 389.0145 30.54131 -0.0004036566 -0.6041767 0.7968503 192 192 192 255 0.074239 0.932009
301.4173 444.5072 30.54131 -0.3626515 0.1074272 0.9257123 192 192 192 255 0.095529 0.957759
368.5334 500 30.54131 -0.1101401 0.5346284 0.8378793 192 192 192 255 0.116819 0.932009
500 500 30.54131 0.7071068 0.4272886 0.5634044 192 192 192 255 0.116819 0.881572
500 389.0145 30.54131 0.001010758 -0.6043161 0.7967441 192 192 192 255 0.074239 0.881572
374.1222 400.1683 39.00127 -6.254029e-05 -0.01706715 0.9998544 192 192 192 255 0.329073 0.922177
325.2133 441.3108 39.00127 -0.0002357543 -0.0001092897 1 192 192 192 255 0.344857 0.940942
374.1222 488.8457 39.00078 -3.815043e-05 8.653507e-05 1 192 192 192 255 0.363094 0.922177
500 488.8457 39.00078 9.814484e-05 6.481523e-05 1 192 192 192 255 0.363094 0.873884
500 400.1683 39.00127 0.0003656787 -0.08443517 0.9964289 192 192 192 255 0.329073 0.873884
87.63457 364.2664 30.54131 3.752991e-05 -9.883552e-05 1 192 192 192 255 0.150131 0.914253
412.3655 364.2664 30.54131 -7.053018e-06 -1.857032e-05 1 192 192 192 255 0.151927 0.895156
443.3537 335.3682 30.54131 -0.03232719 -3.018253e-05 0.9994773 192 192 192 255 0.151927 0.884069
56.64629 335.3682 30.54131 3.657639e-05 -1.679586e-05 1 192 192 192 255 0.139044 0.926142
93.00986 357.4722 16.89677 0.0001586502 -1 0.0001231811 192 192 192 255 0.159596 0.892549
63.04749 330.0103 16.89677 0.834476 -0.4459647 0.3236749 192 192 192 255 0.159596 0.882013
406.9902 357.4722 16.89677 -0.0009206842 -0.9999993 0.0007148479 192 192 192 255 0.146692 0.892549
436.9525 330.0103 16.89677 -0.9054141 -0.000324039 0.4245294 192 192 192 255 0.146692 0.882013
500.2594 500 30.54131 9.703246e-06 9.698213e-06 1 192 192 192 255 0.202205 0.755949
131.9853 500 -30.54131 0.2223366 0.4571935 -0.8611275 192 192 192 255 0.028529 0.859124
199.1015 444.5073 -30.54131 0.361362 -0.1517921 -0.9199874 192 192 192 255 0.049819 0.833375
131.9853 389.0145 -30.54131 0.0001754348 -0.6041998 -0.7968329 192 192 192 255 0.071109 0.859124
1.5e-05 389.0145 -30.54131 -0.0005331646 -0.6042806 -0.7967715 192 192 192 255 0.071109 0.90976
1.6e-05 500 -30.54131 -2.913601e-05 2.145024e-05 -1 192 192 192 255 0.228797 0.947874
126.3966 488.8462 -39.00127 1.97698e-05 9.688696e-05 -1 192 192 192 255 0.283363 0.853581
173.9202 443.1585 -39.00127 0.0002309263 7.60703e-05 -1 192 192 192 255 0.300891 0.835348
126.3966 400.1687 -39.00078 3.786348e-05 -0.009895037 -0.9999511 192 192 192 255 0.317384 0.853581
1.5e-05 400.1687 -39.00078 -0.001729385 -0.08443949 -0.9964271 192 192 192 255 0.317384 0.902072
1.5e-05 488.8462 -39.00127 -4.754846e-05 2.322533e-05 -1 192 192 192 255 0.283363 0.902072
286.2722 437.5336 -30.54131 0.6184792 -0.2714949 -0.7374104 192 192 192 255 0.037653 0.97278
250.0001 387.3123 -30.54131 -0.1659499 -0.4380765 -0.8834872 192 192 192 255 0.023737 0.992047
213.7279 437.5336 -30.54131 -0.6840264 -0.1300052 -0.7177789 192 192 192 255 0.009821 0.97278
213.7279 500 -30.54131 -0.5356287 0.7071066 -0.4616298 192 192 192 255 0.009821 0.948814
286.2722 500 -30.54131 0.5356482 0.7071069 -0.4616069 192 192 192 255 0.037653 0.948814
278.9816 441.7155 -39.00127 0.001013786 -0.0001921403 -0.9999995 192 192 192 255 0.476671 0.963487
251.3706 407.3397 -39.00127 0.0002772326 -0.0005816369 -0.9999998 192 192 192 255 0.466079 0.976676
221.0186 441.7155 -39.00078 -0.0008709108 -0.0003735813 -0.9999996 192 192 192 255 0.454434 0.963487
221.0186 500 -39.00078 -0.365058 0.4819236 -0.7965441 192 192 192 255 0.454434 0.941126
278.9816 500 -39.00127 0.3650669 0.4819287 -0.7965369 192 192 192 255 0.476671 0.941126
368.5334 389.0145 -30.54131 -0.2451555 -0.5049039 -0.8276296 192 192 192 255 0.162451 0.947177
301.4173 444.5072 -30.54131 -0.3641861 -0.4391046 -0.8213133 192 192 192 255 0.141162 0.972926
368.5334 500 -30.54131 -0.1235342 0.5596198 -0.8194907 192 192 192 255 0.119872 0.947177
500 500 -30.54131 0.7071068 0.4272886 -0.5634044 192 192 192 255 0.119872 0.89674
500 389.0145 -30.54131 0.0005934292 -0.6043163 -0.7967443 192 192 192 255 0.059321 0.948914
371.3448 394.6253 -34.79697 -0.09762826 -0.4810104 -0.8712622 192 192 192 255 0.160299 0.946099
320.4962 444.5072 -39.00127 -0.3637614 -0.4395544 -0.821261 192 192 192 255 0.141162 0.965607
374.1222 488.8457 -39.00078 -7.784231e-05 0.0001642652 -1 192 192 192 255 0.124151 0.945033
500 488.8457 -39.00078 9.154873e-05 6.082735e-05 -1 192 192 192 255 0.124151 0.89674
500 400.1683 -39.00127 0.0001078871 -0.08443519 -0.996429 192 192 192 255 0.062567 0.953193
87.63457 364.2664 -30.54131 1.159353e-05 -0.02393343 -0.9997136 192 192 192 255 0.092783 0.913709
412.3655 364.2664 -30.54131 -4.472893e-05 -0.04565163 -0.9989575 192 192 192 255 0.128493 0.895156
443.3537 335.3682 -30.54131 -4.317098e-05 -2.689536e-05 -1 192 192 192 255 0.128493 0.884069
56.64629 335.3682 -30.54131 0.01057292 -1.692851e-05 -0.9999442 192 192 192 255 0.10387 0.925597
93.00986 357.4722 -16.89677 7.793163e-05 -0.9925471 -0.1218619 192 192 192 255 0.172561 0.892549
63.04749 330.0103 -16.89677 0.9054635 -0.0009796544 -0.4244232 192 192 192 255 0.172561 0.882013
406.9902 357.4722 -16.89677 -0.0001096139 -0.9951794 -0.0980713 192 192 192 255 0.133727 0.892549
436.9525 330.0103 -16.89677 -0.8739765 -0.3980346 -0.2788073 192 192 192 255 0.133727 0.882013
500.2594 500 -30.54131 1.366399e-05 1.36569e-05 -1 192 192 192 255 0.228797 0.755949
443.3537 0 30.54131 -0.2028363 -0.2835864 0.9372492 192 192 192 255 0.109053 0.970646
436.9525 0 16.89677 -0.8870531 -0.2001356 0.416032 192 192 192 255 0.103818 0.973102
500 0 30.54131 4.324788e-05 -0.01675668 0.9998596 192 192 192 255 0.109053 0.948914
436.9525 0 -16.89677 -0.003654168 -0.9999931 -0.0007159907 192 192 192 255 0.090853 0.973102
500 0 -30.54131 2.195217e-05 -0.01698907 -0.9998557 192 192 192 255 0.085618 0.948914
443.3537 0 -30.54131 -0.0003114672 -0.144736 -0.9894703 192 192 192 255 0.085618 0.970646
56.64629 0 30.54131 0.0001349404 -0.06280719 0.9980257 192 192 192 255 0.135349 0.95137
63.04749 0 16.89677 0.003657132 -0.9999931 0.000719959 192 192 192 255 0.130115 0.948914
1.5e-05 0 30.54131 -2.216237e-05 -0.01717388 0.9998525 192 192 192 255 0.135349 0.973102
63.04749 0 -16.89677 0.8993473 -0.1149636 -0.4218505 192 192 192 255 0.11715 0.948914
1.5e-05 0 -30.54131 -4.317083e-05 -0.01670521 -0.9998605 192 192 192 255 0.111915 0.973102
56.64629 0 -30.54131 0.2111213 -0.06137191 -0.9755313 192 192 192 255 0.111915 0.95137
359.3152 364.2664 30.5413 -0.01292852 -0.05671809 0.9983065 192 192 192 255 0.150131 0.810023
264.473 364.2664 30.54131 0.003740757 -0.02095361 0.9997734 192 192 192 255 0.065509 0.9853
326.598 357.4722 16.89677 1.541329e-11 -1 6.300594e-05 192 192 192 255 0.070743 0.961466
317.704 373.7812 30.54131 -2.022604e-08 -0.09529709 0.9954489 192 192 192 255 0.153781 0.825987
326.5981 357.4722 16.89673 -3.783069e-07 -0.6416739 0.7669776 192 192 192 255 0.070743 0.961466
443.3537 40.51651 30.54131 -0.2978519 0.004206863 0.9546028 192 192 192 255 0.151927 0.770949
443.3537 237.4839 30.54131 -0.3508458 -0.005242287 0.9364186 192 192 192 255 0.101491 0.777781
449.2886 172.6971 30.54131 -0.152005 -3.135412e-10 0.9883798 192 192 192 255 0.076635 0.775504
438.9489 170.3042 21.15207 -0.9053245 2.669869e-10 0.4247208 192 192 192 255 0.148325 0.820742
438.9487 170.3042 21.1521 -0.6722605 -1.38667e-09 0.7403148 192 192 192 255 0.075717 0.779471
385.023 400.1683 39.00127 0.002950953 -0.0477709 0.998854 192 192 192 255 0.329073 0.917995
472.7052 400.1683 39.00127 -0.007462812 -0.1195181 0.992804 192 192 192 255 0.329073 0.884356
442.8033 411.367 39.00121 4.583582e-10 -0.04894609 0.9988014 192 192 192 255 0.333369 0.895828
432.9087 394.0425 34.35497 9.792043e-10 -0.475904 0.8794972 192 192 192 255 0.076168 0.907312
56.64629 306.8463 -30.54131 0.466642 -0.01778064 -0.8842676 192 192 192 255 0.114812 0.925597
56.64629 194.865 -30.54131 0.3275602 0.003147482 -0.9448251 192 192 192 255 0.157774 0.925597
47.72169 252.4045 -30.54131 0.1217273 0 -0.9925636 192 192 192 255 0.135699 0.929022
60.10439 250.7602 -23.17015 0.7621861 0 -0.6473581 192 192 192 255 0.174968 0.85161
369.2175 364.2664 -30.54131 -0.003573863 -0.1322114 -0.9912151 192 192 192 255 0.092783 0.805679
262.1489 364.2664 -30.54131 0.002014864 -0.1578045 -0.9874683 192 192 192 255 0.092783 0.846757
303.9781 371.4121 -30.54131 1.777255e-08 -0.06190785 -0.9980819 192 192 192 255 0.090041 0.830709
309.6426 359.9406 -21.85387 6.120601e-08 -0.8456656 -0.5337132 192 192 192 255 0.105956 0.794815
407.4854 400.1683 -39.00127 -0.003978473 -0.1061649 -0.9943406 192 192 192 255 0.158172 0.932234
361.4924 410.6108 -39.00127 -0.2029657 -0.3637694 -0.9091077 192 192 192 255 0.154166 0.949879
374.1222 414.5863 -39.00119 -0.003008995 -0.01324764 -0.9999077 192 192 192 255 0.152641 0.945033
106.0872 400.1687 -39.00078 -0.01043546 -0.1366511 -0.9905643 192 192 192 255 0.317384 0.861372
11.54293 400.1687 -39.00078 0.00879523 -0.1101033 -0.9938812 192 192 192 255 0.317384 0.897644
59.37723 414.8357 -39.00086 0 -0.04640796 -0.9989226 192 192 192 255 0.311757 0.879292
64.43701 394.3828 -34.61269 0 -0.4397837 -0.8981038 192 192 192 255 0.069049 0.885039
63.04749 249.3459 -16.89677 0.9054376 3.193388e-08 -0.4244793 192 192 192 255 0.172561 0.851067
63.04749 271.3311 13.87596 0.9603838 -0.001977075 0.2786739 192 192 192 255 0.160755 0.859501
50.06959 216.7879 30.54131 0.0001531074 -3.970456e-06 1 192 192 192 255 0.154362 0.838576
436.9525 170.3853 16.89677 -0.9056707 0 0.4239819 192 192 192 255 0.146692 0.820774
436.9525 167.9256 -13.26653 -0.9610431 0.005968344 -0.2763341 192 192 192 255 0.13512 0.81983
448.9014 93.25346 -30.54131 -0.0001506907 -4.278272e-07 -1 192 192 192 255 0.196757 0.775109
126.3966 488.8462 39.00127 6.930808e-05 0.0003734177 0.9999999 192 192 192 255 0.095909 0.783298
172.1438 439.9929 39.00127 0.0002310802 5.475585e-05 1 192 192 192 255 0.077167 0.765747
126.3966 400.1687 39.00078 0.0001671371 -0.0003591957 0.9999999 192 192 192 255 0.061888 0.783298
1.5e-05 400.1687 39.00078 -0.4665797 -0.2819481 0.8383368 192 192 192 255 0.061888 0.83179
1.5e-05 488.8462 39.00127 -0.466583 0.2819612 0.8383306 192 192 192 255 0.095909 0.83179
1.5e-05 400.1687 39.00078 -0.4665797 -0.2819481 0.8383368 192 192 192 255 0.044004 0.953193
1.5e-05 488.8462 39.00127 -0.466583 0.2819612 0.8383306 192 192 192 255 0.044004 0.987214
1.6e-05 500 30.54131 -2.737129e-05 2.195767e-05 1 192 192 192 255 0.040759 0.991493
1.5e-05 389.0145 30.54131 -0.7071068 -0.4272916 0.5634021 192 192 192 255 0.040759 0.948914
278.9816 441.7155 39.00127 0.001013196 -0.0001956209 0.9999995 192 192 192 255 0.195179 0.969686
252.8103 406.7554 39.00127 0.0003124058 -0.0005820967 0.9999998 192 192 192 255 0.185139 0.956273
221.0186 441.7155 39.00078 -0.0008424833 -0.000361943 0.9999996 192 192 192 255 0.172942 0.969686
221.0186 500 39.00078 -0.365058 0.4819236 0.7965441 192 192 192 255 0.172942 0.992047
278.9816 500 39.00127 0.3650669 0.4819287 0.7965369 192 192 192 255 0.195179 0.992047
221.0186 500 39.00078 -0.365058 0.4819236 0.7965441 192 192 192 255 0.073243 0.973949
278.9816 500 39.00127 0.3650669 0.4819287 0.7965369 192 192 192 255 0.073243 0.951711
286.2722 500 30.54131 0.5356482 0.7071069 0.4616069 192 192 192 255 0.076489 0.948914
213.7279 500 30.54131 -0.5356287 0.7071066 0.4616298 192 192 192 255 0.076489 0.976746
374.1222 400.1683 39.00127 -6.254029e-05 -0.01706715 0.9998544 192 192 192 255 0.078518 0.929865
325.2133 441.3108 39.00127 -0.0002357543 -0.0001092897 1 192 192 192 255 0.094302 0.948629
374.1222 488.8457 39.00078 -3.815043e-05 8.653507e-05 1 192 192 192 255 0.112539 0.929865
500 488.8457 39.00078 9.814484e-05 6.481523e-05 1 192 192 192 255 0.112539 0.881572
500 400.1683 39.00127 0.0003656787 -0.08443517 0.9964289 192 192 192 255 0.078518 0.881572
472.7052 400.1683 39.00127 -0.007462812 -0.1195181 0.992804 192 192 192 255 0.078518 0.892044
385.023 400.1683 39.00127 0.002950953 -0.0477709 0.998854 192 192 192 255 0.078518 0.925683
500 488.8457 39.00078 9.814484e-05 6.481523e-05 1 192 192 192 255 0.046946 0.987214
500 400.1683 39.00127 0.0003656787 -0.08443517 0.9964289 192 192 192 255 0.046946 0.953193
500 389.0145 30.54131 0.001010758 -0.6043161 0.7967441 192 192 192 255 0.050192 0.948914
500 500 30.54131 0.7071068 0.4272886 0.5634044 192 192 192 255 0.050192 0.991493
1.6e-05 500 30.54131 -2.737129e-05 2.195767e-05 1 192 192 192 255 0.202205 0.947874
87.63457 364.2664 30.54131 3.752991e-05 -9.883552e-05 1 192 192 192 255 0.154362 0.895156
56.64629 335.3682 30.54131 3.657639e-05 -1.679586e-05 1 192 192 192 255 0.154362 0.884069
443.3537 335.3682 30.54131 -0.03232719 -3.018253e-05 0.9994773 192 192 192 255 0.139044 0.777781
412.3655 364.2664 30.54131 -7.053018e-06 -1.857032e-05 1 192 192 192 255 0.150131 0.78967
264.473 364.2664 30.54131 0.003740757 -0.02095361 0.9997734 192 192 192 255 0.150131 0.846409
1.6e-05 500 30.54131 -2.737129e-05 2.195767e-05 1 192 192 192 255 0.205363 0.947874
500.2594 500 30.54131 9.703246e-06 9.698213e-06 1 192 192 192 255 0.205363 0.755949
173.9202 443.1585 -39.00127 0.0002309263 7.60703e-05 -1 192 192 192 255 0.050336 0.843036
126.3966 488.8462 -39.00127 1.97698e-05 9.688696e-05 -1 192 192 192 255 0.032808 0.861268
126.3966 400.1687 -39.00078 3.786348e-05 -0.009895037 -0.9999511 192 192 192 255 0.066829 0.861268
1.5e-05 400.1687 -39.00078 -0.001729385 -0.08443949 -0.9964271 192 192 192 255 0.066829 0.90976
11.54293 400.1687 -39.00078 0.00879523 -0.1101033 -0.9938812 192 192 192 255 0.066829 0.905332
106.0872 400.1687 -39.00078 -0.01043546 -0.1366511 -0.9905643 192 192 192 255 0.066829 0.86906
1.6e-05 500 -30.54131 -2.913601e-05 2.145024e-05 -1 192 192 192 255 0.028529 0.90976
1.5e-05 488.8462 -39.00127 -4.754846e-05 2.322533e-05 -1 192 192 192 255 0.032808 0.90976
1.5e-05 400.1687 -39.00078 -0.001729385 -0.08443949 -0.9964271 192 192 192 255 0.053134 0.953193
1.5e-05 389.0145 -30.54131 -0.0005331646 -0.6042806 -0.7967715 192 192 192 255 0.056379 0.948914
1.6e-05 500 -30.54131 -2.913601e-05 2.145024e-05 -1 192 192 192 255 0.056379 0.991493
1.5e-05 488.8462 -39.00127 -4.754846e-05 2.322533e-05 -1 192 192 192 255 0.053134 0.987214
251.3706 407.3397 -39.00127 0.0002772326 -0.0005816369 -0.9999998 192 192 192 255 0.024263 0.984363
278.9816 441.7155 -39.00127 0.001013786 -0.0001921403 -0.9999995 192 192 192 255 0.034856 0.971175
221.0186 441.7155 -39.00078 -0.0008709108 -0.0003735813 -0.9999996 192 192 192 255 0.012619 0.971175
221.0186 500 -39.00078 -0.365058 0.4819236 -0.7965441 192 192 192 255 0.012619 0.948814
278.9816 500 -39.00127 0.3650669 0.4819287 -0.7965369 192 192 192 255 0.034856 0.948814
221.0186 500 -39.00078 -0.365058 0.4819236 -0.7965441 192 192 192 255 0.082676 0.973949
213.7279 500 -30.54131 -0.5356287 0.7071066 -0.4616298 192 192 192 255 0.079431 0.976746
286.2722 500 -30.54131 0.5356482 0.7071069 -0.4616069 192 192 192 255 0.079431 0.948914
278.9816 500 -39.00127 0.3650669 0.4819287 -0.7965369 192 192 192 255 0.082676 0.951711
500 488.8457 -39.00078 9.154873e-05 6.082735e-05 -1 192 192 192 255 0.062567 0.987214
500 500 -30.54131 0.7071068 0.4272886 -0.5634044 192 192 192 255 0.059321 0.991493
1.6e-05 500 -30.54131 -2.913601e-05 2.145024e-05 -1 192 192 192 255 0.040708 0.94733
87.63457 364.2664 -30.54131 1.159353e-05 -0.02393343 -0.9997136 192 192 192 255 0.177796 0.895156
56.64629 335.3682 -30.54131 0.01057292 -1.692851e-05 -0.9999442 192 192 192 255 0.177796 0.884069
443.3537 335.3682 -30.54131 -4.317098e-05 -2.689536e-05 -1 192 192 192 255 0.10387 0.777237
412.3655 364.2664 -30.54131 -4.472893e-05 -0.04565163 -0.9989575 192 192 192 255 0.092783 0.789126
500.2594 500 -30.54131 1.366399e-05 1.36569e-05 -1 192 192 192 255 0.040708 0.755405
87.63457 364.2664 -30.54131 1.159353e-05 -0.02393343 -0.9997136 192 192 192 255 0.102623 0.879988
262.1489 364.2664 -30.54131 0.002014864 -0.1578045 -0.9874683 192 192 192 255 0.102623 0.813036
93.00986 357.4722 -16.89677 7.793163e-05 -0.9925471 -0.1218619 192 192 192 255 0.107858 0.877926
412.3655 364.2664 -30.54131 -4.472893e-05 -0.04565163 -0.9989575 192 192 192 255 0.102623 0.755405
406.9902 357.4722 -16.89677 -0.0001096139 -0.9951794 -0.0980713 192 192 192 255 0.107858 0.757467
369.2175 364.2664 -30.54131 -0.003573863 -0.1322114 -0.9912151 192 192 192 255 0.102623 0.771959
406.9902 357.4722 16.89677 -0.0009206842 -0.9999993 0.0007148479 192 192 192 255 0.120823 0.757467
326.598 357.4722 16.89677 1.541329e-11 -1 6.300594e-05 192 192 192 255 0.120823 0.78831
93.00986 357.4722 16.89677 0.0001586502 -1 0.0001231811 192 192 192 255 0.120823 0.877926
436.9525 0 16.89677 -0.8870531 -0.2001356 0.416032 192 192 192 255 0.146692 0.755405
443.3537 0 30.54131 -0.2028363 -0.2835864 0.9372492 192 192 192 255 0.151927 0.755405
500 0 30.54131 4.324788e-05 -0.01675668 0.9998596 192 192 192 255 0.01038 0.756049
443.3537 0 30.54131 -0.2028363 -0.2835864 0.9372492 192 192 192 255 0.01038 0.777781
443.3537 40.51651 30.54131 -0.2978519 0.004206863 0.9546028 192 192 192 255 0.025924 0.777781
436.9525 0 -16.89677 -0.003654168 -0.9999931 -0.0007159907 192 192 192 255 0.133727 0.755405
500.2594 500 -30.54131 1.366399e-05 1.36569e-05 -1 192 192 192 255 0.038274 0.94723
500.2594 500 30.54131 9.703246e-06 9.698213e-06 1 192 192 192 255 0.014839 0.94723
500 0 30.54131 4.324788e-05 -0.01675668 0.9998596 192 192 192 255 0.014839 0.755405
500 0 -30.54131 2.195217e-05 -0.01698907 -0.9998557 192 192 192 255 0.038274 0.755405
500 0 -30.54131 2.195217e-05 -0.01698907 -0.9998557 192 192 192 255 0.232534 0.755505
443.3537 0 -30.54131 -0.0003114672 -0.144736 -0.9894703 192 192 192 255 0.232534 0.777237
448.9014 93.25346 -30.54131 -0.0001506907 -4.278272e-07 -1 192 192 192 255 0.128493 0.791182
443.3537 0 -30.54131 -0.0003114672 -0.144736 -0.9894703 192 192 192 255 0.128493 0.755405
56.64629 0 30.54131 0.0001349404 -0.06280719 0.9980257 192 192 192 255 0.154362 0.755405
63.04749 0 16.89677 0.003657132 -0.9999931 0.000719959 192 192 192 255 0.159596 0.755405
1.5e-05 0 30.54131 -2.216237e-05 -0.01717388 0.9998525 192 192 192 255 0.01038 0.947874
50.06959 216.7879 30.54131 0.0001531074 -3.970456e-06 1 192 192 192 255 0.093551 0.928665
56.64629 0 30.54131 0.0001349404 -0.06280719 0.9980257 192 192 192 255 0.01038 0.926142
1.5e-05 0 -30.54131 -4.317083e-05 -0.01670521 -0.9998605 192 192 192 255 0.232534 0.94733
56.64629 0 -30.54131 0.2111213 -0.06137191 -0.9755313 192 192 192 255 0.232534 0.925597
56.64629 194.865 -30.54131 0.3275602 0.003147482 -0.9448251 192 192 192 255 0.177796 0.830165
63.04749 0 -16.89677 0.8993473 -0.1149636 -0.4218505 192 192 192 255 0.172561 0.755405
56.64629 0 -30.54131 0.2111213 -0.06137191 -0.9755313 192 192 192 255 0.177796 0.755405
1.6e-05 500 30.54131 -2.737129e-05 2.195767e-05 1 192 192 192 255 0.203665 0.94723
1.6e-05 500 -30.54131 -2.913601e-05 2.145024e-05 -1 192 192 192 255 0.180231 0.94723
1.5e-05 0 -30.54131 -4.317083e-05 -0.01670521 -0.9998605 192 192 192 255 0.180231 0.755405
1.5e-05 0 30.54131 -2.216237e-05 -0.01717388 0.9998525 192 192 192 255 0.203665 0.755405
264.473 364.2664 30.54131 0.003740757 -0.02095361 0.9997734 192 192 192 255 0.126058 0.812144
87.63457 364.2664 30.54131 3.752991e-05 -9.883552e-05 1 192 192 192 255 0.126058 0.879988
412.3655 364.2664 30.54131 -7.053018e-06 -1.857032e-05 1 192 192 192 255 0.126058 0.755405
359.3152 364.2664 30.5413 -0.01292852 -0.05671809 0.9983065 192 192 192 255 0.126058 0.775758
326.5981 357.4722 16.89673 -3.783069e-07 -0.6416739 0.7669776 192 192 192 255 0.147525 0.822574
359.3152 364.2664 30.5413 -0.01292852 -0.05671809 0.9983065 192 192 192 255 0.065509 0.948914
443.3537 237.4839 30.54131 -0.3508458 -0.005242287 0.9364186 192 192 192 255 0.167194 0.89674
438.9489 170.3042 21.15207 -0.9053245 2.669869e-10 0.4247208 192 192 192 255 0.165504 0.922514
438.9487 170.3042 21.1521 -0.6722605 -1.38667e-09 0.7403148 192 192 192 255 0.165504 0.922514
443.3537 40.51651 30.54131 -0.2978519 0.004206863 0.9546028 192 192 192 255 0.167194 0.972307
442.8033 411.367 39.00121 4.583582e-10 -0.04894609 0.9988014 192 192 192 255 0.082814 0.903516
47.72169 252.4045 -30.54131 0.1217273 0 -0.9925636 192 192 192 255 0.177796 0.85224
56.64629 306.8463 -30.54131 0.466642 -0.01778064 -0.8842676 192 192 192 255 0.177796 0.873127
303.9781 371.4121 -30.54131 1.777255e-08 -0.06190785 -0.9980819 192 192 192 255 0.102623 0.796988
500 389.0145 -30.54131 0.0005934292 -0.6043163 -0.7967443 192 192 192 255 0.162451 0.89674
500 400.1683 -39.00127 0.0001078871 -0.08443519 -0.996429 192 192 192 255 0.158172 0.89674
374.1222 414.5863 -39.00119 -0.003008995 -0.01324764 -0.9999077 192 192 192 255 0.403195 0.937345
361.4924 410.6108 -39.00127 -0.2029657 -0.3637694 -0.9091077 192 192 192 255 0.40472 0.942191
320.4962 444.5072 -39.00127 -0.3637614 -0.4395544 -0.821261 192 192 192 255 0.391716 0.957919
374.1222 488.8457 -39.00078 -7.784231e-05 0.0001642652 -1 192 192 192 255 0.374705 0.937345
500 488.8457 -39.00078 9.154873e-05 6.082735e-05 -1 192 192 192 255 0.374705 0.889052
407.4854 400.1683 -39.00127 -0.003978473 -0.1061649 -0.9943406 192 192 192 255 0.408727 0.924546
500 400.1683 -39.00127 0.0001078871 -0.08443519 -0.996429 192 192 192 255 0.408727 0.889052
59.37723 414.8357 -39.00086 0 -0.04640796 -0.9989226 192 192 192 255 0.061202 0.88698
443.3537 237.4839 30.54131 -0.3508458 -0.005242287 0.9364186 192 192 192 255 0.151927 0.846516
3 5 7 6 
3 5 9 8 
3 5 8 7 
3 0 125 126 
3 0 126 1 
3 1 126 127 
3 1 127 2 
3 2 127 128 
3 2 128 3 
3 4 129 125 
3 4 125 0 
3 130 131 132 
3 130 132 133 
3 15 17 16 
3 15 19 18 
3 15 18 17 
3 10 134 135 
3 10 135 11 
3 11 135 136 
3 11 136 12 
3 12 136 137 
3 12 137 13 
3 14 138 134 
3 14 134 10 
3 139 140 141 
3 139 141 142 
3 25 27 26 
3 25 100 27 
3 27 100 28 
3 100 102 28 
3 102 101 28 
3 101 29 28 
3 20 143 144 
3 20 144 21 
3 21 144 145 
3 21 145 22 
3 22 145 146 
3 22 146 23 
3 147 148 24 
3 143 20 149 
3 149 20 103 
3 20 24 103 
3 24 148 103 
3 150 151 152 
3 150 152 153 
3 154 33 30 
3 155 156 35 
3 155 35 34 
3 92 94 91 
3 32 31 36 
3 32 36 37 
3 78 79 80 
3 85 84 86 
3 157 38 158 
3 38 154 158 
3 158 154 90 
3 90 154 93 
3 93 154 159 
3 154 30 159 
3 77 43 160 
3 77 160 161 
3 80 79 81 
3 80 81 82 
3 44 45 46 
3 44 46 48 
3 46 115 48 
3 115 117 48 
3 47 48 116 
3 117 116 48 
3 39 40 162 
3 39 162 163 
3 40 41 164 
3 40 164 162 
3 165 166 42 
3 164 41 167 
3 166 118 42 
3 42 118 41 
3 41 118 167 
3 168 39 163 
3 168 163 169 
3 170 171 172 
3 170 172 173 
3 54 55 56 
3 54 56 57 
3 54 57 58 
3 49 50 174 
3 49 174 175 
3 50 51 176 
3 50 176 174 
3 51 52 177 
3 51 177 176 
3 53 49 175 
3 53 175 178 
3 179 180 181 
3 179 181 182 
3 64 113 114 
3 64 114 112 
3 60 61 66 
3 60 66 65 
3 61 62 67 
3 61 67 66 
3 183 184 63 
3 183 63 68 
3 185 69 72 
3 186 73 74 
3 186 74 187 
3 71 76 75 
3 71 75 70 
3 83 82 81 
3 87 88 89 
3 188 189 190 
3 185 190 69 
3 69 190 109 
3 109 190 110 
3 110 190 108 
3 189 108 190 
3 191 192 193 
3 194 195 196 
3 196 195 111 
3 195 193 111 
3 193 192 111 
3 35 74 73 
3 35 73 34 
3 36 75 76 
3 36 76 37 
3 86 88 87 
3 86 87 85 
3 197 198 195 
3 195 198 193 
3 198 199 193 
3 122 200 98 
3 201 95 200 
3 98 200 95 
3 38 157 202 
3 157 96 202 
3 96 97 202 
3 203 202 204 
3 97 204 202 
3 122 123 205 
3 122 205 200 
3 206 207 208 
3 206 208 209 
3 190 210 188 
3 188 210 124 
3 210 211 124 
3 123 212 213 
3 123 213 205 
3 120 121 214 
3 120 214 215 
3 154 216 33 
3 33 216 217 
3 216 218 217 
3 185 72 219 
3 72 104 219 
3 104 106 219 
3 106 105 219 
3 105 220 219 
3 107 119 221 
3 119 222 221 
3 222 223 221 
3 224 225 226 
3 224 226 227 
3 119 120 215 
3 119 215 222 
3 198 228 229 
3 198 229 199 
3 197 230 231 
3 197 231 198 
3 232 93 159 
3 92 233 94 
3 90 93 232 
3 99 97 96 
3 234 235 236 
3 236 235 237 
3 204 97 99 
3 103 238 149 
3 148 238 103 
3 107 239 240 
3 221 239 107 
3 111 241 196 
3 192 241 111 
3 59 64 242 
3 64 112 242 
3 242 112 243 
3 60 65 59 
3 59 65 64 
3 65 113 64 
3 244 245 246 
3 244 246 247 
3 247 248 244 
3 244 248 249 
3 249 248 250 
3 166 251 118 
3 118 251 167 
3 187 74 240 
3 119 107 74 
3 74 107 240 
3 74 35 120 
3 74 120 119 
3 35 156 121 
3 35 121 120 
3 32 37 252 
3 122 98 37 
3 37 98 252 
3 37 76 123 
3 37 123 122 
3 76 71 212 
3 76 212 123 
