ply
format ascii 1.0
comment VCGLIB generated
comment TextureFile Dungeons_2_Texture_01_A.png
element vertex 79
property float x
property float y
property float z
property float nx
property float ny
property float nz
property uchar red
property uchar green
property uchar blue
property uchar alpha
property float texture_u
property float texture_v
element face 154
property list uchar int vertex_indices
end_header
1.7e-05 219.432 30.54131 -0.6666667 -0.3333333 0.6666667 192 192 192 255 0.001866 0.892438
500 219.432 30.54131 0.3015114 0.3015114 0.904534 192 192 192 255 0.235023 0.892438
1.7e-05 219.432 -30.54131 -0.4082483 -0.8164967 -0.4082481 192 192 192 255 0.001866 0.892438
500 219.432 -30.54131 0.0003886027 0.0003886027 -0.9999999 192 192 192 255 0.235023 0.892438
1.7e-05 0 30.54131 -0.0002413558 -0.9999999 0.0004829571 192 192 192 255 0.001866 0.790114
500.0001 0 30.54131 0.6570999 -0.6672078 0.3507899 192 192 192 255 0.235023 0.790114
500 -1.5e-05 -30.54131 0.4064227 -0.4126746 -0.8151811 192 192 192 255 0.235023 0.790114
1.7e-05 -1.5e-05 -30.54131 -0.0004829447 -0.9999999 -0.0002412268 192 192 192 255 0.001866 0.790114
402.4321 3.081501 30.54131 -0.1401752 -0.513253 0.8467126 192 192 192 255 0.188391 0.790114
100 0 30.54131 0.5228434 -0.8524271 0.001687094 192 192 192 255 0.048497 0.790114
98.3955 9.153808 -30.54131 0.07660956 -0.2560765 -0.963616 192 192 192 255 0.047749 0.794383
400 -1.5e-05 -30.54131 -0.2379563 -0.8712798 -0.4292416 192 192 192 255 0.188391 0.790114
187.5126 53.71199 30.54131 0.1884546 -0.6673163 0.7205371 192 192 192 255 0.089306 0.815161
312.4875 53.71199 30.54131 -0.5229219 -0.85238 0.001073508 192 192 192 255 0.147583 0.815161
312.4875 53.71199 -30.54131 -0.09131107 -0.8470089 -0.5236775 192 192 192 255 0.147583 0.815161
187.5125 53.71199 -30.54131 0.1842886 -0.8287166 -0.5284566 192 192 192 255 0.089306 0.815161
1.5e-05 219.432 -30.54131 0 0 -1 192 192 192 255 0.001866 0.892438
1.5e-05 219.432 30.54131 0 0 1 192 192 192 255 0.001866 0.892438
500.0001 41.72929 30.5413 0.718033 0.1204698 0.6855039 192 192 192 255 0.235023 0.809573
500 41.72928 -30.54131 0.7140287 0.2224736 -0.6638287 192 192 192 255 0.235023 0.809573
500 193.532 -30.54131 0.0005989279 -9.787198e-05 -0.9999998 192 192 192 255 0.235023 0.880361
500 193.532 30.54131 0.8408878 -0.1410821 0.5224974 192 192 192 255 0.235023 0.880361
407.3143 41.72929 30.54131 0.03872423 0.2437111 0.9690745 192 192 192 255 0.191802 0.809573
407.3143 37.97824 -30.54131 0.0001431191 0.0003861504 -0.9999999 192 192 192 255 0.191802 0.809573
302.9143 97.44987 30.54131 0.0002618396 0.0002296805 0.9999999 192 192 192 255 0.143119 0.835556
306.5437 193.532 30.54131 0.0002360011 -0.0001333298 1 192 192 192 255 0.144811 0.880361
306.5437 193.532 -30.54131 0.000171413 -0.0002032071 -1 192 192 192 255 0.144811 0.880361
306.5437 99.8644 -30.54131 0.08446789 0.008535108 -0.9963897 192 192 192 255 0.144811 0.836682
1.7e-05 41.72928 -30.54131 -0.7180329 0.1204702 -0.685504 192 192 192 255 0.001866 0.809573
1.7e-05 41.72929 30.5413 -0.7180329 0.2409405 0.6529751 192 192 192 255 0.001866 0.809573
1.7e-05 193.532 30.54131 -0.7212748 -0.1897556 0.6661498 192 192 192 255 0.001866 0.880361
1.7e-05 193.532 -30.54131 -0.8073947 -0.09613781 -0.5821266 192 192 192 255 0.001866 0.880361
92.68567 41.72929 30.54131 -0.09551163 0.2630537 0.9600418 192 192 192 255 0.045086 0.809573
92.68565 41.72928 -30.54131 -0.000116445 0.0006680647 -0.9999998 192 192 192 255 0.045086 0.809573
193.4564 193.532 -30.54131 -0.1010467 -0.01101905 -0.9948207 192 192 192 255 0.092077 0.880361
193.4564 99.8644 -30.54131 -0.1850921 0.1165593 -0.9757842 192 192 192 255 0.092077 0.836682
193.4564 99.8644 30.54131 -0.000373866 0.000142224 0.9999999 192 192 192 255 0.092077 0.836682
192.3976 191.448 30.54131 -0.0001446213 -0.0002936021 0.9999999 192 192 192 255 0.092077 0.880361
1.7e-05 58.22929 20.93003 -0.000286061 4.799478e-05 1 192 192 192 255 0.001866 0.817267
88.26746 58.22929 20.93003 -2.609908e-05 0.0001438477 1 192 192 192 255 0.043026 0.817267
1.7e-05 177.032 20.93003 -0.0003819148 -0.0001004755 0.9999999 192 192 192 255 0.001866 0.872667
176.9564 103.3417 20.93003 -0.2803147 0.2642606 0.9228163 192 192 192 255 0.084383 0.838304
176.9564 177.032 20.93003 -0.2192245 -0.1132757 0.9690765 192 192 192 255 0.084383 0.872667
1.7e-05 177.032 -20.93004 -8.820693e-05 -4.220168e-05 -1 192 192 192 255 0.001866 0.872667
88.26745 58.22928 -20.93004 -2.231685e-05 6.101355e-05 -1 192 192 192 255 0.043026 0.817267
1.7e-05 58.22928 -20.93004 -0.0002860374 9.598165e-05 -1 192 192 192 255 0.001866 0.817267
176.9564 177.032 -20.93004 -0.4636502 -0.04966122 -0.8846255 192 192 192 255 0.084383 0.872667
176.9564 109.3943 -20.93004 -0.2473228 0.1557483 -0.9563336 192 192 192 255 0.084383 0.841126
411.7325 58.22929 20.93003 4.277422e-05 0.0001252536 1 192 192 192 255 0.193862 0.817267
500.0001 58.22929 20.93003 0.0001906914 9.598146e-05 1 192 192 192 255 0.235023 0.817267
500.0001 177.032 20.93003 0.0003217002 -0.08883967 0.9960459 192 192 192 255 0.235023 0.872667
323.0437 109.3943 20.93003 0.239243 0.07992346 0.9676647 192 192 192 255 0.152506 0.841126
323.0437 177.032 20.93003 0.000211113 -0.5029643 0.8643072 192 192 192 255 0.152506 0.872667
411.7325 58.22928 -20.93004 2.102589e-05 0.0001268376 -1 192 192 192 255 0.193862 0.817267
500.0001 177.032 -20.93004 0.0001909518 -9.352082e-05 -1 192 192 192 255 0.235023 0.872667
500.0001 58.22928 -20.93004 0.0003804956 4.427849e-05 -0.9999999 192 192 192 255 0.235023 0.817267
325.2655 175.9344 -20.93004 0.1121528 -0.1329552 -0.9847562 192 192 192 255 0.152506 0.872667
323.0437 109.3943 -20.93004 0.4805076 0.04892116 -0.8756251 192 192 192 255 0.152506 0.841126
286.513 53.71199 30.54131 -0.2438348 -0.6631032 0.7076997 192 192 192 255 0.135471 0.815161
195.0785 53.71199 30.54131 0.2026954 -0.8683352 0.4526683 192 192 192 255 0.092834 0.815161
255.5863 53.71199 19.83308 -0.1167237 -0.6531909 0.7481425 192 192 192 255 0.121049 0.815161
218.5916 53.71199 19.94434 0.1098682 -0.7762163 0.6208199 192 192 192 255 0.103798 0.815161
251.0493 66.8213 30.54131 3.130354e-09 -0.2807523 0.9597803 192 192 192 255 0.118934 0.821274
325.7545 45.56919 -30.54131 -0.1416862 -0.76027 -0.6339673 192 192 192 255 0.15377 0.811364
385.8828 8.664644 -30.54131 -0.531393 -0.8340645 -0.1481822 192 192 192 255 0.181752 0.794083
348.7962 41.39009 -30.54131 -0.05986914 -0.09754424 -0.9934288 192 192 192 255 0.164514 0.809415
337.9114 38.1077 -24.20737 -0.5148814 -0.8388917 -0.176516 192 192 192 255 0.159439 0.807884
130.6228 18.79516 -30.5413 0.4035558 -0.7321931 -0.5486675 192 192 192 255 0.062777 0.798879
99.99999 -1.2e-05 -18.87043 0.4422338 -0.8660682 -0.2331418 192 192 192 255 0.048497 0.790114
67.79771 -1.5e-05 -30.54131 0.02274239 -0.9578145 -0.2864861 192 192 192 255 0.033481 0.790114
303.1271 134.0657 -30.54131 0.4799271 0.04785271 -0.8760023 192 192 192 255 0.144811 0.852631
196.873 161.2886 -30.54131 -0.4635888 -0.04903207 -0.8846928 192 192 192 255 0.092077 0.865325
101.4282 177.032 -20.93004 -4.689448e-07 -0.000118914 -1 192 192 192 255 0.049163 0.872667
80.4827 195.8236 -30.54131 2.503496e-06 -0.0005811662 -0.9999998 192 192 192 255 0.039396 0.880361
2.003647 219.1637 -30.54131 0 0 -1 192 192 192 255 0.0028 0.892313
349.4115 193.532 30.54131 0.03210591 -0.1652391 0.9857308 192 192 192 255 0.164801 0.880361
461.9592 193.532 30.54131 -0.02385832 -0.2295534 0.9730036 192 192 192 255 0.217284 0.880361
380.3358 187.7387 27.16671 -1.384487e-08 -0.399075 0.9169183 192 192 192 255 0.179222 0.877659
388.5437 201.1933 30.54131 -2.732907e-08 -0.2015528 0.9794777 192 192 192 255 0.183049 0.883933
3 38 39 40 
3 53 54 55 
3 78 1 17 
3 78 17 25 
3 17 37 25 
3 16 3 74 
3 34 74 3 
3 34 3 26 
3 3 16 17 
3 3 17 1 
3 50 52 51 
3 50 51 48 
3 53 57 56 
3 53 56 54 
3 44 72 46 
3 44 46 47 
3 17 16 2 
3 17 2 0 
3 39 41 42 
3 39 42 40 
3 5 8 11 
3 5 11 6 
3 11 8 13 
3 11 13 64 
3 64 13 66 
3 63 66 13 
3 63 13 14 
3 61 15 14 
3 61 14 60 
3 58 60 14 
3 58 14 13 
3 59 12 15 
3 59 15 61 
3 67 68 10 
3 68 69 10 
3 5 6 19 
3 5 19 18 
3 3 1 21 
3 3 21 20 
3 8 5 18 
3 8 18 22 
3 76 21 1 
3 76 1 78 
3 25 75 78 
3 6 11 23 
3 6 23 19 
3 13 8 22 
3 13 22 24 
3 26 3 20 
3 23 65 27 
3 27 65 63 
3 27 63 14 
3 64 65 23 
3 64 23 11 
3 7 4 29 
3 7 29 28 
3 0 2 31 
3 0 31 30 
3 4 9 32 
3 4 32 29 
3 73 74 34 
3 9 12 36 
3 9 36 32 
3 37 17 0 
3 37 0 30 
3 36 24 25 
3 36 25 37 
3 36 62 24 
3 24 62 58 
3 24 58 13 
3 36 12 59 
3 36 59 62 
3 14 15 35 
3 14 35 27 
3 70 71 34 
3 70 34 26 
3 29 32 39 
3 29 39 38 
3 32 36 41 
3 32 41 39 
3 36 37 42 
3 36 42 41 
3 40 42 37 
3 40 37 30 
3 72 73 34 
3 72 34 46 
3 33 28 45 
3 33 45 44 
3 34 71 46 
3 35 33 44 
3 35 44 47 
3 22 18 49 
3 22 49 48 
3 75 25 52 
3 75 52 77 
3 52 50 77 
3 76 77 50 
3 76 50 21 
3 25 24 51 
3 25 51 52 
3 24 22 48 
3 24 48 51 
3 19 23 53 
3 19 53 55 
3 54 56 26 
3 54 26 20 
3 23 27 57 
3 23 57 53 
3 57 70 26 
3 57 26 56 
3 40 30 31 
3 40 31 43 
3 50 54 20 
3 50 20 21 
3 50 49 55 
3 50 55 54 
3 55 49 18 
3 55 18 19 
3 38 45 28 
3 38 28 29 
3 40 43 45 
3 40 45 38 
3 48 49 50 
3 43 44 45 
3 60 62 61 
3 58 62 60 
3 61 62 59 
3 64 66 65 
3 65 66 63 
3 15 12 9 
3 15 9 67 
3 9 68 67 
3 68 9 4 
3 68 4 69 
3 4 7 69 
3 69 7 28 
3 69 28 33 
3 10 69 33 
3 33 35 15 
3 33 15 67 
3 67 10 33 
3 27 70 57 
3 27 35 71 
3 27 71 70 
3 46 71 35 
3 46 35 47 
3 43 72 44 
3 43 31 73 
3 43 73 72 
3 16 74 2 
3 31 2 74 
3 31 74 73 
3 75 77 78 
3 78 77 76 
