ply
format ascii 1.0
comment VCGLIB generated
comment TextureFile Dungeons_2_Texture_01_A.png
element vertex 28
property float x
property float y
property float z
property float nx
property float ny
property float nz
property uchar red
property uchar green
property uchar blue
property uchar alpha
property float texture_u
property float texture_v
element face 24
property list uchar int vertex_indices
end_header
569.7868 85.27139 46.93822 -0.2595764 0.9466779 0.1908431 192 192 192 255 0.989802 0.719898
0 115.307 -89.66772 0.3657703 0.930248 0.02916873 192 192 192 255 0.010111 0.510553
569.7868 104.1962 -46.93822 -0.2002965 0.9229766 0.3286267 192 192 192 255 0.989802 0.872758
0 107.5665 79.44643 0.3657703 0.930248 0.02916873 192 192 192 255 0.010111 0.264762
439.0915 15.44957 25.52876 0.1696271 0.4772139 0.8622608 192 192 192 255 0.77448 0.616135
114.8142 66.4584 -5.431155 0.22049 0.9674113 0.1244969 192 192 192 255 0.200539 0.47187
279.6275 52.92856 -1.216818 0.001446731 0.9641742 0.2652661 192 192 192 255 0.492243 0.59172
404.6549 57.55307 9.001281 0.1296566 0.6296006 0.7660236 192 192 192 255 0.71353 0.667627
449.0622 62.0834 -2.241972 -0.1446153 0.8958023 0.4202674 192 192 192 255 0.792127 0.721707
413.1743 74.66443 -18.72583 -0.01079428 0.7834435 0.6213694 192 192 192 255 0.728609 0.725992
277.9188 63.92633 -34.59648 -0.04688405 0.9399909 0.3379629 192 192 192 255 0.489219 0.648483
143.6718 70.52267 -56.37484 0.1351424 0.9780558 0.1585665 192 192 192 255 0.251615 0.578894
37.0985 97.79559 -74.14926 0.3243774 0.9433667 0.06955953 192 192 192 255 0.06299 0.525517
51.56676 91.0195 38.27028 0.3452347 0.9372166 0.04937695 192 192 192 255 0.088597 0.350123
569.7868 85.27139 46.93822 0.2595764 -0.9466779 -0.1908431 192 192 192 255 0.989802 0.719898
0 115.307 -89.66772 -0.3657703 -0.930248 -0.02916873 192 192 192 255 0.010111 0.510553
569.7868 104.1962 -46.93822 0.2002965 -0.9229766 -0.3286267 192 192 192 255 0.989802 0.872758
0 107.5665 79.44643 -0.3657703 -0.930248 -0.02916873 192 192 192 255 0.010111 0.264762
439.0915 15.44957 25.52876 -0.1696271 -0.4772139 -0.8622608 192 192 192 255 0.77448 0.616135
114.8142 66.4584 -5.431155 -0.22049 -0.9674113 -0.1244969 192 192 192 255 0.200539 0.47187
279.6275 52.92856 -1.216818 -0.001446731 -0.9641742 -0.2652661 192 192 192 255 0.492243 0.59172
404.6549 57.55307 9.001281 -0.1296566 -0.6296006 -0.7660236 192 192 192 255 0.71353 0.667627
449.0622 62.0834 -2.241972 0.1446153 -0.8958023 -0.4202674 192 192 192 255 0.792127 0.721707
413.1743 74.66443 -18.72583 0.01079428 -0.7834435 -0.6213694 192 192 192 255 0.728609 0.725992
277.9188 63.92633 -34.59648 0.04688405 -0.9399909 -0.3379629 192 192 192 255 0.489219 0.648483
143.6718 70.52267 -56.37484 -0.1351424 -0.9780558 -0.1585665 192 192 192 255 0.251615 0.578894
37.0985 97.79559 -74.14926 -0.3243774 -0.9433667 -0.06955953 192 192 192 255 0.06299 0.525517
51.56676 91.0195 38.27028 -0.3452347 -0.9372166 -0.04937695 192 192 192 255 0.088597 0.350123
3 5 11 12 
3 5 12 13 
3 7 9 10 
3 7 10 6 
3 6 10 11 
3 6 11 5 
3 8 2 9 
3 8 9 7 
3 0 2 8 
3 13 12 1 
3 13 1 3 
3 8 7 4 
3 19 27 26 
3 19 26 25 
3 21 20 24 
3 21 24 23 
3 20 19 25 
3 20 25 24 
3 22 23 16 
3 22 21 23 
3 14 22 16 
3 27 17 15 
3 27 15 26 
3 22 18 21 
