ply
format ascii 1.0
comment VCGLIB generated
comment TextureFile Dungeons_2_Texture_01_A.png
element vertex 132
property float x
property float y
property float z
property float nx
property float ny
property float nz
property uchar red
property uchar green
property uchar blue
property uchar alpha
property float texture_u
property float texture_v
element face 140
property list uchar int vertex_indices
end_header
3.3e-05 0 31.19531 -0.0005088719 -0.9999979 0.002035488 192 192 192 255 0.001903 0.753725
3.3e-05 0 -31.19531 -3.115522e-05 -1.557761e-05 -1 192 192 192 255 0.001899 0.753486
57.07379 0 -31.19531 0.000663232 -0.0006887274 -0.9999996 192 192 192 255 0.028781 0.753487
63.0243 -0 0 0.001989577 -0.999998 -5.123701e-05 192 192 192 255 0.031584 0.753487
62.90136 14.38182 31.19531 0.9123586 -0.1508399 0.3805905 192 192 192 255 0.117712 0.768058
60.47007 0 31.19531 0.2219379 -0.9706827 0.09229707 192 192 192 255 0.117713 0.768077
63.55037 0 23.62122 0.05537836 -0.9982162 0.02231029 192 192 192 255 0.031832 0.753487
94.9896 200.332 -31.19531 0.9891258 -0.1206998 -0.08403351 192 192 192 255 0.117795 0.767704
94.7224 208.1293 31.19531 0.985698 -0.1666033 0.0253509 192 192 192 255 0.117687 0.767782
75.65828 95.35913 31.19531 0.9856849 -0.1666688 0.02543274 192 192 192 255 0.117702 0.767946
95.62263 314.8455 -31.19531 0.04822443 -0.0002782322 -0.9988365 192 192 192 255 0.117815 0.767555
104.4686 309.9948 -6.392212 0.8426718 -0.5358465 -0.05265719 192 192 192 255 0.117754 0.767582
94.26615 315.5894 31.19531 0.08709069 -0.1470765 0.9852836 192 192 192 255 0.117704 0.767644
3.2e-05 500 31.19531 -6.174781e-05 6.174781e-05 1 192 192 192 255 0.002013 0.990275
419.7072 0 -31.19531 -0.3189687 -0.5584621 -0.7657539 192 192 192 255 0.117276 0.767477
400.874 35.03191 0.149902 -0.9663854 -0.1350885 -0.2187472 192 192 192 255 0.117252 0.767498
500.0001 0 31.19531 2.028873e-05 -0.225102 0.9743353 192 192 192 255 0.237397 0.753487
406.6392 0 2.284668 -0.1825266 -0.9806221 -0.07116417 192 192 192 255 0.11724 0.767535
125.0126 340.1705 -31.19531 0.4024051 -0.002234906 -0.915459 192 192 192 255 0.06078 0.913707
125.0126 350 -31.19531 0.6190618 -0.6562527 -0.4313871 192 192 192 255 0.06078 0.918337
3.1e-05 500 -31.19531 -1.3686e-05 1.367407e-05 -1 192 192 192 255 0.001899 0.991744
405.514 31.21746 31.19531 -0.9889821 -0.0301637 0.144929 192 192 192 255 0.117194 0.767534
403.1572 108.6234 31.19531 -0.6504465 -0.01983165 0.7592931 192 192 192 255 0.117196 0.767443
394.0792 136.3653 -31.19531 -0.246877 -0.03425028 -0.9684414 192 192 192 255 0.117316 0.767344
61.91091 46.25877 31.19531 0.9030318 -0.06443638 0.4247135 192 192 192 255 0.117718 0.768024
63.37492 52.7318 -31.19531 0.111306 -0.001601323 -0.9937849 192 192 192 255 0.117821 0.767931
125.0126 333.7702 31.19531 0.4467983 -0.3650468 0.8167693 192 192 192 255 0.117653 0.76757
250.0001 450 -31.19531 -1.328613e-05 -5.155531e-05 -1 192 192 192 255 0.119649 0.965437
250 421.4409 -16.65117 0.000359664 -0.00133406 -0.999999 192 192 192 255 0.119649 0.701985
219.6917 397.1919 -16.65117 0.1198636 -0.6144645 -0.7797859 192 192 192 255 0.105374 0.940564
250 421.4409 16.65117 -0.07256492 -0.2720917 0.9595314 192 192 192 255 0.119649 0.701985
219.8651 397.3306 16.65117 0.1517875 -0.9741563 0.1672724 192 192 192 255 0.105456 0.690629
269.7532 405.6368 -16.65117 0.1071817 -0.5914942 -0.7991538 192 192 192 255 0.128953 0.694542
400.6852 326.5072 -31.19531 -0.5942978 -0.7645547 -0.2495321 192 192 192 255 0.11731 0.767077
260.767 412.8265 16.65117 0.06320899 -0.9185737 0.3901629 192 192 192 255 0.124721 0.697928
400.6698 326.4996 31.19531 -0.7566451 -0.2432307 0.6068996 192 192 192 255 0.117197 0.767156
500.0001 500 -31.19531 3.99904e-05 7.99808e-05 -1 192 192 192 255 0.2374 0.988987
308.739 412.4977 31.19531 0.1367639 -0.975009 0.1750801 192 192 192 255 0.117347 0.767169
304.301 407.5898 5.629517 0.05144357 -0.9805983 0.1891576 192 192 192 255 0.117402 0.767149
376.44 340.9651 31.19531 -0.7329475 -0.1221312 0.6692324 192 192 192 255 0.117235 0.767171
374.9875 350 31.19531 -0.6456223 -0.6102104 0.4591461 192 192 192 255 0.178519 0.918337
500.0001 500 31.19531 2.834053e-05 1.417026e-05 1 192 192 192 255 0.2374 0.988987
250.0001 450 31.19531 1.258576e-05 -4.719179e-05 1 192 192 192 255 0.119649 0.715437
410.6945 0 31.19531 -0.0007580187 -0.9999996 0.0004894416 192 192 192 255 0.195337 0.753487
500.0001 0 -31.19531 0.0001133384 -0.2838856 -0.9588582 192 192 192 255 0.2374 0.753486
395.4081 142.6775 31.19531 -0.0008099266 -2.023098e-05 0.9999997 192 192 192 255 0.117207 0.767411
179.3968 393.5117 31.19531 0.0514005 -0.6785227 0.732779 192 192 192 255 0.087927 0.689457
298.0743 411.5367 -31.19531 -0.01895917 -0.7517509 -0.6591746 192 192 192 255 0.142292 0.69732
333.8079 378.4398 -31.19531 -0.5941298 -0.7648333 -0.2490782 192 192 192 255 0.11742 0.767099
346.9727 357.5158 1.704224 -0.6512935 -0.758763 -0.009773452 192 192 192 255 0.117337 0.767153
308.8946 413.1501 -31.19531 -0.1385285 -0.3468331 -0.9276404 192 192 192 255 0.117463 0.767085
298.7096 411.0284 31.19531 -0.04475895 -0.991075 0.1255663 192 192 192 255 0.142592 0.697081
345.9198 373.2565 31.19531 -0.5809066 -0.7258575 0.3683457 192 192 192 255 0.117285 0.76717
182.356 387.6408 -6.053345 0.6042589 -0.7824959 0.1502383 192 192 192 255 0.117629 0.767351
181.3716 392.6174 -30.0979 0.4614386 -0.8646143 -0.1987878 192 192 192 255 0.087325 0.938409
399.7397 299.2928 -31.19531 -0.4980605 -0.1205792 -0.8587179 192 192 192 255 0.117311 0.767116
403.2698 180.8969 -31.19531 -0.2154704 0.03078091 -0.9760252 192 192 192 255 0.19184 0.838689
410.8324 253.64 -31.19531 -0.6720062 -0.02003655 -0.7402744 192 192 192 255 0.117312 0.76718
397.003 213.533 -17.54043 -0.9005443 0.02830798 -0.4338418 192 192 192 255 0.11729 0.767253
398.0666 235.5522 31.19531 -0.9806923 0.05752842 0.186904 192 192 192 255 0.117202 0.767282
399.7998 296.1043 31.19531 -0.9200169 -0.2184421 0.3253492 192 192 192 255 0.190205 0.892952
408.8734 258.0245 31.19531 -0.01087794 0.0003113706 0.9999408 192 192 192 255 0.194479 0.875016
399.4239 285.549 22.89784 -0.9790939 0.02802908 0.2014684 192 192 192 255 0.117214 0.767203
86.54301 160.8972 -31.19531 0.673704 -0.2769211 -0.6851552 192 192 192 255 0.117802 0.767764
64.11244 106.3932 -31.19531 0.1044117 -0.02236409 -0.9942827 192 192 192 255 0.032096 0.803598
72.35717 91.31932 -17.00459 0.767415 -0.1643937 -0.6197169 192 192 192 255 0.117789 0.76789
127.0125 404.2197 31.19531 0.1781891 -0.1882631 0.9658187 192 192 192 255 0.062867 0.945862
157.6194 405.9891 31.19531 -0.02362259 -0.115564 0.9930191 192 192 192 255 0.077426 0.945363
139.6574 388.9882 31.19531 0.5922397 -0.01681201 0.8055865 192 192 192 255 0.069739 0.938861
148.7828 390.7057 24.51201 0.4660571 -0.4242631 0.7763966 192 192 192 255 0.073858 0.939315
249.3443 401.671 16.65117 0.6007234 -0.6180446 0.5071018 192 192 192 255 0.119341 0.942674
260.751 400.4654 1.45724 0.2115059 -0.9331716 0.2906134 192 192 192 255 0.117483 0.767221
63.55037 0 23.62122 0.05537836 -0.9982162 0.02231029 192 192 192 255 0.117721 0.768062
57.07379 0 -31.19531 0.000663232 -0.0006887274 -0.9999996 192 192 192 255 0.117822 0.767999
63.0243 -0 0 0.001989577 -0.999998 -5.123701e-05 192 192 192 255 0.117761 0.768032
419.7072 0 -31.19531 -0.3189687 -0.5584621 -0.7657539 192 192 192 255 0.199582 0.753487
406.6392 0 2.284668 -0.1825266 -0.9806221 -0.07116417 192 192 192 255 0.193427 0.753487
95.62263 314.8455 -31.19531 0.04822443 -0.0002782322 -0.9988365 192 192 192 255 0.046938 0.901779
250.0001 450 -31.19531 -1.328613e-05 -5.155531e-05 -1 192 192 192 255 0.119649 0.715437
250.0001 450 31.19531 1.258576e-05 -4.719179e-05 1 192 192 192 255 0.119649 0.965437
410.6945 0 31.19531 -0.0007580187 -0.9999996 0.0004894416 192 192 192 255 0.117187 0.767564
250 421.4409 -16.65117 0.000359664 -0.00133406 -0.999999 192 192 192 255 0.119649 0.951985
269.7532 405.6368 -16.65117 0.1071817 -0.5914942 -0.7991538 192 192 192 255 0.128953 0.944542
125.0126 340.1705 -31.19531 0.4024051 -0.002234906 -0.915459 192 192 192 255 0.117768 0.767474
250 421.4409 16.65117 -0.07256492 -0.2720917 0.9595314 192 192 192 255 0.119649 0.951985
219.8651 397.3306 16.65117 0.1517875 -0.9741563 0.1672724 192 192 192 255 0.105456 0.940629
260.767 412.8265 16.65117 0.06320899 -0.9185737 0.3901629 192 192 192 255 0.124721 0.947928
269.7532 405.6368 -16.65117 0.1071817 -0.5914942 -0.7991538 192 192 192 255 0.117505 0.767172
298.0743 411.5367 -31.19531 -0.01895917 -0.7517509 -0.6591746 192 192 192 255 0.117481 0.767104
298.7096 411.0284 31.19531 -0.04475895 -0.991075 0.1255663 192 192 192 255 0.117364 0.767186
400.6852 326.5072 -31.19531 -0.5942978 -0.7645547 -0.2495321 192 192 192 255 0.190622 0.907272
333.8079 378.4398 -31.19531 -0.5941298 -0.7648333 -0.2490782 192 192 192 255 0.161776 0.931732
308.8946 413.1501 -31.19531 -0.1385285 -0.3468331 -0.9276404 192 192 192 255 0.147389 0.94808
60.47007 0 31.19531 0.2219379 -0.9706827 0.09229707 192 192 192 255 0.030381 0.753487
62.90136 14.38182 31.19531 0.9123586 -0.1508399 0.3805905 192 192 192 255 0.031526 0.76026
61.91091 46.25877 31.19531 0.9030318 -0.06443638 0.4247135 192 192 192 255 0.031059 0.775274
298.7096 411.0284 31.19531 -0.04475895 -0.991075 0.1255663 192 192 192 255 0.142592 0.947081
308.739 412.4977 31.19531 0.1367639 -0.975009 0.1750801 192 192 192 255 0.147316 0.947773
394.0792 136.3653 -31.19531 -0.246877 -0.03425028 -0.9684414 192 192 192 255 0.187511 0.817715
376.44 340.9651 31.19531 -0.7329475 -0.1221312 0.6692324 192 192 192 255 0.178519 0.91671
400.6698 326.4996 31.19531 -0.7566451 -0.2432307 0.6068996 192 192 192 255 0.190615 0.907268
374.9875 350 31.19531 -0.6456223 -0.6102104 0.4591461 192 192 192 255 0.117238 0.76716
260.767 412.8265 16.65117 0.06320899 -0.9185737 0.3901629 192 192 192 255 0.117401 0.767104
219.8651 397.3306 16.65117 0.1517875 -0.9741563 0.1672724 192 192 192 255 0.11752 0.767312
179.3968 393.5117 31.19531 0.0514005 -0.6785227 0.732779 192 192 192 255 0.117566 0.767399
219.6917 397.1919 -16.65117 0.1198636 -0.6144645 -0.7797859 192 192 192 255 0.11759 0.767262
181.3716 392.6174 -30.0979 0.4614386 -0.8646143 -0.1987878 192 192 192 255 0.117676 0.767313
181.3716 392.6174 -30.0979 0.4614386 -0.8646143 -0.1987878 192 192 192 255 0.087325 0.688409
219.6917 397.1919 -16.65117 0.1198636 -0.6144645 -0.7797859 192 192 192 255 0.105374 0.690564
125.0126 350 -31.19531 0.6190618 -0.6562527 -0.4313871 192 192 192 255 0.11777 0.76746
298.0743 411.5367 -31.19531 -0.01895917 -0.7517509 -0.6591746 192 192 192 255 0.142292 0.94732
403.1572 108.6234 31.19531 -0.6504465 -0.01983165 0.7592931 192 192 192 255 0.190458 0.804648
405.514 31.21746 31.19531 -0.9889821 -0.0301637 0.144929 192 192 192 255 0.192897 0.76819
395.4081 142.6775 31.19531 -0.0008099266 -2.023098e-05 0.9999997 192 192 192 255 0.188137 0.820688
94.26615 315.5894 31.19531 0.08709069 -0.1470765 0.9852836 192 192 192 255 0.046299 0.902129
125.0126 333.7702 31.19531 0.4467983 -0.3650468 0.8167693 192 192 192 255 0.06078 0.915791
345.9198 373.2565 31.19531 -0.5809066 -0.7258575 0.3683457 192 192 192 255 0.164828 0.929291
75.65828 95.35913 31.19531 0.9856849 -0.1666688 0.02543274 192 192 192 255 0.037526 0.798327
94.7224 208.1293 31.19531 0.985698 -0.1666033 0.0253509 192 192 192 255 0.046514 0.851516
63.37492 52.7318 -31.19531 0.111306 -0.001601323 -0.9937849 192 192 192 255 0.031749 0.778323
94.9896 200.332 -31.19531 0.9891258 -0.1206998 -0.08403351 192 192 192 255 0.046639 0.847843
86.54301 160.8972 -31.19531 0.673704 -0.2769211 -0.6851552 192 192 192 255 0.042661 0.829269
408.8734 258.0245 31.19531 -0.01087794 0.0003113706 0.9999408 192 192 192 255 0.117201 0.767249
399.7998 296.1043 31.19531 -0.9200169 -0.2184421 0.3253492 192 192 192 255 0.117199 0.767198
398.0666 235.5522 31.19531 -0.9806923 0.05752842 0.186904 192 192 192 255 0.189389 0.864432
403.2698 180.8969 -31.19531 -0.2154704 0.03078091 -0.9760252 192 192 192 255 0.117314 0.767282
410.8324 253.64 -31.19531 -0.6720062 -0.02003655 -0.7402744 192 192 192 255 0.195402 0.872951
399.7397 299.2928 -31.19531 -0.4980605 -0.1205792 -0.8587179 192 192 192 255 0.190177 0.894454
64.11244 106.3932 -31.19531 0.1044117 -0.02236409 -0.9942827 192 192 192 255 0.117813 0.767851
179.3968 393.5117 31.19531 0.0514005 -0.6785227 0.732779 192 192 192 255 0.087927 0.939457
182.356 387.6408 -6.053345 0.6042589 -0.7824959 0.1502383 192 192 192 255 0.091351 0.937017
249.3443 401.671 16.65117 0.6007234 -0.6180446 0.5071018 192 192 192 255 0.117471 0.767258
3 0 1 2 
3 0 2 3 
3 6 0 3 
3 4 5 72 
3 73 25 24 
3 73 24 74 
3 74 24 4 
3 74 4 72 
3 9 65 63 
3 9 63 7 
3 8 9 7 
3 10 11 7 
3 11 12 8 
3 11 8 7 
3 1 0 13 
3 1 13 20 
3 15 14 17 
3 75 16 76 
3 77 20 19 
3 77 19 18 
3 21 22 15 
3 23 14 15 
3 19 20 27 
3 19 27 54 
3 31 30 42 
3 31 42 46 
3 32 28 78 
3 32 78 47 
3 30 34 51 
3 30 51 42 
3 62 33 55 
3 62 55 58 
3 36 27 20 
3 37 38 49 
3 37 49 52 
3 41 13 79 
3 76 16 43 
3 80 21 15 
3 80 15 17 
3 75 44 16 
3 22 45 23 
3 22 23 15 
3 81 82 29 
3 11 10 83 
3 11 83 53 
3 84 85 70 
3 84 70 86 
3 48 49 38 
3 48 38 50 
3 39 49 33 
3 39 33 35 
3 68 69 66 
3 38 87 88 
3 38 88 50 
3 38 37 89 
3 90 91 92 
3 90 92 36 
3 0 93 94 
3 0 94 95 
3 79 96 97 
3 79 97 41 
3 98 44 75 
3 41 40 99 
3 41 99 100 
3 101 52 49 
3 101 49 39 
3 38 102 71 
3 38 71 87 
3 53 103 104 
3 105 53 106 
3 107 78 28 
3 107 28 108 
3 53 109 106 
3 53 83 109 
3 11 26 12 
3 27 36 92 
3 27 92 110 
3 49 48 33 
3 56 44 98 
3 16 111 112 
3 16 112 43 
3 41 100 60 
3 41 60 61 
3 16 113 111 
3 6 93 0 
3 13 114 115 
3 13 66 67 
3 13 67 79 
3 44 36 41 
3 44 41 16 
3 36 20 13 
3 36 13 41 
3 41 97 116 
3 41 116 40 
3 0 95 117 
3 0 117 13 
3 13 117 118 
3 13 118 114 
3 1 119 2 
3 1 20 77 
3 64 77 120 
3 64 120 121 
3 57 58 55 
3 122 62 59 
3 123 62 122 
3 59 58 23 
3 59 23 45 
3 35 33 62 
3 35 62 123 
3 62 58 59 
3 16 61 124 
3 16 124 113 
3 41 61 16 
3 23 58 125 
3 125 58 57 
3 36 126 127 
3 36 127 90 
3 36 44 56 
3 36 56 126 
3 63 65 128 
3 9 24 25 
3 9 25 65 
3 128 65 25 
3 1 64 119 
3 1 77 64 
3 115 68 66 
3 115 66 13 
3 79 67 129 
3 11 53 26 
3 67 69 129 
3 115 130 69 
3 129 69 130 
3 66 69 67 
3 71 131 103 
3 71 103 53 
3 87 71 53 
3 87 53 105 
3 38 89 102 
3 71 102 131 
3 115 69 68 
