ply
format ascii 1.0
comment VCGLIB generated
comment TextureFile Dungeons_2_Texture_01_A.png
element vertex 177
property float x
property float y
property float z
property float nx
property float ny
property float nz
property uchar red
property uchar green
property uchar blue
property uchar alpha
property float texture_u
property float texture_v
element face 200
property list uchar int vertex_indices
end_header
-18.80051 15.55105 -8.644012 -0.002712185 0.005446653 -0.9999815 192 192 192 255 0.117649 0.601923
-18.80051 15.49769 8.725464 0.00113357 0.002317028 0.9999967 192 192 192 255 0.117649 0.601887
-11.77945 26.00002 8.725464 -0.004356377 0.003709254 0.9999837 192 192 192 255 0.122429 0.609033
-11.77945 26.00014 -8.644012 -0.004608739 0.001836459 -0.9999877 192 192 192 255 0.122429 0.609033
0.208984 75.21707 -8.644012 0.1271703 -0.004051176 -0.9918727 192 192 192 255 0.185348 0.874851
0 1.5e-05 8.725494 0.001937363 -0.000969964 0.9999977 192 192 192 255 0.185332 0.821139
0 0 -8.644012 0.001623788 -0.003249652 -0.9999934 192 192 192 255 0.185168 0.821139
-11.77945 56.57032 -8.644012 -0.003782372 -0.003341896 -0.9999873 192 192 192 255 0.122429 0.629844
-11.77945 55.85752 8.725403 -0.00748699 -0.003461992 0.999966 192 192 192 255 0.122429 0.629358
-0.017761 75.33035 8.725372 0.1204467 -0.004007051 0.9927117 192 192 192 255 0.185186 0.874932
-0.012207 75.34485 -13.74911 0.9968302 -0.01717235 -0.07768348 192 192 192 255 0.18519 0.874942
-0.010529 86.80939 -13.74911 0.997684 0.0335322 -0.05917966 192 192 192 255 0.185192 0.883129
-18.80051 66.92799 8.725372 0.001821098 -0.003748077 0.9999914 192 192 192 255 0.117649 0.636898
-18.80051 67.25018 -8.644012 -0.003260854 -0.006292656 -0.9999749 192 192 192 255 0.117649 0.637117
-0.012207 86.80939 13.74911 0.9993293 0.0172217 0.03231669 192 192 192 255 0.18519 0.883129
-0.010529 75.34485 13.74911 0.9997244 -0.01721147 0.01596836 192 192 192 255 0.185192 0.874942
-25.8215 56.67851 8.725403 0.01002315 -0.008844436 0.9999107 192 192 192 255 0.11287 0.629924
-25.8215 56.94465 -8.644012 0.8271013 -0.37625 -0.4175397 192 192 192 255 0.11287 0.630105
-38.32932 56.36228 8.725403 -0.8336637 -0.3634481 0.415825 192 192 192 255 0.104355 0.629709
-41.29108 60.52855 8.725389 -0.7585055 0.6052087 0.2416441 192 192 192 255 0.102339 0.632545
-43.38504 64.44697 -8.644012 -0.9298195 0.2276456 0.2891594 192 192 192 255 0.157027 0.869133
-38.32932 56.22248 -8.644012 -0.4050384 -0.3706201 -0.8358138 192 192 192 255 0.159825 0.862832
-25.8215 25.52688 -8.644012 0.5202699 0.423093 -0.7418299 192 192 192 255 0.11287 0.608718
-25.8215 26.17865 8.725464 0.7959141 0.3268332 0.5096084 192 192 192 255 0.11287 0.609161
-38.32932 25.78331 -8.644012 -0.7996162 0.2921679 -0.5246445 192 192 192 255 0.104355 0.608892
-38.32932 26.32997 8.725464 -0.540713 0.4477151 0.7121662 192 192 192 255 0.104355 0.609264
-52.37143 25.97952 -8.644012 0.5349309 0.4579162 -0.7100435 192 192 192 255 0.094796 0.609026
-52.37143 26.07157 8.725464 0.7994456 0.3185208 0.5093439 192 192 192 255 0.094796 0.609088
-64.87918 25.89361 8.725464 -0.526505 0.4535586 0.7190807 192 192 192 255 0.086282 0.608967
-64.87918 26.50064 -8.644012 -0.7982414 0.3341877 -0.501128 192 192 192 255 0.086282 0.609381
-45.35037 14.95536 -8.644012 -0.1161681 0.2224945 -0.9679882 192 192 192 255 0.099576 0.601521
-45.35037 15.16467 8.725464 0.001990748 0.003826197 0.9999907 192 192 192 255 0.099576 0.601664
-78.9213 26.56753 8.725464 0.7964384 0.309736 0.5193742 192 192 192 255 0.076722 0.609426
-78.9213 26.42895 -8.644012 0.6015477 0.5376164 -0.5908544 192 192 192 255 0.076722 0.609332
-91.42911 25.8244 8.725464 -0.8460812 0.5319352 0.03451844 192 192 192 255 0.068208 0.60892
-86.41733 26.10931 -8.644012 -0.3719887 0.3781426 -0.847722 192 192 192 255 0.123447 0.839357
-71.90024 16.15835 -8.644012 -0.006088468 0.01249029 -0.9999035 192 192 192 255 0.081502 0.60234
-71.90024 15.6461 8.725464 0.156765 0.3108696 0.9374353 192 192 192 255 0.081502 0.601991
-98.4501 15.29119 -8.644012 -0.2766787 0.1756777 -0.9447678 192 192 192 255 0.063428 0.60175
-98.4501 14.66772 8.725464 -0.4185589 0.26805 0.8677313 192 192 192 255 0.063428 0.601325
-0.013306 56.43683 8.725403 0.01349898 -0.005482031 0.9998939 192 192 192 255 0.18519 0.86144
0.156799 56.43634 -8.644012 0.01334574 -0.002405488 -0.9999081 192 192 192 255 0.185311 0.861439
0.072266 26.00531 -8.644012 0.009667781 0.003658704 -0.9999466 192 192 192 255 0.185251 0.839709
-0.006134 26.00531 8.725464 0.009749701 0.001876578 0.9999507 192 192 192 255 0.185195 0.839709
-11.77917 53.16571 -6.595201 -0.8100617 -0.1093329 -0.5760611 192 192 192 255 0.122429 0.627526
-11.7753 28.92023 -6.595201 -0.5712867 0.3248067 -0.7537454 192 192 192 255 0.122432 0.611021
-11.77527 28.73869 6.676653 -0.8125992 0.1183864 0.5706726 192 192 192 255 0.122432 0.610897
-11.77911 53.56969 6.676606 -0.5690011 -0.3526774 0.7428704 192 192 192 255 0.122429 0.627801
0.155182 53.43634 -6.595179 0.7237037 -0.2602342 -0.6391644 192 192 192 255 0.130553 0.62771
0.078339 29.00531 -6.595201 0.7236805 0.1361053 -0.676581 192 192 192 255 0.130501 0.611079
-3.1e-05 29.00531 6.676653 0.7182411 0.2784081 0.6376666 192 192 192 255 0.185199 0.841851
-0.014862 53.43683 6.67663 0.7217273 -0.1473457 0.6763129 192 192 192 255 0.185188 0.859298
-25.8215 29.62138 -6.595201 0.9000476 0.1141801 -0.4205678 192 192 192 255 0.11287 0.611505
-25.8215 53.6953 -6.595201 0.01469322 -0.007799749 -0.9998617 192 192 192 255 0.11287 0.627893
-25.8215 52.8792 6.676606 0.9008095 -0.1171438 0.4181144 192 192 192 255 0.11287 0.627338
-25.8215 29.55666 6.676653 0.4581838 0.2760916 0.8448911 192 192 192 255 0.11287 0.611461
-38.32932 53.17484 -6.595201 -0.2260915 -0.05038863 -0.9728019 192 192 192 255 0.104355 0.627539
-38.32932 28.67869 -6.595201 -0.9859305 0.04658719 -0.1605325 192 192 192 255 0.104355 0.610863
-38.32932 28.55143 6.676653 -0.9999239 0.003832775 0.011729 192 192 192 255 0.104355 0.610777
-38.32932 53.42303 6.676606 -0.4625466 -0.2391883 0.853721 192 192 192 255 0.104355 0.627708
-52.37143 28.95683 -6.595201 0.7725586 0.003662547 -0.634933 192 192 192 255 0.094796 0.611053
-52.37143 48.76088 -6.595201 0.6944466 0.1825262 -0.6960087 192 192 192 255 0.094796 0.624534
-52.37143 52.07669 6.676606 -0.1405436 0.2709754 0.9522709 192 192 192 255 0.094796 0.626791
-52.37143 28.9464 6.676653 0.01395303 0.00831025 0.9998682 192 192 192 255 0.094796 0.611046
-64.87918 28.64504 6.676653 -0.999911 0.004130662 0.01268839 192 192 192 255 0.086282 0.61084
-64.87918 39.23069 6.676606 -0.9788836 0.1106798 0.1718632 192 192 192 255 0.086282 0.618047
-64.87918 43.31043 -6.595201 -0.6202221 0.7837412 -0.03277682 192 192 192 255 0.086282 0.620824
-64.87918 28.75664 -6.595201 -0.9998021 0.008591755 -0.01794148 192 192 192 255 0.086282 0.610916
-78.9213 29.12584 6.676653 0.900533 0.2094097 0.3810353 192 192 192 255 0.076722 0.611168
-78.9213 29.07845 -6.595201 0.7211298 0.1491106 -0.6765633 192 192 192 255 0.076722 0.611135
-91.42911 29.53953 6.676653 -0.9190381 0.3709553 0.1332717 192 192 192 255 0.068208 0.611449
-91.42911 28.48874 -6.595201 -0.9794012 0.003186464 -0.2018989 192 192 192 255 0.068208 0.610734
-35.82419 42.39719 -6.595201 -0.3771014 0 -0.926172 192 192 192 255 0.106061 0.620202
-38.32932 39.95043 -3.296267 -0.9667055 0 -0.2558917 192 192 192 255 0.104355 0.618536
-95.15042 20.27494 -8.644012 -0.09240657 0.1296053 -0.9872505 192 192 192 255 0.065674 0.605142
-91.42911 25.8864 -6.399147 -0.4210209 0.389432 -0.8191972 192 192 192 255 0.068208 0.608962
-29.95273 86.80939 13.74911 -0.7239993 0.1889687 0.6634122 192 192 192 255 0.247858 0.801527
-32.45822 75.34485 13.74911 -0.717133 0.1318218 0.6843562 192 192 192 255 0.247046 0.79238
-36.45853 86.80939 -13.74911 -0.9207545 0.2995358 -0.2499792 192 192 192 255 0.27238 0.801527
-37.08057 75.33035 8.725372 -0.9211893 0.07672611 0.3814754 192 192 192 255 0.252338 0.79129
-39.95953 75.34485 -13.74911 -0.9355088 0.2537249 -0.2458595 192 192 192 255 0.271992 0.79215
-41.24863 75.21707 -8.644012 -0.969615 0.215146 0.1164434 192 192 192 255 0.159562 0.876553
-36.12994 66.90945 8.725372 -0.6672618 0.1898105 0.7202317 192 192 192 255 0.161017 0.868288
-91.42911 33.60586 -6.595201 -0.9209587 0.3769675 0.09864396 192 192 192 255 0.068208 0.614217
-87.66629 33.77095 6.676642 -0.5859007 0.7771373 0.2297348 192 192 192 255 0.070769 0.61433
-78.9213 36.56841 -6.595201 0.5572806 0.7421965 -0.372267 192 192 192 255 0.076722 0.616234
-80.31998 35.51097 6.676639 0.4224033 0.7952264 0.4349603 192 192 192 255 0.07577 0.615514
-78.9213 37.07633 2.038298 0.4343388 0.8099511 0.394118 192 192 192 255 0.076722 0.61658
-103.7754 23.66119 8.725464 0.002268524 0.007841697 0.9999667 192 192 192 255 0.111061 0.837543
-103.8505 23.27445 -8.644012 0.005217736 0.01803635 -0.9998237 192 192 192 255 0.059752 0.607184
-119.1009 15.16763 8.725464 -0.5517799 0.3292552 0.7662441 192 192 192 255 0.100149 0.831419
-119.5429 16.97707 -8.644012 -0.5335097 0.3439493 -0.7727007 192 192 192 255 0.099827 0.832709
-127.4315 1.5e-05 8.725494 -0.8829675 0.4222858 0.2050442 192 192 192 255 0.256406 0.753986
-129.7575 0 -8.644012 -0.4309661 0.2081703 -0.8780281 192 192 192 255 0.092598 0.820547
-123.3241 5.15892 8.725485 -0.4683846 0.2572562 0.8452426 192 192 192 255 0.097172 0.824256
-128.0564 3.120271 -1.050945 -0.8594915 0.4958664 0.1240604 192 192 192 255 0.255801 0.763449
-52.37143 53.22308 -0.231449 0.8033312 0.5815859 -0.1281283 192 192 192 255 0.094796 0.627572
-57.62711 48.95279 -6.595201 -0.3246838 0.6119061 -0.7212152 192 192 192 255 0.091218 0.624665
-64.87918 43.46735 3.751208 -0.6687312 0.7160459 0.2001922 192 192 192 255 0.086282 0.620931
-58.34085 48.69108 6.676606 -0.2729969 0.323292 0.9060657 192 192 192 255 0.090732 0.624487
-11.77945 55.85752 8.725403 -0.00748699 -0.003461992 0.999966 192 192 192 255 0.176787 0.861026
-18.80051 66.92799 8.725372 0.001821098 -0.003748077 0.9999914 192 192 192 255 0.172585 0.869028
-11.77945 56.57032 -8.644012 -0.003782372 -0.003341896 -0.9999873 192 192 192 255 0.176787 0.861535
-18.80051 67.25018 -8.644012 -0.003260854 -0.006292656 -0.9999749 192 192 192 255 0.173231 0.868972
-25.8215 56.94465 -8.644012 0.8271013 -0.37625 -0.4175397 192 192 192 255 0.168746 0.862156
-11.77945 26.00002 8.725464 -0.004356377 0.003709254 0.9999837 192 192 192 255 0.176787 0.839705
-18.80051 15.49769 8.725464 0.00113357 0.002317028 0.9999967 192 192 192 255 0.171773 0.832121
-25.8215 26.17865 8.725464 0.7959141 0.3268332 0.5096084 192 192 192 255 0.166717 0.839638
-38.32932 26.32997 8.725464 -0.540713 0.4477151 0.7121662 192 192 192 255 0.157785 0.839698
-45.35037 15.16467 8.725464 0.001990748 0.003826197 0.9999907 192 192 192 255 0.152814 0.831698
-52.37143 26.07157 8.725464 0.7994456 0.3185208 0.5093439 192 192 192 255 0.147759 0.83946
-64.87918 25.89361 8.725464 -0.526505 0.4535586 0.7190807 192 192 192 255 0.138828 0.839285
-71.90024 15.6461 8.725464 0.156765 0.3108696 0.9374353 192 192 192 255 0.133853 0.831941
-98.4501 14.66772 8.725464 -0.4185589 0.26805 0.8677313 192 192 192 255 0.114898 0.831141
-78.9213 26.56753 8.725464 0.7964384 0.309736 0.5193742 192 192 192 255 0.128798 0.839713
-91.42911 25.8244 8.725464 -0.8460812 0.5319352 0.03451844 192 192 192 255 0.119869 0.839135
-98.4501 15.29119 -8.644012 -0.2766787 0.1756777 -0.9447678 192 192 192 255 0.114895 0.831586
-11.77945 26.00014 -8.644012 -0.004608739 0.001836459 -0.9999877 192 192 192 255 0.176787 0.839705
-18.80051 15.55105 -8.644012 -0.002712185 0.005446653 -0.9999815 192 192 192 255 0.171771 0.83216
-95.15042 20.27494 -8.644012 -0.09240657 0.1296053 -0.9872505 192 192 192 255 0.117233 0.835158
-71.90024 16.15835 -8.644012 -0.006088468 0.01249029 -0.9999035 192 192 192 255 0.133851 0.832307
-78.9213 26.42895 -8.644012 0.6015477 0.5376164 -0.5908544 192 192 192 255 0.128798 0.839614
-64.87918 26.50064 -8.644012 -0.7982414 0.3341877 -0.501128 192 192 192 255 0.138825 0.839719
-52.37143 25.97952 -8.644012 0.5349309 0.4579162 -0.7100435 192 192 192 255 0.147759 0.839394
-45.35037 14.95536 -8.644012 -0.1161681 0.2224945 -0.9679882 192 192 192 255 0.152815 0.831549
-38.32932 25.78331 -8.644012 -0.7996162 0.2921679 -0.5246445 192 192 192 255 0.157787 0.839308
-25.8215 25.52688 -8.644012 0.5202699 0.423093 -0.7418299 192 192 192 255 0.16672 0.839172
0.078339 29.00531 -6.595201 0.7236805 0.1361053 -0.676581 192 192 192 255 0.185255 0.841851
0.155182 53.43634 -6.595179 0.7237037 -0.2602342 -0.6391644 192 192 192 255 0.18531 0.859297
-3.1e-05 29.00531 6.676653 0.7182411 0.2784081 0.6376666 192 192 192 255 0.130448 0.611079
-0.014862 53.43683 6.67663 0.7217273 -0.1473457 0.6763129 192 192 192 255 0.130438 0.627711
0.156799 56.43634 -8.644012 0.01334574 -0.002405488 -0.9999081 192 192 192 255 0.130555 0.629752
0.072266 26.00531 -8.644012 0.009667781 0.003658704 -0.9999466 192 192 192 255 0.130497 0.609037
-0.006134 26.00531 8.725464 0.009749701 0.001876578 0.9999507 192 192 192 255 0.130444 0.609037
-0.013306 56.43683 8.725403 0.01349898 -0.005482031 0.9998939 192 192 192 255 0.130439 0.629753
-38.32932 56.22248 -8.644012 -0.4050384 -0.3706201 -0.8358138 192 192 192 255 0.104355 0.629614
-86.41733 26.10931 -8.644012 -0.3719887 0.3781426 -0.847722 192 192 192 255 0.07162 0.609114
-43.38504 64.44697 -8.644012 -0.9298195 0.2276456 0.2891594 192 192 192 255 0.100914 0.635212
-25.8215 56.67851 8.725403 0.01002315 -0.008844436 0.9999107 192 192 192 255 0.168848 0.861487
-41.29108 60.52855 8.725389 -0.7585055 0.6052087 0.2416441 192 192 192 255 0.157643 0.863496
-38.32932 56.36228 8.725403 -0.8336637 -0.3634481 0.415825 192 192 192 255 0.159951 0.860668
-103.7754 23.66119 8.725464 0.002268524 0.007841697 0.9999667 192 192 192 255 0.059803 0.607448
-103.8505 23.27445 -8.644012 0.005217736 0.01803635 -0.9998237 192 192 192 255 0.111009 0.837266
-41.24863 75.21707 -8.644012 -0.969615 0.215146 0.1164434 192 192 192 255 0.267827 0.791189
-64.87918 43.46735 3.751208 -0.6687312 0.7160459 0.2001922 192 192 192 255 0.316954 0.7588
-57.62711 48.95279 -6.595201 -0.3246838 0.6119061 -0.7212152 192 192 192 255 0.323974 0.768815
-64.87918 43.31043 -6.595201 -0.6202221 0.7837412 -0.03277682 192 192 192 255 0.316954 0.768815
-87.66629 33.77095 6.676642 -0.5859007 0.7771373 0.2297348 192 192 192 255 0.294897 0.755969
-80.31998 35.51097 6.676639 0.4224033 0.7952264 0.4349603 192 192 192 255 0.302008 0.755969
-78.9213 37.07633 2.038298 0.4343388 0.8099511 0.394118 192 192 192 255 0.303362 0.760458
-103.8505 23.27445 -8.644012 0.005217736 0.01803635 -0.9998237 192 192 192 255 0.279231 0.770798
-119.5429 16.97707 -8.644012 -0.5335097 0.3439493 -0.7727007 192 192 192 255 0.264041 0.770798
-119.1009 15.16763 8.725464 -0.5517799 0.3292552 0.7662441 192 192 192 255 0.264469 0.753985
-103.7754 23.66119 8.725464 0.002268524 0.007841697 0.9999667 192 192 192 255 0.279304 0.753985
-91.42911 33.60586 -6.595201 -0.9209587 0.3769675 0.09864396 192 192 192 255 0.291255 0.768815
-91.42911 29.53953 6.676653 -0.9190381 0.3709553 0.1332717 192 192 192 255 0.291255 0.755969
-78.9213 36.56841 -6.595201 0.5572806 0.7421965 -0.372267 192 192 192 255 0.303362 0.768815
-129.7575 0 -8.644012 -0.4309661 0.2081703 -0.8780281 192 192 192 255 0.254154 0.770798
-123.3241 5.15892 8.725485 -0.4683846 0.2572562 0.8452426 192 192 192 255 0.260381 0.753985
-43.38504 64.44697 -8.644012 -0.9298195 0.2276456 0.2891594 192 192 192 255 0.267827 0.781585
-41.29108 60.52855 8.725389 -0.7585055 0.6052087 0.2416441 192 192 192 255 0.251781 0.779348
-36.12994 66.90945 8.725372 -0.6672618 0.1898105 0.7202317 192 192 192 255 0.252338 0.783781
-52.37143 53.22308 -0.231449 0.8033312 0.5815859 -0.1281283 192 192 192 255 0.329061 0.762655
-52.37143 48.76088 -6.595201 0.6944466 0.1825262 -0.6960087 192 192 192 255 0.327104 0.768956
-58.34085 48.69108 6.676606 -0.2729969 0.323292 0.9060657 192 192 192 255 0.323283 0.755969
-64.87918 39.23069 6.676606 -0.9788836 0.1106798 0.1718632 192 192 192 255 0.314925 0.755965
-52.37143 52.07669 6.676606 -0.1405436 0.2709754 0.9522709 192 192 192 255 0.328323 0.756141
-127.4315 1.5e-05 8.725494 -0.8829675 0.4222858 0.2050442 192 192 192 255 0.094259 0.820556
-39.95953 75.34485 -13.74911 -0.9355088 0.2537249 -0.2458595 192 192 192 255 0.160487 0.876521
-36.45853 86.80939 -13.74911 -0.9207545 0.2995358 -0.2499792 192 192 192 255 0.164053 0.884303
-0.010529 86.80939 -13.74911 0.997684 0.0335322 -0.05917966 192 192 192 255 0.229961 0.793197
-36.45853 86.80939 -13.74911 -0.9207545 0.2995358 -0.2499792 192 192 192 255 0.201208 0.795657
-29.95273 86.80939 13.74911 -0.7239993 0.1889687 0.6634122 192 192 192 255 0.202834 0.770608
-0.012207 86.80939 13.74911 0.9993293 0.0172217 0.03231669 192 192 192 255 0.229959 0.76877
-29.95273 86.80939 13.74911 -0.7239993 0.1889687 0.6634122 192 192 192 255 0.164474 0.88276
-32.45822 75.34485 13.74911 -0.717133 0.1318218 0.6843562 192 192 192 255 0.163233 0.874473
-37.08057 75.33035 8.725372 -0.9211893 0.07672611 0.3814754 192 192 192 255 0.15994 0.874243
3 0 1 2 
3 0 2 3 
3 40 41 4 
3 40 4 9 
3 44 45 46 
3 44 46 47 
3 4 10 11 
3 4 11 14 
3 4 14 9 
3 8 12 13 
3 8 13 7 
3 9 14 15 
3 12 16 17 
3 12 17 13 
3 52 53 54 
3 52 54 55 
3 56 73 58 
3 56 58 59 
3 22 23 1 
3 22 1 0 
3 62 63 60 
3 62 60 96 
3 60 61 96 
3 25 24 30 
3 25 30 31 
3 64 65 67 
3 98 66 67 
3 98 67 65 
3 26 27 31 
3 26 31 30 
3 28 29 36 
3 28 36 37 
3 70 83 71 
3 33 32 37 
3 33 37 36 
3 39 34 38 
3 74 38 34 
3 74 34 75 
3 100 40 9 
3 100 9 101 
3 62 99 63 
3 63 99 65 
3 63 65 64 
3 59 58 55 
3 59 55 54 
3 102 103 4 
3 4 103 20 
3 4 20 81 
3 53 72 56 
3 60 67 66 
3 60 66 97 
3 61 60 97 
3 103 104 21 
3 103 21 20 
3 105 106 5 
3 106 107 108 
3 106 108 109 
3 109 110 111 
3 109 111 112 
3 112 113 94 
3 112 94 109 
3 112 114 115 
3 112 115 113 
3 113 88 90 
3 102 4 41 
3 116 93 91 
3 117 6 118 
3 116 119 120 
3 120 119 35 
3 120 35 121 
3 120 122 123 
3 120 123 124 
3 124 125 126 
3 124 126 118 
3 124 118 6 
3 124 6 93 
3 5 43 105 
3 5 6 42 
3 5 42 43 
3 117 42 6 
3 44 48 49 
3 44 49 45 
3 50 127 128 
3 50 128 51 
3 46 129 130 
3 46 130 47 
3 3 2 46 
3 3 46 45 
3 8 7 44 
3 8 44 47 
3 7 131 48 
3 7 48 44 
3 132 3 45 
3 132 45 49 
3 43 42 127 
3 43 127 50 
3 41 40 51 
3 41 51 128 
3 2 133 129 
3 2 129 46 
3 134 8 47 
3 134 47 130 
3 17 16 54 
3 17 54 53 
3 23 22 52 
3 23 52 55 
3 24 25 58 
3 24 58 57 
3 18 135 56 
3 18 56 59 
3 25 23 55 
3 25 55 58 
3 16 18 59 
3 16 59 54 
3 22 24 57 
3 22 57 52 
3 135 17 53 
3 135 53 56 
3 27 26 60 
3 27 60 63 
3 29 28 64 
3 29 64 67 
3 28 27 63 
3 28 63 64 
3 26 29 67 
3 26 67 60 
3 32 33 69 
3 32 69 68 
3 71 75 34 
3 71 34 70 
3 34 32 68 
3 34 68 70 
3 33 136 71 
3 33 71 69 
3 56 72 73 
3 53 52 57 
3 53 57 72 
3 73 72 57 
3 58 73 57 
3 136 75 71 
3 74 75 136 
3 18 19 137 
3 18 137 135 
3 101 82 138 
3 138 82 139 
3 138 139 140 
3 83 85 69 
3 83 69 71 
3 86 84 70 
3 86 70 68 
3 87 86 68 
3 85 87 68 
3 85 68 69 
3 89 141 39 
3 89 39 38 
3 91 142 116 
3 90 94 113 
3 116 120 124 
3 116 124 93 
3 143 78 80 
3 144 145 146 
3 147 148 149 
3 150 151 152 
3 150 152 153 
3 147 154 155 
3 147 149 156 
3 147 156 154 
3 95 152 151 
3 92 95 157 
3 158 95 92 
3 157 95 151 
3 159 160 161 
3 76 79 77 
3 143 79 76 
3 143 76 78 
3 159 161 79 
3 159 79 143 
3 145 162 163 
3 164 144 165 
3 166 162 164 
3 164 162 145 
3 164 145 144 
3 158 152 95 
3 6 5 167 
3 6 167 93 
3 4 81 168 
3 4 168 10 
3 10 168 169 
3 10 169 11 
3 170 171 172 
3 170 172 173 
3 14 174 175 
3 14 175 15 
3 175 176 9 
3 175 9 15 
3 9 176 82 
3 9 82 101 
3 94 167 5 
3 94 5 109 
3 106 109 5 
