ply
format ascii 1.0
comment VCGLIB generated
comment TextureFile Dungeons_2_Texture_01_A.png
element vertex 399
property float x
property float y
property float z
property float nx
property float ny
property float nz
property uchar red
property uchar green
property uchar blue
property uchar alpha
property float texture_u
property float texture_v
element face 600
property list uchar int vertex_indices
end_header
25.00977 -3.083966 478.4121 -0.0277007 0.9996161 -0.0006282619 192 192 192 255 0.050176 0.54992
485.3213 -3.0856 481.582 -0.3116305 0.9436859 -0.1111 192 192 192 255 0.227028 0.5487
3.822266 -4.105942 30.88867 -0.1495281 0.9754565 0.1616351 192 192 192 255 0.042036 0.722143
201.6904 -3.085272 473.8135 0.006887029 0.995689 0.09249828 192 192 192 255 0.118057 0.55169
491.2852 -0.120114 192.9355 -0.2395519 0.9708833 0.0007838236 192 192 192 255 0.229319 0.659782
395.9658 -1.526467 395.6494 0.01789726 0.9996696 0.01845143 192 192 192 255 0.185779 0.80879
67.4043 -1.522304 270.7207 -0.07379662 0.9920877 0.1015677 192 192 192 255 0.036098 0.865703
40.46973 -3.085507 101.5439 -0.01847695 0.999701 -0.01601928 192 192 192 255 0.056116 0.694953
499.0312 0.045748 1.655273 0.6045022 0.7896908 0.104717 192 192 192 255 0.232295 0.733393
311.208 -1.013351 2.556641 0.1182678 0.7448467 -0.6566706 192 192 192 255 0.160133 0.733047
355.8516 0.665683 139.6572 -0.02449494 0.9991708 -0.03252267 192 192 192 255 0.167505 0.925411
14.18164 -3.100749 206.3574 0.1252352 0.9913452 0.03938029 192 192 192 255 0.046016 0.654617
0 -18.09037 69.93359 -0.9993428 -0.03616176 0.002521748 192 192 192 255 0.040567 0.707117
499.9268 -0.117499 280.6602 0.718595 0.6938444 0.04691677 192 192 192 255 0.232639 0.626022
434.3232 -1.737434 249.3682 0.1390506 0.9902853 -0.0001315128 192 192 192 255 0.207434 0.638065
452.0459 -3.087036 124.5107 -0.07184032 0.9972432 -0.01857775 192 192 192 255 0.214243 0.686114
499.8398 -0.101761 0.175781 0.7243055 0.5319276 -0.4386737 192 192 192 255 0.232606 0.733963
0.105469 -2.083163 90.65918 -0.7924012 0.6096916 -0.01940722 192 192 192 255 0.040608 0.699142
120.1719 -2.54371 113.0508 -0.009531089 0.9583744 0.2853551 192 192 192 255 0.086737 0.690524
388.1709 -3.632494 443.542 -0.00330549 0.9963035 0.0858398 192 192 192 255 0.189703 0.56334
26.87402 -8.86779 500.002 -0.1731132 0.3470579 0.9217281 192 192 192 255 0.050892 0.541612
182.5684 -3.274981 382.9814 0.05935694 0.9980431 -0.01966806 192 192 192 255 0.11071 0.586645
67.4668 -1.52532 433.1602 -0.04235823 0.9981529 0.04355165 192 192 192 255 0.036127 0.791702
208.166 -12.93999 499.9414 0.03451752 0.4581091 0.8882256 192 192 192 255 0.120545 0.541635
18.09961 -0.519653 9.65332 -0.1220553 0.9836075 -0.1327357 192 192 192 255 0.013637 0.984635
499.999 -19.26149 293.2998 0.9995339 0.02911828 0.009171329 192 192 192 255 0.232667 0.621158
350.2725 -1.659954 427.415 -0.02766066 0.996989 0.07244195 192 192 192 255 0.164963 0.794319
81.82031 -1.526486 271.2256 -0.02472085 0.999236 0.03027097 192 192 192 255 0.042665 0.865473
496.3389 -4.354928 361.0537 -0.009813536 0.9926032 0.1210069 192 192 192 255 0.231261 0.595084
499.8096 -1.192075 343.1426 0.6408409 0.7667633 0.03737546 192 192 192 255 0.232594 0.601977
443.6133 -3.139835 141.3438 0.04166414 0.9984487 -0.03693789 192 192 192 255 0.211004 0.679636
382.0322 0.549107 117.793 0.06538434 0.9946448 -0.08004169 192 192 192 255 0.179432 0.935371
295.5264 -9.968269 0.004883 0.02539781 0.03898143 -0.9989172 192 192 192 255 0.154109 0.734029
0.370117 -11.38112 265.5742 -0.9427585 0.3318186 -0.03321027 192 192 192 255 0.04071 0.631828
349.5742 -3.621034 444.0332 -0.01644186 0.9997829 0.01279766 192 192 192 255 0.174874 0.563151
0.018555 -3.481807 19.33984 -0.7516528 0.6548588 -0.07860052 192 192 192 255 0.040575 0.726588
185.4385 -2.804868 76.26172 0.039812 0.9982721 -0.04321964 192 192 192 255 0.111813 0.704682
313.0254 0.65808 323.2217 0.07179376 0.9973134 -0.01454691 192 192 192 255 0.147994 0.841785
326.9814 -0.870087 285.3809 -0.01319476 0.9983717 0.0554966 192 192 192 255 0.154352 0.859024
3.205078 -1.435969 85.70996 -0.121187 0.9641894 -0.2359082 192 192 192 255 0.041799 0.701046
232.3105 -12.24489 498.2178 -0.03688885 0.3720147 0.9274936 192 192 192 255 0.129821 0.542298
318.6055 0.66605 161.1475 -0.04552676 0.9959077 -0.07807233 192 192 192 255 0.150537 0.91562
98.8457 -1.552722 317.3105 -0.05953101 0.9982258 0.001169076 192 192 192 255 0.050422 0.844478
216.7842 -2.180556 390.2314 -0.03988927 0.9973376 -0.06104686 192 192 192 255 0.123856 0.583855
322.0596 0.655775 360.5371 0.01929593 0.9995129 -0.02452753 192 192 192 255 0.15211 0.824786
5.571289 -22.9005 4.185547 -0.01084639 -0.9998236 -0.01533083 192 192 192 255 0.042708 0.73242
499.8633 -0.141114 458.9561 0.703282 0.7108751 -0.007149013 192 192 192 255 0.232615 0.557408
333.2305 -1.538429 105.1953 -0.0202639 0.9997662 0.00755252 192 192 192 255 0.157199 0.94111
377.0439 -3.094695 56.64746 0.02149316 0.9991553 -0.03502421 192 192 192 255 0.185428 0.71223
0.887695 -0.121967 110.9062 -0.6591334 0.7505505 -0.04708776 192 192 192 255 0.005795 0.938508
321.4297 -3.140227 15.64844 0.01206655 0.9773164 0.2114406 192 192 192 255 0.164061 0.728008
0.008789 -10.73885 66.22168 -0.8735853 0.4669276 -0.1372124 192 192 192 255 0.040571 0.708546
309.1709 -3.096954 49.07617 -0.002521289 0.9996067 -0.02793021 192 192 192 255 0.159351 0.715144
303.4326 -2.103597 110.2266 0.01740541 0.9960099 0.0875288 192 192 192 255 0.157146 0.691611
0.267578 -22.74083 0.168945 -0.5765021 -0.574479 -0.5810501 192 192 192 255 0.04067 0.733965
395.2129 0.050673 1.362305 -0.03661814 0.5926177 -0.8046511 192 192 192 255 0.192408 0.733506
391.8398 -3.085145 463.6484 0.002094642 0.9998907 -0.01463531 192 192 192 255 0.191112 0.555602
251.0996 -3.295683 498.1982 -0.2151167 0.6559622 0.7234905 192 192 192 255 0.13704 0.542306
346.0996 -0.374839 295.291 -0.1616103 0.9831937 -0.0849254 192 192 192 255 0.163062 0.85451
34.68945 -3.085881 21.16797 0.003178026 0.9935363 0.1134705 192 192 192 255 0.053895 0.725884
-0.030273 -1.287166 435.8682 -0.7312113 0.6775703 0.0789217 192 192 192 255 0.040556 0.566293
11.38281 -4.196124 479.9756 -0.1052772 0.9804959 0.1659655 192 192 192 255 0.044941 0.549319
329.1689 -1.568832 71.50781 0.002015421 0.9992362 -0.0390253 192 192 192 255 0.155349 0.956457
460.6084 -3.084526 84.82227 -0.03169954 0.9994938 -0.002685649 192 192 192 255 0.217533 0.701388
487.0439 -2.758766 289.6475 -0.3350639 0.9421903 0.003092627 192 192 192 255 0.22769 0.622564
54.23828 -3.109463 329.498 0.06529509 0.9977905 0.01227576 192 192 192 255 0.061406 0.607228
479.8594 -3.088986 390.832 0.02121593 0.9997464 -0.007547041 192 192 192 255 0.224929 0.583624
350.2354 -9.710102 0.02832 -0.06635442 0.5036303 -0.8613673 192 192 192 255 0.175128 0.73402
336.2344 -4.347358 17.375 0.09322726 0.9485184 -0.3026904 192 192 192 255 0.169749 0.727344
0.588867 -22.78778 375.875 -0.6514007 -0.758725 0.00368111 192 192 192 255 0.040794 0.58938
286.9648 0.665136 201.585 0.0004950978 0.9999752 -0.00702403 192 192 192 255 0.136122 0.897199
392.376 -3.091331 50.8916 0.01617802 0.9983306 0.05544665 192 192 192 255 0.191318 0.714445
497.3525 -0.720402 294.7363 0.7664829 0.6420401 0.01698341 192 192 192 255 0.23165 0.620605
141.957 0.449558 124.5879 -0.1323306 0.985504 -0.106163 192 192 192 255 0.070062 0.932276
60.78809 -2.852421 275.5146 -0.04616316 0.9981853 0.03866717 192 192 192 255 0.063922 0.628003
385.3682 -0.113308 9.382813 -0.07732733 0.972478 0.2197884 192 192 192 255 0.188626 0.73042
360.5127 -4.69945 4.820313 -0.1135219 0.9208236 -0.3730905 192 192 192 255 0.179076 0.732175
316.7139 -3.448266 115.5127 -0.006640385 0.9975057 0.07027308 192 192 192 255 0.162249 0.689577
50.10449 -22.77916 0.240234 -0.0008782374 -0.6981983 -0.7159039 192 192 192 255 0.059818 0.733938
336.5244 -1.529052 417.1055 -0.03703625 0.996195 0.07889148 192 192 192 255 0.16986 0.573513
0.259766 -9.423619 467.4297 -0.9193537 0.3877587 0.06657416 192 192 192 255 0.040667 0.554147
54.29004 -0.110819 490.5781 -0.01516549 0.960151 -0.2790703 192 192 192 255 0.061426 0.545238
53.91211 -3.085695 446.5947 -0.01432895 0.999802 0.01380555 192 192 192 255 0.06128 0.562165
262.5566 0.666381 301.6641 0.003684182 0.9999931 -0.0003367841 192 192 192 255 0.125003 0.851606
202.2871 -5.972378 486.3096 0.04680155 0.9518228 0.3030561 192 192 192 255 0.118286 0.546881
496.4893 -22.90053 4.054688 0.01198127 -0.9998821 -0.009607888 192 192 192 255 0.231318 0.73247
499.8457 -22.79633 0.130859 0.5895299 -0.5624004 -0.5797933 192 192 192 255 0.232608 0.73398
296.6426 -1.096927 150.1133 0.09044927 0.9936292 -0.06723051 192 192 192 255 0.154537 0.676261
53.38477 -0.039241 499.2705 -0.03306463 0.7517407 0.6586294 192 192 192 255 0.029711 0.761584
22.54395 -3.084965 266.7012 -0.08093124 0.9966327 0.01316945 192 192 192 255 0.049229 0.631394
377.1289 -2.961999 13.43555 -0.0858237 0.9891162 0.1195135 192 192 192 255 0.18546 0.72886
279.3428 -1.532019 410.3271 0.01387116 0.9994725 0.0293656 192 192 192 255 0.13265 0.802104
0.06543 -11.88414 0.205078 -0.6720496 0.310191 -0.6724068 192 192 192 255 0.040593 0.733952
270.6787 0.66623 194.752 0.003227597 0.9999889 -0.00345609 192 192 192 255 0.128703 0.900311
424.293 -1.582245 91.53613 0.2547329 0.9608017 -0.1094132 192 192 192 255 0.198684 0.947333
377.8828 -1.530213 85.97949 0.01491668 0.9996589 -0.02143813 192 192 192 255 0.177541 0.949864
395.1846 -0.096283 490.5947 2.477762e-05 0.9584278 -0.285335 192 192 192 255 0.185423 0.765537
375.1211 -1.529182 433.1934 -0.0320655 0.9891053 0.1436751 192 192 192 255 0.176283 0.791687
285.5508 -1.407786 390.3477 -0.01211562 0.9944481 0.1045289 192 192 192 255 0.135478 0.811205
491.1006 -0.024376 314.6328 -0.2940176 0.9546865 0.04612403 192 192 192 255 0.229248 0.612948
0.412109 -4.821806 282.9766 -0.7218947 0.6826208 -0.1135649 192 192 192 255 0.040726 0.625131
254.3574 0.664009 119.1104 0.04119808 0.9941553 -0.09978993 192 192 192 255 0.121267 0.934771
0.983398 -3.624287 447.707 -0.6282704 0.7629288 0.1523679 192 192 192 255 0.040945 0.561737
363.9678 -3.088609 28.03027 -0.009961863 0.9998767 -0.01213534 192 192 192 255 0.180404 0.723243
340.7969 -1.046889 323.1436 -0.1038977 0.9943371 0.02233691 192 192 192 255 0.171502 0.609673
496.8164 -0.747113 434.7588 0.5218775 0.846198 -0.1076705 192 192 192 255 0.231444 0.56672
184.5469 -5.860017 494.9873 0.150767 0.7691831 0.6209885 192 192 192 255 0.11147 0.543542
498.8115 -0.005392 494.7188 0.04039946 0.9991766 0.003744026 192 192 192 255 0.232632 0.763658
20.05469 -5.609763 35.23535 -0.06444272 0.9951795 0.07392534 192 192 192 255 0.048272 0.720471
86.48926 -3.342145 314.0918 -0.102947 0.9943545 0.02570976 192 192 192 255 0.073797 0.613157
203.5361 -2.971295 375.3789 -0.07693929 0.9755933 0.2056652 192 192 192 255 0.118766 0.589571
426.8848 -2.957729 90.63379 0.2962387 0.9512818 -0.08547326 192 192 192 255 0.204576 0.699151
200.4414 -2.843421 13.43164 0.001001658 0.9437677 0.330608 192 192 192 255 0.117577 0.728861
490.9531 -0.221717 427.001 -0.2002857 0.9757591 -0.08820347 192 192 192 255 0.229191 0.569705
249.4971 -1.621762 389.6357 -0.01397823 0.9991791 0.03802283 192 192 192 255 0.136424 0.584085
434.4375 -5.554529 67.24512 -0.06100393 0.9977889 0.02638012 192 192 192 255 0.207478 0.708152
265.8965 0.666058 154.1289 0.02168019 0.999728 -0.008603758 192 192 192 255 0.126524 0.918818
141.3555 0.628281 381.2422 0.006691016 0.9940698 0.1085381 192 192 192 255 0.069788 0.815353
323.9805 -9.416649 0.045898 0.09002966 0.3441987 -0.9345704 192 192 192 255 0.165041 0.734013
150.9922 -0.128856 499.8027 0.03920829 0.7149792 0.6980455 192 192 192 255 0.098579 0.541688
50.47559 -4.031046 0.005859 -0.02334834 0.03221539 -0.9992082 192 192 192 255 0.05996 0.734028
143.3438 -1.4914 112.9395 -0.045867 0.9968606 -0.06453948 192 192 192 255 0.070693 0.937582
303.1602 -1.178768 155.7871 0.002464846 0.9970151 -0.0771689 192 192 192 255 0.1435 0.918062
259.373 -1.566746 107.4902 0.02572821 0.9979836 -0.05802446 192 192 192 255 0.123552 0.940065
356.6152 -1.395434 111.0742 -0.01762406 0.9983059 -0.05545124 192 192 192 255 0.167852 0.938432
199.1816 -3.92626 384.627 -0.006460798 0.9989511 -0.0453313 192 192 192 255 0.117093 0.586012
307.0029 -2.435522 139.1348 0.1017767 0.9946718 -0.01641872 192 192 192 255 0.158518 0.680486
315.2998 -3.088766 445.1797 0.008053002 0.9987186 -0.0499636 192 192 192 255 0.161706 0.562709
28.48438 -3.085894 61.35156 -0.2515752 0.9668449 0.04382718 192 192 192 255 0.051511 0.71042
475.6172 -22.83082 499.9238 0.001892281 -0.7008678 0.7132887 192 192 192 255 0.223299 0.541642
496.5693 -22.90055 495.5146 0.01790623 -0.9997822 0.01072187 192 192 192 255 0.231349 0.543339
293.2656 -0.109398 0.34082 0.04143083 0.7108275 -0.7021451 192 192 192 255 0.138993 0.988878
4.123047 -7.185882 265.9492 -0.4783602 0.8764839 -0.05429017 192 192 192 255 0.042151 0.631684
175.9395 -12.22003 499.999 0.0673159 0.2120567 0.9749362 192 192 192 255 0.108163 0.541613
499.9922 -4.703561 372.2988 0.7691631 0.6389904 -0.008907796 192 192 192 255 0.232664 0.590757
205.8408 -3.827455 66.24219 0.01604658 0.9982843 0.05631132 192 192 192 255 0.119651 0.708538
488.8066 -0.14827 9.353516 -0.1069029 0.9932764 0.04442733 192 192 192 255 0.228367 0.730431
237.5439 -22.94341 497.7207 -0.04153458 -0.7623001 0.6458897 192 192 192 255 0.131832 0.54249
352.542 0.665062 355.3857 -0.03790693 0.9987246 -0.03335049 192 192 192 255 0.165997 0.827133
295.6113 0.424081 382.7451 -0.004922642 0.9925315 0.1218896 192 192 192 255 0.140061 0.814669
252.5645 -22.78738 499.7891 -0.04238854 -0.6579208 0.7518932 192 192 192 255 0.137603 0.541694
12.19922 -4.237343 3.723633 -0.2267932 0.779322 -0.5841422 192 192 192 255 0.045254 0.732597
100.8213 -22.81033 0.109375 -0.0003076014 -0.7012411 -0.7129241 192 192 192 255 0.079303 0.733988
359.1143 0.659786 276.4375 -0.003582597 0.999984 0.004392092 192 192 192 255 0.168991 0.863099
159.9443 -0.141073 490.5654 0.06836833 0.9751932 -0.2105328 192 192 192 255 0.102018 0.545243
8.881836 -0.084956 435.3477 0.3002553 0.9517292 0.06370541 192 192 192 255 0.009437 0.790705
1.015625 -8.192501 68.35938 -0.4842672 0.7883643 -0.3794299 192 192 192 255 0.040958 0.707723
280.8047 0.053896 145.7188 0.03485398 0.9985241 -0.0416509 192 192 192 255 0.133316 0.922649
491.1338 -3.278721 361.2793 0.0913604 0.9936367 0.0658747 192 192 192 255 0.229261 0.594997
166.8506 -2.933034 486.2568 0.03666238 0.9705387 -0.2381398 192 192 192 255 0.104671 0.546901
136.7188 0.655742 153 -0.07005221 0.9970711 -0.03068987 192 192 192 255 0.067675 0.919332
5.339844 -22.90051 495.2812 -0.008882512 -0.9999169 0.009350866 192 192 192 255 0.042619 0.543428
334.3955 -1.076608 125.2979 -0.0786917 0.9963571 -0.03286538 192 192 192 255 0.169042 0.685811
190.2637 0.665567 350.5635 -0.002412917 0.9999659 0.007901087 192 192 192 255 0.092069 0.82933
381.7568 0.612645 381.7725 0.05541793 0.9966476 0.06018675 192 192 192 255 0.179306 0.815112
17.66699 -4.375508 276.2578 -0.3183461 0.9424989 -0.1017425 192 192 192 255 0.047355 0.627717
421.8457 -0.117444 0.238281 -0.002224956 0.6585436 -0.7525393 192 192 192 255 0.20264 0.733939
386.207 -2.971197 485.998 -0.0006936232 0.9586748 -0.2845032 192 192 192 255 0.188948 0.547001
210.8477 -1.526479 432.8574 -3.601035e-05 0.9972844 0.07364674 192 192 192 255 0.101446 0.79184
4.665039 -2.191065 22.63965 -0.170632 0.9815047 0.08679488 192 192 192 255 0.04236 0.725318
254.1953 -1.711775 66.15918 -0.006788948 0.9966098 -0.08199275 192 192 192 255 0.121193 0.958894
406.9707 -1.777853 72.10449 -0.01891586 0.9943237 -0.1047024 192 192 192 255 0.196925 0.706282
164.5449 -1.530648 94.2041 0.009893007 0.9997993 -0.01742581 192 192 192 255 0.080352 0.946117
494.8242 0.004585 286.209 0.03823091 0.9990942 0.01868637 192 192 192 255 0.230816 0.858647
280.2695 -2.392869 111.5928 0.025861 0.9983038 0.05216239 192 192 192 255 0.148247 0.691086
391.2705 -3.267637 70.56641 0.03688386 0.9967712 -0.07132192 192 192 192 255 0.190893 0.706874
263.5996 0.027018 497.9688 -0.09962213 0.9449431 0.3117017 192 192 192 255 0.141842 0.542394
0.007813 -6.890801 192.1182 -0.9654484 0.2477634 0.08076345 192 192 192 255 0.04057 0.660097
499.8691 -0.104066 499.8076 0.5771993 0.5743673 0.5804681 192 192 192 255 0.232617 0.541687
8.774414 -0.141273 115.2197 0.3091723 0.9489817 -0.06201757 192 192 192 255 0.009388 0.936543
215.4385 -1.607673 79.7959 -0.1033295 0.9840757 -0.1446306 192 192 192 255 0.103537 0.952681
37.91309 0.048922 7.453125 -0.01919948 0.9980572 0.05927249 192 192 192 255 0.022663 0.985638
432.6025 -1.520253 147.1426 0.07766365 0.9968636 -0.01520971 192 192 192 255 0.20247 0.922001
325.2754 -4.498533 425.2598 -0.006266785 0.9815243 0.191235 192 192 192 255 0.165538 0.570375
6.027344 -8.815073 493.0664 -0.354551 0.8887005 0.2906974 192 192 192 255 0.042883 0.544281
190.7793 -1.542145 97.55859 0.01394029 0.9984993 -0.05296048 192 192 192 255 0.113865 0.696486
463.752 -3.085222 52.89062 -0.02121671 0.9997594 0.00557633 192 192 192 255 0.218741 0.713676
66.36328 -5.043562 327.6328 0.04625988 0.9984868 0.0297375 192 192 192 255 0.066064 0.607946
9.411133 -1.102453 468.9707 0.09129392 0.9889438 0.1168574 192 192 192 255 0.044183 0.553554
21.69824 -6.748012 62.95312 -0.2509899 0.9674567 0.03212029 192 192 192 255 0.048904 0.709804
231.751 -3.099503 56.80469 -0.01952275 0.9997886 -0.006461246 192 192 192 255 0.129606 0.71217
315.8135 -3.516462 135.1777 -0.02199109 0.9987866 -0.04406693 192 192 192 255 0.161903 0.682009
444.1357 -4.012715 132.1572 -0.03802267 0.9968089 -0.07018802 192 192 192 255 0.211204 0.683172
240.1758 -3.048723 488.3779 -0.1250886 0.9662663 0.2251274 192 192 192 255 0.132843 0.546085
2.705078 0.046272 188.9346 -0.5616462 0.8219477 0.09463429 192 192 192 255 0.041607 0.661322
63.19434 -2.605404 121.1113 -0.1531485 0.9882029 0.0007869176 192 192 192 255 0.064847 0.687422
86.21777 -1.528146 372.2607 -0.009617819 0.9998145 -0.01668807 192 192 192 255 0.044669 0.819445
74.89062 -3.911134 290.6904 -0.357558 0.931863 -0.06151212 192 192 192 255 0.06934 0.622162
9.291992 -2.617657 212.0342 -0.1093577 0.993714 0.02394512 192 192 192 255 0.044137 0.652432
206.8896 0.664826 366.6338 -0.04193969 0.9862555 0.1598159 192 192 192 255 0.099643 0.822009
11.30859 -2.894676 454.0742 0.02180985 0.9997437 -0.006079887 192 192 192 255 0.044912 0.559286
330.3447 -5.295228 435.2314 -0.0175372 0.9998078 -0.008764572 192 192 192 255 0.167486 0.566538
71.22461 -3.441254 308.2461 -0.01161367 0.9995757 0.02671143 192 192 192 255 0.067932 0.615406
14.7627 -3.112147 292.5137 0.006546105 0.9976546 -0.0681369 192 192 192 255 0.046239 0.621461
277.1016 0.667258 315.5537 0.003348669 0.9999883 -0.003513775 192 192 192 255 0.131629 0.845279
297.2236 -3.030217 424.0381 0.0121748 0.9918714 0.126661 192 192 192 255 0.154761 0.570845
499.9111 -22.75627 499.7715 0.5834069 -0.5697553 0.5788051 192 192 192 255 0.232633 0.5417
1.021484 -0.110855 306.665 -0.5662817 0.8219865 -0.06052541 192 192 192 255 0.005856 0.849328
291.1367 -4.278379 436.9229 0.02868073 0.9992529 -0.02590426 192 192 192 255 0.152422 0.565887
71.14941 -2.958423 13.30078 0.0008897521 0.9500581 0.3120718 192 192 192 255 0.067903 0.728912
77.35156 -1.53535 370.8662 -0.02022664 0.9986942 -0.04691314 192 192 192 255 0.04063 0.82008
424.6406 -1.54066 126.3389 0.06901477 0.997392 -0.02112195 192 192 192 255 0.198842 0.931478
420.29 -5.103025 58.5625 0.01388749 0.9952568 0.0962869 192 192 192 255 0.202043 0.711493
313.7539 0.265662 304.623 0.063122 0.9978278 -0.0188531 192 192 192 255 0.161112 0.616801
332.502 -2.305257 328.1396 0.001943325 0.9999209 -0.01243285 192 192 192 255 0.168315 0.607751
328.7041 -1.710919 299.917 0.02191494 0.9993746 0.02775241 192 192 192 255 0.166855 0.618612
443.2725 -4.180235 41.30176 -0.0672987 0.9912555 0.113506 192 192 192 255 0.210873 0.718136
379.5498 -1.953458 68.95898 0.06819844 0.9955264 -0.06539302 192 192 192 255 0.18639 0.707493
446.6797 -3.085066 446.0977 0.008734686 0.9997917 0.01844556 192 192 192 255 0.212182 0.562356
432.6729 -1.524794 433.1211 0.04013852 0.9978875 0.0510831 192 192 192 255 0.202502 0.791719
270.0107 -0.168019 128.4619 0.06338055 0.9962854 -0.05829616 192 192 192 255 0.144305 0.684594
290.1309 -1.05891 130.3193 0.102269 0.990581 -0.09105185 192 192 192 255 0.152036 0.683879
261.2393 -0.126222 490.5742 -0.09008911 0.9409805 -0.3262509 192 192 192 255 0.140935 0.54524
152.4111 -1.569475 66.69531 0.01700085 0.9975423 -0.06797427 192 192 192 255 0.074824 0.958649
103.6582 -1.526099 110.5693 0.01411251 0.9998434 0.01067761 192 192 192 255 0.052614 0.938662
8.876953 -0.05846 336.8027 0.2611521 0.965297 0.001140889 192 192 192 255 0.009435 0.835599
0.005859 -16.20076 473.1807 -0.9998103 -0.01945964 0.0008880153 192 192 192 255 0.04057 0.551934
104.582 -1.53157 157.459 0.0082 0.9999112 -0.01050801 192 192 192 255 0.053035 0.917301
8.455078 -0.042431 170.8281 0.255631 0.96677 -0.002933728 192 192 192 255 0.043816 0.66829
126.207 -2.605601 131.0264 -0.08269429 0.9959542 -0.03517113 192 192 192 255 0.089056 0.683607
20.2627 -3.022511 488.5596 -0.2087322 0.9550098 0.2106825 192 192 192 255 0.048352 0.546015
273.3223 -3.124189 443.5869 0.02832688 0.9991315 0.03055925 192 192 192 255 0.145578 0.563322
166.5049 0.667067 119.0781 -0.01031492 0.9894588 -0.144447 192 192 192 255 0.081245 0.934786
166.6191 -3.085117 17.55664 -0.00101364 0.999795 0.02022192 192 192 192 255 0.104582 0.727274
0.170898 -13.31988 499.7666 -0.6568106 0.3982184 0.6403295 192 192 192 255 0.040633 0.541702
214.5088 -1.342682 110.2041 0.0006664978 0.9927586 -0.1201252 192 192 192 255 0.103114 0.938828
263.0889 -1.553896 500.0029 -0.09324763 0.460317 0.8828438 192 192 192 255 0.141646 0.541611
348.7861 -22.7897 499.8516 -3.546129e-05 -0.6948099 0.7191935 192 192 192 255 0.174571 0.54167
0.510742 -22.78666 499.79 -0.5670631 -0.5829285 0.5819225 192 192 192 255 0.040764 0.541693
53.25977 -3.084952 55.19336 -0.0142335 0.9998119 -0.01317513 192 192 192 255 0.06103 0.71279
-0.030273 -20.98365 326.0654 -0.9866925 -0.1625943 -0.000936353 192 192 192 255 0.040556 0.608549
30.96582 -1.651277 497.6641 -0.2700276 0.741452 0.6142752 192 192 192 255 0.052464 0.542512
485.2393 -3.098166 191.7314 -0.2300308 0.9731826 0.001218845 192 192 192 255 0.226996 0.660245
401.083 -22.81409 0.118164 0.001187267 -0.6983488 -0.7157566 192 192 192 255 0.194663 0.733985
0.59082 -22.78692 250.8984 -0.6316249 -0.7752724 -0.001654807 192 192 192 255 0.040794 0.637476
396.5361 -1.526095 126.6123 0.01248334 0.9999177 -0.002981945 192 192 192 255 0.186039 0.931353
250.2471 0.628094 373.2764 -0.01255719 0.997272 0.07273922 192 192 192 255 0.119395 0.818982
60.63672 -3.505316 301.9785 0.08801994 0.9960887 0.007736286 192 192 192 255 0.063864 0.617818
12.85254 -2.704719 117.001 0.2771185 0.9602988 -0.03211869 192 192 192 255 0.045505 0.689004
108.665 -1.530938 270.5508 -0.1032268 0.9946576 0.000772744 192 192 192 255 0.054895 0.86578
2.273438 -4.298071 218.3613 -0.5913991 0.8057094 0.03285668 192 192 192 255 0.041441 0.649997
254.292 -2.967417 13.59473 0.0004110996 0.9473448 0.320215 192 192 192 255 0.138266 0.728799
224.6387 -3.084944 478.6748 -0.03416523 0.9972426 0.0658787 192 192 192 255 0.126874 0.549819
208.6963 -1.528031 98.81641 -0.01537678 0.999007 -0.04181636 192 192 192 255 0.100466 0.944016
477.3818 -3.084976 346.1094 -0.007522149 0.9999481 0.00687885 192 192 192 255 0.223977 0.600835
347.0215 0.617365 299.2207 -0.1025089 0.9934194 -0.05108613 192 192 192 255 0.163482 0.852719
0.053711 -5.508877 296.3809 -0.996784 0.07765295 -0.0197919 192 192 192 255 0.040588 0.619972
339.6367 0.665803 279.8955 -0.03170781 0.9980156 0.0544003 192 192 192 255 0.160118 0.861523
180.6455 0.188721 365.1621 0.03943237 0.993318 0.108464 192 192 192 255 0.087687 0.822679
322.9824 -1.308918 148.1758 -0.0906859 0.9868476 -0.1338209 192 192 192 255 0.152531 0.92153
118.2051 0.599095 186.2764 -0.1365688 0.9903191 -0.02484171 192 192 192 255 0.059241 0.904173
429.7295 -3.085659 26.50586 0.004523422 0.9999643 0.007137795 192 192 192 255 0.205669 0.72383
498.7607 -0.449529 316.8281 0.6641075 0.7474386 0.01722944 192 192 192 255 0.232191 0.612104
338.6367 -1.061809 353.9902 -0.04206043 0.9777113 -0.2056977 192 192 192 255 0.159662 0.827769
488.2744 -0.159836 490.5791 -0.05445315 0.9949356 -0.08448642 192 192 192 255 0.227832 0.765544
50.94238 -2.962336 486.1787 -0.004324151 0.9577835 -0.2874582 192 192 192 255 0.060139 0.546932
444.5205 -2.873141 13.4082 0.001441072 0.9900377 0.1407948 192 192 192 255 0.211352 0.728871
443.4609 -3.118822 299.8594 0.06243275 0.998048 0.001534394 192 192 192 255 0.210945 0.618634
108.1055 -1.548619 392.2666 -0.02277391 0.9994575 0.02379373 192 192 192 255 0.05464 0.810331
172.1113 -3.111975 56.15137 0.01615628 0.9996632 -0.02030964 192 192 192 255 0.106693 0.712421
162.0732 -1.570832 391.6357 0.0276891 0.9985332 0.04652741 192 192 192 255 0.079226 0.810619
49.41602 -0.209752 0.224609 -0.04813546 0.6971483 -0.7153092 192 192 192 255 0.059553 0.733944
499.7148 -4.042935 393.2686 0.682669 0.7305321 0.01691167 192 192 192 255 0.232558 0.582687
488.6328 -2.888348 406.0654 0.1227257 0.9924067 0.008210566 192 192 192 255 0.2283 0.577762
499.9971 -8.489246 419.4619 0.9150602 0.3974029 -0.06881835 192 192 192 255 0.232666 0.572607
8.933594 -0.050444 193.4043 0.2256634 0.9727016 0.05410827 192 192 192 255 0.044 0.659602
198.5459 -22.73552 499.8887 0.01024791 -0.6723796 0.7401356 192 192 192 255 0.116849 0.541655
67.34277 -1.523712 68.13379 -0.0465534 0.9980689 -0.04112453 192 192 192 255 0.03607 0.957994
392.5635 -1.545493 107.4355 0.02274641 0.9994433 -0.02440708 192 192 192 255 0.184229 0.94009
192.2266 -1.529024 397.2334 0.01947612 0.9986578 -0.04799426 192 192 192 255 0.092963 0.808069
499.9336 -22.82439 178.4707 0.714079 -0.7000651 -0.0003433618 192 192 192 255 0.232642 0.665349
375.4932 -1.089685 500.0488 0.00231977 0.5925463 0.8055331 192 192 192 255 0.184832 0.541594
67.47852 -1.529958 383.6562 -0.09957258 0.9948993 -0.01614694 192 192 192 255 0.066493 0.586386
428.1826 -3.129661 52.29785 0.1187859 0.9893072 0.08462432 192 192 192 255 0.205075 0.713904
437.3545 -2.587735 376.3066 0.1496692 0.988736 -0.0005638288 192 192 192 255 0.208599 0.589214
315.7744 -0.135769 9.4375 0.1385323 0.9887747 0.05597849 192 192 192 255 0.161888 0.730399
188.3232 -1.760561 388.1895 0.06037509 0.9813316 -0.1826011 192 192 192 255 0.112921 0.584641
442.2051 -4.3236 73.80762 -0.1067978 0.9942541 0.007277912 192 192 192 255 0.210462 0.705627
12.51855 -2.416896 356.043 0.3394401 0.9406241 -0.002633916 192 192 192 255 0.045377 0.597012
193.9912 -3.090456 443.373 0.0003034523 0.9972551 0.07404141 192 192 192 255 0.115099 0.563405
26.87109 -0.326179 490.6553 -0.2965218 0.9511977 -0.08542685 192 192 192 255 0.050891 0.545209
84.55078 -0.109748 0.165039 0.0004041794 0.7112985 -0.70289 192 192 192 255 0.043909 0.988958
112.3184 -0.987328 183.9092 -0.1468311 0.9888201 -0.02598966 192 192 192 255 0.08372 0.663256
112.2119 -0.081362 9.398438 0.001565983 0.9427359 0.3335365 192 192 192 255 0.056511 0.984752
123.5264 -3.007226 13.12207 -0.001291553 0.9420297 0.3355269 192 192 192 255 0.088026 0.728981
304.8779 -2.400734 63.08887 -0.002491385 0.9965358 -0.08312748 192 192 192 255 0.157701 0.709752
488.4072 -2.552946 332.0557 -0.1042433 0.9941961 0.02659896 192 192 192 255 0.228213 0.606244
387.8809 -1.131283 157.0352 0.1619861 0.986793 0.0003046894 192 192 192 255 0.182096 0.917494
119.9482 0.669306 380.623 -0.06839266 0.9950801 0.07168175 192 192 192 255 0.060035 0.815636
100.5078 -1.6187 433.8047 0.001898181 0.9979593 0.06382652 192 192 192 255 0.051179 0.791408
318.4111 0.665942 260.2256 0.0007457513 0.9998587 0.01679356 192 192 192 255 0.150448 0.870484
59.58594 -3.734115 353.5107 0.0286868 0.9991871 -0.02832506 192 192 192 255 0.06346 0.597987
26.32324 -3.552835 42.93555 -0.2409087 0.9705343 0.005115174 192 192 192 255 0.050681 0.717507
205.5088 -4.384121 74.99805 -0.01840921 0.9987868 -0.04567244 192 192 192 255 0.119524 0.705168
215.8779 -1.245852 376.6309 -0.07302913 0.9850426 0.15607 192 192 192 255 0.123508 0.589089
329.8457 -6.689937 4.614258 0.1622084 0.8870721 -0.432194 192 192 192 255 0.167294 0.732255
365.7061 0.653782 323.5869 -0.02398456 0.999704 0.004085768 192 192 192 255 0.171994 0.841619
296.3828 -2.95686 486.2822 -0.0005776799 0.9551168 -0.2962289 192 192 192 255 0.154438 0.546892
20.25781 -4.536653 90.5625 0.04741861 0.9941949 -0.09658165 192 192 192 255 0.04835 0.699179
107.8242 -1.966901 142.1338 0.06978433 0.9975055 -0.01062757 192 192 192 255 0.081993 0.679332
263.9111 -1.588966 433.7207 0.02585717 0.9966404 0.07771265 192 192 192 255 0.141962 0.567119
485.4053 -3.146451 15.23242 -0.2983548 0.9408264 0.1607173 192 192 192 255 0.22706 0.728168
210.8477 -1.526479 432.8574 -3.601035e-05 0.9972844 0.07364674 192 192 192 255 0.121575 0.567451
499.8633 -0.141114 458.9561 0.703282 0.7108751 -0.007149013 192 192 192 255 0.233111 0.77995
8.455078 -0.042431 170.8281 0.255631 0.96677 -0.002933728 192 192 192 255 0.009243 0.91121
0.887695 -0.121967 110.9062 -0.6591334 0.7505505 -0.04708776 192 192 192 255 0.040908 0.69135
112.2119 -0.081362 9.398438 0.001565983 0.9427359 0.3335365 192 192 192 255 0.083679 0.730414
8.881836 -0.084956 435.3477 0.3002553 0.9517292 0.06370541 192 192 192 255 0.04398 0.566493
67.4668 -1.52532 433.1602 -0.04235823 0.9981529 0.04355165 192 192 192 255 0.066488 0.567335
491.1006 -0.024376 314.6328 -0.2940176 0.9546865 0.04612403 192 192 192 255 0.229119 0.845698
498.7607 -0.449529 316.8281 0.6641075 0.7474386 0.01722944 192 192 192 255 0.232609 0.844698
1.021484 -0.110855 306.665 -0.5662817 0.8219865 -0.06052541 192 192 192 255 0.04096 0.616015
215.8779 -1.245852 376.6309 -0.07302913 0.9850426 0.15607 192 192 192 255 0.103737 0.817454
249.4971 -1.621762 389.6357 -0.01397823 0.9991791 0.03802283 192 192 192 255 0.119053 0.81153
81.82031 -1.526486 271.2256 -0.02472085 0.999236 0.03027097 192 192 192 255 0.072003 0.629653
67.4043 -1.522304 270.7207 -0.07379662 0.9920877 0.1015677 192 192 192 255 0.066464 0.629847
259.373 -1.566746 107.4902 0.02572821 0.9979836 -0.05802446 192 192 192 255 0.140218 0.692664
336.5244 -1.529052 417.1055 -0.03703625 0.996195 0.07889148 192 192 192 255 0.1587 0.799016
77.35156 -1.53535 370.8662 -0.02022664 0.9986942 -0.04691314 192 192 192 255 0.070286 0.591308
192.2266 -1.529024 397.2334 0.01947612 0.9986578 -0.04799426 192 192 192 255 0.114421 0.581161
293.2656 -0.109398 0.34082 0.04143083 0.7108275 -0.7021451 192 192 192 255 0.15324 0.733899
322.0596 0.655775 360.5371 0.01929593 0.9995129 -0.02452753 192 192 192 255 0.164303 0.595283
338.6367 -1.061809 353.9902 -0.04206043 0.9777113 -0.2056977 192 192 192 255 0.170672 0.597802
340.7969 -1.046889 323.1436 -0.1038977 0.9943371 0.02233691 192 192 192 255 0.160646 0.841821
313.0254 0.65808 323.2217 0.07179376 0.9973134 -0.01454691 192 192 192 255 0.160832 0.609643
86.21777 -1.528146 372.2607 -0.009617819 0.9998145 -0.01668807 192 192 192 255 0.073692 0.590771
322.9824 -1.308918 148.1758 -0.0906859 0.9868476 -0.1338209 192 192 192 255 0.164657 0.677007
206.8896 0.664826 366.6338 -0.04193969 0.9862555 0.1598159 192 192 192 255 0.120054 0.592937
180.6455 0.188721 365.1621 0.03943237 0.993318 0.108464 192 192 192 255 0.109971 0.593503
377.8828 -1.530213 85.97949 0.01491668 0.9996589 -0.02143813 192 192 192 255 0.18575 0.700942
432.6729 -1.524794 433.1211 0.04013852 0.9978875 0.0510831 192 192 192 255 0.2068 0.56735
159.9443 -0.141073 490.5654 0.06836833 0.9751932 -0.2105328 192 192 192 255 0.078256 0.76555
54.29004 -0.110819 490.5781 -0.01516549 0.960151 -0.2790703 192 192 192 255 0.030124 0.765544
150.9922 -0.128856 499.8027 0.03920829 0.7149792 0.6980455 192 192 192 255 0.074178 0.761342
208.6963 -1.528031 98.81641 -0.01537678 0.999007 -0.04181636 192 192 192 255 0.120748 0.696002
143.3438 -1.4914 112.9395 -0.045867 0.9968606 -0.06453948 192 192 192 255 0.09564 0.690567
490.9531 -0.221717 427.001 -0.2002857 0.9757591 -0.08820347 192 192 192 255 0.229052 0.794508
162.0732 -1.570832 391.6357 0.0276891 0.9985332 0.04652741 192 192 192 255 0.102836 0.583315
254.1953 -1.711775 66.15918 -0.006788948 0.9966098 -0.08199275 192 192 192 255 0.138229 0.70857
215.4385 -1.607673 79.7959 -0.1033295 0.9840757 -0.1446306 192 192 192 255 0.123339 0.703322
328.7041 -1.710919 299.917 0.02191494 0.9993746 0.02775241 192 192 192 255 0.155137 0.852402
329.1689 -1.568832 71.50781 0.002015421 0.9992362 -0.0390253 192 192 192 255 0.167034 0.706512
424.293 -1.582245 91.53613 0.2547329 0.9608017 -0.1094132 192 192 192 255 0.203581 0.698804
424.6406 -1.54066 126.3389 0.06901477 0.997392 -0.02112195 192 192 192 255 0.203714 0.685411
270.0107 -0.168019 128.4619 0.06338055 0.9962854 -0.05829616 192 192 192 255 0.128398 0.930511
290.1309 -1.05891 130.3193 0.102269 0.990581 -0.09105185 192 192 192 255 0.137564 0.929665
190.7793 -1.542145 97.55859 0.01394029 0.9984993 -0.05296048 192 192 192 255 0.092303 0.944589
164.5449 -1.530648 94.2041 0.009893007 0.9997993 -0.01742581 192 192 192 255 0.103786 0.697777
103.6582 -1.526099 110.5693 0.01411251 0.9998434 0.01067761 192 192 192 255 0.080393 0.691479
104.582 -1.53157 157.459 0.0082 0.9999112 -0.01050801 192 192 192 255 0.080748 0.673435
296.6426 -1.096927 150.1133 0.09044927 0.9936292 -0.06723051 192 192 192 255 0.140531 0.920647
100.5078 -1.6187 433.8047 0.001898181 0.9979593 0.06382652 192 192 192 255 0.079182 0.567087
497.3525 -0.720402 294.7363 0.7664829 0.6420401 0.01698341 192 192 192 255 0.231967 0.854762
30.96582 -1.651277 497.6641 -0.2700276 0.741452 0.6142752 192 192 192 255 0.019498 0.762316
67.47852 -1.529958 383.6562 -0.09957258 0.9948993 -0.01614694 192 192 192 255 0.036132 0.814254
313.7539 0.265662 304.623 0.063122 0.9978278 -0.0188531 192 192 192 255 0.148326 0.850258
334.3955 -1.076608 125.2979 -0.0786917 0.9963571 -0.03286538 192 192 192 255 0.15773 0.931952
141.957 0.449558 124.5879 -0.1323306 0.985504 -0.106163 192 192 192 255 0.095107 0.686085
136.7188 0.655742 153 -0.07005221 0.9970711 -0.03068987 192 192 192 255 0.093095 0.675151
261.2393 -0.126222 490.5742 -0.09008911 0.9409805 -0.3262509 192 192 192 255 0.124402 0.765546
263.5996 0.027018 497.9688 -0.09962213 0.9449431 0.3117017 192 192 192 255 0.125478 0.762177
432.6025 -1.520253 147.1426 0.07766365 0.9968636 -0.01520971 192 192 192 255 0.206773 0.677405
18.09961 -0.519653 9.65332 -0.1220553 0.9836075 -0.1327357 192 192 192 255 0.047521 0.730316
53.38477 -0.039241 499.2705 -0.03306463 0.7517407 0.6586294 192 192 192 255 0.061078 0.541893
333.2305 -1.538429 105.1953 -0.0202639 0.9997662 0.00755252 192 192 192 255 0.168594 0.693547
350.2725 -1.659954 427.415 -0.02766066 0.996989 0.07244195 192 192 192 255 0.175142 0.569546
112.3184 -0.987328 183.9092 -0.1468311 0.9888201 -0.02598966 192 192 192 255 0.056559 0.905251
499.9268 -0.117499 280.6602 0.718595 0.6938444 0.04691677 192 192 192 255 0.23314 0.861175
98.8457 -1.552722 317.3105 -0.05953101 0.9982258 0.001169076 192 192 192 255 0.078544 0.611918
499.0312 0.045748 1.655273 0.6045022 0.7896908 0.104717 192 192 192 255 0.232732 0.988279
488.8066 -0.14827 9.353516 -0.1069029 0.9932764 0.04442733 192 192 192 255 0.228074 0.984772
491.2852 -0.120114 192.9355 -0.2395519 0.9708833 0.0007838236 192 192 192 255 0.229203 0.901139
2.705078 0.046272 188.9346 -0.5616462 0.8219477 0.09463429 192 192 192 255 0.006623 0.902962
8.876953 -0.05846 336.8027 0.2611521 0.965297 0.001140889 192 192 192 255 0.043978 0.604417
8.774414 -0.141273 115.2197 0.3091723 0.9489817 -0.06201757 192 192 192 255 0.043939 0.68969
499.8398 -0.101761 0.175781 0.7243055 0.5319276 -0.4386737 192 192 192 255 0.2331 0.988953
421.8457 -0.117444 0.238281 -0.002224956 0.6585436 -0.7525393 192 192 192 255 0.197569 0.988925
496.8164 -0.747113 434.7588 0.5218775 0.846198 -0.1076705 192 192 192 255 0.231723 0.790973
395.2129 0.050673 1.362305 -0.03661814 0.5926177 -0.8046511 192 192 192 255 0.185436 0.988412
152.4111 -1.569475 66.69531 0.01700085 0.9975423 -0.06797427 192 192 192 255 0.099124 0.708364
499.8691 -0.104066 499.8076 0.5771993 0.5743673 0.5804681 192 192 192 255 0.233114 0.76134
67.34277 -1.523712 68.13379 -0.0465534 0.9980689 -0.04112453 192 192 192 255 0.06644 0.70781
118.2051 0.599095 186.2764 -0.1365688 0.9903191 -0.02484171 192 192 192 255 0.085982 0.662345
488.2744 -0.159836 490.5791 -0.05445315 0.9949356 -0.08448642 192 192 192 255 0.228162 0.545238
303.1602 -1.178768 155.7871 0.002464846 0.9970151 -0.0771689 192 192 192 255 0.157041 0.674078
279.3428 -1.532019 410.3271 0.01387116 0.9994725 0.0293656 192 192 192 255 0.147891 0.576122
434.3232 -1.737434 249.3682 0.1390506 0.9902853 -0.0001315128 192 192 192 255 0.203253 0.87543
311.208 -1.013351 2.556641 0.1182678 0.7448467 -0.6566706 192 192 192 255 0.147167 0.987868
315.7744 -0.135769 9.4375 0.1385323 0.9887747 0.05597849 192 192 192 255 0.149247 0.984734
-0.030273 -1.287166 435.8682 -0.7312113 0.6775703 0.0789217 192 192 192 255 0.005377 0.790468
8.933594 -0.050444 193.4043 0.2256634 0.9727016 0.05410827 192 192 192 255 0.009461 0.900925
375.1211 -1.529182 433.1934 -0.0320655 0.9891053 0.1436751 192 192 192 255 0.184689 0.567322
263.9111 -1.588966 433.7207 0.02585717 0.9966404 0.07771265 192 192 192 255 0.12562 0.791446
84.55078 -0.109748 0.165039 0.0004041794 0.7112985 -0.70289 192 192 192 255 0.073052 0.733967
26.87109 -0.326179 490.6553 -0.2965218 0.9511977 -0.08542685 192 192 192 255 0.017632 0.765509
375.4932 -1.089685 500.0488 0.00231977 0.5925463 0.8055331 192 192 192 255 0.176453 0.76123
49.41602 -0.209752 0.224609 -0.04813546 0.6971483 -0.7153092 192 192 192 255 0.027903 0.988931
395.1846 -0.096283 490.5947 2.477762e-05 0.9584278 -0.285335 192 192 192 255 0.192397 0.545232
263.0889 -1.553896 500.0029 -0.09324763 0.460317 0.8828438 192 192 192 255 0.125245 0.761251
3 25 196 270 
3 32 233 142 
3 130 151 85 
3 65 89 0 
3 45 85 151 
3 137 227 140 
3 101 250 117 
3 221 279 242 
3 229 89 65 
3 82 0 3 
3 56 242 1 
3 46 168 196 
3 7 89 229 
3 259 59 229 
3 229 128 7 
3 12 35 54 
3 223 59 259 
3 63 15 244 
3 112 241 275 
3 120 78 54 
3 131 171 283 
3 269 91 5 
3 83 93 189 
3 156 16 86 
3 301 103 251 
3 243 225 123 
3 116 117 93 
3 122 147 70 
3 197 145 215 
3 60 230 216 
3 199 159 59 
3 20 228 266 
3 25 264 196 
3 66 208 1 
3 244 15 208 
3 172 235 209 
3 50 180 52 
3 158 258 289 
3 302 279 221 
3 11 238 218 
3 47 243 123 
3 95 62 47 
3 257 14 274 
3 303 254 107 
3 213 121 162 
3 126 211 87 
3 214 267 27 
3 213 267 214 
3 252 99 286 
3 263 1 113 
3 169 49 304 
3 305 12 167 
3 295 9 275 
3 133 119 20 
3 154 31 296 
3 35 92 54 
3 141 261 120 
3 112 275 306 
3 247 143 31 
3 138 44 154 
3 253 44 138 
3 205 203 204 
3 31 143 296 
3 101 222 250 
3 121 213 214 
3 56 127 242 
3 5 97 209 
3 212 183 57 
3 249 122 41 
3 174 224 20 
3 260 258 158 
3 294 43 114 
3 117 153 93 
3 120 32 142 
3 47 62 243 
3 307 60 102 
3 220 174 20 
3 186 200 22 
3 82 65 0 
3 272 82 308 
3 258 186 22 
3 74 229 65 
3 214 27 217 
3 263 66 1 
3 0 193 278 
3 190 278 307 
3 307 102 190 
3 86 13 25 
3 163 309 310 
3 199 59 223 
3 95 47 94 
3 60 311 246 
3 188 240 132 
3 67 233 118 
3 229 59 128 
3 260 117 288 
3 250 288 117 
3 134 264 25 
3 296 138 154 
3 236 312 313 
3 189 153 248 
3 27 267 6 
3 314 315 74 
3 155 132 100 
3 89 193 0 
3 208 19 1 
3 109 314 192 
3 314 187 192 
3 187 237 192 
3 110 21 125 
3 232 244 64 
3 104 205 204 
3 103 71 251 
3 251 71 273 
3 251 115 277 
3 201 235 172 
3 164 316 210 
3 173 79 195 
3 5 91 317 
3 177 291 318 
3 272 291 82 
3 60 246 230 
3 33 167 12 
3 125 276 319 
3 223 259 180 
3 92 120 54 
3 247 31 10 
3 177 65 291 
3 316 164 53 
3 255 81 144 
3 320 9 32 
3 204 321 322 
3 165 48 207 
3 246 100 230 
3 79 173 191 
3 159 35 2 
3 11 265 188 
3 245 323 296 
3 242 84 183 
3 279 3 242 
3 290 10 83 
3 194 139 37 
3 204 203 324 
3 91 269 158 
3 40 23 137 
3 70 93 83 
3 89 155 193 
3 291 272 318 
3 325 177 318 
3 152 181 326 
3 294 110 125 
3 327 328 110 
3 90 76 68 
3 50 48 103 
3 294 125 43 
3 43 125 319 
3 83 189 236 
3 236 189 312 
3 291 65 82 
3 202 48 165 
3 44 139 154 
3 165 207 329 
3 185 229 74 
3 187 74 237 
3 264 46 196 
3 239 27 42 
3 257 274 208 
3 330 19 208 
3 12 54 234 
3 77 53 126 
3 331 332 333 
3 280 20 231 
3 255 220 280 
3 286 148 29 
3 293 36 175 
3 334 293 175 
3 252 286 29 
3 162 121 225 
3 335 18 219 
3 71 103 48 
3 52 180 285 
3 251 273 115 
3 115 273 202 
3 62 160 243 
3 303 336 254 
3 276 337 319 
3 51 35 12 
3 17 51 12 
3 184 305 167 
3 28 66 262 
3 5 26 97 
3 160 170 243 
3 180 293 338 
3 293 339 338 
3 26 5 317 
3 51 146 179 
3 247 10 290 
3 247 290 38 
3 58 38 340 
3 52 285 341 
3 52 341 48 
3 137 266 228 
3 268 287 235 
3 83 236 194 
3 55 76 75 
3 29 134 25 
3 176 277 63 
3 176 206 277 
3 178 102 80 
3 222 121 73 
3 44 37 139 
3 111 342 343 
3 94 235 201 
3 344 116 345 
3 10 41 83 
3 117 116 101 
3 222 73 150 
3 150 250 222 
3 296 143 245 
3 346 162 225 
3 36 347 175 
3 155 100 193 
3 154 98 5 
3 178 174 61 
3 220 61 174 
3 339 293 334 
3 335 348 18 
3 257 208 15 
3 183 40 57 
3 192 65 177 
3 93 153 189 
3 115 202 111 
3 224 80 216 
3 148 66 28 
3 76 55 156 
3 33 12 230 
3 230 234 69 
3 40 137 140 
3 23 266 137 
3 135 36 293 
3 240 188 167 
3 263 264 262 
3 206 251 277 
3 94 47 268 
3 41 70 83 
3 139 98 154 
3 144 119 84 
3 119 133 106 
3 13 72 25 
3 299 349 282 
3 237 74 65 
3 204 324 321 
3 90 75 76 
3 183 23 40 
3 286 244 148 
3 64 244 286 
3 51 2 35 
3 0 61 220 
3 0 220 255 
3 350 147 122 
3 66 263 262 
3 178 80 174 
3 100 33 230 
3 345 147 350 
3 345 116 147 
3 9 295 118 
3 351 308 82 
3 109 177 325 
3 8 55 256 
3 132 240 33 
3 0 190 61 
3 237 65 192 
3 298 238 7 
3 7 11 89 
3 352 163 310 
3 111 161 342 
3 156 86 233 
3 224 216 228 
3 259 135 180 
3 54 45 234 
3 233 45 142 
3 54 78 45 
3 89 188 155 
3 50 52 48 
3 332 353 88 
3 109 192 177 
3 90 68 103 
3 68 50 103 
3 200 354 22 
3 141 92 35 
3 141 120 92 
3 126 87 181 
3 79 191 34 
3 38 83 355 
3 344 123 101 
3 252 29 25 
3 72 252 25 
3 50 241 223 
3 10 356 249 
3 190 102 178 
3 269 260 158 
3 17 146 51 
3 191 173 127 
3 295 67 118 
3 225 121 222 
3 298 146 39 
3 238 298 39 
3 36 259 347 
3 106 133 23 
3 166 57 226 
3 357 219 358 
3 83 194 355 
3 59 159 108 
3 96 359 360 
3 166 212 57 
3 19 56 1 
3 127 221 242 
3 327 110 294 
3 118 233 32 
3 50 223 180 
3 343 361 182 
3 30 182 361 
3 305 17 12 
3 232 4 136 
3 8 256 136 
3 171 24 283 
3 199 306 362 
3 263 113 105 
3 143 58 245 
3 137 130 227 
3 248 117 260 
3 119 363 20 
3 195 198 173 
3 77 126 181 
3 123 225 101 
3 225 222 101 
3 364 53 77 
3 364 316 53 
3 219 18 299 
3 67 68 76 
3 244 208 66 
3 346 225 243 
3 105 46 264 
3 263 105 264 
3 292 108 179 
3 365 79 34 
3 301 176 63 
3 67 76 156 
3 366 239 250 
3 367 163 352 
3 368 109 325 
3 130 129 227 
3 96 360 107 
3 265 184 188 
3 188 184 167 
3 115 111 343 
3 161 165 342 
3 296 253 138 
3 15 63 182 
3 295 275 68 
3 35 159 141 
3 369 370 371 
3 29 148 28 
3 155 188 132 
3 151 130 137 
3 151 137 228 
3 304 49 372 
3 236 313 98 
3 153 117 248 
3 159 362 141 
3 247 38 58 
3 78 142 45 
3 332 88 333 
3 198 221 127 
3 278 373 307 
3 127 173 198 
3 363 231 20 
3 180 135 293 
3 218 238 374 
3 209 235 5 
3 147 116 93 
3 3 255 149 
3 233 85 45 
3 130 85 270 
3 130 196 129 
3 270 196 130 
3 9 118 32 
3 367 369 163 
3 375 376 369 
3 28 134 29 
3 21 328 337 
3 202 161 111 
3 64 286 99 
3 311 100 246 
3 7 179 298 
3 128 179 7 
3 21 276 125 
3 208 274 330 
3 15 30 257 
3 67 156 233 
3 300 302 221 
3 238 39 374 
3 278 193 373 
3 41 122 70 
3 281 171 131 
3 301 251 176 
3 176 251 206 
3 303 377 336 
3 369 371 163 
3 47 356 124 
3 77 181 152 
3 376 378 369 
3 53 164 126 
3 259 379 347 
3 165 329 342 
3 34 127 56 
3 34 191 127 
3 3 149 84 
3 271 226 129 
3 303 107 380 
3 226 57 140 
3 57 40 140 
3 381 185 315 
3 219 282 382 
3 328 21 110 
3 108 159 2 
3 242 3 84 
3 113 1 383 
3 174 80 224 
3 148 244 66 
3 135 259 36 
3 326 181 384 
3 194 236 139 
3 139 236 98 
3 28 262 134 
3 38 355 340 
3 241 50 275 
3 292 179 128 
3 314 74 187 
3 273 71 202 
3 23 133 266 
3 79 385 195 
3 126 164 211 
3 261 141 362 
3 63 277 182 
3 182 115 343 
3 183 84 23 
3 262 264 134 
3 114 43 319 
3 374 39 17 
3 149 144 84 
3 381 229 185 
3 235 287 5 
3 5 287 154 
3 230 12 234 
3 179 146 298 
3 234 45 151 
3 69 234 151 
3 386 172 209 
3 102 60 216 
3 42 186 258 
3 387 131 388 
3 181 87 384 
3 68 67 295 
3 193 100 311 
3 385 300 198 
3 21 337 276 
3 149 255 144 
3 195 385 198 
3 145 197 389 
3 180 338 285 
3 284 306 199 
3 199 362 159 
3 357 335 219 
3 84 106 23 
3 314 109 368 
3 355 194 37 
3 17 39 146 
3 98 269 5 
3 356 10 124 
3 344 101 116 
3 219 299 282 
3 78 120 142 
3 131 283 388 
3 207 48 341 
3 207 341 329 
3 216 230 69 
3 228 216 69 
3 217 27 239 
3 11 218 265 
3 304 372 390 
3 284 199 223 
3 280 220 20 
3 59 292 128 
3 147 93 70 
3 391 19 330 
3 232 99 4 
3 64 99 232 
3 61 190 178 
3 1 242 157 
3 91 158 392 
3 47 124 268 
3 268 124 31 
3 275 50 68 
3 193 311 373 
3 277 115 182 
3 393 32 120 
3 164 210 211 
3 7 238 11 
3 19 34 56 
3 358 219 382 
3 256 301 136 
3 20 224 228 
3 228 69 151 
3 129 226 227 
3 255 280 81 
3 332 394 353 
3 34 19 365 
3 19 391 365 
3 163 371 309 
3 268 31 287 
3 185 74 315 
3 290 83 38 
3 232 301 244 
3 89 11 188 
3 107 360 395 
3 301 232 136 
3 86 85 233 
3 94 268 235 
3 287 31 154 
3 84 119 106 
3 107 395 380 
3 168 271 129 
3 366 217 239 
3 301 256 103 
3 245 58 340 
3 245 340 323 
3 364 77 152 
3 258 239 42 
3 202 165 161 
3 100 132 33 
3 259 229 379 
3 250 239 288 
3 143 247 58 
3 301 63 244 
3 285 338 341 
3 374 17 305 
3 3 0 255 
3 396 24 171 
3 55 75 256 
3 226 140 227 
3 257 30 361 
3 239 258 288 
3 383 157 397 
3 1 157 383 
3 90 256 75 
3 299 348 349 
3 10 249 41 
3 20 266 133 
3 14 330 274 
3 102 216 80 
3 229 381 379 
3 98 313 269 
3 59 108 292 
3 25 270 86 
3 85 86 270 
3 360 398 395 
3 258 260 288 
3 302 351 279 
3 104 204 322 
3 393 320 32 
3 112 223 241 
3 351 82 279 
3 82 3 279 
3 198 300 221 
3 2 51 179 
3 18 348 299 
3 16 8 86 
3 261 393 120 
3 281 396 171 
3 31 124 10 
3 168 129 196 
3 112 284 223 
3 284 112 306 
3 33 240 167 
3 15 182 30 
3 254 96 107 
3 289 258 22 
3 297 183 212 
3 361 14 257 
3 0 278 190 
3 256 90 103 
3 397 297 212 
3 157 297 397 
3 242 297 157 
3 202 71 48 
3 296 323 253 
3 242 183 297 
3 108 2 179 
3 8 13 86 
