ply
format ascii 1.0
comment VCGLIB generated
comment TextureFile Dungeons_2_Texture_01_A.png
element vertex 241
property float x
property float y
property float z
property float nx
property float ny
property float nz
property uchar red
property uchar green
property uchar blue
property uchar alpha
property float texture_u
property float texture_v
element face 246
property list uchar int vertex_indices
end_header
500 0 41.44818 4.384606e-05 -4.384606e-05 1 192 192 192 255 0.235298 0.756923
500 500 31.19531 0.0002186941 0.0002186941 1 192 192 192 255 0.235298 0.987104
304.9551 390.7989 31.19531 0.1720614 0.04616779 0.9840038 192 192 192 255 0.145507 0.691866
408.4004 291.7329 31.19531 4.245263e-05 7.501796e-05 1 192 192 192 255 0.193129 0.64626
304.9551 469.7329 31.19531 0.0001325859 -0.1784363 0.9839515 192 192 192 255 0.145507 0.97317
500 291.7329 31.19531 0.6098081 0.1769672 0.7725392 192 192 192 255 0.235298 0.64626
500 469.7329 31.19531 0.01346559 -0.1786291 0.9838244 192 192 192 255 0.235298 0.97317
323.1548 398.5691 22.39531 0.2663874 0.16145 0.9502482 192 192 192 255 0.153885 0.695444
415.709 309.9329 22.39531 2.521571e-05 9.924347e-05 1 192 192 192 255 0.196494 0.654639
323.1548 451.5328 22.39531 0.0001766649 -0.4349993 0.9004308 192 192 192 255 0.153885 0.719826
500 309.9329 22.39531 0.00025133 3.646817e-05 1 192 192 192 255 0.235298 0.654639
500 451.5328 22.39531 0.000120982 -0.130204 0.9914873 192 192 192 255 0.235298 0.719826
500 115.4667 31.19531 0.0007006241 0.3894964 0.9210278 192 192 192 255 0.235298 0.810079
500 91.22826 41.44818 3.797487e-05 0.05407481 0.9985369 192 192 192 255 0.235298 0.798921
288.811 362.1864 31.19531 -0.08079841 -0.3148068 0.9457105 192 192 192 255 0.138075 0.92366
337.335 314.9832 31.19531 -0.0001093535 -6.546841e-05 1 192 192 192 255 0.160413 0.901929
337.335 115.4667 31.19531 -4.440113e-05 0.2111315 0.9774577 192 192 192 255 0.160413 0.810079
0 0 41.44818 -1.113957e-05 -1.119508e-05 1 192 192 192 255 0.005117 0.756923
0 500 31.19531 -0.0003387276 0.0003387276 0.9999999 192 192 192 255 0.105847 0.987104
195.0449 390.7989 31.19531 -0.1201047 0.1245176 0.9849215 192 192 192 255 0.094909 0.936832
91.59961 291.7329 31.19531 -0.01416718 0.01482052 0.9997898 192 192 192 255 0.047286 0.64626
195.0449 469.7329 31.19531 -7.367801e-05 -7.367683e-05 1 192 192 192 255 0.094909 0.97317
0 291.7329 31.19531 -0.6098081 0.1769672 0.7725392 192 192 192 255 0.005117 0.64626
0 469.7329 31.19531 -0.0005080226 -0.0001474285 0.9999999 192 192 192 255 0.005117 0.97317
176.8452 398.5691 22.39531 -0.3010357 0.3141727 0.9003739 192 192 192 255 0.08653 0.695444
84.29053 309.9329 22.39531 -0.06297869 0.06582174 0.995842 192 192 192 255 0.043921 0.654639
176.8452 451.5328 22.39531 -0.1518112 -0.1518088 0.9766819 192 192 192 255 0.08653 0.719826
0 309.9329 22.39531 -0.0002513315 3.646838e-05 1 192 192 192 255 0.005117 0.654639
0 451.5328 22.39531 -0.0002513104 -3.646522e-05 1 192 192 192 255 0.005117 0.719826
0 115.4667 31.19531 -0.0007006241 0.3894964 0.9210278 192 192 192 255 0.005117 0.810079
0 91.22826 41.44818 -0.000218555 0.1832889 0.983059 192 192 192 255 0.005117 0.798921
211.189 362.1864 31.19531 0.000322839 -0.0005633694 0.9999998 192 192 192 255 0.10234 0.92366
162.665 314.9832 31.19531 9.057183e-05 -2.406924e-05 1 192 192 192 255 0.080002 0.901929
162.665 115.4667 31.19531 2.427665e-05 0.1937901 0.981043 192 192 192 255 0.080002 0.810079
284.75 352.1864 22.69531 -0.1730913 -0.3323218 0.9271471 192 192 192 255 0.136205 0.919056
327.335 310.7602 22.69531 -0.1149958 -0.0001683793 0.993366 192 192 192 255 0.15581 0.899985
327.335 115.4667 22.69531 -0.1147601 0.03732985 0.9926916 192 192 192 255 0.15581 0.810079
215.2505 352.1864 22.69531 0.1076526 -0.3588979 0.9271479 192 192 192 255 0.10421 0.919056
172.665 310.7601 22.69531 0.3277232 -0.1780659 0.9278417 192 192 192 255 0.084606 0.899985
172.665 115.4667 22.69531 0.01475686 0.999544 0.02634701 192 192 192 255 0.084606 0.810079
279.4692 339.1864 21.19536 -0.2324257 -0.5411823 0.8081461 192 192 192 255 0.129755 0.678544
314.335 305.27 21.19536 -0.9586934 -0.001313805 0.2844384 192 192 192 255 0.129755 0.66293
314.335 115.4667 21.19531 -0.6905538 0.02154546 0.72296 192 192 192 255 0.129755 0.575552
220.5308 339.1864 21.19527 0.1799419 -0.7010965 0.6899889 192 192 192 255 0.106641 0.668106
185.665 305.2694 21.19525 1 -0.0001092302 0.0002037228 192 192 192 255 0.09059 0.652492
185.665 115.4667 21.19531 0.9999251 0.01224106 0.0002469112 192 192 192 255 0.09059 0.565114
500 -0 -41.44818 2.192303e-05 -2.192303e-05 -1 192 192 192 255 0.235298 0.987104
500 500 -31.19531 0.0003386703 0.0003386703 -0.9999999 192 192 192 255 0.134569 0.756923
304.9551 390.7989 -31.19531 0.1234958 0.1100657 -0.9862223 192 192 192 255 0.145507 0.562229
408.4004 291.7329 -31.19531 0.01536629 0.01607234 -0.9997528 192 192 192 255 0.193129 0.607836
304.9551 469.7329 -31.19531 7.367801e-05 -7.367683e-05 -1 192 192 192 255 0.145507 0.770857
500 291.7329 -31.19531 0.6098081 0.1769672 -0.7725392 192 192 192 255 0.235298 0.607836
500 469.7329 -31.19531 0.0003386817 -0.0001474285 -0.9999999 192 192 192 255 0.235298 0.770857
323.1548 398.5691 -22.39531 0.3010378 0.3141729 -0.900373 192 192 192 255 0.153885 0.558652
415.709 309.9329 -22.39531 0.07228724 0.07553935 -0.9945192 192 192 192 255 0.196494 0.599457
323.1548 451.5328 -22.39531 0.1518112 -0.1518088 -0.9766819 192 192 192 255 0.153885 0.53427
500 309.9329 -22.39531 0.00025133 3.646817e-05 -1 192 192 192 255 0.235298 0.599457
500 451.5328 -22.39531 0.0003350786 -3.646501e-05 -0.9999999 192 192 192 255 0.235298 0.53427
500 115.4667 -31.19531 0.0007006241 0.3894964 -0.9210278 192 192 192 255 0.235298 0.933948
500 91.22826 -41.44818 3.841444e-05 0.05367632 -0.9985584 192 192 192 255 0.235298 0.945105
288.811 362.1864 -31.19531 -0.0001588995 -0.0006191044 -0.9999998 192 192 192 255 0.138075 0.820367
337.335 314.9832 -31.19531 -8.730559e-05 -5.226862e-05 -1 192 192 192 255 0.160413 0.842098
337.335 115.4667 -31.19531 -4.471031e-05 0.2098402 -0.9777357 192 192 192 255 0.160413 0.933948
0 0 -41.44818 -2.238876e-05 -2.244419e-05 -1 192 192 192 255 0.005117 0.987104
0 500 -31.19531 -0.0002045607 0.0002045607 -1 192 192 192 255 0.134569 0.987104
195.0449 390.7989 -31.19531 -0.172061 0.0461675 -0.9840038 192 192 192 255 0.094909 0.807195
91.59961 291.7329 -31.19531 -4.245226e-05 7.501768e-05 -1 192 192 192 255 0.047286 0.607836
195.0449 469.7329 -31.19531 -0.0001202345 -0.1784562 -0.9839479 192 192 192 255 0.094909 0.770857
0 291.7329 -31.19531 -0.6098081 0.1769672 -0.7725392 192 192 192 255 0.105847 0.891226
0 469.7329 -31.19531 -0.003384162 -0.1786443 -0.9839079 192 192 192 255 0.105847 0.97317
176.8452 398.5691 -22.39531 -0.2663859 0.161449 -0.9502488 192 192 192 255 0.08653 0.558652
84.29053 309.9329 -22.39531 -2.521563e-05 9.924388e-05 -1 192 192 192 255 0.043921 0.599457
176.8452 451.5328 -22.39531 -0.0001718586 -0.4350071 -0.900427 192 192 192 255 0.08653 0.53427
-0 309.9329 -22.39531 -0.0002513315 3.646838e-05 -1 192 192 192 255 0.109898 0.899604
-0 451.5328 -22.39531 -0.0001774837 -0.1374185 -0.9905131 192 192 192 255 0.005117 0.53427
0 115.4667 -31.19531 -0.0007006241 0.3894964 -0.9210278 192 192 192 255 0.005117 0.933948
0 91.22826 -41.44818 -0.0002034424 0.1767547 -0.984255 192 192 192 255 0.005117 0.945105
211.189 362.1864 -31.19531 0.1380386 -0.2408839 -0.9606874 192 192 192 255 0.102341 0.820367
162.665 314.9832 -31.19531 0.1042981 -2.854293e-05 -0.9945461 192 192 192 255 0.080002 0.842098
162.665 115.4667 -31.19531 0.1082562 0.1700841 -0.9794651 192 192 192 255 0.080002 0.933948
284.75 352.1864 -22.69531 -0.1730913 -0.3323218 -0.9271471 192 192 192 255 0.136205 0.824971
327.335 310.7602 -22.69531 -0.3561515 -0.1107469 -0.9278423 192 192 192 255 0.15581 0.844042
327.335 115.4667 -22.69531 -0.00917794 0.999544 -0.02876968 192 192 192 255 0.15581 0.933948
215.2505 352.1864 -22.69531 0.1076526 -0.3588979 -0.9271479 192 192 192 255 0.10421 0.824971
172.665 310.7601 -22.69531 0.6472276 -0.0002799419 -0.7622967 192 192 192 255 0.084606 0.844042
172.665 115.4667 -22.69531 0.6461952 0.06046401 -0.7607732 192 192 192 255 0.084606 0.933948
279.4692 339.1864 -21.19536 -0.3103796 -0.7413092 -0.5950842 192 192 192 255 0.11024 0.678544
314.335 305.27 -21.19536 -1 -6.413122e-05 -0.0002392194 192 192 192 255 0.11024 0.66293
314.335 115.4667 -21.19531 -0.9999577 0.009194143 -9.179443e-05 192 192 192 255 0.11024 0.575552
220.5308 339.1864 -21.19527 0.341975 -0.6366363 -0.6911927 192 192 192 255 0.11045 0.640614
185.665 305.2694 -21.19525 0.9999931 -0.001055128 -0.003568785 192 192 192 255 0.12962 0.66293
185.665 115.4667 -21.19531 0.9999583 0.009133876 -0.0001861266 192 192 192 255 0.129965 0.901631
82.7155 91.22826 41.44818 0.002506172 0.08499649 0.9963781 192 192 192 255 0.043196 0.798921
246.012 91.22826 41.44818 -0.001167331 0.1229975 0.9924063 192 192 192 255 0.118372 0.798921
167.6944 104.3772 35.88616 -1.48036e-08 0.2953304 0.9553952 192 192 192 255 0.082317 0.804975
156.3728 82.29852 41.44821 -2.681902e-09 0.05321221 0.9985833 192 192 192 255 0.077105 0.79481
314.335 180.9447 21.19533 -0.9968785 0.005091345 0.07878666 192 192 192 255 0.129755 0.605695
314.335 280.1021 21.19535 -0.9303719 -0.02160609 0.3659801 192 192 192 255 0.129755 0.651344
322.2354 253.3092 22.10693 -0.4590643 -2.185158e-07 0.8884031 192 192 192 255 0.153462 0.628571
314.335 249.5213 12.53244 -0.9837605 -4.54482e-08 0.1794866 192 192 192 255 0.125767 0.637265
371.4872 469.7328 31.19531 0.00501345 -0.2691917 0.9630736 192 192 192 255 0.176136 0.97317
493.9702 469.7329 31.19531 -0.01316367 -0.1993117 0.9798477 192 192 192 255 0.232522 0.97317
453.3483 480.6148 31.19531 2.756511e-08 -0.1104816 0.9938782 192 192 192 255 0.213821 0.97818
441.3593 460.697 26.82631 7.277686e-08 -0.2896232 0.9571408 192 192 192 255 0.208302 0.724045
118.6244 317.6136 31.19531 -0.1402646 0.1648059 0.9763017 192 192 192 255 0.059727 0.658175
180.696 377.0575 31.19531 -0.1042074 0.09556301 0.9899538 192 192 192 255 0.088303 0.68554
140.7952 352.3761 26.47034 -0.2463295 0.257219 0.9344304 192 192 192 255 0.069934 0.674178
150.8941 331.6542 31.19531 -0.07708254 0.08049001 0.9937704 192 192 192 255 0.074583 0.909604
185.665 177.4622 -21.19529 0.9832647 0.0401687 -0.1776996 192 192 192 255 0.12962 0.604092
185.665 285.5927 -21.19526 0.986222 -0.04454281 -0.1593178 192 192 192 255 0.12962 0.653871
172.665 235.5278 -22.69531 0.6991341 1.006085e-07 -0.7149907 192 192 192 255 0.084606 0.878676
185.665 237.3023 -7.651259 0.9588255 9.556565e-08 -0.2839958 192 192 192 255 0.123385 0.63164
253.815 91.22826 -41.44818 -0.001682658 0.1279218 -0.9917829 192 192 192 255 0.121964 0.945105
91.5525 91.22826 -41.44818 0.002615089 0.08448189 -0.9964216 192 192 192 255 0.047264 0.945105
187.0322 104.1362 -35.98812 6.291336e-10 0.274377 -0.9616222 192 192 192 255 0.09122 0.939164
189.2638 79.53287 -41.44821 2.254468e-10 0.05236003 -0.9986283 192 192 192 255 0.092247 0.95049
378.7522 320.1259 -31.19531 0.1275578 0.1464258 -0.9809631 192 192 192 255 0.17948 0.594764
335.3052 340.9939 -31.19531 0.03794995 0.03962756 -0.9984936 192 192 192 255 0.159479 0.830124
348.4649 358.6124 -27.88428 0.2309269 0.2411348 -0.942617 192 192 192 255 0.165537 0.577047
121.6245 469.7329 -31.19531 -0.003057547 -0.271639 -0.9623944 192 192 192 255 0.061108 0.770857
17.99602 469.7329 -31.19531 0.007808381 -0.1943574 -0.9808998 192 192 192 255 0.013402 0.770857
49.4696 479.5364 -31.19531 0 -0.08051311 -0.9967536 192 192 192 255 0.027891 0.766344
64.89037 463.6624 -28.26013 -1.254057e-09 -0.2997916 -0.9540048 192 192 192 255 0.03499 0.528686
304.9551 469.7329 31.19531 0.0001325859 -0.1784363 0.9839515 192 192 192 255 0.145507 0.728204
371.4872 469.7328 31.19531 0.00501345 -0.2691917 0.9630736 192 192 192 255 0.176136 0.728204
500 469.7329 31.19531 0.01346559 -0.1786291 0.9838244 192 192 192 255 0.235298 0.728204
493.9702 469.7329 31.19531 -0.01316367 -0.1993117 0.9798477 192 192 192 255 0.232522 0.728204
408.4004 291.7329 31.19531 4.245263e-05 7.501796e-05 1 192 192 192 255 0.193129 0.891226
304.9551 390.7989 31.19531 0.1720614 0.04616779 0.9840038 192 192 192 255 0.145507 0.936832
500 500 31.19531 0.0002186941 0.0002186941 1 192 192 192 255 0.105847 0.756923
500 291.7329 31.19531 0.6098081 0.1769672 0.7725392 192 192 192 255 0.235298 0.891226
0 500 31.19531 -0.0003387276 0.0003387276 0.9999999 192 192 192 255 0.005117 0.987104
195.0449 390.7989 31.19531 -0.1201047 0.1245176 0.9849215 192 192 192 255 0.094909 0.691866
195.0449 469.7329 31.19531 -7.367801e-05 -7.367683e-05 1 192 192 192 255 0.094909 0.728204
0 469.7329 31.19531 -0.0005080226 -0.0001474285 0.9999999 192 192 192 255 0.005117 0.728204
0 469.7329 31.19531 -0.0005080226 -0.0001474285 0.9999999 192 192 192 255 0.134569 0.97317
0 500 31.19531 -0.0003387276 0.0003387276 0.9999999 192 192 192 255 0.134569 0.987104
0 500 -31.19531 -0.0002045607 0.0002045607 -1 192 192 192 255 0.105847 0.987104
0 291.7329 31.19531 -0.6098081 0.1769672 0.7725392 192 192 192 255 0.134569 0.891226
0 309.9329 22.39531 -0.0002513315 3.646838e-05 1 192 192 192 255 0.130518 0.899604
91.59961 291.7329 31.19531 -0.01416718 0.01482052 0.9997898 192 192 192 255 0.047286 0.891226
118.6244 317.6136 31.19531 -0.1402646 0.1648059 0.9763017 192 192 192 255 0.059727 0.90314
180.696 377.0575 31.19531 -0.1042074 0.09556301 0.9899538 192 192 192 255 0.088303 0.930506
0 291.7329 31.19531 -0.6098081 0.1769672 0.7725392 192 192 192 255 0.005117 0.891226
327.335 310.7602 22.69531 -0.1149958 -0.0001683793 0.993366 192 192 192 255 0.15581 0.65502
284.75 352.1864 22.69531 -0.1730913 -0.3323218 0.9271471 192 192 192 255 0.136205 0.674091
279.4692 339.1864 21.19536 -0.2324257 -0.5411823 0.8081461 192 192 192 255 0.133774 0.668106
314.335 305.27 21.19536 -0.9586934 -0.001313805 0.2844384 192 192 192 255 0.149825 0.652492
327.335 115.4667 22.69531 -0.1147601 0.03732985 0.9926916 192 192 192 255 0.15581 0.565114
314.335 115.4667 21.19531 -0.6905538 0.02154546 0.72296 192 192 192 255 0.149825 0.565114
314.335 280.1021 21.19535 -0.9303719 -0.02160609 0.3659801 192 192 192 255 0.149825 0.640906
314.335 180.9447 21.19533 -0.9968785 0.005091345 0.07878666 192 192 192 255 0.149825 0.595257
215.2505 352.1864 22.69531 0.1076526 -0.3588979 0.9271479 192 192 192 255 0.10421 0.674091
172.665 310.7601 22.69531 0.3277232 -0.1780659 0.9278417 192 192 192 255 0.084606 0.65502
172.665 115.4667 22.69531 0.01475686 0.999544 0.02634701 192 192 192 255 0.084606 0.565114
162.665 115.4667 31.19531 2.427665e-05 0.1937901 0.981043 192 192 192 255 0.105847 0.912219
185.665 115.4667 21.19531 0.9999251 0.01224106 0.0002469112 192 192 192 255 0.11045 0.901631
172.665 115.4667 22.69531 0.01475686 0.999544 0.02634701 192 192 192 255 0.10976 0.907616
314.335 115.4667 21.19531 -0.6905538 0.02154546 0.72296 192 192 192 255 0.11045 0.842396
337.335 115.4667 31.19531 -4.440113e-05 0.2111315 0.9774577 192 192 192 255 0.105847 0.831808
327.335 115.4667 22.69531 -0.1147601 0.03732985 0.9926916 192 192 192 255 0.10976 0.836411
314.335 115.4667 -21.19531 -0.9999577 0.009194143 -9.179443e-05 192 192 192 255 0.129965 0.842396
500 500 -31.19531 0.0003386703 0.0003386703 -0.9999999 192 192 192 255 0.235298 0.756923
304.9551 469.7329 -31.19531 7.367801e-05 -7.367683e-05 -1 192 192 192 255 0.145507 0.525891
500 469.7329 -31.19531 0.0003386817 -0.0001474285 -0.9999999 192 192 192 255 0.235298 0.525891
500 469.7329 31.19531 0.01346559 -0.1786291 0.9838244 192 192 192 255 0.105847 0.97317
500 469.7329 -31.19531 0.0003386817 -0.0001474285 -0.9999999 192 192 192 255 0.134569 0.97317
500 500 -31.19531 0.0003386703 0.0003386703 -0.9999999 192 192 192 255 0.134569 0.987104
500 500 31.19531 0.0002186941 0.0002186941 1 192 192 192 255 0.105847 0.987104
500 309.9329 22.39531 0.00025133 3.646817e-05 1 192 192 192 255 0.109898 0.899604
500 309.9329 -22.39531 0.00025133 3.646817e-05 -1 192 192 192 255 0.130518 0.899604
500 451.5328 -22.39531 0.0003350786 -3.646501e-05 -0.9999999 192 192 192 255 0.130518 0.964792
500 451.5328 22.39531 0.000120982 -0.130204 0.9914873 192 192 192 255 0.109898 0.964792
408.4004 291.7329 -31.19531 0.01536629 0.01607234 -0.9997528 192 192 192 255 0.193129 0.852802
378.7522 320.1259 -31.19531 0.1275578 0.1464258 -0.9809631 192 192 192 255 0.17948 0.83973
304.9551 390.7989 -31.19531 0.1234958 0.1100657 -0.9862223 192 192 192 255 0.145507 0.807195
0 0 -41.44818 -2.238876e-05 -2.244419e-05 -1 192 192 192 255 0.101126 0.987104
500 -0 -41.44818 2.192303e-05 -2.192303e-05 -1 192 192 192 255 0.101126 0.756923
500 0 41.44818 4.384606e-05 -4.384606e-05 1 192 192 192 255 0.139289 0.756923
0 0 41.44818 -1.113957e-05 -1.119508e-05 1 192 192 192 255 0.139289 0.987104
500 291.7329 -31.19531 0.6098081 0.1769672 -0.7725392 192 192 192 255 0.235298 0.852802
220.5308 339.1864 21.19527 0.1799419 -0.7010965 0.6899889 192 192 192 255 0.129965 0.640614
279.4692 339.1864 -21.19536 -0.3103796 -0.7413092 -0.5950842 192 192 192 255 0.11045 0.613481
279.4692 339.1864 21.19536 -0.2324257 -0.5411823 0.8081461 192 192 192 255 0.129965 0.613481
0 500 -31.19531 -0.0002045607 0.0002045607 -1 192 192 192 255 0.005117 0.756923
0 469.7329 -31.19531 -0.003384162 -0.1786443 -0.9839079 192 192 192 255 0.005117 0.770857
195.0449 390.7989 -31.19531 -0.172061 0.0461675 -0.9840038 192 192 192 255 0.094909 0.562229
195.0449 469.7329 -31.19531 -0.0001202345 -0.1784562 -0.9839479 192 192 192 255 0.094909 0.525891
121.6245 469.7329 -31.19531 -0.003057547 -0.271639 -0.9623944 192 192 192 255 0.061108 0.525891
17.99602 469.7329 -31.19531 0.007808381 -0.1943574 -0.9808998 192 192 192 255 0.013402 0.525891
0 469.7329 -31.19531 -0.003384162 -0.1786443 -0.9839079 192 192 192 255 0.005117 0.525891
0 291.7329 -31.19531 -0.6098081 0.1769672 -0.7725392 192 192 192 255 0.005117 0.607836
-0 309.9329 -22.39531 -0.0002513315 3.646838e-05 -1 192 192 192 255 0.005117 0.599457
91.59961 291.7329 -31.19531 -4.245226e-05 7.501768e-05 -1 192 192 192 255 0.047286 0.852802
0 291.7329 -31.19531 -0.6098081 0.1769672 -0.7725392 192 192 192 255 0.005117 0.852802
185.665 305.2694 21.19525 1 -0.0001092302 0.0002037228 192 192 192 255 0.110105 0.66293
220.5308 339.1864 -21.19527 0.341975 -0.6366363 -0.6911927 192 192 192 255 0.12962 0.678544
220.5308 339.1864 21.19527 0.1799419 -0.7010965 0.6899889 192 192 192 255 0.110105 0.678544
185.665 115.4667 21.19531 0.9999251 0.01224106 0.0002469112 192 192 192 255 0.110105 0.575552
185.665 115.4667 -21.19531 0.9999583 0.009133876 -0.0001861266 192 192 192 255 0.12962 0.575552
327.335 310.7602 -22.69531 -0.3561515 -0.1107469 -0.9278423 192 192 192 255 0.15581 0.599076
314.335 305.27 -21.19536 -1 -6.413122e-05 -0.0002392194 192 192 192 255 0.149825 0.601604
279.4692 339.1864 -21.19536 -0.3103796 -0.7413092 -0.5950842 192 192 192 255 0.133774 0.58599
284.75 352.1864 -22.69531 -0.1730913 -0.3323218 -0.9271471 192 192 192 255 0.136205 0.580005
327.335 115.4667 -22.69531 -0.00917794 0.999544 -0.02876968 192 192 192 255 0.15581 0.688982
314.335 115.4667 -21.19531 -0.9999577 0.009194143 -9.179443e-05 192 192 192 255 0.149825 0.688982
220.5308 339.1864 -21.19527 0.341975 -0.6366363 -0.6911927 192 192 192 255 0.106641 0.58599
215.2505 352.1864 -22.69531 0.1076526 -0.3588979 -0.9271479 192 192 192 255 0.10421 0.580005
185.665 305.2694 -21.19525 0.9999931 -0.001055128 -0.003568785 192 192 192 255 0.09059 0.601604
172.665 310.7601 -22.69531 0.6472276 -0.0002799419 -0.7622967 192 192 192 255 0.084606 0.599076
185.665 285.5927 -21.19526 0.986222 -0.04454281 -0.1593178 192 192 192 255 0.09059 0.610662
172.665 235.5278 -22.69531 0.6991341 1.006085e-07 -0.7149907 192 192 192 255 0.084606 0.63371
162.665 115.4667 -31.19531 0.1082562 0.1700841 -0.9794651 192 192 192 255 0.134569 0.912219
172.665 115.4667 -22.69531 0.6461952 0.06046401 -0.7607732 192 192 192 255 0.130656 0.907616
327.335 115.4667 -22.69531 -0.00917794 0.999544 -0.02876968 192 192 192 255 0.130656 0.836411
337.335 115.4667 -31.19531 -4.471031e-05 0.2098402 -0.9777357 192 192 192 255 0.134569 0.831808
0 451.5328 22.39531 -0.0002513104 -3.646522e-05 1 192 192 192 255 0.130518 0.964792
-0 451.5328 -22.39531 -0.0001774837 -0.1374185 -0.9905131 192 192 192 255 0.109898 0.964792
500 291.7329 31.19531 0.6098081 0.1769672 0.7725392 192 192 192 255 0.105847 0.891226
500 291.7329 -31.19531 0.6098081 0.1769672 -0.7725392 192 192 192 255 0.134569 0.891226
500 115.4667 31.19531 0.0007006241 0.3894964 0.9210278 192 192 192 255 0.105847 0.81008
500 115.4667 -31.19531 0.0007006241 0.3894964 -0.9210278 192 192 192 255 0.134569 0.81008
500 91.22826 41.44818 3.797487e-05 0.05407481 0.9985369 192 192 192 255 0.101127 0.798921
500 91.22826 -41.44818 3.841444e-05 0.05367632 -0.9985584 192 192 192 255 0.139289 0.798921
500 0 41.44818 4.384606e-05 -4.384606e-05 1 192 192 192 255 0.101127 0.756923
500 -0 -41.44818 2.192303e-05 -2.192303e-05 -1 192 192 192 255 0.139289 0.756923
0 0 -41.44818 -2.238876e-05 -2.244419e-05 -1 192 192 192 255 0.101127 0.756923
0 0 41.44818 -1.113957e-05 -1.119508e-05 1 192 192 192 255 0.139289 0.756923
0 91.22826 41.44818 -0.000218555 0.1832889 0.983059 192 192 192 255 0.139289 0.798921
0 91.22826 -41.44818 -0.0002034424 0.1767547 -0.984255 192 192 192 255 0.101127 0.798921
0 115.4667 31.19531 -0.0007006241 0.3894964 0.9210278 192 192 192 255 0.134569 0.810079
0 115.4667 -31.19531 -0.0007006241 0.3894964 -0.9210278 192 192 192 255 0.105847 0.810079
322.2354 253.3092 22.10693 -0.4590643 -2.185158e-07 0.8884031 192 192 192 255 0.130175 0.639009
441.3593 460.697 26.82631 7.277686e-08 -0.2896232 0.9571408 192 192 192 255 0.208302 0.96901
140.7952 352.3761 26.47034 -0.2463295 0.257219 0.9344304 192 192 192 255 0.069934 0.919143
185.665 177.4622 -21.19529 0.9832647 0.0401687 -0.1776996 192 192 192 255 0.09059 0.660442
185.665 115.4667 -21.19531 0.9999583 0.009133876 -0.0001861266 192 192 192 255 0.09059 0.688982
172.665 115.4667 -22.69531 0.6461952 0.06046401 -0.7607732 192 192 192 255 0.084606 0.688982
172.665 235.5278 -22.69531 0.6991341 1.006085e-07 -0.7149907 192 192 192 255 0.13031 0.630823
348.4649 358.6124 -27.88428 0.2309269 0.2411348 -0.942617 192 192 192 255 0.165537 0.822013
64.89037 463.6624 -28.26013 -1.254057e-09 -0.2997916 -0.9540048 192 192 192 255 0.03499 0.773652
3 8 11 9 
3 8 9 7 
3 4 100 1 
3 100 102 1 
3 6 1 101 
3 102 101 1 
3 3 8 7 
3 3 7 2 
3 2 7 9 
3 2 9 123 
3 123 9 124 
3 9 11 124 
3 124 11 103 
3 125 126 11 
3 11 126 103 
3 5 10 8 
3 5 8 3 
3 127 128 14 
3 127 14 15 
3 127 15 16 
3 13 16 93 
3 30 92 33 
3 92 94 33 
3 16 33 93 
3 33 94 93 
3 0 13 17 
3 13 93 17 
3 93 95 17 
3 95 92 17 
3 92 30 17 
3 18 129 47 
3 18 47 64 
3 19 128 4 
3 19 4 21 
3 13 12 16 
3 130 127 16 
3 130 16 12 
3 41 40 86 
3 41 86 87 
3 42 96 88 
3 88 96 87 
3 96 99 87 
3 99 97 87 
3 97 41 87 
3 25 28 27 
3 21 131 23 
3 132 24 105 
3 20 104 25 
3 105 24 106 
3 24 25 106 
3 104 106 25 
3 132 133 26 
3 132 26 24 
3 26 133 134 
3 26 134 28 
3 22 20 25 
3 22 25 27 
3 69 135 136 
3 69 136 137 
3 68 138 139 
3 68 139 73 
3 140 32 141 
3 141 32 107 
3 19 142 31 
3 31 142 32 
3 32 142 107 
3 140 33 32 
3 1 131 21 
3 1 21 4 
3 30 33 29 
3 143 29 33 
3 143 33 140 
3 31 14 128 
3 31 128 19 
3 15 14 34 
3 15 34 35 
3 16 15 35 
3 16 35 36 
3 14 31 37 
3 14 37 34 
3 31 32 38 
3 31 38 37 
3 32 33 39 
3 32 39 38 
3 144 145 146 
3 144 146 147 
3 148 144 149 
3 147 150 144 
3 150 98 144 
3 144 98 149 
3 98 151 149 
3 145 152 43 
3 145 43 146 
3 152 153 44 
3 152 44 43 
3 153 154 45 
3 153 45 44 
3 155 156 157 
3 158 159 160 
3 158 156 155 
3 158 155 159 
3 156 158 161 
3 156 161 91 
3 54 57 56 
3 50 162 52 
3 48 53 118 
3 53 54 118 
3 118 54 116 
3 49 116 54 
3 48 163 55 
3 48 55 53 
3 55 163 164 
3 55 164 57 
3 51 49 54 
3 51 54 56 
3 165 166 167 
3 165 167 168 
3 169 170 171 
3 169 171 172 
3 173 61 174 
3 174 61 117 
3 61 60 117 
3 60 175 117 
3 173 62 61 
3 59 112 62 
3 76 79 113 
3 113 79 114 
3 62 112 79 
3 112 114 79 
3 46 63 59 
3 59 63 112 
3 112 63 115 
3 115 63 113 
3 63 76 113 
3 176 177 178 
3 176 178 179 
3 65 67 50 
3 65 50 175 
3 59 62 58 
3 180 58 62 
3 180 62 173 
3 181 89 182 
3 181 182 183 
3 71 74 72 
3 71 72 70 
3 67 119 184 
3 119 121 184 
3 121 120 184 
3 120 185 184 
3 66 71 70 
3 66 70 186 
3 186 70 72 
3 186 72 187 
3 187 72 188 
3 72 74 188 
3 188 74 122 
3 122 74 189 
3 74 190 189 
3 191 192 71 
3 191 71 66 
3 193 65 77 
3 193 77 78 
3 193 78 79 
3 162 50 67 
3 162 67 184 
3 76 75 79 
3 194 193 79 
3 194 79 75 
3 195 90 196 
3 195 196 197 
3 198 199 195 
3 199 108 195 
3 108 111 195 
3 111 109 195 
3 109 90 195 
3 77 65 175 
3 77 175 60 
3 61 81 80 
3 61 80 60 
3 62 82 81 
3 62 81 61 
3 60 80 83 
3 60 83 77 
3 77 83 84 
3 77 84 78 
3 78 84 79 
3 84 110 79 
3 110 85 79 
3 200 201 202 
3 200 202 203 
3 204 205 201 
3 204 201 200 
3 203 202 206 
3 203 206 207 
3 207 206 208 
3 207 208 209 
3 209 208 210 
3 209 210 211 
3 212 213 91 
3 161 214 215 
3 161 215 212 
3 161 212 91 
3 73 139 216 
3 73 216 217 
3 217 216 135 
3 217 135 69 
3 171 166 165 
3 171 165 172 
3 218 219 170 
3 218 170 169 
3 220 221 219 
3 220 219 218 
3 222 223 221 
3 222 221 220 
3 224 225 223 
3 224 223 222 
3 226 227 228 
3 226 228 229 
3 229 228 230 
3 229 230 231 
3 231 230 138 
3 231 138 68 
3 71 192 74 
3 54 53 55 
3 54 55 57 
3 25 24 26 
3 25 26 28 
3 8 10 11 
3 93 94 95 
3 95 94 92 
3 97 99 232 
3 232 99 96 
3 233 102 100 
3 101 102 233 
3 234 107 142 
3 141 107 234 
3 211 235 236 
3 211 236 237 
3 109 111 238 
3 238 111 108 
3 113 114 115 
3 115 114 112 
3 239 117 175 
3 174 117 239 
3 240 121 119 
3 120 121 240 
