ply
format ascii 1.0
comment VCGLIB generated
comment TextureFile Dungeons_2_Texture_01_A.png
element vertex 420
property float x
property float y
property float z
property float nx
property float ny
property float nz
property uchar red
property uchar green
property uchar blue
property uchar alpha
property float texture_u
property float texture_v
element face 398
property list uchar int vertex_indices
end_header
499.3721 -463.9113 177.7783 0.3475564 0.9014512 0.2580512 192 192 192 255 0.217407 0.752896
455.0615 -463.9113 233.0703 3.862072e-05 0.9178761 0.3968671 192 192 192 255 0.204319 0.763385
44.93848 -550.9635 233.0703 -0.1177022 -0.9269649 0.3562054 192 192 192 255 0.186216 0.860462
0.62793 -550.9635 177.7783 -0.3475569 -0.9014508 0.2580517 192 192 192 255 0.173128 0.870951
44.93848 -463.9113 233.0703 -3.265453e-05 0.9178734 0.3968734 192 192 192 255 0.204319 0.860462
0.62793 -463.9113 177.7783 -0.3475563 0.9014512 0.2580512 192 192 192 255 0.217407 0.870951
455.0615 -550.9635 233.0703 0.2354044 -0.921405 0.3091888 192 192 192 255 0.186216 0.763385
499.3721 -550.9635 177.7783 0.3475569 -0.9014508 0.2580517 192 192 192 255 0.173128 0.752896
532.2598 -477.8472 177.7783 0.7639393 0.3474579 0.5437553 192 192 192 255 0.030268 0.752176
470.5352 -477.8472 265.2998 0.0008167818 0.4039275 0.9147906 192 192 192 255 0.030268 0.766787
470.5352 -537.0275 265.2998 5.499912e-05 -7.873479e-05 1 192 192 192 255 0.01626 0.766787
532.2598 -537.0275 177.7783 0.5829147 -0.6949154 0.4210739 192 192 192 255 0.01626 0.752176
-32.25977 -537.0275 177.7783 -0.7639394 -0.3474577 0.5437554 192 192 192 255 0.01626 0.8858
29.46484 -537.0275 265.2998 -3.887834e-05 -6.994466e-05 1 192 192 192 255 0.01626 0.87119
29.46484 -477.8472 265.2998 -0.0001147181 0.4033639 0.9150397 192 192 192 255 0.030268 0.87119
-32.25977 -477.8472 177.7783 -0.5829144 0.6949158 0.4210736 192 192 192 255 0.030268 0.8858
-22.40039 -108.4 0 -0.9783862 -0.2067859 -7.885961e-05 192 192 192 255 0.044727 0.962466
-40 -72 0 -0.9838538 -0.1789738 -0.0002670106 192 192 192 255 0.217404 0.871261
-40 -670.0126 0 -0.7981129 3.940029e-06 -0.6025079 192 192 192 255 0.040062 0.831868
-64.66309 -1000 177.7783 -0.7643506 -0.625695 0.1558012 192 192 192 255 0.057116 0.893667
-64.66309 -846.2811 177.7783 -0.002395195 0.9999964 0.001216024 192 192 192 255 0.057116 0.930053
-64.66309 -670.0126 0 -0.8042799 0.5711318 0.1641416 192 192 192 255 0.015036 0.971777
-64.66309 -1000 0 -2.318167e-05 -2.318167e-05 -1 192 192 192 255 0.015036 0.893667
-64.66309 -975.0048 155.4404 -0.9635462 0.2373939 -0.1233814 192 192 192 255 0.051829 0.899584
-64.66309 -880.9137 155.4404 -0.9470519 -0.07407568 -0.3124188 192 192 192 255 0.051829 0.921855
-64.66309 -975.0048 0 -0.0001044966 2.45284e-05 -1 192 192 192 255 0.015036 0.899584
-64.66309 -727.9422 0 -0.6701888 -0.2106476 -0.7116702 192 192 192 255 0.015036 0.958064
-48.86816 -956.4496 138.1182 -0.9079304 0.1816787 -0.3776974 192 192 192 255 0.047729 0.654619
-48.86816 -892.3143 138.1182 -0.9328375 -0.1766528 -0.3140191 192 192 192 255 0.047729 0.6698
-48.86816 -956.4496 0 -1.447995e-05 5.328426e-06 -1 192 192 192 255 0.015036 0.654619
-48.86816 -762.2109 0 -1.061736e-05 -2.41927e-06 -1 192 192 192 255 0.015036 0.700596
-22.40039 -187.8398 134.3037 -0.9180543 -0.3260113 0.2255944 192 192 192 255 0.189984 0.590115
-40 -155.6169 110.3145 -0.9662739 -0.2481754 0.06872953 192 192 192 255 0.197611 0.595793
-22.40039 -108.4 192.8203 -0.9122159 -0.2400936 0.3319898 192 192 192 255 0.208787 0.576263
-40 -72 169.7197 -0.9603987 -0.1632793 0.2257746 192 192 192 255 0.217404 0.581731
-22.40039 -187.8398 0 -0.6205761 -0.3389474 -0.7071068 192 192 192 255 0.189984 0.621905
-40 -155.6169 0 -0.8610383 -0.2198166 -0.4585779 192 192 192 255 0.197611 0.621905
522.4004 -108.4 0 1 -3.108566e-05 -0.0002499455 192 192 192 255 0.189127 0.962466
540 -72 0 1 -1.908294e-05 -0.0002191959 192 192 192 255 0.187139 0.82562
540 -670.0126 0 0.9420615 8.908278e-06 -0.3354402 192 192 192 255 0.193792 0.831868
564.6631 -1000 177.7783 0.7643506 -0.625695 0.1558012 192 192 192 255 0.094728 0.893667
564.6631 -846.2811 177.7783 0.9886215 0.1504244 0.0002414173 192 192 192 255 0.094728 0.930053
564.6631 -670.0126 0 1 6.75556e-05 -2.815134e-05 192 192 192 255 0.136808 0.971777
564.6631 -1000 0 6.357215e-05 -0.0001271443 -1 192 192 192 255 0.136808 0.893667
564.6631 -975.0048 155.4404 0.9635462 0.2373939 -0.1233814 192 192 192 255 0.100015 0.899584
564.6631 -880.9137 155.4404 0.9676769 -0.1795369 -0.1771098 192 192 192 255 0.100015 0.921855
564.6631 -975.0048 0 9.932574e-05 2.331465e-05 -1 192 192 192 255 0.136808 0.899584
564.6631 -727.9422 0 0.9721891 -0.1665501 -0.1646495 192 192 192 255 0.136808 0.958064
548.8682 -956.4496 138.1182 0.9079304 0.1816787 -0.3776974 192 192 192 255 0.104115 0.654619
548.8682 -892.3143 138.1182 0.7988743 -0.4360977 -0.414269 192 192 192 255 0.104115 0.6698
548.8682 -956.4496 0 2.278718e-05 8.385378e-06 -1 192 192 192 255 0.136808 0.654619
548.8682 -762.2109 0 0.01344651 -0.00669243 -0.9998872 192 192 192 255 0.136808 0.700596
522.4004 -187.8398 134.3037 0.9180543 -0.3260113 0.2255944 192 192 192 255 0.159719 0.608054
540 -155.6169 110.3145 0.9662739 -0.2481754 0.06872953 192 192 192 255 0.167347 0.602375
522.4004 -108.4 192.8203 0.9122159 -0.2400936 0.3319898 192 192 192 255 0.178523 0.621905
540 -72 169.7197 0.9603987 -0.1632793 0.2257746 192 192 192 255 0.187139 0.616437
522.4004 -187.8398 0 0.7849736 -0.4287384 -0.4472136 192 192 192 255 0.159719 0.576263
540 -155.6169 0 0.674235 -0.1721271 -0.7181779 192 192 192 255 0.167347 0.576263
17.66016 -1000 251.042 -1.002465e-05 -1.507904e-05 1 192 192 192 255 0.074458 0.893667
17.66016 -846.2811 251.042 -7.187843e-05 0.7664645 0.6422867 192 192 192 255 0.074458 0.930053
482.3398 -1000 251.042 1.861382e-05 -1.399942e-05 1 192 192 192 255 0.217403 0.771663
482.3398 -846.2811 251.042 8.098647e-06 0.08637086 0.9962631 192 192 192 255 0.111738 0.776532
0.62793 -171.28 478.6533 -0.6059914 -0.6776049 0.4166846 192 192 192 255 0.12854 0.712976
44.93848 -372.3804 233.0703 -0.04636431 -0.2598253 0.964542 192 192 192 255 0.07041 0.665375
44.93848 -210.5266 492.0859 -0.5561618 -0.7613565 0.3331973 192 192 192 255 0.13172 0.703686
0.62793 -372.3804 177.7783 -0.3360885 -0.4029661 0.8512713 192 192 192 255 0.057322 0.665375
-40 -154.8695 378.0039 -1 1.744639e-05 -5.773373e-05 192 192 192 255 0.104716 0.669186
-22.40039 -139.3275 341.5996 -0.9692236 0.1421434 -0.2009996 192 192 192 255 0.096099 0.672865
-40 -299.0902 196.1094 -1 0.0001084826 -3.750082e-05 192 192 192 255 0.061661 0.635048
-40 -372.3804 177.7783 -0.9787629 -1.417726e-05 0.2049956 192 192 192 255 0.057322 0.867057
-40 -299.0902 0 -1 5.419788e-06 -3.735258e-05 192 192 192 255 0.015241 0.884405
-22.40039 -262.6902 181.4912 -1 2.784685e-05 -9.626237e-06 192 192 192 255 0.0582 0.643665
455.0615 -372.3804 233.0703 0.0977302 -0.2630807 0.9598112 192 192 192 255 0.086963 0.59992
499.3721 -171.28 478.6533 0.662766 -0.7488265 0.0004362957 192 192 192 255 0.145093 0.589432
455.0615 -210.5266 521.3584 0.6626655 -0.7489153 0.0007016141 192 192 192 255 0.155201 0.59992
-22.40039 -108.4 341.5996 -0.9003271 -0.4352138 -6.842508e-05 192 192 192 255 0.096099 0.680185
0.62793 -846.2811 177.7783 -5.044029e-05 0.1706843 0.9853258 192 192 192 255 0.228994 0.754
-40 -846.2811 177.7783 -0.9116437 0.3541995 0.2084434 192 192 192 255 0.219377 0.754
-40 -72 378 -0.9992503 -0.03851547 -0.003935248 192 192 192 255 0.104715 0.688802
499.3721 -372.3804 177.7783 0.7803187 -4.307505e-05 0.6253821 192 192 192 255 0.073875 0.589432
44.93848 -846.2811 233.0703 -1.702409e-05 0.0503216 0.9987331 192 192 192 255 0.07041 0.553201
455.0615 -846.2811 233.0703 0.152178 0.08310851 0.9848527 192 192 192 255 0.033777 0.584921
-40 -171.28 478.6533 -0.9410828 -0.1496253 0.3032745 192 192 192 255 0.219377 0.913775
540 -154.8695 378.0039 0.9996455 0.02083219 -0.01657781 192 192 192 255 0.126915 0.669186
540 -299.0902 196.1094 0.9992615 0.03012885 -0.02384997 192 192 192 255 0.16997 0.635048
522.4004 -139.3275 341.5996 0.8996545 0.3443566 -0.2684033 192 192 192 255 0.135532 0.672865
522.4004 -262.6902 181.4912 0.9935089 0.08995956 -0.06962311 192 192 192 255 0.17343 0.643665
-22.40039 -262.6902 0 -1 3.108789e-05 -0.0001071271 192 192 192 255 0.015241 0.643665
540 -372.3804 177.7783 1 -9.033168e-06 1.690277e-05 192 192 192 255 0.174309 0.867057
540 -299.0902 0 1 5.419788e-06 -3.735258e-05 192 192 192 255 0.21639 0.884405
522.4004 -108.4 341.5996 0.9671134 -0.1137585 -0.2274879 192 192 192 255 0.135532 0.680185
540 -72 378 1 -1.951573e-05 -9.757116e-06 192 192 192 255 0.126916 0.688802
499.3721 -846.2811 177.7783 0.7775525 0.0841782 0.6231582 192 192 192 255 0.033777 0.574433
-1.123047 0 556.9326 -0.2593535 0.933701 0.2468567 192 192 192 255 0.117605 0.781497
9.650391 -22.79303 586.2061 -0.2519714 0.1812324 0.9506131 192 192 192 255 0.149741 0.890934
540 -846.2811 177.7783 0.9983916 0.05669455 2.019417e-05 192 192 192 255 0.033777 0.766498
522.4004 -262.6902 0 1 3.108789e-05 -0.0001071271 192 192 192 255 0.21639 0.643665
490.3496 -22.79303 544.7969 -0.2148862 0.7269005 0.6522573 192 192 192 255 0.212701 0.727004
-1.123047 0 0 5.755263e-05 1 -0.0001909733 192 192 192 255 0.117605 0.913325
9.650391 -22.79303 0 7.165716e-06 1 -1.58517e-05 192 192 192 255 0.053222 0.982374
540 -171.28 478.6533 1 -0.000137808 2.336281e-05 192 192 192 255 0.145093 0.781497
501.123 0 536.4746 0.5297244 0.3411751 0.7765253 192 192 192 255 0.216356 0.735402
490.3496 -22.79303 0 -3.896799e-06 1 -6.465253e-06 192 192 192 255 0.180632 0.982374
501.123 0 0 -0.3453192 0.5451701 -0.7639006 192 192 192 255 0.183487 0.987674
-27.87109 -104.8695 519.1719 -0.7675802 -0.4581381 0.4482523 192 192 192 255 0.018485 0.695776
-19.65332 -156.0174 489.9131 -0.5469012 -0.5300853 0.6480036 192 192 192 255 0.02262 0.676824
0.62793 -171.28 506.9326 -0.7829966 -0.5230306 0.336683 192 192 192 255 0.029478 0.671161
499.3721 -171.28 550.9688 0.6483547 -0.7159827 0.2588531 192 192 192 255 0.216387 0.670944
540 -171.28 506.9326 0.5777362 -0.6183619 0.5327752 192 192 192 255 0.229266 0.671123
540 -122.2415 563.8242 0.8167083 -0.0243407 0.5765372 192 192 192 255 0.082931 0.926266
-40 -750.5336 75.41992 -0.7818358 0 0.6234844 192 192 192 255 0.195314 0.881469
-53.99219 -750.5336 57.87402 -0.9438845 0 0.3302758 192 192 192 255 0.19116 0.881469
-53.99219 -670.0126 0 -0.7071068 0 -0.7071068 192 192 192 255 0.177461 0.900529
-40 -449.3577 75.41992 -0.7560023 0.2543872 0.6031151 192 192 192 255 0.195314 0.952759
-40 -366.1323 0 -0.7117688 0.5147009 -0.4779835 192 192 192 255 0.177461 0.972458
-53.99219 -449.3577 57.87402 -0.8893225 0.1777144 0.4213349 192 192 192 255 0.19116 0.952759
-53.99219 -385.4658 0 -0.9286075 0.2719006 -0.2525039 192 192 192 255 0.177461 0.967882
540 -750.5336 75.41992 0.7818358 0 0.6234844 192 192 192 255 0.198245 0.881469
553.9922 -750.5336 57.87402 0.9832224 0 0.1824111 192 192 192 255 0.202398 0.881469
553.9922 -670.0126 0 1 0 -3.287812e-05 192 192 192 255 0.216097 0.900529
540 -449.3577 75.41992 0.7818322 0.0001079396 0.623489 192 192 192 255 0.198245 0.952759
540 -366.1323 0 0.7117688 0.5147009 -0.4779835 192 192 192 255 0.216097 0.972458
553.9922 -449.3577 57.87402 0.9997772 2.924327e-05 0.02110923 192 192 192 255 0.202398 0.952759
553.9922 -385.4658 0 1 5.975229e-05 -5.548972e-05 192 192 192 255 0.216097 0.967882
-40 -11.66205 528.6328 -0.9957738 0.05139953 0.07610919 192 192 192 255 0.14037 0.952441
-28.33789 0 528.6328 -0.07819626 0.99411 0.0750376 192 192 192 255 0.111164 0.788196
-28.33789 0 0 -0.0002915517 0.9999999 -0.0002061539 192 192 192 255 0.111164 0.913325
-40 -11.66205 0 -1 2.396129e-05 -6.777442e-05 192 192 192 255 0.015241 0.952441
532.9678 -30.08278 523.5176 0.7593711 0.2589844 0.5968941 192 192 192 255 0.227621 0.72384
528.3379 0 517.8682 0.6038528 0.3038984 0.7368906 192 192 192 255 0.225584 0.734947
540 -11.66205 0 1 2.495158e-05 -1.764339e-05 192 192 192 255 0.193792 0.984962
528.3379 0 0 0.2055987 0.787122 -0.5815223 192 192 192 255 0.190701 0.987674
23.5332 -22.79303 586.2061 0.1902769 0.1829014 0.9645423 192 192 192 255 0.035455 0.727732
142.7969 -22.79303 586.2061 -0.003787146 0.9999794 0.005184773 192 192 192 255 0.081146 0.727778
114.6084 -76.26985 556.9326 -0.3671868 -0.3347908 0.867807 192 192 192 255 0.070799 0.706888
38.05957 -104.8695 586.2061 0.0008244938 -0.0009352278 0.9999993 192 192 192 255 0.041025 0.696275
114.4707 -163.7242 506.9326 -0.2591655 -0.4938767 0.8300115 192 192 192 255 0.071505 0.673946
32.27832 -171.28 506.9326 0.490272 -0.2923104 0.8210896 192 192 192 255 0.041154 0.671158
92.00977 -210.5266 492.0859 -0.0167201 -0.9448141 0.3271801 192 192 192 255 0.148273 0.685856
72.36719 -210.5266 492.0859 0.3356568 -0.8500364 0.405922 192 192 192 255 0.148273 0.690506
59.1543 -22.79303 524.9375 0 0.9999871 0.005087423 192 192 192 255 0.04483 0.766679
90.43848 -245.1795 391.8867 0.02306362 -0.8021249 0.5967108 192 192 192 255 0.124555 0.686228
70.41211 -36.57458 528.374 -0.0001730877 0.2416295 0.9703686 192 192 192 255 0.054742 0.721351
65.25391 -104.1648 528.374 0.2748719 -0.3318296 0.902405 192 192 192 255 0.052824 0.696117
72.8252 -171.28 480.6309 0.08494823 -0.376969 0.9223222 192 192 192 255 0.056685 0.67126
83.0293 -210.5266 465.7832 0.0004384747 -0.9048701 0.4256877 192 192 192 255 0.142046 0.687982
386.8643 -79.9025 556.9326 0.1029016 0.2364152 0.966188 192 192 192 255 0.173961 0.705569
355.0732 -22.79303 586.2061 0.3155822 0.9150159 0.2513043 192 192 192 255 0.162691 0.727861
435.9375 -22.79303 544.6191 -0.5795934 0.5796351 0.5727955 192 192 192 255 0.192119 0.72698
417.2715 -22.79303 529.9688 0.007037934 0.9998816 0.01368501 192 192 192 255 0.184525 0.72666
395.7539 -48.58737 530.001 0.4503933 0.1736845 0.8757737 192 192 192 255 0.176446 0.716989
370.9824 -171.28 536.2051 -0.1927761 -0.5442541 0.816471 192 192 192 255 0.16731 0.671015
389.2588 -210.5266 521.3584 -0.6071499 -0.6696164 0.4277649 192 192 192 255 0.173703 0.65644
309.8594 -210.5266 492.0859 0.0723815 -0.8847579 0.4603958 192 192 192 255 0.143545 0.656765
352.5566 -252.8928 382.2568 -0.02052906 -0.8035526 0.5948797 192 192 192 255 0.122276 0.624184
362.1777 -213.2041 478.709 -0.1760174 -0.8608568 0.4774342 192 192 192 255 0.161989 0.657084
328.21 -91.96372 556.9326 -0.1617893 -0.6912898 0.7042319 192 192 192 255 0.151696 0.700986
172.4287 -104.8695 556.9326 0.09519129 -0.9068 0.4106732 192 192 192 255 0.09267 0.696075
245.8682 -193.8656 506.9326 -0.2630435 -0.2902877 0.9200767 192 192 192 255 0.120105 0.662786
156.6514 -188.5862 506.9326 0.6613304 -0.1439367 0.7361551 192 192 192 255 0.087096 0.66475
191.5098 -210.5266 471.29 0.05044902 -0.8183444 0.5725097 192 192 192 255 0.100055 0.657001
221.6777 -66.30715 586.2061 -0.04067125 -0.5138676 0.8569049 192 192 192 255 0.111412 0.711102
291.6152 -75.45215 586.2061 0.02766777 -0.8551561 0.5176318 192 192 192 255 0.138278 0.707607
289.5479 -132.647 536.0195 -0.2802861 -0.215383 0.935441 192 192 192 255 0.136715 0.685514
245.3643 -104.8695 540.0039 0.05968645 -0.8904312 0.4511872 192 192 192 255 0.120162 0.69596
225.543 -126.3709 497.0361 -0.1306488 -0.7330208 0.6675413 192 192 192 255 0.112548 0.687729
190.8789 -163.9734 480.917 -0.01182122 -0.2028142 0.9791459 192 192 192 255 0.099807 0.673922
-40 -58.02708 556.9326 -0.8881911 0.1177944 0.4441184 192 192 192 255 0.012412 0.713749
-40 -80.4476 498.335 -1 -1.730114e-05 1.929244e-05 192 192 192 255 0.014826 0.704615
-40 -132.0917 490.5127 -0.985532 -0.07661333 0.1511854 192 192 192 255 0.015148 0.685594
5.682617 -104.8695 586.2061 -0.5716637 -0.313508 0.7582304 192 192 192 255 0.028636 0.696271
-19.10645 -62.92046 586.2061 -0.7156819 -0.08162109 0.6936406 192 192 192 255 0.019148 0.712339
512.793 -59.89423 556.9326 0.05075155 0.1316397 0.9899976 192 192 192 255 0.221837 0.71319
522.1855 -56.81536 546.9336 0.6012956 0.3373455 0.7243215 192 192 192 255 0.224855 0.714204
540 -54.05179 530.7725 0.9914171 0.06286481 0.1146308 192 192 192 255 0.230667 0.714994
540 -35.27259 509.1934 0.9999549 0.003974108 0.008620053 192 192 192 255 0.22944 0.72163
540 -11.66205 511.2295 0.9993113 0.006550025 0.03652387 192 192 192 255 0.229563 0.73045
446.3057 -477.8473 265.3008 -0.02463841 0.4476043 0.8938922 192 192 192 255 0.030268 0.772522
245.6641 -477.8472 265.2998 0.006006293 0.3175321 0.9482285 192 192 192 255 0.030268 0.820015
360.4961 -468.913 244.6377 -1.21375e-06 0.8612817 0.5081278 192 192 192 255 0.20158 0.785768
345.8584 -493.3065 265.2998 -4.613474e-06 0.2902751 0.9569433 192 192 192 255 0.026608 0.796298
415.002 -846.2811 251.042 -0.01021122 0.1006567 0.9948688 192 192 192 255 0.111738 0.792471
59.45215 -846.2811 251.042 0.03402212 0.0889636 0.9954537 192 192 192 255 0.111738 0.876631
56.30078 -846.2811 251.042 0 0.009126859 0.9999583 192 192 192 255 0.111738 0.877377
141.5381 -846.2811 233.0703 0 0.01630529 0.9998671 192 192 192 255 0.033777 0.659133
131.5156 -875.0453 251.042 0 0.1161217 0.993235 192 192 192 255 0.10493 0.859573
564.6631 -755.9459 28.45508 0.975499 -0.1674308 -0.1427186 192 192 192 255 0.130073 0.951436
564.6631 -845.1841 119.1348 0.969318 -0.1682534 -0.179202 192 192 192 255 0.108609 0.930313
564.6631 -772.7159 71.65332 0.9981682 -0.04312082 -0.04243536 192 192 192 255 0.119848 0.947466
556.5703 -807.9141 63.4209 0.8843001 -0.3370534 -0.3231229 192 192 192 255 0.121796 0.689778
553.9932 -476.6223 57.87402 0.928802 -0.0001088861 0.3705764 192 192 192 255 0.202398 0.946305
553.9922 -481.2079 57.87402 0.7819889 -5.056051e-05 0.6232924 192 192 192 255 0.202398 0.94522
553.9922 -619.8091 57.87402 0.9621579 0.005582584 0.2724354 192 192 192 255 0.202398 0.912412
553.9922 -537.3839 37.44141 0.9981719 0.01453365 0.05866601 192 192 192 255 0.207234 0.931923
547.3838 -539.2141 66.16113 0.9168347 0.03420655 0.3977992 192 192 192 255 0.200436 0.931489
455.0605 -769.9257 233.0703 0.1781516 0.005737311 0.9839864 192 192 192 255 0.051851 0.584921
455.0615 -592.1788 233.0703 0.1355487 -0.003855109 0.9907632 192 192 192 255 0.093924 0.584921
471.3994 -688.6768 212.6836 0.6553694 -3.597943e-06 0.7553085 192 192 192 255 0.071083 0.581054
435.6494 -670.9672 233.0703 0.06168637 -3.387174e-07 0.9980956 192 192 192 255 0.075275 0.589516
44.93848 -326.1451 307.0615 -0.2986302 -0.7444113 0.59722 192 192 192 255 0.087924 0.676319
44.93945 -236.0032 451.3154 -0.2135911 -0.8632126 0.4574306 192 192 192 255 0.122069 0.697656
67.77148 -276.658 363.8018 0.05978276 -0.8465266 0.5289791 192 192 192 255 0.117907 0.691593
25.45801 -258.9665 381.0488 -0.4803852 -0.7437822 0.4647776 192 192 192 255 0.105437 0.69222
-40 -72 190.4268 -0.9911389 -0.1327961 0.002976323 192 192 192 255 0.060316 0.688802
-40 -41.66858 315.7461 -0.9974381 -0.07153465 0 192 192 192 255 0.089979 0.945338
-34.91895 -82.50936 299.5225 -0.9368649 -0.3496914 0 192 192 192 255 0.086139 0.686314
-40 -566.3153 177.7783 -0.9933887 -0.01336406 0.1140188 192 192 192 255 0.219377 0.820269
-40 -777.0073 177.7783 -0.9490998 0.01421796 0.3146543 192 192 192 255 0.219377 0.770397
-20.17578 -626.8434 177.7783 -0.3601517 0 0.9328938 192 192 192 255 0.22407 0.805942
-40 -629.3743 147.6562 -0.99384 0 0.110824 192 192 192 255 0.050192 0.806226
539.999 -170.3688 358.4551 0.9918551 0.09154475 -0.0885611 192 192 192 255 0.131542 0.665517
540 -275.242 226.1865 0.9761679 0.1765589 -0.1261873 192 192 192 255 0.162851 0.640693
540 -241.2626 325.5166 0.9995223 0.02421993 -0.01920034 192 192 192 255 0.139339 0.898093
533.7148 -207.1 292.1279 0.9697213 0.1913655 -0.1517229 192 192 192 255 0.147242 0.656823
-28.33887 0 178.1875 -0.08777033 0.9960276 0.01501258 192 192 192 255 0.111163 0.871148
-28.33789 0 386.2852 -0.0867532 0.9960659 -0.01807107 192 192 192 255 0.111164 0.82189
-40 -11.66205 298.6348 -0.9870247 0.1605685 2.812073e-07 192 192 192 255 0.085929 0.952441
-8.776367 0 292.498 -0.1038282 0.9945953 4.870037e-07 192 192 192 255 0.115794 0.84409
470.5352 -477.8472 265.2998 0.0008167818 0.4039275 0.9147906 192 192 192 255 0.19669 0.759722
532.2598 -477.8472 177.7783 0.7639393 0.3474579 0.5437553 192 192 192 255 0.217407 0.745112
532.2598 -537.0275 177.7783 0.5829147 -0.6949154 0.4210739 192 192 192 255 0.173128 0.745112
470.5352 -537.0275 265.2998 5.499912e-05 -7.873479e-05 1 192 192 192 255 0.193845 0.759722
29.46484 -537.0275 265.2998 -3.887834e-05 -6.994466e-05 1 192 192 192 255 0.193845 0.864125
-32.25977 -537.0275 177.7783 -0.7639394 -0.3474577 0.5437554 192 192 192 255 0.173128 0.878736
-32.25977 -477.8472 177.7783 -0.5829144 0.6949158 0.4210736 192 192 192 255 0.217407 0.878736
29.46484 -477.8472 265.2998 -0.0001147181 0.4033639 0.9150397 192 192 192 255 0.19669 0.864125
245.6641 -477.8472 265.2998 0.006006293 0.3175321 0.9482285 192 192 192 255 0.19669 0.81295
446.3057 -477.8473 265.3008 -0.02463841 0.4476043 0.8938922 192 192 192 255 0.19669 0.765457
-64.66309 -880.9137 155.4404 -0.9470519 -0.07407568 -0.3124188 192 192 192 255 0.051829 0.672499
-64.66309 -975.0048 155.4404 -0.9635462 0.2373939 -0.1233814 192 192 192 255 0.051829 0.650227
-64.66309 -975.0048 0 -0.0001044966 2.45284e-05 -1 192 192 192 255 0.015036 0.650227
-64.66309 -727.9422 0 -0.6701888 -0.2106476 -0.7116702 192 192 192 255 0.015036 0.708708
-64.66309 -727.9422 0 -0.6701888 -0.2106476 -0.7116702 192 192 192 255 0.033525 0.818397
-64.66309 -670.0126 0 -0.8042799 0.5711318 0.1641416 192 192 192 255 0.033525 0.831868
-48.86816 -762.2109 0 -1.061736e-05 -2.41927e-06 -1 192 192 192 255 0.037711 0.810428
-40 -155.6169 110.3145 -0.9662739 -0.2481754 0.06872953 192 192 192 255 0.197611 0.84515
-40 -72 169.7197 -0.9603987 -0.1632793 0.2257746 192 192 192 255 0.217404 0.831088
-40 -155.6169 0 -0.8610383 -0.2198166 -0.4585779 192 192 192 255 0.197611 0.871261
564.6631 -880.9137 155.4404 0.9676769 -0.1795369 -0.1771098 192 192 192 255 0.100015 0.672499
564.6631 -975.0048 155.4404 0.9635462 0.2373939 -0.1233814 192 192 192 255 0.100015 0.650227
564.6631 -975.0048 0 9.932574e-05 2.331465e-05 -1 192 192 192 255 0.136808 0.650227
564.6631 -727.9422 0 0.9721891 -0.1665501 -0.1646495 192 192 192 255 0.136808 0.708708
564.6631 -755.9459 28.45508 0.975499 -0.1674308 -0.1427186 192 192 192 255 0.130073 0.702079
564.6631 -845.1841 119.1348 0.969318 -0.1682534 -0.179202 192 192 192 255 0.108609 0.680956
564.6631 -1000 0 6.357215e-05 -0.0001271443 -1 192 192 192 255 0.200329 0.755132
-64.66309 -1000 0 -2.318167e-05 -2.318167e-05 -1 192 192 192 255 0.033525 0.755132
564.6631 -975.0048 0 9.932574e-05 2.331465e-05 -1 192 192 192 255 0.200329 0.760944
548.8682 -956.4496 0 2.278718e-05 8.385378e-06 -1 192 192 192 255 0.196142 0.765259
-64.66309 -975.0048 0 -0.0001044966 2.45284e-05 -1 192 192 192 255 0.033525 0.760944
-48.86816 -956.4496 0 -1.447995e-05 5.328426e-06 -1 192 192 192 255 0.037711 0.765259
548.8682 -762.2109 0 0.01344651 -0.00669243 -0.9998872 192 192 192 255 0.196142 0.810428
564.6631 -727.9422 0 0.9721891 -0.1665501 -0.1646495 192 192 192 255 0.200329 0.818397
564.6631 -670.0126 0 1 6.75556e-05 -2.815134e-05 192 192 192 255 0.200329 0.831868
540 -155.6169 110.3145 0.9662739 -0.2481754 0.06872953 192 192 192 255 0.167347 0.851732
540 -155.6169 0 0.674235 -0.1721271 -0.7181779 192 192 192 255 0.167347 0.82562
540 -72 169.7197 0.9603987 -0.1632793 0.2257746 192 192 192 255 0.187139 0.865793
-22.40039 -187.8398 0 -0.6205761 -0.3389474 -0.7071068 192 192 192 255 0.044727 0.943993
-40 -155.6169 0 -0.8610383 -0.2198166 -0.4585779 192 192 192 255 0.040062 0.951487
-40 -72 0 -0.9838538 -0.1789738 -0.0002670106 192 192 192 255 0.040062 0.970931
540 -155.6169 0 0.674235 -0.1721271 -0.7181779 192 192 192 255 0.193792 0.951487
522.4004 -187.8398 0 0.7849734 -0.4287383 -0.4472136 192 192 192 255 0.189127 0.943993
540 -72 0 1 -1.908294e-05 -0.0002191959 192 192 192 255 0.193792 0.970931
564.6631 -1000 177.7783 0.7643506 -0.625695 0.1558012 192 192 192 255 0.200061 0.752176
17.66016 -1000 251.042 -1.002465e-05 -1.507904e-05 1 192 192 192 255 0.217403 0.881654
-64.66309 -1000 177.7783 -0.7643506 -0.625695 0.1558012 192 192 192 255 0.200061 0.90114
482.3398 -1000 251.042 1.861382e-05 -1.399942e-05 1 192 192 192 255 0.075352 0.776532
17.66016 -1000 251.042 -1.002465e-05 -1.507904e-05 1 192 192 192 255 0.075352 0.886523
17.66016 -846.2811 251.042 -7.187843e-05 0.7664645 0.6422867 192 192 192 255 0.111738 0.886523
564.6631 -1000 0 6.357215e-05 -0.0001271443 -1 192 192 192 255 0.15798 0.752176
-64.66309 -1000 0 -2.318167e-05 -2.318167e-05 -1 192 192 192 255 0.15798 0.90114
-40 -299.0902 196.1094 -1 0.0001084826 -3.750082e-05 192 192 192 255 0.061661 0.884405
0.62793 -372.3804 177.7783 -0.3360885 -0.4029661 0.8512713 192 192 192 255 0.228994 0.866174
-40 -372.3804 177.7783 -0.9787629 -1.417726e-05 0.2049956 192 192 192 255 0.219377 0.866174
0.62793 -846.2811 177.7783 -5.044029e-05 0.1706843 0.9853258 192 192 192 255 0.057322 0.553201
482.3398 -1000 251.042 1.861382e-05 -1.399942e-05 1 192 192 192 255 0.077386 0.893667
482.3398 -846.2811 251.042 8.098647e-06 0.08637086 0.9962631 192 192 192 255 0.077386 0.930053
44.93848 -846.2811 233.0703 -1.702409e-05 0.0503216 0.9987331 192 192 192 255 0.033777 0.681998
44.93848 -372.3804 233.0703 -0.04636431 -0.2598253 0.964542 192 192 192 255 0.145951 0.681998
455.0615 -372.3804 233.0703 0.0977302 -0.2630807 0.9598112 192 192 192 255 0.145951 0.584921
-40 -670.0126 0 -0.7981129 3.940029e-06 -0.6025079 192 192 192 255 0.015241 0.796606
-40 -566.3153 177.7783 -0.9933887 -0.01336406 0.1140188 192 192 192 255 0.057322 0.821152
-40 -846.2811 177.7783 -0.9116437 0.3541995 0.2084434 192 192 192 255 0.057322 0.754883
-40 -777.0073 177.7783 -0.9490998 0.01421796 0.3146543 192 192 192 255 0.057322 0.77128
-22.40039 -108.4 0 -0.9783862 -0.2067859 -7.885961e-05 192 192 192 255 0.015241 0.680185
540 -299.0902 196.1094 0.9992615 0.03012885 -0.02384997 192 192 192 255 0.16997 0.884405
499.3721 -372.3804 177.7783 0.7803187 -4.307505e-05 0.6253821 192 192 192 255 0.145951 0.574433
0.62793 -171.28 478.6533 -0.6059914 -0.6776049 0.4166846 192 192 192 255 0.228994 0.913775
-40 -154.8695 378.0039 -1 1.744639e-05 -5.773373e-05 192 192 192 255 0.104716 0.918543
-40 -171.28 478.6533 -0.9410828 -0.1496253 0.3032745 192 192 192 255 0.12854 0.914658
499.3721 -846.2811 177.7783 0.7775525 0.0841782 0.6231582 192 192 192 255 0.033777 0.776115
540 -372.3804 177.7783 1 -9.033168e-06 1.690277e-05 192 192 192 255 0.145951 0.766498
499.3721 -372.3804 177.7783 0.7803187 -4.307505e-05 0.6253821 192 192 192 255 0.145951 0.776115
44.93945 -236.0032 451.3154 -0.2135911 -0.8632126 0.4574306 192 192 192 255 0.138622 0.696998
44.93848 -210.5266 492.0859 -0.5561618 -0.7613565 0.3331973 192 192 192 255 0.148273 0.696998
522.4004 -108.4 0 1 -3.108566e-05 -0.0002499455 192 192 192 255 0.21639 0.680185
540 -846.2811 177.7783 0.9983916 0.05669455 2.019417e-05 192 192 192 255 0.174309 0.754883
540 -670.0126 0 0.9420615 8.908278e-06 -0.3354402 192 192 192 255 0.21639 0.796606
-40 -299.0902 0 -1 5.419788e-06 -3.735258e-05 192 192 192 255 0.015241 0.635048
540 -372.3804 177.7783 1 -9.033168e-06 1.690277e-05 192 192 192 255 0.073875 0.781497
499.3721 -171.28 478.6533 0.662766 -0.7488265 0.0004362957 192 192 192 255 0.145093 0.791114
499.3721 -372.3804 177.7783 0.7803187 -4.307505e-05 0.6253821 192 192 192 255 0.073875 0.791114
540 -154.8695 378.0039 0.9996455 0.02083219 -0.01657781 192 192 192 255 0.126915 0.918543
540 -171.28 478.6533 1 -0.000137808 2.336281e-05 192 192 192 255 0.103091 0.914658
539.999 -170.3688 358.4551 0.9918551 0.09154475 -0.0885611 192 192 192 255 0.131542 0.914874
540 -275.242 226.1865 0.9761679 0.1765589 -0.1261873 192 192 192 255 0.162851 0.89005
540 -299.0902 0 1 5.419788e-06 -3.735258e-05 192 192 192 255 0.193792 0.918123
-40 -299.0902 0 -1 5.419788e-06 -3.735258e-05 192 192 192 255 0.040062 0.918123
-40 -72 0 -0.9838538 -0.1789738 -0.0002670106 192 192 192 255 0.015241 0.688802
522.4004 -262.6902 0 1 3.108789e-05 -0.0001071271 192 192 192 255 0.189127 0.926587
-22.40039 -262.6902 0 -1 3.108789e-05 -0.0001071271 192 192 192 255 0.044727 0.926587
-40 -72 378 -0.9992503 -0.03851547 -0.003935248 192 192 192 255 0.104715 0.938158
-40 -72 190.4268 -0.9911389 -0.1327961 0.002976323 192 192 192 255 0.060316 0.938158
-40 -72 0 -0.9838538 -0.1789738 -0.0002670106 192 192 192 255 0.015241 0.938158
540 -299.0902 0 1 5.419788e-06 -3.735258e-05 192 192 192 255 0.21639 0.635048
9.650391 -22.79303 0 7.165716e-06 1 -1.58517e-05 192 192 192 255 0.149741 0.752176
-1.123047 0 0 5.755263e-05 1 -0.0001909733 192 192 192 255 0.155136 0.752176
-1.123047 0 556.9326 -0.2593535 0.933701 0.2468567 192 192 192 255 0.155136 0.884004
490.3496 -22.79303 0 -3.896799e-06 1 -6.465253e-06 192 192 192 255 0.146896 0.890934
9.650391 -22.79303 0 7.165716e-06 1 -1.58517e-05 192 192 192 255 0.033112 0.890934
540 -72 0 1 -1.908294e-05 -0.0002191959 192 192 192 255 0.21639 0.688802
-1.123047 0 0 5.755263e-05 1 -0.0001909733 192 192 192 255 0.050367 0.987674
482.3398 -846.2811 251.042 8.098647e-06 0.08637086 0.9962631 192 192 192 255 0.115112 0.796019
564.6631 -846.2811 177.7783 0.9886215 0.1504244 0.0002414173 192 192 192 255 0.132453 0.776532
540 -846.2811 177.7783 0.9983916 0.05669455 2.019417e-05 192 192 192 255 0.132453 0.78237
17.66016 -846.2811 251.042 -7.187843e-05 0.7664645 0.6422867 192 192 192 255 0.171872 0.903874
0.62793 -846.2811 177.7783 -5.044029e-05 0.1706843 0.9853258 192 192 192 255 0.167841 0.921216
-40 -846.2811 177.7783 -0.9116437 0.3541995 0.2084434 192 192 192 255 0.158224 0.921216
482.3398 -846.2811 251.042 8.098647e-06 0.08637086 0.9962631 192 192 192 255 0.115112 0.594336
499.3721 -846.2811 177.7783 0.7775525 0.0841782 0.6231582 192 192 192 255 0.132453 0.590305
455.0615 -846.2811 233.0703 0.152178 0.08310851 0.9848527 192 192 192 255 0.119365 0.600793
499.3721 -846.2811 177.7783 0.7775525 0.0841782 0.6231582 192 192 192 255 0.132453 0.791987
-64.66309 -846.2811 177.7783 -0.002395195 0.9999964 0.001216024 192 192 192 255 0.152386 0.921216
56.30078 -846.2811 251.042 0 0.009126859 0.9999583 192 192 192 255 0.181019 0.654517
141.5381 -846.2811 233.0703 0 0.01630529 0.9998671 192 192 192 255 0.201195 0.658771
44.93848 -846.2811 233.0703 -1.702409e-05 0.0503216 0.9987331 192 192 192 255 0.178329 0.658771
17.66016 -846.2811 251.042 -7.187843e-05 0.7664645 0.6422867 192 192 192 255 0.171872 0.654517
0.62793 -846.2811 177.7783 -5.044029e-05 0.1706843 0.9853258 192 192 192 255 0.167841 0.671859
564.6631 -670.0126 0 1 6.75556e-05 -2.815134e-05 192 192 192 255 0.174534 0.776532
540 -670.0126 0 0.9420615 8.908278e-06 -0.3354402 192 192 192 255 0.174534 0.78237
-64.66309 -670.0126 0 -0.8042799 0.5711318 0.1641416 192 192 192 255 0.152386 0.963297
-40 -670.0126 0 -0.7981129 3.940029e-06 -0.6025079 192 192 192 255 0.158224 0.963297
-40 -171.28 478.6533 -0.9410828 -0.1496253 0.3032745 192 192 192 255 0.015624 0.671275
0.62793 -171.28 478.6533 -0.6059914 -0.6776049 0.4166846 192 192 192 255 0.030417 0.671273
44.93848 -210.5266 492.0859 -0.5561618 -0.7613565 0.3331973 192 192 192 255 0.046219 0.656813
499.3721 -171.28 478.6533 0.662766 -0.7488265 0.0004362957 192 192 192 255 0.212773 0.671238
455.0615 -210.5266 521.3584 0.6626655 -0.7489153 0.0007016141 192 192 192 255 0.198294 0.656428
540 -171.28 478.6533 1 -0.000137808 2.336281e-05 192 192 192 255 0.22769 0.671236
540 -171.28 506.9326 0.5777362 -0.6183619 0.5327752 192 192 192 255 0.096397 0.914658
540 -122.2415 563.8242 0.8167083 -0.0243407 0.5765372 192 192 192 255 0.232579 0.689558
-53.99219 -385.4658 0 -0.9286075 0.2719006 -0.2525039 192 192 192 255 0.036354 0.898037
-40 -366.1323 0 -0.7117688 0.5147009 -0.4779835 192 192 192 255 0.040062 0.902533
-53.99219 -670.0126 0 -0.7071068 0 -0.7071068 192 192 192 255 0.036354 0.831868
553.9922 -385.4658 0 1 5.975229e-05 -5.548972e-05 192 192 192 255 0.1975 0.898037
553.9922 -670.0126 0 1 0 -3.287812e-05 192 192 192 255 0.1975 0.831868
540 -366.1323 0 0.7117688 0.5147009 -0.4779835 192 192 192 255 0.193792 0.902533
-40 -80.4476 498.335 -1 -1.730114e-05 1.929244e-05 192 192 192 255 0.133199 0.936159
-40 -11.66205 0 -1 2.396129e-05 -6.777442e-05 192 192 192 255 0.040062 0.984962
-28.33789 0 0 -0.0002915517 0.9999999 -0.0002061539 192 192 192 255 0.043153 0.987674
59.1543 -22.79303 524.9375 0 0.9999871 0.005087423 192 192 192 255 0.050626 0.726421
72.36719 -210.5266 492.0859 0.3356568 -0.8500364 0.405922 192 192 192 255 0.056277 0.656808
83.0293 -210.5266 465.7832 0.0004384747 -0.9048701 0.4256877 192 192 192 255 0.0607 0.657077
92.00977 -210.5266 492.0859 -0.0167201 -0.9448141 0.3271801 192 192 192 255 0.063482 0.656805
389.2588 -210.5266 521.3584 -0.6071499 -0.6696164 0.4277649 192 192 192 255 0.155201 0.615496
44.93848 -372.3804 233.0703 -0.04636431 -0.2598253 0.964542 192 192 192 255 0.086963 0.696998
417.2715 -22.79303 529.9688 0.007037934 0.9998816 0.01368501 192 192 192 255 0.129598 0.765488
435.9375 -22.79303 544.6191 -0.5795934 0.5796351 0.5727955 192 192 192 255 0.134016 0.76202
490.3496 -22.79303 544.7969 -0.2148862 0.7269005 0.6522573 192 192 192 255 0.146896 0.761978
9.650391 -22.79303 586.2061 -0.2519714 0.1812324 0.9506131 192 192 192 255 0.033112 0.752176
23.5332 -22.79303 586.2061 0.1902769 0.1829014 0.9645423 192 192 192 255 0.036399 0.752176
142.7969 -22.79303 586.2061 -0.003787146 0.9999794 0.005184773 192 192 192 255 0.064629 0.752176
355.0732 -22.79303 586.2061 0.3155822 0.9150159 0.2513043 192 192 192 255 0.114875 0.752176
309.8594 -210.5266 492.0859 0.0723815 -0.8847579 0.4603958 192 192 192 255 0.148273 0.63429
362.1777 -213.2041 478.709 -0.1760174 -0.8608568 0.4774342 192 192 192 255 0.140724 0.621906
362.1777 -213.2041 478.709 -0.1760174 -0.8608568 0.4774342 192 192 192 255 0.119818 0.602735
352.5566 -252.8928 382.2568 -0.02052906 -0.8035526 0.5948797 192 192 192 255 0.10979 0.621183
389.2588 -210.5266 521.3584 -0.6071499 -0.6696164 0.4277649 192 192 192 255 0.119818 0.588258
191.5098 -210.5266 471.29 0.05044902 -0.8183444 0.5725097 192 192 192 255 0.14335 0.662304
-40 -11.66205 528.6328 -0.9957738 0.05139953 0.07610919 192 192 192 255 0.013583 0.730616
-40 -132.0917 490.5127 -0.985532 -0.07661333 0.1511854 192 192 192 255 0.131347 0.923934
9.650391 -22.79303 586.2061 -0.2519714 0.1812324 0.9506131 192 192 192 255 0.030142 0.727727
-1.123047 0 556.9326 -0.2593535 0.933701 0.2468567 192 192 192 255 0.027071 0.7357
-28.33789 0 528.6328 -0.07819626 0.99411 0.0750376 192 192 192 255 0.017924 0.734973
540 -54.05179 530.7725 0.9914171 0.06286481 0.1146308 192 192 192 255 0.090754 0.942407
540 -35.27259 509.1934 0.9999549 0.003974108 0.008620053 192 192 192 255 0.095862 0.946852
540 -72 378 1 -1.951573e-05 -9.757116e-06 192 192 192 255 0.126916 0.938158
540 -11.66205 511.2295 0.9993113 0.006550025 0.03652387 192 192 192 255 0.09538 0.952441
540 -11.66205 0 1 2.495158e-05 -1.764339e-05 192 192 192 255 0.21639 0.952441
540 -72 0 1 -1.908294e-05 -0.0002191959 192 192 192 255 0.21639 0.938158
528.3379 0 517.8682 0.6038528 0.3038984 0.7368906 192 192 192 255 0.093809 0.955201
528.3379 0 0 0.2055987 0.787122 -0.5815223 192 192 192 255 0.21639 0.955201
501.123 0 536.4746 0.5297244 0.3411751 0.7765253 192 192 192 255 0.090876 0.781497
528.3379 0 517.8682 0.6038528 0.3038984 0.7368906 192 192 192 255 0.097318 0.785902
528.3379 0 0 0.2055987 0.787122 -0.5815223 192 192 192 255 0.097318 0.908483
501.123 0 0 -0.3453192 0.5451701 -0.7639006 192 192 192 255 0.090876 0.908483
490.3496 -22.79303 0 -3.896799e-06 1 -6.465253e-06 192 192 192 255 0.100163 0.910453
490.3496 -22.79303 544.7969 -0.2148862 0.7269005 0.6522573 192 192 192 255 0.100163 0.781497
501.123 0 536.4746 0.5297244 0.3411751 0.7765253 192 192 192 255 0.105558 0.783467
501.123 0 0 -0.3453192 0.5451701 -0.7639006 192 192 192 255 0.105558 0.910453
345.8584 -493.3065 265.2998 -4.613474e-06 0.2902751 0.9569433 192 192 192 255 0.19669 0.789233
141.5381 -846.2811 233.0703 0 0.01630529 0.9998671 192 192 192 255 0.119365 0.675005
415.002 -846.2811 251.042 -0.01021122 0.1006567 0.9948688 192 192 192 255 0.115112 0.610275
59.45215 -846.2811 251.042 0.03402212 0.0889636 0.9954537 192 192 192 255 0.181765 0.654517
141.5381 -846.2811 233.0703 0 0.01630529 0.9998671 192 192 192 255 0.111738 0.857201
141.5381 -846.2811 233.0703 0 0.01630529 0.9998671 192 192 192 255 0.119365 0.876688
131.5156 -875.0453 251.042 0 0.1161217 0.993235 192 192 192 255 0.115112 0.87906
415.002 -846.2811 251.042 -0.01021122 0.1006567 0.9948688 192 192 192 255 0.115112 0.811958
556.5703 -807.9141 63.4209 0.8843001 -0.3370534 -0.3231229 192 192 192 255 0.121796 0.939135
44.93945 -236.0032 451.3154 -0.2135911 -0.8632126 0.4574306 192 192 192 255 0.138622 0.89868
25.45801 -258.9665 381.0488 -0.4803852 -0.7437822 0.4647776 192 192 192 255 0.12199 0.903291
67.77148 -276.658 363.8018 0.05978276 -0.8465266 0.5289791 192 192 192 255 0.117907 0.893276
44.93848 -326.1451 307.0615 -0.2986302 -0.7444113 0.59722 192 192 192 255 0.104477 0.89868
-34.91895 -82.50936 299.5225 -0.9368649 -0.3496914 0 192 192 192 255 0.086139 0.935671
-20.17578 -626.8434 177.7783 -0.3601517 0 0.9328938 192 192 192 255 0.057322 0.806825
533.7148 -207.1 292.1279 0.9697213 0.1913655 -0.1517229 192 192 192 255 0.147242 0.90618
-28.33887 0 178.1875 -0.08777033 0.9960276 0.01501258 192 192 192 255 0.057419 0.955201
-28.33789 0 0 -0.0002915517 0.9999999 -0.0002061539 192 192 192 255 0.015241 0.955201
-28.33789 0 528.6328 -0.07819626 0.99411 0.0750376 192 192 192 255 0.14037 0.955201
-28.33789 0 386.2852 -0.0867532 0.9960659 -0.01807107 192 192 192 255 0.106676 0.955201
-40 -11.66205 298.6348 -0.9870247 0.1605685 2.812073e-07 192 192 192 255 0.108403 0.842638
44.93848 -326.1451 307.0615 -0.2986302 -0.7444113 0.59722 192 192 192 255 0.104477 0.696998
3 8 9 10 
3 8 10 11 
3 12 13 14 
3 12 14 15 
3 9 177 10 
3 14 13 178 
3 13 10 178 
3 178 10 180 
3 177 180 10 
3 0 1 218 
3 0 218 219 
3 6 7 220 
3 6 220 221 
3 3 2 222 
3 3 222 223 
3 4 5 224 
3 4 224 225 
3 225 226 4 
3 218 1 227 
3 227 1 179 
3 1 4 179 
3 4 226 179 
3 2 6 221 
3 2 221 222 
3 28 30 29 
3 28 29 27 
3 20 24 23 
3 20 23 19 
3 19 23 25 
3 19 25 22 
3 21 26 24 
3 21 24 20 
3 228 28 27 
3 228 27 229 
3 229 27 29 
3 229 29 230 
3 231 30 28 
3 231 28 228 
3 232 233 18 
3 232 18 234 
3 31 33 34 
3 31 34 32 
3 35 31 32 
3 35 32 36 
3 235 236 17 
3 235 17 237 
3 49 48 50 
3 49 50 51 
3 41 40 44 
3 41 44 45 
3 40 43 46 
3 40 46 44 
3 45 187 41 
3 187 188 41 
3 41 188 42 
3 188 186 42 
3 42 186 47 
3 238 239 48 
3 238 48 49 
3 239 240 50 
3 239 50 48 
3 241 242 51 
3 238 49 243 
3 242 189 51 
3 51 189 49 
3 189 243 49 
3 244 245 246 
3 246 245 247 
3 245 248 247 
3 248 249 247 
3 247 249 250 
3 249 234 250 
3 234 18 250 
3 18 39 250 
3 251 250 39 
3 251 39 252 
3 52 53 55 
3 52 55 54 
3 56 57 53 
3 56 53 52 
3 253 254 38 
3 253 38 255 
3 256 257 258 
3 256 258 16 
3 259 260 37 
3 259 37 261 
3 58 59 20 
3 58 20 19 
3 262 60 263 
3 262 263 264 
3 265 61 266 
3 61 181 266 
3 181 185 266 
3 185 182 266 
3 182 183 266 
3 183 267 266 
3 65 63 62 
3 64 62 200 
3 200 62 202 
3 62 63 202 
3 63 199 202 
3 104 167 168 
3 104 168 169 
3 268 262 264 
3 268 264 269 
3 68 66 67 
3 68 67 71 
3 69 270 70 
3 73 74 72 
3 73 72 79 
3 75 67 66 
3 75 66 78 
3 77 76 207 
3 271 272 76 
3 207 76 208 
3 76 272 208 
3 272 206 208 
3 273 80 63 
3 273 63 65 
3 274 40 41 
3 274 41 275 
3 276 184 277 
3 277 184 278 
3 278 184 196 
3 196 184 198 
3 198 184 195 
3 184 81 195 
3 69 279 280 
3 280 279 209 
3 281 282 279 
3 279 282 209 
3 83 210 85 
3 84 86 211 
3 86 85 211 
3 211 85 213 
3 85 210 213 
3 283 87 71 
3 88 89 284 
3 83 85 90 
3 83 90 91 
3 81 92 195 
3 285 278 92 
3 278 196 92 
3 196 197 92 
3 92 197 195 
3 272 271 286 
3 272 286 82 
3 287 270 69 
3 287 69 288 
3 289 95 290 
3 289 290 291 
3 201 141 292 
3 293 292 139 
3 141 139 292 
3 294 86 96 
3 37 16 99 
3 37 99 102 
3 88 295 296 
3 68 71 87 
3 68 87 297 
3 298 100 299 
3 298 299 300 
3 283 71 67 
3 283 67 75 
3 301 302 303 
3 303 302 212 
3 302 88 212 
3 284 304 88 
3 88 304 212 
3 305 39 18 
3 305 18 306 
3 88 296 89 
3 78 205 75 
3 75 205 283 
3 205 203 283 
3 283 203 307 
3 308 305 306 
3 308 306 309 
3 124 216 310 
3 310 216 204 
3 204 216 311 
3 216 127 311 
3 312 311 127 
3 84 313 96 
3 84 96 86 
3 126 214 98 
3 125 93 215 
3 214 217 98 
3 98 217 93 
3 93 217 215 
3 314 315 316 
3 314 316 94 
3 294 90 85 
3 294 85 86 
3 317 318 140 
3 37 308 309 
3 37 309 16 
3 294 319 91 
3 294 91 90 
3 258 320 99 
3 258 99 16 
3 175 176 128 
3 102 103 261 
3 102 261 37 
3 321 322 323 
3 324 325 326 
3 327 328 329 
3 321 323 330 
3 324 326 331 
3 332 333 334 
3 332 334 335 
3 335 334 336 
3 322 337 338 
3 322 338 323 
3 339 331 326 
3 339 326 340 
3 279 69 70 
3 341 105 169 
3 341 342 105 
3 342 343 106 
3 344 107 345 
3 346 108 107 
3 346 107 344 
3 302 301 109 
3 302 109 347 
3 172 173 101 
3 172 101 97 
3 151 152 345 
3 151 345 107 
3 348 107 108 
3 146 151 107 
3 146 107 348 
3 106 104 105 
3 104 171 167 
3 101 173 129 
3 129 173 128 
3 173 174 128 
3 133 134 157 
3 133 157 161 
3 111 115 116 
3 111 116 112 
3 113 114 116 
3 113 116 115 
3 111 110 113 
3 111 113 115 
3 349 350 18 
3 349 18 351 
3 118 119 192 
3 123 122 119 
3 192 119 193 
3 119 122 193 
3 122 190 193 
3 120 122 123 
3 120 123 121 
3 118 192 117 
3 117 192 120 
3 192 194 120 
3 194 191 120 
3 191 190 120 
3 190 122 120 
3 352 353 39 
3 352 39 354 
3 355 310 287 
3 356 357 320 
3 356 320 258 
3 128 174 175 
3 131 130 261 
3 131 261 103 
3 129 128 176 
3 133 358 142 
3 104 170 171 
3 106 170 104 
3 106 343 359 
3 106 359 137 
3 145 141 138 
3 144 360 361 
3 144 361 136 
3 143 144 136 
3 143 136 134 
3 142 143 134 
3 142 134 133 
3 142 358 132 
3 132 135 143 
3 132 143 142 
3 135 137 144 
3 135 144 143 
3 137 359 360 
3 137 360 144 
3 139 141 145 
3 74 362 154 
3 74 154 72 
3 72 141 363 
3 148 146 172 
3 148 172 97 
3 150 149 147 
3 147 146 150 
3 150 146 148 
3 148 149 150 
3 317 364 365 
3 317 365 366 
3 140 318 367 
3 140 367 368 
3 140 369 317 
3 317 369 364 
3 369 370 364 
3 151 163 158 
3 151 153 155 
3 371 154 372 
3 158 160 153 
3 158 153 151 
3 373 374 375 
3 151 155 152 
3 72 154 141 
3 141 154 371 
3 141 371 376 
3 156 162 164 
3 134 136 159 
3 134 159 157 
3 136 361 160 
3 136 160 159 
3 166 160 158 
3 165 166 158 
3 165 158 163 
3 164 165 156 
3 156 163 151 
3 156 151 146 
3 147 162 156 
3 147 156 146 
3 133 161 162 
3 133 162 147 
3 164 162 161 
3 164 161 157 
3 157 165 164 
3 157 159 166 
3 157 166 165 
3 159 160 166 
3 141 376 138 
3 168 167 377 
3 378 355 287 
3 288 378 287 
3 124 310 355 
3 106 137 135 
3 106 135 170 
3 135 132 170 
3 132 379 170 
3 171 170 379 
3 380 171 379 
3 171 380 167 
3 381 377 380 
3 167 380 377 
3 172 146 348 
3 348 173 172 
3 348 174 173 
3 382 109 301 
3 383 382 301 
3 383 301 384 
3 385 383 386 
3 383 384 386 
3 387 386 384 
3 388 385 386 
3 388 386 389 
3 390 391 392 
3 390 392 393 
3 394 395 396 
3 394 396 397 
3 105 342 106 
3 169 105 104 
3 398 179 226 
3 227 179 398 
3 327 329 399 
3 327 399 400 
3 333 332 401 
3 182 185 402 
3 403 404 405 
3 406 188 187 
3 186 188 406 
3 194 193 190 
3 194 190 191 
3 192 193 194 
3 196 198 197 
3 197 198 195 
3 407 408 409 
3 409 408 410 
3 411 204 311 
3 310 204 411 
3 280 209 412 
3 412 209 282 
3 303 212 413 
3 413 212 304 
3 216 414 415 
3 216 415 127 
3 124 416 417 
3 124 417 216 
3 418 217 214 
3 215 217 418 
3 363 141 201 
3 363 201 419 
3 156 165 163 
