ply
format ascii 1.0
comment VCGLIB generated
comment TextureFile Dungeons_2_Texture_01_A.png
element vertex 292
property float x
property float y
property float z
property float nx
property float ny
property float nz
property uchar red
property uchar green
property uchar blue
property uchar alpha
property float texture_u
property float texture_v
element face 302
property list uchar int vertex_indices
end_header
1.6e-05 500 30.54131 -0.0004298549 0.0004298549 0.9999998 192 192 192 255 0.006899 0.990619
500 500 30.54131 0.0002868145 0.0002868145 0.9999999 192 192 192 255 0.236611 0.990619
1.7e-05 332.7773 30.54131 -0.3270379 -0.1787267 0.9279563 192 192 192 255 0.006899 0.913793
500.0001 332.7773 30.54131 0.5691143 -0.3110218 0.7611665 192 192 192 255 0.236611 0.913793
400 332.7773 30.54131 -0.1044056 -0.2791803 0.9545459 192 192 192 255 0.190668 0.913793
100 332.7773 30.54131 0.05202087 -0.2825318 0.9578463 192 192 192 255 0.052841 0.913793
187.5126 382.6432 30.54131 0.001557161 -0.1701388 0.9854189 192 192 192 255 0.093047 0.936702
312.4875 382.6432 30.54131 -0.0001440923 -0.1686355 0.9856785 192 192 192 255 0.150463 0.936702
500.0001 357.7455 30.5413 0.3263674 0.1734569 0.9291916 192 192 192 255 0.236611 0.925264
500 475.9546 30.54131 0.006122504 -0.2371922 0.9714435 192 192 192 255 0.236611 0.979572
407.3143 357.7455 30.54131 0.04304133 0.2650073 0.9632853 192 192 192 255 0.194029 0.925264
306.5437 411.7177 30.54131 0.0002084856 0.000193114 1 192 192 192 255 0.147732 0.95006
306.5437 475.9546 30.54131 0.0003775691 -0.2367885 0.9715611 192 192 192 255 0.147732 0.979572
1.7e-05 357.7455 30.5413 -0.5682302 0.3020015 0.7654473 192 192 192 255 0.006899 0.925264
1.7e-05 475.9546 30.54131 -0.0004298691 -0.0001142329 0.9999999 192 192 192 255 0.006899 0.979572
92.68567 357.7455 30.54131 -0.08605021 0.2529511 0.9636447 192 192 192 255 0.049481 0.925264
193.4564 411.7177 30.54131 -0.0002652305 9.78129e-05 1 192 192 192 255 0.095777 0.95006
193.4564 475.9546 30.54131 -0.0001080745 -0.0002282346 1 192 192 192 255 0.095777 0.979572
1.7e-05 373.064 20.93003 -0.0005174231 6.874966e-05 0.9999999 192 192 192 255 0.004407 0.686189
88.26746 373.064 20.93003 -3.203607e-05 0.0001972476 1 192 192 192 255 0.044959 0.686189
1.7e-05 460.6361 20.93003 -0.0005172995 -0.0001374665 0.9999999 192 192 192 255 0.004407 0.726422
176.9564 420.5652 20.93003 -0.2616532 0.2423616 0.9342368 192 192 192 255 0.085705 0.708013
176.9564 460.6361 20.93003 -0.2135151 -0.1127267 0.9704144 192 192 192 255 0.085705 0.726422
411.7325 373.064 20.93003 6.408038e-05 0.0001883689 1 192 192 192 255 0.193566 0.686189
500.0001 373.064 20.93003 0.0006467074 0.0001374841 0.9999998 192 192 192 255 0.234118 0.686189
500.0001 460.6361 20.93003 0.0002519022 -0.2065398 0.9784382 192 192 192 255 0.234118 0.726422
323.0437 420.5652 20.93003 0.2629534 0.09697329 0.9599228 192 192 192 255 0.15282 0.708013
323.0437 460.6361 20.93003 0.0001147247 -0.5312856 0.8471928 192 192 192 255 0.15282 0.726422
400 322.4481 23.80071 -0.05202091 -0.2825318 0.9578463 192 192 192 255 0.190668 0.909047
500.0001 322.4481 23.80071 0.7164848 -0.07831201 0.6931931 192 192 192 255 0.236611 0.909047
312.4875 372.3139 23.80071 -0.0003047574 -0.5457982 0.8379166 192 192 192 255 0.150463 0.931957
187.5126 372.3139 23.80071 0.0002895854 -0.545165 0.8383288 192 192 192 255 0.093047 0.931957
100 322.4481 23.80071 0.1251793 -0.3347296 0.9339626 192 192 192 255 0.052841 0.909047
1.7e-05 322.4481 23.80071 -0.0005251036 -0.000143485 0.9999999 192 192 192 255 0.006899 0.909047
385.5566 280.0322 17.19444 -0.03927286 -3.266662e-05 0.9992285 192 192 192 255 0.178223 0.641538
312.4875 324.2676 17.19444 -0.2481504 -0.6494825 0.7187448 192 192 192 255 0.147784 0.659966
187.5126 324.2676 17.19444 0.5176894 -0.8555684 0.0006525003 192 192 192 255 0.095722 0.659966
114.4434 280.0322 17.19444 0.04826665 -0.07967578 0.9956516 192 192 192 255 0.065284 0.641538
400 291.4567 17.19444 -0.0003271374 -0.00117019 0.9999993 192 192 192 255 0.18424 0.646298
312.4875 341.4105 17.19444 -0.08519366 -0.23256 0.9688436 192 192 192 255 0.147784 0.667107
187.5126 341.4105 17.19444 0.04027901 -0.2494615 0.9675467 192 192 192 255 0.095722 0.667107
100 291.4567 17.19444 0.0006656767 -0.002369527 0.999997 192 192 192 255 0.059267 0.646298
400 304.6506 23.80071 -0.0716709 -0.2563712 0.9639176 192 192 192 255 0.190668 0.900871
320.8947 350.7613 23.80071 -0.04456442 -0.2470404 0.9679799 192 192 192 255 0.154326 0.922055
187.5126 354.5763 23.80071 0.08440158 -0.2373216 0.9677576 192 192 192 255 0.093047 0.923808
100 304.6506 23.80071 0.04247461 -0.1511916 0.9875916 192 192 192 255 0.052841 0.900871
464.6831 291.4567 17.19444 -1.885823e-05 -3.761772e-05 1 192 192 192 255 0.220385 0.894809
477.8338 304.6506 23.80071 -0.1875221 -0.09351559 0.9777988 192 192 192 255 0.226427 0.900871
35.24435 291.4567 17.19444 0.0001070978 -4.854567e-05 1 192 192 192 255 0.023091 0.894809
23.61271 304.6506 23.80071 5.92734e-05 -0.0001095898 1 192 192 192 255 0.017747 0.900871
1.6e-05 500 -30.54131 -5.156327e-05 5.156327e-05 -1 192 192 192 255 0.006899 0.760908
500 500 -30.54131 0.0003447725 0.0003447725 -0.9999999 192 192 192 255 0.236611 0.760908
1.7e-05 332.7773 -30.54131 -0.3270379 -0.1787267 -0.9279563 192 192 192 255 0.006899 0.837734
500.0001 332.7773 -30.54131 0.5691143 -0.3110218 -0.7611665 192 192 192 255 0.236611 0.837734
400 332.7773 -30.54131 -0.0004429872 -0.001184547 -0.9999992 192 192 192 255 0.190669 0.837734
100 332.7773 -30.54131 0.0001179043 -0.000640353 -0.9999998 192 192 192 255 0.052841 0.837734
187.5126 382.6432 -30.54131 0.000241629 -0.0006461162 -0.9999998 192 192 192 255 0.093047 0.814824
312.4875 382.6432 -30.54131 -0.05202091 -0.2825318 -0.9578463 192 192 192 255 0.150463 0.814824
500.0001 357.7455 -30.5413 0.3263674 0.1734569 -0.9291916 192 192 192 255 0.236611 0.826263
500 475.9546 -30.54131 0.008739978 -0.5288314 -0.8486819 192 192 192 255 0.236611 0.771955
407.3143 357.7455 -30.54131 0.03004585 0.2247118 -0.9739619 192 192 192 255 0.194029 0.826263
306.5437 411.7177 -30.54131 0.1459691 0.1295389 -0.9807715 192 192 192 255 0.147732 0.801467
306.5437 475.9546 -30.54131 9.314984e-05 -0.05901808 -0.9982569 192 192 192 255 0.147732 0.771955
1.7e-05 357.7455 -30.5413 -0.5682302 0.3020015 -0.7654473 192 192 192 255 0.006899 0.826263
1.7e-05 475.9546 -30.54131 -0.0008597379 -0.0001142328 -0.9999997 192 192 192 255 0.006899 0.771955
92.68567 357.7455 -30.54131 -0.107193 0.2008817 -0.9737332 192 192 192 255 0.049481 0.826263
193.4564 411.7177 -30.54131 -0.1154267 0.2121902 -0.9703876 192 192 192 255 0.095778 0.801467
193.4564 475.9546 -30.54131 -6.825321e-05 -0.0001441389 -1 192 192 192 255 0.095778 0.771955
1.7e-05 373.064 -20.93003 -0.0005174231 6.874966e-05 -0.9999999 192 192 192 255 0.004407 0.573113
88.26746 373.064 -20.93003 -0.04756279 0.08891802 -0.9949027 192 192 192 255 0.044959 0.573113
1.7e-05 460.6361 -20.93003 -0.0002586498 -0.0001374665 -1 192 192 192 255 0.004407 0.53288
176.9564 420.5652 -20.93003 -0.24782 0.4621916 -0.8514483 192 192 192 255 0.085705 0.551289
176.9564 460.6361 -20.93003 -0.2135151 -0.1127267 -0.9704144 192 192 192 255 0.085705 0.53288
411.7325 373.064 -20.93003 0.02862992 0.05733801 -0.9979442 192 192 192 255 0.193566 0.573113
500.0001 373.064 -20.93003 0.0006467074 0.0001374841 -0.9999998 192 192 192 255 0.234118 0.573113
500.0001 460.6361 -20.93003 0.0002958521 -0.142609 -0.9897791 192 192 192 255 0.234118 0.53288
323.0437 420.5652 -20.93003 0.2605999 0.09114344 -0.961135 192 192 192 255 0.15282 0.551289
323.0437 460.6361 -20.93003 0.0001444227 -0.5312366 -0.8472235 192 192 192 255 0.15282 0.53288
400 322.4481 -23.80071 -0.05202091 -0.2825318 -0.9578463 192 192 192 255 0.190669 0.842479
500.0001 322.4481 -23.80071 0.5246258 -0.0955696 -0.8459517 192 192 192 255 0.236611 0.842479
312.4875 372.3139 -23.80071 -0.1044056 -0.2791804 -0.9545459 192 192 192 255 0.150463 0.819569
187.5126 372.3139 -23.80071 0.05202087 -0.2825318 -0.9578463 192 192 192 255 0.093047 0.819569
100 322.4481 -23.80071 0.1251793 -0.3347296 -0.9339626 192 192 192 255 0.052841 0.842479
1.7e-05 322.4481 -23.80071 -0.000832823 -0.000151713 -0.9999996 192 192 192 255 0.006899 0.842479
385.5566 280.0322 -17.19444 -0.9991168 -9.702277e-05 -0.04201956 192 192 192 255 0.178223 0.616517
312.4875 324.2676 -17.19444 -0.1240752 -0.6841136 -0.7187448 192 192 192 255 0.147784 0.59809
187.5126 324.2676 -17.19444 0.4733819 -0.785932 -0.3977693 192 192 192 255 0.095723 0.59809
114.4434 280.0322 -17.19444 0.4945388 -0.8159057 -0.2995483 192 192 192 255 0.065284 0.616517
400 291.4567 -17.19444 -0.0003335515 -0.0011873 -0.9999993 192 192 192 255 0.18424 0.611758
312.4875 341.4105 -17.19444 -0.08650104 -0.2168169 -0.9723724 192 192 192 255 0.147784 0.590949
187.5126 341.4105 -17.19444 0.0001691325 -0.0009051965 -0.9999996 192 192 192 255 0.095723 0.590949
100 291.4567 -17.19444 0.0002020077 -0.000727403 -0.9999997 192 192 192 255 0.059267 0.611758
400 304.6506 -23.80071 -0.07315486 -0.2603999 -0.9627255 192 192 192 255 0.190669 0.850656
312.4875 354.5763 -23.80071 -0.04492724 -0.2085813 -0.9769726 192 192 192 255 0.150463 0.827719
191.2261 359.1785 -23.80071 0.07999694 -0.2062429 -0.9752253 192 192 192 255 0.094753 0.825604
100 304.6506 -23.80071 0.04052791 -0.1459356 -0.9884636 192 192 192 255 0.052841 0.850656
464.6831 291.4567 -17.19444 -0.0006036302 -0.0012041 -0.9999991 192 192 192 255 0.220385 0.856717
477.8338 304.6506 -23.80071 -0.1875221 -0.09351559 -0.9777988 192 192 192 255 0.226427 0.850656
35.24435 291.4567 -17.19444 0.4437192 -6.936499e-05 -0.8961659 192 192 192 255 0.023091 0.856717
23.61271 304.6506 -23.80071 0.1839595 -0.0004859047 -0.9829337 192 192 192 255 0.017747 0.850656
1.7e-05 0 23.80071 -0.0001503284 -0.0001498246 1 192 192 192 255 0.006899 0.760907
1.7e-05 0 -23.80071 -9.700492e-05 -9.700492e-05 -1 192 192 192 255 0.11082 0.902052
23.61271 0 -23.80071 0.3165151 -0.0003720456 -0.9485874 192 192 192 255 0.11082 0.891204
23.61271 0 23.80071 0.0003510282 -0.001066174 0.9999994 192 192 192 255 0.017747 0.760907
35.24435 0 17.19444 3.381743e-05 -0.0002054266 1 192 192 192 255 0.032291 0.524883
35.24435 0 -17.19444 0.4936413 -0.0007691343 -0.8696653 192 192 192 255 0.114591 0.638183
114.4434 0 -17.19444 0.4082483 -0.8164966 -0.4082483 192 192 192 255 0.114591 0.605191
114.4434 0 17.19444 5.437567e-05 -2.718783e-05 1 192 192 192 255 0.065284 0.524883
385.5566 0 -17.19444 -1 -0.0001038423 -0.0002076845 192 192 192 255 0.114591 0.652865
385.5566 0 17.19444 -0.7891563 -0.0001084579 0.6141925 192 192 192 255 0.178223 0.524883
464.6831 0 -17.19444 -0.2141579 -0.7156188 -0.6648505 192 192 192 255 0.114591 0.619903
464.6831 0 17.19444 -2.043366e-05 -6.828005e-05 1 192 192 192 255 0.220385 0.760907
477.8338 0 -23.80071 -0.09055297 -0.8068988 -0.5837076 192 192 192 255 0.11082 0.859658
477.8338 0 23.80071 -0.1265905 -0.5640107 0.8160066 192 192 192 255 0.226427 0.760907
500.0001 0 -23.80071 0.8164966 -0.4082483 -0.4082483 192 192 192 255 0.11082 0.849474
500.0001 0 23.80071 0.4082483 -0.8164966 0.4082483 192 192 192 255 0.236611 0.760907
372.2484 475.9547 30.54131 0.005056288 -0.3561331 0.9344215 192 192 192 255 0.177919 0.979572
487.9077 475.9546 30.54131 -0.01437739 -0.2382332 0.9711016 192 192 192 255 0.231055 0.979572
450.9146 486.0459 30.54131 -3.643649e-08 -0.1317548 0.9912823 192 192 192 255 0.21406 0.984208
450.1639 469.4916 26.48623 -1.379642e-07 -0.5314849 0.8470678 192 192 192 255 0.119607 0.608108
450.1639 469.4916 26.48633 -6.579512e-08 -0.2379218 0.9712843 192 192 192 255 0.213715 0.976603
196.9966 382.6432 30.54131 0.02033537 -0.1935288 0.9808838 192 192 192 255 0.097404 0.936702
260.9427 382.6432 30.54131 -0.007870662 -0.1413325 0.9899309 192 192 192 255 0.126782 0.936702
235.4239 393.5874 30.54131 0 -0.1305133 0.9914466 192 192 192 255 0.115058 0.941731
227.5174 375.296 25.74678 0 -0.432962 0.9014122 192 192 192 255 0.111426 0.933327
385.5566 250.1407 17.19444 -0.7346122 -0.03625032 0.6775182 192 192 192 255 0.178223 0.629086
385.5566 143.1368 17.19444 -0.3004254 0.009395675 0.953759 192 192 192 255 0.178223 0.584511
397.5656 205.422 17.19444 -0.1904478 0 0.9816973 192 192 192 255 0.183226 0.610458
385.5566 204.7059 1.844014 -0.9440909 0 0.3296853 192 192 192 255 0.122521 0.646762
23.61271 253.335 -23.80071 0.1872868 -0.008079177 -0.9822721 192 192 192 255 0.017747 0.874231
23.61271 133.6292 -23.80071 0.1008726 0.00552119 -0.9948841 192 192 192 255 0.017747 0.929227
12.50375 202.9615 -23.80071 0.0447331 -3.362335e-10 -0.998999 192 192 192 255 0.012644 0.897374
31.07751 196.1757 -19.56103 0.364434 0 -0.9312292 192 192 192 255 0.021177 0.900491
107.578 365.7217 -30.54131 -0.08564996 0.2145689 -0.9729462 192 192 192 255 0.056323 0.822598
180.9593 405.0243 -30.54131 -0.1377946 0.2085375 -0.9682586 192 192 192 255 0.090036 0.804541
141.142 367.609 -30.54131 -0.04587561 0.08565365 -0.9952682 192 192 192 255 0.071743 0.821731
134.2384 391.2953 -24.40306 -0.1889333 0.3527545 -0.9164434 192 192 192 255 0.066079 0.564737
481.1135 475.9546 -30.54131 -0.0243206 -0.4189633 -0.9076775 192 192 192 255 0.227934 0.771955
372.9041 475.9546 -30.54131 0.02040533 -0.3813946 -0.9241871 192 192 192 255 0.175728 0.525842
406.6738 488.4001 -30.54131 -2.97197e-09 -0.04836826 -0.9988296 192 192 192 255 0.193734 0.766237
413.2717 464.9818 -23.65661 1.614839e-10 -0.5314749 -0.847074 192 192 192 255 0.194273 0.530883
413.2717 464.9818 -23.65649 -1.733079e-08 -0.2820505 -0.9593995 192 192 192 255 0.196766 0.776996
181.8047 320.8121 -17.19444 0.4022568 -0.7942907 -0.4552931 192 192 192 255 0.093345 0.599529
127.3952 287.8731 -17.19444 0.3560093 -0.3754831 -0.8557277 192 192 192 255 0.070679 0.613251
149.2337 301.094 -0.940327 0.5178824 -0.8554518 -6.608122e-07 192 192 192 255 0.122145 0.686915
148.9567 312.7556 -17.19444 0.1904095 -0.3145235 -0.9299566 192 192 192 255 0.079661 0.602886
149.2337 301.094 -0.94043 0.439641 -0.7262108 -0.5285204 192 192 192 255 0.122187 0.939605
398.5067 358.9379 -30.54131 0.1013689 0.2028365 -0.9739516 192 192 192 255 0.18749 0.579603
354.7095 384.0351 -30.54131 0.1139914 0.1989352 -0.9733605 192 192 192 255 0.169861 0.814185
23.61271 276.2921 23.80071 0.281463 -0.02546874 0.9592341 192 192 192 255 0.017747 0.887842
23.61271 119.091 23.80071 0.06892908 0.007678225 0.997592 192 192 192 255 0.017747 0.81562
35.24435 184.3822 17.19444 0.0215146 1.578301e-10 0.9997686 192 192 192 255 0.023091 0.845617
15.75245 189.5768 23.80074 0.1649401 1.211725e-09 0.9863036 192 192 192 255 0.014136 0.848003
1.7e-05 357.7455 30.5413 -0.5682302 0.3020015 0.7654473 192 192 192 255 0.004407 0.679151
92.68567 357.7455 30.54131 -0.08605021 0.2529511 0.9636447 192 192 192 255 0.046989 0.679151
193.4564 411.7177 30.54131 -0.0002652305 9.78129e-05 1 192 192 192 255 0.093285 0.703948
193.4564 475.9546 30.54131 -0.0001080745 -0.0002282346 1 192 192 192 255 0.093285 0.73346
1.7e-05 475.9546 30.54131 -0.0004298691 -0.0001142329 0.9999999 192 192 192 255 0.004407 0.73346
407.3143 357.7455 30.54131 0.04304133 0.2650073 0.9632853 192 192 192 255 0.191536 0.679151
500.0001 357.7455 30.5413 0.3263674 0.1734569 0.9291916 192 192 192 255 0.234118 0.679151
306.5437 475.9546 30.54131 0.0003775691 -0.2367885 0.9715611 192 192 192 255 0.12147 0.67409
323.0437 460.6361 20.93003 0.0001147247 -0.5312856 0.8471928 192 192 192 255 0.117055 0.66651
372.2484 475.9547 30.54131 0.005056288 -0.3561331 0.9344215 192 192 192 255 0.12147 0.643904
500.0001 460.6361 20.93003 0.0002519022 -0.2065398 0.9784382 192 192 192 255 0.117055 0.585212
500 475.9546 30.54131 0.006122504 -0.2371922 0.9714435 192 192 192 255 0.12147 0.585212
487.9077 475.9546 30.54131 -0.01437739 -0.2382332 0.9711016 192 192 192 255 0.12147 0.590767
306.5437 475.9546 30.54131 0.0003775691 -0.2367885 0.9715611 192 192 192 255 0.14524 0.73346
306.5437 411.7177 30.54131 0.0002084856 0.000193114 1 192 192 192 255 0.14524 0.703948
312.4875 341.4105 17.19444 -0.08519366 -0.23256 0.9688436 192 192 192 255 0.150463 0.917759
400 291.4567 17.19444 -0.0003271374 -0.00117019 0.9999993 192 192 192 255 0.190668 0.894809
187.5126 341.4105 17.19444 0.04027901 -0.2494615 0.9675467 192 192 192 255 0.093047 0.917759
100 291.4567 17.19444 0.0006656767 -0.002369527 0.999997 192 192 192 255 0.052841 0.894809
464.6831 291.4567 17.19444 -1.885823e-05 -3.761772e-05 1 192 192 192 255 0.211185 0.646298
35.24435 291.4567 17.19444 0.0001070978 -4.854567e-05 1 192 192 192 255 0.032291 0.646298
35.24435 184.3822 17.19444 0.0215146 1.578301e-10 0.9997686 192 192 192 255 0.032291 0.601693
464.6831 0 17.19444 -2.043366e-05 -6.828005e-05 1 192 192 192 255 0.211185 0.524883
1.7e-05 357.7455 30.5413 -0.5682302 0.3020015 0.7654473 192 192 192 255 0.135786 0.925264
1.7e-05 373.064 20.93003 -0.0005174231 6.874966e-05 0.9999999 192 192 192 255 0.131371 0.932302
1.7e-05 322.4481 23.80071 -0.0005251036 -0.000143485 0.9999999 192 192 192 255 0.13269 0.909047
1.7e-05 332.7773 30.54131 -0.3270379 -0.1787267 0.9279563 192 192 192 255 0.135786 0.913793
500.0001 373.064 20.93003 0.0006467074 0.0001374841 0.9999998 192 192 192 255 0.112139 0.932302
500.0001 357.7455 30.5413 0.3263674 0.1734569 0.9291916 192 192 192 255 0.107723 0.925264
500.0001 332.7773 30.54131 0.5691143 -0.3110218 0.7611665 192 192 192 255 0.107723 0.913793
500.0001 322.4481 23.80071 0.7164848 -0.07831201 0.6931931 192 192 192 255 0.11082 0.909047
1.7e-05 357.7455 -30.5413 -0.5682302 0.3020015 -0.7654473 192 192 192 255 0.004407 0.58015
92.68567 357.7455 -30.54131 -0.107193 0.2008817 -0.9737332 192 192 192 255 0.046989 0.58015
193.4564 411.7177 -30.54131 -0.1154267 0.2121902 -0.9703876 192 192 192 255 0.093285 0.555354
180.9593 405.0243 -30.54131 -0.1377946 0.2085375 -0.9682586 192 192 192 255 0.087544 0.558429
107.578 365.7217 -30.54131 -0.08564996 0.2145689 -0.9729462 192 192 192 255 0.053831 0.576486
193.4564 475.9546 -30.54131 -6.825321e-05 -0.0001441389 -1 192 192 192 255 0.093285 0.525842
1.7e-05 475.9546 -30.54131 -0.0008597379 -0.0001142328 -0.9999997 192 192 192 255 0.004407 0.525842
407.3143 357.7455 -30.54131 0.03004585 0.2247118 -0.9739619 192 192 192 255 0.191537 0.58015
500.0001 357.7455 -30.5413 0.3263674 0.1734569 -0.9291916 192 192 192 255 0.234118 0.58015
306.5437 475.9546 -30.54131 9.314984e-05 -0.05901808 -0.9982569 192 192 192 255 0.14524 0.525842
500 475.9546 -30.54131 0.008739978 -0.5288314 -0.8486819 192 192 192 255 0.234118 0.525842
481.1135 475.9546 -30.54131 -0.0243206 -0.4189633 -0.9076775 192 192 192 255 0.225441 0.525842
306.5437 411.7177 -30.54131 0.1459691 0.1295389 -0.9807715 192 192 192 255 0.14524 0.555354
354.7095 384.0351 -30.54131 0.1139914 0.1989352 -0.9733605 192 192 192 255 0.167369 0.568072
400 291.4567 -17.19444 -0.0003335515 -0.0011873 -0.9999993 192 192 192 255 0.190669 0.856717
312.4875 341.4105 -17.19444 -0.08650104 -0.2168169 -0.9723724 192 192 192 255 0.150463 0.833767
187.5126 341.4105 -17.19444 0.0001691325 -0.0009051965 -0.9999996 192 192 192 255 0.093047 0.833767
100 291.4567 -17.19444 0.0002020077 -0.000727403 -0.9999997 192 192 192 255 0.052841 0.856717
312.4875 324.2676 17.19444 -0.2481504 -0.6494825 0.7187448 192 192 192 255 0.128916 0.696569
312.4875 324.2676 -17.19444 -0.1240752 -0.6841136 -0.7187448 192 192 192 255 0.114591 0.696569
385.5566 280.0322 -17.19444 -0.9991168 -9.702277e-05 -0.04201956 192 192 192 255 0.114591 0.678142
385.5566 280.0322 17.19444 -0.03927286 -3.266662e-05 0.9992285 192 192 192 255 0.128916 0.678142
187.5126 324.2676 17.19444 0.5176894 -0.8555684 0.0006525003 192 192 192 255 0.128916 0.655059
187.5126 324.2676 -17.19444 0.4733819 -0.785932 -0.3977693 192 192 192 255 0.114591 0.655059
312.4875 324.2676 -17.19444 -0.1240752 -0.6841136 -0.7187448 192 192 192 255 0.114591 0.602997
312.4875 324.2676 17.19444 -0.2481504 -0.6494825 0.7187448 192 192 192 255 0.128916 0.602997
114.4434 280.0322 17.19444 0.04826665 -0.07967578 0.9956516 192 192 192 255 0.114591 0.678142
114.4434 280.0322 -17.19444 0.4945388 -0.8159057 -0.2995483 192 192 192 255 0.128916 0.678142
187.5126 324.2676 17.19444 0.5176894 -0.8555684 0.0006525003 192 192 192 255 0.114591 0.696569
187.5126 324.2676 -17.19444 0.4733819 -0.785932 -0.3977693 192 192 192 255 0.128916 0.696569
181.8047 320.8121 -17.19444 0.4022568 -0.7942907 -0.4552931 192 192 192 255 0.128916 0.695129
127.3952 287.8731 -17.19444 0.3560093 -0.3754831 -0.8557277 192 192 192 255 0.128916 0.681408
464.6831 291.4567 -17.19444 -0.0006036302 -0.0012041 -0.9999991 192 192 192 255 0.211186 0.611758
35.24435 291.4567 -17.19444 0.4437192 -6.936499e-05 -0.8961659 192 192 192 255 0.032291 0.611758
1.7e-05 0 23.80071 -0.0001503284 -0.0001498246 1 192 192 192 255 0.13269 0.902052
23.61271 0 23.80071 0.0003510282 -0.001066174 0.9999994 192 192 192 255 0.13269 0.891204
385.5566 0 17.19444 -0.7891563 -0.0001084579 0.6141925 192 192 192 255 0.128916 0.652865
464.6831 0 17.19444 -2.043366e-05 -6.828005e-05 1 192 192 192 255 0.128916 0.619903
1.7e-05 357.7455 -30.5413 -0.5682302 0.3020015 -0.7654473 192 192 192 255 0.107723 0.925264
1.7e-05 332.7773 -30.54131 -0.3270379 -0.1787267 -0.9279563 192 192 192 255 0.107723 0.913793
1.7e-05 322.4481 -23.80071 -0.000832823 -0.000151713 -0.9999996 192 192 192 255 0.11082 0.909047
1.7e-05 373.064 -20.93003 -0.0005174231 6.874966e-05 -0.9999999 192 192 192 255 0.112139 0.932302
500.0001 373.064 -20.93003 0.0006467074 0.0001374841 -0.9999998 192 192 192 255 0.131371 0.932302
500.0001 322.4481 -23.80071 0.5246258 -0.0955696 -0.8459517 192 192 192 255 0.132689 0.909047
500.0001 332.7773 -30.54131 0.5691143 -0.3110218 -0.7611665 192 192 192 255 0.135786 0.913793
500.0001 357.7455 -30.5413 0.3263674 0.1734569 -0.9291916 192 192 192 255 0.135786 0.925264
500 475.9546 30.54131 0.006122504 -0.2371922 0.9714435 192 192 192 255 0.107723 0.979572
500 475.9546 -30.54131 0.008739978 -0.5288314 -0.8486819 192 192 192 255 0.135786 0.979572
500 500 -30.54131 0.0003447725 0.0003447725 -0.9999999 192 192 192 255 0.135786 0.990619
500 500 30.54131 0.0002868145 0.0002868145 0.9999999 192 192 192 255 0.107723 0.990619
1.6e-05 500 30.54131 -0.0004298549 0.0004298549 0.9999998 192 192 192 255 0.135786 0.990619
1.6e-05 500 -30.54131 -5.156327e-05 5.156327e-05 -1 192 192 192 255 0.107723 0.990619
1.7e-05 475.9546 -30.54131 -0.0008597379 -0.0001142328 -0.9999997 192 192 192 255 0.107723 0.979572
1.7e-05 475.9546 30.54131 -0.0004298691 -0.0001142329 0.9999999 192 192 192 255 0.135786 0.979572
1.7e-05 460.6361 20.93003 -0.0005172995 -0.0001374665 0.9999999 192 192 192 255 0.131371 0.972534
1.7e-05 460.6361 -20.93003 -0.0002586498 -0.0001374665 -1 192 192 192 255 0.112139 0.972534
35.24435 0 17.19444 3.381743e-05 -0.0002054266 1 192 192 192 255 0.128916 0.638183
114.4434 0 17.19444 5.437567e-05 -2.718783e-05 1 192 192 192 255 0.128916 0.605191
35.24435 0 -17.19444 0.4936413 -0.0007691343 -0.8696653 192 192 192 255 0.113855 0.88586
35.24435 0 17.19444 3.381743e-05 -0.0002054266 1 192 192 192 255 0.129654 0.88586
464.6831 0 17.19444 -2.043366e-05 -6.828005e-05 1 192 192 192 255 0.129654 0.8657
464.6831 0 -17.19444 -0.2141579 -0.7156188 -0.6648505 192 192 192 255 0.113855 0.8657
477.8338 0 23.80071 -0.1265905 -0.5640107 0.8160066 192 192 192 255 0.132689 0.859658
500.0001 0 23.80071 0.4082483 -0.8164966 0.4082483 192 192 192 255 0.132689 0.849474
500.0001 460.6361 -20.93003 0.0002958521 -0.142609 -0.9897791 192 192 192 255 0.131371 0.972534
500.0001 460.6361 20.93003 0.0002519022 -0.2065398 0.9784382 192 192 192 255 0.112139 0.972534
1.6e-05 500 30.54131 -0.0004298549 0.0004298549 0.9999998 192 192 192 255 0.107723 0.990619
500 500 30.54131 0.0002868145 0.0002868145 0.9999999 192 192 192 255 0.107723 0.760908
500 500 -30.54131 0.0003447725 0.0003447725 -0.9999999 192 192 192 255 0.135786 0.760908
1.6e-05 500 -30.54131 -5.156327e-05 5.156327e-05 -1 192 192 192 255 0.135786 0.990619
1.7e-05 0 -23.80071 -9.700492e-05 -9.700492e-05 -1 192 192 192 255 0.11082 0.760907
1.7e-05 0 23.80071 -0.0001503284 -0.0001498246 1 192 192 192 255 0.13269 0.760907
23.61271 0 -23.80071 0.3165151 -0.0003720456 -0.9485874 192 192 192 255 0.017747 0.990619
1.7e-05 0 -23.80071 -9.700492e-05 -9.700492e-05 -1 192 192 192 255 0.006899 0.990619
114.4434 0 -17.19444 0.4082483 -0.8164966 -0.4082483 192 192 192 255 0.065284 0.733172
35.24435 0 -17.19444 0.4936413 -0.0007691343 -0.8696653 192 192 192 255 0.032291 0.733172
114.4434 0 17.19444 5.437567e-05 -2.718783e-05 1 192 192 192 255 0.114591 0.561487
114.4434 0 -17.19444 0.4082483 -0.8164966 -0.4082483 192 192 192 255 0.128916 0.561487
35.24435 0 -17.19444 0.4936413 -0.0007691343 -0.8696653 192 192 192 255 0.023091 0.990619
385.5566 250.1407 17.19444 -0.7346122 -0.03625032 0.6775182 192 192 192 255 0.128916 0.66569
385.5566 0 -17.19444 -1 -0.0001038423 -0.0002076845 192 192 192 255 0.114591 0.561487
385.5566 0 17.19444 -0.7891563 -0.0001084579 0.6141925 192 192 192 255 0.128916 0.561487
385.5566 143.1368 17.19444 -0.3004254 0.009395675 0.953759 192 192 192 255 0.128916 0.621114
464.6831 0 -17.19444 -0.2141579 -0.7156188 -0.6648505 192 192 192 255 0.211186 0.733172
385.5566 0 -17.19444 -1 -0.0001038423 -0.0002076845 192 192 192 255 0.178223 0.733172
477.8338 0 -23.80071 -0.09055297 -0.8068988 -0.5837076 192 192 192 255 0.226427 0.990619
464.6831 0 -17.19444 -0.2141579 -0.7156188 -0.6648505 192 192 192 255 0.220385 0.990619
500.0001 0 -23.80071 0.8164966 -0.4082483 -0.4082483 192 192 192 255 0.236611 0.990619
500.0001 0 23.80071 0.4082483 -0.8164966 0.4082483 192 192 192 255 0.11082 0.760907
500.0001 0 -23.80071 0.8164966 -0.4082483 -0.4082483 192 192 192 255 0.132689 0.760907
372.2484 475.9547 30.54131 0.005056288 -0.3561331 0.9344215 192 192 192 255 0.123963 0.890016
450.1639 469.4916 26.48623 -1.379642e-07 -0.5314849 0.8470678 192 192 192 255 0.1221 0.85422
450.1639 469.4916 26.48633 -6.579512e-08 -0.2379218 0.9712843 192 192 192 255 0.1221 0.85422
487.9077 475.9546 30.54131 -0.01437739 -0.2382332 0.9711016 192 192 192 255 0.123963 0.836879
397.5656 205.422 17.19444 -0.1904478 0 0.9816973 192 192 192 255 0.128916 0.647061
134.2384 391.2953 -24.40306 -0.1889333 0.3527545 -0.9164434 192 192 192 255 0.068572 0.810849
372.9041 475.9546 -30.54131 0.02040533 -0.3813946 -0.9241871 192 192 192 255 0.17822 0.771955
481.1135 475.9546 -30.54131 -0.0243206 -0.4189633 -0.9076775 192 192 192 255 0.123336 0.850906
413.2717 464.9818 -23.65661 1.614839e-10 -0.5314749 -0.847074 192 192 192 255 0.120173 0.882074
413.2717 464.9818 -23.65649 -1.733079e-08 -0.2820505 -0.9593995 192 192 192 255 0.120173 0.882074
372.9041 475.9546 -30.54131 0.02040533 -0.3813946 -0.9241871 192 192 192 255 0.123336 0.90062
149.2337 301.094 -0.940327 0.5178824 -0.8554518 -6.608122e-07 192 192 192 255 0.122187 0.939605
127.3952 287.8731 -17.19444 0.3560093 -0.3754831 -0.8557277 192 192 192 255 0.129654 0.933531
148.9567 312.7556 -17.19444 0.1904095 -0.3145235 -0.9299566 192 192 192 255 0.129654 0.944962
149.2337 301.094 -0.94043 0.439641 -0.7262108 -0.5285204 192 192 192 255 0.079776 0.607743
149.2337 301.094 -0.94043 0.439641 -0.7262108 -0.5285204 192 192 192 255 0.122145 0.686915
398.5067 358.9379 -30.54131 0.1013689 0.2028365 -0.9739516 192 192 192 255 0.189983 0.825715
35.24435 0 17.19444 3.381743e-05 -0.0002054266 1 192 192 192 255 0.023091 0.760907
3 18 19 20 
3 17 12 1 
3 17 1 0 
3 25 27 26 
3 25 26 23 
3 19 21 22 
3 19 22 20 
3 4 3 8 
3 4 8 10 
3 12 116 1 
3 116 118 1 
3 9 1 117 
3 1 118 117 
3 7 4 10 
3 7 10 11 
3 2 5 15 
3 2 15 13 
3 5 6 16 
3 5 16 15 
3 17 0 14 
3 16 11 12 
3 16 12 17 
3 6 121 16 
3 7 11 122 
3 11 16 122 
3 122 16 123 
3 121 123 16 
3 153 154 19 
3 153 19 18 
3 154 155 21 
3 154 21 19 
3 155 156 22 
3 155 22 21 
3 20 22 156 
3 20 156 157 
3 158 159 24 
3 158 24 23 
3 160 161 162 
3 161 163 162 
3 162 163 119 
3 164 165 163 
3 163 165 119 
3 166 167 26 
3 166 26 27 
3 167 158 23 
3 167 23 26 
3 23 24 25 
3 3 4 28 
3 3 28 29 
3 4 7 30 
3 4 30 28 
3 7 122 30 
3 6 31 121 
3 121 31 124 
3 31 30 124 
3 122 124 30 
3 6 5 32 
3 6 32 31 
3 5 2 33 
3 5 33 32 
3 29 28 42 
3 29 42 47 
3 38 39 35 
3 38 35 34 
3 39 40 36 
3 39 36 35 
3 40 41 37 
3 40 37 36 
3 33 49 45 
3 33 45 32 
3 42 43 168 
3 42 168 169 
3 43 44 170 
3 43 170 168 
3 44 45 171 
3 44 171 170 
3 28 30 43 
3 28 43 42 
3 30 31 44 
3 30 44 43 
3 31 32 45 
3 31 45 44 
3 48 49 149 
3 48 149 151 
3 46 47 42 
3 46 42 169 
3 34 172 38 
3 29 47 113 
3 29 113 115 
3 47 46 111 
3 47 111 113 
3 173 174 37 
3 37 174 107 
3 174 104 107 
3 49 48 171 
3 49 171 45 
3 33 100 49 
3 103 150 100 
3 149 49 152 
3 49 100 152 
3 100 150 152 
3 172 34 175 
3 34 125 175 
3 125 127 175 
3 127 126 175 
3 126 109 175 
3 173 37 41 
3 176 177 178 
3 176 178 179 
3 180 181 182 
3 180 182 183 
3 68 70 69 
3 51 139 50 
3 139 62 50 
3 67 50 62 
3 75 73 76 
3 75 76 77 
3 69 70 72 
3 69 72 71 
3 54 60 58 
3 54 58 53 
3 59 137 139 
3 59 139 51 
3 57 61 148 
3 57 148 54 
3 52 63 65 
3 52 65 55 
3 66 56 134 
3 134 56 135 
3 56 55 135 
3 135 55 133 
3 55 65 133 
3 67 64 50 
3 66 67 62 
3 66 62 61 
3 56 66 61 
3 56 61 57 
3 184 68 69 
3 184 69 185 
3 186 187 71 
3 185 69 188 
3 187 136 71 
3 71 136 69 
3 69 136 188 
3 186 71 72 
3 186 72 189 
3 70 190 189 
3 70 189 72 
3 191 73 74 
3 191 74 192 
3 193 138 77 
3 194 75 195 
3 195 75 140 
3 75 77 140 
3 77 138 140 
3 193 77 76 
3 193 76 196 
3 196 76 73 
3 196 73 197 
3 73 75 74 
3 53 79 78 
3 53 78 54 
3 54 78 80 
3 54 80 57 
3 57 80 81 
3 57 81 56 
3 56 81 82 
3 56 82 55 
3 55 82 83 
3 55 83 52 
3 79 97 92 
3 79 92 78 
3 88 84 85 
3 88 85 89 
3 89 85 86 
3 89 86 90 
3 87 91 143 
3 86 142 90 
3 142 145 90 
3 90 145 91 
3 145 143 91 
3 83 82 95 
3 83 95 99 
3 92 198 199 
3 92 199 93 
3 93 199 200 
3 93 200 94 
3 94 200 201 
3 94 201 95 
3 78 92 93 
3 78 93 80 
3 80 93 94 
3 80 94 81 
3 81 94 95 
3 81 95 82 
3 96 198 92 
3 96 92 97 
3 202 203 204 
3 202 204 205 
3 206 207 208 
3 206 208 209 
3 210 211 212 
3 213 212 214 
3 214 212 144 
3 212 211 144 
3 211 215 144 
3 84 88 216 
3 99 95 201 
3 99 201 98 
3 217 91 87 
3 218 101 102 
3 218 102 219 
3 220 108 110 
3 220 110 221 
3 222 223 224 
3 222 224 225 
3 226 227 228 
3 226 228 229 
3 230 231 232 
3 230 232 233 
3 234 235 236 
3 234 236 237 
3 238 239 225 
3 238 225 177 
3 236 239 238 
3 236 238 237 
3 177 225 224 
3 177 224 178 
3 240 105 106 
3 240 106 241 
3 219 102 242 
3 219 242 243 
3 244 245 112 
3 244 112 246 
3 112 114 247 
3 112 247 246 
3 183 227 226 
3 183 226 180 
3 180 226 248 
3 180 248 249 
3 249 248 231 
3 249 231 230 
3 250 251 252 
3 250 252 253 
3 224 254 255 
3 224 255 178 
3 256 257 130 
3 99 129 83 
3 130 257 131 
3 257 83 131 
3 129 131 83 
3 87 258 259 
3 87 259 217 
3 211 210 260 
3 211 260 261 
3 99 98 129 
3 262 256 98 
3 129 98 132 
3 98 256 132 
3 256 130 132 
3 205 204 263 
3 264 265 204 
3 265 266 204 
3 266 128 204 
3 204 128 263 
3 216 267 268 
3 216 268 84 
3 97 269 270 
3 97 270 96 
3 79 271 269 
3 79 269 97 
3 183 272 273 
3 183 273 227 
3 120 118 116 
3 274 275 276 
3 276 275 277 
3 117 118 120 
3 124 123 121 
3 122 123 124 
3 128 278 263 
3 266 278 128 
3 132 131 129 
3 130 131 132 
3 134 135 279 
3 279 135 133 
3 139 280 62 
3 139 137 141 
3 281 282 283 
3 283 282 284 
3 139 141 280 
3 146 285 286 
3 286 287 146 
3 288 145 142 
3 214 144 289 
3 147 73 191 
3 54 290 60 
3 197 73 147 
3 54 148 290 
3 151 150 103 
3 151 103 291 
3 151 149 152 
3 151 152 150 
