ply
format ascii 1.0
comment VCGLIB generated
comment TextureFile Dungeons_2_Texture_01_A.png
element vertex 58
property float x
property float y
property float z
property float nx
property float ny
property float nz
property uchar red
property uchar green
property uchar blue
property uchar alpha
property float texture_u
property float texture_v
element face 96
property list uchar int vertex_indices
end_header
83.64062 30 100 0.1723762 0.7313085 0.6599048 192 192 192 255 0.035246 0.818287
100 30 83.63965 0.5885189 0.7313048 0.3447301 192 192 192 255 0.046411 0.80845
100 0 83.63965 0.9999998 -0.0005167361 0.0003653767 192 192 192 255 0.017405 0.803796
83.64062 0 100 0.4112122 -0.5815246 0.70195 192 192 192 255 0.032471 0.788728
-100 19.41003 83.63965 -0.9540231 0.2954246 0.05063982 192 192 192 255 0.043585 0.958654
-83.64062 30 100 -0.5136415 0.685635 0.5158265 192 192 192 255 0.034752 0.942495
-100 0 83.63965 -0.9999996 -0.000898077 0.0001587559 192 192 192 255 0.201604 0.803795
-83.64062 0 100 -0.7040657 -0.006132717 0.7101085 192 192 192 255 0.186537 0.788727
100 0 -83.63965 0.9999976 -0.002067253 -0.0007308624 192 192 192 255 0.017406 0.95786
83.64062 0 -100 0.2056061 -0.5815246 -0.7871184 192 192 192 255 0.032473 0.972927
100 30 -83.63965 0.6599118 0.7313048 -0.172365 192 192 192 255 0.173507 0.807323
83.64062 30 -100 0.4112122 0.5815246 -0.70195 192 192 192 255 0.183707 0.818281
-83.64062 0 -100 -0.0009020537 -0.001275658 -0.9999988 192 192 192 255 0.186538 0.972926
-100 0 -83.63965 -1 -0.0002246207 -0.0001588261 192 192 192 255 0.201605 0.957858
-74.25781 30 -100 -0.0001779255 0.9999992 -0.001297901 192 192 192 255 0.182085 0.938728
-94.57617 30 -78.2168 -0.0677119 0.9920849 -0.105748 192 192 192 255 0.166634 0.951773
80.10742 30 -63.74805 0.2809012 0.9472649 -0.1542203 192 192 192 255 0.158085 0.820735
63.74805 30 -80.1084 0.06787474 0.9543435 -0.2908979 192 192 192 255 0.171866 0.833472
-63.74805 30 -80.1084 -0.0005501302 0.9999993 -0.001002042 192 192 192 255 0.168992 0.929148
-80.10742 30 -63.74805 -0.01574206 0.9998694 -0.003673091 192 192 192 255 0.155826 0.940985
-80.10742 30 63.74805 -0.003081135 0.9999939 0.001691606 192 192 192 255 0.060789 0.93999
-63.74805 30 80.10742 -0.001599447 0.9999898 0.004227268 192 192 192 255 0.048455 0.927437
63.74805 30 80.10742 0.0005497974 0.5936713 0.8047075 192 192 192 255 0.049052 0.832906
80.10742 30 63.74805 0.4886705 0.725341 0.4848523 192 192 192 255 0.061232 0.819021
65.44727 50 -49.08691 0.471709 0.8748581 -0.1100632 192 192 192 255 0.144824 0.836338
49.08594 50 -65.44629 0.2173276 0.8922256 -0.3958564 192 192 192 255 0.155615 0.847122
-67.00977 47.86769 -50.65039 -0.1344464 0.990727 -0.0196031 192 192 192 255 0.144151 0.926518
-49.08594 50 -65.44629 -0.02110257 0.9997723 -0.003189959 192 192 192 255 0.153365 0.914739
-49.08594 50 65.44629 -0.0001003733 1 0.0002652823 192 192 192 255 0.064601 0.913824
-65.44727 50 49.08594 -0.06217007 0.9980279 -0.008681451 192 192 192 255 0.0748 0.924761
65.44727 50 49.08594 0.414791 0.8107197 0.4131369 192 192 192 255 0.075545 0.834934
50.63281 47.89134 66.99219 0.01033326 0.7922164 0.6101528 192 192 192 255 0.063644 0.844527
-91.24609 30 92.39355 -0.6288499 0.6885959 0.3610868 192 192 192 255 0.039728 0.947805
-91.78711 30 75.42773 -0.4778036 0.8755121 0.07198857 192 192 192 255 0.051528 0.948843
-100 30 34.29199 -0.8496499 0.5252978 0.04644616 192 192 192 255 0.082567 0.952867
-83.64062 26.24385 -100 -0.4149221 0.5536889 -0.721989 192 192 192 255 0.182652 0.945947
-100 26.60964 -83.63965 -0.9999303 0.01092115 -0.004504531 192 192 192 255 0.170738 0.957054
-100 30 -74.8125 -0.9886591 0.1493693 -0.01555251 192 192 192 255 0.163799 0.954785
15.20898 30 -100 0.009149402 0.7557868 -0.6547539 192 192 192 255 0.183959 0.872283
76.43945 30 -100 -0.1253514 0.7180761 -0.6845829 192 192 192 255 0.184702 0.822342
56.94531 30 -94.65234 0 0.7703428 -0.63763 192 192 192 255 0.18211 0.838689
51.22461 25.53307 -100 0 0.175489 -0.9844815 192 192 192 255 0.187162 0.843319
100 30 11.26465 0.9398317 0.2728793 0.2055562 192 192 192 255 0.10188 0.806276
100 30 71.44043 0.7683136 0.5706865 -0.2898469 192 192 192 255 0.054018 0.806863
94.55859 30 57.125 0.9138381 0.3932166 -0.1013936 192 192 192 255 0.065438 0.808865
95.56641 30 31.48145 0.9595224 0.257595 0.1138489 192 192 192 255 0.085776 0.808589
100 11.55263 35.30273 0.9905914 0.1368533 2.481485e-09 192 192 192 255 0.080997 0.795118
55.13086 50 59.40332 0.3599792 0.8441805 0.397208 192 192 192 255 0.068689 0.841486
49.08594 50 55.67969 0.01989475 0.9883319 0.1510111 192 192 192 255 0.071262 0.845883
9.261719 50 65.44629 0.002376816 0.9957534 0.09203006 192 192 192 255 0.064595 0.873283
83.64062 0 100 0.4112122 -0.5815246 0.70195 192 192 192 255 0.015598 0.809038
100 0 83.63965 0.9999998 -0.0005167361 0.0003653767 192 192 192 255 0.035568 0.788309
100 0 -83.63965 0.9999976 -0.002067253 -0.0007308624 192 192 192 255 0.18388 0.788045
83.64062 0 -100 0.2056061 -0.5815246 -0.7871184 192 192 192 255 0.203412 0.80919
-83.64062 0 100 -0.7040657 -0.006132717 0.7101085 192 192 192 255 0.017416 0.952802
-100 0 83.63965 -0.9999996 -0.000898077 0.0001587559 192 192 192 255 0.03903 0.972141
-83.64062 0 -100 -0.0009020537 -0.001275658 -0.9999988 192 192 192 255 0.201066 0.954915
-100 0 -83.63965 -1 -0.0002246207 -0.0001588261 192 192 192 255 0.178637 0.97361
3 8 2 3 
3 8 3 7 
3 8 7 6 
3 8 6 9 
3 6 13 12 
3 6 12 9 
3 31 48 49 
3 0 1 23 
3 0 23 22 
3 1 0 50 
3 1 50 51 
3 4 32 33 
3 52 53 11 
3 52 11 10 
3 10 11 17 
3 10 17 16 
3 35 36 15 
3 35 15 14 
3 16 17 25 
3 16 25 24 
3 18 19 26 
3 18 26 27 
3 20 21 28 
3 20 28 29 
3 0 5 54 
3 0 54 50 
3 51 46 43 
3 51 43 1 
3 33 34 4 
3 5 0 22 
3 5 22 21 
3 23 44 45 
3 23 45 16 
3 17 18 27 
3 17 27 25 
3 19 20 29 
3 19 29 26 
3 23 16 24 
3 23 24 30 
3 28 27 29 
3 47 48 31 
3 5 32 54 
3 54 32 4 
3 54 4 55 
3 5 21 32 
3 33 32 21 
3 33 21 20 
3 36 37 15 
3 39 11 53 
3 39 53 56 
3 39 56 41 
3 41 56 38 
3 56 35 14 
3 56 14 38 
3 56 57 36 
3 56 36 35 
3 57 55 36 
3 37 36 55 
3 37 55 4 
3 4 34 37 
3 33 20 34 
3 34 20 19 
3 34 19 37 
3 15 37 19 
3 14 15 19 
3 14 19 18 
3 17 11 39 
3 17 39 40 
3 14 18 38 
3 18 17 40 
3 18 40 38 
3 39 41 40 
3 40 41 38 
3 44 46 45 
3 43 46 44 
3 45 46 42 
3 10 42 46 
3 10 46 52 
3 52 46 51 
3 1 43 44 
3 1 44 23 
3 16 45 42 
3 16 42 10 
3 24 25 48 
3 24 48 30 
3 47 30 48 
3 48 25 27 
3 48 27 49 
3 49 27 28 
3 28 21 22 
3 28 22 49 
3 22 31 49 
3 31 22 23 
3 31 23 47 
3 23 30 47 
3 29 27 26 
