ply
format ascii 1.0
comment VCGLIB generated
comment TextureFile Dungeons_2_Texture_01_A.png
element vertex 462
property float x
property float y
property float z
property float nx
property float ny
property float nz
property uchar red
property uchar green
property uchar blue
property uchar alpha
property float texture_u
property float texture_v
element face 154
property list uchar int vertex_indices
end_header
10.4172 16.087 -10.4938 0.4098 0.897056 -0.165393 255 255 255 255 0.069538 0.124095
8.32407 17.7818 -6.4881 0.4098 0.897056 -0.165393 255 255 255 255 0.069538 0.124062
27.2023 12.2036 10.0322 0.4098 0.897056 -0.165393 255 255 255 255 0.069708 0.124048
8.32407 17.7818 -6.4881 0.413721 0.894233 -0.170828 255 255 255 255 0.069538 0.124062
23.2927 14.7735 14.0163 0.413721 0.894233 -0.170828 255 255 255 255 0.069697 0.124007
27.2023 12.2036 10.0322 0.413721 0.894233 -0.170828 255 255 255 255 0.069708 0.124048
27.2023 12.2036 10.0322 0.773575 -0.005757 -0.633679 255 255 255 255 0.069708 0.124048
22.0063 -6.73462 3.86115 0.773575 -0.005757 -0.633679 255 255 255 255 0.069657 0.124136
10.4172 16.087 -10.4938 0.773575 -0.005757 -0.633679 255 255 255 255 0.069538 0.124095
10.4172 16.087 -10.4938 0.786089 0.010445 -0.618024 255 255 255 255 0.069538 0.124095
22.0063 -6.73462 3.86115 0.786089 0.010445 -0.618024 255 255 255 255 0.069657 0.124136
1.24802 11.7563 -22.2296 0.786089 0.010445 -0.618024 255 255 255 255 0.069443 0.124147
22.0063 -6.73462 3.86115 0.763326 0.001074 -0.646012 255 255 255 255 0.069657 0.124136
27.2023 12.2036 10.0322 0.763326 0.001074 -0.646012 255 255 255 255 0.069708 0.124048
26.7333 2.23375 9.46146 0.763326 0.001074 -0.646012 255 255 255 255 0.069703 0.124087
1.24802 11.7563 -22.2296 0.781174 -0.003928 -0.6243 255 255 255 255 0.069443 0.124147
22.0063 -6.73462 3.86115 0.781174 -0.003928 -0.6243 255 255 255 255 0.069657 0.124136
1.21024 -0.84941 -22.1976 0.781174 -0.003928 -0.6243 255 255 255 255 0.069444 0.124193
22.0063 -6.73462 3.86115 0.778032 -0.572124 0.259499 255 255 255 255 0.069657 0.124136
26.7333 2.23375 9.46146 0.778032 -0.572124 0.259499 255 255 255 255 0.069703 0.124087
24.7149 1.04231 12.8861 0.778032 -0.572124 0.259499 255 255 255 255 0.069702 0.124068
22.0063 -6.73462 3.86115 0.782134 0.004815 -0.623092 255 255 255 255 0.069657 0.124136
9.70554 -6.52083 -11.5777 0.782134 0.004815 -0.623092 255 255 255 255 0.069532 0.124181
1.21024 -0.84941 -22.1976 0.782134 0.004815 -0.623092 255 255 255 255 0.069444 0.124193
1.21024 -0.84941 -22.1976 0.070966 -0.855172 -0.513464 255 255 255 255 0.069444 0.124193
9.70554 -6.52083 -11.5777 0.070966 -0.855172 -0.513464 255 255 255 255 0.069532 0.124181
-1.61716 -5.86133 -14.2411 0.070966 -0.855172 -0.513464 255 255 255 255 0.069454 0.124162
27.2023 12.2036 10.0322 0.869763 -0.068888 0.488638 255 255 255 255 0.069708 0.124048
24.7149 1.04231 12.8861 0.869763 -0.068888 0.488638 255 255 255 255 0.069702 0.124068
26.7333 2.23375 9.46146 0.869763 -0.068888 0.488638 255 255 255 255 0.069703 0.124087
-5.86935 10.5872 -23.0861 0.119936 -0.002883 -0.992777 255 255 255 255 0.069397 0.124136
1.24802 11.7563 -22.2296 0.119936 -0.002883 -0.992777 255 255 255 255 0.069443 0.124147
1.21024 -0.84941 -22.1976 0.119936 -0.002883 -0.992777 255 255 255 255 0.069444 0.124193
23.2927 14.7735 14.0163 0.719203 0.017327 0.694584 255 255 255 255 0.069697 0.124007
24.7149 1.04231 12.8861 0.719203 0.017327 0.694584 255 255 255 255 0.069702 0.124068
27.2023 12.2036 10.0322 0.719203 0.017327 0.694584 255 255 255 255 0.069708 0.124048
-20.3802 16.4356 -9.55478 -0.00148 0.920686 -0.390301 255 255 255 255 0.069352 0.124004
8.32407 17.7818 -6.4881 -0.00148 0.920686 -0.390301 255 255 255 255 0.069538 0.124062
10.4172 16.087 -10.4938 -0.00148 0.920686 -0.390301 255 255 255 255 0.069538 0.124095
-8.45682 -4.85123 -20.893 0.294499 -0.852317 -0.432233 255 255 255 255 0.069391 0.124174
1.21024 -0.84941 -22.1976 0.294499 -0.852317 -0.432233 255 255 255 255 0.069444 0.124193
-1.61716 -5.86133 -14.2411 0.294499 -0.852317 -0.432233 255 255 255 255 0.069454 0.124162
-5.86935 10.5872 -23.0861 -0.08089 -0.126878 -0.988614 255 255 255 255 0.069397 0.124136
1.21024 -0.84941 -22.1976 -0.08089 -0.126878 -0.988614 255 255 255 255 0.069444 0.124193
-8.45682 -4.85123 -20.893 -0.08089 -0.126878 -0.988614 255 255 255 255 0.069391 0.124174
2.46994 -10.3022 7.93003 0.150977 -0.979433 -0.133852 255 255 255 255 0.069551 0.124075
9.70554 -6.52083 -11.5777 0.150977 -0.979433 -0.133852 255 255 255 255 0.069532 0.124181
22.0063 -6.73462 3.86115 0.150977 -0.979433 -0.133852 255 255 255 255 0.069657 0.124136
22.0063 -6.73462 3.86115 0.619575 -0.676926 0.397365 255 255 255 255 0.069657 0.124136
24.7149 1.04231 12.8861 0.619575 -0.676926 0.397365 255 255 255 255 0.069702 0.124068
11.2881 -5.06898 23.4106 0.619575 -0.676926 0.397365 255 255 255 255 0.069654 0.124
22.0063 -6.73462 3.86115 0.216155 -0.955669 0.199934 255 255 255 255 0.069657 0.124136
11.2881 -5.06898 23.4106 0.216155 -0.955669 0.199934 255 255 255 255 0.069654 0.124
2.46994 -10.3022 7.93003 0.216155 -0.955669 0.199934 255 255 255 255 0.069551 0.124075
8.32407 17.7818 -6.4881 0.374697 0.916661 -0.139049 255 255 255 255 0.069538 0.124062
15.168 17.5161 10.2028 0.374697 0.916661 -0.139049 255 255 255 255 0.069635 0.123995
23.2927 14.7735 14.0163 0.374697 0.916661 -0.139049 255 255 255 255 0.069697 0.124007
23.2927 14.7735 14.0163 0.572386 -0.008198 0.819943 255 255 255 255 0.069697 0.124007
-1.44388 6.06091 31.1973 0.572386 -0.008198 0.819943 255 255 255 255 0.069602 0.123885
24.7149 1.04231 12.8861 0.572386 -0.008198 0.819943 255 255 255 255 0.069702 0.124068
2.46994 -10.3022 7.93003 -0.011414 -0.980864 -0.194361 255 255 255 255 0.069551 0.124075
-1.61716 -5.86133 -14.2411 -0.011414 -0.980864 -0.194361 255 255 255 255 0.069454 0.124162
9.70554 -6.52083 -11.5777 -0.011414 -0.980864 -0.194361 255 255 255 255 0.069532 0.124181
-20.3802 16.4356 -9.55478 6.1e-05 0.938147 -0.346237 255 255 255 255 0.069352 0.124004
10.4172 16.087 -10.4938 6.1e-05 0.938147 -0.346237 255 255 255 255 0.069538 0.124095
1.24802 11.7563 -22.2296 6.1e-05 0.938147 -0.346237 255 255 255 255 0.069443 0.124147
-23.0408 -4.94798 -6.79025 -0.06991 -0.994411 -0.079118 255 255 255 255 0.069349 0.124062
-8.45682 -4.85123 -20.893 -0.06991 -0.994411 -0.079118 255 255 255 255 0.069391 0.124174
-1.61716 -5.86133 -14.2411 -0.06991 -0.994411 -0.079118 255 255 255 255 0.069454 0.124162
-1.44388 6.06091 31.1973 0.583689 0.104341 0.805246 255 255 255 255 0.069602 0.123885
11.2881 -5.06898 23.4106 0.583689 0.104341 0.805246 255 255 255 255 0.069654 0.124
24.7149 1.04231 12.8861 0.583689 0.104341 0.805246 255 255 255 255 0.069702 0.124068
-15.2026 17.8116 7.30386 0.008545 0.999886 0.012413 255 255 255 255 0.069439 0.123926
15.168 17.5161 10.2028 0.008545 0.999886 0.012413 255 255 255 255 0.069635 0.123995
8.32407 17.7818 -6.4881 0.008545 0.999886 0.012413 255 255 255 255 0.069538 0.124062
-15.2026 17.8116 7.30386 -0.039348 0.996821 -0.069278 255 255 255 255 0.069439 0.123926
8.32407 17.7818 -6.4881 -0.039348 0.996821 -0.069278 255 255 255 255 0.069538 0.124062
-20.3802 16.4356 -9.55478 -0.039348 0.996821 -0.069278 255 255 255 255 0.069352 0.124004
-5.86935 10.5872 -23.0861 -0.695125 0.014403 -0.718745 255 255 255 255 0.069397 0.124136
-8.45682 -4.85123 -20.893 -0.695125 0.014403 -0.718745 255 255 255 255 0.069391 0.124174
-23.0408 -4.94798 -6.79025 -0.695125 0.014403 -0.718745 255 255 255 255 0.069349 0.124062
1.24802 11.7563 -22.2296 -0.087199 0.876978 -0.472553 255 255 255 255 0.069443 0.124147
-5.86935 10.5872 -23.0861 -0.087199 0.876978 -0.472553 255 255 255 255 0.069397 0.124136
-20.3802 16.4356 -9.55478 -0.087199 0.876978 -0.472553 255 255 255 255 0.069352 0.124004
-20.3802 16.4356 -9.55478 -0.683945 -0.009211 -0.729476 255 255 255 255 0.069352 0.124004
-5.86935 10.5872 -23.0861 -0.683945 -0.009211 -0.729476 255 255 255 255 0.069397 0.124136
-23.0408 -4.94798 -6.79025 -0.683945 -0.009211 -0.729476 255 255 255 255 0.069349 0.124062
-17.8487 -6.65498 7.38242 -0.07444 -0.992943 -0.092322 255 255 255 255 0.069427 0.124009
-23.0408 -4.94798 -6.79025 -0.07444 -0.992943 -0.092322 255 255 255 255 0.069349 0.124062
-1.61716 -5.86133 -14.2411 -0.07444 -0.992943 -0.092322 255 255 255 255 0.069454 0.124162
11.2881 -5.06898 23.4106 0.522784 0.001635 0.852463 255 255 255 255 0.069654 0.124
-1.44388 6.06091 31.1973 0.522784 0.001635 0.852463 255 255 255 255 0.069602 0.123885
1.25998 -2.65986 29.5558 0.522784 0.001635 0.852463 255 255 255 255 0.069613 0.123933
-4.42307 17.6061 18.4993 0.150545 0.926287 0.34544 255 255 255 255 0.069542 0.123898
23.2927 14.7735 14.0163 0.150545 0.926287 0.34544 255 255 255 255 0.069697 0.124007
15.168 17.5161 10.2028 0.150545 0.926287 0.34544 255 255 255 255 0.069635 0.123995
-4.42307 17.6061 18.4993 0.008786 0.999912 0.009895 255 255 255 255 0.069542 0.123898
15.168 17.5161 10.2028 0.008786 0.999912 0.009895 255 255 255 255 0.069635 0.123995
-15.2026 17.8116 7.30386 0.008786 0.999912 0.009895 255 255 255 255 0.069439 0.123926
23.2927 14.7735 14.0163 0.179749 0.748468 0.638347 255 255 255 255 0.069697 0.124007
-4.42307 17.6061 18.4993 0.179749 0.748468 0.638347 255 255 255 255 0.069542 0.123898
-1.44388 6.06091 31.1973 0.179749 0.748468 0.638347 255 255 255 255 0.069602 0.123885
-15.2026 17.8116 7.30386 -0.359102 0.860421 0.361555 255 255 255 255 0.069439 0.123926
-10.2624 12.2385 25.4733 -0.359102 0.860421 0.361555 255 255 255 255 0.069529 0.123867
-4.42307 17.6061 18.4993 -0.359102 0.860421 0.361555 255 255 255 255 0.069542 0.123898
1.25998 -2.65986 29.5558 -0.023123 -0.943012 0.331955 255 255 255 255 0.069613 0.123933
2.46994 -10.3022 7.93003 -0.023123 -0.943012 0.331955 255 255 255 255 0.069551 0.124075
11.2881 -5.06898 23.4106 -0.023123 -0.943012 0.331955 255 255 255 255 0.069654 0.124
2.46994 -10.3022 7.93003 -0.170038 -0.971812 -0.163307 255 255 255 255 0.069551 0.124075
-17.8487 -6.65498 7.38242 -0.170038 -0.971812 -0.163307 255 255 255 255 0.069427 0.124009
-1.61716 -5.86133 -14.2411 -0.170038 -0.971812 -0.163307 255 255 255 255 0.069454 0.124162
-15.2026 17.8116 7.30386 -0.570119 0.814349 0.108626 255 255 255 255 0.069439 0.123926
-20.3802 16.4356 -9.55478 -0.570119 0.814349 0.108626 255 255 255 255 0.069352 0.124004
-26.2206 10.7368 2.51517 -0.570119 0.814349 0.108626 255 255 255 255 0.069358 0.123947
-26.2206 10.7368 2.51517 -0.909338 0.059913 -0.411722 255 255 255 255 0.069358 0.123947
-20.3802 16.4356 -9.55478 -0.909338 0.059913 -0.411722 255 255 255 255 0.069352 0.124004
-23.0408 -4.94798 -6.79025 -0.909338 0.059913 -0.411722 255 255 255 255 0.069349 0.124062
-26.2206 10.7368 2.51517 -0.983099 -0.114611 -0.142759 255 255 255 255 0.069358 0.123947
-23.0408 -4.94798 -6.79025 -0.983099 -0.114611 -0.142759 255 255 255 255 0.069349 0.124062
-25.3078 0.289685 4.61615 -0.983099 -0.114611 -0.142759 255 255 255 255 0.069372 0.123978
-10.2624 12.2385 25.4733 -0.611014 0.694853 0.379264 255 255 255 255 0.069529 0.123867
-15.2026 17.8116 7.30386 -0.611014 0.694853 0.379264 255 255 255 255 0.069439 0.123926
-26.2206 10.7368 2.51517 -0.611014 0.694853 0.379264 255 255 255 255 0.069358 0.123947
-10.2624 12.2385 25.4733 -0.821677 0.042507 0.568367 255 255 255 255 0.069529 0.123867
-26.2206 10.7368 2.51517 -0.821677 0.042507 0.568367 255 255 255 255 0.069358 0.123947
-25.3078 0.289685 4.61615 -0.821677 0.042507 0.568367 255 255 255 255 0.069372 0.123978
-4.42307 17.6061 18.4993 0.097336 0.747641 0.656931 255 255 255 255 0.069542 0.123898
-10.2624 12.2385 25.4733 0.097336 0.747641 0.656931 255 255 255 255 0.069529 0.123867
-1.44388 6.06091 31.1973 0.097336 0.747641 0.656931 255 255 255 255 0.069602 0.123885
-10.2624 12.2385 25.4733 -0.836397 0.401147 0.373525 255 255 255 255 0.069529 0.123867
-25.3078 0.289685 4.61615 -0.836397 0.401147 0.373525 255 255 255 255 0.069372 0.123978
-13.2977 4.49747 26.9902 -0.836397 0.401147 0.373525 255 255 255 255 0.069517 0.12388
-13.6481 -5.50767 21.2228 -0.830928 -0.255733 0.494125 255 255 255 255 0.069497 0.123946
-13.2977 4.49747 26.9902 -0.830928 -0.255733 0.494125 255 255 255 255 0.069517 0.12388
-25.3078 0.289685 4.61615 -0.830928 -0.255733 0.494125 255 255 255 255 0.069372 0.123978
-25.3078 0.289685 4.61615 -0.704921 -0.687238 0.175471 255 255 255 255 0.069372 0.123978
-23.0408 -4.94798 -6.79025 -0.704921 -0.687238 0.175471 255 255 255 255 0.069349 0.124062
-17.8487 -6.65498 7.38242 -0.704921 -0.687238 0.175471 255 255 255 255 0.069427 0.124009
1.25998 -2.65986 29.5558 -0.42335 -0.292641 0.857401 255 255 255 255 0.069613 0.123933
-1.44388 6.06091 31.1973 -0.42335 -0.292641 0.857401 255 255 255 255 0.069602 0.123885
-13.6481 -5.50767 21.2228 -0.42335 -0.292641 0.857401 255 255 255 255 0.069497 0.123946
-25.3078 0.289685 4.61615 -0.707854 -0.653141 0.268979 255 255 255 255 0.069372 0.123978
-17.8487 -6.65498 7.38242 -0.707854 -0.653141 0.268979 255 255 255 255 0.069427 0.124009
-13.6481 -5.50767 21.2228 -0.707854 -0.653141 0.268979 255 255 255 255 0.069497 0.123946
1.25998 -2.65986 29.5558 -0.005948 -0.942946 0.332893 255 255 255 255 0.069613 0.123933
-13.6481 -5.50767 21.2228 -0.005948 -0.942946 0.332893 255 255 255 255 0.069497 0.123946
2.46994 -10.3022 7.93003 -0.005948 -0.942946 0.332893 255 255 255 255 0.069551 0.124075
-13.6481 -5.50767 21.2228 -0.178582 -0.974621 0.134992 255 255 255 255 0.069497 0.123946
-17.8487 -6.65498 7.38242 -0.178582 -0.974621 0.134992 255 255 255 255 0.069427 0.124009
2.46994 -10.3022 7.93003 -0.178582 -0.974621 0.134992 255 255 255 255 0.069551 0.124075
26.9878 15.3661 -33.8297 -0.167405 0.814262 -0.555835 255 255 255 255 0.069563 0.124267
41.6494 17.7149 -34.8047 -0.167405 0.814262 -0.555835 255 255 255 255 0.069651 0.124304
38.8784 10.0153 -45.2496 -0.167405 0.814262 -0.555835 255 255 255 255 0.069599 0.12438
33.8789 -6.65428 -40.5427 -0.686528 0.000594 -0.727103 255 255 255 255 0.069585 0.124401
38.8784 10.0153 -45.2496 -0.686528 0.000594 -0.727103 255 255 255 255 0.069599 0.12438
38.4756 -1.3167 -44.8784 -0.686528 0.000594 -0.727103 255 255 255 255 0.069599 0.124418
26.9878 15.3661 -33.8297 -0.691833 0.003612 -0.722049 255 255 255 255 0.069563 0.124267
38.8784 10.0153 -45.2496 -0.691833 0.003612 -0.722049 255 255 255 255 0.069599 0.12438
33.8789 -6.65428 -40.5427 -0.691833 0.003612 -0.722049 255 255 255 255 0.069585 0.124401
26.9878 15.3661 -33.8297 -0.838747 -0.099265 -0.535397 255 255 255 255 0.069563 0.124267
33.8789 -6.65428 -40.5427 -0.838747 -0.099265 -0.535397 255 255 255 255 0.069585 0.124401
26.4602 -7.61171 -28.7431 -0.838747 -0.099265 -0.535397 255 255 255 255 0.069578 0.124321
26.9878 15.3661 -33.8297 -0.985908 -0.014263 -0.166678 255 255 255 255 0.069563 0.124267
26.4602 -7.61171 -28.7431 -0.985908 -0.014263 -0.166678 255 255 255 255 0.069578 0.124321
24.6236 -4.60083 -18.1371 -0.985908 -0.014263 -0.166678 255 255 255 255 0.069601 0.12425
37.9604 -10.3082 -27.7115 -0.205705 -0.956483 -0.206942 255 255 255 255 0.069652 0.124358
26.4602 -7.61171 -28.7431 -0.205705 -0.956483 -0.206942 255 255 255 255 0.069578 0.124321
33.8789 -6.65428 -40.5427 -0.205705 -0.956483 -0.206942 255 255 255 255 0.069585 0.124401
24.3487 13.835 -18.5604 -0.360845 0.932107 0.031097 255 255 255 255 0.069597 0.124184
31.724 16.4376 -10.9877 -0.360845 0.932107 0.031097 255 255 255 255 0.069667 0.124155
26.9878 15.3661 -33.8297 -0.360845 0.932107 0.031097 255 255 255 255 0.069563 0.124267
37.9604 -10.3082 -27.7115 -0.241547 -0.943688 0.226071 255 255 255 255 0.069652 0.124358
24.6236 -4.60083 -18.1371 -0.241547 -0.943688 0.226071 255 255 255 255 0.069601 0.12425
26.4602 -7.61171 -28.7431 -0.241547 -0.943688 0.226071 255 255 255 255 0.069578 0.124321
31.724 16.4376 -10.9877 -0.159034 0.987183 -0.013331 255 255 255 255 0.069667 0.124155
41.6494 17.7149 -34.8047 -0.159034 0.987183 -0.013331 255 255 255 255 0.069651 0.124304
26.9878 15.3661 -33.8297 -0.159034 0.987183 -0.013331 255 255 255 255 0.069563 0.124267
41.6494 17.7149 -34.8047 0.179049 0.768639 -0.614114 255 255 255 255 0.069651 0.124304
52.3659 12.6615 -38.0052 0.179049 0.768639 -0.614114 255 255 255 255 0.069707 0.12437
38.8784 10.0153 -45.2496 0.179049 0.768639 -0.614114 255 255 255 255 0.069599 0.12438
38.8784 10.0153 -45.2496 0.183389 -0.038693 -0.982279 255 255 255 255 0.069599 0.12438
47.4981 -0.490037 -43.2265 0.183389 -0.038693 -0.982279 255 255 255 255 0.06966 0.124432
38.4756 -1.3167 -44.8784 0.183389 -0.038693 -0.982279 255 255 255 255 0.069599 0.124418
33.8789 -6.65428 -40.5427 0.17521 -0.707246 -0.684912 255 255 255 255 0.069585 0.124401
38.4756 -1.3167 -44.8784 0.17521 -0.707246 -0.684912 255 255 255 255 0.069599 0.124418
50.7456 -5.59804 -37.3186 0.17521 -0.707246 -0.684912 255 255 255 255 0.069699 0.124427
33.8789 -6.65428 -40.5427 0.117727 -0.944584 -0.306433 255 255 255 255 0.069585 0.124401
50.7456 -5.59804 -37.3186 0.117727 -0.944584 -0.306433 255 255 255 255 0.069699 0.124427
37.9604 -10.3082 -27.7115 0.117727 -0.944584 -0.306433 255 255 255 255 0.069652 0.124358
38.8784 10.0153 -45.2496 0.435837 0.18811 -0.880148 255 255 255 255 0.069599 0.12438
52.3659 12.6615 -38.0052 0.435837 0.18811 -0.880148 255 255 255 255 0.069707 0.12437
47.4981 -0.490037 -43.2265 0.435837 0.18811 -0.880148 255 255 255 255 0.06966 0.124432
24.3487 13.835 -18.5604 -0.984904 -0.018641 -0.172097 255 255 255 255 0.069597 0.124184
26.9878 15.3661 -33.8297 -0.984904 -0.018641 -0.172097 255 255 255 255 0.069563 0.124267
24.6236 -4.60083 -18.1371 -0.984904 -0.018641 -0.172097 255 255 255 255 0.069601 0.12425
38.4756 -1.3167 -44.8784 0.191205 -0.688062 -0.700008 255 255 255 255 0.069599 0.124418
47.4981 -0.490037 -43.2265 0.191205 -0.688062 -0.700008 255 255 255 255 0.06966 0.124432
50.7456 -5.59804 -37.3186 0.191205 -0.688062 -0.700008 255 255 255 255 0.069699 0.124427
36.2368 -2.54548 -6.14236 -0.718882 0.005238 0.695113 255 255 255 255 0.069711 0.124211
24.3487 13.835 -18.5604 -0.718882 0.005238 0.695113 255 255 255 255 0.069597 0.124184
24.6236 -4.60083 -18.1371 -0.718882 0.005238 0.695113 255 255 255 255 0.069601 0.12425
36.2368 -2.54548 -6.14236 -0.717594 0.007166 0.696424 255 255 255 255 0.069711 0.124211
31.724 16.4376 -10.9877 -0.717594 0.007166 0.696424 255 255 255 255 0.069667 0.124155
24.3487 13.835 -18.5604 -0.717594 0.007166 0.696424 255 255 255 255 0.069597 0.124184
52.3659 12.6615 -38.0052 0.712529 0.014766 -0.701487 255 255 255 255 0.069707 0.12437
59.468 9.49333 -30.858 0.712529 0.014766 -0.701487 255 255 255 255 0.069775 0.124363
47.4981 -0.490037 -43.2265 0.712529 0.014766 -0.701487 255 255 255 255 0.06966 0.124432
50.7456 -5.59804 -37.3186 0.293892 -0.952811 -0.076023 255 255 255 255 0.069699 0.124427
55.4847 -5.85581 -15.7676 0.293892 -0.952811 -0.076023 255 255 255 255 0.069799 0.124327
37.9604 -10.3082 -27.7115 0.293892 -0.952811 -0.076023 255 255 255 255 0.069652 0.124358
41.6494 17.7149 -34.8047 0.346317 0.900649 -0.262479 255 255 255 255 0.069651 0.124304
52.7909 17.6617 -20.287 0.346317 0.900649 -0.262479 255 255 255 255 0.069768 0.124258
52.3659 12.6615 -38.0052 0.346317 0.900649 -0.262479 255 255 255 255 0.069707 0.12437
59.4729 -3.42632 -30.8531 0.607238 -0.404714 -0.683716 255 255 255 255 0.069775 0.12441
50.7456 -5.59804 -37.3186 0.607238 -0.404714 -0.683716 255 255 255 255 0.069699 0.124427
47.4981 -0.490037 -43.2265 0.607238 -0.404714 -0.683716 255 255 255 255 0.06966 0.124432
47.4981 -0.490037 -43.2265 0.718588 5e-06 -0.695436 255 255 255 255 0.06966 0.124432
59.468 9.49333 -30.858 0.718588 5e-06 -0.695436 255 255 255 255 0.069775 0.124363
59.4729 -3.42632 -30.8531 0.718588 5e-06 -0.695436 255 255 255 255 0.069775 0.12441
31.724 16.4376 -10.9877 -0.042132 0.998464 0.035992 255 255 255 255 0.069667 0.124155
52.7909 17.6617 -20.287 -0.042132 0.998464 0.035992 255 255 255 255 0.069768 0.124258
41.6494 17.7149 -34.8047 -0.042132 0.998464 0.035992 255 255 255 255 0.069651 0.124304
36.2368 -2.54548 -6.14236 -0.298344 -0.849837 0.434475 255 255 255 255 0.069711 0.124211
24.6236 -4.60083 -18.1371 -0.298344 -0.849837 0.434475 255 255 255 255 0.069601 0.12425
43.732 -6.78546 -9.28903 -0.298344 -0.849837 0.434475 255 255 255 255 0.069747 0.124264
45.1842 12.318 -4.59555 -0.389541 0.139756 0.910344 255 255 255 255 0.069771 0.124174
31.724 16.4376 -10.9877 -0.389541 0.139756 0.910344 255 255 255 255 0.069667 0.124155
36.2368 -2.54548 -6.14236 -0.389541 0.139756 0.910344 255 255 255 255 0.069711 0.124211
50.7456 -5.59804 -37.3186 0.293381 -0.952977 -0.075913 255 255 255 255 0.069699 0.124427
59.4729 -3.42632 -30.8531 0.293381 -0.952977 -0.075913 255 255 255 255 0.069775 0.12441
55.4847 -5.85581 -15.7676 0.293381 -0.952977 -0.075913 255 255 255 255 0.069799 0.124327
45.1842 12.318 -4.59555 0.108385 0.923826 0.367149 255 255 255 255 0.069771 0.124174
52.7909 17.6617 -20.287 0.108385 0.923826 0.367149 255 255 255 255 0.069768 0.124258
31.724 16.4376 -10.9877 0.108385 0.923826 0.367149 255 255 255 255 0.069667 0.124155
52.7909 17.6617 -20.287 0.582462 0.778544 -0.233683 255 255 255 255 0.069768 0.124258
59.468 9.49333 -30.858 0.582462 0.778544 -0.233683 255 255 255 255 0.069775 0.124363
52.3659 12.6615 -38.0052 0.582462 0.778544 -0.233683 255 255 255 255 0.069707 0.12437
37.9604 -10.3082 -27.7115 -0.223543 -0.942043 0.250169 255 255 255 255 0.069652 0.124358
43.732 -6.78546 -9.28903 -0.223543 -0.942043 0.250169 255 255 255 255 0.069747 0.124264
24.6236 -4.60083 -18.1371 -0.223543 -0.942043 0.250169 255 255 255 255 0.069601 0.12425
54.8817 12.4296 -13.7177 0.847175 0.512857 0.138825 255 255 255 255 0.069802 0.124248
59.468 9.49333 -30.858 0.847175 0.512857 0.138825 255 255 255 255 0.069775 0.124363
52.7909 17.6617 -20.287 0.847175 0.512857 0.138825 255 255 255 255 0.069768 0.124258
52.7909 17.6617 -20.287 0.43523 0.766638 0.472061 255 255 255 255 0.069768 0.124258
45.1842 12.318 -4.59555 0.43523 0.766638 0.472061 255 255 255 255 0.069771 0.124174
54.8817 12.4296 -13.7177 0.43523 0.766638 0.472061 255 255 255 255 0.069802 0.124248
45.1842 12.318 -4.59555 0.069142 -0.144348 0.987108 255 255 255 255 0.069771 0.124174
36.2368 -2.54548 -6.14236 0.069142 -0.144348 0.987108 255 255 255 255 0.069711 0.124211
48.0128 -5.08255 -7.33822 0.069142 -0.144348 0.987108 255 255 255 255 0.06978 0.124259
54.8817 12.4296 -13.7177 0.685185 -0.003424 0.728361 255 255 255 255 0.069802 0.124248
45.1842 12.318 -4.59555 0.685185 -0.003424 0.728361 255 255 255 255 0.069771 0.124174
48.0128 -5.08255 -7.33822 0.685185 -0.003424 0.728361 255 255 255 255 0.06978 0.124259
59.468 9.49333 -30.858 0.966138 0.002933 0.258011 255 255 255 255 0.069775 0.124363
54.8817 12.4296 -13.7177 0.966138 0.002933 0.258011 255 255 255 255 0.069802 0.124248
55.4847 -5.85581 -15.7676 0.966138 0.002933 0.258011 255 255 255 255 0.069799 0.124327
54.8817 12.4296 -13.7177 0.745113 -0.049989 0.665062 255 255 255 255 0.069802 0.124248
48.0128 -5.08255 -7.33822 0.745113 -0.049989 0.665062 255 255 255 255 0.06978 0.124259
55.4847 -5.85581 -15.7676 0.745113 -0.049989 0.665062 255 255 255 255 0.069799 0.124327
48.0128 -5.08255 -7.33822 -0.069566 -0.670889 0.738288 255 255 255 255 0.06978 0.124259
36.2368 -2.54548 -6.14236 -0.069566 -0.670889 0.738288 255 255 255 255 0.069711 0.124211
43.732 -6.78546 -9.28903 -0.069566 -0.670889 0.738288 255 255 255 255 0.069747 0.124264
59.468 9.49333 -30.858 0.966766 0.000463 0.255664 255 255 255 255 0.069775 0.124363
55.4847 -5.85581 -15.7676 0.966766 0.000463 0.255664 255 255 255 255 0.069799 0.124327
59.4729 -3.42632 -30.8531 0.966766 0.000463 0.255664 255 255 255 255 0.069775 0.12441
55.4847 -5.85581 -15.7676 0.234979 -0.926694 0.293296 255 255 255 255 0.069799 0.124327
48.0128 -5.08255 -7.33822 0.234979 -0.926694 0.293296 255 255 255 255 0.06978 0.124259
43.732 -6.78546 -9.28903 0.234979 -0.926694 0.293296 255 255 255 255 0.069747 0.124264
55.4847 -5.85581 -15.7676 0.153919 -0.97828 0.138843 255 255 255 255 0.069799 0.124327
43.732 -6.78546 -9.28903 0.153919 -0.97828 0.138843 255 255 255 255 0.069747 0.124264
37.9604 -10.3082 -27.7115 0.153919 -0.97828 0.138843 255 255 255 255 0.069652 0.124358
63.4276 8.01302 15.9941 0.452879 0.814262 0.363151 255 255 255 255 0.06995 0.124132
56.4869 9.42709 21.4791 0.452879 0.814262 0.363151 255 255 255 255 0.069925 0.124079
61.4244 4.79161 25.7154 0.452879 0.814262 0.363151 255 255 255 255 0.069968 0.124088
63.4276 8.01302 15.9941 0.979178 0.003617 0.20297 255 255 255 255 0.06995 0.124132
61.4244 4.79161 25.7154 0.979178 0.003617 0.20297 255 255 255 255 0.069968 0.124088
62.299 -5.24409 21.675 0.979178 0.003617 0.20297 255 255 255 255 0.06996 0.124148
63.4276 8.01302 15.9941 0.959384 -0.17611 -0.220379 255 255 255 255 0.06995 0.124132
62.299 -5.24409 21.675 0.959384 -0.17611 -0.220379 255 255 255 255 0.06996 0.124148
59.2475 -4.00784 7.40311 0.959384 -0.17611 -0.220379 255 255 255 255 0.069896 0.124209
59.5283 7.09125 7.5192 0.08513 0.985561 -0.146362 255 255 255 255 0.069899 0.124169
56.4869 9.42709 21.4791 0.08513 0.985561 -0.146362 255 255 255 255 0.069925 0.124079
63.4276 8.01302 15.9941 0.08513 0.985561 -0.146362 255 255 255 255 0.06995 0.124132
56.4869 9.42709 21.4791 -0.019512 0.663073 0.748301 255 255 255 255 0.069925 0.124079
46.3012 4.47738 25.5995 -0.019512 0.663073 0.748301 255 255 255 255 0.069875 0.124048
61.4244 4.79161 25.7154 -0.019512 0.663073 0.748301 255 255 255 255 0.069968 0.124088
59.5283 7.09125 7.5192 0.909068 -0.018642 -0.416231 255 255 255 255 0.069899 0.124169
63.4276 8.01302 15.9941 0.909068 -0.018642 -0.416231 255 255 255 255 0.06995 0.124132
59.2475 -4.00784 7.40311 0.909068 -0.018642 -0.416231 255 255 255 255 0.069896 0.124209
62.299 -5.24409 21.675 0.182041 -0.353534 0.917538 255 255 255 255 0.06996 0.124148
61.4244 4.79161 25.7154 0.182041 -0.353534 0.917538 255 255 255 255 0.069968 0.124088
46.2971 -3.30074 25.5986 0.182041 -0.353534 0.917538 255 255 255 255 0.069874 0.124077
49.3949 -2.77044 5.41416 0.198507 0.005229 -0.980085 255 255 255 255 0.069829 0.124188
59.5283 7.09125 7.5192 0.198507 0.005229 -0.980085 255 255 255 255 0.069899 0.124169
59.2475 -4.00784 7.40311 0.198507 0.005229 -0.980085 255 255 255 255 0.069896 0.124209
46.2971 -3.30074 25.5986 -0.101155 -0.991756 0.078669 255 255 255 255 0.069874 0.124077
43.961 -4.29786 10.0243 -0.101155 -0.991756 0.078669 255 255 255 255 0.069811 0.124155
62.299 -5.24409 21.675 -0.101155 -0.991756 0.078669 255 255 255 255 0.06996 0.124148
56.4869 9.42709 21.4791 -0.32793 0.90378 0.275036 255 255 255 255 0.069925 0.124079
42.7296 6.24513 15.5321 -0.32793 0.90378 0.275036 255 255 255 255 0.069821 0.124084
46.3012 4.47738 25.5995 -0.32793 0.90378 0.275036 255 255 255 255 0.069875 0.124048
61.4244 4.79161 25.7154 -0.007662 -0.000106 0.999971 255 255 255 255 0.069968 0.124088
46.3012 4.47738 25.5995 -0.007662 -0.000106 0.999971 255 255 255 255 0.069875 0.124048
46.2971 -3.30074 25.5986 -0.007662 -0.000106 0.999971 255 255 255 255 0.069874 0.124077
59.5283 7.09125 7.5192 -0.14106 0.970966 -0.1932 255 255 255 255 0.069899 0.124169
42.7296 6.24513 15.5321 -0.14106 0.970966 -0.1932 255 255 255 255 0.069821 0.124084
56.4869 9.42709 21.4791 -0.14106 0.970966 -0.1932 255 255 255 255 0.069925 0.124079
49.3949 -2.77044 5.41416 -0.044181 -0.931621 -0.360735 255 255 255 255 0.069829 0.124188
59.2475 -4.00784 7.40311 -0.044181 -0.931621 -0.360735 255 255 255 255 0.069896 0.124209
43.961 -4.29786 10.0243 -0.044181 -0.931621 -0.360735 255 255 255 255 0.069811 0.124155
44.4287 6.17795 7.69894 -0.025717 0.233888 -0.971923 255 255 255 255 0.069806 0.12413
59.5283 7.09125 7.5192 -0.025717 0.233888 -0.971923 255 255 255 255 0.069899 0.124169
49.3949 -2.77044 5.41416 -0.025717 0.233888 -0.971923 255 255 255 255 0.069829 0.124188
44.4287 6.17795 7.69894 -0.060618 0.997925 -0.021708 255 255 255 255 0.069806 0.12413
42.7296 6.24513 15.5321 -0.060618 0.997925 -0.021708 255 255 255 255 0.069821 0.124084
59.5283 7.09125 7.5192 -0.060618 0.997925 -0.021708 255 255 255 255 0.069899 0.124169
62.299 -5.24409 21.675 0.003958 -0.996188 -0.087137 255 255 255 255 0.06996 0.124148
43.961 -4.29786 10.0243 0.003958 -0.996188 -0.087137 255 255 255 255 0.069811 0.124155
59.2475 -4.00784 7.40311 0.003958 -0.996188 -0.087137 255 255 255 255 0.069896 0.124209
44.4287 6.17795 7.69894 -0.616264 -0.144343 -0.774199 255 255 255 255 0.069806 0.12413
49.3949 -2.77044 5.41416 -0.616264 -0.144343 -0.774199 255 255 255 255 0.069829 0.124188
43.961 -4.29786 10.0243 -0.616264 -0.144343 -0.774199 255 255 255 255 0.069811 0.124155
42.7296 6.24513 15.5321 -0.977274 -0.003422 -0.211953 255 255 255 255 0.069821 0.124084
44.4287 6.17795 7.69894 -0.977274 -0.003422 -0.211953 255 255 255 255 0.069806 0.12413
43.961 -4.29786 10.0243 -0.977274 -0.003422 -0.211953 255 255 255 255 0.069811 0.124155
46.3012 4.47738 25.5995 -0.924369 -0.255819 0.283017 255 255 255 255 0.069875 0.124048
42.7296 6.24513 15.5321 -0.924369 -0.255819 0.283017 255 255 255 255 0.069821 0.124084
43.961 -4.29786 10.0243 -0.924369 -0.255819 0.283017 255 255 255 255 0.069811 0.124155
46.3012 4.47738 25.5995 -0.988942 0.000504 0.148304 255 255 255 255 0.069875 0.124048
43.961 -4.29786 10.0243 -0.988942 0.000504 0.148304 255 255 255 255 0.069811 0.124155
46.2971 -3.30074 25.5986 -0.988942 0.000504 0.148304 255 255 255 255 0.069874 0.124077
-49.6847 9.38513 4.50119 0.305375 0.264823 0.914667 255 255 255 255 0.069223 0.123879
-57.1686 6.66172 7.7883 0.305375 0.264823 0.914667 255 255 255 255 0.069189 0.123852
-53.5062 -5.66477 10.1344 0.305375 0.264823 0.914667 255 255 255 255 0.069222 0.123896
-49.6847 9.38513 4.50119 0.730654 0.068729 0.679279 255 255 255 255 0.069223 0.123879
-53.5062 -5.66477 10.1344 0.730654 0.068729 0.679279 255 255 255 255 0.069222 0.123896
-41.8716 -4.07886 -2.54056 0.730654 0.068729 0.679279 255 255 255 255 0.069249 0.123986
-49.6847 9.38513 4.50119 -0.272382 0.947901 0.165206 255 255 255 255 0.069223 0.123879
-64.3164 6.39216 -2.44989 -0.272382 0.947901 0.165206 255 255 255 255 0.069112 0.123886
-57.1686 6.66172 7.7883 -0.272382 0.947901 0.165206 255 255 255 255 0.069189 0.123852
-45.8375 8.67564 -2.17703 0.850035 0.251113 0.463015 255 255 255 255 0.069224 0.123926
-49.6847 9.38513 4.50119 0.850035 0.251113 0.463015 255 255 255 255 0.069223 0.123879
-41.8716 -4.07886 -2.54056 0.850035 0.251113 0.463015 255 255 255 255 0.069249 0.123986
-53.5062 -5.66477 10.1344 -0.657129 -0.052119 0.751974 255 255 255 255 0.069222 0.123896
-57.1686 6.66172 7.7883 -0.657129 -0.052119 0.751974 255 255 255 255 0.069189 0.123852
-68.2226 -3.42472 -2.57052 -0.657129 -0.052119 0.751974 255 255 255 255 0.069091 0.123913
-54.8287 -4.46067 -15.4566 0.68325 0.232181 -0.692287 255 255 255 255 0.069129 0.124019
-45.8375 8.67564 -2.17703 0.68325 0.232181 -0.692287 255 255 255 255 0.069224 0.123926
-41.8716 -4.07886 -2.54056 0.68325 0.232181 -0.692287 255 255 255 255 0.069249 0.123986
-68.2226 -3.42472 -2.57052 -0.115921 -0.992424 -0.040704 255 255 255 255 0.069091 0.123913
-54.8287 -4.46067 -15.4566 -0.115921 -0.992424 -0.040704 255 255 255 255 0.069129 0.124019
-53.5062 -5.66477 10.1344 -0.115921 -0.992424 -0.040704 255 255 255 255 0.069222 0.123896
-49.6847 9.38513 4.50119 -0.177475 0.982873 -0.049626 255 255 255 255 0.069223 0.123879
-53.1695 7.9096 -12.2601 -0.177475 0.982873 -0.049626 255 255 255 255 0.069146 0.123961
-64.3164 6.39216 -2.44989 -0.177475 0.982873 -0.049626 255 255 255 255 0.069112 0.123886
-57.1686 6.66172 7.7883 -0.784496 0.305524 0.53965 255 255 255 255 0.069189 0.123852
-64.3164 6.39216 -2.44989 -0.784496 0.305524 0.53965 255 255 255 255 0.069112 0.123886
-68.2226 -3.42472 -2.57052 -0.784496 0.305524 0.53965 255 255 255 255 0.069091 0.123913
-45.8375 8.67564 -2.17703 0.023119 0.99545 -0.092438 255 255 255 255 0.069224 0.123926
-53.1695 7.9096 -12.2601 0.023119 0.99545 -0.092438 255 255 255 255 0.069146 0.123961
-49.6847 9.38513 4.50119 0.023119 0.99545 -0.092438 255 255 255 255 0.069223 0.123879
-53.1695 7.9096 -12.2601 0.806386 0.044229 -0.589734 255 255 255 255 0.069146 0.123961
-45.8375 8.67564 -2.17703 0.806386 0.044229 -0.589734 255 255 255 255 0.069224 0.123926
-54.8287 -4.46067 -15.4566 0.806386 0.044229 -0.589734 255 255 255 255 0.069129 0.124019
-53.5062 -5.66477 10.1344 0.080154 -0.995478 -0.050981 255 255 255 255 0.069222 0.123896
-54.8287 -4.46067 -15.4566 0.080154 -0.995478 -0.050981 255 255 255 255 0.069129 0.124019
-41.8716 -4.07886 -2.54056 0.080154 -0.995478 -0.050981 255 255 255 255 0.069249 0.123986
-64.3164 6.39216 -2.44989 -0.656575 0.270045 -0.704262 255 255 255 255 0.069112 0.123886
-53.1695 7.9096 -12.2601 -0.656575 0.270045 -0.704262 255 255 255 255 0.069146 0.123961
-54.8287 -4.46067 -15.4566 -0.656575 0.270045 -0.704262 255 255 255 255 0.069129 0.124019
-64.3164 6.39216 -2.44989 -0.656652 0.269939 -0.704231 255 255 255 255 0.069112 0.123886
-54.8287 -4.46067 -15.4566 -0.656652 0.269939 -0.704231 255 255 255 255 0.069129 0.124019
-68.2226 -3.42472 -2.57052 -0.656652 0.269939 -0.704231 255 255 255 255 0.069091 0.123913
87.6497 6.43983 -5.94565 -0.57828 0.40231 0.709746 255 255 255 255 0.070031 0.12432
82.6588 4.54424 -8.93765 -0.57828 0.40231 0.709746 255 255 255 255 0.06999 0.124329
81.4992 -4.36305 -4.83344 -0.57828 0.40231 0.709746 255 255 255 255 0.069995 0.124336
87.6497 6.43983 -5.94565 -0.163906 0.19292 0.967428 255 255 255 255 0.070031 0.12432
81.4992 -4.36305 -4.83344 -0.163906 0.19292 0.967428 255 255 255 255 0.069995 0.124336
95.9221 -3.03641 -2.65439 -0.163906 0.19292 0.967428 255 255 255 255 0.070091 0.12436
87.6497 6.43983 -5.94565 -0.284488 0.950173 -0.127429 255 255 255 255 0.070031 0.12432
85.9613 4.43261 -17.1431 -0.284488 0.950173 -0.127429 255 255 255 255 0.069984 0.124383
82.6588 4.54424 -8.93765 -0.284488 0.950173 -0.127429 255 255 255 255 0.06999 0.124329
93.0514 5.95671 -6.2059 0.078936 0.38786 0.918332 255 255 255 255 0.070063 0.124339
87.6497 6.43983 -5.94565 0.078936 0.38786 0.918332 255 255 255 255 0.070031 0.12432
95.9221 -3.03641 -2.65439 0.078936 0.38786 0.918332 255 255 255 255 0.070091 0.12436
81.4992 -4.36305 -4.83344 -0.990939 0.078924 -0.108679 255 255 255 255 0.069995 0.124336
82.6588 4.54424 -8.93765 -0.990939 0.078924 -0.108679 255 255 255 255 0.06999 0.124329
83.4532 -2.34439 -21.1839 -0.990939 0.078924 -0.108679 255 255 255 255 0.069955 0.124421
98.8581 -3.24871 -17.8848 0.916827 0.360476 0.171712 255 255 255 255 0.070061 0.12445
93.0514 5.95671 -6.2059 0.916827 0.360476 0.171712 255 255 255 255 0.070063 0.124339
95.9221 -3.03641 -2.65439 0.916827 0.360476 0.171712 255 255 255 255 0.070091 0.12436
83.4532 -2.34439 -21.1839 -0.031191 -0.991521 -0.126143 255 255 255 255 0.069955 0.124421
98.8581 -3.24871 -17.8848 -0.031191 -0.991521 -0.126143 255 255 255 255 0.070061 0.12445
81.4992 -4.36305 -4.83344 -0.031191 -0.991521 -0.126143 255 255 255 255 0.069995 0.124336
87.6497 6.43983 -5.94565 -0.057967 0.984137 -0.167673 255 255 255 255 0.070031 0.12432
95.9911 5.47148 -14.513 -0.057967 0.984137 -0.167673 255 255 255 255 0.070055 0.124393
85.9613 4.43261 -17.1431 -0.057967 0.984137 -0.167673 255 255 255 255 0.069984 0.124383
82.6588 4.54424 -8.93765 -0.803971 0.494494 -0.330312 255 255 255 255 0.06999 0.124329
85.9613 4.43261 -17.1431 -0.803971 0.494494 -0.330312 255 255 255 255 0.069984 0.124383
83.4532 -2.34439 -21.1839 -0.803971 0.494494 -0.330312 255 255 255 255 0.069955 0.124421
93.0514 5.95671 -6.2059 0.087755 0.995773 -0.02711 255 255 255 255 0.070063 0.124339
95.9911 5.47148 -14.513 0.087755 0.995773 -0.02711 255 255 255 255 0.070055 0.124393
87.6497 6.43983 -5.94565 0.087755 0.995773 -0.02711 255 255 255 255 0.070031 0.12432
95.9911 5.47148 -14.513 0.93016 0.182673 0.318487 255 255 255 255 0.070055 0.124393
93.0514 5.95671 -6.2059 0.93016 0.182673 0.318487 255 255 255 255 0.070063 0.124339
98.8581 -3.24871 -17.8848 0.93016 0.182673 0.318487 255 255 255 255 0.070061 0.12445
81.4992 -4.36305 -4.83344 0.08696 -0.99574 0.030643 255 255 255 255 0.069995 0.124336
98.8581 -3.24871 -17.8848 0.08696 -0.99574 0.030643 255 255 255 255 0.070061 0.12445
95.9221 -3.03641 -2.65439 0.08696 -0.99574 0.030643 255 255 255 255 0.070091 0.12436
85.9613 4.43261 -17.1431 0.191775 0.408168 -0.892536 255 255 255 255 0.069984 0.124383
95.9911 5.47148 -14.513 0.191775 0.408168 -0.892536 255 255 255 255 0.070055 0.124393
98.8581 -3.24871 -17.8848 0.191775 0.408168 -0.892536 255 255 255 255 0.070061 0.12445
85.9613 4.43261 -17.1431 0.212618 0.441169 -0.871874 255 255 255 255 0.069984 0.124383
98.8581 -3.24871 -17.8848 0.212618 0.441169 -0.871874 255 255 255 255 0.070061 0.12445
83.4532 -2.34439 -21.1839 0.212618 0.441169 -0.871874 255 255 255 255 0.069955 0.124421
-8.74344 6.12756 -64.8488 -0.902986 0.403339 -0.148101 255 255 255 255 0.06924 0.124365
-8.61313 4.27773 -70.6811 -0.902986 0.403339 -0.148101 255 255 255 255 0.069221 0.124404
-12.7519 -4.638 -69.7276 -0.902986 0.403339 -0.148101 255 255 255 255 0.069201 0.124419
-8.74344 6.12756 -64.8488 -0.904307 0.156772 0.397053 255 255 255 255 0.06924 0.124365
-12.7519 -4.638 -69.7276 -0.904307 0.156772 0.397053 255 255 255 255 0.069201 0.124419
-7.59311 -3.41743 -58.4601 -0.904307 0.156772 0.397053 255 255 255 255 0.06927 0.124369
-8.74344 6.12756 -64.8488 -0.030216 0.952575 -0.302801 255 255 255 255 0.06924 0.124365
0.151459 4.17689 -71.873 -0.030216 0.952575 -0.302801 255 255 255 255 0.069271 0.124435
-8.61313 4.27773 -70.6811 -0.030216 0.952575 -0.302801 255 255 255 255 0.069221 0.124404
-5.84396 5.60908 -60.2877 -0.80008 0.264096 0.538633 255 255 255 255 0.069273 0.124351
-8.74344 6.12756 -64.8488 -0.80008 0.264096 0.538633 255 255 255 255 0.06924 0.124365
-7.59311 -3.41743 -58.4601 -0.80008 0.264096 0.538633 255 255 255 255 0.06927 0.124369
-12.7519 -4.638 -69.7276 -0.395966 0.086041 -0.914225 255 255 255 255 0.069201 0.124419
-8.61313 4.27773 -70.6811 -0.395966 0.086041 -0.914225 255 255 255 255 0.069221 0.124404
2.4227 -2.56671 -76.1051 -0.395966 0.086041 -0.914225 255 255 255 255 0.069272 0.124488
7.17966 -3.58817 -61.0937 0.174991 0.162697 0.971035 255 255 255 255 0.069352 0.124425
-5.84396 5.60908 -60.2877 0.174991 0.162697 0.971035 255 255 255 255 0.069273 0.124351
-7.59311 -3.41743 -58.4601 0.174991 0.162697 0.971035 255 255 255 255 0.06927 0.124369
2.4227 -2.56671 -76.1051 0.09434 -0.990773 -0.097313 255 255 255 255 0.069272 0.124488
7.17966 -3.58817 -61.0937 0.09434 -0.990773 -0.097313 255 255 255 255 0.069352 0.124425
-12.7519 -4.638 -69.7276 0.09434 -0.990773 -0.097313 255 255 255 255 0.069201 0.124419
-8.74344 6.12756 -64.8488 0.116852 0.985173 -0.125618 255 255 255 255 0.06924 0.124365
2.82938 5.13751 -61.8481 0.116852 0.985173 -0.125618 255 255 255 255 0.069321 0.124385
0.151459 4.17689 -71.873 0.116852 0.985173 -0.125618 255 255 255 255 0.069271 0.124435
-8.61313 4.27773 -70.6811 -0.110931 0.501213 -0.858184 255 255 255 255 0.069221 0.124404
0.151459 4.17689 -71.873 -0.110931 0.501213 -0.858184 255 255 255 255 0.069271 0.124435
2.4227 -2.56671 -76.1051 -0.110931 0.501213 -0.858184 255 255 255 255 0.069272 0.124488
-5.84396 5.60908 -60.2877 0.066823 0.99526 0.070656 255 255 255 255 0.069273 0.124351
2.82938 5.13751 -61.8481 0.066823 0.99526 0.070656 255 255 255 255 0.069321 0.124385
-8.74344 6.12756 -64.8488 0.066823 0.99526 0.070656 255 255 255 255 0.06924 0.124365
2.82938 5.13751 -61.8481 0.183537 0.175126 0.967288 255 255 255 255 0.069321 0.124385
-5.84396 5.60908 -60.2877 0.183537 0.175126 0.967288 255 255 255 255 0.069273 0.124351
7.17966 -3.58817 -61.0937 0.183537 0.175126 0.967288 255 255 255 255 0.069352 0.124425
-12.7519 -4.638 -69.7276 0.00713 -0.994503 0.104467 255 255 255 255 0.069201 0.124419
7.17966 -3.58817 -61.0937 0.00713 -0.994503 0.104467 255 255 255 255 0.069352 0.124425
-7.59311 -3.41743 -58.4601 0.00713 -0.994503 0.104467 255 255 255 255 0.06927 0.124369
0.151459 4.17689 -71.873 0.870418 0.410456 -0.271843 255 255 255 255 0.069271 0.124435
2.82938 5.13751 -61.8481 0.870418 0.410456 -0.271843 255 255 255 255 0.069321 0.124385
7.17966 -3.58817 -61.0937 0.870418 0.410456 -0.271843 255 255 255 255 0.069352 0.124425
0.151459 4.17689 -71.873 0.862772 0.443235 -0.243244 255 255 255 255 0.069271 0.124435
7.17966 -3.58817 -61.0937 0.862772 0.443235 -0.243244 255 255 255 255 0.069352 0.124425
2.4227 -2.56671 -76.1051 0.862772 0.443235 -0.243244 255 255 255 255 0.069272 0.124488
-1.44388 6.06091 31.1973 -0.236832 -0.478962 0.845285 255 255 255 255 0.069602 0.123885
-13.2977 4.49747 26.9902 -0.236832 -0.478962 0.845285 255 255 255 255 0.069517 0.12388
-13.6481 -5.50767 21.2228 -0.236832 -0.478962 0.845285 255 255 255 255 0.069497 0.123946
-10.2624 12.2385 25.4733 -0.354057 0.311615 0.881782 255 255 255 255 0.069529 0.123867
-13.2977 4.49747 26.9902 -0.354057 0.311615 0.881782 255 255 255 255 0.069517 0.12388
-1.44388 6.06091 31.1973 -0.354057 0.311615 0.881782 255 255 255 255 0.069602 0.123885
3 0 1 2 
3 3 4 5 
3 6 7 8 
3 9 10 11 
3 12 13 14 
3 15 16 17 
3 18 19 20 
3 21 22 23 
3 24 25 26 
3 27 28 29 
3 30 31 32 
3 33 34 35 
3 36 37 38 
3 39 40 41 
3 42 43 44 
3 45 46 47 
3 48 49 50 
3 51 52 53 
3 54 55 56 
3 57 58 59 
3 60 61 62 
3 63 64 65 
3 66 67 68 
3 69 70 71 
3 72 73 74 
3 75 76 77 
3 78 79 80 
3 81 82 83 
3 84 85 86 
3 87 88 89 
3 90 91 92 
3 93 94 95 
3 96 97 98 
3 99 100 101 
3 102 103 104 
3 105 106 107 
3 108 109 110 
3 111 112 113 
3 114 115 116 
3 117 118 119 
3 120 121 122 
3 123 124 125 
3 126 127 128 
3 129 130 131 
3 132 133 134 
3 135 136 137 
3 138 139 140 
3 141 142 143 
3 144 145 146 
3 147 148 149 
3 150 151 152 
3 153 154 155 
3 156 157 158 
3 159 160 161 
3 162 163 164 
3 165 166 167 
3 168 169 170 
3 171 172 173 
3 174 175 176 
3 177 178 179 
3 180 181 182 
3 183 184 185 
3 186 187 188 
3 189 190 191 
3 192 193 194 
3 195 196 197 
3 198 199 200 
3 201 202 203 
3 204 205 206 
3 207 208 209 
3 210 211 212 
3 213 214 215 
3 216 217 218 
3 219 220 221 
3 222 223 224 
3 225 226 227 
3 228 229 230 
3 231 232 233 
3 234 235 236 
3 237 238 239 
3 240 241 242 
3 243 244 245 
3 246 247 248 
3 249 250 251 
3 252 253 254 
3 255 256 257 
3 258 259 260 
3 261 262 263 
3 264 265 266 
3 267 268 269 
3 270 271 272 
3 273 274 275 
3 276 277 278 
3 279 280 281 
3 282 283 284 
3 285 286 287 
3 288 289 290 
3 291 292 293 
3 294 295 296 
3 297 298 299 
3 300 301 302 
3 303 304 305 
3 306 307 308 
3 309 310 311 
3 312 313 314 
3 315 316 317 
3 318 319 320 
3 321 322 323 
3 324 325 326 
3 327 328 329 
3 330 331 332 
3 333 334 335 
3 336 337 338 
3 339 340 341 
3 342 343 344 
3 345 346 347 
3 348 349 350 
3 351 352 353 
3 354 355 356 
3 357 358 359 
3 360 361 362 
3 363 364 365 
3 366 367 368 
3 369 370 371 
3 372 373 374 
3 375 376 377 
3 378 379 380 
3 381 382 383 
3 384 385 386 
3 387 388 389 
3 390 391 392 
3 393 394 395 
3 396 397 398 
3 399 400 401 
3 402 403 404 
3 405 406 407 
3 408 409 410 
3 411 412 413 
3 414 415 416 
3 417 418 419 
3 420 421 422 
3 423 424 425 
3 426 427 428 
3 429 430 431 
3 432 433 434 
3 435 436 437 
3 438 439 440 
3 441 442 443 
3 444 445 446 
3 447 448 449 
3 450 451 452 
3 453 454 455 
3 456 457 458 
3 459 460 461 
