ply
format ascii 1.0
comment VCGLIB generated
comment TextureFile Dungeons_2_Texture_01_A.png
element vertex 40
property float x
property float y
property float z
property float nx
property float ny
property float nz
property uchar red
property uchar green
property uchar blue
property uchar alpha
property float texture_u
property float texture_v
element face 60
property list uchar int vertex_indices
end_header
0 -6e-06 -0.00293 -0.745356 -0.5962849 -0.2981424 192 192 192 255 0.02536 0.895167
0 -9e-06 125 -0.2303447 -0.8580281 0.4590526 192 192 192 255 0.009412 0.856277
0 12.49999 125 -0.3861777 0.5084929 0.7696114 192 192 192 255 0.007797 0.859577
0 12.49999 93.74902 -0.5570859 0.7427813 0.3713908 192 192 192 255 0.012196 0.870111
0 24.99999 93.74902 -0.1740776 0.6963106 0.6963106 192 192 192 255 0.010639 0.873527
0 24.99999 62.49805 -0.6666667 0.6666667 0.3333333 192 192 192 255 0.014898 0.883535
0 37.49999 62.49805 -0.1111111 0.888889 0.4444442 192 192 192 255 0.013396 0.887059
0 37.49999 31.24805 -0.8005154 0.4480073 0.3980761 192 192 192 255 0.01752 0.896567
0 49.99999 31.24805 -0.1629829 0.7375402 0.6553404 192 192 192 255 0.016071 0.90019
0 49.99999 -0.00293 -0.4082483 0.4082483 -0.8164966 192 192 192 255 0.020068 0.909223
250 37.5 62.49805 0.1740777 0.6963108 0.6963104 192 192 192 255 0.2269 0.877535
250 12.49999 125 0.2035757 0.540671 0.8162302 192 192 192 255 0.227931 0.849011
250 -9e-06 125 0.3140555 -0.896884 0.3113971 192 192 192 255 0.226872 0.845752
250 12.49999 93.74902 0.6666667 0.6666667 0.3333333 192 192 192 255 0.22637 0.860112
250 24.99999 93.74902 0.2182179 0.4364358 0.8728716 192 192 192 255 0.227407 0.863496
250 24.99999 62.49805 0.3123475 0.9370425 0.1561738 192 192 192 255 0.225884 0.874035
250 37.49999 31.24805 0.4161478 0.8663833 0.2760452 192 192 192 255 0.225413 0.88754
250 49.99999 31.24805 0.3913204 0.4856142 0.7816951 192 192 192 255 0.226407 0.891149
250 -6e-06 -0.00293 0.745356 -0.2981424 -0.5962849 192 192 192 255 0.221276 0.886635
250 49.99999 -0.00293 0.1561738 0.9370426 -0.3123475 192 192 192 255 0.224956 0.900648
43.4458 37.49999 62.49805 0.03758541 0.2930363 0.9553623 192 192 192 255 0.049715 0.885439
102.0537 37.49999 62.49805 -0.03896491 0.4295569 0.9021988 192 192 192 255 0.099223 0.88323
67.70655 24.99999 62.49805 0 0.3603222 0.9328279 192 192 192 255 0.070982 0.88101
74.1177 37.49999 57.66504 0 0.3628362 0.9318529 192 192 192 255 0.075949 0.885813
216.4267 24.99999 93.74902 -0.08736157 0.5118244 0.8546367 192 192 192 255 0.19763 0.864874
170.1577 24.99999 93.74902 0.0306023 0.2781588 0.9600475 192 192 192 255 0.156937 0.866757
198.3403 12.49999 93.74902 -3.091343e-09 0.3394453 0.9406258 192 192 192 255 0.181198 0.862221
205.4492 24.99999 89.24414 -3.100796e-09 0.3404832 0.9402506 192 192 192 255 0.187873 0.866863
115.5318 -9e-06 125 0.0002756275 -0.09702307 0.9952821 192 192 192 255 0.108486 0.851482
116.7866 12.49999 121.1104 0.0001154813 0.9089068 0.4169994 192 192 192 255 0.109391 0.856087
121.2553 37.49999 31.24805 8.205325e-05 0.5279086 0.8493012 192 192 192 255 0.117048 0.892245
120.562 49.99999 28.2959 6.418395e-05 0.7474279 0.664343 192 192 192 255 0.11631 0.896783
102.0537 37.49999 62.49805 -0.0389649 0.4295568 0.9021987 192 192 192 255 0.100569 0.614121
74.1177 37.49999 57.66504 0 0.3628362 0.9318529 192 192 192 255 0.077294 0.616703
67.70655 24.99999 62.49805 0 0.3603222 0.9328279 192 192 192 255 0.072328 0.6119
43.4458 37.49999 62.49805 0.03758541 0.2930363 0.9553623 192 192 192 255 0.05106 0.616329
216.4267 24.99999 93.74902 -0.08736156 0.5118243 0.8546366 192 192 192 255 0.198976 0.595764
205.4492 24.99999 89.24414 -3.100796e-09 0.3404832 0.9402506 192 192 192 255 0.189219 0.597754
198.3403 12.49999 93.74902 -3.091343e-09 0.3394453 0.9406258 192 192 192 255 0.182543 0.593111
170.1577 24.99999 93.74902 0.0306023 0.2781588 0.9600475 192 192 192 255 0.158283 0.597647
3 0 1 2 
3 0 2 3 
3 3 4 5 
3 3 5 0 
3 5 6 7 
3 5 7 0 
3 7 8 9 
3 7 9 0 
3 21 10 23 
3 23 10 16 
3 23 16 6 
3 6 16 30 
3 6 30 7 
3 23 6 20 
3 28 29 2 
3 28 2 1 
3 29 26 3 
3 29 3 2 
3 14 24 26 
3 14 26 13 
3 15 22 5 
3 15 5 4 
3 15 4 25 
3 15 25 27 
3 15 27 24 
3 15 24 14 
3 10 21 22 
3 10 22 15 
3 30 31 8 
3 30 8 7 
3 12 28 1 
3 12 1 0 
3 12 0 18 
3 19 9 8 
3 19 8 31 
3 19 31 17 
3 18 0 9 
3 18 9 19 
3 16 10 15 
3 16 15 18 
3 15 14 13 
3 15 13 18 
3 13 11 12 
3 13 12 18 
3 18 19 17 
3 18 17 16 
3 32 33 34 
3 22 20 6 
3 22 6 5 
3 34 33 35 
3 36 37 38 
3 26 25 4 
3 26 4 3 
3 11 29 28 
3 11 28 12 
3 13 26 29 
3 13 29 11 
3 17 31 30 
3 17 30 16 
3 38 37 39 
