ply
format ascii 1.0
comment VCGLIB generated
comment TextureFile Dungeons_2_Texture_01_A.png
element vertex 77
property float x
property float y
property float z
property float nx
property float ny
property float nz
property uchar red
property uchar green
property uchar blue
property uchar alpha
property float texture_u
property float texture_v
element face 85
property list uchar int vertex_indices
end_header
0.027836 500 509.0008 -0.62386 0.3032253 0.7203146 192 192 192 255 0.216821 0.538946
24.75 500 531.1953 -0.02570054 -0.7169347 0.6966664 192 192 192 255 0.210758 0.538946
125.0014 375.0139 384.5197 -0.2015438 -0.8930969 0.4021914 192 192 192 255 0.168241 0.587531
125.2568 399.9345 431.9203 -0.02809651 -0.7219897 0.6913332 192 192 192 255 0.170106 0.829602
475.2501 500 531.1953 0.2865904 -0.3815928 0.8787792 192 192 192 255 0.028544 0.538946
499.9722 500 509.0008 0.4681942 -0.8128489 0.3465123 192 192 192 255 0.022481 0.538946
362.6364 387.3357 419.421 0.0860093 -0.8132564 0.5755141 192 192 192 255 0.074093 0.5845
374.9987 375.0139 384.5197 0.4678622 -0.8130781 0.3464232 192 192 192 255 0.071061 0.587531
130.4511 382.6213 402.6693 -0.3127826 -0.8407069 0.4420169 192 192 192 255 0.167218 0.586509
169.5777 387.3357 419.421 -0.005087666 -0.9127771 0.4084263 192 192 192 255 0.15218 0.5845
372.2947 397.3862 429.3921 0.1037817 -0.72894 0.6766653 192 192 192 255 0.070186 0.830593
434.6579 457.7591 489.2881 0.04112887 -0.7532077 0.6564957 192 192 192 255 0.045294 0.5557
397.429 442.8662 474.5128 0.004585912 -0.7066734 0.7075251 192 192 192 255 0.06002 0.811156
212.8972 373.8619 383.3723 0.02794794 -0.9248582 0.3792838 192 192 192 255 0.134074 0.587531
275.6602 392.744 424.7865 0.02793797 -0.9247882 0.3794553 192 192 192 255 0.109272 0.5845
411.13 425.1267 453.3183 0.3351523 -0.8116252 0.4784742 192 192 192 255 0.055459 0.568256
1.5e-05 0 35.1449 -0.0004704865 -0.9999997 0.0006680015 192 192 192 255 0.008366 0.774002
500 0 35.1449 0.0004706425 -0.9999998 0.0003341114 192 192 192 255 0.227018 0.774002
1.5e-05 0 -14.23921 -0.0005452217 -0.9999998 -0.000192765 192 192 192 255 0.008366 0.774002
500 0 -14.23921 0.0004088213 -0.9999999 -9.636024e-05 192 192 192 255 0.227018 0.774002
1.5e-05 500 509.0008 -0.8046499 -0.1654256 0.5702392 192 192 192 255 0.008366 0.992654
500 500 509.0008 0.5609986 0.7261265 0.3975186 192 192 192 255 0.227018 0.992654
500 500 485.7608 0.5815221 0.7019598 -0.4111988 192 192 192 255 0.227018 0.992654
1.5e-05 500 485.7608 -0.3365568 0.9110951 -0.2379816 192 192 192 255 0.008366 0.992654
43.01082 0 35.1449 0.0001501153 -1 0.0003022432 192 192 192 255 0.027174 0.774002
208.6022 0 35.1449 -0.3515824 -0.7857921 0.5088425 192 192 192 255 0.099588 0.774002
291.3979 0 35.1449 0.140386 -0.8861591 0.4416037 192 192 192 255 0.135795 0.774002
456.9892 0 35.1449 -0.0003001405 -0.9999998 0.0006043049 192 192 192 255 0.208209 0.774002
1.5e-05 315.3606 348.0144 -0.0001046195 -0.6250054 0.7806204 192 192 192 255 0.008366 0.91191
125.8065 315.3606 348.0144 2.574003e-05 -0.6250216 0.7806075 192 192 192 255 0.063381 0.91191
374.1935 315.3606 348.0144 2.574581e-05 -0.6246855 0.7808765 192 192 192 255 0.172002 0.91191
500.0001 315.3606 348.0144 0.0001046516 -0.624659 0.7808977 192 192 192 255 0.227018 0.91191
1.5e-05 343.8985 353.6174 -0.0005463058 -0.1928067 0.9812366 192 192 192 255 0.008366 0.92439
500.0001 343.8985 353.53 0.000819689 -0.1900611 0.9817719 192 192 192 255 0.227018 0.92439
43.01082 225.2851 258.6505 0.0001093472 -0.7043118 0.7098908 192 192 192 255 0.027174 0.87252
208.6022 225.2851 258.6505 -0.2841584 -0.7511095 0.5958931 192 192 192 255 0.099588 0.87252
291.3979 225.2851 258.6505 0.3088443 -0.7092112 0.6337466 192 192 192 255 0.135795 0.87252
456.9892 225.2851 258.6505 -0.0001008969 -0.704326 0.7098767 192 192 192 255 0.208209 0.87252
436.2882 0 11.21673 -0.0001202509 -1 0.0002418536 192 192 192 255 0.199156 0.774002
312.0989 0 11.21673 0.0003960983 -0.9999996 0.0007966503 192 192 192 255 0.144848 0.524002
312.0989 230.1777 240.4572 0.0001360148 -0.705701 0.7085098 192 192 192 255 0.144848 0.874659
374.1935 297.732 307.7364 -4.154152e-05 -0.7057202 0.7084907 192 192 192 255 0.172002 0.904201
436.2882 230.1777 240.4572 -0.0001474033 -0.7056818 0.708529 192 192 192 255 0.199156 0.874659
63.71181 0 11.21673 0.0002404438 -0.9999999 0.0004835906 192 192 192 255 0.036227 0.774002
187.9012 0 11.21673 -0.0001980027 -0.9999999 0.0003982314 192 192 192 255 0.090536 0.774002
63.71181 230.1777 240.4572 0.0001360148 -0.7057011 0.7085098 192 192 192 255 0.036227 0.874659
125.8065 297.732 307.7364 -4.154151e-05 -0.7057202 0.7084906 192 192 192 255 0.063381 0.904201
187.9012 230.1777 240.4572 -0.0001474033 -0.7056818 0.7085289 192 192 192 255 0.090536 0.874659
169.5777 387.3357 419.421 -0.005087666 -0.9127771 0.4084263 192 192 192 255 0.15218 0.8345
275.6602 392.744 424.7865 0.02793797 -0.9247882 0.3794553 192 192 192 255 0.109272 0.8345
125.2568 399.9345 431.9203 -0.02809651 -0.7219897 0.6913332 192 192 192 255 0.170106 0.579602
397.429 442.8662 474.5128 0.004585912 -0.7066734 0.7075251 192 192 192 255 0.057519 0.563656
362.6364 387.3357 419.421 0.0860093 -0.8132564 0.5755141 192 192 192 255 0.074093 0.8345
24.75 500 531.1953 -0.02570054 -0.7169347 0.6966664 192 192 192 255 0.210758 0.788946
434.6579 457.7591 489.2881 0.04112887 -0.7532077 0.6564957 192 192 192 255 0.044962 0.805366
475.2501 500 531.1953 0.2865904 -0.3815928 0.8787792 192 192 192 255 0.028544 0.788946
372.2947 397.3862 429.3921 0.1037817 -0.72894 0.6766653 192 192 192 255 0.070186 0.580593
374.1935 315.3606 348.0144 2.574581e-05 -0.6246855 0.7808765 192 192 192 255 0.172002 0.66191
291.3979 225.2851 258.6505 0.3088443 -0.7092112 0.6337466 192 192 192 255 0.135795 0.62252
312.0989 230.1777 240.4572 0.0001360148 -0.705701 0.7085098 192 192 192 255 0.144848 0.624659
374.1935 297.732 307.7364 -4.154152e-05 -0.7057202 0.7084907 192 192 192 255 0.172002 0.654201
291.3979 0 35.1449 0.140386 -0.8861591 0.4416037 192 192 192 255 0.135795 0.524002
456.9892 225.2851 258.6505 -0.0001008969 -0.704326 0.7098767 192 192 192 255 0.208209 0.62252
436.2882 230.1777 240.4572 -0.0001474033 -0.7056818 0.708529 192 192 192 255 0.199156 0.624659
456.9892 0 35.1449 -0.0003001405 -0.9999998 0.0006043049 192 192 192 255 0.208209 0.524002
436.2882 0 11.21673 -0.0001202509 -1 0.0002418536 192 192 192 255 0.199156 0.524002
312.0989 0 11.21673 0.0003960983 -0.9999996 0.0007966503 192 192 192 255 0.144848 0.774002
125.8065 315.3606 348.0144 2.574003e-05 -0.6250216 0.7806075 192 192 192 255 0.063381 0.66191
43.01082 225.2851 258.6505 0.0001093472 -0.7043118 0.7098908 192 192 192 255 0.027174 0.62252
63.71181 230.1777 240.4572 0.0001360148 -0.7057011 0.7085098 192 192 192 255 0.036227 0.624659
125.8065 297.732 307.7364 -4.154151e-05 -0.7057202 0.7084906 192 192 192 255 0.063381 0.654201
43.01082 0 35.1449 0.0001501153 -1 0.0003022432 192 192 192 255 0.027174 0.524002
63.71181 0 11.21673 0.0002404438 -0.9999999 0.0004835906 192 192 192 255 0.036227 0.524002
208.6022 225.2851 258.6505 -0.2841584 -0.7511095 0.5958931 192 192 192 255 0.099588 0.62252
187.9012 230.1777 240.4572 -0.0001474033 -0.7056818 0.7085289 192 192 192 255 0.090536 0.624659
208.6022 0 35.1449 -0.3515824 -0.7857921 0.5088425 192 192 192 255 0.099588 0.524002
187.9012 0 11.21673 -0.0001980027 -0.9999999 0.0003982314 192 192 192 255 0.090536 0.524002
3 9 13 14 
3 5 0 1 
3 5 1 4 
3 12 3 48 
3 12 48 49 
3 1 0 2 
3 1 2 8 
3 8 50 1 
3 50 8 9 
3 51 15 11 
3 5 4 11 
3 5 11 15 
3 9 8 2 
3 9 2 13 
3 14 13 7 
3 14 7 6 
3 12 49 52 
3 12 52 10 
3 53 3 12 
3 53 12 54 
3 53 54 55 
3 7 15 56 
3 7 56 6 
3 56 15 51 
3 5 15 7 
3 19 33 31 
3 19 31 17 
3 28 32 18 
3 28 18 16 
3 23 20 21 
3 23 21 22 
3 16 18 24 
3 27 19 17 
3 31 33 30 
3 29 30 33 
3 29 33 32 
3 32 28 29 
3 29 28 34 
3 36 30 29 
3 36 29 35 
3 18 32 20 
3 18 20 23 
3 18 23 22 
3 18 22 19 
3 33 19 22 
3 33 22 21 
3 33 21 20 
3 33 20 32 
3 16 24 34 
3 16 34 28 
3 45 47 46 
3 35 25 26 
3 35 26 36 
3 40 42 41 
3 31 37 27 
3 31 27 17 
3 19 27 38 
3 57 58 59 
3 57 59 60 
3 58 61 39 
3 58 39 59 
3 62 57 60 
3 62 60 63 
3 64 62 63 
3 64 63 65 
3 66 19 38 
3 24 18 43 
3 26 25 44 
3 26 44 66 
3 67 68 69 
3 67 69 70 
3 68 71 72 
3 68 72 69 
3 73 67 70 
3 73 70 74 
3 75 73 74 
3 75 74 76 
3 43 44 47 
3 43 47 45 
3 66 38 42 
3 66 42 40 
3 44 18 19 
3 44 19 66 
3 43 18 44 
3 31 30 37 
