ply
format ascii 1.0
comment VCGLIB generated
comment TextureFile Dungeons_2_Texture_01_A.png
element vertex 65
property float x
property float y
property float z
property float nx
property float ny
property float nz
property uchar red
property uchar green
property uchar blue
property uchar alpha
property float texture_u
property float texture_v
element face 108
property list uchar int vertex_indices
end_header
66.29102 50 66.29102 0.0001093034 1 0.0001443229 192 192 192 255 0.145801 0.939087
0 50 93.75 1.116753e-09 1 0.0002390333 192 192 192 255 0.17494 0.910013
-93.75 50 0 -0.0004779752 0.9999999 -9.584036e-12 192 192 192 255 0.146123 0.839766
-66.29102 50 -66.29102 -0.03921742 0.9947563 -0.09445667 192 192 192 255 0.104949 0.839415
66.29102 50 -66.29102 0.000337977 0.9999999 -0.0003379815 192 192 192 255 0.075564 0.909745
93.75 50 0 0.0001793379 1 2.476201e-05 192 192 192 255 0.10457 0.939058
83.0332 30 83.0332 0.3178706 0.5983706 0.7354665 192 192 192 255 0.153399 0.95678
0 30 117.4268 3.601515e-07 0.6263257 0.7795615 192 192 192 255 0.192865 0.917319
-83.0332 30 83.0332 -0.4723948 0.6227305 0.6237388 192 192 192 255 0.192835 0.861717
-117.4268 30 0 -0.7750831 0.6227308 0.107017 192 192 192 255 0.153638 0.82174
-83.0332 30 -83.0332 -0.6237388 0.6227304 -0.4723948 192 192 192 255 0.097677 0.821504
0 30 -117.4268 -0.107017 0.6227307 -0.7750831 192 192 192 255 0.057796 0.861051
83.0332 30 -83.0332 0.4723842 0.6227422 -0.623735 192 192 192 255 0.057563 0.917238
117.4277 30 0 0.7425627 0.5967149 0.3041907 192 192 192 255 0.097317 0.956974
73.63086 37.01606 73.63086 0.1932904 0.9752527 0.1073355 192 192 192 255 0.149655 0.948026
104.1309 37.01606 0 0.4671927 0.882767 -0.04953256 192 192 192 255 0.100964 0.948093
73.63086 37.01606 -73.63086 0.2836773 0.9198067 -0.2710772 192 192 192 255 0.06642 0.913568
0 37.01606 -104.1299 0.2917953 0.6203053 -0.7280638 192 192 192 255 0.066643 0.86474
-73.63086 37.01606 -73.63086 -0.3084635 0.596449 -0.741012 192 192 192 255 0.101293 0.830379
-104.1299 37.01606 0 -0.3922694 0.9198073 -0.008910998 192 192 192 255 0.149903 0.830565
-73.63086 37.01606 73.63086 -0.4420843 0.6191327 0.6490271 192 192 192 255 0.183978 0.865363
0 37.01606 104.1299 -0.3059036 0.5963781 0.7421295 192 192 192 255 0.183979 0.913664
80.17383 35.03352 80.17383 0.2098545 0.9626617 0.1710076 192 192 192 255 0.151873 0.953108
112.4453 36.20021 0 0.7388899 0.6013942 0.3039192 192 192 192 255 0.099139 0.952611
79.51074 36.20021 -79.51074 0.3645716 0.8833082 -0.2947102 192 192 192 255 0.061915 0.915418
0 36.20021 -112.4453 0.04940517 0.883302 -0.466194 192 192 192 255 0.062154 0.862852
-79.51074 36.20021 -79.51074 -0.2947147 0.8833018 -0.3645837 192 192 192 255 0.099472 0.825864
-112.4453 36.20021 0 -0.466194 0.883302 -0.04940516 192 192 192 255 0.151813 0.826088
-79.51074 36.20021 79.51074 -0.3645838 0.8833018 0.2947147 192 192 192 255 0.188482 0.863526
0 36.20021 112.4453 0.006435303 0.854675 0.5191235 192 192 192 255 0.188472 0.915523
0 50 0 0 1 0 192 192 192 255 0.125244 0.88928
-56.34766 50 70.41016 -0.3220021 0.946705 0.008022109 192 192 192 255 0.174976 0.875119
-77.55371 50 39.10059 -0.410926 0.8773028 0.2479513 192 192 192 255 0.163248 0.856855
-68.66504 45.80135 68.66504 -0.3722212 0.7900869 0.4870464 192 192 192 255 0.177805 0.867884
-56.34766 50 56.34766 -0.1962232 0.9715109 0.1329025 192 192 192 255 0.167658 0.87182
-17.1123 50 -86.66211 -0.2715601 0.6688871 -0.6919865 192 192 192 255 0.083048 0.860988
4.640625 50 -91.82812 0.1035386 0.791733 -0.6020287 192 192 192 255 0.075546 0.87131
0 47.74962 -95.54883 0.03428669 0.911466 -0.4099441 192 192 192 255 0.07435 0.867984
0 50 -87.1875 -0.06036954 0.965265 -0.2542025 192 192 192 255 0.079009 0.869865
73.10059 36.20021 82.16602 0.2563177 0.8798411 0.400226 192 192 192 255 0.154411 0.949574
94.73633 36.20021 42.75098 0.5008151 0.8368893 0.2209085 192 192 192 255 0.127315 0.952495
125 26.2401 125 0.9977562 0.06338499 0.02156383 192 192 192 255 0.195788 0.821269
-125 30 125 -0.0001211163 1 0.0001211163 192 192 192 255 0.056843 0.823903
125 0 125 1 -0.0003048769 0.0001524384 192 192 192 255 0.206117 0.810969
-125 0 125 -0.950591 -0.0001431161 0.3104461 192 192 192 255 0.044312 0.810923
125 0 -125 0.8500918 -0.0001295472 -0.5266345 192 192 192 255 0.047328 0.811353
-125 0 -125 -0.7990322 -0.0002406689 -0.6012883 192 192 192 255 0.047328 0.967125
125 16.26078 -125 0.5891172 0.1748052 -0.7889133 192 192 192 255 0.196567 0.957536
-90 30 -125 -0.03754937 0.383841 -0.9226354 192 192 192 255 0.078324 0.955047
-125 26.56038 -125 -0.9858467 0.06419695 -0.1548712 192 192 192 255 0.060144 0.95587
-125 30 -112.5645 -0.005149512 0.9998909 -0.01384596 192 192 192 255 0.061578 0.949131
-14.62305 30 125 -0.05389715 0.1767007 0.9827879 192 192 192 255 0.116743 0.82175
-90.24512 30 125 0.007320462 0.9996997 0.02338754 192 192 192 255 0.073921 0.822075
-64.53711 30 116.873 0.07090619 0.8199645 0.5680058 192 192 192 255 0.08845 0.825093
-35.96973 30 118.2246 -0.1167738 0.6870136 0.7172003 192 192 192 255 0.104097 0.823818
-39.92871 22.19124 125 0 0.214137 0.9768037 192 192 192 255 0.100938 0.818693
101.082 30 -125 0.4801818 0.8402811 -0.2517003 192 192 192 255 0.179456 0.951935
125 30 -90.22559 0.3446299 0.938559 -0.01836726 192 192 192 255 0.190747 0.936051
113.5566 30 -100.9238 0.4202771 0.8601202 -0.2890682 192 192 192 255 0.185452 0.941077
125 30 113.791 0.3332314 0.9427013 0.01646859 192 192 192 255 0.193838 0.827446
87.57617 30 125 0.004881086 0.9330909 0.3596073 192 192 192 255 0.175633 0.821546
125 0 125 1 -0.0003048769 0.0001524384 192 192 192 255 0.2031 0.811353
-125 0 125 -0.950591 -0.0001431161 0.3104461 192 192 192 255 0.2031 0.967125
-125 0 -125 -0.7990322 -0.0002406689 -0.6012883 192 192 192 255 0.051225 0.967556
125 0 -125 0.8500918 -0.0001295472 -0.5266345 192 192 192 255 0.203008 0.963458
3 0 1 21 
3 0 21 14 
3 34 33 31 
3 2 3 18 
3 2 18 19 
3 38 36 37 
3 4 5 15 
3 4 15 16 
3 5 0 14 
3 5 14 15 
3 15 14 40 
3 15 40 23 
3 16 15 23 
3 16 23 24 
3 17 16 24 
3 17 24 25 
3 18 17 25 
3 18 25 26 
3 19 18 26 
3 19 26 27 
3 20 19 27 
3 20 27 28 
3 21 20 28 
3 21 28 29 
3 14 39 22 
3 22 6 13 
3 22 13 40 
3 23 40 13 
3 24 23 13 
3 24 13 12 
3 25 24 12 
3 25 12 11 
3 26 25 11 
3 26 11 10 
3 27 26 10 
3 27 10 9 
3 28 27 9 
3 28 9 8 
3 29 28 8 
3 29 8 7 
3 29 7 6 
3 29 6 39 
3 22 39 6 
3 0 5 30 
3 5 4 30 
3 3 2 30 
3 1 0 30 
3 34 31 1 
3 34 1 30 
3 2 32 34 
3 2 34 30 
3 2 19 20 
3 2 20 32 
3 33 32 20 
3 20 21 33 
3 31 33 21 
3 31 21 1 
3 34 32 33 
3 38 35 3 
3 38 3 30 
3 4 36 38 
3 4 38 30 
3 4 16 17 
3 4 17 36 
3 37 36 17 
3 37 17 18 
3 37 18 35 
3 3 35 18 
3 38 37 35 
3 14 21 29 
3 14 29 39 
3 40 14 22 
3 52 42 44 
3 52 44 55 
3 44 43 41 
3 44 41 60 
3 44 60 55 
3 60 51 55 
3 61 62 46 
3 61 46 45 
3 49 50 48 
3 44 42 50 
3 44 50 49 
3 63 44 49 
3 47 56 58 
3 53 55 54 
3 52 55 53 
3 54 55 51 
3 64 63 47 
3 56 47 63 
3 56 63 48 
3 49 48 63 
3 42 52 50 
3 50 52 53 
3 50 53 48 
3 56 48 53 
3 56 53 54 
3 58 56 54 
3 58 54 51 
3 58 51 60 
3 58 60 57 
3 57 60 59 
3 43 64 41 
3 59 41 64 
3 59 64 47 
3 47 57 59 
3 47 58 57 
3 59 60 41 
