ply
format ascii 1.0
comment VCGLIB generated
comment TextureFile Dungeons_2_Texture_01_A.png
element vertex 404
property float x
property float y
property float z
property float nx
property float ny
property float nz
property uchar red
property uchar green
property uchar blue
property uchar alpha
property float texture_u
property float texture_v
element face 600
property list uchar int vertex_indices
end_header
28.40039 -3.278764 13.375 -0.06420939 0.9975399 -0.02812983 192 192 192 255 0.051479 0.728883
499.8623 -22.79018 0.179688 0.5783355 -0.5724567 -0.5812241 192 192 192 255 0.232614 0.733961
0.828125 -22.74446 323.1045 -0.6211828 -0.7836625 -0.002254593 192 192 192 255 0.040886 0.609688
14.65625 -22.81488 0.083984 -0.02289237 -0.6938138 -0.7197906 192 192 192 255 0.046198 0.733998
8.358398 0.045141 491.8848 0.06395685 0.9958002 -0.06551019 192 192 192 255 0.043779 0.544736
194.1943 2.373298 162.3828 -0.05746948 0.9863601 0.1542439 192 192 192 255 0.093859 0.915058
372.293 -1.321427 126.5 -0.009875632 0.999871 0.01267539 192 192 192 255 0.183602 0.685349
113.0869 2.370825 164.0654 -0.01324062 0.9897704 -0.1420546 192 192 192 255 0.084015 0.670892
496.4395 -22.9005 494.9453 0.01492337 -0.999833 0.0105524 192 192 192 255 0.231299 0.543558
0.043945 -10.69839 219.7803 -0.9546617 0.2975919 0.007755153 192 192 192 255 0.040584 0.649451
488.6465 -0.132264 9.228516 -0.08561085 0.991243 0.1005392 192 192 192 255 0.228305 0.730479
296.5459 1.179727 296.4609 0.03198449 0.9980923 0.05280884 192 192 192 255 0.1545 0.619942
162.9316 2.373856 192.8574 0.1511994 0.9869131 -0.05604711 192 192 192 255 0.079617 0.901175
356.0869 -14.3898 0.007813 -0.005467691 0.1454102 -0.9893564 192 192 192 255 0.177376 0.734027
123.1875 -1.262136 124.875 0.03190506 0.9991702 0.02531846 192 192 192 255 0.087896 0.685974
458.0049 -1.15397 456.5098 0.03700099 0.9986913 0.03530792 192 192 192 255 0.216533 0.558349
460.54 -1.316783 372.9121 0.01879678 0.9995212 -0.02457697 192 192 192 255 0.217507 0.590521
217.5518 -1.136137 328.0332 -0.05885748 0.9954795 -0.07454111 192 192 192 255 0.124151 0.607792
127.6689 -1.320654 37.15918 0.02261773 0.9995145 -0.02143205 192 192 192 255 0.089618 0.71973
447.4004 1.295488 447.5312 0.08644652 0.9916583 0.09560836 192 192 192 255 0.209211 0.785155
391.2422 -1.317085 143.8965 -0.006044316 0.9964656 -0.08378388 192 192 192 255 0.190883 0.678654
143.7207 -1.319306 395.75 -0.09460841 0.9954986 0.005642239 192 192 192 255 0.095785 0.581732
49.82324 2.376241 306.8086 -0.1368268 0.9887341 0.0606918 192 192 192 255 0.028089 0.849263
97.25586 1.293204 394.6582 0.04863446 0.9983191 0.03152297 192 192 192 255 0.049697 0.809242
403.1387 2.37717 165.1104 -0.01848081 0.9993411 -0.03123932 192 192 192 255 0.189047 0.913815
487.1699 -2.718614 86.30664 0.003079363 0.9997818 -0.02065853 192 192 192 255 0.227738 0.700817
14.51758 -3.136476 35.79492 -0.05647588 0.9959878 -0.06941844 192 192 192 255 0.046145 0.720255
409.8926 1.292565 77.24316 0.005810749 0.9993787 0.03476289 192 192 192 255 0.192124 0.953844
458.8076 -1.388185 296.3506 0.08546609 0.9956982 0.03578603 192 192 192 255 0.216841 0.619984
451.5518 2.374038 192.8721 0.1524456 0.9865347 -0.05924204 192 192 192 255 0.211102 0.901168
14.31055 -3.013146 295.375 0.08875663 0.9954895 -0.03350941 192 192 192 255 0.046066 0.62036
77.14453 2.312234 324.0459 -0.01702688 0.9859914 0.1659255 192 192 192 255 0.070206 0.609326
342.2588 2.146484 105.1963 0.1554832 0.9878297 -0.004175603 192 192 192 255 0.172063 0.693547
414.6299 -1.250495 3.013672 -0.09193166 0.976328 -0.1957867 192 192 192 255 0.199868 0.732871
416.5479 2.390866 326.1621 0.09986389 0.9910566 0.08851004 192 192 192 255 0.200605 0.608512
198.374 -2.537334 340.7441 -0.03928028 0.9848596 -0.168845 192 192 192 255 0.116783 0.6029
242.2988 -1.166358 191.0684 0.01455714 0.9945332 -0.1034017 192 192 192 255 0.133659 0.660501
500 -9.620449 71.21094 0.9850531 0.1608347 0.06166556 192 192 192 255 0.232667 0.706626
473.9688 -1.46622 26.0332 0.03679312 0.9980475 -0.05047227 192 192 192 255 0.222666 0.724012
287.5186 2.370633 392.459 0.07417498 0.9901873 -0.1184364 192 192 192 255 0.136374 0.810244
315.0527 -1.324625 202.1592 -0.04191268 0.9990959 0.007121258 192 192 192 255 0.161611 0.656232
316.8457 2.36396 435.0459 0.08399715 0.9885373 0.1254532 192 192 192 255 0.162299 0.566609
497.9336 -8.407881 387.8613 0.5216754 0.8529029 0.0202828 192 192 192 255 0.231873 0.584768
360.8115 -1.336519 26.74219 0.02531099 0.9859962 -0.1648356 192 192 192 255 0.179191 0.723739
277.5039 1.296953 216.7939 0.05986566 0.9955434 -0.0728659 192 192 192 255 0.131812 0.89027
337.6836 -0.973509 76.66113 0.09588972 0.991943 -0.08279112 192 192 192 255 0.170305 0.704528
113.4141 1.275454 447.5771 0.0792127 0.9951574 0.0582002 192 192 192 255 0.084141 0.561787
86.27051 -1.323126 358.7344 0.004944862 0.9998149 -0.01859365 192 192 192 255 0.073713 0.595977
5.266602 -22.9005 495.4814 -0.1051243 -0.9887149 0.106732 192 192 192 255 0.042591 0.543351
113.6494 1.21118 112.6885 0.1178593 0.9918848 0.04768401 192 192 192 255 0.057166 0.937697
358.292 -1.118412 169.123 0.008166072 0.9996111 -0.0266651 192 192 192 255 0.178223 0.668946
86.97754 1.296237 59.22754 -0.007576192 0.9993764 -0.03448828 192 192 192 255 0.045015 0.962051
387.7451 -1.382831 31.87207 0.002663242 0.9967642 -0.08033628 192 192 192 255 0.189539 0.721765
187.79 1.924902 357.8477 -0.071525 0.9908461 -0.1144909 192 192 192 255 0.090942 0.826011
484.8193 -3.115145 55.52637 0.003799708 0.9993588 0.03560465 192 192 192 255 0.226835 0.712662
243.6572 2.364329 366.2568 0.01296178 0.9998558 -0.01097627 192 192 192 255 0.116393 0.82218
451.9395 2.309096 262.7295 0.1657001 0.9860581 0.0152668 192 192 192 255 0.214202 0.632923
301.6162 -6.783916 498.25 0.02658186 0.6561466 0.7541651 192 192 192 255 0.156448 0.542286
257.0596 -0.139035 9.398438 0.001708215 0.9547794 0.2973101 192 192 192 255 0.13933 0.730414
307.0537 -0.934074 243.1953 0.05895194 0.9980118 -0.02229877 192 192 192 255 0.158537 0.64044
3.329102 -4.307677 267.0898 -0.6465437 0.7614092 0.0473005 192 192 192 255 0.041846 0.631245
289.4053 -0.108681 0.147461 0.02747348 0.7618301 -0.647194 192 192 192 255 0.151757 0.733974
222.2236 2.373183 345.2998 -0.05664471 0.9934723 -0.09901549 192 192 192 255 0.106628 0.831728
326.7617 -1.165864 313.7295 -0.06127451 0.9969547 0.04823653 192 192 192 255 0.166109 0.613296
113.3525 1.280171 50.97559 0.07445726 0.9960018 -0.04936072 192 192 192 255 0.05703 0.965811
341.002 2.369362 393.4883 0.164915 0.9862878 -0.0062795 192 192 192 255 0.17158 0.582602
26.69824 -1.319699 26.75098 -0.0688599 0.9960022 -0.05690332 192 192 192 255 0.050825 0.723736
487.0225 -2.763169 13.89258 -0.4504761 0.8805817 0.1471296 192 192 192 255 0.227681 0.728684
499.8428 -0.061293 0.134766 0.5744289 0.5800807 -0.5775273 192 192 192 255 0.232607 0.733979
162.8936 -1.61249 101.2529 -0.05640293 0.9971794 -0.0495171 192 192 192 255 0.103151 0.695065
434.9209 -1.295688 125.2637 -0.03521259 0.9979214 0.05397212 192 192 192 255 0.207664 0.685825
447.5566 1.251269 93.87695 0.06833535 0.9975439 0.01537988 192 192 192 255 0.212519 0.697903
317.4697 -1.415634 59.01465 0.007435727 0.9986038 -0.05229938 192 192 192 255 0.162539 0.711319
10.0127 -1.720572 249.9834 -0.1634928 0.9857033 0.04073166 192 192 192 255 0.044414 0.637828
0.016602 -6.973171 255.6338 -0.9393961 0.3369958 0.06299946 192 192 192 255 0.040574 0.635653
122.4873 -1.328681 147.6221 0.01310515 0.9973357 -0.07176156 192 192 192 255 0.087627 0.67722
472.9639 -1.318964 472.0303 0.06463771 0.9969324 0.04413186 192 192 192 255 0.22228 0.552376
314.5322 -0.928859 327.8281 0.05443242 0.994105 -0.09376702 192 192 192 255 0.161411 0.60787
182.4268 -1.323488 173.6309 -0.04012809 0.9971907 0.06325009 192 192 192 255 0.110656 0.667211
276.1309 -1.337425 33.74512 0.01146404 0.9945768 -0.1033718 192 192 192 255 0.146657 0.721044
106.3857 1.294 429.4824 0.1062048 0.9911662 -0.07943705 192 192 192 255 0.053857 0.793377
123.668 -0.993284 434.127 0.1962793 0.9791773 -0.05182983 192 192 192 255 0.088081 0.566963
499.9424 -0.07632 337.5049 0.6980262 0.7154158 0.03065567 192 192 192 255 0.232645 0.604146
36.96387 -1.317545 182.8652 -0.05838627 0.9972243 -0.04620466 192 192 192 255 0.054769 0.663657
336.6973 2.253811 191.5498 -0.1163881 0.9899241 -0.08064789 192 192 192 255 0.169926 0.660315
311.6133 2.372849 100.543 -0.00609171 0.9997385 -0.02204262 192 192 192 255 0.147351 0.94323
490.5635 -0.253101 488.502 -0.02445954 0.9994301 -0.02326807 192 192 192 255 0.229042 0.546037
160.0742 2.376459 393.8984 -0.1544006 0.9873446 -0.03620996 192 192 192 255 0.078315 0.809588
462.8467 -1.326467 181.7529 0.06643055 0.9968746 -0.04275565 192 192 192 255 0.218393 0.664085
309.7021 2.389079 160.8232 0.1083575 0.9854122 0.1312307 192 192 192 255 0.146481 0.915768
499.917 -22.80214 439.2285 0.7169358 -0.697139 0.0006444888 192 192 192 255 0.232635 0.565
275.5254 -1.064026 446.8213 0.0064399 0.9835404 0.1805741 192 192 192 255 0.146424 0.562078
183.7695 -1.324757 34.19727 -0.02389941 0.9987219 -0.04453634 192 192 192 255 0.111172 0.72087
373.2246 -1.29229 409.9766 -0.04737424 0.9983492 -0.03247439 192 192 192 255 0.18396 0.576257
219.3555 -0.106721 499.835 0.02644377 0.7044125 0.7092981 192 192 192 255 0.124844 0.541676
76.40137 -1.618686 500.0234 -0.002930253 0.3914058 0.9202135 192 192 192 255 0.069921 0.541604
115.7441 -1.329669 356.9502 -0.007232077 0.9998163 -0.01775299 192 192 192 255 0.085036 0.596663
381.3506 -4.082985 3.143555 -0.03969066 0.893123 -0.448058 192 192 192 255 0.187082 0.732821
423.7891 -1.575262 104.9375 -0.07163336 0.9955937 0.06051238 192 192 192 255 0.203387 0.693647
246.9385 2.372105 73.08496 0.004614392 0.9999887 -0.001178234 192 192 192 255 0.117888 0.955738
288.8125 1.442892 74.41797 0.06797642 0.9956771 -0.06329522 192 192 192 255 0.151529 0.705392
480.9072 -3.086691 379.3252 0.1626195 0.9853603 0.05118629 192 192 192 255 0.225332 0.588053
416.8926 2.373173 304.8662 0.02327535 0.9994944 0.02166215 192 192 192 255 0.195313 0.850148
436.0811 2.333233 302.7891 0.08616351 0.9932252 0.07797193 192 192 192 255 0.20811 0.617506
492.2266 -1.396367 497.5029 0.3962247 0.8180088 0.4169743 192 192 192 255 0.229681 0.542574
133.8086 -1.315072 339.7324 -0.02286434 0.9983982 0.05175133 192 192 192 255 0.091977 0.603289
315.4365 -1.02606 171.6172 0.05612274 0.9934254 0.09978105 192 192 192 255 0.161758 0.667986
14.1709 -2.922121 486.6387 0.1755226 0.9632307 -0.203417 192 192 192 255 0.046012 0.546754
170.1172 2.264123 125.2949 -0.1481589 0.988749 0.02060181 192 192 192 255 0.105926 0.685812
286.457 -1.440095 181.3916 0.06497926 0.9494979 0.3069714 192 192 192 255 0.150624 0.664224
187.96 -1.319857 188.0801 -0.01872409 0.9996351 -0.01947259 192 192 192 255 0.112782 0.661651
127.6016 -1.320515 372.2793 0.0233337 0.9996023 -0.0158362 192 192 192 255 0.089592 0.590764
497.4414 -3.836519 135.957 0.5416156 0.8359639 -0.08841343 192 192 192 255 0.231684 0.681709
496.4521 -4.106122 77.73145 0.5174577 0.8556499 0.01004621 192 192 192 255 0.231304 0.704117
81.06641 2.338761 181.2744 -0.03500532 0.9954504 -0.08861835 192 192 192 255 0.042322 0.906451
355.4746 -2.888929 21.10059 0.003350729 0.9846662 -0.174417 192 192 192 255 0.177141 0.72591
267.2402 2.325699 436.8926 0.007697792 0.9876029 0.1567842 192 192 192 255 0.127136 0.790001
325.3896 -1.322024 181.6123 -0.05174663 0.9982036 -0.03019742 192 192 192 255 0.165582 0.66414
-0.009766 -21.01074 148.1006 -0.8750101 -0.4840879 -0.004033515 192 192 192 255 0.040564 0.677036
40.05273 -0.417732 292.7744 -0.183264 0.9830516 0.004895239 192 192 192 255 0.055956 0.62136
307.833 2.241387 336.0117 0.07735325 0.9820157 -0.1722255 192 192 192 255 0.158837 0.604721
294.7979 -2.732491 197.7578 -0.0003543017 0.9992827 -0.03786685 192 192 192 255 0.153829 0.657926
346.9883 -1.319895 472.125 -0.002183752 0.9981589 0.0606148 192 192 192 255 0.17388 0.55234
338.3379 2.376006 306.7178 -0.147414 0.9856762 0.08192424 192 192 192 255 0.159526 0.849304
144.5586 2.314266 318.0283 0.05428679 0.989414 0.1345842 192 192 192 255 0.071247 0.844151
499.0342 -7.905331 499.373 0.6797877 0.3137707 0.6629002 192 192 192 255 0.232296 0.541854
352.624 -22.7906 0.136719 -0.0001966252 -0.7023793 -0.7118028 192 192 192 255 0.176045 0.733978
5.364258 -6.095941 0.793945 -0.3446946 0.7117045 -0.6120967 192 192 192 255 0.042628 0.733725
320.6396 2.380502 84.28809 0.009900173 0.9957897 -0.09113123 192 192 192 255 0.163757 0.701593
39.63379 -0.941176 228.7852 -0.1911149 0.9815656 0.002039887 192 192 192 255 0.055795 0.645986
301.4238 0.535943 78.46484 0.07952707 0.9906755 -0.1106232 192 192 192 255 0.156374 0.703834
394.2803 2.376995 339.5967 -0.0007239929 0.986755 0.1622166 192 192 192 255 0.185011 0.834326
499.168 -3.294111 374.2451 0.6526413 0.7376899 0.1728384 192 192 192 255 0.232348 0.590008
298.6104 1.062455 367.9033 -0.03640231 0.9987714 0.03362392 192 192 192 255 0.141427 0.82143
303.6094 -2.952377 13.67285 -0.01625067 0.9900539 0.139747 192 192 192 255 0.157214 0.728769
398.8984 -5.487086 0.655273 -0.03218099 0.3644662 -0.9306604 192 192 192 255 0.193824 0.733778
499.9902 -0.260369 52.23828 0.638543 0.7663373 0.07063858 192 192 192 255 0.232664 0.713927
409.7881 -1.322089 369.0283 -0.02940656 0.9986711 -0.04232381 192 192 192 255 0.198008 0.592015
20.16699 -3.053763 36.10059 -0.1147247 0.9918662 0.05513323 192 192 192 255 0.048316 0.720138
109.9795 -2.53624 332.5273 -0.004127929 0.9911394 0.1327621 192 192 192 255 0.082821 0.606062
428.1426 -3.123231 21.30371 -0.01242655 0.9907505 -0.1351261 192 192 192 255 0.20506 0.725832
411.7236 -2.045937 109.1914 0.04888703 0.9984297 0.02735594 192 192 192 255 0.198751 0.69201
329.1318 -1.319917 441.833 0.08200008 0.9938424 0.0745206 192 192 192 255 0.16702 0.563997
387.0498 2.373081 229.9883 -0.007979143 0.9998904 -0.01247367 192 192 192 255 0.181717 0.884259
267.9277 -2.722873 478.332 0.0240689 0.9963771 0.08156887 192 192 192 255 0.143505 0.549951
37.87793 -1.322201 371.6885 -0.03107386 0.9992636 -0.02250898 192 192 192 255 0.05512 0.590991
128.3281 -2.741675 412.4336 -0.03538441 0.9993721 -0.001841501 192 192 192 255 0.089871 0.575311
54.32617 -2.916526 20.9248 0.00128675 0.9881475 -0.1535021 192 192 192 255 0.06144 0.725978
243.9609 2.125713 335.7041 -0.01326786 0.9807218 -0.1949582 192 192 192 255 0.134297 0.60484
370.2607 -0.098964 162.7217 -0.1613767 0.9778175 -0.1335311 192 192 192 255 0.182822 0.671409
97.89844 1.295403 74.65527 0.06008735 0.9980914 0.01425085 192 192 192 255 0.04999 0.955023
0.557617 -0.223223 295.1758 -0.6096231 0.7899052 -0.06640381 192 192 192 255 0.005645 0.854562
53.01953 -0.165427 9.476563 -0.01619921 0.9445094 0.3280848 192 192 192 255 0.060937 0.730384
437.9697 -1.456289 330.2617 0.05152181 0.9975567 0.04718268 192 192 192 255 0.208835 0.606934
484.8672 -3.122145 486.1953 -0.1549385 0.9612939 -0.2278334 192 192 192 255 0.226853 0.546925
124.3721 -1.103947 63.3584 0.07697776 0.9963654 0.03647432 192 192 192 255 0.088351 0.709648
486.8848 -3.022806 168.1182 -0.3311677 0.9434987 0.01175375 192 192 192 255 0.227628 0.669333
36.97363 -1.330245 317.0723 -0.07088832 0.9966019 0.04194627 192 192 192 255 0.054773 0.61201
1.283203 -4.406418 246.3652 -0.698474 0.7156341 -0.001381417 192 192 192 255 0.04106 0.63922
47.73145 2.142694 191.4092 -0.1546976 0.9854038 -0.07105026 192 192 192 255 0.027136 0.901834
274.165 -1.161 326.0234 0.002972239 0.9886191 -0.1504109 192 192 192 255 0.145902 0.608565
485.0605 -3.505116 141.7178 0.03576089 0.9985841 -0.0393821 192 192 192 255 0.226928 0.679492
394.5068 -1.132061 353.6943 0.003571003 0.995261 0.09717477 192 192 192 255 0.192137 0.597916
12.58789 -2.545187 118.8965 0.2515789 0.9678234 -0.005092878 192 192 192 255 0.045404 0.688275
499.8447 0.013464 459.002 0.681154 0.7321231 0.004998281 192 192 192 255 0.232608 0.55739
116.1484 -2.857488 409.9121 0.04927307 0.997713 0.04627131 192 192 192 255 0.085192 0.576282
438.5312 1.285417 112.1611 -0.08560394 0.9942151 0.0648711 192 192 192 255 0.209051 0.690867
371.8887 -0.660736 192.5918 0.03109654 0.9935012 -0.1094914 192 192 192 255 0.183447 0.659914
276.21 -2.911873 497.7559 -0.02639826 0.7923435 0.6095039 192 192 192 255 0.146687 0.542476
490.8467 -0.073154 174.2168 -0.309509 0.9508249 -0.01167064 192 192 192 255 0.229151 0.666986
354.5039 -1.083444 393.7236 0.09835821 0.995151 -0.000361093 192 192 192 255 0.176768 0.582511
326.7471 -1.13528 249.4287 -0.163306 0.986574 0.00173478 192 192 192 255 0.166104 0.638041
13.84766 -2.953955 456.5068 0.2693073 0.9630535 0.001269064 192 192 192 255 0.045888 0.55835
338.958 -1.033338 500.0459 -0.1144015 0.7715072 0.6258507 192 192 192 255 0.170795 0.541595
308.998 -2.417289 224.123 -0.2473927 0.9648589 -0.08856732 192 192 192 255 0.159284 0.64778
280.0918 -1.798691 462.6553 0.00153949 0.9999705 -0.007524365 192 192 192 255 0.148179 0.555984
301.9043 -9.762785 499.9912 -0.03750595 0.1499299 0.987985 192 192 192 255 0.156559 0.541616
304.0078 -1.442395 59.73438 0.04117632 0.9981999 -0.04360773 192 192 192 255 0.157367 0.711043
64.14746 -1.323693 159.0322 -0.009059592 0.9994255 -0.03265838 192 192 192 255 0.065213 0.672829
350.6494 -2.969663 486.3496 -0.05709649 0.9878166 -0.14477 192 192 192 255 0.175287 0.546866
42.30957 -0.112633 0.082031 -0.07161371 0.7456647 -0.6624619 192 192 192 255 0.056823 0.733999
182.7217 2.375502 66.41309 -0.1057119 0.9931966 -0.04884161 192 192 192 255 0.088633 0.958778
198.6191 -22.73382 499.8271 0.0001152661 -0.7366251 0.6763014 192 192 192 255 0.116877 0.541679
188.125 -1.322542 315.125 -0.01322837 0.9991513 0.03900935 192 192 192 255 0.112845 0.612759
195.2236 -2.932442 329.6289 0.01496638 0.9990996 0.03969917 192 192 192 255 0.115572 0.607177
388.8164 -2.937045 383.4883 -0.05132435 0.9977869 -0.04227433 192 192 192 255 0.189951 0.58645
0.629883 -0.059704 47.58203 -0.6341044 0.7646223 -0.1151715 192 192 192 255 0.005678 0.967357
432.5654 -0.142796 0.102539 -0.04341277 0.7248999 -0.6874849 192 192 192 255 0.206759 0.733991
490.7998 -0.102525 337.4609 -0.1518834 0.9881821 0.02067944 192 192 192 255 0.229133 0.604163
9.302734 -0.022585 206.4502 0.0806023 0.9918062 0.09911508 192 192 192 255 0.044142 0.654581
485.6719 -4.000877 394.4424 0.176273 0.9807124 -0.08444574 192 192 192 255 0.227162 0.582235
500.0186 -0.530758 413.6602 0.6338941 0.7700046 -0.07260321 192 192 192 255 0.232674 0.574839
473.1934 -1.344745 309.8174 0.1326276 0.991166 -0.0002010901 192 192 192 255 0.222368 0.614802
190.4863 2.085228 449.8779 -0.06408712 0.9887769 0.1349564 192 192 192 255 0.09217 0.784086
296.6064 0.035626 388.4004 0.02334522 0.9967166 -0.07753129 192 192 192 255 0.140515 0.812093
0.012695 -12.12887 0.206055 -0.7109013 0.2187921 -0.6683931 192 192 192 255 0.040572 0.733951
0.001953 -7.332148 27.35645 -0.8113739 0.5797001 -0.07496809 192 192 192 255 0.040568 0.723503
85.47754 -2.107713 342.334 0.02429977 0.9986148 0.04666983 192 192 192 255 0.073408 0.602288
215.1152 -21.23767 500.0078 -0.0006468009 -0.04933853 0.9987819 192 192 192 255 0.123215 0.54161
54.04102 1.300123 447.2695 -0.03868607 0.9982945 0.04372059 192 192 192 255 0.06133 0.561905
181.9951 -1.326399 461.9854 -0.03978939 0.9971564 0.06400001 192 192 192 255 0.11049 0.556242
318.9688 -0.617292 9.694336 0.1549714 0.9858021 0.06463914 192 192 192 255 0.163115 0.7303
150.7227 -1.31681 91.85156 0.00135737 0.9998972 0.01427793 192 192 192 255 0.098475 0.698683
266.2842 2.337417 48.75781 0.0271545 0.9934324 -0.1111518 192 192 192 255 0.126701 0.966821
499.3525 -10.77235 125.2588 0.9851153 0.1713045 -0.01423106 192 192 192 255 0.232419 0.685826
499.9053 -0.113545 164.5566 0.6908561 0.7205506 -0.05936956 192 192 192 255 0.232631 0.670703
9.567383 -0.230922 404.1328 0.2647299 0.9643219 0.00114743 192 192 192 255 0.00975 0.804925
236.6465 -21.41967 500.0146 0.006941058 -0.05392998 0.9985206 192 192 192 255 0.131487 0.541607
230.2734 -1.329704 34.625 0.0008395885 0.9916266 -0.1291354 192 192 192 255 0.129038 0.720706
182.2852 -1.402966 336.3672 0.04535045 0.9985776 -0.02803956 192 192 192 255 0.110601 0.604584
462.9482 -1.335847 263.9082 0.1517609 0.9883634 0.01032223 192 192 192 255 0.218432 0.632469
-0.003906 -21.06013 413.6338 -0.8801754 -0.4745434 0.009991001 192 192 192 255 0.040566 0.574849
479.3369 -2.994897 134.5703 0.1672476 0.9859002 0.005391543 192 192 192 255 0.224728 0.682243
126.791 -1.320593 461.2969 0.02369767 0.9993502 0.02715629 192 192 192 255 0.08928 0.556507
5.586914 -0.008545 49.19531 0.1489149 0.9871922 -0.05723725 192 192 192 255 0.007936 0.966622
312.8457 2.370856 369.0322 -0.04878184 0.9987751 0.008286366 192 192 192 255 0.147913 0.820916
113.3887 1.291872 386.0723 0.07513614 0.996984 -0.01942695 192 192 192 255 0.084131 0.585456
167.8486 -1.828668 87.14941 -0.04069438 0.9935375 0.1059583 192 192 192 255 0.105055 0.700492
102.5371 -22.80277 499.834 0.0004491579 -0.7464766 0.6654116 192 192 192 255 0.079962 0.541676
284.8018 -3.206822 185.5186 0.0492973 0.9828808 0.177525 192 192 192 255 0.149988 0.662636
386.1641 1.295736 447.4756 -0.0717285 0.995267 0.06556414 192 192 192 255 0.181314 0.78518
51.19824 1.104183 50.9082 -0.0542888 0.9947641 -0.08658548 192 192 192 255 0.060238 0.714439
372.5322 -2.212035 182.5869 0.005209183 0.9986839 -0.05102436 192 192 192 255 0.183694 0.663764
407.4678 1.284751 388.6523 -0.06893034 0.9932675 -0.09310404 192 192 192 255 0.197116 0.584463
436.3252 -0.559422 9.006836 -0.02092537 0.9637819 0.2658698 192 192 192 255 0.204166 0.98493
264.4385 -1.200837 490.7812 0.07718866 0.9811665 0.177071 192 192 192 255 0.142165 0.54516
253.4707 -1.32218 312.377 -0.0007772267 0.9975521 0.06992365 192 192 192 255 0.137951 0.613817
26.35449 -1.408315 144.4414 -0.1306099 0.9914337 0.0004025862 192 192 192 255 0.050693 0.678444
336.4697 -3.98414 11.35156 0.05720324 0.9837605 -0.170127 192 192 192 255 0.169839 0.729662
406.9688 -1.317427 125.1182 0.01936748 0.9998032 0.00430663 192 192 192 255 0.196925 0.68588
226.3027 0.171666 445.7744 0.08148684 0.8999525 0.4283053 192 192 192 255 0.108487 0.785955
0.198242 -21.50688 500.0068 -0.6058964 -0.5201186 0.6019686 192 192 192 255 0.040644 0.54161
0.182617 -1.503577 500.0078 -0.6399655 0.4636465 0.612761 192 192 192 255 0.040638 0.54161
372.2949 -1.323194 461.5264 -0.02203056 0.9994751 0.02375573 192 192 192 255 0.183603 0.556419
397.7842 -3.919904 14.45215 -0.02709388 0.9995772 -0.01055321 192 192 192 255 0.193396 0.728469
473.3213 -1.327938 120.3047 0.1181308 0.9929798 0.00601994 192 192 192 255 0.222417 0.687733
351.3623 -7.701982 2.495117 -0.004430555 0.6623019 -0.749224 192 192 192 255 0.175561 0.73307
372.2715 -1.320787 37.19336 -0.0225207 0.9994227 -0.02543823 192 192 192 255 0.183594 0.719717
25.96484 -1.559291 474.1426 -0.1036329 0.9888669 0.1067824 192 192 192 255 0.050543 0.551563
20.07715 -3.050329 289.4668 -0.1415126 0.9899289 -0.003879205 192 192 192 255 0.048281 0.622633
250.3477 1.276082 204.1182 0.04798083 0.9897414 -0.1345727 192 192 192 255 0.119441 0.896044
56.80273 -0.055568 176.6523 -0.07694619 0.9855539 -0.150874 192 192 192 255 0.031268 0.908557
348.5723 0.046144 492.1064 -0.2277236 0.9318437 -0.2825054 192 192 192 255 0.164188 0.764848
484.4658 -0.110876 499.6113 0.07081246 0.7054532 0.7052101 192 192 192 255 0.226097 0.761429
385.7354 2.288819 208.459 -0.1196539 0.9927191 -0.01385033 192 192 192 255 0.188767 0.653808
203.6494 1.209023 296.2822 -0.06192891 0.9967916 0.05070893 192 192 192 255 0.098167 0.854058
205.6445 1.299898 204.2373 -0.05089874 0.9965453 -0.06562625 192 192 192 255 0.099075 0.89599
190.1465 2.372096 111.4492 -0.04575099 0.9987333 -0.02094187 192 192 192 255 0.092015 0.938261
174.2695 -1.325281 180.7383 0.06271061 0.9972112 -0.04046422 192 192 192 255 0.107522 0.664476
348.8818 -22.73009 499.8389 -0.0004809218 -0.6982896 0.7158152 192 192 192 255 0.174608 0.541675
20.0127 -3.060383 479.9717 -0.02311071 0.9994533 0.02364423 192 192 192 255 0.048256 0.54932
14.84863 -3.071129 375.1035 0.2368518 0.9715453 -0.001018643 192 192 192 255 0.046272 0.589677
98.25879 -1.510139 154.4932 -0.04327051 0.9937506 -0.1028949 192 192 192 255 0.078318 0.674576
388.6172 1.321712 93.98047 -0.03433759 0.998786 0.03532004 192 192 192 255 0.189874 0.697863
461.1641 -1.321542 126.46 0.02015605 0.9995911 0.02028423 192 192 192 255 0.217746 0.685364
0.819336 -0.124137 205.9961 -0.6227031 0.7464049 0.2347779 192 192 192 255 0.040882 0.654756
52.36426 1.296266 386.0566 -0.06921769 0.995378 -0.06656998 192 192 192 255 0.060686 0.585462
499.9922 -10.52488 402.8271 0.9971497 0.063285 -0.04107931 192 192 192 255 0.232664 0.579008
113.8867 -2.095338 86.45312 0.1593702 0.9866031 -0.03486529 192 192 192 255 0.084323 0.70076
225.1543 0.05402 492.3018 0.02604466 0.9965423 -0.07889973 192 192 192 255 0.127072 0.544575
499.9424 -22.85261 14.95996 0.7118669 -0.7023116 -0.00198569 192 192 192 255 0.232645 0.728273
495.2412 -22.90054 4.056641 0.006664329 -0.9999018 -0.01233608 192 192 192 255 0.230839 0.732469
461.2793 -1.32433 36.60645 0.02620584 0.9992405 -0.02883795 192 192 192 255 0.217791 0.719943
317.5596 2.367591 413.332 -0.005417265 0.999953 -0.008047031 192 192 192 255 0.15006 0.800735
4.78418 -22.90052 3.957031 -0.1356119 -0.9830953 -0.1230168 192 192 192 255 0.042406 0.732508
-0.019531 -21.52241 1.753906 -0.666576 -0.5432588 -0.5104375 192 192 192 255 0.04056 0.733356
448.001 1.197144 386.6504 0.07592442 0.9947133 -0.06914443 192 192 192 255 0.209485 0.81289
321.7168 -1.3247 35.37207 0.003598966 0.9999866 -0.003738303 192 192 192 255 0.164171 0.720418
188.3975 -1.320115 263.3604 -0.08342439 0.9965141 0.0003814143 192 192 192 255 0.11295 0.63268
221.459 -1.348876 462.7637 0.01933723 0.9984132 0.05288836 192 192 192 255 0.125652 0.555942
447.9678 1.208725 50.56641 0.0713903 0.9951492 -0.06768713 192 192 192 255 0.212677 0.714571
395.6592 1.288608 402.9629 -0.08212736 0.9950672 -0.05564426 192 192 192 255 0.19258 0.578956
-0.006836 -18.88976 269.8447 -0.9998337 -0.01793207 0.003319532 192 192 192 255 0.040565 0.630185
39.78027 -1.242562 124.6094 -0.02952511 0.9992052 0.02678258 192 192 192 255 0.055851 0.686076
162.8906 2.372996 305.8438 0.09461664 0.9950439 0.03058243 192 192 192 255 0.10315 0.616331
487.9951 -0.151497 490.585 -0.00776153 0.9877908 -0.155593 192 192 192 255 0.228055 0.545236
303.4102 -0.915062 40.75586 0.02912423 0.9989746 -0.03466282 192 192 192 255 0.157137 0.718346
240.376 2.363039 48.62305 -0.001855784 0.9915923 -0.1293878 192 192 192 255 0.114898 0.966882
0.430664 -0.099538 81.98145 -0.7008855 0.7132702 0.002249589 192 192 192 255 0.040733 0.702481
496.2236 -2.916976 93.27148 0.5304599 0.8477098 0.0005254815 192 192 192 255 0.231216 0.698136
124.8242 -2.805849 87.26465 -0.07517918 0.997019 0.01735772 192 192 192 255 0.088525 0.700448
154.8672 -0.996371 120.6045 -0.08239469 0.9965829 -0.005806238 192 192 192 255 0.100067 0.687618
423.0703 -22.73066 499.8203 0.001940726 -0.6893359 0.7244393 192 192 192 255 0.203111 0.541682
2.214844 0.049698 497.542 -0.3352681 0.9289348 0.1570844 192 192 192 255 0.0064 0.762372
171.8125 -2.998842 486.1904 -0.001021898 0.9748235 -0.2229754 192 192 192 255 0.106578 0.546927
311.4473 -1.296227 453.4678 0.008634138 0.9968008 0.0794586 192 192 192 255 0.160225 0.55952
53.25293 1.300791 111.377 -0.06904513 0.9950927 0.07087562 192 192 192 255 0.061027 0.691169
394.1406 2.126147 156.9912 -0.01203167 0.9912507 -0.1314434 192 192 192 255 0.191996 0.673615
357.2246 -1.320527 104.8613 0.07371504 0.997278 -0.001633049 192 192 192 255 0.177813 0.693676
268.7705 -7.19056 498.9814 -0.04509935 0.3920597 0.9188337 192 192 192 255 0.143829 0.542005
85.38965 2.344644 317.7148 0.03382112 0.9959041 0.0838524 192 192 192 255 0.044292 0.844294
385.7998 1.201306 50.6377 -0.06982691 0.9950986 -0.07002208 192 192 192 255 0.188792 0.714543
192.6396 -2.951755 13.25977 -3.507639e-05 0.9515662 0.3074439 192 192 192 255 0.114579 0.728928
296.6074 -1.316645 472.2168 -0.004886037 0.9943721 0.1058313 192 192 192 255 0.154524 0.552305
500.0068 -22.76182 499.7461 0.5912152 -0.5502999 0.5896055 192 192 192 255 0.23267 0.54171
134.627 -1.322659 103.9219 -0.03677519 0.9992443 -0.01258915 192 192 192 255 0.092291 0.694038
246.2412 -2.935792 499.1689 0.05447619 0.611093 0.7896821 192 192 192 255 0.135173 0.541932
499.9971 -9.652542 375.8564 0.9951446 0.08696106 0.04609713 192 192 192 255 0.232666 0.589387
365.7256 2.369044 222.667 0.02056582 0.9990539 -0.03831974 192 192 192 255 0.172003 0.887594
25.93652 -1.507549 282.3672 -0.162274 0.9867458 0.000142356 192 192 192 255 0.050532 0.625365
37.98047 -1.322851 36.97656 -0.02032719 0.9995806 -0.02062683 192 192 192 255 0.055159 0.7198
103.5889 -1.062348 415.6543 0.5900829 0.7907183 -0.1629933 192 192 192 255 0.080366 0.574072
53.25293 1.300791 111.377 -0.06904513 0.9950927 0.07087562 192 192 192 255 0.029651 0.938294
203.6494 1.209023 296.2822 -0.06192891 0.9967916 0.05070893 192 192 192 255 0.118809 0.62001
309.7021 2.389079 160.8232 0.1083575 0.9854122 0.1312307 192 192 192 255 0.159555 0.67214
194.1943 2.373298 162.3828 -0.05746948 0.9863601 0.1542439 192 192 192 255 0.115177 0.67154
162.9316 2.373856 192.8574 0.1511994 0.9869131 -0.05604711 192 192 192 255 0.103166 0.659812
451.5518 2.374038 192.8721 0.1524456 0.9865347 -0.05924204 192 192 192 255 0.214054 0.659806
54.04102 1.300123 447.2695 -0.03868607 0.9982945 0.04372059 192 192 192 255 0.03001 0.785274
386.1641 1.295736 447.4756 -0.0717285 0.995267 0.06556414 192 192 192 255 0.188931 0.561826
394.2803 2.376995 339.5967 -0.0007239929 0.986755 0.1622166 192 192 192 255 0.19205 0.603342
448.001 1.197144 386.6504 0.07592442 0.9947133 -0.06914443 192 192 192 255 0.212689 0.585234
338.3379 2.376006 306.7178 -0.147414 0.9856762 0.08192424 192 192 192 255 0.170557 0.615994
432.5654 -0.142796 0.102539 -0.04341277 0.7248999 -0.6874849 192 192 192 255 0.202453 0.988986
499.8428 -0.061293 0.134766 0.5744289 0.5800807 -0.5775273 192 192 192 255 0.233102 0.988972
336.6973 2.253811 191.5498 -0.1163881 0.9899241 -0.08064789 192 192 192 255 0.158778 0.90177
403.1387 2.37717 165.1104 -0.01848081 0.9993411 -0.03123932 192 192 192 255 0.195453 0.67049
8.358398 0.045141 491.8848 0.06395685 0.9958002 -0.06551019 192 192 192 255 0.009199 0.764949
225.1543 0.05402 492.3018 0.02604466 0.9965423 -0.07889973 192 192 192 255 0.107963 0.764759
97.25586 1.293204 394.6582 0.04863446 0.9983191 0.03152297 192 192 192 255 0.077933 0.582152
106.3857 1.294 429.4824 0.1062048 0.9911662 -0.07943705 192 192 192 255 0.081441 0.56875
447.4004 1.295488 447.5312 0.08644652 0.9916583 0.09560836 192 192 192 255 0.212458 0.561804
416.5479 2.390866 326.1621 0.09986389 0.9910566 0.08851004 192 192 192 255 0.195156 0.840446
487.9951 -0.151497 490.585 -0.00776153 0.9877908 -0.155593 192 192 192 255 0.227705 0.765541
320.6396 2.380502 84.28809 0.009900173 0.9957897 -0.09113123 192 192 192 255 0.151463 0.950635
436.3252 -0.559422 9.006836 -0.02092537 0.9637819 0.2658698 192 192 192 255 0.208203 0.730564
0.430664 -0.099538 81.98145 -0.7008855 0.7132702 0.002249589 192 192 192 255 0.005587 0.951686
395.6592 1.288608 402.9629 -0.08212736 0.9950672 -0.05564426 192 192 192 255 0.185639 0.805458
170.1172 2.264123 125.2949 -0.1481589 0.988749 0.02060181 192 192 192 255 0.08289 0.931953
222.2236 2.373183 345.2998 -0.05664471 0.9934723 -0.09901549 192 192 192 255 0.125946 0.601147
187.79 1.924902 357.8477 -0.071525 0.9908461 -0.1144909 192 192 192 255 0.112716 0.596318
205.6445 1.299898 204.2373 -0.05089874 0.9965453 -0.06562625 192 192 192 255 0.119576 0.655433
49.82324 2.376241 306.8086 -0.1368268 0.9887341 0.0606918 192 192 192 255 0.059709 0.61596
160.0742 2.376459 393.8984 -0.1544006 0.9873446 -0.03620996 192 192 192 255 0.102068 0.582444
52.36426 1.296266 386.0566 -0.06921769 0.995378 -0.06656998 192 192 192 255 0.029246 0.81316
113.3887 1.291872 386.0723 0.07513614 0.996984 -0.01942695 192 192 192 255 0.057047 0.813153
113.6494 1.21118 112.6885 0.1178593 0.9918848 0.04768401 192 192 192 255 0.084231 0.690664
447.9678 1.208725 50.56641 0.0713903 0.9951492 -0.06768713 192 192 192 255 0.209469 0.965997
385.7998 1.201306 50.6377 -0.06982691 0.9950986 -0.07002208 192 192 192 255 0.181148 0.965965
388.6172 1.321712 93.98047 -0.03433759 0.998786 0.03532004 192 192 192 255 0.182431 0.946219
56.80273 -0.055568 176.6523 -0.07694619 0.9855539 -0.150874 192 192 192 255 0.062391 0.666048
47.73145 2.142694 191.4092 -0.1546976 0.9854038 -0.07105026 192 192 192 255 0.058906 0.660369
277.5039 1.296953 216.7939 0.05986566 0.9955434 -0.0728659 192 192 192 255 0.147184 0.6506
85.38965 2.344644 317.7148 0.03382112 0.9959041 0.0838524 192 192 192 255 0.073374 0.611762
447.5566 1.251269 93.87695 0.06833535 0.9975439 0.01537988 192 192 192 255 0.209282 0.946266
409.8926 1.292565 77.24316 0.005810749 0.9993787 0.03476289 192 192 192 255 0.198048 0.704304
296.5459 1.179727 296.4609 0.03198449 0.9980923 0.05280884 192 192 192 255 0.140487 0.853977
342.2588 2.146484 105.1963 0.1554832 0.9878297 -0.004175603 192 192 192 255 0.161312 0.94111
416.8926 2.373173 304.8662 0.02327535 0.9994944 0.02166215 192 192 192 255 0.200737 0.616707
42.30957 -0.112633 0.082031 -0.07161371 0.7456647 -0.6624619 192 192 192 255 0.024666 0.988996
53.01953 -0.165427 9.476563 -0.01619921 0.9445094 0.3280848 192 192 192 255 0.029545 0.984716
289.4053 -0.108681 0.147461 0.02747348 0.7618301 -0.647194 192 192 192 255 0.137234 0.988966
341.002 2.369362 393.4883 0.164915 0.9862878 -0.0062795 192 192 192 255 0.16074 0.809775
307.833 2.241387 336.0117 0.07735325 0.9820157 -0.1722255 192 192 192 255 0.145629 0.835959
385.7354 2.288819 208.459 -0.1196539 0.9927191 -0.01385033 192 192 192 255 0.181119 0.894067
0.557617 -0.223223 295.1758 -0.6096231 0.7899052 -0.06640381 192 192 192 255 0.040782 0.620436
394.1406 2.126147 156.9912 -0.01203167 0.9912507 -0.1314434 192 192 192 255 0.184948 0.917514
86.97754 1.296237 59.22754 -0.007576192 0.9993764 -0.03448828 192 192 192 255 0.073984 0.711238
51.19824 1.104183 50.9082 -0.0542888 0.9947641 -0.08658548 192 192 192 255 0.028715 0.965841
288.8125 1.442892 74.41797 0.06797642 0.9956771 -0.06329522 192 192 192 255 0.136964 0.955131
243.9609 2.125713 335.7041 -0.01326786 0.9807218 -0.1949582 192 192 192 255 0.116531 0.836099
97.89844 1.295403 74.65527 0.06008735 0.9980914 0.01425085 192 192 192 255 0.07818 0.7053
266.2842 2.337417 48.75781 0.0271545 0.9934324 -0.1111518 192 192 192 255 0.142874 0.715267
2.214844 0.049698 497.542 -0.3352681 0.9289348 0.1570844 192 192 192 255 0.041418 0.542558
316.8457 2.36396 435.0459 0.08399715 0.9885373 0.1254532 192 192 192 255 0.149735 0.790843
301.4238 0.535943 78.46484 0.07952707 0.9906755 -0.1106232 192 192 192 255 0.142709 0.953288
451.9395 2.309096 262.7295 0.1657001 0.9860581 0.0152668 192 192 192 255 0.211279 0.869343
436.0811 2.333233 302.7891 0.08616351 0.9932252 0.07797193 192 192 192 255 0.204054 0.851094
365.7256 2.369044 222.667 0.02056582 0.9990539 -0.03831974 192 192 192 255 0.181079 0.64834
250.3477 1.276082 204.1182 0.04798083 0.9897414 -0.1345727 192 192 192 255 0.136751 0.655478
182.7217 2.375502 66.41309 -0.1057119 0.9931966 -0.04884161 192 192 192 255 0.110769 0.708472
311.6133 2.372849 100.543 -0.00609171 0.9997385 -0.02204262 192 192 192 255 0.160289 0.695338
488.6465 -0.132264 9.228516 -0.08561085 0.991243 0.1005392 192 192 192 255 0.228001 0.984829
499.9902 -0.260369 52.23828 0.6385431 0.7663375 0.07063859 192 192 192 255 0.233169 0.965235
113.0869 2.370825 164.0654 -0.01324062 0.9897704 -0.1420546 192 192 192 255 0.056909 0.914291
190.4863 2.085228 449.8779 -0.06408712 0.9887769 0.1349564 192 192 192 255 0.113752 0.560901
162.8906 2.372996 305.8438 0.09461664 0.9950439 0.03058243 192 192 192 255 0.079598 0.849702
0.629883 -0.059704 47.58203 -0.6341044 0.7646223 -0.1151715 192 192 192 255 0.040809 0.715719
144.5586 2.314266 318.0283 0.05428679 0.989414 0.1345842 192 192 192 255 0.096107 0.611642
113.3525 1.280171 50.97559 0.07445726 0.9960018 -0.04936072 192 192 192 255 0.084117 0.714413
240.376 2.363039 48.62305 -0.001855784 0.9915923 -0.1293878 192 192 192 255 0.13292 0.715319
81.06641 2.338761 181.2744 -0.03500532 0.9954504 -0.08861835 192 192 192 255 0.071713 0.66427
267.2402 2.325699 436.8926 0.007697792 0.9876029 0.1567842 192 192 192 255 0.143241 0.565899
226.3027 0.171666 445.7744 0.08148684 0.8999525 0.4283053 192 192 192 255 0.127513 0.562481
499.9424 -0.07632 337.5049 0.6980262 0.7154158 0.03065567 192 192 192 255 0.233147 0.835279
490.8467 -0.073154 174.2168 -0.309509 0.9508249 -0.01167064 192 192 192 255 0.229004 0.909666
490.7998 -0.102525 337.4609 -0.1518834 0.9881821 0.02067944 192 192 192 255 0.228982 0.835299
484.4658 -0.110876 499.6113 0.07081246 0.7054532 0.7052101 192 192 192 255 0.226699 0.541762
387.0498 2.373081 229.9883 -0.007979143 0.9998904 -0.01247367 192 192 192 255 0.189272 0.645523
257.0596 -0.139035 9.398438 0.001708215 0.9547794 0.2973101 192 192 192 255 0.122498 0.984752
5.586914 -0.008545 49.19531 0.1489149 0.9871922 -0.05723725 192 192 192 255 0.042714 0.715098
500.0186 -0.530758 413.6602 0.6338941 0.7700046 -0.07260321 192 192 192 255 0.233182 0.800585
490.5635 -0.253101 488.502 -0.02445954 0.9994301 -0.02326807 192 192 192 255 0.228875 0.76649
499.8447 0.013464 459.002 0.681154 0.7321231 0.004998281 192 192 192 255 0.233103 0.779929
9.567383 -0.230922 404.1328 0.2647299 0.9643219 0.00114743 192 192 192 255 0.044243 0.578506
348.5723 0.046144 492.1064 -0.2277236 0.9318437 -0.2825054 192 192 192 255 0.174489 0.54465
113.4141 1.275454 447.5771 0.0792127 0.9951574 0.0582002 192 192 192 255 0.057058 0.785134
190.1465 2.372096 111.4492 -0.04575099 0.9987333 -0.02094187 192 192 192 255 0.113622 0.691141
9.302734 -0.022585 206.4502 0.0806023 0.9918062 0.09911508 192 192 192 255 0.009629 0.894982
0.819336 -0.124137 205.9961 -0.6227031 0.7464049 0.2347779 192 192 192 255 0.005764 0.895189
77.14453 2.312234 324.0459 -0.01702688 0.9859914 0.1659255 192 192 192 255 0.040535 0.84141
219.3555 -0.106721 499.835 0.02644377 0.7044125 0.7092981 192 192 192 255 0.105322 0.761327
407.4678 1.284751 388.6523 -0.06893034 0.9932675 -0.09310404 192 192 192 255 0.191019 0.811978
499.9053 -0.113545 164.5566 0.6908561 0.7205506 -0.05936956 192 192 192 255 0.23313 0.914067
3 43 66 92 
3 264 261 8 
3 29 131 102 
3 264 8 48 
3 204 297 90 
3 8 182 48 
3 213 238 293 
3 152 180 0 
3 44 246 245 
3 145 199 256 
3 62 193 55 
3 209 105 111 
3 124 12 290 
3 300 286 221 
3 277 181 247 
3 241 159 114 
3 150 302 49 
3 212 192 76 
3 238 144 293 
3 303 110 268 
3 62 53 87 
3 85 5 89 
3 235 88 192 
3 78 304 305 
3 274 248 306 
3 92 18 295 
3 11 303 226 
3 29 24 131 
3 254 166 70 
3 88 307 56 
3 111 256 216 
3 23 308 80 
3 254 270 71 
3 43 92 208 
3 106 32 304 
3 88 287 307 
3 237 267 288 
3 43 267 237 
3 195 265 118 
3 62 87 193 
3 72 177 128 
3 125 282 294 
3 154 179 275 
3 266 220 19 
3 309 271 93 
3 34 310 162 
3 131 143 123 
3 310 63 162 
3 16 311 15 
3 6 106 50 
3 84 171 312 
3 240 246 44 
3 192 88 210 
3 170 142 122 
3 195 13 126 
3 68 1 187 
3 313 224 314 
3 171 63 312 
3 310 312 63 
3 68 136 37 
3 68 37 260 
3 12 114 22 
3 248 7 306 
3 253 291 6 
3 144 238 250 
3 295 75 248 
3 63 226 17 
3 209 111 21 
3 41 142 65 
3 6 237 288 
3 6 288 106 
3 24 143 131 
3 50 117 84 
3 315 123 298 
3 222 244 316 
3 77 148 120 
3 212 76 101 
3 201 61 134 
3 257 164 90 
3 42 190 191 
3 21 213 200 
3 200 213 293 
3 147 66 43 
3 138 239 227 
3 135 1 13 
3 212 235 192 
3 115 147 43 
3 171 40 63 
3 111 47 145 
3 235 254 88 
3 254 20 88 
3 284 4 259 
3 94 95 231 
3 151 283 206 
3 317 283 318 
3 156 188 169 
3 319 320 301 
3 321 309 233 
3 110 248 268 
3 78 110 109 
3 102 131 322 
3 132 101 42 
3 323 242 243 
3 85 89 324 
3 14 273 227 
3 300 227 273 
3 295 14 75 
3 234 67 325 
3 278 118 9 
3 214 186 326 
3 272 118 2 
3 233 170 122 
3 233 122 76 
3 162 63 170 
3 311 16 223 
3 266 327 220 
3 55 193 116 
3 192 15 76 
3 233 76 15 
3 192 137 16 
3 192 16 15 
3 108 281 305 
3 5 277 247 
3 247 328 5 
3 329 35 330 
3 183 184 17 
3 17 35 329 
3 66 18 92 
3 300 66 227 
3 25 212 161 
3 15 311 321 
3 248 209 183 
3 184 183 209 
3 111 216 146 
3 36 110 331 
3 331 110 303 
3 332 157 31 
3 12 22 290 
3 191 164 257 
3 51 302 150 
3 248 281 295 
3 78 248 110 
3 21 333 330 
3 235 262 254 
3 52 237 262 
3 70 20 254 
3 144 225 168 
3 144 250 284 
3 176 289 249 
3 168 225 289 
3 154 122 179 
3 125 176 282 
3 334 308 23 
3 335 334 23 
3 286 300 273 
3 273 336 286 
3 117 50 106 
3 279 112 204 
3 138 26 163 
3 43 79 267 
3 288 267 45 
3 32 288 45 
3 249 289 207 
3 229 6 20 
3 229 253 6 
3 337 338 27 
3 27 338 339 
3 67 10 325 
3 296 259 94 
3 340 83 341 
3 121 342 174 
3 178 227 83 
3 129 227 299 
3 137 185 223 
3 137 162 185 
3 192 210 28 
3 28 56 103 
3 47 157 145 
3 250 107 284 
3 343 197 139 
3 47 96 139 
3 138 66 26 
3 344 337 27 
3 71 345 98 
3 229 20 70 
3 161 212 156 
3 154 190 76 
3 44 245 346 
3 21 146 213 
3 347 324 89 
3 190 101 76 
3 103 153 28 
3 34 162 153 
3 153 348 34 
3 189 255 9 
3 117 106 40 
3 106 109 219 
3 219 109 36 
3 109 110 36 
3 67 234 140 
3 61 13 195 
3 269 200 293 
3 37 204 260 
3 279 37 113 
3 97 135 236 
3 297 257 90 
3 167 50 84 
3 349 350 351 
3 121 219 36 
3 179 144 168 
3 179 168 57 
3 280 14 295 
3 134 228 201 
3 67 140 38 
3 67 38 54 
3 173 57 176 
3 352 353 215 
3 24 354 143 
3 55 116 39 
3 55 39 194 
3 113 54 25 
3 299 239 250 
3 113 37 136 
3 60 355 30 
3 296 94 207 
3 143 298 123 
3 180 61 195 
3 42 191 257 
3 146 165 81 
3 204 82 297 
3 140 52 38 
3 38 52 262 
3 115 43 52 
3 174 342 59 
3 267 72 45 
3 45 72 128 
3 295 18 155 
3 177 100 130 
3 213 81 46 
3 356 24 29 
3 234 97 115 
3 42 257 297 
3 189 158 73 
3 96 47 111 
3 357 300 221 
3 51 358 302 
3 175 285 91 
3 178 83 340 
3 99 5 85 
3 203 99 359 
3 198 231 218 
3 111 146 21 
3 360 62 353 
3 280 336 14 
3 59 342 11 
3 75 14 252 
3 149 50 222 
3 6 50 20 
3 155 361 258 
3 209 248 274 
3 274 105 209 
3 352 215 263 
3 207 94 198 
3 184 209 35 
3 35 209 330 
3 276 177 72 
3 9 118 74 
3 276 79 362 
3 276 362 177 
3 94 363 95 
3 97 228 115 
3 97 236 228 
3 296 207 289 
3 54 38 235 
3 54 212 25 
3 39 364 263 
3 365 359 85 
3 133 194 215 
3 175 269 293 
3 177 362 100 
3 20 149 287 
3 20 50 149 
3 366 102 367 
3 167 84 368 
3 40 219 121 
3 36 369 342 
3 57 168 176 
3 62 55 133 
3 353 62 133 
3 133 55 194 
3 355 60 272 
3 205 161 169 
3 104 125 164 
3 164 125 294 
3 63 40 59 
3 92 202 370 
3 195 118 196 
3 39 116 364 
3 101 190 42 
3 236 13 61 
3 212 54 235 
3 105 96 111 
3 122 142 285 
3 222 167 244 
3 64 51 150 
3 177 371 128 
3 83 227 129 
3 99 277 5 
3 81 320 46 
3 90 164 294 
3 135 33 187 
3 135 187 1 
3 314 372 373 
3 314 224 372 
3 292 147 115 
3 226 183 17 
3 122 144 179 
3 165 319 301 
3 225 259 296 
3 374 114 12 
3 4 107 172 
3 222 50 167 
3 272 74 118 
3 375 200 269 
3 119 129 299 
3 145 299 238 
3 76 122 154 
3 103 348 153 
3 71 98 166 
3 132 188 101 
3 132 42 297 
3 119 299 157 
3 189 9 158 
3 12 124 376 
3 118 264 2 
3 261 260 90 
3 377 26 196 
3 303 183 226 
3 291 237 6 
3 378 343 139 
3 269 175 91 
3 234 115 140 
3 48 218 231 
3 198 218 182 
3 255 278 9 
3 41 91 285 
3 285 175 293 
3 18 300 379 
3 379 300 357 
3 116 193 230 
3 182 8 249 
3 63 11 226 
3 59 11 63 
3 95 232 231 
3 228 134 115 
3 293 144 122 
3 378 105 274 
3 105 139 96 
3 199 238 213 
3 345 253 141 
3 205 82 204 
3 112 161 205 
3 309 93 233 
3 81 165 301 
3 316 287 222 
3 82 132 297 
3 106 304 109 
3 208 92 380 
3 17 160 63 
3 77 160 148 
3 252 381 7 
3 180 127 0 
3 113 25 279 
3 75 7 248 
3 159 22 114 
3 46 199 213 
3 285 293 122 
3 32 106 288 
3 239 163 189 
3 265 264 118 
3 211 272 2 
3 233 15 321 
3 343 31 197 
3 144 284 259 
3 176 249 282 
3 184 35 17 
3 66 127 26 
3 178 340 252 
3 168 289 176 
3 379 361 155 
3 117 40 171 
3 250 172 107 
3 239 251 250 
3 14 178 252 
3 382 383 91 
3 92 295 202 
3 0 127 66 
3 202 217 370 
3 182 249 207 
3 104 86 275 
3 18 379 155 
3 384 385 386 
3 36 342 121 
3 66 300 18 
3 156 212 101 
3 104 387 125 
3 272 60 74 
3 261 90 8 
3 148 17 329 
3 60 73 158 
3 60 158 74 
3 254 262 270 
3 134 292 115 
3 292 58 152 
3 227 178 14 
3 106 219 40 
3 83 129 341 
3 179 57 173 
3 126 261 264 
3 215 194 263 
3 250 251 172 
3 157 197 31 
3 161 156 169 
3 275 387 104 
3 170 65 142 
3 161 112 279 
3 236 135 13 
3 68 260 1 
3 228 236 61 
3 203 277 99 
3 239 189 73 
3 82 188 132 
3 173 176 125 
3 211 2 48 
3 2 264 48 
3 232 211 231 
3 167 368 388 
3 40 121 174 
3 0 66 147 
3 0 147 292 
3 70 141 229 
3 287 149 222 
3 75 252 7 
3 166 98 70 
3 28 153 192 
3 330 209 21 
3 213 146 81 
3 210 88 56 
3 192 153 137 
3 195 126 3 
3 204 90 260 
3 269 91 383 
3 92 370 380 
3 351 350 389 
3 61 58 134 
3 160 17 148 
3 153 162 137 
3 390 189 163 
3 391 392 393 
3 105 378 139 
3 172 251 394 
3 172 394 4 
3 137 223 16 
3 353 133 215 
3 8 90 294 
3 194 39 263 
3 97 33 135 
3 33 97 234 
3 146 216 165 
3 267 79 276 
3 179 173 395 
3 119 157 332 
3 69 295 281 
3 63 77 170 
3 170 77 65 
3 65 77 120 
3 117 171 84 
3 197 157 47 
3 47 139 197 
3 8 282 249 
3 63 160 77 
3 94 231 198 
3 244 167 388 
3 396 80 308 
3 69 281 108 
3 187 33 234 
3 52 43 237 
3 225 296 289 
3 177 130 371 
3 397 69 108 
3 98 141 70 
3 292 134 58 
3 278 196 118 
3 29 102 366 
3 223 185 93 
3 207 198 182 
3 129 332 341 
3 332 129 119 
3 21 375 333 
3 200 375 21 
3 142 41 285 
3 201 228 61 
3 185 170 93 
3 229 141 253 
3 32 45 128 
3 268 183 303 
3 268 248 183 
3 79 208 362 
3 112 205 204 
3 0 292 152 
3 30 355 394 
3 239 60 30 
3 382 91 41 
3 214 326 398 
3 398 326 399 
3 67 54 10 
3 211 48 231 
3 26 377 390 
3 8 294 282 
3 185 162 170 
3 211 355 272 
3 363 355 211 
3 174 59 40 
3 290 22 400 
3 107 4 284 
3 304 78 109 
3 273 14 336 
3 187 234 325 
3 138 227 66 
3 252 340 381 
3 383 375 269 
3 136 10 54 
3 363 211 232 
3 164 86 104 
3 26 127 196 
3 25 161 279 
3 182 218 48 
3 38 262 235 
3 145 238 199 
3 138 163 239 
3 98 345 141 
3 352 263 364 
3 262 237 270 
3 190 154 86 
3 395 173 387 
3 387 173 125 
3 250 238 299 
3 73 60 239 
3 318 283 401 
3 397 217 69 
3 370 217 397 
3 20 287 88 
3 239 30 251 
3 30 394 251 
3 28 210 56 
3 402 327 266 
3 196 127 195 
3 81 301 320 
3 217 202 69 
3 254 71 166 
3 111 145 256 
3 158 9 74 
3 279 204 37 
3 43 208 79 
3 127 180 195 
3 202 295 69 
3 258 361 336 
3 36 331 369 
3 136 54 113 
3 154 275 86 
3 261 1 260 
3 93 170 233 
3 13 1 126 
3 126 1 261 
3 144 259 225 
3 265 3 264 
3 195 3 265 
3 157 299 145 
3 223 93 271 
3 208 380 362 
3 403 385 384 
3 191 190 86 
3 163 26 390 
3 206 283 317 
3 216 319 165 
3 267 276 72 
3 258 336 280 
3 78 281 248 
3 188 156 101 
3 179 395 275 
3 140 115 52 
3 237 291 270 
3 278 377 196 
3 280 155 258 
3 305 281 78 
3 363 232 95 
3 99 85 359 
3 295 155 280 
3 239 299 227 
3 3 126 264 
