ply
format ascii 1.0
comment VCGLIB generated
comment TextureFile Dungeons_2_Texture_01_A.png
element vertex 361
property float x
property float y
property float z
property float nx
property float ny
property float nz
property uchar red
property uchar green
property uchar blue
property uchar alpha
property float texture_u
property float texture_v
element face 500
property list uchar int vertex_indices
end_header
495.6006 -22.90052 495.2949 0.009114868 -0.9999244 0.008256625 192 192 192 255 0.230977 0.543423
3.870117 -22.90051 496.0781 -0.01105977 -0.9998797 0.01087804 192 192 192 255 0.042054 0.543122
175.8389 -3.355288 0 -0.0169746 0.04610221 -0.9987925 192 192 192 255 0.108125 0.73403
93.99316 3.41958 7.725586 0.04208776 0.9632398 -0.2653255 192 192 192 255 0.048211 0.985514
498.9756 0.372328 330.9355 0.6774298 0.7353778 -0.01756124 192 192 192 255 0.232274 0.606675
411.3262 3.363147 260.1318 -0.08580866 0.9818668 -0.1690399 192 192 192 255 0.192777 0.870527
30.18652 3.405969 225.7188 0.04863965 0.9941208 0.09673747 192 192 192 255 0.019143 0.886204
442.6338 3.391189 7.753906 -0.01100867 0.9665597 -0.2562055 192 192 192 255 0.207039 0.985501
240.7324 3.429809 492.4697 0.130241 0.9747288 0.181497 192 192 192 255 0.11506 0.764682
239.9688 3.435745 7.739258 0.1158307 0.9738985 -0.1952049 192 192 192 255 0.114712 0.985507
169.8516 2.982605 319.1494 -0.1944425 0.971209 0.1376415 192 192 192 255 0.105824 0.61121
491.2754 3.207283 492.4053 0.1225519 0.9745493 0.1877091 192 192 192 255 0.229315 0.544535
499.1621 0.245982 245.4873 0.7771146 0.6281979 0.03821417 192 192 192 255 0.232345 0.639558
446.4766 3.43561 201.2422 0.006890323 0.999551 0.02915983 192 192 192 255 0.212104 0.656585
-0.040039 -1.073019 168.624 -0.8387649 0.5418703 -0.05338618 192 192 192 255 0.040552 0.669138
491.0381 3.442778 240.3311 0.1375717 0.9826694 0.1242374 192 192 192 255 0.229224 0.641542
265.8975 3.211674 382.4395 0.1562383 0.9781231 0.1373488 192 192 192 255 0.142725 0.586854
237.8857 3.434071 306.8428 0.03451291 0.9993042 -0.01414316 192 192 192 255 0.353777 0.845392
398.9014 -2.353251 499.9941 -0.002653305 0.6083913 0.7936328 192 192 192 255 0.193825 0.541615
0.133789 -0.087858 114.957 -0.8813699 0.469009 0.05672438 192 192 192 255 0.040619 0.689791
493.0518 2.977648 372.3057 0.2773678 0.9605305 -0.02117126 192 192 192 255 0.229998 0.590754
450.6865 3.432209 355.0801 0.01876879 0.9994647 -0.02679745 192 192 192 255 0.210708 0.827272
51.07031 0.071263 0.391602 -0.01498231 0.604395 -0.796544 192 192 192 255 0.060189 0.73388
366.1758 3.395092 464.3076 0.1004099 0.9947309 0.02069786 192 192 192 255 0.172208 0.777512
472.374 0.413414 336.8164 0.045078 0.9989198 -0.01127434 192 192 192 255 0.222053 0.604411
114.2227 1.080421 9.109375 0.137291 0.9291024 -0.343395 192 192 192 255 0.084452 0.730525
47.04395 2.332082 119.4844 -0.06052561 0.9979873 0.01892159 192 192 192 255 0.058642 0.688049
383.5244 1.07255 202.0264 -0.04084848 0.9987521 0.02873535 192 192 192 255 0.187917 0.656283
362.4922 3.434209 55.60156 0.01677077 0.9993324 -0.03245662 192 192 192 255 0.17053 0.963703
141.4824 3.384583 478.1973 -0.0009027059 0.9994515 0.03310448 192 192 192 255 0.094925 0.550003
458.5889 0.118277 250.0361 -0.03667127 0.992692 -0.1149689 192 192 192 255 0.216757 0.637808
447.708 -0.543603 237.8701 -0.002170169 0.9982297 0.05943649 192 192 192 255 0.212577 0.64249
286.1436 3.436381 457.457 -0.01436213 0.9998918 -0.003193758 192 192 192 255 0.135748 0.780633
463.8594 3.390576 227.2607 -0.1073623 0.9931188 0.04678079 192 192 192 255 0.218782 0.646572
335.5391 0.716369 306.4873 -0.003822003 0.9973134 0.07315402 192 192 192 255 0.169481 0.616083
298.6006 1.625274 315.2402 -0.0255255 0.999674 -0.0006175449 192 192 192 255 0.381437 0.841566
147.7178 1.203882 461.9697 0.007353597 0.9990976 0.04183217 192 192 192 255 0.072686 0.778577
260.8623 3.222812 492.3936 -0.08025284 0.9809545 0.1768835 192 192 192 255 0.140791 0.54454
444.1016 3.435338 340.0518 0.03401825 0.9994171 0.002888658 192 192 192 255 0.207708 0.834118
185.4688 2.531333 111.7412 0.05043189 0.9964175 0.06788863 192 192 192 255 0.089884 0.938128
492.8467 3.094648 8.557617 0.228772 0.9572558 -0.176988 192 192 192 255 0.229915 0.985135
252.1729 3.42692 331.9893 0.05462279 0.9984836 0.00684998 192 192 192 255 0.360286 0.833936
244.3379 3.43465 344.1172 0.01082697 0.9999331 -0.004074561 192 192 192 255 0.356717 0.828411
395.2773 3.434659 460.0518 -0.02878789 0.9991651 0.02898995 192 192 192 255 0.185465 0.779451
295.1357 1.973753 299.0918 -0.0220587 0.9976647 0.0646409 192 192 192 255 0.379858 0.848922
389.7344 3.399997 217.8184 -0.1281952 0.9913737 0.02728037 192 192 192 255 0.190303 0.650206
355.0498 3.436264 291.4688 0.1010632 0.9860179 0.1324947 192 192 192 255 0.176977 0.621863
342.2676 3.461583 331.4033 -0.124851 0.9836665 -0.1296629 192 192 192 255 0.161316 0.838058
275.0283 3.449233 398.4365 -0.1224341 0.9883841 -0.09003836 192 192 192 255 0.146233 0.580698
270.0146 3.434069 438.1025 -0.09250457 0.9955899 0.01561091 192 192 192 255 0.1284 0.78945
137.6094 -0.125418 295.6846 -0.05808814 0.9978083 0.03169338 192 192 192 255 0.093437 0.62024
408.458 3.433311 476.7764 -0.03362037 0.9949728 0.09433376 192 192 192 255 0.19147 0.771832
96.74609 -0.372569 1.246094 0.08954002 0.5649447 -0.8202561 192 192 192 255 0.077737 0.733551
125.123 -0.163275 300.6309 0.09219238 0.9911939 -0.09505399 192 192 192 255 0.08864 0.618337
144.4102 3.183124 273.1221 -0.05095625 0.9940695 0.09606891 192 192 192 255 0.09605 0.628923
500.0205 -20.98716 423.6807 0.9991323 -0.04155984 0.00273008 192 192 192 255 0.232675 0.570983
434.0693 3.41361 228.8594 0.08710242 0.9902464 0.1087438 192 192 192 255 0.207337 0.645957
157.2344 2.678581 477.3955 -0.001865709 0.9999818 0.005749895 192 192 192 255 0.077021 0.77155
74.59961 3.435525 114.5146 -0.0110845 0.9999361 0.002219414 192 192 192 255 0.039376 0.936865
163.5098 3.435948 112.4297 0.01394048 0.9998989 0.002830189 192 192 192 255 0.07988 0.937814
227.0557 3.429971 77.77637 0.01481434 0.9983484 0.05550786 192 192 192 255 0.10883 0.953601
477.5801 3.395428 303.0742 0.08215149 0.9957203 0.04233576 192 192 192 255 0.22296 0.850964
161.9951 0.501822 319.0293 -0.06175143 0.9975935 -0.03152649 192 192 192 255 0.102806 0.611257
39.40039 3.436244 88.03418 -0.01253874 0.999531 0.02794074 192 192 192 255 0.02334 0.948928
417.4824 -0.953875 500.0186 -0.04985286 0.6175457 0.7849536 192 192 192 255 0.200964 0.541605
301.9492 3.379214 110.6123 -0.02680915 0.9992512 0.02789877 192 192 192 255 0.142948 0.938642
129.2422 3.433209 261.5703 -0.04366846 0.995988 0.07810879 192 192 192 255 0.304283 0.866016
249.0225 0.401365 2.219727 -0.00407585 0.9877144 -0.1562167 192 192 192 255 0.136242 0.733176
102.1016 2.968263 248.4854 -0.1795563 0.983548 -0.01982161 192 192 192 255 0.079795 0.638404
322.7676 -2.126766 -0.019531 0.04179896 0.489778 -0.8708447 192 192 192 255 0.164575 0.734038
421.1309 -1.27301 0.003906 -0.03594241 0.5626848 -0.8258898 192 192 192 255 0.202366 0.734029
6.80957 1.821091 164.6475 -0.3589298 0.9157411 -0.1805206 192 192 192 255 0.008493 0.914026
106.1514 1.892457 291.3721 0.1562117 0.9854463 -0.06703296 192 192 192 255 0.081351 0.6219
500.0254 -1.355979 383.0801 0.8732445 0.487278 0.002040503 192 192 192 255 0.232677 0.586608
214.2998 0.644794 371.002 -0.0629339 0.9964637 0.05567329 192 192 192 255 0.122901 0.591256
491.5449 3.470661 483.7314 0.2125964 0.9771158 0.006896483 192 192 192 255 0.229322 0.768663
397.6279 -2.381853 0.25293 -0.04471046 0.6704719 -0.7405865 192 192 192 255 0.193336 0.733933
173.3516 -0.049235 0.280273 -0.05965585 0.5371442 -0.8413782 192 192 192 255 0.107169 0.733923
276.2861 1.906066 317.7344 0.02162528 0.9994949 -0.02329142 192 192 192 255 0.371271 0.84043
265.6562 2.184387 335.2061 0.0407484 0.9986448 -0.03237405 192 192 192 255 0.366429 0.83247
377.3271 3.427997 56.02832 -0.0130143 0.9992349 -0.03688345 192 192 192 255 0.177288 0.963509
490.3926 3.43637 79.37988 0.06211046 0.9980691 -0.0005849093 192 192 192 255 0.228797 0.952871
316.002 3.4137 7.777344 0.03146593 0.9538427 -0.2986538 192 192 192 255 0.161975 0.731037
365.7266 -4.935206 0.016602 0.007876842 0.560741 -0.8279538 192 192 192 255 0.181079 0.734024
-0.058594 -1.118111 498.1982 -0.9983847 0.02357325 0.05169592 192 192 192 255 0.040545 0.542306
240.2061 3.38567 65.85449 0.1505686 0.9885007 0.01397917 192 192 192 255 0.132854 0.708687
34.9873 0.143245 250.082 -0.01011203 0.987014 -0.1603156 192 192 192 255 0.05401 0.63779
323.1885 1.564043 139.3164 -0.1370232 0.9859988 0.09503148 192 192 192 255 0.152624 0.925566
204.0459 0.525193 134.9551 0.07799581 0.9945223 0.06958468 192 192 192 255 0.118962 0.682095
261.2471 3.447376 89.5127 -0.119288 0.9906191 0.06666533 192 192 192 255 0.124406 0.948255
310.8545 3.436364 489.8799 0.02740561 0.9736634 0.2263373 192 192 192 255 0.159998 0.545507
285.1143 0.674115 347.0684 0.1324097 0.989589 0.05640408 192 192 192 255 0.150108 0.600466
461.8086 3.433537 205.3164 -0.01987375 0.9994591 0.02620134 192 192 192 255 0.217994 0.655017
258.2334 2.424774 310.3213 0.06442668 0.9953957 -0.07096854 192 192 192 255 0.363047 0.843807
211.3145 3.221734 493.2959 -0.05799664 0.9606761 0.2715472 192 192 192 255 0.101658 0.764306
253.3887 0.206397 0.705078 -0.02710467 0.6690525 -0.7427207 192 192 192 255 0.137919 0.733759
68.87305 -21.33073 -0.03125 -0.001697328 -0.5508715 -0.8345884 192 192 192 255 0.067028 0.734042
320.3896 2.418607 311.959 0.0527531 0.9982443 -0.02693381 192 192 192 255 0.163661 0.613977
499.8281 -22.79886 499.8564 0.5868161 -0.5647662 0.5802466 192 192 192 255 0.232601 0.541668
132.7373 -0.034725 499.7764 0.003096408 0.6542346 0.7562854 192 192 192 255 0.091565 0.541699
47.99316 1.62215 227.3555 -0.0538916 0.9951267 0.08257466 192 192 192 255 0.059006 0.646536
215.0645 1.07279 98.7168 0.04866255 0.9952493 0.08432601 192 192 192 255 0.123195 0.696041
265.9326 1.709655 288.3838 -0.05155047 0.9779063 0.2025877 192 192 192 255 0.366555 0.853801
136.7363 2.759547 456.2646 0.05455587 0.9975209 0.04444857 192 192 192 255 0.067683 0.781176
0.15918 -22.75467 131.1445 -0.7399189 -0.6726826 0.004265555 192 192 192 255 0.040629 0.683561
311.3604 2.102605 307.1699 -0.01101444 0.9992794 0.0363227 192 192 192 255 0.160192 0.61582
0.088867 -22.78953 499.8916 -0.5782578 -0.5730979 0.5806693 192 192 192 255 0.040602 0.541654
158.3066 -1.264341 1.842773 -0.1746812 0.6586235 -0.7319165 192 192 192 255 0.101389 0.733321
499.374 0.208908 254.1016 0.8809657 0.4687776 -0.0643986 192 192 192 255 0.232427 0.636243
9.436523 3.431041 168.5156 -0.2254819 0.9719239 -0.06724471 192 192 192 255 0.044193 0.66918
495.4307 -22.90052 4.952148 0.1441442 -0.989431 0.0157716 192 192 192 255 0.230912 0.732125
334.7051 -0.186386 325.748 -0.08352941 0.9914728 -0.1000231 192 192 192 255 0.169161 0.608671
499.9375 -1.136828 292.1387 0.8032374 0.5947645 0.03263466 192 192 192 255 0.232643 0.621605
8.956055 0.811829 112.4092 -0.0765017 0.9922275 0.09814323 192 192 192 255 0.044008 0.690771
258.6299 -22.81811 0.12207 -8.946312e-08 -0.7026069 -0.7115783 192 192 192 255 0.139933 0.733983
131.1934 -0.443515 281.7559 -0.0761838 0.9934531 0.08512939 192 192 192 255 0.090972 0.625601
289.4072 0.214799 370.1309 -0.05958946 0.9931684 -0.1003278 192 192 192 255 0.151758 0.591591
234.3389 0.515933 103.5947 0.00384657 0.9999515 0.009065345 192 192 192 255 0.1306 0.694163
290.4082 1.527724 331.04 0.06523762 0.9967721 0.04679354 192 192 192 255 0.152142 0.606634
0.023438 -0.063452 499.1045 -0.8057887 0.5682076 0.1668678 192 192 192 255 0.040576 0.541957
6.916016 3.155966 240.3398 -0.1447921 0.9806 0.1321322 192 192 192 255 0.043225 0.641539
7.007813 3.218009 258.4336 -0.1754338 0.971291 -0.1606762 192 192 192 255 0.008584 0.8713
187.3486 -1.165722 500.0527 0.01049599 0.5919147 0.8059323 192 192 192 255 0.112547 0.541592
419.3604 -3.776046 0.00293 -0.0041665 0.003497893 -0.9999852 192 192 192 255 0.201686 0.734029
9.790039 -0.6857 136.0332 -0.1695468 0.9855137 0.004075196 192 192 192 255 0.044329 0.68168
377.3037 1.233769 477.0859 0.005287262 0.9983101 0.05787161 192 192 192 255 0.177277 0.771691
249.085 0.434335 441.4502 0.1072416 0.9941697 -0.01122177 192 192 192 255 0.136266 0.564145
318.0498 0.204016 341.3379 -0.09942064 0.9921089 -0.07639048 192 192 192 255 0.162762 0.602671
167.292 3.425472 300.9814 -0.086937 0.9957873 0.02914656 192 192 192 255 0.321617 0.848062
23.34082 3.376858 153.8623 -0.1016194 0.9909284 -0.08794545 192 192 192 255 0.016024 0.918939
145.0703 3.433876 330.4834 0.0071659 0.9975281 -0.06990232 192 192 192 255 0.096303 0.606849
409.2461 0.280781 250.1445 0.01141823 0.9985214 -0.05314706 192 192 192 255 0.1978 0.637766
9.052734 3.428533 88.92383 -0.1734295 0.983839 0.04453041 192 192 192 255 0.009515 0.948523
376.8203 0.523436 491.7061 0.01850612 0.9942559 0.105417 192 192 192 255 0.185342 0.544804
491.6074 1.597196 290.9541 0.2460493 0.9680778 0.0478032 192 192 192 255 0.22935 0.856485
249.75 0.099798 408.8516 0.07317805 0.9972886 0.00777799 192 192 192 255 0.136521 0.57669
88.42383 3.328727 240.8047 0.08186116 0.9799794 0.1814915 192 192 192 255 0.045674 0.879332
159.1719 3.432603 249.8262 -0.003718061 0.9999928 -0.0008082634 192 192 192 255 0.317918 0.871366
391.1172 3.434966 179.457 -0.009350672 0.9990626 0.04226815 192 192 192 255 0.18357 0.907279
334.4912 2.763412 151.2822 -0.07225243 0.9968608 0.0323757 192 192 192 255 0.169079 0.675812
266.9346 3.433808 478.7822 -0.06767005 0.9976959 -0.004866674 192 192 192 255 0.126997 0.770918
249.1143 0.611716 94.05371 -0.04932655 0.9986902 -0.01359247 192 192 192 255 0.136277 0.697835
474.4814 3.433383 375.3281 0.01233848 0.9999186 -0.00324861 192 192 192 255 0.221548 0.818048
107.2471 -0.998907 2.957031 0.1100039 0.6438534 -0.7572002 192 192 192 255 0.081772 0.732892
115.9453 0.421029 273.7158 0.05630967 0.9973765 0.04549138 192 192 192 255 0.085114 0.628695
370.9844 2.836164 185.9092 -0.002688083 0.9958834 0.09060425 192 192 192 255 0.1831 0.662486
101.3057 -11.24527 0.022461 0.02787549 0.0948528 -0.995101 192 192 192 255 0.079489 0.734022
7.295898 3.356693 373.2881 -0.2195246 0.9756069 -0.0002350879 192 192 192 255 0.008715 0.818977
128.0488 3.435996 320.5479 0.05898048 0.993986 -0.09226707 192 192 192 255 0.063726 0.843004
54.63574 0.743672 247.8916 -0.05723814 0.9976317 0.03814067 192 192 192 255 0.030281 0.876103
193.7646 3.292291 135.5947 0.1476559 0.985554 0.08295217 192 192 192 255 0.093663 0.927261
257.5029 2.564779 455.7832 -0.1201227 0.9915804 -0.04836226 192 192 192 255 0.1395 0.558629
41.75293 2.218537 138.6084 -0.07194031 0.9935755 -0.08736356 192 192 192 255 0.056609 0.680689
487.3203 1.825323 347.5127 0.04276141 0.9988347 -0.02237416 192 192 192 255 0.227796 0.600295
0.092773 -0.071914 251.71 -0.7260772 0.6871535 -0.02514259 192 192 192 255 0.040603 0.637163
268.6768 3.429326 352.7246 0.07792389 0.9969324 -0.007331714 192 192 192 255 0.367805 0.824489
348.293 3.430092 176.7549 -0.09747015 0.9911566 0.09004556 192 192 192 255 0.174381 0.666009
33.56738 0.29766 239.3936 0.03200906 0.9934957 0.1092787 192 192 192 255 0.053464 0.641903
497.4854 0.155486 249.8271 0.07525868 0.9971635 0.001014135 192 192 192 255 0.231701 0.637888
364.0693 -0.365825 14.21289 0.04542303 0.981244 -0.187342 192 192 192 255 0.180443 0.728561
259.9209 1.161115 300.5986 0.04260915 0.9988233 -0.02316393 192 192 192 255 0.363816 0.848236
248.916 0.02299 499.7744 0.01334668 0.710346 0.703726 192 192 192 255 0.136201 0.541699
325.0273 3.434702 130.5225 -0.08087972 0.993772 0.07665311 192 192 192 255 0.153462 0.929572
490.2607 0.879668 312.5127 0.2449547 0.9693725 0.01772258 192 192 192 255 0.228925 0.613764
499.252 0.017749 499.6934 0.6067856 0.5045451 0.6142031 192 192 192 255 0.23238 0.541731
499.8984 -22.81976 178.9141 0.7219777 -0.6919156 0.001050405 192 192 192 255 0.232628 0.665178
342.0723 3.280227 484.5664 0.02189632 0.9857814 0.1666 192 192 192 255 0.161227 0.768283
3.974609 -22.90061 3.795898 0.004136578 -0.9998596 -0.01623584 192 192 192 255 0.042094 0.73257
143.957 -21.32718 -0.012695 -0.007798058 -0.4059101 -0.9138798 192 192 192 255 0.095876 0.734035
1.891602 -1.401203 -0.06543 -0.2531148 0.4049492 -0.8786064 192 192 192 255 0.041294 0.734056
258.6543 3.09403 7.407227 -0.09862945 0.980885 -0.1677403 192 192 192 255 0.139942 0.73118
81.87207 1.963371 255.4043 0.05860382 0.9841266 -0.1675126 192 192 192 255 0.042689 0.872681
107.4199 3.251964 277.582 0.1407529 0.9899106 -0.01630028 192 192 192 255 0.081838 0.627207
495.7891 -19.88213 0.000977 0.0194789 -0.02954059 -0.9993738 192 192 192 255 0.231049 0.73403
374.2266 0.046929 499.7432 -0.01116 0.7199404 0.6939461 192 192 192 255 0.184345 0.541711
349.0605 -1.787886 498.459 0.001259543 0.6667862 0.7452481 192 192 192 255 0.174676 0.542206
-0.010742 -0.067797 1.765625 -0.6865811 0.5850678 -0.4316273 192 192 192 255 0.040563 0.733351
144.1973 -0.192253 311.3574 0.02035076 0.9950916 -0.09684378 192 192 192 255 0.095968 0.614209
156.3271 3.387867 326.8965 0.07174711 0.9857848 -0.1519236 192 192 192 255 0.076608 0.840111
370.8477 0.933448 33.35938 0.006931667 0.9965602 -0.08258185 192 192 192 255 0.183047 0.721193
308.7793 3.429929 285.0889 -0.00724399 0.9994342 0.03284615 192 192 192 255 0.386074 0.855302
137.7236 0.153925 17.48633 -0.03298592 0.9419926 -0.334009 192 192 192 255 0.093481 0.727301
133.6875 3.433976 29.69629 0.002476344 0.9961738 -0.08735895 192 192 192 255 0.066294 0.975505
250.6113 3.45977 104.291 0.01419577 0.980541 -0.1958009 192 192 192 255 0.136852 0.693895
492.6035 3.179322 124.5859 0.2528741 0.9674991 -0.0002835001 192 192 192 255 0.229804 0.932276
340.6055 1.511128 9.604492 0.08649106 0.9551009 -0.2833755 192 192 192 255 0.171428 0.730334
297.7578 0.159516 337.415 0.03752086 0.9976483 0.05735882 192 192 192 255 0.154966 0.604181
66.42285 3.434216 240.2676 -0.04534093 0.9866823 0.1562121 192 192 192 255 0.035651 0.879576
0.142578 -22.86288 0.212891 -0.5730654 -0.5807213 -0.5782378 192 192 192 255 0.040622 0.733949
429.125 0.378224 244.8076 0.03976026 0.9932492 0.1089734 192 192 192 255 0.205437 0.63982
160.3203 1.717827 496.6201 0.008843097 0.9439889 0.329859 192 192 192 255 0.102162 0.542913
70.89453 3.375741 259.2354 0.01981398 0.9853193 -0.1695683 192 192 192 255 0.037688 0.870935
498.8428 -0.44888 356.3018 0.612366 0.7896518 -0.03818429 192 192 192 255 0.232223 0.596913
240.9043 3.326967 410.7861 0.1939957 0.9772291 -0.08596019 192 192 192 255 0.115139 0.801894
215.8105 3.436386 389.2461 0.07233171 0.9941713 -0.07994851 192 192 192 255 0.103707 0.811707
127.0518 3.434367 434.4893 0.00292574 0.9999849 0.004649854 192 192 192 255 0.063271 0.791096
207.7148 0.041489 0.274414 0.004625171 0.5421327 -0.8402802 192 192 192 255 0.120371 0.733925
165.7559 3.404236 7.583984 -0.08849954 0.956513 -0.2779402 192 192 192 255 0.104251 0.731112
308.1689 0.255619 149.1719 0.1764733 0.9726891 -0.1507753 192 192 192 255 0.158966 0.676624
168.6416 3.430331 269.6191 -0.01716189 0.9997264 0.01589403 192 192 192 255 0.322232 0.862349
330.7188 3.433722 287.5918 0.00463739 0.9984739 0.05502978 192 192 192 255 0.396069 0.854161
0.088867 -0.099633 95.22754 -0.8048447 0.5920496 0.04125967 192 192 192 255 0.040602 0.697383
100.7656 3.439986 492.582 0.01197143 0.9748412 0.2225792 192 192 192 255 0.051296 0.764631
166.8672 3.433662 450.2676 -0.01623868 0.9996742 0.01969464 192 192 192 255 0.08141 0.783908
344.959 2.96285 195.5908 0.1463192 0.9786314 -0.1444695 192 192 192 255 0.173101 0.65876
458.0381 -0.916454 -0.038086 0.005031155 0.5157014 -0.8567537 192 192 192 255 0.216545 0.734045
364.7773 0.657183 208.1797 0.1401505 0.9838065 -0.1117257 192 192 192 255 0.180715 0.653915
91.16309 0.299674 249.7148 0.01649556 0.9984947 0.05230869 192 192 192 255 0.075592 0.637931
278.7432 3.435933 415.3809 -0.05010745 0.9987429 -0.001332587 192 192 192 255 0.132377 0.799801
435.5078 3.436331 489.9707 -0.02155927 0.9801126 0.1972674 192 192 192 255 0.207889 0.545472
351.1562 -9.120454 499.9922 -0.008021574 0.08856048 0.9960386 192 192 192 255 0.175482 0.541616
203.874 2.693131 92.43848 0.04683774 0.9969213 0.0628821 192 192 192 255 0.098269 0.946922
467.2422 3.427482 353.1904 0.03294385 0.9940606 -0.1037224 192 192 192 255 0.21825 0.828133
139.1504 -9.706122 0.44043 -0.006420623 0.3513842 -0.9362094 192 192 192 255 0.094029 0.733861
342.9189 3.431989 27.5752 0.05547506 0.9967588 -0.05826277 192 192 192 255 0.172317 0.723418
1.462891 -4.814629 145.7393 -0.8193896 0.5718376 -0.0400298 192 192 192 255 0.041129 0.677945
0.166992 -0.191494 499.8701 -0.5624462 0.4601062 0.6869909 192 192 192 255 0.040632 0.541663
235.6162 3.43714 276.7314 0.0120697 0.9998747 0.01024461 192 192 192 255 0.352744 0.859109
364.21 3.434579 436.0664 0.002575294 0.9999724 0.006972226 192 192 192 255 0.171312 0.790378
248.9707 0.452814 481.1016 0.07802927 0.9969499 0.001566879 192 192 192 255 0.136222 0.548885
310.8721 -1.377248 500.0449 0.02507654 0.542328 0.8397926 192 192 192 255 0.160004 0.541595
268.6885 3.431151 284.7119 -0.05298113 0.9839991 0.1701142 192 192 192 255 0.36781 0.855473
250.1514 3.430707 396.4834 0.003532499 0.981151 0.1932102 192 192 192 255 0.136676 0.581449
58.125 3.435743 211.3984 -0.01011647 0.9997554 0.01966578 192 192 192 255 0.031871 0.892728
203.3096 0.732308 123.0869 -0.05604805 0.9848071 -0.1643585 192 192 192 255 0.098012 0.932959
7.362305 3.37422 492.7305 -0.1639497 0.9704379 0.1771183 192 192 192 255 0.008745 0.764564
397.6523 3.250224 250.1826 0.1863973 0.982473 -0.001728623 192 192 192 255 0.426562 0.871204
491.9941 3.375783 259.9658 0.1862862 0.9784297 -0.08929021 192 192 192 255 0.229526 0.870602
427.7783 -22.82248 0.195313 0.0002843549 -0.7279233 -0.6856585 192 192 192 255 0.20492 0.733955
22.10254 -0.095315 123.8701 -0.05770542 0.9978722 0.03035288 192 192 192 255 0.049059 0.686361
1.895508 -2.91352 136.8828 -0.7704115 0.6328023 0.0776369 192 192 192 255 0.041296 0.681353
183.4658 0.806798 345.4277 0.1527219 0.9770293 -0.1486265 192 192 192 255 0.088972 0.831669
402.9473 3.218409 26.41797 -0.04994134 0.9953333 -0.08256783 192 192 192 255 0.18896 0.976998
141.3994 -6.652411 3.551758 -0.1345849 0.8201923 -0.5560319 192 192 192 255 0.094893 0.732664
281.5879 0.552384 120.6553 0.02779989 0.9988767 -0.03837347 192 192 192 255 0.148753 0.687598
387.6152 0.960899 18.04883 -0.05011601 0.9881237 -0.1452585 192 192 192 255 0.189489 0.727085
378.5176 0.54694 221.5059 0.0650144 0.9920323 -0.1079125 192 192 192 255 0.185994 0.648787
500.0146 -21.31034 1.72168 0.9242973 -0.3810868 -0.02115193 192 192 192 255 0.232673 0.733368
325.7676 -21.12656 500.0723 0.0005179854 -0.05920416 0.9982458 192 192 192 255 0.165727 0.541585
500 -4.17475 311.2939 0.8809357 0.4732219 -0.003651731 192 192 192 255 0.232667 0.614233
499.8457 -1.395033 0.144531 0.6247462 0.466035 -0.6265011 192 192 192 255 0.232608 0.733975
499.3994 -22.79241 0.220703 0.5583276 -0.6637671 -0.4976782 192 192 192 255 0.232437 0.733946
54.50391 3.434793 141.9434 -0.0304027 0.9990158 -0.03229654 192 192 192 255 0.030221 0.924369
114.3057 3.368659 20.00098 0.05306223 0.9934735 -0.1009699 192 192 192 255 0.057465 0.979922
415.9092 1.981506 9.379883 -0.07763812 0.9697492 -0.2314279 192 192 192 255 0.20036 0.730421
126.9707 3.438237 471.3203 0.03001284 0.9992259 0.02543346 192 192 192 255 0.063234 0.774317
294.0332 3.028389 123.3818 -0.1366575 0.9873526 0.0803723 192 192 192 255 0.139342 0.932825
7.337891 3.28021 7.808594 -0.1558422 0.9651201 -0.2103721 192 192 192 255 0.008734 0.985476
157.7129 1.722373 283.7119 -0.07817497 0.9957611 0.04846233 192 192 192 255 0.317254 0.855929
316.7549 1.862211 326.207 0.02456998 0.9973973 0.06778616 192 192 192 255 0.162265 0.608494
213.9004 3.433569 473.8799 -0.01736888 0.9996616 0.01936504 192 192 192 255 0.102836 0.773151
106.6338 3.435138 302.9072 0.08013016 0.9942289 -0.07133104 192 192 192 255 0.05397 0.85104
411.3262 3.363147 260.1318 -0.08580866 0.9818668 -0.1690399 192 192 192 255 0.198599 0.633922
491.9941 3.375783 259.9658 0.1862862 0.9784297 -0.08929021 192 192 192 255 0.229591 0.633986
342.2676 3.461583 331.4033 -0.124851 0.9836665 -0.1296629 192 192 192 255 0.172066 0.606495
342.9189 3.431989 27.5752 0.05547506 0.9967588 -0.05826277 192 192 192 255 0.161613 0.976471
7.337891 3.28021 7.808594 -0.1558422 0.9651201 -0.2103721 192 192 192 255 0.043387 0.731025
9.052734 3.428533 88.92383 -0.1734295 0.983839 0.04453041 192 192 192 255 0.044045 0.699809
239.9688 3.435745 7.739258 0.1158307 0.9738985 -0.1952049 192 192 192 255 0.132763 0.731052
81.87207 1.963371 255.4043 0.05860382 0.9841266 -0.1675126 192 192 192 255 0.072023 0.635742
7.007813 3.218009 258.4336 -0.1754338 0.971291 -0.1606762 192 192 192 255 0.04326 0.634576
9.436523 3.431041 168.5156 -0.2254819 0.9719239 -0.06724471 192 192 192 255 0.00969 0.912264
6.916016 3.155966 240.3398 -0.1447921 0.9806 0.1321322 192 192 192 255 0.008542 0.879543
442.6338 3.391189 7.753906 -0.01100867 0.9665597 -0.2562055 192 192 192 255 0.210627 0.731046
492.8467 3.094648 8.557617 0.228772 0.9572558 -0.176988 192 192 192 255 0.229919 0.730737
435.5078 3.436331 489.9707 -0.02155927 0.9801126 0.1972674 192 192 192 255 0.203793 0.765821
93.99316 3.41958 7.725586 0.04208776 0.9632398 -0.2653255 192 192 192 255 0.07668 0.731057
128.0488 3.435996 320.5479 0.05898048 0.993986 -0.09226707 192 192 192 255 0.089764 0.610672
310.8545 3.436364 489.8799 0.02740561 0.9736634 0.2263373 192 192 192 255 0.147005 0.765862
7.295898 3.356693 373.2881 -0.2195246 0.9756069 -0.0002350879 192 192 192 255 0.043371 0.590376
397.6523 3.250224 250.1826 0.1863973 0.982473 -0.001728623 192 192 192 255 0.193345 0.637751
240.7324 3.429809 492.4697 0.130241 0.9747288 0.181497 192 192 192 255 0.133057 0.54451
100.7656 3.439986 492.582 0.01197143 0.9748412 0.2225792 192 192 192 255 0.079282 0.544467
493.0518 2.977648 372.3057 0.2773678 0.9605305 -0.02117126 192 192 192 255 0.230008 0.819425
88.42383 3.328727 240.8047 0.08186116 0.9799794 0.1814915 192 192 192 255 0.07454 0.64136
193.7646 3.292291 135.5947 0.1476559 0.985554 0.08295217 192 192 192 255 0.115012 0.681849
240.9043 3.326967 410.7861 0.1939957 0.9772291 -0.08596019 192 192 192 255 0.133123 0.575945
278.7432 3.435933 415.3809 -0.05010745 0.9987429 -0.001332587 192 192 192 255 0.14766 0.574177
330.7188 3.433722 287.5918 0.00463739 0.9984739 0.05502978 192 192 192 255 0.167629 0.623355
54.63574 0.743672 247.8916 -0.05723814 0.9976317 0.03814067 192 192 192 255 0.061558 0.638633
126.9707 3.438237 471.3203 0.03001284 0.9992259 0.02543346 192 192 192 255 0.08935 0.552649
250.1514 3.430707 396.4834 0.003532499 0.981151 0.1932102 192 192 192 255 0.359365 0.804555
167.292 3.425472 300.9814 -0.086937 0.9957873 0.02914656 192 192 192 255 0.104841 0.618202
183.4658 0.806798 345.4277 0.1527219 0.9770293 -0.1486265 192 192 192 255 0.111055 0.601097
467.2422 3.427482 353.1904 0.03294385 0.9940606 -0.1037224 192 192 192 255 0.220082 0.59811
444.1016 3.435338 340.0518 0.03401825 0.9994171 0.002888658 192 192 192 255 0.211191 0.603166
450.6865 3.432209 355.0801 0.01876879 0.9994647 -0.02679745 192 192 192 255 0.213721 0.597383
370.8477 0.933448 33.35938 0.006931667 0.9965602 -0.08258185 192 192 192 255 0.174336 0.973836
211.3145 3.221734 493.2959 -0.05799664 0.9606761 0.2715472 192 192 192 255 0.121754 0.544193
102.1016 2.968263 248.4854 -0.1795563 0.983548 -0.01982161 192 192 192 255 0.291919 0.871977
129.2422 3.433209 261.5703 -0.04366846 0.995988 0.07810879 192 192 192 255 0.090222 0.633369
387.6152 0.960899 18.04883 -0.05011601 0.9881237 -0.1452585 192 192 192 255 0.181975 0.980811
446.4766 3.43561 201.2422 0.006890323 0.999551 0.02915983 192 192 192 255 0.20879 0.897355
461.8086 3.433537 205.3164 -0.01987375 0.9994591 0.02620134 192 192 192 255 0.215775 0.895499
342.0723 3.280227 484.5664 0.02189632 0.9857814 0.1666 192 192 192 255 0.171991 0.547552
165.7559 3.404236 7.583984 -0.08849954 0.956513 -0.2779402 192 192 192 255 0.080904 0.985578
260.8623 3.222812 492.3936 -0.08025284 0.9809545 0.1768835 192 192 192 255 0.124231 0.764717
270.0146 3.434069 438.1025 -0.09250457 0.9955899 0.01561091 192 192 192 255 0.144307 0.565433
286.1436 3.436381 457.457 -0.01436213 0.9998918 -0.003193758 192 192 192 255 0.150504 0.557985
402.9473 3.218409 26.41797 -0.04994134 0.9953333 -0.08256783 192 192 192 255 0.19538 0.723864
290.4082 1.527724 331.04 0.06523762 0.9967721 0.04679354 192 192 192 255 0.377705 0.834368
389.7344 3.399997 217.8184 -0.1281952 0.9913737 0.02728037 192 192 192 255 0.18294 0.889803
434.0693 3.41361 228.8594 0.08710242 0.9902464 0.1087438 192 192 192 255 0.203138 0.884773
408.458 3.433311 476.7764 -0.03362037 0.9949728 0.09433376 192 192 192 255 0.197497 0.55055
6.80957 1.821091 164.6475 -0.3589298 0.9157411 -0.1805206 192 192 192 255 0.043184 0.670668
58.125 3.435743 211.3984 -0.01011647 0.9997554 0.01966578 192 192 192 255 0.062899 0.652677
23.34082 3.376858 153.8623 -0.1016194 0.9909284 -0.08794545 192 192 192 255 0.049535 0.674819
340.6055 1.511128 9.604492 0.08649106 0.9551009 -0.2833755 192 192 192 255 0.160559 0.984658
316.002 3.4137 7.777344 0.03146593 0.9538427 -0.2986538 192 192 192 255 0.14935 0.98549
107.4199 3.251964 277.582 0.1407529 0.9899106 -0.01630028 192 192 192 255 0.054328 0.862577
106.1514 1.892457 291.3721 0.1562117 0.9854463 -0.06703296 192 192 192 255 0.05375 0.856295
144.4102 3.183124 273.1221 -0.05095625 0.9940695 0.09606891 192 192 192 255 0.311193 0.860753
311.3604 2.102605 307.1699 -0.01101444 0.9992794 0.0363227 192 192 192 255 0.38725 0.845242
215.0645 1.07279 98.7168 0.04866255 0.9952493 0.08432601 192 192 192 255 0.103367 0.944062
294.0332 3.028389 123.3818 -0.1366575 0.9873526 0.0803723 192 192 192 255 0.153535 0.686549
323.1885 1.564043 139.3164 -0.1370232 0.9859988 0.09503148 192 192 192 255 0.164736 0.680416
491.6074 1.597196 290.9541 0.2460493 0.9680778 0.0478032 192 192 192 255 0.229443 0.622061
47.04395 2.332082 119.4844 -0.06052561 0.9979873 0.01892159 192 192 192 255 0.026823 0.934601
240.2061 3.38567 65.85449 0.1505686 0.9885007 0.01397917 192 192 192 255 0.11482 0.959032
30.18652 3.405969 225.7188 0.04863965 0.9941208 0.09673747 192 192 192 255 0.052165 0.647166
377.3037 1.233769 477.0859 0.005287262 0.9983101 0.05787161 192 192 192 255 0.185527 0.550431
268.6768 3.429326 352.7246 0.07792389 0.9969324 -0.007331714 192 192 192 255 0.143793 0.598289
213.9004 3.433569 473.8799 -0.01736888 0.9996616 0.01936504 192 192 192 255 0.122748 0.551665
266.9346 3.433808 478.7822 -0.06767005 0.9976959 -0.004866674 192 192 192 255 0.143124 0.549778
383.5244 1.07255 202.0264 -0.04084848 0.9987521 0.02873535 192 192 192 255 0.180111 0.896998
133.6875 3.433976 29.69629 0.002476344 0.9961738 -0.08735895 192 192 192 255 0.09193 0.722602
344.959 2.96285 195.5908 0.1463192 0.9786314 -0.1444695 192 192 192 255 0.402556 0.896074
156.3271 3.387867 326.8965 0.07174711 0.9857848 -0.1519236 192 192 192 255 0.100628 0.608229
265.8975 3.211674 382.4395 0.1562383 0.9781231 0.1373488 192 192 192 255 0.366539 0.810953
463.8594 3.390576 227.2607 -0.1073623 0.9931188 0.04678079 192 192 192 255 0.216709 0.885502
491.0381 3.442778 240.3311 0.1375717 0.9826694 0.1242374 192 192 192 255 0.229091 0.879547
47.99316 1.62215 227.3555 -0.0538916 0.9951267 0.08257466 192 192 192 255 0.027255 0.885459
160.3203 1.717827 496.6201 0.008843097 0.9439889 0.329859 192 192 192 255 0.078427 0.762792
39.40039 3.436244 88.03418 -0.01253874 0.999531 0.02794074 192 192 192 255 0.055705 0.700152
275.0283 3.449233 398.4365 -0.1224341 0.9883841 -0.09003836 192 192 192 255 0.130684 0.80752
477.5801 3.395428 303.0742 0.08215149 0.9957203 0.04233576 192 192 192 255 0.224054 0.617397
141.4824 3.384583 478.1973 -0.0009027059 0.9994515 0.03310448 192 192 192 255 0.069845 0.771184
157.7129 1.722373 283.7119 -0.07817497 0.9957611 0.04846233 192 192 192 255 0.101161 0.624848
41.75293 2.218537 138.6084 -0.07194031 0.9935755 -0.08736356 192 192 192 255 0.024412 0.925888
491.5449 3.470661 483.7314 0.2125964 0.9771158 0.006896483 192 192 192 255 0.229419 0.547873
203.3096 0.732308 123.0869 -0.05604805 0.9848071 -0.1643585 192 192 192 255 0.118679 0.686662
145.0703 3.433876 330.4834 0.0071659 0.9975281 -0.06990232 192 192 192 255 0.07148 0.838477
106.6338 3.435138 302.9072 0.08013016 0.9942289 -0.07133104 192 192 192 255 0.081536 0.617461
370.9844 2.836164 185.9092 -0.002688083 0.9958834 0.09060425 192 192 192 255 0.174398 0.90434
7.362305 3.37422 492.7305 -0.1639497 0.9704379 0.1771183 192 192 192 255 0.043396 0.54441
491.2754 3.207283 492.4053 0.1225519 0.9745493 0.1877091 192 192 192 255 0.229199 0.764712
261.2471 3.447376 89.5127 -0.119288 0.9906191 0.06666533 192 192 192 255 0.140938 0.699583
355.0498 3.436264 291.4688 0.1010632 0.9860179 0.1324947 192 192 192 255 0.407153 0.852395
415.9092 1.981506 9.379883 -0.07763812 0.9697492 -0.2314279 192 192 192 255 0.194865 0.98476
334.4912 2.763412 151.2822 -0.07225243 0.9968608 0.0323757 192 192 192 255 0.157773 0.920115
114.2227 1.080421 9.109375 0.137291 0.9291024 -0.343395 192 192 192 255 0.057427 0.984883
348.293 3.430092 176.7549 -0.09747015 0.9911566 0.09004556 192 192 192 255 0.164061 0.90851
492.6035 3.179322 124.5859 0.2528741 0.9674991 -0.0002835001 192 192 192 255 0.229825 0.686085
301.9492 3.379214 110.6123 -0.02680915 0.9992512 0.02789877 192 192 192 255 0.156576 0.691463
490.2607 0.879668 312.5127 0.2449547 0.9693725 0.01772258 192 192 192 255 0.228737 0.846664
250.6113 3.45977 104.291 0.01419577 0.980541 -0.1958009 192 192 192 255 0.359575 0.937667
227.0557 3.429971 77.77637 0.01481434 0.9983484 0.05550786 192 192 192 255 0.127802 0.704099
257.5029 2.564779 455.7832 -0.1201227 0.9915804 -0.04836226 192 192 192 255 0.1227 0.781395
169.8516 2.982605 319.1494 -0.1944425 0.971209 0.1376415 192 192 192 255 0.322783 0.839785
215.8105 3.436386 389.2461 0.07233171 0.9941713 -0.07994851 192 192 192 255 0.123482 0.584235
258.6543 3.09403 7.407227 -0.09862945 0.980885 -0.1677403 192 192 192 255 0.123225 0.985659
3 167 110 0 
3 104 167 1 
3 165 239 55 
3 247 132 3 
3 205 240 173 
3 159 185 214 
3 40 7 81 
3 182 58 59 
3 182 243 58 
3 32 218 21 
3 154 14 84 
3 202 147 225 
3 73 55 239 
3 41 128 42 
3 208 32 21 
3 227 5 47 
3 158 252 253 
3 226 180 200 
3 252 111 254 
3 2 69 114 
3 147 202 148 
3 255 89 65 
3 141 68 183 
3 198 234 204 
3 256 201 257 
3 176 188 104 
3 164 11 209 
3 64 98 164 
3 182 59 9 
3 258 85 141 
3 159 179 235 
3 37 219 161 
3 194 231 178 
3 62 74 10 
3 14 120 109 
3 171 121 191 
3 259 86 260 
3 111 131 46 
3 6 261 262 
3 242 223 150 
3 113 19 229 
3 242 129 6 
3 240 263 264 
3 158 30 252 
3 30 158 15 
3 249 105 186 
3 193 250 8 
3 8 250 94 
3 67 141 170 
3 256 176 201 
3 67 258 141 
3 131 252 30 
3 252 131 111 
3 144 207 259 
3 142 265 75 
3 144 172 72 
3 191 147 251 
3 194 148 195 
3 38 208 21 
3 22 169 266 
3 258 77 197 
3 171 191 251 
3 177 267 130 
3 220 90 37 
3 268 32 140 
3 86 154 260 
3 269 154 119 
3 145 156 206 
3 46 131 270 
3 131 236 270 
3 122 161 271 
3 21 218 43 
3 216 99 272 
3 153 24 20 
3 273 212 142 
3 141 101 117 
3 60 9 211 
3 36 103 245 
3 14 104 84 
3 176 104 201 
3 150 187 136 
3 149 136 187 
3 6 129 261 
3 250 193 203 
3 95 69 2 
3 95 170 82 
3 76 83 159 
3 54 115 50 
3 53 115 144 
3 58 243 63 
3 26 229 152 
3 274 88 275 
3 83 123 114 
3 219 126 276 
3 277 135 126 
3 33 92 31 
3 278 105 34 
3 249 186 127 
3 208 49 32 
3 48 135 277 
3 86 279 157 
3 116 222 135 
3 17 217 128 
3 102 217 160 
3 80 65 81 
3 218 125 43 
3 19 201 230 
3 64 238 98 
3 35 44 160 
3 242 150 59 
3 215 104 14 
3 230 201 104 
3 280 272 99 
3 161 122 220 
3 37 161 220 
3 21 43 142 
3 212 21 142 
3 80 28 65 
3 208 38 227 
3 42 128 281 
3 282 62 10 
3 34 249 111 
3 32 268 166 
3 123 173 114 
3 167 114 110 
3 188 167 104 
3 168 114 167 
3 188 96 167 
3 22 96 188 
3 22 188 169 
3 62 283 74 
3 239 112 163 
3 112 239 165 
3 227 61 134 
3 142 43 51 
3 100 157 279 
3 20 24 284 
3 24 285 286 
3 80 287 28 
3 122 271 288 
3 186 118 91 
3 257 113 229 
3 227 47 208 
3 226 217 221 
3 68 207 144 
3 137 289 66 
3 68 144 290 
3 45 236 131 
3 45 27 236 
3 81 162 138 
3 217 17 160 
3 28 255 65 
3 287 255 28 
3 2 114 168 
3 291 287 80 
3 291 80 232 
3 39 59 224 
3 83 185 159 
3 76 159 235 
3 31 13 56 
3 56 131 189 
3 195 148 202 
3 56 189 31 
3 184 292 293 
3 220 122 238 
3 99 122 190 
3 55 98 165 
3 163 24 153 
3 77 107 197 
3 148 251 147 
3 97 249 34 
3 174 175 210 
3 294 220 175 
3 175 133 294 
3 218 32 166 
3 59 58 242 
3 105 118 186 
3 36 245 57 
3 295 182 9 
3 160 93 78 
3 140 296 268 
3 53 267 177 
3 65 246 87 
3 81 65 162 
3 233 25 181 
3 297 126 298 
3 244 76 299 
3 70 244 263 
3 7 232 81 
3 78 93 79 
3 300 79 155 
3 226 221 180 
3 292 301 302 
3 43 125 51 
3 18 210 238 
3 155 42 281 
3 69 83 114 
3 127 116 48 
3 224 59 150 
3 213 2 168 
3 129 71 261 
3 298 126 151 
3 142 51 265 
3 209 303 64 
3 304 215 14 
3 305 157 100 
3 17 128 41 
3 124 230 306 
3 194 195 203 
3 226 137 217 
3 307 308 255 
3 104 1 106 
3 1 0 106 
3 309 171 310 
3 50 115 53 
3 177 50 53 
3 199 311 248 
3 274 207 88 
3 164 209 64 
3 35 300 312 
3 81 138 292 
3 143 52 25 
3 211 9 59 
3 211 59 39 
3 313 211 39 
3 192 153 20 
3 162 65 87 
3 314 198 315 
3 206 156 198 
3 112 316 163 
3 58 63 317 
3 107 2 213 
3 318 9 60 
3 319 120 157 
3 0 98 106 
3 64 303 18 
3 64 18 238 
3 174 210 18 
3 218 23 125 
3 3 132 63 
3 133 320 294 
3 79 42 155 
3 180 44 312 
3 312 44 35 
3 81 232 80 
3 141 88 68 
3 245 195 202 
3 321 16 91 
3 118 321 91 
3 322 122 288 
3 146 213 168 
3 146 168 96 
3 111 127 254 
3 22 146 96 
3 76 235 299 
3 151 219 323 
3 126 219 151 
3 199 248 128 
3 116 127 186 
3 138 324 292 
3 88 207 68 
3 107 325 197 
3 206 236 27 
3 326 137 226 
3 76 123 83 
3 327 62 177 
3 327 177 130 
3 304 14 109 
3 303 133 18 
3 303 320 133 
3 189 131 30 
3 328 155 281 
3 222 116 16 
3 184 329 330 
3 123 205 173 
3 223 331 187 
3 150 223 187 
3 77 196 2 
3 184 293 329 
3 41 42 79 
3 234 198 314 
3 242 6 223 
3 305 319 157 
3 250 57 332 
3 184 81 292 
3 40 81 184 
3 333 257 229 
3 47 334 208 
3 119 154 84 
3 216 84 106 
3 125 23 166 
3 107 77 2 
3 34 105 97 
3 335 285 24 
3 93 17 41 
3 154 86 157 
3 141 117 88 
3 99 190 29 
3 57 336 332 
3 337 50 282 
3 157 120 154 
3 242 338 129 
3 201 113 257 
3 229 19 124 
3 19 230 124 
3 315 198 139 
3 274 279 207 
3 290 144 115 
3 313 39 224 
3 191 121 147 
3 238 106 98 
3 203 103 36 
3 203 195 103 
3 52 143 146 
3 73 20 339 
3 164 73 339 
3 164 339 11 
3 44 102 160 
3 103 195 245 
3 88 117 275 
3 275 117 340 
3 62 50 177 
3 192 73 239 
3 215 230 104 
3 238 216 106 
3 158 253 108 
3 78 79 300 
3 158 108 12 
3 12 108 112 
3 0 165 98 
3 114 228 110 
3 110 165 0 
3 159 214 179 
3 178 341 194 
3 233 107 213 
3 53 72 342 
3 53 342 267 
3 239 163 4 
3 215 304 306 
3 324 138 343 
3 1 167 0 
3 233 181 107 
3 127 111 249 
3 272 344 216 
3 14 154 120 
3 110 241 237 
3 269 119 344 
3 60 211 313 
3 75 265 345 
3 217 199 128 
3 141 234 346 
3 135 276 126 
3 277 126 297 
3 192 4 153 
3 46 278 34 
3 19 113 201 
3 24 286 284 
3 158 12 15 
3 137 66 311 
3 97 105 249 
3 30 33 31 
3 70 123 76 
3 219 37 323 
3 163 153 4 
3 200 180 312 
3 226 200 347 
3 196 77 258 
3 95 67 170 
3 7 348 232 
3 79 93 41 
3 162 87 349 
3 174 18 133 
3 227 38 61 
3 56 45 131 
3 337 54 50 
3 181 25 325 
3 350 243 182 
3 152 124 306 
3 333 229 26 
3 137 311 199 
3 350 3 243 
3 138 351 343 
3 162 349 138 
3 138 349 351 
3 139 198 156 
3 55 164 98 
3 92 13 31 
3 273 142 75 
3 25 233 143 
3 143 233 213 
3 294 90 220 
3 234 183 204 
3 207 279 259 
3 259 279 86 
3 99 216 238 
3 46 34 111 
3 12 240 352 
3 12 112 165 
3 229 124 152 
3 58 338 242 
3 116 135 48 
3 243 3 63 
3 203 57 250 
3 127 48 254 
3 135 74 276 
3 74 135 222 
3 255 308 89 
3 163 335 24 
3 73 192 20 
3 73 164 55 
3 12 165 240 
3 240 165 237 
3 218 166 23 
3 50 62 282 
3 70 76 244 
3 180 221 44 
3 240 241 173 
3 174 133 175 
3 324 301 292 
3 54 290 115 
3 327 283 62 
3 353 234 314 
3 353 346 234 
3 194 341 148 
3 36 57 203 
3 12 352 15 
3 35 78 300 
3 160 78 35 
3 143 213 146 
3 240 264 352 
3 106 84 104 
3 219 276 271 
3 234 141 183 
3 240 205 263 
3 134 61 354 
3 169 176 256 
3 57 245 336 
3 29 280 99 
3 189 30 31 
3 322 190 122 
3 194 203 193 
3 355 289 137 
3 67 196 258 
3 196 95 2 
3 196 67 95 
3 122 99 238 
3 25 52 266 
3 137 199 217 
3 83 69 185 
3 165 110 237 
3 206 198 204 
3 236 206 204 
3 204 270 236 
3 33 30 15 
3 70 205 123 
3 263 205 70 
3 101 340 117 
3 96 168 167 
3 112 108 316 
3 160 17 93 
3 44 221 102 
3 91 16 116 
3 317 338 58 
3 210 220 238 
3 356 101 141 
3 32 357 140 
3 171 251 310 
3 176 169 188 
3 119 216 344 
3 216 119 84 
3 221 217 102 
3 22 52 146 
3 52 22 266 
3 161 219 271 
3 175 220 210 
3 266 169 256 
3 331 149 187 
3 128 358 281 
3 222 10 74 
3 74 359 276 
3 308 360 89 
3 170 141 346 
3 260 154 269 
3 108 253 316 
3 173 241 228 
3 241 110 228 
3 114 173 228 
3 74 283 359 
3 186 91 116 
3 107 181 325 
3 326 355 137 
3 4 192 239 
3 240 237 241 
3 306 230 215 
3 69 82 185 
3 69 95 82 
3 145 206 27 
3 144 72 53 
3 172 144 259 
3 85 356 141 
