ply
format ascii 1.0
comment VCGLIB generated
comment TextureFile Dungeons_2_Texture_01_A.png
element vertex 349
property float x
property float y
property float z
property float nx
property float ny
property float nz
property uchar red
property uchar green
property uchar blue
property uchar alpha
property float texture_u
property float texture_v
element face 500
property list uchar int vertex_indices
end_header
467.6396 -21.78087 -0.026367 0.02051255 -0.02342237 -0.9995152 192 192 192 255 0.220234 0.734041
499.4834 -7.880692 27.78613 0.8328823 0.5433078 -0.1054691 192 192 192 255 0.232469 0.723337
0.115234 -0.123982 0.300781 -0.5781671 0.5779598 -0.5759213 192 192 192 255 0.040612 0.733915
253.1025 -0.236941 0.447266 -0.0346134 0.7442468 -0.6670071 192 192 192 255 0.137809 0.733858
191.3037 -18.3454 0.005859 -0.008527004 0.0265841 -0.9996102 192 192 192 255 0.114066 0.734028
483.6064 -2.100525 153.5449 -0.1218695 0.9925461 -0.0001079811 192 192 192 255 0.226369 0.674941
306.4082 -2.057559 404.0059 0.06644174 0.9935442 -0.09195339 192 192 192 255 0.158289 0.578555
94.92676 -2.004791 276.4102 0.06457914 0.9964783 0.05348343 192 192 192 255 0.077038 0.627658
86.61816 -0.004753 76.6748 0.0326654 0.9957955 -0.08558185 192 192 192 255 0.044851 0.954103
111.5781 -2.103641 293.4678 -0.00907232 0.9999328 0.007221657 192 192 192 255 0.083436 0.621094
77.63867 -0.007155 351.4326 -0.07830089 0.9955253 -0.05289907 192 192 192 255 0.04076 0.828934
168.0039 -4.735531 190.7363 0.07824195 0.9957036 0.04952262 192 192 192 255 0.105114 0.660628
497.1865 -1.53163 347.9355 0.5516979 0.8340054 -0.008021787 192 192 192 255 0.231892 0.830527
124.8232 -0.006678 9.495117 0.04697204 0.9952872 0.08483466 192 192 192 255 0.062256 0.984708
402.8223 -2.101634 247.8945 -0.1243273 0.9922373 -0.00279943 192 192 192 255 0.195332 0.638632
411.2119 -2.093385 431.0684 -0.06748082 0.9889295 0.132155 192 192 192 255 0.192725 0.792655
412.832 -0.098376 76.39453 -0.03341069 0.9958422 -0.08474672 192 192 192 255 0.193463 0.954231
89.72754 0.005936 409.7432 0.01880789 0.9997199 -0.0143714 192 192 192 255 0.046268 0.80237
109.5352 -3.205236 478.5273 0.008368023 0.9984986 0.05413428 192 192 192 255 0.082651 0.549876
171.5674 -2.512325 1.808594 -0.06613393 0.913886 -0.400548 192 192 192 255 0.106484 0.733334
145.9395 0.018622 89.84961 0.01635013 0.9955618 0.09267893 192 192 192 255 0.071876 0.948101
150.5039 -3.391267 496.4902 -0.1271536 0.9221698 0.3652873 192 192 192 255 0.098391 0.542963
122.7852 -8.866875 499.0293 -0.0164079 0.5399759 0.8415205 192 192 192 255 0.087741 0.541986
475.8818 -2.099891 303.1279 0.00709448 0.9998979 0.01240842 192 192 192 255 0.223401 0.617376
16.80762 -2.024176 459.5732 0.07063869 0.9957342 -0.05936006 192 192 192 255 0.047025 0.55717
499.167 -11.90702 0.702148 0.6201302 0.4412843 -0.6486191 192 192 192 255 0.232347 0.73376
262.1191 -2.879368 160.7617 -0.02275789 0.99867 0.04626457 192 192 192 255 0.141274 0.672164
451.8525 -0.123653 0.299805 0.04113811 0.7853493 -0.6176845 192 192 192 255 0.214169 0.733915
69.56055 -2.105648 339.9004 -0.04947955 0.9968565 -0.06187947 192 192 192 255 0.03708 0.834187
335.2803 -3.582801 404.1064 0.04811253 0.9987517 -0.01342518 192 192 192 255 0.169382 0.578516
187.4541 -2.020458 76.89746 0.0219821 0.9971938 0.07156455 192 192 192 255 0.090789 0.954002
219.8643 -2.104233 248.6738 -0.008038881 0.9999571 -0.00460704 192 192 192 255 0.125039 0.638332
410.2197 0.006802 405.5615 -0.06406836 0.9970936 -0.04122576 192 192 192 255 0.192273 0.804274
499.999 -5.267303 192.1865 0.9221216 0.3769985 0.08697091 192 192 192 255 0.232667 0.66007
194.6123 -2.097637 148.499 0.00394167 0.9992546 0.0384015 192 192 192 255 0.115337 0.676883
426.332 -2.21805 170.3232 -0.01640889 0.9989263 0.04332581 192 192 192 255 0.204364 0.668484
213.1553 -2.101476 125.3662 0.005031792 0.9999627 0.007017629 192 192 192 255 0.122462 0.685785
193.3047 -2.243999 13.93066 -0.04638025 0.9844304 -0.1695452 192 192 192 255 0.114835 0.728669
499.9961 -9.893778 38.36133 0.9984408 0.05451478 -0.01200146 192 192 192 255 0.232666 0.719268
299.1348 -0.32507 0.498047 -0.004308615 0.7337447 -0.6794116 192 192 192 255 0.141666 0.988806
2.15332 -1.588314 82.72656 -0.6009793 0.7987788 0.02786359 192 192 192 255 0.041395 0.702194
420.8721 0.00121 133.0742 0.1141003 0.9933667 0.01427347 192 192 192 255 0.197126 0.92841
167.8604 -0.078058 490.0752 -0.1072259 0.9894769 -0.09714976 192 192 192 255 0.081862 0.765773
483.3027 -0.132971 12.13086 0.2904098 0.9262064 -0.2404246 192 192 192 255 0.225567 0.983507
212.0918 -2.613787 152.9346 0.02131798 0.9982696 0.05480244 192 192 192 255 0.122053 0.675176
157.9785 -2.09981 397.8066 0.001371498 0.9990401 0.04378392 192 192 192 255 0.101263 0.58094
232.2207 -2.444266 141.5527 0.003694553 0.9996665 0.02556039 192 192 192 255 0.129787 0.679556
499.9951 -5.532776 311.4727 0.8341055 0.5488585 -0.0549769 192 192 192 255 0.232665 0.614165
191.2139 -4.986257 206.1738 0.009530026 0.9973314 -0.07238232 192 192 192 255 0.114032 0.654687
414.0752 -0.001407 422.9238 -0.04078384 0.9958479 0.08138544 192 192 192 255 0.194029 0.796365
139.4775 -2.100757 245.7354 0.000790595 0.9999997 -0.0001328802 192 192 192 255 0.094155 0.639463
305.1748 -2.104191 431.624 0.02782903 0.9968284 0.07455641 192 192 192 255 0.157815 0.567926
15.21387 -1.980882 147.0596 -0.1960022 0.9804525 -0.01720407 192 192 192 255 0.046413 0.677437
163.3301 -1.33075 90.54492 0.06178364 0.9978859 0.02016628 192 192 192 255 0.079798 0.947784
361.1992 -2.101129 439.6816 -0.004002373 0.9991242 -0.04165198 192 192 192 255 0.17934 0.564825
499.0273 -4.690474 277.4395 0.7415707 0.6699333 -0.0355315 192 192 192 255 0.232294 0.627262
491.5518 -3.147209 312.3584 0.1212341 0.9922641 -0.02672704 192 192 192 255 0.229421 0.613824
3.212891 -1.996408 58.0791 -0.5755413 0.817745 0.006737479 192 192 192 255 0.041802 0.711679
39.77148 -1.302034 496.6279 -0.07654401 0.8060006 0.5869448 192 192 192 255 0.055848 0.54291
277.96 -3.228808 145.4492 -0.02770884 0.9995918 0.00696739 192 192 192 255 0.14736 0.678056
499.2314 -0.082437 66.3623 0.6792881 0.7336842 -0.01659207 192 192 192 255 0.232823 0.958801
0.000977 -7.556868 49.02246 -0.9929192 0.1044285 0.05662331 192 192 192 255 0.040568 0.715165
0.000977 -7.045808 94.79395 -0.9287964 0.3601747 0.08724459 192 192 192 255 0.040568 0.69755
500.0146 -1.654352 423.8369 0.7905551 0.6123815 -0.003397448 192 192 192 255 0.232673 0.570923
344.9795 -3.569928 428.5137 0.08186019 0.9841185 -0.1575109 192 192 192 255 0.173108 0.569123
149.9561 -3.20673 11.21582 0.07353546 0.9943939 -0.07598177 192 192 192 255 0.09818 0.729714
275.5137 -2.788287 187.3525 -0.03717761 0.996245 -0.07818992 192 192 192 255 0.14642 0.661931
417.7021 -3.987135 181.8613 -0.01503239 0.9990711 0.04038646 192 192 192 255 0.201048 0.664044
499.1543 -0.095094 388.459 0.6493818 0.7603869 -0.01072169 192 192 192 255 0.232788 0.812066
218.6514 -2.105278 206.0723 -0.06464156 0.9955669 -0.06832342 192 192 192 255 0.124573 0.654727
370.6338 -0.346167 408.4473 -0.1378986 0.9809008 -0.1371778 192 192 192 255 0.182965 0.576845
1.342773 -10.14875 112.2803 -0.7774248 0.6206794 0.1018224 192 192 192 255 0.041083 0.690821
175.2705 -2.780908 211.7646 0.03354831 0.994686 -0.09733608 192 192 192 255 0.107906 0.652536
3.677734 -22.90054 495.4258 -0.01130605 -0.9998607 0.01227848 192 192 192 255 0.04198 0.543373
39.71973 -22.78568 499.7988 0.004658574 -0.6809392 0.7323251 192 192 192 255 0.055828 0.54169
483.3984 -2.099626 40.17676 -0.09715589 0.9885982 0.1150406 192 192 192 255 0.226289 0.718569
146.9102 -2.606972 200.6924 0.04754092 0.9988443 -0.007080539 192 192 192 255 0.09701 0.656797
407.873 -0.700685 162.1797 -0.04334167 0.9981236 0.04325271 192 192 192 255 0.191204 0.91515
483.7334 -2.072143 249.0811 0.002287315 0.9999065 0.01347814 192 192 192 255 0.226418 0.638175
172.7773 -2.099431 102.2246 0.0135051 0.9997483 0.01791538 192 192 192 255 0.106948 0.694691
406.3027 -2.526555 206.54 0.133941 0.988284 -0.0731753 192 192 192 255 0.196669 0.654546
491.7705 -0.076161 47.58398 0.1151995 0.9900393 -0.08094034 192 192 192 255 0.229425 0.967356
120.2451 -4.040399 491.4639 0.006883851 0.962892 0.2697994 192 192 192 255 0.086766 0.544898
499.8506 -7.072736 373.0029 0.9940851 0.106491 -0.0213201 192 192 192 255 0.23261 0.590486
211.3271 -0.083121 423.2734 -0.06853335 0.9943049 0.08161502 192 192 192 255 0.101664 0.796206
492.1875 -2.688657 261.3936 0.386394 0.921312 -0.04340467 192 192 192 255 0.229666 0.633437
205.5283 -2.098216 431.6279 -0.04563466 0.9972109 0.0590576 192 192 192 255 0.099022 0.7924
495.0098 -22.9005 495.5264 0.006956761 -0.9995927 0.02767814 192 192 192 255 0.23075 0.543334
14.02832 -0.004276 24.20703 -0.0004051155 0.9997879 0.02059074 192 192 192 255 0.011782 0.978005
167.8682 -3.149883 149.0859 0.01515639 0.9991677 0.03787141 192 192 192 255 0.105062 0.676657
155.9854 -2.104815 134.1289 0.006794401 0.9999255 0.01014599 192 192 192 255 0.100497 0.682413
199.3018 -7.166189 0.517578 -0.04727045 0.5663731 -0.8227922 192 192 192 255 0.117139 0.733831
483.207 -2.102358 354.333 -0.09939136 0.9949092 -0.01664482 192 192 192 255 0.225523 0.827612
286.5459 -2.116185 171.3223 -0.03969168 0.999184 0.007487858 192 192 192 255 0.150658 0.6681
95.25293 -2.1624 362.3262 0.2202338 0.9753262 -0.01536233 192 192 192 255 0.077164 0.594594
91.3623 -0.181479 367.9268 0.2476903 0.9688269 -0.004889712 192 192 192 255 0.047012 0.82142
9.161133 0.006517 185.7139 0.1216784 0.9924791 -0.01340201 192 192 192 255 0.009564 0.904429
16.81348 -2.006917 182.0938 0.1254254 0.9920977 -0.003253237 192 192 192 255 0.013051 0.906078
398.9746 -2.099962 180.3447 0.02833362 0.9994086 0.01948809 192 192 192 255 0.193853 0.664627
133.2422 -2.09511 19.53125 0.03986853 0.997967 0.04972343 192 192 192 255 0.091759 0.726514
197.4229 -2.100059 262.8037 0.0007510706 0.9999765 -0.006824728 192 192 192 255 0.116417 0.632894
30.67969 0.002125 477.6104 -0.001078382 0.9976127 0.0690492 192 192 192 255 0.019368 0.771452
16.79785 -1.322397 491.915 -0.204873 0.9034145 0.3766555 192 192 192 255 0.047021 0.544724
195.7988 -2.10029 437.9521 0.004035979 0.9998887 -0.0143629 192 192 192 255 0.115793 0.565491
23.62598 -0.015385 9.517578 0.009551424 0.9999536 -0.001301142 192 192 192 255 0.016154 0.984697
322.6963 -0.982125 426.249 -0.03029579 0.9990171 -0.03235706 192 192 192 255 0.164547 0.569995
12.8584 -0.891769 107.6738 -0.1355588 0.9885008 0.06700777 192 192 192 255 0.011249 0.939981
171.2754 -2.102424 40.96582 -0.003439525 0.9998263 -0.01831681 192 192 192 255 0.106371 0.718265
152.7803 -4.981094 0.84375 0.07512575 0.7102636 -0.6999155 192 192 192 255 0.099266 0.733706
125.5059 -0.091637 0.415039 0.05303989 0.7263937 -0.6852291 192 192 192 255 0.062567 0.988844
365.3926 -2.101369 395.4111 -0.02013819 0.9988183 0.04423155 192 192 192 255 0.180951 0.581862
477.4033 -0.062398 490.1846 -0.01196039 0.9999267 -0.00185161 192 192 192 255 0.222879 0.765724
270.9043 -4.130084 177.166 -0.06094839 0.9979507 -0.01948657 192 192 192 255 0.144649 0.665851
190.2627 -3.138749 420.7256 -0.007766083 0.9998927 -0.01241914 192 192 192 255 0.113666 0.57212
85.01758 -1.832408 294.8623 0.005288733 0.9995244 0.03038389 192 192 192 255 0.073231 0.620557
125.5176 -2.100566 473.3867 -0.02059486 0.9977214 0.06424791 192 192 192 255 0.088791 0.551854
11.21484 -0.265166 481.7344 -0.2767449 0.9496854 0.1466628 192 192 192 255 0.044876 0.548642
483.834 -0.003861 27.48438 0.2157999 0.9759484 -0.03090601 192 192 192 255 0.225809 0.976512
471.8477 -0.235932 11.13379 -0.01285554 0.9966908 -0.08026401 192 192 192 255 0.220348 0.983961
83.99707 -0.141889 490.7217 0.06281667 0.997017 0.04484822 192 192 192 255 0.072839 0.545183
171.5938 -3.436461 176.96 0.03756908 0.9979764 0.05129914 192 192 192 255 0.106494 0.66593
95.01562 -2.016325 95.33203 0.1334127 0.9811823 0.1395794 192 192 192 255 0.048677 0.945603
499.5957 -22.78442 0.113281 0.5859995 -0.5487408 -0.5962284 192 192 192 255 0.232512 0.733987
135.4678 -2.453973 404.6582 0.03493142 0.9951345 -0.09212514 192 192 192 255 0.092614 0.578304
147.3096 -0.002844 77.02441 0.01876107 0.9945489 -0.1025701 192 192 192 255 0.0725 0.953944
164.9941 -0.077178 499.4873 -0.1133483 0.7715948 0.6259343 192 192 192 255 0.080557 0.761486
9.880859 -0.595572 46.92969 0.06659719 0.9969516 0.04064797 192 192 192 255 0.009892 0.967654
86.80078 -2.086874 431.6426 0.1014428 0.9834201 0.1503141 192 192 192 255 0.073916 0.567919
482.9121 -0.088836 499.4316 0.04332028 0.7294936 0.6826144 192 192 192 255 0.225389 0.761511
499.4521 -22.72641 499.5996 0.5713873 -0.5820529 0.5785595 192 192 192 255 0.232457 0.541767
3.62207 -22.9005 4.262695 -0.01299891 -0.9998736 -0.00916098 192 192 192 255 0.041959 0.73239
0.060547 -22.82659 321.6328 -0.7132792 -0.7008801 -1.175664e-05 192 192 192 255 0.040591 0.610255
229.5947 -3.167325 156.6592 -0.007467977 0.9934317 0.114183 192 192 192 255 0.128778 0.673742
351.002 -4.379621 405.3213 -0.02091814 0.9977018 0.06444821 192 192 192 255 0.175422 0.578048
499.5459 -2.390452 321.1816 0.7445224 0.6670727 -0.02646413 192 192 192 255 0.232493 0.610428
0.089844 -0.124028 455.9287 -0.7115363 0.690739 0.1288244 192 192 192 255 0.040602 0.558573
0.645508 -8.120415 129.6973 -0.8439693 0.5362799 -0.01094497 192 192 192 255 0.040815 0.684118
171.8838 -3.014044 406.2578 -0.00173936 0.999328 0.03661538 192 192 192 255 0.106605 0.577688
45.35449 -2.089413 19.70508 0.0743911 0.9970703 0.01780113 192 192 192 255 0.026053 0.980056
321.168 -0.875587 500.0107 -0.002330211 0.6440971 0.7649401 192 192 192 255 0.16396 0.541608
120.6445 -0.161834 408.7109 0.01362093 0.9690008 -0.246682 192 192 192 255 0.060352 0.80284
413.8848 -21.03975 500.0098 0.005485871 -0.4562885 0.889815 192 192 192 255 0.199582 0.541609
229.4951 -4.959683 166.6748 0.005835729 0.9975284 0.07002292 192 192 192 255 0.128739 0.669888
210.8525 -2.063811 404.0176 -0.01752102 0.9857779 -0.1671376 192 192 192 255 0.121577 0.57855
457.4863 -2.06703 480.5869 -0.08086781 0.9966408 -0.01294401 192 192 192 255 0.216334 0.549083
87.68652 -4.146786 323.0811 -0.02687808 0.9993078 -0.02571994 192 192 192 255 0.074257 0.609697
428.8906 -2.076916 211.8105 0.04320105 0.9984017 -0.03643829 192 192 192 255 0.205347 0.652518
469.7539 -1.362775 4.199219 0.1386828 0.8527715 -0.5035353 192 192 192 255 0.219394 0.98712
94.46777 -2.349344 339.54 0.01790749 0.9984801 -0.05212263 192 192 192 255 0.076862 0.603363
456.2109 -2.013904 19.06738 -0.09273688 0.9956426 0.009787159 192 192 192 255 0.215844 0.726693
237.709 -2.099009 101.8896 0.003835723 0.9996021 0.02794337 192 192 192 255 0.131895 0.69482
102.6777 -5.17043 499.9756 0.08384892 0.6090325 0.7887008 192 192 192 255 0.080016 0.541622
205.6797 -3.638096 174.8193 0.01632135 0.9982007 0.05769821 192 192 192 255 0.119589 0.666754
163.8945 -2.053349 480.6631 -0.0455015 0.9979504 -0.04499734 192 192 192 255 0.103536 0.549054
223.6514 -4.488962 180.4775 -0.01213354 0.9989842 -0.04339823 192 192 192 255 0.126494 0.664576
47.35938 -6.735097 498.9219 -0.09723804 0.02018684 0.9950565 192 192 192 255 0.058763 0.542027
252.2715 -0.443921 10.21973 -0.02503872 0.9993758 0.02492294 192 192 192 255 0.13749 0.730098
18.96191 -2.113812 41.51758 0.01873991 0.9960013 0.08735122 192 192 192 255 0.014029 0.970119
77.19629 -22.79339 499.8447 -0.00118744 -0.6834441 0.7300019 192 192 192 255 0.070226 0.541672
293.9541 -2.100232 122.3311 -0.005820307 0.999963 0.006340422 192 192 192 255 0.153504 0.686953
216.4229 -2.104912 225.123 -0.03580015 0.9993139 -0.009498843 192 192 192 255 0.123717 0.647395
370.7773 -2.559816 430.9434 -0.0466216 0.9988918 -0.00644433 192 192 192 255 0.18302 0.568188
470.9492 -2.003961 449.6914 0.07995441 0.9929928 -0.08702146 192 192 192 255 0.219939 0.784171
421.248 0.000795 87.55566 0.02336694 0.9996728 0.01040508 192 192 192 255 0.197297 0.949146
431.0781 -2.102669 188.5869 -0.06371753 0.997968 5.831153e-05 192 192 192 255 0.206187 0.661455
489.248 -10.14223 2.801758 -0.001595319 0.5362586 -0.8440522 192 192 192 255 0.228536 0.732952
221.3516 -3.617175 2.033203 -0.08133436 0.8526679 -0.5160835 192 192 192 255 0.125611 0.733248
499.9951 -0.884594 483.8672 0.7567016 0.6518733 0.04963657 192 192 192 255 0.232665 0.547821
497.7695 -2.568582 497.626 0.4538332 0.7635447 0.4593855 192 192 192 255 0.23181 0.542526
151.0029 -22.70553 499.8262 -0.0001871096 -0.6896323 0.7241598 192 192 192 255 0.098583 0.541679
30.62305 -0.842883 486.7822 -0.000837524 0.9986578 0.0517885 192 192 192 255 0.052333 0.546699
0.270508 -9.611201 489.5557 -0.8224206 0.5070766 0.2578715 192 192 192 255 0.040671 0.545632
490.4688 -1.615343 295.6621 0.1614528 0.9865926 0.02383446 192 192 192 255 0.229005 0.620249
405.8096 -0.122203 91.34375 -0.06928037 0.992863 0.09707366 192 192 192 255 0.190264 0.94742
77.32324 -0.002552 412.1416 -0.02517226 0.999608 -0.01225346 192 192 192 255 0.040617 0.801277
304.9619 -0.147876 408.6191 0.553161 0.8316222 -0.04916722 192 192 192 255 0.144321 0.802882
491.7803 -0.045635 388.085 -0.1213273 0.9926125 5.470964e-05 192 192 192 255 0.229429 0.812236
403.5469 -2.042472 95.34766 -0.2525675 0.9516746 0.174714 192 192 192 255 0.19561 0.697337
157.7734 -5.132064 500.0039 -0.1137648 0.2564635 0.9598355 192 192 192 255 0.101184 0.541611
495.3047 -22.90055 3.78125 0.01005451 -0.9998775 -0.01199726 192 192 192 255 0.230863 0.732575
356.9795 -22.81975 0.081055 -0.0004209198 -0.7134635 -0.7006922 192 192 192 255 0.177719 0.733999
216.9434 -6.78771 0.007813 -0.02584623 0.2969918 -0.9545302 192 192 192 255 0.123917 0.734027
0.051758 -0.173627 42.0791 -0.6940635 0.7165639 0.06937003 192 192 192 255 0.040587 0.717837
89.29102 0.033125 272.4717 0.1102526 0.9841928 0.1385961 192 192 192 255 0.046069 0.864905
89.56152 0.016783 90.0625 0.04641272 0.9978995 0.04519427 192 192 192 255 0.046192 0.948004
429.6982 -2.102174 330.2314 0.1187135 0.9929278 -0.001226164 192 192 192 255 0.205657 0.606946
95.47266 -2.694738 308.5859 0.04527449 0.9935998 0.1034871 192 192 192 255 0.077248 0.615276
140.6504 -0.748841 415.9131 0.03055259 0.9994711 -0.011144 192 192 192 255 0.094605 0.573972
497.1807 -2.106493 235.5938 0.6203951 0.7819589 0.06041734 192 192 192 255 0.231584 0.643366
255.6055 -3.189564 181.7236 -0.0155311 0.9849187 -0.1723193 192 192 192 255 0.138771 0.664097
87.00391 -0.086552 423.3984 0.04036144 0.9946855 0.09471902 192 192 192 255 0.045027 0.796149
21.67285 0.016241 468.252 -0.09102408 0.9943692 -0.05426291 192 192 192 255 0.015264 0.775715
316.6592 -2.101877 391.9297 0.01501087 0.9996418 0.02215791 192 192 192 255 0.162228 0.583202
250.4707 -0.137208 91.27539 -0.0407103 0.9729834 0.2272579 192 192 192 255 0.119497 0.947452
94.88477 -2.031622 158.9531 0.180522 0.9835709 0.0001988019 192 192 192 255 0.048617 0.91662
421.5244 -0.055913 226.0654 0.08524705 0.9959857 -0.02730351 192 192 192 255 0.197423 0.886046
411.0488 -2.055084 68.33594 -0.07187071 0.9884846 -0.133165 192 192 192 255 0.198492 0.707732
218.3545 -0.163384 408.5518 -0.02421333 0.9812328 -0.1913007 192 192 192 255 0.104866 0.802912
499.1611 -0.082629 181.3115 0.6508974 0.7583351 0.03550483 192 192 192 255 0.232791 0.906434
0.038086 -17.66208 499.6777 -0.681066 0.1985432 0.7047906 192 192 192 255 0.040582 0.541737
170.9609 -2.100183 260.8779 3.211921e-06 1 -0.0001136098 192 192 192 255 0.106251 0.633635
49.84473 -1.082144 499.9854 -0.1153505 0.6267331 0.770649 192 192 192 255 0.028099 0.761259
494.7822 -0.001816 483.8018 0.09768216 0.9946173 0.03456397 192 192 192 255 0.230797 0.768631
180.1357 -5.094497 196.3975 0.02872719 0.9993986 -0.01942224 192 192 192 255 0.109776 0.65845
499.4785 -22.7906 398.1338 0.7058252 -0.7083861 0.0002511097 192 192 192 255 0.232467 0.580814
328.3018 -0.001215 9.31543 -0.002164969 0.994614 0.1036256 192 192 192 255 0.154954 0.984789
248.9668 -2.048904 95.44531 -0.03003788 0.9832935 0.1795315 192 192 192 255 0.118812 0.945552
450.2832 -2.103731 157.292 -0.0001920971 0.9999999 -0.0004079612 192 192 192 255 0.213566 0.673499
0.09668 -0.027982 183.5615 -0.7001417 0.7122548 -0.04994744 192 192 192 255 0.040605 0.663389
405.8887 -1.518944 217.6816 -0.0773574 0.9965045 -0.03153819 192 192 192 255 0.19651 0.650259
67.83887 -3.024485 311.1309 0.06738766 0.9972352 0.03131839 192 192 192 255 0.066631 0.614296
409.3301 -0.053475 307.4277 -0.15344 0.9881577 -0.0007465702 192 192 192 255 0.191867 0.848981
402.793 -2.102046 403.7617 -0.1119175 0.9440271 -0.3103021 192 192 192 255 0.19532 0.578649
150.0684 -2.166911 428.9072 0.01610557 0.9997175 0.01748364 192 192 192 255 0.073757 0.793639
0.110352 -22.78691 0.155273 -0.5803269 -0.5698968 -0.5817547 192 192 192 255 0.04061 0.733971
14.53809 -22.81603 0.108398 -0.001297622 -0.6968873 -0.7171795 192 192 192 255 0.046153 0.733989
198.043 -2.976907 226.6055 -0.005870826 0.9988711 -0.04713847 192 192 192 255 0.116655 0.646824
69.8584 -2.048745 280.2744 -0.01960721 0.999598 0.02047823 192 192 192 255 0.067407 0.626171
77.3457 0.003442 86.07031 -0.08980173 0.9953081 0.03602129 192 192 192 255 0.040627 0.949823
499.4248 -22.76183 87.66895 0.6898566 -0.723945 0.001222972 192 192 192 255 0.232446 0.700292
128.5264 -2.100191 221.9521 0.005249508 0.9999851 -0.001513211 192 192 192 255 0.089947 0.648615
485.7686 -1.791536 459.6074 -0.07861421 0.9963087 -0.03447924 192 192 192 255 0.22669 0.779653
87.38379 -2.094138 68.18848 0.09152085 0.9854832 -0.1429927 192 192 192 255 0.07414 0.707789
178.8281 -1.243763 427.6787 0.02097219 0.9997736 -0.003586839 192 192 192 255 0.109273 0.569444
69.94043 -2.0421 88.08008 -0.1483956 0.986044 0.07547123 192 192 192 255 0.067439 0.700134
179.0391 -22.8237 0.073242 -0.0001135439 -0.7060767 -0.7081353 192 192 192 255 0.109354 0.734002
0.000977 -3.929447 456.748 -0.9893262 0.08677176 0.1170659 192 192 192 255 0.040568 0.558257
12.05566 -8.964228 499.6191 -0.2655323 0.4839977 0.8338099 192 192 192 255 0.045199 0.541759
302.1895 -0.100475 423.4141 0.07721247 0.9910355 0.1090271 192 192 192 255 0.143058 0.796142
420.8418 0.002561 412.4941 0.0259004 0.9996131 -0.01013727 192 192 192 255 0.197112 0.801116
197.2607 -3.157914 160.3936 0.01033239 0.9977652 0.06601462 192 192 192 255 0.116355 0.672305
155.3291 -2.111072 217.4023 0.01746929 0.9992542 -0.0344386 192 192 192 255 0.100245 0.650366
342.1885 -0.120495 91.41211 -0.0005227739 0.9697911 0.2439365 192 192 192 255 0.16128 0.947389
429.623 -2.112923 149.9219 0.0543306 0.9982591 0.02295699 192 192 192 255 0.205629 0.676335
181.4629 -4.245746 6.814453 0.04301825 0.9975601 -0.05498374 192 192 192 255 0.110285 0.731408
301.5762 -2.100918 188.123 -0.005301609 0.9999847 -0.001592592 192 192 192 255 0.156433 0.661634
491.6104 -0.101249 199.1104 0.1268203 0.9916664 0.02268111 192 192 192 255 0.229352 0.898326
362.9893 -2.729889 403.8965 -0.1263815 0.9919705 0.004709459 192 192 192 255 0.180028 0.578597
76.91602 -1.768167 497.667 0.04475508 0.6630154 0.7472667 192 192 192 255 0.040431 0.762315
0.084961 -22.77498 499.5107 -0.5774543 -0.5786661 0.5759273 192 192 192 255 0.0406 0.541801
499.9785 -6.652887 499.7578 0.6968185 0.209967 0.6858265 192 192 192 255 0.232659 0.541706
0.0625 -22.83175 484.8643 -0.7120919 -0.7020862 0.0003901009 192 192 192 255 0.040591 0.547437
489.7783 -0.586916 355.2607 -0.06987482 0.9971697 -0.02775001 192 192 192 255 0.22874 0.597313
213.7363 -2.070912 68.1875 -0.0151197 0.9946824 -0.1018743 192 192 192 255 0.122685 0.707789
4.954102 -7.363697 150.3809 -0.7590724 0.6429232 -0.1022687 192 192 192 255 0.042471 0.676159
13.11035 -1.183834 134.8018 -0.1382806 0.9894391 0.04346137 192 192 192 255 0.045604 0.682154
409.7363 0.019839 135.8496 -0.1600224 0.9870671 0.009561843 192 192 192 255 0.192053 0.927145
215.6865 -0.086867 76.52246 -0.04100533 0.9977024 -0.0539309 192 192 192 255 0.10365 0.954172
499.999 -12.12198 249.9785 0.9741207 0.2232872 0.03509774 192 192 192 255 0.232667 0.63783
231.8252 -2.628591 194.1328 -0.03347094 0.9963798 -0.07814743 192 192 192 255 0.129635 0.659321
0.072266 -22.82598 144.3877 -0.7736593 -0.6334164 0.0153245 192 192 192 255 0.040595 0.678465
301.4414 -22.77209 499.8291 0.0004949608 -0.6980838 0.716016 192 192 192 255 0.156381 0.541678
18.96191 -2.113812 41.51758 0.01873991 0.9960013 0.08735122 192 192 192 255 0.047853 0.718053
403.5469 -2.042472 95.34766 -0.2525675 0.9516746 0.174714 192 192 192 255 0.189233 0.945596
451.8525 -0.123653 0.299805 0.04113811 0.7853493 -0.6176845 192 192 192 255 0.211239 0.988897
457.4863 -2.06703 480.5869 -0.08086781 0.9966408 -0.01294401 192 192 192 255 0.213806 0.770096
429.6982 -2.102174 330.2314 0.1187135 0.9929278 -0.001226164 192 192 192 255 0.201146 0.838592
163.8945 -2.053349 480.6631 -0.0455015 0.9979504 -0.04499734 192 192 192 255 0.080056 0.770061
411.2119 -2.093385 431.0684 -0.06748082 0.9889295 0.132155 192 192 192 255 0.198555 0.56814
456.2109 -2.013904 19.06738 -0.09273688 0.9956426 0.009787159 192 192 192 255 0.213225 0.980347
16.80762 -2.024176 459.5732 0.07063869 0.9957342 -0.05936006 192 192 192 255 0.013048 0.779669
11.21484 -0.265166 481.7344 -0.2767449 0.9496854 0.1466628 192 192 192 255 0.0105 0.769573
489.7783 -0.586916 355.2607 -0.06987482 0.9971697 -0.02775001 192 192 192 255 0.228517 0.82719
483.6064 -2.100525 153.5449 -0.1218695 0.9925461 -0.0001079811 192 192 192 255 0.225705 0.919084
483.3984 -2.099626 40.17676 -0.09715589 0.9885982 0.1150406 192 192 192 255 0.22561 0.97073
0.115234 -0.123982 0.300781 -0.5781671 0.5779598 -0.5759213 192 192 192 255 0.005443 0.988896
45.35449 -2.089413 19.70508 0.0743911 0.9970703 0.01780113 192 192 192 255 0.057993 0.726447
133.2422 -2.09511 19.53125 0.03986853 0.997967 0.04972343 192 192 192 255 0.066091 0.980136
125.5059 -0.091637 0.415039 0.05303989 0.7263937 -0.6852291 192 192 192 255 0.088787 0.733871
124.8232 -0.006678 9.495117 0.04697204 0.9952872 0.08483466 192 192 192 255 0.088524 0.730376
305.1748 -2.104191 431.624 0.02782903 0.9968284 0.07455641 192 192 192 255 0.144418 0.792401
87.38379 -2.094138 68.18848 0.09152085 0.9854832 -0.1429927 192 192 192 255 0.0452 0.957969
421.5244 -0.055913 226.0654 0.08524705 0.9959857 -0.02730351 192 192 192 255 0.202517 0.647032
428.8906 -2.076916 211.8105 0.04320105 0.9984017 -0.03643829 192 192 192 255 0.200779 0.89254
411.0488 -2.055084 68.33594 -0.07187071 0.9884846 -0.133165 192 192 192 255 0.19265 0.957902
414.0752 -0.001407 422.9238 -0.04078384 0.9958479 0.08138544 192 192 192 255 0.199655 0.571274
95.25293 -2.1624 362.3262 0.2202338 0.9753262 -0.01536233 192 192 192 255 0.048785 0.823971
16.79785 -1.322397 491.915 -0.204873 0.9034145 0.3766555 192 192 192 255 0.013043 0.764935
30.62305 -0.842883 486.7822 -0.000837524 0.9986578 0.0517885 192 192 192 255 0.019342 0.767273
69.8584 -2.048745 280.2744 -0.01960721 0.999598 0.02047823 192 192 192 255 0.037216 0.861351
94.92676 -2.004791 276.4102 0.06457914 0.9964783 0.05348343 192 192 192 255 0.048636 0.863111
83.99707 -0.141889 490.7217 0.06281667 0.997017 0.04484822 192 192 192 255 0.043657 0.765479
94.46777 -2.349344 339.54 0.01790749 0.9984801 -0.05212263 192 192 192 255 0.048427 0.834351
86.80078 -2.086874 431.6426 0.1014428 0.9834201 0.1503141 192 192 192 255 0.044934 0.792393
406.3027 -2.526555 206.54 0.133941 0.988284 -0.0731753 192 192 192 255 0.190488 0.894941
405.8887 -1.518944 217.6816 -0.0773574 0.9965045 -0.03153819 192 192 192 255 0.1903 0.889866
16.81348 -2.006917 182.0938 0.1254254 0.9920977 -0.003253237 192 192 192 255 0.047027 0.663954
491.6104 -0.101249 199.1104 0.1268203 0.9916664 0.02268111 192 192 192 255 0.229444 0.657406
150.0684 -2.166911 428.9072 0.01610557 0.9997175 0.01748364 192 192 192 255 0.098224 0.568972
0.051758 -0.173627 42.0791 -0.6940635 0.7165639 0.06937003 192 192 192 255 0.005415 0.969864
218.3545 -0.163384 408.5518 -0.02421333 0.9812328 -0.1913007 192 192 192 255 0.124459 0.576805
12.8584 -0.891769 107.6738 -0.1355588 0.9885008 0.06700777 192 192 192 255 0.045508 0.692594
306.4082 -2.057559 404.0059 0.06644174 0.9935442 -0.09195339 192 192 192 255 0.14498 0.804983
213.7363 -2.070912 68.1875 -0.0151197 0.9946824 -0.1018743 192 192 192 255 0.102762 0.95797
407.873 -0.700685 162.1797 -0.04334167 0.9981236 0.04325271 192 192 192 255 0.197272 0.671618
499.1611 -0.082629 181.3115 0.6508974 0.7583351 0.03550483 192 192 192 255 0.232345 0.664255
140.6504 -0.748841 415.9131 0.03055259 0.9994711 -0.011144 192 192 192 255 0.069466 0.799559
205.5283 -2.098216 431.6279 -0.04563466 0.9972109 0.0590576 192 192 192 255 0.119531 0.567925
499.2314 -0.082437 66.3623 0.6792881 0.7336842 -0.01659207 192 192 192 255 0.232372 0.708492
491.7705 -0.076161 47.58398 0.1151995 0.9900393 -0.08094034 192 192 192 255 0.229506 0.715718
483.834 -0.003861 27.48438 0.2157999 0.9759484 -0.03090601 192 192 192 255 0.226456 0.723453
252.2715 -0.443921 10.21973 -0.02503872 0.9993758 0.02492294 192 192 192 255 0.120317 0.984377
253.1025 -0.236941 0.447266 -0.0346134 0.7442468 -0.6670071 192 192 192 255 0.120696 0.988829
429.623 -2.112923 149.9219 0.0543306 0.9982591 0.02295699 192 192 192 255 0.201112 0.920734
482.9121 -0.088836 499.4316 0.04332028 0.7294936 0.6826144 192 192 192 255 0.226102 0.541831
499.5459 -2.390452 321.1816 0.7445224 0.6670727 -0.02646413 192 192 192 255 0.232967 0.842715
299.1348 -0.32507 0.498047 -0.004308615 0.7337447 -0.6794116 192 192 192 255 0.155495 0.733839
497.1865 -1.53163 347.9355 0.5516979 0.8340054 -0.008021787 192 192 192 255 0.231586 0.600132
69.56055 -2.105648 339.9004 -0.04947955 0.9968565 -0.06187947 192 192 192 255 0.067293 0.603225
77.63867 -0.007155 351.4326 -0.07830089 0.9955253 -0.05289907 192 192 192 255 0.070396 0.598787
172.7773 -2.099431 102.2246 0.0135051 0.9997483 0.01791538 192 192 192 255 0.084102 0.942463
483.207 -2.102358 354.333 -0.09939136 0.9949092 -0.01664482 192 192 192 255 0.226215 0.59767
402.8223 -2.101634 247.8945 -0.1243273 0.9922373 -0.00279943 192 192 192 255 0.188903 0.876102
483.3027 -0.132971 12.13086 0.2904098 0.9262064 -0.2404246 192 192 192 255 0.226252 0.729362
398.9746 -2.099962 180.3447 0.02833362 0.9994086 0.01948809 192 192 192 255 0.18715 0.906875
76.91602 -1.768167 497.667 0.04475508 0.6630154 0.7472667 192 192 192 255 0.070119 0.54251
210.8525 -2.063811 404.0176 -0.01752102 0.9857779 -0.1671376 192 192 192 255 0.101448 0.804978
187.4541 -2.020458 76.89746 0.0219821 0.9971938 0.07156455 192 192 192 255 0.112587 0.704437
163.3301 -1.33075 90.54492 0.06178364 0.9978859 0.02016628 192 192 192 255 0.103319 0.699185
499.1543 -0.095094 388.459 0.6493818 0.7603869 -0.01072169 192 192 192 255 0.232342 0.584538
248.9668 -2.048904 95.44531 -0.03003788 0.9832935 0.1795315 192 192 192 255 0.13622 0.6973
370.6338 -0.346167 408.4473 -0.1378986 0.9809008 -0.1371778 192 192 192 255 0.174239 0.80296
3.212891 -1.996408 58.0791 -0.5755413 0.817745 0.006737479 192 192 192 255 0.006855 0.962575
15.21387 -1.980882 147.0596 -0.1960022 0.9804525 -0.01720407 192 192 192 255 0.012322 0.922038
469.7539 -1.362775 4.199219 0.1386828 0.8527715 -0.5035353 192 192 192 255 0.221047 0.732414
135.4678 -2.453973 404.6582 0.03493142 0.9951345 -0.09212514 192 192 192 255 0.067105 0.804686
2.15332 -1.588314 82.72656 -0.6009793 0.7987788 0.02786359 192 192 192 255 0.006372 0.951346
402.793 -2.102046 403.7617 -0.1119175 0.9440271 -0.3103021 192 192 192 255 0.188889 0.805095
426.332 -2.21805 170.3232 -0.01640889 0.9989263 0.04332581 192 192 192 255 0.199613 0.91144
0.09668 -0.027982 183.5615 -0.7001417 0.7122548 -0.04994744 192 192 192 255 0.005435 0.905409
211.3271 -0.083121 423.2734 -0.06853335 0.9943049 0.08161502 192 192 192 255 0.121759 0.57114
321.168 -0.875587 500.0107 -0.002330211 0.6440971 0.7649401 192 192 192 255 0.151704 0.761247
164.9941 -0.077178 499.4873 -0.1133483 0.7715948 0.6259343 192 192 192 255 0.103958 0.54181
237.709 -2.099009 101.8896 0.003835723 0.9996021 0.02794337 192 192 192 255 0.113683 0.942616
49.84473 -1.082144 499.9854 -0.1153505 0.6267331 0.770649 192 192 192 255 0.059718 0.541618
302.1895 -0.100475 423.4141 0.07721247 0.9910355 0.1090271 192 192 192 255 0.156669 0.571086
89.72754 0.005936 409.7432 0.01880789 0.9997199 -0.0143714 192 192 192 255 0.075041 0.576347
470.9492 -2.003961 449.6914 0.07995441 0.9929928 -0.08702146 192 192 192 255 0.221506 0.560973
500.0146 -1.654352 423.8369 0.7905551 0.6123815 -0.003397448 192 192 192 255 0.23318 0.795949
499.9951 -0.884594 483.8672 0.7567016 0.6518733 0.04963657 192 192 192 255 0.233171 0.768601
95.01562 -2.016325 95.33203 0.1334127 0.9811823 0.1395794 192 192 192 255 0.077072 0.697343
94.88477 -2.031622 158.9531 0.180522 0.9835709 0.0001988019 192 192 192 255 0.077022 0.67286
77.32324 -0.002552 412.1416 -0.02517226 0.999608 -0.01225346 192 192 192 255 0.070275 0.575424
69.94043 -2.0421 88.08008 -0.1483956 0.986044 0.07547123 192 192 192 255 0.037253 0.948907
483.7334 -2.072143 249.0811 0.002287315 0.9999065 0.01347814 192 192 192 255 0.225763 0.875561
0.089844 -0.124028 455.9287 -0.7115363 0.690739 0.1288244 192 192 192 255 0.005432 0.781329
485.7686 -1.791536 459.6074 -0.07861421 0.9963087 -0.03447924 192 192 192 255 0.2272 0.557157
420.8418 0.002561 412.4941 0.0259004 0.9996131 -0.01013727 192 192 192 255 0.202255 0.575288
421.248 0.000795 87.55566 0.02336694 0.9996728 0.01040508 192 192 192 255 0.202411 0.700336
3 83 63 129 
3 73 130 87 
3 130 179 87 
3 159 235 177 
3 169 178 158 
3 2 4 215 
3 116 135 226 
3 52 136 244 
3 248 204 219 
3 27 165 0 
3 208 250 226 
3 178 251 240 
3 177 235 45 
3 103 115 144 
3 103 127 115 
3 157 126 106 
3 224 252 52 
3 88 157 218 
3 25 1 122 
3 23 146 185 
3 61 2 214 
3 104 88 8 
3 75 233 5 
3 16 193 163 
3 253 232 193 
3 254 205 147 
3 181 27 4 
3 49 15 255 
3 256 195 229 
3 60 81 236 
3 115 153 144 
3 139 178 240 
3 49 255 111 
3 255 257 111 
3 38 33 248 
3 202 162 229 
3 171 131 199 
3 177 45 98 
3 98 45 192 
3 258 54 144 
3 224 24 217 
3 45 148 94 
3 150 159 177 
3 90 7 220 
3 124 218 184 
3 184 218 183 
3 149 243 196 
3 118 16 163 
3 118 259 16 
3 10 28 174 
3 118 163 117 
3 200 9 45 
3 231 50 200 
3 159 150 46 
3 249 154 48 
3 260 96 261 
3 174 260 191 
3 124 184 20 
3 56 242 134 
3 262 92 221 
3 81 263 236 
3 235 31 45 
3 59 26 93 
3 111 42 128 
3 167 240 129 
3 51 103 144 
3 163 264 117 
3 81 264 263 
3 109 265 13 
3 8 138 104 
3 13 104 138 
3 266 222 99 
3 13 138 267 
3 268 269 65 
3 197 84 228 
3 175 197 228 
3 228 86 270 
3 192 143 6 
3 229 195 32 
3 98 192 110 
3 209 98 14 
3 8 218 124 
3 8 88 218 
3 271 8 124 
3 67 80 272 
3 273 195 256 
3 237 133 161 
3 274 247 16 
3 161 258 275 
3 161 54 258 
3 190 17 101 
3 95 10 174 
3 276 95 17 
3 18 170 119 
3 91 234 37 
3 2 268 4 
3 3 166 156 
3 254 39 205 
3 156 166 37 
3 170 102 58 
3 191 277 278 
3 182 2 61 
3 202 49 111 
3 202 111 128 
3 265 88 104 
3 13 265 104 
3 183 279 280 
3 228 84 86 
3 107 222 243 
3 149 107 243 
3 178 22 158 
3 111 257 42 
3 42 257 125 
3 73 251 169 
3 82 22 178 
3 163 232 173 
3 163 173 41 
3 281 278 201 
3 282 10 95 
3 19 234 91 
3 213 190 283 
3 5 164 146 
3 23 5 146 
3 172 23 56 
3 70 161 275 
3 229 32 49 
3 195 284 285 
3 140 17 190 
3 97 96 260 
3 24 224 286 
3 102 199 227 
3 62 61 214 
3 79 34 36 
3 60 236 198 
3 85 287 78 
3 188 287 85 
3 33 188 248 
3 85 172 55 
3 25 122 0 
3 192 45 143 
3 187 288 137 
3 88 265 289 
3 88 289 126 
3 115 127 18 
3 253 77 246 
3 57 182 61 
3 143 137 290 
3 7 217 114 
3 230 120 203 
3 58 102 227 
3 291 71 245 
3 245 71 136 
3 105 29 51 
3 292 197 175 
3 117 264 81 
3 52 252 291 
3 244 136 250 
3 193 247 206 
3 274 293 247 
3 35 294 67 
3 203 11 231 
3 31 100 45 
3 216 100 31 
3 38 295 33 
3 82 151 22 
3 22 151 158 
3 34 89 120 
3 160 48 216 
3 78 5 23 
3 159 93 235 
3 55 172 47 
3 5 233 207 
3 5 207 164 
3 296 140 213 
3 140 190 213 
3 176 262 221 
3 260 261 191 
3 191 261 277 
3 142 152 154 
3 51 297 103 
3 103 297 113 
3 41 246 77 
3 46 44 132 
3 150 36 46 
3 298 1 299 
3 1 298 38 
3 159 59 93 
3 25 300 1 
3 43 118 117 
3 281 201 238 
3 38 248 122 
3 78 23 172 
3 39 301 205 
3 39 302 301 
3 99 65 269 
3 41 173 246 
3 303 163 41 
3 101 191 278 
3 304 139 240 
3 44 230 152 
3 36 34 44 
3 137 123 187 
3 305 262 12 
3 50 220 7 
3 50 9 200 
3 7 9 50 
3 9 7 186 
3 114 145 186 
3 306 27 181 
3 298 295 38 
3 26 132 142 
3 161 133 64 
3 47 83 129 
3 134 307 47 
3 145 308 309 
3 192 6 29 
3 210 217 24 
3 200 45 100 
3 30 124 53 
3 171 199 102 
3 53 124 20 
3 20 310 53 
3 51 54 105 
3 62 214 250 
3 23 185 311 
3 56 23 311 
3 14 98 110 
3 155 227 74 
3 58 227 155 
3 59 46 26 
3 26 46 132 
3 34 120 230 
3 40 62 71 
3 80 98 209 
3 133 192 29 
3 110 192 133 
3 234 108 65 
3 107 234 65 
3 312 211 285 
3 135 208 226 
3 164 67 146 
3 235 69 31 
3 103 113 223 
3 174 191 17 
3 17 95 174 
3 268 108 4 
3 179 219 204 
3 179 122 219 
3 294 98 67 
3 67 98 80 
3 216 72 100 
3 52 244 208 
3 313 25 165 
3 215 225 130 
3 73 158 74 
3 155 74 158 
3 76 90 220 
3 120 90 76 
3 288 127 103 
3 77 253 314 
3 19 91 4 
3 21 82 178 
3 69 160 31 
3 288 223 137 
3 151 119 315 
3 287 188 33 
3 316 197 292 
3 66 69 235 
3 108 268 65 
3 12 176 68 
3 317 318 79 
3 107 99 222 
3 65 99 107 
3 64 54 161 
3 54 51 144 
3 82 18 151 
3 319 63 83 
3 166 3 181 
3 166 91 37 
3 178 169 251 
3 89 90 120 
3 159 46 59 
3 91 166 181 
3 205 301 259 
3 56 311 242 
3 195 211 32 
3 165 25 0 
3 71 291 40 
3 320 150 177 
3 46 36 44 
3 276 282 95 
3 32 321 49 
3 27 0 4 
3 289 322 126 
3 97 323 96 
3 116 226 171 
3 165 324 313 
3 72 203 231 
3 191 101 17 
3 21 153 82 
3 70 237 161 
3 145 148 9 
3 296 325 140 
3 85 248 188 
3 210 308 145 
3 288 103 223 
3 64 105 54 
3 248 219 122 
3 126 326 106 
3 47 204 248 
3 212 14 110 
3 312 327 211 
3 199 131 241 
3 150 317 79 
3 328 303 77 
3 40 61 62 
3 112 189 66 
3 145 309 148 
3 157 88 126 
3 137 113 290 
3 186 7 114 
3 147 205 118 
3 96 329 261 
3 79 90 34 
3 48 69 249 
3 87 179 204 
3 158 73 169 
3 63 167 129 
3 47 307 83 
3 330 290 113 
3 45 94 123 
3 45 123 137 
3 35 67 164 
3 220 50 231 
3 11 76 231 
3 152 230 203 
3 293 30 247 
3 160 216 31 
3 147 118 43 
3 42 331 128 
3 47 129 204 
3 250 130 73 
3 131 250 73 
3 208 244 250 
3 47 56 134 
3 12 262 176 
3 73 87 251 
3 113 297 330 
3 113 137 223 
3 139 332 178 
3 240 141 129 
3 87 141 251 
3 44 152 142 
3 3 306 181 
3 19 108 234 
3 206 253 193 
3 2 215 214 
3 153 18 82 
3 115 18 153 
3 247 30 333 
3 334 58 155 
3 307 319 83 
3 226 131 171 
3 293 124 30 
3 293 271 124 
3 34 230 44 
3 324 165 27 
3 18 119 151 
3 120 11 203 
3 45 9 148 
3 93 112 66 
3 114 210 145 
3 118 205 259 
3 152 203 154 
3 71 62 250 
3 136 71 250 
3 29 6 335 
3 334 155 158 
3 26 112 93 
3 34 90 89 
3 227 199 239 
3 48 72 216 
3 48 203 72 
3 47 172 56 
3 94 336 123 
3 325 17 140 
3 142 154 112 
3 311 185 337 
3 149 156 107 
3 167 168 240 
3 146 67 272 
3 327 321 32 
3 168 304 240 
3 29 105 133 
3 224 52 286 
3 221 202 176 
3 85 78 172 
3 227 239 74 
3 292 175 228 
3 68 176 338 
3 338 176 202 
3 173 253 246 
3 154 249 189 
3 9 186 145 
3 126 322 326 
3 40 57 61 
3 85 55 248 
3 112 154 189 
3 151 315 158 
3 170 58 334 
3 332 21 178 
3 202 128 339 
3 167 304 168 
3 4 0 180 
3 180 122 179 
3 0 122 180 
3 180 179 130 
3 91 181 4 
3 101 278 190 
3 280 194 183 
3 183 194 184 
3 29 335 51 
3 11 120 76 
3 217 210 114 
3 189 69 66 
3 190 278 283 
3 25 313 300 
3 16 247 193 
3 20 121 310 
3 79 340 90 
3 90 340 341 
3 90 341 7 
3 259 274 16 
3 308 24 342 
3 308 210 24 
3 287 33 295 
3 229 49 202 
3 55 47 248 
3 206 247 333 
3 76 220 231 
3 189 249 69 
3 245 136 52 
3 154 203 48 
3 100 231 200 
3 110 133 237 
3 315 334 158 
3 343 279 218 
3 1 38 122 
3 204 129 87 
3 236 263 344 
3 239 73 74 
3 1 300 299 
3 207 233 164 
3 93 66 235 
3 195 285 211 
3 211 327 32 
3 338 202 339 
3 132 44 142 
3 214 215 130 
3 183 218 279 
3 19 4 108 
3 329 345 261 
3 121 184 194 
3 221 162 202 
3 311 337 346 
3 18 127 170 
3 143 45 137 
3 42 125 331 
3 271 138 8 
3 116 171 102 
3 156 37 107 
3 153 21 332 
3 157 343 218 
3 4 180 225 
3 4 225 215 
3 225 180 130 
3 323 329 96 
3 87 129 141 
3 185 347 337 
3 226 250 131 
3 72 231 100 
3 133 105 64 
3 253 173 232 
3 163 193 232 
3 37 234 107 
3 75 348 233 
3 110 237 212 
3 241 73 239 
3 199 241 239 
3 150 79 36 
3 131 73 241 
3 48 160 69 
3 233 35 164 
3 212 237 70 
3 291 245 52 
3 214 130 250 
3 26 142 112 
3 121 20 184 
3 303 41 77 
3 240 251 141 
