ply
format ascii 1.0
comment VCGLIB generated
comment TextureFile Dungeons_2_Texture_01_A.png
element vertex 38
property float x
property float y
property float z
property float nx
property float ny
property float nz
property uchar red
property uchar green
property uchar blue
property uchar alpha
property float texture_u
property float texture_v
element face 42
property list uchar int vertex_indices
end_header
18.16866 355.4782 -145.3238 -0.8458017 -0.5180949 -0.1272682 192 192 192 255 0.008001 0.547812
18.16829 299.8819 167.7485 -0.9780507 -0.1099355 -0.1770058 192 192 192 255 0.010581 0.991685
325.432 26.63013 2.699692 -0.3522452 -0.9253389 -0.1402547 192 192 192 255 0.686712 0.833395
71.44279 249.0374 -66.06529 -0.7780646 -0.5540594 -0.29603 192 192 192 255 0.174367 0.657556
18.16853 317.4974 9.292793 -0.8458109 -0.5180782 -0.1272751 192 192 192 255 0.009257 0.763873
18.16841 305.0839 84.3206 -0.9629099 -0.201292 -0.179683 192 192 192 255 0.009877 0.870619
240.844 63.26706 1.284416 -0.4494423 -0.8552502 -0.2579706 192 192 192 255 0.528999 0.779267
366.491 -6.1e-05 103.1272 -0.3095472 -0.9101294 -0.2754 192 192 192 255 0.695999 0.989548
262.3736 3.1e-05 161.5828 -0.455719 -0.832162 -0.3159536 192 192 192 255 0.484091 0.990208
18.16904 162.9326 172.6051 -0.6595303 -0.7059569 -0.2581565 192 192 192 255 0.196047 0.991107
43.86856 226.322 71.42781 -0.8250998 -0.4470742 -0.345449 192 192 192 255 0.124103 0.850518
145.1951 88.18994 111.0149 -0.491289 -0.8473567 -0.2015486 192 192 192 255 0.366033 0.898611
108.7773 121.5794 51.95737 -0.6675981 -0.6536697 -0.356411 192 192 192 255 0.302792 0.819074
253.07 39.33334 100.6322 -0.3698452 -0.8919641 -0.2600282 192 192 192 255 0.501983 0.906166
410.8503 17.1449 -1.074051 -0.1492107 -0.9688528 -0.1976373 192 192 192 255 0.848272 0.901375
436.0039 -9.2e-05 52.47589 -0.1630384 -0.970343 -0.1784741 192 192 192 255 0.853953 0.989055
483.5983 6.1e-05 -0.364044 -0.176767 -0.9712888 -0.1592215 192 192 192 255 0.978266 0.956073
480.5231 3.1e-05 26.1633 -0.176767 -0.9712888 -0.1592215 192 192 192 255 0.952578 0.988747
162.6157 136.1641 -24.00281 -0.5359986 -0.6733725 -0.5091906 192 192 192 255 0.368176 0.724072
18.16866 355.4782 -145.3238 0.8458017 0.5180949 0.1272682 192 192 192 255 0.008001 0.547812
18.16829 299.8819 167.7485 0.9780507 0.1099355 0.1770058 192 192 192 255 0.010581 0.991685
325.432 26.63013 2.699692 0.3522452 0.9253389 0.1402547 192 192 192 255 0.686712 0.833395
71.44279 249.0374 -66.06529 0.7780646 0.5540594 0.29603 192 192 192 255 0.174367 0.657556
18.16853 317.4974 9.292793 0.8458109 0.5180782 0.1272751 192 192 192 255 0.009257 0.763873
18.16841 305.0839 84.3206 0.9629099 0.201292 0.179683 192 192 192 255 0.009877 0.870619
240.844 63.26706 1.284416 0.4494423 0.8552502 0.2579706 192 192 192 255 0.528999 0.779267
366.491 -6.1e-05 103.1272 0.3095472 0.9101294 0.2754 192 192 192 255 0.695999 0.989548
262.3736 3.1e-05 161.5828 0.455719 0.832162 0.3159536 192 192 192 255 0.484091 0.990208
18.16904 162.9326 172.6051 0.6595303 0.7059569 0.2581565 192 192 192 255 0.196047 0.991107
43.86856 226.322 71.42781 0.8250998 0.4470742 0.345449 192 192 192 255 0.124103 0.850518
145.1951 88.18994 111.0149 0.491289 0.8473567 0.2015486 192 192 192 255 0.366033 0.898611
108.7773 121.5794 51.95737 0.6675981 0.6536697 0.356411 192 192 192 255 0.302792 0.819074
253.07 39.33334 100.6322 0.3698452 0.8919641 0.2600282 192 192 192 255 0.501983 0.906166
410.8503 17.1449 -1.074051 0.1492107 0.9688528 0.1976373 192 192 192 255 0.848272 0.901375
436.0039 -9.2e-05 52.47589 0.1630384 0.970343 0.1784741 192 192 192 255 0.853953 0.989055
483.5983 6.1e-05 -0.364044 0.176767 0.9712888 0.1592215 192 192 192 255 0.978266 0.956073
480.5231 3.1e-05 26.1633 0.176767 0.9712888 0.1592215 192 192 192 255 0.952578 0.988747
162.6157 136.1641 -24.00281 0.5359986 0.6733725 0.5091906 192 192 192 255 0.368176 0.724072
3 0 3 4 
3 11 13 8 
3 12 18 6 
3 7 2 14 
3 7 14 15 
3 8 13 7 
3 5 10 9 
3 5 9 1 
3 4 3 10 
3 4 10 5 
3 9 11 8 
3 11 12 6 
3 9 10 12 
3 10 3 12 
3 11 6 13 
3 7 13 2 
3 15 14 16 
3 15 16 17 
3 2 13 6 
3 12 3 18 
3 9 12 11 
3 19 23 22 
3 30 27 32 
3 31 25 37 
3 26 34 33 
3 26 33 21 
3 27 26 32 
3 24 20 28 
3 24 28 29 
3 23 24 29 
3 23 29 22 
3 28 27 30 
3 30 25 31 
3 28 31 29 
3 29 31 22 
3 30 32 25 
3 26 21 32 
3 34 36 35 
3 34 35 33 
3 21 25 32 
3 31 37 22 
3 28 30 31 
