ply
format ascii 1.0
comment VCGLIB generated
comment TextureFile Dungeons_2_Texture_01_A.png
element vertex 204
property float x
property float y
property float z
property float nx
property float ny
property float nz
property uchar red
property uchar green
property uchar blue
property uchar alpha
property float texture_u
property float texture_v
element face 203
property list uchar int vertex_indices
end_header
30.61743 427.6974 31.19531 0.7335778 -0.322304 0.5983174 192 192 192 255 0.016465 0.704802
0.000122 390.6668 31.19531 -0.8697873 -0.2961415 0.3946775 192 192 192 255 0.002065 0.687385
30.61743 500 31.19531 0.6166352 0.7071068 0.3460651 192 192 192 255 0.016465 0.739053
24.46362 438.1332 42.16045 0.5467703 -0.1077308 0.830323 192 192 192 255 0.013571 0.959711
0.000122 401.1934 42.16045 0.1043053 -0.382149 0.9181953 192 192 192 255 0.002065 0.942336
24.46362 500 42.16045 0.4371859 0.5013291 0.7466845 192 192 192 255 0.013571 0.989053
499.9999 390.6668 31.19531 -0.2045137 -0.706136 0.6778983 192 192 192 255 0.237238 0.687385
469.3824 427.6974 31.19531 -0.8085219 -0.1729289 0.5624838 192 192 192 255 0.222837 0.704802
469.3824 500 31.19531 -0.6010152 0.6978092 0.3896706 192 192 192 255 0.222837 0.739053
499.9999 401.1934 42.16045 0.6390321 -0.2587293 0.7243599 192 192 192 255 0.237238 0.692336
475.5366 430.7809 42.16045 -0.497743 -0.2463677 0.8315978 192 192 192 255 0.225732 0.706253
475.5366 500 42.16045 -0.001934993 0.002246625 0.9999956 192 192 192 255 0.225732 0.739053
500 500 42.16045 0.001152237 0.001152236 0.9999987 192 192 192 255 0.237238 0.739054
500 500 31.19531 0.7071072 0.7071064 3.98119e-07 192 192 192 255 0.237238 0.739054
0.000122 500 31.19531 -0.7071066 0.707107 3.734746e-06 192 192 192 255 0.002065 0.989053
0.000244 500 42.16045 -0.5773492 0.5773494 0.5773522 192 192 192 255 0.002065 0.989053
64.15401 73.99417 42.16045 0.2397133 0.443705 0.8635181 192 192 192 255 0.032239 0.538711
83.43406 42.09052 42.16045 0.0005651557 0.0002618962 0.9999998 192 192 192 255 0.041307 0.526452
63.22339 84.52074 31.19531 0.3412542 0.6316552 0.6961015 192 192 192 255 0.031801 0.54339
93.84094 47.49014 31.19531 0.7387803 0.1715824 0.6517386 192 192 192 255 0.046202 0.525973
93.84094 0 31.19531 0.5439079 -0.700151 0.4625503 192 192 192 255 0.046202 0.519639
85.73665 0 42.16045 0.000421959 -0.0005431712 0.9999998 192 192 192 255 0.042391 0.519796
305.4928 368.5334 17.1535 0.441317 -0.3639705 0.8202224 192 192 192 255 0.145752 0.676975
250.0001 301.4173 17.1535 0 -0.4053564 0.9141587 192 192 192 255 0.119651 0.645407
194.5073 368.5334 17.1535 -0.4419172 -0.3634533 0.8201286 192 192 192 255 0.09355 0.676975
194.5073 500 17.1535 -0.5364782 0.7037564 0.4657448 192 192 192 255 0.09355 0.739053
305.4928 500 17.1535 0.5371448 0.7003299 0.4701207 192 192 192 255 0.145752 0.739053
294.339 374.1222 31.19531 0.333529 -0.07819895 0.939491 192 192 192 255 0.140506 0.929603
239.5174 333.1747 31.19531 0.1178444 -0.3532622 0.9280725 192 192 192 255 0.114721 0.910344
205.6616 374.1222 31.19531 -0.3783512 -0.1389276 0.9151773 192 192 192 255 0.098797 0.929603
205.6616 500 31.19531 -0.4444353 0.5830138 0.6801267 192 192 192 255 0.098797 0.989053
294.339 500 31.19531 0.2566149 0.3345747 0.9067572 192 192 192 255 0.140506 0.989053
194.5073 131.9853 17.1535 -0.6879908 0.01799895 0.7254962 192 192 192 255 0.09355 0.565715
250 199.1014 17.1535 0.2324235 0.576517 0.783331 192 192 192 255 0.119651 0.597283
305.4928 131.9853 17.1535 0.6678642 0.2410364 0.7041725 192 192 192 255 0.145752 0.565715
305.4928 0 17.1535 0.7359622 -0.2393753 0.6332924 192 192 192 255 0.145752 0.503636
194.5073 0 17.1535 -0.7167471 0.0129995 0.697212 192 192 192 255 0.09355 0.519234
206.5609 101.156 31.19531 -0.1563889 0.06501893 0.9855531 192 192 192 255 0.09922 0.801215
250 180.0225 31.19531 -0.1740112 0.4316232 0.885111 192 192 192 255 0.119651 0.838309
294.3386 126.3965 31.19531 0.1008279 0.0003406897 0.9949039 192 192 192 255 0.140506 0.813086
294.3386 0 31.19531 0.2392828 -0.5882227 0.7724881 192 192 192 255 0.140506 0.753636
205.6611 0 31.19531 -0.7805467 0.0667024 0.6215286 192 192 192 255 0.098797 0.753636
406.1592 47.49014 31.19531 -0.7161575 0.3635988 0.595747 192 192 192 255 0.1931 0.525973
436.7766 84.52074 31.19531 -0.3321785 0.6335251 0.6987872 192 192 192 255 0.207501 0.54339
406.1592 0 31.19531 -0.5852439 -0.7140289 0.3842556 192 192 192 255 0.1931 0.503636
412.3132 44.40664 42.16045 -0.0006009357 0.0001299062 0.9999998 192 192 192 255 0.195995 0.774523
436.7766 70.6944 42.16045 -0.2770426 0.5283708 0.8025408 192 192 192 255 0.207501 0.786887
414.4766 0 42.16045 -0.0002200325 -0.0002684515 0.9999999 192 192 192 255 0.197012 0.753636
386.7281 87.63455 31.19531 -0.0002525751 9.029048e-05 1 192 192 192 255 0.183961 0.794855
113.2717 87.63455 31.19531 0.6222616 0.5778652 0.5280743 192 192 192 255 0.055341 0.794855
113.2717 412.3654 31.19531 0.0001408219 -4.993624e-05 1 192 192 192 255 0.055341 0.697591
386.7281 412.3654 31.19531 -0.2891776 -0.00641851 0.9572539 192 192 192 255 0.183961 0.947591
138.7036 443.3537 31.19531 0.0002188398 -8.173042e-05 1 192 192 192 255 0.067303 0.962166
357.8303 443.3537 31.19531 -0.0001108322 -4.123225e-05 1 192 192 192 255 0.170369 0.962166
360.787 56.64627 31.19531 -0.0002194638 8.192204e-05 1 192 192 192 255 0.17176 0.78028
142.1699 49.30039 31.19531 0.02274983 0.01429654 0.999639 192 192 192 255 0.068934 0.776824
379.9343 93.00985 17.1535 -0.5791925 0.1599054 0.7993538 192 192 192 255 0.180765 0.547383
120.0659 93.00985 17.1535 0.8705847 0.1164876 0.4780303 192 192 192 255 0.058537 0.547383
147.5278 63.04747 17.1535 0.9284515 0.001215185 0.3714516 192 192 192 255 0.071454 0.53329
352.4722 63.04747 17.1535 -0.3515036 0.1312102 0.9269461 192 192 192 255 0.167849 0.53329
379.9343 406.9901 17.1535 -0.05261455 -3.158384e-05 0.9986149 192 192 192 255 0.180765 0.695062
120.0659 406.9901 17.1535 0.06912333 -5.796481e-05 0.9976081 192 192 192 255 0.058537 0.695062
352.4722 436.9525 17.1535 -0.5390183 -0.2005278 0.8180757 192 192 192 255 0.167849 0.709155
147.5278 436.9525 17.1535 0.3482344 -0.1300556 0.9283417 192 192 192 255 0.071454 0.709155
357.8301 500 31.19531 -0.0002321724 0.0001241585 1 192 192 192 255 0.171519 0.988809
142.1699 500 31.19531 0.0001108258 0.0002450987 1 192 192 192 255 0.068934 0.988809
357.8303 0 31.19531 -0.0001113611 -0.0001214138 1 192 192 192 255 0.170369 0.753636
142.1699 0 31.19531 0.0001334351 -0.0002852089 0.9999999 192 192 192 255 0.068934 0.753636
352.4722 0 17.1535 -0.3788975 -0.8355614 0.3978365 192 192 192 255 0.167849 0.753636
147.5278 0 17.1535 0.9293849 -0.004192163 0.3690883 192 192 192 255 0.071454 0.753636
352.4722 500 17.1535 -0.2388397 0.7646869 0.5985062 192 192 192 255 0.167849 0.988809
147.5278 500 17.1535 0.4524386 0.7488931 0.4842091 192 192 192 255 0.071454 0.988809
500 500.2594 31.19531 0.6655272 0.000105827 0.7463736 192 192 192 255 0.237238 0.988931
500 0 42.16045 0.0005264808 -0.0005264808 0.9999998 192 192 192 255 0.237238 0.753636
500 73.99417 42.16045 0.328665 0.2238097 0.9175449 192 192 192 255 0.237238 0.788439
500 84.52074 31.19531 0.7009064 0.4772936 0.5300199 192 192 192 255 0.237238 0.54339
0 0 42.16045 -0.0002770313 -0.0002770313 0.9999999 192 192 192 255 0.002065 0.753636
0 73.99416 42.16045 -0.4775424 0.3444925 0.8082563 192 192 192 255 0.00447 0.788439
0 84.52074 31.19531 -0.7071068 0.510097 0.4896948 192 192 192 255 0.002122 0.543361
0 500.2594 31.19531 -5.346693e-05 5.353894e-05 1 192 192 192 255 0.002065 0.988931
-0.000244 500 -14.2392 -0.4840868 0.7271106 -0.4867959 192 192 192 255 0.002064 0.988809
0 0 31.19531 -0.0001599249 -7.996243e-05 1 192 192 192 255 0.002065 0.753636
-0.000244 0 -14.2392 -0.2357023 -0.9428093 -0.2357011 192 192 192 255 0.002064 0.753636
499.9999 0 -14.2392 0.5773498 -0.5773498 -0.5773513 192 192 192 255 0.237238 0.753636
500 0 31.19531 7.226571e-05 -0.0001445314 1 192 192 192 255 0.237238 0.753636
499.9999 500 -14.2392 1 0.0002385011 -8.252438e-05 192 192 192 255 0.237238 0.988809
500 0 31.19531 0.7071068 -0.7071068 0 192 192 192 255 0.237238 0.753636
0 0 31.19531 -0.7071068 -0.7071068 0 192 192 192 255 0.002065 0.753636
113.2717 396.4026 31.19531 0.304895 -0.1782707 0.9355526 192 192 192 255 0.055341 0.690083
113.2717 291.3568 31.19531 0.4399864 0.08843365 0.8936394 192 192 192 255 0.055341 0.640675
99.617 334.4086 31.19531 0.40047 0.05080942 0.9149001 192 192 192 255 0.048919 0.910924
102.3016 377.821 31.19531 0.09966886 -0.02195294 0.9947785 192 192 192 255 0.050182 0.931343
118.0311 368.2602 21.23993 0.6134411 -2.695902e-07 0.7897405 192 192 192 255 0.05758 0.676846
250.0001 310.8831 21.35085 0.04963478 -0.3848799 0.9216311 192 192 192 255 0.119651 0.649859
268.646 343.0476 31.19531 0.1208541 -0.3535316 0.9275827 192 192 192 255 0.128421 0.914987
294.3386 97.10577 31.19531 0.1647248 -0.03266183 0.9857987 192 192 192 255 0.140506 0.54931
294.3386 25.30378 31.19531 0.09510381 0.02511734 0.9951505 192 192 192 255 0.140506 0.765538
282.8722 68.56741 31.19531 0.1396249 0 0.9902045 192 192 192 255 0.135113 0.785887
299.2721 64.8848 21.87133 0.5807676 5.139127e-06 0.8140694 192 192 192 255 0.142826 0.534154
386.7281 123.6435 31.19531 -0.177186 0.0854449 0.9804613 192 192 192 255 0.183961 0.811791
386.7281 167.7075 31.19531 -0.2478189 -0.05233194 0.967392 192 192 192 255 0.183961 0.832517
393.2724 136.8836 31.19531 -0.3488671 0 0.9371722 192 192 192 255 0.187039 0.818019
384.0161 144.5868 25.74195 -0.5125961 5.663188e-06 0.8586299 192 192 192 255 0.182685 0.821642
144.7803 59.76492 24.15044 0.8331896 0.143674 0.5339971 192 192 192 255 0.070161 0.531746
127.5039 72.37302 31.19531 0.6029854 0.4852065 0.6332324 192 192 192 255 0.062036 0.787677
113.2717 262.7875 31.19531 0.1247654 -0.009940228 0.9921365 192 192 192 255 0.055341 0.627237
113.2717 112.9485 31.19531 0.633029 0.05666409 0.7720514 192 192 192 255 0.055341 0.556761
105.7426 196.8539 31.19531 0.1755963 -8.308858e-09 0.9844623 192 192 192 255 0.0518 0.846226
117.3605 184.2964 22.58678 0.6374608 2.308945e-07 0.7704828 192 192 192 255 0.057265 0.590319
386.7281 204.0254 31.19531 -0.2529769 0.07925756 0.9642204 192 192 192 255 0.183962 0.599599
386.7281 298.6146 31.19531 -0.7196261 -0.009444553 0.6942976 192 192 192 255 0.183961 0.64409
398.3576 240.8512 31.19531 -0.3068301 0 0.9517643 192 192 192 255 0.185048 0.61692
383.8823 232.9909 25.08244 -0.6704912 -0.0006027701 0.7419173 192 192 192 255 0.182623 0.613223
194.5073 417.2429 17.1535 -0.7554889 -0.0004806361 0.6551614 192 192 192 255 0.09355 0.699885
207.7511 415.8648 31.19531 -0.3553433 0.003993172 0.9347274 192 192 192 255 0.09978 0.949237
292.2495 462.3893 31.19531 0.4949457 -0.006370841 0.8689005 192 192 192 255 0.139523 0.971119
305.4928 455.2011 17.1535 0.7554687 -0.0003313997 0.6551847 192 192 192 255 0.145752 0.717738
379.9343 338.0419 17.1535 -0.1823431 -7.662527e-05 0.983235 192 192 192 255 0.180765 0.662633
390.1728 322.4777 31.19531 -0.8072948 0 0.5901484 192 192 192 255 0.185581 0.905312
500 223.4319 31.19531 0.9999999 0 0.0005537733 192 192 192 255 0.237238 0.858727
208.8615 36.6167 31.19531 -0.3739366 0.007090435 0.9274272 192 192 192 255 0.100302 0.770859
469.3824 469.334 31.19531 -0.8379177 -0.009825634 0.5457081 192 192 192 255 0.222837 0.724386
477.5941 464.6052 42.16045 -0.002889723 2.237908e-05 0.9999958 192 192 192 255 0.226066 0.722162
198.7474 129.8607 20.36952 -0.4761824 0.20347 0.8554825 192 192 192 255 0.095548 0.564716
228.6391 154.1875 31.19531 -0.4752353 0.2037035 0.8559534 192 192 192 255 0.109604 0.826158
24.46362 438.1332 42.16045 0.5467703 -0.1077308 0.830323 192 192 192 255 0.013571 0.709711
0.000122 401.1934 42.16045 0.1043053 -0.382149 0.9181953 192 192 192 255 0.002065 0.692336
24.46362 500 42.16045 0.4371859 0.5013291 0.7466845 192 192 192 255 0.013571 0.739053
30.61743 500 31.19531 0.6166352 0.7071068 0.3460651 192 192 192 255 0.016465 0.989053
477.5941 464.6052 42.16045 -0.002889723 2.237908e-05 0.9999958 192 192 192 255 0.226699 0.972162
500 500 42.16045 0.001152237 0.001152236 0.9999987 192 192 192 255 0.237238 0.989053
475.5366 500 42.16045 -0.001934993 0.002246625 0.9999956 192 192 192 255 0.225732 0.989053
0.000122 390.6668 31.19531 -0.8697873 -0.2961415 0.3946775 192 192 192 255 0.002065 0.937385
268.646 343.0476 31.19531 0.1208541 -0.3535316 0.9275827 192 192 192 255 0.128421 0.664987
294.339 374.1222 31.19531 0.333529 -0.07819895 0.939491 192 192 192 255 0.140506 0.679603
239.5174 333.1747 31.19531 0.1178444 -0.3532622 0.9280725 192 192 192 255 0.114721 0.660344
205.6616 374.1222 31.19531 -0.3783512 -0.1389276 0.9151773 192 192 192 255 0.098797 0.679603
207.7511 415.8648 31.19531 -0.3553433 0.003993172 0.9347274 192 192 192 255 0.099421 0.699237
205.6616 500 31.19531 -0.4444353 0.5830138 0.6801267 192 192 192 255 0.098797 0.739053
294.339 500 31.19531 0.2566149 0.3345747 0.9067572 192 192 192 255 0.140506 0.739053
292.2495 462.3893 31.19531 0.4949457 -0.006370841 0.8689005 192 192 192 255 0.139882 0.721119
305.4928 500 17.1535 0.5371448 0.7003299 0.4701207 192 192 192 255 0.145752 0.989053
194.5073 500 17.1535 -0.5364782 0.7037564 0.4657448 192 192 192 255 0.09355 0.989053
250 180.0225 31.19531 -0.1740112 0.4316232 0.885111 192 192 192 255 0.119651 0.588309
228.6391 154.1875 31.19531 -0.4752353 0.2037035 0.8559534 192 192 192 255 0.109604 0.576158
294.3386 126.3965 31.19531 0.1008279 0.0003406897 0.9949039 192 192 192 255 0.140506 0.563086
294.3386 25.30378 31.19531 0.09510381 0.02511734 0.9951505 192 192 192 255 0.140506 0.515538
294.3386 0 31.19531 0.2392828 -0.5882227 0.7724881 192 192 192 255 0.140506 0.503636
205.6611 0 31.19531 -0.7805467 0.0667024 0.6215286 192 192 192 255 0.098797 0.519234
208.8615 36.6167 31.19531 -0.3739366 0.007090435 0.9274272 192 192 192 255 0.099752 0.531853
194.5073 0 17.1535 -0.7167471 0.0129995 0.697212 192 192 192 255 0.09355 0.753636
305.4928 0 17.1535 0.7359622 -0.2393753 0.6332924 192 192 192 255 0.145752 0.753636
412.3132 44.40664 42.16045 -0.0006009357 0.0001299062 0.9999998 192 192 192 255 0.195995 0.524523
436.7766 70.6944 42.16045 -0.2770426 0.5283708 0.8025408 192 192 192 255 0.207501 0.536887
414.4766 0 42.16045 -0.0002200325 -0.0002684515 0.9999999 192 192 192 255 0.196347 0.503636
500 73.99417 42.16045 0.328665 0.2238097 0.9175449 192 192 192 255 0.237238 0.538439
113.2717 87.63455 31.19531 0.6222616 0.5778652 0.5280743 192 192 192 255 0.055341 0.544855
127.5039 72.37302 31.19531 0.6029854 0.4852065 0.6332324 192 192 192 255 0.062036 0.537677
360.787 56.64627 31.19531 -0.0002194638 8.192204e-05 1 192 192 192 255 0.17176 0.53028
386.7281 87.63455 31.19531 -0.0002525751 9.029048e-05 1 192 192 192 255 0.183961 0.544855
390.1728 322.4777 31.19531 -0.8072948 0 0.5901484 192 192 192 255 0.184283 0.655314
386.7281 412.3654 31.19531 -0.2891776 -0.00641851 0.9572539 192 192 192 255 0.183961 0.697591
357.8303 443.3537 31.19531 -0.0001108322 -4.123225e-05 1 192 192 192 255 0.170369 0.712166
138.7036 443.3537 31.19531 0.0002188398 -8.173042e-05 1 192 192 192 255 0.067303 0.712166
147.5278 500 17.1535 0.4524386 0.7488931 0.4842091 192 192 192 255 0.071454 0.738809
142.1699 500 31.19531 0.0001108258 0.0002450987 1 192 192 192 255 0.068934 0.738809
352.4722 500 17.1535 -0.2388397 0.7646869 0.5985062 192 192 192 255 0.167849 0.738809
357.8301 500 31.19531 -0.0002321724 0.0001241585 1 192 192 192 255 0.170523 0.73881
352.4722 0 17.1535 -0.3788975 -0.8355614 0.3978365 192 192 192 255 0.167849 0.503636
357.8303 0 31.19531 -0.0001113611 -0.0001214138 1 192 192 192 255 0.170369 0.503636
147.5278 0 17.1535 0.9293849 -0.004192163 0.3690883 192 192 192 255 0.071454 0.519979
352.4722 0 17.1535 -0.3788975 -0.8355614 0.3978365 192 192 192 255 0.167849 0.519979
147.5278 0 17.1535 0.9293849 -0.004192163 0.3690883 192 192 192 255 0.071454 0.519639
142.1699 49.30039 31.19531 0.02274983 0.01429654 0.999639 192 192 192 255 0.068934 0.529214
142.1699 0 31.19531 0.0001334351 -0.0002852089 0.9999999 192 192 192 255 0.068934 0.519639
113.2717 412.3654 31.19531 0.0001408219 -4.993624e-05 1 192 192 192 255 0.055341 0.947591
113.2717 112.9485 31.19531 0.633029 0.05666409 0.7720514 192 192 192 255 0.055341 0.806761
113.2717 262.7875 31.19531 0.1247654 -0.009940228 0.9921365 192 192 192 255 0.055342 0.877237
113.2717 291.3568 31.19531 0.4399864 0.08843365 0.8936394 192 192 192 255 0.055341 0.890675
113.2717 396.4026 31.19531 0.304895 -0.1782707 0.9355526 192 192 192 255 0.055341 0.940083
85.73665 0 42.16045 0.000421959 -0.0005431712 0.9999998 192 192 192 255 0.04239 0.753636
83.43406 42.09052 42.16045 0.0005651557 0.0002618962 0.9999998 192 192 192 255 0.041307 0.773433
64.15401 73.99417 42.16045 0.2397133 0.443705 0.8635181 192 192 192 255 0.032239 0.788439
0 73.99416 42.16045 -0.4775424 0.3444925 0.8082563 192 192 192 255 0.004415 0.538501
406.1592 0 31.19531 -0.5852439 -0.7140289 0.3842556 192 192 192 255 0.1931 0.753636
93.84094 0 31.19531 0.5439079 -0.700151 0.4625503 192 192 192 255 0.046202 0.753636
500 84.52074 31.19531 0.7009064 0.4772936 0.5300199 192 192 192 255 0.237238 0.79339
102.3016 377.821 31.19531 0.09966886 -0.02195294 0.9947785 192 192 192 255 0.054316 0.681343
99.617 334.4086 31.19531 0.40047 0.05080942 0.9149001 192 192 192 255 0.054065 0.660924
282.8722 68.56741 31.19531 0.1396249 0 0.9902045 192 192 192 255 0.137082 0.535887
105.7426 196.8539 31.19531 0.1755963 -8.308858e-09 0.9844623 192 192 192 255 0.054638 0.596226
0 84.52074 31.19531 -0.7071068 0.510097 0.4896948 192 192 192 255 0.002115 0.79339
398.3576 240.8512 31.19531 -0.3068301 0 0.9517643 192 192 192 255 0.189431 0.86692
386.7281 204.0254 31.19531 -0.2529769 0.07925756 0.9642204 192 192 192 255 0.183961 0.849599
386.7281 123.6435 31.19531 -0.177186 0.0854449 0.9804613 192 192 192 255 0.183961 0.561793
384.0161 144.5868 25.74195 -0.5125961 5.663188e-06 0.8586299 192 192 192 255 0.182685 0.571643
386.7281 167.7075 31.19531 -0.2478189 -0.05233194 0.967392 192 192 192 255 0.183961 0.582517
386.7281 298.6146 31.19531 -0.7196261 -0.009444553 0.6942976 192 192 192 255 0.183961 0.894089
294.3386 97.10577 31.19531 0.1647248 -0.03266183 0.9857987 192 192 192 255 0.140506 0.799309
206.5609 101.156 31.19531 -0.1563889 0.06501893 0.9855531 192 192 192 255 0.099065 0.554305
475.5366 430.7809 42.16045 -0.497743 -0.2463677 0.8315978 192 192 192 255 0.225732 0.956253
499.9999 401.1934 42.16045 0.6390321 -0.2587293 0.7243599 192 192 192 255 0.237238 0.942336
499.9999 390.6668 31.19531 -0.2045137 -0.706136 0.6778983 192 192 192 255 0.237238 0.937385
500 500 31.19531 0.7071072 0.7071064 3.98119e-07 192 192 192 255 0.237238 0.989052
3 15 4 3 
3 15 3 5 
3 0 125 126 
3 0 126 1 
3 2 127 125 
3 2 125 0 
3 15 5 128 
3 15 128 14 
3 6 9 10 
3 6 10 7 
3 121 122 11 
3 121 11 8 
3 11 12 13 
3 11 13 8 
3 129 130 131 
3 132 4 15 
3 132 15 14 
3 18 16 17 
3 18 17 19 
3 19 17 21 
3 19 21 20 
3 27 29 28 
3 27 28 94 
3 114 115 31 
3 114 31 30 
3 23 22 93 
3 133 93 22 
3 133 22 134 
3 23 93 24 
3 24 93 135 
3 24 135 136 
3 113 137 138 
3 113 138 25 
3 26 139 140 
3 26 140 116 
3 30 31 141 
3 30 141 142 
3 124 37 39 
3 124 39 38 
3 97 120 96 
3 120 41 40 
3 120 40 96 
3 143 33 32 
3 143 32 144 
3 32 123 144 
3 33 143 145 
3 33 145 34 
3 35 34 145 
3 35 145 98 
3 146 147 35 
3 146 35 98 
3 145 95 98 
3 36 148 149 
3 40 41 150 
3 40 150 151 
3 74 46 45 
3 74 45 73 
3 47 73 45 
3 42 152 153 
3 42 153 43 
3 44 154 152 
3 44 152 42 
3 153 155 75 
3 153 75 43 
3 65 71 80 
3 65 80 79 
3 68 83 84 
3 68 84 66 
3 52 65 79 
3 84 54 66 
3 56 57 58 
3 56 58 59 
3 60 61 117 
3 117 61 57 
3 117 57 56 
3 61 60 62 
3 61 62 63 
3 81 55 104 
3 81 104 49 
3 84 48 54 
3 72 51 118 
3 72 118 119 
3 72 53 51 
3 156 157 57 
3 103 58 57 
3 103 57 157 
3 158 159 56 
3 158 56 59 
3 117 160 161 
3 106 156 57 
3 106 57 108 
3 61 50 88 
3 61 88 92 
3 61 92 57 
3 57 92 89 
3 57 89 108 
3 89 105 108 
3 161 162 62 
3 161 62 60 
3 163 50 61 
3 163 61 63 
3 72 64 53 
3 67 55 81 
3 82 69 67 
3 82 67 81 
3 72 85 70 
3 72 70 64 
3 163 63 164 
3 163 164 165 
3 63 62 166 
3 63 166 164 
3 62 162 167 
3 62 167 166 
3 158 59 168 
3 158 168 169 
3 59 58 170 
3 59 170 171 
3 58 103 172 
3 172 103 173 
3 172 173 174 
3 52 79 175 
3 91 79 81 
3 91 81 90 
3 81 49 176 
3 81 176 107 
3 177 178 90 
3 177 90 81 
3 179 175 91 
3 177 81 107 
3 76 180 181 
3 77 76 181 
3 77 181 182 
3 183 16 18 
3 183 18 78 
3 85 80 71 
3 85 71 70 
3 82 83 68 
3 82 68 69 
3 73 47 184 
3 73 184 86 
3 180 76 87 
3 180 87 185 
3 80 82 81 
3 80 81 79 
3 80 85 83 
3 80 83 82 
3 85 72 119 
3 119 84 83 
3 119 83 85 
3 186 74 73 
3 186 73 86 
3 187 92 88 
3 89 92 188 
3 188 92 187 
3 93 133 135 
3 189 98 95 
3 146 98 189 
3 99 101 102 
3 102 101 100 
3 103 157 173 
3 190 108 105 
3 106 108 190 
3 77 191 87 
3 77 87 76 
3 110 112 111 
3 111 112 109 
3 100 192 193 
3 24 136 137 
3 24 137 113 
3 27 115 114 
3 27 114 29 
3 116 140 134 
3 116 134 22 
3 56 159 194 
3 56 194 195 
3 117 56 195 
3 117 195 112 
3 110 117 112 
3 109 112 195 
3 109 195 196 
3 48 84 119 
3 48 119 101 
3 119 118 197 
3 119 197 192 
3 119 192 100 
3 119 100 101 
3 101 99 48 
3 117 110 160 
3 37 120 97 
3 37 97 198 
3 37 198 39 
3 36 149 32 
3 123 32 149 
3 123 149 199 
3 7 10 122 
3 7 122 121 
3 200 201 130 
3 200 130 129 
3 201 202 203 
3 201 203 130 
3 91 175 79 
3 117 161 60 
3 144 123 199 
