ply
format ascii 1.0
comment VCGLIB generated
comment TextureFile Dungeons_2_Texture_01_A.png
element vertex 393
property float x
property float y
property float z
property float nx
property float ny
property float nz
property uchar red
property uchar green
property uchar blue
property uchar alpha
property float texture_u
property float texture_v
element face 379
property list uchar int vertex_indices
end_header
0 0 31.19531 -0.0002179617 -0.0002179617 0.9999999 192 192 192 255 0.001942 0.753636
0 0 0 -0.9486833 -0.3162278 0 192 192 192 255 0.001942 0.753636
72.07977 0 0 0.9365686 -0.1865373 0.2967209 192 192 192 255 0.03588 0.753636
62.17157 0 31.19531 0.4524455 0.01129301 0.8917206 192 192 192 255 0.031215 0.753636
0 0 -31.19531 -0.000269861 -0.000269861 -0.9999999 192 192 192 255 0.001942 0.753636
74.28931 0 -31.19531 0.5731981 -0.6087862 -0.5484737 192 192 192 255 0.031749 0.753636
0 171.7327 -36.27903 -0.9988174 -0.01357011 -0.04668847 192 192 192 255 0.001942 0.834494
0 161.2092 -36.27903 -0.9985324 -0.01936335 -0.05057967 192 192 192 255 0.001942 0.829539
0 152.8302 -31.19531 -0.9998317 -0.009516392 -0.01568501 192 192 192 255 0.001942 0.825594
0 171.7327 36.27903 -0.9988173 -0.02714022 0.04034067 192 192 192 255 0.001942 0.834494
0 152.8302 31.19531 -0.9993273 -0.01902318 0.0313542 192 192 192 255 0.001942 0.825594
0 161.2092 36.27903 -0.9985324 -0.009681676 0.05328703 192 192 192 255 0.001942 0.829539
0 250.5795 -31.19531 -0.9993513 0.02113991 -0.02915638 192 192 192 255 0.001942 0.871618
0 243.568 -36.27903 -0.9993684 0.0109653 -0.03380381 192 192 192 255 0.001942 0.868316
0 233.0446 -36.27903 -0.9988174 0.01357011 -0.0466883 192 192 192 255 0.001942 0.863362
0 304.2 -17.1535 -0.003772392 0.00153625 -0.9999917 192 192 192 255 0.001942 0.896864
0 286 -31.19531 -0.4670915 0.285324 -0.8369085 192 192 192 255 0.001942 0.888295
96.71167 200.0729 -31.19531 0.1720909 -0.00173611 -0.9850796 192 192 192 255 0.169394 0.555708
103.7751 183.8113 -14.89404 0.9910197 -0.07312961 0.1119461 192 192 192 255 0.165399 0.551977
96.35327 206.5859 31.19531 0.8596407 -0.02345139 0.5103607 192 192 192 255 0.154105 0.557246
0 250.5795 31.19531 -0.9993513 0.02113992 0.02915638 192 192 192 255 0.001942 0.871618
0 233.0446 36.27903 -0.9988174 0.01357011 0.0466883 192 192 192 255 0.001942 0.863362
0 243.568 36.27903 -0.9993684 0.0109653 0.03380381 192 192 192 255 0.001942 0.868316
0 304.2 17.1535 -0.8457085 0.1722011 0.5050979 192 192 192 255 0.001942 0.896864
0 286 31.19531 -0.3302835 0.4035091 0.8532838 192 192 192 255 0.001942 0.888295
0 228.1336 -42.16045 -0.2660528 0.4084422 -0.87315 192 192 192 255 0.001942 0.611049
0 176.6436 -42.16045 -0.5881401 -0.4514529 -0.6710302 192 192 192 255 0.001942 0.836806
88.27576 152.8302 -31.19531 0.5571812 -0.2525169 -0.7910653 192 192 192 255 0.043506 0.575594
84.79138 161.2092 -36.27903 0.5451401 -0.2470035 -0.8011314 192 192 192 255 0.043177 0.579539
89.45752 171.7327 -36.27903 0.5596898 -0.2549695 -0.7885036 192 192 192 255 0.044062 0.834494
88.5614 176.6436 -42.16045 0.2863111 -0.2701597 -0.9192604 192 192 192 255 0.04364 0.586806
86.33557 161.2092 36.27903 0.8641935 -0.1628508 0.476077 192 192 192 255 0.042592 0.579539
87.46216 152.8302 31.19531 0.8771461 -0.1563621 0.4540547 192 192 192 255 0.04303 0.575594
100.6993 312.0616 -17.1535 0.1058454 -0.0008934021 -0.9943822 192 192 192 255 0.049355 0.650566
101.6166 309.9948 -6.392212 0.9965029 -0.05523941 0.06269458 192 192 192 255 0.163316 0.582419
0 176.6436 42.16045 -0.0006871891 -0.0002637412 0.9999998 192 192 192 255 0.001942 0.836806
0 228.1336 42.16045 -0.3417184 0.5246035 0.7797562 192 192 192 255 0.001942 0.861049
88.11456 171.7327 36.27903 0.8680545 -0.1576726 0.4707661 192 192 192 255 0.044939 0.839108
98.12988 313.4706 17.1535 0.07979214 -0.03457677 0.9962117 192 192 192 255 0.048145 0.651229
87.04797 176.6436 42.16045 0.0003270843 -0.0005808013 0.9999998 192 192 192 255 0.042928 0.586806
392.037 135.8804 -31.19531 -0.4486099 -0.07424855 -0.8906382 192 192 192 255 0.186527 0.817613
390.8696 140.296 -5.690796 -0.9962571 -0.02706525 0.08209424 192 192 192 255 0.163144 0.705519
393.8197 141.4215 31.19531 -0.9989932 0.04476158 0.003021083 192 192 192 255 0.187366 0.820222
214 464 -31.19531 -0.0001584499 -7.922467e-05 -1 192 192 192 255 0.102701 0.972103
0 464 -31.19531 -0.000129776 -0.0001585479 -1 192 192 192 255 0.001942 0.972103
0 500 -31.19531 -0.0002595717 0.0001297859 -1 192 192 192 255 0.001942 0.989053
0 445.8 -17.1535 -0.00046515 -7.103445e-05 -0.9999999 192 192 192 255 0.001942 0.963534
0 500 0 -0.7071068 0.7071068 0 192 192 192 255 0.001942 0.989053
93.99579 233.0446 36.27903 0.6228253 0.1600445 0.7658162 192 192 192 255 0.04631 0.603224
92.44861 228.1336 42.16045 0.5243579 0.2063781 0.8261095 192 192 192 255 0.04547 0.611049
0 445.8 17.1535 -0.0002552189 -3.897524e-05 1 192 192 192 255 0.001942 0.963534
195.8 397.1852 -17.1535 0.5729141 -0.8140446 -0.09539893 192 192 192 255 0.094132 0.688597
214 464 31.19531 -0.0001584499 -7.922467e-05 1 192 192 192 255 0.102701 0.972103
0 500 31.19531 -0.000259538 0.000129769 1 192 192 192 255 0.001942 0.989053
0 464 31.19531 -0.000129776 -0.0001585479 1 192 192 192 255 0.001942 0.972103
97.56085 286 -31.19531 0.9992931 0.03563104 0.01199041 192 192 192 255 0.047877 0.638295
100.6993 304.2 -17.1535 0.241942 -0.02464973 -0.9699776 192 192 192 255 0.049355 0.646864
189.0546 467.9148 -36.7772 -0.0004550939 -0.0002294728 -0.9999999 192 192 192 255 0.090956 0.723947
250 415.0144 -36.7772 9.042303e-05 -0.0003021545 -0.9999999 192 192 192 255 0.119651 0.699039
182.8851 460.3886 -16.96082 -0.7742415 -0.3903972 -0.4981366 192 192 192 255 0.088051 0.720403
500 152.8302 -31.19531 0.9993513 -0.01868086 -0.03078998 192 192 192 255 0.23736 0.825594
500 161.2092 -36.27903 0.9985324 -0.009681677 -0.05328703 192 192 192 255 0.23736 0.829539
500 171.7327 -36.27903 0.9987744 -0.02762807 -0.04106578 192 192 192 255 0.23736 0.834494
182.8851 500 -31.19531 -0.8218901 0.3801477 -0.4242458 192 192 192 255 0.088051 0.739053
189.0546 500 -36.7772 -0.3457527 0.7459823 -0.5691796 192 192 192 255 0.090956 0.739053
204.2848 474.9395 -36.7772 -0.5011943 -0.1732312 -0.847818 192 192 192 255 0.098127 0.727254
213.1006 474.9395 -42.16045 -0.0006181533 -0.0004609726 -0.9999997 192 192 192 255 0.102278 0.727254
250 436.4496 -36.7772 0 -0.5534687 -0.8328699 192 192 192 255 0.119651 0.709132
98.12988 304.2 17.1535 0.9868082 0.004763753 0.1618234 192 192 192 255 0.048145 0.646864
95.74127 286 31.19531 0.9995281 0.0077571 0.02972204 192 192 192 255 0.047021 0.638295
250 445.3909 -42.16045 0 -0.0004615755 -0.9999999 192 192 192 255 0.119651 0.713342
310.9456 467.9148 -36.7772 0.0003647903 -0.0001288221 -0.9999999 192 192 192 255 0.148346 0.973947
286.8994 474.9395 -42.16045 0.0008567231 -0.0004610034 -0.9999996 192 192 192 255 0.137025 0.977254
250 402.5106 22.89783 1.100137e-07 -0.7964454 0.6047105 192 192 192 255 0.119651 0.693152
396.7544 304.2 -17.1535 -0.001456976 0.0005302243 -0.9999988 192 192 192 255 0.165953 0.665471
182.8851 460.3886 16.96082 -0.7162104 -0.4838751 0.5028991 192 192 192 255 0.084803 0.715306
250 415.0144 36.7772 5.544578e-11 -0.0004014004 0.9999999 192 192 192 255 0.119651 0.699039
189.0546 467.9148 36.7772 -0.0003646564 -0.0001284421 0.9999999 192 192 192 255 0.090956 0.723947
182.8851 500 31.19531 -0.8218901 0.3801477 0.4242458 192 192 192 255 0.088051 0.739053
304.301 404.9514 5.629517 -0.5576921 -0.8233997 -0.1048455 192 192 192 255 0.16037 0.634486
500 152.8302 31.19531 0.9998378 -0.009344976 0.01540248 192 192 192 255 0.23736 0.825594
500 171.7327 36.27903 0.9987744 -0.01381403 0.04752769 192 192 192 255 0.23736 0.834494
500 161.2092 36.27903 0.9985324 -0.01936335 0.05057967 192 192 192 255 0.23736 0.829539
95.05255 233.0446 -36.27903 0.58573 0.1579445 -0.7949679 192 192 192 255 0.046696 0.613362
88.08765 228.1336 -42.16045 0.4838623 0.2307288 -0.844181 192 192 192 255 0.04583 0.611049
350.7123 360.7077 -17.1535 -0.6808693 -0.727082 -0.08814076 192 192 192 255 0.165953 0.650026
295.7152 474.9395 -36.7772 0.4848655 -0.2609066 -0.8347654 192 192 192 255 0.141175 0.727254
395.8347 324.1045 -17.1535 -0.2466419 -0.303573 -0.9203321 192 192 192 255 0.165953 0.661224
395.9715 317.9492 -0.130371 -0.6735888 -0.7390543 -0.008768081 192 192 192 255 0.161781 0.662044
189.0546 500 36.7772 -0.3457527 0.7459823 0.5691796 192 192 192 255 0.090956 0.739053
317.1149 460.3886 -16.96082 0.7167344 -0.4856206 -0.5004641 192 192 192 255 0.151251 0.720403
500 250.5795 -31.19531 0.9998317 0.01076908 -0.01485282 192 192 192 255 0.23736 0.871618
500 233.0446 -36.27903 0.998858 0.01333465 -0.04587818 192 192 192 255 0.23736 0.863362
500 243.568 -36.27903 0.9985639 0.02191294 -0.04888787 192 192 192 255 0.23736 0.868316
396.7544 304.2 17.1535 -0.215763 -0.002679817 0.9764421 192 192 192 255 0.157546 0.665289
204.2848 474.9395 36.7772 -0.5011943 -0.1732312 0.847818 192 192 192 255 0.098127 0.727254
250 436.4496 36.7772 0 -0.5534687 0.8328699 192 192 192 255 0.119651 0.709132
213.1006 474.9395 42.16045 -0.0006181533 -0.0004609726 0.9999997 192 192 192 255 0.102278 0.727254
396.1473 316.9254 17.1535 -0.03443434 -0.01427667 0.999305 192 192 192 255 0.157546 0.661846
304.2 406.8238 17.1535 -9.04097e-05 -0.001221886 0.9999993 192 192 192 255 0.157546 0.634287
250 445.3909 42.16045 0 -0.0004615755 0.9999999 192 192 192 255 0.119651 0.713342
92.36957 243.568 -36.27903 0.568975 0.1575476 -0.8071222 192 192 192 255 0.046745 0.868316
310.9456 467.9148 36.7772 0.0003647141 -0.0001284618 0.9999999 192 192 192 255 0.148346 0.973947
286.8994 474.9395 42.16045 0.0008567231 -0.0004610034 0.9999996 192 192 192 255 0.137025 0.727254
97.44958 250.5795 -31.19531 0.5874294 0.1533724 -0.7946091 192 192 192 255 0.047825 0.621618
317.1149 500 -31.19531 0.6562119 0.6742815 -0.3387188 192 192 192 255 0.151251 0.739053
317.1149 460.3886 16.96082 0.7162123 -0.4838756 0.502896 192 192 192 255 0.151251 0.720403
310.9456 500 -36.7772 0.3200406 0.3288533 -0.8884985 192 192 192 255 0.148346 0.739053
500 250.5795 31.19531 0.9993273 0.0215273 0.02969066 192 192 192 255 0.23736 0.871618
500 243.568 36.27903 0.9985639 0.01095647 0.05244194 192 192 192 255 0.23736 0.868316
500 233.0446 36.27903 0.998858 0.02666929 0.03964049 192 192 192 255 0.23736 0.863362
295.7152 474.9395 36.7772 0.4848655 -0.2609066 0.8347654 192 192 192 255 0.141175 0.727254
417.5859 0 -31.19531 -0.420128 -0.0701467 -0.9047496 192 192 192 255 0.198556 0.753636
500 0 -31.19531 8.928207e-05 -8.928207e-05 -1 192 192 192 255 0.23736 0.753636
500 0 0 0.9363292 -0.3511235 0 192 192 192 255 0.23736 0.753636
406.6392 0 2.284668 -0.9439861 -0.1175011 -0.3083566 192 192 192 255 0.193402 0.753636
317.1149 500 31.19531 0.6562119 0.6742815 0.3387188 192 192 192 255 0.151251 0.739053
416.85 0 31.19531 -0.1070681 0.03620825 0.9935922 192 192 192 255 0.212926 0.750577
92.69507 210.0478 42.16045 0.0009896071 -0.0001061047 0.9999995 192 192 192 255 0.045586 0.852534
310.9456 500 36.7772 0.3200406 0.3288533 0.8884985 192 192 192 255 0.148346 0.739053
500 464 -31.19531 0.0001297894 -7.928208e-05 -1 192 192 192 255 0.23736 0.972103
286 464 -31.19531 7.924547e-05 -0.0001584905 -1 192 192 192 255 0.136601 0.972103
500 500 -31.19531 0.000259538 0.000259538 -0.9999999 192 192 192 255 0.23736 0.989053
91.49725 243.568 36.27903 0.6067458 0.1573716 0.7791622 192 192 192 255 0.046159 0.868316
177.7361 388.2185 17.1535 0.03472761 -0.09853914 0.994527 192 192 192 255 0.085401 0.687144
96.01697 250.5795 31.19531 0.6297674 0.1511471 0.7619368 192 192 192 255 0.047027 0.621618
500 464 31.19531 0.0001297894 -7.928208e-05 1 192 192 192 255 0.23736 0.972103
500 500 31.19531 0.0002595717 0.0002595717 0.9999999 192 192 192 255 0.23736 0.989053
286 464 31.19531 0.0001584541 -0.0001584536 1 192 192 192 255 0.136601 0.972103
195.8 445.8 -17.1535 -7.102986e-05 -0.0001420593 -1 192 192 192 255 0.094132 0.713534
404.3663 161.2092 -36.27903 -0.2576787 -0.2094456 -0.9432573 192 192 192 255 0.188198 0.579539
392.6625 152.8302 -31.19531 -0.2634933 -0.2079969 -0.9419706 192 192 192 255 0.186855 0.575594
195.8 445.8 17.1535 -0.1677645 -0.3355278 0.9269716 192 192 192 255 0.094132 0.713534
396.0168 171.7327 -36.27903 -0.2679325 -0.2059292 -0.9411723 192 192 192 255 0.188401 0.834494
399.8425 228.1336 -42.16045 -0.2551751 0.2297914 -0.939192 192 192 192 255 0.190202 0.861049
500 228.1336 -42.16045 0.3417184 0.5246035 -0.7797562 192 192 192 255 0.23736 0.861049
500 176.6436 -42.16045 0.5881401 -0.2257265 -0.7766201 192 192 192 255 0.23736 0.836806
401.4056 176.6436 -42.16045 -0.4255846 -0.3787949 -0.8218225 192 192 192 255 0.189436 0.836806
500 286 -31.19531 0.5733748 0.3502475 -0.7406538 192 192 192 255 0.23736 0.888295
500 304.2 -17.1535 0.0009709479 0.000296553 -0.9999995 192 192 192 255 0.23736 0.896864
397.5823 286 -31.19531 -0.9999938 -0.002853341 -0.002070438 192 192 192 255 0.189138 0.888295
250 403.3755 -23.69519 -0.2327327 -0.7776923 -0.583978 192 192 192 255 0.119651 0.693559
394.111 152.8302 31.19531 -0.9283579 0.001010561 0.3716863 192 192 192 255 0.187474 0.575594
396.1554 161.2092 36.27903 -0.9211225 0.009532391 0.3891563 192 192 192 255 0.188466 0.579539
398.17 233.0446 -36.27903 -0.7503538 0.118085 -0.6504039 192 192 192 255 0.189415 0.613362
396.3663 171.7327 36.27903 -0.9207799 -0.005480731 0.390044 192 192 192 255 0.188566 0.834494
195.8 397.8678 17.1535 -0.1272731 -0.8498849 0.511368 192 192 192 255 0.157546 0.607915
399.5967 243.568 -36.27903 -0.7421495 0.1087542 -0.6613521 192 192 192 255 0.189571 0.868316
213.1006 500 -42.16045 -0.2958312 0.567645 -0.7682858 192 192 192 255 0.102278 0.739053
204.2848 500 -36.7772 -0.3685125 0.7071068 -0.6034887 192 192 192 255 0.098127 0.739053
500 176.6436 42.16045 0.5881401 -0.4514529 0.6710302 192 192 192 255 0.23736 0.586806
400.6094 176.6436 42.16045 -0.209086 -0.2095777 0.9551755 192 192 192 255 0.18935 0.586806
500 304.2 17.1535 0.0003979221 0.0002430717 0.9999999 192 192 192 255 0.23736 0.896864
500 286 31.19531 0.5733749 0.1751238 0.8003581 192 192 192 255 0.23736 0.888295
500 0 31.19531 0.0002917255 -0.000583451 0.9999998 192 192 192 255 0.23736 0.753636
396.2839 250.5795 -31.19531 -0.7540734 0.1158317 -0.6464954 192 192 192 255 0.188611 0.621618
397.5034 286 31.19531 -0.9996307 0.01444407 -0.02301916 192 192 192 255 0.189101 0.888302
286.8994 500 -42.16045 0.1698571 0.3259241 -0.9300119 192 192 192 255 0.137025 0.989053
304.2 407.9272 -17.1535 -0.5577818 -0.8231142 -0.1065953 192 192 192 255 0.165953 0.634215
286 406.3785 -31.19531 0.1837828 -0.9735961 -0.1354054 192 192 192 255 0.136601 0.696215
304.2 445.8 -17.1535 0.2665454 -0.1332723 -0.9545638 192 192 192 255 0.14517 0.713534
295.7152 500 -36.7772 0.3685125 0.7071068 -0.6034887 192 192 192 255 0.141175 0.989053
404.8364 228.1336 42.16045 -0.3427287 0.3792548 0.8594782 192 192 192 255 0.190129 0.611049
500 228.1336 42.16045 0.3417184 0.2623018 0.9024557 192 192 192 255 0.23736 0.611049
398.0174 233.0446 36.27903 -0.6745977 0.1527519 0.7222083 192 192 192 255 0.189343 0.613362
351.3892 360.0623 17.1535 -0.4995151 -0.5583994 0.6623254 192 192 192 255 0.157546 0.650681
400.3113 243.568 36.27903 -0.6691163 0.1605401 0.7256103 192 192 192 255 0.189507 0.868316
396.5757 250.5795 31.19531 -0.6893519 0.1530762 0.7080691 192 192 192 255 0.188549 0.621618
213.1006 500 42.16045 -0.2958312 0.567645 0.7682858 192 192 192 255 0.102278 0.739053
204.2848 500 36.7772 -0.3685125 0.7071068 0.6034887 192 192 192 255 0.098127 0.739053
500 500 0 0.8944272 0.4472136 0 192 192 192 255 0.23736 0.989053
304.2 445.8 17.1535 4.308404e-05 -4.308391e-05 1 192 192 192 255 0.14517 0.713534
286 405.6231 31.19531 0.1454143 -0.9892183 -0.01737691 192 192 192 255 0.136601 0.69586
286.8994 500 42.16045 0.1698571 0.3259241 0.9300119 192 192 192 255 0.137025 0.989053
295.7152 500 36.7772 0.3685125 0.7071068 0.6034887 192 192 192 255 0.141175 0.989053
500 445.8 -17.1535 0.8136709 -0.2485162 -0.5255277 192 192 192 255 0.23736 0.963534
500 445.8 17.1535 0.0002821434 -8.61739e-05 1 192 192 192 255 0.23736 0.963534
214 395.057 -31.19531 -0.1824203 -0.8622837 -0.4724296 192 192 192 255 0.102701 0.690885
397.7225 230.9674 -10.94629 -0.9994842 0.03207308 0.001637596 192 192 192 255 0.164432 0.683316
200.5182 398.7827 0.755981 0.5704521 -0.8176624 -0.0775416 192 192 192 255 0.161564 0.608855
218.4252 396.3861 -3.97229 0.1449785 -0.9892504 -0.01910531 192 192 192 255 0.162723 0.613193
396.194 304.3557 1.059204 -0.9993069 -0.01483177 0.034142 192 192 192 255 0.16149 0.665336
96.35327 206.5859 31.19531 0.8590863 -0.0882461 0.5041661 192 192 192 255 0.046635 0.845506
94.60748 206.5859 32.50208 0.9288792 -0.05174645 0.3667504 192 192 192 255 0.046701 0.845519
0 200.3215 -31.19531 -1 0 0 192 192 192 255 0.001942 0.847954
0 201.5209 -32.50208 -1 0 0 192 192 192 255 0.001942 0.848519
0 201.6599 -42.16045 -0.7071068 0 -0.7071068 192 192 192 255 0.001942 0.848585
90.82147 201.6599 -42.16045 0.5282995 -0.04356149 -0.8479399 192 192 192 255 0.044704 0.848585
94.81592 200.4312 -33.00378 0.8662618 -0.06907257 -0.4947924 192 192 192 255 0.045342 0.848519
96.71167 200.0729 -31.19531 0.8772303 -0.0652765 -0.4756112 192 192 192 255 0.045604 0.847954
77.18048 83.09756 -31.19531 0.3493036 -0.1175828 -0.9296028 192 192 192 255 0.169394 0.527396
77.66394 93.63224 31.19531 0.759599 -0.1696618 0.6278728 192 192 192 255 0.154105 0.529837
214 403.5132 31.19531 -0.1287832 -0.8500099 0.5107818 192 192 192 255 0.154105 0.612172
242.5065 399.2377 31.19531 0.0843353 -0.9905415 0.1082366 192 192 192 255 0.154105 0.619053
396.2769 357.8415 17.1535 0.03804058 -0.04041022 0.9984588 192 192 192 255 0.188518 0.672625
412.741 373.4067 17.1535 -0.002698827 -0.005678048 0.9999803 192 192 192 255 0.196275 0.67987
411.0764 350.8071 17.1535 -0.03355051 0.002548008 0.9994338 192 192 192 255 0.195492 0.669372
391.8782 327.2708 9.190186 -0.6402659 -0.663679 0.3867682 192 192 192 255 0.159497 0.660125
408.5358 352.3855 11.58325 -0.1140894 -0.2310784 0.9662228 192 192 192 255 0.158911 0.658362
130.6699 371.6759 17.1535 0.05263245 -0.05605344 0.9970396 192 192 192 255 0.063442 0.679275
166.4725 375.2865 4.401367 0.3452519 -0.3677 0.8634802 192 192 192 255 0.160671 0.600377
401.0684 57.4698 -2.283569 -0.9834828 -0.1453921 -0.1078088 192 192 192 255 0.162309 0.725099
404.3848 76.54457 31.19531 -0.606833 -0.4547952 0.6518551 192 192 192 255 0.154105 0.721262
405.7855 57.24041 18.97925 -0.7831128 -0.1025819 0.6133608 192 192 192 255 0.157098 0.725449
430.9299 41.18919 31.19531 -0.1785556 -0.0290776 0.9835001 192 192 192 255 0.154105 0.729274
151.11 358.7405 -17.1535 0.2448272 0.0121324 -0.9694908 192 192 192 255 0.165953 0.596494
161.8362 367.9437 -14.31873 0.2483169 0.00973958 -0.9686299 192 192 192 255 0.165258 0.599176
185.3821 389.7414 -17.1535 0.1141571 -0.7694538 -0.6284179 192 192 192 255 0.165953 0.604157
136.4321 401.8951 -17.1535 -0.007483226 -0.03021609 -0.9995154 192 192 192 255 0.165953 0.599556
178.0502 384.2667 -11.62024 -0.1423845 -0.5992635 -0.787788 192 192 192 255 0.164597 0.602798
149.4382 381.7587 -17.1535 0.2375866 0.01756628 -0.9712075 192 192 192 255 0.059479 0.649902
92.02899 129.2683 -16.8822 0.9594877 -0.267623 0.08809815 192 192 192 255 0.165886 0.538876
61.59406 39.58355 -31.19531 0.6314352 0.1096583 -0.7676358 192 192 192 255 0.029215 0.772273
76.58435 65.96411 -31.19531 0.7756745 -0.3148171 -0.5470095 192 192 192 255 0.036935 0.784694
75.39233 31.70406 -31.19531 0.8379372 0.357131 -0.4126971 192 192 192 255 0.034241 0.768564
73.7774 21.61135 7.831543 0.8880522 0.1791195 0.4234142 192 192 192 255 0.15983 0.510132
72.21381 60.69284 31.19531 0.8311996 -0.5475642 0.09633663 192 192 192 255 0.035943 0.782212
54.9577 34.57232 31.19531 0.5266716 0.02914442 0.8495691 192 192 192 255 0.027818 0.769914
59.49872 37.43292 7.738989 0.9810457 -0.06851084 0.1812611 192 192 192 255 0.159853 0.51509
0 152.8302 -31.19531 -0.9998317 -0.009516392 -0.01568501 192 192 192 255 0.001942 0.575594
0 161.2092 -36.27903 -0.9985324 -0.01936335 -0.05057967 192 192 192 255 0.001942 0.579539
84.79138 161.2092 -36.27903 0.5451401 -0.2470035 -0.8011314 192 192 192 255 0.043177 0.829539
89.45752 171.7327 -36.27903 0.5596898 -0.2549695 -0.7885036 192 192 192 255 0.044062 0.584494
0 171.7327 -36.27903 -0.9988174 -0.01357011 -0.04668847 192 192 192 255 0.001942 0.584494
0 176.6436 -42.16045 -0.5881401 -0.4514529 -0.6710302 192 192 192 255 0.001942 0.586806
0 161.2092 36.27903 -0.9985324 -0.009681676 0.05328703 192 192 192 255 0.001942 0.579539
0 152.8302 31.19531 -0.9993273 -0.01902318 0.0313542 192 192 192 255 0.001942 0.575594
77.18048 83.09756 -31.19531 0.3493036 -0.1175828 -0.9296028 192 192 192 255 0.038282 0.792761
86.33557 161.2092 36.27903 0.8641935 -0.1628508 0.476077 192 192 192 255 0.042592 0.829539
0 176.6436 42.16045 -0.0006871891 -0.0002637412 0.9999998 192 192 192 255 0.001942 0.586806
0 171.7327 36.27903 -0.9988173 -0.02714022 0.04034067 192 192 192 255 0.001942 0.584494
88.11456 171.7327 36.27903 0.8680545 -0.1576726 0.4707661 192 192 192 255 0.044939 0.589108
0 233.0446 36.27903 -0.9988174 0.01357011 0.0466883 192 192 192 255 0.001942 0.613362
0 228.1336 42.16045 -0.3417184 0.5246035 0.7797562 192 192 192 255 0.001942 0.611049
0 286 -31.19531 -0.4670915 0.285324 -0.8369085 192 192 192 255 0.001942 0.638295
0 304.2 -17.1535 -0.003772392 0.00153625 -0.9999917 192 192 192 255 0.001942 0.646864
0 304.2 17.1535 -0.8457085 0.1722011 0.5050979 192 192 192 255 0.001942 0.646864
0 286 31.19531 -0.3302835 0.4035091 0.8532838 192 192 192 255 0.001942 0.638295
189.0546 467.9148 -36.7772 -0.0004550939 -0.0002294728 -0.9999999 192 192 192 255 0.090956 0.973947
250 415.0144 -36.7772 9.042303e-05 -0.0003021545 -0.9999999 192 192 192 255 0.119651 0.949039
213.1006 474.9395 -42.16045 -0.0006181533 -0.0004609726 -0.9999997 192 192 192 255 0.102278 0.977254
250 445.3909 -42.16045 0 -0.0004615755 -0.9999999 192 192 192 255 0.119651 0.963342
286.8994 474.9395 -42.16045 0.0008567231 -0.0004610034 -0.9999996 192 192 192 255 0.137025 0.727254
182.8851 460.3886 16.96082 -0.7162104 -0.4838751 0.5028991 192 192 192 255 0.088051 0.720403
0 233.0446 -36.27903 -0.9988174 0.01357011 -0.0466883 192 192 192 255 0.001942 0.613362
310.9456 467.9148 -36.7772 0.0003647903 -0.0001288221 -0.9999999 192 192 192 255 0.148346 0.723947
95.05255 233.0446 -36.27903 0.58573 0.1579445 -0.7949679 192 192 192 255 0.046696 0.863362
189.0546 467.9148 36.7772 -0.0003646564 -0.0001284421 0.9999999 192 192 192 255 0.090956 0.973947
250 415.0144 36.7772 5.544578e-11 -0.0004014004 0.9999999 192 192 192 255 0.119651 0.949039
213.1006 474.9395 42.16045 -0.0006181533 -0.0004609726 0.9999997 192 192 192 255 0.102278 0.977254
250 445.3909 42.16045 0 -0.0004615755 0.9999999 192 192 192 255 0.119651 0.963342
286.8994 474.9395 42.16045 0.0008567231 -0.0004610034 0.9999996 192 192 192 255 0.137025 0.977254
0 250.5795 -31.19531 -0.9993513 0.02113991 -0.02915638 192 192 192 255 0.001942 0.621618
92.36957 243.568 -36.27903 0.568975 0.1575476 -0.8071222 192 192 192 255 0.046745 0.618316
0 243.568 -36.27903 -0.9993684 0.0109653 -0.03380381 192 192 192 255 0.001942 0.618316
310.9456 467.9148 36.7772 0.0003647141 -0.0001284618 0.9999999 192 192 192 255 0.148346 0.723947
92.44861 228.1336 42.16045 0.5243579 0.2063781 0.8261095 192 192 192 255 0.04547 0.861049
87.04797 176.6436 42.16045 0.0003270843 -0.0005808013 0.9999998 192 192 192 255 0.042928 0.836806
97.56085 286 -31.19531 0.9992931 0.03563104 0.01199041 192 192 192 255 0.169394 0.5763
100.6993 304.2 -17.1535 0.241942 -0.02464973 -0.9699776 192 192 192 255 0.165953 0.580902
93.99579 233.0446 36.27903 0.6228253 0.1600445 0.7658162 192 192 192 255 0.04631 0.853224
88.5614 176.6436 -42.16045 0.2863111 -0.2701597 -0.9192604 192 192 192 255 0.04364 0.836806
0 250.5795 31.19531 -0.9993513 0.02113992 0.02915638 192 192 192 255 0.001942 0.621618
0 243.568 36.27903 -0.9993684 0.0109653 0.03380381 192 192 192 255 0.001942 0.618316
91.49725 243.568 36.27903 0.6067458 0.1573716 0.7791622 192 192 192 255 0.046159 0.618316
0 445.8 -17.1535 -0.00046515 -7.103445e-05 -0.9999999 192 192 192 255 0.001942 0.713534
0 464 -31.19531 -0.000129776 -0.0001585479 -1 192 192 192 255 0.001942 0.722103
214 464 -31.19531 -0.0001584499 -7.922467e-05 -1 192 192 192 255 0.102701 0.722103
95.74127 286 31.19531 0.9995281 0.0077571 0.02972204 192 192 192 255 0.154105 0.576385
98.12988 304.2 17.1535 0.9868082 0.004763753 0.1618234 192 192 192 255 0.157546 0.580835
500 161.2092 -36.27903 0.9985324 -0.009681677 -0.05328703 192 192 192 255 0.23736 0.579539
500 152.8302 -31.19531 0.9993513 -0.01868086 -0.03078998 192 192 192 255 0.23736 0.575594
214 464 31.19531 -0.0001584499 -7.922467e-05 1 192 192 192 255 0.102701 0.722103
0 464 31.19531 -0.000129776 -0.0001585479 1 192 192 192 255 0.001942 0.722103
0 445.8 17.1535 -0.0002552189 -3.897524e-05 1 192 192 192 255 0.001942 0.713534
404.3663 161.2092 -36.27903 -0.2576787 -0.2094456 -0.9432573 192 192 192 255 0.188198 0.829539
500 152.8302 31.19531 0.9998378 -0.009344976 0.01540248 192 192 192 255 0.23736 0.575594
500 161.2092 36.27903 0.9985324 -0.01936335 0.05057967 192 192 192 255 0.23736 0.579539
500 233.0446 -36.27903 0.998858 0.01333465 -0.04587818 192 192 192 255 0.23736 0.613362
500 228.1336 -42.16045 0.3417184 0.5246035 -0.7797562 192 192 192 255 0.23736 0.611049
399.8425 228.1336 -42.16045 -0.2551751 0.2297914 -0.939192 192 192 192 255 0.190202 0.611049
396.1554 161.2092 36.27903 -0.9211225 0.009532391 0.3891563 192 192 192 255 0.188466 0.829539
398.17 233.0446 -36.27903 -0.7503538 0.118085 -0.6504039 192 192 192 255 0.189415 0.863362
396.3663 171.7327 36.27903 -0.9207799 -0.005480731 0.390044 192 192 192 255 0.188566 0.584494
500 171.7327 36.27903 0.9987744 -0.01381403 0.04752769 192 192 192 255 0.23736 0.584494
500 250.5795 -31.19531 0.9998317 0.01076908 -0.01485282 192 192 192 255 0.23736 0.621618
500 243.568 -36.27903 0.9985639 0.02191294 -0.04888787 192 192 192 255 0.23736 0.618316
399.5967 243.568 -36.27903 -0.7421495 0.1087542 -0.6613521 192 192 192 255 0.189571 0.618316
213.1006 500 -42.16045 -0.2958312 0.567645 -0.7682858 192 192 192 255 0.102278 0.989053
189.0546 500 -36.7772 -0.3457527 0.7459823 -0.5691796 192 192 192 255 0.090956 0.989053
310.9456 500 -36.7772 0.3200406 0.3288533 -0.8884985 192 192 192 255 0.148346 0.989053
286 464 -31.19531 7.924547e-05 -0.0001584905 -1 192 192 192 255 0.136601 0.722103
304.2 407.9272 -17.1535 -0.5577818 -0.8231142 -0.1065953 192 192 192 255 0.14517 0.696945
204.2848 500 -36.7772 -0.3685125 0.7071068 -0.6034887 192 192 192 255 0.098127 0.989053
500 233.0446 36.27903 0.998858 0.02666929 0.03964049 192 192 192 255 0.23736 0.613362
398.0174 233.0446 36.27903 -0.6745977 0.1527519 0.7222083 192 192 192 255 0.189343 0.863362
182.8851 500 -31.19531 -0.8218901 0.3801477 -0.4242458 192 192 192 255 0.088051 0.989053
317.1149 500 -31.19531 0.6562119 0.6742815 -0.3387188 192 192 192 255 0.151251 0.989053
400.3113 243.568 36.27903 -0.6691163 0.1605401 0.7256103 192 192 192 255 0.189507 0.618316
500 243.568 36.27903 0.9985639 0.01095647 0.05244194 192 192 192 255 0.23736 0.618316
500 250.5795 31.19531 0.9993273 0.0215273 0.02969066 192 192 192 255 0.23736 0.621618
500 176.6436 42.16045 0.5881401 -0.4514529 0.6710302 192 192 192 255 0.23736 0.836806
500 228.1336 42.16045 0.3417184 0.2623018 0.9024557 192 192 192 255 0.23736 0.861049
286.8994 500 -42.16045 0.1698571 0.3259241 -0.9300119 192 192 192 255 0.137025 0.739053
295.7152 500 -36.7772 0.3685125 0.7071068 -0.6034887 192 192 192 255 0.141175 0.739053
304.2 406.8238 17.1535 -9.04097e-05 -0.001221886 0.9999993 192 192 192 255 0.14517 0.696425
286 464 31.19531 0.0001584541 -0.0001584536 1 192 192 192 255 0.136601 0.722103
310.9456 500 36.7772 0.3200406 0.3288533 0.8884985 192 192 192 255 0.148346 0.989053
189.0546 500 36.7772 -0.3457527 0.7459823 0.5691796 192 192 192 255 0.090956 0.989053
213.1006 500 42.16045 -0.2958312 0.567645 0.7682858 192 192 192 255 0.102278 0.989053
317.1149 500 31.19531 0.6562119 0.6742815 0.3387188 192 192 192 255 0.151251 0.989053
182.8851 500 31.19531 -0.8218901 0.3801477 0.4242458 192 192 192 255 0.088051 0.989053
204.2848 500 36.7772 -0.3685125 0.7071068 0.6034887 192 192 192 255 0.098127 0.989053
295.7152 500 36.7772 0.3685125 0.7071068 0.6034887 192 192 192 255 0.141175 0.739053
286.8994 500 42.16045 0.1698571 0.3259241 0.9300119 192 192 192 255 0.137025 0.739053
500 445.8 -17.1535 0.8136709 -0.2485162 -0.5255277 192 192 192 255 0.23736 0.713534
500 464 -31.19531 0.0001297894 -7.928208e-05 -1 192 192 192 255 0.23736 0.722103
500 445.8 17.1535 0.0002821434 -8.61739e-05 1 192 192 192 255 0.23736 0.713534
500 464 31.19531 0.0001297894 -7.928208e-05 1 192 192 192 255 0.23736 0.722103
401.4056 176.6436 -42.16045 -0.4255846 -0.3787949 -0.8218225 192 192 192 255 0.189436 0.586806
500 176.6436 -42.16045 0.5881401 -0.2257265 -0.7766201 192 192 192 255 0.23736 0.586806
500 171.7327 -36.27903 0.9987744 -0.02762807 -0.04106578 192 192 192 255 0.23736 0.584494
396.0168 171.7327 -36.27903 -0.2679325 -0.2059292 -0.9411723 192 192 192 255 0.188401 0.584494
404.8364 228.1336 42.16045 -0.3427287 0.3792548 0.8594782 192 192 192 255 0.190129 0.861049
400.6094 176.6436 42.16045 -0.209086 -0.2095777 0.9551755 192 192 192 255 0.18935 0.836806
396.7544 304.2 -17.1535 -0.001456976 0.0005302243 -0.9999988 192 192 192 255 0.188748 0.646946
500 304.2 -17.1535 0.0009709479 0.000296553 -0.9999995 192 192 192 255 0.23736 0.646864
500 286 -31.19531 0.5733748 0.3502475 -0.7406538 192 192 192 255 0.23736 0.638295
397.5823 286 -31.19531 -0.9999938 -0.002853341 -0.002070438 192 192 192 255 0.189138 0.638295
397.5034 286 31.19531 -0.9996307 0.01444407 -0.02301916 192 192 192 255 0.189101 0.638302
500 286 31.19531 0.5733749 0.1751238 0.8003581 192 192 192 255 0.23736 0.638295
500 304.2 17.1535 0.0003979221 0.0002430717 0.9999999 192 192 192 255 0.23736 0.646864
396.7544 304.2 17.1535 -0.215763 -0.002679817 0.9764421 192 192 192 255 0.188748 0.64693
195.8 397.8678 17.1535 -0.1272731 -0.8498849 0.511368 192 192 192 255 0.092615 0.690489
286 406.3785 -31.19531 0.1837828 -0.9735961 -0.1354054 192 192 192 255 0.136601 0.946215
214 395.057 -31.19531 -0.1824203 -0.8622837 -0.4724296 192 192 192 255 0.102701 0.940885
350.7123 360.7077 -17.1535 -0.6808693 -0.727082 -0.08814076 192 192 192 255 0.16707 0.67376
395.8347 324.1045 -17.1535 -0.2466419 -0.303573 -0.9203321 192 192 192 255 0.188315 0.656236
351.3892 360.0623 17.1535 -0.4995151 -0.5583994 0.6623254 192 192 192 255 0.1674 0.673434
396.1473 316.9254 17.1535 -0.03443434 -0.01427667 0.999305 192 192 192 255 0.18848 0.652859
392.037 135.8804 -31.19531 -0.4486099 -0.07424855 -0.8906382 192 192 192 255 0.169394 0.706602
397.5823 286 -31.19531 -0.9999938 -0.002853341 -0.002070438 192 192 192 255 0.169394 0.669882
393.8197 141.4215 31.19531 -0.9989932 0.04476158 0.003021083 192 192 192 255 0.154105 0.70526
286 406.3785 -31.19531 0.1837828 -0.9735961 -0.1354054 192 192 192 255 0.169394 0.629837
214 395.057 -31.19531 -0.1824203 -0.8622837 -0.4724296 192 192 192 255 0.169394 0.612063
195.8 397.1852 -17.1535 0.5729141 -0.8140446 -0.09539893 192 192 192 255 0.165953 0.607542
286 405.6231 31.19531 0.1454143 -0.9892183 -0.01737691 192 192 192 255 0.154105 0.629861
397.5034 286 31.19531 -0.9996307 0.01444407 -0.02301916 192 192 192 255 0.154105 0.66981
396.5757 250.5795 31.19531 -0.6893519 0.1530762 0.7080691 192 192 192 255 0.188549 0.871618
396.2839 250.5795 -31.19531 -0.7540734 0.1158317 -0.6464954 192 192 192 255 0.188611 0.871618
394.111 152.8302 31.19531 -0.9283579 0.001010561 0.3716863 192 192 192 255 0.187474 0.825594
392.6625 152.8302 -31.19531 -0.2634933 -0.2079969 -0.9419706 192 192 192 255 0.186855 0.825594
86.33557 161.2092 36.27903 0.8641935 -0.1628508 0.476077 192 192 192 255 0.046724 0.845974
87.46216 152.8302 31.19531 0.8771461 -0.1563621 0.4540547 192 192 192 255 0.046657 0.846055
91.49725 243.568 36.27903 0.6067458 0.1573716 0.7791622 192 192 192 255 0.046688 0.845123
96.01697 250.5795 31.19531 0.6297674 0.1511471 0.7619368 192 192 192 255 0.046616 0.845055
97.44958 250.5795 -31.19531 0.5874294 0.1533724 -0.7946091 192 192 192 255 0.047825 0.871618
88.27576 152.8302 -31.19531 0.5571812 -0.2525169 -0.7910653 192 192 192 255 0.043506 0.825594
0 228.1336 -42.16045 -0.2660528 0.4084422 -0.87315 192 192 192 255 0.001942 0.861049
88.08765 228.1336 -42.16045 0.4838623 0.2307288 -0.844181 192 192 192 255 0.04583 0.861049
100.6993 312.0616 -17.1535 0.1058454 -0.0008934021 -0.9943822 192 192 192 255 0.165953 0.582578
98.12988 313.4706 17.1535 0.07979214 -0.03457677 0.9962117 192 192 192 255 0.157546 0.582918
406.6392 0 2.284668 -0.9439861 -0.1175011 -0.3083566 192 192 192 255 0.161189 0.737926
417.5859 0 -31.19531 -0.420128 -0.0701467 -0.9047496 192 192 192 255 0.169394 0.738727
96.71167 200.0729 -31.19531 0.1720909 -0.00173611 -0.9850796 192 192 192 255 0.047478 0.847837
77.66394 93.63224 31.19531 0.759599 -0.1696618 0.6278728 192 192 192 255 0.038509 0.797721
96.35327 206.5859 31.19531 0.8596407 -0.02345139 0.5103607 192 192 192 255 0.047309 0.850904
97.56085 286 -31.19531 0.9992931 0.03563104 0.01199041 192 192 192 255 0.047877 0.888295
95.74127 286 31.19531 0.9995281 0.0077571 0.02972204 192 192 192 255 0.047021 0.888295
214 403.5132 31.19531 -0.1287832 -0.8500099 0.5107818 192 192 192 255 0.102701 0.956493
242.5065 399.2377 31.19531 0.0843353 -0.9905415 0.1082366 192 192 192 255 0.117511 0.9446
286 405.6231 31.19531 0.1454143 -0.9892183 -0.01737691 192 192 192 255 0.136601 0.94586
214 403.5132 31.19531 -0.1287832 -0.8500099 0.5107818 192 192 192 255 0.102701 0.706493
412.741 373.4067 17.1535 -0.002698827 -0.005678048 0.9999803 192 192 192 255 0.157546 0.658239
396.2769 357.8415 17.1535 0.03804058 -0.04041022 0.9984588 192 192 192 255 0.157546 0.657962
411.0764 350.8071 17.1535 -0.03355051 0.002548008 0.9994338 192 192 192 255 0.157546 0.65839
130.6699 371.6759 17.1535 0.05263245 -0.05605344 0.9970396 192 192 192 255 0.157546 0.595158
177.7361 388.2185 17.1535 0.03472761 -0.09853914 0.994527 192 192 192 255 0.157546 0.603355
430.9299 41.18919 31.19531 -0.1785556 -0.0290776 0.9835001 192 192 192 255 0.215679 0.766565
404.3848 76.54457 31.19531 -0.606833 -0.4547952 0.6518551 192 192 192 255 0.190683 0.799858
416.85 0 31.19531 -0.1070681 0.03620825 0.9935922 192 192 192 255 0.154105 0.737217
136.4321 401.8951 -17.1535 -0.007483226 -0.03021609 -0.9995154 192 192 192 255 0.044767 0.699626
185.3821 389.7414 -17.1535 0.1141571 -0.7694538 -0.6284179 192 192 192 255 0.079684 0.689179
151.11 358.7405 -17.1535 0.2448272 0.0121324 -0.9694908 192 192 192 255 0.064437 0.634712
149.4382 381.7587 -17.1535 0.2375866 0.01756628 -0.9712075 192 192 192 255 0.165953 0.600287
61.59406 39.58355 -31.19531 0.6314352 0.1096583 -0.7676358 192 192 192 255 0.169394 0.515801
76.58435 65.96411 -31.19531 0.7756745 -0.3148171 -0.5470095 192 192 192 255 0.169394 0.523203
72.21381 60.69284 31.19531 0.8311996 -0.5475642 0.09633663 192 192 192 255 0.154105 0.52165
54.9577 34.57232 31.19531 0.5266716 0.02914442 0.8495691 192 192 192 255 0.154105 0.514052
75.39233 31.70406 -31.19531 0.8379372 0.357131 -0.4126971 192 192 192 255 0.169394 0.512089
72.07977 0 0 0.9365686 -0.1865373 0.2967209 192 192 192 255 0.161749 0.504975
74.28931 0 -31.19531 0.5731981 -0.6087862 -0.5484737 192 192 192 255 0.169394 0.50467
62.17157 0 31.19531 0.4524455 0.01129301 0.8917206 192 192 192 255 0.154105 0.505759
3 0 1 2 
3 0 2 3 
3 4 5 2 
3 4 2 1 
3 6 7 8 
3 9 10 11 
3 12 13 14 
3 15 16 4 
3 15 4 1 
3 17 18 211 
3 17 211 190 
3 18 19 191 
3 20 21 22 
3 23 1 0 
3 23 0 24 
3 185 186 26 
3 185 26 6 
3 27 219 220 
3 27 220 28 
3 184 185 6 
3 184 6 8 
3 221 7 6 
3 221 6 29 
3 222 223 224 
3 222 224 30 
3 31 225 226 
3 31 226 32 
3 20 10 9 
3 20 9 21 
3 209 208 207 
3 4 227 213 
3 4 213 212 
3 21 9 35 
3 21 35 36 
3 37 9 11 
3 37 11 228 
3 39 229 230 
3 39 230 231 
3 204 202 203 
3 43 44 45 
3 46 15 1 
3 46 1 47 
3 0 3 217 
3 48 232 233 
3 48 233 49 
3 50 47 1 
3 50 1 23 
3 52 53 54 
3 55 234 235 
3 55 235 56 
3 141 59 57 
3 141 57 58 
3 60 61 62 
3 57 59 63 
3 57 63 64 
3 67 65 66 
3 67 66 70 
3 68 236 237 
3 68 237 69 
3 238 71 239 
3 240 72 241 
3 67 70 242 
3 67 242 86 
3 75 73 76 
3 75 76 77 
3 78 243 77 
3 78 77 89 
3 80 81 82 
3 25 244 83 
3 25 83 84 
3 85 79 158 
3 87 88 85 
3 58 245 90 
3 58 90 141 
3 91 92 93 
3 97 95 96 
3 97 96 100 
3 88 197 165 
3 99 79 85 
3 99 85 165 
3 14 13 101 
3 14 101 246 
3 247 248 102 
3 103 100 96 
3 103 96 111 
3 249 250 251 
3 252 104 253 
3 252 253 254 
3 105 90 245 
3 105 245 107 
3 106 255 76 
3 106 76 73 
3 108 109 110 
3 112 113 114 
3 112 114 115 
3 255 106 116 
3 255 116 119 
3 46 47 45 
3 46 45 44 
3 256 36 35 
3 256 35 118 
3 35 257 118 
3 120 121 122 
3 50 54 53 
3 50 53 47 
3 34 258 259 
3 21 260 123 
3 21 123 22 
3 261 26 186 
3 261 186 187 
3 262 263 264 
3 262 264 125 
3 126 127 128 
3 129 265 266 
3 129 266 267 
3 268 258 34 
3 268 34 269 
3 130 270 271 
3 130 271 131 
3 132 272 273 
3 132 273 274 
3 74 181 88 
3 74 88 87 
3 133 62 61 
3 133 61 275 
3 88 181 94 
3 88 94 98 
3 134 135 136 
3 134 136 137 
3 114 113 138 
3 114 138 139 
3 140 138 113 
3 140 113 40 
3 142 276 277 
3 142 277 143 
3 144 278 279 
3 144 279 280 
3 281 82 81 
3 281 81 145 
3 193 192 146 
3 147 93 92 
3 147 92 282 
3 148 66 65 
3 148 65 149 
3 283 284 150 
3 283 150 151 
3 114 152 153 
3 114 153 154 
3 155 285 286 
3 155 286 287 
3 136 135 92 
3 136 92 62 
3 92 91 60 
3 92 60 62 
3 42 154 153 
3 42 153 156 
3 240 288 157 
3 240 157 72 
3 238 289 290 
3 238 290 71 
3 159 291 160 
3 159 160 292 
3 288 293 161 
3 288 161 157 
3 115 114 154 
3 115 154 117 
3 162 163 294 
3 162 294 164 
3 295 110 109 
3 295 109 166 
3 289 296 297 
3 289 297 290 
3 298 299 300 
3 298 300 167 
3 110 81 80 
3 110 80 108 
3 168 169 95 
3 168 95 97 
3 47 170 122 
3 47 122 45 
3 301 81 110 
3 301 110 302 
3 242 303 304 
3 242 304 86 
3 305 171 306 
3 305 306 172 
3 47 53 127 
3 47 127 170 
3 247 102 307 
3 247 307 308 
3 249 251 173 
3 249 173 309 
3 308 307 310 
3 308 310 311 
3 309 173 174 
3 309 174 312 
3 175 170 114 
3 175 114 139 
3 103 111 313 
3 103 313 314 
3 176 152 114 
3 176 114 170 
3 315 160 291 
3 315 291 316 
3 317 318 306 
3 317 306 171 
3 319 320 321 
3 319 321 322 
3 51 129 267 
3 51 267 177 
3 175 120 122 
3 175 122 170 
3 176 170 127 
3 176 127 126 
3 302 323 324 
3 302 324 301 
3 325 326 327 
3 325 327 328 
3 40 113 112 
3 329 330 331 
3 329 331 332 
3 333 132 274 
3 333 274 124 
3 199 274 38 
3 274 236 68 
3 274 68 38 
3 43 45 122 
3 43 122 121 
3 334 335 43 
3 334 43 121 
3 128 127 53 
3 128 53 52 
3 56 235 33 
3 160 315 326 
3 160 326 292 
3 336 292 326 
3 336 326 337 
3 326 325 337 
3 171 195 317 
3 338 194 305 
3 339 332 331 
3 340 41 178 
3 340 178 341 
3 342 178 41 
3 79 343 158 
3 344 180 179 
3 344 179 345 
3 343 346 180 
3 343 180 344 
3 79 99 346 
3 79 346 343 
3 341 347 181 
3 341 181 74 
3 94 181 347 
3 145 324 323 
3 145 323 295 
3 282 134 137 
3 282 137 133 
3 348 295 166 
3 282 349 147 
3 145 350 281 
3 145 295 348 
3 145 348 350 
3 322 130 131 
3 133 351 349 
3 133 349 282 
3 37 352 353 
3 354 260 355 
3 37 353 182 
3 37 182 183 
3 183 182 355 
3 183 355 260 
3 256 118 183 
3 256 183 260 
3 118 257 37 
3 118 37 183 
3 29 261 187 
3 29 187 188 
3 246 101 356 
3 29 357 221 
3 188 189 357 
3 188 357 29 
3 12 14 185 
3 12 185 184 
3 14 358 186 
3 14 186 185 
3 187 186 358 
3 187 358 359 
3 188 187 359 
3 188 359 246 
3 246 356 189 
3 246 189 188 
3 268 19 258 
3 34 259 360 
3 269 34 361 
3 258 19 18 
3 17 258 18 
3 341 178 347 
3 347 178 342 
3 362 201 363 
3 227 4 364 
3 0 365 366 
3 4 16 367 
3 4 367 364 
3 0 366 368 
3 0 368 24 
3 179 180 193 
3 179 193 146 
3 180 346 193 
3 52 369 370 
3 52 370 371 
3 52 371 128 
3 333 372 272 
3 333 272 132 
3 331 196 339 
3 331 317 195 
3 331 195 196 
3 194 195 171 
3 194 171 305 
3 198 373 374 
3 197 198 374 
3 197 374 165 
3 88 98 197 
3 98 375 198 
3 98 198 197 
3 375 373 198 
3 88 165 85 
3 124 274 199 
3 376 200 377 
3 361 200 376 
3 117 154 378 
3 379 378 154 
3 379 154 42 
3 342 41 203 
3 342 203 202 
3 380 203 201 
3 380 201 362 
3 204 203 380 
3 41 340 201 
3 363 201 340 
3 203 41 201 
3 361 34 206 
3 361 206 209 
3 361 209 200 
3 34 360 205 
3 34 205 206 
3 210 235 265 
3 210 265 381 
3 381 129 51 
3 381 51 382 
3 345 179 207 
3 207 179 146 
3 207 146 377 
3 200 209 207 
3 200 207 377 
3 33 235 210 
3 33 210 383 
3 384 206 205 
3 209 206 384 
3 209 384 208 
3 190 211 191 
3 191 211 18 
3 0 217 216 
3 0 216 365 
3 4 212 214 
3 4 214 5 
3 218 385 386 
3 218 386 387 
3 388 218 387 
3 190 191 387 
3 190 387 386 
3 389 215 390 
3 389 390 391 
3 215 392 390 
3 215 218 388 
3 389 385 218 
3 389 218 215 
3 215 388 392 
3 265 129 381 
