ply
format ascii 1.0
comment VCGLIB generated
comment TextureFile Dungeons_2_Texture_01_A.png
element vertex 75
property float x
property float y
property float z
property float nx
property float ny
property float nz
property uchar red
property uchar green
property uchar blue
property uchar alpha
property float texture_u
property float texture_v
element face 108
property list uchar int vertex_indices
end_header
-80.12695 0 -120.7803 -0.0006608216 0.4971277 -0.8676772 192 192 192 255 0.039983 0.833302
-80.12695 0 120.7803 -0.0321544 0.5163869 0.8557516 192 192 192 255 0.178408 0.833457
-65.0625 18.0135 -110.4619 -0.000404599 0.9999995 -0.0009153307 192 192 192 255 0.049954 0.845366
65.0625 18.0135 -110.4619 0.2538885 0.9565151 -0.1435948 192 192 192 255 0.049925 0.916191
65.0625 18.0135 110.4619 0.2362113 0.8115655 0.5343834 192 192 192 255 0.168933 0.915772
80.12695 0 -120.7803 0.0003303851 0.4965954 -0.8679821 192 192 192 255 0.039966 0.928352
80.12695 0 120.7803 0.0005722044 0.4971181 0.8676828 192 192 192 255 0.179044 0.927207
-56.22266 18.0135 -110.4619 0.007988811 0.9936646 -0.1121022 192 192 192 255 0.049775 0.850037
22.07227 18.0135 -110.4619 -0.05590238 0.7934849 -0.6060172 192 192 192 255 0.050025 0.893024
-21.11328 12.56505 -113.583 -1.329297e-09 0.5590822 -0.8291123 192 192 192 255 0.046965 0.868919
-11.94141 18.0135 -107.2949 0 0.7577265 -0.6525723 192 192 192 255 0.051351 0.874243
10.99414 18.0135 110.4619 0.06919443 0.8457988 0.5289958 192 192 192 255 0.168815 0.886208
55.28516 18.0135 110.4619 -0.1459162 0.9269335 0.3456919 192 192 192 255 0.169115 0.910579
44.87891 18.0135 105.9648 0 0.8844965 0.4665468 192 192 192 255 0.166871 0.904934
38.23828 14.51194 112.4678 1.607382e-09 0.5467619 0.8372881 192 192 192 255 0.170843 0.901603
-65.0625 18.0135 103.834 -0.0570801 0.9980762 0.02420283 192 192 192 255 0.165017 0.84506
-68.30273 14.13895 112.6816 -0.2844758 0.7722798 0.5680295 192 192 192 255 0.170174 0.842998
-51.82812 18.0135 110.4619 -0.07426028 0.7180166 0.6920531 192 192 192 255 0.168383 0.852212
100 -1.878896 100 0.3849101 -0.0003850718 0.922954 192 192 192 255 0.167675 0.822656
-100 -1.878896 100 -0.0006260861 -0.0002086954 0.9999998 192 192 192 255 0.167676 0.938998
100 -1.878896 -100 0.9999998 -0.0004338489 -0.0004338489 192 192 192 255 0.051334 0.822657
-100 -1.878896 -100 -0.2182179 -0.4364358 -0.8728716 192 192 192 255 0.051334 0.938998
-80.12695 30 80.12598 -0.3145613 0.7107806 0.6291599 192 192 192 255 0.06373 0.927559
80.12695 30 80.12598 0.5690832 0.7232544 0.3912128 192 192 192 255 0.062336 0.834095
-66.81445 47.6737 66.81543 -0.05146214 0.9812281 0.1858577 192 192 192 255 0.074528 0.916868
65.0625 50 65.06348 0.0003535946 0.602331 0.7982464 192 192 192 255 0.074941 0.846673
65.0625 50 -65.06348 0.0005385727 0.6020951 -0.7984242 192 192 192 255 0.144089 0.846659
-80.12695 30 -80.12695 -0.629119 0.710812 -0.3145724 192 192 192 255 0.155907 0.92701
80.12695 30 -80.12695 0.5082527 0.7286127 -0.4591328 192 192 192 255 0.156674 0.834128
-53.35156 50 -65.06348 -0.03960834 0.6469789 -0.7614785 192 192 192 255 0.144021 0.908782
-65.0625 50 -53.35156 -0.3423688 0.8757934 -0.3402494 192 192 192 255 0.138298 0.9147
-73.42188 38.90117 -73.42285 -0.3444547 0.874156 -0.3423482 192 192 192 255 0.150603 0.921481
65.0625 50 50.18945 0.1859445 0.9769146 -0.1051787 192 192 192 255 0.082516 0.846368
65.0625 50 -28.74512 0.1708881 0.9833609 0.06163326 192 192 192 255 0.125185 0.846364
67.80078 46.3655 21.41797 0.6787102 0.7344063 7.912469e-11 192 192 192 255 0.097708 0.844144
58.17969 50 38.46094 0.2823926 0.9583008 -0.04374922 192 192 192 255 0.088851 0.849796
56.48438 50 -5.180664 0.2500201 0.9679021 0.02560545 192 192 192 255 0.11231 0.850564
-65.0625 50 54.93262 -0.04982039 0.981652 0.1840578 192 192 192 255 0.080914 0.915287
-25.09766 50 65.06348 -0.008880618 0.6989525 0.715113 192 192 192 255 0.075193 0.894413
-120.7793 0 80.12598 -0.8676971 0.4970926 0.0008621264 192 192 192 255 0.179714 0.928092
120.7793 0 80.12598 0.868034 0.4965047 0.0003511823 192 192 192 255 0.039295 0.928114
-110.4629 18.0135 65.06348 -0.8671252 0.4980902 0.0004310216 192 192 192 255 0.169731 0.916552
110.4629 18.0135 65.06348 0.8673146 0.4977599 0.0007024374 192 192 192 255 0.049355 0.916237
-113.4258 12.83947 -69.38965 -0.4575725 0.886272 -0.07176048 192 192 192 255 0.171188 0.842474
113.1152 13.37991 -68.9375 0.403527 0.9079198 -0.1133478 192 192 192 255 0.047968 0.842287
-120.7793 0 -80.12695 -0.8982133 -0.1886602 -0.3970142 192 192 192 255 0.178124 0.833819
120.7793 0 -80.12695 0.4501986 0.4046781 -0.7959628 192 192 192 255 0.041096 0.83354
-104.0586 18.0135 -65.06348 -0.4575004 0.8866482 -0.06744186 192 192 192 255 0.165681 0.846011
-110.4629 18.0135 -20.61328 -0.7997695 0.6001216 -0.01492975 192 192 192 255 0.169014 0.869917
103.6777 18.0135 -65.06348 0.3972609 0.9106895 -0.1132624 192 192 192 255 0.05356 0.845535
110.4629 18.0135 -40.10352 0.8301359 0.5574101 -0.01297855 192 192 192 255 0.050336 0.859017
-90 30 100 -0.0196386 0.02504248 0.9994935 192 192 192 255 0.069892 0.832999
-100 22.07946 100 -0.01666236 0.02051879 0.9996507 192 192 192 255 0.064068 0.829703
-100 30 90 -0.5275939 0.6709599 0.5210159 192 192 192 255 0.065623 0.836557
-75.92773 30 -100 -0.06057857 0.984929 -0.1620037 192 192 192 255 0.070861 0.929299
-100 28.5 -100 -0.06996864 0.9846699 -0.15978 192 192 192 255 0.06112 0.928211
-100 30 -90.5 -0.07367649 0.9852853 -0.1542226 192 192 192 255 0.060593 0.924524
72 30 -100 0.05248317 0.9866837 -0.1539506 192 192 192 255 0.1456 0.930099
100 28.5 -100 0.7473301 0.6563979 -0.1031482 192 192 192 255 0.157381 0.928425
100 30 -90 0.7475665 0.65689 -0.09818285 192 192 192 255 0.157998 0.924508
90.5 30 100 0.04992482 0.02263422 0.9984965 192 192 192 255 0.154197 0.838492
100 8.116907 100 0.4688528 0.0191635 0.8830684 192 192 192 255 0.16577 0.830752
100 30 90.5 0.6775312 0.3010147 0.6710751 192 192 192 255 0.157926 0.842131
120.7793 0 80.12598 0.868034 0.4965047 0.0003511823 192 192 192 255 0.156126 0.810576
-120.7793 0 80.12598 -0.8676971 0.4970926 0.0008621264 192 192 192 255 0.156105 0.951092
-120.7793 0 -80.12695 -0.8982133 -0.1886602 -0.3970142 192 192 192 255 0.062884 0.951079
120.7793 0 -80.12695 0.4501986 0.4046781 -0.7959628 192 192 192 255 0.062905 0.810562
-80.12695 0 120.7803 -0.0321544 0.5163869 0.8557516 192 192 192 255 0.179771 0.927427
-80.12695 0 -120.7803 -0.0006608216 0.4971277 -0.8676772 192 192 192 255 0.039253 0.927448
80.12695 0 -120.7803 0.0003303851 0.4965954 -0.8679821 192 192 192 255 0.039239 0.834227
80.12695 0 120.7803 0.0005722044 0.4971181 0.8676828 192 192 192 255 0.179757 0.834206
-100 -1.878896 -100 -0.2182179 -0.4364358 -0.8728716 192 192 192 255 0.049806 0.940454
-100 -1.878896 100 -0.0006260861 -0.0002086954 0.9999998 192 192 192 255 0.055738 0.821201
100 -1.878896 -100 0.9999998 -0.0004338489 -0.0004338489 192 192 192 255 0.169204 0.940119
100 -1.878896 100 0.3849101 -0.0003850718 0.922954 192 192 192 255 0.169089 0.827103
3 10 13 3 
3 10 3 8 
3 3 4 6 
3 3 6 5 
3 1 6 14 
3 5 0 9 
3 10 9 7 
3 8 9 10 
3 9 0 2 
3 9 2 7 
3 5 9 8 
3 5 8 3 
3 11 14 13 
3 14 6 4 
3 14 4 12 
3 13 14 12 
3 3 13 12 
3 3 12 4 
3 16 17 15 
3 1 14 11 
3 1 11 17 
3 13 15 17 
3 13 17 11 
3 15 1 16 
3 7 15 13 
3 7 13 10 
3 0 1 15 
3 0 15 2 
3 1 17 16 
3 7 2 15 
3 53 52 51 
3 18 19 21 
3 18 21 20 
3 59 58 57 
3 23 34 32 
3 23 32 25 
3 31 30 29 
3 24 38 37 
3 31 29 28 
3 31 28 27 
3 36 34 33 
3 32 34 35 
3 35 34 36 
3 27 22 24 
3 27 24 31 
3 22 23 38 
3 22 38 24 
3 29 38 35 
3 29 35 36 
3 35 38 25 
3 35 25 32 
3 29 36 33 
3 29 33 26 
3 37 38 29 
3 37 29 30 
3 34 28 26 
3 34 26 33 
3 23 28 34 
3 38 23 25 
3 31 24 37 
3 31 37 30 
3 28 29 26 
3 39 40 42 
3 39 42 41 
3 48 47 43 
3 48 39 41 
3 49 50 44 
3 41 42 50 
3 41 50 48 
3 40 50 42 
3 43 44 46 
3 43 46 45 
3 40 46 44 
3 40 44 50 
3 48 50 49 
3 48 49 47 
3 45 39 48 
3 45 48 43 
3 43 47 49 
3 43 49 44 
3 63 64 65 
3 63 65 66 
3 67 68 69 
3 67 69 70 
3 55 56 54 
3 55 71 72 
3 55 72 56 
3 56 72 52 
3 56 52 53 
3 58 73 71 
3 58 71 57 
3 71 55 54 
3 71 54 57 
3 61 62 60 
3 62 59 57 
3 62 57 54 
3 60 62 54 
3 60 54 56 
3 60 56 53 
3 60 53 51 
3 72 74 52 
3 51 52 74 
3 51 74 61 
3 61 60 51 
3 74 73 61 
3 62 61 73 
3 62 73 59 
3 58 59 73 
