ply
format ascii 1.0
comment VCGLIB generated
comment TextureFile Dungeons_2_Texture_01_A.png
element vertex 131
property float x
property float y
property float z
property float nx
property float ny
property float nz
property uchar red
property uchar green
property uchar blue
property uchar alpha
property float texture_u
property float texture_v
element face 130
property list uchar int vertex_indices
end_header
182.8851 460.3886 16.71592 -0.6245626 -0.6480485 0.435838 192 192 192 255 0.088051 0.720403
250 405.4006 31.1953 -0.08893786 -0.7388564 0.667968 192 192 192 255 0.119651 0.69012
189.0546 467.9148 36.7772 -0.6223276 -0.6476028 0.4396805 192 192 192 255 0.090956 0.723947
250 415.0144 36.7772 0.6508247 -0.2772626 0.7067903 192 192 192 255 0.119651 0.699039
189.0546 500 36.7772 -0.5584435 0.5722163 0.6005909 192 192 192 255 0.090956 0.739053
182.8851 500 31.1953 -0.6577299 0.6739513 0.336424 192 192 192 255 0.088051 0.739053
204.2848 474.9395 36.7772 -0.3640569 -0.1906651 0.911652 192 192 192 255 0.098127 0.727254
250 436.4496 36.7772 0.5420104 -0.460591 0.7029087 192 192 192 255 0.119651 0.959132
213.1006 484.0269 42.16047 -0.3585259 -0.1865263 0.9146951 192 192 192 255 0.102278 0.731533
250 445.3909 42.16047 0.3054928 -0.2596025 0.9161227 192 192 192 255 0.119651 0.963342
213.1006 500 42.16047 -0.295832 0.5676451 0.7682855 192 192 192 255 0.102278 0.989053
204.2848 500 36.7772 -0.3685134 0.7071068 0.6034881 192 192 192 255 0.098127 0.989053
0 152.8302 31.19533 -0.9998317 -0.009516399 0.01568507 192 192 192 255 0.001942 0.587793
0 161.2092 36.27903 -0.9974176 -0.01934175 0.0691674 192 192 192 255 0.001942 0.579539
0 171.7327 36.27903 -0.07883333 -0.7652641 0.638871 192 192 192 255 0.001942 0.834494
0 176.6436 42.16047 -0.5860736 -0.2202813 0.7797396 192 192 192 255 0.001942 0.836806
0 228.1336 42.16047 -0.0001466439 0.000206446 1 192 192 192 255 0.001942 0.861049
250 196.4986 36.27903 0.2173901 -0.001088156 0.9760842 192 192 192 255 0.119651 0.595128
220.9162 178.0758 42.16047 0.0002789277 -0.0007036809 0.9999997 192 192 192 255 0.105957 0.587578
226.8501 171.7327 36.27903 0.0003235648 -0.3946565 0.9188287 192 192 192 255 0.108751 0.584494
0 233.0446 36.27903 -0.07157819 0.0008823427 0.9974346 192 192 192 255 0.001942 0.863362
250 204.2401 42.16047 0.0007600615 -0.0001418348 0.9999997 192 192 192 255 0.119651 0.599799
158.0221 225.7719 42.16047 -6.325958e-05 0.0001628847 1 192 192 192 255 0.076345 0.612949
250 326.9891 42.16047 -0.006690981 0.2820228 0.9593844 192 192 192 255 0.119651 0.907594
150 233.0446 36.27903 -0.0008687639 0.002236948 0.9999971 192 192 192 255 0.072568 0.613362
250 152.8302 31.19533 0.9999393 -0.00571861 0.009425499 192 192 192 255 0.11967 0.588029
250 161.2092 36.27903 0.214025 -0.0006188227 0.976828 192 192 192 255 0.119651 0.579539
0 243.568 36.27903 -0.9993682 0.01095366 0.0338123 192 192 192 255 0.001942 0.868316
0 250.5795 31.19533 -0.1199347 0.5859861 0.8013963 192 192 192 255 0.001942 0.871618
250 335.1343 36.27903 0.9994826 0.005852671 0.03162816 192 192 192 255 0.119651 0.895358
250 351.2254 36.27903 0.9993933 0.008590721 0.03375166 192 192 192 255 0.119651 0.669005
250 362.8381 31.19533 0.9999354 0.004227327 0.01054483 192 192 192 255 0.119675 0.663318
143.8265 243.568 36.27903 -0.03393796 0.2570163 0.965811 192 192 192 255 0.069659 0.619107
137.115 250.5795 31.19533 -0.000983517 0.5890187 0.8081189 192 192 192 255 0.066501 0.621618
0 0 31.19533 -1.939513e-05 -1.939513e-05 1 192 192 192 255 0.001942 0.753636
0 500 31.19533 -0.0002606147 0.0001303073 1 192 192 192 255 0.001942 0.989053
0 500 -14.23921 -0.6666667 0.6666667 -0.3333333 192 192 192 255 0.001942 0.989053
0 0 -14.23921 -0.8017837 -0.2672613 -0.5345225 192 192 192 255 0.001942 0.753636
214 385.066 31.19533 -0.2917116 0.07819306 0.9533049 192 192 192 255 0.102701 0.684938
110.5548 286 31.19533 -8.186793e-06 1.449155e-05 1 192 192 192 255 0.053995 0.638295
214 464 31.19533 -0.1081486 -0.1082171 0.9882272 192 192 192 255 0.102701 0.722103
0 286 31.19533 -3.16253e-05 3.863678e-05 1 192 192 192 255 0.001942 0.638295
0 464 31.19533 -0.330211 -0.2019128 0.9220586 192 192 192 255 0.001942 0.972103
195.8 392.8363 17.15352 -0.4205474 0.4387828 0.7941093 192 192 192 255 0.094132 0.688597
103.2456 304.2 17.15352 -0.0470373 0.04919259 0.9976811 192 192 192 255 0.050554 0.646864
195.8 445.8 17.15352 -0.0003655086 -0.6091828 0.7930298 192 192 192 255 0.094132 0.713534
0 304.2 17.15352 -0.0002051933 4.178094e-05 1 192 192 192 255 0.001942 0.646864
0 445.8 17.15352 -0.0002300066 -0.1171301 0.9931166 192 192 192 255 0.001942 0.713534
250 500 36.7772 0.7071068 0.7071068 0 192 192 192 255 0.119651 0.989053
250 500 42.16047 0.4082483 0.4082483 0.8164966 192 192 192 255 0.119651 0.989053
250 500 31.1953 0.7071069 0.7071066 -3.658964e-06 192 192 192 255 0.119651 0.989053
250.0001 500 36.7772 0.408249 0.4082489 0.816496 192 192 192 255 0.119651 0.989053
250 500 31.19533 0.0002605807 0.0002605807 0.9999999 192 192 192 255 0.119651 0.989053
250 0 31.19533 1.398523e-05 -1.398523e-05 1 192 192 192 255 0.119651 0.753636
250 0 -14.23921 0.6666667 -0.6666667 -0.3333333 192 192 192 255 0.119651 0.753636
250 500 -14.23921 0.4082483 0.4082483 -0.8164966 192 192 192 255 0.119651 0.989053
197.5458 446.3388 16.71592 -0.6227822 -0.6498831 0.4356539 192 192 192 255 0.100011 0.708942
202.1655 373.7325 31.19533 -0.2113425 0.132177 0.9684336 192 192 192 255 0.097129 0.929602
121.2263 296.2198 31.19533 -0.1705074 0.2617411 0.9499573 192 192 192 255 0.05902 0.643107
176.0883 331.9344 31.19533 -0.1903114 0.198724 0.9614002 192 192 192 255 0.084851 0.909922
154.5311 337.8902 25.68674 -0.2982936 0.3114799 0.9022202 192 192 192 255 0.074701 0.662727
209.3745 284.9841 42.16047 -0.2221497 0.3411759 0.9133721 192 192 192 255 0.100523 0.637816
240.5355 317.2032 42.16047 -0.4632742 0.1344816 0.8759519 192 192 192 255 0.115191 0.653445
228.2378 312.9174 36.27903 -0.2950724 0.2853715 0.9118637 192 192 192 255 0.109405 0.638395
236.3184 302.4702 42.16047 -0.04969858 0.04806637 0.997607 192 192 192 255 0.113209 0.89605
88.03867 243.568 36.27903 0.04209168 0.3246382 0.9449012 192 192 192 255 0.043394 0.618316
128.4881 238.2746 36.27903 0 0.1138841 0.9934941 192 192 192 255 0.062439 0.865751
124.2725 247.8868 33.16437 0.0001023066 0.4581444 0.8888778 192 192 192 255 0.060454 0.62035
86.79669 464 31.19533 -0.07947034 -0.3749699 0.9236245 192 192 192 255 0.042809 0.722103
37.13734 464 31.19533 0.06625551 -0.3156738 0.9465518 192 192 192 255 0.019428 0.722103
62.0897 469.3073 31.19533 0 -0.0221487 0.9997547 192 192 192 255 0.031176 0.974602
66.71642 459.3145 27.54899 4.771789e-08 -0.5764167 0.817156 192 192 192 255 0.033355 0.719897
221.291 468.3807 42.16047 -0.3609003 -0.1901317 0.9130175 192 192 192 255 0.106134 0.724166
186.3521 177.8517 42.16047 -0.04049854 -0.3015257 0.9525976 192 192 192 255 0.089683 0.587457
46.81945 176.9471 42.16047 0.02315851 -0.3655302 0.9305114 192 192 192 255 0.023987 0.58697
146.2086 183.271 42.16047 0.0003884132 -0.0599118 0.9982036 192 192 192 255 0.070783 0.839926
135.5129 173.7407 38.69 0.001531516 -0.502507 0.8645718 192 192 192 255 0.065747 0.58547
0 161.2092 36.27903 -0.9974176 -0.01934175 0.0691674 192 192 192 255 0.001942 0.829539
250 161.2092 36.27903 0.214025 -0.0006188227 0.976828 192 192 192 255 0.119651 0.829539
226.8501 171.7327 36.27903 0.0003235648 -0.3946565 0.9188287 192 192 192 255 0.108751 0.834494
0 171.7327 36.27903 -0.07883333 -0.7652641 0.638871 192 192 192 255 0.001942 0.584494
158.0221 225.7719 42.16047 -6.325958e-05 0.0001628847 1 192 192 192 255 0.076345 0.859937
0 228.1336 42.16047 -0.0001466439 0.000206446 1 192 192 192 255 0.001942 0.611049
0 233.0446 36.27903 -0.07157819 0.0008823427 0.9974346 192 192 192 255 0.001942 0.613362
150 233.0446 36.27903 -0.0008687639 0.002236948 0.9999971 192 192 192 255 0.072568 0.863362
0 250.5795 31.19533 -0.1199347 0.5859861 0.8013963 192 192 192 255 0.001942 0.621618
250 196.4986 36.27903 0.2173901 -0.001088156 0.9760842 192 192 192 255 0.119651 0.862225
143.8265 243.568 36.27903 -0.03393796 0.2570163 0.965811 192 192 192 255 0.069661 0.867405
228.2378 312.9174 36.27903 -0.2950724 0.2853715 0.9118637 192 192 192 255 0.109405 0.888395
250 351.2254 36.27903 0.9993933 0.008590721 0.03375166 192 192 192 255 0.119651 0.919005
220.9162 178.0758 42.16047 0.0002789277 -0.0007036809 0.9999997 192 192 192 255 0.105957 0.83748
250 204.2401 42.16047 0.0007600615 -0.0001418348 0.9999997 192 192 192 255 0.119651 0.849799
0 152.8302 31.19533 -0.9998317 -0.009516399 0.01568507 192 192 192 255 0.001942 0.825594
110.5548 286 31.19533 -8.186793e-06 1.449155e-05 1 192 192 192 255 0.053995 0.888295
0 286 31.19533 -3.16253e-05 3.863678e-05 1 192 192 192 255 0.001942 0.888295
0 445.8 17.15352 -0.0002300066 -0.1171301 0.9931166 192 192 192 255 0.001942 0.963534
0 304.2 17.15352 -0.0002051933 4.178094e-05 1 192 192 192 255 0.001942 0.896864
189.0546 500 36.7772 -0.5584435 0.5722163 0.6005909 192 192 192 255 0.090956 0.989053
182.8851 500 31.1953 -0.6577299 0.6739513 0.336424 192 192 192 255 0.088051 0.989053
189.0546 467.9148 36.7772 -0.6223276 -0.6476028 0.4396805 192 192 192 255 0.090956 0.973947
250 415.0144 36.7772 0.6508247 -0.2772626 0.7067903 192 192 192 255 0.119651 0.949039
214 385.066 31.19533 -0.2917116 0.07819306 0.9533049 192 192 192 255 0.102701 0.934938
250 405.4006 31.1953 -0.08893786 -0.7388564 0.667968 192 192 192 255 0.119651 0.94012
250 152.8302 31.19533 0.9999393 -0.00571861 0.009425499 192 192 192 255 0.11967 0.838029
250 362.8381 31.19533 0.9999354 0.004227327 0.01054483 192 192 192 255 0.119675 0.913318
214 464 31.19533 -0.1081486 -0.1082171 0.9882272 192 192 192 255 0.102701 0.972103
202.1655 373.7325 31.19533 -0.2113425 0.132177 0.9684336 192 192 192 255 0.097129 0.679602
176.0883 331.9344 31.19533 -0.1903114 0.198724 0.9614002 192 192 192 255 0.084851 0.659922
121.2263 296.2198 31.19533 -0.1705074 0.2617411 0.9499573 192 192 192 255 0.05902 0.893107
250 326.9891 42.16047 -0.006690981 0.2820228 0.9593844 192 192 192 255 0.119651 0.657594
250 335.1343 36.27903 0.9994826 0.005852671 0.03162816 192 192 192 255 0.119651 0.645358
236.3184 302.4702 42.16047 -0.04969858 0.04806637 0.997607 192 192 192 255 0.112078 0.655442
128.4881 238.2746 36.27903 0 0.1138841 0.9934941 192 192 192 255 0.062438 0.617644
62.0897 469.3073 31.19533 0 -0.0221487 0.9997547 192 192 192 255 0.031176 0.724129
0 464 31.19533 -0.330211 -0.2019128 0.9220586 192 192 192 255 0.001942 0.722103
37.13734 464 31.19533 0.06625551 -0.3156738 0.9465518 192 192 192 255 0.019428 0.972103
86.79669 464 31.19533 -0.07947034 -0.3749699 0.9236245 192 192 192 255 0.042809 0.972103
250 436.4496 36.7772 0.5420104 -0.460591 0.7029087 192 192 192 255 0.119651 0.709132
250 445.3909 42.16047 0.3054928 -0.2596025 0.9161227 192 192 192 255 0.119651 0.713342
213.1006 484.0269 42.16047 -0.3585259 -0.1865263 0.9146951 192 192 192 255 0.102278 0.981533
221.291 468.3807 42.16047 -0.3609003 -0.1901317 0.9130175 192 192 192 255 0.106134 0.974166
213.1006 500 42.16047 -0.295832 0.5676451 0.7682855 192 192 192 255 0.102278 0.739053
204.2848 500 36.7772 -0.3685134 0.7071068 0.6034881 192 192 192 255 0.098127 0.739053
88.03867 243.568 36.27903 0.04209168 0.3246382 0.9449012 192 192 192 255 0.043394 0.868316
0 243.568 36.27903 -0.9993682 0.01095366 0.0338123 192 192 192 255 0.001942 0.618316
240.5355 317.2032 42.16047 -0.4632742 0.1344816 0.8759519 192 192 192 255 0.115195 0.902986
209.3745 284.9841 42.16047 -0.2221497 0.3411759 0.9133721 192 192 192 255 0.100523 0.887816
146.2086 183.271 42.16047 0.0003884132 -0.0599118 0.9982036 192 192 192 255 0.070791 0.588696
0 176.6436 42.16047 -0.5860736 -0.2202813 0.7797396 192 192 192 255 0.001942 0.586806
46.81945 176.9471 42.16047 0.02315851 -0.3655302 0.9305114 192 192 192 255 0.023987 0.836949
186.3521 177.8517 42.16047 -0.04049854 -0.3015257 0.9525976 192 192 192 255 0.089683 0.837375
3 4 5 0 
3 4 0 2 
3 2 56 1 
3 2 1 3 
3 6 72 8 
3 28 20 27 
3 18 19 17 
3 18 17 21 
3 24 22 61 
3 24 61 63 
3 25 26 13 
3 25 13 12 
3 77 78 79 
3 77 79 14 
3 80 19 76 
3 75 81 16 
3 30 31 33 
3 30 33 32 
3 82 22 24 
3 82 24 83 
3 20 84 66 
3 85 67 33 
3 78 86 79 
3 87 84 88 
3 87 88 29 
3 87 29 89 
3 90 91 64 
3 20 14 15 
3 20 15 16 
3 14 92 77 
3 28 92 14 
3 28 14 20 
3 44 47 46 
3 35 70 52 
3 44 60 43 
3 38 40 45 
3 38 45 43 
3 45 71 47 
3 41 39 44 
3 41 44 46 
3 34 93 94 
3 95 42 35 
3 95 35 36 
3 96 37 34 
3 96 34 94 
3 95 36 37 
3 95 37 96 
3 10 49 48 
3 10 48 11 
3 97 51 50 
3 97 50 98 
3 99 100 51 
3 99 51 97 
3 59 53 101 
3 59 101 57 
3 34 53 93 
3 34 37 54 
3 34 54 53 
3 55 54 37 
3 55 37 36 
3 36 35 52 
3 36 52 55 
3 0 56 2 
3 100 102 50 
3 100 50 51 
3 9 7 48 
3 9 48 49 
3 91 86 29 
3 91 29 23 
3 29 86 103 
3 29 103 104 
3 104 89 29 
3 78 103 86 
3 105 101 53 
3 105 53 52 
3 52 53 54 
3 52 54 55 
3 106 60 107 
3 107 60 58 
3 39 58 60 
3 39 60 44 
3 43 60 106 
3 43 106 38 
3 93 53 59 
3 93 59 108 
3 63 62 109 
3 63 109 110 
3 63 111 62 
3 63 61 111 
3 32 67 112 
3 112 67 65 
3 69 71 113 
3 113 71 68 
3 45 40 68 
3 45 68 71 
3 47 71 69 
3 47 69 114 
3 70 35 42 
3 70 42 115 
3 70 116 105 
3 70 105 52 
3 6 117 118 
3 6 118 72 
3 119 120 9 
3 119 9 49 
3 119 49 10 
3 121 122 6 
3 121 6 8 
3 66 84 87 
3 20 66 123 
3 20 123 27 
3 85 124 65 
3 85 65 67 
3 33 67 32 
3 64 91 23 
3 64 23 125 
3 90 64 126 
3 90 126 81 
3 127 76 73 
3 74 76 127 
3 76 19 18 
3 76 18 73 
3 80 76 74 
3 80 74 128 
3 75 16 15 
3 75 15 129 
3 90 81 75 
3 90 75 130 
3 44 43 45 
3 44 45 47 
