ply
format ascii 1.0
comment VCGLIB generated
comment TextureFile Dungeons_2_Texture_01_A.png
element vertex 238
property float x
property float y
property float z
property float nx
property float ny
property float nz
property uchar red
property uchar green
property uchar blue
property uchar alpha
property float texture_u
property float texture_v
element face 192
property list uchar int vertex_indices
end_header
50 33.51131 50 0.2030533 0.9423744 0.2658946 192 192 192 255 0.155376 0.839327
50 33.51131 -50 0.4451691 0.8954463 -0.0006581421 192 192 192 255 0.155376 0.895866
-50 33.51131 -50 -0.4451294 0.8954658 -0.0009373614 192 192 192 255 0.098837 0.895866
-50 33.51131 50 -0.240598 0.9432268 0.228989 192 192 192 255 0.231179 0.745195
39.78806 47.6995 39.78805 0.5726753 0.3569534 0.7379888 192 192 192 255 0.039468 0.753217
39.78806 47.6995 -39.78805 0.5197929 0.4630084 -0.7179404 192 192 192 255 0.149602 0.981976
-39.78806 47.6995 -39.78805 -0.793591 0.329768 -0.5113379 192 192 192 255 0.104611 0.981976
-39.78806 47.6995 39.78805 -0.7210788 0.4817287 0.4979787 192 192 192 255 0.225405 0.753217
62.09261 0 -62.09265 1 -0.0001576037 -0.0001574364 192 192 192 255 0.118606 0.83249
62.09261 0 62.09265 0.4567851 -0.0002675291 0.889577 192 192 192 255 0.118606 0.902703
62.09261 27.49798 -62.09265 0.93887 0.3441627 -0.008667492 192 192 192 255 0.162213 0.902703
62.09261 27.49798 62.09265 0.7915589 0.2974953 0.5337893 192 192 192 255 0.162213 0.83249
-62.09266 27.49798 -62.09265 -0.9863513 0.1646548 -0.0002001399 192 192 192 255 0.092 0.902703
-62.09266 0 -62.09265 -0.9999996 -0.000585678 -0.000585678 192 192 192 255 0.13488 0.902703
-62.09266 0 62.09265 -0.9385267 -0.000173665 0.3452066 192 192 192 255 0.092 0.902703
-62.09266 15.99893 62.09265 -0.6670507 0.04361543 0.7437345 192 192 192 255 0.127607 0.83249
19.89602 74.41493 -39.78805 0.4212929 0.05736244 -0.9051087 192 192 192 255 0.138356 0.966871
39.78806 74.41493 -19.89601 0.6837469 0.2597651 -0.6819181 192 192 192 255 0.073213 0.768322
39.78806 60.34914 -39.78805 0.5031081 0.7039542 -0.501329 192 192 192 255 0.084459 0.760369
-19.89602 74.41493 39.78805 -0.499326 0.7043254 0.5045784 192 192 192 255 0.115857 0.768322
-39.78806 74.41493 19.89601 -0.5053241 0.7034425 0.4998162 192 192 192 255 0.214158 0.768322
-39.78806 60.34914 39.78805 -0.5022098 0.7026975 0.5039857 192 192 192 255 0.225405 0.760369
19.89602 74.41493 39.78805 0.4998629 0.7034426 0.5052778 192 192 192 255 0.138356 0.768322
39.78806 60.34914 39.78805 0.5031081 0.7039542 0.501329 192 192 192 255 0.039468 0.760369
39.78806 74.41493 19.89601 0.5046016 0.7043253 0.4993027 192 192 192 255 0.050714 0.768322
-39.78806 74.41493 -19.89601 -0.5046044 0.7043208 -0.4993061 192 192 192 255 0.19166 0.768322
-19.89602 74.41493 -39.78805 -0.01443566 0.02031441 -0.9996895 192 192 192 255 0.115857 0.966871
-39.78806 60.34914 -39.78805 -0.5022098 0.7026975 -0.5039857 192 192 192 255 0.180413 0.760369
50 466.4887 50 0.0007333749 -0.8954733 0.4451146 192 192 192 255 0.155376 0.895866
50 466.4887 -50 0.0007465674 -0.8955174 -0.4450259 192 192 192 255 0.155376 0.839327
-50 466.4887 -50 -0.2921804 -0.9400692 -0.1757853 192 192 192 255 0.098837 0.839327
-50 466.4887 50 -0.2370099 -0.9432506 0.2326042 192 192 192 255 0.231179 0.989998
39.78806 452.3005 39.78805 0.5726752 -0.3569537 0.7379887 192 192 192 255 0.039468 0.981976
39.78806 452.3005 -39.78805 0.5197928 -0.4630088 -0.7179404 192 192 192 255 0.149602 0.753217
-39.78806 452.3005 -39.78805 -0.7935908 -0.3297682 -0.5113379 192 192 192 255 0.104611 0.753217
-39.78806 452.3005 39.78805 -0.7210786 -0.481729 0.4979787 192 192 192 255 0.225405 0.981976
62.09261 500 -62.09265 0.0001827674 0.0001827674 -1 192 192 192 255 0.13488 0.83249
62.09261 500 62.09265 0.0003008636 0.0003008636 0.9999999 192 192 192 255 0.13488 0.902703
62.09261 472.502 -62.09265 0.004253306 -0.3408041 -0.9401248 192 192 192 255 0.162213 0.83249
62.09261 472.502 62.09265 0.0004883471 -0.3398387 0.9404836 192 192 192 255 0.162213 0.902703
-62.09266 472.502 -62.09265 -0.9731036 -0.2064407 -0.1022338 192 192 192 255 0.092 0.83249
-62.09266 500 -62.09265 -0.6458101 0.0003782368 -0.763498 192 192 192 255 0.118677 0.902703
-62.09266 500 62.09265 -0.9395155 0.0001748276 0.3425063 192 192 192 255 0.092 0.83249
-55.66429 469.3054 55.66427 -0.5726061 -0.6911109 0.4410079 192 192 192 255 0.118429 0.836124
19.89602 425.5851 -39.78805 0.4999453 -0.7034332 -0.5052094 192 192 192 255 0.138356 0.768322
39.78806 425.5851 -19.89601 0.5059676 -0.7036874 -0.4988196 192 192 192 255 0.073213 0.966871
39.78806 439.6509 -39.78805 0.5031081 -0.7039542 -0.501329 192 192 192 255 0.084459 0.974824
-19.89602 425.5851 39.78805 -0.5002967 -0.7040719 0.5039703 192 192 192 255 0.115857 0.966871
-39.78806 425.5851 19.89601 -0.505919 -0.7036914 0.4988632 192 192 192 255 0.214158 0.966871
-39.78806 439.6509 39.78805 -0.5022098 -0.7026975 0.5039857 192 192 192 255 0.225405 0.974824
19.89602 425.5851 39.78805 0.4988742 -0.703701 0.5058948 192 192 192 255 0.138356 0.966871
39.78806 439.6509 39.78805 0.5031081 -0.7039542 0.501329 192 192 192 255 0.039468 0.974824
39.78806 425.5851 19.89601 0.503992 -0.7040909 0.5002481 192 192 192 255 0.050714 0.966871
-39.78806 425.5851 -19.89601 -0.5038112 -0.7040737 -0.5004544 192 192 192 255 0.19166 0.966871
-19.89602 425.5851 -39.78805 -0.4992319 -0.7043246 -0.5046726 192 192 192 255 0.115857 0.768322
-39.78806 439.6509 -39.78805 -0.5022098 -0.7026975 -0.5039857 192 192 192 255 0.180413 0.974824
-34.91345 60.34914 34.91345 -0.96153 0 0.2747003 192 192 192 255 0.107367 0.530241
34.91345 60.34914 34.91345 0.4631285 0 0.8862911 192 192 192 255 0.146846 0.530241
-34.91345 439.6509 34.91345 -0.6464705 -7.383878e-10 0.762939 192 192 192 255 0.107367 0.731571
34.91345 439.6509 34.91345 0.7071068 -2.547732e-08 0.7071068 192 192 192 255 0.146846 0.731571
-34.91345 439.6509 -34.91345 -0.7071068 0 -0.7071068 192 192 192 255 0.107367 0.530241
34.91345 439.6509 -34.91345 0.8488205 -6.118464e-10 -0.5286812 192 192 192 255 0.146846 0.530241
-34.91345 60.34914 -34.91345 -0.7071068 0 -0.7071068 192 192 192 255 0.107367 0.731571
34.91345 60.34914 -34.91345 0.5486226 0 -0.8360702 192 192 192 255 0.146846 0.731571
17.35771 247.4749 39.78805 0.3914208 -0.00452097 0.9202007 192 192 192 255 0.13692 0.866169
-18.40759 363.6398 39.78805 -0.3897742 0.001463662 0.9209093 192 192 192 255 0.116699 0.931848
-39.78806 110.5081 18.08488 -0.9232047 -0.0009494324 0.3843075 192 192 192 255 0.213134 0.788729
-39.78806 250 -19.89601 -0.9191474 -0.0002030527 -0.3939137 192 192 192 255 0.19166 0.867597
-17.98624 399.5468 -39.78805 -0.000162758 -8.088018e-07 -1 192 192 192 255 0.116937 0.783044
19.89602 250 -39.78805 0.04952323 -1.502872e-07 -0.998773 192 192 192 255 0.138356 0.867597
39.78806 116.5825 -18.36691 0.72808 0.004984213 -0.6854741 192 192 192 255 0.072348 0.792163
39.78806 380.9929 17.3085 0.9241827 -0.0002061266 0.3819506 192 192 192 255 0.052177 0.941659
34.91345 146.5337 34.91345 0.9558963 0.002212494 0.2936961 192 192 192 255 0.146846 0.575987
34.91344 227.9019 34.91344 0.7056248 -0.002817205 0.7085801 192 192 192 255 0.146846 0.619177
34.91345 192.3033 26.17565 0.9920064 5.328282e-08 0.1261878 192 192 192 255 0.047164 0.600281
26.03116 191.5556 34.91345 0.02830669 1.18464e-08 0.9995993 192 192 192 255 0.141824 0.599884
-34.91345 257.2397 -34.91345 -0.8956317 0.001129389 -0.4447952 192 192 192 255 0.107367 0.627063
-34.91345 406.4836 -34.91345 -0.1825199 -0.001977508 -0.9832002 192 192 192 255 0.107367 0.547846
-34.91345 369.8285 -27.00217 -0.9942592 0 -0.1069987 192 192 192 255 0.187643 0.69451
-27.39892 362.3488 -34.91345 -0.1125781 0 -0.9936429 192 192 192 255 0.111615 0.571273
19.89602 216.1846 -39.78805 0.3834494 -0.009525895 -0.9235128 192 192 192 255 0.138356 0.886715
19.89602 168.2908 -39.78805 0.3211274 0.00343893 -0.9470298 192 192 192 255 0.138356 0.913794
11.5693 184.4321 -39.78805 0.07849398 2.774335e-09 -0.9969146 192 192 192 255 0.133648 0.904668
23.03501 186.4032 -36.40779 0.6046338 2.360588e-08 -0.7965036 192 192 192 255 0.082548 0.831639
-62.09266 27.49798 36.15121 -0.7072755 0.7067468 0.01644727 192 192 192 255 0.134109 0.847157
-46.49424 27.49798 62.09265 -0.009414883 0.4045619 0.9144621 192 192 192 255 0.134109 0.893884
-56.60614 30.22626 56.60614 -0.6220688 0.6878374 0.3740459 192 192 192 255 0.135651 0.835592
62.09261 27.49798 2.969893 0.8361604 0.5483865 -0.01039186 192 192 192 255 0.162213 0.865917
62.09261 27.49798 -52.74944 0.9543937 0.2964458 0.03539256 192 192 192 255 0.162213 0.897421
56.92353 30.06842 -38.82672 0.7699355 0.6381218 0 192 192 192 255 0.159291 0.889549
62.09263 18.92076 -32.58739 0.985543 0.1694254 2.243981e-09 192 192 192 255 0.129304 0.849172
-39.46199 472.502 -62.09265 0.005942523 -0.3132694 -0.9496458 192 192 192 255 0.104795 0.83249
45.96418 472.502 -62.09265 -0.02169452 -0.3196693 -0.9472808 192 192 192 255 0.153094 0.83249
20.79487 481.1171 -62.09265 0 -0.1545781 -0.9879806 192 192 192 255 0.129353 0.855839
24.38575 470.1821 -57.42738 2.352789e-09 -0.6371408 -0.7707475 192 192 192 255 0.140894 0.835128
-62.09266 472.502 41.91589 -0.7092401 -0.7046948 0.01958775 192 192 192 255 0.120237 0.843898
-46.55299 472.502 62.09265 -0.01122139 -0.4037025 0.9148216 192 192 192 255 0.120237 0.893917
-62.09266 484.2243 62.09265 -0.6658512 -0.04393887 0.7447897 192 192 192 255 0.126864 0.83249
-34.91345 180.312 34.91345 -0.7572131 -0.002611351 0.6531627 192 192 192 255 0.107367 0.593916
-34.91345 139.0964 34.91345 -0.4352472 0.004864048 0.9002979 192 192 192 255 0.107367 0.57204
-26.43496 157.3574 34.91345 -0.05919825 0 0.9982463 192 192 192 255 0.109764 0.582376
-34.91345 161.5721 26.68094 -0.9927089 0 0.1205362 192 192 192 255 0.217995 0.583969
-56.60614 30.22626 56.60614 -0.6220688 0.6878374 0.3740459 192 192 192 255 0.135651 0.899601
-62.09266 15.99893 62.09265 -0.6670507 0.04361543 0.7437345 192 192 192 255 0.127607 0.902703
50 33.51131 -50 0.4451691 0.8954463 -0.0006581421 192 192 192 255 0.155376 0.989998
-50 33.51131 -50 -0.4451294 0.8954658 -0.0009373614 192 192 192 255 0.098837 0.989998
50 33.51131 50 0.2030533 0.9423744 0.2658946 192 192 192 255 0.033694 0.745195
50 33.51131 -50 0.4451691 0.8954463 -0.0006581421 192 192 192 255 0.090233 0.745195
39.78806 47.6995 -39.78805 0.5197929 0.4630084 -0.7179404 192 192 192 255 0.084459 0.753217
-50 33.51131 -50 -0.4451294 0.8954658 -0.0009373614 192 192 192 255 0.17464 0.745195
-39.78806 47.6995 -39.78805 -0.793591 0.329768 -0.5113379 192 192 192 255 0.180413 0.753217
39.78806 47.6995 39.78805 0.5726753 0.3569534 0.7379888 192 192 192 255 0.149602 0.753217
-39.78806 47.6995 39.78805 -0.7210788 0.4817287 0.4979787 192 192 192 255 0.104611 0.753217
-50 33.51131 50 -0.240598 0.9432268 0.228989 192 192 192 255 0.098837 0.745195
50 33.51131 50 0.2030533 0.9423744 0.2658946 192 192 192 255 0.155376 0.745195
62.09261 27.49798 62.09265 0.7915589 0.2974953 0.5337893 192 192 192 255 0.134153 0.902703
62.09261 27.49798 2.969893 0.8361604 0.5483865 -0.01039186 192 192 192 255 0.134153 0.869276
62.09261 27.49798 -52.74944 0.9543937 0.2964458 0.03539256 192 192 192 255 0.134153 0.837772
62.09261 27.49798 -62.09265 0.93887 0.3441627 -0.008667492 192 192 192 255 0.134153 0.83249
62.09261 27.49798 -62.09265 0.93887 0.3441627 -0.008667492 192 192 192 255 0.119333 0.83249
62.09261 0 -62.09265 1 -0.0001576037 -0.0001574364 192 192 192 255 0.13488 0.83249
-62.09266 27.49798 -62.09265 -0.9863513 0.1646548 -0.0002001399 192 192 192 255 0.119333 0.902703
62.09261 0 62.09265 0.4567851 -0.0002675291 0.889577 192 192 192 255 0.162213 0.902703
-62.09266 0 -62.09265 -0.9999996 -0.000585678 -0.000585678 192 192 192 255 0.092 0.83249
62.09261 0 -62.09265 1 -0.0001576037 -0.0001574364 192 192 192 255 0.162213 0.83249
-39.78806 60.34914 39.78805 -0.5022098 0.7026975 0.5039857 192 192 192 255 0.104611 0.760369
39.78806 60.34914 39.78805 0.5031081 0.7039542 0.501329 192 192 192 255 0.149602 0.760369
-39.78806 60.34914 -39.78805 -0.5022098 0.7026975 -0.5039857 192 192 192 255 0.104611 0.974824
39.78806 60.34914 -39.78805 0.5031081 0.7039542 -0.501329 192 192 192 255 0.149602 0.974824
19.89602 250 -39.78805 0.04952323 -1.502872e-07 -0.998773 192 192 192 255 0.084459 0.867597
19.89602 216.1846 -39.78805 0.3834494 -0.009525895 -0.9235128 192 192 192 255 0.084459 0.848478
19.89602 168.2908 -39.78805 0.3211274 0.00343893 -0.9470298 192 192 192 255 0.084459 0.821398
19.89602 74.41493 -39.78805 0.4212929 0.05736244 -0.9051087 192 192 192 255 0.084459 0.768322
-19.89602 74.41493 39.78805 -0.499326 0.7043254 0.5045784 192 192 192 255 0.225405 0.768322
-18.40759 363.6398 39.78805 -0.3897742 0.001463662 0.9209093 192 192 192 255 0.225405 0.931848
39.78806 74.41493 19.89601 0.5046016 0.7043253 0.4993027 192 192 192 255 0.149602 0.768322
39.78806 380.9929 17.3085 0.9241827 -0.0002061266 0.3819506 192 192 192 255 0.149602 0.941659
-39.78806 74.41493 -19.89601 -0.5046044 0.7043208 -0.4993061 192 192 192 255 0.104611 0.966871
-39.78806 250 -19.89601 -0.9191474 -0.0002030527 -0.3939137 192 192 192 255 0.104611 0.867597
19.89602 74.41493 -39.78805 0.4212929 0.05736244 -0.9051087 192 192 192 255 0.121483 0.87322
39.78806 74.41493 -19.89601 0.6837469 0.2597651 -0.6819181 192 192 192 255 0.13273 0.861973
39.78806 60.34914 -39.78805 0.5031081 0.7039542 -0.501329 192 192 192 255 0.13273 0.87322
-19.89602 74.41493 39.78805 -0.499326 0.7043254 0.5045784 192 192 192 255 0.13273 0.861973
-39.78806 74.41493 19.89601 -0.5053241 0.7034425 0.4998162 192 192 192 255 0.121483 0.87322
-39.78806 60.34914 39.78805 -0.5022098 0.7026975 0.5039857 192 192 192 255 0.121483 0.861973
19.89602 74.41493 39.78805 0.4998629 0.7034426 0.5052778 192 192 192 255 0.121483 0.861973
39.78806 60.34914 39.78805 0.5031081 0.7039542 0.501329 192 192 192 255 0.13273 0.861973
39.78806 74.41493 19.89601 0.5046016 0.7043253 0.4993027 192 192 192 255 0.13273 0.87322
-39.78806 74.41493 -19.89601 -0.5046044 0.7043208 -0.4993061 192 192 192 255 0.121483 0.861973
-19.89602 74.41493 -39.78805 -0.01443566 0.02031441 -0.9996895 192 192 192 255 0.13273 0.87322
-39.78806 60.34914 -39.78805 -0.5022098 0.7026975 -0.5039857 192 192 192 255 0.121483 0.87322
-50 466.4887 -50 -0.2921804 -0.9400692 -0.1757853 192 192 192 255 0.098837 0.745195
50 466.4887 -50 0.0007465674 -0.8955174 -0.4450259 192 192 192 255 0.155376 0.745195
50 466.4887 50 0.0007333749 -0.8954733 0.4451146 192 192 192 255 0.033694 0.989998
39.78806 452.3005 -39.78805 0.5197928 -0.4630088 -0.7179404 192 192 192 255 0.084459 0.981976
50 466.4887 -50 0.0007465674 -0.8955174 -0.4450259 192 192 192 255 0.090233 0.989998
-50 466.4887 -50 -0.2921804 -0.9400692 -0.1757853 192 192 192 255 0.17464 0.989998
-39.78806 452.3005 -39.78805 -0.7935908 -0.3297682 -0.5113379 192 192 192 255 0.180413 0.981976
39.78806 452.3005 39.78805 0.5726752 -0.3569537 0.7379887 192 192 192 255 0.149602 0.981976
50 466.4887 50 0.0007333749 -0.8954733 0.4451146 192 192 192 255 0.155376 0.989998
-50 466.4887 50 -0.2370099 -0.9432506 0.2326042 192 192 192 255 0.098837 0.989998
-39.78806 452.3005 39.78805 -0.7210786 -0.481729 0.4979787 192 192 192 255 0.104611 0.981976
62.09261 472.502 62.09265 0.0004883471 -0.3398387 0.9404836 192 192 192 255 0.119333 0.902703
62.09261 472.502 -62.09265 0.004253306 -0.3408041 -0.9401248 192 192 192 255 0.119333 0.83249
62.09261 472.502 -62.09265 0.004253306 -0.3408041 -0.9401248 192 192 192 255 0.134224 0.83249
45.96418 472.502 -62.09265 -0.02169452 -0.3196693 -0.9472808 192 192 192 255 0.134224 0.841609
62.09261 500 -62.09265 0.0001827674 0.0001827674 -1 192 192 192 255 0.118677 0.83249
-62.09266 472.502 -62.09265 -0.9731036 -0.2064407 -0.1022338 192 192 192 255 0.134224 0.902703
-39.46199 472.502 -62.09265 0.005942523 -0.3132694 -0.9496458 192 192 192 255 0.134224 0.889908
-62.09266 484.2243 62.09265 -0.6658512 -0.04393887 0.7447897 192 192 192 255 0.126864 0.902703
-55.66429 469.3054 55.66427 -0.5726061 -0.6911109 0.4410079 192 192 192 255 0.118429 0.899069
62.09261 500 62.09265 0.0003008636 0.0003008636 0.9999999 192 192 192 255 0.162213 0.83249
62.09261 500 -62.09265 0.0001827674 0.0001827674 -1 192 192 192 255 0.162213 0.902703
-62.09266 500 -62.09265 -0.6458101 0.0003782368 -0.763498 192 192 192 255 0.092 0.902703
-39.78806 439.6509 39.78805 -0.5022098 -0.7026975 0.5039857 192 192 192 255 0.104611 0.974824
39.78806 439.6509 39.78805 0.5031081 -0.7039542 0.501329 192 192 192 255 0.149602 0.974824
-39.78806 439.6509 -39.78805 -0.5022098 -0.7026975 -0.5039857 192 192 192 255 0.104611 0.760369
39.78806 439.6509 -39.78805 0.5031081 -0.7039542 -0.501329 192 192 192 255 0.149602 0.760369
19.89602 425.5851 -39.78805 0.4999453 -0.7034332 -0.5052094 192 192 192 255 0.121483 0.861973
39.78806 439.6509 -39.78805 0.5031081 -0.7039542 -0.501329 192 192 192 255 0.13273 0.861973
39.78806 425.5851 -19.89601 0.5059676 -0.7036874 -0.4988196 192 192 192 255 0.13273 0.87322
-19.89602 425.5851 39.78805 -0.5002967 -0.7040719 0.5039703 192 192 192 255 0.13273 0.87322
-39.78806 439.6509 39.78805 -0.5022098 -0.7026975 0.5039857 192 192 192 255 0.121483 0.87322
-39.78806 425.5851 19.89601 -0.505919 -0.7036914 0.4988632 192 192 192 255 0.121483 0.861973
19.89602 425.5851 39.78805 0.4988742 -0.703701 0.5058948 192 192 192 255 0.121483 0.87322
39.78806 425.5851 19.89601 0.503992 -0.7040909 0.5002481 192 192 192 255 0.13273 0.861973
39.78806 439.6509 39.78805 0.5031081 -0.7039542 0.501329 192 192 192 255 0.13273 0.87322
-39.78806 425.5851 -19.89601 -0.5038112 -0.7040737 -0.5004544 192 192 192 255 0.121483 0.87322
-39.78806 439.6509 -39.78805 -0.5022098 -0.7026975 -0.5039857 192 192 192 255 0.121483 0.861973
-19.89602 425.5851 -39.78805 -0.4992319 -0.7043246 -0.5046726 192 192 192 255 0.13273 0.861973
34.91345 60.34914 34.91345 0.4631285 0 0.8862911 192 192 192 255 0.042224 0.530241
34.91345 60.34914 -34.91345 0.5486226 0 -0.8360702 192 192 192 255 0.081703 0.530241
34.91345 146.5337 34.91345 0.9558963 0.002212494 0.2936961 192 192 192 255 0.042224 0.575987
34.91345 439.6509 -34.91345 0.8488205 -6.118464e-10 -0.5286812 192 192 192 255 0.081703 0.731571
34.91344 227.9019 34.91344 0.7056248 -0.002817205 0.7085801 192 192 192 255 0.042224 0.619177
34.91345 439.6509 34.91345 0.7071068 -2.547732e-08 0.7071068 192 192 192 255 0.042224 0.731571
-34.91345 60.34914 -34.91345 -0.7071068 0 -0.7071068 192 192 192 255 0.18317 0.530241
-34.91345 60.34914 34.91345 -0.96153 0 0.2747003 192 192 192 255 0.222649 0.530241
-34.91345 257.2397 -34.91345 -0.8956317 0.001129389 -0.4447952 192 192 192 255 0.18317 0.634749
-34.91345 139.0964 34.91345 -0.4352472 0.004864048 0.9002979 192 192 192 255 0.222649 0.57204
-34.91345 180.312 34.91345 -0.7572131 -0.002611351 0.6531627 192 192 192 255 0.222649 0.593916
-34.91345 439.6509 34.91345 -0.6464705 -7.383878e-10 0.762939 192 192 192 255 0.222649 0.731571
-34.91345 406.4836 -34.91345 -0.1825199 -0.001977508 -0.9832002 192 192 192 255 0.18317 0.713966
-34.91345 439.6509 -34.91345 -0.7071068 0 -0.7071068 192 192 192 255 0.18317 0.731571
-39.78806 110.5081 18.08488 -0.9232047 -0.0009494324 0.3843075 192 192 192 255 0.104611 0.788729
-39.78806 425.5851 19.89601 -0.505919 -0.7036914 0.4988632 192 192 192 255 0.104611 0.966871
-39.78806 425.5851 -19.89601 -0.5038112 -0.7040737 -0.5004544 192 192 192 255 0.104611 0.768322
19.89602 425.5851 -39.78805 0.4999453 -0.7034332 -0.5052094 192 192 192 255 0.084459 0.966871
17.35771 247.4749 39.78805 0.3914208 -0.00452097 0.9202007 192 192 192 255 0.039468 0.866169
19.89602 425.5851 39.78805 0.4988742 -0.703701 0.5058948 192 192 192 255 0.039468 0.966871
26.03116 191.5556 34.91345 0.02830669 1.18464e-08 0.9995993 192 192 192 255 0.042224 0.599884
34.91345 192.3033 26.17565 0.9920064 5.328282e-08 0.1261878 192 192 192 255 0.146846 0.600281
-27.39892 362.3488 -34.91345 -0.1125781 0 -0.9936429 192 192 192 255 0.18317 0.69054
-34.91345 369.8285 -27.00217 -0.9942592 0 -0.1069987 192 192 192 255 0.107367 0.567302
23.03501 186.4032 -36.40779 0.6046338 2.360588e-08 -0.7965036 192 192 192 255 0.14013 0.903554
-62.09266 0 -62.09265 -0.9999996 -0.000585678 -0.000585678 192 192 192 255 0.118562 0.902703
-62.09266 0 62.09265 -0.9385267 -0.000173665 0.3452066 192 192 192 255 0.118562 0.83249
-62.09266 27.49798 -62.09265 -0.9863513 0.1646548 -0.0002001399 192 192 192 255 0.134109 0.902703
-62.09266 0 62.09265 -0.9385267 -0.000173665 0.3452066 192 192 192 255 0.118562 0.902703
62.09261 0 62.09265 0.4567851 -0.0002675291 0.889577 192 192 192 255 0.118562 0.83249
62.09261 27.49798 62.09265 0.7915589 0.2974953 0.5337893 192 192 192 255 0.134109 0.83249
-46.49424 27.49798 62.09265 -0.009414883 0.4045619 0.9144621 192 192 192 255 0.100819 0.83249
-56.60614 30.22626 56.60614 -0.6220688 0.6878374 0.3740459 192 192 192 255 0.095102 0.835592
-50 33.51131 50 -0.240598 0.9432268 0.228989 192 192 192 255 0.098837 0.839327
-62.09266 27.49798 36.15121 -0.7072755 0.7067468 0.01644727 192 192 192 255 0.092 0.847157
56.92353 30.06842 -38.82672 0.7699355 0.6381218 0 192 192 192 255 0.135607 0.845644
24.38575 470.1821 -57.42738 2.352789e-09 -0.6371408 -0.7707475 192 192 192 255 0.135536 0.853809
-62.09266 472.502 41.91589 -0.7092401 -0.7046948 0.01958775 192 192 192 255 0.092 0.891296
-55.66429 469.3054 55.66427 -0.5726061 -0.6911109 0.4410079 192 192 192 255 0.095634 0.899069
-50 466.4887 50 -0.2370099 -0.9432506 0.2326042 192 192 192 255 0.098837 0.895866
-46.55299 472.502 62.09265 -0.01122139 -0.4037025 0.9148216 192 192 192 255 0.100786 0.902703
-62.09266 500 62.09265 -0.9395155 0.0001748276 0.3425063 192 192 192 255 0.135784 0.902703
62.09261 500 62.09265 0.0003008636 0.0003008636 0.9999999 192 192 192 255 0.135784 0.83249
62.09261 472.502 62.09265 0.0004883471 -0.3398387 0.9404836 192 192 192 255 0.120237 0.83249
-62.09266 500 -62.09265 -0.6458101 0.0003782368 -0.763498 192 192 192 255 0.135784 0.902703
-62.09266 472.502 -62.09265 -0.9731036 -0.2064407 -0.1022338 192 192 192 255 0.120237 0.902703
-62.09266 500 62.09265 -0.9395155 0.0001748276 0.3425063 192 192 192 255 0.135784 0.83249
-26.43496 157.3574 34.91345 -0.05919825 0 0.9982463 192 192 192 255 0.222649 0.583019
3 19 22 64 
3 19 64 65 
3 68 69 26 
3 69 80 26 
3 80 82 26 
3 82 81 26 
3 16 26 81 
3 24 17 70 
3 24 70 71 
3 25 20 66 
3 25 66 67 
3 11 87 0 
3 0 87 1 
3 87 89 1 
3 10 1 88 
3 1 89 88 
3 2 1 10 
3 2 10 12 
3 86 84 15 
3 85 102 103 
3 5 104 105 
3 5 105 6 
3 106 107 108 
3 106 108 4 
3 109 3 7 
3 109 7 110 
3 111 112 113 
3 111 113 114 
3 9 8 115 
3 115 8 116 
3 116 8 90 
3 90 8 117 
3 8 118 117 
3 119 120 13 
3 119 13 121 
3 122 14 123 
3 122 123 124 
3 23 18 17 
3 23 17 24 
3 27 21 20 
3 27 20 25 
3 125 126 22 
3 125 22 19 
3 127 26 16 
3 127 16 128 
3 129 70 130 
3 130 70 83 
3 83 70 131 
3 131 70 132 
3 17 132 70 
3 20 133 134 
3 20 134 66 
3 22 135 136 
3 22 136 64 
3 26 137 138 
3 26 138 68 
3 139 140 141 
3 142 143 144 
3 145 146 147 
3 148 149 150 
3 111 126 125 
3 111 125 112 
3 4 108 18 
3 4 18 23 
3 127 128 5 
3 127 5 6 
3 110 7 21 
3 110 21 27 
3 29 38 39 
3 29 39 28 
3 40 91 30 
3 38 29 92 
3 30 91 29 
3 91 94 29 
3 94 92 29 
3 33 34 151 
3 33 151 152 
3 153 32 154 
3 153 154 155 
3 156 157 35 
3 156 35 31 
3 158 159 160 
3 158 160 161 
3 37 162 163 
3 37 163 36 
3 164 165 166 
3 167 41 168 
3 41 166 168 
3 168 166 93 
3 165 93 166 
3 97 95 43 
3 96 169 170 
3 171 172 173 
3 171 173 42 
3 51 52 45 
3 51 45 46 
3 55 53 48 
3 55 48 49 
3 174 47 50 
3 174 50 175 
3 176 177 44 
3 176 44 54 
3 178 179 180 
3 181 182 183 
3 184 185 186 
3 187 188 189 
3 158 161 174 
3 158 174 175 
3 32 51 46 
3 32 46 154 
3 176 34 33 
3 176 33 177 
3 157 55 49 
3 157 49 35 
3 56 57 99 
3 57 72 99 
3 99 72 100 
3 72 75 100 
3 100 75 98 
3 98 75 58 
3 75 73 58 
3 73 59 58 
3 60 61 77 
3 61 63 77 
3 77 63 79 
3 79 63 76 
3 63 62 76 
3 190 191 192 
3 191 193 192 
3 192 193 74 
3 74 193 194 
3 193 195 194 
3 196 197 198 
3 197 199 198 
3 199 101 198 
3 101 200 198 
3 200 201 198 
3 198 201 78 
3 78 201 202 
3 201 203 202 
3 65 64 50 
3 65 50 47 
3 204 65 47 
3 204 47 205 
3 67 66 48 
3 67 48 53 
3 68 138 206 
3 68 206 54 
3 69 68 54 
3 69 54 44 
3 70 129 207 
3 70 207 45 
3 71 70 45 
3 71 45 52 
3 208 71 52 
3 208 52 209 
3 194 210 74 
3 211 75 72 
3 202 212 78 
3 213 79 76 
3 214 82 80 
3 81 82 214 
3 215 216 217 
3 216 15 217 
3 15 84 217 
3 218 219 103 
3 103 219 85 
3 219 220 85 
3 11 0 221 
3 222 221 223 
3 0 223 221 
3 12 224 2 
3 222 223 224 
3 223 2 224 
3 90 225 116 
3 117 225 90 
3 226 93 165 
3 168 93 226 
3 40 30 227 
3 228 227 229 
3 229 227 30 
3 39 230 28 
3 228 229 230 
3 28 230 229 
3 231 169 232 
3 169 96 232 
3 96 233 232 
3 234 235 236 
3 236 235 97 
3 235 95 97 
3 200 101 237 
3 237 101 199 
