ply
format ascii 1.0
comment VCGLIB generated
comment TextureFile Dungeons_2_Texture_01_A.png
element vertex 170
property float x
property float y
property float z
property float nx
property float ny
property float nz
property uchar red
property uchar green
property uchar blue
property uchar alpha
property float texture_u
property float texture_v
element face 158
property list uchar int vertex_indices
end_header
1.7e-05 0 25.36382 -6.530013e-05 -6.530013e-05 1 192 192 192 255 0.155835 0.987342
1.7e-05 0 -14.23921 -0.5861291 -0.5729858 -0.5728351 192 192 192 255 0.137767 0.987342
1.7e-05 500 25.36382 -1.675433e-05 3.350866e-05 1 192 192 192 255 0.084561 0.987342
1.7e-05 500 -14.23921 -0.6751109 0.3299862 -0.6597987 192 192 192 255 0.102629 0.987342
148.0188 500 -130.8607 -0.1802032 0.7339902 -0.6548169 192 192 192 255 0.006141 0.919811
148.0188 0 -130.8607 -0.0006190945 -0.9999994 -0.0009888221 192 192 192 255 0.234256 0.919811
166.6667 0 -91.25804 0 -1 0 192 192 192 255 0.102629 0.911304
166.6667 500 -91.25804 0.4958505 7.057429e-05 0.8684079 192 192 192 255 0.137768 0.911303
41.79987 500 -15.19828 -0.3068294 0.8203948 -0.482502 192 192 192 255 0.103067 0.968272
41.79987 0 -15.19828 -0.0003722947 -0.9999992 -0.00127326 192 192 192 255 0.13733 0.968272
61.25564 0 25.36382 0.09210639 -0.0241542 0.9954562 192 192 192 255 0.155835 0.959395
61.25564 500 25.36382 0.5685837 7.533954e-05 0.8226255 192 192 192 255 0.084561 0.959395
194.4667 227.8 -91.25804 0.0001215119 5.549158e-05 1 192 192 192 255 0.094849 0.863143
194.4667 372.2004 -91.25804 0.0001364298 -2.896881e-05 1 192 192 192 255 0.094849 0.929022
79.89709 0 4.739892 0.7363285 -0.1221116 0.6655142 192 192 192 255 0.103004 0.759214
79.89709 372.2004 4.739892 0.7419087 -1.352731e-05 0.6705011 192 192 192 255 0.103004 0.929022
148.0253 0 -70.6342 0.0330449 -0.1286405 0.9911406 192 192 192 255 0.112038 0.919809
148.0253 372.2004 -70.6342 0.7020535 -4.299759e-05 0.7121243 192 192 192 255 0.137392 0.929022
250.0304 152.8 -91.25804 2.041421e-12 1.823538e-05 1 192 192 192 255 0.120198 0.595275
250.0304 447.2002 -91.25804 8.772229e-12 -3.917977e-05 1 192 192 192 255 0.120198 0.963239
113.9612 447.2002 -32.9469 0.7418747 -2.869217e-05 0.6705385 192 192 192 255 0.120198 0.963239
214.4667 234.4014 -101.2579 0.3214806 0.06826156 0.9444525 192 192 192 255 0.103973 0.632504
214.4667 365.5988 -101.2579 0.2401146 -0.1096546 0.9645314 192 192 192 255 0.103973 0.69236
250.0304 186.3974 -101.2579 1.557848e-08 0.1391577 0.9902703 192 192 192 255 0.120198 0.610603
250.0304 413.6029 -101.2579 3.115695e-08 -0.1391576 0.9902703 192 192 192 255 0.120198 0.71426
85.88941 366.0643 -16.80298 0.7421498 -0.0001802821 0.670234 192 192 192 255 0.112833 0.692572
106.5426 411.5369 -39.65266 0.7417775 -0.0002698617 0.6706461 192 192 192 255 0.123258 0.713318
127.1956 366.0643 -62.5024 0.4412991 -1.725493e-05 0.8973601 192 192 192 255 0.133682 0.692572
85.88941 0 -16.80298 0.002835424 -0.9999952 0.001281885 192 192 192 255 0.112833 0.525563
127.1956 0 -62.5024 0.3608342 -0.1263167 0.9240361 192 192 192 255 0.133682 0.525563
500.0608 0 25.36382 0.4082483 -0.8164966 0.4082483 192 192 192 255 0.155835 0.7592
500.0608 0 -14.23921 0.6751109 -0.3299862 -0.6597987 192 192 192 255 0.137767 0.7592
500.0608 500 25.36382 0.5773503 0.5773503 0.5773503 192 192 192 255 0.084561 0.7592
500.0608 500 -14.23921 0.5861291 0.5729858 -0.5728351 192 192 192 255 0.102629 0.7592
352.042 500 -130.8607 0.2716234 0.7375708 -0.6182315 192 192 192 255 0.006141 0.82673
352.042 -0 -130.8607 0.0006188347 -0.9999989 -0.001408506 192 192 192 255 0.234256 0.82673
333.3941 -0 -91.25804 0 -1 0 192 192 192 255 0.102629 0.835238
333.3941 500 -91.25804 -0.2963963 9.506565e-05 0.9550651 192 192 192 255 0.137768 0.835238
458.261 500 -15.19828 0.2794481 0.7358996 -0.6167339 192 192 192 255 0.103067 0.77827
458.261 0 -15.19828 0.0003613804 -0.9999996 -0.0007975564 192 192 192 255 0.13733 0.77827
438.8051 0 25.36382 -0.7404719 -0.0600931 0.6693954 192 192 192 255 0.155835 0.787146
438.8051 500 25.36382 -0.741848 6.575055e-05 0.6705682 192 192 192 255 0.084561 0.787146
305.5942 227.8 -91.25804 -0.01727653 4.031268e-05 0.9998507 192 192 192 255 0.145548 0.863143
305.5942 372.2004 -91.25804 -0.02533026 -2.546443e-05 0.9996791 192 192 192 255 0.145548 0.929022
420.1638 -0 4.739892 -0.6947225 -0.5938367 0.4058555 192 192 192 255 0.137392 0.759214
420.1638 372.2004 4.739892 -0.7835414 -8.460973e-06 0.6213396 192 192 192 255 0.137392 0.929022
352.0355 -0 -70.6342 -0.02033057 -0.07911138 0.9966584 192 192 192 255 0.112038 0.826733
352.0355 372.2004 -70.6342 -0.7417739 -5.955801e-05 0.6706501 192 192 192 255 0.103004 0.929022
386.0996 447.2002 -32.9469 -0.7418748 -2.899901e-05 0.6705385 192 192 192 255 0.120198 0.963239
285.5941 234.4014 -101.2579 -0.4471076 5.580244e-05 0.8944802 192 192 192 255 0.136423 0.632504
285.5941 365.5988 -101.2579 -0.4469396 -0.000150885 0.8945641 192 192 192 255 0.136423 0.69236
414.1714 366.0643 -16.80298 -0.9359436 -3.546342e-05 0.3521499 192 192 192 255 0.127564 0.692572
393.5183 411.5369 -39.65266 -0.7417773 -0.0002688054 0.6706463 192 192 192 255 0.117139 0.713318
372.8652 366.0643 -62.5024 -0.7415635 -8.987485e-05 0.6708828 192 192 192 255 0.106714 0.692572
414.1714 0 -16.80298 -0.9571422 -0.113868 0.2662947 192 192 192 255 0.127564 0.525563
372.8652 -0 -62.5024 -0.2918319 -0.5981488 0.7463592 192 192 192 255 0.106714 0.525563
166.6667 92.72813 -91.25804 0.2693506 0.09642903 0.9582024 192 192 192 255 0.082165 0.801519
148.0253 75.16346 -70.6342 0.382396 0.02654364 0.9236172 192 192 192 255 0.073661 0.559855
333.3941 92.72813 -91.25804 -4.353577e-05 0.1616786 0.9868435 192 192 192 255 0.158231 0.801519
352.0355 75.16346 -70.6342 -0.05592034 0.1863293 0.9808947 192 192 192 255 0.166736 0.559855
305.5942 345.7546 -91.25804 -0.217124 -0.004438064 0.9761339 192 192 192 255 0.145548 0.916957
305.5942 250.5558 -91.25804 -0.328575 0.02613959 0.9441161 192 192 192 255 0.145548 0.873524
317.4852 274.0971 -91.25805 -0.02341554 0 0.9997258 192 192 192 255 0.150973 0.884265
298.0562 269.1743 -95.02698 -0.2991975 1.198934e-09 0.9541912 192 192 192 255 0.142109 0.648368
148.0253 304.0548 -70.6342 0.6168216 -0.006634072 0.7870751 192 192 192 255 0.137392 0.897932
148.0253 151.0873 -70.6342 0.6709112 0.00809826 0.7414935 192 192 192 255 0.137392 0.828144
157.494 249.8909 -81.10983 0.7107145 1.824329e-08 0.7034806 192 192 192 255 0.142171 0.873221
137.4448 247.0924 -66.50363 0.4867504 0 0.8735411 192 192 192 255 0.068833 0.638293
167.0885 75.16346 -70.63419 0.004998421 0.08362895 0.9964845 192 192 192 255 0.082358 0.793505
253.0485 75.16346 -70.6342 -0.006049734 0.2582813 0.9660508 192 192 192 255 0.121575 0.793505
208.4855 83.85324 -80.83745 2.880622e-08 0.7027345 0.7114522 192 192 192 255 0.101244 0.79747
207.5038 65.41867 -70.63424 8.825951e-08 0.1207891 0.9926782 192 192 192 255 0.100796 0.78906
420.1638 179.3235 4.739892 -0.9112675 -0.006536136 0.4117631 192 192 192 255 0.137392 0.841026
420.1638 58.19614 4.739892 -0.8580287 0.006846011 0.5135562 192 192 192 255 0.137392 0.785764
430.8559 142.2817 16.56914 -0.7777022 1.552601e-09 0.6286328 192 192 192 255 0.142789 0.824127
417.4835 138.8483 -4.895881 -0.9634228 -1.215799e-09 0.2679862 192 192 192 255 0.132996 0.58891
417.4835 138.8483 -4.895997 -0.8487652 0 0.52877 192 192 192 255 0.132996 0.82256
61.25564 214.181 25.36382 0.3519897 0.003923704 0.9359956 192 192 192 255 0.131941 0.856929
61.25564 364.202 25.36382 0.2446158 -0.006615963 0.9695976 192 192 192 255 0.131941 0.925373
71.03409 323.93 14.54543 0.6897907 4.886315e-10 0.7240088 192 192 192 255 0.098531 0.907
50.79336 321.0268 25.36382 0.1505624 -7.0777e-10 0.9886005 192 192 192 255 0.127168 0.905675
1.7e-05 0 25.36382 -6.530013e-05 -6.530013e-05 1 192 192 192 255 0.103994 0.759213
61.25564 0 25.36382 0.09210639 -0.0241542 0.9954562 192 192 192 255 0.131941 0.759213
1.7e-05 500 25.36382 -1.675433e-05 3.350866e-05 1 192 192 192 255 0.103994 0.987328
61.25564 500 25.36382 0.5685837 7.533954e-05 0.8226255 192 192 192 255 0.131941 0.987328
41.79987 0 -15.19828 -0.0003722947 -0.9999992 -0.00127326 192 192 192 255 0.234256 0.968272
1.7e-05 0 -14.23921 -0.5861291 -0.5729858 -0.5728351 192 192 192 255 0.234256 0.987342
1.7e-05 500 -14.23921 -0.6751109 0.3299862 -0.6597987 192 192 192 255 0.006141 0.987342
41.79987 500 -15.19828 -0.3068294 0.8203948 -0.482502 192 192 192 255 0.006141 0.968272
1.7e-05 500 -14.23921 -0.6751109 0.3299862 -0.6597987 192 192 192 255 0.111164 0.987328
1.7e-05 0 -14.23921 -0.5861291 -0.5729858 -0.5728351 192 192 192 255 0.111164 0.759214
1.7e-05 0 25.36382 -6.530013e-05 -6.530013e-05 1 192 192 192 255 0.129232 0.759214
1.7e-05 500 25.36382 -1.675433e-05 3.350866e-05 1 192 192 192 255 0.129232 0.987328
148.0188 0 -130.8607 -0.0006190945 -0.9999994 -0.0009888221 192 192 192 255 0.084561 0.919811
352.042 -0 -130.8607 0.0006188347 -0.9999989 -0.001408506 192 192 192 255 0.084561 0.82673
148.0188 500 -130.8607 -0.1802032 0.7339902 -0.6548169 192 192 192 255 0.155835 0.919811
352.042 500 -130.8607 0.2716234 0.7375708 -0.6182315 192 192 192 255 0.155835 0.82673
166.6667 500 -91.25804 0.4958505 7.057429e-05 0.8684079 192 192 192 255 0.082165 0.987328
61.25564 500 25.36382 0.5685837 7.533954e-05 0.8226255 192 192 192 255 0.093595 0.987328
61.25564 364.202 25.36382 0.2446158 -0.006615963 0.9695976 192 192 192 255 0.093595 0.925373
61.25564 214.181 25.36382 0.3519897 0.003923704 0.9359956 192 192 192 255 0.093595 0.856929
61.25564 0 25.36382 0.09210639 -0.0241542 0.9954562 192 192 192 255 0.093595 0.759214
166.6667 500 -91.25804 0.4958505 7.057429e-05 0.8684079 192 192 192 255 0.146801 0.987328
79.89709 0 4.739892 0.7363285 -0.1221116 0.6655142 192 192 192 255 0.146426 0.950891
194.4667 372.2004 -91.25804 0.0001364298 -2.896881e-05 1 192 192 192 255 0.094849 0.695371
194.4667 227.8 -91.25804 0.0001215119 5.549158e-05 1 192 192 192 255 0.094849 0.629492
250.0304 447.2002 -91.25804 8.772229e-12 -3.917977e-05 1 192 192 192 255 0.120198 0.729588
113.9612 447.2002 -32.9469 0.7418747 -2.869217e-05 0.6705385 192 192 192 255 0.120198 0.729588
79.89709 372.2004 4.739892 0.7419087 -1.352731e-05 0.6705011 192 192 192 255 0.103004 0.695371
148.0253 372.2004 -70.6342 0.7020535 -4.299759e-05 0.7121243 192 192 192 255 0.073661 0.695371
113.9612 447.2002 -32.9469 0.7418747 -2.869217e-05 0.6705385 192 192 192 255 0.05812 0.729588
106.5426 411.5369 -39.65266 0.7417775 -0.0002698617 0.6706461 192 192 192 255 0.054735 0.713318
127.1956 366.0643 -62.5024 0.4412991 -1.725493e-05 0.8973601 192 192 192 255 0.064157 0.692572
79.89709 0 4.739892 0.7363285 -0.1221116 0.6655142 192 192 192 255 0.103004 0.525563
148.0253 0 -70.6342 0.0330449 -0.1286405 0.9911406 192 192 192 255 0.073661 0.525563
127.1956 0 -62.5024 0.3608342 -0.1263167 0.9240361 192 192 192 255 0.064157 0.525563
127.1956 0 -62.5024 0.3608342 -0.1263167 0.9240361 192 192 192 255 0.115748 0.929312
85.88941 0 -16.80298 0.002835424 -0.9999952 0.001281885 192 192 192 255 0.136598 0.948157
438.8051 0 25.36382 -0.7404719 -0.0600931 0.6693954 192 192 192 255 0.106225 0.759214
500.0608 0 25.36382 0.4082483 -0.8164966 0.4082483 192 192 192 255 0.134172 0.759214
500.0608 500 25.36382 0.5773503 0.5773503 0.5773503 192 192 192 255 0.134172 0.987328
438.8051 500 25.36382 -0.741848 6.575055e-05 0.6705682 192 192 192 255 0.106225 0.987328
500.0608 0 -14.23921 0.6751109 -0.3299862 -0.6597987 192 192 192 255 0.234256 0.7592
458.261 0 -15.19828 0.0003613804 -0.9999996 -0.0007975564 192 192 192 255 0.234256 0.778269
458.261 500 -15.19828 0.2794481 0.7358996 -0.6167339 192 192 192 255 0.006141 0.778269
500.0608 500 -14.23921 0.5861291 0.5729858 -0.5728351 192 192 192 255 0.006141 0.7592
500.0608 500 25.36382 0.5773503 0.5773503 0.5773503 192 192 192 255 0.111164 0.987328
500.0608 0 25.36382 0.4082483 -0.8164966 0.4082483 192 192 192 255 0.111164 0.759214
500.0608 0 -14.23921 0.6751109 -0.3299862 -0.6597987 192 192 192 255 0.129232 0.759214
500.0608 500 -14.23921 0.5861291 0.5729858 -0.5728351 192 192 192 255 0.129232 0.987328
333.3941 500 -91.25804 -0.2963963 9.506565e-05 0.9550651 192 192 192 255 0.158231 0.987328
438.8051 500 25.36382 -0.741848 6.575055e-05 0.6705682 192 192 192 255 0.146801 0.987328
438.8051 0 25.36382 -0.7404719 -0.0600931 0.6693954 192 192 192 255 0.146801 0.759214
333.3941 500 -91.25804 -0.2963963 9.506565e-05 0.9550651 192 192 192 255 0.093595 0.987328
420.1638 -0 4.739892 -0.6947225 -0.5938367 0.4058555 192 192 192 255 0.146426 0.795651
305.5942 372.2004 -91.25804 -0.02533026 -2.546443e-05 0.9996791 192 192 192 255 0.145548 0.695371
305.5942 345.7546 -91.25804 -0.217124 -0.004438064 0.9761339 192 192 192 255 0.145548 0.683306
305.5942 250.5558 -91.25804 -0.328575 0.02613959 0.9441161 192 192 192 255 0.145548 0.639874
305.5942 227.8 -91.25804 -0.01727653 4.031268e-05 0.9998507 192 192 192 255 0.145548 0.629492
386.0996 447.2002 -32.9469 -0.7418748 -2.899901e-05 0.6705385 192 192 192 255 0.120198 0.729588
420.1638 372.2004 4.739892 -0.7835414 -8.460973e-06 0.6213396 192 192 192 255 0.137392 0.695371
352.0355 372.2004 -70.6342 -0.7417739 -5.955801e-05 0.6706501 192 192 192 255 0.166736 0.695371
372.8652 366.0643 -62.5024 -0.7415635 -8.987485e-05 0.6708828 192 192 192 255 0.176239 0.692572
393.5183 411.5369 -39.65266 -0.7417773 -0.0002688054 0.6706463 192 192 192 255 0.185662 0.713318
386.0996 447.2002 -32.9469 -0.7418748 -2.899901e-05 0.6705385 192 192 192 255 0.182277 0.729588
420.1638 179.3235 4.739892 -0.9112675 -0.006536136 0.4117631 192 192 192 255 0.137392 0.607375
420.1638 -0 4.739892 -0.6947225 -0.5938367 0.4058555 192 192 192 255 0.137392 0.525563
420.1638 58.19614 4.739892 -0.8580287 0.006846011 0.5135562 192 192 192 255 0.137392 0.552113
352.0355 -0 -70.6342 -0.02033057 -0.07911138 0.9966584 192 192 192 255 0.166736 0.525563
372.8652 -0 -62.5024 -0.2918319 -0.5981488 0.7463592 192 192 192 255 0.176239 0.525563
414.1714 0 -16.80298 -0.9571422 -0.113868 0.2662947 192 192 192 255 0.136598 0.798385
372.8652 -0 -62.5024 -0.2918319 -0.5981489 0.7463593 192 192 192 255 0.115748 0.81723
250.0304 152.8 -91.25804 2.041421e-12 1.823538e-05 1 192 192 192 255 0.120198 0.828925
148.0253 75.16346 -70.6342 0.382396 0.02654364 0.9236172 192 192 192 255 0.137392 0.793505
166.6667 92.72813 -91.25804 0.2693506 0.09642903 0.9582024 192 192 192 255 0.146801 0.801519
148.0253 304.0548 -70.6342 0.6168216 -0.006634072 0.7870751 192 192 192 255 0.073661 0.664281
148.0253 151.0873 -70.6342 0.6709112 0.00809826 0.7414935 192 192 192 255 0.073661 0.594493
333.3941 92.72813 -91.25804 -4.353577e-05 0.1616786 0.9868435 192 192 192 255 0.093595 0.801519
352.0355 75.16346 -70.6342 -0.05592034 0.1863293 0.9808947 192 192 192 255 0.103004 0.793505
148.0253 75.16346 -70.6342 0.382396 0.02654364 0.9236172 192 192 192 255 0.073661 0.793505
352.0355 75.16346 -70.6342 -0.05592034 0.1863293 0.9808947 192 192 192 255 0.166736 0.793505
148.0253 0 -70.6342 0.0330449 -0.1286405 0.9911406 192 192 192 255 0.073661 0.759214
352.0355 -0 -70.6342 -0.02033057 -0.07911138 0.9966584 192 192 192 255 0.166736 0.759214
298.0562 269.1743 -95.02698 -0.2991975 1.198934e-09 0.9541912 192 192 192 255 0.142109 0.882019
137.4448 247.0924 -66.50363 0.4867504 0 0.8735411 192 192 192 255 0.135508 0.871944
420.1638 179.3235 4.739892 -0.9112675 -0.006536136 0.4117631 192 192 192 255 0.118 0.900902
417.4835 138.8483 -4.895881 -0.9634228 -1.215799e-09 0.2679862 192 192 192 255 0.122396 0.882436
417.4835 138.8483 -4.895997 -0.8487652 0 0.52877 192 192 192 255 0.122396 0.882436
420.1638 58.19614 4.739892 -0.8580287 0.006846011 0.5135562 192 192 192 255 0.118 0.84564
71.03409 323.93 14.54543 0.6897907 4.886315e-10 0.7240088 192 192 192 255 0.136402 0.907
3 2 11 8 
3 2 8 3 
3 0 1 9 
3 0 9 10 
3 81 82 83 
3 82 77 83 
3 77 80 83 
3 80 78 83 
3 78 84 83 
3 85 86 87 
3 85 87 88 
3 89 90 91 
3 89 91 92 
3 35 5 4 
3 35 4 34 
3 6 93 94 
3 6 94 36 
3 22 21 23 
3 22 23 24 
3 95 7 37 
3 95 37 96 
3 5 85 88 
3 5 88 4 
3 26 25 27 
3 8 11 7 
3 8 7 95 
3 97 56 12 
3 97 12 13 
3 97 13 19 
3 98 99 15 
3 99 79 15 
3 15 79 14 
3 79 100 14 
3 100 101 14 
3 20 98 15 
3 102 20 17 
3 16 93 6 
3 10 9 103 
3 25 28 29 
3 25 29 27 
3 98 20 102 
3 104 105 21 
3 104 21 22 
3 105 18 23 
3 105 23 21 
3 106 104 22 
3 106 22 24 
3 107 108 25 
3 107 25 26 
3 109 110 111 
3 109 111 112 
3 28 25 108 
3 28 108 113 
3 114 57 115 
3 9 93 116 
3 9 116 117 
3 116 93 16 
3 117 103 9 
3 32 33 38 
3 32 38 41 
3 30 40 39 
3 30 39 31 
3 118 119 120 
3 118 120 121 
3 122 123 124 
3 122 124 125 
3 126 127 128 
3 126 128 129 
3 50 24 23 
3 50 23 49 
3 124 123 35 
3 124 35 34 
3 52 53 51 
3 38 96 37 
3 38 37 41 
3 61 42 62 
3 42 58 62 
3 58 130 62 
3 43 60 130 
3 130 60 62 
3 97 19 130 
3 131 45 132 
3 44 132 73 
3 73 132 74 
3 132 45 74 
3 45 72 74 
3 48 45 131 
3 133 47 48 
3 46 36 94 
3 40 134 39 
3 51 53 55 
3 51 55 54 
3 131 133 48 
3 135 50 136 
3 50 49 136 
3 136 49 63 
3 63 49 137 
3 49 138 137 
3 138 49 23 
3 138 23 18 
3 106 24 50 
3 106 50 135 
3 139 52 51 
3 139 51 140 
3 141 142 143 
3 141 143 144 
3 140 51 145 
3 146 147 54 
3 147 75 54 
3 54 75 51 
3 75 145 51 
3 148 149 59 
3 39 150 151 
3 39 151 94 
3 151 46 94 
3 150 39 134 
3 56 152 12 
3 153 154 65 
3 65 154 66 
3 154 102 66 
3 66 102 64 
3 102 17 64 
3 115 57 112 
3 109 112 155 
3 155 112 67 
3 112 57 67 
3 57 156 67 
3 152 58 42 
3 157 158 47 
3 157 47 133 
3 59 149 142 
3 59 142 141 
3 130 19 43 
3 56 58 152 
3 159 68 56 
3 160 58 69 
3 68 70 56 
3 56 70 58 
3 70 69 58 
3 159 161 68 
3 161 162 68 
3 68 162 71 
3 71 162 69 
3 162 160 69 
3 16 6 36 
3 16 36 46 
3 60 163 62 
3 62 163 61 
3 164 66 64 
3 65 66 164 
3 69 70 71 
3 71 70 68 
3 76 74 72 
3 165 166 167 
3 167 166 168 
3 73 74 76 
3 78 80 169 
3 169 80 77 
