ply
format ascii 1.0
comment VCGLIB generated
comment TextureFile Dungeons_2_Texture_01_A.png
element vertex 89
property float x
property float y
property float z
property float nx
property float ny
property float nz
property uchar red
property uchar green
property uchar blue
property uchar alpha
property float texture_u
property float texture_v
element face 88
property list uchar int vertex_indices
end_header
3.3e-05 0 31.19528 -9.584084e-06 -9.605022e-06 1 192 192 192 255 0.011985 0.761837
500.0001 0 31.19531 0.4082483 -0.8164966 0.4082483 192 192 192 255 0.225737 0.761837
3.2e-05 500 31.19531 -3.20512e-05 1.595236e-05 1 192 192 192 255 0.011985 0.97559
500.0001 500 31.19531 4.686878e-05 4.687047e-05 1 192 192 192 255 0.225737 0.97559
125.0126 0 31.19528 0.08567268 -0.0004255955 0.9963233 192 192 192 255 0.065428 0.761837
374.9875 0 31.19531 -0.2018247 -0.6129335 0.7639236 192 192 192 255 0.172294 0.761837
250.0001 500 31.19531 0 0.0002399616 1 192 192 192 255 0.118861 0.97559
125.0126 350 31.19531 0.02535136 -4.400336e-06 0.9996786 192 192 192 255 0.065428 0.911464
250.0001 450 31.19531 -0.01576481 -0.01977383 0.9996802 192 192 192 255 0.118861 0.954215
374.9875 350 31.19531 -0.03639162 -0.04537929 0.9983068 192 192 192 255 0.172294 0.911464
352.6875 0 18.52808 -1 -4.548916e-05 3.955328e-05 192 192 192 255 0.162761 0.761837
147.3125 0 18.52805 0.4941023 -0.0002463171 0.8694037 192 192 192 255 0.074962 0.761837
250 421.4409 18.52808 0.350495 -0.8274156 0.4387901 192 192 192 255 0.118861 0.942006
147.3125 339.2827 18.52808 0.6046729 -0.2103661 0.7681906 192 192 192 255 0.074962 0.906882
352.6875 339.2827 18.52808 -0.9715531 -0.09606697 0.216462 192 192 192 255 0.162761 0.906882
3.3e-05 0 -31.19533 -0.5773503 -0.5773503 -0.5773503 192 192 192 255 0.014969 0.977047
500.0001 0 -31.19531 0.8164966 -0.4082483 -0.4082483 192 192 192 255 0.11136 0.770629
3.2e-05 500 -31.19531 -0.3333333 0.6666667 -0.6666667 192 192 192 255 0.140771 0.984381
500.0001 500 -31.19531 0.2357023 0.2357023 -0.9428091 192 192 192 255 0.11136 0.984381
125.0126 0 -31.19533 0.1383836 -0.84053 -0.5237931 192 192 192 255 0.068413 0.977047
374.9875 0 -31.19531 -0.4938573 -0.0002019022 -0.869543 192 192 192 255 0.175278 0.977047
250.0001 500 -31.19531 0 0.7071068 -0.7071068 192 192 192 255 0.140771 0.877505
125.0126 350 -31.19531 0.3084693 -0.385365 -0.8696784 192 192 192 255 0.068413 0.82742
250.0001 450 -31.19531 0.3082331 -0.3854405 -0.8697287 192 192 192 255 0.121845 0.784669
374.9875 350 -31.19531 -0.4937883 -8.58961e-05 -0.8695822 192 192 192 255 0.175278 0.82742
352.6875 0 -18.52808 -0.9124396 -0.0003531729 -0.4092112 192 192 192 255 0.165745 0.977047
147.3125 0 -18.5281 0.7038759 -0.3540924 -0.6157737 192 192 192 255 0.077946 0.977047
250 421.4409 -18.52808 0.414883 -0.5193389 -0.7471005 192 192 192 255 0.121309 0.951277
147.3125 339.2827 -18.52808 0.6024889 -0.6892312 -0.4024517 192 192 192 255 0.121309 0.916154
352.6875 339.2827 -18.52808 -0.9163386 -4.944211e-05 -0.4004043 192 192 192 255 0.087123 0.916154
284.4472 422.4395 31.19531 -0.07246082 -0.09058773 0.9932489 192 192 192 255 0.133587 0.942433
286.458 420.8307 31.19531 -1.524421e-05 -3.521348e-05 1 192 192 192 255 0.134447 0.941744
354.0464 366.7546 31.19531 -0.05153016 -0.05617806 0.9970901 192 192 192 255 0.163342 0.918627
313.4606 383.3729 24.16352 -0.294983 -0.3431563 0.8917561 192 192 192 255 0.145991 0.925731
327.661 403.7861 31.19531 -0.01542895 -0.01101475 0.9998203 192 192 192 255 0.152062 0.934458
352.6875 103.9169 -18.52808 -0.9032089 0.01169439 -0.429042 192 192 192 255 0.165745 0.932622
352.6875 231.7067 -18.52808 -0.8788536 -0.03487729 -0.475815 192 192 192 255 0.165745 0.877991
352.6875 155.9883 -5.09257 -0.9902738 0 -0.1391328 192 192 192 255 0.092866 0.837795
363.1084 157.4495 -24.44753 -0.6669679 0 -0.7450865 192 192 192 255 0.1702 0.909736
125.0126 47.6833 31.19529 0.1075045 0.003957321 0.9941967 192 192 192 255 0.065428 0.782222
125.0126 172.549 31.1953 0.1168041 -0.001800298 0.9931534 192 192 192 255 0.065428 0.835603
134.6171 103.0156 25.73961 0.4425663 -5.80031e-08 0.8967358 192 192 192 255 0.069534 0.805877
112.4982 100.7738 31.19529 0.04049417 -6.077088e-08 0.9991798 192 192 192 255 0.060078 0.804919
219.9727 397.4167 -18.52808 0.5860566 -0.7624782 -0.2741619 192 192 192 255 0.121309 0.941006
176.4956 362.6315 -1.383327 0.6230468 -0.7787306 -0.07342604 192 192 192 255 0.113979 0.926136
173.755 369.2388 -22.43127 0.5002615 -0.6252645 -0.5989848 192 192 192 255 0.08925 0.819195
500.0001 500 31.19531 4.686878e-05 4.687047e-05 1 192 192 192 255 0.084687 0.984381
500.0001 0 31.19531 0.4082483 -0.8164966 0.4082483 192 192 192 255 0.084687 0.770629
147.3125 339.2827 18.52808 0.6046729 -0.2103661 0.7681906 192 192 192 255 0.105467 0.916154
250 421.4409 18.52808 0.350495 -0.8274156 0.4387901 192 192 192 255 0.105467 0.951277
352.6875 339.2827 18.52808 -0.9715531 -0.09606697 0.216462 192 192 192 255 0.102964 0.916154
250 421.4409 18.52808 0.350495 -0.8274156 0.4387901 192 192 192 255 0.102964 0.951277
250 421.4409 -18.52808 0.414883 -0.5193389 -0.7471005 192 192 192 255 0.087123 0.951277
500.0001 500 31.19531 4.686878e-05 4.687047e-05 1 192 192 192 255 0.114099 0.770629
500.0001 500 -31.19531 0.2357023 0.2357023 -0.9428091 192 192 192 255 0.140771 0.770629
250.0001 500 31.19531 0 0.0002399616 1 192 192 192 255 0.114099 0.877505
3.2e-05 500 31.19531 -3.20512e-05 1.595236e-05 1 192 192 192 255 0.114099 0.984381
3.2e-05 500 -31.19531 -0.3333333 0.6666667 -0.6666667 192 192 192 255 0.014969 0.763294
250.0001 500 -31.19531 0 0.7071068 -0.7071068 192 192 192 255 0.121845 0.763294
500.0001 500 -31.19531 0.2357023 0.2357023 -0.9428091 192 192 192 255 0.228722 0.763294
500.0001 0 -31.19531 0.8164966 -0.4082483 -0.4082483 192 192 192 255 0.228722 0.977047
3.2e-05 500 31.19531 -3.20512e-05 1.595236e-05 1 192 192 192 255 0.152152 0.984861
3.2e-05 500 -31.19531 -0.3333333 0.6666667 -0.6666667 192 192 192 255 0.12548 0.984861
3.3e-05 0 -31.19533 -0.5773503 -0.5773503 -0.5773503 192 192 192 255 0.12548 0.771109
3.3e-05 0 31.19528 -9.584084e-06 -9.605022e-06 1 192 192 192 255 0.152152 0.771109
250 421.4409 -18.52808 0.414883 -0.5193389 -0.7471005 192 192 192 255 0.121845 0.796879
219.9727 397.4167 -18.52808 0.5860566 -0.7624782 -0.2741619 192 192 192 255 0.109009 0.807149
147.3125 339.2827 -18.52808 0.6024889 -0.6892312 -0.4024517 192 192 192 255 0.077946 0.832002
352.6875 339.2827 -18.52808 -0.9163386 -4.944211e-05 -0.4004043 192 192 192 255 0.165745 0.832002
147.3125 0 18.52805 0.4941023 -0.0002463171 0.8694037 192 192 192 255 0.105467 0.771109
147.3125 0 -18.5281 0.7038759 -0.3540924 -0.6157737 192 192 192 255 0.121309 0.771109
352.6875 0 18.52808 -1 -4.548916e-05 3.955328e-05 192 192 192 255 0.102964 0.771109
352.6875 0 -18.52808 -0.9124396 -0.0003531729 -0.4092112 192 192 192 255 0.087123 0.771109
352.6875 103.9169 -18.52808 -0.9032089 0.01169439 -0.429042 192 192 192 255 0.087123 0.815534
352.6875 231.7067 -18.52808 -0.8788536 -0.03487729 -0.475815 192 192 192 255 0.087123 0.870165
147.3125 0 18.52805 0.4941023 -0.0002463171 0.8694037 192 192 192 255 0.076674 0.771109
125.0126 0 31.19528 0.08567268 -0.0004255955 0.9963233 192 192 192 255 0.08209 0.780642
125.0126 0 -31.19533 0.1383836 -0.84053 -0.5237931 192 192 192 255 0.055417 0.780642
147.3125 0 -18.5281 0.7038759 -0.3540924 -0.6157737 192 192 192 255 0.060832 0.771109
3.3e-05 0 31.19528 -9.584084e-06 -9.605022e-06 1 192 192 192 255 0.08209 0.834086
3.3e-05 0 -31.19533 -0.5773503 -0.5773503 -0.5773503 192 192 192 255 0.055417 0.834086
500.0001 0 31.19531 0.4082483 -0.8164966 0.4082483 192 192 192 255 0.052915 0.771109
374.9875 0 31.19531 -0.2018247 -0.6129335 0.7639236 192 192 192 255 0.052915 0.824552
374.9875 0 -31.19531 -0.4938573 -0.0002019022 -0.869543 192 192 192 255 0.026243 0.824552
500.0001 0 -31.19531 0.8164966 -0.4082483 -0.4082483 192 192 192 255 0.026243 0.771109
352.6875 0 18.52808 -1 -4.548916e-05 3.955328e-05 192 192 192 255 0.0475 0.834086
352.6875 0 -18.52808 -0.9124396 -0.0003531729 -0.4092112 192 192 192 255 0.031658 0.834086
363.1084 157.4495 -24.44753 -0.6669679 0 -0.7450865 192 192 192 255 0.084592 0.838419
173.755 369.2388 -22.43127 0.5002615 -0.6252645 -0.5989848 192 192 192 255 0.122977 0.92896
3 7 8 6 
3 7 6 2 
3 6 8 3 
3 8 30 3 
3 30 31 3 
3 31 34 3 
3 34 32 3 
3 32 9 3 
3 2 0 7 
3 7 0 40 
3 40 0 42 
3 42 0 39 
3 0 4 39 
3 3 9 5 
3 3 5 1 
3 46 47 16 
3 46 16 18 
3 8 7 13 
3 8 13 12 
3 7 40 13 
3 4 11 39 
3 39 11 41 
3 11 13 41 
3 40 41 13 
3 5 9 14 
3 5 14 10 
3 30 33 34 
3 30 34 31 
3 28 44 48 
3 48 44 49 
3 44 43 49 
3 49 43 27 
3 50 51 52 
3 50 52 29 
3 53 54 21 
3 53 21 55 
3 55 21 17 
3 55 17 56 
3 22 57 58 
3 22 58 23 
3 23 58 59 
3 23 59 24 
3 15 57 22 
3 15 22 19 
3 59 60 20 
3 59 20 24 
3 61 62 63 
3 61 63 64 
3 23 65 22 
3 65 66 22 
3 66 45 22 
3 45 67 22 
3 22 67 26 
3 22 26 19 
3 24 20 68 
3 25 35 20 
3 35 38 20 
3 20 38 68 
3 38 36 68 
3 24 68 65 
3 24 65 23 
3 69 70 28 
3 69 28 48 
3 50 29 71 
3 72 71 73 
3 73 71 37 
3 71 29 37 
3 29 74 37 
3 75 76 77 
3 75 77 78 
3 76 79 80 
3 76 80 77 
3 81 82 83 
3 81 83 84 
3 82 85 86 
3 82 86 83 
3 8 12 30 
3 9 32 14 
3 32 33 14 
3 14 33 12 
3 33 30 12 
3 34 33 32 
3 87 37 74 
3 73 37 87 
3 40 42 41 
3 41 42 39 
3 43 44 88 
3 88 44 28 
