ply
format ascii 1.0
comment VCGLIB generated
comment TextureFile Dungeons_2_Texture_01_A.png
element vertex 229
property float x
property float y
property float z
property float nx
property float ny
property float nz
property uchar red
property uchar green
property uchar blue
property uchar alpha
property float texture_u
property float texture_v
element face 250
property list uchar int vertex_indices
end_header
1.7e-05 0 0 -1 -0.0001090167 0 192 192 192 255 0.001929 0.75319
1.7e-05 123.4495 -42.16045 -0.8637054 7.499012e-05 -0.5039971 192 192 192 255 0.001929 0.811349
1.7e-05 0 -42.16045 -0.9999999 -0.000384269 -0.000384269 192 192 192 255 0.001929 0.75319
54.63358 0 -42.16045 0.9775222 -0.1637683 -0.1327795 192 192 192 255 0.027668 0.75319
63.55037 0 23.62115 0.9975021 -0.07063753 7.078446e-05 192 192 192 255 0.031868 0.75319
1.7e-05 142.8306 -16.65117 -0.195608 7.852011e-05 -0.9806822 192 192 192 255 0.001929 0.820479
1.7e-05 0 42.16045 -0.9999999 -0.000384269 0.000384269 192 192 192 255 0.001929 0.75319
1.7e-05 123.4495 42.16045 -0.8382659 7.278136e-05 0.5452617 192 192 192 255 0.001929 0.811349
61.61072 44.93152 42.16045 0.7823783 -0.09107798 0.6161081 192 192 192 255 0.137841 0.772697
55.26742 0 42.16045 0.905003 -0.1288522 0.4054219 192 192 192 255 0.137856 0.772817
1.7e-05 142.8306 16.65117 -0.1992411 7.997848e-05 0.9799505 192 192 192 255 0.001929 0.820479
86.61938 142.8306 -16.65117 0.9563017 -0.2844048 -0.06783015 192 192 192 255 0.042737 0.820479
77.09832 123.4495 -42.16045 0.0001813124 0.0002530813 -1 192 192 192 255 0.038251 0.811349
63.67511 54.05905 -42.16045 0.7945954 -0.04968521 -0.605103 192 192 192 255 0.137944 0.772644
75.95384 123.4495 42.16045 0.0003112452 0.0002204325 0.9999999 192 192 192 255 0.037712 0.811349
85.71352 142.8306 16.65117 0.5722159 0.1761318 0.800966 192 192 192 255 0.04231 0.820479
1.7e-05 500 0 -1 0.0002058568 0 192 192 192 255 0.001929 0.988748
1.7e-05 352.769 -31.19531 -0.9999994 -0.0005967718 -0.0009519968 192 192 192 255 0.001929 0.919385
1.7e-05 346.3718 -16.65117 -0.07578871 -2.800125e-05 -0.9971239 192 192 192 255 0.001929 0.916371
1.7e-05 370.7317 -31.19531 -0.9999998 -0.0004044971 -0.0006515397 192 192 192 255 0.001929 0.927847
1.7e-05 375.6774 -42.16045 -0.3285717 -8.317675e-05 -0.944479 192 192 192 255 0.001929 0.930177
157.5093 405.6165 -16.65117 4.656206e-05 -0.0002547137 -1 192 192 192 255 0.076134 0.694282
157.5093 429.9764 -31.19531 0.09738413 -0.5326111 -0.8407389 192 192 192 255 0.076134 0.705758
1.7e-05 346.3718 16.65117 -0.1192051 -4.404208e-05 0.9928697 192 192 192 255 0.001929 0.916371
1.7e-05 352.769 31.19531 -0.9999994 -0.000596772 0.0009519963 192 192 192 255 0.001929 0.919385
1.7e-05 500 -42.16045 -0.1114393 2.126096e-05 -0.9937713 192 192 192 255 0.001929 0.988747
104.4686 198.9063 -1.281799 0.9144216 0.004992222 0.4047323 192 192 192 255 0.137804 0.772294
1.7e-05 370.7317 31.19531 -0.9742195 -0.000394069 0.2256019 192 192 192 255 0.001929 0.927847
1.7e-05 375.6774 42.16045 -0.9999999 -0.0002531464 0.000407753 192 192 192 255 0.001929 0.930177
157.5093 434.9221 -42.16045 1.656153e-05 -9.057795e-05 -1 192 192 192 255 0.076134 0.708088
157.5093 405.6165 16.65117 -0.0003018022 -0.3686189 0.9295806 192 192 192 255 0.076134 0.694282
412.606 0 42.16045 -0.0007534213 -0.0005240458 0.9999996 192 192 192 255 0.137183 0.772717
157.5093 412.0137 -31.19531 0.07761897 -0.4246077 -0.9020442 192 192 192 255 0.076134 0.697296
157.5093 429.9764 31.19531 0.0002496222 -0.00101444 0.9999995 192 192 192 255 0.076134 0.705758
1.7e-05 500 42.16045 -0.9999995 0.0001907851 0.0009539255 192 192 192 255 0.001929 0.988747
500 0 -42.16045 0.8710577 -0.0001671449 -0.4911806 192 192 192 255 0.237487 0.75319
500 123.4495 -42.16045 1 0.0001737323 -0.0002414469 192 192 192 255 0.237487 0.811349
500 0 0 1 -0.0001634401 -1.239376e-17 192 192 192 255 0.237487 0.75319
157.5093 412.0137 31.19531 0.01282419 -0.4453563 0.8952616 192 192 192 255 0.076134 0.697296
157.5093 434.9221 42.16045 0.07724795 -0.6395928 0.7648228 192 192 192 255 0.076134 0.708088
500 142.8306 -16.65117 0.09956712 1.997114e-05 -0.9950309 192 192 192 255 0.237487 0.820479
96.83759 200.054 -16.65117 0.7680497 -0.04198595 -0.6390124 192 192 192 255 0.137849 0.77229
500 0 42.16045 0.8951477 -0.0003437563 0.4457695 192 192 192 255 0.237487 0.75319
500 123.4495 42.16045 1 8.301558e-05 0.0002893247 192 192 192 255 0.237487 0.811349
95.84908 314.7213 16.65117 0.1535876 -0.07518508 0.9852706 192 192 192 255 0.137786 0.772009
500 142.8306 16.65117 0.1006655 0.06149884 0.9930178 192 192 192 255 0.237487 0.820479
342.4908 429.9764 -31.19531 -0.0001964087 -0.001074098 -0.9999994 192 192 192 255 0.163282 0.705758
96.4725 206.4731 16.65117 0.9137304 0.005151747 0.4062883 192 192 192 255 0.137786 0.772277
500 346.3718 -16.65117 0.05393534 -0.05907064 -0.9967957 192 192 192 255 0.237487 0.916371
97.70253 313.705 -16.65117 4.877801e-05 -2.089908e-05 -1 192 192 192 255 0.137845 0.77202
342.4908 434.9221 -42.16045 -1.65607e-05 -9.057343e-05 -1 192 192 192 255 0.163282 0.708088
500 346.3718 16.65117 0.07807641 -2.886128e-05 0.9969474 192 192 192 255 0.237487 0.916371
342.4908 429.9764 31.19531 -9.568446e-05 -0.0007922417 0.9999997 192 192 192 255 0.163282 0.705758
352.3959 362.1446 -16.65117 -0.5869954 -0.5602112 -0.5844655 192 192 192 255 0.137382 0.771944
346.9727 357.5158 1.704163 -0.6828245 -0.728915 -0.04933221 192 192 192 255 0.137354 0.771948
417.3907 38.94993 -42.16045 -0.5312672 -0.09973802 -0.841313 192 192 192 255 0.137303 0.77261
424.7016 0 -42.16045 -0.0006219873 -0.0007986714 -0.9999995 192 192 192 255 0.137291 0.772688
400.874 35.03191 0.149902 -0.9858029 -0.1523121 -0.07066607 192 192 192 255 0.137267 0.772631
407.531 0 0 -0.4899938 -0.8693396 -0.06445616 192 192 192 255 0.137256 0.772704
500 352.769 -31.19531 0.9999999 -0.0002980877 -0.000477824 192 192 192 255 0.237487 0.669385
342.4908 405.6165 -16.65117 -0.06678207 -0.1777256 -0.9818115 192 192 192 255 0.163282 0.694282
342.4908 412.0137 -31.19531 -0.0005757192 -0.003126188 -0.9999949 192 192 192 255 0.163282 0.697296
342.4908 434.9221 42.16045 -0.1299489 -0.5280994 0.8391808 192 192 192 255 0.163282 0.708088
500 375.6774 -42.16045 0.3285717 -8.327115e-05 -0.944479 192 192 192 255 0.237487 0.680177
500 500 0 1 0.0001026814 0 192 192 192 255 0.237487 0.988748
384.5692 134.1072 -5.887695 -0.9993863 -0.03400673 -0.008403548 192 192 192 255 0.137302 0.772422
500 370.7317 -31.19531 0.8079577 -0.0003266967 -0.5892404 192 192 192 255 0.237487 0.677847
342.4908 412.0137 31.19531 -0.0002015673 -0.00166942 0.9999986 192 192 192 255 0.163282 0.697296
342.4908 405.6165 16.65117 -7.008106e-05 -0.0002848456 1 192 192 192 255 0.163282 0.694282
500 352.769 31.19531 0.9999996 -0.000596925 0.000607499 192 192 192 255 0.237487 0.669385
500 500 -42.16045 0.1114416 4.246811e-05 -0.993771 192 192 192 255 0.237487 0.988747
392.1744 142.8306 -16.65117 -0.2315471 -0.04323347 -0.9718626 192 192 192 255 0.137317 0.772401
401.5249 123.4495 -42.16045 -0.9596815 -0.1798362 -0.2160332 192 192 192 255 0.137328 0.772438
500 375.6774 42.16045 0.9999999 -0.0002534336 0.0002615666 192 192 192 255 0.237487 0.680177
500 370.7317 31.19531 0.9999993 -0.0004042074 0.001122814 192 192 192 255 0.237487 0.677847
181.5654 391.6375 -16.65117 0.0004985784 -0.0008113743 -0.9999996 192 192 192 255 0.137679 0.771853
182.356 387.6408 -6.053345 0.4463177 -0.8474019 0.2875944 192 192 192 255 0.137653 0.771857
407.426 29.64566 42.16045 -0.001137054 -0.0001216378 0.9999993 192 192 192 255 0.137192 0.772653
401.1516 123.4495 42.16045 -0.316413 0.4841165 0.8157904 192 192 192 255 0.137203 0.77245
400.1936 128.1776 39.44452 -0.001333803 0.8409694 0.5410811 192 192 192 255 0.137212 0.772439
393.7336 142.8306 16.65117 -0.000298114 0.261464 0.9652132 192 192 192 255 0.137243 0.772406
500 500 42.16045 0.8981772 0.0003422769 0.4396336 192 192 192 255 0.237487 0.988747
176.0493 392.031 16.65117 0.2968321 -0.5634826 0.7709591 192 192 192 255 0.137624 0.771837
310.9403 412.0137 -31.19531 -0.0938249 -0.11132 -0.9893457 192 192 192 255 0.137464 0.771835
263.5475 405.6165 -16.65117 0.1086376 -0.9349312 -0.3377892 192 192 192 255 0.137531 0.771837
398.698 325.5229 -16.65117 -0.04180012 -3.159887e-05 -0.999126 192 192 192 255 0.137309 0.772024
398.692 222.3533 -16.65117 -0.1546319 -0.007402835 -0.9879444 192 192 192 255 0.188226 0.857944
304.301 407.5898 5.629578 -0.1269865 -0.986311 0.1051911 192 192 192 255 0.137419 0.771833
398.677 325.5125 16.65117 -5.998672e-05 -2.232109e-05 1 192 192 192 255 0.189752 0.906544
268.3972 405.6165 16.65117 0.07896746 -0.849157 0.5222035 192 192 192 255 0.137454 0.771825
310.7797 412.0137 31.19531 1.763803e-06 -0.8308446 0.5565044 192 192 192 255 0.137366 0.771817
390.0324 321.2303 0.066589 -0.9726102 -0.04726639 -0.2275862 192 192 192 255 0.137287 0.772029
313.7061 405.6165 -16.65117 -0.6371301 -0.7408168 -0.2127341 192 192 192 255 0.137445 0.771847
353.8216 361.4649 16.65117 -0.5386015 -0.5709686 0.6195993 192 192 192 255 0.137309 0.771936
313.2779 405.6165 16.65117 -0.5066665 -0.814424 0.2828473 192 192 192 255 0.137377 0.771834
88.85124 142.798 15.21448 0.9563425 -0.2845342 -0.06670338 192 192 192 255 0.137817 0.772435
400.5583 220.593 -3.135702 -0.9867285 -0.1063494 0.1227053 192 192 192 255 0.137274 0.77224
409.0781 212.3193 16.65117 -0.0001069495 4.789522e-06 1 192 192 192 255 0.194652 0.853217
243.7834 412.0137 31.19531 -0.0545296 -0.2661057 0.9624003 192 192 192 255 0.116779 0.697296
203.2636 420.3833 31.19531 0 -0.07104679 0.997473 192 192 192 255 0.09769 0.951239
200.7324 410.611 28.35486 -0.0008118707 -0.7921914 0.6102722 192 192 192 255 0.096497 0.695164
447.8824 395.2806 42.16045 -0.3099957 -0.4132727 0.8562175 192 192 192 255 0.212933 0.689413
368.8009 425.0259 42.16045 0.04085579 -0.4869851 0.8724542 192 192 192 255 0.175677 0.953426
400.5145 408.1517 31.19531 -0.1187154 -0.3156193 0.9414303 192 192 192 255 0.190618 0.695476
386.9621 426.5858 42.16045 -0.01266099 -0.1453665 0.9892969 192 192 192 255 0.184233 0.954161
413.451 421.1371 42.16045 -0.0895799 -0.1743241 0.9806052 192 192 192 255 0.196712 0.701594
88.30272 379.5854 16.65117 0.1671454 -0.4443762 0.8801093 192 192 192 255 0.04353 0.682018
112.2111 394.9754 31.19531 -0.2194923 -0.4670621 0.856549 192 192 192 255 0.054793 0.689269
42.96225 368.9285 31.19531 0.3554738 -0.3114324 0.8812765 192 192 192 255 0.022169 0.926998
91.09945 404.9974 31.19531 0.114713 -0.4685252 0.8759709 192 192 192 255 0.044847 0.69399
59.31392 387.6381 31.19531 0.2478297 -0.3307516 0.9105953 192 192 192 255 0.029873 0.685812
122.4816 421.747 42.16045 0.0290522 -0.5832883 0.8117455 192 192 192 255 0.059632 0.701881
66.00365 400.5037 42.16045 0.4073628 -0.6004777 0.6881004 192 192 192 255 0.033024 0.691873
95.36751 420.4478 42.16045 0.2269001 -0.6032416 0.7646018 192 192 192 255 0.046858 0.701269
230.5209 434.9221 -42.16045 0.2571452 -0.7392645 -0.622386 192 192 192 255 0.110531 0.708088
303.928 434.9221 -42.16045 -0.1687281 -0.6709587 -0.7220424 192 192 192 255 0.145114 0.708088
242.6565 429.9764 -31.19531 0.1078629 -0.6510894 -0.7512977 192 192 192 255 0.116248 0.705758
261.296 445.6847 -42.16045 -1.124063e-08 -0.0413556 -0.9991446 192 192 192 255 0.12503 0.963159
276.7643 429.9764 -31.19531 -0.04960111 -0.3540496 -0.9339104 192 192 192 255 0.132317 0.955758
380.2451 397.813 -31.19531 -0.03192642 -0.3776952 -0.9253795 192 192 192 255 0.181068 0.940606
459.3133 368.0726 -31.19531 -0.1417118 -0.2669844 -0.9532246 192 192 192 255 0.218319 0.676595
407.4698 395.6803 -31.19531 -0.03846436 -0.1022621 -0.9940136 192 192 192 255 0.193894 0.939601
400.0007 388.82 -28.17818 -0.2890722 -0.7685323 -0.5707849 192 192 192 255 0.190376 0.685291
176.1742 412.0137 -31.19531 0.3598664 -0.7262852 -0.5856672 192 192 192 255 0.084927 0.697296
217.5423 412.0137 -31.19531 -0.1735379 -0.7086224 -0.6839144 192 192 192 255 0.104417 0.947296
186.7864 405.6165 -16.65117 0 -0.7398573 -0.6727638 192 192 192 255 0.089927 0.694282
189.794 418.8245 -31.19531 1.188498e-10 -0.7378463 -0.6749688 192 192 192 255 0.091344 0.950504
63.55037 0 23.62115 0.9975021 -0.07063753 7.078446e-05 192 192 192 255 0.137863 0.772805
55.26742 0 42.16045 0.905003 -0.1288522 0.4054219 192 192 192 255 0.027966 0.75319
63.67511 54.05905 -42.16045 0.7945954 -0.04968521 -0.605103 192 192 192 255 0.031927 0.778658
1.7e-05 346.3718 -16.65117 -0.07578871 -2.800125e-05 -0.9971239 192 192 192 255 0.001929 0.666371
1.7e-05 352.769 -31.19531 -0.9999994 -0.0005967718 -0.0009519968 192 192 192 255 0.001929 0.669385
1.7e-05 370.7317 -31.19531 -0.9999998 -0.0004044971 -0.0006515397 192 192 192 255 0.001929 0.677847
1.7e-05 375.6774 -42.16045 -0.3285717 -8.317675e-05 -0.944479 192 192 192 255 0.001929 0.680177
86.61938 142.8306 -16.65117 0.9563017 -0.2844048 -0.06783015 192 192 192 255 0.137871 0.772429
77.09832 123.4495 -42.16045 0.0001813124 0.0002530813 -1 192 192 192 255 0.137914 0.772474
157.5093 434.9221 -42.16045 1.656153e-05 -9.057795e-05 -1 192 192 192 255 0.076134 0.958088
66.00365 400.5037 42.16045 0.4073628 -0.6004777 0.6881004 192 192 192 255 0.033024 0.941873
95.36751 420.4478 42.16045 0.2269001 -0.6032416 0.7646018 192 192 192 255 0.046858 0.951269
85.71352 142.8306 16.65117 0.5722159 0.1761318 0.800966 192 192 192 255 0.13781 0.772436
97.70253 313.705 -16.65117 4.877801e-05 -2.089908e-05 -1 192 192 192 255 0.047958 0.900981
96.83759 200.054 -16.65117 0.7680497 -0.04198595 -0.6390124 192 192 192 255 0.047551 0.847438
500 346.3718 -16.65117 0.05393534 -0.05907064 -0.9967957 192 192 192 255 0.237487 0.666371
157.5093 429.9764 -31.19531 0.09738413 -0.5326111 -0.8407389 192 192 192 255 0.076134 0.955758
157.5093 412.0137 -31.19531 0.07761897 -0.4246077 -0.9020442 192 192 192 255 0.076134 0.947296
61.61072 44.93152 42.16045 0.7823783 -0.09107798 0.6161081 192 192 192 255 0.030955 0.774358
500 346.3718 16.65117 0.07807641 -2.886128e-05 0.9969474 192 192 192 255 0.237487 0.666371
500 375.6774 -42.16045 0.3285717 -8.327115e-05 -0.944479 192 192 192 255 0.237487 0.930177
342.4908 434.9221 -42.16045 -1.65607e-05 -9.057343e-05 -1 192 192 192 255 0.163282 0.958088
96.4725 206.4731 16.65117 0.9137304 0.005151747 0.4062883 192 192 192 255 0.047379 0.850462
95.84908 314.7213 16.65117 0.1535876 -0.07518508 0.9852706 192 192 192 255 0.047085 0.90146
500 352.769 -31.19531 0.9999999 -0.0002980877 -0.000477824 192 192 192 255 0.237487 0.919385
500 370.7317 -31.19531 0.8079577 -0.0003266967 -0.5892404 192 192 192 255 0.237487 0.927847
500 352.769 31.19531 0.9999996 -0.000596925 0.000607499 192 192 192 255 0.237487 0.919385
342.4908 434.9221 42.16045 -0.1299489 -0.5280994 0.8391808 192 192 192 255 0.163282 0.958088
500 370.7317 31.19531 0.9999993 -0.0004042074 0.001122814 192 192 192 255 0.237487 0.927847
500 375.6774 42.16045 0.9999999 -0.0002534336 0.0002615666 192 192 192 255 0.237487 0.930177
392.1744 142.8306 -16.65117 -0.2315471 -0.04323347 -0.9718626 192 192 192 255 0.186689 0.820479
268.3972 405.6165 16.65117 0.07896746 -0.849157 0.5222035 192 192 192 255 0.128375 0.694282
424.7016 0 -42.16045 -0.0006219873 -0.0007986714 -0.9999995 192 192 192 255 0.202013 0.75319
407.531 0 0 -0.4899938 -0.8693396 -0.06445616 192 192 192 255 0.193923 0.75319
398.692 222.3533 -16.65117 -0.1546319 -0.007402835 -0.9879444 192 192 192 255 0.137308 0.772236
310.9403 412.0137 -31.19531 -0.0938249 -0.11132 -0.9893457 192 192 192 255 0.148418 0.697296
313.7061 405.6165 -16.65117 -0.6371301 -0.7408168 -0.2127341 192 192 192 255 0.149721 0.694282
409.0781 212.3193 16.65117 -0.0001069495 4.789522e-06 1 192 192 192 255 0.137223 0.772211
398.677 325.5125 16.65117 -5.998672e-05 -2.232109e-05 1 192 192 192 255 0.137238 0.772018
157.5093 434.9221 42.16045 0.07724795 -0.6395928 0.7648228 192 192 192 255 0.076134 0.958088
313.2779 405.6165 16.65117 -0.5066665 -0.814424 0.2828473 192 192 192 255 0.149519 0.694282
310.7797 412.0137 31.19531 1.763803e-06 -0.8308446 0.5565044 192 192 192 255 0.148342 0.697296
342.4908 429.9764 -31.19531 -0.0001964087 -0.001074098 -0.9999994 192 192 192 255 0.163282 0.955758
342.4908 412.0137 -31.19531 -0.0005757192 -0.003126188 -0.9999949 192 192 192 255 0.163282 0.947296
157.5093 405.6165 -16.65117 4.656206e-05 -0.0002547137 -1 192 192 192 255 0.076134 0.944282
401.5249 123.4495 -42.16045 -0.9596815 -0.1798362 -0.2160332 192 192 192 255 0.191094 0.811349
400.5145 408.1517 31.19531 -0.1187154 -0.3156193 0.9414303 192 192 192 255 0.190618 0.945476
342.4908 412.0137 31.19531 -0.0002015673 -0.00166942 0.9999986 192 192 192 255 0.163282 0.947296
417.3907 38.94993 -42.16045 -0.5312672 -0.09973802 -0.841313 192 192 192 255 0.198568 0.77154
412.606 0 42.16045 -0.0007534213 -0.0005240458 0.9999996 192 192 192 255 0.196314 0.75319
407.426 29.64566 42.16045 -0.001137054 -0.0001216378 0.9999993 192 192 192 255 0.193874 0.767156
401.1516 123.4495 42.16045 -0.316413 0.4841165 0.8157904 192 192 192 255 0.190918 0.811349
181.5654 391.6375 -16.65117 0.0004985784 -0.0008113743 -0.9999996 192 192 192 255 0.087467 0.937696
186.7864 405.6165 -16.65117 0 -0.7398573 -0.6727638 192 192 192 255 0.089927 0.944282
263.5475 405.6165 -16.65117 0.1086376 -0.9349312 -0.3377892 192 192 192 255 0.12609 0.944282
176.0493 392.031 16.65117 0.2968321 -0.5634826 0.7709591 192 192 192 255 0.084869 0.937882
157.5093 405.6165 16.65117 -0.0003018022 -0.3686189 0.9295806 192 192 192 255 0.076134 0.944282
393.7336 142.8306 16.65117 -0.000298114 0.261464 0.9652132 192 192 192 255 0.187423 0.820479
400.1936 128.1776 39.44452 -0.001333803 0.8409694 0.5410811 192 192 192 255 0.190466 0.813576
313.7061 405.6165 -16.65117 -0.6371301 -0.7408168 -0.2127341 192 192 192 255 0.149721 0.944282
342.4908 405.6165 -16.65117 -0.06678207 -0.1777256 -0.9818115 192 192 192 255 0.163282 0.944282
398.698 325.5229 -16.65117 -0.04180012 -3.159887e-05 -0.999126 192 192 192 255 0.189762 0.906549
352.3959 362.1446 -16.65117 -0.5869954 -0.5602112 -0.5844655 192 192 192 255 0.167948 0.923802
342.4908 405.6165 16.65117 -7.008106e-05 -0.0002848456 1 192 192 192 255 0.163282 0.944282
313.2779 405.6165 16.65117 -0.5066665 -0.814424 0.2828473 192 192 192 255 0.149519 0.944282
353.8216 361.4649 16.65117 -0.5386015 -0.5709686 0.6195993 192 192 192 255 0.16862 0.923481
310.9403 412.0137 -31.19531 -0.0938249 -0.11132 -0.9893457 192 192 192 255 0.148418 0.947296
157.5093 429.9764 31.19531 0.0002496222 -0.00101444 0.9999995 192 192 192 255 0.076134 0.955758
342.4908 429.9764 31.19531 -9.568446e-05 -0.0007922417 0.9999997 192 192 192 255 0.163282 0.955758
75.95384 123.4495 42.16045 0.0003112452 0.0002204325 0.9999999 192 192 192 255 0.137808 0.77249
54.63358 0 -42.16045 0.9775222 -0.1637683 -0.1327795 192 192 192 255 0.137965 0.77278
310.7797 412.0137 31.19531 1.763803e-06 -0.8308446 0.5565044 192 192 192 255 0.148342 0.947296
88.30272 379.5854 16.65117 0.1671454 -0.4443762 0.8801093 192 192 192 255 0.04353 0.932018
268.3972 405.6165 16.65117 0.07896746 -0.849157 0.5222035 192 192 192 255 0.128375 0.944282
203.2636 420.3833 31.19531 0 -0.07104679 0.997473 192 192 192 255 0.09769 0.701239
157.5093 412.0137 31.19531 0.01282419 -0.4453563 0.8952616 192 192 192 255 0.076134 0.947296
243.7834 412.0137 31.19531 -0.0545296 -0.2661057 0.9624003 192 192 192 255 0.116779 0.947296
368.8009 425.0259 42.16045 0.04085579 -0.4869851 0.8724542 192 192 192 255 0.175677 0.703426
386.9621 426.5858 42.16045 -0.01266099 -0.1453665 0.9892969 192 192 192 255 0.184233 0.704161
413.451 421.1371 42.16045 -0.0895799 -0.1743241 0.9806052 192 192 192 255 0.196712 0.951594
447.8824 395.2806 42.16045 -0.3099957 -0.4132727 0.8562175 192 192 192 255 0.212933 0.939413
91.09945 404.9974 31.19531 0.114713 -0.4685252 0.8759709 192 192 192 255 0.044847 0.94399
112.2111 394.9754 31.19531 -0.2194923 -0.4670621 0.856549 192 192 192 255 0.054793 0.939269
59.31392 387.6381 31.19531 0.2478297 -0.3307516 0.9105953 192 192 192 255 0.029873 0.935812
1.7e-05 352.769 31.19531 -0.9999994 -0.000596772 0.0009519963 192 192 192 255 0.001929 0.669385
1.7e-05 346.3718 16.65117 -0.1192051 -4.404208e-05 0.9928697 192 192 192 255 0.001929 0.666371
42.96225 368.9285 31.19531 0.3554738 -0.3114324 0.8812765 192 192 192 255 0.022169 0.676998
1.7e-05 375.6774 42.16045 -0.9999999 -0.0002531464 0.000407753 192 192 192 255 0.001929 0.680177
1.7e-05 370.7317 31.19531 -0.9742195 -0.000394069 0.2256019 192 192 192 255 0.001929 0.677847
122.4816 421.747 42.16045 0.0290522 -0.5832883 0.8117455 192 192 192 255 0.059632 0.951881
276.7643 429.9764 -31.19531 -0.04960111 -0.3540496 -0.9339104 192 192 192 255 0.132317 0.705758
261.296 445.6847 -42.16045 -1.124063e-08 -0.0413556 -0.9991446 192 192 192 255 0.12503 0.713159
303.928 434.9221 -42.16045 -0.1687281 -0.6709587 -0.7220424 192 192 192 255 0.145114 0.958088
230.5209 434.9221 -42.16045 0.2571452 -0.7392645 -0.622386 192 192 192 255 0.110531 0.958088
242.6565 429.9764 -31.19531 0.1078629 -0.6510894 -0.7512977 192 192 192 255 0.116248 0.955758
407.4698 395.6803 -31.19531 -0.03846436 -0.1022621 -0.9940136 192 192 192 255 0.193894 0.689601
380.2451 397.813 -31.19531 -0.03192642 -0.3776952 -0.9253795 192 192 192 255 0.181068 0.690606
459.3133 368.0726 -31.19531 -0.1417118 -0.2669844 -0.9532246 192 192 192 255 0.218319 0.926595
217.5423 412.0137 -31.19531 -0.1735379 -0.7086224 -0.6839144 192 192 192 255 0.104417 0.697296
263.5475 405.6165 -16.65117 0.1086376 -0.9349312 -0.3377892 192 192 192 255 0.12609 0.694282
189.794 418.8245 -31.19531 1.188498e-10 -0.7378463 -0.6749688 192 192 192 255 0.091344 0.700504
176.1742 412.0137 -31.19531 0.3598664 -0.7262852 -0.5856672 192 192 192 255 0.084927 0.947296
3 0 1 2 
3 2 3 4 
3 2 4 0 
3 0 5 1 
3 0 6 7 
3 127 13 8 
3 8 9 127 
3 0 7 10 
3 6 0 4 
3 6 4 128 
3 5 11 12 
3 5 12 1 
3 129 1 12 
3 10 7 14 
3 10 14 15 
3 16 17 18 
3 16 19 17 
3 16 20 19 
3 21 130 131 
3 21 131 32 
3 22 132 133 
3 22 133 29 
3 0 16 18 
3 0 18 5 
3 16 23 24 
3 16 25 20 
3 134 8 13 
3 134 13 135 
3 16 24 27 
3 16 27 28 
3 20 25 136 
3 110 106 109 
3 31 77 57 
3 31 57 58 
3 0 10 23 
3 0 23 16 
3 112 109 113 
3 16 28 34 
3 35 36 37 
3 28 137 138 
3 28 138 34 
3 36 40 37 
3 42 37 43 
3 44 26 41 
3 44 41 49 
3 43 37 45 
3 114 116 22 
3 114 22 29 
3 47 26 44 
3 37 40 48 
3 37 48 64 
3 51 45 37 
3 51 37 64 
3 39 33 52 
3 39 52 62 
3 92 87 83 
3 57 55 56 
3 57 56 58 
3 47 139 95 
3 47 95 26 
3 5 140 141 
3 5 141 11 
3 44 49 75 
3 44 75 76 
3 142 122 120 
3 142 120 59 
3 46 50 63 
3 46 63 66 
3 17 19 143 
3 17 143 144 
3 6 128 145 
3 6 145 7 
3 55 57 65 
3 55 65 71 
3 55 71 72 
3 69 67 68 
3 69 68 146 
3 44 76 82 
3 70 147 148 
3 73 101 103 
3 73 103 74 
3 10 15 149 
3 10 149 150 
3 48 151 64 
3 151 152 64 
3 152 147 64 
3 77 78 79 
3 77 79 57 
3 51 64 153 
3 79 80 65 
3 79 65 57 
3 81 154 102 
3 81 102 104 
3 147 70 64 
3 153 64 155 
3 155 64 156 
3 156 64 81 
3 21 32 123 
3 21 123 125 
3 86 40 157 
3 87 89 84 
3 87 84 83 
3 89 87 90 
3 97 45 88 
3 30 158 100 
3 159 35 37 
3 159 37 160 
3 91 85 161 
3 25 70 117 
3 85 91 54 
3 85 54 53 
3 162 61 60 
3 162 60 163 
3 96 164 165 
3 96 165 91 
3 93 54 91 
3 93 91 165 
3 87 94 90 
3 16 64 70 
3 16 70 25 
3 34 166 154 
3 34 154 81 
3 167 68 67 
3 167 67 168 
3 16 34 81 
3 16 81 64 
3 169 121 119 
3 169 119 170 
3 140 18 171 
3 157 40 36 
3 157 36 172 
3 155 173 174 
3 155 174 153 
3 91 161 96 
3 10 150 23 
3 175 35 159 
3 160 37 42 
3 160 42 176 
3 177 42 43 
3 177 43 178 
3 179 171 180 
3 179 180 181 
3 182 183 150 
3 184 185 45 
3 178 43 45 
3 178 45 185 
3 186 187 188 
3 186 188 189 
3 48 40 188 
3 88 190 191 
3 88 191 192 
3 51 190 88 
3 193 169 170 
3 194 99 195 
3 26 95 134 
3 26 134 41 
3 95 139 196 
3 95 196 8 
3 134 95 8 
3 127 197 13 
3 188 40 86 
3 53 54 87 
3 53 87 92 
3 87 54 93 
3 87 93 94 
3 82 76 89 
3 84 89 76 
3 84 76 75 
3 195 198 174 
3 193 118 169 
3 140 171 179 
3 5 18 140 
3 23 150 183 
3 23 183 199 
3 200 183 182 
3 7 145 14 
3 2 1 129 
3 2 129 3 
3 172 36 35 
3 172 35 175 
3 176 42 177 
3 96 161 71 
3 96 71 65 
3 80 164 96 
3 80 96 65 
3 184 45 97 
3 201 100 98 
3 38 100 201 
3 100 158 168 
3 100 168 98 
3 30 100 38 
3 202 99 194 
3 195 99 203 
3 195 203 198 
3 103 204 62 
3 103 62 52 
3 103 105 205 
3 103 205 204 
3 103 101 105 
3 174 173 195 
3 81 206 207 
3 81 207 156 
3 81 104 206 
3 107 106 30 
3 107 30 38 
3 208 209 202 
3 208 202 194 
3 24 108 210 
3 24 210 27 
3 211 212 106 
3 211 106 213 
3 213 106 110 
3 109 106 107 
3 111 109 33 
3 111 33 39 
3 214 215 109 
3 214 109 112 
3 113 109 111 
3 34 138 216 
3 34 216 166 
3 217 218 115 
3 46 217 115 
3 46 115 50 
3 114 218 116 
3 116 218 217 
3 117 70 148 
3 117 148 219 
3 25 117 220 
3 25 220 136 
3 126 143 221 
3 126 221 124 
3 124 221 118 
3 124 118 193 
3 48 188 187 
3 120 122 222 
3 222 122 223 
3 60 61 223 
3 60 223 122 
3 60 122 142 
3 152 151 224 
3 152 224 121 
3 152 121 169 
3 125 225 162 
3 125 162 226 
3 125 227 225 
3 125 123 227 
3 144 143 126 
3 144 126 228 
3 27 210 208 
3 51 88 45 
