ply
format ascii 1.0
comment VCGLIB generated
comment TextureFile Dungeons_2_Texture_01_A.png
element vertex 183
property float x
property float y
property float z
property float nx
property float ny
property float nz
property uchar red
property uchar green
property uchar blue
property uchar alpha
property float texture_u
property float texture_v
element face 212
property list uchar int vertex_indices
end_header
500 0 34.06445 4.384606e-05 -2.192303e-05 1 192 192 192 255 0.234495 0.75746
500 500 34.06445 1.620439e-05 3.240879e-05 1 192 192 192 255 0.10432 0.98659
500 500 -34.06445 0.4364358 0.2182179 -0.8728716 192 192 192 255 0.13554 0.98659
500 0 -34.06445 2.192303e-05 -4.384606e-05 -1 192 192 192 255 0.10432 0.75746
288.811 362.1864 25.36377 -0.06846613 -0.2667635 0.961327 192 192 192 255 0.137715 0.923435
337.335 314.9832 25.36377 -0.00405033 -1.78781e-05 0.9999918 192 192 192 255 0.159952 0.901804
500 390.5084 34.06445 0.6628702 -0.04717644 0.7472466 192 192 192 255 0.234495 0.936414
500 362.1864 25.36377 0.4625746 -0.03546078 0.8858709 192 192 192 255 0.234495 0.923435
500 115.4667 25.36377 0.2000782 0.01839199 0.9796073 192 192 192 255 0.108307 0.810373
500 91.22826 34.06445 0.02089374 0.04593358 0.998726 192 192 192 255 0.10432 0.799266
337.335 115.4667 25.36377 -0.02150584 0.1972715 0.980113 192 192 192 255 0.159952 0.810373
0 0 34.06445 -1.112385e-05 -2.22477e-05 1 192 192 192 255 0.005365 0.75746
0 500 34.06445 -3.847116e-05 1.923558e-05 1 192 192 192 255 0.104319 0.98659
0 500 -34.06445 -4.734923e-05 9.469846e-05 -1 192 192 192 255 0.13554 0.98659
0 0 -34.06445 -2.251545e-05 -1.125772e-05 -1 192 192 192 255 0.10432 0.98659
211.189 362.1864 25.36377 0.1602921 -0.2797174 0.9466069 192 192 192 255 0.102144 0.923435
162.665 314.9832 25.36377 0.0002420102 -6.43137e-05 1 192 192 192 255 0.079908 0.901804
0 390.5084 34.06445 -0.9999988 -0.0003042255 0.001508286 192 192 192 255 0.13554 0.936414
0 362.1864 25.36377 -0.9695942 -1.002676e-05 0.2447186 192 192 192 255 0.131553 0.923435
0 115.4667 25.36377 -0.9649069 0.08869813 0.2471587 192 192 192 255 0.131553 0.810373
0 91.22826 34.06445 -0.1196337 0.1548079 0.9806744 192 192 192 255 0.005365 0.799266
162.665 115.4667 25.36377 4.983267e-05 0.3454072 0.9384529 192 192 192 255 0.079908 0.810373
316.3618 390.5084 25.36377 -6.244046e-05 -0.2870898 0.9579037 192 192 192 255 0.150341 0.936414
183.6382 390.5084 25.36377 9.273386e-05 -0.2869647 0.9579412 192 192 192 255 0.089519 0.936414
151.7759 362.1863 25.36377 2.600074e-05 -0.0001108638 1 192 192 192 255 0.074918 0.923435
348.2241 362.1863 25.36377 -1.612747e-05 -0.1144341 0.9934309 192 192 192 255 0.164942 0.923435
329.2256 419.5262 34.06445 -3.468872e-06 -0.008830245 0.999961 192 192 192 255 0.156236 0.949712
170.7744 419.5262 34.06445 0.003873723 -0.07419898 0.997236 192 192 192 255 0.083624 0.949712
361.186 390.5084 34.06445 -2.172043e-05 -0.09631932 0.9953505 192 192 192 255 0.170882 0.936414
138.814 390.5084 34.06445 0.07543901 -0.1433917 0.9867866 192 192 192 255 0.068978 0.936414
284.749 352.1864 16.96378 -0.1602909 -0.2797195 0.9466065 192 192 192 255 0.135854 0.918853
327.335 310.7602 16.96378 -0.6422204 -0.0002813014 0.76652 192 192 192 255 0.155369 0.899869
327.335 115.4667 16.96378 -0.6425461 0.03293017 0.7655392 192 192 192 255 0.155369 0.810373
215.2505 352.1864 16.96378 0.08014726 -0.3122708 0.9466063 192 192 192 255 0.104006 0.918853
172.665 310.7602 16.96378 0.2753754 -0.164863 0.9470948 192 192 192 255 0.08449 0.899869
172.665 115.4667 16.96378 0.01177612 0.9996621 0.0231736 192 192 192 255 0.08449 0.810373
279.4697 339.1864 16.96365 -0.1977504 -0.4868822 0.8507882 192 192 192 255 0.127704 0.687142
314.335 305.2702 16.96365 -0.5844058 -0.349874 0.7321599 192 192 192 255 0.127704 0.6716
314.335 115.4667 16.96378 -0.01782183 0.9998015 0.008910893 192 192 192 255 0.127704 0.584621
220.5308 339.1864 16.96371 0.1697799 -0.6615119 0.7304634 192 192 192 255 0.106425 0.676752
185.665 305.2702 16.96371 0.5844027 -0.3498769 0.732161 192 192 192 255 0.090448 0.661209
185.665 115.4667 16.96378 0.01781971 0.9996824 0.01781966 192 192 192 255 0.090448 0.57423
288.811 362.1864 -25.36377 -0.06846613 -0.2667635 -0.961327 192 192 192 255 0.137715 0.820614
337.335 314.9832 -25.36377 -0.0002148481 -0.0001286265 -1 192 192 192 255 0.159952 0.842246
500 390.5084 -34.06445 0.9999996 -0.0001744216 -0.0008647464 192 192 192 255 0.13554 0.936414
500 362.1864 -25.36377 0.8894993 -1.872188e-05 -0.4569366 192 192 192 255 0.234495 0.820614
500 115.4667 -25.36377 0.987509 0.05322129 -0.1483019 192 192 192 255 0.131553 0.810373
500 91.22826 -34.06445 0.04252775 0.04101244 -0.9982532 192 192 192 255 0.13554 0.799266
337.335 115.4667 -25.36377 -0.0001164989 0.3465792 -0.9380207 192 192 192 255 0.159952 0.933676
211.189 362.1864 -25.36377 0.1602921 -0.2797174 -0.9466069 192 192 192 255 0.102144 0.820614
162.665 314.9832 -25.36377 3.229994e-05 -8.583639e-06 -1 192 192 192 255 0.079908 0.842246
0 390.5084 -34.06445 -0.8324264 -0.03491512 -0.5530345 192 192 192 255 0.10432 0.936414
0 362.1864 -25.36377 -0.248247 -0.03882408 -0.9679185 192 192 192 255 0.005365 0.820614
0 115.4667 -25.36377 -0.3322474 0.0179063 -0.9430223 192 192 192 255 0.108307 0.810373
0 91.22826 -34.06445 -0.1729145 0.1405502 -0.9748571 192 192 192 255 0.10432 0.799266
162.665 115.4667 -25.36377 3.97961e-05 0.2428542 -0.9700629 192 192 192 255 0.079908 0.933676
316.3618 390.5084 -25.36377 -0.06285358 -0.1668033 -0.9839848 192 192 192 255 0.150341 0.807635
183.6382 390.5084 -25.36377 0.06284671 -0.1183686 -0.9909789 192 192 192 255 0.089519 0.807635
151.7759 362.1863 -25.36377 1.612749e-05 -0.1144341 -0.9934309 192 192 192 255 0.074918 0.820614
348.2241 362.1863 -25.36377 -2.600073e-05 -0.0001108637 -1 192 192 192 255 0.164942 0.820614
329.2256 419.5262 -34.06445 -0.0471468 -0.1251201 -0.9910208 192 192 192 255 0.156236 0.794338
170.7744 419.5262 -34.06445 2.474707e-05 -0.0001038044 -1 192 192 192 255 0.083624 0.794338
361.186 390.5084 -34.06445 -0.07543895 -0.1433916 -0.9867866 192 192 192 255 0.170882 0.807635
138.814 390.5084 -34.06445 2.735308e-05 -0.1049462 -0.9944779 192 192 192 255 0.068978 0.807635
284.749 352.1864 -16.96378 -0.1602909 -0.2797195 -0.9466065 192 192 192 255 0.135854 0.825197
327.335 310.7602 -16.96378 -0.3101876 -0.08243291 -0.9470948 192 192 192 255 0.155369 0.844181
327.335 115.4667 -16.96378 -0.005888136 0.9996621 -0.02531843 192 192 192 255 0.155369 0.933676
215.2505 352.1864 -16.96378 0.08014726 -0.3122708 -0.9466063 192 192 192 255 0.104006 0.825197
172.665 310.7602 -16.96378 0.001367692 -0.0008160158 -0.9999987 192 192 192 255 0.08449 0.844181
172.665 115.4667 -16.96378 0.0009072596 0.07701643 -0.9970294 192 192 192 255 0.08449 0.933676
279.4697 339.1864 -16.96365 -0.2924827 -0.7201253 -0.6291847 192 192 192 255 0.112156 0.687142
314.335 305.2702 -16.96365 -0.6582848 -0.1749378 -0.7321599 192 192 192 255 0.112156 0.6716
314.335 115.4667 -16.96378 -0.008833281 0.999922 -0.008833239 192 192 192 255 0.112156 0.584621
220.5308 339.1864 -16.96371 0.3395588 -0.5925563 -0.7304635 192 192 192 255 0.112156 0.649386
185.665 305.2702 -16.96371 0.0007533677 -0.0001991068 -0.9999997 192 192 192 255 0.127704 0.6716
185.665 115.4667 -16.96378 0.0002593622 0.02865131 -0.9995894 192 192 192 255 0.127704 0.901507
337.335 290.2212 25.36377 -0.09735151 -0.008810376 0.9952111 192 192 192 255 0.159952 0.890456
337.335 183.7644 25.36377 -0.07390998 0.002204665 0.9972625 192 192 192 255 0.159952 0.841672
348.1115 266.3537 25.36377 -0.03463177 0 0.9994001 192 192 192 255 0.16489 0.879519
330.3358 262.7206 19.48447 -0.5198939 0 0.8542309 192 192 192 255 0.156745 0.877854
274.7132 419.5262 34.06445 -0.003261087 -0.1161653 0.9932246 192 192 192 255 0.131255 0.949712
228.6842 407.9408 30.5907 0 -0.2531064 0.9674385 192 192 192 255 0.110162 0.944403
224.4137 429.1769 34.06445 0 -0.03770704 0.9992889 192 192 192 255 0.108205 0.954135
83.229 91.22826 34.06445 0.001763626 0.07524028 0.9971639 192 192 192 255 0.043505 0.799266
245.162 91.22826 34.06445 -0.0008819351 0.1038286 0.9945948 192 192 192 255 0.117713 0.799266
179.2885 103.6298 29.61276 1.331884e-08 0.2589056 0.9659026 192 192 192 255 0.087526 0.804949
162.9915 83.00694 34.06445 2.044006e-09 0.04291803 0.9990787 192 192 192 255 0.080057 0.795498
126.3585 390.5084 -34.06445 -0.004656315 -0.04736029 -0.998867 192 192 192 255 0.06327 0.807635
16.23748 390.5084 -34.06445 0.004931306 -0.07956199 -0.9968178 192 192 192 255 0.012806 0.807635
53.99118 405.1085 -34.06445 -2.892298e-10 -0.02625695 -0.9996552 192 192 192 255 0.030107 0.800945
65.62547 380.2716 -30.91967 -2.372935e-09 -0.198668 -0.9800668 192 192 192 255 0.035438 0.812326
162.665 275.5705 -25.36377 0.03041409 -0.01029468 -0.9994844 192 192 192 255 0.079908 0.860307
162.665 146.5296 -25.36377 0.03319918 0.006135945 -0.9994299 192 192 192 255 0.079908 0.919441
172.665 224.0925 -16.96378 0.1298294 9.486651e-08 -0.9915364 192 192 192 255 0.08449 0.883897
147.2112 229.9911 -25.36377 0.0485916 0 -0.9988188 192 192 192 255 0.072826 0.881194
343.13 91.22826 -34.06445 -0.001519573 0.08955193 -0.995981 192 192 192 255 0.162608 0.944783
106.5658 91.22826 -34.06445 0.001342352 0.0721169 -0.9973953 192 192 192 255 0.0542 0.944783
296.7419 106.4605 -28.59664 -0.005992346 0.3215953 -0.9468583 192 192 192 255 0.14135 0.937803
164.9236 102.3667 -30.06619 0.007193699 0.3042193 -0.9525749 192 192 192 255 0.080943 0.939679
160.8068 84.58258 -34.06445 0.001451241 0.01186934 -0.9999285 192 192 192 255 0.079056 0.947829
299.6362 85.10032 -34.06445 -0.002314818 0.01644654 -0.9998621 192 192 192 255 0.142676 0.947592
484.2003 390.5084 34.06445 -0.008012791 -0.07543407 0.9971186 192 192 192 255 0.227255 0.936414
399.2369 390.5084 34.06445 0.005268252 -0.05483094 0.9984818 192 192 192 255 0.188319 0.936414
456.0753 377.045 29.92842 -1.06804e-07 -0.2936639 0.9559087 192 192 192 255 0.214366 0.930244
453.7132 405.2404 34.06445 -1.204343e-08 -0.03361919 0.9994348 192 192 192 255 0.213284 0.943165
456.0752 377.045 29.92847 -5.199237e-08 -0.1451383 0.9894114 192 192 192 255 0.118982 0.865446
500 390.5084 34.06445 0.6628702 -0.04717644 0.7472466 192 192 192 255 0.10432 0.936414
500 362.1864 25.36377 0.4625746 -0.03546078 0.8858709 192 192 192 255 0.108307 0.923435
500 91.22826 34.06445 0.02089374 0.04593358 0.998726 192 192 192 255 0.234495 0.799266
500 0 34.06445 4.384606e-05 -2.192303e-05 1 192 192 192 255 0.13554 0.75746
0 0 34.06445 -1.112385e-05 -2.22477e-05 1 192 192 192 255 0.13554 0.98659
500 500 34.06445 1.620439e-05 3.240879e-05 1 192 192 192 255 0.104319 0.75746
500 500 -34.06445 0.4364358 0.2182179 -0.8728716 192 192 192 255 0.13554 0.75746
500 115.4667 25.36377 0.2000782 0.01839199 0.9796073 192 192 192 255 0.234495 0.810373
0 500 34.06445 -3.847116e-05 1.923558e-05 1 192 192 192 255 0.13554 0.98659
0 500 -34.06445 -4.734923e-05 9.469846e-05 -1 192 192 192 255 0.10432 0.98659
0 91.22826 34.06445 -0.1196337 0.1548079 0.9806744 192 192 192 255 0.13554 0.799266
0 500 34.06445 -3.847116e-05 1.923558e-05 1 192 192 192 255 0.005365 0.98659
0 390.5084 34.06445 -0.9999988 -0.0003042255 0.001508286 192 192 192 255 0.005365 0.936414
0 115.4667 25.36377 -0.9649069 0.08869813 0.2471587 192 192 192 255 0.005365 0.810373
0 362.1864 25.36377 -0.9695942 -1.002676e-05 0.2447186 192 192 192 255 0.005365 0.923435
500 500 34.06445 1.620439e-05 3.240879e-05 1 192 192 192 255 0.234495 0.98659
327.335 310.7602 16.96378 -0.6422204 -0.0002813014 0.76652 192 192 192 255 0.155369 0.663726
284.749 352.1864 16.96378 -0.1602909 -0.2797195 0.9466065 192 192 192 255 0.135854 0.68271
279.4697 339.1864 16.96365 -0.1977504 -0.4868822 0.8507882 192 192 192 255 0.133435 0.676752
314.335 305.2702 16.96365 -0.5844058 -0.349874 0.7321599 192 192 192 255 0.149412 0.661209
327.335 115.4667 16.96378 -0.6425461 0.03293017 0.7655392 192 192 192 255 0.155369 0.57423
314.335 115.4667 16.96378 -0.01782183 0.9998015 0.008910893 192 192 192 255 0.149412 0.57423
215.2505 352.1864 16.96378 0.08014726 -0.3122708 0.9466063 192 192 192 255 0.104006 0.68271
172.665 310.7602 16.96378 0.2753754 -0.164863 0.9470948 192 192 192 255 0.08449 0.663726
172.665 115.4667 16.96378 0.01177612 0.9996621 0.0231736 192 192 192 255 0.08449 0.57423
185.665 115.4667 16.96378 0.01781971 0.9996824 0.01781966 192 192 192 255 0.112156 0.901507
314.335 115.4667 16.96378 -0.01782183 0.9998015 0.008910893 192 192 192 255 0.112156 0.842542
314.335 115.4667 -16.96378 -0.008833281 0.999922 -0.008833239 192 192 192 255 0.127704 0.842542
162.665 115.4667 25.36377 4.983267e-05 0.3454072 0.9384529 192 192 192 255 0.108307 0.912047
337.335 115.4667 25.36377 -0.02150584 0.1972715 0.980113 192 192 192 255 0.108307 0.832003
327.335 115.4667 16.96378 -0.6425461 0.03293017 0.7655392 192 192 192 255 0.112156 0.836585
172.665 115.4667 16.96378 0.01177612 0.9996621 0.0231736 192 192 192 255 0.112156 0.907464
500 390.5084 -34.06445 0.9999996 -0.0001744216 -0.0008647464 192 192 192 255 0.234495 0.807635
500 91.22826 -34.06445 0.04252775 0.04101244 -0.9982532 192 192 192 255 0.234495 0.944783
0 91.22826 -34.06445 -0.1729145 0.1405502 -0.9748571 192 192 192 255 0.005365 0.944783
500 0 -34.06445 2.192303e-05 -4.384606e-05 -1 192 192 192 255 0.234495 0.98659
0 0 -34.06445 -2.251545e-05 -1.125772e-05 -1 192 192 192 255 0.005365 0.98659
500 115.4667 -25.36377 0.987509 0.05322129 -0.1483019 192 192 192 255 0.234495 0.933676
220.5308 339.1864 16.96371 0.1697799 -0.6615119 0.7304634 192 192 192 255 0.127704 0.649386
279.4697 339.1864 -16.96365 -0.2924827 -0.7201253 -0.6291847 192 192 192 255 0.112156 0.622377
279.4697 339.1864 16.96365 -0.1977504 -0.4868822 0.8507882 192 192 192 255 0.127704 0.622377
0 500 -34.06445 -4.734923e-05 9.469846e-05 -1 192 192 192 255 0.005365 0.757459
0 390.5084 -34.06445 -0.8324264 -0.03491512 -0.5530345 192 192 192 255 0.005365 0.807635
0 115.4667 -25.36377 -0.3322474 0.0179063 -0.9430223 192 192 192 255 0.005365 0.933676
185.665 305.2702 16.96371 0.5844027 -0.3498769 0.732161 192 192 192 255 0.112156 0.6716
220.5308 339.1864 -16.96371 0.3395588 -0.5925563 -0.7304635 192 192 192 255 0.127704 0.687142
220.5308 339.1864 16.96371 0.1697799 -0.6615119 0.7304634 192 192 192 255 0.112156 0.687142
185.665 115.4667 16.96378 0.01781971 0.9996824 0.01781966 192 192 192 255 0.112156 0.584621
185.665 115.4667 -16.96378 0.0002593622 0.02865131 -0.9995894 192 192 192 255 0.127704 0.584621
500 500 -34.06445 0.4364358 0.2182179 -0.8728716 192 192 192 255 0.234495 0.757459
327.335 310.7602 -16.96378 -0.3101876 -0.08243291 -0.9470948 192 192 192 255 0.155369 0.608037
314.335 305.2702 -16.96365 -0.6582848 -0.1749378 -0.7321599 192 192 192 255 0.149412 0.610554
279.4697 339.1864 -16.96365 -0.2924827 -0.7201253 -0.6291847 192 192 192 255 0.133435 0.595011
284.749 352.1864 -16.96378 -0.1602909 -0.2797195 -0.9466065 192 192 192 255 0.135854 0.589054
327.335 115.4667 -16.96378 -0.005888136 0.9996621 -0.02531843 192 192 192 255 0.155369 0.697533
314.335 115.4667 -16.96378 -0.008833281 0.999922 -0.008833239 192 192 192 255 0.149412 0.697533
220.5308 339.1864 -16.96371 0.3395588 -0.5925563 -0.7304635 192 192 192 255 0.106425 0.595011
215.2505 352.1864 -16.96378 0.08014726 -0.3122708 -0.9466063 192 192 192 255 0.104006 0.589054
185.665 305.2702 -16.96371 0.0007533677 -0.0001991068 -0.9999997 192 192 192 255 0.090448 0.610554
172.665 310.7602 -16.96378 0.001367692 -0.0008160158 -0.9999987 192 192 192 255 0.08449 0.608037
172.665 224.0925 -16.96378 0.1298294 9.486651e-08 -0.9915364 192 192 192 255 0.08449 0.647754
185.665 115.4667 -16.96378 0.0002593622 0.02865131 -0.9995894 192 192 192 255 0.090448 0.697533
172.665 115.4667 -16.96378 0.0009072596 0.07701643 -0.9970294 192 192 192 255 0.08449 0.697533
337.335 115.4667 -25.36377 -0.0001164989 0.3465792 -0.9380207 192 192 192 255 0.131553 0.832003
162.665 115.4667 -25.36377 3.97961e-05 0.2428542 -0.9700629 192 192 192 255 0.131553 0.912047
327.335 115.4667 -16.96378 -0.005888136 0.9996621 -0.02531843 192 192 192 255 0.127704 0.836585
172.665 115.4667 -16.96378 0.0009072596 0.07701643 -0.9970294 192 192 192 255 0.127704 0.907464
500 362.1864 -25.36377 0.8894993 -1.872188e-05 -0.4569366 192 192 192 255 0.131553 0.923435
0 0 -34.06445 -2.251545e-05 -1.125772e-05 -1 192 192 192 255 0.10432 0.75746
0 0 34.06445 -1.112385e-05 -2.22477e-05 1 192 192 192 255 0.13554 0.75746
0 362.1864 -25.36377 -0.248247 -0.03882408 -0.9679185 192 192 192 255 0.108307 0.923435
500 0 34.06445 4.384606e-05 -2.192303e-05 1 192 192 192 255 0.10432 0.75746
500 0 -34.06445 2.192303e-05 -4.384606e-05 -1 192 192 192 255 0.13554 0.75746
399.2369 390.5084 34.06445 0.005268252 -0.05483094 0.9984818 192 192 192 255 0.120878 0.891492
456.0753 377.045 29.92842 -1.06804e-07 -0.2936639 0.9559087 192 192 192 255 0.118982 0.865446
456.0752 377.045 29.92847 -5.199237e-08 -0.1451383 0.9894114 192 192 192 255 0.214366 0.930244
484.2003 390.5084 34.06445 -0.008012791 -0.07543407 0.9971186 192 192 192 255 0.120878 0.852557
3 5 7 25 
3 25 7 28 
3 28 7 102 
3 102 7 103 
3 103 7 101 
3 7 6 101 
3 106 44 2 
3 106 2 1 
3 8 46 107 
3 8 9 47 
3 108 10 84 
3 20 83 21 
3 83 85 21 
3 10 21 84 
3 21 85 84 
3 0 108 11 
3 108 84 11 
3 84 86 11 
3 86 83 11 
3 83 20 11 
3 3 109 110 
3 3 110 14 
3 111 112 13 
3 111 13 12 
3 108 113 10 
3 7 5 113 
3 5 76 113 
3 76 78 113 
3 78 77 113 
3 77 10 113 
3 37 36 70 
3 37 70 71 
3 38 37 71 
3 38 71 72 
3 15 23 24 
3 15 24 16 
3 51 17 114 
3 51 114 115 
3 19 18 53 
3 19 54 116 
3 29 27 117 
3 29 117 118 
3 20 21 119 
3 120 119 21 
3 120 21 16 
3 4 22 23 
3 4 23 15 
3 121 117 26 
3 26 117 80 
3 80 117 82 
3 117 27 82 
3 28 26 22 
3 28 22 25 
3 27 23 81 
3 23 22 81 
3 81 22 80 
3 22 26 80 
3 26 28 121 
3 28 102 121 
3 102 104 121 
3 104 101 121 
3 121 101 6 
3 23 27 29 
3 23 29 24 
3 4 5 25 
3 4 25 22 
3 24 29 118 
3 24 118 120 
3 16 24 120 
3 5 4 30 
3 5 30 31 
3 5 31 76 
3 10 77 32 
3 76 31 79 
3 31 32 79 
3 77 79 32 
3 4 15 33 
3 4 33 30 
3 15 16 34 
3 15 34 33 
3 16 21 35 
3 16 35 34 
3 122 123 124 
3 122 124 125 
3 126 122 125 
3 126 125 127 
3 123 128 39 
3 123 39 124 
3 128 129 40 
3 128 40 39 
3 129 130 41 
3 129 41 40 
3 131 132 133 
3 131 133 75 
3 132 131 134 
3 132 134 135 
3 132 135 136 
3 134 131 137 
3 43 59 45 
3 59 62 138 
3 59 138 45 
3 139 95 48 
3 140 55 96 
3 96 55 98 
3 95 97 48 
3 48 97 55 
3 97 98 55 
3 141 142 139 
3 139 142 95 
3 95 142 100 
3 100 142 99 
3 99 142 96 
3 142 140 96 
3 139 48 143 
3 45 143 48 
3 45 48 43 
3 144 73 145 
3 144 145 146 
3 49 50 58 
3 49 58 57 
3 61 63 147 
3 63 87 147 
3 87 89 147 
3 89 88 147 
3 88 148 147 
3 140 149 55 
3 52 50 149 
3 50 91 149 
3 91 94 149 
3 94 92 149 
3 92 55 149 
3 150 74 151 
3 150 151 152 
3 153 154 74 
3 153 74 150 
3 42 49 57 
3 42 57 56 
3 155 60 61 
3 155 61 147 
3 62 59 56 
3 62 56 60 
3 56 57 61 
3 56 61 60 
3 155 138 62 
3 155 62 60 
3 57 58 63 
3 57 63 61 
3 42 56 59 
3 42 59 43 
3 58 52 63 
3 63 52 87 
3 87 52 90 
3 148 88 52 
3 52 88 90 
3 50 52 58 
3 43 65 64 
3 43 64 42 
3 48 66 65 
3 48 65 43 
3 42 64 67 
3 42 67 49 
3 49 67 68 
3 49 68 50 
3 92 93 69 
3 92 69 55 
3 156 157 158 
3 156 158 159 
3 160 161 157 
3 160 157 156 
3 159 158 162 
3 159 162 163 
3 163 162 164 
3 163 164 165 
3 165 164 166 
3 164 167 166 
3 167 168 166 
3 133 169 170 
3 133 170 75 
3 133 171 169 
3 170 172 75 
3 46 173 107 
3 8 47 46 
3 19 53 54 
3 116 54 174 
3 116 174 175 
3 53 18 176 
3 176 18 51 
3 18 17 51 
3 107 44 106 
3 107 173 44 
3 47 9 177 
3 47 177 178 
3 76 79 78 
3 78 79 77 
3 82 81 80 
3 27 81 82 
3 84 85 86 
3 86 85 83 
3 90 89 87 
3 88 89 90 
3 50 68 93 
3 50 93 91 
3 91 93 94 
3 94 93 92 
3 99 98 97 
3 99 97 100 
3 100 97 95 
3 96 98 99 
3 179 180 105 
3 181 104 102 
3 105 180 182 
3 101 104 181 
