ply
format ascii 1.0
comment VCGLIB generated
comment TextureFile Dungeons_2_Texture_01_A.png
element vertex 412
property float x
property float y
property float z
property float nx
property float ny
property float nz
property uchar red
property uchar green
property uchar blue
property uchar alpha
property float texture_u
property float texture_v
element face 384
property list uchar int vertex_indices
end_header
455.0615 -463.9113 233.0703 0.1792146 0.7100669 0.6809458 192 192 192 255 0.176633 0.912011
44.93848 -550.9635 233.0703 -0.1177024 -0.9269646 0.3562061 192 192 192 255 0.132548 0.908206
455.0615 -550.9635 233.0703 0.2354039 -0.9214051 0.3091889 192 192 192 255 0.214356 0.869907
470.5352 -537.0275 265.2998 4.461591e-05 -8.834867e-05 1 192 192 192 255 0.04888 0.878806
532.2598 -537.0276 177.7783 0.8172047 -0.0009299022 0.5763469 192 192 192 255 0.231867 0.857365
17.66016 -1000 251.042 -1.218831e-05 -1.833361e-05 1 192 192 192 255 0.221449 0.878806
17.66016 -846.2811 251.042 -1.417186e-05 0.1589663 0.9872841 192 192 192 255 0.221449 0.913673
-64.66309 -846.2811 177.7783 -0.002395194 0.9999964 0.001216024 192 192 192 255 0.204831 0.913673
-64.66309 -1000 177.7783 -0.7643506 -0.625695 0.1558012 192 192 192 255 0.204831 0.878806
564.6631 -1000 177.7783 0.7643506 -0.625695 0.1558012 192 192 192 255 0.219644 0.788542
482.3398 -1000 251.042 1.437944e-05 -1.081475e-05 1 192 192 192 255 0.236262 0.807216
482.3398 -846.2811 251.042 1.955145e-05 0.2504669 0.9681252 192 192 192 255 0.045995 0.878806
44.93848 -372.3804 233.0703 -0.1181007 0.000859421 0.9930013 192 192 192 255 0.127352 0.641853
0.62793 -372.3804 177.7783 -0.7793233 -0.05026045 0.6246031 192 192 192 255 0.11481 0.651904
-64.66309 -670.0126 0 -0.8042796 0.5711321 0.1641415 192 192 192 255 0.140874 0.94186
-64.66309 -1000 0 -2.318167e-05 -2.318167e-05 -1 192 192 192 255 0.179318 0.931292
564.6631 -1000 0 6.357215e-05 -0.0001271443 -1 192 192 192 255 0.179318 0.788542
-40 -299.0902 196.1094 -0.9997299 0.0182352 -0.0144127 192 192 192 255 0.086929 0.663534
-40 -372.3804 177.7783 -1 -4.688778e-06 9.941939e-06 192 192 192 255 0.082771 0.879385
-40 -299.0902 0 -1 5.419787e-06 -3.735257e-05 192 192 192 255 0.042446 0.896009
0.62793 -846.2811 177.7783 -0.7624323 0.2129059 0.6110384 192 192 192 255 0.004558 0.884379
-40 -846.2811 177.7783 -0.9983912 0.05670294 4.038832e-05 192 192 192 255 0.004558 0.893595
44.93848 -846.2811 233.0703 -4.267207e-05 0.1377147 0.990472 192 192 192 255 0.004558 0.641853
564.6631 -846.2811 177.7783 0.002394252 0.9999959 0.001604901 192 192 192 255 0.126512 0.913604
455.0615 -846.2811 233.0703 4.92829e-06 0.01567984 0.9998771 192 192 192 255 0.004558 0.548826
-22.40039 -108.4 0 -1 -2.510632e-05 -0.0001153534 192 192 192 255 0.042446 0.706788
-22.40039 -262.6902 0 -1 3.108789e-05 -0.0001071271 192 192 192 255 0.042446 0.671791
540 -299.0902 0 0.9837593 0.1794921 -0.0005981447 192 192 192 255 0.176232 0.912661
499.3721 -846.2811 177.7783 0.7310057 0.3498082 0.5858881 192 192 192 255 0.100549 0.581446
564.6631 -670.0126 0 0.933334 0.3313877 -0.1380938 192 192 192 255 0.140874 0.799111
540 -846.2811 177.7783 0.9975249 0.07031438 3.974275e-05 192 192 192 255 0.100549 0.804705
522.4004 -108.4 0 0.9999992 -0.0001544407 -0.001241787 192 192 192 255 0.176232 0.723441
522.4004 -262.6902 0 0.9003174 0.4352338 -0.0004597948 192 192 192 255 0.176232 0.688443
-1.123047 0 0 0.2281051 0.6124215 -0.7569068 192 192 192 255 0.078568 0.928432
-40 -72 0 -0.6136161 -0.06848303 -0.7866292 192 192 192 255 0.042446 0.715045
9.650391 -22.79303 0 0.000217755 0.9999999 -0.0004817086 192 192 192 255 0.060368 0.98137
490.3496 -22.79303 0 -0.4562102 0.4679363 -0.7569068 192 192 192 255 0.166303 0.98137
540 -72 0 0.9999847 -0.0004794762 -0.005507495 192 192 192 255 0.176232 0.731697
501.123 0 0 -0.2762693 0.7417339 -0.6111514 192 192 192 255 0.056642 0.877012
-40 -750.5336 75.41992 -0.7818358 0 0.6234844 192 192 192 255 0.141319 0.878806
-53.99219 -750.5336 57.87402 -0.9438845 0 0.3302758 192 192 192 255 0.137339 0.878806
-53.99219 -670.0126 0 -0.7071068 0 -0.7071068 192 192 192 255 0.124212 0.89707
-40 -449.3577 75.41992 -0.7560023 0.2543872 0.6031151 192 192 192 255 0.141319 0.947121
-40 -366.1323 0 -0.7117688 0.5147009 -0.4779835 192 192 192 255 0.124212 0.965999
-53.99219 -449.3577 57.87402 -0.8893225 0.1777144 0.4213349 192 192 192 255 0.137339 0.947121
-53.99219 -385.4658 0 -0.9286075 0.2719006 -0.2525039 192 192 192 255 0.124212 0.961613
540 -750.5336 75.41992 0.7818367 1.545257e-07 0.6234834 192 192 192 255 0.144358 0.878806
553.9922 -750.5336 57.87402 0.9832224 0 0.1824111 192 192 192 255 0.148338 0.878806
553.9922 -670.0126 0 1 0 -4.42839e-05 192 192 192 255 0.161466 0.89707
540 -449.3577 75.41992 0.7818452 0.0001848572 0.6234727 192 192 192 255 0.144358 0.947121
540 -366.1323 0 0.7117688 0.5147009 -0.4779835 192 192 192 255 0.161466 0.965999
553.9922 -449.3577 57.87402 0.7822696 0.0005344515 0.6229399 192 192 192 255 0.148338 0.947121
553.9922 -385.4658 0 1 9.233173e-05 -8.574503e-05 192 192 192 255 0.161466 0.961613
-28.33789 0 0 -0.4759617 0.8125208 -0.3365566 192 192 192 255 0.072395 0.928432
-40 -11.66205 0 -0.9999995 0.0003308826 -0.000935875 192 192 192 255 0.042446 0.961206
540 -11.66205 0 0.812519 0.4759646 -0.3365569 192 192 192 255 0.176232 0.977858
528.3379 0 0 0.2596876 0.6269436 -0.7345094 192 192 192 255 0.04607 0.877012
-64.66309 -975.0048 155.4404 -0.9635462 0.2373939 -0.1233814 192 192 192 255 0.199764 0.884475
-64.66309 -880.9137 155.4404 -0.9470519 -0.07407568 -0.3124188 192 192 192 255 0.199764 0.905818
-64.66309 -975.0048 0 -0.0001044966 2.45284e-05 -1 192 192 192 255 0.164505 0.884475
-64.66309 -727.9422 0 -0.6701888 -0.2106476 -0.7116702 192 192 192 255 0.164505 0.940516
-48.86816 -956.4496 138.1182 -0.9079304 0.1816787 -0.3776974 192 192 192 255 0.195835 0.644658
-48.86816 -892.3143 138.1182 -0.9328375 -0.1766528 -0.3140191 192 192 192 255 0.195835 0.659205
-48.86816 -956.4496 0 -1.447995e-05 5.328427e-06 -1 192 192 192 255 0.164505 0.644658
-48.86816 -762.2109 0 -1.061737e-05 -2.419271e-06 -1 192 192 192 255 0.164505 0.688717
-22.40039 -187.8398 134.3037 -0.9161915 -0.3279452 0.230315 192 192 192 255 0.086468 0.676187
-40 -155.6169 110.3145 -0.9999995 -0.000934542 0.000263545 192 192 192 255 0.093777 0.681629
-22.40039 -187.8398 0 -0.6205761 -0.3389474 -0.7071068 192 192 192 255 0.086468 0.706651
-40 -155.6169 0 -0.9331096 -0.1554338 -0.3242636 192 192 192 255 0.093777 0.706651
564.6631 -975.0048 155.4404 0.9635462 0.2373939 -0.1233814 192 192 192 255 0.131579 0.884406
564.6631 -880.9137 155.4404 0.9470519 -0.0740757 -0.3124188 192 192 192 255 0.131579 0.905749
564.6631 -975.0048 0 9.932574e-05 2.331465e-05 -1 192 192 192 255 0.166837 0.884406
564.6631 -727.9423 -0 0.6701888 -0.2106477 -0.7116702 192 192 192 255 0.166837 0.940447
548.8682 -956.4496 138.1182 0.9079304 0.1816787 -0.3776974 192 192 192 255 0.135508 0.644589
548.8682 -892.3143 138.1182 0.9328376 -0.1766528 -0.314019 192 192 192 255 0.135508 0.659136
548.8682 -956.4496 0 2.278719e-05 8.38538e-06 -1 192 192 192 255 0.166837 0.644589
522.4004 -187.8398 0 0.7849736 -0.4287384 -0.4472136 192 192 192 255 0.11625 0.662914
540 -155.6169 0 0.9999998 -0.0001603936 -0.000669221 192 192 192 255 0.123559 0.662914
553.9922 -489.168 57.87305 0.874162 -0.03725111 0.4842035 192 192 192 255 0.148339 0.938091
553.9922 -641.7576 57.87402 0.973596 0.009465842 0.2280817 192 192 192 255 0.148338 0.903479
553.9922 -554.4237 37.44434 0.9977951 4.250296e-07 0.06636949 192 192 192 255 0.152973 0.923289
544.7637 -555.2074 69.44629 0.8676282 1.069471e-06 0.4972135 192 192 192 255 0.145713 0.923111
293.1152 -477.8472 265.2988 0.003331832 0.2419477 0.9702836 192 192 192 255 0.062304 0.91905
44.93848 -783.5499 233.0703 -0.03396684 0.007967055 0.9993912 192 192 192 255 0.018788 0.641853
44.93848 -584.7272 233.0703 -0.129439 -0.002836752 0.9915833 192 192 192 255 0.063886 0.641853
74.28418 -658.5385 233.0703 -0.05551353 0 0.998458 192 192 192 255 0.047144 0.635197
32.60645 -665.3708 217.6826 -0.7078641 6.052093e-07 0.7063487 192 192 192 255 0.045594 0.644651
309.3672 -851.3201 233.0703 -7.588549e-07 2.791354e-05 1 192 192 192 255 0.003415 0.581873
304.0693 -859.9868 251.042 7.294817e-08 2.118219e-05 1 192 192 192 255 0.042886 0.919242
540 -299.0902 51.15137 0.9742329 0.2253018 0.01046695 192 192 192 255 0.16463 0.912661
540 -313.327 112.2295 0.9775621 0.1751701 0.1169954 192 192 192 255 0.150775 0.909432
0.62793 -323.0905 237.5688 -0.4154974 -0.2399728 0.8773683 192 192 192 255 0.128372 0.651904
-40 -335.7953 222.1574 -0.4002597 0.1894827 0.8965983 192 192 192 255 0.124876 0.893595
-40 -286.6993 211.7371 -0.3795801 0.5070549 0.773831 192 192 192 255 0.090474 0.666345
-22.40039 -108.4 123.4022 -0.7010137 0.2389795 0.6719142 192 192 192 255 0.070437 0.706788
-40 -43.13064 104.6826 -0.655217 0.369349 0.6589932 192 192 192 255 0.066191 0.954068
-28.33789 0 64.217 -0.4258589 0.6350938 0.6444378 192 192 192 255 0.072395 0.913866
123.6725 -22.79303 83.57492 0.08261299 0.3473798 0.9340783 192 192 192 255 0.085263 0.858055
227.1102 -22.79303 48.20024 0.1015385 0.7879618 0.6072941 192 192 192 255 0.108726 0.866078
324.6113 -22.79303 31.65768 0.009587562 0.8431442 0.5376021 192 192 192 255 0.130842 0.869831
398.8214 -22.79303 74.93116 0.09352257 0.2968495 0.9503336 192 192 192 255 0.147675 0.860015
540 -11.66205 45.4026 -0.2159485 0.3688298 0.9040636 192 192 192 255 0.165934 0.977858
522.4004 -108.4 70.91198 0.6363574 0.1359083 0.7593275 192 192 192 255 0.160147 0.723441
522.4004 -187.8398 80.87622 0.5440197 0.03761482 0.8382289 192 192 192 255 0.157887 0.705423
522.4004 -262.6902 75.9136 0.5214583 0.3325011 0.7858272 192 192 192 255 0.159013 0.688443
-40 -72 113.9777 -0.2255678 0.2732601 0.9351193 192 192 192 255 0.068299 0.715045
-40 -132.619 126.6532 -0.6673747 0.2554123 0.6995538 192 192 192 255 0.10227 0.911068
-22.40039 -162.4506 152.6351 -0.9657629 0.1233651 0.2282175 192 192 192 255 0.077068 0.694528
540 -72 66.42329 0.3493816 0.1581748 0.923533 192 192 192 255 0.161165 0.731697
540 -155.6169 71.24902 0.9014537 0.1222148 0.4152647 192 192 192 255 0.123559 0.679075
540 -113.6981 45.44224 0.9613076 0.01587201 0.2750196 192 192 192 255 0.133628 0.907944
455.0615 -461.5248 233.0703 0.04350694 0.06647566 0.9968391 192 192 192 255 0.091832 0.548826
499.3721 -447.1401 177.7783 0.6779815 0.09941335 0.7283256 192 192 192 255 0.095095 0.538775
352.3649 -410.6611 233.0703 0.1253412 0.4696701 0.873899 192 192 192 255 0.10337 0.57212
373.1176 -477.8472 265.2993 0.1543866 0.7012445 0.6960036 192 192 192 255 0.062304 0.900903
470.5352 -516.9091 265.2998 0.329773 0.5588237 0.7608981 192 192 192 255 0.164611 0.915241
513.4062 -477.8472 204.5114 0.6088598 0.3990222 0.6856172 192 192 192 255 0.173472 0.901451
540 -359.1305 141.0461 0.6039772 0.3619143 0.7100913 192 192 192 255 0.144238 0.899031
50.37708 -60.79302 99.3449 0.1247261 0.4607484 0.8787231 192 192 192 255 0.300863 0.909052
252.5117 -263.4918 158.1799 0.09934855 0.3456106 0.9331041 192 192 192 255 0.374284 0.837797
395.9407 -223.0393 118.2934 0.2286824 0.3524958 0.907442 192 192 192 255 0.422001 0.857059
31.81299 -192.6883 154.1046 0.1595619 0.3497557 0.9231527 192 192 192 255 0.295872 0.858562
126.5912 -113.4339 111.9707 0.07069843 0.4211684 0.9042228 192 192 192 255 0.32839 0.890832
124.2115 -300.0838 185.7152 0.1384379 0.4390705 0.887723 192 192 192 255 0.329913 0.820893
108.7821 -260.9972 170.2496 0.1103847 0.4423968 0.8900002 192 192 192 255 0.32396 0.835237
40.53125 -297.369 204.5723 0.1796473 0.5566146 0.8111147 192 192 192 255 0.299822 0.817534
140.0205 -226.722 163.8471 -0.01053236 0.3515951 0.936093 192 192 192 255 0.333948 0.848179
431.592 -374.7907 186.77 0.3072393 0.4222041 0.8528468 192 192 192 255 0.43533 0.801336
434.9771 -424.1461 203.619 0.4127268 0.3718458 0.831497 192 192 192 255 0.436577 0.78469
493.5872 -401.6962 171.5148 0.2906166 0.2506513 0.9234262 192 192 192 255 0.455056 0.79726
403.7133 -427.9749 233.0703 0.04346382 0.06655014 0.996836 192 192 192 255 0.099442 0.560473
477.2168 -446.2144 205.4243 0.7485862 0.1564524 0.6443146 192 192 192 255 0.095305 0.5438
540 -464.5062 177.7783 0.9991 0.01046637 0.04110583 192 192 192 255 0.091156 0.762033
520.3586 -437.3354 177.7783 0.245956 0.2744493 0.9296146 192 192 192 255 0.097319 0.766489
531.1455 -280.7773 97.7168 0.5758129 0.5490966 0.6057494 192 192 192 255 0.154067 0.68434
540 -58.40628 64.20784 0.4911122 0.32506 0.8081738 192 192 192 255 0.161668 0.967255
517.1881 -18.50566 42.69848 -0.1740974 0.2827729 0.9432548 192 192 192 255 0.462724 0.932306
468.2382 -71.42811 70.71185 0.2180136 0.2814012 0.9344964 192 192 192 255 0.446342 0.911887
501.6154 -61.9804 57.12802 0.05809111 0.3862963 0.9205436 192 192 192 255 0.457381 0.916499
490.3496 -22.79303 37.01049 0.2133691 0.4246674 0.8798473 192 192 192 255 0.168436 0.868617
528.3379 0 37.60113 -0.08439572 0.3159021 0.9450309 192 192 192 255 0.04607 0.868483
501.123 0 38.0145 -0.1097117 0.1563521 0.9815892 192 192 192 255 0.056642 0.868389
-6.770752 -14.53242 63.30682 0.5824516 0.2850865 0.7612332 192 192 192 255 0.280718 0.928426
-32.41345 -21.88766 82.83276 -0.05250951 0.7015264 0.7107064 192 192 192 255 0.270756 0.923666
9.650391 -22.79303 53.80499 0.08265693 0.7837762 0.6155183 192 192 192 255 0.064468 0.827222
-1.123047 0 53.56625 0.5845221 0.2885661 0.7583295 192 192 192 255 0.078568 0.916282
303.3136 -332.9174 189.723 0.01336327 0.4674264 0.883931 192 192 192 255 0.392571 0.811984
209.9164 -419.985 233.0703 0.0290724 0.4489748 0.8930714 192 192 192 255 0.101255 0.604432
18.85767 -45.60424 89.43897 0.1474739 0.8080211 0.5703976 192 192 192 255 0.289584 0.915089
38.13794 -39.72824 78.40198 -0.03332068 0.7651155 0.6430303 192 192 192 255 0.296897 0.918446
-40 -11.66205 67.8559 -0.9635434 0.196486 0.1815968 192 192 192 255 0.057837 0.961206
-17.17493 -37.7721 91.42852 0.2291605 0.7964685 0.5595743 192 192 192 255 0.276221 0.917292
2.856689 -55.40992 103.181 0.09412535 0.368275 0.92494 192 192 192 255 0.283413 0.910102
-22.40039 -262.6902 181.4912 -0.9253153 0.2042114 0.3195143 192 192 192 255 0.083613 0.671791
-0.138428 -292.9368 209.402 0.1313278 0.6873697 0.714336 192 192 192 255 0.285223 0.817675
333.611 -115.053 93.37994 0.1598917 0.4478707 0.8796855 192 192 192 255 0.40044 0.894548
327.1533 -73.89123 70.19118 -0.05968656 0.5699843 0.8194849 192 192 192 255 0.398029 0.910353
279.4369 -80.65892 81.68578 0.1149953 0.5551351 0.8237725 192 192 192 255 0.38121 0.906815
258.1409 -132.3297 116.0269 0.1379559 0.4067487 0.9030635 192 192 192 255 0.374019 0.886257
183.5897 -66.07883 80.06687 0.1420736 0.4902065 0.8599493 192 192 192 255 0.348198 0.910513
446.1243 -297.2902 141.5879 0.3055347 0.4761609 0.8245723 192 192 192 255 0.439129 0.831623
468.6831 -260.0656 109.0257 0.3610275 0.5483462 0.7543047 192 192 192 255 0.44556 0.847986
398.826 -126.2018 95.05093 0.1356932 0.207516 0.9687747 192 192 192 255 0.423064 0.89102
456.1096 -189.6774 95.84349 0.2523775 0.1327839 0.9584748 192 192 192 255 0.441776 0.871095
362.7754 -81.09505 83.63042 -0.2413987 0.287643 0.9268162 192 192 192 255 0.410699 0.906731
361.7164 -22.79303 53.29442 -0.4455185 0.4665289 0.76411 192 192 192 255 0.139258 0.864923
467.1366 -239.2799 95.60814 0.3248459 0.1311191 0.9366338 192 192 192 255 0.444717 0.856109
371.9912 -313.9925 171.7755 0.1905844 0.479324 0.8566949 192 192 192 255 0.415261 0.821055
320.9572 -240.3182 140.2533 0.170863 0.4018147 0.8996393 192 192 192 255 0.3972 0.848093
175.3914 -22.79303 65.88758 0.3094231 0.2924794 0.9048277 192 192 192 255 0.096994 0.862067
124.8242 -64.26453 93.55557 0.142475 0.306746 0.9410674 192 192 192 255 0.32742 0.90917
13.86353 -145.3052 136.3481 0.09402312 0.3663517 0.9257138 192 192 192 255 0.288803 0.876187
86.64832 -46.34164 90.77663 -0.08922078 0.4171712 0.9044378 192 192 192 255 0.313745 0.915186
12.34753 -229.2575 168.3755 0.1582131 0.2510735 0.9549507 192 192 192 255 0.289625 0.844566
-22.40039 -192.2752 168.7656 0.2289265 0.2805896 0.9321278 192 192 192 255 0.080727 0.687763
1.156006 -174.7258 152.6912 0.2214418 0.4430872 0.8686986 192 192 192 255 0.284515 0.864187
66.66138 -22.79303 68.68996 -0.1958794 0.6313457 0.7503558 192 192 192 255 0.072331 0.861431
76.83057 -156.6766 135.2012 0.08626519 0.3852419 0.9187748 192 192 192 255 0.311299 0.873313
43.80371 -259.776 175.5443 0.07496099 0.4137415 0.9073031 192 192 192 255 0.301164 0.834053
85.20215 -350.3764 217.6178 0.1608192 0.3869926 0.9079504 192 192 192 255 0.316793 0.799863
127.4274 -396.1827 233.0703 0.133393 0.4364986 0.8897614 192 192 192 255 0.106654 0.623143
179.838 -270.5124 167.7408 0.1011103 0.2715659 0.9570939 192 192 192 255 0.349009 0.83349
147.176 -173.961 144.0957 0.03165029 0.4553494 0.8897501 192 192 192 255 0.335749 0.867961
199.0063 -222.3848 157.4732 0.1815955 0.2527489 0.9503374 192 192 192 255 0.354534 0.85119
24.59094 -313.8676 220.5328 0.2877149 0.3534212 0.89012 192 192 192 255 0.294153 0.80955
73.02222 -282.7228 187.5563 0.1238865 0.5747883 0.8088699 192 192 192 255 0.31144 0.825208
349.2662 -162.3067 108.3416 0.1639923 0.2959089 0.9410338 192 192 192 255 0.406047 0.877528
107.1494 -195.0571 151.5685 -0.01064981 0.3518512 0.9359955 192 192 192 255 0.322205 0.859386
44.93848 -463.9114 233.0703 -8.578281e-05 0.917896 0.396821 192 192 192 255 0.227332 0.886322
532.2598 -477.8472 177.7783 0.8172055 0.0004604099 0.5763462 192 192 192 255 0.207064 0.879012
-32.25977 -537.0275 177.7783 -0.7639393 -0.3474575 0.5437555 192 192 192 255 0.176691 0.915241
29.46485 -537.0275 265.2998 -3.898327e-05 -6.375213e-05 1 192 192 192 255 0.176691 0.895388
29.46484 -477.8472 265.2998 -0.0006808884 0.4034311 0.9150097 192 192 192 255 0.190114 0.895388
-32.25977 -477.8472 177.7783 -0.5829134 0.6949168 0.4210731 192 192 192 255 0.190114 0.915241
-40 -670.0126 0 -0.810374 3.83151e-06 -0.5859131 192 192 192 255 0.042446 0.811873
540 -670.0126 0 0.7854764 1.643589e-05 -0.6188916 192 192 192 255 0.177245 0.831948
65.85547 -477.8472 265.2998 0.0308994 0.4778889 0.8778767 192 192 192 255 0.062304 0.970599
148.7461 -495.2675 265.2998 0.03363458 0.05390995 0.9979792 192 192 192 255 0.058353 0.951797
499.3721 -550.9635 177.7783 0.3475561 -0.9014512 0.2580515 192 192 192 255 0.224407 0.857365
0.62793 -550.9635 177.7783 -0.3475574 -0.9014505 0.2580524 192 192 192 255 0.122497 0.895664
0.627931 -463.9113 177.7783 -0.3475548 0.9014521 0.2580502 192 192 192 255 0.217281 0.898864
499.3721 -463.9113 177.7783 0.3588765 0.8915355 0.276355 192 192 192 255 0.167242 0.943311
155.0547 -467.2809 240.8633 1.109812e-06 0.8479509 0.5300748 192 192 192 255 0.108732 0.950365
548.8682 -762.211 -0 5.334178e-06 -1.215445e-06 -1 192 192 192 255 0.166837 0.688648
455.0615 -463.9113 233.0703 0.1792146 0.7100669 0.6809458 192 192 192 255 0.065465 0.882315
470.5352 -516.9091 265.2998 0.329773 0.5588237 0.7608981 192 192 192 255 0.053444 0.878806
29.46485 -537.0275 265.2998 -3.898327e-05 -6.375213e-05 1 192 192 192 255 0.04888 0.978853
29.46484 -477.8472 265.2998 -0.0006808884 0.4034311 0.9150097 192 192 192 255 0.062304 0.978853
470.5352 -537.0275 265.2998 4.461591e-05 -8.834867e-05 1 192 192 192 255 0.217866 0.877218
29.46485 -537.0275 265.2998 -3.898327e-05 -6.375213e-05 1 192 192 192 255 0.129039 0.915516
-32.25977 -537.0275 177.7783 -0.7639393 -0.3474575 0.5437555 192 192 192 255 0.115038 0.895664
-32.25977 -477.8472 177.7783 -0.5829134 0.6949168 0.4210731 192 192 192 255 0.209821 0.898864
29.46484 -477.8472 265.2998 -0.0006808884 0.4034311 0.9150097 192 192 192 255 0.223822 0.879011
29.46484 -477.8472 265.2998 -0.0006808884 0.4034311 0.9150097 192 192 192 255 0.065523 0.978853
65.85547 -477.8472 265.2998 0.0308994 0.4778889 0.8778767 192 192 192 255 0.065523 0.970598
44.93848 -463.9114 233.0703 -8.578281e-05 0.917896 0.396821 192 192 192 255 0.072834 0.975343
455.0615 -463.9113 233.0703 0.1792146 0.7100669 0.6809458 192 192 192 255 0.072834 0.882316
148.7461 -495.2675 265.2998 0.03363458 0.05390995 0.9979792 192 192 192 255 0.065523 0.951796
293.1152 -477.8472 265.2988 0.003331832 0.2419477 0.9702836 192 192 192 255 0.065524 0.919049
44.93848 -550.9635 233.0703 -0.1177024 -0.9269646 0.3562061 192 192 192 255 0.076035 0.975343
455.0615 -550.9635 233.0703 0.2354039 -0.9214051 0.3091889 192 192 192 255 0.076035 0.882315
470.5352 -537.0275 265.2998 4.461591e-05 -8.834867e-05 1 192 192 192 255 0.083345 0.878805
29.46485 -537.0275 265.2998 -3.898327e-05 -6.375213e-05 1 192 192 192 255 0.083345 0.978853
17.66016 -1000 251.042 -1.218831e-05 -1.833361e-05 1 192 192 192 255 0.236262 0.912618
-64.66309 -1000 177.7783 -0.7643506 -0.625695 0.1558012 192 192 192 255 0.219644 0.931292
482.3398 -1000 251.042 1.437944e-05 -1.081475e-05 1 192 192 192 255 0.011127 0.878806
17.66016 -1000 251.042 -1.218831e-05 -1.833361e-05 1 192 192 192 255 0.011127 0.984208
17.66016 -846.2811 251.042 -1.417186e-05 0.1589663 0.9872841 192 192 192 255 0.045995 0.984208
-40 -299.0902 196.1094 -0.9997299 0.0182352 -0.0144127 192 192 192 255 0.086929 0.896009
0.62793 -372.3804 177.7783 -0.7793233 -0.05026045 0.6246031 192 192 192 255 0.112053 0.884379
-40 -372.3804 177.7783 -1 -4.688778e-06 9.941939e-06 192 192 192 255 0.112053 0.893595
0.62793 -372.3804 177.7783 -0.7793233 -0.05026045 0.6246031 192 192 192 255 0.112053 0.651904
0.62793 -846.2811 177.7783 -0.7624323 0.2129059 0.6110384 192 192 192 255 0.004558 0.651904
44.93848 -372.3804 233.0703 -0.1181007 0.000859421 0.9930013 192 192 192 255 0.112053 0.641853
482.3398 -1000 251.042 1.437944e-05 -1.081475e-05 1 192 192 192 255 0.109894 0.878736
564.6631 -1000 177.7783 0.7643506 -0.625695 0.1558012 192 192 192 255 0.126512 0.878736
482.3398 -846.2811 251.042 1.955145e-05 0.2504669 0.9681252 192 192 192 255 0.109894 0.913604
-40 -846.2811 177.7783 -0.9983912 0.05670294 4.038832e-05 192 192 192 255 0.082771 0.77189
0.62793 -372.3804 177.7783 -0.7793233 -0.05026045 0.6246031 192 192 192 255 0.11481 0.884379
0.62793 -323.0905 237.5688 -0.4154974 -0.2399728 0.8773683 192 192 192 255 0.128372 0.884379
-40 -372.3804 177.7783 -1 -4.688778e-06 9.941939e-06 192 192 192 255 0.11481 0.893595
-40 -335.7953 222.1574 -0.4002597 0.1894827 0.8965983 192 192 192 255 0.092837 0.887683
-40 -286.6993 211.7371 -0.3795801 0.5070549 0.773831 192 192 192 255 0.090474 0.89882
522.4004 -108.4 0 0.9999992 -0.0001544407 -0.001241787 192 192 192 255 0.173366 0.961606
-22.40039 -108.4 0 -1 -2.510632e-05 -0.0001153534 192 192 192 255 0.053304 0.961606
-40 -299.0902 0 -1 5.419787e-06 -3.735257e-05 192 192 192 255 0.042446 0.663534
540 -299.0902 0 0.9837593 0.1794921 -0.0005981447 192 192 192 255 0.177245 0.917582
-40 -670.0126 0 -0.810374 3.83151e-06 -0.5859131 192 192 192 255 0.049426 0.831948
-40 -299.0902 0 -1 5.419787e-06 -3.735257e-05 192 192 192 255 0.049426 0.917582
522.4004 -262.6902 0 0.9003174 0.4352338 -0.0004597948 192 192 192 255 0.173366 0.925986
-22.40039 -262.6902 0 -1 3.108789e-05 -0.0001071271 192 192 192 255 0.053304 0.925986
-40 -72 0 -0.6136161 -0.06848303 -0.7866292 192 192 192 255 0.042446 0.94752
-40 -72 113.9777 -0.2255678 0.2732601 0.9351193 192 192 192 255 0.068299 0.94752
540 -299.0902 51.15137 0.9742329 0.2253018 0.01046695 192 192 192 255 0.16463 0.680187
540 -299.0902 0 0.9837593 0.1794921 -0.0005981447 192 192 192 255 0.176232 0.680187
9.650391 -22.79303 0 0.000217755 0.9999999 -0.0004817086 192 192 192 255 0.064468 0.815018
-1.123047 0 0 0.2281051 0.6124215 -0.7569068 192 192 192 255 0.069638 0.815018
-1.123047 0 53.56625 0.5845221 0.2885661 0.7583295 192 192 192 255 0.069638 0.827168
522.4004 -187.8398 80.87622 0.5440197 0.03761482 0.8382289 192 192 192 255 0.157887 0.705422
490.3496 -22.79303 0 -0.4562102 0.4679363 -0.7569068 192 192 192 255 0.168436 0.877012
9.650391 -22.79303 0 0.000217755 0.9999999 -0.0004817086 192 192 192 255 0.0594 0.877012
9.650391 -22.79303 53.80499 0.08265693 0.7837762 0.6155183 192 192 192 255 0.0594 0.864807
490.3496 -22.79303 0 -0.4562102 0.4679363 -0.7569068 192 192 192 255 0.051472 0.877012
490.3496 -22.79303 37.01049 0.2133691 0.4246674 0.8798473 192 192 192 255 0.051472 0.868617
-40 -72 0 -0.6136161 -0.06848303 -0.7866292 192 192 192 255 0.049426 0.97001
-1.123047 0 0 0.2281051 0.6124215 -0.7569068 192 192 192 255 0.057993 0.986633
501.123 0 0 -0.2762693 0.7417339 -0.6111514 192 192 192 255 0.039897 0.877012
501.123 0 38.0145 -0.1097117 0.1563521 0.9815892 192 192 192 255 0.039897 0.868389
540 -72 66.42329 0.3493816 0.1581748 0.923533 192 192 192 255 0.161165 0.964172
540 -72 0 0.9999847 -0.0004794762 -0.005507495 192 192 192 255 0.176232 0.964172
501.123 0 0 -0.2762693 0.7417339 -0.6111514 192 192 192 255 0.168677 0.986633
540 -72 0 0.9999847 -0.0004794762 -0.005507495 192 192 192 255 0.177245 0.97001
482.3398 -846.2811 251.042 1.955145e-05 0.2504669 0.9681252 192 192 192 255 0.083931 0.817784
564.6631 -846.2811 177.7783 0.002394252 0.9999959 0.001604901 192 192 192 255 0.100549 0.799111
17.66016 -846.2811 251.042 -1.417186e-05 0.1589663 0.9872841 192 192 192 255 0.083931 0.923187
0.62793 -846.2811 177.7783 -0.7624323 0.2129059 0.6110384 192 192 192 255 0.100549 0.92705
-40 -846.2811 177.7783 -0.9983912 0.05670294 4.038832e-05 192 192 192 255 0.100549 0.936266
482.3398 -846.2811 251.042 1.955145e-05 0.2504669 0.9681252 192 192 192 255 0.083931 0.58531
455.0615 -846.2811 233.0703 4.92829e-06 0.01567984 0.9998771 192 192 192 255 0.088007 0.591497
499.3721 -846.2811 177.7783 0.7310057 0.3498082 0.5858881 192 192 192 255 0.100549 0.813921
-64.66309 -846.2811 177.7783 -0.002395194 0.9999964 0.001216024 192 192 192 255 0.100549 0.94186
309.3672 -851.3201 233.0703 -7.588549e-07 2.791354e-05 1 192 192 192 255 0.088007 0.624545
304.0693 -859.9868 251.042 7.294817e-08 2.118219e-05 1 192 192 192 255 0.083931 0.625746
17.66016 -846.2811 251.042 -1.417186e-05 0.1589663 0.9872841 192 192 192 255 0.083931 0.690712
44.93848 -846.2811 233.0703 -4.267207e-05 0.1377147 0.990472 192 192 192 255 0.088007 0.684525
0.62793 -846.2811 177.7783 -0.7624323 0.2129059 0.6110384 192 192 192 255 0.100549 0.694576
540 -670.0126 0 0.7854764 1.643589e-05 -0.6188916 192 192 192 255 0.140874 0.804705
-40 -670.0126 0 -0.810374 3.83151e-06 -0.5859131 192 192 192 255 0.140874 0.936266
-53.99219 -385.4658 0 -0.9286075 0.2719006 -0.2525039 192 192 192 255 0.046342 0.897641
-40 -366.1323 0 -0.7117688 0.5147009 -0.4779835 192 192 192 255 0.049426 0.902104
-53.99219 -670.0126 0 -0.7071068 0 -0.7071068 192 192 192 255 0.046342 0.831948
553.9922 -385.4658 0 1 9.233173e-05 -8.574503e-05 192 192 192 255 0.180328 0.897641
553.9922 -670.0126 0 1 0 -4.42839e-05 192 192 192 255 0.180328 0.831948
540 -366.1323 0 0.7117688 0.5147009 -0.4779835 192 192 192 255 0.177245 0.902104
-40 -11.66205 0 -0.9999995 0.0003308826 -0.000935875 192 192 192 255 0.049426 0.98394
-28.33789 0 0 -0.4759617 0.8125208 -0.3365566 192 192 192 255 0.051996 0.986633
528.3379 0 0 0.2596876 0.6269436 -0.7345094 192 192 192 255 0.174675 0.986633
540 -11.66205 0 0.812519 0.4759646 -0.3365569 192 192 192 255 0.177245 0.98394
-28.33789 0 64.217 -0.4258589 0.6350938 0.6444378 192 192 192 255 0.057012 0.963851
-28.33789 0 0 -0.4759617 0.8125208 -0.3365566 192 192 192 255 0.042446 0.963851
528.3379 0 37.60113 -0.08439572 0.3159021 0.9450309 192 192 192 255 0.167703 0.980504
528.3379 0 0 0.2596876 0.6269436 -0.7345094 192 192 192 255 0.176232 0.980504
513.4062 -477.8472 204.5114 0.6088598 0.3990222 0.6856172 192 192 192 255 0.207065 0.885076
532.2598 -537.0276 177.7783 0.8172047 -0.0009299022 0.5763469 192 192 192 255 0.19364 0.879012
470.5352 -516.9091 265.2998 0.329773 0.5588237 0.7608981 192 192 192 255 0.198204 0.898864
470.5352 -537.0275 265.2998 4.461591e-05 -8.834867e-05 1 192 192 192 255 0.19364 0.898864
373.1176 -477.8472 265.2993 0.1543866 0.7012445 0.6960036 192 192 192 255 0.09997 0.900903
293.1152 -477.8472 265.2988 0.003331832 0.2419477 0.9702836 192 192 192 255 0.09997 0.919049
470.5352 -537.0275 265.2998 4.461591e-05 -8.834867e-05 1 192 192 192 255 0.086546 0.878806
470.5352 -516.9091 265.2998 0.329773 0.5588237 0.7608981 192 192 192 255 0.091109 0.878806
455.0615 -463.9113 233.0703 0.1792146 0.7100669 0.6809458 192 192 192 255 0.157191 0.930769
513.4062 -477.8472 204.5114 0.6088598 0.3990222 0.6856172 192 192 192 255 0.170425 0.937247
532.2598 -477.8472 177.7783 0.8172055 0.0004604099 0.5763462 192 192 192 255 0.174702 0.943311
455.0615 -463.9113 233.0703 0.1792146 0.7100669 0.6809458 192 192 192 255 0.1105 0.882313
293.1152 -477.8472 265.2988 0.003331832 0.2419477 0.9702836 192 192 192 255 0.103189 0.919049
373.1176 -477.8472 265.2993 0.1543866 0.7012445 0.6960036 192 192 192 255 0.103189 0.900903
65.85547 -477.8472 265.2998 0.0308994 0.4778889 0.8778767 192 192 192 255 0.103189 0.970598
44.93848 -463.9114 233.0703 -8.578281e-05 0.917896 0.396821 192 192 192 255 0.1105 0.975343
-64.66309 -1000 0 -2.318167e-05 -2.318167e-05 -1 192 192 192 255 0.164505 0.878806
-64.66309 -670.0126 0 -0.8042796 0.5711321 0.1641415 192 192 192 255 0.164505 0.953656
-64.66309 -880.9137 155.4404 -0.9470519 -0.07407568 -0.3124188 192 192 192 255 0.199764 0.661791
-64.66309 -975.0048 155.4404 -0.9635462 0.2373939 -0.1233814 192 192 192 255 0.199764 0.640449
-64.66309 -975.0048 0 -0.0001044966 2.45284e-05 -1 192 192 192 255 0.164505 0.640449
-64.66309 -727.9422 0 -0.6701888 -0.2106476 -0.7116702 192 192 192 255 0.164505 0.69649
-64.66309 -727.9422 0 -0.6701888 -0.2106476 -0.7116702 192 192 192 255 0.043991 0.818573
-64.66309 -670.0126 0 -0.8042796 0.5711321 0.1641415 192 192 192 255 0.043991 0.831948
-48.86816 -762.2109 0 -1.061737e-05 -2.419271e-06 -1 192 192 192 255 0.047472 0.810662
564.6631 -1000 0 6.357215e-05 -0.0001271443 -1 192 192 192 255 0.166837 0.878736
564.6631 -670.0126 0 0.933334 0.3313877 -0.1380938 192 192 192 255 0.166837 0.953587
564.6631 -880.9137 155.4404 0.9470519 -0.0740757 -0.3124188 192 192 192 255 0.131579 0.661722
564.6631 -975.0048 155.4404 0.9635462 0.2373939 -0.1233814 192 192 192 255 0.131579 0.64038
564.6631 -975.0048 0 9.932574e-05 2.331465e-05 -1 192 192 192 255 0.166837 0.64038
564.6631 -727.9423 -0 0.6701888 -0.2106477 -0.7116702 192 192 192 255 0.166837 0.696421
564.6631 -1000 0 6.357215e-05 -0.0001271443 -1 192 192 192 255 0.18268 0.755764
-64.66309 -1000 0 -2.318167e-05 -2.318167e-05 -1 192 192 192 255 0.043991 0.755764
564.6631 -975.0048 0 9.932574e-05 2.331465e-05 -1 192 192 192 255 0.18268 0.761534
548.8682 -956.4496 0 2.278719e-05 8.38538e-06 -1 192 192 192 255 0.179199 0.765818
-64.66309 -975.0048 0 -0.0001044966 2.45284e-05 -1 192 192 192 255 0.043991 0.761534
-48.86816 -956.4496 0 -1.447995e-05 5.328427e-06 -1 192 192 192 255 0.047472 0.765818
548.8682 -762.211 -0 5.334178e-06 -1.215445e-06 -1 192 192 192 255 0.179199 0.810662
564.6631 -727.9423 -0 0.6701888 -0.2106477 -0.7116702 192 192 192 255 0.18268 0.818573
564.6631 -670.0126 0 0.933334 0.3313877 -0.1380938 192 192 192 255 0.18268 0.831948
522.4004 -187.8398 80.87622 0.5440197 0.03761482 0.8382289 192 192 192 255 0.11625 0.681259
540 -155.6169 71.24902 0.9014537 0.1222148 0.4152647 192 192 192 255 0.125853 0.910138
540 -155.6169 0 0.9999998 -0.0001603936 -0.000669221 192 192 192 255 0.123559 0.895388
540 -72 0 0.9999847 -0.0004794762 -0.005507495 192 192 192 255 0.142526 0.895388
540 -72 66.42329 0.3493816 0.1581748 0.923533 192 192 192 255 0.140522 0.910562
-22.40039 -187.8398 0 -0.6205761 -0.3389474 -0.7071068 192 192 192 255 0.053304 0.943266
-40 -155.6169 0 -0.9331096 -0.1554338 -0.3242636 192 192 192 255 0.049426 0.950705
540 -155.6169 0 0.9999998 -0.0001603936 -0.000669221 192 192 192 255 0.177245 0.950705
522.4004 -187.8398 0 0.7849734 -0.4287384 -0.4472136 192 192 192 255 0.173366 0.943266
148.7461 -495.2675 265.2998 0.03363458 0.05390995 0.9979792 192 192 192 255 0.103189 0.951796
531.1455 -280.7773 97.7168 0.5758129 0.5490966 0.6057494 192 192 192 255 0.154067 0.916815
-40 -72 113.9777 -0.2255678 0.2732601 0.9351193 192 192 192 255 0.110088 0.912477
-40 -72 0 -0.6136161 -0.06848303 -0.7866292 192 192 192 255 0.112744 0.939126
-40 -155.6169 0 -0.9331096 -0.1554338 -0.3242636 192 192 192 255 0.093777 0.939126
-40 -155.6169 110.3145 -0.9999995 -0.000934542 0.000263545 192 192 192 255 0.093777 0.914103
-22.40039 -162.4506 152.6351 -0.9657629 0.1233651 0.2282175 192 192 192 255 0.092227 0.672029
-40 -132.619 126.6532 -0.6673747 0.2554123 0.6995538 192 192 192 255 0.098994 0.677923
499.3721 -846.2811 177.7783 0.7310057 0.3498082 0.5858881 192 192 192 255 0.004558 0.538775
499.3721 -447.1401 177.7783 0.6779815 0.09941335 0.7283256 192 192 192 255 0.095095 0.771249
499.3721 -846.2811 177.7783 0.7310057 0.3498082 0.5858881 192 192 192 255 0.004558 0.771249
540 -846.2811 177.7783 0.9975249 0.07031438 3.974275e-05 192 192 192 255 0.004558 0.762034
540 -359.1305 141.0461 0.6039772 0.3619143 0.7100913 192 192 192 255 0.468953 0.81508
0.62793 -323.0905 237.5688 -0.4154974 -0.2399728 0.8773683 192 192 192 255 0.285408 0.803414
-40 -286.6993 211.7371 -0.3795801 0.5070549 0.773831 192 192 192 255 0.270885 0.81885
-40 -335.7953 222.1574 -0.4002597 0.1894827 0.8965983 192 192 192 255 0.271203 0.80395
477.2168 -446.2144 205.4243 0.7485862 0.1564524 0.6443146 192 192 192 255 0.450725 0.778676
499.3721 -447.1401 177.7783 0.6779815 0.09941335 0.7283256 192 192 192 255 0.456756 0.783852
540 -464.5062 177.7783 0.9991 0.01046637 0.04110583 192 192 192 255 0.135908 0.875133
540 -846.2811 177.7783 0.9975249 0.07031438 3.974275e-05 192 192 192 255 0.135907 0.788542
540 -670.0126 0 0.7854764 1.643589e-05 -0.6188916 192 192 192 255 0.176232 0.828525
540 -464.5062 177.7783 0.9991 0.01046637 0.04110583 192 192 192 255 0.467785 0.779115
520.3586 -437.3354 177.7783 0.245956 0.2744493 0.9296146 192 192 192 255 0.463019 0.78682
490.3496 -22.79303 37.01049 0.2133691 0.4246674 0.8798473 192 192 192 255 0.45327 0.931309
540 -72 66.42329 0.3493816 0.1581748 0.923533 192 192 192 255 0.470748 0.912389
540 -58.40628 64.20784 0.4911122 0.32506 0.8081738 192 192 192 255 0.470887 0.917055
398.8214 -22.79303 74.93116 0.09352257 0.2968495 0.9503336 192 192 192 255 0.42341 0.926829
501.123 0 38.0145 -0.1097117 0.1563521 0.9815892 192 192 192 255 0.457314 0.938826
-1.123047 0 53.56625 0.5845221 0.2885661 0.7583295 192 192 192 255 0.282762 0.934493
-28.33789 0 64.217 -0.4258589 0.6350938 0.6444378 192 192 192 255 0.272422 0.933181
9.650391 -22.79303 53.80499 0.08265693 0.7837762 0.6155183 192 192 192 255 0.287419 0.926752
-40 -11.66205 67.8559 -0.9635434 0.196486 0.1815968 192 192 192 255 0.269574 0.929698
-40 -43.13064 104.6826 -0.655217 0.369349 0.6589932 192 192 192 255 0.267424 0.913822
361.7164 -22.79303 53.29442 -0.4455185 0.4665289 0.76411 192 192 192 255 0.410166 0.928868
324.6113 -22.79303 31.65768 0.009587562 0.8431442 0.5376021 192 192 192 255 0.396922 0.930907
175.3914 -22.79303 65.88758 0.3094231 0.2924794 0.9048277 192 192 192 255 0.345061 0.926427
-22.40039 -192.2752 168.7656 0.2289265 0.2805896 0.9321278 192 192 192 255 0.275985 0.855828
-22.40039 -262.6902 181.4912 -0.9253153 0.2042114 0.3195143 192 192 192 255 0.278052 0.831617
-22.40039 -162.4506 152.6351 -0.9657629 0.1233651 0.2282175 192 192 192 255 0.275756 0.867854
66.66138 -22.79303 68.68996 -0.1958794 0.6313457 0.7503558 192 192 192 255 0.307005 0.925485
127.4274 -396.1827 233.0703 0.133393 0.4364986 0.8897614 192 192 192 255 0.332336 0.783963
209.9164 -419.985 233.0703 0.0290724 0.4489748 0.8930714 192 192 192 255 0.36155 0.77796
352.3649 -410.6611 233.0703 0.1253412 0.4696701 0.873899 192 192 192 255 0.41022 0.782167
403.7133 -427.9749 233.0703 0.04346382 0.06655014 0.996836 192 192 192 255 0.427457 0.777834
455.0615 -461.5248 233.0703 0.04350694 0.06647566 0.9968391 192 192 192 255 0.446433 0.772268
531.1455 -280.7773 97.7168 0.5758129 0.5490966 0.6057494 192 192 192 255 0.465683 0.84418
540 -313.327 112.2295 0.9775621 0.1751701 0.1169954 192 192 192 255 0.468378 0.832833
540 -11.66205 45.4026 -0.2159485 0.3688298 0.9040636 192 192 192 255 0.470713 0.934426
522.4004 -108.4 70.91198 0.6363574 0.1359083 0.7593275 192 192 192 255 0.464401 0.900076
528.3379 0 37.60113 -0.08439572 0.3159021 0.9450309 192 192 192 255 0.466532 0.939015
522.4004 -187.8398 80.87622 0.5440197 0.03761482 0.8382289 192 192 192 255 0.463583 0.874189
-40 -72 113.9777 -0.2255678 0.2732601 0.9351193 192 192 192 255 0.268064 0.902892
-22.40039 -108.4 123.4022 -0.7010137 0.2389795 0.6719142 192 192 192 255 0.275342 0.889648
227.1102 -22.79303 48.20024 0.1015385 0.7879618 0.6072941 192 192 192 255 0.36353 0.928635
522.4004 -262.6902 75.9136 0.5214583 0.3325011 0.7858272 192 192 192 255 0.462041 0.852516
123.6725 -22.79303 83.57492 0.08261299 0.3473798 0.9340783 192 192 192 255 0.326592 0.924218
44.93848 -372.3804 233.0703 -0.1181007 0.000859421 0.9930013 192 192 192 255 0.303122 0.789966
522.4004 -108.4 70.91198 0.6363574 0.1359083 0.7593275 192 192 192 255 0.132528 0.908844
522.4004 -187.8398 80.87622 0.5440197 0.03761482 0.8382289 192 192 192 255 0.127959 0.908986
-22.40039 -108.4 123.4022 -0.7010137 0.2389795 0.6719142 192 192 192 255 0.10583 0.911632
-22.40039 -162.4506 152.6351 -0.9657629 0.1233651 0.2282175 192 192 192 255 0.105225 0.911391
3 115 116 0 
3 190 191 192 
3 190 192 193 
3 204 114 205 
3 3 82 206 
3 82 197 206 
3 197 196 206 
3 196 207 206 
3 2 198 4 
3 2 4 208 
3 199 1 209 
3 199 209 210 
3 188 200 211 
3 188 211 212 
3 213 214 215 
3 216 217 214 
3 216 214 215 
3 217 216 218 
3 219 220 221 
3 219 221 222 
3 5 6 7 
3 5 7 8 
3 9 10 223 
3 9 223 224 
3 11 88 225 
3 225 88 226 
3 88 227 226 
3 12 91 13 
3 16 9 224 
3 16 224 15 
3 17 93 153 
3 18 228 19 
3 21 20 229 
3 21 229 230 
3 231 232 86 
3 83 86 232 
3 83 232 22 
3 86 84 231 
3 84 233 231 
3 234 235 23 
3 234 23 236 
3 233 84 24 
3 24 84 87 
3 84 85 87 
3 85 83 87 
3 22 87 83 
3 194 237 18 
3 25 26 153 
3 27 89 117 
3 89 90 117 
3 238 239 92 
3 238 92 240 
3 241 242 228 
3 241 228 18 
3 31 103 104 
3 31 104 32 
3 243 244 35 
3 243 35 36 
3 17 153 26 
3 17 26 245 
3 25 153 174 
3 25 174 107 
3 25 107 94 
3 246 195 247 
3 246 247 248 
3 25 94 105 
3 25 105 34 
3 249 246 248 
3 249 248 250 
3 251 252 95 
3 251 95 54 
3 95 150 54 
3 104 134 32 
3 134 253 32 
3 253 254 32 
3 96 145 33 
3 96 33 53 
3 255 256 257 
3 255 257 144 
3 31 102 258 
3 139 259 260 
3 139 260 99 
3 169 98 260 
3 169 260 97 
3 176 97 260 
3 176 260 261 
3 100 139 99 
3 100 99 165 
3 260 98 99 
3 243 249 250 
3 243 250 244 
3 262 263 141 
3 262 141 38 
3 31 37 108 
3 31 108 102 
3 264 265 35 
3 264 35 244 
3 266 267 140 
3 266 140 56 
3 135 268 269 
3 269 55 101 
3 269 101 135 
3 36 270 271 
3 36 271 243 
3 272 273 30 
3 274 275 276 
3 277 28 278 
3 272 30 279 
3 274 276 280 
3 277 278 281 
3 277 281 282 
3 283 284 285 
3 273 29 286 
3 273 286 30 
3 14 280 276 
3 14 276 287 
3 194 18 19 
3 40 44 45 
3 40 45 41 
3 42 43 45 
3 42 45 44 
3 40 39 42 
3 40 42 44 
3 288 289 247 
3 288 247 290 
3 47 48 79 
3 48 52 80 
3 78 80 52 
3 78 52 51 
3 48 80 79 
3 49 51 52 
3 49 52 50 
3 47 79 46 
3 51 49 78 
3 78 49 81 
3 49 46 81 
3 79 81 46 
3 291 292 195 
3 291 195 293 
3 294 295 265 
3 294 265 264 
3 296 297 271 
3 296 271 270 
3 150 298 299 
3 150 299 54 
3 300 101 55 
3 300 55 301 
3 189 302 303 
3 304 305 303 
3 304 303 302 
3 306 307 308 
3 306 308 309 
3 201 310 311 
3 201 311 312 
3 313 314 315 
3 316 202 317 
3 317 202 313 
3 313 202 314 
3 62 64 63 
3 62 63 61 
3 7 58 57 
3 7 57 8 
3 8 57 59 
3 8 59 318 
3 319 60 58 
3 319 58 7 
3 320 62 61 
3 320 61 321 
3 321 61 63 
3 321 63 322 
3 323 64 62 
3 323 62 320 
3 324 325 247 
3 324 247 326 
3 67 65 66 
3 67 66 68 
3 74 73 75 
3 74 75 203 
3 23 235 69 
3 23 69 70 
3 235 327 71 
3 235 71 69 
3 328 23 70 
3 328 70 72 
3 329 330 73 
3 329 73 74 
3 330 331 75 
3 330 75 73 
3 332 329 74 
3 332 74 203 
3 333 334 335 
3 335 334 336 
3 334 337 336 
3 337 338 336 
3 336 338 339 
3 338 326 339 
3 326 247 339 
3 247 195 339 
3 340 339 195 
3 340 195 341 
3 76 77 109 
3 76 109 342 
3 343 344 110 
3 110 344 345 
3 110 345 346 
3 347 348 264 
3 347 264 244 
3 349 350 243 
3 349 243 271 
3 78 81 80 
3 80 81 79 
3 351 202 316 
3 314 202 351 
3 86 85 84 
3 83 85 86 
3 282 281 284 
3 282 284 283 
3 89 352 90 
3 353 354 355 
3 353 355 356 
3 356 106 353 
3 65 357 358 
3 65 358 66 
3 233 24 147 
3 233 147 180 
3 113 147 24 
3 113 24 130 
3 24 111 130 
3 111 24 359 
3 111 359 131 
3 112 131 359 
3 360 361 362 
3 360 362 132 
3 133 360 132 
3 129 363 127 
3 129 127 128 
3 364 365 366 
3 367 368 128 
3 369 370 371 
3 117 369 371 
3 117 371 27 
3 372 363 373 
3 136 374 375 
3 136 375 376 
3 374 377 137 
3 378 374 136 
3 379 380 143 
3 379 143 142 
3 381 151 148 
3 382 383 143 
3 143 383 151 
3 151 383 152 
3 151 152 148 
3 154 125 185 
3 157 158 155 
3 159 122 158 
3 159 158 157 
3 161 120 160 
3 137 377 162 
3 384 385 156 
3 163 120 166 
3 166 120 161 
3 168 119 146 
3 168 146 167 
3 160 120 167 
3 170 122 159 
3 170 159 386 
3 172 118 171 
3 172 171 170 
3 387 388 173 
3 389 387 175 
3 390 381 149 
3 171 121 177 
3 173 388 178 
3 391 392 123 
3 158 122 182 
3 179 123 125 
3 179 125 184 
3 125 123 185 
3 158 119 168 
3 158 168 186 
3 162 377 164 
3 177 121 178 
3 177 178 187 
3 181 119 183 
3 127 393 128 
3 128 368 129 
3 128 393 394 
3 128 394 367 
3 394 395 367 
3 363 129 373 
3 129 368 373 
3 396 363 397 
3 376 398 136 
3 137 399 138 
3 138 374 137 
3 375 374 138 
3 138 399 375 
3 136 398 400 
3 400 378 136 
3 143 151 381 
3 143 381 142 
3 381 379 142 
3 137 401 399 
3 392 393 146 
3 146 119 392 
3 148 118 149 
3 149 381 148 
3 143 380 382 
3 152 118 148 
3 402 403 152 
3 152 383 402 
3 185 388 154 
3 388 365 154 
3 155 156 157 
3 156 385 157 
3 157 385 404 
3 404 159 157 
3 160 363 396 
3 396 161 160 
3 162 120 163 
3 163 401 137 
3 163 137 162 
3 156 155 164 
3 156 164 384 
3 164 377 384 
3 166 405 401 
3 401 163 166 
3 161 396 405 
3 405 166 161 
3 146 393 167 
3 167 120 168 
3 167 393 127 
3 127 363 160 
3 127 160 167 
3 159 404 386 
3 386 406 170 
3 171 122 170 
3 170 406 172 
3 173 121 387 
3 387 121 175 
3 149 118 172 
3 149 172 390 
3 172 406 390 
3 177 122 171 
3 171 118 152 
3 152 403 171 
3 175 121 171 
3 171 403 389 
3 171 389 175 
3 178 121 173 
3 123 179 391 
3 179 407 391 
3 392 119 181 
3 392 181 123 
3 181 124 123 
3 182 126 183 
3 182 183 158 
3 183 119 158 
3 184 125 154 
3 154 365 364 
3 154 364 184 
3 184 364 407 
3 407 179 184 
3 123 124 185 
3 185 124 178 
3 178 388 185 
3 168 120 186 
3 155 158 186 
3 164 155 186 
3 164 186 162 
3 186 120 162 
3 178 124 126 
3 178 126 187 
3 126 182 187 
3 182 122 177 
3 182 177 187 
3 126 124 181 
3 126 181 183 
3 343 408 409 
3 408 110 346 
3 343 110 408 
3 353 106 410 
3 410 106 411 
