ply
format ascii 1.0
comment VCGLIB generated
comment TextureFile Dungeons_2_Texture_01_A.png
element vertex 72
property float x
property float y
property float z
property float nx
property float ny
property float nz
property uchar red
property uchar green
property uchar blue
property uchar alpha
property float texture_u
property float texture_v
element face 24
property list uchar int vertex_indices
end_header
0 -5 1e-06 -0.755929 -0.654654 -0 255 255 255 255 0.409169 0.032806
-4.33013 0 2.5 -0.755929 -0.654654 -0 255 255 255 255 0.40884 0.032355
-4.33013 -0 -2.5 -0.755929 -0.654654 -0 255 255 255 255 0.408797 0.032458
0 -5 1e-06 -0.377965 -0.654654 0.654654 255 255 255 255 0.409169 0.032806
-1e-06 1e-06 5 -0.377965 -0.654654 0.654654 255 255 255 255 0.409193 0.032314
-4.33013 0 2.5 -0.377965 -0.654654 0.654654 255 255 255 255 0.40884 0.032355
0 -5 1e-06 0.377964 -0.654654 0.654654 255 255 255 255 0.409169 0.032806
4.33013 0 2.5 0.377964 -0.654654 0.654654 255 255 255 255 0.409528 0.032368
-1e-06 1e-06 5 0.377964 -0.654654 0.654654 255 255 255 255 0.409193 0.032314
0 -5 1e-06 0.755929 -0.654654 0 255 255 255 255 0.409169 0.032806
4.33013 -0 -2.5 0.755929 -0.654654 0 255 255 255 255 0.409524 0.032473
4.33013 0 2.5 0.755929 -0.654654 0 255 255 255 255 0.409528 0.032368
0 -5 1e-06 0.377964 -0.654654 -0.654654 255 255 255 255 0.409169 0.032806
0 -1e-06 -5 0.377964 -0.654654 -0.654654 255 255 255 255 0.409146 0.032521
4.33013 -0 -2.5 0.377964 -0.654654 -0.654654 255 255 255 255 0.409524 0.032473
0 -5 1e-06 -0.377964 -0.654654 -0.654654 255 255 255 255 0.409169 0.032806
-4.33013 -0 -2.5 -0.377964 -0.654654 -0.654654 255 255 255 255 0.408797 0.032458
0 -1e-06 -5 -0.377964 -0.654654 -0.654654 255 255 255 255 0.409146 0.032521
0 -1e-06 -5 1e-06 0.869775 -0.493448 255 255 255 255 0.409146 0.032521
-1.3307 1.52904 -2.30484 1e-06 0.869775 -0.493448 255 255 255 255 0.408794 0.032047
1.3307 1.52904 -2.30484 1e-06 0.869775 -0.493448 255 255 255 255 0.409148 0.032098
4.33013 -0 -2.5 0.427338 0.869775 -0.246724 255 255 255 255 0.409524 0.032473
1.3307 1.52904 -2.30484 0.427338 0.869775 -0.246724 255 255 255 255 0.409148 0.032098
2.6614 1.52904 2e-06 0.427338 0.869775 -0.246724 255 255 255 255 0.409532 0.032059
4.33013 0 2.5 0.427339 0.869775 0.246724 255 255 255 255 0.409528 0.032368
2.6614 1.52904 2e-06 0.427339 0.869775 0.246724 255 255 255 255 0.409532 0.032059
1.3307 1.52904 2.30484 0.427339 0.869775 0.246724 255 255 255 255 0.409535 0.031976
-1e-06 1e-06 5 -0 0.869775 0.493448 255 255 255 255 0.409193 0.032314
1.3307 1.52904 2.30484 -0 0.869775 0.493448 255 255 255 255 0.409535 0.031976
-1.3307 1.52904 2.30484 -0 0.869775 0.493448 255 255 255 255 0.409196 0.031933
-4.33013 0 2.5 -0.427338 0.869775 0.246724 255 255 255 255 0.40884 0.032355
-1.3307 1.52904 2.30484 -0.427338 0.869775 0.246724 255 255 255 255 0.409196 0.031933
-2.6614 1.52904 -2e-06 -0.427338 0.869775 0.246724 255 255 255 255 0.408837 0.031965
-4.33013 -0 -2.5 -0.427339 0.869775 -0.246724 255 255 255 255 0.408797 0.032458
-2.6614 1.52904 -2e-06 -0.427339 0.869775 -0.246724 255 255 255 255 0.408837 0.031965
-1.3307 1.52904 -2.30484 -0.427339 0.869775 -0.246724 255 255 255 255 0.408794 0.032047
-1.3307 1.52904 -2.30484 -0.327817 0.925589 -0.189265 255 255 255 255 0.408794 0.032047
-2.6614 1.52904 -2e-06 -0.327817 0.925589 -0.189265 255 255 255 255 0.408837 0.031965
0 2.47163 -0 -0.327817 0.925589 -0.189265 255 255 255 255 0.409174 0.032013
-2.6614 1.52904 -2e-06 -0.327817 0.925589 0.189266 255 255 255 255 0.408837 0.031965
-1.3307 1.52904 2.30484 -0.327817 0.925589 0.189266 255 255 255 255 0.409196 0.031933
0 2.47163 -0 -0.327817 0.925589 0.189266 255 255 255 255 0.409174 0.032013
-1.3307 1.52904 2.30484 -0 0.925589 0.378531 255 255 255 255 0.409196 0.031933
1.3307 1.52904 2.30484 -0 0.925589 0.378531 255 255 255 255 0.409535 0.031976
0 2.47163 -0 -0 0.925589 0.378531 255 255 255 255 0.409174 0.032013
1.3307 1.52904 2.30484 0.327817 0.925589 0.189265 255 255 255 255 0.409535 0.031976
2.6614 1.52904 2e-06 0.327817 0.925589 0.189265 255 255 255 255 0.409532 0.032059
0 2.47163 -0 0.327817 0.925589 0.189265 255 255 255 255 0.409174 0.032013
2.6614 1.52904 2e-06 0.327817 0.925589 -0.189266 255 255 255 255 0.409532 0.032059
1.3307 1.52904 -2.30484 0.327817 0.925589 -0.189266 255 255 255 255 0.409148 0.032098
0 2.47163 -0 0.327817 0.925589 -0.189266 255 255 255 255 0.409174 0.032013
1.3307 1.52904 -2.30484 0 0.925589 -0.378531 255 255 255 255 0.409148 0.032098
-1.3307 1.52904 -2.30484 0 0.925589 -0.378531 255 255 255 255 0.408794 0.032047
0 2.47163 -0 0 0.925589 -0.378531 255 255 255 255 0.409174 0.032013
4.33013 -0 -2.5 0.337787 0.737292 -0.585064 255 255 255 255 0.409524 0.032473
0 -1e-06 -5 0.337787 0.737292 -0.585064 255 255 255 255 0.409146 0.032521
1.3307 1.52904 -2.30484 0.337787 0.737292 -0.585064 255 255 255 255 0.409148 0.032098
0 -1e-06 -5 -0.337787 0.737291 -0.585065 255 255 255 255 0.409146 0.032521
-4.33013 -0 -2.5 -0.337787 0.737291 -0.585065 255 255 255 255 0.408797 0.032458
-1.3307 1.52904 -2.30484 -0.337787 0.737291 -0.585065 255 255 255 255 0.408794 0.032047
-4.33013 -0 -2.5 -0.675575 0.737292 -0 255 255 255 255 0.408797 0.032458
-4.33013 0 2.5 -0.675575 0.737292 -0 255 255 255 255 0.40884 0.032355
-2.6614 1.52904 -2e-06 -0.675575 0.737292 -0 255 255 255 255 0.408837 0.031965
-4.33013 0 2.5 -0.337787 0.737292 0.585064 255 255 255 255 0.40884 0.032355
-1e-06 1e-06 5 -0.337787 0.737292 0.585064 255 255 255 255 0.409193 0.032314
-1.3307 1.52904 2.30484 -0.337787 0.737292 0.585064 255 255 255 255 0.409196 0.031933
-1e-06 1e-06 5 0.337787 0.737292 0.585065 255 255 255 255 0.409193 0.032314
4.33013 0 2.5 0.337787 0.737292 0.585065 255 255 255 255 0.409528 0.032368
1.3307 1.52904 2.30484 0.337787 0.737292 0.585065 255 255 255 255 0.409535 0.031976
4.33013 0 2.5 0.675574 0.737292 -0 255 255 255 255 0.409528 0.032368
4.33013 -0 -2.5 0.675574 0.737292 -0 255 255 255 255 0.409524 0.032473
2.6614 1.52904 2e-06 0.675574 0.737292 -0 255 255 255 255 0.409532 0.032059
3 0 1 2 
3 3 4 5 
3 6 7 8 
3 9 10 11 
3 12 13 14 
3 15 16 17 
3 18 19 20 
3 21 22 23 
3 24 25 26 
3 27 28 29 
3 30 31 32 
3 33 34 35 
3 36 37 38 
3 39 40 41 
3 42 43 44 
3 45 46 47 
3 48 49 50 
3 51 52 53 
3 54 55 56 
3 57 58 59 
3 60 61 62 
3 63 64 65 
3 66 67 68 
3 69 70 71 
