ply
format ascii 1.0
comment VCGLIB generated
comment TextureFile Dungeons_2_Texture_01_A.png
element vertex 32
property float x
property float y
property float z
property float nx
property float ny
property float nz
property uchar red
property uchar green
property uchar blue
property uchar alpha
property float texture_u
property float texture_v
element face 14
property list uchar int vertex_indices
end_header
0 -5.17121 1e-06 -0 -0.695106 -0.718907 255 255 255 255 0.442377 0.031392
-5 -1e-06 -5 -0 -0.695106 -0.718907 255 255 255 255 0.442346 0.031813
5 -1e-06 -5 -0 -0.695106 -0.718907 255 255 255 255 0.442877 0.031352
5 1e-06 5 0 -0.695106 0.718907 255 255 255 255 0.442406 0.030854
-5 1e-06 5 0 -0.695106 0.718907 255 255 255 255 0.441877 0.031295
0 -5.17121 1e-06 0 -0.695106 0.718907 255 255 255 255 0.442377 0.031392
0 -5.17121 1e-06 -0.718907 -0.695106 0 255 255 255 255 0.442377 0.031392
-5 1e-06 5 -0.718907 -0.695106 0 255 255 255 255 0.441877 0.031295
-5 -1e-06 -5 -0.718907 -0.695106 0 255 255 255 255 0.442346 0.031813
0 -5.17121 1e-06 0.718907 -0.695106 0 255 255 255 255 0.442377 0.031392
5 -1e-06 -5 0.718907 -0.695106 0 255 255 255 255 0.442877 0.031352
5 1e-06 5 0.718907 -0.695106 0 255 255 255 255 0.442406 0.030854
-3.25 1.80992 -3.25 0 1 -0 255 255 255 255 0.442362 0.031531
3.25 1.80992 3.25 0 1 -0 255 255 255 255 0.442391 0.031051
3.25 1.80992 -3.25 0 1 -0 255 255 255 255 0.442627 0.0313
5 -1e-06 -5 0 0.695106 -0.718908 255 255 255 255 0.442877 0.031352
-3.25 1.80992 -3.25 0 0.695106 -0.718908 255 255 255 255 0.442362 0.031531
3.25 1.80992 -3.25 0 0.695106 -0.718908 255 255 255 255 0.442627 0.0313
-5 -1e-06 -5 -0.718907 0.695106 -0 255 255 255 255 0.442346 0.031813
-3.25 1.80992 3.25 -0.718907 0.695106 -0 255 255 255 255 0.442127 0.031272
-3.25 1.80992 -3.25 -0.718907 0.695106 -0 255 255 255 255 0.442362 0.031531
-3.25 1.80992 3.25 0 0.695106 0.718907 255 255 255 255 0.442127 0.031272
5 1e-06 5 0 0.695106 0.718907 255 255 255 255 0.442406 0.030854
3.25 1.80992 3.25 0 0.695106 0.718907 255 255 255 255 0.442391 0.031051
5 1e-06 5 0.718907 0.695106 -0 255 255 255 255 0.442406 0.030854
3.25 1.80992 -3.25 0.718907 0.695106 -0 255 255 255 255 0.442627 0.0313
3.25 1.80992 3.25 0.718907 0.695106 -0 255 255 255 255 0.442391 0.031051
-3.25 1.80992 3.25 0 1 -0 255 255 255 255 0.442127 0.031272
-5 -1e-06 -5 0 0.695106 -0.718908 255 255 255 255 0.442346 0.031813
-5 1e-06 5 -0.718907 0.695106 -0 255 255 255 255 0.441877 0.031295
-5 1e-06 5 0 0.695106 0.718907 255 255 255 255 0.441877 0.031295
5 -1e-06 -5 0.718907 0.695106 -0 255 255 255 255 0.442877 0.031352
3 0 1 2 
3 3 4 5 
3 6 7 8 
3 9 10 11 
3 12 13 14 
3 15 16 17 
3 18 19 20 
3 21 22 23 
3 24 25 26 
3 12 27 13 
3 15 28 16 
3 18 29 19 
3 21 30 22 
3 24 31 25 
