ply
format ascii 1.0
comment VCGLIB generated
comment TextureFile Dungeons_2_Texture_01_A.png
element vertex 70
property float x
property float y
property float z
property float nx
property float ny
property float nz
property uchar red
property uchar green
property uchar blue
property uchar alpha
property float texture_u
property float texture_v
element face 30
property list uchar int vertex_indices
end_header
-5 -0 -2.54778 -0.643195 0.359627 -0.675995 255 255 255 255 0.44219 0.03164
-3.25 1.80992 -3.25 -0.643195 0.359627 -0.675995 255 255 255 255 0.442361 0.031523
-2.42273 -1e-06 -5 -0.643195 0.359627 -0.675995 255 255 255 255 0.442523 0.031659
2.42273 -1e-06 -5 0.643195 0.359627 -0.675995 255 255 255 255 0.4427 0.031505
3.25 1.80992 -3.25 0.643195 0.359627 -0.675995 255 255 255 255 0.442626 0.031298
5 -0 -2.54778 0.643195 0.359627 -0.675995 255 255 255 255 0.44272 0.031186
-3.25 1.80992 -3.25 0 1 -0 255 255 255 255 0.442361 0.031523
3.25 1.80992 3.25 0 1 -0 255 255 255 255 0.442391 0.031053
3.25 1.80992 -3.25 0 1 -0 255 255 255 255 0.442626 0.031298
2.42273 -1e-06 -5 0 0.695106 -0.718908 255 255 255 255 0.4427 0.031505
-3.25 1.80992 -3.25 0 0.695106 -0.718908 255 255 255 255 0.442361 0.031523
3.25 1.80992 -3.25 0 0.695106 -0.718908 255 255 255 255 0.442626 0.031298
3.25 1.80992 3.25 0.643195 0.359627 0.675995 255 255 255 255 0.442391 0.031053
2.42273 1e-06 5 0.643195 0.359627 0.675995 255 255 255 255 0.44223 0.031001
5 0 2.54778 0.643195 0.359627 0.675995 255 255 255 255 0.442563 0.03102
-4 -1.03424 -4 0 -0.695106 -0.718907 255 255 255 255 0.442362 0.031603
2.42273 -1e-06 -5 0 -0.695106 -0.718907 255 255 255 255 0.4427 0.031505
4 -1.03424 -4 0 -0.695106 -0.718907 255 255 255 255 0.442627 0.031372
-2.42273 1e-06 5 -0.65046 0.330986 0.68363 255 255 255 255 0.442054 0.031148
-5 0 2.54778 -0.65046 0.330986 0.68363 255 255 255 255 0.442034 0.031467
-4 -1.03424 4 -0.65046 0.330986 0.68363 255 255 255 255 0.442127 0.031343
4 -1.03424 -4 0.718908 -0.695106 0 255 255 255 255 0.442627 0.031372
5 0 2.54778 0.718908 -0.695106 0 255 255 255 255 0.442563 0.03102
4 -1.03424 4 0.718908 -0.695106 0 255 255 255 255 0.442391 0.031123
5 0 2.54778 0.718907 0.695106 -0 255 255 255 255 0.442563 0.03102
3.25 1.80992 -3.25 0.718907 0.695106 -0 255 255 255 255 0.442626 0.031298
3.25 1.80992 3.25 0.718907 0.695106 -0 255 255 255 255 0.442391 0.031053
-5 -0 -2.54778 -0.718907 0.695106 -0 255 255 255 255 0.44219 0.03164
-3.25 1.80992 3.25 -0.718907 0.695106 -0 255 255 255 255 0.442131 0.031267
-3.25 1.80992 -3.25 -0.718907 0.695106 -0 255 255 255 255 0.442361 0.031523
-4 -1.03424 4 -0.718908 -0.695106 0 255 255 255 255 0.442127 0.031343
-5 -0 -2.54778 -0.718908 -0.695106 0 255 255 255 255 0.44219 0.03164
-4 -1.03424 -4 -0.718908 -0.695106 0 255 255 255 255 0.442362 0.031603
2.42273 1e-06 5 0 -0.695106 0.718908 255 255 255 255 0.44223 0.031001
-4 -1.03424 4 0 -0.695106 0.718908 255 255 255 255 0.442127 0.031343
4 -1.03424 4 0 -0.695106 0.718908 255 255 255 255 0.442391 0.031123
-3.25 1.80992 3.25 0 0.695106 0.718907 255 255 255 255 0.442131 0.031267
2.42273 1e-06 5 0 0.695106 0.718907 255 255 255 255 0.44223 0.031001
3.25 1.80992 3.25 0 0.695106 0.718907 255 255 255 255 0.442391 0.031053
-3.25 1.80992 3.25 -0.643195 0.359627 0.675995 255 255 255 255 0.442131 0.031267
-5 0 2.54778 -0.643195 0.359627 0.675995 255 255 255 255 0.442034 0.031467
-2.42273 1e-06 5 -0.643195 0.359627 0.675995 255 255 255 255 0.442054 0.031148
5 0 2.54778 0.65046 0.330986 0.68363 255 255 255 255 0.442563 0.03102
2.42273 1e-06 5 0.65046 0.330986 0.68363 255 255 255 255 0.44223 0.031001
4 -1.03424 4 0.65046 0.330986 0.68363 255 255 255 255 0.442391 0.031123
2.42273 -1e-06 -5 0.65046 0.330985 -0.68363 255 255 255 255 0.4427 0.031505
5 -0 -2.54778 0.65046 0.330985 -0.68363 255 255 255 255 0.44272 0.031186
4 -1.03424 -4 0.65046 0.330985 -0.68363 255 255 255 255 0.442627 0.031372
-5 -0 -2.54778 -0.65046 0.330985 -0.68363 255 255 255 255 0.44219 0.03164
-2.42273 -1e-06 -5 -0.65046 0.330985 -0.68363 255 255 255 255 0.442523 0.031659
-4 -1.03424 -4 -0.65046 0.330985 -0.68363 255 255 255 255 0.442362 0.031603
0 -5.17121 1e-06 -0 -0.695106 -0.718907 255 255 255 255 0.442377 0.031392
0 -5.17121 1e-06 -0.718907 -0.695106 0 255 255 255 255 0.442377 0.031392
-4 -1.03424 4 -0.718907 -0.695106 0 255 255 255 255 0.442127 0.031343
-4 -1.03424 -4 -0.718907 -0.695106 0 255 255 255 255 0.442362 0.031603
4 -1.03424 4 0 -0.695106 0.718907 255 255 255 255 0.442391 0.031123
-4 -1.03424 4 0 -0.695106 0.718907 255 255 255 255 0.442127 0.031343
0 -5.17121 1e-06 0 -0.695106 0.718907 255 255 255 255 0.442377 0.031392
0 -5.17121 1e-06 0.718907 -0.695106 0 255 255 255 255 0.442377 0.031392
4 -1.03424 -4 0.718907 -0.695106 0 255 255 255 255 0.442627 0.031372
4 -1.03424 4 0.718907 -0.695106 0 255 255 255 255 0.442391 0.031123
-3.25 1.80992 3.25 0 1 -0 255 255 255 255 0.442131 0.031267
-2.42273 -1e-06 -5 0 0.695106 -0.718908 255 255 255 255 0.442523 0.031659
-2.42273 -1e-06 -5 -0 -0.695106 -0.718907 255 255 255 255 0.442523 0.031659
5 -0 -2.54778 0.718908 -0.695106 0 255 255 255 255 0.44272 0.031186
5 -0 -2.54778 0.718907 0.695106 -0 255 255 255 255 0.44272 0.031186
-5 0 2.54778 -0.718907 0.695106 -0 255 255 255 255 0.442034 0.031467
-5 0 2.54778 -0.718908 -0.695106 0 255 255 255 255 0.442034 0.031467
-2.42273 1e-06 5 0 -0.695106 0.718908 255 255 255 255 0.442054 0.031148
-2.42273 1e-06 5 0 0.695106 0.718907 255 255 255 255 0.442054 0.031148
3 0 1 2 
3 3 4 5 
3 6 7 8 
3 9 10 11 
3 12 13 14 
3 15 16 17 
3 18 19 20 
3 21 22 23 
3 24 25 26 
3 27 28 29 
3 30 31 32 
3 33 34 35 
3 36 37 38 
3 39 40 41 
3 42 43 44 
3 45 46 47 
3 48 49 50 
3 51 15 17 
3 52 53 54 
3 55 56 57 
3 58 59 60 
3 6 61 7 
3 9 62 10 
3 15 63 16 
3 21 64 22 
3 24 65 25 
3 27 66 28 
3 30 67 31 
3 33 68 34 
3 36 69 37 
