ply
format ascii 1.0
comment VCGLIB generated
comment TextureFile Dungeons_2_Texture_01_A.png
element vertex 224
property float x
property float y
property float z
property float nx
property float ny
property float nz
property uchar red
property uchar green
property uchar blue
property uchar alpha
property float texture_u
property float texture_v
element face 78
property list uchar int vertex_indices
end_header
-3.27665 1e-06 3.27665 -0.406552 -0.672035 0.618938 255 255 255 255 0.475004 0.0309
-0.883883 -2.5 2.13388 -0.406552 -0.672035 0.618938 255 255 255 255 0.475164 0.031093
-1.76777 1e-06 4.26777 -0.406552 -0.672035 0.618938 255 255 255 255 0.475117 0.03086
0 1e-06 4.63388 0.15018 -0.672035 0.725131 255 255 255 255 0.475242 0.030851
0.883883 -2.5 2.13388 0.15018 -0.672035 0.725131 255 255 255 255 0.475286 0.031101
1.76777 1e-06 4.26777 0.15018 -0.672035 0.725131 255 255 255 255 0.475363 0.030877
3.27665 1e-06 3.27665 0.618938 -0.672035 0.406552 255 255 255 255 0.475465 0.030934
2.13388 -2.5 0.883883 0.618938 -0.672035 0.406552 255 255 255 255 0.47537 0.031171
4.26777 0 1.76777 0.618938 -0.672035 0.406552 255 255 255 255 0.47553 0.031016
4.63388 0 0 0.725131 -0.672035 -0.15018 255 255 255 255 0.475552 0.031113
2.13388 -2.5 -0.883883 0.725131 -0.672035 -0.15018 255 255 255 255 0.475364 0.031268
4.26777 -0 -1.76777 0.725131 -0.672035 -0.15018 255 255 255 255 0.475519 0.031211
3.27665 -1e-06 -3.27665 0.406552 -0.672035 -0.618938 255 255 255 255 0.475437 0.031294
0.883883 -2.5 -2.13388 0.406552 -0.672035 -0.618938 255 255 255 255 0.475262 0.031335
1.76777 -1e-06 -4.26777 0.406552 -0.672035 -0.618938 255 255 255 255 0.475314 0.031345
0 -1e-06 -4.63388 -0.150179 -0.672035 -0.725131 255 255 255 255 0.475173 0.031356
-0.883884 -2.5 -2.13388 -0.150179 -0.672035 -0.725131 255 255 255 255 0.475124 0.031324
-1.76777 -1e-06 -4.26777 -0.150179 -0.672035 -0.725131 255 255 255 255 0.475039 0.031323
-3.27665 -1e-06 -3.27665 -0.618938 -0.672035 -0.406552 255 255 255 255 0.474934 0.031254
-2.13388 -2.5 -0.883883 -0.618938 -0.672035 -0.406552 255 255 255 255 0.475043 0.031243
-4.26777 -0 -1.76777 -0.618938 -0.672035 -0.406552 255 255 255 255 0.474877 0.031161
-4.63388 0 0 -0.725131 -0.672035 0.15018 255 255 255 255 0.474872 0.031062
-2.13388 -2.5 0.883883 -0.725131 -0.672035 0.15018 255 255 255 255 0.475064 0.031148
-4.26777 0 1.76777 -0.725131 -0.672035 0.15018 255 255 255 255 0.474918 0.030971
1.72769 1.80992 -1.72769 -0 1 -0 255 255 255 255 0.475457 0.031028
0 1.80992 -2.44333 -0 1 -0 255 255 255 255 0.47517 0.031092
-2.44333 1.80992 -0 -0 1 -0 255 255 255 255 0.474844 0.030793
-0.883883 -2.5 2.13388 -0.15018 -0.672035 0.725131 255 255 255 255 0.475164 0.031093
0 1e-06 4.63388 -0.15018 -0.672035 0.725131 255 255 255 255 0.475242 0.030851
-1.76777 1e-06 4.26777 -0.15018 -0.672035 0.725131 255 255 255 255 0.475117 0.03086
-1.46812 0.904962 3.54436 -0.190284 0.867615 0.459386 255 255 255 255 0.475114 0.030725
0 1.80992 2.44333 -0.190284 0.867615 0.459386 255 255 255 255 0.475245 0.030581
-1.7277 1.80992 1.72769 -0.190284 0.867615 0.459386 255 255 255 255 0.474988 0.030631
0.883883 -2.5 2.13388 0.406552 -0.672035 0.618938 255 255 255 255 0.475286 0.031101
3.27665 1e-06 3.27665 0.406552 -0.672035 0.618938 255 255 255 255 0.475465 0.030934
1.76777 1e-06 4.26777 0.406552 -0.672035 0.618938 255 255 255 255 0.475363 0.030877
1.46812 0.904962 3.54436 0.190284 0.867615 0.459386 255 255 255 255 0.475369 0.030742
1.72769 1.80992 1.72769 0.190284 0.867615 0.459386 255 255 255 255 0.475484 0.030664
0 1.80992 2.44333 0.190284 0.867615 0.459386 255 255 255 255 0.475245 0.030581
2.13388 -2.5 0.883883 0.725131 -0.672035 0.15018 255 255 255 255 0.47537 0.031171
4.63388 0 0 0.725131 -0.672035 0.15018 255 255 255 255 0.475552 0.031113
4.26777 0 1.76777 0.725131 -0.672035 0.15018 255 255 255 255 0.47553 0.031016
3.54436 0.904961 1.46812 0.459387 0.867615 0.190284 255 255 255 255 0.475543 0.030882
2.44333 1.80992 -0 0.459387 0.867615 0.190284 255 255 255 255 0.47558 0.030845
1.72769 1.80992 1.72769 0.459387 0.867615 0.190284 255 255 255 255 0.475484 0.030664
2.13388 -2.5 -0.883883 0.618938 -0.672035 -0.406552 255 255 255 255 0.475364 0.031268
3.27665 -1e-06 -3.27665 0.618938 -0.672035 -0.406552 255 255 255 255 0.475437 0.031294
4.26777 -0 -1.76777 0.618938 -0.672035 -0.406552 255 255 255 255 0.475519 0.031211
3.54436 0.904961 -1.46812 0.459387 0.867615 -0.190284 255 255 255 255 0.475532 0.031077
1.72769 1.80992 -1.72769 0.459387 0.867615 -0.190284 255 255 255 255 0.475457 0.031028
2.44333 1.80992 -0 0.459387 0.867615 -0.190284 255 255 255 255 0.47558 0.030845
0.883883 -2.5 -2.13388 0.15018 -0.672035 -0.725131 255 255 255 255 0.475262 0.031335
0 -1e-06 -4.63388 0.15018 -0.672035 -0.725131 255 255 255 255 0.475173 0.031356
1.76777 -1e-06 -4.26777 0.15018 -0.672035 -0.725131 255 255 255 255 0.475314 0.031345
1.46812 0.90496 -3.54436 0.190284 0.867615 -0.459387 255 255 255 255 0.475319 0.031212
0 1.80992 -2.44333 0.190284 0.867615 -0.459387 255 255 255 255 0.47517 0.031092
1.72769 1.80992 -1.72769 0.190284 0.867615 -0.459387 255 255 255 255 0.475457 0.031028
-0.883884 -2.5 -2.13388 -0.406552 -0.672035 -0.618938 255 255 255 255 0.475124 0.031324
-3.27665 -1e-06 -3.27665 -0.406552 -0.672035 -0.618938 255 255 255 255 0.474934 0.031254
-1.76777 -1e-06 -4.26777 -0.406552 -0.672035 -0.618938 255 255 255 255 0.475039 0.031323
-1.46812 0.90496 -3.54436 -0.190284 0.867615 -0.459386 255 255 255 255 0.475031 0.03119
-1.7277 1.80992 -1.72769 -0.190284 0.867615 -0.459386 255 255 255 255 0.47491 0.030988
0 1.80992 -2.44333 -0.190284 0.867615 -0.459386 255 255 255 255 0.47517 0.031092
-2.13388 -2.5 -0.883883 -0.725131 -0.672035 -0.150179 255 255 255 255 0.475043 0.031243
-4.63388 0 0 -0.725131 -0.672035 -0.150179 255 255 255 255 0.474872 0.031062
-4.26777 -0 -1.76777 -0.725131 -0.672035 -0.150179 255 255 255 255 0.474877 0.031161
-3.54436 0.904961 -1.46812 -0.459386 0.867615 -0.190284 255 255 255 255 0.474863 0.031027
-2.44333 1.80992 -0 -0.459386 0.867615 -0.190284 255 255 255 255 0.474844 0.030793
-1.7277 1.80992 -1.72769 -0.459386 0.867615 -0.190284 255 255 255 255 0.47491 0.030988
-2.13388 -2.5 0.883883 -0.618938 -0.672035 0.406552 255 255 255 255 0.475064 0.031148
-3.27665 1e-06 3.27665 -0.618938 -0.672035 0.406552 255 255 255 255 0.475004 0.0309
-4.26777 0 1.76777 -0.618938 -0.672035 0.406552 255 255 255 255 0.474918 0.030971
-3.54436 0.904961 1.46812 -0.459386 0.867615 0.190284 255 255 255 255 0.474907 0.030837
-1.7277 1.80992 1.72769 -0.459386 0.867615 0.190284 255 255 255 255 0.474988 0.030631
-2.44333 1.80992 -0 -0.459386 0.867615 0.190284 255 255 255 255 0.474844 0.030793
-0.883884 -2.5 -2.13388 -0.498667 -0.708987 -0.498667 255 255 255 255 0.475124 0.031324
0 -4.62255 1e-06 -0.498667 -0.708987 -0.498667 255 255 255 255 0.47521 0.031326
-2.13388 -2.5 -0.883883 -0.498667 -0.708987 -0.498667 255 255 255 255 0.475043 0.031243
-2.13388 -2.5 -0.883883 -0.705222 -0.708987 0 255 255 255 255 0.475043 0.031243
0 -4.62255 1e-06 -0.705222 -0.708987 0 255 255 255 255 0.47521 0.031326
-2.13388 -2.5 0.883883 -0.705222 -0.708987 0 255 255 255 255 0.475064 0.031148
-2.13388 -2.5 0.883883 -0.498667 -0.708987 0.498667 255 255 255 255 0.475064 0.031148
0 -4.62255 1e-06 -0.498667 -0.708987 0.498667 255 255 255 255 0.47521 0.031326
-0.883883 -2.5 2.13388 -0.498667 -0.708987 0.498667 255 255 255 255 0.475164 0.031093
-0.883883 -2.5 2.13388 0 -0.708987 0.705222 255 255 255 255 0.475164 0.031093
0 -4.62255 1e-06 0 -0.708987 0.705222 255 255 255 255 0.47521 0.031326
0.883883 -2.5 2.13388 0 -0.708987 0.705222 255 255 255 255 0.475286 0.031101
0.883883 -2.5 2.13388 0.498667 -0.708987 0.498667 255 255 255 255 0.475286 0.031101
0 -4.62255 1e-06 0.498667 -0.708987 0.498667 255 255 255 255 0.47521 0.031326
2.13388 -2.5 0.883883 0.498667 -0.708987 0.498667 255 255 255 255 0.47537 0.031171
2.13388 -2.5 0.883883 0.705222 -0.708987 0 255 255 255 255 0.47537 0.031171
0 -4.62255 1e-06 0.705222 -0.708987 0 255 255 255 255 0.47521 0.031326
2.13388 -2.5 -0.883883 0.705222 -0.708987 0 255 255 255 255 0.475364 0.031268
2.13388 -2.5 -0.883883 0.498667 -0.708987 -0.498667 255 255 255 255 0.475364 0.031268
0 -4.62255 1e-06 0.498667 -0.708987 -0.498667 255 255 255 255 0.47521 0.031326
0.883883 -2.5 -2.13388 0.498667 -0.708987 -0.498667 255 255 255 255 0.475262 0.031335
0.883883 -2.5 -2.13388 0 -0.708987 -0.705222 255 255 255 255 0.475262 0.031335
0 -4.62255 1e-06 0 -0.708987 -0.705222 255 255 255 255 0.47521 0.031326
-0.883884 -2.5 -2.13388 0 -0.708987 -0.705222 255 255 255 255 0.475124 0.031324
1.46812 0.90496 -3.54436 0 0.769253 -0.638944 255 255 255 255 0.475319 0.031212
0 -1e-06 -4.63388 0 0.769253 -0.638944 255 255 255 255 0.475173 0.031356
-1.46812 0.90496 -3.54436 0 0.769253 -0.638944 255 255 255 255 0.475031 0.03119
-1.46812 0.90496 -3.54436 -0.451802 0.769253 -0.451802 255 255 255 255 0.475031 0.03119
-3.27665 -1e-06 -3.27665 -0.451802 0.769253 -0.451802 255 255 255 255 0.474934 0.031254
-3.54436 0.904961 -1.46812 -0.451802 0.769253 -0.451802 255 255 255 255 0.474863 0.031027
-3.54436 0.904961 -1.46812 -0.638944 0.769253 -0 255 255 255 255 0.474863 0.031027
-4.63388 0 0 -0.638944 0.769253 -0 255 255 255 255 0.474872 0.031062
-3.54436 0.904961 1.46812 -0.638944 0.769253 -0 255 255 255 255 0.474907 0.030837
-3.54436 0.904961 1.46812 -0.451802 0.769253 0.451802 255 255 255 255 0.474907 0.030837
-3.27665 1e-06 3.27665 -0.451802 0.769253 0.451802 255 255 255 255 0.475004 0.0309
-1.46812 0.904962 3.54436 -0.451802 0.769253 0.451802 255 255 255 255 0.475114 0.030725
-1.46812 0.904962 3.54436 0 0.769253 0.638944 255 255 255 255 0.475114 0.030725
0 1e-06 4.63388 0 0.769253 0.638944 255 255 255 255 0.475242 0.030851
1.46812 0.904962 3.54436 0 0.769253 0.638944 255 255 255 255 0.475369 0.030742
1.46812 0.904962 3.54436 0.451802 0.769253 0.451802 255 255 255 255 0.475369 0.030742
3.27665 1e-06 3.27665 0.451802 0.769253 0.451802 255 255 255 255 0.475465 0.030934
3.54436 0.904961 1.46812 0.451802 0.769253 0.451802 255 255 255 255 0.475543 0.030882
3.54436 0.904961 1.46812 0.638944 0.769253 -0 255 255 255 255 0.475543 0.030882
4.63388 0 0 0.638944 0.769253 -0 255 255 255 255 0.475552 0.031113
3.54436 0.904961 -1.46812 0.638944 0.769253 -0 255 255 255 255 0.475532 0.031077
3.54436 0.904961 -1.46812 0.451802 0.769253 -0.451802 255 255 255 255 0.475532 0.031077
3.27665 -1e-06 -3.27665 0.451802 0.769253 -0.451802 255 255 255 255 0.475437 0.031294
1.46812 0.90496 -3.54436 0.451802 0.769253 -0.451802 255 255 255 255 0.475319 0.031212
0 1.80992 -2.44333 0 0.772539 -0.634967 255 255 255 255 0.47517 0.031092
1.46812 0.90496 -3.54436 0 0.772539 -0.634967 255 255 255 255 0.475319 0.031212
-1.46812 0.90496 -3.54436 0 0.772539 -0.634967 255 255 255 255 0.475031 0.03119
-1.7277 1.80992 -1.72769 -0.44899 0.772539 -0.44899 255 255 255 255 0.47491 0.030988
-1.46812 0.90496 -3.54436 -0.44899 0.772539 -0.44899 255 255 255 255 0.475031 0.03119
-3.54436 0.904961 -1.46812 -0.44899 0.772539 -0.44899 255 255 255 255 0.474863 0.031027
-2.44333 1.80992 -0 -0.634967 0.772539 -0 255 255 255 255 0.474844 0.030793
-3.54436 0.904961 -1.46812 -0.634967 0.772539 -0 255 255 255 255 0.474863 0.031027
-3.54436 0.904961 1.46812 -0.634967 0.772539 -0 255 255 255 255 0.474907 0.030837
-1.7277 1.80992 1.72769 -0.44899 0.772539 0.44899 255 255 255 255 0.474988 0.030631
-3.54436 0.904961 1.46812 -0.44899 0.772539 0.44899 255 255 255 255 0.474907 0.030837
-1.46812 0.904962 3.54436 -0.44899 0.772539 0.44899 255 255 255 255 0.475114 0.030725
0 1.80992 2.44333 0 0.772539 0.634967 255 255 255 255 0.475245 0.030581
-1.46812 0.904962 3.54436 0 0.772539 0.634967 255 255 255 255 0.475114 0.030725
1.46812 0.904962 3.54436 0 0.772539 0.634967 255 255 255 255 0.475369 0.030742
1.72769 1.80992 1.72769 0.44899 0.772539 0.44899 255 255 255 255 0.475484 0.030664
1.46812 0.904962 3.54436 0.44899 0.772539 0.44899 255 255 255 255 0.475369 0.030742
3.54436 0.904961 1.46812 0.44899 0.772539 0.44899 255 255 255 255 0.475543 0.030882
2.44333 1.80992 -0 0.634968 0.772539 -0 255 255 255 255 0.47558 0.030845
3.54436 0.904961 1.46812 0.634968 0.772539 -0 255 255 255 255 0.475543 0.030882
3.54436 0.904961 -1.46812 0.634968 0.772539 -0 255 255 255 255 0.475532 0.031077
1.72769 1.80992 -1.72769 0.44899 0.772539 -0.44899 255 255 255 255 0.475457 0.031028
3.54436 0.904961 -1.46812 0.44899 0.772539 -0.44899 255 255 255 255 0.475532 0.031077
1.46812 0.90496 -3.54436 0.44899 0.772539 -0.44899 255 255 255 255 0.475319 0.031212
0 -1e-06 -4.63388 0.15453 0.647612 -0.746136 255 255 255 255 0.475173 0.031356
1.46812 0.90496 -3.54436 0.15453 0.647612 -0.746136 255 255 255 255 0.475319 0.031212
1.76777 -1e-06 -4.26777 0.15453 0.647612 -0.746136 255 255 255 255 0.475314 0.031345
-1.46812 0.90496 -3.54436 -0.15453 0.647612 -0.746137 255 255 255 255 0.475031 0.03119
0 -1e-06 -4.63388 -0.15453 0.647612 -0.746137 255 255 255 255 0.475173 0.031356
-1.76777 -1e-06 -4.26777 -0.15453 0.647612 -0.746137 255 255 255 255 0.475039 0.031323
-3.27665 -1e-06 -3.27665 -0.418329 0.647611 -0.636867 255 255 255 255 0.474934 0.031254
-1.46812 0.90496 -3.54436 -0.418329 0.647611 -0.636867 255 255 255 255 0.475031 0.03119
-1.76777 -1e-06 -4.26777 -0.418329 0.647611 -0.636867 255 255 255 255 0.475039 0.031323
-3.54436 0.904961 -1.46812 -0.636867 0.647612 -0.418329 255 255 255 255 0.474863 0.031027
-3.27665 -1e-06 -3.27665 -0.636867 0.647612 -0.418329 255 255 255 255 0.474934 0.031254
-4.26777 -0 -1.76777 -0.636867 0.647612 -0.418329 255 255 255 255 0.474877 0.031161
-4.63388 0 0 -0.746136 0.647612 -0.15453 255 255 255 255 0.474872 0.031062
-3.54436 0.904961 -1.46812 -0.746136 0.647612 -0.15453 255 255 255 255 0.474863 0.031027
-4.26777 -0 -1.76777 -0.746136 0.647612 -0.15453 255 255 255 255 0.474877 0.031161
-3.54436 0.904961 1.46812 -0.746136 0.647612 0.15453 255 255 255 255 0.474907 0.030837
-4.63388 0 0 -0.746136 0.647612 0.15453 255 255 255 255 0.474872 0.031062
-4.26777 0 1.76777 -0.746136 0.647612 0.15453 255 255 255 255 0.474918 0.030971
-3.27665 1e-06 3.27665 -0.636867 0.647612 0.418329 255 255 255 255 0.475004 0.0309
-3.54436 0.904961 1.46812 -0.636867 0.647612 0.418329 255 255 255 255 0.474907 0.030837
-4.26777 0 1.76777 -0.636867 0.647612 0.418329 255 255 255 255 0.474918 0.030971
-1.46812 0.904962 3.54436 -0.418329 0.647612 0.636867 255 255 255 255 0.475114 0.030725
-3.27665 1e-06 3.27665 -0.418329 0.647612 0.636867 255 255 255 255 0.475004 0.0309
-1.76777 1e-06 4.26777 -0.418329 0.647612 0.636867 255 255 255 255 0.475117 0.03086
0 1e-06 4.63388 -0.15453 0.647612 0.746136 255 255 255 255 0.475242 0.030851
-1.46812 0.904962 3.54436 -0.15453 0.647612 0.746136 255 255 255 255 0.475114 0.030725
-1.76777 1e-06 4.26777 -0.15453 0.647612 0.746136 255 255 255 255 0.475117 0.03086
1.46812 0.904962 3.54436 0.15453 0.647612 0.746136 255 255 255 255 0.475369 0.030742
0 1e-06 4.63388 0.15453 0.647612 0.746136 255 255 255 255 0.475242 0.030851
1.76777 1e-06 4.26777 0.15453 0.647612 0.746136 255 255 255 255 0.475363 0.030877
3.27665 1e-06 3.27665 0.418329 0.647612 0.636867 255 255 255 255 0.475465 0.030934
1.46812 0.904962 3.54436 0.418329 0.647612 0.636867 255 255 255 255 0.475369 0.030742
1.76777 1e-06 4.26777 0.418329 0.647612 0.636867 255 255 255 255 0.475363 0.030877
3.54436 0.904961 1.46812 0.636867 0.647612 0.418329 255 255 255 255 0.475543 0.030882
3.27665 1e-06 3.27665 0.636867 0.647612 0.418329 255 255 255 255 0.475465 0.030934
4.26777 0 1.76777 0.636867 0.647612 0.418329 255 255 255 255 0.47553 0.031016
4.63388 0 0 0.746136 0.647612 0.15453 255 255 255 255 0.475552 0.031113
3.54436 0.904961 1.46812 0.746136 0.647612 0.15453 255 255 255 255 0.475543 0.030882
4.26777 0 1.76777 0.746136 0.647612 0.15453 255 255 255 255 0.47553 0.031016
3.54436 0.904961 -1.46812 0.746136 0.647612 -0.15453 255 255 255 255 0.475532 0.031077
4.63388 0 0 0.746136 0.647612 -0.15453 255 255 255 255 0.475552 0.031113
4.26777 -0 -1.76777 0.746136 0.647612 -0.15453 255 255 255 255 0.475519 0.031211
3.27665 -1e-06 -3.27665 0.636867 0.647612 -0.418329 255 255 255 255 0.475437 0.031294
3.54436 0.904961 -1.46812 0.636867 0.647612 -0.418329 255 255 255 255 0.475532 0.031077
4.26777 -0 -1.76777 0.636867 0.647612 -0.418329 255 255 255 255 0.475519 0.031211
1.46812 0.90496 -3.54436 0.418329 0.647612 -0.636867 255 255 255 255 0.475319 0.031212
3.27665 -1e-06 -3.27665 0.418329 0.647612 -0.636867 255 255 255 255 0.475437 0.031294
1.76777 -1e-06 -4.26777 0.418329 0.647612 -0.636867 255 255 255 255 0.475314 0.031345
0 -1e-06 -4.63388 0 -0.707107 -0.707107 255 255 255 255 0.475173 0.031356
0.883883 -2.5 -2.13388 0 -0.707107 -0.707107 255 255 255 255 0.475262 0.031335
-0.883884 -2.5 -2.13388 0 -0.707107 -0.707107 255 255 255 255 0.475124 0.031324
-3.27665 -1e-06 -3.27665 -0.5 -0.707107 -0.5 255 255 255 255 0.474934 0.031254
-0.883884 -2.5 -2.13388 -0.5 -0.707107 -0.5 255 255 255 255 0.475124 0.031324
-2.13388 -2.5 -0.883883 -0.5 -0.707107 -0.5 255 255 255 255 0.475043 0.031243
-4.63388 0 0 -0.707107 -0.707107 0 255 255 255 255 0.474872 0.031062
-2.13388 -2.5 -0.883883 -0.707107 -0.707107 0 255 255 255 255 0.475043 0.031243
-2.13388 -2.5 0.883883 -0.707107 -0.707107 0 255 255 255 255 0.475064 0.031148
-3.27665 1e-06 3.27665 -0.5 -0.707107 0.5 255 255 255 255 0.475004 0.0309
-2.13388 -2.5 0.883883 -0.5 -0.707107 0.5 255 255 255 255 0.475064 0.031148
-0.883883 -2.5 2.13388 -0.5 -0.707107 0.5 255 255 255 255 0.475164 0.031093
0 1e-06 4.63388 0 -0.707107 0.707107 255 255 255 255 0.475242 0.030851
-0.883883 -2.5 2.13388 0 -0.707107 0.707107 255 255 255 255 0.475164 0.031093
0.883883 -2.5 2.13388 0 -0.707107 0.707107 255 255 255 255 0.475286 0.031101
3.27665 1e-06 3.27665 0.5 -0.707107 0.5 255 255 255 255 0.475465 0.030934
0.883883 -2.5 2.13388 0.5 -0.707107 0.5 255 255 255 255 0.475286 0.031101
2.13388 -2.5 0.883883 0.5 -0.707107 0.5 255 255 255 255 0.47537 0.031171
4.63388 0 0 0.707107 -0.707107 0 255 255 255 255 0.475552 0.031113
2.13388 -2.5 0.883883 0.707107 -0.707107 0 255 255 255 255 0.47537 0.031171
2.13388 -2.5 -0.883883 0.707107 -0.707107 0 255 255 255 255 0.475364 0.031268
3.27665 -1e-06 -3.27665 0.5 -0.707107 -0.5 255 255 255 255 0.475437 0.031294
2.13388 -2.5 -0.883883 0.5 -0.707107 -0.5 255 255 255 255 0.475364 0.031268
0.883883 -2.5 -2.13388 0.5 -0.707107 -0.5 255 255 255 255 0.475262 0.031335
-1.7277 1.80992 1.72769 -0 1 -0 255 255 255 255 0.474988 0.030631
0 1.80992 2.44333 -0 1 -0 255 255 255 255 0.475245 0.030581
1.72769 1.80992 1.72769 0 1 -0 255 255 255 255 0.475484 0.030664
2.44333 1.80992 -0 0 1 -0 255 255 255 255 0.47558 0.030845
-1.7277 1.80992 -1.72769 0 1 -0 255 255 255 255 0.47491 0.030988
3 0 1 2 
3 3 4 5 
3 6 7 8 
3 9 10 11 
3 12 13 14 
3 15 16 17 
3 18 19 20 
3 21 22 23 
3 24 25 26 
3 27 28 29 
3 30 31 32 
3 33 34 35 
3 36 37 38 
3 39 40 41 
3 42 43 44 
3 45 46 47 
3 48 49 50 
3 51 52 53 
3 54 55 56 
3 57 58 59 
3 60 61 62 
3 63 64 65 
3 66 67 68 
3 69 70 71 
3 72 73 74 
3 75 76 77 
3 78 79 80 
3 81 82 83 
3 84 85 86 
3 87 88 89 
3 90 91 92 
3 93 94 95 
3 96 97 98 
3 99 100 101 
3 102 103 104 
3 105 106 107 
3 108 109 110 
3 111 112 113 
3 114 115 116 
3 117 118 119 
3 120 121 122 
3 123 124 125 
3 126 127 128 
3 129 130 131 
3 132 133 134 
3 135 136 137 
3 138 139 140 
3 141 142 143 
3 144 145 146 
3 147 148 149 
3 150 151 152 
3 153 154 155 
3 156 157 158 
3 159 160 161 
3 162 163 164 
3 165 166 167 
3 168 169 170 
3 171 172 173 
3 174 175 176 
3 177 178 179 
3 180 181 182 
3 183 184 185 
3 186 187 188 
3 189 190 191 
3 192 193 194 
3 195 196 197 
3 198 199 200 
3 201 202 203 
3 204 205 206 
3 207 208 209 
3 210 211 212 
3 213 214 215 
3 216 217 218 
3 26 219 220 
3 220 221 26 
3 222 24 26 
3 25 223 26 
3 26 221 222 
