ply
format ascii 1.0
comment VCGLIB generated
comment TextureFile Dungeons_2_Texture_01_A.png
element vertex 94
property float x
property float y
property float z
property float nx
property float ny
property float nz
property uchar red
property uchar green
property uchar blue
property uchar alpha
property float texture_u
property float texture_v
element face 44
property list uchar int vertex_indices
end_header
-1.56258 1.80992 5.78864 0 1 -0 255 255 255 255 0.426049 0.030201
3.12485 1.80992 4.22637 0 1 -0 255 255 255 255 0.426401 0.030255
-3.12485 1.80992 4.22637 0 1 -0 255 255 255 255 0.425897 0.030223
3.12485 1.80992 -4.22638 0.694481 0.719511 -0 255 255 255 255 0.426357 0.030322
5 1e-06 5.16404 0.694481 0.719511 -0 255 255 255 255 0.426608 0.030403
5 -1e-06 -5.16404 0.694481 0.719511 -0 255 255 255 255 0.426546 0.030534
2.50025 1e-06 7.66379 0.475906 0.739612 0.475906 255 255 255 255 0.426419 0.030329
3.12485 1.80992 4.22637 0.475906 0.739612 0.475906 255 255 255 255 0.426401 0.030255
1.56258 1.80992 5.78864 0.475906 0.739612 0.475906 255 255 255 255 0.426296 0.030216
2.50025 1e-06 7.66379 0 0.71951 0.694482 255 255 255 255 0.426419 0.030329
-1.56258 1.80992 5.78864 0 0.71951 0.694482 255 255 255 255 0.426049 0.030201
-2.50025 1e-06 7.66379 0 0.71951 0.694482 255 255 255 255 0.425998 0.030301
-2.50025 1e-06 7.66379 -0.475907 0.739612 0.475906 255 255 255 255 0.425998 0.030301
-3.12485 1.80992 4.22637 -0.475907 0.739612 0.475906 255 255 255 255 0.425897 0.030223
-5 1e-06 5.16404 -0.475907 0.739612 0.475906 255 255 255 255 0.425736 0.030342
-3.12485 1.80992 -4.22638 -0.694481 0.719511 -0 255 255 255 255 0.425832 0.030286
-5 1e-06 5.16404 -0.694481 0.719511 -0 255 255 255 255 0.425736 0.030342
-3.12485 1.80992 4.22637 -0.694481 0.719511 -0 255 255 255 255 0.425897 0.030223
-2.50025 -1e-06 -7.66379 -0.475907 0.739612 -0.475907 255 255 255 255 0.425772 0.03055
-3.12485 1.80992 -4.22638 -0.475907 0.739612 -0.475907 255 255 255 255 0.425832 0.030286
-1.56258 1.80992 -5.78864 -0.475907 0.739612 -0.475907 255 255 255 255 0.425929 0.030329
2.50025 -1e-06 -7.66379 0 0.71951 -0.694482 255 255 255 255 0.426259 0.030588
-1.56258 1.80992 -5.78864 0 0.71951 -0.694482 255 255 255 255 0.425929 0.030329
1.56258 1.80992 -5.78864 0 0.71951 -0.694482 255 255 255 255 0.426197 0.030348
2.50025 -1e-06 -7.66379 0.475907 0.739612 -0.475907 255 255 255 255 0.426259 0.030588
3.12485 1.80992 -4.22638 0.475907 0.739612 -0.475907 255 255 255 255 0.426357 0.030322
5 -1e-06 -5.16404 0.475907 0.739612 -0.475907 255 255 255 255 0.426546 0.030534
3.12485 1.80992 -4.22638 0 1 -0 255 255 255 255 0.426357 0.030322
-1.56258 1.80992 -5.78864 0 1 -0 255 255 255 255 0.425929 0.030329
-3.12485 1.80992 -4.22638 0 1 -0 255 255 255 255 0.425832 0.030286
3.12485 -1.80992 4.22638 0 -1 0 255 255 255 255 0.426401 0.030255
-1.56258 -1.80992 5.78864 0 -1 0 255 255 255 255 0.426049 0.030201
-3.12485 -1.80992 4.22638 0 -1 0 255 255 255 255 0.425897 0.030223
5 1e-06 5.16404 0.694481 -0.719511 0 255 255 255 255 0.426608 0.030403
3.12485 -1.80992 -4.22637 0.694481 -0.719511 0 255 255 255 255 0.426357 0.030322
5 -1e-06 -5.16404 0.694481 -0.719511 0 255 255 255 255 0.426546 0.030534
2.50025 1e-06 7.66379 0.475907 -0.739612 0.475907 255 255 255 255 0.426419 0.030329
3.12485 -1.80992 4.22638 0.475907 -0.739612 0.475907 255 255 255 255 0.426401 0.030255
5 1e-06 5.16404 0.475907 -0.739612 0.475907 255 255 255 255 0.426608 0.030403
-1.56258 -1.80992 5.78864 0 -0.71951 0.694482 255 255 255 255 0.426049 0.030201
2.50025 1e-06 7.66379 0 -0.71951 0.694482 255 255 255 255 0.426419 0.030329
-2.50025 1e-06 7.66379 0 -0.71951 0.694482 255 255 255 255 0.425998 0.030301
-3.12485 -1.80992 4.22638 -0.475907 -0.739612 0.475907 255 255 255 255 0.425897 0.030223
-2.50025 1e-06 7.66379 -0.475907 -0.739612 0.475907 255 255 255 255 0.425998 0.030301
-5 1e-06 5.16404 -0.475907 -0.739612 0.475907 255 255 255 255 0.425736 0.030342
-5 1e-06 5.16404 -0.694481 -0.719511 0 255 255 255 255 0.425736 0.030342
-3.12485 -1.80992 -4.22637 -0.694481 -0.719511 0 255 255 255 255 0.425832 0.030286
-3.12485 -1.80992 4.22638 -0.694481 -0.719511 0 255 255 255 255 0.425897 0.030223
-2.50025 -1e-06 -7.66379 -0.475907 -0.739612 -0.475906 255 255 255 255 0.425772 0.03055
-3.12485 -1.80992 -4.22637 -0.475907 -0.739612 -0.475906 255 255 255 255 0.425832 0.030286
-5 -1e-06 -5.16404 -0.475907 -0.739612 -0.475906 255 255 255 255 0.425608 0.030463
-1.56258 -1.80992 -5.78864 0 -0.71951 -0.694482 255 255 255 255 0.425929 0.030329
2.50025 -1e-06 -7.66379 0 -0.71951 -0.694482 255 255 255 255 0.426259 0.030588
1.56258 -1.80992 -5.78864 0 -0.71951 -0.694482 255 255 255 255 0.426197 0.030348
3.12485 -1.80992 -4.22637 0.475907 -0.739612 -0.475906 255 255 255 255 0.426357 0.030322
2.50025 -1e-06 -7.66379 0.475907 -0.739612 -0.475906 255 255 255 255 0.426259 0.030588
5 -1e-06 -5.16404 0.475907 -0.739612 -0.475906 255 255 255 255 0.426546 0.030534
-1.56258 -1.80992 -5.78864 0 -1 0 255 255 255 255 0.425929 0.030329
3.12485 -1.80992 -4.22637 0 -1 0 255 255 255 255 0.426357 0.030322
-3.12485 -1.80992 -4.22637 0 -1 0 255 255 255 255 0.425832 0.030286
1.56258 1.80992 5.78864 0 1 -0 255 255 255 255 0.426296 0.030216
3.12485 1.80992 4.22637 0.694481 0.719511 -0 255 255 255 255 0.426401 0.030255
2.50025 1e-06 7.66379 0.475907 0.739612 0.475906 255 255 255 255 0.426419 0.030329
5 1e-06 5.16404 0.475907 0.739612 0.475906 255 255 255 255 0.426608 0.030403
3.12485 1.80992 4.22637 0.475907 0.739612 0.475906 255 255 255 255 0.426401 0.030255
1.56258 1.80992 5.78864 -0 0.71951 0.694482 255 255 255 255 0.426296 0.030216
-2.50025 1e-06 7.66379 -0.475906 0.739612 0.475906 255 255 255 255 0.425998 0.030301
-1.56258 1.80992 5.78864 -0.475906 0.739612 0.475906 255 255 255 255 0.426049 0.030201
-3.12485 1.80992 4.22637 -0.475906 0.739612 0.475906 255 255 255 255 0.425897 0.030223
-5 -1e-06 -5.16404 -0.694481 0.719511 -0 255 255 255 255 0.425608 0.030463
-5 -1e-06 -5.16404 -0.475907 0.739612 -0.475907 255 255 255 255 0.425608 0.030463
-2.50025 -1e-06 -7.66379 0 0.71951 -0.694482 255 255 255 255 0.425772 0.03055
2.50025 -1e-06 -7.66379 0.475906 0.739612 -0.475907 255 255 255 255 0.426259 0.030588
1.56258 1.80992 -5.78864 0.475906 0.739612 -0.475907 255 255 255 255 0.426197 0.030348
3.12485 1.80992 -4.22638 0.475906 0.739612 -0.475907 255 255 255 255 0.426357 0.030322
1.56258 1.80992 -5.78864 0 1 -0 255 255 255 255 0.426197 0.030348
1.56258 -1.80992 5.78864 0 -1 0 255 255 255 255 0.426296 0.030216
3.12485 -1.80992 4.22638 0.694481 -0.719511 0 255 255 255 255 0.426401 0.030255
2.50025 1e-06 7.66379 0.475906 -0.739612 0.475907 255 255 255 255 0.426419 0.030329
1.56258 -1.80992 5.78864 0.475906 -0.739612 0.475907 255 255 255 255 0.426296 0.030216
3.12485 -1.80992 4.22638 0.475906 -0.739612 0.475907 255 255 255 255 0.426401 0.030255
1.56258 -1.80992 5.78864 0 -0.71951 0.694482 255 255 255 255 0.426296 0.030216
-3.12485 -1.80992 4.22638 -0.475906 -0.739612 0.475907 255 255 255 255 0.425897 0.030223
-1.56258 -1.80992 5.78864 -0.475906 -0.739612 0.475907 255 255 255 255 0.426049 0.030201
-2.50025 1e-06 7.66379 -0.475906 -0.739612 0.475907 255 255 255 255 0.425998 0.030301
-5 -1e-06 -5.16404 -0.694481 -0.719511 0 255 255 255 255 0.425608 0.030463
-2.50025 -1e-06 -7.66379 -0.475906 -0.739612 -0.475906 255 255 255 255 0.425772 0.03055
-1.56258 -1.80992 -5.78864 -0.475906 -0.739612 -0.475906 255 255 255 255 0.425929 0.030329
-3.12485 -1.80992 -4.22637 -0.475906 -0.739612 -0.475906 255 255 255 255 0.425832 0.030286
-2.50025 -1e-06 -7.66379 -0 -0.71951 -0.694482 255 255 255 255 0.425772 0.03055
3.12485 -1.80992 -4.22637 0.475906 -0.739612 -0.475906 255 255 255 255 0.426357 0.030322
1.56258 -1.80992 -5.78864 0.475906 -0.739612 -0.475906 255 255 255 255 0.426197 0.030348
2.50025 -1e-06 -7.66379 0.475906 -0.739612 -0.475906 255 255 255 255 0.426259 0.030588
1.56258 -1.80992 -5.78864 0 -1 0 255 255 255 255 0.426197 0.030348
3 0 1 2 
3 3 4 5 
3 6 7 8 
3 9 10 11 
3 12 13 14 
3 15 16 17 
3 18 19 20 
3 21 22 23 
3 24 25 26 
3 27 28 29 
3 1 29 2 
3 30 31 32 
3 33 34 35 
3 36 37 38 
3 39 40 41 
3 42 43 44 
3 45 46 47 
3 48 49 50 
3 51 52 53 
3 54 55 56 
3 57 58 59 
3 59 30 32 
3 0 60 1 
3 3 61 4 
3 62 63 64 
3 9 65 10 
3 66 67 68 
3 15 69 16 
3 18 70 19 
3 21 71 22 
3 72 73 74 
3 27 75 28 
3 1 27 29 
3 30 76 31 
3 33 77 34 
3 78 79 80 
3 39 81 40 
3 82 83 84 
3 45 85 46 
3 86 87 88 
3 51 89 52 
3 90 91 92 
3 57 93 58 
3 59 58 30 
