ply
format ascii 1.0
comment VCGLIB generated
comment TextureFile Dungeons_2_Texture_01_A.png
element vertex 288
property float x
property float y
property float z
property float nx
property float ny
property float nz
property uchar red
property uchar green
property uchar blue
property uchar alpha
property float texture_u
property float texture_v
element face 96
property list uchar int vertex_indices
end_header
-1.4589 0.879338 7.74401 -0.198708 0.945499 0.257968 255 255 255 255 0.475114 0.030725
0 1.81918 5.42308 -0.198708 0.945499 0.257968 255 255 255 255 0.475245 0.030581
-1.75531 1.83211 4.02359 -0.198708 0.945499 0.257968 255 255 255 255 0.474988 0.030631
1.4589 0.86954 7.74401 0.204089 0.944317 0.258094 255 255 255 255 0.475369 0.030742
1.75531 1.82231 4.0236 0.204089 0.944317 0.258094 255 255 255 255 0.475484 0.030664
0 1.81918 5.42308 0.204089 0.944317 0.258094 255 255 255 255 0.475245 0.030581
3.53514 0.874012 2.27998 0.54111 0.83521 0.0981 255 255 255 255 0.475543 0.030882
2.44333 1.80992 0.334042 0.54111 0.83521 0.0981 255 255 255 255 0.47558 0.030845
1.75531 1.82231 4.0236 0.54111 0.83521 0.0981 255 255 255 255 0.475484 0.030664
3.54436 0.904961 -1.46812 0.458324 0.874432 -0.159086 255 255 255 255 0.475532 0.031077
1.72769 1.80992 -1.72769 0.458324 0.874432 -0.159086 255 255 255 255 0.475457 0.031028
2.44333 1.80992 0.334042 0.458324 0.874432 -0.159086 255 255 255 255 0.47558 0.030845
1.46812 0.90496 -3.54436 0.190284 0.867615 -0.459386 255 255 255 255 0.475319 0.031212
0 1.80992 -2.44333 0.190284 0.867615 -0.459386 255 255 255 255 0.47517 0.031092
1.72769 1.80992 -1.72769 0.190284 0.867615 -0.459386 255 255 255 255 0.475457 0.031028
-1.46812 0.90496 -3.54436 -0.190284 0.867615 -0.459386 255 255 255 255 0.475031 0.03119
-1.72769 1.80992 -1.72769 -0.190284 0.867615 -0.459386 255 255 255 255 0.47491 0.030988
0 1.80992 -2.44333 -0.190284 0.867615 -0.459386 255 255 255 255 0.47517 0.031092
-3.54436 0.904961 -1.46812 -0.458324 0.874432 -0.159086 255 255 255 255 0.474863 0.031027
-2.44333 1.80992 0.334042 -0.458324 0.874432 -0.159086 255 255 255 255 0.474844 0.030793
-1.72769 1.80992 -1.72769 -0.458324 0.874432 -0.159086 255 255 255 255 0.47491 0.030988
-3.53514 0.883811 2.27998 -0.539368 0.836632 0.095548 255 255 255 255 0.474907 0.030837
-1.75531 1.83211 4.02359 -0.539368 0.836632 0.095548 255 255 255 255 0.474988 0.030631
-2.44333 1.80992 0.334042 -0.539368 0.836632 0.095548 255 255 255 255 0.474844 0.030793
1.46812 0.90496 -3.54436 0 0.769253 -0.638945 255 255 255 255 0.475319 0.031212
0 -1e-06 -4.63388 0 0.769253 -0.638945 255 255 255 255 0.475173 0.031356
-1.46812 0.90496 -3.54436 0 0.769253 -0.638945 255 255 255 255 0.475031 0.03119
-1.46812 0.90496 -3.54436 -0.451802 0.769253 -0.451802 255 255 255 255 0.475031 0.03119
-3.27665 -1e-06 -3.27665 -0.451802 0.769253 -0.451802 255 255 255 255 0.474934 0.031254
-3.54436 0.904961 -1.46812 -0.451802 0.769253 -0.451802 255 255 255 255 0.474863 0.031027
-3.54436 0.904961 -1.46812 -0.634171 0.773171 0.005924 255 255 255 255 0.474863 0.031027
-4.63388 0 0.00824 -0.634171 0.773171 0.005924 255 255 255 255 0.474872 0.031062
-3.53514 0.883811 2.27998 -0.634171 0.773171 0.005924 255 255 255 255 0.474907 0.030837
-3.53514 0.883811 2.27998 -0.635977 0.732696 0.24226 255 255 255 255 0.474907 0.030837
-3.3009 1e-06 5.5679 -0.635977 0.732696 0.24226 255 255 255 255 0.475004 0.0309
-1.4589 0.879338 7.74401 -0.635977 0.732696 0.24226 255 255 255 255 0.475114 0.030725
-1.4589 0.879338 7.74401 0.003132 0.932592 0.360919 255 255 255 255 0.475114 0.030725
0 2e-06 10.0035 0.003132 0.932592 0.360919 255 255 255 255 0.475242 0.030851
1.4589 0.86954 7.74401 0.003132 0.932592 0.360919 255 255 255 255 0.475369 0.030742
1.4589 0.86954 7.74401 0.632149 0.736477 0.240809 255 255 255 255 0.475369 0.030742
3.3009 1e-06 5.56791 0.632149 0.736477 0.240809 255 255 255 255 0.475465 0.030934
3.53514 0.874012 2.27998 0.632149 0.736477 0.240809 255 255 255 255 0.475543 0.030882
3.53514 0.874012 2.27998 0.632526 0.774499 0.007952 255 255 255 255 0.475543 0.030882
4.63388 0 0.00824 0.632526 0.774499 0.007952 255 255 255 255 0.475552 0.031113
3.54436 0.904961 -1.46812 0.632526 0.774499 0.007952 255 255 255 255 0.475532 0.031077
3.54436 0.904961 -1.46812 0.451802 0.769253 -0.451802 255 255 255 255 0.475532 0.031077
3.27665 -1e-06 -3.27665 0.451802 0.769253 -0.451802 255 255 255 255 0.475437 0.031294
1.46812 0.90496 -3.54436 0.451802 0.769253 -0.451802 255 255 255 255 0.475319 0.031212
0 1.80992 -2.44333 0 0.772539 -0.634967 255 255 255 255 0.47517 0.031092
1.46812 0.90496 -3.54436 0 0.772539 -0.634967 255 255 255 255 0.475319 0.031212
-1.46812 0.90496 -3.54436 0 0.772539 -0.634967 255 255 255 255 0.475031 0.03119
-1.72769 1.80992 -1.72769 -0.44899 0.772539 -0.44899 255 255 255 255 0.47491 0.030988
-1.46812 0.90496 -3.54436 -0.44899 0.772539 -0.44899 255 255 255 255 0.475031 0.03119
-3.54436 0.904961 -1.46812 -0.44899 0.772539 -0.44899 255 255 255 255 0.474863 0.031027
-2.44333 1.80992 0.334042 -0.640711 0.767759 0.005909 255 255 255 255 0.474844 0.030793
-3.54436 0.904961 -1.46812 -0.640711 0.767759 0.005909 255 255 255 255 0.474863 0.031027
-3.53514 0.883811 2.27998 -0.640711 0.767759 0.005909 255 255 255 255 0.474907 0.030837
-1.75531 1.83211 4.02359 -0.62881 0.739742 0.239542 255 255 255 255 0.474988 0.030631
-3.53514 0.883811 2.27998 -0.62881 0.739742 0.239542 255 255 255 255 0.474907 0.030837
-1.4589 0.879338 7.74401 -0.62881 0.739742 0.239542 255 255 255 255 0.475114 0.030725
0 1.81918 5.42308 0.00311 0.926202 0.377014 255 255 255 255 0.475245 0.030581
-1.4589 0.879338 7.74401 0.00311 0.926202 0.377014 255 255 255 255 0.475114 0.030725
1.4589 0.86954 7.74401 0.00311 0.926202 0.377014 255 255 255 255 0.475369 0.030742
1.75531 1.82231 4.0236 0.62881 0.739742 0.239542 255 255 255 255 0.475484 0.030664
1.4589 0.86954 7.74401 0.62881 0.739742 0.239542 255 255 255 255 0.475369 0.030742
3.53514 0.874012 2.27998 0.62881 0.739742 0.239542 255 255 255 255 0.475543 0.030882
2.44333 1.80992 0.334042 0.642641 0.766127 0.007908 255 255 255 255 0.47558 0.030845
3.53514 0.874012 2.27998 0.642641 0.766127 0.007908 255 255 255 255 0.475543 0.030882
3.54436 0.904961 -1.46812 0.642641 0.766127 0.007908 255 255 255 255 0.475532 0.031077
1.72769 1.80992 -1.72769 0.44899 0.772539 -0.44899 255 255 255 255 0.475457 0.031028
3.54436 0.904961 -1.46812 0.44899 0.772539 -0.44899 255 255 255 255 0.475532 0.031077
1.46812 0.90496 -3.54436 0.44899 0.772539 -0.44899 255 255 255 255 0.475319 0.031212
0 -1e-06 -4.63388 0.15453 0.647612 -0.746136 255 255 255 255 0.475173 0.031356
1.46812 0.90496 -3.54436 0.15453 0.647612 -0.746136 255 255 255 255 0.475319 0.031212
1.76777 -1e-06 -4.26777 0.15453 0.647612 -0.746136 255 255 255 255 0.475314 0.031345
-1.46812 0.90496 -3.54436 -0.15453 0.647612 -0.746136 255 255 255 255 0.475031 0.03119
0 -1e-06 -4.63388 -0.15453 0.647612 -0.746136 255 255 255 255 0.475173 0.031356
-1.76777 -1e-06 -4.26777 -0.15453 0.647612 -0.746136 255 255 255 255 0.475039 0.031323
-3.27665 -1e-06 -3.27665 -0.418329 0.647612 -0.636867 255 255 255 255 0.474934 0.031254
-1.46812 0.90496 -3.54436 -0.418329 0.647612 -0.636867 255 255 255 255 0.475031 0.03119
-1.76777 -1e-06 -4.26777 -0.418329 0.647612 -0.636867 255 255 255 255 0.475039 0.031323
-3.54436 0.904961 -1.46812 -0.636867 0.647612 -0.418329 255 255 255 255 0.474863 0.031027
-3.27665 -1e-06 -3.27665 -0.636867 0.647612 -0.418329 255 255 255 255 0.474934 0.031254
-4.26777 -0 -1.76777 -0.636867 0.647612 -0.418329 255 255 255 255 0.474877 0.031161
-4.63388 0 0.00824 -0.746333 0.647546 -0.153854 255 255 255 255 0.474872 0.031062
-3.54436 0.904961 -1.46812 -0.746333 0.647546 -0.153854 255 255 255 255 0.474863 0.031027
-4.26777 -0 -1.76777 -0.746333 0.647546 -0.153854 255 255 255 255 0.474877 0.031161
-3.53514 0.883811 2.27998 -0.75955 0.639555 0.118548 255 255 255 255 0.474907 0.030837
-4.63388 0 0.00824 -0.75955 0.639555 0.118548 255 255 255 255 0.474872 0.031062
-4.26777 0 2.35399 -0.75955 0.639555 0.118548 255 255 255 255 0.474918 0.030971
-3.3009 1e-06 5.5679 -0.741237 0.633121 0.222993 255 255 255 255 0.475004 0.0309
-3.53514 0.883811 2.27998 -0.741237 0.633121 0.222993 255 255 255 255 0.474907 0.030837
-4.26777 0 2.35399 -0.741237 0.633121 0.222993 255 255 255 255 0.474918 0.030971
-1.4589 0.879338 7.74401 -0.771934 0.405548 0.48954 255 255 255 255 0.475114 0.030725
-3.3009 1e-06 5.5679 -0.771934 0.405548 0.48954 255 255 255 255 0.475004 0.0309
-1.76777 1e-06 7.98543 -0.771934 0.405548 0.48954 255 255 255 255 0.475117 0.03086
0 2e-06 10.0035 -0.687209 0.406657 0.601975 255 255 255 255 0.475242 0.030851
-1.4589 0.879338 7.74401 -0.687209 0.406657 0.601975 255 255 255 255 0.475114 0.030725
-1.76777 1e-06 7.98543 -0.687209 0.406657 0.601975 255 255 255 255 0.475117 0.03086
1.4589 0.86954 7.74401 0.685925 0.410471 0.60085 255 255 255 255 0.475369 0.030742
0 2e-06 10.0035 0.685925 0.410471 0.60085 255 255 255 255 0.475242 0.030851
1.76777 1e-06 7.98543 0.685925 0.410471 0.60085 255 255 255 255 0.475363 0.030877
3.3009 1e-06 5.56791 0.770499 0.409355 0.488631 255 255 255 255 0.475465 0.030934
1.4589 0.86954 7.74401 0.770499 0.409355 0.488631 255 255 255 255 0.475369 0.030742
1.76777 1e-06 7.98543 0.770499 0.409355 0.488631 255 255 255 255 0.475363 0.030877
3.53514 0.874012 2.27998 0.73791 0.637345 0.221992 255 255 255 255 0.475543 0.030882
3.3009 1e-06 5.56791 0.73791 0.637345 0.221992 255 255 255 255 0.475465 0.030934
4.26777 0 2.35399 0.73791 0.637345 0.221992 255 255 255 255 0.47553 0.031016
4.63388 0 0.00824 0.756072 0.643763 0.118005 255 255 255 255 0.475552 0.031113
3.53514 0.874012 2.27998 0.756072 0.643763 0.118005 255 255 255 255 0.475543 0.030882
4.26777 0 2.35399 0.756072 0.643763 0.118005 255 255 255 255 0.47553 0.031016
3.54436 0.904961 -1.46812 0.746333 0.647546 -0.153853 255 255 255 255 0.475532 0.031077
4.63388 0 0.00824 0.746333 0.647546 -0.153853 255 255 255 255 0.475552 0.031113
4.26777 -0 -1.76777 0.746333 0.647546 -0.153853 255 255 255 255 0.475519 0.031211
3.27665 -1e-06 -3.27665 0.636866 0.647612 -0.418329 255 255 255 255 0.475437 0.031294
3.54436 0.904961 -1.46812 0.636866 0.647612 -0.418329 255 255 255 255 0.475532 0.031077
4.26777 -0 -1.76777 0.636866 0.647612 -0.418329 255 255 255 255 0.475519 0.031211
1.46812 0.90496 -3.54436 0.41833 0.647612 -0.636867 255 255 255 255 0.475319 0.031212
3.27665 -1e-06 -3.27665 0.41833 0.647612 -0.636867 255 255 255 255 0.475437 0.031294
1.76777 -1e-06 -4.26777 0.41833 0.647612 -0.636867 255 255 255 255 0.475314 0.031345
-1.4589 -0.879336 7.74401 -0.198708 -0.945498 0.257969 255 255 255 255 0.475114 0.030725
-1.75531 -1.83211 4.0236 -0.198708 -0.945498 0.257969 255 255 255 255 0.474988 0.030631
0 -1.81918 5.42308 -0.198708 -0.945498 0.257969 255 255 255 255 0.475245 0.030581
1.4589 -0.869538 7.74401 0.204089 -0.944317 0.258095 255 255 255 255 0.475369 0.030742
0 -1.81918 5.42308 0.204089 -0.944317 0.258095 255 255 255 255 0.475245 0.030581
1.75531 -1.82231 4.0236 0.204089 -0.944317 0.258095 255 255 255 255 0.475484 0.030664
3.53514 -0.874012 2.27998 0.54111 -0.83521 0.0981 255 255 255 255 0.475543 0.030882
1.75531 -1.82231 4.0236 0.54111 -0.83521 0.0981 255 255 255 255 0.475484 0.030664
2.44333 -1.80992 0.334042 0.54111 -0.83521 0.0981 255 255 255 255 0.47558 0.030845
3.54436 -0.904961 -1.46812 0.458324 -0.874432 -0.159086 255 255 255 255 0.475532 0.031077
2.44333 -1.80992 0.334042 0.458324 -0.874432 -0.159086 255 255 255 255 0.47558 0.030845
1.72769 -1.80992 -1.72769 0.458324 -0.874432 -0.159086 255 255 255 255 0.475457 0.031028
1.46812 -0.904962 -3.54436 0.190284 -0.867615 -0.459386 255 255 255 255 0.475319 0.031212
1.72769 -1.80992 -1.72769 0.190284 -0.867615 -0.459386 255 255 255 255 0.475457 0.031028
0 -1.80992 -2.44333 0.190284 -0.867615 -0.459386 255 255 255 255 0.47517 0.031092
-1.46812 -0.904962 -3.54436 -0.190284 -0.867615 -0.459386 255 255 255 255 0.475031 0.03119
0 -1.80992 -2.44333 -0.190284 -0.867615 -0.459386 255 255 255 255 0.47517 0.031092
-1.72769 -1.80992 -1.72769 -0.190284 -0.867615 -0.459386 255 255 255 255 0.47491 0.030988
-3.54436 -0.904961 -1.46812 -0.458324 -0.874432 -0.159086 255 255 255 255 0.474863 0.031027
-1.72769 -1.80992 -1.72769 -0.458324 -0.874432 -0.159086 255 255 255 255 0.47491 0.030988
-2.44333 -1.80992 0.334042 -0.458324 -0.874432 -0.159086 255 255 255 255 0.474844 0.030793
-3.53514 -0.883811 2.27998 -0.539368 -0.836632 0.095548 255 255 255 255 0.474907 0.030837
-2.44333 -1.80992 0.334042 -0.539368 -0.836632 0.095548 255 255 255 255 0.474844 0.030793
-1.75531 -1.83211 4.0236 -0.539368 -0.836632 0.095548 255 255 255 255 0.474988 0.030631
1.46812 -0.904962 -3.54436 0 -0.769253 -0.638944 255 255 255 255 0.475319 0.031212
-1.46812 -0.904962 -3.54436 0 -0.769253 -0.638944 255 255 255 255 0.475031 0.03119
0 -1e-06 -4.63388 0 -0.769253 -0.638944 255 255 255 255 0.475173 0.031356
-1.46812 -0.904962 -3.54436 -0.451802 -0.769253 -0.451802 255 255 255 255 0.475031 0.03119
-3.54436 -0.904961 -1.46812 -0.451802 -0.769253 -0.451802 255 255 255 255 0.474863 0.031027
-3.27665 -1e-06 -3.27665 -0.451802 -0.769253 -0.451802 255 255 255 255 0.474934 0.031254
-3.54436 -0.904961 -1.46812 -0.634171 -0.773171 0.005924 255 255 255 255 0.474863 0.031027
-3.53514 -0.883811 2.27998 -0.634171 -0.773171 0.005924 255 255 255 255 0.474907 0.030837
-4.63388 0 0.00824 -0.634171 -0.773171 0.005924 255 255 255 255 0.474872 0.031062
-3.53514 -0.883811 2.27998 -0.635977 -0.732696 0.24226 255 255 255 255 0.474907 0.030837
-1.4589 -0.879336 7.74401 -0.635977 -0.732696 0.24226 255 255 255 255 0.475114 0.030725
-3.3009 1e-06 5.5679 -0.635977 -0.732696 0.24226 255 255 255 255 0.475004 0.0309
-1.4589 -0.879336 7.74401 0.003132 -0.932592 0.360919 255 255 255 255 0.475114 0.030725
1.4589 -0.869538 7.74401 0.003132 -0.932592 0.360919 255 255 255 255 0.475369 0.030742
0 2e-06 10.0035 0.003132 -0.932592 0.360919 255 255 255 255 0.475242 0.030851
1.4589 -0.869538 7.74401 0.632149 -0.736477 0.240809 255 255 255 255 0.475369 0.030742
3.53514 -0.874012 2.27998 0.632149 -0.736477 0.240809 255 255 255 255 0.475543 0.030882
3.3009 1e-06 5.56791 0.632149 -0.736477 0.240809 255 255 255 255 0.475465 0.030934
3.53514 -0.874012 2.27998 0.632525 -0.774499 0.007952 255 255 255 255 0.475543 0.030882
3.54436 -0.904961 -1.46812 0.632525 -0.774499 0.007952 255 255 255 255 0.475532 0.031077
4.63388 0 0.00824 0.632525 -0.774499 0.007952 255 255 255 255 0.475552 0.031113
3.54436 -0.904961 -1.46812 0.451802 -0.769253 -0.451802 255 255 255 255 0.475532 0.031077
1.46812 -0.904962 -3.54436 0.451802 -0.769253 -0.451802 255 255 255 255 0.475319 0.031212
3.27665 -1e-06 -3.27665 0.451802 -0.769253 -0.451802 255 255 255 255 0.475437 0.031294
0 -1.80992 -2.44333 -0 -0.772539 -0.634967 255 255 255 255 0.47517 0.031092
-1.46812 -0.904962 -3.54436 -0 -0.772539 -0.634967 255 255 255 255 0.475031 0.03119
1.46812 -0.904962 -3.54436 -0 -0.772539 -0.634967 255 255 255 255 0.475319 0.031212
-1.72769 -1.80992 -1.72769 -0.44899 -0.772539 -0.448989 255 255 255 255 0.47491 0.030988
-3.54436 -0.904961 -1.46812 -0.44899 -0.772539 -0.448989 255 255 255 255 0.474863 0.031027
-1.46812 -0.904962 -3.54436 -0.44899 -0.772539 -0.448989 255 255 255 255 0.475031 0.03119
-2.44333 -1.80992 0.334042 -0.640711 -0.767759 0.00591 255 255 255 255 0.474844 0.030793
-3.53514 -0.883811 2.27998 -0.640711 -0.767759 0.00591 255 255 255 255 0.474907 0.030837
-3.54436 -0.904961 -1.46812 -0.640711 -0.767759 0.00591 255 255 255 255 0.474863 0.031027
-1.75531 -1.83211 4.0236 -0.62881 -0.739742 0.239543 255 255 255 255 0.474988 0.030631
-1.4589 -0.879336 7.74401 -0.62881 -0.739742 0.239543 255 255 255 255 0.475114 0.030725
-3.53514 -0.883811 2.27998 -0.62881 -0.739742 0.239543 255 255 255 255 0.474907 0.030837
0 -1.81918 5.42308 0.00311 -0.926202 0.377015 255 255 255 255 0.475245 0.030581
1.4589 -0.869538 7.74401 0.00311 -0.926202 0.377015 255 255 255 255 0.475369 0.030742
-1.4589 -0.879336 7.74401 0.00311 -0.926202 0.377015 255 255 255 255 0.475114 0.030725
1.75531 -1.82231 4.0236 0.62881 -0.739742 0.239543 255 255 255 255 0.475484 0.030664
3.53514 -0.874012 2.27998 0.62881 -0.739742 0.239543 255 255 255 255 0.475543 0.030882
1.4589 -0.869538 7.74401 0.62881 -0.739742 0.239543 255 255 255 255 0.475369 0.030742
2.44333 -1.80992 0.334042 0.642641 -0.766127 0.007908 255 255 255 255 0.47558 0.030845
3.54436 -0.904961 -1.46812 0.642641 -0.766127 0.007908 255 255 255 255 0.475532 0.031077
3.53514 -0.874012 2.27998 0.642641 -0.766127 0.007908 255 255 255 255 0.475543 0.030882
1.72769 -1.80992 -1.72769 0.44899 -0.772539 -0.448989 255 255 255 255 0.475457 0.031028
1.46812 -0.904962 -3.54436 0.44899 -0.772539 -0.448989 255 255 255 255 0.475319 0.031212
3.54436 -0.904961 -1.46812 0.44899 -0.772539 -0.448989 255 255 255 255 0.475532 0.031077
0 -1e-06 -4.63388 0.15453 -0.647612 -0.746136 255 255 255 255 0.475173 0.031356
1.76777 -1e-06 -4.26777 0.15453 -0.647612 -0.746136 255 255 255 255 0.475314 0.031345
1.46812 -0.904962 -3.54436 0.15453 -0.647612 -0.746136 255 255 255 255 0.475319 0.031212
-1.46812 -0.904962 -3.54436 -0.15453 -0.647612 -0.746136 255 255 255 255 0.475031 0.03119
-1.76777 -1e-06 -4.26777 -0.15453 -0.647612 -0.746136 255 255 255 255 0.475039 0.031323
0 -1e-06 -4.63388 -0.15453 -0.647612 -0.746136 255 255 255 255 0.475173 0.031356
-3.27665 -1e-06 -3.27665 -0.418329 -0.647612 -0.636867 255 255 255 255 0.474934 0.031254
-1.76777 -1e-06 -4.26777 -0.418329 -0.647612 -0.636867 255 255 255 255 0.475039 0.031323
-1.46812 -0.904962 -3.54436 -0.418329 -0.647612 -0.636867 255 255 255 255 0.475031 0.03119
-3.54436 -0.904961 -1.46812 -0.636867 -0.647612 -0.418329 255 255 255 255 0.474863 0.031027
-4.26777 -0 -1.76777 -0.636867 -0.647612 -0.418329 255 255 255 255 0.474877 0.031161
-3.27665 -1e-06 -3.27665 -0.636867 -0.647612 -0.418329 255 255 255 255 0.474934 0.031254
-4.63388 0 0.00824 -0.746333 -0.647546 -0.153854 255 255 255 255 0.474872 0.031062
-4.26777 -0 -1.76777 -0.746333 -0.647546 -0.153854 255 255 255 255 0.474877 0.031161
-3.54436 -0.904961 -1.46812 -0.746333 -0.647546 -0.153854 255 255 255 255 0.474863 0.031027
-3.53514 -0.883811 2.27998 -0.75955 -0.639555 0.118548 255 255 255 255 0.474907 0.030837
-4.26777 0 2.35399 -0.75955 -0.639555 0.118548 255 255 255 255 0.474918 0.030971
-4.63388 0 0.00824 -0.75955 -0.639555 0.118548 255 255 255 255 0.474872 0.031062
-3.3009 1e-06 5.5679 -0.741237 -0.633121 0.222993 255 255 255 255 0.475004 0.0309
-4.26777 0 2.35399 -0.741237 -0.633121 0.222993 255 255 255 255 0.474918 0.030971
-3.53514 -0.883811 2.27998 -0.741237 -0.633121 0.222993 255 255 255 255 0.474907 0.030837
-1.4589 -0.879336 7.74401 -0.771934 -0.405548 0.48954 255 255 255 255 0.475114 0.030725
-1.76777 1e-06 7.98543 -0.771934 -0.405548 0.48954 255 255 255 255 0.475117 0.03086
-3.3009 1e-06 5.5679 -0.771934 -0.405548 0.48954 255 255 255 255 0.475004 0.0309
0 2e-06 10.0035 -0.687209 -0.406657 0.601975 255 255 255 255 0.475242 0.030851
-1.76777 1e-06 7.98543 -0.687209 -0.406657 0.601975 255 255 255 255 0.475117 0.03086
-1.4589 -0.879336 7.74401 -0.687209 -0.406657 0.601975 255 255 255 255 0.475114 0.030725
1.4589 -0.869538 7.74401 0.685925 -0.410471 0.60085 255 255 255 255 0.475369 0.030742
1.76777 1e-06 7.98543 0.685925 -0.410471 0.60085 255 255 255 255 0.475363 0.030877
0 2e-06 10.0035 0.685925 -0.410471 0.60085 255 255 255 255 0.475242 0.030851
3.3009 1e-06 5.56791 0.770499 -0.409355 0.488631 255 255 255 255 0.475465 0.030934
1.76777 1e-06 7.98543 0.770499 -0.409355 0.488631 255 255 255 255 0.475363 0.030877
1.4589 -0.869538 7.74401 0.770499 -0.409355 0.488631 255 255 255 255 0.475369 0.030742
3.53514 -0.874012 2.27998 0.73791 -0.637345 0.221992 255 255 255 255 0.475543 0.030882
4.26777 0 2.35399 0.73791 -0.637345 0.221992 255 255 255 255 0.47553 0.031016
3.3009 1e-06 5.56791 0.73791 -0.637345 0.221992 255 255 255 255 0.475465 0.030934
4.63388 0 0.00824 0.756072 -0.643763 0.118005 255 255 255 255 0.475552 0.031113
4.26777 0 2.35399 0.756072 -0.643763 0.118005 255 255 255 255 0.47553 0.031016
3.53514 -0.874012 2.27998 0.756072 -0.643763 0.118005 255 255 255 255 0.475543 0.030882
3.54436 -0.904961 -1.46812 0.746333 -0.647546 -0.153853 255 255 255 255 0.475532 0.031077
4.26777 -0 -1.76777 0.746333 -0.647546 -0.153853 255 255 255 255 0.475519 0.031211
4.63388 0 0.00824 0.746333 -0.647546 -0.153853 255 255 255 255 0.475552 0.031113
3.27665 -1e-06 -3.27665 0.636866 -0.647612 -0.418329 255 255 255 255 0.475437 0.031294
4.26777 -0 -1.76777 0.636866 -0.647612 -0.418329 255 255 255 255 0.475519 0.031211
3.54436 -0.904961 -1.46812 0.636866 -0.647612 -0.418329 255 255 255 255 0.475532 0.031077
1.46812 -0.904962 -3.54436 0.41833 -0.647612 -0.636867 255 255 255 255 0.475319 0.031212
1.76777 -1e-06 -4.26777 0.41833 -0.647612 -0.636867 255 255 255 255 0.475314 0.031345
3.27665 -1e-06 -3.27665 0.41833 -0.647612 -0.636867 255 255 255 255 0.475437 0.031294
-1.75531 1.83211 4.02359 0.008053 0.999967 -0.00086 255 255 255 255 0.474988 0.030631
0 1.81918 5.42308 0.008053 0.999967 -0.00086 255 255 255 255 0.475245 0.030581
0 1.8154 1.02996 0.008053 0.999967 -0.00086 255 255 255 255 0.47521 0.030828
0 1.81918 5.42308 -0.002471 0.999997 -0.00086 255 255 255 255 0.475245 0.030581
1.75531 1.82231 4.0236 -0.002471 0.999997 -0.00086 255 255 255 255 0.475484 0.030664
0 1.8154 1.02996 -0.002471 0.999997 -0.00086 255 255 255 255 0.47521 0.030828
1.75531 1.82231 4.0236 0.001358 0.999994 -0.003105 255 255 255 255 0.475484 0.030664
2.44333 1.80992 0.334042 0.001358 0.999994 -0.003105 255 255 255 255 0.47558 0.030845
0 1.8154 1.02996 0.001358 0.999994 -0.003105 255 255 255 255 0.47521 0.030828
2.44333 1.80992 0.334042 0.002041 0.999998 -0.000709 255 255 255 255 0.47558 0.030845
1.72769 1.80992 -1.72769 0.002041 0.999998 -0.000709 255 255 255 255 0.475457 0.031028
0 1.8154 1.02996 0.002041 0.999998 -0.000709 255 255 255 255 0.47521 0.030828
1.72769 1.80992 -1.72769 0.000654 0.999999 -0.001578 255 255 255 255 0.475457 0.031028
0 1.80992 -2.44333 0.000654 0.999999 -0.001578 255 255 255 255 0.47517 0.031092
0 1.8154 1.02996 0.000654 0.999999 -0.001578 255 255 255 255 0.47521 0.030828
0 1.80992 -2.44333 -0.000654 0.999999 -0.001578 255 255 255 255 0.47517 0.031092
-1.72769 1.80992 -1.72769 -0.000654 0.999999 -0.001578 255 255 255 255 0.47491 0.030988
0 1.8154 1.02996 -0.000654 0.999999 -0.001578 255 255 255 255 0.47521 0.030828
-1.72769 1.80992 -1.72769 -0.002041 0.999998 -0.000709 255 255 255 255 0.47491 0.030988
-2.44333 1.80992 0.334042 -0.002041 0.999998 -0.000709 255 255 255 255 0.474844 0.030793
0 1.8154 1.02996 -0.002041 0.999998 -0.000709 255 255 255 255 0.47521 0.030828
-2.44333 1.80992 0.334042 -0.00056 0.999982 -0.00591 255 255 255 255 0.474844 0.030793
-1.75531 1.83211 4.02359 -0.00056 0.999982 -0.00591 255 255 255 255 0.474988 0.030631
0 1.8154 1.02996 -0.00056 0.999982 -0.00591 255 255 255 255 0.47521 0.030828
-1.75531 -1.83211 4.0236 -0.00056 -0.999982 -0.00591 255 255 255 255 0.474988 0.030631
-2.44333 -1.80992 0.334042 -0.00056 -0.999982 -0.00591 255 255 255 255 0.474844 0.030793
0 -1.8154 1.02996 -0.00056 -0.999982 -0.00591 255 255 255 255 0.47521 0.030828
-2.44333 -1.80992 0.334042 -0.002041 -0.999998 -0.000708 255 255 255 255 0.474844 0.030793
-1.72769 -1.80992 -1.72769 -0.002041 -0.999998 -0.000708 255 255 255 255 0.47491 0.030988
0 -1.8154 1.02996 -0.002041 -0.999998 -0.000708 255 255 255 255 0.47521 0.030828
-1.72769 -1.80992 -1.72769 -0.000654 -0.999999 -0.001578 255 255 255 255 0.47491 0.030988
0 -1.80992 -2.44333 -0.000654 -0.999999 -0.001578 255 255 255 255 0.47517 0.031092
0 -1.8154 1.02996 -0.000654 -0.999999 -0.001578 255 255 255 255 0.47521 0.030828
0 -1.80992 -2.44333 0.000654 -0.999999 -0.001578 255 255 255 255 0.47517 0.031092
1.72769 -1.80992 -1.72769 0.000654 -0.999999 -0.001578 255 255 255 255 0.475457 0.031028
0 -1.8154 1.02996 0.000654 -0.999999 -0.001578 255 255 255 255 0.47521 0.030828
1.72769 -1.80992 -1.72769 0.002041 -0.999998 -0.000708 255 255 255 255 0.475457 0.031028
2.44333 -1.80992 0.334042 0.002041 -0.999998 -0.000708 255 255 255 255 0.47558 0.030845
0 -1.8154 1.02996 0.002041 -0.999998 -0.000708 255 255 255 255 0.47521 0.030828
2.44333 -1.80992 0.334042 0.001358 -0.999994 -0.003105 255 255 255 255 0.47558 0.030845
1.75531 -1.82231 4.0236 0.001358 -0.999994 -0.003105 255 255 255 255 0.475484 0.030664
0 -1.8154 1.02996 0.001358 -0.999994 -0.003105 255 255 255 255 0.47521 0.030828
1.75531 -1.82231 4.0236 -0.002471 -0.999997 -0.00086 255 255 255 255 0.475484 0.030664
0 -1.81918 5.42308 -0.002471 -0.999997 -0.00086 255 255 255 255 0.475245 0.030581
0 -1.8154 1.02996 -0.002471 -0.999997 -0.00086 255 255 255 255 0.47521 0.030828
0 -1.81918 5.42308 0.008053 -0.999967 -0.00086 255 255 255 255 0.475245 0.030581
-1.75531 -1.83211 4.0236 0.008053 -0.999967 -0.00086 255 255 255 255 0.474988 0.030631
0 -1.8154 1.02996 0.008053 -0.999967 -0.00086 255 255 255 255 0.47521 0.030828
3 0 1 2 
3 3 4 5 
3 6 7 8 
3 9 10 11 
3 12 13 14 
3 15 16 17 
3 18 19 20 
3 21 22 23 
3 24 25 26 
3 27 28 29 
3 30 31 32 
3 33 34 35 
3 36 37 38 
3 39 40 41 
3 42 43 44 
3 45 46 47 
3 48 49 50 
3 51 52 53 
3 54 55 56 
3 57 58 59 
3 60 61 62 
3 63 64 65 
3 66 67 68 
3 69 70 71 
3 72 73 74 
3 75 76 77 
3 78 79 80 
3 81 82 83 
3 84 85 86 
3 87 88 89 
3 90 91 92 
3 93 94 95 
3 96 97 98 
3 99 100 101 
3 102 103 104 
3 105 106 107 
3 108 109 110 
3 111 112 113 
3 114 115 116 
3 117 118 119 
3 120 121 122 
3 123 124 125 
3 126 127 128 
3 129 130 131 
3 132 133 134 
3 135 136 137 
3 138 139 140 
3 141 142 143 
3 144 145 146 
3 147 148 149 
3 150 151 152 
3 153 154 155 
3 156 157 158 
3 159 160 161 
3 162 163 164 
3 165 166 167 
3 168 169 170 
3 171 172 173 
3 174 175 176 
3 177 178 179 
3 180 181 182 
3 183 184 185 
3 186 187 188 
3 189 190 191 
3 192 193 194 
3 195 196 197 
3 198 199 200 
3 201 202 203 
3 204 205 206 
3 207 208 209 
3 210 211 212 
3 213 214 215 
3 216 217 218 
3 219 220 221 
3 222 223 224 
3 225 226 227 
3 228 229 230 
3 231 232 233 
3 234 235 236 
3 237 238 239 
3 240 241 242 
3 243 244 245 
3 246 247 248 
3 249 250 251 
3 252 253 254 
3 255 256 257 
3 258 259 260 
3 261 262 263 
3 264 265 266 
3 267 268 269 
3 270 271 272 
3 273 274 275 
3 276 277 278 
3 279 280 281 
3 282 283 284 
3 285 286 287 
