ply
format ascii 1.0
comment VCGLIB generated
comment TextureFile Dungeons_2_Texture_01_A.png
element vertex 64
property float x
property float y
property float z
property float nx
property float ny
property float nz
property uchar red
property uchar green
property uchar blue
property uchar alpha
property float texture_u
property float texture_v
element face 30
property list uchar int vertex_indices
end_header
-2.50025 -1e-06 -5 -0 -0.707107 -0.707107 255 255 255 255 0.425772 0.03055
2.50025 -1e-06 -5 -0 -0.707107 -0.707107 255 255 255 255 0.426259 0.030588
0 -5 1e-06 -0 -0.707107 -0.707107 255 255 255 255 0.426111 0.030864
0 -5 1e-06 0 -0.707107 0.707107 255 255 255 255 0.426111 0.030864
2.50025 1e-06 5 0 -0.707107 0.707107 255 255 255 255 0.426419 0.030329
-2.50025 1e-06 5 0 -0.707107 0.707107 255 255 255 255 0.425998 0.030301
-5 0 2.50025 -0.707107 -0.707107 0 255 255 255 255 0.425736 0.030342
-5 -0 -2.50025 -0.707107 -0.707107 0 255 255 255 255 0.425608 0.030463
0 -5 1e-06 -0.707107 -0.707107 0 255 255 255 255 0.426111 0.030864
5 -0 -2.50025 0.707107 -0.707107 0 255 255 255 255 0.426546 0.030534
5 0 2.50025 0.707107 -0.707107 0 255 255 255 255 0.426608 0.030403
0 -5 1e-06 0.707107 -0.707107 0 255 255 255 255 0.426111 0.030864
-3.12485 1.80992 1.56258 0 1 -0 255 255 255 255 0.425897 0.030223
1.56258 1.80992 3.12485 0 1 -0 255 255 255 255 0.426296 0.030216
3.12485 1.80992 1.56258 0 1 -0 255 255 255 255 0.426401 0.030255
0 -5 1e-06 0.485063 -0.727618 -0.485063 255 255 255 255 0.426111 0.030864
2.50025 -1e-06 -5 0.485063 -0.727618 -0.485063 255 255 255 255 0.426259 0.030588
5 -0 -2.50025 0.485063 -0.727618 -0.485063 255 255 255 255 0.426546 0.030534
0 -5 1e-06 -0.485063 -0.727618 -0.485063 255 255 255 255 0.426111 0.030864
-5 -0 -2.50025 -0.485063 -0.727618 -0.485063 255 255 255 255 0.425608 0.030463
-2.50025 -1e-06 -5 -0.485063 -0.727618 -0.485063 255 255 255 255 0.425772 0.03055
5 0 2.50025 0.485063 -0.727618 0.485063 255 255 255 255 0.426608 0.030403
2.50025 1e-06 5 0.485063 -0.727618 0.485063 255 255 255 255 0.426419 0.030329
0 -5 1e-06 0.485063 -0.727618 0.485063 255 255 255 255 0.426111 0.030864
-2.50025 1e-06 5 -0.485063 -0.727618 0.485063 255 255 255 255 0.425998 0.030301
-5 0 2.50025 -0.485063 -0.727618 0.485063 255 255 255 255 0.425736 0.030342
0 -5 1e-06 -0.485063 -0.727618 0.485063 255 255 255 255 0.426111 0.030864
5 -0 -2.50025 0.694482 0.71951 -0 255 255 255 255 0.426546 0.030534
3.12485 1.80992 1.56258 0.694482 0.71951 -0 255 255 255 255 0.426401 0.030255
5 0 2.50025 0.694482 0.71951 -0 255 255 255 255 0.426608 0.030403
5 0 2.50025 0.475907 0.739612 0.475907 255 255 255 255 0.426608 0.030403
1.56258 1.80992 3.12485 0.475907 0.739612 0.475907 255 255 255 255 0.426296 0.030216
2.50025 1e-06 5 0.475907 0.739612 0.475907 255 255 255 255 0.426419 0.030329
2.50025 1e-06 5 0 0.719511 0.694481 255 255 255 255 0.426419 0.030329
-1.56258 1.80992 3.12485 0 0.719511 0.694481 255 255 255 255 0.426049 0.030201
-2.50025 1e-06 5 0 0.719511 0.694481 255 255 255 255 0.425998 0.030301
-2.50025 1e-06 5 -0.475907 0.739612 0.475907 255 255 255 255 0.425998 0.030301
-3.12485 1.80992 1.56258 -0.475907 0.739612 0.475907 255 255 255 255 0.425897 0.030223
-5 0 2.50025 -0.475907 0.739612 0.475907 255 255 255 255 0.425736 0.030342
-5 0 2.50025 -0.694482 0.71951 -0 255 255 255 255 0.425736 0.030342
-3.12485 1.80992 -1.56258 -0.694482 0.71951 -0 255 255 255 255 0.425832 0.030286
-5 -0 -2.50025 -0.694482 0.71951 -0 255 255 255 255 0.425608 0.030463
-5 -0 -2.50025 -0.475907 0.739612 -0.475907 255 255 255 255 0.425608 0.030463
-1.56258 1.80992 -3.12485 -0.475907 0.739612 -0.475907 255 255 255 255 0.425929 0.030329
-2.50025 -1e-06 -5 -0.475907 0.739612 -0.475907 255 255 255 255 0.425772 0.03055
2.50025 -1e-06 -5 0 0.71951 -0.694482 255 255 255 255 0.426259 0.030588
-1.56258 1.80992 -3.12485 0 0.71951 -0.694482 255 255 255 255 0.425929 0.030329
1.56258 1.80992 -3.12485 0 0.71951 -0.694482 255 255 255 255 0.426197 0.030348
2.50025 -1e-06 -5 0.475907 0.739612 -0.475907 255 255 255 255 0.426259 0.030588
3.12485 1.80992 -1.56258 0.475907 0.739612 -0.475907 255 255 255 255 0.426357 0.030322
5 -0 -2.50025 0.475907 0.739612 -0.475907 255 255 255 255 0.426546 0.030534
1.56258 1.80992 -3.12485 0 1 -0 255 255 255 255 0.426197 0.030348
-3.12485 1.80992 -1.56258 0 1 -0 255 255 255 255 0.425832 0.030286
3.12485 1.80992 -1.56258 0 1 -0 255 255 255 255 0.426357 0.030322
-1.56258 1.80992 3.12485 0 1 -0 255 255 255 255 0.426049 0.030201
3.12485 1.80992 -1.56258 0.694482 0.71951 -0 255 255 255 255 0.426357 0.030322
3.12485 1.80992 1.56258 0.475907 0.739612 0.475907 255 255 255 255 0.426401 0.030255
1.56258 1.80992 3.12485 -0 0.719511 0.694481 255 255 255 255 0.426296 0.030216
-1.56258 1.80992 3.12485 -0.475907 0.739612 0.475907 255 255 255 255 0.426049 0.030201
-3.12485 1.80992 1.56258 -0.694482 0.71951 -0 255 255 255 255 0.425897 0.030223
-3.12485 1.80992 -1.56258 -0.475907 0.739612 -0.475907 255 255 255 255 0.425832 0.030286
-2.50025 -1e-06 -5 0 0.71951 -0.694482 255 255 255 255 0.425772 0.03055
1.56258 1.80992 -3.12485 0.475907 0.739612 -0.475907 255 255 255 255 0.426197 0.030348
-1.56258 1.80992 -3.12485 0 1 -0 255 255 255 255 0.425929 0.030329
3 0 1 2 
3 3 4 5 
3 6 7 8 
3 9 10 11 
3 12 13 14 
3 15 16 17 
3 18 19 20 
3 21 22 23 
3 24 25 26 
3 27 28 29 
3 30 31 32 
3 33 34 35 
3 36 37 38 
3 39 40 41 
3 42 43 44 
3 45 46 47 
3 48 49 50 
3 51 52 53 
3 52 14 53 
3 12 54 13 
3 27 55 28 
3 30 56 31 
3 33 57 34 
3 36 58 37 
3 39 59 40 
3 42 60 43 
3 45 61 46 
3 48 62 49 
3 51 63 52 
3 52 12 14 
